<?xml version="1.0" encoding="UTF-8" standalone="no"?>
<svg xmlns:xlink="http://www.w3.org/1999/xlink" height="29.5px" width="445.0px" xmlns="http://www.w3.org/2000/svg">
  <g transform="matrix(1.0, 0.0, 0.0, 1.0, -49.5, -284.4)">
    <path d="M450.7 307.75 L451.65 307.5 Q455.55 306.5 455.3 304.65 454.2 302.5 454.2 301.35 460.7 299.7 463.6 298.45 466.35 297.2 467.05 295.85 L470.3 295.6 Q472.65 288.5 473.8 288.5 475.55 288.5 482.85 293.4 L492.75 299.75 494.5 299.6 Q492.6 298.85 483.55 293.1 475.3 287.75 474.1 287.75 472.05 287.75 471.0 290.95 L469.8 295.0 466.95 295.35 463.15 298.1 Q461.05 299.1 453.8 300.85 453.7 301.5 454.2 304.25 454.2 305.8 450.7 307.75 M99.2 286.7 Q101.45 285.85 104.65 285.85 110.75 285.85 112.35 292.25 L113.25 296.6 Q113.8 298.6 115.0 298.6 122.4 298.6 133.35 294.25 144.3 289.85 145.25 289.85 L149.7 290.1 156.55 290.5 Q158.5 293.05 162.35 295.45 170.0 300.25 180.2 300.25 181.35 300.25 185.5 297.25 189.9 294.05 191.2 293.75 L209.85 293.85 Q212.4 294.8 213.7 297.15 L215.15 301.55 Q215.95 304.2 217.15 305.35 218.9 307.0 222.55 307.0 231.3 307.0 234.5 305.45 236.1 303.8 236.8 303.6 L239.95 303.35 240.2 301.85 240.2 301.6 242.35 302.05 245.15 302.5 Q245.3 302.1 245.1 301.65 L244.9 300.4 Q244.9 299.65 245.15 299.45 L245.4 299.25 250.65 298.75 Q251.3 300.4 251.65 305.15 251.95 309.65 252.8 311.5 L259.75 310.9 Q261.15 309.9 262.15 308.05 263.1 305.9 263.75 304.8 265.95 300.75 271.6 299.25 278.25 297.5 279.35 293.85 279.7 292.65 279.5 290.85 L279.3 288.25 279.15 287.85 Q282.95 288.25 289.25 291.85 L298.05 296.75 Q301.85 298.3 303.5 301.9 305.45 306.15 305.75 306.4 315.9 306.35 316.7 304.45 L317.1 302.35 Q317.5 300.95 319.35 299.85 L324.5 299.25 Q336.85 300.2 338.35 302.6 L339.15 305.05 Q339.65 306.8 341.55 308.15 L345.4 308.0 Q352.6 302.6 357.75 299.85 367.15 294.85 374.9 294.85 381.85 294.85 388.8 298.95 L393.5 301.75 Q395.85 303.0 397.5 303.0 L402.4 302.85 Q404.8 301.2 410.35 298.8 414.9 296.75 419.3 293.1 426.45 292.4 433.4 301.55 435.7 304.55 438.05 308.8 L440.8 313.9 Q442.15 313.3 445.35 310.65 L445.75 310.3 440.95 312.9 Q438.75 307.5 433.5 300.25 427.6 292.0 424.7 292.0 L418.9 292.1 Q414.8 294.95 410.0 297.2 405.45 299.3 401.9 301.85 397.75 301.45 389.8 297.3 382.15 293.35 380.35 293.35 367.65 293.35 357.05 298.6 352.35 300.95 344.9 306.75 L341.55 306.65 Q339.95 303.7 338.35 301.7 335.4 297.85 330.95 297.85 L318.6 298.5 Q318.05 298.95 316.35 302.8 315.15 305.5 311.8 305.5 L305.6 305.4 Q303.85 298.45 294.85 292.2 286.5 286.35 280.05 286.35 L277.8 286.5 277.6 286.4 Q277.4 286.45 277.4 287.25 277.4 287.9 277.9 289.15 L278.4 291.0 Q278.4 293.75 275.95 295.6 274.1 297.0 267.3 300.0 264.9 301.05 262.9 304.4 260.3 308.85 259.4 309.75 L253.3 310.15 252.65 303.2 Q252.25 298.6 250.5 296.5 250.3 296.8 250.15 297.05 L249.75 297.6 Q247.4 297.8 243.9 299.3 243.3 300.35 243.6 301.25 L241.2 300.5 Q238.95 300.65 239.2 302.35 236.35 302.2 234.6 304.0 232.7 305.9 229.0 305.9 219.55 305.9 217.15 302.6 215.95 300.95 216.65 299.15 216.65 297.1 215.3 295.4 213.45 293.0 209.45 292.35 L191.05 292.5 Q189.35 292.9 185.35 295.8 183.5 297.2 181.65 298.6 170.95 298.6 163.9 294.4 161.7 293.1 157.45 288.85 L151.0 288.25 Q145.4 288.25 130.5 292.55 122.9 294.7 115.5 297.1 115.1 296.55 113.8 291.5 112.85 287.55 108.95 285.35 104.75 282.95 99.2 286.7 M49.5 286.35 Q49.5 288.0 52.45 288.0 L55.9 287.5 56.55 286.5 Q62.1 285.35 65.8 286.45 68.25 287.15 71.35 289.6 75.0 292.45 77.0 293.4 80.95 295.25 86.5 295.25 L91.8 295.1 Q92.8 294.5 93.6 292.75 L94.95 290.1 91.3 293.6 Q80.65 293.4 71.85 289.25 71.15 288.7 70.8 287.6 70.45 286.55 69.8 286.1 67.65 284.5 53.8 284.95 L49.75 285.5 Q49.5 285.6 49.5 286.35" fill="#ffffff" fill-rule="evenodd" stroke="none">
      <animate attributeName="fill" dur="2s" repeatCount="indefinite" values="#ffffff;#ffffff"/>
      <animate attributeName="fill-opacity" dur="2s" repeatCount="indefinite" values="1.0;1.0"/>
      <animate attributeName="d" dur="2s" repeatCount="indefinite" values="M450.7 307.75 L451.65 307.5 Q455.55 306.5 455.3 304.65 454.2 302.5 454.2 301.35 460.7 299.7 463.6 298.45 466.35 297.2 467.05 295.85 L470.3 295.6 Q472.65 288.5 473.8 288.5 475.55 288.5 482.85 293.4 L492.75 299.75 494.5 299.6 Q492.6 298.85 483.55 293.1 475.3 287.75 474.1 287.75 472.05 287.75 471.0 290.95 L469.8 295.0 466.95 295.35 463.15 298.1 Q461.05 299.1 453.8 300.85 453.7 301.5 454.2 304.25 454.2 305.8 450.7 307.75 M99.2 286.7 Q101.45 285.85 104.65 285.85 110.75 285.85 112.35 292.25 L113.25 296.6 Q113.8 298.6 115.0 298.6 122.4 298.6 133.35 294.25 144.3 289.85 145.25 289.85 L149.7 290.1 156.55 290.5 Q158.5 293.05 162.35 295.45 170.0 300.25 180.2 300.25 181.35 300.25 185.5 297.25 189.9 294.05 191.2 293.75 L209.85 293.85 Q212.4 294.8 213.7 297.15 L215.15 301.55 Q215.95 304.2 217.15 305.35 218.9 307.0 222.55 307.0 231.3 307.0 234.5 305.45 236.1 303.8 236.8 303.6 L239.95 303.35 240.2 301.85 240.2 301.6 242.35 302.05 245.15 302.5 Q245.3 302.1 245.1 301.65 L244.9 300.4 Q244.9 299.65 245.15 299.45 L245.4 299.25 250.65 298.75 Q251.3 300.4 251.65 305.15 251.95 309.65 252.8 311.5 L259.75 310.9 Q261.15 309.9 262.15 308.05 263.1 305.9 263.75 304.8 265.95 300.75 271.6 299.25 278.25 297.5 279.35 293.85 279.7 292.65 279.5 290.85 L279.3 288.25 279.15 287.85 Q282.95 288.25 289.25 291.85 L298.05 296.75 Q301.85 298.3 303.5 301.9 305.45 306.15 305.75 306.4 315.9 306.35 316.7 304.45 L317.1 302.35 Q317.5 300.95 319.35 299.85 L324.5 299.25 Q336.85 300.2 338.35 302.6 L339.15 305.05 Q339.65 306.8 341.55 308.15 L345.4 308.0 Q352.6 302.6 357.75 299.85 367.15 294.85 374.9 294.85 381.85 294.85 388.8 298.95 L393.5 301.75 Q395.85 303.0 397.5 303.0 L402.4 302.85 Q404.8 301.2 410.35 298.8 414.9 296.75 419.3 293.1 426.45 292.4 433.4 301.55 435.7 304.55 438.05 308.8 L440.8 313.9 Q442.15 313.3 445.35 310.65 L445.75 310.3 440.95 312.9 Q438.75 307.5 433.5 300.25 427.6 292.0 424.7 292.0 L418.9 292.1 Q414.8 294.95 410.0 297.2 405.45 299.3 401.9 301.85 397.75 301.45 389.8 297.3 382.15 293.35 380.35 293.35 367.65 293.35 357.05 298.6 352.35 300.95 344.9 306.75 L341.55 306.65 Q339.95 303.7 338.35 301.7 335.4 297.85 330.95 297.85 L318.6 298.5 Q318.05 298.95 316.35 302.8 315.15 305.5 311.8 305.5 L305.6 305.4 Q303.85 298.45 294.85 292.2 286.5 286.35 280.05 286.35 L277.8 286.5 277.6 286.4 Q277.4 286.45 277.4 287.25 277.4 287.9 277.9 289.15 L278.4 291.0 Q278.4 293.75 275.95 295.6 274.1 297.0 267.3 300.0 264.9 301.05 262.9 304.4 260.3 308.85 259.4 309.75 L253.3 310.15 252.65 303.2 Q252.25 298.6 250.5 296.5 250.3 296.8 250.15 297.05 L249.75 297.6 Q247.4 297.8 243.9 299.3 243.3 300.35 243.6 301.25 L241.2 300.5 Q238.95 300.65 239.2 302.35 236.35 302.2 234.6 304.0 232.7 305.9 229.0 305.9 219.55 305.9 217.15 302.6 215.95 300.95 216.65 299.15 216.65 297.1 215.3 295.4 213.45 293.0 209.45 292.35 L191.05 292.5 Q189.35 292.9 185.35 295.8 183.5 297.2 181.65 298.6 170.95 298.6 163.9 294.4 161.7 293.1 157.45 288.85 L151.0 288.25 Q145.4 288.25 130.5 292.55 122.9 294.7 115.5 297.1 115.1 296.55 113.8 291.5 112.85 287.55 108.95 285.35 104.75 282.95 99.2 286.7 M49.5 286.35 Q49.5 288.0 52.45 288.0 L55.9 287.5 56.55 286.5 Q62.1 285.35 65.8 286.45 68.25 287.15 71.35 289.6 75.0 292.45 77.0 293.4 80.95 295.25 86.5 295.25 L91.8 295.1 Q92.8 294.5 93.6 292.75 L94.95 290.1 91.3 293.6 Q80.65 293.4 71.85 289.25 71.15 288.7 70.8 287.6 70.45 286.55 69.8 286.1 67.65 284.5 53.8 284.95 L49.75 285.5 Q49.5 285.6 49.5 286.35;M450.7 303.35 L451.65 303.25 Q455.55 302.75 455.3 301.85 454.2 300.8 454.2 300.2 458.9 299.5 463.6 298.8 466.35 298.2 467.05 297.5 L470.3 297.4 Q472.65 293.9 473.8 293.9 475.55 293.9 482.85 296.3 L492.75 299.45 494.5 299.35 Q489.0 297.75 483.55 296.15 475.3 293.55 474.1 293.55 472.05 293.55 471.0 295.1 L469.8 297.1 466.95 297.25 463.15 298.65 Q458.45 299.35 453.8 300.0 453.7 300.3 454.2 301.65 454.2 302.4 450.7 303.35 M99.2 293.0 Q101.95 292.8 104.65 292.6 110.75 292.6 112.35 295.75 L113.25 297.9 Q113.8 298.85 115.0 298.85 122.4 298.85 133.35 296.75 139.3 295.65 145.25 294.55 L149.7 294.7 156.55 294.9 Q158.5 296.15 162.35 297.3 170.0 299.7 180.2 299.7 181.35 299.7 185.5 298.2 189.9 296.65 191.2 296.5 L209.85 296.55 Q212.4 297.0 213.7 298.15 L215.15 300.3 Q215.95 301.6 217.15 302.2 218.9 303.0 222.55 303.0 228.55 302.6 234.5 302.25 236.1 301.45 236.8 301.35 L239.95 301.2 240.2 300.45 240.2 300.35 242.35 300.55 245.15 300.8 Q245.3 300.6 245.1 300.35 L244.9 299.75 Q244.9 299.4 245.15 299.3 L245.4 299.2 250.65 298.95 Q251.3 299.75 251.65 302.1 251.95 304.3 252.8 305.2 L259.75 304.9 Q261.15 304.45 262.15 303.5 262.95 302.7 263.75 301.9 265.95 299.95 271.6 299.2 278.25 298.35 279.35 296.55 279.7 295.95 279.5 295.05 L279.3 293.8 279.15 293.6 Q282.95 293.8 289.25 295.55 L298.05 297.95 Q301.85 298.7 303.5 300.5 304.65 301.6 305.75 302.7 315.9 302.7 316.7 301.75 L317.1 300.7 Q317.5 300.05 319.35 299.5 L324.5 299.2 Q336.85 299.65 338.35 300.85 L339.15 302.05 Q339.65 302.9 341.55 303.55 L345.4 303.5 Q352.6 300.85 357.75 299.5 367.15 297.05 374.9 297.05 381.85 297.05 388.8 299.05 L393.5 300.4 Q395.5 300.75 397.5 301.05 L402.4 300.95 Q404.8 300.15 410.35 298.95 414.9 297.95 419.3 296.15 426.45 295.8 433.4 300.3 435.7 301.8 438.05 303.9 L440.8 306.4 Q442.15 306.1 445.35 304.8 L445.75 304.6 440.95 305.9 Q438.75 303.25 433.5 299.7 427.6 295.65 424.7 295.65 L418.9 295.7 Q414.8 297.1 410.0 298.2 405.45 299.2 401.9 300.45 397.75 300.25 389.8 298.25 382.15 296.3 380.35 296.3 367.65 296.3 357.05 298.85 352.35 300.05 344.9 302.9 L341.55 302.85 Q339.95 301.6 338.35 300.4 335.4 298.5 330.95 298.5 L318.6 298.8 Q318.05 299.05 316.35 300.95 315.15 302.25 311.8 302.25 L305.6 302.2 Q303.85 298.8 294.85 295.75 286.5 292.85 280.05 292.85 L277.8 292.9 277.6 292.85 Q277.4 292.9 277.4 293.3 277.65 293.8 277.9 294.25 L278.4 295.15 Q278.4 296.5 275.95 297.4 271.6 298.5 267.3 299.55 264.9 300.1 262.9 301.7 261.15 303.05 259.4 304.35 L253.3 304.55 252.65 301.15 Q252.25 298.85 250.5 297.85 250.35 297.9 250.15 298.1 L249.75 298.4 Q246.8 298.8 243.9 299.2 243.3 299.75 243.6 300.15 L241.2 299.8 Q238.95 299.9 239.2 300.7 236.35 300.65 234.6 301.55 232.7 302.45 229.0 302.45 219.55 302.45 217.15 300.85 215.95 300.05 216.65 299.15 216.65 298.15 215.3 297.3 213.45 296.1 209.45 295.8 L191.05 295.85 Q189.35 296.05 185.35 297.5 183.35 298.2 181.65 298.85 170.95 298.85 163.9 296.8 161.7 296.15 157.45 294.1 L151.0 293.8 Q145.4 293.8 130.5 295.9 123.0 297.05 115.5 298.15 115.1 297.85 113.8 295.4 112.85 293.45 108.95 292.35 104.75 291.2 99.2 293.0 M49.5 292.85 Q49.5 293.65 52.45 293.65 L55.9 293.4 56.55 292.9 Q62.1 292.35 65.8 292.9 68.25 293.25 71.35 294.45 75.0 295.85 77.0 296.3 81.75 296.75 86.5 297.2 L91.8 297.15 Q92.8 296.85 93.6 296.0 L94.95 294.7 91.3 296.4 Q80.65 296.3 71.85 294.3 71.3 293.85 70.8 293.45 70.3 293.1 69.8 292.75 61.8 292.45 53.8 292.15 L49.75 292.45 Q49.5 292.5 49.5 292.85"/>
    </path>
    <path d="M49.5 286.35 Q49.5 285.6 49.75 285.5 L53.8 284.95 Q67.65 284.5 69.8 286.1 70.45 286.55 70.8 287.6 71.15 288.7 71.85 289.25 80.65 293.4 91.3 293.6 L94.95 290.1 93.6 292.75 Q92.8 294.5 91.8 295.1 L86.5 295.25 Q80.95 295.25 77.0 293.4 75.0 292.45 71.35 289.6 68.25 287.15 65.8 286.45 62.1 285.35 56.55 286.5 L55.9 287.5 52.45 288.0 Q49.5 288.0 49.5 286.35 M99.2 286.7 Q104.75 282.95 108.95 285.35 112.85 287.55 113.8 291.5 115.1 296.55 115.5 297.1 122.9 294.7 130.5 292.55 145.4 288.25 151.0 288.25 L157.45 288.85 Q161.7 293.1 163.9 294.4 170.95 298.6 181.65 298.6 183.5 297.2 185.35 295.8 189.35 292.9 191.05 292.5 L209.45 292.35 Q213.45 293.0 215.3 295.4 216.65 297.1 216.65 299.15 215.95 300.95 217.15 302.6 219.55 305.9 229.0 305.9 232.7 305.9 234.6 304.0 236.35 302.2 239.2 302.35 238.95 300.65 241.2 300.5 L243.6 301.25 Q243.3 300.35 243.9 299.3 247.4 297.8 249.75 297.6 L250.15 297.05 Q250.3 296.8 250.5 296.5 252.25 298.6 252.65 303.2 L253.3 310.15 259.4 309.75 Q260.3 308.85 262.9 304.4 264.9 301.05 267.3 300.0 274.1 297.0 275.95 295.6 278.4 293.75 278.4 291.0 L277.9 289.15 Q277.4 287.9 277.4 287.25 277.4 286.45 277.6 286.4 L277.8 286.5 280.05 286.35 Q286.5 286.35 294.85 292.2 303.85 298.45 305.6 305.4 L311.8 305.5 Q315.15 305.5 316.35 302.8 318.05 298.95 318.6 298.5 L330.95 297.85 Q335.4 297.85 338.35 301.7 339.95 303.7 341.55 306.65 L344.9 306.75 Q352.35 300.95 357.05 298.6 367.65 293.35 380.35 293.35 382.15 293.35 389.8 297.3 397.75 301.45 401.9 301.85 405.45 299.3 410.0 297.2 414.8 294.95 418.9 292.1 L424.7 292.0 Q427.6 292.0 433.5 300.25 438.75 307.5 440.95 312.9 L445.75 310.3 445.35 310.65 Q442.15 313.3 440.8 313.9 L438.05 308.8 Q435.7 304.55 433.4 301.55 426.45 292.4 419.3 293.1 414.9 296.75 410.35 298.8 404.8 301.2 402.4 302.85 L397.5 303.0 Q395.85 303.0 393.5 301.75 L388.8 298.95 Q381.85 294.85 374.9 294.85 367.15 294.85 357.75 299.85 352.6 302.6 345.4 308.0 L341.55 308.15 Q339.65 306.8 339.15 305.05 L338.35 302.6 Q336.85 300.2 324.5 299.25 L319.35 299.85 Q317.5 300.95 317.1 302.35 L316.7 304.45 Q315.9 306.35 305.75 306.4 305.45 306.15 303.5 301.9 301.85 298.3 298.05 296.75 L289.25 291.85 Q282.95 288.25 279.15 287.85 L279.3 288.25 279.5 290.85 Q279.7 292.65 279.35 293.85 278.25 297.5 271.6 299.25 265.95 300.75 263.75 304.8 263.1 305.9 262.15 308.05 261.15 309.9 259.75 310.9 L252.8 311.5 Q251.95 309.65 251.65 305.15 251.3 300.4 250.65 298.75 L245.4 299.25 245.15 299.45 Q244.9 299.65 244.9 300.4 L245.1 301.65 Q245.3 302.1 245.15 302.5 L242.35 302.05 240.2 301.6 240.2 301.85 239.95 303.35 236.8 303.6 Q236.1 303.8 234.5 305.45 231.3 307.0 222.55 307.0 218.9 307.0 217.15 305.35 215.95 304.2 215.15 301.55 L213.7 297.15 Q212.4 294.8 209.85 293.85 L191.2 293.75 Q189.9 294.05 185.5 297.25 181.35 300.25 180.2 300.25 170.0 300.25 162.35 295.45 158.5 293.05 156.55 290.5 L149.7 290.1 145.25 289.85 Q144.3 289.85 133.35 294.25 122.4 298.6 115.0 298.6 113.8 298.6 113.25 296.6 L112.35 292.25 Q110.75 285.85 104.65 285.85 101.45 285.85 99.2 286.7 M450.7 307.75 Q454.2 305.8 454.2 304.25 453.7 301.5 453.8 300.85 461.05 299.1 463.15 298.1 L466.95 295.35 469.8 295.0 471.0 290.95 Q472.05 287.75 474.1 287.75 475.3 287.75 483.55 293.1 492.6 298.85 494.5 299.6 L492.75 299.75 482.85 293.4 Q475.55 288.5 473.8 288.5 472.65 288.5 470.3 295.6 L467.05 295.85 Q466.35 297.2 463.6 298.45 460.7 299.7 454.2 301.35 454.2 302.5 455.3 304.65 455.55 306.5 451.65 307.5 L450.7 307.75" fill="none" stroke="#000000" stroke-linecap="round" stroke-linejoin="round" stroke-opacity="0.0" stroke-width="1.0">
      <animate attributeName="stroke" dur="2s" repeatCount="indefinite" values="#000000;#000001"/>
      <animate attributeName="stroke-width" dur="2s" repeatCount="indefinite" values="0.0;0.0"/>
      <animate attributeName="fill-opacity" dur="2s" repeatCount="indefinite" values="0.0;0.0"/>
      <animate attributeName="d" dur="2s" repeatCount="indefinite" values="M49.5 286.35 Q49.5 285.6 49.75 285.5 L53.8 284.95 Q67.65 284.5 69.8 286.1 70.45 286.55 70.8 287.6 71.15 288.7 71.85 289.25 80.65 293.4 91.3 293.6 L94.95 290.1 93.6 292.75 Q92.8 294.5 91.8 295.1 L86.5 295.25 Q80.95 295.25 77.0 293.4 75.0 292.45 71.35 289.6 68.25 287.15 65.8 286.45 62.1 285.35 56.55 286.5 L55.9 287.5 52.45 288.0 Q49.5 288.0 49.5 286.35 M99.2 286.7 Q104.75 282.95 108.95 285.35 112.85 287.55 113.8 291.5 115.1 296.55 115.5 297.1 122.9 294.7 130.5 292.55 145.4 288.25 151.0 288.25 L157.45 288.85 Q161.7 293.1 163.9 294.4 170.95 298.6 181.65 298.6 183.5 297.2 185.35 295.8 189.35 292.9 191.05 292.5 L209.45 292.35 Q213.45 293.0 215.3 295.4 216.65 297.1 216.65 299.15 215.95 300.95 217.15 302.6 219.55 305.9 229.0 305.9 232.7 305.9 234.6 304.0 236.35 302.2 239.2 302.35 238.95 300.65 241.2 300.5 L243.6 301.25 Q243.3 300.35 243.9 299.3 247.4 297.8 249.75 297.6 L250.15 297.05 Q250.3 296.8 250.5 296.5 252.25 298.6 252.65 303.2 L253.3 310.15 259.4 309.75 Q260.3 308.85 262.9 304.4 264.9 301.05 267.3 300.0 274.1 297.0 275.95 295.6 278.4 293.75 278.4 291.0 L277.9 289.15 Q277.4 287.9 277.4 287.25 277.4 286.45 277.6 286.4 L277.8 286.5 280.05 286.35 Q286.5 286.35 294.85 292.2 303.85 298.45 305.6 305.4 L311.8 305.5 Q315.15 305.5 316.35 302.8 318.05 298.95 318.6 298.5 L330.95 297.85 Q335.4 297.85 338.35 301.7 339.95 303.7 341.55 306.65 L344.9 306.75 Q352.35 300.95 357.05 298.6 367.65 293.35 380.35 293.35 382.15 293.35 389.8 297.3 397.75 301.45 401.9 301.85 405.45 299.3 410.0 297.2 414.8 294.95 418.9 292.1 L424.7 292.0 Q427.6 292.0 433.5 300.25 438.75 307.5 440.95 312.9 L445.75 310.3 445.35 310.65 Q442.15 313.3 440.8 313.9 L438.05 308.8 Q435.7 304.55 433.4 301.55 426.45 292.4 419.3 293.1 414.9 296.75 410.35 298.8 404.8 301.2 402.4 302.85 L397.5 303.0 Q395.85 303.0 393.5 301.75 L388.8 298.95 Q381.85 294.85 374.9 294.85 367.15 294.85 357.75 299.85 352.6 302.6 345.4 308.0 L341.55 308.15 Q339.65 306.8 339.15 305.05 L338.35 302.6 Q336.85 300.2 324.5 299.25 L319.35 299.85 Q317.5 300.95 317.1 302.35 L316.7 304.45 Q315.9 306.35 305.75 306.4 305.45 306.15 303.5 301.9 301.85 298.3 298.05 296.75 L289.25 291.85 Q282.95 288.25 279.15 287.85 L279.3 288.25 279.5 290.85 Q279.7 292.65 279.35 293.85 278.25 297.5 271.6 299.25 265.95 300.75 263.75 304.8 263.1 305.9 262.15 308.05 261.15 309.9 259.75 310.9 L252.8 311.5 Q251.95 309.65 251.65 305.15 251.3 300.4 250.65 298.75 L245.4 299.25 245.15 299.45 Q244.9 299.65 244.9 300.4 L245.1 301.65 Q245.3 302.1 245.15 302.5 L242.35 302.05 240.2 301.6 240.2 301.85 239.95 303.35 236.8 303.6 Q236.1 303.8 234.5 305.45 231.3 307.0 222.55 307.0 218.9 307.0 217.15 305.35 215.95 304.2 215.15 301.55 L213.7 297.15 Q212.4 294.8 209.85 293.85 L191.2 293.75 Q189.9 294.05 185.5 297.25 181.35 300.25 180.2 300.25 170.0 300.25 162.35 295.45 158.5 293.05 156.55 290.5 L149.7 290.1 145.25 289.85 Q144.3 289.85 133.35 294.25 122.4 298.6 115.0 298.6 113.8 298.6 113.25 296.6 L112.35 292.25 Q110.75 285.85 104.65 285.85 101.45 285.85 99.2 286.7 M450.7 307.75 Q454.2 305.8 454.2 304.25 453.7 301.5 453.8 300.85 461.05 299.1 463.15 298.1 L466.95 295.35 469.8 295.0 471.0 290.95 Q472.05 287.75 474.1 287.75 475.3 287.75 483.55 293.1 492.6 298.85 494.5 299.6 L492.75 299.75 482.85 293.4 Q475.55 288.5 473.8 288.5 472.65 288.5 470.3 295.6 L467.05 295.85 Q466.35 297.2 463.6 298.45 460.7 299.7 454.2 301.35 454.2 302.5 455.3 304.65 455.55 306.5 451.65 307.5 L450.7 307.75;M49.5 292.85 Q49.5 292.5 49.75 292.45 L53.8 292.15 Q61.8 292.45 69.8 292.75 70.3 293.1 70.8 293.45 71.3 293.85 71.85 294.3 80.65 296.3 91.3 296.4 L94.95 294.7 93.6 296.0 Q92.8 296.85 91.8 297.15 L86.5 297.2 Q81.75 296.75 77.0 296.3 75.0 295.85 71.35 294.45 68.25 293.25 65.8 292.9 62.1 292.35 56.55 292.9 L55.9 293.4 52.45 293.65 Q49.5 293.65 49.5 292.85 M99.2 293.0 Q104.75 291.2 108.95 292.35 112.85 293.45 113.8 295.4 115.1 297.85 115.5 298.15 123.0 297.05 130.5 295.9 145.4 293.8 151.0 293.8 L157.45 294.1 Q161.7 296.15 163.9 296.8 170.95 298.85 181.65 298.85 183.35 298.2 185.35 297.5 189.35 296.05 191.05 295.85 L209.45 295.8 Q213.45 296.1 215.3 297.3 216.65 298.15 216.65 299.15 215.95 300.05 217.15 300.85 219.55 302.45 229.0 302.45 232.7 302.45 234.6 301.55 236.35 300.65 239.2 300.7 238.95 299.9 241.2 299.8 L243.6 300.15 Q243.3 299.75 243.9 299.2 246.8 298.8 249.75 298.4 L250.15 298.1 Q250.35 297.9 250.5 297.85 252.25 298.85 252.65 301.15 L253.3 304.55 259.4 304.35 Q261.15 303.05 262.9 301.7 264.9 300.1 267.3 299.55 271.6 298.5 275.95 297.4 278.4 296.5 278.4 295.15 L277.9 294.25 Q277.65 293.8 277.4 293.3 277.4 292.9 277.6 292.85 L277.8 292.9 280.05 292.85 Q286.5 292.85 294.85 295.75 303.85 298.8 305.6 302.2 L311.8 302.25 Q315.15 302.25 316.35 300.95 318.05 299.05 318.6 298.8 L330.95 298.5 Q335.4 298.5 338.35 300.4 339.95 301.6 341.55 302.85 L344.9 302.9 Q352.35 300.05 357.05 298.85 367.65 296.3 380.35 296.3 382.15 296.3 389.8 298.25 397.75 300.25 401.9 300.45 405.45 299.2 410.0 298.2 414.8 297.1 418.9 295.7 L424.7 295.65 Q427.6 295.65 433.5 299.7 438.75 303.25 440.95 305.9 L445.75 304.6 445.35 304.8 Q442.15 306.1 440.8 306.4 L438.05 303.9 Q435.7 301.8 433.4 300.3 426.45 295.8 419.3 296.15 414.9 297.95 410.35 298.95 404.8 300.15 402.4 300.95 L397.5 301.05 Q395.5 300.75 393.5 300.4 L388.8 299.05 Q381.85 297.05 374.9 297.05 367.15 297.05 357.75 299.5 352.6 300.85 345.4 303.5 L341.55 303.55 Q339.65 302.9 339.15 302.05 L338.35 300.85 Q336.85 299.65 324.5 299.2 L319.35 299.5 Q317.5 300.05 317.1 300.7 L316.7 301.75 Q315.9 302.7 305.75 302.7 304.65 301.6 303.5 300.5 301.85 298.7 298.05 297.95 L289.25 295.55 Q282.95 293.8 279.15 293.6 L279.3 293.8 279.5 295.05 Q279.7 295.95 279.35 296.55 278.25 298.35 271.6 299.2 265.95 299.95 263.75 301.9 262.95 302.7 262.15 303.5 261.15 304.45 259.75 304.9 L252.8 305.2 Q251.95 304.3 251.65 302.1 251.3 299.75 250.65 298.95 L245.4 299.2 245.15 299.3 Q244.9 299.4 244.9 299.75 L245.1 300.35 Q245.3 300.6 245.15 300.8 L242.35 300.55 240.2 300.35 240.2 300.45 239.95 301.2 236.8 301.35 Q236.1 301.45 234.5 302.25 228.55 302.6 222.55 303.0 218.9 303.0 217.15 302.2 215.95 301.6 215.15 300.3 L213.7 298.15 Q212.4 297.0 209.85 296.55 L191.2 296.5 Q189.9 296.65 185.5 298.2 181.35 299.7 180.2 299.7 170.0 299.7 162.35 297.3 158.5 296.15 156.55 294.9 L149.7 294.7 145.25 294.55 Q139.3 295.65 133.35 296.75 122.4 298.85 115.0 298.85 113.8 298.85 113.25 297.9 L112.35 295.75 Q110.75 292.6 104.65 292.6 101.95 292.8 99.2 293.0 M450.7 303.35 Q454.2 302.4 454.2 301.65 453.7 300.3 453.8 300.0 458.45 299.35 463.15 298.65 L466.95 297.25 469.8 297.1 471.0 295.1 Q472.05 293.55 474.1 293.55 475.3 293.55 483.55 296.15 489.0 297.75 494.5 299.35 L492.75 299.45 482.85 296.3 Q475.55 293.9 473.8 293.9 472.65 293.9 470.3 297.4 L467.05 297.5 Q466.35 298.2 463.6 298.8 458.9 299.5 454.2 300.2 454.2 300.8 455.3 301.85 455.55 302.75 451.65 303.25 L450.7 303.35"/>
    </path>
  </g>
</svg>
