<?xml version="1.0" encoding="UTF-8" standalone="no"?>
<svg xmlns:xlink="http://www.w3.org/1999/xlink" height="14.5px" width="445.0px" xmlns="http://www.w3.org/2000/svg">
  <g transform="matrix(1.0, 0.0, 0.0, 1.0, -49.5, -291.9)">
    <path d="M450.7 303.35 L451.65 303.25 Q455.55 302.75 455.3 301.85 454.2 300.8 454.2 300.2 L463.6 298.8 Q466.35 298.2 467.05 297.5 L470.3 297.4 Q472.65 293.9 473.8 293.9 475.55 293.9 482.85 296.3 L492.75 299.45 494.5 299.35 483.55 296.15 Q475.3 293.55 474.1 293.55 472.05 293.55 471.0 295.1 L469.8 297.1 466.95 297.25 463.15 298.65 Q461.05 299.1 454.2 301.65 454.2 302.4 450.7 303.35 M99.2 293.0 L99.2 293.0 104.65 292.6 104.95 292.6 Q110.5 292.65 112.15 295.45 L112.35 295.75 112.75 296.55 113.25 297.9 113.5 298.25 Q114.05 298.85 115.0 298.85 122.3 298.85 133.15 296.75 L133.35 296.75 145.25 294.55 145.55 294.55 149.7 294.7 150.35 294.7 156.55 294.9 157.45 295.4 Q159.3 296.4 162.35 297.3 L163.25 297.6 Q170.6 299.7 180.2 299.7 L182.2 299.3 185.5 298.2 187.55 297.5 191.2 296.5 193.5 296.5 209.85 296.55 Q212.15 296.95 213.45 297.95 L213.7 298.15 215.15 300.3 215.45 300.75 216.75 302.0 217.15 302.2 218.85 302.7 222.55 303.0 224.7 303.0 234.5 302.25 Q236.1 301.45 236.8 301.35 L237.35 301.35 239.65 301.2 239.95 301.2 240.2 300.45 240.2 300.35 242.25 300.55 242.35 300.55 243.0 300.65 245.15 300.8 245.2 300.55 245.1 300.35 244.9 299.75 Q244.9 299.4 245.15 299.3 L245.4 299.2 246.5 299.1 246.8 299.1 247.2 299.1 Q247.3 299.1 247.4 299.1 L247.6 299.1 250.65 298.95 Q251.2 299.6 251.55 301.25 L251.65 302.1 251.75 302.8 Q252.0 303.6 252.25 304.4 L252.8 305.2 259.15 304.9 259.75 304.9 261.5 304.05 262.15 303.5 262.7 302.9 263.75 301.9 Q265.7 300.2 270.35 299.4 L271.6 299.2 Q276.35 298.6 278.25 297.5 278.55 297.3 278.8 297.15 L279.15 296.85 279.25 296.65 279.35 296.55 Q279.7 295.95 279.5 295.05 L279.3 293.8 279.15 293.6 286.95 294.9 289.25 295.55 295.6 297.3 298.05 297.95 Q300.1 298.35 301.5 299.05 302.6 299.6 303.3 300.3 L303.5 300.5 305.75 302.7 313.95 302.45 314.6 302.35 Q316.4 302.15 316.7 301.75 L316.8 301.4 317.1 300.7 Q317.5 300.05 319.35 299.5 L321.55 299.4 324.5 299.2 336.25 300.15 337.15 300.35 338.35 300.85 339.05 301.85 339.15 302.05 Q339.65 302.9 341.55 303.55 L342.8 303.55 345.4 303.5 Q351.0 301.45 355.35 300.15 L357.75 299.5 Q366.2 297.3 373.35 297.05 L374.9 297.05 Q381.5 297.05 388.1 298.85 L388.8 299.05 393.1 300.3 393.5 300.4 397.3 301.05 397.5 301.05 402.4 300.95 402.5 300.95 Q404.9 300.15 410.35 298.95 L410.95 298.85 Q415.2 297.85 419.3 296.15 L420.1 296.15 Q426.85 296.05 433.4 300.3 L434.1 300.8 438.05 303.9 440.3 305.95 440.8 306.4 444.65 305.1 445.35 304.8 445.75 304.6 442.6 305.4 440.95 305.9 Q439.4 304.0 436.3 301.7 L433.5 299.7 Q430.5 297.65 428.3 296.65 426.15 295.65 424.7 295.65 L422.2 295.65 418.9 295.7 412.85 297.5 410.0 298.2 Q406.85 298.9 404.2 299.7 L401.9 300.45 Q398.15 300.25 391.3 298.6 L389.8 298.25 Q383.85 296.75 381.45 296.4 L380.35 296.3 Q367.65 296.3 357.05 298.85 L356.65 298.95 Q352.05 300.15 344.9 302.9 L344.4 302.9 341.55 302.85 340.95 302.35 338.35 300.4 338.15 300.3 Q335.3 298.5 330.95 298.5 L330.55 298.5 318.6 298.8 317.6 299.65 316.35 300.95 315.85 301.4 Q314.55 302.25 311.8 302.25 L310.9 302.25 305.6 302.2 304.95 301.2 Q302.5 298.35 294.85 295.75 L294.65 295.65 Q286.45 292.85 280.05 292.85 L279.2 292.85 277.8 292.9 277.6 292.85 Q277.4 292.9 277.4 293.3 L277.45 293.5 277.5 293.65 277.8 294.15 277.9 294.25 278.25 294.7 278.4 295.15 278.4 295.3 Q278.3 296.4 276.5 297.2 L275.95 297.4 267.3 299.55 267.1 299.6 Q264.85 300.15 262.9 301.7 L260.0 304.05 259.4 304.35 253.5 304.55 253.3 304.55 253.1 303.6 Q252.85 302.35 252.65 301.15 L252.65 301.05 252.5 300.45 252.3 299.95 Q251.75 298.55 250.5 297.85 250.35 297.9 250.15 298.1 L249.75 298.4 248.85 298.4 247.45 298.5 Q247.15 298.5 246.85 298.5 L245.0 298.6 244.45 298.8 Q244.15 298.95 243.9 299.2 243.3 299.75 243.6 300.15 L243.2 300.1 242.6 300.0 241.2 299.8 238.85 300.15 239.2 300.7 238.25 300.7 Q236.05 300.8 234.6 301.55 L232.2 302.25 229.0 302.45 219.85 301.8 Q219.15 301.6 218.5 301.45 217.65 301.2 217.15 300.85 L216.95 300.7 Q216.0 299.95 216.65 299.15 216.65 298.15 215.3 297.3 214.55 296.8 213.45 296.5 L209.45 295.8 193.95 295.85 191.05 295.85 187.85 296.65 185.35 297.5 184.0 298.0 181.65 298.85 Q171.9 298.85 165.15 297.15 L163.9 296.8 Q162.1 296.25 158.8 294.75 L157.45 294.1 152.05 293.8 151.0 293.8 Q145.4 293.8 130.2 295.95 L115.5 298.15 113.8 295.4 Q112.9 293.6 108.95 292.35 104.75 291.2 99.2 293.0 M49.5 292.85 Q49.5 293.65 52.45 293.65 L55.9 293.4 56.55 292.9 Q62.1 292.35 65.8 292.9 68.25 293.25 71.35 294.45 75.0 295.85 77.0 296.3 L86.5 297.2 91.8 297.15 Q92.8 296.85 93.6 296.0 L94.95 294.7 91.3 296.4 Q80.65 296.3 71.85 294.3 L70.8 293.45 69.8 292.75 Q61.8 292.45 53.8 292.15 L49.75 292.45 Q49.5 292.5 49.5 292.85" fill="#ffffff" fill-rule="evenodd" stroke="none">
      <animate attributeName="fill" dur="2s" repeatCount="indefinite" values="#ffffff;#ffffff"/>
      <animate attributeName="fill-opacity" dur="2s" repeatCount="indefinite" values="1.0;1.0"/>
      <animate attributeName="d" dur="2s" repeatCount="indefinite" values="M450.7 303.35 L451.65 303.25 Q455.55 302.75 455.3 301.85 454.2 300.8 454.2 300.2 L463.6 298.8 Q466.35 298.2 467.05 297.5 L470.3 297.4 Q472.65 293.9 473.8 293.9 475.55 293.9 482.85 296.3 L492.75 299.45 494.5 299.35 483.55 296.15 Q475.3 293.55 474.1 293.55 472.05 293.55 471.0 295.1 L469.8 297.1 466.95 297.25 463.15 298.65 Q461.05 299.1 454.2 301.65 454.2 302.4 450.7 303.35 M99.2 293.0 L99.2 293.0 104.65 292.6 104.95 292.6 Q110.5 292.65 112.15 295.45 L112.35 295.75 112.75 296.55 113.25 297.9 113.5 298.25 Q114.05 298.85 115.0 298.85 122.3 298.85 133.15 296.75 L133.35 296.75 145.25 294.55 145.55 294.55 149.7 294.7 150.35 294.7 156.55 294.9 157.45 295.4 Q159.3 296.4 162.35 297.3 L163.25 297.6 Q170.6 299.7 180.2 299.7 L182.2 299.3 185.5 298.2 187.55 297.5 191.2 296.5 193.5 296.5 209.85 296.55 Q212.15 296.95 213.45 297.95 L213.7 298.15 215.15 300.3 215.45 300.75 216.75 302.0 217.15 302.2 218.85 302.7 222.55 303.0 224.7 303.0 234.5 302.25 Q236.1 301.45 236.8 301.35 L237.35 301.35 239.65 301.2 239.95 301.2 240.2 300.45 240.2 300.35 242.25 300.55 242.35 300.55 243.0 300.65 245.15 300.8 245.2 300.55 245.1 300.35 244.9 299.75 Q244.9 299.4 245.15 299.3 L245.4 299.2 246.5 299.1 246.8 299.1 247.2 299.1 Q247.3 299.1 247.4 299.1 L247.6 299.1 250.65 298.95 Q251.2 299.6 251.55 301.25 L251.65 302.1 251.75 302.8 Q252.0 303.6 252.25 304.4 L252.8 305.2 259.15 304.9 259.75 304.9 261.5 304.05 262.15 303.5 262.7 302.9 263.75 301.9 Q265.7 300.2 270.35 299.4 L271.6 299.2 Q276.35 298.6 278.25 297.5 278.55 297.3 278.8 297.15 L279.15 296.85 279.25 296.65 279.35 296.55 Q279.7 295.95 279.5 295.05 L279.3 293.8 279.15 293.6 286.95 294.9 289.25 295.55 295.6 297.3 298.05 297.95 Q300.1 298.35 301.5 299.05 302.6 299.6 303.3 300.3 L303.5 300.5 305.75 302.7 313.95 302.45 314.6 302.35 Q316.4 302.15 316.7 301.75 L316.8 301.4 317.1 300.7 Q317.5 300.05 319.35 299.5 L321.55 299.4 324.5 299.2 336.25 300.15 337.15 300.35 338.35 300.85 339.05 301.85 339.15 302.05 Q339.65 302.9 341.55 303.55 L342.8 303.55 345.4 303.5 Q351.0 301.45 355.35 300.15 L357.75 299.5 Q366.2 297.3 373.35 297.05 L374.9 297.05 Q381.5 297.05 388.1 298.85 L388.8 299.05 393.1 300.3 393.5 300.4 397.3 301.05 397.5 301.05 402.4 300.95 402.5 300.95 Q404.9 300.15 410.35 298.95 L410.95 298.85 Q415.2 297.85 419.3 296.15 L420.1 296.15 Q426.85 296.05 433.4 300.3 L434.1 300.8 438.05 303.9 440.3 305.95 440.8 306.4 444.65 305.1 445.35 304.8 445.75 304.6 442.6 305.4 440.95 305.9 Q439.4 304.0 436.3 301.7 L433.5 299.7 Q430.5 297.65 428.3 296.65 426.15 295.65 424.7 295.65 L422.2 295.65 418.9 295.7 412.85 297.5 410.0 298.2 Q406.85 298.9 404.2 299.7 L401.9 300.45 Q398.15 300.25 391.3 298.6 L389.8 298.25 Q383.85 296.75 381.45 296.4 L380.35 296.3 Q367.65 296.3 357.05 298.85 L356.65 298.95 Q352.05 300.15 344.9 302.9 L344.4 302.9 341.55 302.85 340.95 302.35 338.35 300.4 338.15 300.3 Q335.3 298.5 330.95 298.5 L330.55 298.5 318.6 298.8 317.6 299.65 316.35 300.95 315.85 301.4 Q314.55 302.25 311.8 302.25 L310.9 302.25 305.6 302.2 304.95 301.2 Q302.5 298.35 294.85 295.75 L294.65 295.65 Q286.45 292.85 280.05 292.85 L279.2 292.85 277.8 292.9 277.6 292.85 Q277.4 292.9 277.4 293.3 L277.45 293.5 277.5 293.65 277.8 294.15 277.9 294.25 278.25 294.7 278.4 295.15 278.4 295.3 Q278.3 296.4 276.5 297.2 L275.95 297.4 267.3 299.55 267.1 299.6 Q264.85 300.15 262.9 301.7 L260.0 304.05 259.4 304.35 253.5 304.55 253.3 304.55 253.1 303.6 Q252.85 302.35 252.65 301.15 L252.65 301.05 252.5 300.45 252.3 299.95 Q251.75 298.55 250.5 297.85 250.35 297.9 250.15 298.1 L249.75 298.4 248.85 298.4 247.45 298.5 Q247.15 298.5 246.85 298.5 L245.0 298.6 244.45 298.8 Q244.15 298.95 243.9 299.2 243.3 299.75 243.6 300.15 L243.2 300.1 242.6 300.0 241.2 299.8 238.85 300.15 239.2 300.7 238.25 300.7 Q236.05 300.8 234.6 301.55 L232.2 302.25 229.0 302.45 219.85 301.8 Q219.15 301.6 218.5 301.45 217.65 301.2 217.15 300.85 L216.95 300.7 Q216.0 299.95 216.65 299.15 216.65 298.15 215.3 297.3 214.55 296.8 213.45 296.5 L209.45 295.8 193.95 295.85 191.05 295.85 187.85 296.65 185.35 297.5 184.0 298.0 181.65 298.85 Q171.9 298.85 165.15 297.15 L163.9 296.8 Q162.1 296.25 158.8 294.75 L157.45 294.1 152.05 293.8 151.0 293.8 Q145.4 293.8 130.2 295.95 L115.5 298.15 113.8 295.4 Q112.9 293.6 108.95 292.35 104.75 291.2 99.2 293.0 M49.5 292.85 Q49.5 293.65 52.45 293.65 L55.9 293.4 56.55 292.9 Q62.1 292.35 65.8 292.9 68.25 293.25 71.35 294.45 75.0 295.85 77.0 296.3 L86.5 297.2 91.8 297.15 Q92.8 296.85 93.6 296.0 L94.95 294.7 91.3 296.4 Q80.65 296.3 71.85 294.3 L70.8 293.45 69.8 292.75 Q61.8 292.45 53.8 292.15 L49.75 292.45 Q49.5 292.5 49.5 292.85;M450.7 300.45 L451.65 300.4 Q453.5 300.2 455.3 300.0 454.2 299.65 454.2 299.45 L463.6 299.05 Q465.35 298.85 467.05 298.65 L470.3 298.6 Q472.65 297.5 473.8 297.5 478.35 297.9 482.85 298.25 L492.75 299.25 494.5 299.2 483.55 298.2 Q478.8 297.8 474.1 297.4 472.05 297.4 471.0 297.9 L469.8 298.5 466.95 298.55 463.15 299.0 Q458.65 299.45 454.2 299.9 452.45 300.2 450.7 300.45 M99.2 297.25 L99.4 297.25 104.55 297.1 104.65 297.1 Q110.75 297.1 112.35 298.1 L112.65 298.3 113.25 298.75 114.7 299.05 115.0 299.05 Q115.7 299.05 116.4 299.05 124.9 298.7 133.35 298.4 L133.85 298.4 144.95 297.7 145.25 297.7 149.2 297.75 149.7 297.75 155.55 297.8 156.55 297.8 Q159.0 298.15 161.45 298.45 L162.35 298.55 Q170.4 298.95 178.4 299.3 L180.2 299.3 183.55 299.05 185.5 298.85 189.0 298.5 191.2 298.3 206.5 298.35 Q208.2 298.35 209.85 298.35 L210.45 298.35 213.05 298.7 213.7 298.85 215.15 299.5 215.6 299.7 217.15 300.1 220.65 300.35 222.55 300.35 231.75 300.2 Q232.9 300.15 234.0 300.1 L234.5 300.1 236.8 299.8 237.1 299.8 237.95 299.8 238.05 299.8 239.95 299.8 240.05 299.8 240.2 299.5 242.1 299.6 242.35 299.6 242.95 299.65 243.55 299.65 Q243.85 299.65 244.15 299.65 L244.35 299.65 245.15 299.65 245.1 299.5 244.9 299.35 Q244.9 299.2 245.15 299.2 L245.4 299.15 248.15 299.15 Q249.4 299.1 250.65 299.1 L251.35 299.6 251.65 300.05 Q251.95 300.75 252.8 301.0 L253.8 301.0 259.75 300.95 260.3 300.85 262.15 300.5 262.9 300.25 263.75 300.0 265.1 299.7 Q268.35 299.4 271.6 299.15 L272.85 299.05 Q276.1 298.7 279.35 298.35 279.7 298.15 279.5 297.85 L279.3 297.5 279.15 297.4 279.35 297.4 Q279.95 297.45 280.55 297.5 L281.7 297.5 281.9 297.5 289.25 298.0 291.75 298.2 298.05 298.75 300.25 298.95 Q301.9 299.25 303.5 299.55 304.65 299.9 305.75 300.25 L306.25 300.25 308.95 300.25 316.7 299.95 317.1 299.6 Q318.05 299.4 318.95 299.25 L319.35 299.25 320.1 299.25 Q321.25 299.25 322.4 299.25 L324.5 299.15 327.25 299.15 338.35 299.65 339.15 300.05 340.45 300.35 341.55 300.5 341.75 300.5 Q343.0 300.5 344.25 300.5 L345.4 300.5 347.85 300.2 Q352.8 299.7 357.75 299.25 L360.15 299.05 Q367.55 298.75 374.9 298.5 L376.4 298.5 Q382.6 298.8 388.8 299.1 L389.55 299.2 393.5 299.55 394.0 299.55 397.5 299.75 397.7 299.75 402.3 299.7 402.4 299.7 Q406.15 299.4 409.85 299.1 L410.35 299.1 Q414.45 298.7 418.55 298.3 L419.3 298.2 Q426.1 298.1 432.7 299.4 L433.4 299.5 438.05 300.6 440.8 301.4 441.5 301.35 445.35 300.9 444.6 301.0 444.0 301.0 440.95 301.25 439.5 300.75 Q436.5 300.0 433.5 299.3 L430.35 298.7 Q427.5 298.35 424.7 298.05 423.0 298.05 421.3 298.05 L418.9 298.05 415.8 298.35 410.0 298.85 407.45 299.05 Q404.65 299.3 401.9 299.55 L399.9 299.5 Q394.85 299.15 389.8 298.85 L388.35 298.75 Q384.35 298.5 380.35 298.25 L379.45 298.25 Q368.45 298.65 357.45 299.05 L357.05 299.05 Q351.2 299.65 345.4 300.2 L344.9 300.3 342.25 300.3 341.55 300.3 338.55 299.55 338.35 299.55 Q334.85 299.25 331.35 298.95 L330.95 298.95 319.85 299.05 318.6 299.05 316.95 299.5 316.35 299.7 Q314.45 299.9 312.6 300.1 L311.8 300.1 306.8 300.1 305.6 300.1 Q303.85 299.05 295.05 298.1 L294.85 298.1 Q287.9 297.65 280.95 297.2 L280.05 297.2 278.95 297.2 278.7 297.2 Q278.3 297.2 277.9 297.2 L277.8 297.2 277.6 297.2 277.4 297.35 277.5 297.4 277.9 297.6 278.35 297.8 278.4 297.9 Q278.4 298.3 275.95 298.6 L275.5 298.65 267.35 299.25 267.3 299.25 Q265.05 299.6 262.8 299.95 L259.4 300.75 258.8 300.75 253.3 300.8 253.2 300.65 252.65 299.75 Q252.3 299.1 250.7 298.75 L250.5 298.75 250.15 298.8 249.75 298.9 Q248.5 298.95 247.25 298.95 246.85 298.95 246.45 298.95 L245.9 298.95 245.0 298.95 243.9 299.15 Q243.3 299.35 243.6 299.45 L241.8 299.35 241.2 299.35 Q240.85 299.35 240.55 299.35 239.95 299.4 239.35 299.4 L238.85 299.45 239.2 299.6 238.1 299.6 236.0 299.75 235.55 299.8 234.6 299.9 Q233.0 300.0 231.45 300.1 L229.0 300.15 225.9 300.15 217.15 299.65 Q215.95 299.4 216.65 299.15 216.65 298.9 215.6 298.65 L215.3 298.55 Q214.5 298.45 213.75 298.35 212.55 298.25 211.4 298.2 210.4 298.15 209.45 298.1 L205.55 298.1 191.05 298.1 188.4 298.3 185.35 298.65 183.0 298.95 181.65 299.05 179.4 299.05 Q171.65 298.7 163.9 298.4 L162.8 298.3 Q160.1 297.9 157.45 297.55 L156.05 297.55 151.0 297.5 150.25 297.5 Q140.35 297.85 130.5 298.15 L116.8 298.75 113.8 298.0 Q112.8 297.35 108.45 297.05 104.45 296.7 99.2 297.25 M49.5 297.2 Q51.0 297.35 52.45 297.45 L55.9 297.35 56.55 297.2 Q62.1 297.05 65.8 297.2 68.6 297.45 71.35 297.7 74.2 298.0 77.0 298.25 L86.5 298.55 91.8 298.5 Q92.7 298.3 93.6 298.15 L94.95 297.75 91.3 298.3 Q81.55 297.95 71.85 297.65 L70.8 297.35 69.8 297.15 Q67.65 296.9 53.8 296.95 L49.75 297.05 Q49.6 297.15 49.5 297.2"/>
    </path>
    <path d="M49.5 292.85 Q49.5 292.5 49.75 292.45 L53.8 292.15 Q61.8 292.45 69.8 292.75 L70.8 293.45 71.85 294.3 Q80.65 296.3 91.3 296.4 L94.95 294.7 93.6 296.0 Q92.8 296.85 91.8 297.15 L86.5 297.2 77.0 296.3 Q75.0 295.85 71.35 294.45 68.25 293.25 65.8 292.9 62.1 292.35 56.55 292.9 L55.9 293.4 52.45 293.65 Q49.5 293.65 49.5 292.85 M99.2 293.0 Q104.75 291.2 108.95 292.35 112.9 293.6 113.8 295.4 L115.5 298.15 130.2 295.95 Q145.4 293.8 151.0 293.8 L152.05 293.8 157.45 294.1 158.8 294.75 Q162.1 296.25 163.9 296.8 L165.15 297.15 Q171.9 298.85 181.65 298.85 L184.0 298.0 185.35 297.5 187.85 296.65 191.05 295.85 193.95 295.85 209.45 295.8 213.45 296.5 Q214.55 296.8 215.3 297.3 216.65 298.15 216.65 299.15 216.0 299.95 216.95 300.7 L217.15 300.85 Q217.65 301.2 218.5 301.45 219.15 301.6 219.85 301.8 L229.0 302.45 232.2 302.25 234.6 301.55 Q236.05 300.8 238.25 300.7 L239.2 300.7 238.85 300.15 241.2 299.8 242.6 300.0 243.2 300.1 243.6 300.15 Q243.3 299.75 243.9 299.2 244.15 298.95 244.45 298.8 L245.0 298.6 246.85 298.5 Q247.15 298.5 247.45 298.5 L248.85 298.4 249.75 298.4 250.15 298.1 Q250.35 297.9 250.5 297.85 251.75 298.55 252.3 299.95 L252.5 300.45 252.65 301.05 252.65 301.15 Q252.85 302.35 253.1 303.6 L253.3 304.55 253.5 304.55 259.4 304.35 260.0 304.05 262.9 301.7 Q264.85 300.15 267.1 299.6 L267.3 299.55 275.95 297.4 276.5 297.2 Q278.3 296.4 278.4 295.3 L278.4 295.15 278.25 294.7 277.9 294.25 277.8 294.15 277.5 293.65 277.45 293.5 277.4 293.3 Q277.4 292.9 277.6 292.85 L277.8 292.9 279.2 292.85 280.05 292.85 Q286.45 292.85 294.65 295.65 L294.85 295.75 Q302.5 298.35 304.95 301.2 L305.6 302.2 310.9 302.25 311.8 302.25 Q314.55 302.25 315.85 301.4 L316.35 300.95 317.6 299.65 318.6 298.8 330.55 298.5 330.95 298.5 Q335.3 298.5 338.15 300.3 L338.35 300.4 340.95 302.35 341.55 302.85 344.4 302.9 344.9 302.9 Q352.05 300.15 356.65 298.95 L357.05 298.85 Q367.65 296.3 380.35 296.3 L381.45 296.4 Q383.85 296.75 389.8 298.25 L391.3 298.6 Q398.15 300.25 401.9 300.45 L404.2 299.7 Q406.85 298.9 410.0 298.2 L412.85 297.5 418.9 295.7 422.2 295.65 424.7 295.65 Q426.15 295.65 428.3 296.65 430.5 297.65 433.5 299.7 L436.3 301.7 Q439.4 304.0 440.95 305.9 L442.6 305.4 445.75 304.6 445.35 304.8 444.65 305.1 440.8 306.4 440.3 305.95 438.05 303.9 434.1 300.8 433.4 300.3 Q426.85 296.05 420.1 296.15 L419.3 296.15 Q415.2 297.85 410.95 298.85 L410.35 298.95 Q404.9 300.15 402.5 300.95 L402.4 300.95 397.5 301.05 397.3 301.05 393.5 300.4 393.1 300.3 388.8 299.05 388.1 298.85 Q381.5 297.05 374.9 297.05 L373.35 297.05 Q366.2 297.3 357.75 299.5 L355.35 300.15 Q351.0 301.45 345.4 303.5 L342.8 303.55 341.55 303.55 Q339.65 302.9 339.15 302.05 L339.05 301.85 338.35 300.85 337.15 300.35 336.25 300.15 324.5 299.2 321.55 299.4 319.35 299.5 Q317.5 300.05 317.1 300.7 L316.8 301.4 316.7 301.75 Q316.4 302.15 314.6 302.35 L313.95 302.45 305.75 302.7 303.5 300.5 303.3 300.3 Q302.6 299.6 301.5 299.05 300.1 298.35 298.05 297.95 L295.6 297.3 289.25 295.55 286.95 294.9 279.15 293.6 279.3 293.8 279.5 295.05 Q279.7 295.95 279.35 296.55 L279.25 296.65 279.15 296.85 278.8 297.15 Q278.55 297.3 278.25 297.5 276.35 298.6 271.6 299.2 L270.35 299.4 Q265.7 300.2 263.75 301.9 L262.7 302.9 262.15 303.5 261.5 304.05 259.75 304.9 259.15 304.9 252.8 305.2 252.25 304.4 Q252.0 303.6 251.75 302.8 L251.65 302.1 251.55 301.25 Q251.2 299.6 250.65 298.95 L247.6 299.1 247.4 299.1 Q247.3 299.1 247.2 299.1 L246.8 299.1 246.5 299.1 245.4 299.2 245.15 299.3 Q244.9 299.4 244.9 299.75 L245.1 300.35 245.2 300.55 245.15 300.8 243.0 300.65 242.35 300.55 242.25 300.55 240.2 300.35 240.2 300.45 239.95 301.2 239.65 301.2 237.35 301.35 236.8 301.35 Q236.1 301.45 234.5 302.25 L224.7 303.0 222.55 303.0 218.85 302.7 217.15 302.2 216.75 302.0 215.45 300.75 215.15 300.3 213.7 298.15 213.45 297.95 Q212.15 296.95 209.85 296.55 L193.5 296.5 191.2 296.5 187.55 297.5 185.5 298.2 182.2 299.3 180.2 299.7 Q170.6 299.7 163.25 297.6 L162.35 297.3 Q159.3 296.4 157.45 295.4 L156.55 294.9 150.35 294.7 149.7 294.7 145.55 294.55 145.25 294.55 133.35 296.75 133.15 296.75 Q122.3 298.85 115.0 298.85 114.05 298.85 113.5 298.25 L113.25 297.9 112.75 296.55 112.35 295.75 112.15 295.45 Q110.5 292.65 104.95 292.6 L104.65 292.6 99.2 293.0 99.2 293.0 M450.7 303.35 Q454.2 302.4 454.2 301.65 461.05 299.1 463.15 298.65 L466.95 297.25 469.8 297.1 471.0 295.1 Q472.05 293.55 474.1 293.55 475.3 293.55 483.55 296.15 L494.5 299.35 492.75 299.45 482.85 296.3 Q475.55 293.9 473.8 293.9 472.65 293.9 470.3 297.4 L467.05 297.5 Q466.35 298.2 463.6 298.8 L454.2 300.2 Q454.2 300.8 455.3 301.85 455.55 302.75 451.65 303.25 L450.7 303.35" fill="none" stroke="#000000" stroke-linecap="round" stroke-linejoin="round" stroke-opacity="0.0" stroke-width="1.0">
      <animate attributeName="stroke" dur="2s" repeatCount="indefinite" values="#000000;#000001"/>
      <animate attributeName="stroke-width" dur="2s" repeatCount="indefinite" values="0.0;0.0"/>
      <animate attributeName="fill-opacity" dur="2s" repeatCount="indefinite" values="0.0;0.0"/>
      <animate attributeName="d" dur="2s" repeatCount="indefinite" values="M49.5 292.85 Q49.5 292.5 49.75 292.45 L53.8 292.15 Q61.8 292.45 69.8 292.75 L70.8 293.45 71.85 294.3 Q80.65 296.3 91.3 296.4 L94.95 294.7 93.6 296.0 Q92.8 296.85 91.8 297.15 L86.5 297.2 77.0 296.3 Q75.0 295.85 71.35 294.45 68.25 293.25 65.8 292.9 62.1 292.35 56.55 292.9 L55.9 293.4 52.45 293.65 Q49.5 293.65 49.5 292.85 M99.2 293.0 Q104.75 291.2 108.95 292.35 112.9 293.6 113.8 295.4 L115.5 298.15 130.2 295.95 Q145.4 293.8 151.0 293.8 L152.05 293.8 157.45 294.1 158.8 294.75 Q162.1 296.25 163.9 296.8 L165.15 297.15 Q171.9 298.85 181.65 298.85 L184.0 298.0 185.35 297.5 187.85 296.65 191.05 295.85 193.95 295.85 209.45 295.8 213.45 296.5 Q214.55 296.8 215.3 297.3 216.65 298.15 216.65 299.15 216.0 299.95 216.95 300.7 L217.15 300.85 Q217.65 301.2 218.5 301.45 219.15 301.6 219.85 301.8 L229.0 302.45 232.2 302.25 234.6 301.55 Q236.05 300.8 238.25 300.7 L239.2 300.7 238.85 300.15 241.2 299.8 242.6 300.0 243.2 300.1 243.6 300.15 Q243.3 299.75 243.9 299.2 244.15 298.95 244.45 298.8 L245.0 298.6 246.85 298.5 Q247.15 298.5 247.45 298.5 L248.85 298.4 249.75 298.4 250.15 298.1 Q250.35 297.9 250.5 297.85 251.75 298.55 252.3 299.95 L252.5 300.45 252.65 301.05 252.65 301.15 Q252.85 302.35 253.1 303.6 L253.3 304.55 253.5 304.55 259.4 304.35 260.0 304.05 262.9 301.7 Q264.85 300.15 267.1 299.6 L267.3 299.55 275.95 297.4 276.5 297.2 Q278.3 296.4 278.4 295.3 L278.4 295.15 278.25 294.7 277.9 294.25 277.8 294.15 277.5 293.65 277.45 293.5 277.4 293.3 Q277.4 292.9 277.6 292.85 L277.8 292.9 279.2 292.85 280.05 292.85 Q286.45 292.85 294.65 295.65 L294.85 295.75 Q302.5 298.35 304.95 301.2 L305.6 302.2 310.9 302.25 311.8 302.25 Q314.55 302.25 315.85 301.4 L316.35 300.95 317.6 299.65 318.6 298.8 330.55 298.5 330.95 298.5 Q335.3 298.5 338.15 300.3 L338.35 300.4 340.95 302.35 341.55 302.85 344.4 302.9 344.9 302.9 Q352.05 300.15 356.65 298.95 L357.05 298.85 Q367.65 296.3 380.35 296.3 L381.45 296.4 Q383.85 296.75 389.8 298.25 L391.3 298.6 Q398.15 300.25 401.9 300.45 L404.2 299.7 Q406.85 298.9 410.0 298.2 L412.85 297.5 418.9 295.7 422.2 295.65 424.7 295.65 Q426.15 295.65 428.3 296.65 430.5 297.65 433.5 299.7 L436.3 301.7 Q439.4 304.0 440.95 305.9 L442.6 305.4 445.75 304.6 445.35 304.8 444.65 305.1 440.8 306.4 440.3 305.95 438.05 303.9 434.1 300.8 433.4 300.3 Q426.85 296.05 420.1 296.15 L419.3 296.15 Q415.2 297.85 410.95 298.85 L410.35 298.95 Q404.9 300.15 402.5 300.95 L402.4 300.95 397.5 301.05 397.3 301.05 393.5 300.4 393.1 300.3 388.8 299.05 388.1 298.85 Q381.5 297.05 374.9 297.05 L373.35 297.05 Q366.2 297.3 357.75 299.5 L355.35 300.15 Q351.0 301.45 345.4 303.5 L342.8 303.55 341.55 303.55 Q339.65 302.9 339.15 302.05 L339.05 301.85 338.35 300.85 337.15 300.35 336.25 300.15 324.5 299.2 321.55 299.4 319.35 299.5 Q317.5 300.05 317.1 300.7 L316.8 301.4 316.7 301.75 Q316.4 302.15 314.6 302.35 L313.95 302.45 305.75 302.7 303.5 300.5 303.3 300.3 Q302.6 299.6 301.5 299.05 300.1 298.35 298.05 297.95 L295.6 297.3 289.25 295.55 286.95 294.9 279.15 293.6 279.3 293.8 279.5 295.05 Q279.7 295.95 279.35 296.55 L279.25 296.65 279.15 296.85 278.8 297.15 Q278.55 297.3 278.25 297.5 276.35 298.6 271.6 299.2 L270.35 299.4 Q265.7 300.2 263.75 301.9 L262.7 302.9 262.15 303.5 261.5 304.05 259.75 304.9 259.15 304.9 252.8 305.2 252.25 304.4 Q252.0 303.6 251.75 302.8 L251.65 302.1 251.55 301.25 Q251.2 299.6 250.65 298.95 L247.6 299.1 247.4 299.1 Q247.3 299.1 247.2 299.1 L246.8 299.1 246.5 299.1 245.4 299.2 245.15 299.3 Q244.9 299.4 244.9 299.75 L245.1 300.35 245.2 300.55 245.15 300.8 243.0 300.65 242.35 300.55 242.25 300.55 240.2 300.35 240.2 300.45 239.95 301.2 239.65 301.2 237.35 301.35 236.8 301.35 Q236.1 301.45 234.5 302.25 L224.7 303.0 222.55 303.0 218.85 302.7 217.15 302.2 216.75 302.0 215.45 300.75 215.15 300.3 213.7 298.15 213.45 297.95 Q212.15 296.95 209.85 296.55 L193.5 296.5 191.2 296.5 187.55 297.5 185.5 298.2 182.2 299.3 180.2 299.7 Q170.6 299.7 163.25 297.6 L162.35 297.3 Q159.3 296.4 157.45 295.4 L156.55 294.9 150.35 294.7 149.7 294.7 145.55 294.55 145.25 294.55 133.35 296.75 133.15 296.75 Q122.3 298.85 115.0 298.85 114.05 298.85 113.5 298.25 L113.25 297.9 112.75 296.55 112.35 295.75 112.15 295.45 Q110.5 292.65 104.95 292.6 L104.65 292.6 99.2 293.0 99.2 293.0 M450.7 303.35 Q454.2 302.4 454.2 301.65 461.05 299.1 463.15 298.65 L466.95 297.25 469.8 297.1 471.0 295.1 Q472.05 293.55 474.1 293.55 475.3 293.55 483.55 296.15 L494.5 299.35 492.75 299.45 482.85 296.3 Q475.55 293.9 473.8 293.9 472.65 293.9 470.3 297.4 L467.05 297.5 Q466.35 298.2 463.6 298.8 L454.2 300.2 Q454.2 300.8 455.3 301.85 455.55 302.75 451.65 303.25 L450.7 303.35;M49.5 297.2 Q49.6 297.15 49.75 297.05 L53.8 296.95 Q67.65 296.9 69.8 297.15 L70.8 297.35 71.85 297.65 Q81.55 297.95 91.3 298.3 L94.95 297.75 93.6 298.15 Q92.7 298.3 91.8 298.5 L86.5 298.55 77.0 298.25 Q74.2 298.0 71.35 297.7 68.6 297.45 65.8 297.2 62.1 297.05 56.55 297.2 L55.9 297.35 52.45 297.45 Q51.0 297.35 49.5 297.2 M99.2 297.25 Q104.45 296.7 108.45 297.05 112.8 297.35 113.8 298.0 L116.8 298.75 130.5 298.15 Q140.35 297.85 150.25 297.5 L151.0 297.5 156.05 297.55 157.45 297.55 Q160.1 297.9 162.8 298.3 L163.9 298.4 Q171.65 298.7 179.4 299.05 L181.65 299.05 183.0 298.95 185.35 298.65 188.4 298.3 191.05 298.1 205.55 298.1 209.45 298.1 Q210.4 298.15 211.4 298.2 212.55 298.25 213.75 298.35 214.5 298.45 215.3 298.55 L215.6 298.65 Q216.65 298.9 216.65 299.15 215.95 299.4 217.15 299.65 L225.9 300.15 229.0 300.15 231.45 300.1 Q233.0 300.0 234.6 299.9 L235.55 299.8 236.0 299.75 238.1 299.6 239.2 299.6 238.85 299.45 239.35 299.4 Q239.95 299.4 240.55 299.35 240.85 299.35 241.2 299.35 L241.8 299.35 243.6 299.45 Q243.3 299.35 243.9 299.15 L245.0 298.95 245.9 298.95 246.45 298.95 Q246.85 298.95 247.25 298.95 248.5 298.95 249.75 298.9 L250.15 298.8 250.5 298.75 250.7 298.75 Q252.3 299.1 252.65 299.75 L253.2 300.65 253.3 300.8 258.8 300.75 259.4 300.75 262.8 299.95 Q265.05 299.6 267.3 299.25 L267.35 299.25 275.5 298.65 275.95 298.6 Q278.4 298.3 278.4 297.9 L278.35 297.8 277.9 297.6 277.5 297.4 277.4 297.35 277.6 297.2 277.8 297.2 277.9 297.2 Q278.3 297.2 278.7 297.2 L278.95 297.2 280.05 297.2 280.95 297.2 Q287.9 297.65 294.85 298.1 L295.05 298.1 Q303.85 299.05 305.6 300.1 L306.8 300.1 311.8 300.1 312.6 300.1 Q314.45 299.9 316.35 299.7 L316.95 299.5 318.6 299.05 319.85 299.05 330.95 298.95 331.35 298.95 Q334.85 299.25 338.35 299.55 L338.55 299.55 341.55 300.3 342.25 300.3 344.9 300.3 345.4 300.2 Q351.2 299.65 357.05 299.05 L357.45 299.05 Q368.45 298.65 379.45 298.25 L380.35 298.25 Q384.35 298.5 388.35 298.75 L389.8 298.85 Q394.85 299.15 399.9 299.5 L401.9 299.55 Q404.65 299.3 407.45 299.05 L410.0 298.85 415.8 298.35 418.9 298.05 421.3 298.05 Q423.0 298.05 424.7 298.05 427.5 298.35 430.35 298.7 L433.5 299.3 Q436.5 300.0 439.5 300.75 L440.95 301.25 444.0 301.0 444.6 301.0 445.35 300.9 441.5 301.35 440.8 301.4 438.05 300.6 433.4 299.5 432.7 299.4 Q426.1 298.1 419.3 298.2 L418.55 298.3 Q414.45 298.7 410.35 299.1 L409.85 299.1 Q406.15 299.4 402.4 299.7 L402.3 299.7 397.7 299.75 397.5 299.75 394.0 299.55 393.5 299.55 389.55 299.2 388.8 299.1 Q382.6 298.8 376.4 298.5 L374.9 298.5 Q367.55 298.75 360.15 299.05 L357.75 299.25 Q352.8 299.7 347.85 300.2 L345.4 300.5 344.25 300.5 Q343.0 300.5 341.75 300.5 L341.55 300.5 340.45 300.35 339.15 300.05 338.35 299.65 327.25 299.15 324.5 299.15 322.4 299.25 Q321.25 299.25 320.1 299.25 L319.35 299.25 318.95 299.25 Q318.05 299.4 317.1 299.6 L316.7 299.95 308.95 300.25 306.25 300.25 305.75 300.25 Q304.65 299.9 303.5 299.55 301.9 299.25 300.25 298.95 L298.05 298.75 291.75 298.2 289.25 298.0 281.9 297.5 281.7 297.5 280.55 297.5 Q279.95 297.45 279.35 297.4 L279.15 297.4 279.3 297.5 279.5 297.85 Q279.7 298.15 279.35 298.35 276.1 298.7 272.85 299.05 L271.6 299.15 Q268.35 299.4 265.1 299.7 L263.75 300.0 262.9 300.25 262.15 300.5 260.3 300.85 259.75 300.95 253.8 301.0 252.8 301.0 Q251.95 300.75 251.65 300.05 L251.35 299.6 250.65 299.1 Q249.4 299.1 248.15 299.15 L245.4 299.15 245.15 299.2 Q244.9 299.2 244.9 299.35 L245.1 299.5 245.15 299.65 244.35 299.65 244.15 299.65 Q243.85 299.65 243.55 299.65 L242.95 299.65 242.35 299.6 242.1 299.6 240.2 299.5 240.05 299.8 239.95 299.8 238.05 299.8 237.95 299.8 237.1 299.8 236.8 299.8 234.5 300.1 234.0 300.1 Q232.9 300.15 231.75 300.2 L222.55 300.35 220.65 300.35 217.15 300.1 215.6 299.7 215.15 299.5 213.7 298.85 213.05 298.7 210.45 298.35 209.85 298.35 Q208.2 298.35 206.5 298.35 L191.2 298.3 189.0 298.5 185.5 298.85 183.55 299.05 180.2 299.3 178.4 299.3 Q170.4 298.95 162.35 298.55 L161.45 298.45 Q159.0 298.15 156.55 297.8 L155.55 297.8 149.7 297.75 149.2 297.75 145.25 297.7 144.95 297.7 133.85 298.4 133.35 298.4 Q124.9 298.7 116.4 299.05 115.7 299.05 115.0 299.05 L114.7 299.05 113.25 298.75 112.65 298.3 112.35 298.1 Q110.75 297.1 104.65 297.1 L104.55 297.1 99.4 297.25 99.2 297.25 M450.7 300.45 Q452.45 300.2 454.2 299.9 458.65 299.45 463.15 299.0 L466.95 298.55 469.8 298.5 471.0 297.9 Q472.05 297.4 474.1 297.4 478.8 297.8 483.55 298.2 L494.5 299.2 492.75 299.25 482.85 298.25 Q478.35 297.9 473.8 297.5 472.65 297.5 470.3 298.6 L467.05 298.65 Q465.35 298.85 463.6 299.05 L454.2 299.45 Q454.2 299.65 455.3 300.0 453.5 300.2 451.65 300.4 L450.7 300.45"/>
    </path>
  </g>
</svg>
