<?xml version="1.0" encoding="UTF-8" standalone="no"?>
<svg xmlns:xlink="http://www.w3.org/1999/xlink" height="6.5px" width="445.0px" xmlns="http://www.w3.org/2000/svg">
  <g transform="matrix(1.0, 0.0, 0.0, 1.0, -49.5, -295.9)">
    <path d="M450.7 300.45 Q451.2 300.4 451.65 300.4 455.55 300.25 454.2 299.45 L463.6 299.05 467.05 298.65 470.3 298.6 Q472.65 297.5 473.8 297.5 478.35 297.9 482.85 298.25 L492.75 299.25 494.5 299.2 483.55 298.2 474.1 297.4 Q472.05 297.4 471.0 297.9 470.4 298.2 469.8 298.5 L466.95 298.55 463.15 299.0 453.9 299.65 Q454.05 299.8 454.2 299.9 L450.7 300.45 M99.2 297.25 L104.65 297.1 Q110.75 297.1 112.35 298.1 112.8 298.45 113.25 298.75 L115.0 299.05 133.35 298.4 145.25 297.7 149.7 297.75 156.55 297.8 162.35 298.55 180.2 299.3 185.5 298.85 191.2 298.3 Q200.55 298.35 209.85 298.35 211.8 298.6 213.7 298.85 L215.15 299.5 217.15 300.1 222.55 300.35 Q228.55 300.2 234.5 300.1 L236.8 299.8 239.95 299.8 240.2 299.55 Q240.2 299.5 240.2 299.5 L242.35 299.6 245.15 299.65 244.9 299.35 Q244.9 299.2 245.15 299.2 L245.4 299.15 250.65 299.1 Q251.3 299.35 251.65 300.05 251.95 300.75 252.8 301.0 L259.75 300.95 Q260.95 300.7 262.15 300.5 L263.75 300.0 Q265.95 299.4 271.6 299.15 L279.35 298.35 Q279.7 298.15 279.5 297.85 L279.3 297.5 279.15 297.4 Q284.2 297.7 289.25 298.0 L298.05 298.75 Q301.85 299.0 303.5 299.55 L305.75 300.25 316.7 299.95 Q316.9 299.75 317.1 299.6 L319.35 299.25 324.5 299.15 338.35 299.65 339.15 300.05 341.55 300.5 345.4 300.5 357.75 299.25 374.9 298.5 388.8 299.1 Q391.15 299.35 393.5 299.55 395.5 299.65 397.5 299.75 L402.4 299.7 410.35 299.1 419.3 298.2 Q426.45 298.1 433.4 299.5 435.75 300.05 438.05 300.6 L440.8 301.4 445.35 300.9 440.95 301.25 Q438.75 300.4 433.5 299.3 L424.7 298.05 418.9 298.05 410.0 298.85 401.9 299.55 389.8 298.85 Q385.05 298.55 380.35 298.25 L357.05 299.05 344.9 300.3 341.55 300.3 338.35 299.55 330.95 298.95 318.6 299.05 Q318.05 299.1 316.35 299.7 314.05 299.9 311.8 300.1 L305.6 300.1 Q303.85 299.05 294.85 298.1 L280.05 297.2 277.8 297.2 Q277.7 297.2 277.6 297.2 277.5 297.3 277.4 297.35 277.65 297.5 277.9 297.6 L278.4 297.9 Q278.4 298.3 275.95 298.6 L267.3 299.25 Q265.1 299.6 262.9 299.95 261.15 300.35 259.4 300.75 L253.3 300.8 252.65 299.75 Q252.25 299.05 250.5 298.75 L249.75 298.9 245.0 298.95 Q244.35 299.0 243.6 299.45 L241.2 299.35 238.85 299.45 239.2 299.6 234.6 299.9 Q231.8 300.05 229.0 300.15 L217.15 299.65 Q215.95 299.4 216.65 299.15 216.65 298.85 215.3 298.55 L209.45 298.1 191.05 298.1 185.35 298.65 Q183.5 298.85 181.65 299.05 L163.9 298.4 157.45 297.55 151.0 297.5 130.5 298.15 Q122.9 298.45 113.8 298.0 112.85 297.35 108.95 297.05 104.75 296.65 99.2 297.25 M49.5 297.2 L52.45 297.45 55.9 297.35 56.55 297.2 Q62.1 297.05 65.8 297.2 68.6 297.45 71.35 297.7 L77.0 298.25 Q81.75 298.4 86.5 298.55 L91.8 298.5 94.95 297.75 Q93.1 298.05 91.3 298.3 L71.85 297.65 70.8 297.35 69.8 297.15 Q67.65 296.9 56.25 296.9 55.0 296.95 53.8 296.95 L50.0 297.05 49.75 297.05 49.5 297.2" fill="#ffffff" fill-rule="evenodd" stroke="none">
      <animate attributeName="fill" dur="2s" repeatCount="indefinite" values="#ffffff;#ffffff"/>
      <animate attributeName="fill-opacity" dur="2s" repeatCount="indefinite" values="1.0;1.0"/>
      <animate attributeName="d" dur="2s" repeatCount="indefinite" values="M450.7 300.45 Q451.2 300.4 451.65 300.4 455.55 300.25 454.2 299.45 L463.6 299.05 467.05 298.65 470.3 298.6 Q472.65 297.5 473.8 297.5 478.35 297.9 482.85 298.25 L492.75 299.25 494.5 299.2 483.55 298.2 474.1 297.4 Q472.05 297.4 471.0 297.9 470.4 298.2 469.8 298.5 L466.95 298.55 463.15 299.0 453.9 299.65 Q454.05 299.8 454.2 299.9 L450.7 300.45 M99.2 297.25 L104.65 297.1 Q110.75 297.1 112.35 298.1 112.8 298.45 113.25 298.75 L115.0 299.05 133.35 298.4 145.25 297.7 149.7 297.75 156.55 297.8 162.35 298.55 180.2 299.3 185.5 298.85 191.2 298.3 Q200.55 298.35 209.85 298.35 211.8 298.6 213.7 298.85 L215.15 299.5 217.15 300.1 222.55 300.35 Q228.55 300.2 234.5 300.1 L236.8 299.8 239.95 299.8 240.2 299.55 Q240.2 299.5 240.2 299.5 L242.35 299.6 245.15 299.65 244.9 299.35 Q244.9 299.2 245.15 299.2 L245.4 299.15 250.65 299.1 Q251.3 299.35 251.65 300.05 251.95 300.75 252.8 301.0 L259.75 300.95 Q260.95 300.7 262.15 300.5 L263.75 300.0 Q265.95 299.4 271.6 299.15 L279.35 298.35 Q279.7 298.15 279.5 297.85 L279.3 297.5 279.15 297.4 Q284.2 297.7 289.25 298.0 L298.05 298.75 Q301.85 299.0 303.5 299.55 L305.75 300.25 316.7 299.95 Q316.9 299.75 317.1 299.6 L319.35 299.25 324.5 299.15 338.35 299.65 339.15 300.05 341.55 300.5 345.4 300.5 357.75 299.25 374.9 298.5 388.8 299.1 Q391.15 299.35 393.5 299.55 395.5 299.65 397.5 299.75 L402.4 299.7 410.35 299.1 419.3 298.2 Q426.45 298.1 433.4 299.5 435.75 300.05 438.05 300.6 L440.8 301.4 445.35 300.9 440.95 301.25 Q438.75 300.4 433.5 299.3 L424.7 298.05 418.9 298.05 410.0 298.85 401.9 299.55 389.8 298.85 Q385.05 298.55 380.35 298.25 L357.05 299.05 344.9 300.3 341.55 300.3 338.35 299.55 330.95 298.95 318.6 299.05 Q318.05 299.1 316.35 299.7 314.05 299.9 311.8 300.1 L305.6 300.1 Q303.85 299.05 294.85 298.1 L280.05 297.2 277.8 297.2 Q277.7 297.2 277.6 297.2 277.5 297.3 277.4 297.35 277.65 297.5 277.9 297.6 L278.4 297.9 Q278.4 298.3 275.95 298.6 L267.3 299.25 Q265.1 299.6 262.9 299.95 261.15 300.35 259.4 300.75 L253.3 300.8 252.65 299.75 Q252.25 299.05 250.5 298.75 L249.75 298.9 245.0 298.95 Q244.35 299.0 243.6 299.45 L241.2 299.35 238.85 299.45 239.2 299.6 234.6 299.9 Q231.8 300.05 229.0 300.15 L217.15 299.65 Q215.95 299.4 216.65 299.15 216.65 298.85 215.3 298.55 L209.45 298.1 191.05 298.1 185.35 298.65 Q183.5 298.85 181.65 299.05 L163.9 298.4 157.45 297.55 151.0 297.5 130.5 298.15 Q122.9 298.45 113.8 298.0 112.85 297.35 108.95 297.05 104.75 296.65 99.2 297.25 M49.5 297.2 L52.45 297.45 55.9 297.35 56.55 297.2 Q62.1 297.05 65.8 297.2 68.6 297.45 71.35 297.7 L77.0 298.25 Q81.75 298.4 86.5 298.55 L91.8 298.5 94.95 297.75 Q93.1 298.05 91.3 298.3 L71.85 297.65 70.8 297.35 69.8 297.15 Q67.65 296.9 56.25 296.9 55.0 296.95 53.8 296.95 L50.0 297.05 49.75 297.05 49.5 297.2;M450.7 297.25 Q454.2 297.7 454.2 298.05 454.0 298.45 453.8 298.8 L463.15 299.35 466.95 300.0 469.8 300.1 Q470.4 300.55 471.0 300.95 472.05 301.65 474.1 301.65 L483.55 300.5 494.5 299.05 492.75 299.0 482.85 300.45 Q478.3 301.0 473.8 301.55 472.65 301.55 470.3 299.95 L467.05 299.85 463.6 299.3 455.3 297.9 Q455.55 297.55 451.65 297.35 L450.7 297.25 M99.2 301.9 L108.95 302.2 Q112.85 301.75 113.8 300.8 115.1 299.7 115.5 299.6 L130.5 300.6 151.0 301.55 157.45 301.45 163.9 300.25 181.65 299.3 185.35 299.85 191.05 300.65 209.45 300.65 215.3 300.0 Q216.65 299.6 216.65 299.15 215.95 298.8 217.15 298.4 L229.0 297.7 234.6 298.05 239.2 298.5 Q238.8 298.65 238.85 298.7 L241.2 298.85 243.6 298.7 243.6 298.8 Q243.3 298.85 243.9 299.15 L245.0 299.45 249.75 299.5 250.5 299.7 Q252.25 299.3 252.65 298.3 L253.3 296.75 259.4 296.85 Q261.15 297.45 262.9 298.0 264.9 298.7 267.3 299.0 L275.95 299.95 Q278.4 300.35 278.4 300.95 L277.9 301.4 Q277.65 301.6 277.4 301.75 L277.6 301.95 Q277.7 301.95 277.8 301.95 L280.05 301.95 294.85 300.65 Q303.85 299.3 305.6 297.75 L311.8 297.75 Q315.15 297.75 316.35 298.35 L318.6 299.3 330.95 299.45 Q335.4 299.45 338.35 298.55 L341.55 297.5 344.9 297.5 357.05 299.3 380.35 300.45 389.8 299.6 401.9 298.55 410.0 299.6 418.9 300.75 424.7 300.75 Q427.6 300.75 433.5 298.95 438.75 297.35 440.95 296.1 L445.2 296.6 440.8 295.9 438.05 297.05 Q435.7 297.85 433.4 298.65 426.45 300.65 419.3 300.5 L410.35 299.2 402.4 298.35 397.5 298.3 Q395.5 298.45 393.5 298.55 L388.8 299.2 374.9 300.1 357.75 299.0 345.4 297.2 341.55 297.2 Q339.65 297.5 339.15 297.85 L338.35 298.4 324.5 299.15 319.35 299.0 317.1 298.5 316.7 298.0 305.75 297.55 Q304.6 298.05 303.5 298.55 301.85 299.35 298.05 299.7 L289.25 300.8 Q284.2 301.25 279.15 301.65 L279.3 301.55 279.5 301.0 Q279.7 300.6 279.35 300.3 278.25 299.5 271.6 299.15 265.95 298.8 263.75 297.9 L262.15 297.2 Q260.95 296.85 259.75 296.55 L252.8 296.45 Q251.95 296.85 251.65 297.85 251.3 298.85 250.65 299.2 L245.4 299.15 245.15 299.05 Q245.0 298.95 244.9 298.85 L245.15 298.4 242.35 298.5 Q241.15 298.35 239.95 298.2 L236.8 298.2 234.5 297.75 222.55 297.4 217.15 297.75 Q215.95 298.05 215.15 298.65 L213.7 299.6 Q212.4 300.15 209.85 300.3 200.5 300.35 191.2 300.35 L185.5 299.6 180.2 298.95 162.35 300.0 Q158.5 300.5 156.55 301.1 L149.7 301.15 145.25 301.25 133.35 300.25 115.0 299.3 Q113.8 299.3 112.35 300.65 110.75 302.1 104.65 302.1 101.9 302.0 99.2 301.9 M49.5 301.95 L49.75 302.2 50.0 302.2 53.8 302.3 Q55.05 302.35 56.25 302.4 67.65 302.4 69.8 302.05 L70.8 301.75 Q71.15 301.45 71.85 301.3 L91.3 300.35 93.6 300.6 Q92.8 300.15 91.8 300.1 L86.5 300.0 77.0 300.45 71.35 301.25 Q68.55 301.6 65.8 301.95 62.1 302.2 56.55 301.95 L55.9 301.75 52.45 301.6 49.5 301.95"/>
    </path>
    <path d="M49.5 297.2 L49.75 297.05 50.0 297.05 53.8 296.95 Q55.0 296.95 56.25 296.9 67.65 296.9 69.8 297.15 L70.8 297.35 71.85 297.65 91.3 298.3 Q93.1 298.05 94.95 297.75 L91.8 298.5 86.5 298.55 Q81.75 298.4 77.0 298.25 L71.35 297.7 Q68.6 297.45 65.8 297.2 62.1 297.05 56.55 297.2 L55.9 297.35 52.45 297.45 49.5 297.2 M99.2 297.25 Q104.75 296.65 108.95 297.05 112.85 297.35 113.8 298.0 122.9 298.45 130.5 298.15 L151.0 297.5 157.45 297.55 163.9 298.4 181.65 299.05 Q183.5 298.85 185.35 298.65 L191.05 298.1 209.45 298.1 215.3 298.55 Q216.65 298.85 216.65 299.15 215.95 299.4 217.15 299.65 L229.0 300.15 Q231.8 300.05 234.6 299.9 L239.2 299.6 238.85 299.45 241.2 299.35 243.6 299.45 Q244.35 299.0 245.0 298.95 L249.75 298.9 250.5 298.75 Q252.25 299.05 252.65 299.75 L253.3 300.8 259.4 300.75 Q261.15 300.35 262.9 299.95 265.1 299.6 267.3 299.25 L275.95 298.6 Q278.4 298.3 278.4 297.9 L277.9 297.6 Q277.65 297.5 277.4 297.35 277.5 297.3 277.6 297.2 277.7 297.2 277.8 297.2 L280.05 297.2 294.85 298.1 Q303.85 299.05 305.6 300.1 L311.8 300.1 Q314.05 299.9 316.35 299.7 318.05 299.1 318.6 299.05 L330.95 298.95 338.35 299.55 341.55 300.3 344.9 300.3 357.05 299.05 380.35 298.25 Q385.05 298.55 389.8 298.85 L401.9 299.55 410.0 298.85 418.9 298.05 424.7 298.05 433.5 299.3 Q438.75 300.4 440.95 301.25 L445.35 300.9 440.8 301.4 438.05 300.6 Q435.75 300.05 433.4 299.5 426.45 298.1 419.3 298.2 L410.35 299.1 402.4 299.7 397.5 299.75 Q395.5 299.65 393.5 299.55 391.15 299.35 388.8 299.1 L374.9 298.5 357.75 299.25 345.4 300.5 341.55 300.5 339.15 300.05 338.35 299.65 324.5 299.15 319.35 299.25 317.1 299.6 Q316.9 299.75 316.7 299.95 L305.75 300.25 303.5 299.55 Q301.85 299.0 298.05 298.75 L289.25 298.0 Q284.2 297.7 279.15 297.4 L279.3 297.5 279.5 297.85 Q279.7 298.15 279.35 298.35 L271.6 299.15 Q265.95 299.4 263.75 300.0 L262.15 300.5 Q260.95 300.7 259.75 300.95 L252.8 301.0 Q251.95 300.75 251.65 300.05 251.3 299.35 250.65 299.1 L245.4 299.15 245.15 299.2 Q244.9 299.2 244.9 299.35 L245.15 299.65 242.35 299.6 240.2 299.5 Q240.2 299.5 240.2 299.55 L239.95 299.8 236.8 299.8 234.5 300.1 Q228.55 300.2 222.55 300.35 L217.15 300.1 215.15 299.5 213.7 298.85 Q211.8 298.6 209.85 298.35 200.55 298.35 191.2 298.3 L185.5 298.85 180.2 299.3 162.35 298.55 156.55 297.8 149.7 297.75 145.25 297.7 133.35 298.4 115.0 299.05 113.25 298.75 Q112.8 298.45 112.35 298.1 110.75 297.1 104.65 297.1 L99.2 297.25 M450.7 300.45 L454.2 299.9 Q454.05 299.8 453.9 299.65 L463.15 299.0 466.95 298.55 469.8 298.5 Q470.4 298.2 471.0 297.9 472.05 297.4 474.1 297.4 L483.55 298.2 494.5 299.2 492.75 299.25 482.85 298.25 Q478.35 297.9 473.8 297.5 472.65 297.5 470.3 298.6 L467.05 298.65 463.6 299.05 454.2 299.45 Q455.55 300.25 451.65 300.4 451.2 300.4 450.7 300.45" fill="none" stroke="#000000" stroke-linecap="round" stroke-linejoin="round" stroke-opacity="0.0" stroke-width="1.0">
      <animate attributeName="stroke" dur="2s" repeatCount="indefinite" values="#000000;#000001"/>
      <animate attributeName="stroke-width" dur="2s" repeatCount="indefinite" values="0.0;0.0"/>
      <animate attributeName="fill-opacity" dur="2s" repeatCount="indefinite" values="0.0;0.0"/>
      <animate attributeName="d" dur="2s" repeatCount="indefinite" values="M49.5 297.2 L49.75 297.05 50.0 297.05 53.8 296.95 Q55.0 296.95 56.25 296.9 67.65 296.9 69.8 297.15 L70.8 297.35 71.85 297.65 91.3 298.3 Q93.1 298.05 94.95 297.75 L91.8 298.5 86.5 298.55 Q81.75 298.4 77.0 298.25 L71.35 297.7 Q68.6 297.45 65.8 297.2 62.1 297.05 56.55 297.2 L55.9 297.35 52.45 297.45 49.5 297.2 M99.2 297.25 Q104.75 296.65 108.95 297.05 112.85 297.35 113.8 298.0 122.9 298.45 130.5 298.15 L151.0 297.5 157.45 297.55 163.9 298.4 181.65 299.05 Q183.5 298.85 185.35 298.65 L191.05 298.1 209.45 298.1 215.3 298.55 Q216.65 298.85 216.65 299.15 215.95 299.4 217.15 299.65 L229.0 300.15 Q231.8 300.05 234.6 299.9 L239.2 299.6 238.85 299.45 241.2 299.35 243.6 299.45 Q244.35 299.0 245.0 298.95 L249.75 298.9 250.5 298.75 Q252.25 299.05 252.65 299.75 L253.3 300.8 259.4 300.75 Q261.15 300.35 262.9 299.95 265.1 299.6 267.3 299.25 L275.95 298.6 Q278.4 298.3 278.4 297.9 L277.9 297.6 Q277.65 297.5 277.4 297.35 277.5 297.3 277.6 297.2 277.7 297.2 277.8 297.2 L280.05 297.2 294.85 298.1 Q303.85 299.05 305.6 300.1 L311.8 300.1 Q314.05 299.9 316.35 299.7 318.05 299.1 318.6 299.05 L330.95 298.95 338.35 299.55 341.55 300.3 344.9 300.3 357.05 299.05 380.35 298.25 Q385.05 298.55 389.8 298.85 L401.9 299.55 410.0 298.85 418.9 298.05 424.7 298.05 433.5 299.3 Q438.75 300.4 440.95 301.25 L445.35 300.9 440.8 301.4 438.05 300.6 Q435.75 300.05 433.4 299.5 426.45 298.1 419.3 298.2 L410.35 299.1 402.4 299.7 397.5 299.75 Q395.5 299.65 393.5 299.55 391.15 299.35 388.8 299.1 L374.9 298.5 357.75 299.25 345.4 300.5 341.55 300.5 339.15 300.05 338.35 299.65 324.5 299.15 319.35 299.25 317.1 299.6 Q316.9 299.75 316.7 299.95 L305.75 300.25 303.5 299.55 Q301.85 299.0 298.05 298.75 L289.25 298.0 Q284.2 297.7 279.15 297.4 L279.3 297.5 279.5 297.85 Q279.7 298.15 279.35 298.35 L271.6 299.15 Q265.95 299.4 263.75 300.0 L262.15 300.5 Q260.95 300.7 259.75 300.95 L252.8 301.0 Q251.95 300.75 251.65 300.05 251.3 299.35 250.65 299.1 L245.4 299.15 245.15 299.2 Q244.9 299.2 244.9 299.35 L245.15 299.65 242.35 299.6 240.2 299.5 Q240.2 299.5 240.2 299.55 L239.95 299.8 236.8 299.8 234.5 300.1 Q228.55 300.2 222.55 300.35 L217.15 300.1 215.15 299.5 213.7 298.85 Q211.8 298.6 209.85 298.35 200.55 298.35 191.2 298.3 L185.5 298.85 180.2 299.3 162.35 298.55 156.55 297.8 149.7 297.75 145.25 297.7 133.35 298.4 115.0 299.05 113.25 298.75 Q112.8 298.45 112.35 298.1 110.75 297.1 104.65 297.1 L99.2 297.25 M450.7 300.45 L454.2 299.9 Q454.05 299.8 453.9 299.65 L463.15 299.0 466.95 298.55 469.8 298.5 Q470.4 298.2 471.0 297.9 472.05 297.4 474.1 297.4 L483.55 298.2 494.5 299.2 492.75 299.25 482.85 298.25 Q478.35 297.9 473.8 297.5 472.65 297.5 470.3 298.6 L467.05 298.65 463.6 299.05 454.2 299.45 Q455.55 300.25 451.65 300.4 451.2 300.4 450.7 300.45;M49.5 301.95 L52.45 301.6 55.9 301.75 56.55 301.95 Q62.1 302.2 65.8 301.95 68.55 301.6 71.35 301.25 L77.0 300.45 86.5 300.0 91.8 300.1 Q92.8 300.15 93.6 300.6 L91.3 300.35 71.85 301.3 Q71.15 301.45 70.8 301.75 L69.8 302.05 Q67.65 302.4 56.25 302.4 55.05 302.35 53.8 302.3 L50.0 302.2 49.75 302.2 49.5 301.95 M99.2 301.9 Q101.9 302.0 104.65 302.1 110.75 302.1 112.35 300.65 113.8 299.3 115.0 299.3 L133.35 300.25 145.25 301.25 149.7 301.15 156.55 301.1 Q158.5 300.5 162.35 300.0 L180.2 298.95 185.5 299.6 191.2 300.35 Q200.5 300.35 209.85 300.3 212.4 300.15 213.7 299.6 L215.15 298.65 Q215.95 298.05 217.15 297.75 L222.55 297.4 234.5 297.75 236.8 298.2 239.95 298.2 Q241.15 298.35 242.35 298.5 L245.15 298.4 244.9 298.85 Q245.0 298.95 245.15 299.05 L245.4 299.15 250.65 299.2 Q251.3 298.85 251.65 297.85 251.95 296.85 252.8 296.45 L259.75 296.55 Q260.95 296.85 262.15 297.2 L263.75 297.9 Q265.95 298.8 271.6 299.15 278.25 299.5 279.35 300.3 279.7 300.6 279.5 301.0 L279.3 301.55 279.15 301.65 Q284.2 301.25 289.25 300.8 L298.05 299.7 Q301.85 299.35 303.5 298.55 304.6 298.05 305.75 297.55 L316.7 298.0 317.1 298.5 319.35 299.0 324.5 299.15 338.35 298.4 339.15 297.85 Q339.65 297.5 341.55 297.2 L345.4 297.2 357.75 299.0 374.9 300.1 388.8 299.2 393.5 298.55 Q395.5 298.45 397.5 298.3 L402.4 298.35 410.35 299.2 419.3 300.5 Q426.45 300.65 433.4 298.65 435.7 297.85 438.05 297.05 L440.8 295.9 445.2 296.6 440.95 296.1 Q438.75 297.35 433.5 298.95 427.6 300.75 424.7 300.75 L418.9 300.75 410.0 299.6 401.9 298.55 389.8 299.6 380.35 300.45 357.05 299.3 344.9 297.5 341.55 297.5 338.35 298.55 Q335.4 299.45 330.95 299.45 L318.6 299.3 316.35 298.35 Q315.15 297.75 311.8 297.75 L305.6 297.75 Q303.85 299.3 294.85 300.65 L280.05 301.95 277.8 301.95 Q277.7 301.95 277.6 301.95 L277.4 301.75 Q277.65 301.6 277.9 301.4 L278.4 300.95 Q278.4 300.35 275.95 299.95 L267.3 299.0 Q264.9 298.7 262.9 298.0 261.15 297.45 259.4 296.85 L253.3 296.75 252.65 298.3 Q252.25 299.3 250.5 299.7 L249.75 299.5 245.0 299.45 243.9 299.15 Q243.3 298.85 243.6 298.8 L243.6 298.7 241.2 298.85 238.85 298.7 Q238.8 298.65 239.2 298.5 L234.6 298.05 229.0 297.7 217.15 298.4 Q215.95 298.8 216.65 299.15 216.65 299.6 215.3 300.0 L209.45 300.65 191.05 300.65 185.35 299.85 181.65 299.3 163.9 300.25 157.45 301.45 151.0 301.55 130.5 300.6 115.5 299.6 Q115.1 299.7 113.8 300.8 112.85 301.75 108.95 302.2 L99.2 301.9 M450.7 297.25 L451.65 297.35 Q455.55 297.55 455.3 297.9 L463.6 299.3 467.05 299.85 470.3 299.95 Q472.65 301.55 473.8 301.55 478.3 301.0 482.85 300.45 L492.75 299.0 494.5 299.05 483.55 300.5 474.1 301.65 Q472.05 301.65 471.0 300.95 470.4 300.55 469.8 300.1 L466.95 300.0 463.15 299.35 453.8 298.8 Q454.0 298.45 454.2 298.05 454.2 297.7 450.7 297.25"/>
    </path>
  </g>
</svg>
