<?xml version="1.0" encoding="UTF-8" standalone="no"?>
<svg xmlns:xlink="http://www.w3.org/1999/xlink" height="17.55px" width="445.0px" xmlns="http://www.w3.org/2000/svg">
  <g transform="matrix(1.0, 0.0, 0.0, 1.0, -49.5, -290.4)">
    <path d="M450.7 297.25 Q454.2 297.7 454.2 298.05 L453.9 298.4 Q453.7 298.65 453.8 298.8 L463.15 299.35 466.95 300.0 469.8 300.1 471.0 300.95 Q472.05 301.65 474.1 301.65 478.85 301.05 483.55 300.5 489.05 299.75 494.5 299.05 L492.75 299.0 482.85 300.45 Q478.3 301.0 473.8 301.55 472.65 301.55 470.3 299.95 L467.05 299.85 Q465.3 299.55 463.6 299.3 459.45 298.6 455.3 297.9 455.55 297.55 451.65 297.35 L450.7 297.25 M99.2 301.9 Q104.1 302.05 108.95 302.2 112.85 301.75 113.8 300.8 115.1 299.7 115.5 299.6 L130.5 300.6 Q140.75 301.1 151.0 301.55 L157.45 301.45 Q160.7 300.85 163.9 300.25 172.8 299.75 181.65 299.3 L185.35 299.85 Q188.2 300.25 191.05 300.65 L209.45 300.65 Q212.4 300.3 215.3 300.0 216.65 299.6 216.65 299.15 215.95 298.8 217.15 298.4 223.1 298.05 229.0 297.7 231.8 297.9 234.6 298.05 236.9 298.3 239.2 298.5 238.8 298.65 238.85 298.7 240.05 298.8 241.2 298.85 L243.6 298.7 243.6 298.8 Q243.3 298.85 243.9 299.15 L245.0 299.45 249.75 299.5 250.15 299.65 250.5 299.7 Q252.25 299.3 252.65 298.3 L253.3 296.75 259.4 296.85 262.9 298.0 Q264.9 298.7 267.3 299.0 271.65 299.5 275.95 299.95 278.4 300.35 278.4 300.95 L277.9 301.4 Q277.65 301.6 277.4 301.75 277.4 301.95 277.8 301.95 L280.05 301.95 Q287.45 301.3 294.85 300.65 303.85 299.3 305.6 297.75 L311.8 297.75 Q315.15 297.75 316.35 298.35 317.5 298.85 318.6 299.3 L330.95 299.45 Q335.4 299.45 338.35 298.55 L341.55 297.5 344.9 297.5 Q351.0 298.4 357.05 299.3 368.7 299.9 380.35 300.45 385.1 300.0 389.8 299.6 395.85 299.05 401.9 298.55 405.95 299.1 410.0 299.6 414.45 300.2 418.9 300.75 L424.7 300.75 Q427.6 300.75 433.5 298.95 438.75 297.35 440.95 296.1 L445.2 296.6 Q443.0 296.25 440.8 295.9 L438.05 297.05 Q435.7 297.85 433.4 298.65 426.45 300.65 419.3 300.5 414.8 299.85 410.35 299.2 406.35 298.75 402.4 298.35 L397.5 298.3 Q395.5 298.45 393.5 298.55 L388.8 299.2 Q381.85 299.65 374.9 300.1 366.3 299.55 357.75 299.0 351.55 298.1 345.4 297.2 L341.55 297.2 Q339.65 297.5 339.15 297.85 L338.35 298.4 Q331.4 298.8 324.5 299.15 L319.35 299.0 Q318.2 298.75 317.1 298.5 L316.7 298.0 Q311.2 297.75 305.75 297.55 L303.5 298.55 Q301.85 299.35 298.05 299.7 L289.25 300.8 Q284.2 301.25 279.15 301.65 L279.3 301.55 279.5 301.0 Q279.7 300.6 279.35 300.3 278.25 299.5 271.6 299.15 265.95 298.8 263.75 297.9 L262.15 297.2 Q260.95 296.85 259.75 296.55 L252.8 296.45 Q251.95 296.85 251.65 297.85 251.3 298.85 250.65 299.2 L245.4 299.15 245.15 299.05 Q245.0 298.95 244.9 298.85 L245.1 298.65 245.15 298.4 242.35 298.5 240.2 298.55 239.95 298.2 236.8 298.2 Q235.65 297.95 234.5 297.75 228.5 297.55 222.55 297.4 219.85 297.6 217.15 297.75 215.95 298.05 215.15 298.65 L213.7 299.6 Q212.4 300.15 209.85 300.3 L191.2 300.35 Q188.35 299.95 185.5 299.6 182.85 299.25 180.2 298.95 171.25 299.5 162.35 300.0 158.5 300.5 156.55 301.1 L149.7 301.15 145.25 301.25 133.35 300.25 Q124.15 299.75 115.0 299.3 113.8 299.3 112.35 300.65 110.75 302.1 104.65 302.1 L99.2 301.9 M49.5 301.95 L49.75 302.2 50.0 302.2 53.8 302.3 56.25 302.4 Q67.65 302.4 69.8 302.05 L70.8 301.75 Q71.15 301.45 71.85 301.3 81.6 300.8 91.3 300.35 L94.95 301.15 91.8 300.1 86.5 300.0 Q81.75 300.25 77.0 300.45 74.15 300.85 71.35 301.25 68.55 301.6 65.8 301.95 62.1 302.2 55.9 301.75 L52.45 301.6 Q50.95 301.8 49.5 301.95" fill="#ffffff" fill-rule="evenodd" stroke="none">
      <animate attributeName="fill" dur="2s" repeatCount="indefinite" values="#ffffff;#ffffff"/>
      <animate attributeName="fill-opacity" dur="2s" repeatCount="indefinite" values="1.0;1.0"/>
      <animate attributeName="d" dur="2s" repeatCount="indefinite" values="M450.7 297.25 Q454.2 297.7 454.2 298.05 L453.9 298.4 Q453.7 298.65 453.8 298.8 L463.15 299.35 466.95 300.0 469.8 300.1 471.0 300.95 Q472.05 301.65 474.1 301.65 478.85 301.05 483.55 300.5 489.05 299.75 494.5 299.05 L492.75 299.0 482.85 300.45 Q478.3 301.0 473.8 301.55 472.65 301.55 470.3 299.95 L467.05 299.85 Q465.3 299.55 463.6 299.3 459.45 298.6 455.3 297.9 455.55 297.55 451.65 297.35 L450.7 297.25 M99.2 301.9 Q104.1 302.05 108.95 302.2 112.85 301.75 113.8 300.8 115.1 299.7 115.5 299.6 L130.5 300.6 Q140.75 301.1 151.0 301.55 L157.45 301.45 Q160.7 300.85 163.9 300.25 172.8 299.75 181.65 299.3 L185.35 299.85 Q188.2 300.25 191.05 300.65 L209.45 300.65 Q212.4 300.3 215.3 300.0 216.65 299.6 216.65 299.15 215.95 298.8 217.15 298.4 223.1 298.05 229.0 297.7 231.8 297.9 234.6 298.05 236.9 298.3 239.2 298.5 238.8 298.65 238.85 298.7 240.05 298.8 241.2 298.85 L243.6 298.7 243.6 298.8 Q243.3 298.85 243.9 299.15 L245.0 299.45 249.75 299.5 250.15 299.65 250.5 299.7 Q252.25 299.3 252.65 298.3 L253.3 296.75 259.4 296.85 262.9 298.0 Q264.9 298.7 267.3 299.0 271.65 299.5 275.95 299.95 278.4 300.35 278.4 300.95 L277.9 301.4 Q277.65 301.6 277.4 301.75 277.4 301.95 277.8 301.95 L280.05 301.95 Q287.45 301.3 294.85 300.65 303.85 299.3 305.6 297.75 L311.8 297.75 Q315.15 297.75 316.35 298.35 317.5 298.85 318.6 299.3 L330.95 299.45 Q335.4 299.45 338.35 298.55 L341.55 297.5 344.9 297.5 Q351.0 298.4 357.05 299.3 368.7 299.9 380.35 300.45 385.1 300.0 389.8 299.6 395.85 299.05 401.9 298.55 405.95 299.1 410.0 299.6 414.45 300.2 418.9 300.75 L424.7 300.75 Q427.6 300.75 433.5 298.95 438.75 297.35 440.95 296.1 L445.2 296.6 Q443.0 296.25 440.8 295.9 L438.05 297.05 Q435.7 297.85 433.4 298.65 426.45 300.65 419.3 300.5 414.8 299.85 410.35 299.2 406.35 298.75 402.4 298.35 L397.5 298.3 Q395.5 298.45 393.5 298.55 L388.8 299.2 Q381.85 299.65 374.9 300.1 366.3 299.55 357.75 299.0 351.55 298.1 345.4 297.2 L341.55 297.2 Q339.65 297.5 339.15 297.85 L338.35 298.4 Q331.4 298.8 324.5 299.15 L319.35 299.0 Q318.2 298.75 317.1 298.5 L316.7 298.0 Q311.2 297.75 305.75 297.55 L303.5 298.55 Q301.85 299.35 298.05 299.7 L289.25 300.8 Q284.2 301.25 279.15 301.65 L279.3 301.55 279.5 301.0 Q279.7 300.6 279.35 300.3 278.25 299.5 271.6 299.15 265.95 298.8 263.75 297.9 L262.15 297.2 Q260.95 296.85 259.75 296.55 L252.8 296.45 Q251.95 296.85 251.65 297.85 251.3 298.85 250.65 299.2 L245.4 299.15 245.15 299.05 Q245.0 298.95 244.9 298.85 L245.1 298.65 245.15 298.4 242.35 298.5 240.2 298.55 239.95 298.2 236.8 298.2 Q235.65 297.95 234.5 297.75 228.5 297.55 222.55 297.4 219.85 297.6 217.15 297.75 215.95 298.05 215.15 298.65 L213.7 299.6 Q212.4 300.15 209.85 300.3 L191.2 300.35 Q188.35 299.95 185.5 299.6 182.85 299.25 180.2 298.95 171.25 299.5 162.35 300.0 158.5 300.5 156.55 301.1 L149.7 301.15 145.25 301.25 133.35 300.25 Q124.15 299.75 115.0 299.3 113.8 299.3 112.35 300.65 110.75 302.1 104.65 302.1 L99.2 301.9 M49.5 301.95 L49.75 302.2 50.0 302.2 53.8 302.3 56.25 302.4 Q67.65 302.4 69.8 302.05 L70.8 301.75 Q71.15 301.45 71.85 301.3 81.6 300.8 91.3 300.35 L94.95 301.15 91.8 300.1 86.5 300.0 Q81.75 300.25 77.0 300.45 74.15 300.85 71.35 301.25 68.55 301.6 65.8 301.95 62.1 302.2 55.9 301.75 L52.45 301.6 Q50.95 301.8 49.5 301.95;M450.7 294.05 Q454.2 295.25 454.2 296.2 L453.9 297.15 Q453.7 297.8 453.8 298.2 L463.15 299.7 466.95 301.45 469.8 301.7 471.0 304.0 Q472.05 305.9 474.1 305.9 475.3 305.9 483.55 302.8 492.6 299.3 494.5 298.9 L492.75 298.75 482.85 302.65 Q475.55 305.6 473.8 305.6 472.65 305.6 470.3 301.3 L467.05 301.05 Q466.35 300.35 463.6 299.55 460.7 298.9 455.3 295.8 455.55 294.85 451.65 294.3 L450.7 294.05 M99.2 306.55 Q104.75 308.85 108.95 307.35 112.85 306.15 113.8 303.6 115.1 300.65 115.5 300.35 L130.5 303.05 Q145.4 305.6 151.0 305.6 L157.45 305.35 Q161.7 302.8 163.9 302.1 170.95 299.55 181.65 299.55 L185.35 301.05 Q189.35 302.8 191.05 303.2 L209.45 303.2 Q213.45 302.8 215.3 301.45 216.65 300.35 216.65 299.15 215.95 298.2 217.15 297.15 219.55 295.25 229.0 295.25 232.7 295.25 234.6 296.2 236.35 297.4 239.2 297.4 238.8 297.8 238.85 297.95 238.95 298.35 241.2 298.35 L243.6 297.95 243.6 298.2 Q243.3 298.35 243.9 299.15 L245.0 299.95 249.75 300.1 250.15 300.5 250.5 300.65 Q252.25 299.55 252.65 296.85 L253.3 292.7 259.4 292.95 262.9 296.05 Q264.9 297.95 267.3 298.75 274.1 300.5 275.95 301.3 278.4 302.4 278.4 304.0 L277.9 305.2 Q277.4 305.9 277.4 306.15 277.4 306.7 277.8 306.7 L280.05 306.7 Q286.5 306.7 294.85 303.2 303.85 299.55 305.6 295.4 L311.8 295.4 Q315.15 295.4 316.35 297.0 318.05 299.3 318.6 299.55 L330.95 299.95 Q335.4 299.95 338.35 297.55 L341.55 294.7 344.9 294.7 Q352.35 298.2 357.05 299.55 367.65 302.65 380.35 302.65 382.15 302.65 389.8 300.35 397.75 297.8 401.9 297.55 405.45 299.15 410.0 300.35 414.8 301.7 418.9 303.45 L424.7 303.45 Q427.6 303.45 433.5 298.6 438.75 294.3 440.95 290.95 L445.2 292.3 Q442.1 290.8 440.8 290.4 L438.05 293.5 Q435.7 296.05 433.4 297.8 426.45 303.2 419.3 302.8 414.9 300.65 410.35 299.3 404.8 297.95 402.4 297.0 L397.5 296.85 Q395.85 296.85 393.5 297.55 L388.8 299.3 Q381.85 301.7 374.9 301.7 367.15 301.7 357.75 298.75 352.6 297.15 345.4 293.9 L341.55 293.9 Q339.65 294.7 339.15 295.65 L338.35 297.15 Q336.85 298.6 324.5 299.15 L319.35 298.75 Q317.5 298.2 317.1 297.4 L316.7 296.05 Q315.9 294.85 305.75 294.85 L303.5 297.55 Q301.85 299.7 298.05 300.65 L289.25 303.6 Q282.95 305.6 279.15 305.9 L279.3 305.6 279.5 304.15 Q279.7 303.05 279.35 302.25 278.25 300.1 271.6 299.15 265.95 298.2 263.75 295.8 L262.15 293.9 Q261.15 292.7 259.75 292.15 L252.8 291.9 Q251.95 292.95 251.65 295.65 251.3 298.35 250.65 299.3 L245.4 299.15 245.15 298.9 Q244.9 298.9 244.9 298.35 L245.1 297.8 245.15 297.15 242.35 297.4 240.2 297.55 239.95 296.6 236.8 296.6 Q236.1 296.45 234.5 295.4 231.3 294.45 222.55 294.45 218.9 294.45 217.15 295.4 215.95 296.2 215.15 297.8 L213.7 300.35 Q212.4 301.85 209.85 302.25 L191.2 302.4 Q189.9 302.25 185.5 300.35 181.35 298.6 180.2 298.6 170.0 298.6 162.35 301.45 158.5 302.8 156.55 304.4 L149.7 304.55 145.25 304.8 133.35 302.1 Q122.4 299.55 115.0 299.55 113.8 299.55 112.35 303.2 110.75 307.1 104.65 307.1 L99.2 306.55 M49.5 306.7 L49.75 307.35 50.0 307.35 53.8 307.65 56.25 307.9 Q67.65 307.9 69.8 306.95 L70.8 306.15 Q71.15 305.35 71.85 304.95 80.65 302.65 91.3 302.4 L94.95 304.55 91.8 301.7 86.5 301.45 Q80.95 301.45 77.0 302.65 75.0 303.2 71.35 304.8 68.25 306.3 65.8 306.7 60.85 306.4 55.9 306.15 L52.45 305.75 Q49.5 305.75 49.5 306.7"/>
    </path>
    <path d="M49.5 301.95 Q50.95 301.8 52.45 301.6 L55.9 301.75 Q62.1 302.2 65.8 301.95 68.55 301.6 71.35 301.25 74.15 300.85 77.0 300.45 81.75 300.25 86.5 300.0 L91.8 300.1 94.95 301.15 91.3 300.35 Q81.6 300.8 71.85 301.3 71.15 301.45 70.8 301.75 L69.8 302.05 Q67.65 302.4 56.25 302.4 L53.8 302.3 50.0 302.2 49.75 302.2 49.5 301.95 M99.2 301.9 L104.65 302.1 Q110.75 302.1 112.35 300.65 113.8 299.3 115.0 299.3 124.15 299.75 133.35 300.25 L145.25 301.25 149.7 301.15 156.55 301.1 Q158.5 300.5 162.35 300.0 171.25 299.5 180.2 298.95 182.85 299.25 185.5 299.6 188.35 299.95 191.2 300.35 L209.85 300.3 Q212.4 300.15 213.7 299.6 L215.15 298.65 Q215.95 298.05 217.15 297.75 219.85 297.6 222.55 297.4 228.5 297.55 234.5 297.75 235.65 297.95 236.8 298.2 L239.95 298.2 240.2 298.55 242.35 298.5 245.15 298.4 245.1 298.65 244.9 298.85 Q245.0 298.95 245.15 299.05 L245.4 299.15 250.65 299.2 Q251.3 298.85 251.65 297.85 251.95 296.85 252.8 296.45 L259.75 296.55 Q260.95 296.85 262.15 297.2 L263.75 297.9 Q265.95 298.8 271.6 299.15 278.25 299.5 279.35 300.3 279.7 300.6 279.5 301.0 L279.3 301.55 279.15 301.65 Q284.2 301.25 289.25 300.8 L298.05 299.7 Q301.85 299.35 303.5 298.55 L305.75 297.55 Q311.2 297.75 316.7 298.0 L317.1 298.5 Q318.2 298.75 319.35 299.0 L324.5 299.15 Q331.4 298.8 338.35 298.4 L339.15 297.85 Q339.65 297.5 341.55 297.2 L345.4 297.2 Q351.55 298.1 357.75 299.0 366.3 299.55 374.9 300.1 381.85 299.65 388.8 299.2 L393.5 298.55 Q395.5 298.45 397.5 298.3 L402.4 298.35 Q406.35 298.75 410.35 299.2 414.8 299.85 419.3 300.5 426.45 300.65 433.4 298.65 435.7 297.85 438.05 297.05 L440.8 295.9 Q443.0 296.25 445.2 296.6 L440.95 296.1 Q438.75 297.35 433.5 298.95 427.6 300.75 424.7 300.75 L418.9 300.75 Q414.45 300.2 410.0 299.6 405.95 299.1 401.9 298.55 395.85 299.05 389.8 299.6 385.1 300.0 380.35 300.45 368.7 299.9 357.05 299.3 351.0 298.4 344.9 297.5 L341.55 297.5 338.35 298.55 Q335.4 299.45 330.95 299.45 L318.6 299.3 Q317.5 298.85 316.35 298.35 315.15 297.75 311.8 297.75 L305.6 297.75 Q303.85 299.3 294.85 300.65 287.45 301.3 280.05 301.95 L277.8 301.95 Q277.4 301.95 277.4 301.75 277.65 301.6 277.9 301.4 L278.4 300.95 Q278.4 300.35 275.95 299.95 271.65 299.5 267.3 299.0 264.9 298.7 262.9 298.0 L259.4 296.85 253.3 296.75 252.65 298.3 Q252.25 299.3 250.5 299.7 L250.15 299.65 249.75 299.5 245.0 299.45 243.9 299.15 Q243.3 298.85 243.6 298.8 L243.6 298.7 241.2 298.85 Q240.05 298.8 238.85 298.7 238.8 298.65 239.2 298.5 236.9 298.3 234.6 298.05 231.8 297.9 229.0 297.7 223.1 298.05 217.15 298.4 215.95 298.8 216.65 299.15 216.65 299.6 215.3 300.0 212.4 300.3 209.45 300.65 L191.05 300.65 Q188.2 300.25 185.35 299.85 L181.65 299.3 Q172.8 299.75 163.9 300.25 160.7 300.85 157.45 301.45 L151.0 301.55 Q140.75 301.1 130.5 300.6 L115.5 299.6 Q115.1 299.7 113.8 300.8 112.85 301.75 108.95 302.2 104.1 302.05 99.2 301.9 M450.7 297.25 L451.65 297.35 Q455.55 297.55 455.3 297.9 459.45 298.6 463.6 299.3 465.3 299.55 467.05 299.85 L470.3 299.95 Q472.65 301.55 473.8 301.55 478.3 301.0 482.85 300.45 L492.75 299.0 494.5 299.05 Q489.05 299.75 483.55 300.5 478.85 301.05 474.1 301.65 472.05 301.65 471.0 300.95 L469.8 300.1 466.95 300.0 463.15 299.35 453.8 298.8 Q453.7 298.65 453.9 298.4 L454.2 298.05 Q454.2 297.7 450.7 297.25" fill="none" stroke="#000000" stroke-linecap="round" stroke-linejoin="round" stroke-opacity="0.0" stroke-width="1.0">
      <animate attributeName="stroke" dur="2s" repeatCount="indefinite" values="#000000;#000001"/>
      <animate attributeName="stroke-width" dur="2s" repeatCount="indefinite" values="0.0;0.0"/>
      <animate attributeName="fill-opacity" dur="2s" repeatCount="indefinite" values="0.0;0.0"/>
      <animate attributeName="d" dur="2s" repeatCount="indefinite" values="M49.5 301.95 Q50.95 301.8 52.45 301.6 L55.9 301.75 Q62.1 302.2 65.8 301.95 68.55 301.6 71.35 301.25 74.15 300.85 77.0 300.45 81.75 300.25 86.5 300.0 L91.8 300.1 94.95 301.15 91.3 300.35 Q81.6 300.8 71.85 301.3 71.15 301.45 70.8 301.75 L69.8 302.05 Q67.65 302.4 56.25 302.4 L53.8 302.3 50.0 302.2 49.75 302.2 49.5 301.95 M99.2 301.9 L104.65 302.1 Q110.75 302.1 112.35 300.65 113.8 299.3 115.0 299.3 124.15 299.75 133.35 300.25 L145.25 301.25 149.7 301.15 156.55 301.1 Q158.5 300.5 162.35 300.0 171.25 299.5 180.2 298.95 182.85 299.25 185.5 299.6 188.35 299.95 191.2 300.35 L209.85 300.3 Q212.4 300.15 213.7 299.6 L215.15 298.65 Q215.95 298.05 217.15 297.75 219.85 297.6 222.55 297.4 228.5 297.55 234.5 297.75 235.65 297.95 236.8 298.2 L239.95 298.2 240.2 298.55 242.35 298.5 245.15 298.4 245.1 298.65 244.9 298.85 Q245.0 298.95 245.15 299.05 L245.4 299.15 250.65 299.2 Q251.3 298.85 251.65 297.85 251.95 296.85 252.8 296.45 L259.75 296.55 Q260.95 296.85 262.15 297.2 L263.75 297.9 Q265.95 298.8 271.6 299.15 278.25 299.5 279.35 300.3 279.7 300.6 279.5 301.0 L279.3 301.55 279.15 301.65 Q284.2 301.25 289.25 300.8 L298.05 299.7 Q301.85 299.35 303.5 298.55 L305.75 297.55 Q311.2 297.75 316.7 298.0 L317.1 298.5 Q318.2 298.75 319.35 299.0 L324.5 299.15 Q331.4 298.8 338.35 298.4 L339.15 297.85 Q339.65 297.5 341.55 297.2 L345.4 297.2 Q351.55 298.1 357.75 299.0 366.3 299.55 374.9 300.1 381.85 299.65 388.8 299.2 L393.5 298.55 Q395.5 298.45 397.5 298.3 L402.4 298.35 Q406.35 298.75 410.35 299.2 414.8 299.85 419.3 300.5 426.45 300.65 433.4 298.65 435.7 297.85 438.05 297.05 L440.8 295.9 Q443.0 296.25 445.2 296.6 L440.95 296.1 Q438.75 297.35 433.5 298.95 427.6 300.75 424.7 300.75 L418.9 300.75 Q414.45 300.2 410.0 299.6 405.95 299.1 401.9 298.55 395.85 299.05 389.8 299.6 385.1 300.0 380.35 300.45 368.7 299.9 357.05 299.3 351.0 298.4 344.9 297.5 L341.55 297.5 338.35 298.55 Q335.4 299.45 330.95 299.45 L318.6 299.3 Q317.5 298.85 316.35 298.35 315.15 297.75 311.8 297.75 L305.6 297.75 Q303.85 299.3 294.85 300.65 287.45 301.3 280.05 301.95 L277.8 301.95 Q277.4 301.95 277.4 301.75 277.65 301.6 277.9 301.4 L278.4 300.95 Q278.4 300.35 275.95 299.95 271.65 299.5 267.3 299.0 264.9 298.7 262.9 298.0 L259.4 296.85 253.3 296.75 252.65 298.3 Q252.25 299.3 250.5 299.7 L250.15 299.65 249.75 299.5 245.0 299.45 243.9 299.15 Q243.3 298.85 243.6 298.8 L243.6 298.7 241.2 298.85 Q240.05 298.8 238.85 298.7 238.8 298.65 239.2 298.5 236.9 298.3 234.6 298.05 231.8 297.9 229.0 297.7 223.1 298.05 217.15 298.4 215.95 298.8 216.65 299.15 216.65 299.6 215.3 300.0 212.4 300.3 209.45 300.65 L191.05 300.65 Q188.2 300.25 185.35 299.85 L181.65 299.3 Q172.8 299.75 163.9 300.25 160.7 300.85 157.45 301.45 L151.0 301.55 Q140.75 301.1 130.5 300.6 L115.5 299.6 Q115.1 299.7 113.8 300.8 112.85 301.75 108.95 302.2 104.1 302.05 99.2 301.9 M450.7 297.25 L451.65 297.35 Q455.55 297.55 455.3 297.9 459.45 298.6 463.6 299.3 465.3 299.55 467.05 299.85 L470.3 299.95 Q472.65 301.55 473.8 301.55 478.3 301.0 482.85 300.45 L492.75 299.0 494.5 299.05 Q489.05 299.75 483.55 300.5 478.85 301.05 474.1 301.65 472.05 301.65 471.0 300.95 L469.8 300.1 466.95 300.0 463.15 299.35 453.8 298.8 Q453.7 298.65 453.9 298.4 L454.2 298.05 Q454.2 297.7 450.7 297.25;M49.5 306.7 Q49.5 305.75 52.45 305.75 L55.9 306.15 Q60.85 306.4 65.8 306.7 68.25 306.3 71.35 304.8 75.0 303.2 77.0 302.65 80.95 301.45 86.5 301.45 L91.8 301.7 94.95 304.55 91.3 302.4 Q80.65 302.65 71.85 304.95 71.15 305.35 70.8 306.15 L69.8 306.95 Q67.65 307.9 56.25 307.9 L53.8 307.65 50.0 307.35 49.75 307.35 49.5 306.7 M99.2 306.55 L104.65 307.1 Q110.75 307.1 112.35 303.2 113.8 299.55 115.0 299.55 122.4 299.55 133.35 302.1 L145.25 304.8 149.7 304.55 156.55 304.4 Q158.5 302.8 162.35 301.45 170.0 298.6 180.2 298.6 181.35 298.6 185.5 300.35 189.9 302.25 191.2 302.4 L209.85 302.25 Q212.4 301.85 213.7 300.35 L215.15 297.8 Q215.95 296.2 217.15 295.4 218.9 294.45 222.55 294.45 231.3 294.45 234.5 295.4 236.1 296.45 236.8 296.6 L239.95 296.6 240.2 297.55 242.35 297.4 245.15 297.15 245.1 297.8 244.9 298.35 Q244.9 298.9 245.15 298.9 L245.4 299.15 250.65 299.3 Q251.3 298.35 251.65 295.65 251.95 292.95 252.8 291.9 L259.75 292.15 Q261.15 292.7 262.15 293.9 L263.75 295.8 Q265.95 298.2 271.6 299.15 278.25 300.1 279.35 302.25 279.7 303.05 279.5 304.15 L279.3 305.6 279.15 305.9 Q282.95 305.6 289.25 303.6 L298.05 300.65 Q301.85 299.7 303.5 297.55 L305.75 294.85 Q315.9 294.85 316.7 296.05 L317.1 297.4 Q317.5 298.2 319.35 298.75 L324.5 299.15 Q336.85 298.6 338.35 297.15 L339.15 295.65 Q339.65 294.7 341.55 293.9 L345.4 293.9 Q352.6 297.15 357.75 298.75 367.15 301.7 374.9 301.7 381.85 301.7 388.8 299.3 L393.5 297.55 Q395.85 296.85 397.5 296.85 L402.4 297.0 Q404.8 297.95 410.35 299.3 414.9 300.65 419.3 302.8 426.45 303.2 433.4 297.8 435.7 296.05 438.05 293.5 L440.8 290.4 Q442.1 290.8 445.2 292.3 L440.95 290.95 Q438.75 294.3 433.5 298.6 427.6 303.45 424.7 303.45 L418.9 303.45 Q414.8 301.7 410.0 300.35 405.45 299.15 401.9 297.55 397.75 297.8 389.8 300.35 382.15 302.65 380.35 302.65 367.65 302.65 357.05 299.55 352.35 298.2 344.9 294.7 L341.55 294.7 338.35 297.55 Q335.4 299.95 330.95 299.95 L318.6 299.55 Q318.05 299.3 316.35 297.0 315.15 295.4 311.8 295.4 L305.6 295.4 Q303.85 299.55 294.85 303.2 286.5 306.7 280.05 306.7 L277.8 306.7 Q277.4 306.7 277.4 306.15 277.4 305.9 277.9 305.2 L278.4 304.0 Q278.4 302.4 275.95 301.3 274.1 300.5 267.3 298.75 264.9 297.95 262.9 296.05 L259.4 292.95 253.3 292.7 252.65 296.85 Q252.25 299.55 250.5 300.65 L250.15 300.5 249.75 300.1 245.0 299.95 243.9 299.15 Q243.3 298.35 243.6 298.2 L243.6 297.95 241.2 298.35 Q238.95 298.35 238.85 297.95 238.8 297.8 239.2 297.4 236.35 297.4 234.6 296.2 232.7 295.25 229.0 295.25 219.55 295.25 217.15 297.15 215.95 298.2 216.65 299.15 216.65 300.35 215.3 301.45 213.45 302.8 209.45 303.2 L191.05 303.2 Q189.35 302.8 185.35 301.05 L181.65 299.55 Q170.95 299.55 163.9 302.1 161.7 302.8 157.45 305.35 L151.0 305.6 Q145.4 305.6 130.5 303.05 L115.5 300.35 Q115.1 300.65 113.8 303.6 112.85 306.15 108.95 307.35 104.75 308.85 99.2 306.55 M450.7 294.05 L451.65 294.3 Q455.55 294.85 455.3 295.8 460.7 298.9 463.6 299.55 466.35 300.35 467.05 301.05 L470.3 301.3 Q472.65 305.6 473.8 305.6 475.55 305.6 482.85 302.65 L492.75 298.75 494.5 298.9 Q492.6 299.3 483.55 302.8 475.3 305.9 474.1 305.9 472.05 305.9 471.0 304.0 L469.8 301.7 466.95 301.45 463.15 299.7 453.8 298.2 Q453.7 297.8 453.9 297.15 L454.2 296.2 Q454.2 295.25 450.7 294.05"/>
    </path>
  </g>
</svg>
