<?xml version="1.0" encoding="UTF-8" standalone="no"?>
<svg xmlns:xlink="http://www.w3.org/1999/xlink" height="44.5px" width="183.05px" xmlns="http://www.w3.org/2000/svg">
  <g transform="matrix(1.0, 0.0, 0.0, 1.0, 113.1, 10.65)">
    <path d="M-113.1 -6.25 L-113.1 33.85 45.95 33.85 51.9 26.6 Q59.25 26.4 64.5 21.15 69.95 15.7 69.95 8.0 69.95 0.25 64.5 -5.2 59.05 -10.65 51.3 -10.65 44.4 -10.65 39.3 -6.25 L-113.1 -6.25" fill="#e0cca6" fill-opacity="0.3019608" fill-rule="evenodd" stroke="none">
      <animate attributeName="fill" dur="2s" repeatCount="indefinite" values="#e0cca6;#e0cca7"/>
      <animate attributeName="fill-opacity" dur="2s" repeatCount="indefinite" values="0.3019608;0.0"/>
      <animate attributeName="d" dur="2s" repeatCount="indefinite" values="M-113.1 -6.25 L-113.1 33.85 45.95 33.85 51.9 26.6 Q59.25 26.4 64.5 21.15 69.95 15.7 69.95 8.0 69.95 0.25 64.5 -5.2 59.05 -10.65 51.3 -10.65 44.4 -10.65 39.3 -6.25 L-113.1 -6.25;M-113.1 -6.25 L-113.1 33.85 45.95 33.85 51.9 26.6 Q59.25 26.4 64.5 21.15 69.95 15.7 69.95 8.0 69.95 0.25 64.5 -5.2 59.05 -10.65 51.3 -10.65 44.4 -10.65 39.3 -6.25 L-113.1 -6.25"/>
    </path>
    <path d="M-113.1 -6.25 L39.3 -6.25 Q44.4 -10.65 51.3 -10.65 59.05 -10.65 64.5 -5.2 69.95 0.25 69.95 8.0 69.95 15.7 64.5 21.15 59.25 26.4 51.9 26.6 L45.95 33.85 -113.1 33.85 -113.1 -6.25" fill="none" stroke="#000000" stroke-linecap="round" stroke-linejoin="round" stroke-opacity="0.0" stroke-width="1.0">
      <animate attributeName="stroke" dur="2s" repeatCount="indefinite" values="#000000;#000001"/>
      <animate attributeName="stroke-width" dur="2s" repeatCount="indefinite" values="0.0;0.0"/>
      <animate attributeName="fill-opacity" dur="2s" repeatCount="indefinite" values="0.0;0.0"/>
      <animate attributeName="d" dur="2s" repeatCount="indefinite" values="M-113.1 -6.25 L39.3 -6.25 Q44.4 -10.65 51.3 -10.65 59.05 -10.65 64.5 -5.2 69.95 0.25 69.95 8.0 69.95 15.7 64.5 21.15 59.25 26.4 51.9 26.6 L45.95 33.85 -113.1 33.85 -113.1 -6.25;M-113.1 -6.25 L39.3 -6.25 Q44.4 -10.65 51.3 -10.65 59.05 -10.65 64.5 -5.2 69.95 0.25 69.95 8.0 69.95 15.7 64.5 21.15 59.25 26.4 51.9 26.6 L45.95 33.85 -113.1 33.85 -113.1 -6.25"/>
    </path>
  </g>
</svg>
