<?xml version="1.0" encoding="UTF-8" standalone="no"?>
<svg xmlns:xlink="http://www.w3.org/1999/xlink" height="71.05px" width="350.95px" xmlns="http://www.w3.org/2000/svg">
  <g transform="matrix(1.0, 0.0, 0.0, 1.0, 11.0, 2.0)">
    <path d="M-11.0 -2.0 L-11.0 69.05 278.35 69.05 279.3 68.0 280.2 66.9 282.05 64.8 284.35 62.15 286.2 60.05 288.45 57.4 290.3 55.3 292.4 52.85 294.25 50.75 296.5 48.1 298.4 46.0 300.65 43.35 302.5 41.25 304.6 38.8 306.45 36.7 308.85 33.85 310.75 31.75 312.95 29.15 314.8 27.05 317.05 24.4 318.95 22.3 321.2 19.65 323.05 17.55 325.15 15.1 327.0 13.0 329.25 10.35 331.1 8.25 333.35 5.6 335.2 3.5 336.4 2.15 339.95 -2.0 -11.0 -2.0" fill="#d90000" fill-opacity="0.0" fill-rule="evenodd" stroke="none">
      <animate attributeName="fill" dur="2s" repeatCount="indefinite" values="#d90000;#d90001"/>
      <animate attributeName="fill-opacity" dur="2s" repeatCount="indefinite" values="0.0;0.8"/>
      <animate attributeName="d" dur="2s" repeatCount="indefinite" values="M-11.0 -2.0 L-11.0 69.05 278.35 69.05 279.3 68.0 280.2 66.9 282.05 64.8 284.35 62.15 286.2 60.05 288.45 57.4 290.3 55.3 292.4 52.85 294.25 50.75 296.5 48.1 298.4 46.0 300.65 43.35 302.5 41.25 304.6 38.8 306.45 36.7 308.85 33.85 310.75 31.75 312.95 29.15 314.8 27.05 317.05 24.4 318.95 22.3 321.2 19.65 323.05 17.55 325.15 15.1 327.0 13.0 329.25 10.35 331.1 8.25 333.35 5.6 335.2 3.5 336.4 2.15 339.95 -2.0 -11.0 -2.0;M-11.0 -2.0 L-11.0 69.05 278.35 69.05 279.3 68.0 280.2 66.9 282.05 64.8 284.35 62.15 286.2 60.05 288.45 57.4 290.3 55.3 292.4 52.85 294.25 50.75 296.5 48.1 298.4 46.0 300.65 43.35 302.5 41.25 304.6 38.8 306.45 36.7 308.85 33.85 310.75 31.75 312.95 29.15 314.8 27.05 317.05 24.4 318.95 22.3 321.2 19.65 323.05 17.55 325.15 15.1 327.0 13.0 329.25 10.35 331.1 8.25 333.35 5.6 335.2 3.5 336.4 2.15 339.95 -2.0 -11.0 -2.0"/>
    </path>
    <path d="M-11.0 -2.0 L339.95 -2.0 336.4 2.15 335.2 3.5 333.35 5.6 331.1 8.25 329.25 10.35 327.0 13.0 325.15 15.1 323.05 17.55 321.2 19.65 318.95 22.3 317.05 24.4 314.8 27.05 312.95 29.15 310.75 31.75 308.85 33.85 306.45 36.7 304.6 38.8 302.5 41.25 300.65 43.35 298.4 46.0 296.5 48.1 294.25 50.75 292.4 52.85 290.3 55.3 288.45 57.4 286.2 60.05 284.35 62.15 282.05 64.8 280.2 66.9 279.3 68.0 278.35 69.05 -11.0 69.05 -11.0 -2.0" fill="none" stroke="#000000" stroke-linecap="round" stroke-linejoin="round" stroke-opacity="0.0" stroke-width="1.0">
      <animate attributeName="stroke" dur="2s" repeatCount="indefinite" values="#000000;#000001"/>
      <animate attributeName="stroke-width" dur="2s" repeatCount="indefinite" values="0.0;0.0"/>
      <animate attributeName="fill-opacity" dur="2s" repeatCount="indefinite" values="0.0;0.0"/>
      <animate attributeName="d" dur="2s" repeatCount="indefinite" values="M-11.0 -2.0 L339.95 -2.0 336.4 2.15 335.2 3.5 333.35 5.6 331.1 8.25 329.25 10.35 327.0 13.0 325.15 15.1 323.05 17.55 321.2 19.65 318.95 22.3 317.05 24.4 314.8 27.05 312.95 29.15 310.75 31.75 308.85 33.85 306.45 36.7 304.6 38.8 302.5 41.25 300.65 43.35 298.4 46.0 296.5 48.1 294.25 50.75 292.4 52.85 290.3 55.3 288.45 57.4 286.2 60.05 284.35 62.15 282.05 64.8 280.2 66.9 279.3 68.0 278.35 69.05 -11.0 69.05 -11.0 -2.0;M-11.0 -2.0 L339.95 -2.0 336.4 2.15 335.2 3.5 333.35 5.6 331.1 8.25 329.25 10.35 327.0 13.0 325.15 15.1 323.05 17.55 321.2 19.65 318.95 22.3 317.05 24.4 314.8 27.05 312.95 29.15 310.75 31.75 308.85 33.85 306.45 36.7 304.6 38.8 302.5 41.25 300.65 43.35 298.4 46.0 296.5 48.1 294.25 50.75 292.4 52.85 290.3 55.3 288.45 57.4 286.2 60.05 284.35 62.15 282.05 64.8 280.2 66.9 279.3 68.0 278.35 69.05 -11.0 69.05 -11.0 -2.0"/>
    </path>
  </g>
</svg>
