<?xml version="1.0" encoding="UTF-8" standalone="no"?>
<svg xmlns:xlink="http://www.w3.org/1999/xlink" height="4.85px" width="4.65px" xmlns="http://www.w3.org/2000/svg">
  <g transform="matrix(1.0, 0.0, 0.0, 1.0, 0.15, -0.15)">
    <path d="M2.95 1.45 L3.2 1.7 3.3 1.85 2.0 3.3 1.65 2.95 2.95 1.45" fill="#4f4f4f" fill-rule="evenodd" stroke="none"/>
    <path d="M4.05 4.25 L3.8 4.45 Q3.15 5.1 2.2 5.0 1.2 4.85 0.5 4.0 -0.15 3.25 -0.15 2.25 -0.15 1.25 0.5 0.6 0.0 1.2 0.0 2.1 0.0 3.1 0.65 3.85 1.35 4.7 2.35 4.85 3.3 4.95 3.95 4.3 L4.05 4.25 M1.7 1.4 L1.8 1.2 2.65 1.0 Q3.15 1.05 3.45 1.45 3.8 1.85 3.8 2.35 3.8 2.85 3.45 3.15 L3.35 3.25 3.55 2.6 3.3 1.85 3.2 1.7 2.95 1.45 2.4 1.25 1.7 1.4" fill="#252525" fill-rule="evenodd" stroke="none"/>
    <path d="M3.35 3.25 L3.45 3.15 Q3.8 2.85 3.8 2.35 3.8 1.85 3.45 1.45 3.15 1.05 2.65 1.0 L1.8 1.2 1.7 1.4 1.55 1.45 Q1.25 1.8 1.25 2.3 L1.5 3.1 1.65 2.95 2.0 3.3 1.9 3.45 2.4 3.65 Q2.9 3.7 3.2 3.4 L3.35 3.25 M3.6 1.35 Q4.05 1.9 4.05 2.55 4.05 3.15 3.6 3.55 L2.55 3.9 1.8 3.6 1.45 3.25 1.4 3.2 Q1.05 2.7 1.05 2.1 1.05 1.45 1.45 1.05 1.9 0.7 2.55 0.8 3.2 0.85 3.6 1.35" fill="#3c3c3c" fill-rule="evenodd" stroke="none"/>
    <path d="M1.7 1.4 L2.4 1.25 2.95 1.45 1.65 2.95 1.5 3.1 1.25 2.3 Q1.25 1.8 1.55 1.45 L1.7 1.4 M3.3 1.85 L3.55 2.6 3.35 3.25 3.2 3.4 Q2.9 3.7 2.4 3.65 L1.9 3.45 2.0 3.3 3.3 1.85" fill="#696969" fill-rule="evenodd" stroke="none"/>
    <path d="M0.5 0.6 L0.55 0.6 Q1.25 0.05 2.2 0.2 3.15 0.3 3.8 1.05 4.5 1.9 4.5 2.9 L4.05 4.25 3.95 4.3 Q3.3 4.95 2.35 4.85 1.35 4.7 0.65 3.85 0.0 3.1 0.0 2.1 0.0 1.2 0.5 0.6 M3.6 1.35 Q3.2 0.85 2.55 0.8 1.9 0.7 1.45 1.05 1.05 1.45 1.05 2.1 1.05 2.7 1.4 3.2 L1.45 3.25 1.8 3.6 2.55 3.9 3.6 3.55 Q4.05 3.15 4.05 2.55 4.05 1.9 3.6 1.35" fill="url(#gradient0)" fill-rule="evenodd" stroke="none"/>
  </g>
  <defs>
    <radialGradient cx="0" cy="0" gradientTransform="matrix(0.006, 0.0, 0.0, 0.006, 2.05, 4.0)" gradientUnits="userSpaceOnUse" id="gradient0" r="819.2" spreadMethod="pad">
      <stop offset="0.2823529411764706" stop-color="#626262"/>
      <stop offset="0.5686274509803921" stop-color="#373c3f"/>
    </radialGradient>
  </defs>
</svg>
