<?xml version="1.0" encoding="UTF-8" standalone="no"?>
<svg xmlns:xlink="http://www.w3.org/1999/xlink" height="192.85px" width="167.0px" xmlns="http://www.w3.org/2000/svg">
  <g transform="matrix(1.0, 0.0, 0.0, 1.0, 83.75, 103.4)">
    <path d="M0.15 -90.2 L-72.4 -48.65 -72.4 34.65 0.15 75.9 71.9 34.65 71.9 -48.65 0.15 -90.2 M-83.75 -55.2 L-0.25 -103.4 83.25 -55.2 83.25 41.2 -0.25 89.45 -83.75 41.2 -83.75 -55.2" fill="url(#gradient0)" fill-rule="evenodd" stroke="none"/>
    <path d="M0.15 -90.2 L-72.4 -48.65 -72.4 34.65 0.15 75.9 71.9 34.65 71.9 -48.65 0.15 -90.2 M-83.75 41.2 L-83.75 -55.2 -0.25 -103.4 83.25 -55.2 83.25 41.2 -0.25 89.45 -83.75 41.2 M-0.25 -101.1 L-81.75 -54.05 -81.75 40.05 -0.25 87.1 81.25 40.05 81.25 -54.05 -0.25 -101.1 M-74.4 35.8 L-74.4 -49.8 0.15 -92.5 73.9 -49.8 73.9 35.8 0.15 78.2 -74.4 35.8" fill="url(#gradient1)" fill-rule="evenodd" stroke="none"/>
  </g>
  <defs>
    <linearGradient gradientTransform="matrix(-0.1006, 0.0, 0.0, 0.1006, 0.85, -7.0)" gradientUnits="userSpaceOnUse" id="gradient0" spreadMethod="pad" x1="-819.2" x2="819.2">
      <stop offset="0.00392156862745098" stop-color="#543800"/>
      <stop offset="0.17647058823529413" stop-color="#e9ca00"/>
      <stop offset="0.43529411764705883" stop-color="#6a4a00"/>
      <stop offset="0.44313725490196076" stop-color="#836300"/>
      <stop offset="0.4627450980392157" stop-color="#af8f00"/>
      <stop offset="0.47843137254901963" stop-color="#ceaf00"/>
      <stop offset="0.49019607843137253" stop-color="#e2c300"/>
      <stop offset="0.5019607843137255" stop-color="#e9ca00"/>
      <stop offset="0.6274509803921569" stop-color="#feffbf"/>
      <stop offset="0.7607843137254902" stop-color="#e9ca00"/>
      <stop offset="0.984313725490196" stop-color="#6a4700"/>
    </linearGradient>
    <linearGradient gradientTransform="matrix(0.1019, 0.0, 0.0, -0.1019, -0.25, -7.0)" gradientUnits="userSpaceOnUse" id="gradient1" spreadMethod="pad" x1="-819.2" x2="819.2">
      <stop offset="0.07450980392156863" stop-color="#543800"/>
      <stop offset="0.17647058823529413" stop-color="#e9ca00"/>
      <stop offset="0.43529411764705883" stop-color="#6a4a00"/>
      <stop offset="0.4588235294117647" stop-color="#836300"/>
      <stop offset="0.5058823529411764" stop-color="#af8f00"/>
      <stop offset="0.5490196078431373" stop-color="#ceaf00"/>
      <stop offset="0.5843137254901961" stop-color="#e2c300"/>
      <stop offset="0.6078431372549019" stop-color="#e9ca00"/>
      <stop offset="0.6431372549019608" stop-color="#e9ca00"/>
      <stop offset="0.8196078431372549" stop-color="#fff87f"/>
      <stop offset="0.8784313725490196" stop-color="#e9ca00"/>
      <stop offset="0.984313725490196" stop-color="#6a4700"/>
    </linearGradient>
  </defs>
</svg>
