<?xml version="1.0" encoding="UTF-8" standalone="no"?>
<svg xmlns:xlink="http://www.w3.org/1999/xlink" height="249.65px" width="253.65px" xmlns="http://www.w3.org/2000/svg">
  <g transform="matrix(1.0, 0.0, 0.0, 1.0, 127.25, 122.3)">
    <path d="M-65.65 30.9 L-86.6 30.9 -86.6 56.75 -113.45 56.75 -113.45 79.75 -87.6 79.75 -87.6 98.1 -64.6 98.1 -64.6 79.75 -38.75 79.75 -38.75 56.75 -65.65 56.75 -65.65 30.9 M-73.6 -20.5 L-72.25 -30.9 -81.95 -25.3 -81.95 9.1 -75.8 5.6 -73.6 6.85 -73.6 -20.5 M86.7 30.9 L65.7 30.9 65.7 56.75 38.9 56.75 38.9 79.75 64.75 79.75 64.75 105.6 87.75 105.6 87.75 79.75 113.6 79.75 113.6 56.75 86.7 56.75 86.7 30.9 M70.7 -18.75 L51.15 -30.6 51.15 -26.1 0.3 3.05 -51.05 -25.6 -51.05 -30.2 -70.6 -18.75 -70.6 7.35 -25.95 33.15 -25.95 74.85 0.45 89.85 26.1 75.1 26.1 40.8 70.7 5.9 70.7 -18.75 M82.05 -25.3 L71.5 -34.25 73.7 13.55 76.55 11.9 82.05 13.05 82.05 -25.3 M-10.5 -93.35 L-10.5 -67.5 -37.35 -67.5 -37.35 -44.5 -11.5 -44.5 -11.5 -25.4 11.5 -25.4 11.5 -44.5 37.35 -44.5 37.35 -67.5 10.45 -67.5 10.45 -93.35 -10.5 -93.35 M-50.1 -60.95 L-50.1 -93.45 0.3 -122.3 50.15 -93.45 50.15 -61.0 85.05 -40.85 86.65 7.35 126.4 40.8 126.4 98.7 76.55 127.35 31.75 101.9 0.05 120.2 -31.55 101.9 -75.8 127.35 -127.25 98.2 -127.25 32.0 -84.95 8.85 -84.95 -40.85 -50.1 -60.95" fill="#23140c" fill-rule="evenodd" stroke="none"/>
  </g>
</svg>
