<?xml version="1.0" encoding="UTF-8" standalone="no"?>
<svg xmlns:xlink="http://www.w3.org/1999/xlink" height="241.9px" width="254.65px" xmlns="http://www.w3.org/2000/svg">
  <g transform="matrix(1.0, 0.0, 0.0, 1.0, 127.25, 128.45)">
    <path d="M28.7 85.15 L26.1 83.7 26.1 76.9 0.45 91.65 -25.95 76.65 -25.95 83.7 -28.55 85.2 0.05 101.7 Q14.4 93.45 28.7 85.15 M-87.6 15.9 L-87.6 41.75 -113.45 41.75 -113.45 64.75 -87.6 64.75 -87.6 90.6 -64.6 90.6 -64.6 64.75 -38.75 64.75 -38.75 41.75 -64.6 41.75 -64.6 15.9 -87.6 15.9 M-73.6 -35.5 L-50.1 -48.95 -50.1 -58.7 -81.95 -40.3 -81.95 0.45 -75.8 -3.1 -73.6 -1.8 -73.6 -35.5 M64.75 15.9 L64.75 41.75 38.9 41.75 38.9 64.75 64.75 64.75 64.75 90.6 87.75 90.6 87.75 64.75 113.6 64.75 113.6 41.75 87.75 41.75 87.75 15.9 64.75 15.9 M70.7 -33.75 L50.15 -45.65 50.15 -40.6 0.3 -11.95 -50.1 -40.6 -50.1 -45.5 -70.6 -33.75 -70.6 -0.05 -25.95 25.8 -25.95 73.2 0.45 88.15 26.1 73.4 26.1 25.8 70.7 0.25 70.7 -33.75 M50.15 -49.15 L73.7 -35.5 73.7 -1.45 76.55 -3.1 82.05 0.1 82.05 -40.3 50.15 -58.75 50.15 -49.15 M-37.35 -82.5 L-37.35 -59.5 -11.5 -59.5 -11.5 -33.65 11.5 -33.65 11.5 -59.5 37.35 -59.5 37.35 -82.5 11.5 -82.5 11.5 -108.35 -11.5 -108.35 -11.5 -82.5 -37.35 -82.5 M-50.1 -62.15 L-50.1 -98.45 0.3 -127.35 50.15 -98.45 50.15 -62.2 85.05 -42.05 85.05 1.85 126.4 25.8 126.4 83.7 76.55 112.35 31.75 86.9 0.05 105.2 -31.55 86.9 -75.8 112.35 -126.25 83.7 -126.25 25.8 -84.95 2.15 -84.95 -42.05 -50.1 -62.15" fill="url(#gradient0)" fill-rule="evenodd" stroke="none"/>
    <path d="M-50.1 -62.15 L-84.95 -42.05 -84.95 2.15 -126.25 25.8 -126.25 83.7 -75.8 112.35 -31.55 86.9 0.05 105.2 31.75 86.9 76.55 112.35 126.4 83.7 126.4 25.8 85.05 1.85 85.05 -42.05 50.15 -62.2 50.15 -98.45 0.3 -127.35 -50.1 -98.45 -50.1 -62.15 M-37.35 -82.5 L-11.5 -82.5 -11.5 -108.35 11.5 -108.35 11.5 -82.5 37.35 -82.5 37.35 -59.5 11.5 -59.5 11.5 -33.65 -11.5 -33.65 -11.5 -59.5 -37.35 -59.5 -37.35 -82.5 M50.15 -49.15 L50.15 -58.75 82.05 -40.3 82.05 0.1 76.55 -3.1 73.7 -1.45 73.7 -35.5 50.15 -49.15 M70.7 -33.75 L70.7 0.25 26.1 25.8 26.1 73.4 0.45 88.15 -25.95 73.2 -25.95 25.8 -70.6 -0.05 -70.6 -33.75 -50.1 -45.5 -50.1 -40.6 0.3 -11.95 50.15 -40.6 50.15 -45.65 70.7 -33.75 M64.75 15.9 L87.75 15.9 87.75 41.75 113.6 41.75 113.6 64.75 87.75 64.75 87.75 90.6 64.75 90.6 64.75 64.75 38.9 64.75 38.9 41.75 64.75 41.75 64.75 15.9 M-73.6 -35.5 L-73.6 -1.8 -75.8 -3.1 -81.95 0.45 -81.95 -40.3 -50.1 -58.7 -50.1 -48.95 -73.6 -35.5 M-87.6 15.9 L-64.6 15.9 -64.6 41.75 -38.75 41.75 -38.75 64.75 -64.6 64.75 -64.6 90.6 -87.6 90.6 -87.6 64.75 -113.45 64.75 -113.45 41.75 -87.6 41.75 -87.6 15.9 M28.7 85.15 Q14.4 93.45 0.05 101.7 L-28.55 85.2 -25.95 83.7 -25.95 76.65 0.45 91.65 26.1 76.9 26.1 83.7 28.7 85.15" fill="none" stroke="url(#gradient1)" stroke-linecap="butt" stroke-linejoin="miter" stroke-width="2.0"/>
  </g>
  <defs>
    <linearGradient gradientTransform="matrix(0.0, -0.1482, -0.1482, 0.0, 0.1, -13.0)" gradientUnits="userSpaceOnUse" id="gradient0" spreadMethod="pad" x1="-819.2" x2="819.2">
      <stop offset="0.07450980392156863" stop-color="#543800"/>
      <stop offset="0.17647058823529413" stop-color="#e9ca00"/>
      <stop offset="0.43529411764705883" stop-color="#6a4a00"/>
      <stop offset="0.4588235294117647" stop-color="#836300"/>
      <stop offset="0.5058823529411764" stop-color="#af8f00"/>
      <stop offset="0.5490196078431373" stop-color="#ceaf00"/>
      <stop offset="0.5843137254901961" stop-color="#e2c300"/>
      <stop offset="0.6078431372549019" stop-color="#e9ca00"/>
      <stop offset="0.6431372549019608" stop-color="#e9ca00"/>
      <stop offset="0.8196078431372549" stop-color="#fff87f"/>
      <stop offset="0.8784313725490196" stop-color="#e9ca00"/>
      <stop offset="0.984313725490196" stop-color="#6a4700"/>
    </linearGradient>
    <linearGradient gradientTransform="matrix(0.1554, 0.0, 0.0, -0.1554, 0.1, -7.5)" gradientUnits="userSpaceOnUse" id="gradient1" spreadMethod="pad" x1="-819.2" x2="819.2">
      <stop offset="0.07450980392156863" stop-color="#543800"/>
      <stop offset="0.17647058823529413" stop-color="#e9ca00"/>
      <stop offset="0.43529411764705883" stop-color="#6a4a00"/>
      <stop offset="0.4588235294117647" stop-color="#836300"/>
      <stop offset="0.5058823529411764" stop-color="#af8f00"/>
      <stop offset="0.5490196078431373" stop-color="#ceaf00"/>
      <stop offset="0.5843137254901961" stop-color="#e2c300"/>
      <stop offset="0.6078431372549019" stop-color="#e9ca00"/>
      <stop offset="0.6431372549019608" stop-color="#e9ca00"/>
      <stop offset="0.8196078431372549" stop-color="#fff87f"/>
      <stop offset="0.8784313725490196" stop-color="#e9ca00"/>
      <stop offset="0.984313725490196" stop-color="#6a4700"/>
    </linearGradient>
  </defs>
</svg>
