<?xml version="1.0" encoding="UTF-8" standalone="no"?>
<svg xmlns:xlink="http://www.w3.org/1999/xlink" height="207.05px" width="161.4px" xmlns="http://www.w3.org/2000/svg">
  <g transform="matrix(1.0, 0.0, 0.0, 1.0, 92.2, 86.8)">
    <path d="M69.2 34.5 L-0.85 74.95 -70.9 34.5 -70.9 -46.35 -0.85 -86.8 69.2 -46.35 69.2 34.5 M57.55 -39.65 L-0.85 -73.35 -59.25 -39.65 -59.25 27.8 -0.85 61.5 57.55 27.8 57.55 -39.65" fill="url(#gradient0)" fill-rule="evenodd" stroke="none"/>
    <path d="M57.55 27.8 L57.55 -39.65 -0.85 -73.35 -59.25 -39.65 -59.25 27.8 -0.85 61.5 57.55 27.8 M69.2 -46.35 L69.2 34.5 -0.85 74.95 -70.9 34.5 -70.9 -46.35 -0.85 -86.8 69.2 -46.35 M67.2 33.35 L67.2 -45.2 -0.85 -84.5 -68.9 -45.2 -68.9 33.35 -0.85 72.65 67.2 33.35 M59.55 -40.8 L59.55 28.95 -0.85 63.8 -61.25 28.95 -61.25 -40.8 -0.85 -75.65 59.55 -40.8" fill="url(#gradient1)" fill-rule="evenodd" stroke="none"/>
    <path d="M-36.7 19.1 L-36.7 -2.95 -11.9 -2.95 -11.9 -27.8 10.2 -27.8 10.2 -2.95 35.05 -2.95 35.05 19.1 10.2 19.1 10.2 43.95 -11.9 43.95 -11.9 19.1 -36.7 19.1" fill="#23140c" fill-rule="evenodd" stroke="none"/>
    <path d="M-10.85 43.95 L-11.85 43.95 -11.85 28.45 -10.85 28.95 -10.85 43.95" fill="url(#gradient2)" fill-rule="evenodd" stroke="none"/>
    <path d="M10.2 43.95 L9.2 43.95 9.2 28.45 10.2 28.95 10.2 43.95" fill="url(#gradient3)" fill-rule="evenodd" stroke="none"/>
    <path d="M-35.7 19.1 L-36.7 19.1 -36.7 3.6 -35.7 4.05 -35.7 19.1" fill="url(#gradient4)" fill-rule="evenodd" stroke="none"/>
    <path d="M35.05 19.1 L34.05 19.1 34.05 3.6 35.05 4.05 35.05 19.1" fill="url(#gradient5)" fill-rule="evenodd" stroke="none"/>
    <path d="M-36.7 5.1 L-36.7 -16.95 -11.9 -16.95 -11.9 -41.8 10.2 -41.8 10.2 -16.95 35.05 -16.95 35.05 5.1 10.2 5.1 10.2 29.95 -11.9 29.95 -11.9 5.1 -36.7 5.1" fill="url(#gradient6)" fill-rule="evenodd" stroke="none"/>
    <path d="M-36.7 5.1 L-36.7 -16.95 -11.9 -16.95 -11.9 -41.8 10.2 -41.8 10.2 -16.95 35.05 -16.95 35.05 5.1 10.2 5.1 10.2 29.95 -11.9 29.95 -11.9 5.1 -36.7 5.1 M-34.7 -14.95 L-34.7 3.1 -9.9 3.1 -9.9 27.95 8.2 27.95 8.2 3.1 33.05 3.1 33.05 -14.95 8.2 -14.95 8.2 -39.8 -9.9 -39.8 -9.9 -14.95 -34.7 -14.95" fill="url(#gradient7)" fill-rule="evenodd" stroke="none"/>
    <path d="M-22.55 120.25 L-92.2 80.45 -92.2 66.45 -79.65 58.45 -10.0 84.25 -10.0 98.25 -22.55 120.25" fill="#23140c" fill-rule="evenodd" stroke="none"/>
  </g>
  <defs>
    <linearGradient gradientTransform="matrix(0.0, -0.1451, -0.1451, 0.0, -0.85, -9.2)" gradientUnits="userSpaceOnUse" id="gradient0" spreadMethod="pad" x1="-819.2" x2="819.2">
      <stop offset="0.00392156862745098" stop-color="#543800"/>
      <stop offset="0.17647058823529413" stop-color="#e9ca00"/>
      <stop offset="0.43529411764705883" stop-color="#6a4a00"/>
      <stop offset="0.44313725490196076" stop-color="#836300"/>
      <stop offset="0.4627450980392157" stop-color="#af8f00"/>
      <stop offset="0.47843137254901963" stop-color="#ceaf00"/>
      <stop offset="0.49019607843137253" stop-color="#e2c300"/>
      <stop offset="0.5019607843137255" stop-color="#e9ca00"/>
      <stop offset="0.6274509803921569" stop-color="#feffbf"/>
      <stop offset="0.7607843137254902" stop-color="#e9ca00"/>
      <stop offset="0.984313725490196" stop-color="#6a4700"/>
    </linearGradient>
    <linearGradient gradientTransform="matrix(0.0855, 0.0, 0.0, -0.0855, -0.85, -5.95)" gradientUnits="userSpaceOnUse" id="gradient1" spreadMethod="pad" x1="-819.2" x2="819.2">
      <stop offset="0.07450980392156863" stop-color="#543800"/>
      <stop offset="0.17647058823529413" stop-color="#e9ca00"/>
      <stop offset="0.43529411764705883" stop-color="#6a4a00"/>
      <stop offset="0.4588235294117647" stop-color="#836300"/>
      <stop offset="0.5058823529411764" stop-color="#af8f00"/>
      <stop offset="0.5490196078431373" stop-color="#ceaf00"/>
      <stop offset="0.5843137254901961" stop-color="#e2c300"/>
      <stop offset="0.6078431372549019" stop-color="#e9ca00"/>
      <stop offset="0.6431372549019608" stop-color="#e9ca00"/>
      <stop offset="0.8196078431372549" stop-color="#fff87f"/>
      <stop offset="0.8784313725490196" stop-color="#e9ca00"/>
      <stop offset="0.984313725490196" stop-color="#6a4700"/>
    </linearGradient>
    <linearGradient gradientTransform="matrix(0.0, -0.0094, -0.0094, 0.0, -11.35, 36.2)" gradientUnits="userSpaceOnUse" id="gradient2" spreadMethod="pad" x1="-819.2" x2="819.2">
      <stop offset="0.0" stop-color="#1e120b" stop-opacity="0.0"/>
      <stop offset="0.01568627450980392" stop-color="#23150d" stop-opacity="0.019607844"/>
      <stop offset="0.2235294117647059" stop-color="#653e22" stop-opacity="0.3137255"/>
      <stop offset="0.4196078431372549" stop-color="#9c5f34" stop-opacity="0.5568628"/>
      <stop offset="0.6039215686274509" stop-color="#c77a42" stop-opacity="0.7490196"/>
      <stop offset="0.7647058823529411" stop-color="#e68c4c" stop-opacity="0.8862745"/>
      <stop offset="0.9019607843137255" stop-color="#f89852" stop-opacity="0.96862745"/>
      <stop offset="1.0" stop-color="#ff9c54"/>
    </linearGradient>
    <linearGradient gradientTransform="matrix(0.0, -0.0094, -0.0094, 0.0, 9.7, 36.2)" gradientUnits="userSpaceOnUse" id="gradient3" spreadMethod="pad" x1="-819.2" x2="819.2">
      <stop offset="0.0" stop-color="#1e120b" stop-opacity="0.0"/>
      <stop offset="0.01568627450980392" stop-color="#23150d" stop-opacity="0.019607844"/>
      <stop offset="0.2235294117647059" stop-color="#653e22" stop-opacity="0.3137255"/>
      <stop offset="0.4196078431372549" stop-color="#9c5f34" stop-opacity="0.5568628"/>
      <stop offset="0.6039215686274509" stop-color="#c77a42" stop-opacity="0.7490196"/>
      <stop offset="0.7647058823529411" stop-color="#e68c4c" stop-opacity="0.8862745"/>
      <stop offset="0.9019607843137255" stop-color="#f89852" stop-opacity="0.96862745"/>
      <stop offset="1.0" stop-color="#ff9c54"/>
    </linearGradient>
    <linearGradient gradientTransform="matrix(0.0, -0.0094, -0.0094, 0.0, -36.2, 11.35)" gradientUnits="userSpaceOnUse" id="gradient4" spreadMethod="pad" x1="-819.2" x2="819.2">
      <stop offset="0.0" stop-color="#1e120b" stop-opacity="0.0"/>
      <stop offset="0.01568627450980392" stop-color="#23150d" stop-opacity="0.019607844"/>
      <stop offset="0.2235294117647059" stop-color="#653e22" stop-opacity="0.3137255"/>
      <stop offset="0.4196078431372549" stop-color="#9c5f34" stop-opacity="0.5568628"/>
      <stop offset="0.6039215686274509" stop-color="#c77a42" stop-opacity="0.7490196"/>
      <stop offset="0.7647058823529411" stop-color="#e68c4c" stop-opacity="0.8862745"/>
      <stop offset="0.9019607843137255" stop-color="#f89852" stop-opacity="0.96862745"/>
      <stop offset="1.0" stop-color="#ff9c54"/>
    </linearGradient>
    <linearGradient gradientTransform="matrix(0.0, -0.0094, -0.0094, 0.0, 34.55, 11.35)" gradientUnits="userSpaceOnUse" id="gradient5" spreadMethod="pad" x1="-819.2" x2="819.2">
      <stop offset="0.0" stop-color="#1e120b" stop-opacity="0.0"/>
      <stop offset="0.01568627450980392" stop-color="#23150d" stop-opacity="0.019607844"/>
      <stop offset="0.2235294117647059" stop-color="#653e22" stop-opacity="0.3137255"/>
      <stop offset="0.4196078431372549" stop-color="#9c5f34" stop-opacity="0.5568628"/>
      <stop offset="0.6039215686274509" stop-color="#c77a42" stop-opacity="0.7490196"/>
      <stop offset="0.7647058823529411" stop-color="#e68c4c" stop-opacity="0.8862745"/>
      <stop offset="0.9019607843137255" stop-color="#f89852" stop-opacity="0.96862745"/>
      <stop offset="1.0" stop-color="#ff9c54"/>
    </linearGradient>
    <linearGradient gradientTransform="matrix(0.0, -0.1451, -0.1451, 0.0, -0.85, -9.2)" gradientUnits="userSpaceOnUse" id="gradient6" spreadMethod="pad" x1="-819.2" x2="819.2">
      <stop offset="0.00392156862745098" stop-color="#543800"/>
      <stop offset="0.17647058823529413" stop-color="#e9ca00"/>
      <stop offset="0.43529411764705883" stop-color="#6a4a00"/>
      <stop offset="0.44313725490196076" stop-color="#836300"/>
      <stop offset="0.4627450980392157" stop-color="#af8f00"/>
      <stop offset="0.47843137254901963" stop-color="#ceaf00"/>
      <stop offset="0.49019607843137253" stop-color="#e2c300"/>
      <stop offset="0.5019607843137255" stop-color="#e9ca00"/>
      <stop offset="0.6274509803921569" stop-color="#feffbf"/>
      <stop offset="0.7607843137254902" stop-color="#e9ca00"/>
      <stop offset="0.984313725490196" stop-color="#6a4700"/>
    </linearGradient>
    <linearGradient gradientTransform="matrix(0.0438, 0.0, 0.0, -0.0438, -0.85, -5.95)" gradientUnits="userSpaceOnUse" id="gradient7" spreadMethod="pad" x1="-819.2" x2="819.2">
      <stop offset="0.07450980392156863" stop-color="#543800"/>
      <stop offset="0.17647058823529413" stop-color="#e9ca00"/>
      <stop offset="0.43529411764705883" stop-color="#6a4a00"/>
      <stop offset="0.4588235294117647" stop-color="#836300"/>
      <stop offset="0.5058823529411764" stop-color="#af8f00"/>
      <stop offset="0.5490196078431373" stop-color="#ceaf00"/>
      <stop offset="0.5843137254901961" stop-color="#e2c300"/>
      <stop offset="0.6078431372549019" stop-color="#e9ca00"/>
      <stop offset="0.6431372549019608" stop-color="#e9ca00"/>
      <stop offset="0.8196078431372549" stop-color="#fff87f"/>
      <stop offset="0.8784313725490196" stop-color="#e9ca00"/>
      <stop offset="0.984313725490196" stop-color="#6a4700"/>
    </linearGradient>
  </defs>
</svg>
