<?xml version="1.0" encoding="UTF-8" standalone="no"?>
<svg xmlns:xlink="http://www.w3.org/1999/xlink" height="146.55px" width="137.1px" xmlns="http://www.w3.org/2000/svg">
  <g transform="matrix(1.0, 0.0, 0.0, 1.0, 147.1, 40.3)">
    <path d="M-22.55 106.25 L-92.2 66.45 -79.65 44.45 -10.0 84.25 -22.55 106.25" fill="url(#gradient0)" fill-rule="evenodd" stroke="none"/>
    <path d="M-10.0 84.25 L-22.55 106.25 -92.2 66.45 -79.65 44.45 -10.0 84.25 M-23.3 103.55 L-12.7 85.0 -78.9 47.15 -89.5 65.7 -23.3 103.55" fill="url(#gradient1)" fill-rule="evenodd" stroke="none"/>
    <path d="M-127.4 -0.9 L-113.7 -8.8 -100.0 -0.9 -100.0 14.9 -113.7 22.85 -127.4 14.9 -127.4 -0.9" fill="#23140c" fill-rule="evenodd" stroke="none"/>
    <path d="M-147.1 -21.05 L-113.7 -40.3 -80.35 -21.05 -80.35 26.25 -113.7 45.55 -147.1 26.25 -147.1 -21.05 M-138.35 12.6 L-113.7 26.85 -89.1 12.6 -89.1 -7.2 -113.7 -21.45 -138.35 -7.2 -138.35 12.6" fill="#23140c" fill-rule="evenodd" stroke="none"/>
  </g>
  <defs>
    <linearGradient gradientTransform="matrix(0.0, -0.1451, -0.1451, 0.0, -51.1, -9.2)" gradientUnits="userSpaceOnUse" id="gradient0" spreadMethod="pad" x1="-819.2" x2="819.2">
      <stop offset="0.00392156862745098" stop-color="#543800"/>
      <stop offset="0.17647058823529413" stop-color="#e9ca00"/>
      <stop offset="0.43529411764705883" stop-color="#6a4a00"/>
      <stop offset="0.44313725490196076" stop-color="#836300"/>
      <stop offset="0.4627450980392157" stop-color="#af8f00"/>
      <stop offset="0.47843137254901963" stop-color="#ceaf00"/>
      <stop offset="0.49019607843137253" stop-color="#e2c300"/>
      <stop offset="0.5019607843137255" stop-color="#e9ca00"/>
      <stop offset="0.6274509803921569" stop-color="#feffbf"/>
      <stop offset="0.7607843137254902" stop-color="#e9ca00"/>
      <stop offset="0.984313725490196" stop-color="#6a4700"/>
    </linearGradient>
    <linearGradient gradientTransform="matrix(0.0502, 0.0, 0.0, -0.0502, -51.1, 75.35)" gradientUnits="userSpaceOnUse" id="gradient1" spreadMethod="pad" x1="-819.2" x2="819.2">
      <stop offset="0.07450980392156863" stop-color="#543800"/>
      <stop offset="0.17647058823529413" stop-color="#e9ca00"/>
      <stop offset="0.43529411764705883" stop-color="#6a4a00"/>
      <stop offset="0.4588235294117647" stop-color="#836300"/>
      <stop offset="0.5058823529411764" stop-color="#af8f00"/>
      <stop offset="0.5490196078431373" stop-color="#ceaf00"/>
      <stop offset="0.5843137254901961" stop-color="#e2c300"/>
      <stop offset="0.6078431372549019" stop-color="#e9ca00"/>
      <stop offset="0.6431372549019608" stop-color="#e9ca00"/>
      <stop offset="0.8196078431372549" stop-color="#fff87f"/>
      <stop offset="0.8784313725490196" stop-color="#e9ca00"/>
      <stop offset="0.984313725490196" stop-color="#6a4700"/>
    </linearGradient>
  </defs>
</svg>
