<?xml version="1.0" encoding="UTF-8" standalone="no"?>
<svg xmlns:xlink="http://www.w3.org/1999/xlink" height="203.1px" width="413.75px" xmlns="http://www.w3.org/2000/svg">
  <g transform="matrix(1.0, 0.0, 0.0, 1.0, 206.85, 94.55)">
    <path d="M0.35 54.1 L-40.0 30.8 -40.0 -27.4 0.35 -50.7 40.7 -27.4 40.7 30.8 0.35 54.1 M0.35 -33.7 L-35.35 -13.1 -35.35 17.15 0.35 37.75 36.05 17.15 36.05 -13.1 0.35 -33.7" fill="#23140c" fill-rule="evenodd" stroke="none"/>
    <path d="M45.3 21.95 L45.3 -18.45 0.35 -44.4 -44.6 -18.45 -44.6 21.95 0.35 47.9 45.3 21.95 M-79.2 -46.6 Q-67.5 -46.65 -65.55 -43.1 -64.8 -41.7 -65.05 -39.15 L-65.7 -34.25 Q-65.75 -33.4 -64.05 -30.0 L-61.65 -25.85 -49.25 -20.1 -49.25 -32.5 -7.25 -56.75 -7.25 -62.25 0.0 -94.55 7.95 -73.65 7.95 -56.75 49.95 -32.5 49.95 -20.4 61.7 -25.85 Q62.55 -26.9 64.1 -30.0 65.8 -33.4 65.7 -34.25 L65.05 -39.15 Q64.8 -41.7 65.55 -43.1 67.5 -46.65 79.2 -46.6 L139.25 -51.65 Q190.1 -56.45 206.9 -55.7 L206.9 -41.7 Q201.4 -32.3 182.35 -28.95 L182.35 -25.0 Q177.5 -17.5 161.4 -15.55 L161.4 -12.55 Q155.85 -5.75 140.55 -5.35 L140.55 -2.2 Q135.35 2.95 123.5 2.45 L123.5 8.55 Q114.45 15.6 91.8 7.1 L91.8 11.8 Q85.95 15.4 73.9 8.4 L73.9 11.6 Q68.75 13.65 61.0 7.7 55.75 3.7 49.95 -3.4 L49.95 36.15 7.95 60.4 7.95 76.25 0.7 108.55 -7.25 76.25 -7.25 60.45 -49.25 36.15 -49.25 -4.25 Q-55.1 3.05 -60.4 7.25 -68.55 13.75 -73.9 11.6 L-73.9 8.4 Q-85.95 15.4 -91.8 11.8 L-91.8 7.1 Q-114.4 15.55 -123.5 8.55 L-123.5 2.45 Q-135.35 2.95 -140.55 -2.2 L-140.55 -5.35 Q-155.85 -5.75 -161.35 -12.55 L-161.35 -15.55 Q-177.5 -17.5 -182.35 -25.0 L-182.35 -28.95 Q-201.3 -32.35 -206.85 -41.7 L-206.85 -55.7 Q-192.5 -56.35 -141.15 -51.6 L-79.2 -46.6" fill="#23140c" fill-rule="evenodd" stroke="none"/>
    <path d="M21.6 -1.15 L30.25 -6.5 30.25 7.5 21.6 16.2 19.5 14.05 9.0 14.05 9.0 27.3 0.35 35.95 -8.3 27.3 -8.3 14.05 -18.75 14.05 -20.9 16.2 -29.55 7.5 -29.55 -6.5 -20.9 -1.15 -6.2 -11.6 -8.3 -13.7 -8.3 -27.7 0.0 -31.65 9.0 -27.7 9.0 -13.7 6.9 -11.6 21.6 -1.15" fill="#23140c" fill-rule="evenodd" stroke="none"/>
  </g>
</svg>
