<?xml version="1.0" encoding="UTF-8" standalone="no"?>
<svg xmlns:xlink="http://www.w3.org/1999/xlink" height="203.1px" width="413.75px" xmlns="http://www.w3.org/2000/svg">
  <g transform="matrix(1.0, 0.0, 0.0, 1.0, 206.85, 108.55)">
    <path d="M0.35 40.1 L-40.0 16.8 -40.0 -29.75 0.35 -53.05 40.7 -29.75 40.7 16.8 0.35 40.1 M36.05 -27.1 L0.35 -47.7 -35.35 -27.1 -35.35 14.15 0.35 34.75 36.05 14.15 36.05 -27.1" fill="url(#gradient0)" fill-rule="evenodd" stroke="none"/>
    <path d="M45.3 19.5 L45.3 -32.45 0.35 -58.4 -44.6 -32.45 -44.6 19.5 0.35 45.45 45.3 19.5 M-65.55 -57.1 Q-64.8 -55.7 -65.05 -53.15 L-65.7 -48.25 Q-65.75 -47.4 -64.05 -44.0 L-61.65 -39.85 -49.25 -34.1 -49.25 -35.1 -7.25 -59.4 -7.25 -76.25 0.0 -108.55 7.95 -76.25 7.95 -59.4 49.95 -35.1 49.95 -34.4 61.7 -39.85 Q62.55 -40.9 64.1 -44.0 65.8 -47.4 65.7 -48.25 L65.05 -53.15 Q64.8 -55.7 65.55 -57.1 67.5 -60.65 79.2 -60.6 L152.55 -58.15 206.9 -55.7 Q201.95 -47.25 186.25 -43.7 173.45 -40.8 154.2 -41.25 L182.35 -39.0 Q175.6 -28.65 148.45 -28.95 L161.4 -26.55 Q154.2 -17.7 130.4 -19.65 L140.55 -16.2 Q131.35 -7.15 102.9 -15.35 L123.5 -5.45 Q116.6 -0.15 101.8 -3.75 90.2 -6.6 74.7 -14.6 L91.8 -2.2 Q87.3 0.55 79.1 -2.95 72.75 -5.65 64.55 -11.95 L73.9 -2.4 Q68.75 -0.35 61.0 -6.3 55.75 -10.3 49.95 -17.4 L49.95 22.15 7.95 46.4 7.95 62.25 0.7 94.55 -7.25 62.25 -7.25 46.45 -49.25 22.15 -49.25 -18.25 Q-55.1 -10.95 -60.4 -6.75 -68.55 -0.25 -73.9 -2.4 L-64.5 -11.95 Q-83.75 2.75 -91.8 -2.2 L-74.7 -14.6 Q-90.25 -6.6 -101.75 -3.75 -116.6 -0.15 -123.5 -5.45 L-102.9 -15.35 Q-131.3 -7.15 -140.55 -16.2 L-130.4 -19.65 Q-154.15 -17.7 -161.35 -26.55 L-148.45 -28.95 Q-175.6 -28.7 -182.35 -39.0 L-154.15 -41.25 Q-173.45 -40.8 -186.2 -43.7 -201.85 -47.25 -206.85 -55.7 L-152.5 -58.15 -79.2 -60.6 Q-67.5 -60.65 -65.55 -57.1" fill="url(#gradient1)" fill-rule="evenodd" stroke="none"/>
    <path d="M19.5 0.05 L6.9 0.05 6.9 11.2 9.0 13.3 0.35 21.95 -8.3 13.3 -6.2 11.2 -6.2 0.05 -18.75 0.05 -20.9 2.2 -29.55 -6.5 -20.9 -15.15 -18.75 -13.0 -6.2 -13.0 -6.2 -25.6 -8.3 -27.7 0.35 -36.35 9.0 -27.7 6.9 -25.6 6.9 -13.0 19.5 -13.0 21.6 -15.15 30.25 -6.5 21.6 2.2 19.5 0.05" fill="url(#gradient2)" fill-rule="evenodd" stroke="none"/>
    <path d="M0.35 34.75 L36.05 14.15 36.05 -27.1 0.35 -47.7 -35.35 -27.1 -35.35 14.15 0.35 34.75 M40.7 -29.75 L40.7 16.8 0.35 40.1 -40.0 16.8 -40.0 -29.75 0.35 -53.05 40.7 -29.75 M0.35 38.95 L39.7 16.25 39.7 -29.2 0.35 -51.9 -39.0 -29.2 -39.0 16.25 0.35 38.95 M37.05 14.7 L0.35 35.9 -36.35 14.7 -36.35 -27.65 0.35 -48.85 37.05 -27.65 37.05 14.7" fill="url(#gradient3)" fill-rule="evenodd" stroke="none"/>
    <path d="M0.35 45.45 L45.3 19.5 45.3 -32.45 0.35 -58.4 -44.6 -32.45 -44.6 19.5 0.35 45.45 M46.3 20.05 L0.35 46.6 -45.6 20.05 -45.6 -33.0 0.35 -59.55 46.3 -33.0 46.3 20.05 M-154.15 -41.25 L-154.1 -40.25 -180.45 -38.15 Q-173.25 -29.9 -149.55 -29.9 L-148.45 -29.95 -148.25 -27.95 -159.4 -25.9 Q-153.35 -20.3 -138.35 -20.3 L-130.45 -20.65 -122.35 -21.3 -138.55 -15.8 Q-134.05 -12.5 -125.55 -12.5 -116.25 -12.5 -103.15 -16.3 L-102.45 -14.45 -121.5 -5.3 Q-117.95 -3.3 -112.5 -3.3 -98.85 -3.3 -75.15 -15.45 L-74.1 -13.75 -89.85 -2.4 -87.15 -2.0 Q-79.15 -2.0 -65.1 -12.75 L-63.8 -11.25 -71.95 -2.95 -71.1 -2.9 Q-66.15 -2.9 -59.15 -9.05 -54.6 -13.1 -50.05 -18.85 L-48.25 -21.1 -48.25 21.6 -6.25 45.85 -6.25 62.15 0.65 90.2 6.95 62.15 6.95 45.85 48.95 21.6 48.95 -20.2 50.75 -18.0 Q55.55 -12.1 60.05 -8.35 66.45 -2.9 71.1 -2.9 L72.0 -2.95 63.8 -11.25 65.15 -12.75 Q79.2 -2.0 87.15 -2.0 L89.85 -2.4 74.1 -13.75 75.15 -15.45 Q86.75 -9.5 96.3 -6.4 105.8 -3.3 112.5 -3.3 118.0 -3.3 121.5 -5.3 L102.45 -14.45 103.2 -16.3 Q116.3 -12.5 125.55 -12.5 134.05 -12.5 138.55 -15.8 L122.35 -21.3 130.5 -20.65 138.35 -20.3 Q153.35 -20.3 159.4 -25.9 L148.25 -27.95 148.45 -29.95 149.6 -29.9 Q173.25 -29.9 180.5 -38.15 L154.1 -40.25 154.2 -42.25 158.7 -42.2 Q176.85 -42.2 188.65 -45.4 200.4 -48.55 205.1 -54.75 L79.2 -59.6 Q68.9 -59.6 66.75 -57.1 66.0 -56.2 66.0 -54.6 66.0 -53.6 66.35 -51.25 L66.7 -48.35 Q66.85 -47.15 64.95 -43.45 L62.5 -39.25 62.35 -39.05 62.1 -38.9 48.95 -32.85 48.95 -34.55 6.95 -58.8 6.95 -76.15 0.05 -104.2 -6.25 -76.15 -6.25 -58.8 -48.25 -34.55 -48.25 -32.55 -62.1 -38.9 -62.3 -39.05 -62.45 -39.2 -64.9 -43.45 Q-66.8 -47.2 -66.7 -48.35 L-66.3 -51.25 Q-65.9 -53.6 -65.95 -54.6 -65.95 -56.2 -66.75 -57.1 -68.9 -59.6 -79.15 -59.6 L-205.05 -54.75 Q-200.35 -48.55 -188.6 -45.4 -176.8 -42.2 -158.7 -42.2 L-154.2 -42.25 -154.15 -41.25 -158.7 -41.2 Q-198.25 -41.2 -206.85 -55.7 L-152.5 -58.15 -79.2 -60.6 -79.15 -60.6 Q-67.45 -60.6 -65.5 -57.05 -64.75 -55.7 -65.05 -53.15 L-65.7 -48.25 Q-65.75 -47.4 -64.05 -44.0 L-61.65 -39.85 -49.25 -34.1 -49.25 -35.1 -7.25 -59.4 -7.25 -76.25 0.0 -108.55 7.95 -76.25 7.95 -59.4 49.95 -35.1 49.95 -34.4 61.7 -39.85 Q62.55 -40.9 64.1 -44.0 65.8 -47.4 65.7 -48.25 L65.05 -53.15 Q64.8 -55.7 65.55 -57.05 67.5 -60.6 79.2 -60.6 L152.55 -58.15 206.9 -55.7 Q198.35 -41.2 158.7 -41.2 L154.2 -41.25 182.35 -39.0 Q175.8 -28.9 149.6 -28.9 L148.45 -28.95 161.4 -26.55 Q155.5 -19.3 138.35 -19.3 L130.4 -19.65 140.55 -16.2 Q135.8 -11.5 125.55 -11.5 116.4 -11.5 102.9 -15.35 L123.5 -5.45 Q119.5 -2.3 112.5 -2.3 98.6 -2.3 74.7 -14.6 L91.8 -2.2 Q89.9 -1.0 87.15 -1.0 78.9 -1.0 64.55 -11.95 L73.9 -2.4 71.1 -1.9 Q66.2 -1.9 59.55 -7.45 54.95 -11.3 49.95 -17.4 L49.95 22.15 7.95 46.4 7.95 62.25 0.7 94.55 -7.25 62.25 -7.25 46.45 -49.25 22.15 -49.25 -18.25 Q-54.25 -12.0 -58.95 -7.95 -66.0 -1.9 -71.1 -1.9 L-73.9 -2.4 -64.5 -11.95 Q-78.85 -1.0 -87.15 -1.0 -89.9 -1.0 -91.8 -2.2 L-74.7 -14.6 Q-98.6 -2.3 -112.5 -2.3 -119.45 -2.3 -123.5 -5.45 L-102.9 -15.35 Q-116.4 -11.5 -125.55 -11.5 -135.8 -11.5 -140.55 -16.2 L-130.4 -19.65 -138.35 -19.3 Q-155.5 -19.3 -161.35 -26.55 L-148.45 -28.95 -149.55 -28.9 Q-175.7 -28.9 -182.35 -39.0 L-154.15 -41.25" fill="url(#gradient4)" fill-rule="evenodd" stroke="none"/>
    <path d="M21.6 -13.7 L19.9 -12.0 5.9 -12.0 5.9 -26.0 7.6 -27.7 0.35 -34.95 -6.9 -27.7 -5.2 -26.0 -5.2 -12.0 -19.2 -12.0 -20.9 -13.7 -28.1 -6.5 -20.9 0.75 -19.2 -0.95 -5.2 -0.95 -5.2 11.6 -6.9 13.3 0.35 20.55 7.6 13.3 5.9 11.6 5.9 -0.95 19.9 -0.95 21.6 0.75 28.85 -6.5 21.6 -13.7 M9.0 -27.7 L6.9 -25.6 6.9 -13.0 19.5 -13.0 21.6 -15.15 30.25 -6.5 21.6 2.2 19.5 0.05 6.9 0.05 6.9 11.2 9.0 13.3 0.35 21.95 -8.3 13.3 -6.2 11.2 -6.2 0.05 -18.75 0.05 -20.9 2.2 -29.55 -6.5 -20.9 -15.15 -18.75 -13.0 -6.2 -13.0 -6.2 -25.6 -8.3 -27.7 0.35 -36.35 9.0 -27.7" fill="url(#gradient5)" fill-rule="evenodd" stroke="none"/>
  </g>
  <defs>
    <linearGradient gradientTransform="matrix(0.0, -0.1823, -0.1823, 0.0, 0.35, -39.25)" gradientUnits="userSpaceOnUse" id="gradient0" spreadMethod="pad" x1="-819.2" x2="819.2">
      <stop offset="0.00392156862745098" stop-color="#543800"/>
      <stop offset="0.17647058823529413" stop-color="#e9ca00"/>
      <stop offset="0.43529411764705883" stop-color="#6a4a00"/>
      <stop offset="0.44313725490196076" stop-color="#836300"/>
      <stop offset="0.4627450980392157" stop-color="#af8f00"/>
      <stop offset="0.47843137254901963" stop-color="#ceaf00"/>
      <stop offset="0.49019607843137253" stop-color="#e2c300"/>
      <stop offset="0.5019607843137255" stop-color="#e9ca00"/>
      <stop offset="0.6274509803921569" stop-color="#feffbf"/>
      <stop offset="0.7607843137254902" stop-color="#e9ca00"/>
      <stop offset="0.984313725490196" stop-color="#6a4700"/>
    </linearGradient>
    <linearGradient gradientTransform="matrix(0.0, -0.1823, -0.1823, 0.0, 0.0, -39.25)" gradientUnits="userSpaceOnUse" id="gradient1" spreadMethod="pad" x1="-819.2" x2="819.2">
      <stop offset="0.00392156862745098" stop-color="#543800"/>
      <stop offset="0.17647058823529413" stop-color="#e9ca00"/>
      <stop offset="0.43529411764705883" stop-color="#6a4a00"/>
      <stop offset="0.44313725490196076" stop-color="#836300"/>
      <stop offset="0.4627450980392157" stop-color="#af8f00"/>
      <stop offset="0.47843137254901963" stop-color="#ceaf00"/>
      <stop offset="0.49019607843137253" stop-color="#e2c300"/>
      <stop offset="0.5019607843137255" stop-color="#e9ca00"/>
      <stop offset="0.6274509803921569" stop-color="#feffbf"/>
      <stop offset="0.7607843137254902" stop-color="#e9ca00"/>
      <stop offset="0.984313725490196" stop-color="#6a4700"/>
    </linearGradient>
    <linearGradient gradientTransform="matrix(0.0, -0.1823, -0.1823, 0.0, 0.35, -39.25)" gradientUnits="userSpaceOnUse" id="gradient2" spreadMethod="pad" x1="-819.2" x2="819.2">
      <stop offset="0.00392156862745098" stop-color="#543800"/>
      <stop offset="0.17647058823529413" stop-color="#e9ca00"/>
      <stop offset="0.43529411764705883" stop-color="#6a4a00"/>
      <stop offset="0.44313725490196076" stop-color="#836300"/>
      <stop offset="0.4627450980392157" stop-color="#af8f00"/>
      <stop offset="0.47843137254901963" stop-color="#ceaf00"/>
      <stop offset="0.49019607843137253" stop-color="#e2c300"/>
      <stop offset="0.5019607843137255" stop-color="#e9ca00"/>
      <stop offset="0.6274509803921569" stop-color="#feffbf"/>
      <stop offset="0.7607843137254902" stop-color="#e9ca00"/>
      <stop offset="0.984313725490196" stop-color="#6a4700"/>
    </linearGradient>
    <linearGradient gradientTransform="matrix(0.0492, 0.0, 0.0, -0.0492, 0.35, -6.5)" gradientUnits="userSpaceOnUse" id="gradient3" spreadMethod="pad" x1="-819.2" x2="819.2">
      <stop offset="0.07450980392156863" stop-color="#543800"/>
      <stop offset="0.17647058823529413" stop-color="#e9ca00"/>
      <stop offset="0.43529411764705883" stop-color="#6a4a00"/>
      <stop offset="0.4588235294117647" stop-color="#836300"/>
      <stop offset="0.5058823529411764" stop-color="#af8f00"/>
      <stop offset="0.5490196078431373" stop-color="#ceaf00"/>
      <stop offset="0.5843137254901961" stop-color="#e2c300"/>
      <stop offset="0.6078431372549019" stop-color="#e9ca00"/>
      <stop offset="0.6431372549019608" stop-color="#e9ca00"/>
      <stop offset="0.8196078431372549" stop-color="#fff87f"/>
      <stop offset="0.8784313725490196" stop-color="#e9ca00"/>
      <stop offset="0.984313725490196" stop-color="#6a4700"/>
    </linearGradient>
    <linearGradient gradientTransform="matrix(0.2526, 0.0, 0.0, -0.2526, 0.0, -7.0)" gradientUnits="userSpaceOnUse" id="gradient4" spreadMethod="pad" x1="-819.2" x2="819.2">
      <stop offset="0.07450980392156863" stop-color="#543800"/>
      <stop offset="0.17647058823529413" stop-color="#e9ca00"/>
      <stop offset="0.43529411764705883" stop-color="#6a4a00"/>
      <stop offset="0.4588235294117647" stop-color="#836300"/>
      <stop offset="0.5058823529411764" stop-color="#af8f00"/>
      <stop offset="0.5490196078431373" stop-color="#ceaf00"/>
      <stop offset="0.5843137254901961" stop-color="#e2c300"/>
      <stop offset="0.6078431372549019" stop-color="#e9ca00"/>
      <stop offset="0.6431372549019608" stop-color="#e9ca00"/>
      <stop offset="0.8196078431372549" stop-color="#fff87f"/>
      <stop offset="0.8784313725490196" stop-color="#e9ca00"/>
      <stop offset="0.984313725490196" stop-color="#6a4700"/>
    </linearGradient>
    <linearGradient gradientTransform="matrix(0.0365, 0.0, 0.0, -0.0365, 0.35, -7.2)" gradientUnits="userSpaceOnUse" id="gradient5" spreadMethod="pad" x1="-819.2" x2="819.2">
      <stop offset="0.07450980392156863" stop-color="#543800"/>
      <stop offset="0.17647058823529413" stop-color="#e9ca00"/>
      <stop offset="0.43529411764705883" stop-color="#6a4a00"/>
      <stop offset="0.4588235294117647" stop-color="#836300"/>
      <stop offset="0.5058823529411764" stop-color="#af8f00"/>
      <stop offset="0.5490196078431373" stop-color="#ceaf00"/>
      <stop offset="0.5843137254901961" stop-color="#e2c300"/>
      <stop offset="0.6078431372549019" stop-color="#e9ca00"/>
      <stop offset="0.6431372549019608" stop-color="#e9ca00"/>
      <stop offset="0.8196078431372549" stop-color="#fff87f"/>
      <stop offset="0.8784313725490196" stop-color="#e9ca00"/>
      <stop offset="0.984313725490196" stop-color="#6a4700"/>
    </linearGradient>
  </defs>
</svg>
