<?xml version="1.0" encoding="UTF-8" standalone="no"?>
<svg xmlns:xlink="http://www.w3.org/1999/xlink" height="152.1px" width="167.7px" xmlns="http://www.w3.org/2000/svg">
  <g transform="matrix(1.0, 0.0, 0.0, 1.0, 83.85, 72.45)">
    <path d="M-83.85 -7.0 L-41.9 -72.45 41.95 -72.45 83.85 -7.0 83.85 7.0 41.95 79.65 -41.9 79.65 -83.85 7.0 -83.85 -7.0 M39.2 -50.6 L36.25 -55.75 -36.2 -55.75 -39.95 -49.25 -14.95 -39.6 -14.95 -25.6 -21.7 -25.6 -33.7 -4.85 -53.9 -25.1 -72.45 7.0 -53.45 39.95 -34.2 21.85 -21.7 29.45 -15.8 29.45 -15.8 43.45 -35.0 61.2 29.15 59.75 13.8 43.45 13.8 29.45 19.3 31.45 31.5 20.3 52.4 41.8 72.45 7.0 54.9 -23.45 31.8 -2.05 18.15 -25.6 14.15 -25.6 14.15 -39.6 39.2 -50.6" fill="#23140c" fill-rule="evenodd" stroke="none"/>
    <path d="M-24.9 -5.1 L21.4 -5.1 21.4 8.9 9.8 28.95 -13.35 28.95 -24.9 8.9 -24.9 -5.1" fill="#23140c" fill-rule="evenodd" stroke="none"/>
  </g>
</svg>
