<?xml version="1.0" encoding="UTF-8" standalone="no"?>
<svg xmlns:xlink="http://www.w3.org/1999/xlink" height="158.8px" width="167.7px" xmlns="http://www.w3.org/2000/svg">
  <g transform="matrix(1.0, 0.0, 0.0, 1.0, 83.85, 79.6)">
    <path d="M-41.35 61.4 L-41.35 79.2 -42.35 79.2 -42.35 61.4 -41.35 61.4" fill="url(#gradient0)" fill-rule="evenodd" stroke="none"/>
    <path d="M42.25 61.4 L42.25 79.2 41.25 79.2 41.25 61.4 42.25 61.4" fill="url(#gradient1)" fill-rule="evenodd" stroke="none"/>
    <path d="M-83.85 -7.0 L-41.9 -79.6 41.95 -79.6 83.85 -7.0 41.95 65.65 -41.9 65.65 -83.85 -7.0 M72.45 -7.0 L54.9 -37.45 31.8 -16.05 18.15 -39.65 14.15 -39.65 39.2 -64.6 36.25 -69.75 -36.2 -69.75 -39.95 -63.25 -14.95 -39.65 -21.7 -39.65 -33.7 -18.9 -53.9 -39.1 -72.45 -7.0 -53.45 25.95 -34.2 7.85 -21.7 29.45 -15.8 29.45 -39.0 50.9 -36.2 55.75 36.25 55.75 37.15 54.2 13.8 29.45 18.15 29.45 31.5 6.3 52.4 27.8 72.45 -7.0" fill="url(#gradient2)" fill-rule="evenodd" stroke="none"/>
    <path d="M9.8 14.95 L-13.35 14.95 -24.9 -5.1 -13.35 -25.15 9.8 -25.15 21.4 -5.1 9.8 14.95" fill="url(#gradient3)" fill-rule="evenodd" stroke="none"/>
    <path d="M-83.85 -7.0 L-41.9 -79.6 41.95 -79.6 83.85 -7.0 41.95 65.65 -41.9 65.65 -83.85 -7.0 M-40.75 -77.6 L-81.5 -7.0 -40.75 63.65 40.8 63.65 81.55 -7.0 40.8 -77.6 -40.75 -77.6 M72.45 -7.0 L54.9 -37.45 31.8 -16.05 18.15 -39.65 14.15 -39.65 39.2 -64.6 36.25 -69.75 -36.2 -69.75 -39.95 -63.25 -14.95 -39.65 -21.7 -39.65 -33.7 -18.9 -53.9 -39.1 -72.45 -7.0 -53.45 25.95 -34.2 7.85 -21.7 29.45 -15.8 29.45 -39.0 50.9 -36.2 55.75 36.25 55.75 37.15 54.2 13.8 29.45 18.15 29.45 31.5 6.3 52.4 27.8 72.45 -7.0 M55.35 -40.65 L74.8 -7.0 52.8 31.1 31.95 9.6 19.3 31.45 18.45 31.45 39.6 53.95 37.4 57.75 -37.35 57.75 -41.55 50.5 -20.9 31.45 -22.85 31.45 -34.65 11.05 -53.9 29.1 -74.75 -7.0 -54.35 -42.35 -34.1 -22.15 -22.85 -41.65 -19.95 -41.65 -42.45 -62.85 -37.35 -71.75 37.4 -71.75 41.7 -64.3 19.0 -41.65 19.3 -41.65 32.25 -19.25 55.35 -40.65" fill="url(#gradient4)" fill-rule="evenodd" stroke="none"/>
    <path d="M9.8 14.95 L-13.35 14.95 -24.9 -5.1 -13.35 -25.15 9.8 -25.15 21.4 -5.1 9.8 14.95 M8.65 -23.15 L-12.2 -23.15 -22.6 -5.1 -12.2 12.95 8.65 12.95 19.05 -5.1 8.65 -23.15" fill="url(#gradient5)" fill-rule="evenodd" stroke="none"/>
  </g>
  <defs>
    <linearGradient gradientTransform="matrix(0.0, -0.0109, -0.0109, 0.0, -41.85, 70.3)" gradientUnits="userSpaceOnUse" id="gradient0" spreadMethod="pad" x1="-819.2" x2="819.2">
      <stop offset="0.0" stop-color="#1e120b" stop-opacity="0.0"/>
      <stop offset="0.01568627450980392" stop-color="#23150d" stop-opacity="0.019607844"/>
      <stop offset="0.2235294117647059" stop-color="#653e22" stop-opacity="0.3137255"/>
      <stop offset="0.4196078431372549" stop-color="#9c5f34" stop-opacity="0.5568628"/>
      <stop offset="0.6039215686274509" stop-color="#c77a42" stop-opacity="0.7490196"/>
      <stop offset="0.7647058823529411" stop-color="#e68c4c" stop-opacity="0.8862745"/>
      <stop offset="0.9019607843137255" stop-color="#f89852" stop-opacity="0.96862745"/>
      <stop offset="1.0" stop-color="#ff9c54"/>
    </linearGradient>
    <linearGradient gradientTransform="matrix(0.0, -0.0109, -0.0109, 0.0, 41.75, 70.3)" gradientUnits="userSpaceOnUse" id="gradient1" spreadMethod="pad" x1="-819.2" x2="819.2">
      <stop offset="0.0" stop-color="#1e120b" stop-opacity="0.0"/>
      <stop offset="0.01568627450980392" stop-color="#23150d" stop-opacity="0.019607844"/>
      <stop offset="0.2235294117647059" stop-color="#653e22" stop-opacity="0.3137255"/>
      <stop offset="0.4196078431372549" stop-color="#9c5f34" stop-opacity="0.5568628"/>
      <stop offset="0.6039215686274509" stop-color="#c77a42" stop-opacity="0.7490196"/>
      <stop offset="0.7647058823529411" stop-color="#e68c4c" stop-opacity="0.8862745"/>
      <stop offset="0.9019607843137255" stop-color="#f89852" stop-opacity="0.96862745"/>
      <stop offset="1.0" stop-color="#ff9c54"/>
    </linearGradient>
    <linearGradient gradientTransform="matrix(0.0, -0.124, -0.124, 0.0, 0.0, -18.2)" gradientUnits="userSpaceOnUse" id="gradient2" spreadMethod="pad" x1="-819.2" x2="819.2">
      <stop offset="0.00392156862745098" stop-color="#543800"/>
      <stop offset="0.17647058823529413" stop-color="#e9ca00"/>
      <stop offset="0.43529411764705883" stop-color="#6a4a00"/>
      <stop offset="0.44313725490196076" stop-color="#836300"/>
      <stop offset="0.4627450980392157" stop-color="#af8f00"/>
      <stop offset="0.47843137254901963" stop-color="#ceaf00"/>
      <stop offset="0.49019607843137253" stop-color="#e2c300"/>
      <stop offset="0.5019607843137255" stop-color="#e9ca00"/>
      <stop offset="0.6274509803921569" stop-color="#feffbf"/>
      <stop offset="0.7607843137254902" stop-color="#e9ca00"/>
      <stop offset="0.984313725490196" stop-color="#6a4700"/>
    </linearGradient>
    <linearGradient gradientTransform="matrix(0.0, -0.124, -0.124, 0.0, -1.75, -18.2)" gradientUnits="userSpaceOnUse" id="gradient3" spreadMethod="pad" x1="-819.2" x2="819.2">
      <stop offset="0.00392156862745098" stop-color="#543800"/>
      <stop offset="0.17647058823529413" stop-color="#e9ca00"/>
      <stop offset="0.43529411764705883" stop-color="#6a4a00"/>
      <stop offset="0.44313725490196076" stop-color="#836300"/>
      <stop offset="0.4627450980392157" stop-color="#af8f00"/>
      <stop offset="0.47843137254901963" stop-color="#ceaf00"/>
      <stop offset="0.49019607843137253" stop-color="#e2c300"/>
      <stop offset="0.5019607843137255" stop-color="#e9ca00"/>
      <stop offset="0.6274509803921569" stop-color="#feffbf"/>
      <stop offset="0.7607843137254902" stop-color="#e9ca00"/>
      <stop offset="0.984313725490196" stop-color="#6a4700"/>
    </linearGradient>
    <linearGradient gradientTransform="matrix(0.1023, 0.0, 0.0, -0.1023, 0.0, -7.0)" gradientUnits="userSpaceOnUse" id="gradient4" spreadMethod="pad" x1="-819.2" x2="819.2">
      <stop offset="0.07450980392156863" stop-color="#543800"/>
      <stop offset="0.17647058823529413" stop-color="#e9ca00"/>
      <stop offset="0.43529411764705883" stop-color="#6a4a00"/>
      <stop offset="0.4588235294117647" stop-color="#836300"/>
      <stop offset="0.5058823529411764" stop-color="#af8f00"/>
      <stop offset="0.5490196078431373" stop-color="#ceaf00"/>
      <stop offset="0.5843137254901961" stop-color="#e2c300"/>
      <stop offset="0.6078431372549019" stop-color="#e9ca00"/>
      <stop offset="0.6431372549019608" stop-color="#e9ca00"/>
      <stop offset="0.8196078431372549" stop-color="#fff87f"/>
      <stop offset="0.8784313725490196" stop-color="#e9ca00"/>
      <stop offset="0.984313725490196" stop-color="#6a4700"/>
    </linearGradient>
    <linearGradient gradientTransform="matrix(0.0283, 0.0, 0.0, -0.0283, -1.75, -5.1)" gradientUnits="userSpaceOnUse" id="gradient5" spreadMethod="pad" x1="-819.2" x2="819.2">
      <stop offset="0.07450980392156863" stop-color="#543800"/>
      <stop offset="0.17647058823529413" stop-color="#e9ca00"/>
      <stop offset="0.43529411764705883" stop-color="#6a4a00"/>
      <stop offset="0.4588235294117647" stop-color="#836300"/>
      <stop offset="0.5058823529411764" stop-color="#af8f00"/>
      <stop offset="0.5490196078431373" stop-color="#ceaf00"/>
      <stop offset="0.5843137254901961" stop-color="#e2c300"/>
      <stop offset="0.6078431372549019" stop-color="#e9ca00"/>
      <stop offset="0.6431372549019608" stop-color="#e9ca00"/>
      <stop offset="0.8196078431372549" stop-color="#fff87f"/>
      <stop offset="0.8784313725490196" stop-color="#e9ca00"/>
      <stop offset="0.984313725490196" stop-color="#6a4700"/>
    </linearGradient>
  </defs>
</svg>
