<?xml version="1.0" encoding="UTF-8" standalone="no"?>
<svg xmlns:xlink="http://www.w3.org/1999/xlink" height="152.1px" width="167.65px" xmlns="http://www.w3.org/2000/svg">
  <g transform="matrix(1.0, 0.0, 0.0, 1.0, 70.0, 72.45)">
    <path d="M97.65 -7.0 L97.65 7.0 55.75 79.65 -28.1 79.65 -70.0 7.0 -70.0 -7.0 -28.1 -72.45 55.75 -72.45 97.65 -7.0 M86.25 7.0 L68.7 -23.45 45.6 -2.05 31.95 -25.6 27.95 -25.6 27.95 -39.6 53.0 -50.6 50.05 -55.75 -22.4 -55.75 -26.15 -49.25 -1.15 -39.6 -1.15 -25.6 -7.9 -25.6 -19.9 -4.85 -40.1 -25.1 -58.6 7.0 -39.6 39.95 -20.35 21.85 -7.9 29.45 -2.0 29.45 -2.0 43.45 -21.2 61.2 42.95 59.75 27.6 43.45 27.6 29.45 33.15 31.45 45.3 20.3 66.2 41.8 86.25 7.0" fill="#23140c" fill-rule="evenodd" stroke="none"/>
    <path d="M-11.1 8.9 L-11.1 -5.1 35.2 -5.1 35.2 8.9 23.6 28.95 0.45 28.95 -11.1 8.9" fill="#23140c" fill-rule="evenodd" stroke="none"/>
  </g>
</svg>
