<?xml version="1.0" encoding="UTF-8" standalone="no"?>
<svg xmlns:xlink="http://www.w3.org/1999/xlink" height="158.85px" width="167.65px" xmlns="http://www.w3.org/2000/svg">
  <g transform="matrix(1.0, 0.0, 0.0, 1.0, 68.25, 79.6)">
    <path d="M-25.8 61.4 L-25.8 79.25 -26.8 79.25 -26.8 61.4 -25.8 61.4" fill="url(#gradient0)" fill-rule="evenodd" stroke="none"/>
    <path d="M57.85 61.4 L57.85 79.25 56.85 79.25 56.85 61.4 57.85 61.4" fill="url(#gradient1)" fill-rule="evenodd" stroke="none"/>
    <path d="M-68.25 -6.95 L-26.35 -79.6 57.5 -79.6 99.4 -6.95 57.5 65.65 -26.35 65.65 -68.25 -6.95 M-38.35 -39.05 L-56.9 -6.95 -37.85 25.95 -18.6 7.85 -6.15 29.45 -0.25 29.45 -23.45 50.9 -20.65 55.8 51.8 55.8 52.7 54.25 29.35 29.45 33.7 29.45 47.05 6.35 67.95 27.8 88.0 -6.95 70.45 -37.45 47.35 -16.05 33.7 -39.6 29.7 -39.6 54.75 -64.6 51.8 -69.7 -20.65 -69.7 -24.4 -63.2 0.6 -39.6 -6.15 -39.6 -18.15 -18.85 -38.35 -39.05" fill="url(#gradient2)" fill-rule="evenodd" stroke="none"/>
    <path d="M2.2 15.0 L-9.35 -5.05 2.2 -25.1 25.35 -25.1 36.95 -5.05 25.35 15.0 2.2 15.0" fill="url(#gradient3)" fill-rule="evenodd" stroke="none"/>
    <path d="M-68.25 -6.95 L-26.35 -79.6 57.5 -79.6 99.4 -6.95 57.5 65.65 -26.35 65.65 -68.25 -6.95 M-25.2 -77.6 L-65.95 -6.95 -25.2 63.65 56.35 63.65 97.1 -6.95 56.35 -77.6 -25.2 -77.6 M-38.35 -39.05 L-56.9 -6.95 -37.85 25.95 -18.6 7.85 -6.15 29.45 -0.25 29.45 -23.45 50.9 -20.65 55.8 51.8 55.8 52.7 54.25 29.35 29.45 33.7 29.45 47.05 6.35 67.95 27.8 88.0 -6.95 70.45 -37.45 47.35 -16.05 33.7 -39.6 29.7 -39.6 54.75 -64.6 51.8 -69.7 -20.65 -69.7 -24.4 -63.2 0.6 -39.6 -6.15 -39.6 -18.15 -18.85 -38.35 -39.05 M-59.2 -6.95 L-38.8 -42.3 -18.55 -22.1 -7.3 -41.6 -4.4 -41.6 -26.9 -62.85 -21.8 -71.7 52.95 -71.7 57.25 -64.25 34.55 -41.6 34.85 -41.6 47.8 -19.2 70.9 -40.6 90.35 -6.95 68.35 31.1 47.5 9.6 34.85 31.45 34.0 31.45 55.15 53.95 52.95 57.8 -21.8 57.8 -26.0 50.55 -5.35 31.45 -7.3 31.45 -19.1 11.05 -38.35 29.15 -59.2 -6.95" fill="url(#gradient4)" fill-rule="evenodd" stroke="none"/>
    <path d="M2.2 15.0 L-9.35 -5.05 2.2 -25.1 25.35 -25.1 36.95 -5.05 25.35 15.0 2.2 15.0 M3.35 -23.1 L-7.05 -5.05 3.35 13.0 24.2 13.0 34.6 -5.05 24.2 -23.1 3.35 -23.1" fill="url(#gradient5)" fill-rule="evenodd" stroke="none"/>
  </g>
  <defs>
    <linearGradient gradientTransform="matrix(0.0, -0.0109, -0.0109, 0.0, -26.3, 70.35)" gradientUnits="userSpaceOnUse" id="gradient0" spreadMethod="pad" x1="-819.2" x2="819.2">
      <stop offset="0.0" stop-color="#1e120b" stop-opacity="0.0"/>
      <stop offset="0.01568627450980392" stop-color="#23150d" stop-opacity="0.019607844"/>
      <stop offset="0.2235294117647059" stop-color="#653e22" stop-opacity="0.3137255"/>
      <stop offset="0.4196078431372549" stop-color="#9c5f34" stop-opacity="0.5568628"/>
      <stop offset="0.6039215686274509" stop-color="#c77a42" stop-opacity="0.7490196"/>
      <stop offset="0.7647058823529411" stop-color="#e68c4c" stop-opacity="0.8862745"/>
      <stop offset="0.9019607843137255" stop-color="#f89852" stop-opacity="0.96862745"/>
      <stop offset="1.0" stop-color="#ff9c54"/>
    </linearGradient>
    <linearGradient gradientTransform="matrix(0.0, -0.0109, -0.0109, 0.0, 57.35, 70.35)" gradientUnits="userSpaceOnUse" id="gradient1" spreadMethod="pad" x1="-819.2" x2="819.2">
      <stop offset="0.0" stop-color="#1e120b" stop-opacity="0.0"/>
      <stop offset="0.01568627450980392" stop-color="#23150d" stop-opacity="0.019607844"/>
      <stop offset="0.2235294117647059" stop-color="#653e22" stop-opacity="0.3137255"/>
      <stop offset="0.4196078431372549" stop-color="#9c5f34" stop-opacity="0.5568628"/>
      <stop offset="0.6039215686274509" stop-color="#c77a42" stop-opacity="0.7490196"/>
      <stop offset="0.7647058823529411" stop-color="#e68c4c" stop-opacity="0.8862745"/>
      <stop offset="0.9019607843137255" stop-color="#f89852" stop-opacity="0.96862745"/>
      <stop offset="1.0" stop-color="#ff9c54"/>
    </linearGradient>
    <linearGradient gradientTransform="matrix(0.0, -0.124, -0.124, 0.0, 15.55, -18.2)" gradientUnits="userSpaceOnUse" id="gradient2" spreadMethod="pad" x1="-819.2" x2="819.2">
      <stop offset="0.00392156862745098" stop-color="#543800"/>
      <stop offset="0.17647058823529413" stop-color="#e9ca00"/>
      <stop offset="0.43529411764705883" stop-color="#6a4a00"/>
      <stop offset="0.44313725490196076" stop-color="#836300"/>
      <stop offset="0.4627450980392157" stop-color="#af8f00"/>
      <stop offset="0.47843137254901963" stop-color="#ceaf00"/>
      <stop offset="0.49019607843137253" stop-color="#e2c300"/>
      <stop offset="0.5019607843137255" stop-color="#e9ca00"/>
      <stop offset="0.6274509803921569" stop-color="#feffbf"/>
      <stop offset="0.7607843137254902" stop-color="#e9ca00"/>
      <stop offset="0.984313725490196" stop-color="#6a4700"/>
    </linearGradient>
    <linearGradient gradientTransform="matrix(0.0, -0.124, -0.124, 0.0, 13.8, -18.2)" gradientUnits="userSpaceOnUse" id="gradient3" spreadMethod="pad" x1="-819.2" x2="819.2">
      <stop offset="0.00392156862745098" stop-color="#543800"/>
      <stop offset="0.17647058823529413" stop-color="#e9ca00"/>
      <stop offset="0.43529411764705883" stop-color="#6a4a00"/>
      <stop offset="0.44313725490196076" stop-color="#836300"/>
      <stop offset="0.4627450980392157" stop-color="#af8f00"/>
      <stop offset="0.47843137254901963" stop-color="#ceaf00"/>
      <stop offset="0.49019607843137253" stop-color="#e2c300"/>
      <stop offset="0.5019607843137255" stop-color="#e9ca00"/>
      <stop offset="0.6274509803921569" stop-color="#feffbf"/>
      <stop offset="0.7607843137254902" stop-color="#e9ca00"/>
      <stop offset="0.984313725490196" stop-color="#6a4700"/>
    </linearGradient>
    <linearGradient gradientTransform="matrix(0.1023, 0.0, 0.0, -0.1023, 15.55, -6.95)" gradientUnits="userSpaceOnUse" id="gradient4" spreadMethod="pad" x1="-819.2" x2="819.2">
      <stop offset="0.07450980392156863" stop-color="#543800"/>
      <stop offset="0.17647058823529413" stop-color="#e9ca00"/>
      <stop offset="0.43529411764705883" stop-color="#6a4a00"/>
      <stop offset="0.4588235294117647" stop-color="#836300"/>
      <stop offset="0.5058823529411764" stop-color="#af8f00"/>
      <stop offset="0.5490196078431373" stop-color="#ceaf00"/>
      <stop offset="0.5843137254901961" stop-color="#e2c300"/>
      <stop offset="0.6078431372549019" stop-color="#e9ca00"/>
      <stop offset="0.6431372549019608" stop-color="#e9ca00"/>
      <stop offset="0.8196078431372549" stop-color="#fff87f"/>
      <stop offset="0.8784313725490196" stop-color="#e9ca00"/>
      <stop offset="0.984313725490196" stop-color="#6a4700"/>
    </linearGradient>
    <linearGradient gradientTransform="matrix(0.0283, 0.0, 0.0, -0.0283, 13.8, -5.05)" gradientUnits="userSpaceOnUse" id="gradient5" spreadMethod="pad" x1="-819.2" x2="819.2">
      <stop offset="0.07450980392156863" stop-color="#543800"/>
      <stop offset="0.17647058823529413" stop-color="#e9ca00"/>
      <stop offset="0.43529411764705883" stop-color="#6a4a00"/>
      <stop offset="0.4588235294117647" stop-color="#836300"/>
      <stop offset="0.5058823529411764" stop-color="#af8f00"/>
      <stop offset="0.5490196078431373" stop-color="#ceaf00"/>
      <stop offset="0.5843137254901961" stop-color="#e2c300"/>
      <stop offset="0.6078431372549019" stop-color="#e9ca00"/>
      <stop offset="0.6431372549019608" stop-color="#e9ca00"/>
      <stop offset="0.8196078431372549" stop-color="#fff87f"/>
      <stop offset="0.8784313725490196" stop-color="#e9ca00"/>
      <stop offset="0.984313725490196" stop-color="#6a4700"/>
    </linearGradient>
  </defs>
</svg>
