<?xml version="1.0" encoding="UTF-8" standalone="no"?>
<svg xmlns:xlink="http://www.w3.org/1999/xlink" height="152.05px" width="167.65px" xmlns="http://www.w3.org/2000/svg">
  <g transform="matrix(1.0, 0.0, 0.0, 1.0, 84.0, 72.45)">
    <path d="M72.25 7.0 L54.7 -23.5 31.6 -2.05 17.95 -25.65 13.95 -25.65 13.95 -39.65 39.0 -50.6 36.05 -55.75 -36.4 -55.75 -40.15 -49.25 -15.15 -39.65 -15.15 -25.65 -21.9 -25.65 -33.9 -4.9 -54.1 -25.1 -72.6 7.0 -53.6 39.9 -34.35 21.85 -21.9 29.45 -16.0 29.45 -16.0 43.45 -35.2 61.2 28.95 59.75 13.6 43.45 13.6 29.45 19.15 31.45 31.3 20.3 52.2 41.8 72.25 7.0 M83.65 -7.0 L83.65 7.0 41.75 79.6 -42.1 79.6 -84.0 7.0 -84.0 -7.0 -42.1 -72.45 41.75 -72.45 83.65 -7.0" fill="#23140c" fill-rule="evenodd" stroke="none"/>
    <path d="M-25.1 8.9 L-25.1 -5.1 21.2 -5.1 21.2 8.9 9.6 28.95 -13.55 28.95 -25.1 8.9" fill="#23140c" fill-rule="evenodd" stroke="none"/>
  </g>
</svg>
