<?xml version="1.0" encoding="UTF-8" standalone="no"?>
<svg xmlns:xlink="http://www.w3.org/1999/xlink" height="158.8px" width="167.65px" xmlns="http://www.w3.org/2000/svg">
  <g transform="matrix(1.0, 0.0, 0.0, 1.0, 84.0, 79.6)">
    <path d="M-41.55 61.4 L-41.55 79.2 -42.55 79.2 -42.55 61.4 -41.55 61.4" fill="url(#gradient0)" fill-rule="evenodd" stroke="none"/>
    <path d="M42.1 61.4 L42.1 79.2 41.1 79.2 41.1 61.4 42.1 61.4" fill="url(#gradient1)" fill-rule="evenodd" stroke="none"/>
    <path d="M72.25 -7.0 L54.7 -37.5 31.6 -16.05 17.95 -39.65 13.95 -39.65 39.0 -64.6 36.05 -69.75 -36.4 -69.75 -40.15 -63.25 -15.15 -39.65 -21.9 -39.65 -33.9 -18.9 -54.1 -39.1 -72.6 -7.0 -53.6 25.9 -34.35 7.85 -21.9 29.45 -16.0 29.45 -39.2 50.9 -36.4 55.75 36.05 55.75 36.95 54.2 13.6 29.45 17.95 29.45 31.3 6.3 52.2 27.8 72.25 -7.0 M-42.1 -79.6 L41.75 -79.6 83.65 -7.0 41.75 65.6 -42.1 65.6 -84.0 -7.0 -42.1 -79.6" fill="url(#gradient2)" fill-rule="evenodd" stroke="none"/>
    <path d="M9.6 14.95 L-13.55 14.95 -25.1 -5.1 -13.55 -25.15 9.6 -25.15 21.2 -5.1 9.6 14.95" fill="url(#gradient3)" fill-rule="evenodd" stroke="none"/>
    <path d="M-40.95 -77.6 L-81.7 -7.0 -40.95 63.6 40.6 63.6 81.35 -7.0 40.6 -77.6 -40.95 -77.6 M72.25 -7.0 L54.7 -37.5 31.6 -16.05 17.95 -39.65 13.95 -39.65 39.0 -64.6 36.05 -69.75 -36.4 -69.75 -40.15 -63.25 -15.15 -39.65 -21.9 -39.65 -33.9 -18.9 -54.1 -39.1 -72.6 -7.0 -53.6 25.9 -34.35 7.85 -21.9 29.45 -16.0 29.45 -39.2 50.9 -36.4 55.75 36.05 55.75 36.95 54.2 13.6 29.45 17.95 29.45 31.3 6.3 52.2 27.8 72.25 -7.0 M55.15 -40.65 L74.6 -7.0 52.6 31.05 31.75 9.6 19.15 31.45 18.25 31.45 39.4 53.95 37.2 57.75 -37.55 57.75 -41.75 50.5 -21.1 31.45 -23.05 31.45 -34.85 11.0 -54.1 29.1 -74.95 -7.0 -54.55 -42.35 -34.3 -22.15 -23.05 -41.65 -20.15 -41.65 -42.65 -62.9 -37.55 -71.75 37.2 -71.75 41.5 -64.3 18.8 -41.65 19.15 -41.65 32.05 -19.25 55.15 -40.65 M-42.1 -79.6 L41.75 -79.6 83.65 -7.0 41.75 65.6 -42.1 65.6 -84.0 -7.0 -42.1 -79.6" fill="url(#gradient4)" fill-rule="evenodd" stroke="none"/>
    <path d="M9.6 14.95 L-13.55 14.95 -25.1 -5.1 -13.55 -25.15 9.6 -25.15 21.2 -5.1 9.6 14.95 M8.45 -23.15 L-12.4 -23.15 -22.8 -5.1 -12.4 12.95 8.45 12.95 18.85 -5.1 8.45 -23.15" fill="url(#gradient5)" fill-rule="evenodd" stroke="none"/>
  </g>
  <defs>
    <linearGradient gradientTransform="matrix(0.0, -0.0109, -0.0109, 0.0, -42.05, 70.3)" gradientUnits="userSpaceOnUse" id="gradient0" spreadMethod="pad" x1="-819.2" x2="819.2">
      <stop offset="0.0" stop-color="#1e120b" stop-opacity="0.0"/>
      <stop offset="0.01568627450980392" stop-color="#23150d" stop-opacity="0.019607844"/>
      <stop offset="0.2235294117647059" stop-color="#653e22" stop-opacity="0.3137255"/>
      <stop offset="0.4196078431372549" stop-color="#9c5f34" stop-opacity="0.5568628"/>
      <stop offset="0.6039215686274509" stop-color="#c77a42" stop-opacity="0.7490196"/>
      <stop offset="0.7647058823529411" stop-color="#e68c4c" stop-opacity="0.8862745"/>
      <stop offset="0.9019607843137255" stop-color="#f89852" stop-opacity="0.96862745"/>
      <stop offset="1.0" stop-color="#ff9c54"/>
    </linearGradient>
    <linearGradient gradientTransform="matrix(0.0, -0.0109, -0.0109, 0.0, 41.6, 70.3)" gradientUnits="userSpaceOnUse" id="gradient1" spreadMethod="pad" x1="-819.2" x2="819.2">
      <stop offset="0.0" stop-color="#1e120b" stop-opacity="0.0"/>
      <stop offset="0.01568627450980392" stop-color="#23150d" stop-opacity="0.019607844"/>
      <stop offset="0.2235294117647059" stop-color="#653e22" stop-opacity="0.3137255"/>
      <stop offset="0.4196078431372549" stop-color="#9c5f34" stop-opacity="0.5568628"/>
      <stop offset="0.6039215686274509" stop-color="#c77a42" stop-opacity="0.7490196"/>
      <stop offset="0.7647058823529411" stop-color="#e68c4c" stop-opacity="0.8862745"/>
      <stop offset="0.9019607843137255" stop-color="#f89852" stop-opacity="0.96862745"/>
      <stop offset="1.0" stop-color="#ff9c54"/>
    </linearGradient>
    <linearGradient gradientTransform="matrix(0.0, -0.124, -0.124, 0.0, -0.2, -18.25)" gradientUnits="userSpaceOnUse" id="gradient2" spreadMethod="pad" x1="-819.2" x2="819.2">
      <stop offset="0.00392156862745098" stop-color="#543800"/>
      <stop offset="0.17647058823529413" stop-color="#e9ca00"/>
      <stop offset="0.43529411764705883" stop-color="#6a4a00"/>
      <stop offset="0.44313725490196076" stop-color="#836300"/>
      <stop offset="0.4627450980392157" stop-color="#af8f00"/>
      <stop offset="0.47843137254901963" stop-color="#ceaf00"/>
      <stop offset="0.49019607843137253" stop-color="#e2c300"/>
      <stop offset="0.5019607843137255" stop-color="#e9ca00"/>
      <stop offset="0.6274509803921569" stop-color="#feffbf"/>
      <stop offset="0.7607843137254902" stop-color="#e9ca00"/>
      <stop offset="0.984313725490196" stop-color="#6a4700"/>
    </linearGradient>
    <linearGradient gradientTransform="matrix(0.0, -0.124, -0.124, 0.0, -1.95, -18.25)" gradientUnits="userSpaceOnUse" id="gradient3" spreadMethod="pad" x1="-819.2" x2="819.2">
      <stop offset="0.00392156862745098" stop-color="#543800"/>
      <stop offset="0.17647058823529413" stop-color="#e9ca00"/>
      <stop offset="0.43529411764705883" stop-color="#6a4a00"/>
      <stop offset="0.44313725490196076" stop-color="#836300"/>
      <stop offset="0.4627450980392157" stop-color="#af8f00"/>
      <stop offset="0.47843137254901963" stop-color="#ceaf00"/>
      <stop offset="0.49019607843137253" stop-color="#e2c300"/>
      <stop offset="0.5019607843137255" stop-color="#e9ca00"/>
      <stop offset="0.6274509803921569" stop-color="#feffbf"/>
      <stop offset="0.7607843137254902" stop-color="#e9ca00"/>
      <stop offset="0.984313725490196" stop-color="#6a4700"/>
    </linearGradient>
    <linearGradient gradientTransform="matrix(0.1023, 0.0, 0.0, -0.1023, -0.2, -7.0)" gradientUnits="userSpaceOnUse" id="gradient4" spreadMethod="pad" x1="-819.2" x2="819.2">
      <stop offset="0.07450980392156863" stop-color="#543800"/>
      <stop offset="0.17647058823529413" stop-color="#e9ca00"/>
      <stop offset="0.43529411764705883" stop-color="#6a4a00"/>
      <stop offset="0.4588235294117647" stop-color="#836300"/>
      <stop offset="0.5058823529411764" stop-color="#af8f00"/>
      <stop offset="0.5490196078431373" stop-color="#ceaf00"/>
      <stop offset="0.5843137254901961" stop-color="#e2c300"/>
      <stop offset="0.6078431372549019" stop-color="#e9ca00"/>
      <stop offset="0.6431372549019608" stop-color="#e9ca00"/>
      <stop offset="0.8196078431372549" stop-color="#fff87f"/>
      <stop offset="0.8784313725490196" stop-color="#e9ca00"/>
      <stop offset="0.984313725490196" stop-color="#6a4700"/>
    </linearGradient>
    <linearGradient gradientTransform="matrix(0.0283, 0.0, 0.0, -0.0283, -1.95, -5.1)" gradientUnits="userSpaceOnUse" id="gradient5" spreadMethod="pad" x1="-819.2" x2="819.2">
      <stop offset="0.07450980392156863" stop-color="#543800"/>
      <stop offset="0.17647058823529413" stop-color="#e9ca00"/>
      <stop offset="0.43529411764705883" stop-color="#6a4a00"/>
      <stop offset="0.4588235294117647" stop-color="#836300"/>
      <stop offset="0.5058823529411764" stop-color="#af8f00"/>
      <stop offset="0.5490196078431373" stop-color="#ceaf00"/>
      <stop offset="0.5843137254901961" stop-color="#e2c300"/>
      <stop offset="0.6078431372549019" stop-color="#e9ca00"/>
      <stop offset="0.6431372549019608" stop-color="#e9ca00"/>
      <stop offset="0.8196078431372549" stop-color="#fff87f"/>
      <stop offset="0.8784313725490196" stop-color="#e9ca00"/>
      <stop offset="0.984313725490196" stop-color="#6a4700"/>
    </linearGradient>
  </defs>
</svg>
