<?xml version="1.0" encoding="UTF-8" standalone="no"?>
<svg xmlns:xlink="http://www.w3.org/1999/xlink" height="158.8px" width="167.65px" xmlns="http://www.w3.org/2000/svg">
  <g transform="matrix(1.0, 0.0, 0.0, 1.0, 70.0, 79.6)">
    <path d="M-27.55 61.4 L-27.55 79.2 -28.55 79.2 -28.55 61.4 -27.55 61.4" fill="url(#gradient0)" fill-rule="evenodd" stroke="none"/>
    <path d="M56.1 61.4 L56.1 79.2 55.1 79.2 55.1 61.4 56.1 61.4" fill="url(#gradient1)" fill-rule="evenodd" stroke="none"/>
    <path d="M55.75 -79.6 L97.65 -7.0 55.75 65.65 -28.1 65.65 -70.0 -7.0 -28.1 -79.6 55.75 -79.6 M86.25 -7.0 L68.7 -37.45 45.6 -16.05 31.95 -39.6 27.95 -39.6 53.0 -64.6 50.05 -69.75 -22.4 -69.75 -26.15 -63.25 -1.15 -39.6 -7.9 -39.6 -19.9 -18.85 -40.1 -39.1 -58.6 -7.0 -39.6 25.95 -20.35 7.85 -7.9 29.45 -2.0 29.45 -25.2 50.9 -22.4 55.75 50.05 55.75 50.95 54.25 27.6 29.45 31.95 29.45 45.3 6.3 66.2 27.8 86.25 -7.0" fill="url(#gradient2)" fill-rule="evenodd" stroke="none"/>
    <path d="M0.45 14.95 L-11.1 -5.1 0.45 -25.15 23.6 -25.15 35.2 -5.1 23.6 14.95 0.45 14.95" fill="url(#gradient3)" fill-rule="evenodd" stroke="none"/>
    <path d="M55.75 -79.6 L97.65 -7.0 55.75 65.65 -28.1 65.65 -70.0 -7.0 -28.1 -79.6 55.75 -79.6 M95.35 -7.0 L54.6 -77.6 -26.95 -77.6 -67.7 -7.0 -26.95 63.65 54.6 63.65 95.35 -7.0 M86.25 -7.0 L68.7 -37.45 45.6 -16.05 31.95 -39.6 27.95 -39.6 53.0 -64.6 50.05 -69.75 -22.4 -69.75 -26.15 -63.25 -1.15 -39.6 -7.9 -39.6 -19.9 -18.85 -40.1 -39.1 -58.6 -7.0 -39.6 25.95 -20.35 7.85 -7.9 29.45 -2.0 29.45 -25.2 50.9 -22.4 55.75 50.05 55.75 50.95 54.25 27.6 29.45 31.95 29.45 45.3 6.3 66.2 27.8 86.25 -7.0 M69.15 -40.65 L88.6 -7.0 66.6 31.1 45.75 9.6 33.15 31.45 32.25 31.45 53.4 53.95 51.2 57.75 -23.55 57.75 -27.75 50.5 -7.1 31.45 -9.05 31.45 -20.85 11.05 -40.1 29.1 -60.95 -7.0 -40.55 -42.35 -20.3 -22.15 -9.05 -41.6 -6.15 -41.6 -28.65 -62.85 -23.55 -71.75 51.2 -71.75 55.5 -64.3 32.8 -41.6 33.15 -41.6 46.05 -19.25 69.15 -40.65" fill="url(#gradient4)" fill-rule="evenodd" stroke="none"/>
    <path d="M0.45 14.95 L-11.1 -5.1 0.45 -25.15 23.6 -25.15 35.2 -5.1 23.6 14.95 0.45 14.95 M1.6 -23.15 L-8.8 -5.1 1.6 12.95 22.45 12.95 32.85 -5.1 22.45 -23.15 1.6 -23.15" fill="url(#gradient5)" fill-rule="evenodd" stroke="none"/>
  </g>
  <defs>
    <linearGradient gradientTransform="matrix(0.0, -0.0109, -0.0109, 0.0, -28.05, 70.3)" gradientUnits="userSpaceOnUse" id="gradient0" spreadMethod="pad" x1="-819.2" x2="819.2">
      <stop offset="0.0" stop-color="#1e120b" stop-opacity="0.0"/>
      <stop offset="0.01568627450980392" stop-color="#23150d" stop-opacity="0.019607844"/>
      <stop offset="0.2235294117647059" stop-color="#653e22" stop-opacity="0.3137255"/>
      <stop offset="0.4196078431372549" stop-color="#9c5f34" stop-opacity="0.5568628"/>
      <stop offset="0.6039215686274509" stop-color="#c77a42" stop-opacity="0.7490196"/>
      <stop offset="0.7647058823529411" stop-color="#e68c4c" stop-opacity="0.8862745"/>
      <stop offset="0.9019607843137255" stop-color="#f89852" stop-opacity="0.96862745"/>
      <stop offset="1.0" stop-color="#ff9c54"/>
    </linearGradient>
    <linearGradient gradientTransform="matrix(0.0, -0.0109, -0.0109, 0.0, 55.6, 70.3)" gradientUnits="userSpaceOnUse" id="gradient1" spreadMethod="pad" x1="-819.2" x2="819.2">
      <stop offset="0.0" stop-color="#1e120b" stop-opacity="0.0"/>
      <stop offset="0.01568627450980392" stop-color="#23150d" stop-opacity="0.019607844"/>
      <stop offset="0.2235294117647059" stop-color="#653e22" stop-opacity="0.3137255"/>
      <stop offset="0.4196078431372549" stop-color="#9c5f34" stop-opacity="0.5568628"/>
      <stop offset="0.6039215686274509" stop-color="#c77a42" stop-opacity="0.7490196"/>
      <stop offset="0.7647058823529411" stop-color="#e68c4c" stop-opacity="0.8862745"/>
      <stop offset="0.9019607843137255" stop-color="#f89852" stop-opacity="0.96862745"/>
      <stop offset="1.0" stop-color="#ff9c54"/>
    </linearGradient>
    <linearGradient gradientTransform="matrix(0.0, -0.124, -0.124, 0.0, 13.8, -18.2)" gradientUnits="userSpaceOnUse" id="gradient2" spreadMethod="pad" x1="-819.2" x2="819.2">
      <stop offset="0.00392156862745098" stop-color="#543800"/>
      <stop offset="0.17647058823529413" stop-color="#e9ca00"/>
      <stop offset="0.43529411764705883" stop-color="#6a4a00"/>
      <stop offset="0.44313725490196076" stop-color="#836300"/>
      <stop offset="0.4627450980392157" stop-color="#af8f00"/>
      <stop offset="0.47843137254901963" stop-color="#ceaf00"/>
      <stop offset="0.49019607843137253" stop-color="#e2c300"/>
      <stop offset="0.5019607843137255" stop-color="#e9ca00"/>
      <stop offset="0.6274509803921569" stop-color="#feffbf"/>
      <stop offset="0.7607843137254902" stop-color="#e9ca00"/>
      <stop offset="0.984313725490196" stop-color="#6a4700"/>
    </linearGradient>
    <linearGradient gradientTransform="matrix(0.0, -0.124, -0.124, 0.0, 12.05, -18.2)" gradientUnits="userSpaceOnUse" id="gradient3" spreadMethod="pad" x1="-819.2" x2="819.2">
      <stop offset="0.00392156862745098" stop-color="#543800"/>
      <stop offset="0.17647058823529413" stop-color="#e9ca00"/>
      <stop offset="0.43529411764705883" stop-color="#6a4a00"/>
      <stop offset="0.44313725490196076" stop-color="#836300"/>
      <stop offset="0.4627450980392157" stop-color="#af8f00"/>
      <stop offset="0.47843137254901963" stop-color="#ceaf00"/>
      <stop offset="0.49019607843137253" stop-color="#e2c300"/>
      <stop offset="0.5019607843137255" stop-color="#e9ca00"/>
      <stop offset="0.6274509803921569" stop-color="#feffbf"/>
      <stop offset="0.7607843137254902" stop-color="#e9ca00"/>
      <stop offset="0.984313725490196" stop-color="#6a4700"/>
    </linearGradient>
    <linearGradient gradientTransform="matrix(0.1023, 0.0, 0.0, -0.1023, 13.8, -7.0)" gradientUnits="userSpaceOnUse" id="gradient4" spreadMethod="pad" x1="-819.2" x2="819.2">
      <stop offset="0.07450980392156863" stop-color="#543800"/>
      <stop offset="0.17647058823529413" stop-color="#e9ca00"/>
      <stop offset="0.43529411764705883" stop-color="#6a4a00"/>
      <stop offset="0.4588235294117647" stop-color="#836300"/>
      <stop offset="0.5058823529411764" stop-color="#af8f00"/>
      <stop offset="0.5490196078431373" stop-color="#ceaf00"/>
      <stop offset="0.5843137254901961" stop-color="#e2c300"/>
      <stop offset="0.6078431372549019" stop-color="#e9ca00"/>
      <stop offset="0.6431372549019608" stop-color="#e9ca00"/>
      <stop offset="0.8196078431372549" stop-color="#fff87f"/>
      <stop offset="0.8784313725490196" stop-color="#e9ca00"/>
      <stop offset="0.984313725490196" stop-color="#6a4700"/>
    </linearGradient>
    <linearGradient gradientTransform="matrix(0.0283, 0.0, 0.0, -0.0283, 12.05, -5.1)" gradientUnits="userSpaceOnUse" id="gradient5" spreadMethod="pad" x1="-819.2" x2="819.2">
      <stop offset="0.07450980392156863" stop-color="#543800"/>
      <stop offset="0.17647058823529413" stop-color="#e9ca00"/>
      <stop offset="0.43529411764705883" stop-color="#6a4a00"/>
      <stop offset="0.4588235294117647" stop-color="#836300"/>
      <stop offset="0.5058823529411764" stop-color="#af8f00"/>
      <stop offset="0.5490196078431373" stop-color="#ceaf00"/>
      <stop offset="0.5843137254901961" stop-color="#e2c300"/>
      <stop offset="0.6078431372549019" stop-color="#e9ca00"/>
      <stop offset="0.6431372549019608" stop-color="#e9ca00"/>
      <stop offset="0.8196078431372549" stop-color="#fff87f"/>
      <stop offset="0.8784313725490196" stop-color="#e9ca00"/>
      <stop offset="0.984313725490196" stop-color="#6a4700"/>
    </linearGradient>
  </defs>
</svg>
