<?xml version="1.0" encoding="UTF-8" standalone="no"?>
<svg xmlns:xlink="http://www.w3.org/1999/xlink" height="152.05px" width="167.7px" xmlns="http://www.w3.org/2000/svg">
  <g transform="matrix(1.0, 0.0, 0.0, 1.0, 83.85, 72.45)">
    <path d="M72.45 7.0 L54.9 -23.5 31.8 -2.05 18.15 -25.65 14.15 -25.65 14.15 -39.65 39.2 -50.6 36.25 -55.75 -36.2 -55.75 -39.95 -49.25 -14.95 -39.65 -14.95 -25.65 -21.7 -25.65 -33.7 -4.9 -53.9 -25.1 -72.45 7.0 -53.45 39.9 -34.2 21.85 -21.7 29.45 -15.8 29.45 -15.8 43.45 -35.0 61.2 29.15 59.75 13.8 43.45 13.8 29.45 19.3 31.45 31.5 20.3 52.4 41.8 72.45 7.0 M83.85 -7.0 L83.85 7.0 41.95 79.6 -41.9 79.6 -83.85 7.0 -83.85 -7.0 -41.9 -72.45 41.95 -72.45 83.85 -7.0" fill="#23140c" fill-rule="evenodd" stroke="none"/>
    <path d="M-24.9 8.9 L-24.9 -5.1 21.4 -5.1 21.4 8.9 9.8 28.95 -13.35 28.95 -24.9 8.9" fill="#23140c" fill-rule="evenodd" stroke="none"/>
  </g>
</svg>
