<?xml version="1.0" encoding="UTF-8" standalone="no"?>
<svg xmlns:xlink="http://www.w3.org/1999/xlink" height="158.8px" width="167.7px" xmlns="http://www.w3.org/2000/svg">
  <g transform="matrix(1.0, 0.0, 0.0, 1.0, 83.85, 79.55)">
    <path d="M-41.35 61.45 L-41.35 79.25 -42.35 79.25 -42.35 61.45 -41.35 61.45" fill="url(#gradient0)" fill-rule="evenodd" stroke="none"/>
    <path d="M42.25 61.45 L42.25 79.25 41.25 79.25 41.25 61.45 42.25 61.45" fill="url(#gradient1)" fill-rule="evenodd" stroke="none"/>
    <path d="M18.15 -39.6 L14.15 -39.6 39.2 -64.6 36.25 -69.7 -36.2 -69.7 -39.95 -63.2 -14.95 -39.6 -21.7 -39.6 -33.7 -18.85 -53.9 -39.05 -72.45 -6.95 -53.45 25.95 -34.2 7.85 -21.7 29.45 -15.8 29.45 -39.0 50.9 -36.2 55.8 36.25 55.8 37.15 54.25 13.8 29.45 18.15 29.45 31.5 6.35 52.4 27.8 72.45 -6.95 54.9 -37.45 31.8 -16.05 18.15 -39.6 M-41.9 -79.55 L41.95 -79.55 83.85 -6.95 41.95 65.65 -41.9 65.65 -83.85 -6.95 -41.9 -79.55" fill="url(#gradient2)" fill-rule="evenodd" stroke="none"/>
    <path d="M-13.35 -25.1 L9.8 -25.1 21.4 -5.05 9.8 15.0 -13.35 15.0 -24.9 -5.05 -13.35 -25.1" fill="url(#gradient3)" fill-rule="evenodd" stroke="none"/>
    <path d="M18.15 -39.6 L14.15 -39.6 39.2 -64.6 36.25 -69.7 -36.2 -69.7 -39.95 -63.2 -14.95 -39.6 -21.7 -39.6 -33.7 -18.85 -53.9 -39.05 -72.45 -6.95 -53.45 25.95 -34.2 7.85 -21.7 29.45 -15.8 29.45 -39.0 50.9 -36.2 55.8 36.25 55.8 37.15 54.25 13.8 29.45 18.15 29.45 31.5 6.35 52.4 27.8 72.45 -6.95 54.9 -37.45 31.8 -16.05 18.15 -39.6 M-37.35 -71.7 L37.4 -71.7 41.7 -64.25 19.0 -41.6 19.3 -41.6 32.25 -19.2 55.35 -40.6 74.8 -6.95 52.8 31.1 31.95 9.65 19.3 31.45 18.45 31.45 39.6 53.95 37.4 57.8 -37.35 57.8 -41.55 50.55 -20.9 31.45 -22.85 31.45 -34.65 11.05 -53.9 29.15 -74.75 -6.95 -54.35 -42.3 -34.1 -22.1 -22.85 -41.6 -19.95 -41.6 -42.45 -62.85 -37.35 -71.7 M40.8 -77.55 L-40.75 -77.55 -81.5 -6.95 -40.75 63.65 40.8 63.65 81.55 -6.95 40.8 -77.55 M-41.9 -79.55 L41.95 -79.55 83.85 -6.95 41.95 65.65 -41.9 65.65 -83.85 -6.95 -41.9 -79.55" fill="url(#gradient4)" fill-rule="evenodd" stroke="none"/>
    <path d="M8.65 -23.1 L-12.2 -23.1 -22.6 -5.05 -12.2 13.0 8.65 13.0 19.05 -5.05 8.65 -23.1 M-13.35 -25.1 L9.8 -25.1 21.4 -5.05 9.8 15.0 -13.35 15.0 -24.9 -5.05 -13.35 -25.1" fill="url(#gradient5)" fill-rule="evenodd" stroke="none"/>
  </g>
  <defs>
    <linearGradient gradientTransform="matrix(0.0, -0.0109, -0.0109, 0.0, -41.85, 70.35)" gradientUnits="userSpaceOnUse" id="gradient0" spreadMethod="pad" x1="-819.2" x2="819.2">
      <stop offset="0.0" stop-color="#1e120b" stop-opacity="0.0"/>
      <stop offset="0.01568627450980392" stop-color="#23150d" stop-opacity="0.019607844"/>
      <stop offset="0.2235294117647059" stop-color="#653e22" stop-opacity="0.3137255"/>
      <stop offset="0.4196078431372549" stop-color="#9c5f34" stop-opacity="0.5568628"/>
      <stop offset="0.6039215686274509" stop-color="#c77a42" stop-opacity="0.7490196"/>
      <stop offset="0.7647058823529411" stop-color="#e68c4c" stop-opacity="0.8862745"/>
      <stop offset="0.9019607843137255" stop-color="#f89852" stop-opacity="0.96862745"/>
      <stop offset="1.0" stop-color="#ff9c54"/>
    </linearGradient>
    <linearGradient gradientTransform="matrix(0.0, -0.0109, -0.0109, 0.0, 41.75, 70.35)" gradientUnits="userSpaceOnUse" id="gradient1" spreadMethod="pad" x1="-819.2" x2="819.2">
      <stop offset="0.0" stop-color="#1e120b" stop-opacity="0.0"/>
      <stop offset="0.01568627450980392" stop-color="#23150d" stop-opacity="0.019607844"/>
      <stop offset="0.2235294117647059" stop-color="#653e22" stop-opacity="0.3137255"/>
      <stop offset="0.4196078431372549" stop-color="#9c5f34" stop-opacity="0.5568628"/>
      <stop offset="0.6039215686274509" stop-color="#c77a42" stop-opacity="0.7490196"/>
      <stop offset="0.7647058823529411" stop-color="#e68c4c" stop-opacity="0.8862745"/>
      <stop offset="0.9019607843137255" stop-color="#f89852" stop-opacity="0.96862745"/>
      <stop offset="1.0" stop-color="#ff9c54"/>
    </linearGradient>
    <linearGradient gradientTransform="matrix(0.0, -0.124, -0.124, 0.0, 0.0, -18.2)" gradientUnits="userSpaceOnUse" id="gradient2" spreadMethod="pad" x1="-819.2" x2="819.2">
      <stop offset="0.00392156862745098" stop-color="#543800"/>
      <stop offset="0.17647058823529413" stop-color="#e9ca00"/>
      <stop offset="0.43529411764705883" stop-color="#6a4a00"/>
      <stop offset="0.44313725490196076" stop-color="#836300"/>
      <stop offset="0.4627450980392157" stop-color="#af8f00"/>
      <stop offset="0.47843137254901963" stop-color="#ceaf00"/>
      <stop offset="0.49019607843137253" stop-color="#e2c300"/>
      <stop offset="0.5019607843137255" stop-color="#e9ca00"/>
      <stop offset="0.6274509803921569" stop-color="#feffbf"/>
      <stop offset="0.7607843137254902" stop-color="#e9ca00"/>
      <stop offset="0.984313725490196" stop-color="#6a4700"/>
    </linearGradient>
    <linearGradient gradientTransform="matrix(0.0, -0.124, -0.124, 0.0, -1.75, -18.2)" gradientUnits="userSpaceOnUse" id="gradient3" spreadMethod="pad" x1="-819.2" x2="819.2">
      <stop offset="0.00392156862745098" stop-color="#543800"/>
      <stop offset="0.17647058823529413" stop-color="#e9ca00"/>
      <stop offset="0.43529411764705883" stop-color="#6a4a00"/>
      <stop offset="0.44313725490196076" stop-color="#836300"/>
      <stop offset="0.4627450980392157" stop-color="#af8f00"/>
      <stop offset="0.47843137254901963" stop-color="#ceaf00"/>
      <stop offset="0.49019607843137253" stop-color="#e2c300"/>
      <stop offset="0.5019607843137255" stop-color="#e9ca00"/>
      <stop offset="0.6274509803921569" stop-color="#feffbf"/>
      <stop offset="0.7607843137254902" stop-color="#e9ca00"/>
      <stop offset="0.984313725490196" stop-color="#6a4700"/>
    </linearGradient>
    <linearGradient gradientTransform="matrix(0.1023, 0.0, 0.0, -0.1023, 0.0, -6.95)" gradientUnits="userSpaceOnUse" id="gradient4" spreadMethod="pad" x1="-819.2" x2="819.2">
      <stop offset="0.07450980392156863" stop-color="#543800"/>
      <stop offset="0.17647058823529413" stop-color="#e9ca00"/>
      <stop offset="0.43529411764705883" stop-color="#6a4a00"/>
      <stop offset="0.4588235294117647" stop-color="#836300"/>
      <stop offset="0.5058823529411764" stop-color="#af8f00"/>
      <stop offset="0.5490196078431373" stop-color="#ceaf00"/>
      <stop offset="0.5843137254901961" stop-color="#e2c300"/>
      <stop offset="0.6078431372549019" stop-color="#e9ca00"/>
      <stop offset="0.6431372549019608" stop-color="#e9ca00"/>
      <stop offset="0.8196078431372549" stop-color="#fff87f"/>
      <stop offset="0.8784313725490196" stop-color="#e9ca00"/>
      <stop offset="0.984313725490196" stop-color="#6a4700"/>
    </linearGradient>
    <linearGradient gradientTransform="matrix(0.0283, 0.0, 0.0, -0.0283, -1.75, -5.05)" gradientUnits="userSpaceOnUse" id="gradient5" spreadMethod="pad" x1="-819.2" x2="819.2">
      <stop offset="0.07450980392156863" stop-color="#543800"/>
      <stop offset="0.17647058823529413" stop-color="#e9ca00"/>
      <stop offset="0.43529411764705883" stop-color="#6a4a00"/>
      <stop offset="0.4588235294117647" stop-color="#836300"/>
      <stop offset="0.5058823529411764" stop-color="#af8f00"/>
      <stop offset="0.5490196078431373" stop-color="#ceaf00"/>
      <stop offset="0.5843137254901961" stop-color="#e2c300"/>
      <stop offset="0.6078431372549019" stop-color="#e9ca00"/>
      <stop offset="0.6431372549019608" stop-color="#e9ca00"/>
      <stop offset="0.8196078431372549" stop-color="#fff87f"/>
      <stop offset="0.8784313725490196" stop-color="#e9ca00"/>
      <stop offset="0.984313725490196" stop-color="#6a4700"/>
    </linearGradient>
  </defs>
</svg>
