<?xml version="1.0" encoding="UTF-8" standalone="no"?>
<svg xmlns:xlink="http://www.w3.org/1999/xlink" height="11.4px" width="6.0px" xmlns="http://www.w3.org/2000/svg">
  <g transform="matrix(1.0, 0.0, 0.0, 1.0, 0.3, -1.6)">
    <path d="M5.1 2.85 L5.65 2.6 5.65 12.7 5.1 13.0 5.1 2.85" fill="url(#gradient0)" fill-rule="evenodd" stroke="none"/>
    <path d="M1.35 5.35 L1.35 3.8 1.75 3.35 1.95 3.4 1.8 3.5 1.8 5.05 1.35 5.35 M2.55 7.4 L2.55 8.35 1.55 9.05 1.55 7.2 2.55 7.4" fill="#2e2e2e" fill-rule="evenodd" stroke="none"/>
    <path d="M1.95 3.4 L4.0 3.75 4.35 4.4 4.35 5.5 1.8 5.05 1.8 3.5 1.95 3.4" fill="url(#gradient1)" fill-rule="evenodd" stroke="none"/>
    <path d="M4.45 8.7 L2.55 8.35 2.55 7.4 4.45 7.7 4.45 8.7" fill="url(#gradient2)" fill-rule="evenodd" stroke="none"/>
    <path d="M1.0 2.7 L2.3 2.9 4.5 3.3 4.5 11.75 0.95 11.05 1.0 2.7 M1.95 3.4 L1.75 3.35 1.35 3.8 1.35 5.35 4.35 5.85 4.35 5.5 4.35 4.4 4.0 3.75 1.95 3.4 M4.45 8.7 L4.45 7.7 2.55 7.4 1.55 7.2 1.55 9.05 1.55 9.15 2.55 9.35 4.45 9.65 4.45 8.7" fill="url(#gradient3)" fill-rule="evenodd" stroke="none"/>
    <path d="M0.45 11.45 L0.5 2.65 1.0 2.7 0.95 11.05 0.45 11.45" fill="#1e1e1e" fill-rule="evenodd" stroke="none"/>
    <path d="M4.5 11.75 L4.5 12.2 0.45 11.45 0.95 11.05 4.5 11.75" fill="#515151" fill-rule="evenodd" stroke="none"/>
    <path d="M2.55 8.35 L4.45 8.7 4.45 9.65 2.55 9.35 1.55 9.15 1.55 9.05 2.55 8.35" fill="#484848" fill-rule="evenodd" stroke="none"/>
    <path d="M5.65 2.6 L5.1 2.85 -0.3 1.95 0.3 1.65 5.65 2.6 M4.35 5.5 L4.35 5.85 1.35 5.35 1.8 5.05 4.35 5.5" fill="#585858" fill-rule="evenodd" stroke="none"/>
    <path d="M5.1 2.85 L5.1 13.0 -0.3 12.05 -0.3 1.95 5.1 2.85 M1.0 2.7 L0.5 2.65 0.45 11.45 4.5 12.2 4.5 11.75 4.5 3.3 2.3 2.9 1.0 2.7" fill="url(#gradient4)" fill-rule="evenodd" stroke="none"/>
    <path d="M5.65 12.7 L5.65 2.6 0.3 1.65" fill="none" stroke="#313131" stroke-linecap="round" stroke-linejoin="round" stroke-width="0.1"/>
    <path d="M3.2 2.1 L2.55 2.4 2.55 2.9 M2.9 7.45 L2.9 5.6 3.3 5.3 3.3 3.7 M2.9 3.0 L2.9 3.5 M2.55 12.85 L2.55 11.75 2.9 11.45 2.9 9.35 3.9 8.6 3.9 7.7" fill="none" stroke="#000000" stroke-linecap="round" stroke-linejoin="round" stroke-opacity="0.18039216" stroke-width="0.1"/>
    <path d="M3.2 7.0 L2.85 7.25 2.7 7.25 2.2 7.0 2.0 6.45 2.2 5.9 2.4 5.75 Q2.25 6.0 2.25 6.25 L2.45 6.8 2.8 7.05 2.95 7.05 3.2 7.0 M3.15 11.05 L2.8 11.3 2.65 11.3 Q2.35 11.3 2.15 11.05 L1.95 10.5 2.15 9.95 2.35 9.8 2.2 10.3 2.4 10.85 2.75 11.1 2.9 11.1 3.15 11.05" fill="#353535" fill-rule="evenodd" stroke="none"/>
    <path d="M2.4 5.75 L2.7 5.7 2.85 5.75 Q3.05 5.75 3.2 5.9 L3.4 6.5 3.2 7.0 2.95 7.05 2.8 7.05 2.45 6.8 2.25 6.25 Q2.25 6.0 2.4 5.75 M3.15 11.05 L2.9 11.1 2.75 11.1 2.4 10.85 2.2 10.3 2.35 9.8 2.65 9.75 2.8 9.8 3.15 9.95 3.35 10.55 3.15 11.05" fill="#202020" fill-rule="evenodd" stroke="none"/>
  </g>
  <defs>
    <radialGradient cx="0" cy="0" gradientTransform="matrix(9.0E-4, 0.0124, -0.0124, 9.0E-4, 0.6, 11.25)" gradientUnits="userSpaceOnUse" id="gradient0" r="819.2" spreadMethod="pad">
      <stop offset="0.06666666666666667" stop-color="#777777"/>
      <stop offset="0.984313725490196" stop-color="#313131"/>
    </radialGradient>
    <radialGradient cx="0" cy="0" fx="291.2" fy="0" gradientTransform="matrix(-1.0E-4, -0.0029, 0.0044, -2.0E-4, 3.05, 3.35)" gradientUnits="userSpaceOnUse" id="gradient1" r="819.2" spreadMethod="pad">
      <stop offset="0.06666666666666667" stop-color="#090909"/>
      <stop offset="0.984313725490196" stop-color="#232323"/>
    </radialGradient>
    <radialGradient cx="0" cy="0" fx="291.2" fy="0" gradientTransform="matrix(0.0014, 0.0, 0.0, 0.0014, 3.5, 8.05)" gradientUnits="userSpaceOnUse" id="gradient2" r="819.2" spreadMethod="pad">
      <stop offset="0.06666666666666667" stop-color="#090909"/>
      <stop offset="0.984313725490196" stop-color="#232323"/>
    </radialGradient>
    <radialGradient cx="0" cy="0" gradientTransform="matrix(1.0E-4, 0.0105, -0.0087, 1.0E-4, 3.1, 6.05)" gradientUnits="userSpaceOnUse" id="gradient3" r="819.2" spreadMethod="pad">
      <stop offset="0.06666666666666667" stop-color="#3a3a3a"/>
      <stop offset="0.984313725490196" stop-color="#1c1c1c"/>
    </radialGradient>
    <radialGradient cx="0" cy="0" gradientTransform="matrix(4.0E-4, 0.0146, -0.0146, 4.0E-4, 1.7, 9.35)" gradientUnits="userSpaceOnUse" id="gradient4" r="819.2" spreadMethod="pad">
      <stop offset="0.06666666666666667" stop-color="#414141"/>
      <stop offset="0.984313725490196" stop-color="#1c1c1c"/>
    </radialGradient>
  </defs>
</svg>
