<?xml version="1.0" encoding="UTF-8" standalone="no"?>
<svg xmlns:xlink="http://www.w3.org/1999/xlink" height="6.7px" width="6.7px" xmlns="http://www.w3.org/2000/svg">
  <g transform="matrix(1.0, 0.0, 0.0, 1.0, 0.0, 0.0)">
    <path d="M5.1 4.7 L5.25 4.4 5.1 4.15 4.85 4.05 4.6 4.15 4.5 4.4 4.6 4.7 4.85 4.8 5.1 4.7 M5.25 2.45 L5.1 2.2 4.85 2.1 4.6 2.2 4.5 2.45 4.6 2.75 4.85 2.85 5.1 2.75 5.25 2.45 M3.95 0.75 Q4.65 0.9 5.2 1.4 6.0 2.2 6.0 3.3 6.0 4.4 5.2 5.2 L3.95 5.95 3.95 0.75 M2.65 5.95 Q1.95 5.75 1.4 5.2 0.65 4.4 0.65 3.3 0.65 2.2 1.4 1.4 1.95 0.9 2.65 0.75 L2.65 5.95 M2.15 4.4 L2.0 4.15 1.85 4.05 1.75 4.05 1.5 4.15 1.4 4.4 1.5 4.7 1.75 4.8 1.85 4.8 2.0 4.7 2.15 4.4 M1.85 2.1 L1.75 2.1 1.5 2.2 1.4 2.45 1.5 2.75 1.75 2.85 1.85 2.85 2.0 2.75 2.15 2.45 2.0 2.2 1.85 2.1" fill="url(#gradient0)" fill-rule="evenodd" stroke="none"/>
    <path d="M5.25 2.45 L5.1 2.75 4.85 2.85 4.6 2.75 4.5 2.45 4.6 2.2 4.85 2.1 5.1 2.2 5.25 2.45 M5.1 4.7 L4.85 4.8 4.6 4.7 4.5 4.4 4.6 4.15 4.85 4.05 5.1 4.15 5.25 4.4 5.1 4.7 M1.85 2.1 L2.0 2.2 2.15 2.45 2.0 2.75 1.85 2.85 1.75 2.85 1.5 2.75 1.4 2.45 1.5 2.2 1.75 2.1 1.85 2.1 M2.15 4.4 L2.0 4.7 1.85 4.8 1.75 4.8 1.5 4.7 1.4 4.4 1.5 4.15 1.75 4.05 1.85 4.05 2.0 4.15 2.15 4.4" fill="#4d4d4d" fill-rule="evenodd" stroke="none"/>
    <path d="M3.95 5.95 L5.2 5.2 Q6.0 4.4 6.0 3.3 6.0 2.2 5.2 1.4 4.65 0.9 3.95 0.75 L3.3 0.65 2.65 0.75 Q1.95 0.9 1.4 1.4 0.65 2.2 0.65 3.3 0.65 4.4 1.4 5.2 1.95 5.75 2.65 5.95 L3.3 6.0 3.95 5.95 M6.7 3.3 Q6.7 4.7 5.7 5.7 5.0 6.4 4.15 6.65 L3.3 6.7 2.5 6.65 0.95 5.7 Q0.0 4.7 0.0 3.3 0.0 1.95 0.95 0.95 1.65 0.3 2.5 0.15 L3.3 0.0 4.15 0.15 Q5.0 0.3 5.7 0.95 6.7 1.95 6.7 3.3" fill="url(#gradient1)" fill-rule="evenodd" stroke="none"/>
    <path d="M3.95 5.95 L3.3 6.0 2.65 5.95 2.65 0.75 3.3 0.65 3.95 0.75 3.95 5.95" fill="#6d6d6d" fill-rule="evenodd" stroke="none"/>
  </g>
  <defs>
    <radialGradient cx="0" cy="0" gradientTransform="matrix(0.0031, 0.0, 0.0, 0.0031, 3.3, 3.35)" gradientUnits="userSpaceOnUse" id="gradient0" r="819.2" spreadMethod="pad">
      <stop offset="0.0" stop-color="#000000"/>
      <stop offset="1.0" stop-color="#232323"/>
    </radialGradient>
    <radialGradient cx="0" cy="0" gradientTransform="matrix(0.0042, 0.0, 0.0, 0.0042, 3.35, 3.3)" gradientUnits="userSpaceOnUse" id="gradient1" r="819.2" spreadMethod="pad">
      <stop offset="0.7450980392156863" stop-color="#515151"/>
      <stop offset="1.0" stop-color="#191919"/>
    </radialGradient>
  </defs>
</svg>
