<?xml version="1.0" encoding="UTF-8" standalone="no"?>
<svg xmlns:xlink="http://www.w3.org/1999/xlink" height="146.2px" width="241.25px" xmlns="http://www.w3.org/2000/svg">
  <g transform="matrix(1.0, 0.0, 0.0, 1.0, 120.6, 80.1)">
    <path d="M75.35 53.65 L109.45 -7.0 79.15 -60.8 31.45 -16.0 18.1 -39.7 14.15 -39.7 43.75 -70.15 -46.6 -70.15 -14.4 -39.7 -21.05 -39.7 -32.8 -18.85 -76.65 -65.25 -109.4 -7.0 -77.15 50.35 -33.3 8.05 -21.05 29.8 -15.2 29.8 -43.85 56.15 38.0 56.15 13.8 29.8 18.1 29.8 31.2 6.55 75.35 53.65 M120.65 -7.0 L79.5 66.1 -79.45 66.1 -120.6 -7.0 -79.45 -80.1 79.5 -80.1 120.65 -7.0" fill="url(#gradient0)" fill-rule="evenodd" stroke="none"/>
    <path d="M-12.85 -25.15 L9.9 -25.15 21.25 -4.95 9.9 15.25 -12.85 15.25 -24.2 -4.95 -12.85 -25.15" fill="url(#gradient1)" fill-rule="evenodd" stroke="none"/>
    <path d="M75.35 53.65 L109.45 -7.0 79.15 -60.8 31.45 -16.0 18.1 -39.7 14.15 -39.7 43.75 -70.15 -46.6 -70.15 -14.4 -39.7 -21.05 -39.7 -32.8 -18.85 -76.65 -65.25 -109.4 -7.0 -77.15 50.35 -33.3 8.05 -21.05 29.8 -15.2 29.8 -43.85 56.15 38.0 56.15 13.8 29.8 18.1 29.8 31.2 6.55 75.35 53.65 M120.65 -7.0 L79.5 66.1 -79.45 66.1 -120.6 -7.0 -79.45 -80.1 79.5 -80.1 120.65 -7.0 M78.35 64.1 L118.35 -7.0 78.35 -78.1 -78.3 -78.1 -118.3 -7.0 -78.3 64.1 78.35 64.1 M111.75 -7.0 L75.75 57.0 31.6 9.9 19.25 31.8 18.35 31.8 42.55 58.15 -48.95 58.15 -20.35 31.8 -22.2 31.8 -33.75 11.3 -77.6 53.6 -111.7 -7.0 -77.05 -68.6 -33.2 -22.2 -22.2 -41.7 -19.4 -41.7 -51.65 -72.15 48.45 -72.15 18.9 -41.7 19.25 -41.7 31.95 -19.2 79.65 -64.0 111.75 -7.0" fill="url(#gradient2)" fill-rule="evenodd" stroke="none"/>
    <path d="M-24.2 -4.95 L-12.85 -25.15 9.9 -25.15 21.25 -4.95 9.9 15.25 -12.85 15.25 -24.2 -4.95 M8.7 -23.15 L-11.65 -23.15 -21.9 -4.95 -11.65 13.25 8.7 13.25 18.95 -4.95 8.7 -23.15" fill="url(#gradient3)" fill-rule="evenodd" stroke="none"/>
  </g>
  <defs>
    <linearGradient gradientTransform="matrix(0.0, -0.0879, -0.0879, 0.0, 0.0, -7.25)" gradientUnits="userSpaceOnUse" id="gradient0" spreadMethod="pad" x1="-819.2" x2="819.2">
      <stop offset="0.00392156862745098" stop-color="#543800"/>
      <stop offset="0.17647058823529413" stop-color="#e9ca00"/>
      <stop offset="0.43529411764705883" stop-color="#6a4a00"/>
      <stop offset="0.44313725490196076" stop-color="#836300"/>
      <stop offset="0.4627450980392157" stop-color="#af8f00"/>
      <stop offset="0.47843137254901963" stop-color="#ceaf00"/>
      <stop offset="0.49019607843137253" stop-color="#e2c300"/>
      <stop offset="0.5019607843137255" stop-color="#e9ca00"/>
      <stop offset="0.6274509803921569" stop-color="#feffbf"/>
      <stop offset="0.7607843137254902" stop-color="#e9ca00"/>
      <stop offset="0.984313725490196" stop-color="#6a4700"/>
    </linearGradient>
    <linearGradient gradientTransform="matrix(0.0, -0.0879, -0.0879, 0.0, -1.5, -7.25)" gradientUnits="userSpaceOnUse" id="gradient1" spreadMethod="pad" x1="-819.2" x2="819.2">
      <stop offset="0.00392156862745098" stop-color="#543800"/>
      <stop offset="0.17647058823529413" stop-color="#e9ca00"/>
      <stop offset="0.43529411764705883" stop-color="#6a4a00"/>
      <stop offset="0.44313725490196076" stop-color="#836300"/>
      <stop offset="0.4627450980392157" stop-color="#af8f00"/>
      <stop offset="0.47843137254901963" stop-color="#ceaf00"/>
      <stop offset="0.49019607843137253" stop-color="#e2c300"/>
      <stop offset="0.5019607843137255" stop-color="#e9ca00"/>
      <stop offset="0.6274509803921569" stop-color="#feffbf"/>
      <stop offset="0.7607843137254902" stop-color="#e9ca00"/>
      <stop offset="0.984313725490196" stop-color="#6a4700"/>
    </linearGradient>
    <linearGradient gradientTransform="matrix(0.1472, 0.0, 0.0, -0.1472, 0.0, -7.0)" gradientUnits="userSpaceOnUse" id="gradient2" spreadMethod="pad" x1="-819.2" x2="819.2">
      <stop offset="0.07450980392156863" stop-color="#543800"/>
      <stop offset="0.17647058823529413" stop-color="#e9ca00"/>
      <stop offset="0.43529411764705883" stop-color="#6a4a00"/>
      <stop offset="0.4588235294117647" stop-color="#836300"/>
      <stop offset="0.5058823529411764" stop-color="#af8f00"/>
      <stop offset="0.5490196078431373" stop-color="#ceaf00"/>
      <stop offset="0.5843137254901961" stop-color="#e2c300"/>
      <stop offset="0.6078431372549019" stop-color="#e9ca00"/>
      <stop offset="0.6431372549019608" stop-color="#e9ca00"/>
      <stop offset="0.8196078431372549" stop-color="#fff87f"/>
      <stop offset="0.8784313725490196" stop-color="#e9ca00"/>
      <stop offset="0.984313725490196" stop-color="#6a4700"/>
    </linearGradient>
    <linearGradient gradientTransform="matrix(0.0277, 0.0, 0.0, -0.0277, -1.5, -4.95)" gradientUnits="userSpaceOnUse" id="gradient3" spreadMethod="pad" x1="-819.2" x2="819.2">
      <stop offset="0.07450980392156863" stop-color="#543800"/>
      <stop offset="0.17647058823529413" stop-color="#e9ca00"/>
      <stop offset="0.43529411764705883" stop-color="#6a4a00"/>
      <stop offset="0.4588235294117647" stop-color="#836300"/>
      <stop offset="0.5058823529411764" stop-color="#af8f00"/>
      <stop offset="0.5490196078431373" stop-color="#ceaf00"/>
      <stop offset="0.5843137254901961" stop-color="#e2c300"/>
      <stop offset="0.6078431372549019" stop-color="#e9ca00"/>
      <stop offset="0.6431372549019608" stop-color="#e9ca00"/>
      <stop offset="0.8196078431372549" stop-color="#fff87f"/>
      <stop offset="0.8784313725490196" stop-color="#e9ca00"/>
      <stop offset="0.984313725490196" stop-color="#6a4700"/>
    </linearGradient>
  </defs>
</svg>
