<?xml version="1.0" encoding="UTF-8" standalone="no"?>
<svg xmlns:xlink="http://www.w3.org/1999/xlink" height="153.35px" width="241.25px" xmlns="http://www.w3.org/2000/svg">
  <g transform="matrix(1.0, 0.0, 0.0, 1.0, 120.6, 73.25)">
    <path d="M-120.6 7.0 L-120.6 -7.0 -79.45 -73.25 79.5 -73.25 120.65 -7.0 120.65 7.0 79.5 80.1 -79.45 80.1 -120.6 7.0 M-32.8 -4.85 L-76.65 -51.25 -109.4 7.0 -77.15 60.1 -33.3 22.05 -21.5 30.6 -15.2 29.8 -15.2 43.8 -34.5 60.15 32.65 61.2 13.8 43.8 13.8 29.8 18.1 29.8 31.2 20.5 75.35 62.1 109.45 7.0 79.15 -46.8 31.45 -2.0 18.1 -25.7 14.15 -25.7 14.15 -39.7 43.75 -56.15 -46.6 -56.15 -14.4 -39.7 -14.4 -25.7 -21.05 -25.7 -32.8 -4.85" fill="#23140c" fill-rule="evenodd" stroke="none"/>
    <path d="M9.9 29.25 L-12.85 29.25 -24.2 9.05 -23.75 -5.7 21.25 -4.95 21.25 9.05 9.9 29.25" fill="#23140c" fill-rule="evenodd" stroke="none"/>
    <path d="M79.5 64.25 L79.5 80.1 78.5 80.1 78.5 64.25 79.5 64.25" fill="url(#gradient0)" fill-rule="evenodd" stroke="none"/>
    <path d="M-78.4 64.25 L-78.4 80.1 -79.4 80.1 -79.4 64.25 -78.4 64.25" fill="url(#gradient1)" fill-rule="evenodd" stroke="none"/>
  </g>
  <defs>
    <linearGradient gradientTransform="matrix(0.0, -0.0097, -0.0097, 0.0, 79.0, 72.2)" gradientUnits="userSpaceOnUse" id="gradient0" spreadMethod="pad" x1="-819.2" x2="819.2">
      <stop offset="0.0" stop-color="#1e120b" stop-opacity="0.0"/>
      <stop offset="0.01568627450980392" stop-color="#23150d" stop-opacity="0.019607844"/>
      <stop offset="0.2235294117647059" stop-color="#653e22" stop-opacity="0.3137255"/>
      <stop offset="0.4196078431372549" stop-color="#9c5f34" stop-opacity="0.5568628"/>
      <stop offset="0.6039215686274509" stop-color="#c77a42" stop-opacity="0.7490196"/>
      <stop offset="0.7647058823529411" stop-color="#e68c4c" stop-opacity="0.8862745"/>
      <stop offset="0.9019607843137255" stop-color="#f89852" stop-opacity="0.96862745"/>
      <stop offset="1.0" stop-color="#ff9c54"/>
    </linearGradient>
    <linearGradient gradientTransform="matrix(0.0, -0.0097, -0.0097, 0.0, -78.9, 72.2)" gradientUnits="userSpaceOnUse" id="gradient1" spreadMethod="pad" x1="-819.2" x2="819.2">
      <stop offset="0.0" stop-color="#1e120b" stop-opacity="0.0"/>
      <stop offset="0.01568627450980392" stop-color="#23150d" stop-opacity="0.019607844"/>
      <stop offset="0.2235294117647059" stop-color="#653e22" stop-opacity="0.3137255"/>
      <stop offset="0.4196078431372549" stop-color="#9c5f34" stop-opacity="0.5568628"/>
      <stop offset="0.6039215686274509" stop-color="#c77a42" stop-opacity="0.7490196"/>
      <stop offset="0.7647058823529411" stop-color="#e68c4c" stop-opacity="0.8862745"/>
      <stop offset="0.9019607843137255" stop-color="#f89852" stop-opacity="0.96862745"/>
      <stop offset="1.0" stop-color="#ff9c54"/>
    </linearGradient>
  </defs>
</svg>
