<?xml version="1.0" encoding="UTF-8" standalone="no"?>
<svg xmlns:xlink="http://www.w3.org/1999/xlink" height="212.9px" width="213.05px" xmlns="http://www.w3.org/2000/svg">
  <g transform="matrix(1.0, 0.0, 0.0, 1.0, 106.5, 113.45)">
    <path d="M45.9 -75.6 L0.05 -102.05 -45.85 -75.6 -45.85 -56.0 -14.9 -33.3 -21.65 -33.3 -33.65 -12.6 -46.1 -20.6 -96.65 8.6 -96.65 60.75 -34.1 14.1 -21.65 35.65 -15.75 35.65 -71.2 76.25 -50.75 88.05 0.05 58.75 50.8 88.05 69.0 77.55 13.8 35.65 18.15 35.65 31.5 12.55 96.7 60.75 96.7 8.6 46.45 -20.4 31.75 -9.8 18.15 -33.3 14.15 -33.3 45.9 -60.25 45.9 -75.6 M55.75 -26.4 L106.55 2.9 106.55 67.25 50.8 99.45 0.05 70.1 -50.75 99.45 -106.5 67.25 -106.5 2.9 -55.7 -26.4 -55.7 -81.3 0.05 -113.45 55.75 -81.3 55.75 -26.4" fill="url(#gradient0)" fill-rule="evenodd" stroke="none"/>
    <path d="M45.9 -75.6 L0.05 -102.05 -45.85 -75.6 -45.85 -56.0 -14.9 -33.3 -21.65 -33.3 -33.65 -12.6 -46.1 -20.6 -96.65 8.6 -96.65 60.75 -34.1 14.1 -21.65 35.65 -15.75 35.65 -71.2 76.25 -50.75 88.05 0.05 58.75 50.8 88.05 69.0 77.55 13.8 35.65 18.15 35.65 31.5 12.55 96.7 60.75 96.7 8.6 46.45 -20.4 31.75 -9.8 18.15 -33.3 14.15 -33.3 45.9 -60.25 45.9 -75.6 M0.05 -104.4 Q24.0 -90.55 47.9 -76.75 L47.9 -59.3 19.4 -35.15 32.35 -12.7 46.3 -22.8 98.7 7.45 98.7 64.75 32.1 15.5 19.45 37.4 72.6 77.8 50.8 90.35 0.05 61.05 -50.75 90.35 -74.85 76.45 -21.85 37.65 -22.85 37.65 -34.75 17.05 -98.65 64.75 -98.65 7.45 -46.05 -22.9 -34.35 -15.4 -22.85 -35.3 -21.0 -35.3 -47.85 -54.95 -47.85 -76.75 0.05 -104.4 M55.75 -26.4 L106.55 2.9 106.55 67.25 50.8 99.45 0.05 70.1 -50.75 99.45 -106.5 67.25 -106.5 2.9 -55.7 -26.4 -55.7 -81.3 0.05 -113.45 55.75 -81.3 55.75 -26.4 M104.55 4.05 L53.75 -25.25 53.75 -80.1 0.05 -111.15 -53.7 -80.1 -53.7 -25.25 -104.5 4.05 -104.5 66.1 -50.75 97.1 0.05 67.8 50.8 97.1 104.55 66.1 104.55 4.05" fill="url(#gradient1)" fill-rule="evenodd" stroke="none"/>
  </g>
  <defs>
    <linearGradient gradientTransform="matrix(0.0, -0.1453, -0.1453, 0.0, 0.0, -12.3)" gradientUnits="userSpaceOnUse" id="gradient0" spreadMethod="pad" x1="-819.2" x2="819.2">
      <stop offset="0.00392156862745098" stop-color="#543800"/>
      <stop offset="0.17647058823529413" stop-color="#e9ca00"/>
      <stop offset="0.43529411764705883" stop-color="#6a4a00"/>
      <stop offset="0.44313725490196076" stop-color="#836300"/>
      <stop offset="0.4627450980392157" stop-color="#af8f00"/>
      <stop offset="0.47843137254901963" stop-color="#ceaf00"/>
      <stop offset="0.49019607843137253" stop-color="#e2c300"/>
      <stop offset="0.5019607843137255" stop-color="#e9ca00"/>
      <stop offset="0.6274509803921569" stop-color="#feffbf"/>
      <stop offset="0.7607843137254902" stop-color="#e9ca00"/>
      <stop offset="0.984313725490196" stop-color="#6a4700"/>
    </linearGradient>
    <linearGradient gradientTransform="matrix(0.13, 0.0, 0.0, -0.13, 0.0, -7.0)" gradientUnits="userSpaceOnUse" id="gradient1" spreadMethod="pad" x1="-819.2" x2="819.2">
      <stop offset="0.07450980392156863" stop-color="#543800"/>
      <stop offset="0.17647058823529413" stop-color="#e9ca00"/>
      <stop offset="0.43529411764705883" stop-color="#6a4a00"/>
      <stop offset="0.4588235294117647" stop-color="#836300"/>
      <stop offset="0.5058823529411764" stop-color="#af8f00"/>
      <stop offset="0.5490196078431373" stop-color="#ceaf00"/>
      <stop offset="0.5843137254901961" stop-color="#e2c300"/>
      <stop offset="0.6078431372549019" stop-color="#e9ca00"/>
      <stop offset="0.6431372549019608" stop-color="#e9ca00"/>
      <stop offset="0.8196078431372549" stop-color="#fff87f"/>
      <stop offset="0.8784313725490196" stop-color="#e9ca00"/>
      <stop offset="0.984313725490196" stop-color="#6a4700"/>
    </linearGradient>
  </defs>
</svg>
