<?xml version="1.0" encoding="UTF-8" standalone="no"?>
<svg xmlns:xlink="http://www.w3.org/1999/xlink" height="225.5px" width="221.75px" xmlns="http://www.w3.org/2000/svg">
  <g transform="matrix(1.0, 0.0, 0.0, 1.0, 110.85, 120.3)">
    <path d="M0.0 -120.3 L62.45 -84.25 62.45 -31.05 110.9 -3.0 110.9 69.15 48.4 105.2 -0.05 77.15 -48.4 104.0 -110.85 68.7 -110.85 -1.0 -62.5 -31.0 -62.5 -84.25 0.0 -120.3 M-56.25 -80.6 L-56.25 -27.5 -104.6 2.5 -104.6 65.05 -48.35 96.85 0.05 69.95 48.4 98.0 104.65 65.5 104.65 0.6 56.2 -27.45 56.2 -80.6 0.0 -113.05 -56.25 -80.6" fill="url(#gradient0)" fill-rule="evenodd" stroke="none"/>
    <path d="M9.35 -18.85 L-12.65 -18.85 -23.65 0.25 -12.65 19.3 9.35 19.3 20.35 0.25 9.35 -18.85 M0.05 -103.5 L48.4 -75.55 48.4 -62.9 13.5 -32.6 17.3 -32.6 30.25 -10.2 48.4 -24.55 96.8 4.6 96.8 60.45 96.2 60.75 30.0 11.05 17.3 33.05 13.15 33.05 69.35 76.3 48.4 88.4 0.05 60.45 -48.3 88.4 -72.3 74.55 -14.95 33.05 -20.6 33.05 -32.45 12.5 -96.7 59.8 -96.7 4.6 -48.65 -23.1 -32.0 -12.9 -20.6 -32.6 -14.15 -32.6 -48.3 -56.3 -48.3 -75.55 0.05 -103.5" fill="url(#gradient1)" fill-rule="evenodd" stroke="none"/>
    <path d="M0.0 -113.05 L-56.25 -80.6 -56.25 -27.5 -104.6 2.5 -104.6 65.05 -48.35 96.85 0.05 69.95 48.4 98.0 104.65 65.5 104.65 0.6 56.2 -27.45 56.2 -80.6 0.0 -113.05 M-62.5 -84.25 L0.0 -120.3 62.45 -84.25 62.45 -31.05 110.9 -3.0 110.9 69.15 48.4 105.2 -0.05 77.15 -48.4 104.0 -110.85 68.7 -110.85 -1.0 -62.5 -31.0 -62.5 -84.25 M0.0 -118.0 L-60.5 -83.05 -60.5 -29.85 Q-84.65 -14.85 -108.85 0.1 L-108.85 67.5 -48.4 101.7 0.0 74.85 48.4 102.9 108.9 68.0 108.9 -1.85 60.45 -29.9 60.45 -83.05 0.0 -118.0 M-58.25 -81.75 L0.0 -115.4 58.2 -81.75 58.2 -28.6 106.65 -0.55 106.65 66.7 48.4 100.3 0.0 72.25 -48.4 99.1 -106.6 66.2 -106.6 1.35 -58.25 -28.6 -58.25 -81.75" fill="url(#gradient2)" fill-rule="evenodd" stroke="none"/>
    <path d="M9.35 -18.85 L-12.65 -18.85 -23.65 0.25 -12.65 19.3 9.35 19.3 20.35 0.25 9.35 -18.85 M-13.8 -20.85 L10.5 -20.85 22.65 0.25 10.5 21.3 -13.8 21.3 -25.95 0.25 -13.8 -20.85 M0.05 -103.5 L48.4 -75.55 48.4 -62.9 13.5 -32.6 17.3 -32.6 30.25 -10.2 48.4 -24.55 96.8 4.6 96.8 60.45 96.2 60.75 30.0 11.05 17.3 33.05 13.15 33.05 69.35 76.3 48.4 88.4 0.05 60.45 -48.3 88.4 -72.3 74.55 -14.95 33.05 -20.6 33.05 -32.45 12.5 -96.7 59.8 -96.7 4.6 -48.65 -23.1 -32.0 -12.9 -20.6 -32.6 -14.15 -32.6 -48.3 -56.3 -48.3 -75.55 0.05 -103.5 M46.4 -74.4 Q23.25 -87.75 0.05 -101.15 L-46.3 -74.4 -46.3 -57.35 -7.8 -30.6 -19.45 -30.6 -31.3 -10.1 -48.7 -20.8 -94.7 5.75 -94.7 55.8 -31.85 9.6 -19.45 31.05 -8.8 31.05 -68.6 74.35 -48.3 86.05 0.05 58.15 48.4 86.05 65.75 76.05 7.3 31.05 16.15 31.05 29.4 8.1 94.8 57.2 94.8 5.75 48.55 -22.1 29.65 -7.2 16.15 -30.6 8.15 -30.6 46.4 -63.85 46.4 -74.4" fill="url(#gradient3)" fill-rule="evenodd" stroke="none"/>
  </g>
  <defs>
    <linearGradient gradientTransform="matrix(0.0, -0.14, -0.14, 0.0, 0.0, -15.65)" gradientUnits="userSpaceOnUse" id="gradient0" spreadMethod="pad" x1="-819.2" x2="819.2">
      <stop offset="0.00392156862745098" stop-color="#543800"/>
      <stop offset="0.17647058823529413" stop-color="#e9ca00"/>
      <stop offset="0.43529411764705883" stop-color="#6a4a00"/>
      <stop offset="0.44313725490196076" stop-color="#836300"/>
      <stop offset="0.4627450980392157" stop-color="#af8f00"/>
      <stop offset="0.47843137254901963" stop-color="#ceaf00"/>
      <stop offset="0.49019607843137253" stop-color="#e2c300"/>
      <stop offset="0.5019607843137255" stop-color="#e9ca00"/>
      <stop offset="0.6274509803921569" stop-color="#feffbf"/>
      <stop offset="0.7607843137254902" stop-color="#e9ca00"/>
      <stop offset="0.984313725490196" stop-color="#6a4700"/>
    </linearGradient>
    <linearGradient gradientTransform="matrix(0.0, -0.14, -0.14, 0.0, 0.05, -15.65)" gradientUnits="userSpaceOnUse" id="gradient1" spreadMethod="pad" x1="-819.2" x2="819.2">
      <stop offset="0.00392156862745098" stop-color="#543800"/>
      <stop offset="0.17647058823529413" stop-color="#e9ca00"/>
      <stop offset="0.43529411764705883" stop-color="#6a4a00"/>
      <stop offset="0.44313725490196076" stop-color="#836300"/>
      <stop offset="0.4627450980392157" stop-color="#af8f00"/>
      <stop offset="0.47843137254901963" stop-color="#ceaf00"/>
      <stop offset="0.49019607843137253" stop-color="#e2c300"/>
      <stop offset="0.5019607843137255" stop-color="#e9ca00"/>
      <stop offset="0.6274509803921569" stop-color="#feffbf"/>
      <stop offset="0.7607843137254902" stop-color="#e9ca00"/>
      <stop offset="0.984313725490196" stop-color="#6a4700"/>
    </linearGradient>
    <linearGradient gradientTransform="matrix(0.1353, 0.0, 0.0, -0.1353, 0.0, -7.55)" gradientUnits="userSpaceOnUse" id="gradient2" spreadMethod="pad" x1="-819.2" x2="819.2">
      <stop offset="0.07450980392156863" stop-color="#543800"/>
      <stop offset="0.17647058823529413" stop-color="#e9ca00"/>
      <stop offset="0.43529411764705883" stop-color="#6a4a00"/>
      <stop offset="0.4588235294117647" stop-color="#836300"/>
      <stop offset="0.5058823529411764" stop-color="#af8f00"/>
      <stop offset="0.5490196078431373" stop-color="#ceaf00"/>
      <stop offset="0.5843137254901961" stop-color="#e2c300"/>
      <stop offset="0.6078431372549019" stop-color="#e9ca00"/>
      <stop offset="0.6431372549019608" stop-color="#e9ca00"/>
      <stop offset="0.8196078431372549" stop-color="#fff87f"/>
      <stop offset="0.8784313725490196" stop-color="#e9ca00"/>
      <stop offset="0.984313725490196" stop-color="#6a4700"/>
    </linearGradient>
    <linearGradient gradientTransform="matrix(0.1181, 0.0, 0.0, -0.1181, 0.05, -7.55)" gradientUnits="userSpaceOnUse" id="gradient3" spreadMethod="pad" x1="-819.2" x2="819.2">
      <stop offset="0.07450980392156863" stop-color="#543800"/>
      <stop offset="0.17647058823529413" stop-color="#e9ca00"/>
      <stop offset="0.43529411764705883" stop-color="#6a4a00"/>
      <stop offset="0.4588235294117647" stop-color="#836300"/>
      <stop offset="0.5058823529411764" stop-color="#af8f00"/>
      <stop offset="0.5490196078431373" stop-color="#ceaf00"/>
      <stop offset="0.5843137254901961" stop-color="#e2c300"/>
      <stop offset="0.6078431372549019" stop-color="#e9ca00"/>
      <stop offset="0.6431372549019608" stop-color="#e9ca00"/>
      <stop offset="0.8196078431372549" stop-color="#fff87f"/>
      <stop offset="0.8784313725490196" stop-color="#e9ca00"/>
      <stop offset="0.984313725490196" stop-color="#6a4700"/>
    </linearGradient>
  </defs>
</svg>
