<?xml version="1.0" encoding="UTF-8" standalone="no"?>
<svg xmlns:xlink="http://www.w3.org/1999/xlink" height="235.5px" width="221.75px" xmlns="http://www.w3.org/2000/svg">
  <g transform="matrix(1.0, 0.0, 0.0, 1.0, 110.85, 127.45)">
    <path d="M110.9 -10.2 L110.9 71.95 48.4 108.05 -0.05 80.0 -48.4 106.85 -110.85 71.5 -110.85 -8.15 -62.5 -38.15 -62.5 -91.4 0.0 -127.45 62.45 -91.4 62.45 -38.2 110.9 -10.2 M56.2 -24.6 L56.2 -77.8 0.0 -110.25 -56.25 -77.8 -56.25 -24.65 -104.6 5.3 -104.6 57.85 -48.35 89.65 0.05 62.8 48.4 90.8 104.65 58.35 104.65 3.45 56.2 -24.6" fill="#23140c" fill-rule="evenodd" stroke="none"/>
    <path d="M9.35 -16.0 L-12.65 -16.0 -23.65 3.05 -12.65 22.1 9.35 22.1 20.35 3.05 9.35 -16.0 M96.8 63.3 L96.2 63.6 30.0 13.9 17.3 35.9 13.15 35.9 69.35 64.1 69.35 79.1 48.4 91.2 0.05 63.3 -48.3 91.2 -72.3 77.35 -72.3 62.35 -14.95 35.9 -20.6 35.9 -32.45 15.35 -96.7 62.6 -96.7 7.45 -48.65 -20.3 -32.0 -10.05 -20.6 -29.8 -14.15 -29.8 -48.3 -53.5 -48.3 -72.75 0.05 -100.65 48.4 -82.75 48.4 -60.1 13.5 -29.8 17.3 -29.8 30.25 -7.35 48.4 -21.7 96.8 7.45 96.8 63.3" fill="#23140c" fill-rule="evenodd" stroke="none"/>
  </g>
</svg>
