<?xml version="1.0" encoding="UTF-8" standalone="no"?>
<svg xmlns:xlink="http://www.w3.org/1999/xlink" height="76.05px" width="82.45px" xmlns="http://www.w3.org/2000/svg">
  <g transform="matrix(1.0, 0.0, 0.0, 1.0, 36.35, 19.1)">
    <path d="M7.1 2.3 Q11.1 -0.4 10.7 -2.85 10.35 -5.35 5.85 -6.3 L5.55 -6.35 8.45 -8.35 8.75 -8.3 Q14.65 -7.15 15.15 -3.9 15.65 -0.55 10.45 2.95 5.3 6.5 -2.45 8.1 -10.2 9.8 -16.1 8.65 L-16.4 8.6 -13.45 6.55 -13.15 6.65 -2.75 6.25 Q3.15 5.0 7.1 2.3" fill="#ffffff" fill-rule="evenodd" stroke="none"/>
    <path d="M8.55 47.8 Q8.2 47.35 8.4 46.95 8.4 46.35 8.9 46.25 L9.85 46.15 10.55 46.6 13.15 51.95 13.3 52.85 12.7 53.6 11.85 53.7 11.15 53.1 8.55 47.8" fill="url(#gradient0)" fill-rule="evenodd" stroke="none"/>
    <path d="M16.1 47.2 Q16.45 47.2 16.8 47.65 L19.4 53.0 19.55 53.95 18.95 54.65 18.1 54.75 Q17.5 54.55 17.4 54.15 L14.8 48.85 Q14.45 48.4 14.7 48.05 14.7 47.45 15.15 47.35 L16.1 47.2" fill="url(#gradient1)" fill-rule="evenodd" stroke="none"/>
    <path d="M20.85 48.95 Q20.85 48.4 21.3 48.25 L22.25 48.15 Q22.6 48.15 22.95 48.65 L25.55 53.95 25.7 54.9 25.1 55.6 24.25 55.7 23.55 55.15 20.95 49.8 Q20.6 49.35 20.85 48.95" fill="url(#gradient2)" fill-rule="evenodd" stroke="none"/>
    <path d="M27.7 49.45 L28.65 49.35 29.35 49.8 31.95 55.15 Q32.2 55.85 32.05 56.05 L31.5 56.75 30.65 56.9 29.95 56.3 27.35 51.0 Q27.0 50.5 27.2 50.15 27.2 49.55 27.7 49.45" fill="url(#gradient3)" fill-rule="evenodd" stroke="none"/>
    <path d="M-36.35 48.4 Q-36.35 47.65 -35.9 47.45 -35.55 47.1 -34.85 47.1 -34.35 47.1 -33.9 47.45 -33.55 47.8 -33.55 48.5 -33.55 48.95 -33.9 49.45 -34.35 49.8 -34.85 49.8 -35.55 49.8 -35.9 49.45 L-36.35 48.4" fill="url(#gradient4)" fill-rule="evenodd" stroke="none"/>
    <path d="M-31.3 44.95 Q-30.95 45.3 -30.95 46.05 -30.95 46.5 -31.3 46.95 -31.65 47.35 -32.25 47.2 L-33.2 46.85 -33.65 45.9 Q-33.65 45.2 -33.2 44.85 -32.8 44.35 -32.25 44.35 L-31.3 44.95" fill="url(#gradient5)" fill-rule="evenodd" stroke="none"/>
    <path d="M-31.65 48.4 Q-31.3 47.9 -30.6 47.9 -30.1 47.9 -29.65 48.4 -29.3 48.75 -29.3 49.45 -29.3 49.95 -29.65 50.4 L-30.6 50.75 Q-31.3 50.75 -31.65 50.4 L-32.0 49.45 Q-32.0 48.75 -31.65 48.4" fill="url(#gradient6)" fill-rule="evenodd" stroke="none"/>
    <path d="M-27.85 45.3 Q-27.4 45.3 -26.9 45.8 -26.55 46.15 -26.55 46.75 -26.55 47.35 -26.9 47.65 -27.4 48.05 -27.85 48.05 -28.55 47.9 -28.9 47.55 -29.4 47.2 -29.4 46.6 -29.4 46.05 -28.9 45.65 -28.55 45.2 -27.85 45.3" fill="url(#gradient7)" fill-rule="evenodd" stroke="none"/>
    <path d="M-26.2 48.85 Q-25.6 48.85 -25.15 49.2 -24.8 49.7 -24.8 50.25 -24.8 50.75 -25.15 51.25 L-26.2 51.55 -27.15 51.25 -27.6 50.25 Q-27.6 49.7 -27.15 49.2 -26.8 48.85 -26.2 48.85" fill="url(#gradient8)" fill-rule="evenodd" stroke="none"/>
    <path d="M-24.65 48.25 Q-25.15 47.9 -25.15 47.35 -25.15 46.75 -24.65 46.35 -24.3 45.9 -23.6 46.05 -23.15 46.05 -22.65 46.5 -22.3 46.85 -22.3 47.45 -22.3 48.05 -22.65 48.4 -23.15 48.75 -23.6 48.75 -24.3 48.65 -24.65 48.25" fill="url(#gradient9)" fill-rule="evenodd" stroke="none"/>
    <path d="M-20.9 49.95 Q-20.55 50.4 -20.55 51.0 -20.55 51.45 -20.9 51.95 -21.35 52.3 -21.95 52.3 L-22.9 51.95 -23.35 51.0 Q-23.35 50.4 -22.9 49.95 -22.55 49.55 -21.95 49.55 -21.35 49.55 -20.9 49.95" fill="url(#gradient10)" fill-rule="evenodd" stroke="none"/>
    <path d="M37.55 -7.8 L40.4 -7.25 37.75 -5.3 30.45 0.2 42.85 2.4 39.5 4.25 27.75 2.2 27.5 2.2 23.85 1.7 34.55 -5.8 35.55 -6.5 35.6 -6.5 37.55 -7.8 M11.25 10.8 L27.0 13.65 23.65 15.5 11.45 13.35 1.2 20.8 -2.45 20.3 8.25 12.8 9.25 12.1 9.3 12.1 11.25 10.8" fill="#ffffff" fill-rule="evenodd" stroke="none"/>
    <path d="M6.3 11.45 L6.3 11.35 Q6.65 9.2 7.85 6.85 10.1 2.5 14.4 0.15 18.65 -2.25 22.35 -1.2 26.1 -0.15 26.9 3.7 28.15 7.5 25.9 11.95 L24.35 14.5 24.15 14.85 23.75 14.85 6.3 11.45" fill="url(#gradient11)" fill-rule="evenodd" stroke="none"/>
    <path d="M23.75 14.85 Q21.95 16.8 19.35 17.95 15.35 19.8 10.95 18.7 7.4 17.6 5.3 14.2 4.65 12.65 4.5 11.1 L6.3 11.45 23.75 14.85" fill="url(#gradient12)" fill-rule="evenodd" stroke="none"/>
    <path d="M42.5 3.1 Q40.7 5.05 38.1 6.2 34.1 8.05 29.7 6.95 26.15 5.85 24.05 2.45 23.4 0.9 23.25 -0.65 L25.05 -0.3 42.5 3.1" fill="url(#gradient13)" fill-rule="evenodd" stroke="none"/>
    <path d="M25.05 -0.3 L25.05 -0.4 Q25.4 -2.55 26.6 -4.9 28.85 -9.25 33.15 -11.6 37.4 -14.0 41.1 -12.95 44.85 -11.9 45.65 -8.05 46.9 -4.25 44.65 0.2 L43.1 2.75 42.9 3.1 42.5 3.1 25.05 -0.3" fill="url(#gradient14)" fill-rule="evenodd" stroke="none"/>
    <path d="M0.3 -5.3 L0.3 -5.4 Q0.65 -7.55 1.85 -9.9 4.1 -14.25 8.4 -16.6 12.65 -19.0 16.35 -17.95 20.1 -16.9 20.9 -13.05 22.15 -9.25 19.9 -4.8 L18.35 -2.25 18.15 -1.9 17.75 -1.9 0.3 -5.3" fill="url(#gradient15)" fill-rule="evenodd" stroke="none"/>
    <path d="M17.75 -1.9 Q15.95 0.05 13.35 1.2 9.35 3.05 4.95 1.95 1.4 0.85 -0.7 -2.55 -1.35 -4.1 -1.5 -5.65 L0.3 -5.3 17.75 -1.9" fill="url(#gradient16)" fill-rule="evenodd" stroke="none"/>
    <path d="M-18.45 7.2 Q-18.3 7.15 -18.45 7.1 -18.1 4.95 -16.9 2.6 -14.65 -1.75 -10.35 -4.1 -6.1 -6.5 -2.4 -5.45 1.35 -4.4 2.15 -0.55 3.4 3.25 1.15 7.7 L-0.4 10.25 -0.6 10.6 -1.0 10.6 -18.45 7.2" fill="url(#gradient17)" fill-rule="evenodd" stroke="none"/>
    <path d="M-1.0 10.6 Q-2.8 12.55 -5.4 13.7 -9.4 15.55 -13.8 14.45 -17.35 13.35 -19.45 9.95 -20.1 8.4 -20.25 6.85 L-18.45 7.2 -1.0 10.6" fill="url(#gradient18)" fill-rule="evenodd" stroke="none"/>
    <path d="M-5.15 6.6 Q-5.0 6.45 -5.15 6.45 -4.75 3.7 -3.3 0.15 -0.65 -6.45 4.45 -12.05 9.45 -17.65 13.85 -18.85 18.3 -20.05 19.25 -16.0 20.75 -12.3 18.05 -5.6 L16.25 -1.55 16.0 -1.0 15.5 -0.75 -5.15 6.6" fill="url(#gradient19)" fill-rule="evenodd" stroke="none"/>
    <path d="M15.5 -0.75 Q13.4 2.7 10.3 5.8 5.55 10.6 0.35 12.15 -3.85 13.15 -6.35 10.55 -7.1 9.1 -7.3 7.35 L-5.15 6.6 15.5 -0.75" fill="url(#gradient20)" fill-rule="evenodd" stroke="none"/>
    <path d="M16.75 13.5 Q14.95 16.1 12.35 18.25 8.35 21.65 3.95 22.25 0.4 22.5 -1.7 19.9 -2.35 18.6 -2.5 17.1 L-0.7 16.75 16.75 13.5" fill="url(#gradient21)" fill-rule="evenodd" stroke="none"/>
    <path d="M-0.7 16.75 Q-0.55 16.65 -0.7 16.65 -0.35 14.4 0.85 11.55 3.1 6.35 7.4 2.35 11.65 -1.65 15.35 -2.05 19.1 -2.4 19.9 1.15 21.15 4.45 18.9 9.75 L17.35 12.9 17.15 13.35 16.75 13.5 -0.7 16.75" fill="url(#gradient22)" fill-rule="evenodd" stroke="none"/>
    <path d="M18.55 2.25 L18.55 2.15 Q18.9 -0.1 20.1 -2.95 22.35 -8.15 26.65 -12.15 30.9 -16.15 34.6 -16.55 38.35 -16.9 39.15 -13.35 40.4 -10.05 38.15 -4.75 L36.6 -1.6 36.4 -1.15 36.0 -1.0 18.55 2.25" fill="url(#gradient23)" fill-rule="evenodd" stroke="none"/>
    <path d="M36.0 -1.0 Q34.2 1.6 31.6 3.75 27.6 7.15 23.2 7.75 19.65 8.0 17.55 5.4 16.9 4.1 16.75 2.6 L18.55 2.25 36.0 -1.0" fill="url(#gradient24)" fill-rule="evenodd" stroke="none"/>
  </g>
  <defs>
    <linearGradient gradientTransform="matrix(-0.0026, 0.0015, -0.0023, -0.004, 10.8, 49.95)" gradientUnits="userSpaceOnUse" id="gradient0" spreadMethod="pad" x1="-819.2" x2="819.2">
      <stop offset="0.0" stop-color="#000000"/>
      <stop offset="1.0" stop-color="#4f4f4f"/>
    </linearGradient>
    <linearGradient gradientTransform="matrix(-0.0014, 6.0E-4, -0.0021, -0.0045, 17.2, 51.35)" gradientUnits="userSpaceOnUse" id="gradient1" spreadMethod="pad" x1="-819.2" x2="819.2">
      <stop offset="0.0" stop-color="#000000"/>
      <stop offset="1.0" stop-color="#4f4f4f"/>
    </linearGradient>
    <linearGradient gradientTransform="matrix(-0.002, 9.0E-4, -0.0021, -0.0045, 23.2, 51.8)" gradientUnits="userSpaceOnUse" id="gradient2" spreadMethod="pad" x1="-819.2" x2="819.2">
      <stop offset="0.0" stop-color="#000000"/>
      <stop offset="1.0" stop-color="#4f4f4f"/>
    </linearGradient>
    <linearGradient gradientTransform="matrix(-0.0022, 0.0011, -0.0022, -0.0045, 30.05, 53.0)" gradientUnits="userSpaceOnUse" id="gradient3" spreadMethod="pad" x1="-819.2" x2="819.2">
      <stop offset="0.0" stop-color="#000000"/>
      <stop offset="1.0" stop-color="#4f4f4f"/>
    </linearGradient>
    <radialGradient cx="0" cy="0" fx="435.20000000000005" fy="0" gradientTransform="matrix(0.0048, -0.0026, 0.0013, 0.0022, -34.7, 47.9)" gradientUnits="userSpaceOnUse" id="gradient4" r="819.2" spreadMethod="pad">
      <stop offset="0.0" stop-color="#000000"/>
      <stop offset="0.984313725490196" stop-color="#000000" stop-opacity="0.0"/>
    </radialGradient>
    <radialGradient cx="0" cy="0" fx="435.20000000000005" fy="0" gradientTransform="matrix(0.0048, -0.0026, 0.0013, 0.0022, -32.0, 45.45)" gradientUnits="userSpaceOnUse" id="gradient5" r="819.2" spreadMethod="pad">
      <stop offset="0.0" stop-color="#000000"/>
      <stop offset="0.984313725490196" stop-color="#000000" stop-opacity="0.0"/>
    </radialGradient>
    <radialGradient cx="0" cy="0" fx="435.20000000000005" fy="0" gradientTransform="matrix(0.0048, -0.0026, 0.0013, 0.0022, -30.45, 48.85)" gradientUnits="userSpaceOnUse" id="gradient6" r="819.2" spreadMethod="pad">
      <stop offset="0.0" stop-color="#000000"/>
      <stop offset="0.984313725490196" stop-color="#000000" stop-opacity="0.0"/>
    </radialGradient>
    <radialGradient cx="0" cy="0" fx="435.20000000000005" fy="0" gradientTransform="matrix(0.0048, -0.0026, 0.0013, 0.0022, -27.75, 46.15)" gradientUnits="userSpaceOnUse" id="gradient7" r="819.2" spreadMethod="pad">
      <stop offset="0.0" stop-color="#000000"/>
      <stop offset="0.984313725490196" stop-color="#000000" stop-opacity="0.0"/>
    </radialGradient>
    <radialGradient cx="0" cy="0" fx="435.20000000000005" fy="0" gradientTransform="matrix(0.0048, -0.0026, 0.0013, 0.0022, -25.95, 49.7)" gradientUnits="userSpaceOnUse" id="gradient8" r="819.2" spreadMethod="pad">
      <stop offset="0.0" stop-color="#000000"/>
      <stop offset="0.984313725490196" stop-color="#000000" stop-opacity="0.0"/>
    </radialGradient>
    <radialGradient cx="0" cy="0" fx="435.20000000000005" fy="0" gradientTransform="matrix(0.0048, -0.0026, 0.0013, 0.0022, -23.5, 46.85)" gradientUnits="userSpaceOnUse" id="gradient9" r="819.2" spreadMethod="pad">
      <stop offset="0.0" stop-color="#000000"/>
      <stop offset="0.984313725490196" stop-color="#000000" stop-opacity="0.0"/>
    </radialGradient>
    <radialGradient cx="0" cy="0" fx="435.20000000000005" fy="0" gradientTransform="matrix(0.0048, -0.0026, 0.0013, 0.0022, -21.7, 50.4)" gradientUnits="userSpaceOnUse" id="gradient10" r="819.2" spreadMethod="pad">
      <stop offset="0.0" stop-color="#000000"/>
      <stop offset="0.984313725490196" stop-color="#000000" stop-opacity="0.0"/>
    </radialGradient>
    <radialGradient cx="0" cy="0" gradientTransform="matrix(0.0035, -0.0128, 0.012, -3.0E-4, 16.9, 9.4)" gradientUnits="userSpaceOnUse" id="gradient11" r="819.2" spreadMethod="pad">
      <stop offset="0.0" stop-color="#ffffff" stop-opacity="0.7607843"/>
      <stop offset="0.984313725490196" stop-color="#ffffff" stop-opacity="0.0"/>
    </radialGradient>
    <radialGradient cx="0" cy="0" gradientTransform="matrix(0.0014, -0.0108, 0.0126, 4.0E-4, 16.35, 10.2)" gradientUnits="userSpaceOnUse" id="gradient12" r="819.2" spreadMethod="pad">
      <stop offset="0.0" stop-color="#ffffff" stop-opacity="0.7607843"/>
      <stop offset="0.984313725490196" stop-color="#ffffff" stop-opacity="0.0"/>
    </radialGradient>
    <radialGradient cx="0" cy="0" gradientTransform="matrix(0.0014, -0.0108, 0.0126, 4.0E-4, 35.1, -1.55)" gradientUnits="userSpaceOnUse" id="gradient13" r="819.2" spreadMethod="pad">
      <stop offset="0.0" stop-color="#ffffff" stop-opacity="0.7607843"/>
      <stop offset="0.984313725490196" stop-color="#ffffff" stop-opacity="0.0"/>
    </radialGradient>
    <radialGradient cx="0" cy="0" gradientTransform="matrix(0.0035, -0.0128, 0.012, -3.0E-4, 35.65, -2.35)" gradientUnits="userSpaceOnUse" id="gradient14" r="819.2" spreadMethod="pad">
      <stop offset="0.0" stop-color="#ffffff" stop-opacity="0.7607843"/>
      <stop offset="0.984313725490196" stop-color="#ffffff" stop-opacity="0.0"/>
    </radialGradient>
    <radialGradient cx="0" cy="0" gradientTransform="matrix(0.0035, -0.0128, 0.012, -3.0E-4, 10.9, -7.35)" gradientUnits="userSpaceOnUse" id="gradient15" r="819.2" spreadMethod="pad">
      <stop offset="0.0" stop-color="#ffffff" stop-opacity="0.7607843"/>
      <stop offset="0.984313725490196" stop-color="#ffffff" stop-opacity="0.0"/>
    </radialGradient>
    <radialGradient cx="0" cy="0" gradientTransform="matrix(0.0014, -0.0108, 0.0126, 4.0E-4, 10.35, -6.55)" gradientUnits="userSpaceOnUse" id="gradient16" r="819.2" spreadMethod="pad">
      <stop offset="0.0" stop-color="#ffffff" stop-opacity="0.7607843"/>
      <stop offset="0.984313725490196" stop-color="#ffffff" stop-opacity="0.0"/>
    </radialGradient>
    <radialGradient cx="0" cy="0" gradientTransform="matrix(0.0035, -0.0128, 0.012, -3.0E-4, -7.85, 5.15)" gradientUnits="userSpaceOnUse" id="gradient17" r="819.2" spreadMethod="pad">
      <stop offset="0.0" stop-color="#ffffff" stop-opacity="0.7607843"/>
      <stop offset="0.984313725490196" stop-color="#ffffff" stop-opacity="0.0"/>
    </radialGradient>
    <radialGradient cx="0" cy="0" gradientTransform="matrix(0.0014, -0.0108, 0.0126, 4.0E-4, -8.4, 5.95)" gradientUnits="userSpaceOnUse" id="gradient18" r="819.2" spreadMethod="pad">
      <stop offset="0.0" stop-color="#ffffff" stop-opacity="0.7607843"/>
      <stop offset="0.984313725490196" stop-color="#ffffff" stop-opacity="0.0"/>
    </radialGradient>
    <radialGradient cx="0" cy="0" gradientTransform="matrix(0.0041, -0.0174, 0.0142, -0.0082, 7.4, -2.75)" gradientUnits="userSpaceOnUse" id="gradient19" r="819.2" spreadMethod="pad">
      <stop offset="0.0" stop-color="#ffffff" stop-opacity="0.7607843"/>
      <stop offset="0.984313725490196" stop-color="#ffffff" stop-opacity="0.0"/>
    </radialGradient>
    <radialGradient cx="0" cy="0" gradientTransform="matrix(0.0016, -0.0136, 0.015, -0.0077, 6.75, -1.45)" gradientUnits="userSpaceOnUse" id="gradient20" r="819.2" spreadMethod="pad">
      <stop offset="0.0" stop-color="#ffffff" stop-opacity="0.7607843"/>
      <stop offset="0.984313725490196" stop-color="#ffffff" stop-opacity="0.0"/>
    </radialGradient>
    <radialGradient cx="0" cy="0" gradientTransform="matrix(0.0014, -0.0113, 0.0126, -0.0044, 9.35, 11.65)" gradientUnits="userSpaceOnUse" id="gradient21" r="819.2" spreadMethod="pad">
      <stop offset="0.0" stop-color="#ffffff" stop-opacity="0.7607843"/>
      <stop offset="0.984313725490196" stop-color="#ffffff" stop-opacity="0.0"/>
    </radialGradient>
    <radialGradient cx="0" cy="0" gradientTransform="matrix(0.0035, -0.0141, 0.012, -0.0049, 9.9, 10.65)" gradientUnits="userSpaceOnUse" id="gradient22" r="819.2" spreadMethod="pad">
      <stop offset="0.0" stop-color="#ffffff" stop-opacity="0.7607843"/>
      <stop offset="0.984313725490196" stop-color="#ffffff" stop-opacity="0.0"/>
    </radialGradient>
    <radialGradient cx="0" cy="0" gradientTransform="matrix(0.0035, -0.0141, 0.012, -0.0049, 29.15, -3.85)" gradientUnits="userSpaceOnUse" id="gradient23" r="819.2" spreadMethod="pad">
      <stop offset="0.0" stop-color="#ffffff" stop-opacity="0.7607843"/>
      <stop offset="0.984313725490196" stop-color="#ffffff" stop-opacity="0.0"/>
    </radialGradient>
    <radialGradient cx="0" cy="0" gradientTransform="matrix(0.0014, -0.0113, 0.0126, -0.0044, 28.6, -2.85)" gradientUnits="userSpaceOnUse" id="gradient24" r="819.2" spreadMethod="pad">
      <stop offset="0.0" stop-color="#ffffff" stop-opacity="0.7607843"/>
      <stop offset="0.984313725490196" stop-color="#ffffff" stop-opacity="0.0"/>
    </radialGradient>
  </defs>
</svg>
