<?xml version="1.0" encoding="UTF-8" standalone="no"?>
<svg xmlns:xlink="http://www.w3.org/1999/xlink" height="106.85px" width="351.45px" xmlns="http://www.w3.org/2000/svg">
  <g transform="matrix(1.0, 0.0, 0.0, 1.0, 175.7, -12.9)">
    <path d="M-64.0 71.2 L-91.8 119.65 -147.65 119.75 -175.7 71.45 -175.7 57.45 -147.85 13.0 -92.0 12.9 -64.0 57.2 -64.0 71.2 M-97.65 32.7 L-142.15 32.8 -164.35 71.4 -142.0 101.9 -97.5 101.8 -75.3 71.2 -97.65 32.7" fill="#23140c" fill-rule="evenodd" stroke="none"/>
    <path d="M64.0 57.45 L91.85 14.95 147.7 14.85 175.75 57.2 175.75 71.2 147.9 119.65 92.05 119.75 64.0 71.45 64.0 57.45 M75.35 71.4 L97.7 101.9 142.2 101.8 164.4 71.2 142.05 32.7 97.55 32.8 75.35 71.4" fill="#23140c" fill-rule="evenodd" stroke="none"/>
  </g>
</svg>
