<?xml version="1.0" encoding="UTF-8" standalone="no"?>
<svg xmlns:xlink="http://www.w3.org/1999/xlink" height="9.25px" width="22.8px" xmlns="http://www.w3.org/2000/svg">
  <g transform="matrix(1.0, 0.0, 0.0, 1.0, -1.25, 0.0)">
    <path d="M16.9 6.35 L17.0 9.25 13.0 8.45 13.0 8.4 1.25 5.85 1.25 3.3 16.9 6.35" fill="#1b1b1b" fill-rule="evenodd" stroke="none"/>
    <path d="M22.65 3.0 L24.05 5.0 24.0 6.45 22.35 6.15 Q21.2 6.6 17.0 9.25 L16.9 6.35 17.0 6.35 Q19.85 4.7 22.65 3.0" fill="url(#gradient0)" fill-rule="evenodd" stroke="none"/>
    <path d="M22.65 3.0 Q19.85 4.7 17.0 6.35 L16.9 6.35 1.25 3.3 1.25 3.25 7.25 0.0 22.65 3.0" fill="url(#gradient1)" fill-rule="evenodd" stroke="none"/>
    <path d="M18.1 3.6 L17.65 3.95 16.4 4.45 16.85 3.85 Q16.85 3.6 16.25 3.5 L10.05 2.4 8.9 2.45 7.55 2.95 7.15 3.4 6.15 3.2 5.7 3.05 6.2 2.7 Q6.85 2.3 7.85 2.05 L9.5 2.0 17.65 3.45 18.1 3.6" fill="#9a9a9a" fill-rule="evenodd" stroke="none"/>
    <path d="M7.15 3.4 L7.55 2.95 8.9 2.45 10.05 2.4 16.25 3.5 Q16.85 3.6 16.85 3.85 L16.4 4.45 16.0 4.6 14.35 4.65 7.15 3.4" fill="#ffffff" fill-rule="evenodd" stroke="none"/>
    <path d="M18.1 3.6 L17.65 3.45 9.5 2.0 7.85 2.05 Q6.85 2.3 6.2 2.7 L5.7 3.05 5.55 2.7 Q5.55 2.35 6.2 1.9 L7.85 1.3 9.5 1.15 17.65 2.65 Q18.35 2.75 18.35 3.15 L18.1 3.6" fill="#000000" fill-opacity="0.5411765" fill-rule="evenodd" stroke="none"/>
  </g>
  <defs>
    <linearGradient gradientTransform="matrix(-5.0E-4, -0.0135, 0.0044, -2.0E-4, 20.9, 1.25)" gradientUnits="userSpaceOnUse" id="gradient0" spreadMethod="pad" x1="-819.2" x2="819.2">
      <stop offset="0.0" stop-color="#000000"/>
      <stop offset="1.0" stop-color="#e9e9e9"/>
    </linearGradient>
    <linearGradient gradientTransform="matrix(5.0E-4, -0.0024, 0.0044, 9.0E-4, 12.35, 2.55)" gradientUnits="userSpaceOnUse" id="gradient1" spreadMethod="pad" x1="-819.2" x2="819.2">
      <stop offset="0.5843137254901961" stop-color="#484848"/>
      <stop offset="1.0" stop-color="#8c8c8c"/>
    </linearGradient>
  </defs>
</svg>
