<?xml version="1.0" encoding="UTF-8" standalone="no"?>
<svg xmlns:xlink="http://www.w3.org/1999/xlink" height="203.2px" width="233.75px" xmlns="http://www.w3.org/2000/svg">
  <g transform="matrix(1.0, 0.0, 0.0, 1.0, 94.3, 119.7)">
    <path d="M-45.95 61.05 L-47.1 61.05 -47.1 40.75 -45.95 40.75 -45.95 61.05" fill="url(#gradient0)" fill-rule="evenodd" stroke="none"/>
    <path d="M49.2 61.05 L48.05 61.05 48.05 40.75 49.2 40.75 49.2 61.05" fill="url(#gradient1)" fill-rule="evenodd" stroke="none"/>
    <path d="M-94.3 -37.05 L-46.6 -119.7 48.85 -119.7 96.55 -37.05 48.85 45.6 -46.6 45.6 -94.3 -37.05 M-15.9 -74.2 L-23.6 -74.2 -37.25 -50.6 -60.25 -73.6 -81.35 -37.05 -59.7 0.4 -37.8 -20.2 -23.6 4.4 -16.85 4.4 -43.3 28.8 -40.1 34.35 42.35 34.35 43.35 32.6 16.8 4.4 21.75 4.4 36.95 -21.95 60.75 2.5 83.6 -37.05 63.55 -71.75 37.25 -47.4 21.75 -74.2 17.2 -74.2 45.7 -102.65 42.35 -108.5 -40.1 -108.5 -44.4 -101.1 -15.9 -74.2" fill="url(#gradient2)" fill-rule="evenodd" stroke="none"/>
    <path d="M12.25 -57.75 L25.45 -34.9 12.25 -12.1 -14.1 -12.1 -27.25 -34.9 -14.1 -57.75 12.25 -57.75" fill="url(#gradient3)" fill-rule="evenodd" stroke="none"/>
    <path d="M-94.3 -37.05 L-46.6 -119.7 48.85 -119.7 96.55 -37.05 48.85 45.6 -46.6 45.6 -94.3 -37.05 M47.7 -117.7 L-45.45 -117.7 -92.0 -37.05 -45.45 43.6 47.7 43.6 94.25 -37.05 47.7 -117.7 M-15.9 -74.2 L-23.6 -74.2 -37.25 -50.6 -60.25 -73.6 -81.35 -37.05 -59.7 0.4 -37.8 -20.2 -23.6 4.4 -16.85 4.4 -43.3 28.8 -40.1 34.35 42.35 34.35 43.35 32.6 16.8 4.4 21.75 4.4 36.95 -21.95 60.75 2.5 83.6 -37.05 63.55 -71.75 37.25 -47.4 21.75 -74.2 17.2 -74.2 45.7 -102.65 42.35 -108.5 -40.1 -108.5 -44.4 -101.1 -15.9 -74.2 M-24.75 -76.2 L-20.95 -76.2 -46.9 -100.7 -41.25 -110.5 43.5 -110.5 48.2 -102.3 22.05 -76.2 22.95 -76.2 37.75 -50.55 64.05 -74.9 85.9 -37.05 61.15 5.8 37.4 -18.65 22.95 6.4 21.45 6.4 45.85 32.3 43.5 36.35 -41.25 36.35 -45.85 28.4 -22.0 6.4 -24.75 6.4 -38.25 -17.0 -60.2 3.6 -83.65 -37.05 -60.7 -76.85 -37.7 -53.85 -24.75 -76.2" fill="url(#gradient4)" fill-rule="evenodd" stroke="none"/>
    <path d="M12.25 -57.75 L25.45 -34.9 12.25 -12.1 -14.1 -12.1 -27.25 -34.9 -14.1 -57.75 12.25 -57.75 M11.1 -14.1 L23.1 -34.9 11.1 -55.75 -12.95 -55.75 -24.95 -34.9 -12.95 -14.1 11.1 -14.1" fill="url(#gradient5)" fill-rule="evenodd" stroke="none"/>
    <path d="M139.45 68.15 L130.6 83.5 112.9 83.5 104.05 68.15 104.05 54.15 139.45 54.15 139.45 68.15" fill="#23140c" fill-rule="evenodd" stroke="none"/>
  </g>
  <defs>
    <linearGradient gradientTransform="matrix(0.0, -0.0124, -0.0124, 0.0, -46.55, 50.9)" gradientUnits="userSpaceOnUse" id="gradient0" spreadMethod="pad" x1="-819.2" x2="819.2">
      <stop offset="0.0" stop-color="#1e120b" stop-opacity="0.0"/>
      <stop offset="0.01568627450980392" stop-color="#23150d" stop-opacity="0.019607844"/>
      <stop offset="0.2235294117647059" stop-color="#653e22" stop-opacity="0.3137255"/>
      <stop offset="0.4196078431372549" stop-color="#9c5f34" stop-opacity="0.5568628"/>
      <stop offset="0.6039215686274509" stop-color="#c77a42" stop-opacity="0.7490196"/>
      <stop offset="0.7647058823529411" stop-color="#e68c4c" stop-opacity="0.8862745"/>
      <stop offset="0.9019607843137255" stop-color="#f89852" stop-opacity="0.96862745"/>
      <stop offset="1.0" stop-color="#ff9c54"/>
    </linearGradient>
    <linearGradient gradientTransform="matrix(0.0, -0.0124, -0.0124, 0.0, 48.65, 50.9)" gradientUnits="userSpaceOnUse" id="gradient1" spreadMethod="pad" x1="-819.2" x2="819.2">
      <stop offset="0.0" stop-color="#1e120b" stop-opacity="0.0"/>
      <stop offset="0.01568627450980392" stop-color="#23150d" stop-opacity="0.019607844"/>
      <stop offset="0.2235294117647059" stop-color="#653e22" stop-opacity="0.3137255"/>
      <stop offset="0.4196078431372549" stop-color="#9c5f34" stop-opacity="0.5568628"/>
      <stop offset="0.6039215686274509" stop-color="#c77a42" stop-opacity="0.7490196"/>
      <stop offset="0.7647058823529411" stop-color="#e68c4c" stop-opacity="0.8862745"/>
      <stop offset="0.9019607843137255" stop-color="#f89852" stop-opacity="0.96862745"/>
      <stop offset="1.0" stop-color="#ff9c54"/>
    </linearGradient>
    <linearGradient gradientTransform="matrix(0.0, -0.1411, -0.1411, 0.0, 1.1, -49.85)" gradientUnits="userSpaceOnUse" id="gradient2" spreadMethod="pad" x1="-819.2" x2="819.2">
      <stop offset="0.00392156862745098" stop-color="#543800"/>
      <stop offset="0.17647058823529413" stop-color="#e9ca00"/>
      <stop offset="0.43529411764705883" stop-color="#6a4a00"/>
      <stop offset="0.44313725490196076" stop-color="#836300"/>
      <stop offset="0.4627450980392157" stop-color="#af8f00"/>
      <stop offset="0.47843137254901963" stop-color="#ceaf00"/>
      <stop offset="0.49019607843137253" stop-color="#e2c300"/>
      <stop offset="0.5019607843137255" stop-color="#e9ca00"/>
      <stop offset="0.6274509803921569" stop-color="#feffbf"/>
      <stop offset="0.7607843137254902" stop-color="#e9ca00"/>
      <stop offset="0.984313725490196" stop-color="#6a4700"/>
    </linearGradient>
    <linearGradient gradientTransform="matrix(0.0, -0.1411, -0.1411, 0.0, -0.9, -49.85)" gradientUnits="userSpaceOnUse" id="gradient3" spreadMethod="pad" x1="-819.2" x2="819.2">
      <stop offset="0.00392156862745098" stop-color="#543800"/>
      <stop offset="0.17647058823529413" stop-color="#e9ca00"/>
      <stop offset="0.43529411764705883" stop-color="#6a4a00"/>
      <stop offset="0.44313725490196076" stop-color="#836300"/>
      <stop offset="0.4627450980392157" stop-color="#af8f00"/>
      <stop offset="0.47843137254901963" stop-color="#ceaf00"/>
      <stop offset="0.49019607843137253" stop-color="#e2c300"/>
      <stop offset="0.5019607843137255" stop-color="#e9ca00"/>
      <stop offset="0.6274509803921569" stop-color="#feffbf"/>
      <stop offset="0.7607843137254902" stop-color="#e9ca00"/>
      <stop offset="0.984313725490196" stop-color="#6a4700"/>
    </linearGradient>
    <linearGradient gradientTransform="matrix(0.1165, 0.0, 0.0, -0.1165, 1.1, -37.05)" gradientUnits="userSpaceOnUse" id="gradient4" spreadMethod="pad" x1="-819.2" x2="819.2">
      <stop offset="0.07450980392156863" stop-color="#543800"/>
      <stop offset="0.17647058823529413" stop-color="#e9ca00"/>
      <stop offset="0.43529411764705883" stop-color="#6a4a00"/>
      <stop offset="0.4588235294117647" stop-color="#836300"/>
      <stop offset="0.5058823529411764" stop-color="#af8f00"/>
      <stop offset="0.5490196078431373" stop-color="#ceaf00"/>
      <stop offset="0.5843137254901961" stop-color="#e2c300"/>
      <stop offset="0.6078431372549019" stop-color="#e9ca00"/>
      <stop offset="0.6431372549019608" stop-color="#e9ca00"/>
      <stop offset="0.8196078431372549" stop-color="#fff87f"/>
      <stop offset="0.8784313725490196" stop-color="#e9ca00"/>
      <stop offset="0.984313725490196" stop-color="#6a4700"/>
    </linearGradient>
    <linearGradient gradientTransform="matrix(0.0322, 0.0, 0.0, -0.0322, -0.9, -34.9)" gradientUnits="userSpaceOnUse" id="gradient5" spreadMethod="pad" x1="-819.2" x2="819.2">
      <stop offset="0.07450980392156863" stop-color="#543800"/>
      <stop offset="0.17647058823529413" stop-color="#e9ca00"/>
      <stop offset="0.43529411764705883" stop-color="#6a4a00"/>
      <stop offset="0.4588235294117647" stop-color="#836300"/>
      <stop offset="0.5058823529411764" stop-color="#af8f00"/>
      <stop offset="0.5490196078431373" stop-color="#ceaf00"/>
      <stop offset="0.5843137254901961" stop-color="#e2c300"/>
      <stop offset="0.6078431372549019" stop-color="#e9ca00"/>
      <stop offset="0.6431372549019608" stop-color="#e9ca00"/>
      <stop offset="0.8196078431372549" stop-color="#fff87f"/>
      <stop offset="0.8784313725490196" stop-color="#e9ca00"/>
      <stop offset="0.984313725490196" stop-color="#6a4700"/>
    </linearGradient>
  </defs>
</svg>
