<?xml version="1.0" encoding="UTF-8" standalone="no"?>
<svg xmlns:xlink="http://www.w3.org/1999/xlink" height="22.0px" width="15.65px" xmlns="http://www.w3.org/2000/svg">
  <g transform="matrix(1.0, 0.0, 0.0, 1.0, 0.0, -0.65)">
    <path d="M3.6 1.5 L4.0 1.15 5.1 0.8 Q6.5 0.5 8.2 0.8 10.85 1.35 12.65 3.05 14.65 5.0 14.6 7.55 L14.6 10.6 14.6 11.55 15.65 10.85 15.65 21.3 13.1 22.65 13.1 21.65 13.1 20.8 13.1 12.45 13.1 8.25 Q13.15 5.7 11.15 3.75 9.35 2.05 6.7 1.5 5.0 1.2 3.6 1.5" fill="url(#gradient0)" fill-rule="evenodd" stroke="none"/>
    <path d="M14.6 10.6 L15.65 10.85 14.6 11.55 14.6 10.6" fill="#707070" fill-rule="evenodd" stroke="none"/>
    <path d="M13.1 22.65 L0.0 20.1 0.0 5.7 Q0.05 3.1 2.15 2.0 L3.15 1.6 3.6 1.5 Q5.0 1.2 6.7 1.5 9.35 2.05 11.15 3.75 13.15 5.7 13.1 8.25 L13.1 12.45 13.1 20.8 13.1 21.65 13.1 22.65" fill="url(#gradient1)" fill-rule="evenodd" stroke="none"/>
    <path d="M11.75 9.45 L11.55 10.35 11.4 10.6 11.35 10.65 10.75 11.0 9.5 11.75 7.0 8.9 8.8 7.75 9.25 7.45 9.65 7.2 10.3 7.15 Q10.9 7.35 11.35 7.95 11.75 8.65 11.75 9.45" fill="url(#gradient2)" fill-rule="evenodd" stroke="none"/>
    <path d="M9.5 5.8 L9.3 6.7 9.15 6.95 9.1 7.0 8.5 7.35 7.25 8.1 4.75 5.25 6.55 4.1 7.0 3.8 7.4 3.55 8.05 3.5 Q8.65 3.7 9.1 4.3 9.5 5.0 9.5 5.8" fill="url(#gradient3)" fill-rule="evenodd" stroke="none"/>
    <path d="M11.75 15.15 L11.55 16.05 11.4 16.3 11.35 16.35 10.75 16.7 9.5 17.45 7.0 14.6 8.8 13.45 9.25 13.15 9.65 12.9 10.3 12.85 Q10.9 13.05 11.35 13.65 11.75 14.35 11.75 15.15" fill="url(#gradient4)" fill-rule="evenodd" stroke="none"/>
  </g>
  <defs>
    <linearGradient gradientTransform="matrix(-0.0084, -0.0153, 0.0052, -0.0029, 12.75, 4.75)" gradientUnits="userSpaceOnUse" id="gradient0" spreadMethod="pad" x1="-819.2" x2="819.2">
      <stop offset="0.0" stop-color="#1e1e1e"/>
      <stop offset="0.4196078431372549" stop-color="#777777"/>
      <stop offset="1.0" stop-color="#202020"/>
    </linearGradient>
    <linearGradient gradientTransform="matrix(0.0078, -0.0016, 0.0026, 0.0127, 9.65, 10.9)" gradientUnits="userSpaceOnUse" id="gradient1" spreadMethod="pad" x1="-819.2" x2="819.2">
      <stop offset="0.06666666666666667" stop-color="#151515"/>
      <stop offset="0.984313725490196" stop-color="#565656"/>
    </linearGradient>
    <linearGradient gradientTransform="matrix(0.0025, -0.0014, 0.0014, 0.0025, 10.1, 9.25)" gradientUnits="userSpaceOnUse" id="gradient2" spreadMethod="pad" x1="-819.2" x2="819.2">
      <stop offset="0.06666666666666667" stop-color="#2b2b2b"/>
      <stop offset="0.984313725490196" stop-color="#565656"/>
    </linearGradient>
    <linearGradient gradientTransform="matrix(0.0025, -0.0014, 0.0014, 0.0025, 7.85, 5.6)" gradientUnits="userSpaceOnUse" id="gradient3" spreadMethod="pad" x1="-819.2" x2="819.2">
      <stop offset="0.06666666666666667" stop-color="#222222"/>
      <stop offset="0.984313725490196" stop-color="#565656"/>
    </linearGradient>
    <linearGradient gradientTransform="matrix(0.0025, -0.0014, 0.0014, 0.0025, 10.1, 14.95)" gradientUnits="userSpaceOnUse" id="gradient4" spreadMethod="pad" x1="-819.2" x2="819.2">
      <stop offset="0.06666666666666667" stop-color="#242424"/>
      <stop offset="0.984313725490196" stop-color="#565656"/>
    </linearGradient>
  </defs>
</svg>
