<?xml version="1.0" encoding="UTF-8" standalone="no"?>
<svg xmlns:xlink="http://www.w3.org/1999/xlink" height="201.35px" width="390.45px" xmlns="http://www.w3.org/2000/svg">
  <g transform="matrix(1.0, 0.0, 0.0, 1.0, 195.2, 98.65)">
    <path d="M-101.2 56.35 L-102.2 56.35 -102.2 40.6 -101.2 40.6 -101.2 56.35" fill="url(#gradient0)" fill-rule="evenodd" stroke="none"/>
    <path d="M-194.2 56.35 L-195.2 56.35 -195.2 40.6 -194.2 40.6 -194.2 56.35" fill="url(#gradient1)" fill-rule="evenodd" stroke="none"/>
    <path d="M-195.2 -52.7 L-101.2 -52.7 -101.2 41.35 -195.2 41.35 -195.2 -52.7 M-139.35 9.65 L-130.5 -5.65 -139.35 -21.0 -157.05 -21.0 -165.9 -5.65 -157.05 9.65 -139.35 9.65" fill="url(#gradient2)" fill-rule="evenodd" stroke="none"/>
    <path d="M157.1 9.65 L165.95 -5.65 157.1 -21.0 139.4 -21.0 130.55 -5.65 139.4 9.65 157.1 9.65 M101.25 -52.7 L195.25 -52.7 195.25 41.35 101.25 41.35 101.25 -52.7" fill="url(#gradient3)" fill-rule="evenodd" stroke="none"/>
    <path d="M-103.2 -50.7 L-193.2 -50.7 -193.2 39.35 -103.2 39.35 -103.2 -50.7 M-101.2 -52.7 L-101.2 41.35 -195.2 41.35 -195.2 -52.7 -101.2 -52.7 M-138.2 -23.0 L-128.2 -5.65 -138.2 11.65 -158.25 11.65 -168.25 -5.65 -158.25 -23.0 -138.2 -23.0 M-139.35 9.65 L-130.5 -5.65 -139.35 -21.0 -157.05 -21.0 -165.9 -5.65 -157.05 9.65 -139.35 9.65" fill="url(#gradient4)" fill-rule="evenodd" stroke="none"/>
    <path d="M157.1 9.65 L165.95 -5.65 157.1 -21.0 139.4 -21.0 130.55 -5.65 139.4 9.65 157.1 9.65 M158.25 -23.0 L168.3 -5.65 158.25 11.65 138.25 11.65 128.25 -5.65 138.25 -23.0 158.25 -23.0 M193.25 -50.7 L103.25 -50.7 103.25 39.35 193.25 39.35 193.25 -50.7 M101.25 -52.7 L195.25 -52.7 195.25 41.35 101.25 41.35 101.25 -52.7" fill="url(#gradient5)" fill-rule="evenodd" stroke="none"/>
    <path d="M30.25 -7.0 L29.15 7.0 15.45 30.75 -12.0 30.75 -25.7 7.0 -26.6 -7.0 30.25 -7.0" fill="#23140c" fill-rule="evenodd" stroke="none"/>
    <path d="M83.65 -50.85 L83.65 54.85 0.75 102.7 -82.1 54.85 -82.1 -50.85 0.75 -98.65 83.65 -50.85 M74.2 -35.35 L72.85 -36.15 41.45 -5.95 25.35 -33.85 20.6 -33.85 20.6 -47.85 41.2 -54.4 Q21.0 -66.05 0.75 -77.75 L-37.15 -55.85 -13.85 -47.85 -13.85 -33.85 -21.9 -33.85 -36.1 -9.3 -65.85 -39.25 -72.65 -35.35 -72.65 39.4 -68.1 42.05 -36.65 22.35 -21.9 33.9 -14.85 33.9 -14.85 47.9 -32.35 64.05 0.75 81.8 34.65 63.6 20.15 47.9 20.15 33.9 27.15 35.65 41.15 20.5 69.6 42.05 74.2 39.4 74.2 -35.35" fill="#23140c" fill-rule="evenodd" stroke="none"/>
  </g>
  <defs>
    <linearGradient gradientTransform="matrix(0.0, -0.0096, -0.0096, 0.0, -101.7, 48.45)" gradientUnits="userSpaceOnUse" id="gradient0" spreadMethod="pad" x1="-819.2" x2="819.2">
      <stop offset="0.0" stop-color="#1e120b" stop-opacity="0.0"/>
      <stop offset="0.01568627450980392" stop-color="#23150d" stop-opacity="0.019607844"/>
      <stop offset="0.2235294117647059" stop-color="#653e22" stop-opacity="0.3137255"/>
      <stop offset="0.4196078431372549" stop-color="#9c5f34" stop-opacity="0.5568628"/>
      <stop offset="0.6039215686274509" stop-color="#c77a42" stop-opacity="0.7490196"/>
      <stop offset="0.7647058823529411" stop-color="#e68c4c" stop-opacity="0.8862745"/>
      <stop offset="0.9019607843137255" stop-color="#f89852" stop-opacity="0.96862745"/>
      <stop offset="1.0" stop-color="#ff9c54"/>
    </linearGradient>
    <linearGradient gradientTransform="matrix(0.0, -0.0096, -0.0096, 0.0, -194.7, 48.45)" gradientUnits="userSpaceOnUse" id="gradient1" spreadMethod="pad" x1="-819.2" x2="819.2">
      <stop offset="0.0" stop-color="#1e120b" stop-opacity="0.0"/>
      <stop offset="0.01568627450980392" stop-color="#23150d" stop-opacity="0.019607844"/>
      <stop offset="0.2235294117647059" stop-color="#653e22" stop-opacity="0.3137255"/>
      <stop offset="0.4196078431372549" stop-color="#9c5f34" stop-opacity="0.5568628"/>
      <stop offset="0.6039215686274509" stop-color="#c77a42" stop-opacity="0.7490196"/>
      <stop offset="0.7647058823529411" stop-color="#e68c4c" stop-opacity="0.8862745"/>
      <stop offset="0.9019607843137255" stop-color="#f89852" stop-opacity="0.96862745"/>
      <stop offset="1.0" stop-color="#ff9c54"/>
    </linearGradient>
    <linearGradient gradientTransform="matrix(0.0, -0.1429, -0.1429, 0.0, -148.2, -6.95)" gradientUnits="userSpaceOnUse" id="gradient2" spreadMethod="pad" x1="-819.2" x2="819.2">
      <stop offset="0.00392156862745098" stop-color="#543800"/>
      <stop offset="0.17647058823529413" stop-color="#e9ca00"/>
      <stop offset="0.43529411764705883" stop-color="#6a4a00"/>
      <stop offset="0.44313725490196076" stop-color="#836300"/>
      <stop offset="0.4627450980392157" stop-color="#af8f00"/>
      <stop offset="0.47843137254901963" stop-color="#ceaf00"/>
      <stop offset="0.49019607843137253" stop-color="#e2c300"/>
      <stop offset="0.5019607843137255" stop-color="#e9ca00"/>
      <stop offset="0.6274509803921569" stop-color="#feffbf"/>
      <stop offset="0.7607843137254902" stop-color="#e9ca00"/>
      <stop offset="0.984313725490196" stop-color="#6a4700"/>
    </linearGradient>
    <linearGradient gradientTransform="matrix(0.0, -0.1429, -0.1429, 0.0, 148.25, -6.95)" gradientUnits="userSpaceOnUse" id="gradient3" spreadMethod="pad" x1="-819.2" x2="819.2">
      <stop offset="0.00392156862745098" stop-color="#543800"/>
      <stop offset="0.17647058823529413" stop-color="#e9ca00"/>
      <stop offset="0.43529411764705883" stop-color="#6a4a00"/>
      <stop offset="0.44313725490196076" stop-color="#836300"/>
      <stop offset="0.4627450980392157" stop-color="#af8f00"/>
      <stop offset="0.47843137254901963" stop-color="#ceaf00"/>
      <stop offset="0.49019607843137253" stop-color="#e2c300"/>
      <stop offset="0.5019607843137255" stop-color="#e9ca00"/>
      <stop offset="0.6274509803921569" stop-color="#feffbf"/>
      <stop offset="0.7607843137254902" stop-color="#e9ca00"/>
      <stop offset="0.984313725490196" stop-color="#6a4700"/>
    </linearGradient>
    <linearGradient gradientTransform="matrix(0.0574, 0.0, 0.0, -0.0574, -148.2, -5.65)" gradientUnits="userSpaceOnUse" id="gradient4" spreadMethod="pad" x1="-819.2" x2="819.2">
      <stop offset="0.07450980392156863" stop-color="#543800"/>
      <stop offset="0.17647058823529413" stop-color="#e9ca00"/>
      <stop offset="0.43529411764705883" stop-color="#6a4a00"/>
      <stop offset="0.4588235294117647" stop-color="#836300"/>
      <stop offset="0.5058823529411764" stop-color="#af8f00"/>
      <stop offset="0.5490196078431373" stop-color="#ceaf00"/>
      <stop offset="0.5843137254901961" stop-color="#e2c300"/>
      <stop offset="0.6078431372549019" stop-color="#e9ca00"/>
      <stop offset="0.6431372549019608" stop-color="#e9ca00"/>
      <stop offset="0.8196078431372549" stop-color="#fff87f"/>
      <stop offset="0.8784313725490196" stop-color="#e9ca00"/>
      <stop offset="0.984313725490196" stop-color="#6a4700"/>
    </linearGradient>
    <linearGradient gradientTransform="matrix(0.0574, 0.0, 0.0, -0.0574, 148.25, -5.65)" gradientUnits="userSpaceOnUse" id="gradient5" spreadMethod="pad" x1="-819.2" x2="819.2">
      <stop offset="0.07450980392156863" stop-color="#543800"/>
      <stop offset="0.17647058823529413" stop-color="#e9ca00"/>
      <stop offset="0.43529411764705883" stop-color="#6a4a00"/>
      <stop offset="0.4588235294117647" stop-color="#836300"/>
      <stop offset="0.5058823529411764" stop-color="#af8f00"/>
      <stop offset="0.5490196078431373" stop-color="#ceaf00"/>
      <stop offset="0.5843137254901961" stop-color="#e2c300"/>
      <stop offset="0.6078431372549019" stop-color="#e9ca00"/>
      <stop offset="0.6431372549019608" stop-color="#e9ca00"/>
      <stop offset="0.8196078431372549" stop-color="#fff87f"/>
      <stop offset="0.8784313725490196" stop-color="#e9ca00"/>
      <stop offset="0.984313725490196" stop-color="#6a4700"/>
    </linearGradient>
  </defs>
</svg>
