<?xml version="1.0" encoding="UTF-8" standalone="no"?>
<svg xmlns:xlink="http://www.w3.org/1999/xlink" height="191.35px" width="165.75px" xmlns="http://www.w3.org/2000/svg">
  <g transform="matrix(1.0, 0.0, 0.0, 1.0, 82.1, 102.65)">
    <path d="M15.45 -30.75 L29.15 -7.0 15.45 16.75 -12.0 16.75 -25.7 -7.0 -12.0 -30.75 15.45 -30.75" fill="url(#gradient0)" fill-rule="evenodd" stroke="none"/>
    <path d="M83.65 -54.85 L83.65 40.85 0.75 88.7 -82.1 40.85 -82.1 -54.85 0.75 -102.65 83.65 -54.85 M74.2 -49.35 L72.85 -50.15 41.45 -19.95 25.35 -47.85 20.6 -47.85 41.2 -68.4 Q21.0 -80.05 0.75 -91.75 L-37.15 -69.85 -13.85 -47.85 -21.9 -47.85 -36.1 -23.3 -65.85 -53.25 -72.65 -49.35 -72.65 35.4 -68.1 38.05 -36.65 8.35 -21.9 33.9 -14.85 33.9 -38.1 55.35 0.75 77.8 39.85 55.25 20.15 33.9 25.35 33.9 41.15 6.5 69.6 38.05 74.2 35.4 74.2 -49.35" fill="url(#gradient1)" fill-rule="evenodd" stroke="none"/>
    <path d="M15.45 -30.75 L-12.0 -30.75 -25.7 -7.0 -12.0 16.75 15.45 16.75 29.15 -7.0 15.45 -30.75 Z" fill="none" stroke="url(#gradient2)" stroke-linecap="butt" stroke-linejoin="miter" stroke-width="2.0"/>
    <path d="M81.65 39.7 L81.65 -53.65 0.75 -100.35 -80.1 -53.65 -80.1 39.7 0.75 86.4 81.65 39.7 M83.65 -54.85 L83.65 40.85 0.75 88.7 -82.1 40.85 -82.1 -54.85 0.75 -102.65 83.65 -54.85 M72.55 -52.6 L76.2 -50.5 76.2 36.55 69.2 40.6 41.5 9.9 26.5 35.9 24.75 35.9 43.0 55.7 0.75 80.1 -41.45 55.7 -20.0 35.9 -23.05 35.9 -37.1 11.55 -67.8 40.5 -74.65 36.55 -74.65 -50.5 -65.55 -55.75 -36.5 -26.55 -23.05 -49.85 -18.9 -49.85 -40.5 -70.25 0.75 -94.05 44.45 -68.85 25.45 -49.85 26.5 -49.85 41.9 -23.2 72.55 -52.6 M74.2 -49.35 L72.85 -50.15 41.45 -19.95 25.35 -47.85 20.6 -47.85 41.2 -68.4 Q21.0 -80.05 0.75 -91.75 L-37.15 -69.85 -13.85 -47.85 -21.9 -47.85 -36.1 -23.3 -65.85 -53.25 -72.65 -49.35 -72.65 35.4 -68.1 38.05 -36.65 8.35 -21.9 33.9 -14.85 33.9 -38.1 55.35 0.75 77.8 39.85 55.25 20.15 33.9 25.35 33.9 41.15 6.5 69.6 38.05 74.2 35.4 74.2 -49.35" fill="url(#gradient3)" fill-rule="evenodd" stroke="none"/>
  </g>
  <defs>
    <linearGradient gradientTransform="matrix(0.0, -0.1356, -0.1356, 0.0, 1.7, -11.8)" gradientUnits="userSpaceOnUse" id="gradient0" spreadMethod="pad" x1="-819.2" x2="819.2">
      <stop offset="0.00392156862745098" stop-color="#543800"/>
      <stop offset="0.17647058823529413" stop-color="#e9ca00"/>
      <stop offset="0.43529411764705883" stop-color="#6a4a00"/>
      <stop offset="0.44313725490196076" stop-color="#836300"/>
      <stop offset="0.4627450980392157" stop-color="#af8f00"/>
      <stop offset="0.47843137254901963" stop-color="#ceaf00"/>
      <stop offset="0.49019607843137253" stop-color="#e2c300"/>
      <stop offset="0.5019607843137255" stop-color="#e9ca00"/>
      <stop offset="0.6274509803921569" stop-color="#feffbf"/>
      <stop offset="0.7607843137254902" stop-color="#e9ca00"/>
      <stop offset="0.984313725490196" stop-color="#6a4700"/>
    </linearGradient>
    <linearGradient gradientTransform="matrix(0.0, -0.1356, -0.1356, 0.0, 0.75, -11.8)" gradientUnits="userSpaceOnUse" id="gradient1" spreadMethod="pad" x1="-819.2" x2="819.2">
      <stop offset="0.00392156862745098" stop-color="#543800"/>
      <stop offset="0.17647058823529413" stop-color="#e9ca00"/>
      <stop offset="0.43529411764705883" stop-color="#6a4a00"/>
      <stop offset="0.44313725490196076" stop-color="#836300"/>
      <stop offset="0.4627450980392157" stop-color="#af8f00"/>
      <stop offset="0.47843137254901963" stop-color="#ceaf00"/>
      <stop offset="0.49019607843137253" stop-color="#e2c300"/>
      <stop offset="0.5019607843137255" stop-color="#e9ca00"/>
      <stop offset="0.6274509803921569" stop-color="#feffbf"/>
      <stop offset="0.7607843137254902" stop-color="#e9ca00"/>
      <stop offset="0.984313725490196" stop-color="#6a4700"/>
    </linearGradient>
    <linearGradient gradientTransform="matrix(0.0349, 0.0, 0.0, -0.0349, 1.7, -7.0)" gradientUnits="userSpaceOnUse" id="gradient2" spreadMethod="pad" x1="-819.2" x2="819.2">
      <stop offset="0.07450980392156863" stop-color="#543800"/>
      <stop offset="0.17647058823529413" stop-color="#e9ca00"/>
      <stop offset="0.43529411764705883" stop-color="#6a4a00"/>
      <stop offset="0.4588235294117647" stop-color="#836300"/>
      <stop offset="0.5058823529411764" stop-color="#af8f00"/>
      <stop offset="0.5490196078431373" stop-color="#ceaf00"/>
      <stop offset="0.5843137254901961" stop-color="#e2c300"/>
      <stop offset="0.6078431372549019" stop-color="#e9ca00"/>
      <stop offset="0.6431372549019608" stop-color="#e9ca00"/>
      <stop offset="0.8196078431372549" stop-color="#fff87f"/>
      <stop offset="0.8784313725490196" stop-color="#e9ca00"/>
      <stop offset="0.984313725490196" stop-color="#6a4700"/>
    </linearGradient>
    <linearGradient gradientTransform="matrix(0.1011, 0.0, 0.0, -0.1011, 0.75, -7.0)" gradientUnits="userSpaceOnUse" id="gradient3" spreadMethod="pad" x1="-819.2" x2="819.2">
      <stop offset="0.07450980392156863" stop-color="#543800"/>
      <stop offset="0.17647058823529413" stop-color="#e9ca00"/>
      <stop offset="0.43529411764705883" stop-color="#6a4a00"/>
      <stop offset="0.4588235294117647" stop-color="#836300"/>
      <stop offset="0.5058823529411764" stop-color="#af8f00"/>
      <stop offset="0.5490196078431373" stop-color="#ceaf00"/>
      <stop offset="0.5843137254901961" stop-color="#e2c300"/>
      <stop offset="0.6078431372549019" stop-color="#e9ca00"/>
      <stop offset="0.6431372549019608" stop-color="#e9ca00"/>
      <stop offset="0.8196078431372549" stop-color="#fff87f"/>
      <stop offset="0.8784313725490196" stop-color="#e9ca00"/>
      <stop offset="0.984313725490196" stop-color="#6a4700"/>
    </linearGradient>
  </defs>
</svg>
