<?xml version="1.0" encoding="UTF-8" standalone="no"?>
<svg xmlns:xlink="http://www.w3.org/1999/xlink" height="62.1px" width="26.7px" xmlns="http://www.w3.org/2000/svg">
  <g transform="matrix(1.0, 0.0, 0.0, 1.0, 0.0, -0.45)">
    <path d="M26.7 0.45 L24.3 2.55 21.9 4.75 18.75 19.6 Q18.5 34.65 18.6 34.45 L19.15 52.95 18.85 62.05 0.0 62.55 1.0 52.2 Q3.1 53.9 6.2 53.9 11.0 53.2 12.2 52.35 L14.15 51.15 15.8 49.8 Q16.7 48.4 16.7 44.9 16.7 42.75 15.5 40.85 13.65 37.95 9.7 37.95 5.1 37.95 2.2 39.8 L5.7 2.95 8.15 1.75 26.7 0.45" fill="#000000" fill-rule="evenodd" stroke="none"/>
  </g>
</svg>
