<?xml version="1.0" encoding="UTF-8" standalone="no"?>
<svg xmlns:xlink="http://www.w3.org/1999/xlink" height="253.05px" width="259.5px" xmlns="http://www.w3.org/2000/svg">
  <g transform="matrix(1.0, 0.0, 0.0, 1.0, 129.75, 119.5)">
    <path d="M129.65 -81.0 L129.65 88.65 -129.25 88.65 -129.25 -81.0 129.65 -81.0 M-119.55 -63.95 L-119.55 70.0 120.0 70.0 120.0 -63.95 -119.55 -63.95" fill="#23140c" fill-rule="evenodd" stroke="none"/>
    <path d="M129.75 133.55 L-129.35 133.55 -129.35 103.9 129.75 103.9 129.75 133.55" fill="#23140c" fill-rule="evenodd" stroke="none"/>
    <path d="M-129.75 -119.5 L128.95 -119.5 128.95 -89.9 -129.75 -89.9 -129.75 -119.5" fill="#23140c" fill-rule="evenodd" stroke="none"/>
    <path d="M-128.25 133.55 L-129.25 133.55 -129.25 119.0 -128.25 119.0 -128.25 133.55" fill="url(#gradient0)" fill-rule="evenodd" stroke="none"/>
    <path d="M129.75 133.55 L128.75 133.55 128.75 119.0 129.75 119.0 129.75 133.55" fill="url(#gradient1)" fill-rule="evenodd" stroke="none"/>
  </g>
  <defs>
    <linearGradient gradientTransform="matrix(0.0, -0.0089, -0.0089, 0.0, -128.75, 126.25)" gradientUnits="userSpaceOnUse" id="gradient0" spreadMethod="pad" x1="-819.2" x2="819.2">
      <stop offset="0.0" stop-color="#1e120b" stop-opacity="0.0"/>
      <stop offset="0.01568627450980392" stop-color="#23150d" stop-opacity="0.019607844"/>
      <stop offset="0.2235294117647059" stop-color="#653e22" stop-opacity="0.3137255"/>
      <stop offset="0.4196078431372549" stop-color="#9c5f34" stop-opacity="0.5568628"/>
      <stop offset="0.6039215686274509" stop-color="#c77a42" stop-opacity="0.7490196"/>
      <stop offset="0.7647058823529411" stop-color="#e68c4c" stop-opacity="0.8862745"/>
      <stop offset="0.9019607843137255" stop-color="#f89852" stop-opacity="0.96862745"/>
      <stop offset="1.0" stop-color="#ff9c54"/>
    </linearGradient>
    <linearGradient gradientTransform="matrix(0.0, -0.0089, -0.0089, 0.0, 129.25, 126.25)" gradientUnits="userSpaceOnUse" id="gradient1" spreadMethod="pad" x1="-819.2" x2="819.2">
      <stop offset="0.0" stop-color="#1e120b" stop-opacity="0.0"/>
      <stop offset="0.01568627450980392" stop-color="#23150d" stop-opacity="0.019607844"/>
      <stop offset="0.2235294117647059" stop-color="#653e22" stop-opacity="0.3137255"/>
      <stop offset="0.4196078431372549" stop-color="#9c5f34" stop-opacity="0.5568628"/>
      <stop offset="0.6039215686274509" stop-color="#c77a42" stop-opacity="0.7490196"/>
      <stop offset="0.7647058823529411" stop-color="#e68c4c" stop-opacity="0.8862745"/>
      <stop offset="0.9019607843137255" stop-color="#f89852" stop-opacity="0.96862745"/>
      <stop offset="1.0" stop-color="#ff9c54"/>
    </linearGradient>
  </defs>
</svg>
