<?xml version="1.0" encoding="UTF-8" standalone="no"?>
<svg xmlns:xlink="http://www.w3.org/1999/xlink" height="115.2px" width="145.95px" xmlns="http://www.w3.org/2000/svg">
  <g transform="matrix(1.0, 0.0, 0.0, 1.0, 52.65, 67.05)">
    <path d="M-10.45 -23.75 L6.05 -23.75 14.3 -9.45 6.05 4.85 -10.45 4.85 -18.7 -9.45 -10.45 -23.75" fill="url(#gradient0)" fill-rule="evenodd" stroke="none"/>
    <path d="M47.15 -38.25 L47.15 19.35 -2.75 48.15 -52.65 19.35 -52.65 -38.25 -2.75 -67.05 47.15 -38.25 M-2.75 -60.45 L-25.6 -47.3 -11.55 -34.05 -16.4 -34.05 -24.95 -19.25 -42.85 -37.3 -46.95 -34.95 -46.95 16.05 -44.2 17.65 -25.3 -0.25 -16.4 15.15 -12.15 15.15 -26.15 28.05 -2.75 41.6 20.75 28.0 8.9 15.15 12.0 15.15 21.55 -1.3 38.65 17.65 41.45 16.05 41.45 -34.95 40.6 -35.4 21.75 -17.25 12.0 -34.05 9.2 -34.05 21.55 -46.4 -2.75 -60.45" fill="url(#gradient1)" fill-rule="evenodd" stroke="none"/>
    <path d="M-10.45 -23.75 L-18.7 -9.45 -10.45 4.85 6.05 4.85 14.3 -9.45 6.05 -23.75 -10.45 -23.75 Z" fill="none" stroke="url(#gradient2)" stroke-linecap="butt" stroke-linejoin="miter" stroke-width="2.0"/>
    <path d="M47.15 -38.25 L47.15 19.35 -2.75 48.15 -52.65 19.35 -52.65 -38.25 -2.75 -67.05 47.15 -38.25 M-2.75 46.75 L45.9 18.65 45.9 -37.55 -2.75 -65.65 -51.45 -37.55 -51.45 18.65 -2.75 46.75 M-2.75 -60.45 L-25.6 -47.3 -11.55 -34.05 -16.4 -34.05 -24.95 -19.25 -42.85 -37.3 -46.95 -34.95 -46.95 16.05 -44.2 17.65 -25.3 -0.25 -16.4 15.15 -12.15 15.15 -26.15 28.05 -2.75 41.6 20.75 28.0 8.9 15.15 12.0 15.15 21.55 -1.3 38.65 17.65 41.45 16.05 41.45 -34.95 40.6 -35.4 21.75 -17.25 12.0 -34.05 9.2 -34.05 21.55 -46.4 -2.75 -60.45 M-27.6 -47.5 L-2.75 -61.85 23.55 -46.7 12.1 -35.25 12.7 -35.25 22.0 -19.2 40.45 -36.9 42.65 -35.65 42.65 16.75 38.45 19.2 21.75 0.7 12.7 16.35 11.65 16.35 22.65 28.3 -2.75 42.95 -28.15 28.3 -15.25 16.35 -17.1 16.35 -25.55 1.7 -44.05 19.15 -48.15 16.75 -48.15 -35.65 -42.65 -38.8 -25.2 -21.25 -17.1 -35.25 -14.6 -35.25 -27.6 -47.5" fill="url(#gradient3)" fill-rule="evenodd" stroke="none"/>
    <path d="M78.05 -16.75 L93.3 -7.95 93.3 9.6 78.05 18.4 62.85 9.6 62.85 -7.95 78.05 -16.75" fill="#23140c" fill-rule="evenodd" stroke="none"/>
    <path d="M93.3 -2.5 L78.05 6.3 62.85 -2.5 62.85 -20.05 78.05 -28.85 93.3 -20.05 93.3 -2.5" fill="url(#gradient4)" fill-rule="evenodd" stroke="none"/>
    <path d="M91.3 -18.9 L78.05 -26.55 64.85 -18.9 64.85 -3.65 78.05 3.95 91.3 -3.65 91.3 -18.9 M93.3 -20.05 L93.3 -2.5 78.05 6.3 62.85 -2.5 62.85 -20.05 78.05 -28.85 93.3 -20.05" fill="url(#gradient5)" fill-rule="evenodd" stroke="none"/>
  </g>
  <defs>
    <linearGradient gradientTransform="matrix(0.0, -0.0816, -0.0816, 0.0, -2.2, -12.35)" gradientUnits="userSpaceOnUse" id="gradient0" spreadMethod="pad" x1="-819.2" x2="819.2">
      <stop offset="0.00392156862745098" stop-color="#543800"/>
      <stop offset="0.17647058823529413" stop-color="#e9ca00"/>
      <stop offset="0.43529411764705883" stop-color="#6a4a00"/>
      <stop offset="0.44313725490196076" stop-color="#836300"/>
      <stop offset="0.4627450980392157" stop-color="#af8f00"/>
      <stop offset="0.47843137254901963" stop-color="#ceaf00"/>
      <stop offset="0.49019607843137253" stop-color="#e2c300"/>
      <stop offset="0.5019607843137255" stop-color="#e9ca00"/>
      <stop offset="0.6274509803921569" stop-color="#feffbf"/>
      <stop offset="0.7607843137254902" stop-color="#e9ca00"/>
      <stop offset="0.984313725490196" stop-color="#6a4700"/>
    </linearGradient>
    <linearGradient gradientTransform="matrix(0.0, -0.0816, -0.0816, 0.0, -2.75, -12.35)" gradientUnits="userSpaceOnUse" id="gradient1" spreadMethod="pad" x1="-819.2" x2="819.2">
      <stop offset="0.00392156862745098" stop-color="#543800"/>
      <stop offset="0.17647058823529413" stop-color="#e9ca00"/>
      <stop offset="0.43529411764705883" stop-color="#6a4a00"/>
      <stop offset="0.44313725490196076" stop-color="#836300"/>
      <stop offset="0.4627450980392157" stop-color="#af8f00"/>
      <stop offset="0.47843137254901963" stop-color="#ceaf00"/>
      <stop offset="0.49019607843137253" stop-color="#e2c300"/>
      <stop offset="0.5019607843137255" stop-color="#e9ca00"/>
      <stop offset="0.6274509803921569" stop-color="#feffbf"/>
      <stop offset="0.7607843137254902" stop-color="#e9ca00"/>
      <stop offset="0.984313725490196" stop-color="#6a4700"/>
    </linearGradient>
    <linearGradient gradientTransform="matrix(0.0215, 0.0, 0.0, -0.0215, -2.2, -9.45)" gradientUnits="userSpaceOnUse" id="gradient2" spreadMethod="pad" x1="-819.2" x2="819.2">
      <stop offset="0.07450980392156863" stop-color="#543800"/>
      <stop offset="0.17647058823529413" stop-color="#e9ca00"/>
      <stop offset="0.43529411764705883" stop-color="#6a4a00"/>
      <stop offset="0.4588235294117647" stop-color="#836300"/>
      <stop offset="0.5058823529411764" stop-color="#af8f00"/>
      <stop offset="0.5490196078431373" stop-color="#ceaf00"/>
      <stop offset="0.5843137254901961" stop-color="#e2c300"/>
      <stop offset="0.6078431372549019" stop-color="#e9ca00"/>
      <stop offset="0.6431372549019608" stop-color="#e9ca00"/>
      <stop offset="0.8196078431372549" stop-color="#fff87f"/>
      <stop offset="0.8784313725490196" stop-color="#e9ca00"/>
      <stop offset="0.984313725490196" stop-color="#6a4700"/>
    </linearGradient>
    <linearGradient gradientTransform="matrix(0.0609, 0.0, 0.0, -0.0609, -2.75, -9.45)" gradientUnits="userSpaceOnUse" id="gradient3" spreadMethod="pad" x1="-819.2" x2="819.2">
      <stop offset="0.07450980392156863" stop-color="#543800"/>
      <stop offset="0.17647058823529413" stop-color="#e9ca00"/>
      <stop offset="0.43529411764705883" stop-color="#6a4a00"/>
      <stop offset="0.4588235294117647" stop-color="#836300"/>
      <stop offset="0.5058823529411764" stop-color="#af8f00"/>
      <stop offset="0.5490196078431373" stop-color="#ceaf00"/>
      <stop offset="0.5843137254901961" stop-color="#e2c300"/>
      <stop offset="0.6078431372549019" stop-color="#e9ca00"/>
      <stop offset="0.6431372549019608" stop-color="#e9ca00"/>
      <stop offset="0.8196078431372549" stop-color="#fff87f"/>
      <stop offset="0.8784313725490196" stop-color="#e9ca00"/>
      <stop offset="0.984313725490196" stop-color="#6a4700"/>
    </linearGradient>
    <linearGradient gradientTransform="matrix(0.0, -0.1443, -0.1443, 0.0, 78.05, -23.95)" gradientUnits="userSpaceOnUse" id="gradient4" spreadMethod="pad" x1="-819.2" x2="819.2">
      <stop offset="0.00392156862745098" stop-color="#543800"/>
      <stop offset="0.17647058823529413" stop-color="#e9ca00"/>
      <stop offset="0.43529411764705883" stop-color="#6a4a00"/>
      <stop offset="0.44313725490196076" stop-color="#836300"/>
      <stop offset="0.4627450980392157" stop-color="#af8f00"/>
      <stop offset="0.47843137254901963" stop-color="#ceaf00"/>
      <stop offset="0.49019607843137253" stop-color="#e2c300"/>
      <stop offset="0.5019607843137255" stop-color="#e9ca00"/>
      <stop offset="0.6274509803921569" stop-color="#feffbf"/>
      <stop offset="0.7607843137254902" stop-color="#e9ca00"/>
      <stop offset="0.984313725490196" stop-color="#6a4700"/>
    </linearGradient>
    <linearGradient gradientTransform="matrix(0.0186, 0.0, 0.0, -0.0186, 78.05, -11.3)" gradientUnits="userSpaceOnUse" id="gradient5" spreadMethod="pad" x1="-819.2" x2="819.2">
      <stop offset="0.07450980392156863" stop-color="#543800"/>
      <stop offset="0.17647058823529413" stop-color="#e9ca00"/>
      <stop offset="0.43529411764705883" stop-color="#6a4a00"/>
      <stop offset="0.4588235294117647" stop-color="#836300"/>
      <stop offset="0.5058823529411764" stop-color="#af8f00"/>
      <stop offset="0.5490196078431373" stop-color="#ceaf00"/>
      <stop offset="0.5843137254901961" stop-color="#e2c300"/>
      <stop offset="0.6078431372549019" stop-color="#e9ca00"/>
      <stop offset="0.6431372549019608" stop-color="#e9ca00"/>
      <stop offset="0.8196078431372549" stop-color="#fff87f"/>
      <stop offset="0.8784313725490196" stop-color="#e9ca00"/>
      <stop offset="0.984313725490196" stop-color="#6a4700"/>
    </linearGradient>
  </defs>
</svg>
