<?xml version="1.0" encoding="UTF-8" standalone="no"?>
<svg xmlns:xlink="http://www.w3.org/1999/xlink" height="201.4px" width="165.75px" xmlns="http://www.w3.org/2000/svg">
  <g transform="matrix(1.0, 0.0, 0.0, 1.0, 82.35, 98.15)">
    <path d="M-12.25 31.3 L-25.95 7.55 -26.85 -6.45 30.0 -6.45 28.9 7.55 15.2 31.3 -12.25 31.3" fill="#23140c" fill-rule="evenodd" stroke="none"/>
    <path d="M83.4 -50.3 L83.4 55.4 0.5 103.25 -82.35 55.4 -82.35 -50.3 0.5 -98.15 83.4 -50.3 M73.95 -34.85 L72.6 -35.6 41.2 -5.45 25.1 -33.35 20.35 -33.35 20.35 -47.35 40.95 -53.9 0.5 -77.2 -37.4 -55.3 -14.1 -47.35 -14.1 -33.35 -22.15 -33.35 -36.35 -8.75 -66.1 -38.75 -72.9 -34.85 -72.9 39.95 -68.35 42.55 -36.9 22.85 -22.15 34.45 -15.1 34.45 -15.1 48.45 -32.6 64.6 0.5 82.3 34.4 64.15 19.9 48.45 19.9 34.45 26.9 36.2 40.9 21.05 69.35 42.6 73.95 39.95 73.95 -34.85" fill="#23140c" fill-rule="evenodd" stroke="none"/>
  </g>
</svg>
