<?xml version="1.0" encoding="UTF-8" standalone="no"?>
<svg xmlns:xlink="http://www.w3.org/1999/xlink" height="67.3px" width="31.55px" xmlns="http://www.w3.org/2000/svg">
  <g transform="matrix(1.0, 0.0, 0.0, 1.0, -7.95, 0.25)">
    <path d="M39.35 -0.25 L39.45 -0.25 39.5 2.8 34.95 6.85 31.95 21.45 31.95 64.25 28.75 67.05 28.3 23.1 32.0 6.55 39.35 -0.25" fill="#050505" fill-rule="evenodd" stroke="none"/>
    <path d="M12.9 6.6 L12.9 6.45 20.4 -0.1 39.35 -0.25 32.0 6.55 12.9 6.6" fill="#484848" fill-rule="evenodd" stroke="none"/>
    <path d="M8.35 23.3 L8.35 23.05 12.9 6.6 32.0 6.55 28.3 23.1 28.3 23.05 8.35 23.3" fill="#2c2c2c" fill-rule="evenodd" stroke="none"/>
    <path d="M28.75 67.05 L7.95 66.9 8.35 23.3 28.3 23.05 28.3 23.1 28.75 67.05 M23.0 49.1 Q23.0 47.05 21.55 45.55 20.15 44.25 18.0 44.25 15.95 44.35 14.45 45.85 13.0 47.45 13.0 49.5 13.0 51.55 14.45 52.95 15.9 54.35 18.0 54.25 20.1 54.25 21.55 52.65 23.0 51.2 23.0 49.1" fill="url(#gradient0)" fill-rule="evenodd" stroke="none"/>
  </g>
  <defs>
    <linearGradient gradientTransform="matrix(0.0105, 0.2876, -0.0291, 0.0067, -15.65, -49.75)" gradientUnits="userSpaceOnUse" id="gradient0" spreadMethod="pad" x1="-819.2" x2="819.2">
      <stop offset="0.0" stop-color="#464646"/>
      <stop offset="1.0" stop-color="#000000"/>
    </linearGradient>
  </defs>
</svg>
