<?xml version="1.0" encoding="UTF-8" standalone="no"?>
<svg xmlns:xlink="http://www.w3.org/1999/xlink" height="272.8px" width="281.2px" xmlns="http://www.w3.org/2000/svg">
  <g transform="matrix(1.0, 0.0, 0.0, 1.0, 140.6, 134.4)">
    <path d="M18.1 -58.95 L18.1 -44.95 9.35 -29.8 -8.15 -29.8 -16.9 -44.95 -16.9 -58.95 18.1 -58.95" fill="#23140c" fill-rule="evenodd" stroke="none"/>
    <path d="M-54.8 -86.6 L0.0 -118.2 54.8 -86.6 54.8 -13.35 0.0 18.3 -54.8 -13.35 -54.8 -86.6 M0.0 -96.85 L-14.2 -88.65 -9.35 -85.05 -9.35 -71.05 -14.45 -71.05 -23.5 -55.4 -41.15 -73.1 -44.95 -70.9 -44.95 -24.8 -42.5 -23.4 -14.45 -32.9 -10.0 -32.9 -10.0 -18.9 -19.4 -10.15 0.0 0.9 19.15 -11.5 12.4 -18.9 12.4 -32.9 15.65 -32.9 42.6 -24.1 44.95 -25.45 44.95 -70.9 44.55 -71.1 25.95 -53.25 15.65 -71.05 12.65 -71.05 12.65 -85.05 17.25 -86.9 0.0 -96.85" fill="#23140c" fill-rule="evenodd" stroke="none"/>
    <path d="M0.0 -116.85 L-62.25 -80.9 -62.25 -19.05 0.0 16.9 62.25 -19.05 62.25 -80.9 0.0 -116.85 M-68.8 -94.7 L0.0 -134.4 68.8 -94.7 68.8 -5.25 0.0 34.5 -68.8 -5.25 -68.8 -94.7" fill="#23140c" fill-rule="evenodd" stroke="none"/>
    <path d="M-124.05 -86.95 Q-123.7 -92.65 -121.15 -95.55 L-113.3 -102.25 -112.7 -102.25 Q-111.95 -102.15 -111.3 -101.55 -109.25 -99.65 -108.75 -93.7 -108.05 -84.55 -110.4 -75.65 -113.5 -64.2 -120.5 -62.3 -122.15 -61.85 -123.35 -71.2 -124.5 -80.05 -124.05 -86.95" fill="#23140c" fill-rule="evenodd" stroke="none"/>
    <path d="M-120.4 -33.45 Q-121.65 -32.1 -124.8 -35.15 -127.95 -38.25 -131.05 -44.0 -139.0 -59.05 -137.55 -74.1 L-136.6 -84.75 Q-130.75 -80.15 -124.8 -72.75 -117.0 -63.0 -116.45 -56.4 -116.1 -52.55 -117.1 -44.85 -118.3 -35.75 -120.4 -33.45" fill="#23140c" fill-rule="evenodd" stroke="none"/>
    <path d="M-140.6 -37.15 L-140.6 -51.15 Q-136.9 -48.95 -126.9 -40.45 -116.4 -31.6 -114.2 -28.55 L-113.75 -18.9 Q-113.7 -8.45 -115.85 -4.6 -116.75 -3.0 -120.8 -5.35 -124.95 -7.7 -129.4 -12.4 -141.15 -24.9 -140.6 -37.15" fill="#23140c" fill-rule="evenodd" stroke="none"/>
    <path d="M-115.1 21.1 Q-129.35 11.4 -131.55 -0.65 L-131.55 -14.65 Q-124.0 -12.85 -115.75 -8.5 -104.3 -2.5 -99.7 5.05 L-99.35 13.45 Q-99.15 22.5 -100.1 25.85 -100.6 27.6 -105.1 26.2 -109.7 24.75 -115.1 21.1" fill="#23140c" fill-rule="evenodd" stroke="none"/>
    <path d="M-116.0 30.55 L-116.0 16.55 Q-107.55 16.9 -96.85 21.5 -83.75 27.1 -79.1 35.3 L-79.2 40.45 -79.15 47.55 -79.1 49.3 Q-79.15 51.1 -83.9 50.75 -88.7 50.4 -94.8 48.05 -111.0 41.8 -116.0 30.55" fill="#23140c" fill-rule="evenodd" stroke="none"/>
    <path d="M-53.4 68.45 Q-53.4 70.25 -58.15 70.95 L-69.35 70.6 Q-86.15 68.0 -93.6 58.05 L-93.6 44.05 Q-88.25 43.2 -70.3 48.75 -61.3 51.5 -53.4 54.45 L-53.4 68.45" fill="#23140c" fill-rule="evenodd" stroke="none"/>
    <path d="M-59.9 64.0 Q-55.5 60.6 -37.25 57.1 -20.5 53.9 -19.45 54.4 L-19.7 67.6 Q-19.3 68.8 -23.15 71.55 -27.25 74.5 -33.0 76.75 -48.65 82.9 -59.9 78.0 L-59.9 64.0" fill="#23140c" fill-rule="evenodd" stroke="none"/>
    <path d="M-80.15 17.7 L-80.2 5.1 Q-80.2 5.7 -78.3 3.9 -76.35 2.1 -73.55 -1.25 L-72.4 -0.95 Q-71.0 -0.5 -69.75 0.45 -65.75 3.55 -64.9 10.35 L-64.95 22.7 Q-64.15 34.85 -74.05 39.25 -76.3 40.25 -78.4 33.35 -80.6 26.2 -80.15 17.7" fill="#23140c" fill-rule="evenodd" stroke="none"/>
    <path d="M-60.65 22.7 L-60.65 17.4 Q-60.45 16.2 -59.55 17.3 -58.5 18.65 -57.85 17.4 L-52.05 20.7 Q-45.75 25.15 -43.05 30.75 L-43.05 40.6 Q-42.75 44.3 -44.15 48.85 -45.85 54.4 -49.2 57.05 -50.35 57.95 -52.4 55.65 -54.45 53.35 -56.4 49.05 -61.2 38.35 -60.6 27.95 L-60.65 22.7" fill="#23140c" fill-rule="evenodd" stroke="none"/>
    <path d="M-95.0 17.4 Q-96.45 17.65 -97.15 14.65 -97.8 11.7 -97.4 7.05 -97.25 5.5 -97.4 0.65 L-97.55 -3.9 Q-96.05 -9.9 -91.4 -16.9 -86.55 -24.25 -81.55 -27.6 L-80.55 -21.05 Q-79.65 -13.1 -80.0 -6.35 -81.2 15.35 -95.0 17.4" fill="#23140c" fill-rule="evenodd" stroke="none"/>
    <path d="M-112.5 -36.9 Q-114.05 -36.65 -114.95 -44.95 -115.8 -52.9 -115.2 -58.6 -114.6 -64.45 -109.9 -68.45 L-98.9 -75.95 -98.5 -68.7 Q-98.25 -60.15 -98.95 -53.45 -100.55 -38.9 -112.5 -36.9" fill="#23140c" fill-rule="evenodd" stroke="none"/>
    <path d="M-108.85 -31.8 Q-107.15 -36.3 -101.2 -40.4 L-92.65 -45.6 -92.5 -27.85 Q-92.5 -19.75 -95.25 -14.6 -98.75 -8.2 -106.3 -6.9 -107.85 -6.65 -108.55 -9.95 -109.25 -13.25 -108.8 -18.35 L-108.85 -31.8" fill="#23140c" fill-rule="evenodd" stroke="none"/>
    <path d="M-30.8 94.2 L-30.8 90.7 -32.65 91.35 -35.6 86.35 -35.6 72.35 -25.65 66.4 -10.75 66.4 -11.6 61.95 -4.45 60.45 -4.45 91.35 -8.65 91.35 -8.75 90.6 -20.45 101.1 -27.5 101.1 -30.8 94.2" fill="#23140c" fill-rule="evenodd" stroke="none"/>
    <path d="M-35.6 52.8 Q-36.8 52.85 -39.2 49.95 -41.95 46.6 -42.2 43.45 L-42.9 36.95 Q-43.5 30.85 -43.05 30.75 L-36.6 31.6 -29.4 32.7 Q-23.35 33.25 -14.6 40.9 L-1.95 53.6 -1.95 67.6 -8.05 70.45 Q-12.15 65.95 -17.7 61.5 -28.7 52.6 -35.6 52.8" fill="#23140c" fill-rule="evenodd" stroke="none"/>
    <path d="M124.05 -86.95 Q124.5 -80.05 123.35 -71.2 122.15 -61.85 120.5 -62.3 113.5 -64.2 110.45 -75.65 108.05 -84.55 108.75 -93.7 109.25 -99.65 111.35 -101.55 112.0 -102.15 112.7 -102.25 L113.3 -102.25 121.15 -95.55 Q123.7 -92.65 124.05 -86.95" fill="#23140c" fill-rule="evenodd" stroke="none"/>
    <path d="M120.4 -33.45 Q118.3 -35.75 117.1 -44.85 116.1 -52.55 116.45 -56.4 117.0 -63.0 124.8 -72.75 130.75 -80.15 136.6 -84.75 L137.55 -74.1 Q139.05 -59.05 131.05 -44.0 127.95 -38.25 124.8 -35.15 121.65 -32.1 120.4 -33.45" fill="#23140c" fill-rule="evenodd" stroke="none"/>
    <path d="M140.6 -37.15 Q141.15 -24.9 129.4 -12.4 124.95 -7.7 120.8 -5.35 116.75 -3.0 115.85 -4.6 113.75 -8.45 113.75 -18.9 L114.2 -28.55 Q116.45 -31.6 126.9 -40.45 136.95 -48.95 140.6 -51.15 L140.6 -37.15" fill="#23140c" fill-rule="evenodd" stroke="none"/>
    <path d="M115.1 21.1 Q109.7 24.75 105.1 26.2 100.6 27.6 100.1 25.85 99.15 22.5 99.35 13.45 L99.7 5.05 Q104.35 -2.5 115.75 -8.5 124.0 -12.85 131.55 -14.65 L131.55 -0.65 Q129.35 11.4 115.1 21.1" fill="#23140c" fill-rule="evenodd" stroke="none"/>
    <path d="M116.0 16.55 L116.0 30.55 Q111.0 41.8 94.8 48.05 88.7 50.4 83.9 50.75 79.2 51.1 79.1 49.3 L79.15 47.55 79.2 40.45 79.1 35.3 Q83.75 27.1 96.85 21.5 107.55 16.9 116.0 16.55" fill="#23140c" fill-rule="evenodd" stroke="none"/>
    <path d="M93.6 58.05 Q86.15 68.0 69.35 70.6 L58.15 70.95 Q53.4 70.25 53.4 68.45 L53.4 54.45 70.3 48.75 Q88.25 43.2 93.6 44.05 L93.6 58.05" fill="#23140c" fill-rule="evenodd" stroke="none"/>
    <path d="M19.7 67.6 L19.45 54.4 Q20.5 53.9 37.3 57.1 55.5 60.6 59.9 64.0 L59.9 78.0 Q48.65 82.9 33.0 76.75 27.25 74.5 23.15 71.55 19.3 68.8 19.7 67.6" fill="#23140c" fill-rule="evenodd" stroke="none"/>
    <path d="M80.15 17.7 Q80.6 26.2 78.4 33.35 76.3 40.25 74.05 39.25 64.15 34.85 64.95 22.7 L64.9 10.35 Q65.8 3.55 69.75 0.45 71.0 -0.5 72.4 -0.95 L73.55 -1.25 Q76.35 2.1 78.3 3.9 80.2 5.7 80.2 5.1 L80.15 17.7" fill="#23140c" fill-rule="evenodd" stroke="none"/>
    <path d="M43.05 30.75 Q45.75 25.15 52.05 20.7 L57.85 17.4 Q58.5 18.65 59.55 17.3 60.45 16.2 60.65 17.4 L60.6 27.95 Q61.2 38.35 56.4 49.05 54.45 53.35 52.4 55.65 50.35 57.95 49.2 57.05 45.85 54.4 44.15 48.85 42.75 44.3 43.05 40.6 L43.05 30.75" fill="#23140c" fill-rule="evenodd" stroke="none"/>
    <path d="M80.55 -21.05 L81.55 -27.6 Q86.55 -24.25 91.4 -16.9 96.05 -9.9 97.55 -3.9 L97.4 0.65 97.4 7.05 Q97.8 11.7 97.15 14.65 96.45 17.65 95.0 17.4 81.2 15.35 80.0 -6.35 79.65 -13.1 80.55 -21.05" fill="#23140c" fill-rule="evenodd" stroke="none"/>
    <path d="M112.5 -36.9 Q100.55 -38.9 98.95 -53.45 98.25 -60.15 98.5 -68.7 L98.9 -75.95 109.9 -68.45 Q114.6 -64.45 115.2 -58.6 115.8 -52.9 114.95 -44.95 114.05 -36.65 112.5 -36.9" fill="#23140c" fill-rule="evenodd" stroke="none"/>
    <path d="M108.85 -31.8 L108.8 -18.35 Q109.25 -13.25 108.55 -9.95 107.85 -6.65 106.3 -6.9 98.75 -8.2 95.3 -14.6 92.5 -19.75 92.5 -27.85 L92.65 -45.6 101.2 -40.4 Q107.15 -36.3 108.85 -31.8" fill="#23140c" fill-rule="evenodd" stroke="none"/>
    <path d="M35.6 72.35 L35.6 86.35 32.65 91.35 30.8 90.7 30.8 94.2 27.5 101.1 20.45 101.1 8.75 90.6 8.6 91.35 4.45 91.35 4.45 60.45 11.6 61.95 10.75 66.4 25.65 66.4 35.6 72.35" fill="#23140c" fill-rule="evenodd" stroke="none"/>
    <path d="M29.4 32.7 L36.6 31.6 43.05 30.75 Q43.5 30.85 42.9 36.95 L42.2 43.45 Q41.95 46.6 39.2 49.95 36.8 52.85 35.6 52.8 28.7 52.6 17.7 61.5 12.2 65.95 8.05 70.45 L1.95 67.6 1.95 53.6 Q12.25 42.95 14.65 40.9 23.35 33.25 29.4 32.7" fill="#23140c" fill-rule="evenodd" stroke="none"/>
    <path d="M-73.2 105.9 L-104.35 105.35 -104.35 91.35 -93.6 72.55 -64.9 72.55 -16.1 103.3 15.6 103.95 66.65 73.75 94.65 73.75 104.4 91.35 104.4 105.35 73.2 105.9 22.5 138.4 -22.5 138.4 -73.2 105.9" fill="#23140c" fill-rule="evenodd" stroke="none"/>
    <path d="M-103.35 105.5 L-104.35 105.5 -104.35 91.35 -103.35 91.35 -103.35 105.5" fill="url(#gradient0)" fill-rule="evenodd" stroke="none"/>
    <path d="M-72.6 106.3 L-73.2 105.85 -73.6 105.85 -73.6 91.75 -72.6 91.75 -72.6 106.3" fill="url(#gradient1)" fill-rule="evenodd" stroke="none"/>
    <path d="M-21.45 138.4 L-22.45 138.4 -22.45 124.4 -21.45 124.4 -21.45 138.4" fill="url(#gradient2)" fill-rule="evenodd" stroke="none"/>
    <path d="M22.5 138.4 L21.5 138.4 21.5 124.4 22.5 124.4 22.5 138.4" fill="url(#gradient3)" fill-rule="evenodd" stroke="none"/>
    <path d="M73.75 105.9 L73.2 105.9 72.75 106.2 72.75 91.8 73.75 91.8 73.75 105.9" fill="url(#gradient4)" fill-rule="evenodd" stroke="none"/>
    <path d="M104.4 105.35 L103.4 105.4 103.4 91.35 104.4 91.35 104.4 105.35" fill="url(#gradient5)" fill-rule="evenodd" stroke="none"/>
  </g>
  <defs>
    <linearGradient gradientTransform="matrix(0.0, -0.0086, -0.0086, 0.0, -103.85, 98.45)" gradientUnits="userSpaceOnUse" id="gradient0" spreadMethod="pad" x1="-819.2" x2="819.2">
      <stop offset="0.0" stop-color="#1e120b" stop-opacity="0.0"/>
      <stop offset="0.01568627450980392" stop-color="#23150d" stop-opacity="0.019607844"/>
      <stop offset="0.2235294117647059" stop-color="#653e22" stop-opacity="0.3137255"/>
      <stop offset="0.4196078431372549" stop-color="#9c5f34" stop-opacity="0.5568628"/>
      <stop offset="0.6039215686274509" stop-color="#c77a42" stop-opacity="0.7490196"/>
      <stop offset="0.7647058823529411" stop-color="#e68c4c" stop-opacity="0.8862745"/>
      <stop offset="0.9019607843137255" stop-color="#f89852" stop-opacity="0.96862745"/>
      <stop offset="1.0" stop-color="#ff9c54"/>
    </linearGradient>
    <linearGradient gradientTransform="matrix(0.0, -0.0089, -0.0089, 0.0, -73.1, 99.0)" gradientUnits="userSpaceOnUse" id="gradient1" spreadMethod="pad" x1="-819.2" x2="819.2">
      <stop offset="0.0" stop-color="#1e120b" stop-opacity="0.0"/>
      <stop offset="0.01568627450980392" stop-color="#23150d" stop-opacity="0.019607844"/>
      <stop offset="0.2235294117647059" stop-color="#653e22" stop-opacity="0.3137255"/>
      <stop offset="0.4196078431372549" stop-color="#9c5f34" stop-opacity="0.5568628"/>
      <stop offset="0.6039215686274509" stop-color="#c77a42" stop-opacity="0.7490196"/>
      <stop offset="0.7647058823529411" stop-color="#e68c4c" stop-opacity="0.8862745"/>
      <stop offset="0.9019607843137255" stop-color="#f89852" stop-opacity="0.96862745"/>
      <stop offset="1.0" stop-color="#ff9c54"/>
    </linearGradient>
    <linearGradient gradientTransform="matrix(0.0, -0.0085, -0.0085, 0.0, -21.95, 131.4)" gradientUnits="userSpaceOnUse" id="gradient2" spreadMethod="pad" x1="-819.2" x2="819.2">
      <stop offset="0.0" stop-color="#1e120b" stop-opacity="0.0"/>
      <stop offset="0.01568627450980392" stop-color="#23150d" stop-opacity="0.019607844"/>
      <stop offset="0.2235294117647059" stop-color="#653e22" stop-opacity="0.3137255"/>
      <stop offset="0.4196078431372549" stop-color="#9c5f34" stop-opacity="0.5568628"/>
      <stop offset="0.6039215686274509" stop-color="#c77a42" stop-opacity="0.7490196"/>
      <stop offset="0.7647058823529411" stop-color="#e68c4c" stop-opacity="0.8862745"/>
      <stop offset="0.9019607843137255" stop-color="#f89852" stop-opacity="0.96862745"/>
      <stop offset="1.0" stop-color="#ff9c54"/>
    </linearGradient>
    <linearGradient gradientTransform="matrix(0.0, -0.0085, -0.0085, 0.0, 22.0, 131.4)" gradientUnits="userSpaceOnUse" id="gradient3" spreadMethod="pad" x1="-819.2" x2="819.2">
      <stop offset="0.0" stop-color="#1e120b" stop-opacity="0.0"/>
      <stop offset="0.01568627450980392" stop-color="#23150d" stop-opacity="0.019607844"/>
      <stop offset="0.2235294117647059" stop-color="#653e22" stop-opacity="0.3137255"/>
      <stop offset="0.4196078431372549" stop-color="#9c5f34" stop-opacity="0.5568628"/>
      <stop offset="0.6039215686274509" stop-color="#c77a42" stop-opacity="0.7490196"/>
      <stop offset="0.7647058823529411" stop-color="#e68c4c" stop-opacity="0.8862745"/>
      <stop offset="0.9019607843137255" stop-color="#f89852" stop-opacity="0.96862745"/>
      <stop offset="1.0" stop-color="#ff9c54"/>
    </linearGradient>
    <linearGradient gradientTransform="matrix(0.0, -0.0088, -0.0088, 0.0, 73.25, 99.0)" gradientUnits="userSpaceOnUse" id="gradient4" spreadMethod="pad" x1="-819.2" x2="819.2">
      <stop offset="0.0" stop-color="#1e120b" stop-opacity="0.0"/>
      <stop offset="0.01568627450980392" stop-color="#23150d" stop-opacity="0.019607844"/>
      <stop offset="0.2235294117647059" stop-color="#653e22" stop-opacity="0.3137255"/>
      <stop offset="0.4196078431372549" stop-color="#9c5f34" stop-opacity="0.5568628"/>
      <stop offset="0.6039215686274509" stop-color="#c77a42" stop-opacity="0.7490196"/>
      <stop offset="0.7647058823529411" stop-color="#e68c4c" stop-opacity="0.8862745"/>
      <stop offset="0.9019607843137255" stop-color="#f89852" stop-opacity="0.96862745"/>
      <stop offset="1.0" stop-color="#ff9c54"/>
    </linearGradient>
    <linearGradient gradientTransform="matrix(0.0, -0.0086, -0.0086, 0.0, 103.9, 98.35)" gradientUnits="userSpaceOnUse" id="gradient5" spreadMethod="pad" x1="-819.2" x2="819.2">
      <stop offset="0.0" stop-color="#1e120b" stop-opacity="0.0"/>
      <stop offset="0.01568627450980392" stop-color="#23150d" stop-opacity="0.019607844"/>
      <stop offset="0.2235294117647059" stop-color="#653e22" stop-opacity="0.3137255"/>
      <stop offset="0.4196078431372549" stop-color="#9c5f34" stop-opacity="0.5568628"/>
      <stop offset="0.6039215686274509" stop-color="#c77a42" stop-opacity="0.7490196"/>
      <stop offset="0.7647058823529411" stop-color="#e68c4c" stop-opacity="0.8862745"/>
      <stop offset="0.9019607843137255" stop-color="#f89852" stop-opacity="0.96862745"/>
      <stop offset="1.0" stop-color="#ff9c54"/>
    </linearGradient>
  </defs>
</svg>
