<?xml version="1.0" encoding="UTF-8" standalone="no"?>
<svg xmlns:xlink="http://www.w3.org/1999/xlink" height="65.05px" width="28.3px" xmlns="http://www.w3.org/2000/svg">
  <g transform="matrix(1.0, 0.0, 0.0, 1.0, -8.55, -2.0)">
    <path d="M15.3 45.15 L14.45 45.85 Q13.0 47.45 13.0 49.5 13.0 51.55 14.45 52.95 15.9 54.35 18.0 54.25 20.1 54.25 21.55 52.65 L22.6 51.15 Q23.0 50.15 23.0 49.1 23.0 47.05 21.55 45.55 20.15 44.25 18.0 44.25 16.6 44.35 15.3 45.15 M24.5 49.0 Q24.5 51.7 22.6 53.7 20.7 55.7 18.0 55.75 15.3 55.95 13.4 54.05 11.5 52.2 11.5 49.5 11.5 46.8 13.4 44.85 15.0 43.15 17.3 42.85 L18.0 42.75 Q20.7 42.7 22.6 44.5 24.45 46.2 24.5 48.85 L24.5 49.0" fill="#626262" fill-rule="evenodd" stroke="none"/>
    <path d="M22.6 51.15 L21.55 52.65 Q20.1 54.25 18.0 54.25 15.9 54.35 14.45 52.95 13.0 51.55 13.0 49.5 13.0 47.45 14.45 45.85 L15.3 45.15 Q14.9 46.15 14.9 47.2 14.9 49.25 16.35 50.7 17.8 52.1 19.9 52.0 21.4 51.95 22.6 51.15" fill="url(#gradient0)" fill-rule="evenodd" stroke="none"/>
    <path d="M31.9 6.25 L31.95 6.3 32.0 6.05 32.1 6.1 34.2 4.1 36.85 2.0 34.75 4.15 32.25 6.35 32.25 6.4 32.25 6.5 32.3 6.55 32.25 6.7 32.25 6.75 Q32.0 9.1 29.0 18.7 L28.75 18.7 Q28.95 17.1 30.35 11.85 L31.75 6.85 30.9 6.7 29.5 6.5 25.95 6.35 21.3 6.7 17.95 6.6 13.1 6.75 12.85 6.5 12.9 6.25 Q17.9 0.0 31.9 6.25 M16.15 23.0 L17.3 22.75 Q20.15 22.2 27.9 23.0 L28.05 21.85 28.15 22.1 29.25 18.6 29.3 18.7 Q29.3 19.4 28.7 20.95 L28.2 22.4 28.2 23.05 28.45 23.05 28.2 23.25 28.2 23.4 27.9 23.6 Q27.75 23.7 27.75 23.45 L27.8 23.25 Q19.15 23.95 15.55 23.35 L11.8 23.65 9.5 23.45 8.65 23.5 8.55 23.4 8.75 23.25 8.75 23.4 9.35 23.4 9.35 23.3 16.15 23.0 M28.35 23.25 L28.3 24.7 28.35 26.0 28.35 26.7 28.25 26.7 28.35 26.8 Q28.25 27.35 28.45 28.5 L28.55 29.55 28.55 29.5 28.55 29.65 28.5 30.05 Q28.45 30.4 28.55 30.75 L28.55 30.85 28.55 31.2 28.55 32.85 28.45 34.7 28.4 36.6 28.35 33.5 28.35 30.6 28.2 28.45 28.15 26.5 28.05 26.55 28.15 25.3 28.15 25.05 28.15 23.7 28.25 23.65 28.25 23.25 28.35 23.25 M28.75 43.35 L28.8 54.35 28.75 54.7 28.65 54.75 28.65 43.4 28.75 43.35 M28.7 57.45 L28.75 57.5 28.75 66.75 28.7 66.8 28.4 67.05 28.35 67.05 28.45 66.55 28.45 57.6 28.55 57.6 28.55 57.45 28.7 57.45" fill="#515151" fill-rule="evenodd" stroke="none"/>
  </g>
  <defs>
    <linearGradient gradientTransform="matrix(-0.0073, -0.0072, 0.003, -0.0031, 16.15, 38.55)" gradientUnits="userSpaceOnUse" id="gradient0" spreadMethod="pad" x1="-819.2" x2="819.2">
      <stop offset="0.0196078431372549" stop-color="#696969"/>
      <stop offset="0.9686274509803922" stop-color="#000000"/>
    </linearGradient>
  </defs>
</svg>
