<?xml version="1.0" encoding="UTF-8" standalone="no"?>
<svg xmlns:xlink="http://www.w3.org/1999/xlink" height="24.95px" width="13.0px" xmlns="http://www.w3.org/2000/svg">
  <g transform="matrix(1.0, 0.0, 0.0, 1.0, 0.0, 0.0)">
    <path d="M0.0 2.2 L0.0 1.15 0.0 0.05 0.55 0.0 Q5.65 -0.2 9.35 3.4 13.0 6.95 13.0 12.1 13.0 17.25 9.35 21.0 5.75 24.75 0.55 24.9 L0.0 24.95 0.0 23.85 0.0 23.25 0.55 23.2 Q4.9 23.05 7.95 19.9 11.05 16.65 11.05 12.3 11.05 8.05 7.95 4.95 4.8 2.0 0.55 2.15 L0.0 2.2 M0.0 22.3 L0.0 21.35 0.0 20.45 0.35 20.45 Q3.35 20.35 5.55 18.15 7.75 15.8 7.75 12.8 7.75 9.8 5.55 7.65 3.35 5.55 0.35 5.65 L0.0 5.65 0.0 4.25 0.0 3.4 0.45 3.4 Q4.35 3.3 7.1 5.95 9.9 8.75 9.9 12.55 9.9 16.45 7.1 19.35 4.35 22.15 0.45 22.3 L0.0 22.3" fill="#a6a6a6" fill-rule="evenodd" stroke="none"/>
    <path d="M0.0 2.2 L0.55 2.15 Q4.8 2.0 7.95 4.95 11.05 8.05 11.05 12.3 11.05 16.65 7.95 19.9 4.9 23.05 0.55 23.2 L0.0 23.25 0.0 22.3 0.45 22.3 Q4.35 22.15 7.1 19.35 9.9 16.45 9.9 12.55 9.9 8.75 7.1 5.95 4.35 3.3 0.45 3.4 L0.0 3.4 0.0 2.2" fill="#000000" fill-rule="evenodd" stroke="none"/>
  </g>
</svg>
