<?xml version="1.0" encoding="UTF-8" standalone="no"?>
<svg xmlns:xlink="http://www.w3.org/1999/xlink" height="278.9px" width="475.75px" xmlns="http://www.w3.org/2000/svg">
  <g transform="matrix(1.0, 0.0, 0.0, 1.0, 0.5, 0.0)">
    <path d="M0.0 31.3 L0.0 8.05 7.6 0.0 474.75 0.0 474.75 31.3 0.0 31.3" fill="#3e0000" fill-rule="evenodd" stroke="none"/>
    <path d="M0.0 31.3 L474.75 31.3 474.75 270.4 467.25 278.4 0.0 278.4 0.0 277.95 0.0 36.55 0.0 31.3" fill="url(#gradient0)" fill-rule="evenodd" stroke="none"/>
    <path d="M474.75 270.4 L467.25 278.4 0.0 278.4" fill="none" stroke="url(#gradient1)" stroke-linecap="round" stroke-linejoin="round" stroke-width="1.0"/>
    <path d="M226.8 30.6 Q184.4 30.85 106.85 29.95 29.35 29.0 17.7 28.5 L234.75 28.5 454.2 28.45 Q413.8 30.35 341.8 30.35 269.25 30.35 226.8 30.6" fill="url(#gradient2)" fill-rule="evenodd" stroke="none"/>
  </g>
  <defs>
    <linearGradient gradientTransform="matrix(-4.0E-4, 0.0466, -0.0483, -4.0E-4, 166.1, 70.85)" gradientUnits="userSpaceOnUse" id="gradient0" spreadMethod="pad" x1="-819.2" x2="819.2">
      <stop offset="0.0" stop-color="#260000"/>
      <stop offset="1.0" stop-color="#000000"/>
    </linearGradient>
    <radialGradient cx="0" cy="0" gradientTransform="matrix(0.3945, 0.0, 0.0, 0.3945, 222.95, 204.0)" gradientUnits="userSpaceOnUse" id="gradient1" r="819.2" spreadMethod="pad">
      <stop offset="0.0" stop-color="#ec0000"/>
      <stop offset="1.0" stop-color="#000000"/>
    </radialGradient>
    <radialGradient cx="0" cy="0" gradientTransform="matrix(0.269, 0.0, 0.0, 0.3841, 235.85, 29.55)" gradientUnits="userSpaceOnUse" id="gradient2" r="819.2" spreadMethod="pad">
      <stop offset="0.0" stop-color="#ff0000"/>
      <stop offset="1.0" stop-color="#ff0000" stop-opacity="0.0"/>
    </radialGradient>
  </defs>
</svg>
