<?xml version="1.0" encoding="UTF-8" standalone="no"?>
<svg xmlns:xlink="http://www.w3.org/1999/xlink" height="30.2px" width="30.2px" xmlns="http://www.w3.org/2000/svg">
  <g transform="matrix(1.0, 0.0, 0.0, 1.0, 1.0, 1.0)">
    <path d="M4.15 4.15 Q8.25 0.0 14.1 0.0 19.95 0.0 24.1 4.15 28.2 8.25 28.2 14.1 28.2 19.95 24.1 24.05 19.95 28.2 14.1 28.2 8.25 28.2 4.15 24.05 0.0 19.95 0.0 14.1 0.0 8.25 4.15 4.15" fill="url(#gradient0)" fill-rule="evenodd" stroke="none"/>
    <path d="M4.15 4.15 Q8.25 0.0 14.1 0.0 19.95 0.0 24.1 4.15 28.2 8.25 28.2 14.1 28.2 19.95 24.1 24.05 19.95 28.2 14.1 28.2 8.25 28.2 4.15 24.05 0.0 19.95 0.0 14.1 0.0 8.25 4.15 4.15 Z" fill="none" stroke="#0075bf" stroke-linecap="square" stroke-linejoin="bevel" stroke-width="1.5"/>
    <path d="M21.65 17.3 Q20.0 18.55 17.8 19.15 L17.85 19.55 17.95 21.8 Q17.95 24.0 17.45 24.3 L16.05 24.3 Q15.8 23.65 15.8 21.95 L15.8 21.35 Q15.65 24.3 14.6 24.3 L14.25 24.25 14.0 22.15 14.0 19.6 13.8 19.6 Q13.45 24.65 12.5 24.65 L11.1 24.4 11.05 23.55 Q11.05 21.35 11.4 19.4 8.75 18.85 6.65 17.3 3.55 15.05 3.55 11.85 3.55 8.65 6.65 6.3 9.8 4.05 14.2 4.05 18.6 4.05 21.65 6.3 24.8 8.65 24.8 11.85 24.8 15.05 21.65 17.3 M21.5 14.8 Q22.1 13.65 22.1 12.5 L21.95 11.95 Q21.3 12.15 18.75 13.45 16.0 14.8 16.0 15.1 16.0 15.4 16.55 16.1 17.15 16.85 17.7 16.85 20.35 16.85 21.5 14.8 M7.3 14.8 Q8.4 16.85 11.1 16.85 11.6 16.85 12.2 16.1 L12.75 15.1 Q12.75 14.8 10.0 13.45 7.5 12.15 6.8 11.95 L6.7 12.5 Q6.7 13.65 7.3 14.8" fill="#000000" fill-rule="evenodd" stroke="none"/>
    <path d="M14.1 28.2 Q8.25 28.2 4.15 24.05 0.0 19.95 0.0 14.1 0.0 8.25 4.15 4.15 8.25 0.0 14.1 0.0 19.95 0.0 24.1 4.15 28.2 8.25 28.2 14.1 28.2 19.95 24.1 24.05 19.95 28.2 14.1 28.2" fill="url(#gradient1)" fill-rule="evenodd" stroke="none"/>
  </g>
  <defs>
    <linearGradient gradientTransform="matrix(2.0E-4, -0.0172, 0.0172, 2.0E-4, 14.65, 12.15)" gradientUnits="userSpaceOnUse" id="gradient0" spreadMethod="pad" x1="-819.2" x2="819.2">
      <stop offset="0.0392156862745098" stop-color="#009efd"/>
      <stop offset="0.22745098039215686" stop-color="#0075bf"/>
      <stop offset="1.0" stop-color="#000000"/>
    </linearGradient>
    <radialGradient cx="0" cy="0" gradientTransform="matrix(0.0197, 0.0, 0.0, 0.0197, 16.2, 3.0)" gradientUnits="userSpaceOnUse" id="gradient1" r="819.2" spreadMethod="pad">
      <stop offset="0.0" stop-color="#ffffff" stop-opacity="0.6"/>
      <stop offset="1.0" stop-color="#ffffff" stop-opacity="0.0"/>
    </radialGradient>
  </defs>
</svg>
