<?xml version="1.0" encoding="UTF-8" standalone="no"?>
<svg xmlns:xlink="http://www.w3.org/1999/xlink" height="62.6px" width="62.8px" xmlns="http://www.w3.org/2000/svg">
  <g transform="matrix(1.0, 0.0, 0.0, 1.0, -12.45, 3.75)">
    <path d="M12.45 27.6 Q12.45 17.4 18.15 9.5 L14.15 5.5 29.15 3.75 27.4 18.75 23.7 15.05 Q20.15 20.65 20.15 27.6 20.15 37.35 27.1 44.3 32.7 49.9 40.15 51.0 L41.0 58.85 Q29.85 57.95 21.65 49.75 12.45 40.55 12.45 27.6" fill="url(#gradient0)" fill-rule="evenodd" stroke="none"/>
    <path d="M66.0 5.4 Q75.25 14.6 75.25 27.6 75.25 36.95 70.45 44.25 L75.05 48.9 60.1 50.6 61.8 35.65 64.85 38.65 Q67.5 33.65 67.5 27.6 67.5 17.8 60.55 10.8 54.4 4.65 45.75 4.0 L45.2 -3.75 Q57.3 -3.3 66.0 5.4" fill="url(#gradient1)" fill-rule="evenodd" stroke="none"/>
  </g>
  <defs>
    <linearGradient gradientTransform="matrix(0.0037, -0.0224, 0.0331, 0.0054, 26.55, 31.75)" gradientUnits="userSpaceOnUse" id="gradient0" spreadMethod="pad" x1="-819.2" x2="819.2">
      <stop offset="0.0" stop-color="#ffffff" stop-opacity="0.0"/>
      <stop offset="1.0" stop-color="#ffffff"/>
    </linearGradient>
    <linearGradient gradientTransform="matrix(-0.0031, 0.0253, -0.0329, -0.0041, 60.2, 23.4)" gradientUnits="userSpaceOnUse" id="gradient1" spreadMethod="pad" x1="-819.2" x2="819.2">
      <stop offset="0.0" stop-color="#ffffff" stop-opacity="0.0"/>
      <stop offset="1.0" stop-color="#ffffff"/>
    </linearGradient>
  </defs>
</svg>
