<?xml version="1.0" encoding="UTF-8" standalone="no"?>
<svg xmlns:xlink="http://www.w3.org/1999/xlink" height="24.9px" width="13.0px" xmlns="http://www.w3.org/2000/svg">
  <g transform="matrix(1.0, 0.0, 0.0, 1.0, 0.0, 0.0)">
    <path d="M12.9 23.2 L13.0 23.2 13.0 24.5 13.0 24.9 12.45 24.9 Q7.35 25.05 3.65 21.5 0.0 18.05 0.0 12.85 0.0 7.65 3.65 3.9 6.5 0.95 10.55 0.2 L12.45 0.0 13.0 0.0 13.0 1.5 13.0 2.15 12.85 2.15 12.45 2.15 10.55 2.35 Q7.35 3.05 5.05 5.4 1.95 8.65 1.95 12.95 1.95 17.25 5.05 20.35 8.2 23.35 12.45 23.2 L12.9 23.2 M12.9 3.35 L13.0 3.35 13.0 4.3 13.0 5.6 12.65 5.6 10.55 5.95 Q8.8 6.55 7.45 7.9 5.25 10.25 5.25 13.25 5.25 16.25 7.45 18.4 9.65 20.5 12.65 20.4 L13.0 20.4 13.0 21.95 13.0 22.25 12.95 22.25 12.55 22.2 Q8.65 22.35 5.9 19.7 3.1 17.0 3.1 13.1 3.1 9.25 5.9 6.3 7.95 4.2 10.55 3.6 L12.55 3.3 12.9 3.35" fill="#a6a6a6" fill-rule="evenodd" stroke="none"/>
    <path d="M12.85 2.15 L12.9 3.35 12.55 3.3 10.55 3.6 Q7.95 4.2 5.9 6.3 3.1 9.25 3.1 13.1 3.1 17.0 5.9 19.7 8.65 22.35 12.55 22.2 L12.95 22.25 12.9 23.2 12.45 23.2 Q8.2 23.35 5.05 20.35 1.95 17.25 1.95 12.95 1.95 8.65 5.05 5.4 7.35 3.05 10.55 2.35 L12.45 2.15 12.85 2.15" fill="#000000" fill-rule="evenodd" stroke="none"/>
  </g>
</svg>
