<?xml version="1.0" encoding="UTF-8" standalone="no"?>
<svg xmlns:xlink="http://www.w3.org/1999/xlink" height="68.25px" width="144.9px" xmlns="http://www.w3.org/2000/svg">
  <g transform="matrix(1.0, 0.0, 0.0, 1.0, 27.9, 4.75)">
    <path d="M117.0 29.35 Q117.0 43.45 95.8 53.45 74.6 63.5 44.55 63.5 14.5 63.5 -6.7 53.45 -27.9 43.45 -27.9 29.35 -27.9 15.25 -6.7 5.2 14.5 -4.75 44.55 -4.75 74.6 -4.75 95.8 5.2 117.0 15.25 117.0 29.35" fill="#ff0000" fill-opacity="0.101960786" fill-rule="evenodd" stroke="none"/>
    <path d="M83.95 49.2 Q67.65 57.45 44.55 57.45 21.4 57.45 5.1 49.2 -11.2 41.0 -11.2 29.35 -11.2 17.75 5.1 9.5 21.4 1.3 44.55 1.3 67.65 1.3 83.95 9.5 100.3 17.75 100.3 29.35 100.3 41.0 83.95 49.2" fill="#ff0000" fill-opacity="0.2" fill-rule="evenodd" stroke="none"/>
    <path d="M71.8 12.8 Q83.05 19.65 83.05 29.35 83.05 39.05 71.8 45.8 60.55 52.7 44.55 52.7 28.55 52.7 17.3 45.8 6.05 39.05 6.05 29.35 6.05 19.65 17.3 12.8 28.55 6.05 44.55 6.05 60.55 6.05 71.8 12.8" fill="#ff0000" fill-opacity="0.2" fill-rule="evenodd" stroke="none"/>
  </g>
</svg>
