<?xml version="1.0" encoding="UTF-8" standalone="no"?>
<svg xmlns:xlink="http://www.w3.org/1999/xlink" height="18.1px" width="31.45px" xmlns="http://www.w3.org/2000/svg">
  <g transform="matrix(1.0, 0.0, 0.0, 1.0, -1.8, -0.15)">
    <path d="M30.45 18.25 L1.8 18.25 1.8 3.5 4.7 0.15 33.25 0.15 33.25 14.95 30.45 18.25" fill="url(#gradient0)" fill-rule="evenodd" stroke="none"/>
    <path d="M28.9 17.15 L3.75 17.15 3.75 4.15 6.3 1.25 31.35 1.25 31.35 14.25 28.9 17.15" fill="url(#gradient1)" fill-rule="evenodd" stroke="none"/>
    <path d="M10.1 17.35 L10.0 17.15 10.0 14.5 3.75 14.55 3.6 14.5 3.5 14.3 3.6 14.15 3.75 14.05 10.25 14.0 10.45 14.1 10.5 14.25 10.5 17.15 10.45 17.35 10.25 17.4 10.1 17.35 M12.8 1.0 L13.0 1.05 13.05 1.25 13.0 1.45 10.5 4.3 10.5 4.45 10.45 4.65 10.25 4.7 3.8 4.75 3.65 4.7 3.55 4.5 3.65 4.35 Q3.7 4.25 3.8 4.25 L10.0 4.2 10.0 4.15 10.05 4.0 12.6 1.1 Q12.65 1.0 12.8 1.0 M25.6 14.35 L25.55 14.45 23.1 17.35 22.95 17.4 22.75 17.35 22.65 17.2 22.7 17.0 25.1 14.15 25.1 14.1 25.2 13.95 25.35 13.85 31.4 13.8 31.6 13.9 31.65 14.05 31.6 14.25 31.4 14.3 25.6 14.35 M31.45 4.0 L31.65 4.1 31.7 4.25 31.65 4.45 31.45 4.5 25.35 4.55 25.2 4.5 25.1 4.3 25.1 1.25 25.2 1.1 25.35 1.0 25.55 1.1 25.6 1.25 25.6 4.05 31.45 4.0" fill="#ffffff" fill-opacity="0.3019608" fill-rule="evenodd" stroke="none"/>
    <path d="M21.25 9.8 L21.25 12.1 19.7 13.4 18.45 13.4 18.45 14.4 16.7 14.4 16.7 13.4 15.55 13.4 13.95 12.1 13.95 11.75 18.95 11.75 18.95 10.2 15.55 10.2 13.95 8.95 13.95 6.5 15.55 5.25 16.7 5.25 16.7 4.3 18.45 4.3 18.45 5.25 19.7 5.25 21.25 6.5 21.25 6.9 16.25 6.9 16.25 8.5 19.7 8.5 21.25 9.8" fill="#98fff6" fill-rule="evenodd" stroke="none"/>
  </g>
  <defs>
    <linearGradient gradientTransform="matrix(2.0E-4, 0.0112, -0.011, 2.0E-4, 17.6, 9.2)" gradientUnits="userSpaceOnUse" id="gradient0" spreadMethod="pad" x1="-819.2" x2="819.2">
      <stop offset="0.0" stop-color="#0085dd"/>
      <stop offset="1.0" stop-color="#0bc2ff"/>
    </linearGradient>
    <linearGradient gradientTransform="matrix(1.0E-4, -0.0108, 0.0097, 1.0E-4, 17.95, 5.55)" gradientUnits="userSpaceOnUse" id="gradient1" spreadMethod="pad" x1="-819.2" x2="819.2">
      <stop offset="0.0" stop-color="#007bce"/>
      <stop offset="1.0" stop-color="#5bf1ff"/>
    </linearGradient>
  </defs>
</svg>
