<?xml version="1.0" encoding="UTF-8" standalone="no"?>
<svg xmlns:xlink="http://www.w3.org/1999/xlink" height="56.85px" width="50.9px" xmlns="http://www.w3.org/2000/svg">
  <g transform="matrix(1.0, 0.0, 0.0, 1.0, -0.55, 4.1)">
    <path d="M5.15 32.1 L11.3 30.95 12.1 33.3 5.95 34.4 5.85 34.4 5.0 32.1 5.15 32.1 M8.35 41.8 L7.65 39.75 7.7 39.75 14.6 38.55 15.45 40.95 8.6 42.5 8.35 41.8" fill="#ffffff" fill-rule="evenodd" stroke="none"/>
    <path d="M32.85 24.6 L38.9 23.65 44.05 31.15 48.15 37.2 41.0 38.7 37.3 32.3 30.1 33.5 33.55 40.2 30.1 33.5 37.3 32.3 41.0 38.7 33.55 40.2 25.55 41.85 16.95 43.6 9.45 45.1 8.35 41.8 8.6 42.5 15.45 40.95 14.6 38.55 7.7 39.75 6.95 37.45 5.95 34.4 12.1 33.3 11.3 30.95 5.15 32.1 4.15 29.05 10.75 28.05 18.45 26.85 22.25 34.85 14.05 36.25 16.95 43.6 14.05 36.25 22.25 34.85 18.45 26.85 26.05 25.65 30.1 33.5 22.25 34.85 30.1 33.5 26.05 25.65 32.85 24.6 37.3 32.3 44.05 31.15 37.3 32.3 32.85 24.6 M10.75 28.05 L14.05 36.25 6.95 37.45 14.05 36.25 10.75 28.05 M22.25 34.85 L25.55 41.85 22.25 34.85" fill="#5bb7f5" fill-rule="evenodd" stroke="none"/>
    <path d="M41.0 38.7 L41.15 38.95 M41.0 38.7 L37.3 32.3 30.1 33.5 33.55 40.2 M32.85 24.6 L32.65 24.3 M6.95 37.45 L14.05 36.25 10.75 28.05 10.55 27.55 M18.45 26.85 L18.3 26.5 M16.95 43.6 L14.05 36.25 22.25 34.85 18.45 26.85 M26.05 25.65 L25.7 25.0 M22.25 34.85 L30.1 33.5 26.05 25.65 M32.85 24.6 L37.3 32.3 44.05 31.15 M25.55 41.85 L25.7 42.2 M33.7 40.55 L33.55 40.2 M25.55 41.85 L22.25 34.85" fill="none" stroke="#4a2500" stroke-linecap="square" stroke-linejoin="miter" stroke-width="1.0"/>
    <path d="M3.05 24.2 L2.2 2.7 38.3 0.1 37.95 19.1 3.05 24.2" fill="#4a2500" fill-rule="evenodd" stroke="none"/>
    <path d="M38.3 0.1 L40.35 -0.05 39.8 20.6 3.1 26.0 3.05 24.2 37.95 19.1 38.3 0.1" fill="#351b00" fill-rule="evenodd" stroke="none"/>
    <path d="M4.6 32.9 L4.8 32.85 37.85 27.65 Q39.9 27.25 40.6 28.65 L47.15 37.4 10.4 45.4 9.0 44.5 8.8 44.0 4.6 32.9" fill="url(#gradient0)" fill-rule="evenodd" stroke="none"/>
    <path d="M2.4 28.65 L3.0 28.85 Q3.75 29.0 3.35 27.55 L35.85 22.5 Q38.55 21.0 40.35 21.6 42.3 22.25 43.0 25.3 L50.55 36.0 49.9 36.3 49.55 36.85 47.15 37.4 40.6 28.65 Q39.9 27.25 37.85 27.65 L4.8 32.85 4.6 32.9 3.4 29.75 2.4 28.65" fill="url(#gradient1)" fill-rule="evenodd" stroke="none"/>
    <path d="M2.4 28.65 L3.4 29.75 4.6 32.9 8.8 44.0 9.0 44.5 10.4 45.4 47.15 37.4 49.55 36.85 49.9 36.3 50.55 36.0 51.4 35.2 Q51.4 36.2 50.25 40.05 49.0 44.25 48.25 44.4 L48.15 44.45 12.25 52.65 10.65 52.75 Q9.05 52.7 8.25 51.8 L7.65 50.8 5.2 44.4 2.15 36.55 1.95 35.6 2.1 29.1 Q2.6 27.6 2.4 28.65" fill="url(#gradient2)" fill-rule="evenodd" stroke="none"/>
    <path d="M49.8 34.75 L41.3 23.55 Q40.65 22.15 38.5 22.45 L5.45 27.75 Q4.35 28.0 3.9 28.35 3.55 28.85 3.9 29.45 L9.45 43.65 9.6 43.95 Q10.25 45.05 12.1 44.65 L48.25 36.4 Q49.25 36.35 49.75 35.75 50.0 35.4 49.85 34.85 L49.8 34.75 M51.25 34.45 Q51.8 35.75 50.95 36.55 50.3 37.3 48.55 37.6 L12.45 45.85 Q8.9 46.5 8.05 44.1 L8.0 43.95 2.45 29.75 Q1.9 28.5 2.65 27.65 3.2 26.95 4.6 26.65 L5.1 26.55 38.1 21.3 Q41.7 20.7 42.7 23.25 L51.0 34.1 51.25 34.45" fill="url(#gradient3)" fill-rule="evenodd" stroke="none"/>
    <path d="M1.65 25.1 Q2.25 26.4 1.25 24.75 L0.7 23.8 0.55 22.55 0.55 4.1 Q0.5 1.7 2.65 1.0 L3.45 0.85 4.15 0.7 37.55 -4.05 37.7 -4.1 Q39.5 -4.15 40.45 -3.45 L41.2 -2.85 42.0 -0.7 40.9 -1.45 40.15 -1.7 39.7 -2.15 38.35 -1.95 37.55 -1.8 4.05 2.9 3.4 3.0 3.05 3.05 2.0 4.55 2.15 23.6 1.6 25.2 1.65 25.1" fill="url(#gradient4)" fill-rule="evenodd" stroke="none"/>
    <path d="M4.05 2.9 L37.55 -1.8 38.35 -1.95 38.65 -1.65 37.95 -1.75 37.95 -1.45 37.8 -1.6 37.7 -1.7 37.55 -1.65 4.5 3.0 3.5 4.35 3.65 21.5 5.05 21.7 35.45 16.4 Q37.4 16.35 37.5 14.55 L37.5 3.85 37.45 -1.4 37.55 -1.35 37.95 -1.3 38.0 14.75 Q37.9 16.6 35.9 16.65 L4.65 22.15 3.25 21.95 3.15 8.2 3.1 4.2 4.05 2.9" fill="url(#gradient5)" fill-rule="evenodd" stroke="none"/>
    <path d="M37.55 -1.35 L37.45 -1.4 37.5 3.85 37.5 14.55 Q37.4 16.35 35.45 16.4 L5.05 21.7 3.65 21.5 3.5 4.35 4.5 3.0 37.55 -1.65 37.55 -1.35" fill="url(#gradient6)" fill-rule="evenodd" stroke="none"/>
    <path d="M2.15 23.6 L2.0 4.55 3.05 3.05 3.4 3.0 4.05 2.9 3.1 4.2 3.15 8.2 3.25 21.95 4.65 22.15 35.9 16.65 Q37.9 16.6 38.0 14.75 L37.95 -1.3 37.55 -1.35 37.55 -1.65 37.7 -1.7 37.8 -1.6 37.95 -1.45 37.95 -1.75 38.65 -1.65 38.35 -1.95 39.7 -2.15 40.15 -1.7 39.4 -1.85 39.45 15.9 Q39.35 17.85 37.2 17.9 L3.65 23.8 2.15 23.6" fill="url(#gradient7)" fill-rule="evenodd" stroke="none"/>
    <path d="M1.65 25.1 L1.6 25.2 2.15 23.6 3.65 23.8 37.2 17.9 Q39.35 17.85 39.45 15.9 L39.4 -1.85 40.15 -1.7 40.9 -1.45 40.9 14.45 Q41.85 22.45 35.85 20.2 L2.95 26.2 Q2.85 24.4 2.15 24.75 1.9 24.85 1.65 25.1" fill="url(#gradient8)" fill-rule="evenodd" stroke="none"/>
    <path d="M36.25 2.9 L36.4 3.45 36.45 3.6 36.55 3.95 36.55 4.1 36.6 5.05 36.65 5.25 36.7 5.4 36.75 5.5 Q33.9 8.25 22.1 8.45 L22.0 8.1 21.9 7.75 21.95 6.5 22.1 6.0 22.35 5.55 22.75 4.4 22.9 3.95 23.55 3.15 24.35 2.35 Q24.65 2.0 25.05 1.8 L25.5 1.55 Q26.4 1.15 27.35 0.9 L29.3 0.6 30.2 0.55 30.7 0.45 32.0 0.4 33.2 0.4 33.45 0.45 34.35 0.75 34.6 0.85 34.85 0.9 34.95 1.0 35.15 1.15 35.2 1.3 35.35 1.4 35.45 1.5 35.6 1.55 35.75 1.9 35.85 2.0 36.0 2.1 36.05 2.25 36.1 2.55 36.25 2.9" fill="url(#gradient9)" fill-rule="evenodd" stroke="none"/>
    <path d="M20.6 7.05 L20.7 7.45 20.85 8.9 Q12.0 12.2 4.75 11.25 L4.75 11.2 4.65 10.7 4.55 10.6 4.5 9.95 4.55 9.8 4.6 9.65 4.65 8.85 4.75 8.6 4.8 7.85 4.9 7.7 5.0 7.3 5.05 6.9 5.2 6.65 5.3 6.45 5.45 6.3 5.6 6.2 6.0 6.0 6.4 5.8 6.85 5.6 7.25 5.5 7.5 5.45 7.95 5.35 8.3 5.25 8.9 5.15 9.25 5.05 11.05 4.8 11.6 4.8 12.25 4.7 13.95 4.65 15.3 4.7 15.85 4.75 16.35 4.75 18.25 5.15 18.65 5.35 19.85 6.05 20.15 6.3 20.6 7.05" fill="url(#gradient10)" fill-rule="evenodd" stroke="none"/>
  </g>
  <defs>
    <radialGradient cx="0" cy="0" gradientTransform="matrix(0.0401, -0.0087, -0.0101, -0.0379, 27.5, 16.95)" gradientUnits="userSpaceOnUse" id="gradient0" r="819.2" spreadMethod="pad">
      <stop offset="0.0" stop-color="#838383"/>
      <stop offset="1.0" stop-color="#2a2a2a"/>
    </radialGradient>
    <radialGradient cx="0" cy="0" fx="6.4" fy="0" gradientTransform="matrix(0.0304, -0.0066, -0.0077, -0.0288, 25.5, 26.9)" gradientUnits="userSpaceOnUse" id="gradient1" r="819.2" spreadMethod="pad">
      <stop offset="0.0" stop-color="#515151"/>
      <stop offset="1.0" stop-color="#171717"/>
    </radialGradient>
    <linearGradient gradientTransform="matrix(0.03, 0.0017, 2.0E-4, -0.0168, 26.8, 36.65)" gradientUnits="userSpaceOnUse" id="gradient2" spreadMethod="pad" x1="-819.2" x2="819.2">
      <stop offset="0.0" stop-color="#2a2a2a"/>
      <stop offset="0.0392156862745098" stop-color="#484848"/>
      <stop offset="0.09019607843137255" stop-color="#434343"/>
      <stop offset="0.17254901960784313" stop-color="#808080"/>
      <stop offset="0.2784313725490196" stop-color="#515151"/>
      <stop offset="0.8117647058823529" stop-color="#434343"/>
      <stop offset="0.9254901960784314" stop-color="#bdbdbd"/>
      <stop offset="1.0" stop-color="#747474"/>
    </linearGradient>
    <radialGradient cx="0" cy="0" gradientTransform="matrix(0.0558, -0.0121, -0.0071, -0.0264, 25.95, 41.05)" gradientUnits="userSpaceOnUse" id="gradient3" r="819.2" spreadMethod="pad">
      <stop offset="0.00392156862745098" stop-color="#9c9c9c"/>
      <stop offset="0.24705882352941178" stop-color="#909090"/>
      <stop offset="0.5764705882352941" stop-color="#464646"/>
      <stop offset="0.9882352941176471" stop-color="#2c2c2c"/>
    </radialGradient>
    <linearGradient gradientTransform="matrix(0.0256, 0.0, 0.0, 0.0178, 21.0, 11.1)" gradientUnits="userSpaceOnUse" id="gradient4" spreadMethod="pad" x1="-819.2" x2="819.2">
      <stop offset="0.0" stop-color="#2a2a2a"/>
      <stop offset="0.043137254901960784" stop-color="#646464"/>
      <stop offset="0.08235294117647059" stop-color="#a1a1a1"/>
      <stop offset="0.17254901960784313" stop-color="#8a8a8a"/>
      <stop offset="0.9098039215686274" stop-color="#b5b5b5"/>
      <stop offset="1.0" stop-color="#ffffff"/>
    </linearGradient>
    <radialGradient cx="0" cy="0" gradientTransform="matrix(0.0518, -0.0078, 0.0061, 0.0404, 23.9, 26.9)" gradientUnits="userSpaceOnUse" id="gradient5" r="819.2" spreadMethod="pad">
      <stop offset="0.0" stop-color="#3c3c3c"/>
      <stop offset="1.0" stop-color="#0e0e0e"/>
    </radialGradient>
    <radialGradient cx="0" cy="0" gradientTransform="matrix(0.0518, -0.0078, 0.0061, 0.0404, 23.9, 26.9)" gradientUnits="userSpaceOnUse" id="gradient6" r="819.2" spreadMethod="pad">
      <stop offset="0.0" stop-color="#878787"/>
      <stop offset="1.0" stop-color="#0e0e0e"/>
    </radialGradient>
    <radialGradient cx="0" cy="0" fx="3.2" fy="0" gradientTransform="matrix(0.0532, -0.008, 0.0062, 0.0415, 21.05, 29.65)" gradientUnits="userSpaceOnUse" id="gradient7" r="819.2" spreadMethod="pad">
      <stop offset="0.0" stop-color="#565656"/>
      <stop offset="0.39215686274509803" stop-color="#3a3a3a"/>
      <stop offset="0.5176470588235295" stop-color="#585858"/>
      <stop offset="0.5686274509803921" stop-color="#2d2d2d"/>
      <stop offset="1.0" stop-color="#0e0e0e"/>
    </radialGradient>
    <radialGradient cx="0" cy="0" fx="6.4" fy="0" gradientTransform="matrix(0.0421, 0.0, 0.0, 0.0353, 21.25, 27.1)" gradientUnits="userSpaceOnUse" id="gradient8" r="819.2" spreadMethod="pad">
      <stop offset="0.0" stop-color="#838383"/>
      <stop offset="0.5647058823529412" stop-color="#676767"/>
      <stop offset="0.6196078431372549" stop-color="#797979"/>
      <stop offset="0.6549019607843137" stop-color="#494949"/>
      <stop offset="1.0" stop-color="#272727"/>
    </radialGradient>
    <radialGradient cx="0" cy="0" gradientTransform="matrix(0.0103, 0.0, 0.0, 0.0078, 30.4, 10.6)" gradientUnits="userSpaceOnUse" id="gradient9" r="819.2" spreadMethod="pad">
      <stop offset="0.0" stop-color="#000000" stop-opacity="0.34117648"/>
      <stop offset="0.9882352941176471" stop-color="#000000" stop-opacity="0.0"/>
    </radialGradient>
    <radialGradient cx="0" cy="0" gradientTransform="matrix(0.012, 0.0, 0.0, 0.0087, 13.15, 13.8)" gradientUnits="userSpaceOnUse" id="gradient10" r="819.2" spreadMethod="pad">
      <stop offset="0.0" stop-color="#000000" stop-opacity="0.34117648"/>
      <stop offset="0.9882352941176471" stop-color="#000000" stop-opacity="0.0"/>
    </radialGradient>
  </defs>
</svg>
