<?xml version="1.0" encoding="UTF-8" standalone="no"?>
<svg xmlns:xlink="http://www.w3.org/1999/xlink" height="29.8px" width="40.9px" xmlns="http://www.w3.org/2000/svg">
  <g transform="matrix(1.0, 0.0, 0.0, 1.0, -1.25, 2.85)">
    <path d="M36.55 5.3 L37.15 5.05 37.15 6.2 37.05 14.15 Q34.15 15.85 30.2 16.45 L22.9 16.9 22.15 16.9 21.9 8.45 22.1 8.45 22.8 8.35 22.95 15.95 23.0 15.95 Q30.8 16.35 36.4 13.75 L36.55 5.3" fill="url(#gradient0)" fill-rule="evenodd" stroke="none"/>
    <path d="M23.65 9.05 Q33.0 8.15 36.35 6.1 36.3 5.55 36.55 5.3 L36.4 13.75 Q30.8 16.35 23.0 15.95 L23.65 9.05" fill="url(#gradient1)" fill-rule="evenodd" stroke="none"/>
    <path d="M20.25 8.9 L20.85 8.9 21.0 8.85 21.25 17.3 21.2 17.3 Q12.4 20.75 4.8 20.75 L4.6 11.2 4.75 11.25 5.45 11.1 5.65 19.7 5.65 19.75 Q13.15 19.55 20.45 16.6 L20.25 8.9" fill="url(#gradient2)" fill-rule="evenodd" stroke="none"/>
    <path d="M22.8 8.35 Q23.3 8.35 23.65 9.05 L23.0 15.95 22.95 15.95 22.8 8.35" fill="url(#gradient3)" fill-rule="evenodd" stroke="none"/>
    <path d="M6.2 11.9 Q12.4 11.8 20.05 9.55 19.95 9.0 20.25 8.9 L20.45 16.6 Q13.15 19.55 5.65 19.75 L5.65 19.7 6.2 11.9" fill="url(#gradient4)" fill-rule="evenodd" stroke="none"/>
    <path d="M5.45 11.1 Q5.85 11.15 6.2 11.9 L5.65 19.7 5.45 11.1" fill="url(#gradient5)" fill-rule="evenodd" stroke="none"/>
    <path d="M38.4 -2.85 Q40.2 -2.9 41.15 -2.2 42.15 -1.45 42.15 0.2 L42.15 17.55 Q42.25 20.8 38.5 21.05 L4.95 26.95 Q3.15 27.05 2.25 26.3 1.25 25.5 1.25 23.8 L1.25 5.35 Q1.2 2.2 4.85 1.95 L38.4 -2.85 M40.2 -1.0 L38.5 -1.35 4.95 3.45 Q2.8 3.6 2.75 5.35 L2.75 23.8 Q2.75 24.7 3.2 25.15 3.75 25.55 4.85 25.45 L38.4 19.55 Q40.55 19.5 40.65 17.55 L40.65 0.2 Q40.65 -0.6 40.2 -1.0" fill="url(#gradient6)" fill-rule="evenodd" stroke="none"/>
  </g>
  <defs>
    <radialGradient cx="0" cy="0" gradientTransform="matrix(0.0118, 0.0, 0.0, 0.0118, 29.35, 8.7)" gradientUnits="userSpaceOnUse" id="gradient0" r="819.2" spreadMethod="pad">
      <stop offset="0.0" stop-color="#4d4d4d"/>
      <stop offset="1.0" stop-color="#333333"/>
    </radialGradient>
    <radialGradient cx="0" cy="0" gradientTransform="matrix(0.0118, 0.0, 0.0, 0.0118, 29.35, 8.7)" gradientUnits="userSpaceOnUse" id="gradient1" r="819.2" spreadMethod="pad">
      <stop offset="0.0" stop-color="#707070"/>
      <stop offset="1.0" stop-color="#4a4a4a"/>
    </radialGradient>
    <radialGradient cx="0" cy="0" gradientTransform="matrix(0.0123, 0.0, 0.0, 0.0123, 12.75, 11.8)" gradientUnits="userSpaceOnUse" id="gradient2" r="819.2" spreadMethod="pad">
      <stop offset="0.0" stop-color="#4d4d4d"/>
      <stop offset="1.0" stop-color="#333333"/>
    </radialGradient>
    <radialGradient cx="0" cy="0" gradientTransform="matrix(0.0118, 0.0, 0.0, 0.0118, 29.35, 8.7)" gradientUnits="userSpaceOnUse" id="gradient3" r="819.2" spreadMethod="pad">
      <stop offset="0.0" stop-color="#333333"/>
      <stop offset="1.0" stop-color="#313131"/>
    </radialGradient>
    <radialGradient cx="0" cy="0" gradientTransform="matrix(0.0123, 0.0, 0.0, 0.0123, 12.75, 11.8)" gradientUnits="userSpaceOnUse" id="gradient4" r="819.2" spreadMethod="pad">
      <stop offset="0.0" stop-color="#707070"/>
      <stop offset="1.0" stop-color="#4a4a4a"/>
    </radialGradient>
    <radialGradient cx="0" cy="0" gradientTransform="matrix(0.0123, 0.0, 0.0, 0.0123, 12.75, 11.8)" gradientUnits="userSpaceOnUse" id="gradient5" r="819.2" spreadMethod="pad">
      <stop offset="0.0" stop-color="#333333"/>
      <stop offset="1.0" stop-color="#313131"/>
    </radialGradient>
    <radialGradient cx="0" cy="0" gradientTransform="matrix(0.0533, -0.0089, 0.0047, 0.0282, 20.25, 3.1)" gradientUnits="userSpaceOnUse" id="gradient6" r="819.2" spreadMethod="pad">
      <stop offset="0.0" stop-color="#8c8c8c"/>
      <stop offset="1.0" stop-color="#2c2c2c"/>
    </radialGradient>
  </defs>
</svg>
