<?xml version="1.0" encoding="UTF-8" standalone="no"?>
<svg xmlns:xlink="http://www.w3.org/1999/xlink" height="56.65px" width="49.35px" xmlns="http://www.w3.org/2000/svg">
  <g transform="matrix(1.0, 0.0, 0.0, 1.0, -2.1, 3.6)">
    <path d="M51.3 36.1 L51.4 35.95 51.4 35.85 51.4 36.05 51.4 36.25 51.3 36.1" fill="url(#gradient0)" fill-rule="evenodd" stroke="none"/>
    <path d="M3.35 32.15 L2.25 29.3 3.45 28.75 9.6 43.95 Q10.25 45.05 12.1 44.65 L16.0 43.8 16.2 44.2 19.5 43.5 19.6 43.0 42.35 37.65 42.5 38.1 45.85 37.35 45.9 36.9 48.25 36.4 Q49.25 36.35 49.75 35.75 50.0 35.4 49.85 34.85 L51.0 34.1 51.25 34.45 Q51.6 35.25 51.4 35.85 L51.4 35.95 51.3 36.1 50.95 36.55 Q50.3 37.3 48.55 37.6 L12.45 45.85 Q8.9 46.5 7.95 43.95 L8.0 43.95 3.7 33.05 3.35 32.15" fill="url(#gradient1)" fill-rule="evenodd" stroke="none"/>
    <path d="M3.35 32.15 L3.7 33.05 8.0 43.95 7.95 43.95 Q8.9 46.5 12.45 45.85 L48.55 37.6 Q50.3 37.3 50.95 36.55 L51.3 36.1 51.4 36.25 51.4 36.9 51.3 37.1 51.25 37.25 50.85 37.8 Q50.2 38.55 48.45 38.85 L12.35 47.1 Q8.8 47.75 7.95 45.35 L7.9 45.2 7.85 45.0 2.35 31.0 Q1.95 30.1 2.25 29.45 L3.35 32.15" fill="url(#gradient2)" fill-rule="evenodd" stroke="none"/>
    <path d="M51.4 36.9 L51.4 37.05 51.4 41.75 51.4 42.0 51.3 41.9 50.95 42.35 Q50.3 43.1 48.55 43.4 L12.45 51.65 Q8.9 52.3 7.95 49.75 L8.0 49.75 5.85 44.35 7.5 44.15 7.85 45.0 7.9 45.2 7.95 45.35 Q8.8 47.75 12.35 47.1 L48.45 38.85 Q50.2 38.55 50.85 37.8 L51.25 37.25 51.3 37.1 51.4 36.9 M8.3 51.85 L8.25 51.8 7.65 50.8 5.2 44.4 5.3 44.4 5.7 45.35 5.8 45.65 5.95 46.05 7.9 51.0 7.95 51.15 8.3 51.85" fill="url(#gradient3)" fill-rule="evenodd" stroke="none"/>
    <path d="M51.4 42.0 L51.4 42.05 51.4 42.7 51.3 42.9 51.25 43.05 50.85 43.6 Q50.2 44.35 48.45 44.65 L12.35 52.9 Q9.4 53.45 8.3 51.85 L7.95 51.15 7.9 51.0 5.95 46.05 5.8 45.65 5.7 45.35 5.3 44.4 2.35 36.8 Q1.95 35.9 2.25 35.25 L3.7 38.85 5.85 44.35 8.0 49.75 7.95 49.75 Q8.9 52.3 12.45 51.65 L48.55 43.4 Q50.3 43.1 50.95 42.35 L51.3 41.9 51.4 42.0" fill="url(#gradient4)" fill-rule="evenodd" stroke="none"/>
    <path d="M27.15 43.4 L27.15 47.25 Q26.4 47.45 25.85 46.95 25.3 46.5 25.3 45.7 25.3 44.9 25.85 44.25 26.4 43.6 27.15 43.4" fill="url(#gradient5)" fill-rule="evenodd" stroke="none"/>
    <path d="M27.15 47.25 L27.15 43.4 27.25 43.4 31.1 43.1 Q32.8 43.25 32.8 44.05 32.8 44.85 31.1 45.8 29.55 46.75 27.25 47.25 L27.15 47.25" fill="url(#gradient6)" fill-rule="evenodd" stroke="none"/>
    <path d="M38.25 41.1 Q38.9 41.0 39.4 41.4 40.0 41.75 40.0 42.55 40.0 43.35 39.4 44.1 L38.25 44.9 38.25 41.1" fill="url(#gradient7)" fill-rule="evenodd" stroke="none"/>
    <path d="M38.25 44.9 L37.8 45.05 34.75 45.35 Q33.45 45.2 33.45 44.4 33.45 43.6 34.75 42.65 36.0 41.7 37.8 41.2 L38.25 41.1 38.25 44.9" fill="url(#gradient8)" fill-rule="evenodd" stroke="none"/>
    <path d="M45.0 42.0 L44.65 42.1 44.65 41.4 44.75 40.85 45.35 40.75 45.25 41.3 45.25 41.8 45.0 41.85 44.95 41.9 44.8 41.85 44.65 41.85 44.65 42.0 44.9 42.0 45.0 42.0 M18.65 48.15 L18.3 48.25 18.3 47.55 18.4 47.0 19.0 46.9 18.9 47.45 18.9 47.95 18.65 48.0 18.6 48.05 18.45 48.0 18.3 48.0 18.3 48.15 18.65 48.15" fill="#cbb61f" fill-rule="evenodd" stroke="none"/>
    <path d="M38.0 41.6 L37.5 42.3 36.55 43.25 36.5 43.25 36.15 43.6 35.75 43.85 35.7 43.9 35.7 43.95 35.65 44.1 35.65 44.15 35.55 44.6 33.45 45.25 33.3 45.15 33.25 45.15 32.05 44.85 30.9 44.85 29.95 44.85 28.05 44.45 27.3 44.05 29.7 44.1 Q33.3 45.2 36.3 42.85 L37.6 41.75 Q37.75 41.6 37.9 41.6 L38.0 41.6" fill="url(#gradient9)" fill-rule="evenodd" stroke="none"/>
    <path d="M27.05 44.2 L27.95 44.65 29.9 45.1 29.85 45.05 30.9 45.1 32.05 45.1 33.15 45.4 33.45 45.5 33.5 45.5 35.7 44.75 35.75 44.75 35.8 44.7 35.9 44.15 35.85 44.15 35.95 44.0 36.25 43.8 36.3 43.8 36.7 43.45 37.7 42.4 38.25 41.7 38.3 41.6 38.65 41.65 38.8 41.65 Q39.65 43.55 37.95 44.95 36.2 46.35 33.95 46.85 L29.1 47.05 27.75 46.85 Q26.85 46.65 26.2 46.0 26.35 44.7 27.05 44.2" fill="url(#gradient10)" fill-rule="evenodd" stroke="none"/>
    <path d="M27.3 44.05 L28.05 44.45 29.95 44.85 30.9 44.85 32.05 44.85 33.25 45.15 33.3 45.15 33.45 45.25 35.55 44.6 35.65 44.15 35.65 44.1 35.7 43.95 35.7 43.9 35.75 43.85 36.15 43.6 36.5 43.25 36.55 43.25 37.5 42.3 38.0 41.6 38.3 41.6 38.25 41.7 37.7 42.4 36.7 43.45 36.3 43.8 36.25 43.8 35.95 44.0 35.85 44.15 35.9 44.15 35.8 44.7 35.75 44.75 35.7 44.75 33.5 45.5 33.45 45.5 33.15 45.4 32.05 45.1 30.9 45.1 29.85 45.05 29.9 45.1 27.95 44.65 27.05 44.2 Q27.2 44.15 27.3 44.05" fill="url(#gradient11)" fill-rule="evenodd" stroke="none"/>
    <path d="M46.2 39.8 L46.15 39.75 46.2 39.75 46.2 39.8 M46.15 39.75 L45.7 40.15 45.65 41.0 45.7 41.05 45.5 41.75 45.5 42.0 44.8 42.15 44.4 42.3 44.4 41.65 44.5 41.05 44.5 40.55 44.4 40.55 44.45 40.5 44.05 40.2 44.0 40.25 44.0 40.15 46.15 39.75 M45.0 42.0 L45.35 41.9 45.45 40.95 45.45 40.65 45.35 40.65 45.35 40.75 44.75 40.85 44.65 41.4 44.65 42.1 45.0 42.0" fill="url(#gradient12)" fill-rule="evenodd" stroke="none"/>
    <path d="M46.2 39.85 L46.2 39.8 46.2 39.85" fill="url(#gradient13)" fill-rule="evenodd" stroke="none"/>
    <path d="M46.15 39.75 L46.2 39.8 46.2 39.85 46.2 39.9 45.8 40.2 45.85 40.45 45.8 40.9 45.7 41.45 45.6 41.95 45.6 42.1 44.25 42.4 44.3 42.35 44.25 42.35 44.4 40.55 44.5 40.55 44.5 41.05 44.4 41.65 44.4 42.3 44.8 42.15 45.5 42.0 45.5 41.75 45.7 41.05 45.65 41.0 45.7 40.15 46.15 39.75 M45.35 40.75 L45.35 40.65 45.45 40.65 45.45 40.95 45.35 41.9 45.0 42.0 44.9 42.0 44.65 42.0 44.65 41.85 44.8 41.85 44.95 41.9 45.0 41.85 45.25 41.8 45.25 41.3 45.35 40.75 M44.0 40.25 L44.05 40.2 44.45 40.5 44.4 40.55 44.35 40.55 44.1 40.45 44.0 40.25 M17.65 46.4 L17.8 46.4 18.1 46.65 18.05 46.7 18.15 46.7 18.15 47.2 18.05 47.8 18.05 48.45 18.45 48.3 19.15 48.15 19.15 47.9 19.35 47.2 19.3 47.15 19.35 46.3 19.8 45.9 19.85 45.95 19.85 46.05 19.45 46.35 19.5 46.6 19.45 47.05 19.35 47.6 19.25 48.1 19.25 48.25 17.9 48.55 17.9 48.5 18.05 46.7 18.0 46.7 17.75 46.6 17.65 46.4 M19.0 46.9 L19.0 46.8 19.1 46.8 19.1 47.1 19.0 48.05 18.65 48.15 18.3 48.15 18.3 48.0 18.45 48.0 18.6 48.05 18.65 48.0 18.9 47.95 18.9 47.45 19.0 46.9" fill="#8c712f" fill-rule="evenodd" stroke="none"/>
    <path d="M19.8 45.9 L19.35 46.3 19.3 47.15 19.35 47.2 19.15 47.9 19.15 48.15 18.45 48.3 18.05 48.45 18.05 47.8 18.15 47.2 18.15 46.7 18.05 46.7 18.1 46.65 17.8 46.4 17.65 46.4 17.65 46.3 19.8 45.9 19.85 45.9 19.85 45.95 19.8 45.9 M18.65 48.15 L19.0 48.05 19.1 47.1 19.1 46.8 19.0 46.8 19.0 46.9 18.4 47.0 18.3 47.55 18.3 48.25 18.65 48.15" fill="url(#gradient14)" fill-rule="evenodd" stroke="none"/>
    <path d="M23.2 45.85 L22.9 46.6 22.2 47.05 21.5 46.85 Q21.2 46.6 21.2 46.15 21.2 45.75 21.5 45.4 21.8 45.05 22.2 45.0 L22.9 45.15 23.2 45.85" fill="url(#gradient15)" fill-rule="evenodd" stroke="none"/>
    <path d="M21.2 48.65 Q21.2 48.25 21.5 47.9 21.8 47.55 22.2 47.5 L22.9 47.65 23.2 48.35 22.9 49.1 22.2 49.55 21.5 49.35 Q21.2 49.1 21.2 48.65" fill="url(#gradient16)" fill-rule="evenodd" stroke="none"/>
    <path d="M13.9 48.0 Q13.9 47.6 14.2 47.25 14.5 46.9 14.9 46.85 15.3 46.75 15.6 47.0 L15.9 47.7 15.6 48.45 14.9 48.9 14.2 48.7 Q13.9 48.45 13.9 48.0" fill="url(#gradient17)" fill-rule="evenodd" stroke="none"/>
    <path d="M15.6 50.95 L14.9 51.4 14.2 51.2 Q13.9 50.95 13.9 50.5 13.9 50.1 14.2 49.75 14.5 49.4 14.9 49.35 15.3 49.25 15.6 49.5 L15.9 50.2 15.6 50.95" fill="url(#gradient18)" fill-rule="evenodd" stroke="none"/>
    <path d="M49.25 39.0 L49.55 39.7 49.25 40.45 48.55 40.9 47.85 40.7 Q47.55 40.45 47.55 40.0 47.55 39.6 47.85 39.25 48.15 38.9 48.55 38.85 48.95 38.75 49.25 39.0" fill="url(#gradient19)" fill-rule="evenodd" stroke="none"/>
    <path d="M47.55 42.5 Q47.55 42.1 47.85 41.75 48.15 41.4 48.55 41.35 48.95 41.25 49.25 41.5 L49.55 42.2 49.25 42.95 48.55 43.4 47.85 43.2 Q47.55 42.95 47.55 42.5" fill="url(#gradient20)" fill-rule="evenodd" stroke="none"/>
    <path d="M41.25 40.7 L41.95 40.85 42.25 41.55 41.95 42.3 41.25 42.75 Q40.85 42.8 40.55 42.55 40.25 42.3 40.25 41.85 40.25 41.45 40.55 41.1 40.85 40.75 41.25 40.7" fill="url(#gradient21)" fill-rule="evenodd" stroke="none"/>
    <path d="M40.55 45.05 Q40.25 44.8 40.25 44.35 40.25 43.95 40.55 43.6 40.85 43.25 41.25 43.2 L41.95 43.35 42.25 44.05 41.95 44.8 41.25 45.25 Q40.85 45.3 40.55 45.05" fill="url(#gradient22)" fill-rule="evenodd" stroke="none"/>
    <path d="M34.7 -3.55 L35.25 -2.9 35.55 -2.5 35.6 -2.45 35.6 -2.4 35.55 -2.4 35.55 -0.9 35.45 -0.9 35.45 -2.4 35.4 -2.4 35.4 -2.45 35.4 -2.5 35.1 -2.9 34.55 -3.6 34.7 -3.55 M31.65 -1.95 L30.95 -3.05 31.1 -3.1 31.85 -1.95 31.85 -1.9 31.8 -1.9 31.8 -0.35 31.75 -0.3 31.7 -0.35 31.7 -1.9 31.65 -1.9 31.65 -1.95 M40.6 14.8 L40.45 14.8 40.45 14.75 40.4 14.75 40.4 14.7 39.4 13.1 39.6 13.0 40.65 14.7 40.65 14.75 40.6 14.75 40.6 14.8 M46.85 39.15 L46.85 37.95 46.85 37.9 45.85 36.9 46.0 36.9 47.05 37.9 47.05 37.95 47.0 39.65 46.9 41.8 46.85 43.4 45.05 43.8 45.0 45.45 44.85 45.45 44.9 43.85 42.8 44.3 42.9 40.05 42.95 38.85 42.95 38.8 42.15 37.75 42.3 37.7 43.15 38.8 43.15 38.85 43.1 40.0 42.95 44.15 46.75 43.3 46.8 41.8 46.85 39.65 46.85 39.15 M24.3 22.05 L24.0 22.05 24.0 22.0 23.0 20.4 23.2 20.3 24.3 22.0 24.3 22.05 M36.6 17.95 L37.7 19.65 37.7 19.7 37.4 19.7 37.4 19.65 36.4 18.05 36.6 17.95 M10.15 2.75 L10.05 2.75 10.05 1.2 10.0 1.2 10.0 1.1 9.1 0.0 9.25 0.05 10.2 1.1 10.2 1.2 10.15 1.2 10.15 2.75 M5.9 0.7 L6.45 1.65 6.45 1.7 6.4 1.7 6.45 3.25 6.4 3.3 6.3 3.3 6.3 1.7 6.25 1.7 6.25 1.65 5.75 0.7 5.6 0.5 5.75 0.5 5.9 0.7 M4.35 23.65 L5.45 25.35 5.45 25.4 5.15 25.4 5.15 25.35 4.15 23.75 4.35 23.65 M18.9 21.1 L20.0 22.8 20.0 22.85 19.7 22.85 19.7 22.8 18.7 21.2 18.9 21.1 M20.45 45.2 L20.5 44.0 19.5 43.0 19.65 43.0 20.7 44.0 20.25 49.55 18.45 49.95 18.3 51.6 18.15 51.6 18.3 50.0 16.25 50.4 16.55 46.1 16.6 44.95 16.6 44.9 15.95 44.0 15.8 43.85 15.95 43.8 16.1 44.0 16.8 44.9 16.8 44.95 16.75 46.05 16.45 50.25 20.15 49.45 20.25 48.2 20.35 46.7 20.45 45.2" fill="#000000" fill-opacity="0.54901963" fill-rule="evenodd" stroke="none"/>
    <path d="M43.1 40.0 L46.85 39.15 46.85 39.65 46.8 41.8 46.75 43.3 42.95 44.15 43.1 40.0 M46.2 39.8 L46.2 39.75 46.15 39.75 44.0 40.15 44.0 40.25 43.9 42.95 46.2 42.4 46.2 39.9 46.2 39.85 46.2 39.8 M16.75 46.05 L20.45 45.2 20.35 46.7 20.25 48.2 20.15 49.45 16.45 50.25 16.75 46.05 M19.8 45.9 L17.65 46.3 17.65 46.4 17.4 49.05 19.5 48.55 19.85 46.05 19.85 45.95 19.85 45.9 19.8 45.9" fill="#000000" fill-opacity="0.4" fill-rule="evenodd" stroke="none"/>
    <path d="M44.4 40.55 L44.25 42.35 44.3 42.35 44.25 42.4 45.6 42.1 45.6 41.95 45.7 41.45 45.8 40.9 45.85 40.45 45.8 40.2 46.2 39.9 46.2 42.4 43.9 42.95 44.0 40.25 44.1 40.45 44.35 40.55 44.4 40.55" fill="url(#gradient23)" fill-rule="evenodd" stroke="none"/>
    <path d="M17.65 46.4 L17.75 46.6 18.0 46.7 18.05 46.7 17.9 48.5 17.9 48.55 19.25 48.25 19.25 48.1 19.35 47.6 19.45 47.05 19.5 46.6 19.45 46.35 19.85 46.05 19.5 48.55 17.4 49.05 17.65 46.4" fill="url(#gradient24)" fill-rule="evenodd" stroke="none"/>
  </g>
  <defs>
    <linearGradient gradientTransform="matrix(0.0247, -0.0054, -0.0043, -0.0162, 24.7, 36.95)" gradientUnits="userSpaceOnUse" id="gradient0" spreadMethod="pad" x1="-819.2" x2="819.2">
      <stop offset="0.0" stop-color="#2a2a2a"/>
      <stop offset="0.050980392156862744" stop-color="#646464"/>
      <stop offset="0.12156862745098039" stop-color="#a3a3a3"/>
      <stop offset="0.9098039215686274" stop-color="#b5b5b5"/>
      <stop offset="1.0" stop-color="#ffffff"/>
    </linearGradient>
    <radialGradient cx="0" cy="0" gradientTransform="matrix(0.0558, -0.0121, -0.0071, -0.0264, 25.95, 41.05)" gradientUnits="userSpaceOnUse" id="gradient1" r="819.2" spreadMethod="pad">
      <stop offset="0.00392156862745098" stop-color="#9c9c9c"/>
      <stop offset="0.24705882352941178" stop-color="#909090"/>
      <stop offset="0.5764705882352941" stop-color="#464646"/>
      <stop offset="0.9882352941176471" stop-color="#2c2c2c"/>
    </radialGradient>
    <linearGradient gradientTransform="matrix(0.0301, 0.0024, 5.0E-4, -0.0168, 26.3, 36.9)" gradientUnits="userSpaceOnUse" id="gradient2" spreadMethod="pad" x1="-819.2" x2="819.2">
      <stop offset="0.0" stop-color="#2a2a2a"/>
      <stop offset="0.0392156862745098" stop-color="#696969"/>
      <stop offset="0.07450980392156863" stop-color="#3a3a3a"/>
      <stop offset="0.12156862745098039" stop-color="#585858"/>
      <stop offset="0.1843137254901961" stop-color="#bfbfbf"/>
      <stop offset="0.27450980392156865" stop-color="#565656"/>
      <stop offset="0.8156862745098039" stop-color="#5d5d5d"/>
      <stop offset="0.9529411764705882" stop-color="#e2e2e2"/>
      <stop offset="1.0" stop-color="#858585"/>
    </linearGradient>
    <linearGradient gradientTransform="matrix(0.03, 0.0017, 2.0E-4, -0.0168, 26.8, 36.65)" gradientUnits="userSpaceOnUse" id="gradient3" spreadMethod="pad" x1="-819.2" x2="819.2">
      <stop offset="0.0" stop-color="#2a2a2a"/>
      <stop offset="0.0392156862745098" stop-color="#484848"/>
      <stop offset="0.09019607843137255" stop-color="#434343"/>
      <stop offset="0.17254901960784313" stop-color="#808080"/>
      <stop offset="0.2784313725490196" stop-color="#515151"/>
      <stop offset="0.8117647058823529" stop-color="#434343"/>
      <stop offset="0.9254901960784314" stop-color="#bdbdbd"/>
      <stop offset="1.0" stop-color="#747474"/>
    </linearGradient>
    <linearGradient gradientTransform="matrix(0.0301, 0.0024, 5.0E-4, -0.0168, 26.3, 42.7)" gradientUnits="userSpaceOnUse" id="gradient4" spreadMethod="pad" x1="-819.2" x2="819.2">
      <stop offset="0.0" stop-color="#2a2a2a"/>
      <stop offset="0.0392156862745098" stop-color="#696969"/>
      <stop offset="0.07450980392156863" stop-color="#3a3a3a"/>
      <stop offset="0.12156862745098039" stop-color="#585858"/>
      <stop offset="0.1843137254901961" stop-color="#bfbfbf"/>
      <stop offset="0.27450980392156865" stop-color="#565656"/>
      <stop offset="0.8156862745098039" stop-color="#5d5d5d"/>
      <stop offset="0.9529411764705882" stop-color="#e2e2e2"/>
      <stop offset="1.0" stop-color="#858585"/>
    </linearGradient>
    <radialGradient cx="0" cy="0" gradientTransform="matrix(0.0023, -5.0E-4, 0.0, 0.0023, 27.2, 45.3)" gradientUnits="userSpaceOnUse" id="gradient5" r="819.2" spreadMethod="pad">
      <stop offset="0.0" stop-color="#000000"/>
      <stop offset="1.0" stop-color="#000000" stop-opacity="0.0"/>
    </radialGradient>
    <radialGradient cx="0" cy="0" gradientTransform="matrix(0.0065, -0.0014, 0.0, 0.0023, 27.25, 45.3)" gradientUnits="userSpaceOnUse" id="gradient6" r="819.2" spreadMethod="pad">
      <stop offset="0.0" stop-color="#000000"/>
      <stop offset="1.0" stop-color="#000000" stop-opacity="0.0"/>
    </radialGradient>
    <radialGradient cx="0" cy="0" gradientTransform="matrix(0.0023, -5.0E-4, 0.0, 0.0023, 38.05, 43.0)" gradientUnits="userSpaceOnUse" id="gradient7" r="819.2" spreadMethod="pad">
      <stop offset="0.0" stop-color="#000000"/>
      <stop offset="1.0" stop-color="#000000" stop-opacity="0.0"/>
    </radialGradient>
    <radialGradient cx="0" cy="0" gradientTransform="matrix(0.0053, -0.0016, 0.0, 0.0023, 37.8, 43.1)" gradientUnits="userSpaceOnUse" id="gradient8" r="819.2" spreadMethod="pad">
      <stop offset="0.0" stop-color="#000000"/>
      <stop offset="1.0" stop-color="#000000" stop-opacity="0.0"/>
    </radialGradient>
    <radialGradient cx="0" cy="0" gradientTransform="matrix(0.0116, -0.0028, 0.0015, 0.0069, 34.1, 45.3)" gradientUnits="userSpaceOnUse" id="gradient9" r="819.2" spreadMethod="pad">
      <stop offset="0.0" stop-color="#858585"/>
      <stop offset="1.0" stop-color="#0e0e0e"/>
    </radialGradient>
    <radialGradient cx="0" cy="0" gradientTransform="matrix(0.0128, -0.0036, 0.0017, 0.0066, 32.7, 42.65)" gradientUnits="userSpaceOnUse" id="gradient10" r="819.2" spreadMethod="pad">
      <stop offset="0.0" stop-color="#919191"/>
      <stop offset="1.0" stop-color="#0e0e0e"/>
    </radialGradient>
    <radialGradient cx="0" cy="0" gradientTransform="matrix(0.0132, -0.0027, 0.0015, 0.0072, 34.95, 46.5)" gradientUnits="userSpaceOnUse" id="gradient11" r="819.2" spreadMethod="pad">
      <stop offset="0.0" stop-color="#707070"/>
      <stop offset="1.0" stop-color="#0e0e0e"/>
    </radialGradient>
    <linearGradient gradientTransform="matrix(-3.0E-4, -0.0013, 0.0016, -4.0E-4, 45.0, 40.85)" gradientUnits="userSpaceOnUse" id="gradient12" spreadMethod="pad" x1="-819.2" x2="819.2">
      <stop offset="0.0" stop-color="#cbb61f"/>
      <stop offset="0.6196078431372549" stop-color="#ffffff"/>
      <stop offset="0.7294117647058823" stop-color="#bbac6b"/>
      <stop offset="1.0" stop-color="#998222"/>
    </linearGradient>
    <linearGradient gradientTransform="matrix(3.0E-4, 0.0016, -0.0018, 4.0E-4, 44.9, 41.35)" gradientUnits="userSpaceOnUse" id="gradient13" spreadMethod="pad" x1="-819.2" x2="819.2">
      <stop offset="0.0" stop-color="#cbb61f"/>
      <stop offset="0.19607843137254902" stop-color="#ffffff"/>
      <stop offset="0.24313725490196078" stop-color="#ddcf6d"/>
      <stop offset="0.7686274509803922" stop-color="#bbac6b"/>
      <stop offset="0.807843137254902" stop-color="#a08a30"/>
      <stop offset="1.0" stop-color="#856d0c"/>
    </linearGradient>
    <linearGradient gradientTransform="matrix(-3.0E-4, -0.0013, 0.0016, -4.0E-4, 18.65, 47.0)" gradientUnits="userSpaceOnUse" id="gradient14" spreadMethod="pad" x1="-819.2" x2="819.2">
      <stop offset="0.0" stop-color="#cbb61f"/>
      <stop offset="0.6196078431372549" stop-color="#ffffff"/>
      <stop offset="0.7294117647058823" stop-color="#bbac6b"/>
      <stop offset="1.0" stop-color="#998222"/>
    </linearGradient>
    <radialGradient cx="0" cy="0" gradientTransform="matrix(0.0011, -2.0E-4, 0.0, 0.0011, 22.2, 46.0)" gradientUnits="userSpaceOnUse" id="gradient15" r="819.2" spreadMethod="pad">
      <stop offset="0.5215686274509804" stop-color="#ffffff"/>
      <stop offset="1.0" stop-color="#0bc2ff" stop-opacity="0.0"/>
    </radialGradient>
    <radialGradient cx="0" cy="0" gradientTransform="matrix(0.0011, -2.0E-4, 0.0, 0.0011, 22.2, 48.5)" gradientUnits="userSpaceOnUse" id="gradient16" r="819.2" spreadMethod="pad">
      <stop offset="0.5215686274509804" stop-color="#ffffff"/>
      <stop offset="1.0" stop-color="#0bc2ff" stop-opacity="0.0"/>
    </radialGradient>
    <radialGradient cx="0" cy="0" gradientTransform="matrix(0.0011, -2.0E-4, 0.0, 0.0011, 14.9, 47.85)" gradientUnits="userSpaceOnUse" id="gradient17" r="819.2" spreadMethod="pad">
      <stop offset="0.5215686274509804" stop-color="#ffffff"/>
      <stop offset="1.0" stop-color="#0bc2ff" stop-opacity="0.0"/>
    </radialGradient>
    <radialGradient cx="0" cy="0" gradientTransform="matrix(0.0011, -2.0E-4, 0.0, 0.0011, 14.9, 50.35)" gradientUnits="userSpaceOnUse" id="gradient18" r="819.2" spreadMethod="pad">
      <stop offset="0.5215686274509804" stop-color="#ffffff"/>
      <stop offset="1.0" stop-color="#0bc2ff" stop-opacity="0.0"/>
    </radialGradient>
    <radialGradient cx="0" cy="0" gradientTransform="matrix(0.0011, -2.0E-4, 0.0, 0.0011, 48.55, 39.85)" gradientUnits="userSpaceOnUse" id="gradient19" r="819.2" spreadMethod="pad">
      <stop offset="0.5215686274509804" stop-color="#ffffff"/>
      <stop offset="1.0" stop-color="#0bc2ff" stop-opacity="0.0"/>
    </radialGradient>
    <radialGradient cx="0" cy="0" gradientTransform="matrix(0.0011, -2.0E-4, 0.0, 0.0011, 48.55, 42.35)" gradientUnits="userSpaceOnUse" id="gradient20" r="819.2" spreadMethod="pad">
      <stop offset="0.5215686274509804" stop-color="#ffffff"/>
      <stop offset="1.0" stop-color="#0bc2ff" stop-opacity="0.0"/>
    </radialGradient>
    <radialGradient cx="0" cy="0" gradientTransform="matrix(0.0011, -2.0E-4, 0.0, 0.0011, 41.25, 41.7)" gradientUnits="userSpaceOnUse" id="gradient21" r="819.2" spreadMethod="pad">
      <stop offset="0.5215686274509804" stop-color="#ffffff"/>
      <stop offset="1.0" stop-color="#0bc2ff" stop-opacity="0.0"/>
    </radialGradient>
    <radialGradient cx="0" cy="0" gradientTransform="matrix(0.0011, -2.0E-4, 0.0, 0.0011, 41.25, 44.2)" gradientUnits="userSpaceOnUse" id="gradient22" r="819.2" spreadMethod="pad">
      <stop offset="0.5215686274509804" stop-color="#ffffff"/>
      <stop offset="1.0" stop-color="#0bc2ff" stop-opacity="0.0"/>
    </radialGradient>
    <linearGradient gradientTransform="matrix(3.0E-4, 0.0016, -0.0018, 4.0E-4, 44.9, 41.35)" gradientUnits="userSpaceOnUse" id="gradient23" spreadMethod="pad" x1="-819.2" x2="819.2">
      <stop offset="0.0" stop-color="#cbb61f"/>
      <stop offset="0.19607843137254902" stop-color="#ffffff"/>
      <stop offset="0.24313725490196078" stop-color="#ddcf6d"/>
      <stop offset="0.7686274509803922" stop-color="#bbac6b"/>
      <stop offset="0.807843137254902" stop-color="#857638"/>
      <stop offset="1.0" stop-color="#4d3d00"/>
    </linearGradient>
    <linearGradient gradientTransform="matrix(3.0E-4, 0.0016, -0.0018, 4.0E-4, 18.55, 47.5)" gradientUnits="userSpaceOnUse" id="gradient24" spreadMethod="pad" x1="-819.2" x2="819.2">
      <stop offset="0.0" stop-color="#cbb61f"/>
      <stop offset="0.19607843137254902" stop-color="#ffffff"/>
      <stop offset="0.24313725490196078" stop-color="#ddcf6d"/>
      <stop offset="0.7686274509803922" stop-color="#bbac6b"/>
      <stop offset="0.807843137254902" stop-color="#857638"/>
      <stop offset="1.0" stop-color="#4d3d00"/>
    </linearGradient>
  </defs>
</svg>
