<?xml version="1.0" encoding="UTF-8" standalone="no"?>
<svg xmlns:xlink="http://www.w3.org/1999/xlink" height="67.65px" width="91.9px" xmlns="http://www.w3.org/2000/svg">
  <g transform="matrix(1.0, 0.0, 0.0, 1.0, 45.95, 33.8)">
    <path d="M32.0 33.3 Q33.0 32.55 33.3 30.8 L38.9 1.35 38.8 0.95 39.05 0.2 39.15 0.05 41.8 -14.0 Q42.5 -17.7 38.8 -18.4 L37.2 -18.7 35.95 -18.45 Q34.9 -18.45 34.15 -19.2 L34.15 -19.25 -17.5 -29.05 -17.55 -28.95 Q-17.65 -28.8 -17.9 -28.8 -18.35 -28.8 -18.55 -29.1 L-18.65 -29.3 -32.9 -31.95 Q-31.7 -34.25 -28.75 -33.7 L43.05 -20.1 Q46.75 -19.4 45.75 -15.7 L34.4 30.25 Q33.8 32.75 32.0 33.3" fill="url(#gradient0)" fill-rule="evenodd" stroke="none"/>
    <path d="M-32.9 -31.95 L-18.65 -29.3 -18.55 -29.1 Q-18.35 -28.8 -17.9 -28.8 -17.65 -28.8 -17.55 -28.95 L-17.5 -29.05 34.15 -19.25 34.15 -19.2 Q34.9 -18.45 35.95 -18.45 L37.2 -18.7 38.8 -18.4 Q42.5 -17.7 41.8 -14.0 L39.15 0.05 39.05 0.2 38.8 0.95 38.9 1.35 33.3 30.8 Q33.0 32.55 32.0 33.3 30.9 34.1 28.95 33.75 L-42.85 20.2 Q-46.55 19.5 -45.85 15.8 L-37.4 -29.0 Q-36.7 -32.7 -33.0 -32.0 L-32.9 -31.95" fill="#e7c37f" fill-rule="evenodd" stroke="none"/>
  </g>
  <defs>
    <linearGradient gradientTransform="matrix(0.0075, -0.0194, 0.0383, 0.0147, 3.35, -5.2)" gradientUnits="userSpaceOnUse" id="gradient0" spreadMethod="pad" x1="-819.2" x2="819.2">
      <stop offset="0.0" stop-color="#735a29"/>
      <stop offset="1.0" stop-color="#bc9a59"/>
    </linearGradient>
  </defs>
</svg>
