<?xml version="1.0" encoding="UTF-8" standalone="no"?>
<svg xmlns:xlink="http://www.w3.org/1999/xlink" height="9.2px" width="44.35px" xmlns="http://www.w3.org/2000/svg">
  <g transform="matrix(1.0, 0.0, 0.0, 1.0, -39.2, -38.9)">
    <path d="M39.35 44.65 L39.2 43.1 40.15 43.05 40.15 43.4 40.0 43.65 39.75 44.1 39.8 44.45 39.75 44.75 39.55 44.9 39.45 44.85 39.35 44.65 M71.85 40.4 L71.8 40.0 72.55 39.85 73.15 39.9 73.75 40.4 73.95 41.0 73.85 41.65 73.55 42.05 72.95 42.45 73.45 42.55 Q73.8 42.6 73.95 42.8 L74.15 43.35 74.25 43.9 Q74.15 43.95 74.2 44.15 L74.4 44.2 74.45 44.15 74.6 43.9 74.75 44.0 74.85 44.2 74.75 44.35 74.7 44.55 74.55 44.75 74.15 44.9 73.85 45.05 73.45 45.05 72.95 44.8 72.75 44.45 72.6 44.0 72.55 43.5 72.5 43.2 72.4 42.85 72.05 42.8 72.05 42.4 72.35 42.25 72.4 42.05 72.35 41.75 72.3 40.95 72.2 40.5 71.85 40.4 M74.6 39.9 L74.7 39.75 74.9 39.7 76.8 39.45 77.25 44.55 75.35 44.75 75.2 44.75 75.0 44.6 75.15 44.4 75.2 44.4 75.45 44.25 75.4 44.05 75.0 40.25 74.8 40.05 74.7 39.95 74.6 39.9 M77.55 44.5 L77.5 44.2 78.15 43.75 78.6 43.1 78.6 42.9 78.7 42.8 78.9 42.9 79.1 44.4 77.55 44.5 M77.35 42.1 L77.3 41.65 77.55 41.45 77.7 41.1 77.75 40.8 77.85 40.75 78.05 40.8 78.15 42.65 78.2 42.8 78.05 42.9 77.85 42.8 77.8 42.7 77.65 42.3 77.35 42.1 M77.1 39.8 L77.1 39.45 78.65 39.3 78.75 40.7 78.7 40.75 78.5 40.8 78.4 40.8 78.25 40.65 77.8 40.05 Q77.55 39.85 77.1 39.8 M79.15 39.3 L80.15 39.15 80.1 39.5 79.85 39.85 79.7 40.25 79.7 40.6 79.7 40.95 79.55 41.1 79.3 41.0 79.15 39.3 M68.8 44.15 L68.85 43.95 69.0 43.8 69.25 43.95 Q69.15 44.05 69.2 44.1 L69.15 44.65 68.8 45.0 68.3 45.45 67.8 45.65 67.75 45.2 68.4 44.85 68.8 44.15 M63.15 45.95 L63.15 45.55 63.85 45.2 64.15 44.45 Q64.1 44.35 64.2 44.35 L64.4 44.25 64.55 44.3 64.75 45.8 63.15 45.95 M62.95 43.55 L62.9 43.1 63.2 42.9 63.25 42.5 63.3 42.3 63.45 42.2 63.65 42.2 63.7 42.5 63.9 44.1 63.8 44.2 63.65 44.25 63.45 44.25 63.45 44.15 63.3 43.75 62.95 43.55 M62.7 41.25 L62.7 40.85 64.25 40.75 64.35 42.15 64.15 42.15 63.95 42.2 63.85 42.1 63.5 41.45 62.7 41.25 M67.4 45.2 L67.4 45.65 66.2 45.35 65.3 44.6 64.95 43.3 65.05 41.9 65.8 40.8 Q66.3 40.3 66.95 40.25 L66.95 40.65 Q66.7 40.65 66.7 41.0 L66.6 41.4 66.9 44.65 67.1 45.1 67.4 45.2 M70.15 44.55 L69.8 40.7 69.65 40.6 69.5 40.4 69.5 40.35 69.5 40.2 69.65 40.2 71.55 40.05 71.9 44.4 71.95 44.6 72.2 44.7 72.25 44.75 72.3 44.85 72.25 45.0 72.15 45.05 70.1 45.25 69.95 45.2 69.95 45.05 69.9 44.9 70.05 44.9 70.2 44.7 70.15 44.55 M67.35 40.65 L67.35 40.25 67.6 40.3 68.0 40.35 68.3 40.45 68.35 40.4 68.4 40.3 68.5 40.15 68.8 40.15 68.85 40.25 68.95 42.15 68.7 42.25 68.7 42.2 68.5 42.05 68.3 41.5 Q68.25 41.15 67.85 40.95 L67.35 40.65 M56.35 45.0 L56.35 44.8 56.5 44.65 56.6 44.7 56.7 44.85 57.1 45.45 57.4 45.85 58.0 46.1 58.05 46.55 57.6 46.55 57.25 46.4 57.05 46.45 56.85 46.5 56.8 46.5 56.7 46.6 56.6 46.55 56.45 46.45 56.35 45.0 M50.95 42.35 L51.0 41.95 51.9 41.9 52.35 42.1 53.0 42.55 53.25 43.2 53.15 44.05 52.65 44.65 52.2 44.95 51.25 45.1 51.2 44.65 51.6 44.6 51.65 44.35 51.6 44.0 51.5 43.0 51.4 42.55 Q51.35 42.35 50.95 42.35 M60.3 41.25 L60.3 41.05 60.5 41.05 62.35 40.9 62.85 46.0 60.95 46.15 Q60.9 46.2 60.75 46.05 L60.65 45.95 60.75 45.8 60.85 45.8 61.1 45.6 61.05 45.35 60.65 41.55 60.4 41.5 60.3 41.3 60.3 41.25 M57.7 41.15 L57.75 41.55 57.45 41.85 57.35 42.15 57.45 42.6 57.75 42.7 Q58.1 42.75 58.35 42.95 L59.35 43.35 59.9 43.9 60.05 44.6 59.85 45.5 59.25 46.25 58.4 46.55 58.4 46.1 58.75 45.9 58.8 45.35 58.75 45.1 58.3 44.85 57.9 44.75 57.1 44.4 56.35 43.9 56.15 43.0 56.25 42.05 Q56.4 41.7 56.8 41.5 L57.7 41.15 M59.65 42.5 L59.65 42.65 59.5 42.85 59.2 42.7 59.15 42.55 58.9 42.05 58.55 41.75 58.05 41.5 58.1 41.15 58.4 41.15 58.85 41.2 59.0 41.3 59.1 41.2 59.3 41.15 59.35 41.0 Q59.55 41.0 59.5 41.1 L59.65 41.15 59.65 42.5 M43.5 42.7 L43.6 44.45 43.55 44.45 43.4 44.55 Q43.15 44.6 43.15 44.4 L43.1 44.1 43.0 43.8 42.85 43.45 42.45 43.15 42.45 42.8 43.5 42.7 M40.9 47.35 L40.5 42.95 42.15 42.8 42.5 47.2 42.55 47.35 42.85 47.5 42.95 47.55 43.0 47.65 42.95 47.85 42.9 47.9 40.75 48.1 40.55 48.05 40.55 47.9 40.55 47.75 40.7 47.75 40.9 47.55 40.9 47.35 M49.35 46.55 L49.0 42.7 Q49.0 42.55 48.75 42.55 L48.75 42.45 48.7 42.35 48.75 42.15 50.7 42.0 51.05 46.35 51.2 46.6 51.35 46.7 51.4 46.7 51.5 46.85 51.4 47.0 51.4 47.1 49.3 47.3 49.15 47.2 49.1 47.05 49.15 46.9 49.4 46.75 49.35 46.55 M46.65 47.7 L46.6 47.25 46.8 47.0 46.85 46.9 46.8 46.8 46.5 43.0 46.35 42.8 Q46.3 42.65 46.1 42.65 L46.15 42.25 47.4 42.55 Q48.0 42.95 48.1 43.5 L48.5 44.75 48.4 46.1 47.8 47.1 46.65 47.7 M45.85 42.3 L45.85 42.7 45.55 42.85 45.55 43.1 45.85 46.85 45.95 46.95 46.0 47.1 46.25 47.2 46.3 47.65 Q45.5 47.65 45.1 47.3 44.5 47.05 44.25 46.5 43.9 45.9 43.9 45.3 43.75 44.55 44.0 43.9 44.2 43.3 44.7 42.8 45.0 42.45 45.85 42.3 M80.8 43.5 L80.4 39.15 82.15 39.05 82.5 43.4 82.6 43.55 82.75 43.7 82.85 43.7 82.9 43.85 82.8 43.95 82.75 44.05 80.7 44.25 80.55 44.15 80.5 44.05 80.5 43.9 80.55 43.85 Q80.8 43.85 80.85 43.7 L80.8 43.5 M83.45 38.9 L83.55 40.55 83.45 40.6 83.25 40.7 83.1 40.6 83.0 40.3 82.85 39.95 82.85 39.6 82.35 39.3 82.35 38.95 83.45 38.9" fill="#990000" fill-opacity="0.7019608" fill-rule="evenodd" stroke="none"/>
  </g>
</svg>
