<?xml version="1.0" encoding="UTF-8" standalone="no"?>
<svg xmlns:xlink="http://www.w3.org/1999/xlink" height="59.75px" width="80.75px" xmlns="http://www.w3.org/2000/svg">
  <g transform="matrix(1.0, 0.0, 0.0, 1.0, 37.8, -2.15)">
    <path d="M11.4 26.8 Q11.1 24.65 9.5 23.3 7.9 21.95 5.75 22.2 3.6 22.4 2.25 24.0 0.85 25.6 1.1 27.75 1.25 29.85 2.9 31.25 4.6 32.6 6.75 32.4 8.85 32.15 10.2 30.6 11.55 28.85 11.4 26.8 M30.6 25.15 Q28.45 23.4 25.7 23.7 22.9 23.95 21.2 26.1 19.4 28.15 19.65 30.95 19.9 33.75 22.05 35.55 23.5 36.7 25.2 36.95 L-24.3 60.2 -36.55 34.2 15.15 10.0 15.15 12.15 Q15.55 16.35 18.75 19.0 21.95 21.6 26.15 21.25 30.25 20.8 32.9 17.65 L34.35 15.25 41.1 29.55 32.15 33.7 Q33.25 31.9 33.1 29.7 32.75 26.9 30.6 25.15" fill="#a3cfff" fill-rule="evenodd" stroke="none"/>
    <path d="M30.6 25.15 Q32.75 26.9 33.1 29.7 33.25 31.9 32.15 33.7 L41.1 29.55 34.35 15.25 32.9 17.65 Q30.25 20.8 26.15 21.25 21.95 21.6 18.75 19.0 15.55 16.35 15.15 12.15 L15.15 10.0 -36.55 34.2 -24.3 60.2 25.2 36.95 Q23.5 36.7 22.05 35.55 19.9 33.75 19.65 30.95 19.4 28.15 21.2 26.1 22.9 23.95 25.7 23.7 28.45 23.4 30.6 25.15 M11.4 26.8 Q11.55 28.85 10.2 30.6 8.85 32.15 6.75 32.4 4.6 32.6 2.9 31.25 1.25 29.85 1.1 27.75 0.85 25.6 2.25 24.0 3.6 22.4 5.75 22.2 7.9 21.95 9.5 23.3 11.1 24.65 11.4 26.8 M-37.8 33.8 L29.7 2.15 42.95 30.2 -24.5 61.9 -37.8 33.8" fill="#ffffff" fill-rule="evenodd" stroke="none"/>
    <path d="M30.15 8.65 L30.4 9.2 9.4 19.05 9.1 18.5 30.15 8.65 M1.4 22.75 L1.65 22.7 1.85 22.6 1.85 22.4 2.25 22.35 2.1 22.7 1.8 22.95 1.2 23.0 0.9 22.6 Q0.65 22.3 0.85 22.05 L1.15 21.65 Q1.5 21.5 1.7 21.65 L2.15 22.1 1.3 22.5 1.4 22.75 M1.85 18.8 L2.15 19.35 -26.1 32.65 -26.4 32.05 1.85 18.8 M1.5 21.9 L1.3 21.85 1.1 22.2 1.15 22.35 1.7 22.05 1.5 21.9 M0.75 22.8 L0.75 23.3 0.45 23.6 -0.15 23.65 -0.45 23.2 Q-0.7 23.0 -0.55 22.7 L-0.15 22.35 0.2 22.3 Q0.4 22.2 0.55 22.45 L0.25 22.65 0.05 22.55 0.0 22.55 -0.2 22.75 -0.15 23.05 0.05 23.25 0.35 23.3 0.5 23.2 0.4 22.95 0.75 22.8 M6.45 39.75 L6.65 40.25 -24.5 54.8 -24.75 54.3 6.45 39.75 M14.8 27.15 L15.0 27.7 -27.85 47.85 -28.05 47.3 14.8 27.15 M3.85 23.05 L4.1 23.5 -24.15 36.8 -24.35 36.25 3.85 23.05 M-3.9 23.55 L-3.85 23.8 -4.05 23.85 -4.1 23.9 -4.1 24.05 -4.05 24.15 -3.9 24.05 -3.75 24.3 -3.95 24.45 -3.5 25.4 -3.8 25.6 -4.3 24.6 -4.45 24.7 -4.55 24.4 -4.4 24.3 -4.45 24.3 -4.55 24.0 -4.45 23.7 -4.25 23.6 -3.9 23.55 M-2.15 24.35 L-2.15 24.7 -2.4 24.95 -3.05 25.0 -3.45 24.6 -3.45 24.0 -3.1 23.65 -2.55 23.65 -2.1 24.1 -3.0 24.45 -2.8 24.75 -2.55 24.7 -2.5 24.6 -2.5 24.5 -2.15 24.35 M-2.8 24.0 L-3.0 23.9 -3.1 24.1 -3.05 24.25 -2.6 24.1 -2.8 24.0 M-1.1 22.85 L-1.0 23.0 -0.95 23.2 -0.5 23.95 -0.8 24.2 -1.05 23.45 -1.25 23.35 -1.4 23.25 -1.5 23.25 Q-1.65 23.25 -1.65 23.35 L-1.7 23.55 -1.55 23.8 -1.35 24.4 -1.7 24.55 -2.25 23.3 -2.0 23.15 -1.85 23.35 -1.5 22.95 -1.2 22.85 -1.1 22.85 M-20.75 32.15 L-20.4 32.55 Q-20.3 32.85 -20.35 33.05 -20.3 33.3 -20.6 33.45 L-20.85 33.55 -21.15 33.4 -20.85 34.1 -21.15 34.2 -21.85 32.4 -21.6 32.3 -21.55 32.55 -21.45 32.35 -21.25 32.1 -20.75 32.15 M-21.2 32.4 L-21.35 32.7 -21.35 32.95 -21.1 33.2 -20.8 33.2 -20.7 33.05 -20.7 32.7 Q-20.85 32.5 -21.0 32.45 L-21.2 32.4 M-22.25 33.3 L-22.5 33.2 Q-22.6 33.1 -22.65 33.15 L-22.8 33.35 -22.7 33.55 -22.25 33.3 M-22.8 32.9 L-22.25 32.85 -21.8 33.35 -22.65 33.7 -22.5 34.0 -22.3 33.85 -22.2 33.75 -22.15 33.65 -21.75 33.55 -21.85 33.95 -22.1 34.15 -22.75 34.2 -23.15 33.8 -23.15 33.3 -22.8 32.9 M-24.7 33.3 L-24.25 33.0 -23.9 33.1 Q-23.7 33.1 -23.65 33.3 L-23.4 33.75 -23.25 34.1 Q-23.15 34.35 -23.35 34.5 L-23.5 34.65 -23.8 35.0 -24.55 35.25 -25.3 33.55 -24.7 33.3 M-24.7 33.65 L-24.2 34.75 -23.95 34.7 -23.8 34.45 -23.65 34.35 -23.65 34.2 -23.8 33.9 -23.95 33.6 Q-23.95 33.45 -24.1 33.45 L-24.35 33.35 -24.6 33.6 -24.7 33.65 M-5.35 24.75 L-4.8 24.7 -4.35 25.05 -5.25 25.55 -5.05 25.8 -4.8 25.75 -4.65 25.65 -4.7 25.45 -4.4 25.4 -4.4 25.75 -4.65 26.05 -5.3 26.0 -5.65 25.7 -5.65 25.05 -5.35 24.75 M-5.35 25.35 L-4.8 25.1 -4.95 24.95 -5.15 24.95 -5.4 25.15 -5.35 25.35 M-6.25 25.7 L-6.45 25.4 Q-6.5 25.25 -6.65 25.25 L-6.8 25.25 -7.05 25.35 -7.25 25.45 -6.75 26.55 -6.5 26.5 -6.25 26.35 -6.15 26.1 -6.15 25.95 -6.25 25.7 M-5.75 25.85 Q-5.7 26.15 -5.8 26.3 L-6.0 26.5 -6.35 26.75 -7.0 27.1 -7.8 25.35 -7.15 25.05 -6.8 24.85 -6.45 24.9 Q-6.2 24.95 -6.1 25.1 L-5.9 25.55 -5.75 25.85 M-8.65 26.0 L-8.75 26.05 -8.75 26.25 -8.7 26.3 -8.4 26.2 -8.3 26.5 -8.6 26.6 -8.2 27.65 -8.4 27.8 -8.85 26.8 -9.05 26.85 -9.15 26.55 -8.95 26.5 -9.0 26.45 -9.1 26.15 -9.1 25.95 -8.95 25.8 -8.55 25.7 -8.45 25.95 -8.65 26.0 M-10.05 27.45 L-10.05 27.75 -9.8 27.95 -9.5 28.0 -9.35 27.85 -9.4 27.4 -9.6 27.3 -9.85 27.2 -10.05 27.45 M-9.0 27.25 L-9.0 27.8 -9.4 28.25 -9.8 28.3 -10.15 28.25 -10.35 27.85 -10.45 27.6 -10.3 27.15 -10.0 26.9 Q-9.7 26.75 -9.45 26.9 L-9.0 27.25 M-11.15 29.05 L-11.35 29.05 -11.5 29.05 -11.55 28.95 -11.65 28.7 -11.9 28.25 -12.1 28.3 -12.2 28.0 -12.05 27.95 -12.1 27.7 -12.05 27.3 -11.75 27.75 -11.55 27.7 -11.4 28.0 -11.6 28.05 -11.3 28.7 -11.25 28.7 -11.2 28.8 -11.05 28.6 -10.9 28.9 -11.15 29.05 M-12.35 28.35 L-12.3 28.55 -11.9 29.35 -12.25 29.45 -12.5 28.8 -12.65 28.75 -12.75 28.6 -12.9 28.6 -13.0 28.7 -13.05 28.9 -12.7 29.7 -13.1 29.9 -13.65 28.65 -13.3 28.5 -13.2 28.75 -12.8 28.3 Q-12.8 28.2 -12.65 28.25 L-12.5 28.25 -12.35 28.35 M-14.6 29.15 Q-14.2 28.85 -14.0 29.0 L-13.55 29.4 -14.45 29.85 -14.3 30.1 -14.0 30.05 -13.95 29.9 -13.9 29.75 -13.5 29.65 -13.55 30.0 -13.85 30.3 -14.5 30.35 -14.8 29.95 -14.9 29.35 -14.6 29.15 M-14.25 29.3 L-14.4 29.3 -14.55 29.5 -14.5 29.65 -14.05 29.35 -14.25 29.3 M-14.8 30.65 L-15.15 30.8 -15.5 30.05 Q-15.6 29.95 -15.65 29.95 L-15.75 29.95 -15.9 30.0 -15.95 30.15 -15.8 30.4 -15.55 31.1 -15.95 31.2 -16.2 30.45 -16.4 30.3 -16.45 30.25 -16.55 30.3 -16.7 30.35 -16.7 30.55 -16.65 30.8 -16.4 31.45 -16.7 31.55 -17.3 30.25 -16.95 30.15 -16.8 30.3 Q-16.85 30.05 -16.6 29.95 L-16.35 29.95 -16.1 30.0 -16.0 29.75 -15.75 29.6 -15.55 29.55 -15.35 29.7 -15.15 29.9 -14.8 30.65 M-17.45 30.4 L-17.35 30.7 -17.6 30.8 -17.3 31.45 -17.25 31.45 -17.15 31.5 -17.05 31.4 -16.9 31.65 -17.1 31.8 -17.25 31.85 -17.45 31.85 -17.55 31.7 -17.65 31.45 -17.9 30.9 -18.1 30.95 -18.2 30.7 -18.0 30.6 -18.1 30.4 -17.95 30.1 -17.7 30.5 -17.45 30.4 M-18.2 31.2 L-18.35 31.2 -18.5 31.3 -18.55 31.4 -18.35 31.85 -18.25 32.25 -18.5 32.4 -19.0 31.15 -18.8 31.05 -18.65 31.2 -18.55 31.0 -18.5 30.9 -18.2 30.85 -18.2 31.2 M-19.3 31.45 L-19.15 31.75 -18.95 32.15 -18.85 32.4 -18.7 32.5 -19.1 32.65 -19.15 32.55 -19.25 32.8 -19.4 32.95 -19.85 32.9 -20.05 32.7 -20.1 32.5 -20.05 32.3 Q-19.95 32.15 -19.75 32.1 L-19.55 31.95 -19.65 31.75 -19.8 31.8 -19.85 31.85 -20.0 32.1 -20.35 32.1 -20.25 31.75 -19.85 31.5 -19.55 31.45 -19.3 31.45 M-19.5 32.25 L-19.7 32.35 -19.75 32.5 -19.6 32.6 -19.5 32.65 -19.3 32.35 -19.35 32.3 -19.4 32.1 -19.45 32.05 -19.5 32.25" fill="#000000" fill-rule="evenodd" stroke="none"/>
    <path d="M-28.3 35.45 L-28.8 36.0 -29.1 36.7 -28.75 37.0 -28.0 36.85 Q-27.75 36.65 -27.95 36.05 L-28.3 35.45 M-30.1 37.65 L-29.95 37.15 -30.8 36.95 Q-31.5 36.9 -31.5 37.15 L-31.2 37.75 Q-30.9 38.1 -30.55 38.05 L-30.1 37.65 M-26.5 35.6 Q-27.1 34.35 -28.45 33.85 L-30.95 34.05 Q-32.3 34.65 -32.75 35.9 -33.2 37.2 -32.6 38.45 -32.05 39.7 -30.75 40.25 L-28.15 40.1 Q-26.9 39.5 -26.45 38.2 -25.95 36.85 -26.5 35.6 M-26.1 35.4 Q-25.45 36.85 -26.0 38.35 -26.55 39.8 -27.95 40.45 L-30.9 40.6 Q-32.4 40.1 -33.0 38.7 -33.75 37.2 -33.2 35.7 -32.65 34.25 -31.15 33.6 L-28.3 33.45 Q-26.8 33.95 -26.1 35.4 M-28.1 37.8 L-28.05 37.85 -28.1 38.0 -28.05 38.25 -28.0 38.4 -28.05 38.3 Q-28.15 38.2 -28.2 38.2 L-28.3 38.3 -28.35 38.3 -28.35 38.4 -28.4 38.3 -28.6 38.45 -28.7 38.45 -28.65 38.55 -28.7 38.6 -28.8 38.5 -29.0 38.6 -29.1 38.8 -29.2 38.9 -29.05 39.05 -29.3 39.1 -29.35 39.0 -29.4 38.9 -29.2 38.85 -29.25 38.75 -29.35 38.8 -29.5 38.8 -29.55 38.85 -29.5 38.95 -29.5 39.0 -29.6 38.85 -29.7 38.75 -29.8 38.6 -30.5 39.0 Q-31.2 39.25 -31.85 37.9 -33.0 35.5 -30.9 34.35 -29.75 33.75 -28.7 34.35 -27.8 34.7 -27.45 35.35 -26.85 36.3 -27.1 36.95 L-28.1 37.8 M-28.6 37.75 L-28.9 37.55 -29.15 37.35 -28.8 38.1 -28.6 38.0 -28.6 37.75 M-28.4 38.7 L-28.5 38.8 -28.55 38.85 -28.6 38.65 -28.55 38.55 -28.5 38.5 -28.4 38.55 -28.4 38.65 -28.4 38.7 M-28.1 38.35 L-28.05 38.4 -28.0 38.5 -28.0 38.55 -28.1 38.6 -28.15 38.65 -28.15 38.7 -28.2 38.65 -28.3 38.45 -28.25 38.45 -28.2 38.35 -28.15 38.35 -28.1 38.35 M-29.2 38.3 L-29.5 37.55 -29.5 38.2 -29.2 38.3 M-28.05 38.7 L-27.95 38.95 -27.95 39.1 -28.05 39.1 -28.05 39.05 -28.15 39.1 -28.2 39.0 -28.3 38.85 -28.2 38.75 -28.15 38.75 -28.05 38.7 M-28.35 39.35 L-28.4 39.25 -28.45 39.15 -28.5 39.0 -28.4 38.9 -28.35 38.85 -28.25 39.0 -28.25 39.05 -28.25 39.2 -28.2 39.25 -28.35 39.35 -28.35 39.4 -28.3 39.35 -28.2 39.3 -28.15 39.25 -28.15 39.2 -28.1 39.2 -28.1 39.25 -27.95 39.2 -27.9 39.25 -27.9 39.2 -27.85 39.15 -27.9 39.4 -28.1 39.6 -28.7 39.75 -28.9 39.5 -28.7 39.5 -28.6 39.55 -28.4 39.35 -28.35 39.35 M-28.7 38.8 L-28.65 38.9 -28.7 38.9 -28.95 38.95 -28.9 39.0 -29.0 39.0 -29.1 38.95 -29.05 38.85 -29.0 38.7 -28.85 38.65 -28.75 38.75 -28.7 38.8 M-29.05 39.1 L-28.9 39.15 -28.85 39.3 -28.8 39.4 -28.85 39.45 -28.9 39.45 -28.95 39.4 -29.0 39.2 -29.05 39.1 M-28.8 39.1 L-28.6 39.05 Q-28.55 39.0 -28.5 39.1 L-28.55 39.2 -28.55 39.25 -28.5 39.35 -28.5 39.4 -28.6 39.45 -28.65 39.4 -28.7 39.35 -28.75 39.25 -28.85 39.1 -28.8 39.1" fill="#000000" fill-rule="evenodd" stroke="none"/>
    <path d="M0.15 48.8 L0.05 49.05 -0.95 49.5 -1.2 49.3 -1.5 48.6 -1.55 48.25 -0.55 47.75 Q-0.35 47.7 -0.2 48.0 L0.15 48.8 M2.15 46.5 L2.2 46.5 2.3 46.6 2.55 47.05 2.45 47.05 2.3 46.85 2.3 46.9 2.2 46.85 2.15 46.9 2.05 46.85 2.0 46.65 2.1 46.6 2.05 46.55 2.15 46.5 M2.55 46.3 L2.65 46.4 2.9 46.9 2.85 46.85 2.6 46.7 2.45 46.7 2.4 46.5 2.4 46.4 2.55 46.3 M9.6 43.4 L9.55 43.35 9.5 43.15 9.45 43.1 9.6 43.1 9.65 43.05 9.75 43.15 9.95 43.65 9.75 43.45 9.7 43.45 9.6 43.4 M10.0 42.85 L10.1 42.95 10.35 43.45 10.3 43.4 10.05 43.25 10.0 43.3 9.95 43.25 9.85 43.05 9.8 43.0 10.0 42.85 M7.55 44.0 L8.45 43.6 Q8.65 43.55 8.85 43.75 L9.25 44.6 9.25 44.75 8.95 44.85 8.9 44.8 8.75 44.5 8.7 44.5 7.95 44.8 7.65 44.6 7.45 44.35 Q7.35 44.15 7.55 44.0 M7.95 44.4 L8.5 44.15 8.5 44.05 8.45 44.05 7.9 44.25 7.95 44.4 M6.25 45.05 L6.15 45.05 5.65 45.25 5.65 45.35 5.75 45.4 6.2 45.2 6.25 45.05 M5.2 45.4 Q5.05 45.15 5.3 45.05 L6.25 44.6 Q6.35 44.5 6.6 44.8 L6.95 45.65 6.95 45.75 6.75 45.9 6.7 45.9 6.5 45.55 6.4 45.5 5.7 45.85 Q5.5 46.0 5.35 45.7 L5.2 45.4 M18.9 38.7 L19.1 38.65 19.05 38.7 18.7 40.3 18.65 40.35 18.3 40.5 18.25 40.45 18.6 39.3 17.85 39.6 17.7 39.25 18.9 38.7 M19.95 38.15 L20.25 38.05 20.35 38.1 20.5 38.45 20.6 38.45 21.25 38.15 Q21.5 38.05 21.55 38.25 L21.8 38.7 21.65 38.95 20.75 39.35 Q20.55 39.45 20.4 39.2 L19.95 38.3 19.95 38.15 M16.95 40.4 L17.0 40.55 16.25 40.9 16.2 41.05 16.3 41.0 17.25 40.6 17.35 40.95 16.15 41.55 15.95 41.5 15.7 40.85 15.75 40.75 16.45 40.4 16.5 40.3 16.35 40.3 15.65 40.6 15.55 40.6 15.45 40.4 15.5 40.3 16.35 39.85 Q16.65 39.75 16.85 40.05 L16.95 40.4 M12.1 41.85 Q12.35 41.8 12.45 42.0 L12.95 43.05 12.7 43.1 12.6 43.05 12.3 42.4 12.2 42.3 12.15 42.35 12.1 43.05 12.4 42.9 12.45 42.95 12.55 43.15 12.5 43.25 11.65 43.65 11.65 43.6 11.85 42.35 12.05 41.9 12.1 41.85 M22.75 37.3 L22.75 37.5 22.95 37.85 23.05 37.9 23.5 37.7 23.55 37.55 23.35 37.2 23.2 37.1 22.75 37.3 M25.05 36.2 L24.95 36.4 25.15 36.75 25.35 36.8 25.65 36.6 25.75 36.5 25.6 36.15 25.4 36.05 25.05 36.2 M24.55 36.4 Q24.4 36.1 24.55 36.05 25.05 35.85 25.5 35.6 25.7 35.5 25.85 35.8 L26.25 36.65 26.15 36.85 25.1 37.3 24.85 37.1 24.55 36.4 M23.25 36.65 Q23.5 36.55 23.7 36.85 L24.05 37.65 23.9 37.85 22.9 38.35 22.6 38.1 22.3 37.45 Q22.15 37.15 22.35 37.1 L23.25 36.65 M14.75 41.05 L13.95 41.4 13.9 41.5 14.05 41.55 14.65 41.25 14.9 41.3 15.1 41.6 14.95 42.1 13.85 42.6 13.75 42.3 14.6 41.85 14.65 41.75 14.65 41.7 13.8 42.05 13.65 42.0 13.4 41.4 Q13.35 41.3 13.45 41.25 L14.55 40.7 14.65 40.75 14.8 41.0 14.75 41.05 M20.75 38.8 L20.7 38.9 20.8 38.9 21.3 38.7 21.3 38.6 21.25 38.6 20.75 38.8 M-0.7 48.3 L-1.1 48.45 -1.1 48.6 -0.95 48.95 -0.8 49.05 -0.4 48.85 -0.3 48.7 -0.45 48.35 -0.7 48.3 M-3.75 49.25 L-2.85 48.85 Q-2.6 48.75 -2.45 49.0 L-2.05 49.85 -2.2 50.1 -3.2 50.6 -3.5 50.35 -3.8 49.7 -3.75 49.25 M-2.55 49.9 Q-2.5 49.85 -2.6 49.75 L-2.75 49.4 -2.85 49.3 -3.3 49.5 -3.4 49.7 -3.2 50.05 -3.0 50.05 -2.55 49.9 M-7.15 51.3 L-7.2 51.35 -7.1 51.45 -6.6 51.2 -6.5 51.05 -6.65 51.05 -7.15 51.3 M-7.45 51.7 L-7.65 51.4 -7.5 51.1 -6.6 50.65 Q-6.45 50.55 -6.2 50.85 L-5.85 51.7 -5.85 51.8 -6.1 51.9 -6.25 51.55 -6.4 51.55 -7.1 51.9 -7.45 51.7 M-8.9 51.75 Q-8.6 51.55 -8.4 51.95 L-8.1 52.5 Q-8.05 52.75 -8.15 52.85 L-8.3 53.0 -8.95 53.3 Q-9.25 53.4 -9.35 53.1 L-9.65 52.5 Q-9.85 52.15 -9.55 52.05 L-8.9 51.75 M-9.2 52.3 L-9.3 52.35 -9.15 52.45 -8.75 52.3 -8.8 52.15 -8.9 52.15 -9.2 52.3 M-8.6 52.6 L-9.0 52.8 -9.1 52.85 -8.95 52.9 -8.55 52.7 -8.55 52.6 -8.6 52.6 M-11.9 54.7 L-12.85 55.1 -13.15 54.9 -13.6 53.9 -13.4 53.8 -13.2 53.8 -13.0 54.2 -12.25 53.9 Q-12.0 53.8 -11.95 54.0 L-11.7 54.4 -11.9 54.7 M-12.3 54.3 L-12.8 54.55 -12.75 54.65 -12.25 54.4 -12.25 54.35 -12.3 54.3 M-14.45 54.4 L-14.5 54.45 -14.75 55.95 -14.85 56.05 -15.2 56.2 -15.2 56.15 -14.95 54.95 -15.65 55.3 -15.7 55.3 -15.8 55.05 -15.8 54.95 -14.6 54.4 -14.45 54.4 M-16.45 56.8 L-17.1 57.1 -17.45 56.9 -17.75 56.3 Q-17.95 55.95 -17.7 55.85 L-17.05 55.55 Q-16.75 55.35 -16.55 55.75 L-16.25 56.3 -16.25 56.65 -16.45 56.8 M-16.95 55.95 L-17.05 55.95 -17.4 56.1 -17.45 56.25 -17.3 56.25 -16.95 56.1 -16.95 55.95 M-17.25 56.7 L-17.1 56.7 -16.7 56.5 -16.7 56.4 -16.75 56.4 -17.15 56.6 -17.25 56.7 M-19.65 58.15 L-19.9 57.45 -19.2 57.1 -19.1 57.0 -19.25 56.95 -19.95 57.35 -20.15 57.0 -19.2 56.55 -18.85 56.8 -18.7 57.15 -18.65 57.25 -19.35 57.65 -19.45 57.75 -19.3 57.75 -18.4 57.3 -18.35 57.35 -18.2 57.6 -18.25 57.65 -19.55 58.25 -19.65 58.15 M-22.2 58.35 L-22.3 58.1 -22.3 58.0 -21.4 57.6 Q-21.1 57.45 -20.9 57.8 L-20.8 58.15 -20.75 58.3 -21.5 58.65 -21.6 58.75 -21.45 58.75 -20.6 58.35 -20.5 58.4 -20.4 58.6 -20.45 58.7 -21.65 59.25 -21.8 59.25 -22.05 58.6 -22.05 58.5 -21.3 58.15 -21.3 58.05 -21.4 58.05 -22.15 58.35 -22.2 58.35 M-23.2 58.5 L-22.65 59.65 -22.7 59.75 -22.95 59.9 -23.1 59.8 -23.45 59.0 -23.5 59.0 -23.55 59.0 -23.65 58.7 -23.65 58.65 -23.3 58.5 -23.2 58.5" fill="#64958e" fill-rule="evenodd" stroke="none"/>
    <path d="M28.4 24.5 Q28.95 24.0 29.75 24.15 31.65 24.55 32.3 26.45 L32.35 27.65 32.35 27.7 32.5 27.75 32.65 27.95 32.65 28.05 32.7 28.1 32.75 28.15 32.8 28.3 32.9 28.25 33.25 28.3 33.4 28.2 33.6 28.35 33.7 28.35 33.85 28.35 Q34.45 28.4 34.85 27.85 L34.95 27.85 35.1 27.55 35.15 27.35 35.15 27.1 35.25 26.9 35.35 26.8 35.55 26.75 Q35.85 26.6 36.1 26.95 L36.45 27.15 37.35 27.0 37.55 27.05 37.55 27.1 37.7 27.1 37.7 27.15 37.7 27.35 37.65 27.4 37.55 27.45 37.4 27.5 36.9 27.5 36.55 27.5 36.15 27.5 35.95 27.4 35.9 27.35 35.85 27.35 35.8 27.3 35.8 27.25 35.75 27.25 35.7 27.15 35.65 27.15 35.55 27.35 35.4 27.7 35.35 27.9 35.25 28.2 35.1 28.25 Q34.5 28.75 33.7 28.8 L33.3 28.65 33.1 28.65 Q32.8 28.7 32.8 29.0 L32.7 29.3 32.35 29.55 32.2 29.65 32.05 29.65 Q31.9 29.55 32.05 29.4 L32.25 29.05 32.45 28.7 32.5 28.4 32.35 28.25 32.05 28.85 Q31.8 29.9 31.15 30.9 30.15 32.4 28.5 32.6 L28.5 32.75 28.25 33.05 27.9 33.35 27.4 33.55 27.4 33.5 27.15 33.4 26.95 33.2 26.9 32.95 26.8 32.55 26.65 32.35 26.7 32.45 26.55 32.55 26.1 32.75 26.05 32.7 25.95 32.45 25.95 32.25 25.9 32.05 25.9 31.9 25.9 31.7 25.85 31.8 25.65 32.1 25.65 32.3 25.5 32.7 25.4 33.1 25.3 33.2 25.25 33.2 25.2 32.85 25.15 32.55 25.1 32.25 24.9 31.9 24.8 31.6 24.4 32.15 23.9 33.65 22.95 35.65 22.3 36.35 21.95 35.6 21.8 34.95 21.7 35.7 Q21.45 37.4 20.25 38.45 19.3 37.6 18.8 36.25 18.2 34.6 18.0 32.85 17.7 30.7 18.85 28.75 19.75 26.95 21.55 26.05 22.65 25.2 23.65 25.8 24.6 26.35 24.85 27.45 25.1 28.45 24.9 29.6 L24.7 31.2 24.75 31.25 24.9 31.45 25.05 31.7 25.05 31.75 25.15 32.05 25.3 32.15 25.3 32.25 25.4 32.2 25.45 32.05 25.55 31.9 25.6 31.7 25.7 31.5 25.85 31.3 25.95 31.4 26.1 31.65 26.15 31.8 26.15 31.95 26.25 32.2 26.25 32.35 26.25 32.45 26.3 32.4 26.4 32.3 Q26.4 32.2 26.55 32.2 L26.65 31.95 Q26.4 30.6 26.4 29.0 26.45 27.4 27.2 26.2 L27.2 26.25 Q26.8 27.2 26.75 28.2 L26.75 30.15 26.9 31.45 26.95 31.55 26.95 31.6 27.05 31.65 27.1 31.7 27.15 31.75 27.15 31.85 27.2 31.85 27.5 31.6 27.6 30.9 27.55 30.05 27.55 29.05 Q27.5 28.6 27.85 28.3 L27.95 28.45 28.0 28.55 28.05 28.65 28.05 28.7 28.15 28.9 28.25 28.9 28.3 29.0 28.35 29.1 28.7 28.85 Q29.2 28.05 30.1 27.6 31.1 27.1 32.0 27.35 L31.9 26.8 31.5 25.8 30.7 24.8 Q29.65 23.9 28.35 24.65 L27.8 25.2 28.4 24.5 M21.6 26.4 Q17.75 28.95 18.25 32.9 18.6 35.4 19.85 37.45 L20.25 38.15 Q21.05 37.4 21.2 36.3 L21.35 33.6 21.1 31.25 Q20.85 30.2 20.2 29.4 L20.05 29.5 19.95 29.75 19.9 30.15 19.75 30.5 19.7 30.95 19.55 30.95 19.6 30.55 19.65 30.3 19.7 29.85 19.8 29.45 19.85 29.15 20.0 29.1 20.25 29.0 20.3 29.05 21.2 30.55 21.7 33.1 21.8 34.3 21.85 34.0 Q22.25 32.8 23.1 31.9 23.7 31.3 24.45 31.15 25.1 28.65 23.95 26.6 23.15 25.25 21.6 26.4 M31.8 27.8 L31.45 27.6 Q30.85 27.45 30.2 27.8 29.95 27.95 29.65 28.05 L29.35 28.45 Q29.15 28.5 29.1 28.7 L28.85 29.05 28.65 29.4 28.55 29.5 28.65 29.8 28.7 30.25 28.75 30.9 28.75 31.6 28.65 32.25 Q29.7 32.15 30.45 31.1 L31.65 29.15 32.0 27.95 31.8 27.8 M27.85 28.75 Q27.7 29.3 27.7 29.85 L27.8 30.8 Q27.9 31.3 27.6 31.75 27.4 32.25 27.0 32.15 L27.0 32.35 27.05 32.6 27.15 32.9 27.3 33.05 27.55 33.3 Q28.5 32.95 28.1 32.0 L27.95 30.75 28.0 29.65 27.85 28.75 M28.35 30.15 L28.25 30.65 28.25 31.05 28.25 31.5 28.4 32.0 28.5 31.55 28.45 30.9 28.4 30.5 28.4 30.05 28.35 30.15 M24.25 31.4 L24.2 31.4 23.7 31.6 22.8 32.6 22.3 33.75 Q22.05 34.4 22.2 35.05 22.15 35.5 22.4 35.85 L23.1 34.95 23.6 33.6 24.1 32.2 24.4 31.45 24.25 31.4" fill="#000000" fill-rule="evenodd" stroke="none"/>
    <path d="M14.6 23.3 L16.3 26.9 35.35 17.95 33.65 14.35 14.6 23.3 M33.95 13.55 L36.1 18.2 16.0 27.6 13.85 23.0 33.95 13.55" fill="#000000" fill-rule="evenodd" stroke="none"/>
    <path d="M27.3 19.5 Q27.2 18.95 27.45 18.55 L27.85 18.2 27.9 18.35 28.0 18.55 28.2 18.55 28.4 18.65 28.5 18.7 28.95 19.05 29.05 19.8 Q29.2 20.8 28.05 20.95 L27.7 21.0 27.5 20.65 27.45 20.6 27.05 21.35 Q26.65 21.95 25.95 21.9 L25.75 21.45 25.65 21.25 Q25.55 22.4 24.5 22.45 23.95 22.5 23.75 21.95 L23.7 21.35 23.75 20.3 Q23.7 19.9 24.1 19.9 24.5 19.8 24.25 20.3 L24.45 20.15 24.9 20.15 Q25.55 20.15 25.6 20.9 L25.6 21.1 25.7 20.75 25.7 19.95 Q25.7 19.5 25.85 19.15 L26.0 19.05 26.2 18.95 26.25 19.1 26.3 19.25 26.3 19.45 26.4 19.4 26.95 19.25 27.1 19.25 27.3 19.5 M24.2 21.3 Q24.2 21.9 24.55 21.85 25.15 21.8 25.1 21.0 25.1 20.6 24.65 20.8 24.15 21.0 24.2 21.3 M22.25 21.3 L22.2 21.35 21.95 21.7 Q21.7 22.05 21.75 22.45 L21.85 22.75 Q22.05 22.95 22.25 22.95 22.75 22.9 22.85 21.7 22.85 21.45 22.5 21.3 L22.25 21.3 M22.55 20.85 Q23.3 20.8 23.35 21.6 23.5 23.35 22.3 23.45 21.35 23.55 21.25 22.55 21.2 21.65 21.65 21.2 L22.0 20.8 Q22.5 20.3 22.55 20.8 L22.55 20.85 M20.25 24.25 L20.25 24.35 20.75 24.1 Q21.4 23.4 21.75 23.8 L21.75 23.9 20.7 24.5 19.95 24.9 19.8 24.75 19.7 23.95 19.75 23.3 19.65 22.75 19.5 22.45 19.15 22.75 18.9 23.05 18.7 22.95 18.7 22.9 18.65 22.75 19.0 22.4 19.15 22.2 19.15 22.15 19.65 22.05 19.75 22.05 19.85 22.2 20.15 22.8 20.25 23.35 20.25 23.85 20.25 24.25 M29.75 18.95 Q29.55 19.05 29.4 18.8 L29.5 18.45 Q29.85 18.4 29.9 18.6 L29.75 18.95 M27.7 19.3 L27.65 19.55 27.75 19.7 27.7 19.95 27.75 20.25 27.85 20.4 27.9 20.55 28.75 20.15 28.75 19.95 28.65 19.75 28.55 19.45 28.45 19.3 28.4 19.2 28.35 19.05 28.3 19.05 27.9 19.2 27.7 19.25 27.7 19.3 M26.95 19.7 L26.6 19.85 26.55 19.9 26.5 20.1 26.25 20.25 26.15 20.3 26.15 20.4 26.2 20.5 26.1 20.7 26.1 21.0 26.15 21.2 26.25 21.45 Q26.4 21.6 26.75 21.2 L27.05 20.6 27.1 20.05 27.05 19.9 27.0 19.8 26.95 19.7 M33.65 16.4 L33.95 16.65 34.05 16.8 34.05 17.15 34.1 17.75 33.95 18.25 33.75 18.45 32.8 18.8 32.55 18.55 32.45 18.2 32.4 18.1 32.2 18.6 32.05 19.0 31.9 19.1 31.05 19.5 30.95 19.45 30.7 19.35 30.65 19.15 30.5 18.8 30.65 18.1 30.7 17.6 30.65 17.5 30.9 17.25 31.0 17.15 31.2 17.05 31.45 17.05 31.7 17.1 31.9 17.1 32.05 17.15 32.2 17.4 32.2 17.1 32.1 16.65 32.25 16.5 32.35 16.4 32.4 16.3 32.45 16.25 32.6 16.2 32.8 16.3 32.9 16.3 33.1 16.25 33.35 16.35 33.5 16.35 33.65 16.4 M33.35 16.9 L33.25 16.8 32.9 16.9 32.75 16.95 32.75 17.25 32.75 17.45 32.8 17.7 32.85 17.85 33.0 18.05 33.05 18.2 33.05 18.25 33.55 17.95 33.55 17.85 33.55 17.6 33.6 17.35 Q33.5 17.2 33.55 17.05 L33.5 16.9 33.35 16.9 M31.05 18.2 L30.95 18.45 31.05 18.85 31.7 18.65 31.75 18.55 31.8 18.35 31.85 17.9 31.85 17.65 Q31.75 17.4 31.45 17.75 L31.2 17.95 31.05 18.2 M16.4 17.85 L16.4 18.4 16.15 18.0 16.4 17.85 M18.3 22.45 L18.35 22.55 18.35 22.65 18.15 22.85 17.6 23.3 17.5 23.4 17.35 23.55 17.4 23.65 18.3 23.8 18.45 23.95 18.8 24.15 19.05 24.35 19.1 24.5 19.15 24.65 19.15 24.8 Q18.9 25.5 18.25 25.75 L18.3 25.85 Q18.75 26.4 18.65 26.95 18.0 26.65 17.65 25.75 L17.55 25.7 17.35 25.7 17.25 25.6 17.15 25.5 17.15 25.35 17.15 25.3 17.25 25.2 17.35 25.25 17.45 25.3 17.1 24.25 16.45 24.4 16.4 24.3 16.65 23.7 16.8 23.6 16.35 22.3 Q16.15 21.6 16.4 21.15 16.9 21.75 17.1 22.6 L17.3 23.15 17.35 22.95 17.55 22.75 17.65 22.65 18.2 22.45 18.3 22.45 M16.3 23.3 L16.6 23.3 16.65 23.4 16.6 23.55 16.45 23.6 16.3 23.4 16.3 23.3 M17.85 24.25 L17.55 24.15 17.55 24.3 18.1 25.4 18.65 25.0 18.7 24.7 18.65 24.65 18.05 24.3 17.85 24.25 M13.35 34.75 Q13.25 34.3 13.5 33.95 L13.65 33.8 14.9 35.9 Q15.55 37.15 15.3 38.6 15.15 39.75 14.2 40.55 L13.5 41.0 12.8 41.05 12.05 40.4 12.1 40.35 12.3 40.35 12.6 40.4 12.85 40.55 Q14.55 40.1 14.75 38.45 14.9 37.6 14.55 36.9 L13.9 35.75 13.2 36.4 Q12.95 36.5 12.8 36.2 12.65 35.7 13.15 35.35 13.45 35.1 13.35 34.75 M11.1 32.9 Q11.65 33.05 11.65 33.8 L11.75 35.0 11.95 36.2 Q12.1 36.7 12.6 36.85 L12.6 37.05 12.4 37.2 12.1 37.2 11.8 37.15 11.75 37.05 11.7 36.9 11.7 36.8 11.7 36.75 11.6 36.65 11.6 36.7 11.55 36.85 11.4 37.45 11.1 38.0 Q10.85 38.4 10.45 38.25 L10.45 38.15 10.35 37.9 10.25 37.75 10.1 37.55 10.1 37.5 10.0 37.7 10.0 38.1 9.9 38.4 9.8 38.65 9.5 38.3 9.35 37.8 9.3 37.2 Q9.3 36.8 9.5 37.15 L9.65 37.25 9.6 37.0 9.7 36.85 Q9.7 36.65 9.8 36.6 L10.2 36.65 10.35 37.05 10.55 37.3 10.65 37.65 10.7 37.75 Q11.2 37.15 11.2 36.4 L11.15 35.0 10.95 33.65 Q10.8 33.15 11.1 32.9 M1.65 29.7 L1.85 30.85 2.35 32.0 2.8 32.85 2.65 33.0 2.35 33.05 2.2 32.95 2.1 32.7 1.9 32.35 1.65 31.9 1.5 31.55 1.45 31.5 1.35 31.9 1.3 32.2 1.25 32.65 1.15 33.1 1.0 33.2 0.4 33.45 0.2 32.95 0.15 32.3 0.35 31.45 Q0.5 31.15 0.75 31.25 L0.7 31.65 0.6 32.3 0.55 32.55 0.55 33.0 Q1.0 32.75 1.0 31.85 L1.0 30.55 0.8 29.2 Q0.7 28.8 1.05 28.7 1.6 29.05 1.65 29.7 M0.5 33.55 L0.6 33.6 0.55 33.95 0.45 34.4 0.15 34.85 0.0 35.0 -0.2 35.0 -0.4 35.1 -0.65 35.1 -0.9 35.0 -1.1 34.75 -1.3 34.15 -1.4 33.55 -1.45 32.9 -1.4 32.3 -1.35 32.15 -1.3 32.05 -1.25 31.95 -1.15 31.9 -1.2 31.85 -0.7 31.8 -0.55 31.75 -0.55 32.05 Q-0.45 32.5 -0.7 32.9 L-0.85 33.6 -0.7 34.2 -0.6 34.5 -0.5 34.5 0.0 34.2 0.3 33.65 0.5 33.55 M1.4 36.55 Q1.95 36.9 2.1 37.7 L2.4 39.35 2.85 40.9 3.2 42.25 Q2.5 42.0 2.25 41.0 L1.85 39.3 1.35 37.65 Q1.05 37.1 1.2 36.6 L1.25 36.45 1.4 36.55 M9.05 38.05 L9.0 38.7 8.8 39.25 8.7 39.25 8.0 39.45 7.7 39.1 7.6 38.4 7.7 37.8 7.95 37.25 8.0 37.15 8.25 37.15 8.35 37.15 8.55 37.2 8.65 37.2 9.0 37.55 9.05 38.05 M8.25 37.65 L8.1 37.65 8.0 37.7 8.0 38.0 7.95 38.4 8.05 38.8 8.1 39.0 8.15 39.1 8.2 39.2 8.65 39.0 8.65 38.7 8.8 38.45 8.8 38.2 8.75 38.05 8.65 37.95 8.6 37.8 8.5 37.7 8.45 37.65 8.25 37.65 M3.4 39.95 L3.45 40.5 3.55 40.75 3.65 40.5 3.65 40.15 3.7 39.8 Q3.55 39.65 3.65 39.3 L3.85 38.95 4.15 39.1 4.25 39.25 4.35 39.4 4.45 39.55 4.55 39.75 4.6 39.85 4.6 39.35 4.8 38.7 5.0 37.95 Q5.0 37.45 5.4 37.25 L5.35 37.2 Q5.7 37.15 5.65 37.45 L5.45 37.9 5.4 38.4 5.45 38.9 5.5 38.95 5.6 39.0 5.75 39.1 5.9 39.1 6.0 39.2 6.05 39.2 6.1 39.25 6.25 39.35 6.35 39.5 6.35 39.55 6.4 39.65 6.4 39.7 6.45 39.8 6.35 40.15 6.25 40.35 6.2 40.45 5.95 40.65 5.8 40.7 5.7 40.55 5.7 40.3 5.75 40.0 5.8 39.9 5.85 39.7 5.8 39.6 5.7 39.6 5.5 39.55 5.3 39.55 5.2 39.5 5.15 39.6 5.1 39.65 5.15 39.85 5.2 39.95 5.2 40.05 5.2 40.15 5.3 40.25 5.3 40.4 4.85 40.75 4.5 40.85 4.45 40.85 4.4 40.7 4.35 40.6 4.3 40.55 4.3 40.45 4.25 40.3 4.1 40.25 4.1 40.35 4.1 40.6 3.95 40.9 3.85 41.2 3.45 41.45 3.1 41.0 2.9 40.3 2.95 39.55 Q2.95 39.0 3.4 38.7 L3.55 38.7 3.6 39.15 3.5 39.45 3.4 39.95 M1.0 38.25 L1.15 39.65 1.5 40.9 2.0 42.0 2.0 41.9 1.95 41.7 2.0 41.5 1.95 41.3 2.0 41.05 Q2.2 40.95 2.25 41.45 L2.25 41.9 2.4 42.5 Q2.45 42.75 2.1 43.0 1.55 42.6 1.15 41.75 L1.1 41.6 1.1 41.9 0.8 42.8 0.55 43.15 -0.2 43.3 -0.3 43.2 -0.35 43.25 -0.5 43.5 -0.55 43.75 -0.55 44.0 -0.65 44.05 Q-1.05 44.3 -1.25 43.9 L-1.45 43.4 -1.65 43.0 -1.75 42.8 -2.0 43.2 -2.15 43.8 -2.25 44.4 -2.35 44.75 -2.45 44.8 -3.1 45.0 -3.4 44.1 -3.55 43.05 -3.15 41.85 Q-3.05 41.6 -2.7 41.6 L-2.8 42.55 -2.95 43.3 -2.95 44.15 -2.9 44.4 Q-2.3 44.1 -2.25 43.0 L-2.45 41.65 -2.65 40.3 Q-2.75 39.95 -2.35 39.75 -1.95 40.1 -1.9 40.75 L-1.6 41.75 -1.25 42.8 -0.95 43.65 Q-0.6 43.55 -0.6 42.9 L-0.7 42.2 -0.7 41.4 -0.65 40.85 -0.35 40.8 0.5 40.6 0.85 41.0 0.75 40.0 0.45 38.4 Q0.2 37.55 0.45 37.1 1.0 37.5 1.0 38.25 M0.0 41.4 L-0.05 41.4 -0.15 41.7 -0.15 42.05 -0.15 42.45 0.0 42.7 0.05 42.75 Q0.2 43.0 0.4 42.6 L0.55 42.1 0.55 41.6 0.55 41.4 0.45 41.3 0.4 41.25 Q0.2 41.25 0.0 41.4 M-24.3 47.75 Q-23.65 48.45 -23.45 49.25 L-23.2 50.5 -23.0 50.1 -22.7 49.5 -22.7 49.3 -22.5 49.25 Q-22.3 49.6 -22.6 50.1 L-23.1 50.75 -23.05 50.95 -22.5 52.55 Q-22.15 53.35 -22.55 53.75 L-23.15 52.2 -23.45 51.2 -23.65 51.45 -24.45 52.0 -24.5 52.0 Q-24.25 51.35 -23.6 50.85 L-23.55 50.8 -23.7 50.5 -24.25 48.9 Q-24.55 48.25 -24.3 47.75 M-22.1 48.8 L-21.9 49.75 -21.65 50.35 -21.6 50.1 -21.6 49.9 -21.55 49.65 -21.3 49.25 -20.9 49.65 -20.8 50.15 -20.7 50.75 -20.55 51.25 -20.45 51.0 -20.5 50.5 -20.55 50.0 Q-20.6 49.6 -20.25 49.65 L-20.1 49.9 -20.05 50.25 -19.95 50.75 -19.9 50.95 -19.85 51.1 Q-19.55 51.1 -19.45 50.55 -19.45 50.35 -19.6 50.05 L-19.8 49.55 Q-19.85 49.35 -20.1 49.55 L-20.15 49.45 -20.05 49.25 -19.7 49.05 -19.4 49.75 Q-19.15 50.15 -19.2 50.6 -19.2 51.55 -20.05 51.45 L-20.15 51.35 -20.2 51.3 -20.2 51.5 -20.2 51.8 -20.25 52.0 -20.4 52.2 Q-20.8 52.35 -20.95 51.95 L-21.1 51.35 -21.1 50.9 -21.25 50.4 -21.4 50.9 -21.25 51.3 -21.25 51.75 -21.4 52.15 Q-22.0 51.75 -22.05 50.9 -22.1 50.15 -22.3 49.4 L-22.75 48.1 Q-22.9 47.5 -22.6 46.95 L-22.35 47.85 -22.1 48.8 M-5.5 34.75 L-5.25 34.6 Q-5.0 34.55 -5.0 34.75 L-4.85 35.1 -4.6 35.45 -4.4 35.45 -4.35 35.5 -4.35 35.7 -4.25 35.8 -4.2 35.9 -4.3 35.9 -4.4 35.95 -4.75 36.1 -4.85 36.15 -4.9 36.05 -5.0 35.8 -5.05 35.6 -5.2 35.5 -5.2 35.35 -5.3 35.55 -5.3 35.75 Q-5.25 35.9 -5.35 35.9 L-5.5 36.1 -5.45 36.35 Q-5.35 36.55 -5.7 36.6 L-5.85 36.5 -5.85 36.45 -5.9 36.3 -5.95 36.2 -6.0 36.15 -6.05 36.3 -6.1 36.55 -6.15 36.65 -6.15 36.8 -6.3 36.9 -6.7 37.05 -6.85 37.0 -7.0 36.75 -7.05 36.8 -7.15 37.05 -7.25 37.25 -7.55 37.5 -8.0 37.2 -8.15 36.65 -8.2 36.1 -8.35 35.55 -8.35 36.1 Q-8.35 36.45 -8.5 36.65 L-8.35 37.25 Q-8.25 37.5 -8.4 37.65 -9.2 37.9 -9.35 36.85 L-9.55 35.55 Q-9.65 34.85 -10.0 34.2 -10.35 33.75 -10.05 33.45 -9.6 33.7 -9.5 34.2 L-9.2 35.0 -9.1 35.9 -8.9 36.75 -8.8 36.5 -8.85 35.9 -8.65 35.35 -8.3 34.95 -7.9 35.35 -7.75 35.9 -7.7 36.4 -7.55 36.85 -7.5 36.55 -7.4 36.1 -7.4 35.65 -7.35 35.2 Q-7.05 34.9 -6.8 35.35 L-6.8 35.8 -6.75 36.15 -6.6 36.5 -6.5 36.15 -6.55 35.65 -6.35 35.2 -6.15 35.0 Q-5.9 35.05 -5.85 35.35 L-5.65 35.85 -5.55 35.9 -5.6 35.75 -5.55 35.3 -5.5 34.75 M-4.0 33.55 L-3.6 33.35 -3.5 33.35 -3.6 32.6 -3.75 31.75 -3.85 31.0 -3.6 30.45 Q-3.15 30.7 -3.15 31.25 L-3.1 32.25 -2.85 33.05 -2.7 33.85 -2.65 33.55 -2.5 33.3 -2.35 33.05 -2.25 33.05 -2.35 32.8 -2.2 32.45 -2.0 32.05 -1.9 31.95 Q-1.45 32.0 -1.7 32.6 L-1.85 33.45 Q-1.7 33.95 -2.1 34.3 L-2.25 34.25 -2.3 34.15 -2.3 33.9 -2.25 33.75 -2.3 33.65 -2.3 33.6 -2.3 33.45 -2.5 33.75 -2.55 34.25 Q-2.45 34.7 -2.95 34.55 L-2.95 34.5 Q-3.15 34.3 -3.1 34.6 L-3.15 35.0 -3.25 35.4 Q-3.45 35.5 -3.45 35.85 L-3.55 35.95 -3.9 36.0 -4.05 35.95 -4.2 35.45 -4.3 34.9 -4.3 34.2 -4.2 33.7 -4.0 33.55 M-3.55 33.75 L-3.8 33.95 -3.8 34.2 -3.8 34.55 -3.85 34.9 -3.9 35.25 -3.8 35.55 -3.55 35.1 -3.5 34.65 -3.5 34.2 -3.45 33.75 -3.55 33.75 M-15.3 38.95 L-15.25 39.05 -15.15 39.1 -15.05 39.2 -15.0 39.2 -14.95 39.3 -14.85 39.4 -14.85 39.45 -14.9 39.7 -14.85 40.0 -14.8 39.8 -14.8 40.25 -14.85 40.25 -14.85 40.35 -14.85 40.45 -14.9 40.75 -15.15 41.0 -15.2 41.25 -15.65 41.25 -15.9 41.15 -16.15 41.0 -16.15 40.95 -16.15 41.35 -16.2 41.85 -16.35 42.25 -16.55 42.45 Q-17.0 42.45 -17.2 41.85 L-17.45 41.1 -17.65 40.25 Q-17.75 39.85 -17.5 39.65 L-17.3 40.2 -17.15 40.85 -16.9 41.5 -16.65 42.15 -16.5 41.4 -16.6 40.75 -16.8 40.1 Q-16.85 39.9 -16.55 39.75 L-16.2 40.1 -16.05 40.4 -15.75 40.75 Q-15.6 41.0 -15.4 40.85 -15.1 40.55 -15.25 40.3 L-15.3 39.85 -15.3 39.35 -15.3 38.95 M-14.6 39.25 L-14.75 39.05 Q-14.8 38.25 -13.95 38.3 -13.15 38.35 -13.05 39.4 L-13.25 40.05 Q-13.55 40.6 -14.0 40.6 -14.5 40.65 -14.6 39.95 L-14.6 39.25 M-14.35 39.6 L-14.0 40.15 Q-13.55 40.15 -13.5 39.35 L-13.8 38.75 -13.9 38.7 -14.35 38.85 -14.35 39.6 M-11.35 41.5 L-11.25 40.75 -11.2 40.65 Q-10.5 41.15 -10.55 42.1 L-10.35 43.85 -9.85 45.55 -9.2 46.65 Q-9.1 46.2 -8.9 46.5 -8.75 46.6 -8.75 46.85 -8.7 47.15 -9.15 47.35 -9.6 47.4 -9.75 47.05 L-10.0 46.6 -10.25 46.15 -10.5 45.6 -10.5 45.55 -10.6 46.05 -10.65 46.6 -10.65 46.65 Q-10.95 47.2 -11.4 47.3 L-11.6 47.25 -11.6 47.2 Q-11.75 47.6 -12.2 47.6 L-12.4 47.4 -12.45 47.25 -12.45 47.15 -12.5 47.1 -12.65 47.25 -12.7 47.4 -12.75 47.55 -13.05 48.1 -13.45 48.05 -13.55 47.95 -13.6 47.9 -13.75 48.1 -13.8 48.55 -14.0 48.85 -14.4 48.95 -14.55 48.9 -14.65 48.8 -14.75 48.7 -14.8 48.75 -14.75 48.85 -14.8 49.05 -14.85 49.1 -14.9 49.3 -15.05 49.45 -15.9 49.75 -16.15 49.1 -16.15 48.5 Q-16.15 47.85 -15.7 47.5 L-15.7 47.25 -15.85 47.0 Q-16.1 46.8 -16.3 47.2 L-16.6 47.55 -16.7 47.8 -16.75 47.4 -16.5 46.85 Q-16.1 46.5 -15.7 46.6 L-15.6 46.75 -15.4 46.95 -15.3 47.15 -15.25 47.35 -15.2 47.5 -15.1 47.6 -14.7 47.65 -14.55 47.9 -14.4 48.2 -14.3 48.5 -14.15 48.05 -14.1 47.5 -13.85 47.0 -13.7 46.75 -13.55 46.75 -13.35 47.0 -13.25 47.2 -13.25 47.25 -13.1 47.5 -13.0 47.1 -12.8 46.65 Q-12.8 46.25 -12.4 46.2 L-12.25 46.2 -12.2 46.35 -12.2 46.4 -12.15 46.65 -12.05 46.9 -12.1 47.05 -11.8 46.5 -11.7 45.85 -11.65 45.25 -11.6 44.7 -11.6 44.65 -11.5 44.6 -11.25 44.55 -11.1 44.55 -11.05 44.6 -11.05 43.65 -11.25 42.6 -11.35 41.5 M-17.95 37.85 L-18.45 38.55 -18.65 38.8 -18.35 39.7 -18.05 41.15 -17.8 42.55 -17.4 43.7 -18.1 42.4 -18.55 40.9 -18.9 39.5 -19.0 39.1 Q-19.3 39.2 -19.45 39.4 L-20.15 39.95 -20.4 40.0 Q-20.15 39.3 -19.55 38.9 L-19.05 38.65 -19.05 38.45 -18.9 38.6 -18.55 38.3 -18.3 38.05 Q-18.2 37.85 -17.95 37.85 M-18.85 49.05 L-18.8 49.7 -18.7 50.25 -18.6 50.85 -18.35 50.45 -18.3 49.85 -18.5 49.2 -18.55 48.75 -18.1 48.85 -17.9 49.2 -17.55 49.7 -17.3 50.05 -17.45 50.15 -17.5 50.25 -17.7 50.3 -17.9 50.3 -17.95 50.35 -17.95 50.5 -18.1 50.8 -18.1 50.9 -18.15 51.0 -18.15 51.15 -18.25 51.15 -18.6 51.3 -18.7 51.3 -18.95 50.65 -19.1 49.9 -19.35 49.2 Q-19.5 48.85 -19.2 48.6 L-19.15 48.55 Q-18.8 48.75 -18.85 49.05 M-17.1 47.6 L-17.35 48.0 -17.25 48.45 -17.25 48.7 -17.15 48.75 -16.75 48.95 -16.55 49.0 -16.55 49.1 -16.4 49.25 -16.35 49.45 -16.35 49.55 -16.55 49.9 -17.1 50.2 -17.35 50.25 -17.3 50.15 -17.1 49.8 -16.8 49.4 -16.8 49.35 -17.3 49.1 -17.65 48.75 -17.75 48.4 -17.6 47.65 -17.55 47.4 -17.05 47.45 -17.1 47.6 M-15.65 48.2 L-15.6 48.3 -15.65 48.6 -15.65 48.75 -15.55 48.9 -15.5 49.05 Q-15.4 49.25 -15.25 48.95 L-15.3 48.5 -15.4 48.15 -15.65 48.2 M-11.25 46.1 L-11.3 46.25 -11.25 46.55 -11.2 46.7 -11.15 46.55 -11.05 46.25 -11.1 45.9 -11.1 45.65 -11.15 45.75 -11.25 45.95 -11.25 46.1" fill="#000000" fill-rule="evenodd" stroke="none"/>
    <path d="M26.1 8.55 L26.05 9.25 25.85 9.9 25.6 10.5 Q26.55 10.0 27.6 9.85 L27.5 10.0 Q26.2 11.0 24.9 11.2 L24.95 11.0 25.35 10.1 25.7 9.3 25.75 8.7 25.7 8.5 25.65 8.45 Q24.9 8.55 24.55 9.2 L24.15 9.95 24.15 10.05 24.05 10.0 24.05 9.65 24.4 8.95 24.8 8.4 24.85 8.4 25.5 8.1 25.65 8.1 25.7 8.15 26.1 8.55 M21.65 9.55 Q22.0 10.0 21.9 10.9 L21.75 12.3 21.7 13.8 21.55 15.0 Q21.25 14.55 21.2 13.7 L21.3 12.25 21.35 10.7 Q21.35 10.05 21.65 9.55 M23.7 10.1 L23.85 10.85 24.0 11.6 23.95 12.1 23.5 11.55 23.5 10.8 23.35 10.1 Q23.3 9.8 23.4 9.5 23.8 9.75 23.7 10.1 M18.85 11.4 Q19.3 11.3 19.05 11.8 L18.95 12.25 Q18.85 12.5 18.9 12.75 L18.95 13.2 19.0 13.1 Q19.6 12.65 20.05 12.7 L20.4 13.15 20.2 13.8 Q19.85 14.55 18.95 14.55 L18.65 13.9 Q18.55 13.65 18.6 13.15 L18.6 12.4 18.8 11.5 18.85 11.4 M19.0 13.6 L19.0 13.65 19.05 13.75 19.1 14.0 19.15 14.15 19.25 14.15 19.35 14.05 19.95 13.75 20.0 13.75 20.1 13.6 20.0 13.45 20.05 13.2 19.95 13.0 19.25 13.3 19.1 13.4 19.05 13.5 19.0 13.6 M14.25 14.35 L14.1 15.25 14.15 15.85 14.55 15.6 Q15.15 15.05 15.8 15.2 L15.85 15.2 Q16.3 16.15 15.2 16.6 13.95 17.05 13.8 15.7 L13.8 14.85 Q13.8 14.25 14.1 13.6 L14.55 13.0 Q15.05 13.1 14.55 13.55 14.25 13.9 14.25 14.35 M17.1 14.75 L17.0 16.35 16.85 17.25 16.75 17.35 Q16.45 16.85 16.55 16.05 L16.75 14.45 16.9 12.55 Q16.85 11.9 17.1 11.45 17.4 12.1 17.3 13.05 L17.1 14.75 M15.7 15.65 L15.65 15.5 15.55 15.4 14.6 15.85 14.5 16.05 14.4 16.1 14.35 16.2 14.35 16.35 14.4 16.45 15.2 16.55 15.65 15.9 15.7 15.8 15.7 15.65" fill="#000000" fill-rule="evenodd" stroke="none"/>
    <path d="M-23.6 41.15 L-23.5 41.0 -23.15 41.0 -22.9 41.25 -23.4 41.5 -23.25 41.6 -23.15 41.65 -23.1 41.55 -23.1 41.5 -22.85 41.35 -22.95 41.6 -23.1 41.75 -23.45 41.8 -23.65 41.5 -23.6 41.15 M-23.85 41.5 L-23.8 41.55 -23.55 41.95 -23.75 42.1 -23.95 41.7 -24.0 41.55 -24.1 41.45 -24.2 41.5 -24.25 41.65 -24.3 41.7 -24.25 41.8 -24.05 42.2 -24.25 42.3 -24.7 41.35 -24.5 41.25 -24.35 41.5 -24.15 41.3 -24.05 41.3 -23.9 41.35 -23.85 41.5 M-23.45 41.4 L-23.2 41.3 -23.25 41.2 Q-23.35 41.1 -23.4 41.15 L-23.45 41.3 -23.45 41.4 M-24.6 42.25 L-24.5 42.2 -24.4 42.35 -24.55 42.45 -24.65 42.5 -24.75 42.45 -24.8 42.4 -24.85 42.2 -24.95 41.95 -25.1 42.05 -25.25 41.85 -25.1 41.8 -25.15 41.65 -25.0 41.45 -24.9 41.7 -24.8 41.65 -24.7 41.85 -24.75 41.9 -24.65 42.15 -24.6 42.25 M-23.6 43.25 L-23.65 43.3 -23.75 43.35 -23.7 43.45 -23.7 43.5 -23.55 43.35 -23.5 43.5 -23.65 43.65 -23.35 44.2 -23.6 44.3 -23.9 43.7 -24.0 43.75 -24.05 43.6 -23.95 43.55 -23.95 43.5 -24.0 43.35 -23.95 43.25 -23.75 43.15 -23.6 43.15 -23.6 43.25 M-27.35 42.85 L-27.3 43.85 -27.35 43.95 -27.35 44.0 -27.4 44.1 -27.55 44.15 -27.65 44.2 -27.75 44.05 -27.65 44.05 -27.5 43.95 -27.55 43.85 -28.2 43.25 -28.0 43.15 -27.55 43.55 -27.6 43.0 -27.35 42.85 M-26.85 42.9 L-27.0 42.7 -26.9 42.65 -26.95 42.5 -26.8 42.3 -26.7 42.55 -26.6 42.5 -26.45 42.7 -26.55 42.75 -26.45 43.0 -26.4 43.1 -26.3 43.05 -26.15 43.15 -26.35 43.3 -26.45 43.3 -26.55 43.3 -26.6 43.25 -26.65 43.05 -26.75 42.8 -26.85 42.9 M-26.05 42.65 L-25.95 42.8 -25.8 42.8 -25.65 42.7 -25.7 42.5 -25.8 42.4 -26.05 42.35 -26.1 42.5 -26.05 42.65 M-26.1 42.95 L-26.25 42.8 -26.3 42.65 -26.25 42.3 -26.1 42.2 -25.75 42.2 -25.55 42.4 -25.5 42.75 -25.75 43.0 -25.95 43.0 -26.1 42.95 M-25.85 45.3 L-25.95 45.4 -26.35 45.45 -26.55 45.2 -26.55 44.85 -26.35 44.65 -26.0 44.6 -25.8 44.9 -26.3 45.15 -26.15 45.3 -26.0 45.3 Q-25.95 45.25 -26.05 45.15 L-26.0 45.1 -25.75 45.0 -25.85 45.3 M-26.2 44.85 L-26.3 44.85 -26.4 44.95 -26.35 45.05 -26.1 44.95 -26.2 44.85 M-25.7 44.4 L-25.6 44.55 -25.55 44.35 -25.5 44.3 -25.35 44.2 -25.35 44.45 -25.4 44.5 -25.45 44.55 -25.45 44.6 -25.45 44.9 -25.35 45.1 -25.45 45.2 -25.85 44.45 -25.7 44.4 M-26.9 44.7 L-26.45 45.65 -26.65 45.75 -26.7 45.65 -26.8 45.8 -26.9 45.85 -27.15 45.85 -27.4 45.65 -27.4 45.3 -27.25 45.05 -26.95 45.05 -27.1 44.75 -26.9 44.7 M-27.15 45.25 L-27.2 45.3 -27.15 45.5 -27.1 45.65 -26.9 45.75 -26.85 45.55 -26.8 45.35 -27.05 45.25 -27.15 45.25 M-27.85 45.6 L-27.8 45.4 -27.8 45.3 -27.65 45.3 -27.6 45.5 -27.7 45.55 -27.75 45.6 -27.75 45.65 -27.7 45.95 -27.55 46.2 -27.75 46.25 -28.1 45.55 -27.9 45.45 -27.85 45.6 M-28.05 43.75 L-28.0 43.9 -27.9 44.0 -28.1 44.15 -28.2 44.1 -28.2 44.15 -28.3 44.2 -28.6 44.25 -28.75 44.1 -28.75 44.0 -28.65 43.9 -28.55 43.75 -28.35 43.65 -28.4 43.6 -28.55 43.55 -28.6 43.55 -28.6 43.75 -28.85 43.8 -28.8 43.6 -28.65 43.4 -28.45 43.35 -28.25 43.35 -28.15 43.6 -28.05 43.75 M-28.3 43.9 L-28.3 43.8 -28.45 43.85 -28.5 43.95 -28.45 44.05 -28.35 44.1 -28.25 43.95 -28.3 43.9 M-29.1 44.0 L-29.15 44.1 -29.35 44.25 -29.45 44.3 -29.3 44.65 -29.55 44.8 -30.0 43.8 -29.65 43.65 -29.4 43.5 -29.15 43.55 -29.05 43.65 -29.0 43.9 -29.1 44.0 M-29.45 43.75 L-29.6 43.8 -29.7 43.85 -29.55 44.15 -29.45 44.1 -29.3 44.0 -29.25 43.85 -29.25 43.75 -29.3 43.7 -29.45 43.75 M-28.65 45.75 L-28.3 45.7 -28.1 45.95 Q-28.0 46.1 -28.05 46.3 L-28.3 46.5 -28.5 46.5 -28.75 46.5 -28.85 46.3 -28.9 46.15 -28.8 45.85 -28.65 45.75 M-28.7 46.05 L-28.6 46.2 -28.5 46.3 -28.4 46.3 -28.25 46.2 -28.25 46.0 -28.45 45.9 -28.6 45.95 -28.7 46.05 M-24.0 44.35 L-24.15 44.6 -24.35 44.6 -24.6 44.5 -24.75 44.35 -24.8 44.15 -24.65 43.9 -24.55 43.8 -24.25 43.8 -23.95 44.0 -24.0 44.35 M-24.3 44.0 L-24.45 44.0 -24.55 44.1 -24.5 44.25 -24.4 44.4 -24.3 44.4 -24.15 44.25 -24.15 44.05 -24.3 44.0" fill="#000000" fill-rule="evenodd" stroke="none"/>
  </g>
</svg>
