<?xml version="1.0" encoding="UTF-8" standalone="no"?>
<svg xmlns:xlink="http://www.w3.org/1999/xlink" height="59.75px" width="80.75px" xmlns="http://www.w3.org/2000/svg">
  <g transform="matrix(1.0, 0.0, 0.0, 1.0, 37.15, 2.25)">
    <path d="M12.05 22.4 Q11.75 20.25 10.15 18.9 8.55 17.55 6.4 17.8 4.25 18.0 2.9 19.6 1.5 21.2 1.75 23.35 1.9 25.45 3.55 26.85 5.25 28.2 7.4 28.0 9.5 27.75 10.85 26.2 12.2 24.45 12.05 22.4 M35.0 10.85 L41.75 25.15 32.8 29.3 Q33.9 27.5 33.75 25.3 33.4 22.5 31.25 20.75 29.1 19.0 26.35 19.3 23.55 19.55 21.85 21.7 20.05 23.75 20.3 26.55 20.55 29.35 22.7 31.15 24.15 32.3 25.85 32.55 L-23.65 55.8 -35.9 29.8 15.8 5.6 15.8 7.75 Q16.2 11.95 19.4 14.6 22.6 17.2 26.8 16.85 30.9 16.4 33.55 13.25 L35.0 10.85" fill="#a3cfff" fill-rule="evenodd" stroke="none"/>
    <path d="M35.0 10.85 L33.55 13.25 Q30.9 16.4 26.8 16.85 22.6 17.2 19.4 14.6 16.2 11.95 15.8 7.75 L15.8 5.6 -35.9 29.8 -23.65 55.8 25.85 32.55 Q24.15 32.3 22.7 31.15 20.55 29.35 20.3 26.55 20.05 23.75 21.85 21.7 23.55 19.55 26.35 19.3 29.1 19.0 31.25 20.75 33.4 22.5 33.75 25.3 33.9 27.5 32.8 29.3 L41.75 25.15 35.0 10.85 M12.05 22.4 Q12.2 24.45 10.85 26.2 9.5 27.75 7.4 28.0 5.25 28.2 3.55 26.85 1.9 25.45 1.75 23.35 1.5 21.2 2.9 19.6 4.25 18.0 6.4 17.8 8.55 17.55 10.15 18.9 11.75 20.25 12.05 22.4 M-23.85 57.5 L-37.15 29.4 30.35 -2.25 43.6 25.8 -23.85 57.5" fill="#ffffff" fill-rule="evenodd" stroke="none"/>
    <path d="M30.8 4.25 L31.05 4.8 10.05 14.65 9.75 14.1 30.8 4.25 M0.1 18.3 L0.5 17.95 0.85 17.9 Q1.05 17.8 1.2 18.05 L0.9 18.25 Q0.9 18.15 0.7 18.15 L0.65 18.15 0.45 18.35 0.5 18.65 0.7 18.85 1.0 18.9 1.15 18.8 1.05 18.55 1.4 18.4 1.4 18.9 1.1 19.2 0.5 19.25 0.2 18.8 Q-0.05 18.6 0.1 18.3 M1.95 17.45 L1.75 17.8 1.8 17.95 2.35 17.65 2.15 17.5 1.95 17.45 M2.35 17.25 L2.8 17.7 1.95 18.1 2.05 18.35 2.3 18.3 2.5 18.2 2.5 18.0 2.9 17.95 2.75 18.3 2.45 18.55 1.85 18.6 1.55 18.2 Q1.3 17.9 1.5 17.65 L1.8 17.25 Q2.15 17.1 2.35 17.25 M-23.85 50.4 L-24.1 49.9 7.1 35.35 7.3 35.85 -23.85 50.4 M15.45 22.75 L15.65 23.3 -27.2 43.45 -27.4 42.9 15.45 22.75 M4.5 18.65 L4.75 19.1 -23.5 32.4 -23.7 31.85 4.5 18.65 M2.5 14.4 L2.8 14.95 -25.45 28.25 -25.75 27.65 2.5 14.4 M-12.15 23.9 L-12.0 23.85 -11.85 23.85 -11.7 23.95 -11.65 24.15 -11.25 24.95 -11.6 25.05 -11.85 24.4 Q-11.95 24.3 -12.0 24.35 L-12.1 24.2 -12.25 24.2 -12.35 24.3 -12.4 24.5 -12.05 25.3 -12.45 25.5 -13.0 24.25 -12.65 24.1 -12.55 24.35 Q-12.45 24.0 -12.15 23.9 M-11.45 23.3 L-11.4 22.9 -11.1 23.35 -10.9 23.3 -10.75 23.6 -10.95 23.65 -10.65 24.3 -10.6 24.3 -10.55 24.4 -10.4 24.2 -10.25 24.5 -10.5 24.65 -10.7 24.65 -10.85 24.65 -10.9 24.55 -11.0 24.3 -11.25 23.85 -11.45 23.9 -11.55 23.6 -11.4 23.55 -11.45 23.3 M-0.6 18.95 L-0.75 18.85 -0.85 18.85 Q-1.0 18.85 -1.0 18.95 L-1.05 19.15 -0.9 19.4 -0.7 20.0 -1.05 20.15 -1.6 18.9 -1.35 18.75 -1.2 18.95 -0.85 18.55 -0.55 18.45 -0.45 18.45 -0.35 18.6 -0.3 18.8 0.15 19.55 -0.15 19.8 -0.4 19.05 -0.6 18.95 M-5.8 21.0 L-6.0 20.85 -6.15 20.85 -6.4 20.95 -6.6 21.05 -6.1 22.15 -5.85 22.1 -5.6 21.95 -5.5 21.7 -5.5 21.55 -5.6 21.3 -5.8 21.0 M-5.45 20.7 L-5.25 21.15 -5.1 21.45 Q-5.05 21.75 -5.15 21.9 L-5.35 22.1 -5.7 22.35 -6.35 22.7 -7.15 20.95 -6.5 20.65 -6.15 20.45 -5.8 20.5 Q-5.55 20.55 -5.45 20.7 M-8.45 21.75 L-8.45 21.55 -8.3 21.4 -7.9 21.3 -7.8 21.55 -8.0 21.6 -8.1 21.65 -8.1 21.85 -8.05 21.9 -7.75 21.8 -7.65 22.1 -7.95 22.2 -7.55 23.25 -7.75 23.4 -8.2 22.4 -8.4 22.45 -8.5 22.15 -8.3 22.1 -8.35 22.05 -8.45 21.75 M-8.35 22.85 L-8.35 23.4 -8.75 23.85 -9.15 23.9 -9.5 23.85 -9.7 23.45 -9.8 23.2 -9.65 22.75 -9.35 22.5 Q-9.05 22.35 -8.8 22.5 L-8.35 22.85 M-8.95 22.9 L-9.2 22.8 -9.4 23.05 -9.4 23.35 -9.15 23.55 -8.85 23.6 -8.7 23.45 -8.75 23.0 -8.95 22.9 M-1.5 19.95 L-1.5 20.3 -1.75 20.55 -2.4 20.6 -2.8 20.2 -2.8 19.6 -2.45 19.25 -1.9 19.25 -1.45 19.7 -2.35 20.05 -2.15 20.35 -1.9 20.3 -1.85 20.2 -1.85 20.1 -1.5 19.95 M-2.35 19.5 L-2.45 19.7 -2.4 19.85 -1.95 19.7 -2.15 19.6 -2.35 19.5 M-3.4 19.75 L-3.25 19.65 -3.1 19.9 -3.3 20.05 -2.85 21.0 -3.15 21.2 -3.65 20.2 -3.8 20.3 -3.9 20.0 -3.75 19.9 -3.8 19.9 -3.9 19.6 -3.8 19.3 -3.6 19.2 -3.25 19.15 -3.2 19.4 -3.4 19.45 -3.45 19.5 -3.45 19.65 -3.4 19.75 M-4.3 20.55 L-4.5 20.55 -4.75 20.75 -4.7 20.95 -4.15 20.7 -4.3 20.55 M-3.7 20.65 L-4.6 21.15 -4.4 21.4 -4.15 21.35 -4.0 21.25 -4.05 21.05 -3.75 21.0 -3.75 21.35 -4.0 21.65 -4.65 21.6 -5.0 21.3 -5.0 20.65 -4.7 20.35 -4.15 20.3 Q-3.9 20.45 -3.7 20.65 M-23.15 29.5 L-23.3 29.2 Q-23.3 29.05 -23.45 29.05 L-23.7 28.95 -23.95 29.2 -24.05 29.25 -23.55 30.35 -23.3 30.3 -23.15 30.05 -23.0 29.95 -23.0 29.8 Q-22.95 29.6 -23.15 29.5 M-23.0 28.9 L-22.75 29.35 -22.6 29.7 Q-22.5 29.95 -22.7 30.1 L-22.85 30.25 -23.15 30.6 -23.9 30.85 -24.65 29.15 -24.05 28.9 -23.6 28.6 -23.25 28.7 Q-23.05 28.7 -23.0 28.9 M-20.35 28.05 L-20.55 28.0 -20.7 28.3 -20.7 28.55 -20.45 28.8 -20.15 28.8 -20.05 28.65 -20.05 28.3 -20.35 28.05 M-20.1 27.75 L-19.75 28.15 -19.7 28.65 Q-19.65 28.9 -19.95 29.05 L-20.2 29.15 -20.5 29.0 -20.2 29.7 -20.5 29.8 -21.2 28.0 -20.95 27.9 -20.9 28.15 -20.8 27.95 -20.6 27.7 -20.1 27.75 M-21.15 28.95 L-22.0 29.3 -21.85 29.6 -21.65 29.45 -21.55 29.35 -21.5 29.25 -21.1 29.15 -21.2 29.55 -21.45 29.75 -22.1 29.8 -22.5 29.4 -22.5 28.9 -22.15 28.5 -21.6 28.45 -21.15 28.95 M-22.05 29.15 L-21.6 28.9 -21.85 28.8 Q-21.95 28.7 -22.0 28.75 L-22.15 28.95 -22.05 29.15 M-12.85 25.25 L-12.9 25.6 -13.2 25.9 -13.85 25.95 -14.15 25.55 -14.25 24.95 -13.95 24.75 -13.35 24.6 -12.9 25.0 -13.8 25.45 -13.65 25.7 -13.35 25.65 -13.3 25.5 -13.25 25.35 -12.85 25.25 M-13.6 24.9 L-13.75 24.9 -13.9 25.1 -13.85 25.25 -13.4 24.95 -13.6 24.9 M-16.3 25.75 L-16.15 25.9 Q-16.2 25.65 -15.95 25.55 L-15.7 25.55 -15.45 25.6 -15.35 25.35 -15.1 25.2 -14.9 25.15 -14.7 25.3 -14.5 25.5 -14.15 26.25 -14.5 26.4 -14.85 25.65 Q-14.95 25.55 -15.0 25.55 L-15.1 25.55 -15.25 25.6 -15.3 25.75 -15.15 26.0 -14.9 26.7 -15.3 26.8 -15.55 26.05 -15.75 25.9 -15.8 25.85 Q-15.9 25.8 -15.9 25.9 L-16.05 25.95 -16.05 26.15 -16.0 26.4 -15.75 27.05 -16.05 27.15 -16.65 25.85 -16.3 25.75 M-16.8 26.0 L-16.7 26.3 -16.95 26.4 -16.65 27.05 -16.6 27.05 -16.5 27.1 -16.4 27.0 -16.25 27.25 -16.45 27.4 -16.6 27.45 -16.8 27.45 -16.9 27.3 -17.0 27.05 -17.25 26.5 -17.45 26.55 -17.55 26.3 -17.35 26.2 -17.45 26.0 -17.3 25.7 -17.05 26.1 -16.8 26.0 M-17.9 26.6 L-17.85 26.5 -17.55 26.45 -17.55 26.8 -17.7 26.8 -17.85 26.9 -17.9 27.0 -17.7 27.45 -17.6 27.85 -17.85 28.0 -18.35 26.75 -18.15 26.65 -18.0 26.8 -17.9 26.6 M-19.0 27.35 L-19.15 27.4 -19.2 27.45 -19.35 27.7 -19.7 27.7 -19.6 27.35 -19.2 27.1 -18.9 27.05 -18.65 27.05 -18.5 27.35 -18.3 27.75 -18.2 28.0 -18.05 28.1 -18.45 28.25 -18.5 28.15 -18.6 28.4 -18.75 28.55 -19.2 28.5 -19.4 28.3 -19.45 28.1 -19.4 27.9 -19.1 27.7 -18.9 27.55 -19.0 27.35 M-18.75 27.7 L-18.8 27.65 -18.85 27.85 -19.05 27.95 -19.1 28.1 -18.95 28.2 -18.85 28.25 -18.65 27.95 -18.7 27.9 -18.75 27.7" fill="#000000" fill-rule="evenodd" stroke="none"/>
    <path d="M-28.05 29.95 Q-27.15 30.3 -26.8 30.95 -26.2 31.9 -26.45 32.55 L-27.45 33.4 -27.4 33.45 -27.45 33.6 -27.4 33.85 -27.35 34.0 -27.4 33.9 -27.55 33.8 -27.65 33.9 -27.7 33.9 -27.7 34.0 -27.75 33.9 -27.95 34.05 -28.05 34.05 -28.0 34.15 -28.05 34.2 -28.15 34.1 -28.35 34.2 -28.45 34.4 -28.55 34.5 -28.4 34.65 -28.65 34.7 -28.7 34.6 -28.75 34.5 -28.55 34.45 -28.6 34.35 Q-28.65 34.3 -28.7 34.4 L-28.85 34.4 -28.9 34.45 -28.85 34.55 -28.85 34.6 -28.95 34.45 -29.05 34.35 -29.15 34.2 -29.85 34.6 Q-30.55 34.85 -31.2 33.5 -32.35 31.1 -30.25 29.95 -29.1 29.35 -28.05 29.95 M-25.8 33.8 Q-25.3 32.45 -25.85 31.2 -26.45 29.95 -27.8 29.45 L-30.3 29.65 Q-31.65 30.25 -32.1 31.5 -32.55 32.8 -31.95 34.05 -31.4 35.3 -30.1 35.85 L-27.5 35.7 Q-26.25 35.1 -25.8 33.8 M-28.45 32.3 L-28.1 32.6 -27.35 32.45 Q-27.1 32.25 -27.3 31.65 L-27.65 31.05 -28.15 31.6 -28.45 32.3 M-27.55 33.95 L-27.5 33.95 -27.45 33.95 -27.4 34.0 -27.35 34.1 -27.35 34.15 -27.45 34.2 -27.5 34.25 -27.5 34.3 -27.55 34.25 -27.65 34.05 -27.6 34.05 -27.55 33.95 M-30.15 32.55 Q-30.85 32.5 -30.85 32.75 L-30.55 33.35 Q-30.25 33.7 -29.9 33.65 L-29.45 33.25 Q-29.2 32.75 -29.3 32.75 L-30.15 32.55 M-27.95 33.6 L-27.95 33.35 -28.25 33.15 -28.5 32.95 -28.15 33.7 Q-28.1 33.75 -27.95 33.6 M-28.85 33.8 L-28.55 33.9 -28.85 33.15 -28.85 33.8 M-28.35 34.3 L-28.2 34.25 -28.1 34.35 -28.05 34.4 -28.0 34.5 -28.05 34.5 -28.3 34.55 -28.25 34.6 -28.35 34.6 -28.45 34.55 -28.4 34.45 -28.35 34.3 M-27.75 34.25 L-27.75 34.3 -27.85 34.4 -27.9 34.45 -27.95 34.25 -27.9 34.15 -27.85 34.1 -27.75 34.15 -27.75 34.25 M-28.15 35.0 L-28.2 35.05 -28.25 35.05 -28.3 35.0 -28.35 34.8 -28.4 34.7 -28.25 34.75 -28.2 34.9 -28.15 35.0 M-27.85 34.95 L-27.85 35.0 -27.95 35.05 -28.0 35.0 -28.05 34.95 -28.1 34.85 -28.2 34.7 -28.15 34.7 -27.95 34.65 -27.85 34.7 -27.9 34.8 -27.9 34.85 -27.85 34.95 M-27.7 34.95 L-27.7 35.0 -27.65 34.95 -27.55 34.9 -27.5 34.85 -27.5 34.8 -27.45 34.8 -27.45 34.85 -27.3 34.8 -27.25 34.85 -27.25 34.8 -27.2 34.75 -27.25 35.0 -27.45 35.2 -28.05 35.35 -28.25 35.1 -28.05 35.1 -27.95 35.15 -27.75 34.95 -27.7 34.95 -27.75 34.85 -27.8 34.75 -27.85 34.6 -27.75 34.5 -27.7 34.45 -27.6 34.6 -27.6 34.65 -27.6 34.8 -27.55 34.85 -27.7 34.95 M-27.5 34.35 L-27.4 34.3 -27.3 34.55 -27.3 34.7 -27.4 34.7 -27.4 34.65 -27.5 34.7 -27.55 34.6 -27.65 34.45 -27.55 34.35 -27.5 34.35 M-25.45 31.0 Q-24.8 32.45 -25.35 33.95 -25.9 35.4 -27.3 36.05 L-30.25 36.2 Q-31.75 35.7 -32.35 34.3 -33.1 32.8 -32.55 31.3 -32.0 29.85 -30.5 29.2 L-27.65 29.05 Q-26.15 29.55 -25.45 31.0" fill="#000000" fill-rule="evenodd" stroke="none"/>
    <path d="M15.45 36.6 L15.4 36.65 14.6 37.0 14.55 37.1 14.7 37.15 15.3 36.85 15.55 36.9 15.75 37.2 Q15.85 37.55 15.6 37.7 L14.5 38.2 14.4 37.9 15.25 37.45 15.3 37.35 15.3 37.3 14.45 37.65 14.3 37.6 14.05 37.0 14.1 36.85 15.2 36.3 15.3 36.35 15.45 36.6 M17.6 36.0 L17.65 36.15 16.9 36.5 16.85 36.65 16.95 36.6 17.9 36.2 18.0 36.55 16.8 37.15 16.6 37.1 16.35 36.45 16.4 36.35 17.1 36.0 17.15 35.9 17.0 35.9 16.3 36.2 16.2 36.2 16.1 36.0 16.15 35.9 17.0 35.45 Q17.3 35.35 17.5 35.65 L17.6 36.0 M19.75 34.25 L19.7 34.3 19.35 35.9 19.3 35.95 18.95 36.1 18.9 36.05 19.25 34.9 18.5 35.2 18.35 34.85 19.55 34.3 19.75 34.25 M8.6 40.0 L9.15 39.75 9.15 39.65 9.1 39.65 8.55 39.85 8.6 40.0 M8.6 40.4 L8.3 40.2 8.1 39.95 Q8.0 39.75 8.2 39.6 L9.1 39.2 Q9.3 39.15 9.5 39.35 L9.9 40.2 9.9 40.35 9.6 40.45 9.55 40.4 9.4 40.1 9.35 40.1 8.6 40.4 M6.9 40.65 L6.8 40.65 6.3 40.85 6.3 40.95 6.4 41.0 6.85 40.8 6.9 40.65 M7.25 40.4 L7.6 41.25 7.6 41.35 7.4 41.5 7.35 41.5 7.15 41.15 7.05 41.1 6.35 41.45 6.0 41.3 5.85 41.0 Q5.7 40.75 5.95 40.65 L6.9 40.2 7.25 40.4 M-0.15 44.65 L0.25 44.45 0.35 44.3 0.2 43.95 -0.05 43.9 -0.45 44.05 -0.45 44.2 -0.3 44.55 -0.15 44.65 M0.1 43.35 L0.45 43.6 0.8 44.4 0.7 44.65 -0.3 45.1 -0.55 44.9 -0.85 44.2 -0.9 43.85 0.1 43.35 M2.7 42.15 L2.8 42.1 2.85 42.1 2.95 42.2 3.2 42.65 3.1 42.65 2.95 42.45 2.95 42.5 2.85 42.45 2.8 42.5 2.7 42.45 2.65 42.25 2.75 42.2 2.7 42.15 M3.25 42.3 L3.1 42.3 3.05 42.1 3.05 42.0 3.2 41.9 3.3 42.0 3.55 42.5 3.5 42.45 3.25 42.3 M13.1 37.6 L13.6 38.65 13.35 38.7 13.25 38.65 12.95 38.0 12.85 37.9 12.8 37.95 12.75 38.65 13.05 38.5 13.1 38.55 13.2 38.75 13.15 38.85 12.3 39.25 12.3 39.2 12.5 37.95 12.7 37.5 12.75 37.45 Q13.0 37.4 13.1 37.6 M23.9 32.25 Q24.15 32.15 24.35 32.45 L24.7 33.25 24.55 33.45 23.55 33.95 23.25 33.7 22.95 33.05 Q22.8 32.75 23.0 32.7 L23.9 32.25 M23.85 32.7 L23.4 32.9 23.4 33.1 23.6 33.45 23.7 33.5 24.15 33.3 24.2 33.15 24.0 32.8 23.85 32.7 M26.15 31.2 L26.5 31.4 26.9 32.25 26.8 32.45 25.75 32.9 25.5 32.7 25.2 32.0 Q25.05 31.7 25.2 31.65 L26.15 31.2 M10.15 38.75 L10.1 38.7 10.25 38.7 10.3 38.65 10.4 38.75 10.6 39.25 10.4 39.05 10.35 39.05 10.25 39.0 10.2 38.95 10.15 38.75 M10.75 38.55 L11.0 39.05 10.95 39.0 10.7 38.85 10.65 38.9 10.6 38.85 10.5 38.65 10.45 38.6 10.65 38.45 10.75 38.55 M20.6 33.75 L20.9 33.65 21.0 33.7 21.15 34.05 21.25 34.05 21.9 33.75 Q22.15 33.65 22.2 33.85 L22.45 34.3 22.3 34.55 21.4 34.95 21.05 34.8 20.6 33.9 20.6 33.75 M21.35 34.5 L21.45 34.5 21.95 34.3 21.95 34.2 21.9 34.2 21.4 34.4 21.35 34.5 M26.4 32.1 L26.25 31.75 26.05 31.65 25.7 31.8 25.6 32.0 25.8 32.35 26.0 32.4 26.3 32.2 26.4 32.1 M-11.3 49.6 L-11.05 50.0 -11.25 50.3 -12.2 50.7 -12.5 50.5 -12.95 49.5 -12.75 49.4 -12.55 49.4 -12.35 49.8 -11.6 49.5 Q-11.35 49.4 -11.3 49.6 M-8.15 47.75 L-8.25 47.75 -8.55 47.9 -8.65 47.95 -8.5 48.05 -8.1 47.9 -8.15 47.75 M-7.5 48.45 L-7.65 48.6 -8.3 48.9 Q-8.6 49.0 -8.7 48.7 L-9.0 48.1 Q-9.2 47.75 -8.9 47.65 L-8.25 47.35 Q-7.95 47.15 -7.75 47.55 L-7.45 48.1 Q-7.4 48.35 -7.5 48.45 M-7.95 48.2 L-8.35 48.4 -8.45 48.45 -8.3 48.5 -7.9 48.3 -7.9 48.2 -7.95 48.2 M-6.0 46.65 L-6.5 46.9 -6.55 46.95 -6.45 47.05 -5.95 46.8 -5.85 46.65 -6.0 46.65 M-6.85 46.7 L-5.95 46.25 Q-5.8 46.15 -5.55 46.45 L-5.2 47.3 -5.2 47.4 -5.45 47.5 -5.6 47.15 -5.75 47.15 -6.45 47.5 -6.8 47.3 -7.0 47.0 Q-7.1 46.75 -6.85 46.7 M-2.2 44.9 L-2.65 45.1 -2.75 45.3 -2.55 45.65 -2.35 45.65 -1.9 45.5 -1.95 45.35 -2.1 45.0 -2.2 44.9 M-1.8 44.6 L-1.4 45.45 -1.55 45.7 -2.55 46.2 -2.85 45.95 -3.15 45.3 -3.1 44.85 -2.2 44.45 Q-1.95 44.35 -1.8 44.6 M-11.6 49.95 L-11.65 49.9 -12.15 50.15 -12.1 50.25 -11.6 50.0 -11.6 49.95 M-13.85 50.05 L-14.1 51.55 -14.2 51.65 -14.55 51.8 -14.55 51.75 -14.3 50.55 -15.0 50.9 -15.05 50.9 -15.15 50.65 -15.15 50.55 -13.95 50.0 -13.8 50.0 -13.85 50.05 M-16.1 52.0 L-16.5 52.2 -16.6 52.3 -16.45 52.3 -16.05 52.1 -16.05 52.0 -16.1 52.0 M-16.4 51.15 Q-16.1 50.95 -15.9 51.35 L-15.6 51.9 -15.6 52.25 -15.8 52.4 -16.45 52.7 Q-16.7 52.8 -16.8 52.5 L-17.1 51.9 Q-17.3 51.55 -17.05 51.45 L-16.4 51.15 M-16.4 51.55 L-16.75 51.7 -16.8 51.85 -16.65 51.85 -16.3 51.7 -16.3 51.55 -16.4 51.55 M-18.55 52.7 L-18.45 52.6 -18.6 52.55 -19.3 52.95 -19.5 52.6 -18.55 52.15 -18.2 52.4 -18.05 52.75 -18.0 52.85 -18.7 53.25 -18.8 53.35 -18.65 53.35 -17.75 52.9 -17.7 52.95 -17.55 53.2 -17.6 53.25 -18.9 53.85 -19.0 53.75 -19.25 53.05 -18.55 52.7 M-20.1 53.9 L-20.85 54.25 -20.95 54.35 -20.8 54.35 -19.95 53.95 -19.85 54.0 -19.75 54.2 -19.8 54.3 -21.0 54.85 -21.15 54.85 -21.4 54.2 -21.4 54.1 -20.65 53.75 -20.65 53.65 -20.75 53.65 -21.5 53.95 -21.55 53.95 -21.65 53.7 -21.65 53.6 -20.75 53.2 Q-20.45 53.05 -20.25 53.4 L-20.15 53.75 -20.1 53.9 M-22.65 54.1 L-22.55 54.1 -22.0 55.25 -22.05 55.35 -22.3 55.5 -22.45 55.4 -22.8 54.6 -22.85 54.6 -22.9 54.6 -23.0 54.3 -23.0 54.25 -22.65 54.1" fill="#64958e" fill-rule="evenodd" stroke="none"/>
    <path d="M20.95 24.65 Q21.55 25.3 21.85 26.15 L22.35 28.7 22.45 29.9 22.5 29.6 Q22.9 28.4 23.75 27.5 24.35 26.9 25.1 26.75 25.75 24.25 24.6 22.2 23.8 20.85 22.25 22.0 18.4 24.55 18.9 28.5 19.25 31.0 20.5 33.05 L20.9 33.75 Q21.7 33.0 21.85 31.9 22.15 30.6 22.0 29.2 L21.75 26.85 Q21.5 25.8 20.85 25.0 L20.7 25.1 20.6 25.35 20.55 25.75 20.4 26.1 20.35 26.55 20.2 26.55 20.25 26.15 20.3 25.9 20.35 25.45 20.45 25.05 20.5 24.75 20.65 24.7 20.9 24.6 20.95 24.65 M38.2 22.65 L38.2 22.7 38.35 22.7 38.35 22.75 38.35 22.95 38.3 23.0 38.2 23.05 38.05 23.1 37.55 23.1 37.2 23.1 36.8 23.1 36.6 23.0 36.55 22.95 36.5 22.95 36.45 22.9 36.45 22.85 36.4 22.85 36.35 22.75 36.3 22.75 36.2 22.95 36.05 23.3 36.0 23.5 35.9 23.8 35.75 23.85 Q35.15 24.35 34.35 24.4 L33.95 24.25 33.75 24.25 Q33.45 24.3 33.45 24.6 L33.35 24.9 33.0 25.15 32.85 25.25 32.7 25.25 Q32.55 25.15 32.7 25.0 L32.9 24.65 33.1 24.3 33.15 24.0 33.0 23.85 32.7 24.45 31.8 26.5 Q30.8 28.0 29.15 28.2 L29.15 28.35 28.9 28.65 28.55 28.95 28.05 29.15 28.05 29.1 27.8 29.0 27.6 28.8 27.55 28.55 27.45 28.15 27.3 27.95 27.35 28.05 27.2 28.15 26.75 28.35 26.7 28.3 26.6 28.05 26.6 27.85 26.55 27.65 26.55 27.5 26.55 27.3 26.5 27.4 26.3 27.7 26.3 27.9 26.15 28.3 26.05 28.7 25.95 28.8 25.9 28.8 25.85 28.45 25.8 28.15 25.75 27.85 25.55 27.5 25.45 27.2 25.05 27.75 24.55 29.25 23.6 31.25 22.95 31.95 22.6 31.2 22.45 30.55 22.35 31.3 Q22.1 33.0 20.9 34.05 19.95 33.2 19.45 31.85 18.85 30.2 18.65 28.45 18.35 26.3 19.5 24.35 20.4 22.55 22.2 21.65 23.3 20.8 24.3 21.4 25.25 21.95 25.5 23.05 25.75 24.05 25.55 25.2 L25.35 26.8 25.4 26.85 25.55 27.05 25.7 27.3 25.7 27.35 25.8 27.65 25.95 27.75 25.95 27.85 26.05 27.8 26.1 27.65 26.2 27.5 26.25 27.3 26.35 27.1 26.5 26.9 26.6 27.0 26.75 27.25 26.8 27.4 26.8 27.55 26.9 27.8 26.9 27.95 26.9 28.05 26.95 28.0 27.05 27.9 Q27.05 27.8 27.2 27.8 L27.3 27.55 Q27.05 26.2 27.05 24.6 27.1 23.0 27.85 21.8 L27.85 21.85 Q27.45 22.8 27.4 23.8 L27.4 25.75 27.55 27.05 27.6 27.15 27.6 27.2 27.7 27.25 27.75 27.3 27.8 27.35 27.8 27.45 27.85 27.45 28.15 27.2 28.25 26.5 28.2 25.65 28.2 24.65 Q28.15 24.2 28.5 23.9 L28.6 24.05 28.65 24.15 28.7 24.25 28.7 24.3 28.8 24.5 28.9 24.5 28.95 24.6 29.0 24.7 29.35 24.45 Q29.85 23.65 30.75 23.2 31.75 22.7 32.65 22.95 L32.55 22.4 32.15 21.4 31.35 20.4 Q30.3 19.5 29.0 20.25 L28.45 20.8 29.05 20.1 Q29.6 19.6 30.4 19.75 32.3 20.15 32.95 22.05 L33.0 23.25 33.0 23.3 33.15 23.35 33.3 23.55 33.3 23.65 33.35 23.7 33.4 23.75 33.45 23.9 33.55 23.85 33.9 23.9 34.05 23.8 34.25 23.95 34.35 23.95 34.5 23.95 Q35.1 24.0 35.5 23.45 L35.6 23.45 35.75 23.15 35.8 22.95 35.8 22.7 35.9 22.5 36.0 22.4 36.2 22.35 Q36.5 22.2 36.75 22.55 L37.1 22.75 38.0 22.6 38.2 22.65 M29.2 25.1 L29.3 25.4 29.35 25.85 29.4 26.5 29.4 27.2 29.3 27.85 Q30.35 27.75 31.1 26.7 L32.3 24.75 32.65 23.55 32.45 23.4 32.1 23.2 30.85 23.4 30.3 23.65 30.0 24.05 Q29.8 24.1 29.75 24.3 L29.5 24.65 29.3 25.0 29.2 25.1 M28.9 26.65 L28.9 27.1 29.05 27.6 29.15 27.15 29.1 26.5 29.05 26.1 29.05 25.65 29.0 25.75 28.9 26.25 28.9 26.65 M28.5 24.35 L28.35 25.45 28.45 26.4 Q28.55 26.9 28.25 27.35 28.05 27.85 27.65 27.75 L27.65 27.95 27.7 28.2 27.8 28.5 27.95 28.65 28.2 28.9 Q29.15 28.55 28.75 27.6 28.55 27.05 28.6 26.35 L28.65 25.25 28.5 24.35 M23.45 28.2 L22.95 29.35 Q22.7 30.0 22.85 30.65 22.8 31.1 23.05 31.45 L23.75 30.55 24.25 29.2 24.75 27.8 25.05 27.05 24.9 27.0 24.85 27.0 24.35 27.2 23.45 28.2" fill="#000000" fill-rule="evenodd" stroke="none"/>
    <path d="M16.95 22.5 L36.0 13.55 34.3 9.95 15.25 18.9 16.95 22.5 M36.75 13.8 L16.65 23.2 14.5 18.6 34.6 9.15 36.75 13.8" fill="#000000" fill-rule="evenodd" stroke="none"/>
    <path d="M34.7 12.75 L34.75 13.35 34.6 13.85 34.4 14.05 33.45 14.4 33.2 14.15 33.1 13.8 33.05 13.7 32.85 14.2 32.7 14.6 Q32.65 14.6 32.55 14.7 L31.7 15.1 31.6 15.05 31.35 14.95 31.3 14.75 31.15 14.4 31.3 13.7 31.35 13.2 31.3 13.1 31.55 12.85 31.65 12.75 31.85 12.65 32.1 12.65 32.35 12.7 32.55 12.7 32.7 12.75 32.85 13.0 32.85 12.7 32.75 12.25 32.9 12.1 33.0 12.0 33.05 11.9 33.1 11.85 33.25 11.8 33.45 11.9 33.55 11.9 33.75 11.85 34.0 11.95 34.15 11.95 34.3 12.0 34.6 12.25 34.7 12.4 34.7 12.75 M28.35 14.9 L28.3 15.15 28.4 15.3 28.35 15.55 28.4 15.85 28.5 16.0 28.55 16.15 29.4 15.75 29.4 15.55 29.3 15.35 29.2 15.05 29.1 14.9 29.05 14.8 29.0 14.65 28.95 14.65 28.55 14.8 28.35 14.85 28.35 14.9 M24.9 15.9 L25.1 15.75 25.55 15.75 Q26.2 15.75 26.25 16.5 L26.25 16.7 26.35 16.35 26.35 15.55 Q26.35 15.1 26.5 14.75 L26.65 14.65 26.85 14.55 26.9 14.7 26.95 14.85 26.95 15.05 27.05 15.0 27.6 14.85 27.75 14.85 27.95 15.1 Q27.85 14.55 28.1 14.15 L28.5 13.8 28.55 13.95 28.65 14.15 28.85 14.15 29.05 14.25 29.15 14.3 29.6 14.65 29.7 15.4 Q29.85 16.4 28.7 16.55 L28.35 16.6 28.15 16.25 28.1 16.2 27.7 16.95 Q27.3 17.55 26.6 17.5 L26.4 17.05 26.3 16.85 Q26.2 18.0 25.15 18.05 24.6 18.1 24.4 17.55 L24.35 16.95 24.4 15.9 Q24.35 15.5 24.75 15.5 25.15 15.4 24.9 15.9 M30.15 14.05 Q30.5 14.0 30.55 14.2 L30.4 14.55 Q30.2 14.65 30.05 14.4 L30.15 14.05 M26.8 16.0 L26.85 16.1 26.75 16.3 26.75 16.6 Q26.7 16.7 26.8 16.8 L26.9 17.05 Q27.05 17.2 27.4 16.8 L27.7 16.2 27.75 15.65 27.7 15.5 27.65 15.4 27.6 15.3 Q27.4 15.4 27.25 15.45 L27.2 15.5 27.15 15.7 26.9 15.85 26.8 15.9 26.8 16.0 M23.2 16.45 Q23.95 16.4 24.0 17.2 24.15 18.95 22.95 19.05 22.0 19.15 21.9 18.15 21.85 17.25 22.3 16.8 L22.65 16.4 Q23.15 15.9 23.2 16.4 L23.2 16.45 M22.85 16.95 L22.6 17.3 Q22.35 17.65 22.4 18.05 L22.5 18.35 22.9 18.55 Q23.4 18.5 23.5 17.3 L23.15 16.9 22.9 16.9 22.85 16.95 M20.4 17.65 L20.5 17.8 20.8 18.4 20.9 18.95 20.9 19.45 20.9 19.85 20.9 19.95 21.4 19.7 Q22.05 19.0 22.4 19.4 L22.4 19.5 21.35 20.1 20.6 20.5 20.45 20.35 20.35 19.55 20.4 18.9 20.3 18.35 20.15 18.05 19.8 18.35 19.55 18.65 19.35 18.55 19.35 18.5 19.3 18.35 19.65 18.0 19.8 17.8 19.8 17.75 20.3 17.65 20.4 17.65 M25.75 16.6 Q25.75 16.2 25.3 16.4 24.8 16.6 24.85 16.9 24.85 17.5 25.2 17.45 25.8 17.4 25.75 16.6 M33.4 12.85 L33.4 13.05 33.45 13.3 33.5 13.45 33.65 13.65 33.7 13.8 33.7 13.85 34.2 13.55 34.2 13.45 34.2 13.2 34.25 12.95 34.2 12.65 34.15 12.5 34.0 12.5 33.9 12.4 33.55 12.5 33.4 12.55 33.4 12.85 M31.85 13.55 L31.7 13.8 31.6 14.05 31.7 14.45 32.35 14.25 32.4 14.15 32.45 13.95 32.5 13.5 32.5 13.25 Q32.4 13.0 32.1 13.35 L31.85 13.55 M17.05 14.0 L16.8 13.6 17.05 13.45 17.05 14.0 M19.8 20.4 Q19.55 21.1 18.9 21.35 L18.95 21.45 Q19.4 22.0 19.3 22.55 18.65 22.25 18.3 21.35 L18.2 21.3 18.0 21.3 17.9 21.2 17.8 21.1 17.8 20.95 17.8 20.9 17.9 20.8 18.0 20.85 18.1 20.9 17.75 19.85 17.1 20.0 17.05 19.9 17.3 19.3 Q17.3 19.25 17.45 19.2 L17.0 17.9 Q16.8 17.2 17.05 16.75 17.55 17.35 17.75 18.2 L17.95 18.75 18.0 18.55 18.2 18.35 18.3 18.25 18.85 18.05 18.95 18.05 19.0 18.15 19.0 18.25 18.8 18.45 Q18.4 18.55 18.25 18.9 L18.15 19.0 18.0 19.15 18.05 19.25 18.95 19.4 19.1 19.55 19.45 19.75 19.7 19.95 19.75 20.1 19.8 20.25 19.8 20.4 M18.5 19.85 L18.2 19.75 18.2 19.9 18.75 21.0 19.3 20.6 19.35 20.3 19.3 20.25 Q19.1 20.05 18.7 19.9 L18.5 19.85 M17.25 19.15 L17.1 19.2 16.95 19.0 16.95 18.9 17.25 18.9 17.3 19.0 17.25 19.15 M12.4 30.6 L12.6 31.8 Q12.75 32.3 13.25 32.45 L13.25 32.65 13.05 32.8 12.75 32.8 12.45 32.75 12.4 32.65 12.35 32.5 12.35 32.4 12.35 32.35 12.25 32.25 12.25 32.3 12.2 32.45 12.05 33.05 11.75 33.6 Q11.5 34.0 11.1 33.85 L11.1 33.75 11.0 33.5 10.9 33.35 10.75 33.15 10.75 33.1 10.65 33.3 10.65 33.7 10.55 34.0 10.45 34.25 10.15 33.9 10.0 33.4 9.95 32.8 Q9.95 32.4 10.15 32.75 L10.3 32.85 10.25 32.6 10.35 32.45 10.45 32.2 10.85 32.25 11.0 32.65 11.2 32.9 11.3 33.25 11.35 33.35 Q11.85 32.75 11.85 32.0 L11.8 30.6 11.6 29.25 Q11.45 28.75 11.75 28.5 12.3 28.65 12.3 29.4 L12.4 30.6 M14.85 36.15 L14.15 36.6 13.45 36.65 12.7 36.0 12.75 35.95 12.95 35.95 13.25 36.0 13.5 36.15 Q15.2 35.7 15.4 34.05 15.55 33.2 15.2 32.5 L14.55 31.35 13.85 32.0 Q13.6 32.1 13.45 31.8 13.3 31.3 13.8 30.95 14.1 30.7 14.0 30.35 13.9 29.9 14.15 29.55 L14.3 29.4 15.55 31.5 Q16.2 32.75 15.95 34.2 15.8 35.35 14.85 36.15 M1.7 24.3 Q2.25 24.65 2.3 25.3 L2.5 26.45 3.0 27.6 3.45 28.45 3.3 28.6 3.0 28.65 2.85 28.55 2.75 28.3 2.55 27.95 2.3 27.5 2.15 27.15 2.1 27.1 2.0 27.5 1.95 27.8 1.9 28.25 1.8 28.7 1.65 28.8 1.05 29.05 0.85 28.55 0.8 27.9 1.0 27.05 Q1.15 26.75 1.4 26.85 L1.35 27.25 1.25 27.9 1.2 28.15 1.2 28.6 Q1.65 28.35 1.65 27.45 L1.65 26.15 1.45 24.8 Q1.35 24.4 1.7 24.3 M-0.05 27.4 L0.1 27.35 0.1 27.65 -0.05 28.5 -0.2 29.2 -0.05 29.8 0.05 30.1 0.15 30.1 Q0.5 30.05 0.65 29.8 L0.95 29.25 1.15 29.15 1.25 29.2 1.2 29.55 1.1 30.0 0.8 30.45 0.65 30.6 0.45 30.6 0.25 30.7 0.0 30.7 -0.25 30.6 -0.45 30.35 -0.65 29.75 -0.75 29.15 -0.8 28.5 -0.75 27.9 -0.7 27.75 -0.65 27.65 -0.6 27.55 -0.5 27.5 -0.55 27.45 -0.05 27.4 M1.65 33.85 L1.8 35.25 Q1.9 35.95 2.15 36.5 L2.65 37.6 2.65 37.5 2.6 37.3 2.65 37.1 2.6 36.9 2.65 36.65 Q2.85 36.55 2.9 37.05 L2.9 37.5 3.05 38.1 2.75 38.6 1.8 37.35 1.75 37.2 1.75 37.5 1.45 38.4 1.2 38.75 0.45 38.9 0.35 38.8 0.3 38.85 0.15 39.1 0.1 39.35 0.1 39.6 0.0 39.65 Q-0.4 39.9 -0.6 39.5 L-0.8 39.0 -1.0 38.6 -1.1 38.4 -1.35 38.8 -1.5 39.4 -1.6 40.0 -1.7 40.35 -1.8 40.4 -2.45 40.6 -2.75 39.7 -2.9 38.65 -2.5 37.45 Q-2.4 37.2 -2.05 37.2 L-2.15 38.15 -2.3 38.9 -2.3 39.75 -2.25 40.0 Q-1.65 39.7 -1.6 38.6 L-1.8 37.25 -2.0 35.9 Q-2.1 35.55 -1.7 35.35 -1.3 35.7 -1.25 36.35 L-0.95 37.35 -0.6 38.4 -0.3 39.25 Q0.05 39.15 0.05 38.5 L-0.05 37.8 -0.05 37.0 0.0 36.45 0.3 36.4 1.15 36.2 1.5 36.6 1.4 35.6 1.1 34.0 Q0.85 33.15 1.1 32.7 1.65 33.1 1.65 33.85 M1.85 32.2 L1.9 32.05 2.05 32.15 Q2.6 32.5 2.75 33.3 L3.05 34.95 Q3.15 35.8 3.5 36.5 L3.85 37.85 Q3.15 37.6 2.9 36.6 L2.5 34.9 2.0 33.25 Q1.7 32.7 1.85 32.2 M0.5 37.65 L0.5 38.05 0.65 38.3 0.7 38.35 Q0.85 38.6 1.05 38.2 L1.2 37.7 1.2 37.2 1.2 37.0 1.1 36.9 1.05 36.85 0.65 37.0 0.6 37.0 0.5 37.3 0.5 37.65 M6.0 32.8 Q6.35 32.75 6.3 33.05 L6.1 33.5 6.05 34.0 6.1 34.5 6.15 34.55 6.25 34.6 6.4 34.7 6.55 34.7 6.65 34.8 6.7 34.8 6.75 34.85 6.9 34.95 7.0 35.1 7.0 35.15 7.05 35.25 7.05 35.3 7.1 35.4 7.0 35.75 6.9 35.95 6.85 36.05 6.6 36.25 6.45 36.3 6.35 36.15 6.35 35.9 6.4 35.6 6.45 35.5 6.5 35.3 6.45 35.2 6.35 35.2 6.15 35.15 5.95 35.15 5.85 35.1 5.8 35.2 5.75 35.25 5.8 35.45 5.85 35.55 5.85 35.65 5.85 35.75 5.95 35.85 5.95 36.0 5.5 36.35 5.15 36.45 5.1 36.45 5.05 36.3 5.0 36.2 4.95 36.15 4.95 36.05 4.9 35.9 4.75 35.85 4.75 35.95 4.75 36.2 4.6 36.5 4.5 36.8 4.1 37.05 3.75 36.6 3.55 35.9 3.6 35.15 Q3.6 34.6 4.05 34.3 L4.2 34.3 4.25 34.75 4.15 35.05 4.05 35.55 4.1 36.1 4.2 36.35 4.3 36.1 4.3 35.75 4.35 35.4 Q4.2 35.25 4.3 34.9 L4.5 34.55 4.8 34.7 4.9 34.85 5.0 35.0 5.1 35.15 5.2 35.35 5.25 35.45 5.25 34.95 5.45 34.3 5.65 33.55 Q5.65 33.05 6.05 32.85 L6.0 32.8 M9.65 34.3 L9.45 34.85 9.35 34.85 8.65 35.05 8.35 34.7 8.25 34.0 8.35 33.4 8.6 32.85 8.65 32.75 8.9 32.75 9.0 32.75 9.2 32.8 9.3 32.8 9.65 33.15 9.7 33.65 9.65 34.3 M9.4 33.65 L9.3 33.55 9.25 33.4 9.15 33.3 9.1 33.25 8.9 33.25 8.75 33.25 8.65 33.3 8.65 33.6 8.6 34.0 8.7 34.4 8.75 34.6 8.8 34.7 8.85 34.8 9.3 34.6 9.3 34.3 9.45 34.05 9.45 33.8 9.4 33.65 M-21.85 44.85 Q-21.65 45.2 -21.95 45.7 L-22.45 46.35 -22.4 46.55 -21.85 48.15 Q-21.5 48.95 -21.9 49.35 L-22.5 47.8 -22.8 46.8 -23.0 47.05 -23.8 47.6 -23.85 47.6 Q-23.6 46.95 -22.95 46.45 L-22.9 46.4 -23.05 46.1 -23.6 44.5 Q-23.9 43.85 -23.65 43.35 -23.0 44.05 -22.8 44.85 L-22.55 46.1 -22.35 45.7 -22.05 45.1 -22.05 44.9 -21.85 44.85 M-18.75 45.35 Q-18.5 45.75 -18.55 46.2 -18.55 47.15 -19.4 47.05 L-19.5 46.95 -19.55 46.9 -19.55 47.1 -19.55 47.4 Q-19.5 47.5 -19.6 47.6 L-19.75 47.8 Q-20.15 47.95 -20.3 47.55 L-20.45 46.95 -20.45 46.5 -20.6 46.0 -20.75 46.5 -20.6 46.9 -20.6 47.35 Q-20.55 47.55 -20.75 47.75 -21.35 47.35 -21.4 46.5 -21.45 45.75 -21.65 45.0 L-22.1 43.7 -21.95 42.55 -21.7 43.45 -21.45 44.4 -21.25 45.35 -21.0 45.95 -20.95 45.7 -20.95 45.5 -20.9 45.25 -20.65 44.85 -20.25 45.25 -20.15 45.75 -20.05 46.35 -19.9 46.85 -19.8 46.6 -19.85 46.1 -19.9 45.6 Q-19.95 45.2 -19.6 45.25 L-19.45 45.5 -19.4 45.85 -19.3 46.35 -19.25 46.55 -19.2 46.7 Q-18.9 46.7 -18.8 46.15 L-18.95 45.65 -19.15 45.15 Q-19.2 44.95 -19.45 45.15 L-19.5 45.05 -19.4 44.85 -19.05 44.65 -18.75 45.35 M-2.95 26.05 Q-2.5 26.3 -2.5 26.85 L-2.45 27.85 -2.2 28.65 -2.05 29.45 -2.0 29.15 -1.85 28.9 -1.7 28.65 -1.6 28.65 -1.7 28.4 -1.55 28.05 -1.35 27.65 -1.25 27.55 Q-0.8 27.6 -1.05 28.2 L-1.2 29.05 Q-1.05 29.55 -1.45 29.9 L-1.6 29.85 -1.65 29.75 -1.65 29.5 -1.6 29.35 -1.65 29.25 -1.65 29.2 -1.65 29.05 -1.85 29.35 -1.9 29.85 Q-1.8 30.3 -2.3 30.15 L-2.3 30.1 Q-2.5 29.9 -2.45 30.2 L-2.5 30.6 -2.6 31.0 Q-2.8 31.1 -2.8 31.45 L-2.9 31.55 -3.25 31.6 -3.4 31.55 -3.55 31.05 -3.65 30.5 -3.65 29.8 -3.55 29.3 -3.35 29.15 -2.95 28.95 -2.85 28.95 -2.95 28.2 -3.1 27.35 -3.2 26.6 -2.95 26.05 M-3.15 29.8 L-3.15 30.15 -3.2 30.5 -3.25 30.85 -3.15 31.15 -2.9 30.7 -2.85 30.25 -2.85 29.8 -2.8 29.35 -2.9 29.35 -3.15 29.55 -3.15 29.8 M-6.15 31.4 L-6.1 31.75 -5.95 32.1 -5.85 31.75 -5.9 31.25 -5.7 30.8 -5.5 30.6 -5.2 30.95 -5.0 31.45 -4.9 31.5 -4.95 31.35 -4.9 30.9 -4.85 30.35 -4.6 30.2 -4.35 30.35 -4.2 30.7 -3.95 31.05 -3.75 31.05 -3.7 31.1 -3.7 31.3 -3.6 31.4 -3.55 31.5 -3.65 31.5 -3.75 31.55 -4.1 31.7 -4.2 31.75 -4.25 31.65 -4.35 31.4 -4.4 31.2 Q-4.45 31.1 -4.55 31.1 L-4.55 30.95 -4.65 31.15 -4.65 31.35 Q-4.6 31.5 -4.7 31.5 L-4.85 31.7 -4.8 31.95 Q-4.7 32.15 -5.05 32.2 L-5.2 32.1 -5.2 32.05 -5.25 31.9 -5.3 31.8 -5.35 31.75 -5.4 31.9 -5.45 32.15 -5.5 32.25 -5.5 32.4 -5.65 32.5 -6.05 32.65 -6.2 32.6 -6.35 32.35 -6.4 32.4 -6.5 32.65 -6.6 32.85 -6.9 33.1 -7.35 32.8 -7.5 32.25 -7.55 31.7 -7.7 31.15 -7.7 31.7 Q-7.7 32.05 -7.85 32.25 L-7.7 32.85 -7.75 33.25 Q-8.55 33.5 -8.7 32.45 L-8.9 31.15 -9.35 29.8 Q-9.7 29.35 -9.4 29.05 -8.95 29.3 -8.85 29.8 L-8.55 30.6 -8.45 31.5 -8.25 32.35 -8.15 32.1 -8.2 31.5 -8.0 30.95 -7.65 30.55 -7.25 30.95 -7.1 31.5 -7.05 32.0 -6.9 32.45 Q-6.75 32.35 -6.85 32.15 L-6.75 31.7 -6.75 31.25 -6.7 30.8 Q-6.4 30.5 -6.15 30.95 L-6.15 31.4 M-18.0 34.4 L-17.7 35.3 -17.4 36.75 -17.15 38.15 -16.75 39.3 -17.45 38.0 -17.9 36.5 -18.25 35.1 -18.35 34.7 -18.8 35.0 -19.5 35.55 -19.75 35.6 Q-19.5 34.9 -18.9 34.5 L-18.4 34.25 -18.4 34.05 -18.25 34.2 -17.9 33.9 -17.65 33.65 -17.3 33.45 -17.8 34.15 -18.0 34.4 M-14.25 35.3 L-14.2 35.6 -14.15 35.4 -14.15 35.85 -14.2 35.85 -14.2 35.95 -14.2 36.05 -14.25 36.35 -14.5 36.6 -14.55 36.85 -15.0 36.85 -15.25 36.75 -15.5 36.6 -15.5 36.55 -15.5 36.95 -15.55 37.45 -15.7 37.85 -15.9 38.05 Q-16.35 38.05 -16.55 37.45 L-16.8 36.7 -17.0 35.85 Q-17.1 35.45 -16.85 35.25 L-16.65 35.8 -16.5 36.45 -16.25 37.1 -16.0 37.75 -15.85 37.0 -15.95 36.35 -16.15 35.7 -15.9 35.35 -15.55 35.7 -15.4 36.0 -15.1 36.35 Q-14.95 36.6 -14.75 36.45 -14.45 36.15 -14.6 35.9 L-14.65 35.45 -14.65 34.95 -14.65 34.55 -14.6 34.65 -14.5 34.7 -14.4 34.8 -14.35 34.8 -14.3 34.9 -14.2 35.0 -14.2 35.05 -14.25 35.3 M-13.7 34.45 L-13.7 35.2 Q-13.65 35.8 -13.35 35.75 -12.9 35.75 -12.85 34.95 L-13.15 34.35 -13.25 34.3 -13.7 34.45 M-12.6 35.65 Q-12.9 36.2 -13.35 36.2 -13.85 36.25 -13.95 35.55 L-13.95 34.85 -14.1 34.65 Q-14.15 33.85 -13.3 33.9 -12.5 33.95 -12.4 35.0 L-12.6 35.65 M-10.95 40.25 L-10.85 40.2 -10.6 40.15 -10.45 40.15 -10.4 40.2 -10.4 39.25 -10.6 38.2 -10.7 37.1 -10.6 36.35 -10.55 36.25 Q-9.85 36.75 -9.9 37.7 L-9.7 39.45 -9.2 41.15 -8.55 42.25 Q-8.45 41.8 -8.25 42.1 -8.1 42.2 -8.1 42.45 -8.05 42.75 -8.5 42.95 -8.95 43.0 -9.1 42.65 L-9.35 42.2 -9.6 41.75 -9.85 41.2 -9.85 41.15 -9.95 41.65 -10.0 42.2 -10.0 42.25 -10.75 42.9 -10.95 42.85 -10.95 42.8 Q-11.1 43.2 -11.55 43.2 L-11.75 43.0 -11.8 42.85 -11.8 42.75 -11.85 42.7 -12.0 42.85 -12.05 43.0 -12.1 43.15 -12.4 43.7 -12.8 43.65 -12.9 43.55 -12.95 43.5 -13.1 43.7 -13.15 44.15 -13.35 44.45 -13.75 44.55 -13.9 44.5 -14.0 44.4 -14.1 44.3 -14.15 44.35 -14.1 44.45 -14.15 44.65 -14.2 44.7 -14.25 44.9 -14.4 45.05 -15.25 45.35 -15.5 44.7 -15.5 44.1 Q-15.5 43.45 -15.05 43.1 L-15.05 42.85 -15.2 42.6 Q-15.45 42.4 -15.65 42.8 L-15.95 43.15 -16.05 43.4 -16.1 43.0 -15.85 42.45 Q-15.45 42.1 -15.05 42.2 L-14.95 42.35 -14.75 42.55 -14.65 42.75 -14.6 42.95 -14.55 43.1 -14.45 43.2 -14.05 43.25 -13.9 43.5 -13.75 43.8 -13.65 44.1 -13.5 43.65 -13.45 43.1 -13.2 42.6 -13.05 42.35 -12.9 42.35 -12.7 42.6 -12.6 42.8 -12.6 42.85 -12.45 43.1 -12.35 42.7 -12.15 42.25 Q-12.15 41.85 -11.75 41.8 L-11.6 41.8 -11.55 41.95 -11.55 42.0 -11.5 42.25 -11.4 42.5 -11.45 42.65 -11.15 42.1 -11.05 41.45 -11.0 40.85 -10.95 40.3 -10.95 40.25 M-10.45 41.25 L-10.5 41.35 -10.6 41.55 -10.6 41.7 -10.65 41.85 -10.6 42.15 -10.55 42.3 -10.5 42.15 -10.4 41.85 -10.45 41.5 -10.45 41.25 M-16.4 43.05 L-16.45 43.2 -16.7 43.6 -16.6 44.05 -16.6 44.3 -16.5 44.35 -16.1 44.55 -15.9 44.6 -15.9 44.7 -15.75 44.85 -15.7 45.05 -15.7 45.15 -15.9 45.5 -16.45 45.8 -16.7 45.85 -16.65 45.75 -16.45 45.4 -16.15 45.0 -16.15 44.95 -16.65 44.7 -17.0 44.35 -17.1 44.0 -16.95 43.25 -16.9 43.0 -16.4 43.05 M-18.5 44.15 Q-18.15 44.35 -18.2 44.65 L-18.15 45.3 -18.05 45.85 -17.95 46.45 -17.7 46.05 -17.65 45.45 -17.85 44.8 -17.9 44.35 Q-17.55 44.2 -17.45 44.45 L-17.25 44.8 -16.9 45.3 -16.65 45.65 -16.8 45.75 -16.85 45.85 -17.05 45.9 -17.25 45.9 -17.3 45.95 -17.3 46.1 -17.45 46.4 -17.45 46.5 -17.5 46.6 -17.5 46.75 -17.6 46.75 -17.95 46.9 -18.05 46.9 -18.3 46.25 -18.45 45.5 -18.7 44.8 Q-18.85 44.45 -18.55 44.2 L-18.5 44.15 M-15.0 43.8 L-14.95 43.9 -15.0 44.2 -15.0 44.35 -14.9 44.5 -14.85 44.65 Q-14.75 44.85 -14.6 44.55 L-14.65 44.1 -14.75 43.75 -15.0 43.8" fill="#000000" fill-rule="evenodd" stroke="none"/>
    <path d="M28.15 5.6 Q26.85 6.6 25.55 6.8 L25.6 6.6 26.0 5.7 26.35 4.9 26.4 4.3 26.35 4.1 26.3 4.05 Q25.55 4.15 25.2 4.8 L24.8 5.55 24.8 5.65 24.7 5.6 24.7 5.25 25.05 4.55 25.45 4.0 25.5 4.0 26.15 3.7 26.3 3.7 26.35 3.75 26.75 4.15 26.7 4.85 26.5 5.5 26.25 6.1 Q27.2 5.6 28.25 5.45 L28.15 5.6 M24.6 7.7 L24.15 7.15 24.15 6.4 24.0 5.7 24.05 5.1 Q24.45 5.35 24.35 5.7 L24.5 6.45 24.65 7.2 Q24.8 7.5 24.6 7.7 M20.6 8.6 L19.9 8.9 19.75 9.0 19.7 9.1 19.65 9.2 19.65 9.25 19.7 9.35 19.75 9.6 19.8 9.75 19.9 9.75 20.0 9.65 20.6 9.35 20.65 9.35 20.75 9.2 20.65 9.05 20.7 8.8 20.6 8.6 M19.6 7.85 L19.55 8.35 19.6 8.8 19.65 8.7 Q20.25 8.25 20.7 8.3 L21.05 8.75 20.85 9.4 Q20.5 10.15 19.6 10.15 L19.3 9.5 Q19.2 9.25 19.25 8.75 L19.25 8.0 19.45 7.1 19.5 7.0 Q19.95 6.9 19.7 7.4 L19.6 7.85 M22.55 6.5 L22.4 7.9 Q22.3 8.65 22.35 9.4 L22.2 10.6 Q21.9 10.15 21.85 9.3 L21.95 7.85 22.0 6.3 Q22.0 5.65 22.3 5.15 22.65 5.6 22.55 6.5 M15.2 8.6 Q15.7 8.7 15.2 9.15 14.9 9.5 14.9 9.95 L14.75 10.85 14.8 11.45 15.2 11.2 Q15.8 10.65 16.45 10.8 L16.5 10.8 Q16.95 11.75 15.85 12.2 14.6 12.65 14.45 11.3 L14.45 10.45 Q14.45 9.85 14.75 9.2 L15.2 8.6 M16.35 11.25 L16.3 11.1 16.2 11.0 15.25 11.45 15.15 11.65 15.05 11.7 15.0 11.8 15.0 11.95 15.05 12.05 15.85 12.15 16.3 11.5 16.35 11.4 16.35 11.25 M17.95 8.65 L17.75 10.35 17.65 11.95 17.5 12.85 17.4 12.95 Q17.1 12.45 17.2 11.65 L17.4 10.05 17.55 8.15 Q17.5 7.5 17.75 7.05 18.05 7.7 17.95 8.65" fill="#000000" fill-rule="evenodd" stroke="none"/>
    <path d="M-23.4 36.9 L-23.25 36.95 -23.2 37.1 -23.15 37.15 -22.9 37.55 -23.1 37.7 -23.3 37.3 -23.35 37.15 -23.45 37.05 -23.55 37.1 -23.6 37.25 -23.65 37.3 -23.6 37.4 -23.4 37.8 -23.6 37.9 -24.05 36.95 -23.85 36.85 -23.7 37.1 -23.5 36.9 -23.4 36.9 M-22.5 36.6 L-22.25 36.85 -22.75 37.1 -22.6 37.2 -22.5 37.25 -22.45 37.15 -22.45 37.1 -22.2 36.95 -22.3 37.2 -22.45 37.35 -22.8 37.4 -23.0 37.1 -22.95 36.75 -22.85 36.6 -22.5 36.6 M-22.6 36.8 Q-22.7 36.7 -22.75 36.75 L-22.8 36.9 -22.8 37.0 -22.55 36.9 -22.6 36.8 M-24.6 37.45 L-24.45 37.4 -24.5 37.25 -24.35 37.05 -24.25 37.3 -24.15 37.25 -24.05 37.45 -24.1 37.5 -24.0 37.75 -23.95 37.85 -23.85 37.8 -23.75 37.95 -23.9 38.05 -24.0 38.1 -24.1 38.05 -24.15 38.0 -24.2 37.8 -24.3 37.55 -24.45 37.65 -24.6 37.45 M-25.15 38.0 L-25.4 37.95 -25.45 38.1 -25.4 38.25 -25.3 38.4 -25.15 38.4 -25.0 38.3 -25.05 38.1 -25.15 38.0 M-24.9 38.0 L-24.85 38.35 -25.1 38.6 -25.3 38.6 -25.45 38.55 -25.6 38.4 -25.65 38.25 -25.6 37.9 -25.45 37.8 -25.1 37.8 -24.9 38.0 M-24.85 39.9 L-24.7 39.8 -24.7 40.05 -24.75 40.1 -24.8 40.15 -24.8 40.2 -24.8 40.5 -24.7 40.7 -24.8 40.8 -25.2 40.05 -25.05 40.0 -24.95 40.15 -24.9 39.95 -24.85 39.9 M-23.9 39.4 L-23.6 39.4 Q-23.4 39.45 -23.3 39.6 L-23.35 39.95 -23.5 40.2 -23.7 40.2 -23.95 40.1 -24.1 39.95 -24.15 39.75 -24.0 39.5 -23.9 39.4 M-22.95 38.75 L-22.95 38.85 -23.0 38.9 -23.1 38.95 -23.05 39.05 -23.05 39.1 -22.9 38.95 -22.85 39.1 -23.0 39.25 -22.7 39.8 -22.95 39.9 -23.25 39.3 -23.35 39.35 -23.4 39.2 -23.3 39.15 -23.3 39.1 -23.35 38.95 -23.3 38.85 -23.1 38.75 -22.95 38.75 M-23.8 39.6 L-23.9 39.7 -23.85 39.85 -23.75 40.0 -23.65 40.0 -23.5 39.85 -23.5 39.65 -23.65 39.6 -23.8 39.6 M-25.9 40.45 L-25.7 40.25 -25.35 40.2 -25.15 40.5 -25.65 40.75 -25.5 40.9 -25.35 40.9 Q-25.3 40.85 -25.4 40.75 L-25.35 40.7 -25.1 40.6 -25.2 40.9 -25.3 41.0 -25.7 41.05 -25.9 40.8 -25.9 40.45 M-25.95 38.1 L-25.8 38.3 -25.9 38.35 -25.8 38.6 -25.75 38.7 -25.65 38.65 -25.5 38.75 -25.7 38.9 -25.8 38.9 -25.9 38.9 -25.95 38.85 -26.0 38.65 -26.1 38.4 -26.2 38.5 -26.35 38.3 -26.25 38.25 -26.3 38.1 -26.15 37.9 -26.05 38.15 -25.95 38.1 M-26.7 38.45 L-26.65 39.45 -26.7 39.55 -26.7 39.6 -26.75 39.7 -26.9 39.75 -27.0 39.8 -27.1 39.65 -27.0 39.65 -26.85 39.55 -26.9 39.45 -27.55 38.85 -27.35 38.75 -26.9 39.15 -26.95 38.6 -26.7 38.45 M-28.0 39.0 L-27.8 38.95 -27.6 38.95 -27.5 39.2 -27.4 39.35 -27.35 39.5 -27.25 39.6 -27.45 39.75 -27.55 39.7 -27.55 39.75 -27.65 39.8 -27.95 39.85 -28.1 39.7 -28.1 39.6 -28.0 39.5 -27.9 39.35 -27.7 39.25 -27.75 39.2 Q-27.8 39.1 -27.9 39.15 L-27.95 39.15 -27.95 39.35 -28.2 39.4 -28.15 39.2 -28.0 39.0 M-27.8 39.45 L-27.85 39.55 -27.8 39.65 -27.7 39.7 -27.6 39.55 -27.65 39.5 -27.65 39.4 -27.8 39.45 M-28.75 39.1 L-28.5 39.15 -28.4 39.25 -28.35 39.5 -28.45 39.6 -28.5 39.7 -28.7 39.85 -28.8 39.9 -28.65 40.25 -28.9 40.4 -29.35 39.4 -29.0 39.25 -28.75 39.1 M-28.65 39.3 L-28.8 39.35 -28.95 39.4 -29.05 39.45 -28.9 39.75 -28.8 39.7 -28.65 39.6 -28.6 39.45 -28.6 39.35 -28.65 39.3 M-27.45 41.55 Q-27.35 41.7 -27.4 41.9 L-27.65 42.1 -27.85 42.1 -28.1 42.1 -28.2 41.9 -28.25 41.75 -28.15 41.45 -28.0 41.35 -27.65 41.3 -27.45 41.55 M-27.95 41.8 L-27.85 41.9 -27.75 41.9 -27.6 41.8 -27.6 41.6 Q-27.65 41.5 -27.8 41.5 L-27.95 41.55 -28.05 41.65 -27.95 41.8 M-25.75 40.55 L-25.7 40.65 -25.45 40.55 -25.55 40.45 -25.65 40.45 -25.75 40.55 M-26.15 40.95 L-26.4 40.85 -26.5 40.85 -26.55 40.9 -26.5 41.1 -26.45 41.25 -26.25 41.35 -26.2 41.15 -26.15 40.95 M-26.0 41.35 L-26.05 41.25 -26.15 41.4 -26.25 41.45 -26.5 41.45 -26.75 41.25 -26.75 40.9 -26.6 40.65 -26.3 40.65 -26.45 40.35 -26.25 40.3 -25.8 41.25 -26.0 41.35 M-27.0 40.9 L-26.95 41.1 -27.05 41.15 -27.1 41.2 -27.1 41.25 -27.05 41.55 -26.9 41.8 -27.1 41.85 -27.45 41.15 -27.25 41.05 -27.2 41.2 -27.15 41.0 -27.15 40.9 -27.0 40.9" fill="#000000" fill-rule="evenodd" stroke="none"/>
  </g>
</svg>
