<?xml version="1.0" encoding="UTF-8" standalone="no"?>
<svg xmlns:xlink="http://www.w3.org/1999/xlink" height="55.35px" width="80.7px" xmlns="http://www.w3.org/2000/svg">
  <g transform="matrix(1.0, 0.0, 0.0, 1.0, 36.2, 0.15)">
    <path d="M3.0 23.15 Q3.0 25.3 4.55 26.8 6.1 28.25 8.25 28.25 10.35 28.15 11.85 26.7 13.35 25.1 13.35 23.0 13.25 20.85 11.7 19.35 10.2 17.9 8.05 17.95 5.9 18.0 4.45 19.5 2.95 21.0 3.0 23.15 M35.5 15.55 L37.15 13.3 42.75 28.05 33.5 31.5 Q34.75 29.8 34.75 27.6 34.65 24.8 32.65 22.85 30.65 20.95 27.85 21.0 25.05 21.05 23.15 23.05 21.2 25.0 21.25 27.8 21.3 30.6 23.3 32.55 24.65 33.8 26.3 34.2 L-24.85 53.5 -35.0 26.7 18.4 6.55 Q18.2 7.6 18.25 8.7 18.3 12.9 21.3 15.8 24.25 18.65 28.45 18.6 32.6 18.5 35.5 15.55" fill="#a3cfff" fill-rule="evenodd" stroke="none"/>
    <path d="M35.5 15.55 Q32.6 18.5 28.45 18.6 24.25 18.65 21.3 15.8 18.3 12.9 18.25 8.7 18.2 7.6 18.4 6.55 L-35.0 26.7 -24.85 53.5 26.3 34.2 Q24.65 33.8 23.3 32.55 21.3 30.6 21.25 27.8 21.2 25.0 23.15 23.05 25.05 21.05 27.85 21.0 30.65 20.95 32.65 22.85 34.65 24.8 34.75 27.6 34.75 29.8 33.5 31.5 L42.75 28.05 37.15 13.3 35.5 15.55 M3.0 23.15 Q2.95 21.0 4.45 19.5 5.9 18.0 8.05 17.95 10.2 17.9 11.7 19.35 13.25 20.85 13.35 23.0 13.35 25.1 11.85 26.7 10.35 28.15 8.25 28.25 6.1 28.25 4.55 26.8 3.0 25.3 3.0 23.15 M44.5 28.85 L-25.2 55.2 -36.2 26.2 33.5 -0.15 44.5 28.85" fill="#ffffff" fill-rule="evenodd" stroke="none"/>
    <path d="M8.65 13.4 L8.9 13.95 -20.3 25.05 -20.55 24.45 8.65 13.4 M33.45 6.35 L33.65 6.9 11.95 15.15 11.7 14.55 33.45 6.35 M7.4 35.5 L7.55 36.05 -24.65 48.15 -24.85 47.6 7.4 35.5 M16.7 23.65 L16.9 24.2 -27.4 40.95 -27.6 40.4 16.7 23.65 M10.3 17.75 L10.5 18.25 -18.7 29.3 -18.85 28.75 10.3 17.75" fill="#6198d4" fill-rule="evenodd" stroke="none"/>
    <path d="M6.5 17.0 L6.3 17.15 6.35 17.45 6.5 17.7 6.8 17.75 6.95 17.65 6.9 17.4 7.25 17.3 7.2 17.8 6.9 18.05 Q6.6 18.25 6.3 18.05 L6.0 17.6 Q5.8 17.35 5.95 17.1 6.1 16.85 6.4 16.75 L6.75 16.75 Q6.95 16.65 7.1 16.9 L6.75 17.1 6.55 17.0 6.5 17.0 M5.55 17.55 L5.9 18.35 5.6 18.55 5.4 17.8 5.2 17.7 5.1 17.55 5.0 17.55 Q4.85 17.55 4.8 17.65 L4.75 17.85 4.9 18.1 5.05 18.7 4.7 18.85 4.25 17.55 4.5 17.4 4.6 17.65 5.0 17.25 5.3 17.2 5.4 17.2 5.5 17.35 5.55 17.55 M7.4 16.55 L7.75 16.15 8.3 16.2 8.7 16.7 7.8 17.05 7.9 17.3 8.15 17.25 8.35 17.15 8.35 16.95 8.75 16.95 8.6 17.3 8.3 17.5 7.7 17.5 7.4 17.1 Q7.2 16.8 7.4 16.55 M7.65 16.7 L7.7 16.85 8.25 16.6 8.05 16.45 7.85 16.4 7.65 16.7 M2.35 18.0 L2.35 18.15 2.35 18.25 2.55 18.15 2.65 18.45 2.45 18.55 2.8 19.55 2.5 19.7 2.1 18.7 1.95 18.75 1.85 18.45 2.0 18.4 1.95 18.35 1.9 18.05 2.0 17.8 2.2 17.7 2.55 17.65 2.6 17.9 2.4 17.95 2.35 18.0 M3.35 17.85 L3.9 17.85 4.3 18.35 3.4 18.65 3.55 18.95 3.8 18.9 3.9 18.8 3.9 18.7 4.25 18.6 4.2 18.95 3.95 19.2 3.3 19.2 2.95 18.75 Q2.85 18.5 3.0 18.15 3.1 17.9 3.35 17.85 M3.3 18.3 L3.35 18.45 3.8 18.3 3.65 18.2 3.45 18.1 3.3 18.3 M1.4 19.0 L1.2 18.95 0.95 19.15 1.0 19.35 1.55 19.15 1.4 19.0 M1.65 19.7 L1.65 19.5 1.95 19.45 1.9 19.8 1.65 20.1 1.0 20.0 0.65 19.65 0.7 19.05 1.05 18.75 Q1.4 18.6 1.6 18.75 L2.0 19.15 1.05 19.55 1.25 19.8 1.5 19.8 1.65 19.7 M0.1 19.9 L0.0 19.6 -0.15 19.3 Q-0.2 19.15 -0.35 19.15 L-0.5 19.15 -0.75 19.2 -0.95 19.3 -0.55 20.45 -0.3 20.4 -0.05 20.25 0.1 20.05 0.1 19.9 M0.5 19.8 L0.4 20.25 0.2 20.45 -0.15 20.65 -0.85 20.95 -1.5 19.15 -0.85 18.9 -0.45 18.75 -0.1 18.8 0.2 19.05 0.4 19.5 0.5 19.8 M-13.95 24.4 L-13.65 24.35 -13.4 24.4 -13.3 24.7 -13.1 25.1 -13.05 25.35 -12.9 25.45 -13.3 25.6 -13.35 25.5 -13.45 25.75 -13.6 25.85 -14.05 25.8 -14.25 25.55 -14.3 25.35 -14.2 25.15 -13.9 25.0 -13.7 24.85 -13.75 24.65 -13.95 24.7 -14.0 24.75 -14.15 24.95 -14.5 24.95 -14.35 24.6 -13.95 24.4 M-12.75 24.2 L-12.6 24.0 -12.55 23.9 -12.25 23.85 -12.3 24.2 -12.45 24.2 -12.6 24.3 -12.65 24.4 -12.5 24.85 -12.4 25.25 -12.7 25.4 -13.1 24.1 -12.85 24.0 -12.75 24.2 M-10.35 23.1 L-10.1 23.2 -10.0 22.95 -9.75 22.8 -9.55 22.8 -9.35 22.95 -9.15 23.15 -8.85 23.95 -9.25 24.05 -9.5 23.3 -9.65 23.15 -9.75 23.15 -9.9 23.2 -9.95 23.35 -9.85 23.6 -9.65 24.3 -10.05 24.4 -10.25 23.65 -10.45 23.45 -10.5 23.4 Q-10.55 23.35 -10.6 23.45 L-10.75 23.5 -10.75 23.7 -10.7 23.95 -10.5 24.6 -10.85 24.7 -11.3 23.35 -10.95 23.25 -10.85 23.45 -10.6 23.1 -10.35 23.1 M-11.65 23.85 L-11.4 24.55 -11.35 24.55 -11.25 24.6 -11.15 24.5 -11.05 24.75 -11.25 24.9 -11.4 24.95 -11.6 24.9 -11.7 24.75 -11.75 24.5 -11.95 23.95 -12.15 24.0 -12.25 23.7 -12.05 23.65 -12.15 23.45 -11.95 23.15 -11.75 23.55 -11.5 23.5 -11.4 23.8 -11.65 23.85 M-5.85 20.75 L-5.6 21.25 -5.4 21.2 -5.3 21.5 -5.5 21.55 -5.25 22.2 -5.2 22.2 -5.15 22.3 -5.0 22.15 -4.85 22.45 -5.1 22.6 -5.3 22.55 -5.45 22.55 -5.5 22.45 -5.6 22.2 -5.8 21.7 -6.0 21.75 -6.1 21.45 -5.9 21.4 -5.95 21.15 -5.85 20.75 M-6.4 21.65 L-6.25 21.8 -6.2 22.0 -5.9 22.85 -6.25 22.95 -6.45 22.2 Q-6.55 22.1 -6.6 22.15 L-6.65 22.0 -6.8 22.0 -6.95 22.1 -7.0 22.3 -6.7 23.15 -7.1 23.3 -7.55 22.0 -7.2 21.85 -7.15 22.1 -6.7 21.7 -6.55 21.65 -6.4 21.65 M-8.55 22.4 L-7.95 22.3 -7.55 22.8 -8.45 23.15 -8.35 23.4 -8.05 23.4 -7.95 23.25 -7.9 23.1 -7.5 23.05 -7.6 23.4 -7.9 23.65 -8.55 23.65 -8.8 23.25 -8.85 22.65 -8.55 22.4 M-8.5 22.95 L-8.0 22.7 -8.2 22.6 Q-8.25 22.5 -8.35 22.55 L-8.55 22.8 -8.5 22.95 M-2.5 20.0 L-2.45 20.05 -2.15 19.95 -2.1 20.25 -2.4 20.35 -2.05 21.4 -2.3 21.55 -2.65 20.5 -2.85 20.55 -2.95 20.25 -2.75 20.2 -2.75 20.15 -2.85 19.85 -2.85 19.65 -2.65 19.5 -2.25 19.45 -2.2 19.7 -2.4 19.75 -2.5 19.8 -2.5 20.0 M-3.9 21.35 L-3.7 21.6 -3.4 21.65 -3.25 21.5 -3.25 21.05 -3.45 20.95 -3.7 20.85 -3.9 21.05 -3.9 21.35 M-3.8 20.55 Q-3.5 20.4 -3.25 20.55 L-2.85 20.95 -2.9 21.5 -3.3 21.9 -3.7 21.95 -4.05 21.85 -4.25 21.45 -4.3 21.2 -4.1 20.75 -3.8 20.55 M-13.85 25.25 L-13.95 25.4 -13.8 25.5 -13.7 25.55 -13.45 25.3 -13.5 25.2 -13.55 25.0 -13.6 24.95 -13.65 25.15 -13.85 25.25 M-14.6 25.4 L-14.55 25.9 Q-14.55 26.15 -14.85 26.25 L-15.1 26.35 -15.4 26.2 -15.15 26.9 -15.45 26.95 -16.05 25.15 -15.75 25.05 -15.7 25.3 -15.6 25.1 -15.4 24.9 -14.9 24.95 -14.6 25.4 M-15.15 25.25 L-15.35 25.2 -15.55 25.45 -15.55 25.7 -15.35 26.0 -15.05 26.0 -14.9 25.85 -14.9 25.5 -15.15 25.25 M-17.05 25.55 L-16.5 25.55 -16.1 26.05 -16.95 26.35 -16.85 26.65 -16.6 26.55 -16.5 26.45 -16.45 26.35 -16.05 26.3 -16.2 26.65 -16.45 26.85 Q-16.8 27.05 -17.1 26.85 L-17.45 26.4 -17.4 25.9 -17.05 25.55 M-17.0 26.2 L-16.55 26.0 -16.75 25.85 Q-16.85 25.75 -16.9 25.8 L-17.1 26.0 -17.0 26.2 M-17.7 27.1 L-17.9 27.25 -18.2 27.55 -18.95 27.75 -19.6 26.0 -18.95 25.8 -18.5 25.55 -18.15 25.65 Q-17.95 25.7 -17.9 25.9 L-17.7 26.35 -17.6 26.7 Q-17.5 26.95 -17.7 27.1 M-18.9 26.1 L-19.0 26.15 -18.6 27.3 -18.35 27.25 -18.15 27.0 -18.0 26.9 -18.0 26.75 -18.1 26.45 -18.25 26.15 Q-18.25 26.0 -18.4 26.0 L-18.6 25.9 -18.9 26.1" fill="#000000" fill-rule="evenodd" stroke="none"/>
    <path d="M17.85 37.0 L17.9 37.15 17.1 37.45 17.05 37.55 17.15 37.55 18.1 37.2 18.2 37.55 16.95 38.05 16.75 38.0 16.55 37.35 16.6 37.25 17.35 36.95 17.4 36.85 17.25 36.85 16.55 37.1 16.45 37.1 16.35 36.85 16.4 36.75 17.3 36.4 Q17.6 36.3 17.75 36.65 L17.85 37.0 M20.1 35.4 L20.05 35.45 19.6 37.0 19.55 37.05 19.15 37.2 19.15 37.15 19.55 36.0 18.8 36.25 18.65 35.9 19.9 35.45 20.1 35.4 M9.25 40.45 L8.5 40.7 8.2 40.5 8.05 40.2 Q7.95 39.95 8.15 39.85 L9.1 39.5 Q9.3 39.45 9.5 39.7 L9.8 40.6 9.8 40.75 9.5 40.85 9.45 40.8 9.3 40.45 9.25 40.45 M9.1 39.95 L9.05 39.95 8.5 40.15 8.55 40.3 9.1 40.1 9.1 39.95 M6.25 41.15 L6.75 40.95 6.8 40.85 6.7 40.8 6.2 41.0 6.15 41.1 6.25 41.15 M7.15 41.7 L7.0 41.35 6.9 41.3 6.2 41.6 Q5.95 41.7 5.85 41.4 L5.7 41.1 Q5.6 40.85 5.85 40.75 L6.8 40.4 Q6.95 40.3 7.15 40.6 L7.45 41.5 7.45 41.6 7.2 41.7 7.15 41.7 M15.55 37.15 L15.65 37.4 15.6 37.45 14.8 37.75 14.7 37.85 14.85 37.9 15.5 37.65 15.75 37.7 15.9 38.05 Q16.0 38.4 15.7 38.5 L14.6 38.95 14.5 38.6 15.4 38.25 15.45 38.15 15.45 38.1 14.6 38.4 14.45 38.3 14.25 37.7 Q14.2 37.6 14.3 37.55 L15.45 37.1 15.55 37.15 M-0.2 43.0 L0.15 43.25 0.45 44.1 0.3 44.3 -0.7 44.7 -0.95 44.45 -1.2 43.75 -1.2 43.4 -0.2 43.0 M3.0 41.8 L3.1 41.9 3.3 42.4 3.25 42.35 3.05 42.2 2.95 42.2 2.9 42.15 2.85 41.95 2.85 41.85 3.0 41.8 M2.5 42.0 L2.6 41.95 2.65 41.95 2.75 42.05 2.95 42.55 2.85 42.5 2.75 42.3 2.7 42.35 2.65 42.3 2.55 42.35 2.5 42.3 2.45 42.1 2.55 42.05 2.5 42.0 M12.8 38.1 L12.9 38.05 Q13.15 38.0 13.25 38.25 L13.65 39.3 13.4 39.35 13.3 39.3 13.05 38.6 12.95 38.5 12.9 38.55 12.75 39.25 13.1 39.1 13.15 39.15 13.25 39.4 13.2 39.45 12.25 39.8 12.25 39.75 12.55 38.5 12.8 38.1 M24.4 33.75 Q24.65 33.65 24.8 33.95 L25.1 34.8 24.95 35.0 23.9 35.4 23.65 35.15 23.4 34.45 Q23.25 34.15 23.45 34.1 L24.4 33.75 M10.4 39.45 L10.35 39.45 10.25 39.4 10.2 39.35 10.15 39.15 10.1 39.1 10.25 39.1 10.35 39.05 10.4 39.15 10.6 39.65 10.4 39.45 M10.5 39.0 L10.7 38.9 10.8 39.0 11.0 39.5 10.95 39.45 10.7 39.3 10.65 39.35 10.6 39.25 10.55 39.05 10.5 39.0 M22.8 35.65 L22.6 35.9 21.7 36.25 21.35 36.05 21.0 35.15 21.0 35.0 21.3 34.9 21.4 34.95 21.5 35.3 21.6 35.35 22.3 35.1 Q22.55 35.0 22.6 35.2 L22.8 35.65 M21.7 35.8 L21.8 35.8 22.3 35.65 22.3 35.55 22.25 35.55 21.75 35.7 21.7 35.8 M27.35 33.95 L27.25 34.15 26.2 34.55 25.95 34.3 25.7 33.6 Q25.55 33.3 25.75 33.25 L26.7 32.85 Q26.9 32.8 27.05 33.1 L27.35 33.95 M26.75 33.45 Q26.7 33.3 26.55 33.3 26.4 33.4 26.2 33.45 L26.1 33.65 26.25 34.0 26.45 34.05 26.8 33.9 26.9 33.8 26.75 33.45 M24.45 34.3 L24.3 34.2 23.85 34.35 23.85 34.55 24.0 34.9 24.1 34.95 24.55 34.8 24.6 34.65 24.45 34.3 M-14.6 48.55 L-15.0 50.05 -15.1 50.15 -15.45 50.25 -15.45 50.2 -15.1 49.05 -15.8 49.3 -15.85 49.3 -15.95 49.05 -15.95 48.95 -14.7 48.5 -14.55 48.5 -14.6 48.55 M-13.25 48.0 L-13.1 48.45 -12.35 48.2 Q-12.1 48.1 -12.05 48.3 L-11.85 48.75 -12.05 49.0 -13.0 49.35 -13.3 49.1 -13.7 48.1 -13.45 48.0 -13.25 48.0 M-12.35 48.65 L-12.4 48.6 -12.95 48.8 -12.9 48.9 -12.35 48.7 -12.35 48.65 M-6.4 45.8 L-6.55 45.8 -7.05 46.0 -7.1 46.05 -7.0 46.15 -6.5 45.95 -6.4 45.8 M-6.2 46.3 L-6.35 46.3 -7.05 46.6 -7.4 46.35 -7.55 46.05 -7.4 45.75 -6.45 45.4 Q-6.3 45.3 -6.1 45.6 L-5.8 46.5 -5.8 46.6 -6.05 46.7 -6.2 46.3 M-8.85 46.7 L-9.2 46.85 -9.3 46.9 -9.15 47.0 -8.75 46.85 -8.75 46.7 -8.85 46.7 M-8.55 47.2 L-8.6 47.2 -9.0 47.35 -9.1 47.4 -8.95 47.45 -8.55 47.3 -8.55 47.2 M-8.35 46.55 L-8.1 47.1 Q-8.05 47.35 -8.15 47.45 L-8.35 47.6 -9.0 47.85 Q-9.3 47.95 -9.4 47.6 L-9.65 47.0 Q-9.8 46.65 -9.5 46.55 L-8.85 46.3 Q-8.5 46.15 -8.35 46.55 M-3.55 44.65 Q-3.7 44.35 -3.5 44.25 L-2.55 43.9 Q-2.3 43.8 -2.15 44.1 L-1.85 44.95 -2.0 45.2 -3.05 45.6 -3.3 45.35 -3.55 44.65 M-3.15 44.7 L-3.0 45.05 -2.8 45.1 -2.35 44.95 -2.35 44.8 -2.5 44.45 -2.6 44.35 -3.05 44.5 -3.15 44.7 M-0.1 44.1 L0.0 43.95 -0.15 43.6 -0.35 43.5 -0.8 43.65 -0.8 43.8 -0.65 44.15 -0.55 44.25 -0.1 44.1 M-17.25 49.45 Q-16.9 49.3 -16.75 49.7 L-16.5 50.25 -16.5 50.6 -16.75 50.75 -17.4 51.0 Q-17.65 51.1 -17.75 50.75 L-18.0 50.15 Q-18.15 49.8 -17.9 49.7 L-17.25 49.45 M-17.25 49.85 L-17.6 50.0 -17.7 50.1 -17.55 50.15 -17.15 50.0 -17.15 49.85 -17.25 49.85 M-17.35 50.6 L-16.95 50.45 -16.95 50.35 -17.0 50.35 -17.4 50.5 -17.5 50.6 -17.35 50.6 M-20.45 50.65 L-19.45 50.3 -19.1 50.55 -19.0 50.9 -18.95 51.05 -19.7 51.35 -19.8 51.45 -19.65 51.45 -18.7 51.1 -18.65 51.15 -18.55 51.4 -18.6 51.45 -19.9 51.95 -20.0 51.85 -20.25 51.15 -19.5 50.85 -19.4 50.75 -19.55 50.7 -20.3 51.0 -20.45 50.65 M-21.3 51.4 L-21.2 51.75 -21.15 51.9 -21.95 52.2 -22.05 52.3 -21.9 52.3 -21.0 51.95 -20.95 52.0 -20.85 52.25 -20.9 52.3 -22.15 52.8 -22.3 52.75 -22.5 52.1 -22.5 52.0 -21.7 51.7 -21.7 51.6 -21.8 51.6 -22.55 51.85 -22.6 51.85 -22.7 51.6 -22.7 51.5 -21.75 51.15 Q-21.45 51.05 -21.3 51.4 M-23.2 53.2 L-23.5 53.3 -23.6 53.2 -23.9 52.4 -23.95 52.4 -24.0 52.4 -24.1 52.1 -24.1 52.05 -23.7 51.9 -23.6 51.9 -23.15 53.1 -23.2 53.2" fill="#64958e" fill-rule="evenodd" stroke="none"/>
    <path d="M29.85 22.65 L30.5 22.0 Q31.1 21.55 31.85 21.75 33.75 22.3 34.2 24.3 L34.2 25.5 34.2 25.55 34.3 25.6 34.45 25.8 34.45 25.9 34.5 26.0 34.55 26.05 34.6 26.2 34.7 26.15 35.05 26.2 35.2 26.15 35.35 26.3 35.45 26.3 35.6 26.3 Q36.2 26.4 36.65 25.9 L36.75 25.9 36.9 25.6 37.0 25.4 37.0 25.15 37.1 25.0 Q37.2 24.9 37.25 24.9 L37.45 24.85 Q37.75 24.75 37.95 25.1 L38.3 25.3 39.2 25.25 39.4 25.3 39.4 25.35 39.55 25.35 39.55 25.4 39.5 25.6 39.45 25.65 39.35 25.7 39.2 25.75 38.7 25.7 38.35 25.7 37.95 25.65 37.8 25.55 37.75 25.5 37.7 25.5 37.65 25.4 37.65 25.35 37.6 25.35 37.55 25.25 37.5 25.25 37.4 25.45 37.2 25.8 37.15 26.0 37.0 26.25 36.85 26.3 Q36.25 26.75 35.45 26.75 35.25 26.75 35.05 26.55 L34.85 26.55 Q34.55 26.6 34.5 26.9 L34.4 27.15 34.05 27.4 33.85 27.5 33.75 27.45 Q33.6 27.35 33.75 27.2 L33.95 26.9 34.2 26.55 34.25 26.25 34.15 26.1 Q34.0 26.1 33.8 26.65 L32.75 28.65 Q31.65 30.05 29.95 30.1 L29.95 30.25 29.7 30.55 29.25 30.8 28.75 31.0 28.75 30.95 28.5 30.8 28.35 30.6 28.3 30.35 28.25 29.95 28.1 29.75 28.15 29.85 28.0 29.9 27.5 30.1 27.5 30.05 27.4 29.8 27.4 29.6 27.4 29.4 27.4 29.25 27.4 29.05 27.35 29.1 27.15 29.4 27.1 29.6 26.95 30.0 26.8 30.4 26.7 30.45 26.65 30.45 26.6 30.1 26.6 29.8 26.55 29.5 26.4 29.15 26.3 28.85 25.9 29.35 25.25 30.8 24.15 32.7 23.45 33.35 23.2 32.6 Q22.95 31.9 23.2 31.0 23.7 29.85 24.6 29.0 25.25 28.45 26.0 28.35 26.85 25.95 25.85 23.8 25.15 22.35 23.55 23.4 19.5 25.65 19.7 29.65 19.85 32.15 20.95 34.3 L21.3 35.0 Q22.15 34.3 22.4 33.25 L22.75 30.55 22.65 28.2 Q22.5 27.15 21.9 26.3 21.85 26.3 21.75 26.4 L21.65 26.65 21.55 27.0 21.4 27.35 21.3 27.8 21.15 27.8 21.25 27.4 21.3 27.15 21.4 26.7 21.5 26.3 21.6 26.05 21.75 26.0 22.0 25.9 22.05 25.95 Q22.6 26.65 22.8 27.5 L23.1 30.1 Q23.2 31.4 22.9 32.7 22.55 34.35 21.25 35.3 20.4 34.4 20.0 33.0 19.55 31.3 19.45 29.55 19.35 27.4 20.65 25.55 21.65 23.85 23.5 23.0 L25.65 22.95 Q26.55 23.6 26.7 24.7 26.85 25.75 26.6 26.85 L26.25 28.45 26.3 28.5 26.45 28.7 26.55 28.95 26.55 29.0 26.65 29.3 26.75 29.45 26.75 29.55 26.85 29.5 26.95 29.35 27.05 29.2 27.1 29.0 27.2 28.8 27.4 28.65 27.5 28.75 27.6 29.0 27.65 29.15 27.65 29.3 27.7 29.55 27.7 29.7 27.7 29.8 27.75 29.75 27.85 29.65 Q27.85 29.55 28.0 29.55 L28.15 29.35 Q28.0 27.95 28.1 26.4 28.3 24.7 29.25 23.45 L29.1 23.7 Q28.65 24.6 28.5 25.6 28.35 26.6 28.35 27.55 L28.4 28.85 28.45 28.95 28.45 29.0 28.55 29.05 28.6 29.1 28.65 29.15 28.65 29.25 28.7 29.3 29.0 29.05 29.15 28.35 29.15 27.5 29.25 26.5 Q29.25 26.05 29.65 25.8 L29.75 25.95 29.8 26.05 29.85 26.15 29.85 26.2 29.9 26.4 30.0 26.45 30.05 26.55 30.1 26.65 30.45 26.4 Q31.0 25.65 31.95 25.3 L33.85 25.2 33.8 24.6 33.5 23.6 32.75 22.5 Q31.8 21.5 30.45 22.15 L29.85 22.65 M31.45 25.7 L31.15 26.05 30.85 26.3 30.6 26.6 30.35 26.95 30.25 27.05 30.35 27.35 30.35 27.8 30.35 28.45 30.3 29.15 30.15 29.8 Q31.2 29.75 32.0 28.8 L33.35 26.95 33.8 25.75 33.6 25.6 33.3 25.4 32.05 25.5 31.45 25.7 M29.9 29.5 L30.05 29.1 30.05 28.45 30.05 28.05 30.05 27.6 30.0 27.7 29.85 28.15 29.85 28.55 29.8 29.0 29.9 29.5 M28.45 29.75 L28.5 30.0 28.55 30.3 28.7 30.5 28.9 30.75 Q29.95 30.45 29.6 29.5 29.45 28.95 29.55 28.25 L29.7 27.15 29.6 26.25 29.4 27.35 29.4 28.3 Q29.45 28.8 29.1 29.2 28.85 29.7 28.45 29.55 L28.45 29.75 M25.95 28.65 L25.8 28.6 25.75 28.6 25.25 28.75 24.25 29.7 23.65 30.8 Q23.35 31.4 23.45 32.05 L23.6 32.9 24.35 32.05 24.95 30.75 25.6 29.4 25.95 28.65" fill="#000000" fill-rule="evenodd" stroke="none"/>
    <path d="M36.5 12.35 L16.85 19.75 18.25 23.45 37.9 16.05 36.5 12.35 M38.65 16.35 L17.9 24.2 16.1 19.4 36.85 11.55 38.65 16.35" fill="#6198d4" fill-rule="evenodd" stroke="none"/>
    <path d="M26.45 18.55 Q26.45 19.1 26.7 19.1 27.0 19.1 27.15 18.15 L27.0 17.6 Q26.8 17.35 26.55 17.8 L26.45 18.55 M24.8 17.7 L24.9 17.8 24.6 18.5 24.6 19.05 24.7 19.7 25.1 19.7 Q25.6 19.15 25.6 18.5 L25.45 18.2 24.95 18.05 24.9 17.9 25.15 17.7 Q26.0 17.7 26.0 18.55 L25.8 19.5 Q25.5 20.1 24.9 20.1 24.3 20.1 24.2 19.65 L24.2 19.1 Q24.2 17.7 24.8 17.7 M27.65 16.75 Q27.65 16.35 28.05 16.35 28.45 16.3 28.15 16.75 L28.35 16.65 28.8 16.65 Q29.45 16.7 29.45 17.45 L29.45 17.65 29.55 17.35 29.6 16.55 29.85 15.75 30.0 15.65 30.2 15.6 30.25 15.75 30.25 15.9 30.25 16.1 30.35 16.05 30.95 15.95 31.1 15.95 31.3 16.2 Q31.25 15.65 31.5 15.3 L31.95 14.95 32.0 15.1 32.05 15.3 32.25 15.35 32.45 15.45 32.55 15.5 32.95 15.9 33.0 16.65 Q33.1 17.65 31.95 17.7 L31.55 17.75 31.4 17.35 31.35 17.3 30.9 18.05 Q30.4 18.6 29.7 18.5 L29.55 18.05 29.45 17.8 Q29.3 18.95 28.25 18.95 27.7 18.95 27.55 18.35 27.45 19.5 26.65 19.5 26.05 19.5 26.05 18.6 L26.2 17.85 Q26.4 17.2 26.7 17.2 27.35 17.2 27.5 17.75 L27.65 16.75 M30.05 17.0 L30.05 17.1 29.95 17.3 29.95 17.6 29.95 17.8 30.05 18.05 Q30.2 18.25 30.55 17.85 L30.95 17.3 31.05 16.75 31.0 16.6 30.95 16.5 30.95 16.4 30.5 16.5 30.45 16.55 30.4 16.75 30.15 16.85 30.05 16.9 30.05 17.0 M28.95 17.55 Q28.95 17.15 28.5 17.3 28.0 17.45 28.0 17.75 28.0 18.35 28.35 18.35 28.95 18.35 28.95 17.55 M22.35 19.95 L22.1 21.2 22.65 21.1 22.95 21.15 22.9 21.05 22.75 20.8 22.9 20.6 23.3 20.8 23.65 20.5 23.85 20.1 23.75 19.7 23.0 19.75 Q22.8 19.75 22.6 19.1 L22.45 18.45 Q22.45 18.2 23.25 17.9 L23.5 17.9 23.6 18.05 22.9 18.45 23.05 19.3 23.5 19.25 Q24.25 19.25 24.25 20.05 L24.0 20.75 Q23.65 21.3 23.25 21.3 L23.1 21.25 23.05 21.3 22.9 21.4 Q22.6 21.45 22.2 21.65 L21.65 21.95 21.45 21.7 Q21.95 20.8 21.95 19.95 L21.9 19.3 21.75 19.25 21.45 19.6 21.3 19.6 21.25 19.3 Q21.25 19.05 21.6 18.8 22.0 18.5 22.25 19.0 L22.35 19.95 M20.6 19.3 L20.6 19.4 20.4 19.6 Q20.0 19.65 19.8 20.0 L19.7 20.1 19.55 20.2 19.6 20.3 20.45 20.55 20.6 20.7 20.95 20.95 21.15 21.15 21.2 21.3 21.25 21.45 21.25 21.6 Q20.95 22.3 20.25 22.45 L20.3 22.55 Q20.7 23.15 20.55 23.75 19.95 23.35 19.65 22.4 L19.55 22.35 19.35 22.35 19.3 22.25 19.2 22.15 19.2 22.0 19.2 21.95 19.3 21.85 19.4 21.9 19.5 21.95 19.25 20.9 18.6 21.0 18.55 20.9 18.85 20.3 19.0 20.2 18.65 18.9 Q18.5 18.2 18.8 17.75 19.25 18.4 19.35 19.25 L19.5 19.8 19.6 19.6 19.8 19.45 19.9 19.35 20.45 19.2 20.55 19.2 20.6 19.3 M20.75 21.4 L20.2 21.0 20.0 20.95 19.7 20.85 19.7 21.0 20.15 22.1 20.7 21.75 20.8 21.45 20.75 21.4 M27.85 19.4 L27.6 19.9 27.4 19.65 27.4 19.4 Q27.4 18.9 27.65 18.95 27.85 19.0 27.85 19.4 M36.3 14.25 L36.4 14.35 36.6 14.65 36.7 14.8 36.7 15.15 36.7 15.75 36.55 16.25 36.35 16.35 35.55 16.6 35.35 16.25 35.3 15.9 35.25 15.8 35.1 16.25 34.9 16.65 34.8 16.7 34.05 16.95 33.95 16.9 33.8 16.8 33.75 16.5 33.7 16.15 33.85 15.55 33.9 15.05 33.9 14.95 34.1 14.7 34.2 14.6 34.35 14.6 34.55 14.6 34.75 14.7 34.9 14.75 35.05 14.8 35.15 15.1 35.15 14.8 35.15 14.35 35.25 14.2 35.35 14.1 35.35 14.0 35.4 14.0 35.55 14.0 35.7 14.1 35.8 14.1 35.95 14.1 36.15 14.25 36.3 14.25 M35.6 15.05 L35.6 15.25 35.6 15.5 35.65 15.65 35.75 15.85 35.8 16.0 35.8 16.05 36.25 15.85 36.25 15.75 36.25 15.5 36.3 15.25 36.3 14.95 36.25 14.8 36.1 14.8 36.05 14.7 35.75 14.7 35.6 14.75 35.6 15.05 M34.3 15.45 L34.15 15.65 34.05 15.9 34.1 16.3 34.65 16.25 34.7 16.15 34.75 15.95 34.85 15.5 34.85 15.25 Q34.8 15.0 34.5 15.3 L34.3 15.45 M32.3 15.85 L31.9 15.95 31.7 16.0 31.7 16.05 31.65 16.3 31.7 16.45 31.65 16.7 31.7 17.0 31.75 17.15 31.8 17.3 32.7 16.95 32.7 16.75 32.6 16.55 32.55 16.25 32.45 16.1 32.4 16.0 32.35 15.85 32.3 15.85 M33.45 16.1 L33.3 16.45 33.05 16.25 Q33.0 16.05 33.1 15.9 L33.45 16.1 M1.9 29.35 L1.8 29.6 Q1.4 29.2 1.3 28.6 L1.25 27.55 1.05 25.4 1.1 25.05 1.0 24.95 1.8 24.2 Q2.55 23.65 2.8 23.7 L2.85 23.85 2.2 24.3 Q1.55 24.7 1.25 25.05 L1.6 26.65 Q2.1 26.0 3.0 25.7 L3.05 25.8 1.65 27.0 1.9 29.35 M8.5 21.15 L8.85 23.65 8.95 24.45 9.2 24.25 9.85 23.85 9.75 23.35 9.5 21.1 9.7 20.6 10.1 22.6 10.3 23.6 10.55 23.5 10.6 23.65 10.35 23.95 10.45 25.05 10.2 25.85 9.9 24.25 9.6 24.4 9.0 24.75 9.3 26.1 9.1 26.25 Q8.75 26.25 8.6 24.95 L8.45 24.95 8.4 24.85 8.6 24.7 8.55 24.4 8.3 22.45 Q8.3 21.3 8.5 21.15 M19.05 14.5 L19.0 15.0 18.8 14.6 19.05 14.5 M12.65 22.65 L12.95 23.4 13.05 23.7 Q13.1 23.0 13.5 22.95 L13.6 23.0 13.3 23.8 13.3 24.15 13.5 24.15 13.65 22.5 13.55 21.15 13.55 20.55 Q14.05 20.8 14.05 22.55 L14.05 23.65 Q13.95 24.5 13.45 24.5 13.2 24.5 13.1 24.3 L12.85 24.45 Q12.55 24.45 12.55 23.9 L12.5 23.85 12.5 24.15 12.4 24.7 12.1 25.1 Q11.8 25.1 11.8 24.75 L11.75 24.75 Q11.75 25.5 11.3 25.5 10.85 25.5 10.7 24.85 L10.6 24.15 10.65 23.45 10.85 23.4 10.9 24.25 11.2 25.05 11.3 25.05 11.5 23.0 11.65 22.95 11.9 23.35 12.05 24.0 Q12.05 22.65 12.65 22.65 M16.45 21.9 L16.35 23.1 Q15.95 24.05 15.3 24.05 L14.85 23.9 14.75 23.75 14.5 24.0 14.25 23.75 14.25 23.5 Q14.25 22.1 14.7 21.8 L14.85 22.15 14.85 22.45 15.1 22.35 15.35 22.4 15.35 23.05 15.0 23.4 Q15.0 23.65 15.15 23.75 L15.5 23.75 Q15.85 23.6 15.8 23.25 L15.8 22.8 16.1 22.45 16.1 22.0 15.8 18.3 Q16.45 19.05 16.45 21.9 M18.5 19.9 L18.8 19.9 18.85 20.0 18.8 20.15 18.65 20.2 18.5 20.0 18.5 19.9 M13.1 30.0 L13.1 31.2 13.2 32.4 Q13.3 32.95 13.8 33.1 L13.75 33.3 13.55 33.45 13.25 33.45 12.95 33.35 12.95 33.25 12.9 33.1 12.85 33.0 12.85 32.95 12.75 32.85 12.75 32.9 12.7 33.05 12.5 33.6 12.15 34.15 Q11.9 34.5 11.5 34.35 L11.5 34.25 11.4 34.0 11.35 33.85 11.2 33.6 11.2 33.55 11.1 33.75 11.05 34.15 10.95 34.45 10.8 34.7 10.55 34.3 10.45 33.8 10.45 33.2 Q10.45 32.8 10.65 33.2 L10.75 33.3 10.75 33.05 10.85 32.9 10.95 32.65 11.35 32.75 11.5 33.15 11.65 33.4 11.75 33.75 11.8 33.85 Q12.3 33.3 12.4 32.55 L12.45 31.15 12.35 29.8 Q12.25 29.3 12.55 29.05 13.15 29.25 13.1 30.0 M15.05 30.15 L16.15 32.35 Q16.7 33.65 16.35 35.05 16.1 36.2 15.1 36.9 L14.35 37.3 13.65 37.3 Q13.2 37.15 12.95 36.6 L13.0 36.55 13.2 36.55 13.5 36.65 13.75 36.8 Q15.5 36.5 15.8 34.9 16.0 34.05 15.7 33.3 L15.15 32.0 15.15 32.1 14.4 32.7 Q14.15 32.8 14.05 32.5 13.95 32.0 14.45 31.65 L14.7 31.1 Q14.65 30.65 14.9 30.3 L15.05 30.15 M6.5 24.65 L6.5 25.2 5.9 26.25 Q5.9 26.65 6.15 26.65 6.65 26.65 7.1 25.9 L7.2 25.9 7.25 26.1 Q7.25 27.1 6.3 27.1 5.7 27.1 5.55 26.75 L5.5 26.35 5.7 25.2 Q6.0 24.35 6.5 24.65 M5.35 25.15 L5.35 26.45 Q5.4 27.6 4.8 27.6 4.1 27.6 3.8 25.9 L3.85 25.45 4.0 25.4 4.3 26.05 4.75 27.15 4.85 26.0 Q4.85 25.3 5.35 25.15 M3.4 24.9 L3.6 25.55 3.55 25.7 3.25 25.4 3.2 25.2 3.4 24.9 M3.35 26.4 L3.7 27.95 3.5 28.25 Q3.15 28.0 3.15 27.65 L3.1 26.95 3.1 26.4 3.35 26.4 M3.25 33.15 L3.4 34.8 3.75 36.4 4.0 37.75 Q3.3 37.45 3.15 36.45 L2.85 34.7 2.5 33.05 Q2.25 32.45 2.45 32.0 L2.5 31.85 2.65 31.95 Q3.15 32.35 3.25 33.15 M1.65 32.45 Q2.15 32.85 2.1 33.6 L2.15 35.0 2.4 36.3 2.8 37.4 2.8 37.3 2.8 37.1 2.85 36.9 2.8 36.7 2.9 36.45 Q3.1 36.4 3.1 36.9 L3.05 37.35 3.15 37.95 Q3.2 38.2 2.85 38.4 2.3 38.0 2.0 37.1 L1.95 36.95 1.9 37.25 1.55 38.1 1.25 38.45 0.5 38.55 0.4 38.45 0.35 38.5 0.2 38.7 0.15 38.95 0.1 39.2 0.0 39.25 Q-0.4 39.45 -0.55 39.05 L-0.75 38.55 -0.9 38.15 -1.0 37.9 -1.25 38.3 -1.45 38.9 -1.6 39.45 -1.75 39.8 -1.85 39.85 -2.5 40.0 -2.75 39.1 -2.8 38.05 -2.3 36.85 -1.85 36.65 -2.0 37.6 -2.2 38.35 -2.3 39.15 -2.25 39.4 Q-1.65 39.15 -1.5 38.1 L-1.6 36.7 -1.7 35.35 -1.35 34.85 Q-0.95 35.2 -0.95 35.85 L-0.75 36.9 -0.5 37.95 -0.25 38.85 Q0.1 38.75 0.15 38.1 L0.1 37.4 Q0.05 36.95 0.15 36.6 L0.25 36.05 0.55 36.05 1.4 35.9 1.75 36.35 1.7 35.35 1.55 33.7 Q1.35 32.85 1.65 32.45 M0.85 36.65 L0.8 36.65 0.7 36.95 Q0.6 37.1 0.65 37.3 L0.65 37.7 0.75 37.95 0.8 38.0 Q0.95 38.25 1.15 37.9 L1.35 37.4 1.4 36.9 1.4 36.7 1.3 36.6 1.25 36.55 0.85 36.65 M4.35 35.5 L4.35 36.05 4.45 36.3 4.55 36.05 4.6 35.7 4.65 35.35 4.65 34.85 4.9 34.55 5.15 34.7 5.25 34.85 5.35 35.0 5.45 35.15 5.5 35.4 5.55 35.5 5.6 35.0 5.85 34.35 6.1 33.6 Q6.15 33.15 6.55 32.95 L6.5 32.9 Q6.85 32.9 6.8 33.2 L6.55 33.6 6.45 34.1 6.45 34.6 6.5 34.65 6.6 34.7 6.75 34.8 6.9 34.85 7.0 34.95 7.05 34.95 7.1 35.0 7.25 35.1 7.3 35.25 7.3 35.3 7.35 35.4 7.35 35.45 7.4 35.55 7.25 35.9 7.15 36.1 7.1 36.2 6.85 36.4 6.7 36.4 6.6 36.25 6.6 36.0 6.7 35.7 6.75 35.6 6.8 35.45 6.75 35.3 6.65 35.3 6.45 35.25 6.25 35.25 6.2 35.2 6.1 35.25 6.05 35.3 6.1 35.5 6.15 35.65 6.15 35.75 6.15 35.85 6.2 35.95 6.2 36.1 5.75 36.4 5.4 36.45 5.35 36.45 5.3 36.3 5.25 36.2 5.2 36.15 5.2 36.05 5.15 35.9 5.05 35.85 5.0 35.95 5.0 36.2 4.85 36.45 4.7 36.75 4.3 37.0 4.0 36.5 3.85 35.8 3.95 35.05 Q4.0 34.5 4.45 34.25 L4.6 34.25 4.6 34.7 4.5 35.0 4.35 35.5 M9.8 33.15 L10.1 33.55 10.1 34.05 10.0 34.65 9.8 35.2 9.7 35.2 8.95 35.35 8.7 34.95 8.65 34.25 8.8 33.7 9.1 33.15 9.15 33.05 9.4 33.1 9.5 33.1 9.7 33.15 9.8 33.15 M9.2 33.55 L9.1 33.6 9.1 33.9 9.0 34.3 9.05 34.7 9.1 34.9 9.15 35.0 9.2 35.1 9.65 34.95 9.65 34.65 9.85 34.4 9.85 34.15 9.8 34.0 9.75 33.9 9.7 33.75 9.6 33.65 9.55 33.6 9.35 33.55 9.2 33.55 M-23.15 42.7 L-23.0 43.95 -22.8 43.6 -22.45 43.0 -22.4 42.8 -22.2 42.75 Q-22.05 43.15 -22.4 43.6 L-22.9 44.2 -22.9 44.4 -22.45 46.05 Q-22.2 46.85 -22.6 47.25 L-23.1 45.65 -23.3 44.65 -23.5 44.85 -24.35 45.35 -24.4 45.35 Q-24.1 44.75 -23.45 44.3 L-23.4 44.25 -23.5 43.9 -23.9 42.3 Q-24.15 41.6 -23.9 41.15 -23.3 41.9 -23.15 42.7 M-21.95 41.4 L-21.8 42.35 -21.65 43.3 -21.45 43.95 -21.4 43.7 -21.35 43.5 -21.3 43.25 -21.0 42.85 -20.65 43.3 -20.6 43.8 -20.55 44.4 -20.45 44.9 -20.3 44.65 -20.3 44.15 -20.35 43.65 Q-20.35 43.25 -19.95 43.35 L-19.85 43.6 -19.8 43.95 -19.75 44.45 -19.7 44.65 -19.65 44.8 Q-19.35 44.85 -19.25 44.3 L-19.35 43.8 -19.5 43.3 -19.8 43.25 -19.85 43.15 -19.75 42.95 -19.35 42.8 -19.1 43.5 Q-18.9 43.95 -19.0 44.35 -19.05 45.3 -19.9 45.15 L-20.0 45.05 -20.05 45.0 -20.1 45.2 -20.1 45.5 -20.2 45.7 -20.35 45.85 Q-20.75 46.0 -20.9 45.55 L-21.0 44.95 -20.95 44.5 -21.05 44.0 -21.25 44.5 -21.15 44.9 -21.15 45.35 -21.35 45.75 Q-21.9 45.3 -21.9 44.45 -21.9 43.7 -22.05 42.95 L-22.35 41.6 Q-22.45 41.0 -22.15 40.5 L-21.95 41.4 M-3.35 27.9 L-3.1 28.2 -3.1 28.55 -3.15 28.65 Q-3.5 28.6 -3.5 28.15 L-3.35 27.9 M-3.45 29.05 L-3.05 30.85 -3.15 31.0 -3.55 30.25 -3.7 29.5 Q-3.7 29.05 -3.45 29.05 M-5.05 26.5 L-4.35 28.8 -3.95 30.9 -4.0 31.15 -4.25 31.15 -4.85 28.85 -5.2 26.9 -5.05 26.5 M-2.05 30.5 Q-2.85 30.5 -2.65 29.5 -2.65 28.4 -2.05 28.35 L-1.65 28.55 -1.5 28.65 -1.4 28.2 -1.35 27.85 Q-1.35 27.35 -0.85 27.35 -0.65 27.35 -0.6 27.85 L-0.55 28.5 -0.25 29.65 -0.45 30.0 -0.8 29.6 -1.0 29.05 -1.05 29.6 Q-1.1 30.0 -1.3 30.0 L-1.5 29.9 Q-1.65 30.5 -2.05 30.5 M-2.2 28.7 L-2.3 29.45 -2.2 30.15 -2.0 30.15 -1.9 29.7 -1.85 29.4 -1.85 29.05 -2.2 28.7 M-6.05 27.35 Q-5.55 28.15 -5.3 29.55 L-4.9 31.7 -4.9 31.95 -5.05 32.0 Q-5.5 32.0 -5.75 29.75 L-6.2 27.45 -6.05 27.35 M-8.15 27.8 Q-7.75 27.8 -7.2 30.05 L-6.7 32.3 Q-6.7 32.6 -7.0 32.6 L-7.45 31.05 -8.15 28.55 -8.15 31.95 Q-8.15 32.25 -8.5 32.25 -8.8 32.25 -9.1 30.9 -9.4 29.3 -9.85 28.85 L-9.85 30.15 -9.25 33.0 -9.25 33.5 -9.4 33.55 -9.7 32.7 -9.95 31.5 -10.2 29.45 Q-10.2 28.5 -9.8 28.5 -9.25 28.5 -8.95 29.6 L-8.6 31.4 -8.5 31.45 -8.5 28.5 -8.55 28.2 Q-8.55 27.8 -8.15 27.8 M-6.2 29.8 L-6.25 29.9 -6.7 29.65 -6.7 29.25 Q-6.2 28.9 -6.2 29.8 M-6.35 30.65 Q-6.15 30.75 -6.15 31.45 L-5.85 32.25 -6.05 32.45 Q-6.5 32.45 -6.5 31.2 L-6.35 30.65 M-17.55 32.65 L-17.3 33.55 -17.1 35.0 -16.95 36.45 -16.65 37.6 -17.25 36.25 -17.6 34.75 -17.85 33.3 -17.9 32.9 -18.35 33.15 -19.1 33.65 -19.35 33.7 -18.45 32.65 -17.9 32.45 -17.9 32.25 -17.75 32.4 -17.4 32.15 -17.1 31.9 -16.75 31.75 -17.3 32.4 -17.55 32.65 M-16.0 35.45 L-15.8 36.1 -15.6 35.4 -15.65 34.75 Q-15.65 34.35 -15.8 34.05 L-15.5 33.75 -15.2 34.1 -15.05 34.45 -14.8 34.8 Q-14.65 35.05 -14.45 34.95 -14.15 34.65 -14.25 34.4 L-14.3 33.95 -14.25 33.45 -14.2 33.05 -14.15 33.15 -14.05 33.2 -14.0 33.3 -13.95 33.3 -13.9 33.4 -13.8 33.55 -13.8 33.6 -13.85 33.8 -13.85 34.1 -13.8 33.95 -13.8 34.4 -13.85 34.35 -13.85 34.45 -13.85 34.55 -13.95 34.85 -14.2 35.1 -14.3 35.35 -14.75 35.3 -14.95 35.2 -15.2 35.0 -15.2 34.95 -15.25 35.35 -15.3 35.85 -15.5 36.25 -15.7 36.45 Q-16.15 36.4 -16.3 35.8 L-16.5 35.0 -16.65 34.15 -16.45 33.55 -16.3 34.15 -16.2 34.8 -16.0 35.45 M-13.65 33.2 Q-13.65 32.4 -12.8 32.5 -12.0 32.6 -12.0 33.65 L-12.25 34.3 Q-12.6 34.8 -13.05 34.8 -13.55 34.8 -13.6 34.1 L-13.55 33.4 -13.65 33.2 M-12.8 32.9 L-13.25 33.0 -13.3 33.75 Q-13.3 34.35 -13.0 34.35 -12.55 34.35 -12.45 33.6 L-12.7 32.95 -12.8 32.9 M-10.5 35.9 L-10.3 35.15 -10.25 35.05 Q-9.6 35.6 -9.75 36.55 L-9.65 38.3 -9.3 40.1 -8.75 41.2 Q-8.6 40.8 -8.45 41.1 -8.3 41.2 -8.3 41.45 -8.3 41.75 -8.75 41.9 -9.2 41.95 -9.3 41.6 L-9.55 41.1 -9.75 40.65 -9.95 40.1 -9.95 40.05 -10.1 40.5 -10.2 41.05 -10.2 41.1 Q-10.5 41.65 -11.0 41.7 L-11.15 41.65 -11.15 41.6 Q-11.35 41.95 -11.8 41.95 L-12.0 41.7 -12.0 41.55 -12.0 41.45 -12.05 41.4 -12.2 41.55 -12.3 41.7 -12.35 41.85 -12.7 42.35 -13.05 42.3 -13.15 42.2 -13.2 42.1 -13.35 42.3 -13.45 42.75 -13.7 43.05 -14.1 43.1 -14.25 43.05 -14.35 42.95 -14.4 42.85 -14.45 42.9 -14.45 43.0 -14.5 43.15 -14.55 43.2 -14.6 43.4 -14.75 43.55 -15.65 43.8 -15.85 43.1 -15.8 42.5 Q-15.75 41.85 -15.25 41.55 L-15.25 41.3 -15.4 41.05 Q-15.6 40.85 -15.85 41.2 L-16.15 41.55 -16.3 41.8 -16.3 41.4 -16.0 40.85 -15.2 40.65 -15.1 40.85 -14.95 41.05 -14.85 41.25 -14.8 41.45 -14.75 41.6 -14.7 41.7 -14.3 41.8 -14.15 42.05 -14.05 42.35 -13.95 42.65 -13.75 42.25 -13.7 41.7 -13.4 41.2 -13.2 40.95 -13.05 41.0 -12.9 41.25 -12.8 41.45 -12.8 41.5 -12.7 41.75 -12.55 41.35 -12.3 40.95 Q-12.3 40.55 -11.9 40.5 L-11.75 40.55 -11.7 40.7 -11.7 40.75 -11.65 41.0 -11.6 41.25 -11.65 41.4 -11.3 40.85 -11.15 40.25 -11.05 39.6 -10.95 39.05 -10.95 39.0 -10.85 38.95 -10.6 38.9 -10.45 38.95 -10.4 39.0 -10.35 38.05 -10.45 37.0 -10.5 35.9 M-10.6 40.15 L-10.7 40.35 -10.75 40.5 -10.8 40.65 -10.75 40.95 -10.75 41.1 -10.65 40.95 -10.55 40.7 -10.55 40.35 -10.55 40.1 -10.6 40.15 M-14.95 42.6 L-15.0 42.25 Q-15.1 42.05 -15.25 42.25 L-15.25 42.35 -15.3 42.65 -15.3 42.8 -15.25 42.95 -15.2 43.1 Q-15.1 43.35 -14.95 43.05 L-14.95 42.6 M-17.75 42.7 L-17.6 43.1 -17.3 43.6 -17.05 43.95 -17.2 44.05 -17.25 44.15 -17.45 44.2 -17.65 44.2 -17.7 44.2 -17.75 44.35 -17.9 44.65 -17.9 44.75 -17.95 44.85 -18.0 45.0 -18.1 45.0 -18.45 45.1 -18.55 45.1 -18.75 44.45 -18.85 43.7 -19.05 42.95 Q-19.15 42.6 -18.85 42.4 L-18.8 42.35 Q-18.45 42.55 -18.5 42.85 L-18.5 43.5 -18.45 44.05 -18.4 44.65 -18.15 44.3 -18.05 43.7 -18.2 43.05 -18.2 42.6 Q-17.85 42.45 -17.75 42.7 M-17.1 41.3 L-16.6 41.4 -16.65 41.55 -16.95 41.95 -16.9 42.4 -16.9 42.65 -16.8 42.7 -16.4 42.9 -16.25 43.0 -16.25 43.1 -16.1 43.25 -16.05 43.45 -16.05 43.55 -16.3 43.9 -16.85 44.15 -17.1 44.15 -17.05 44.05 -16.85 43.75 -16.5 43.35 -16.5 43.3 -17.0 43.05 -17.3 42.65 -17.35 42.3 -17.15 41.55 -17.1 41.3" fill="#000000" fill-rule="evenodd" stroke="none"/>
    <path d="M31.2 5.7 L30.65 6.25 30.6 6.3 Q31.15 6.45 31.15 7.05 L30.8 7.7 29.85 8.05 Q29.45 8.05 29.45 7.35 29.45 7.05 29.85 6.65 L29.05 6.35 29.0 6.05 Q29.0 5.15 30.2 4.8 31.35 4.45 31.35 5.15 L31.2 5.7 M30.85 5.0 L30.2 5.05 Q29.95 5.05 29.7 5.35 L29.35 5.9 29.35 6.2 29.65 6.25 30.2 6.25 31.05 5.2 30.85 5.0 M30.8 7.1 Q30.8 6.5 30.3 6.75 29.75 7.0 29.75 7.35 L29.8 7.65 29.95 7.7 30.55 7.45 30.8 7.1 M25.05 8.0 L24.8 9.35 24.6 10.85 24.35 12.05 Q24.1 11.55 24.15 10.7 L24.35 9.3 24.5 7.75 Q24.55 7.05 24.9 6.6 25.2 7.1 25.05 8.0 M22.0 9.1 L21.9 9.6 21.95 10.05 22.0 9.95 Q22.6 9.55 23.05 9.65 L23.4 10.1 23.15 10.75 Q22.7 11.45 21.85 11.4 21.65 11.15 21.6 10.75 L21.6 10.0 21.65 9.25 Q21.7 8.75 21.9 8.35 L21.95 8.25 Q22.4 8.2 22.15 8.65 L22.0 9.1 M22.0 10.35 L21.95 10.45 21.95 10.5 22.0 10.6 22.0 10.85 22.05 11.0 22.15 11.0 22.25 10.95 22.9 10.7 22.95 10.7 23.05 10.55 22.95 10.4 23.0 10.15 22.95 9.95 22.2 10.15 22.05 10.25 22.0 10.35 M20.3 9.75 L19.95 11.45 19.75 13.05 19.55 13.9 19.4 14.0 Q19.15 13.5 19.3 12.7 L19.65 11.1 19.95 9.25 Q19.95 8.6 20.25 8.15 20.45 8.85 20.3 9.75 M27.9 8.05 L27.7 8.1 27.5 9.0 27.3 8.4 27.3 8.25 26.4 8.55 26.05 8.55 26.0 8.2 Q26.0 7.45 26.45 6.1 L26.6 6.45 26.35 7.65 26.35 8.1 27.3 7.8 27.25 7.4 Q27.3 6.85 27.6 6.65 L27.75 7.0 27.75 7.65 28.9 7.25 Q29.0 7.65 27.9 8.05 M17.15 10.85 L16.95 11.7 16.95 12.3 17.35 12.1 Q18.0 11.6 18.65 11.8 L18.7 11.8 Q19.05 12.8 17.95 13.15 16.65 13.5 16.6 12.15 L16.7 11.3 Q16.75 10.7 17.1 10.1 L17.55 9.5 Q18.05 9.65 17.55 10.05 17.2 10.4 17.15 10.85 M18.4 12.0 L17.4 12.35 17.3 12.55 17.2 12.6 17.1 12.7 17.1 12.85 17.15 12.95 17.95 13.1 Q18.4 12.95 18.45 12.5 L18.5 12.4 18.5 12.25 18.45 12.1 18.4 12.0" fill="#000000" fill-rule="evenodd" stroke="none"/>
    <path d="M-28.7 36.7 L-28.85 36.75 -28.95 36.8 -28.8 37.1 -28.7 37.05 -28.55 37.0 -28.5 36.85 -28.5 36.75 -28.55 36.7 -28.7 36.7 M-28.25 36.9 L-28.35 37.0 -28.4 37.1 -28.65 37.2 -28.75 37.25 -28.6 37.65 -28.85 37.75 -29.25 36.75 -28.9 36.6 -28.6 36.5 -28.4 36.55 -28.3 36.65 -28.25 36.9 M-27.45 36.4 L-27.4 36.65 -27.3 36.85 -27.25 37.0 -27.15 37.1 -27.4 37.2 -27.45 37.15 -27.5 37.2 -27.6 37.25 -27.9 37.3 -28.0 37.1 -28.0 37.0 -27.9 36.95 -27.8 36.8 -27.6 36.7 -27.65 36.65 -27.8 36.6 -27.85 36.6 -27.85 36.8 -28.1 36.8 -28.05 36.6 -27.85 36.45 -27.65 36.4 -27.45 36.4 M-27.75 37.0 L-27.7 37.1 -27.6 37.15 -27.5 37.0 -27.55 36.95 -27.55 36.85 -27.7 36.9 -27.75 37.0 M-26.8 36.1 L-26.55 36.0 -26.55 37.0 -26.6 37.1 -26.6 37.15 -26.7 37.2 -26.85 37.25 -26.95 37.3 -27.0 37.15 -26.9 37.15 -26.75 37.05 -26.8 36.95 -27.4 36.3 -27.2 36.25 -26.8 36.65 -26.8 36.1 M-25.4 35.55 L-25.25 35.45 -24.9 35.45 -24.7 35.7 -24.7 36.05 -24.95 36.25 -25.15 36.25 -25.3 36.2 -25.45 36.0 -25.45 35.85 -25.4 35.55 M-26.1 35.65 L-25.95 35.5 -25.85 35.75 -25.75 35.7 -25.65 35.9 -25.75 35.95 -25.65 36.2 -25.6 36.3 -25.5 36.25 -25.35 36.4 -25.55 36.5 -25.65 36.5 -25.75 36.5 -25.8 36.45 -25.85 36.25 -25.95 36.0 -26.05 36.05 -26.15 35.85 -26.05 35.8 -26.1 35.65 M-23.4 35.1 L-23.35 35.2 -23.2 35.6 -23.4 35.7 -23.8 34.7 -23.6 34.6 -23.45 34.9 -23.25 34.7 -23.15 34.7 -23.0 34.75 -22.95 34.9 -22.9 34.95 -22.7 35.4 -22.9 35.5 -23.05 35.1 -23.1 34.95 -23.2 34.85 -23.3 34.9 -23.35 35.05 -23.4 35.1 M-24.1 34.8 L-24.0 35.05 -23.9 35.0 -23.8 35.2 -23.9 35.25 -23.8 35.5 -23.75 35.6 -23.65 35.55 -23.55 35.7 -23.7 35.8 -23.8 35.85 -23.9 35.8 -23.95 35.75 -24.0 35.55 -24.1 35.3 -24.25 35.35 -24.35 35.15 -24.2 35.1 -24.25 34.95 -24.1 34.8 M-25.25 35.9 L-25.15 36.05 -25.0 36.05 -24.85 35.95 -24.85 35.75 -24.95 35.65 -25.2 35.6 -25.25 35.75 -25.25 35.9 M-22.9 36.7 L-23.0 36.75 -22.95 36.85 -22.95 36.9 -22.8 36.8 -22.75 36.95 -22.9 37.05 -22.65 37.65 -22.9 37.7 -23.15 37.1 -23.25 37.15 -23.3 37.0 -23.2 36.95 -23.2 36.9 -23.25 36.75 -23.2 36.65 -23.0 36.55 -22.85 36.55 -22.85 36.65 -22.9 36.7 M-22.0 34.75 L-22.5 34.95 -22.35 35.05 -22.25 35.1 -22.2 35.0 -22.2 34.95 -21.95 34.85 -22.05 35.1 -22.2 35.2 -22.6 35.25 -22.75 34.95 -22.7 34.6 -22.55 34.45 -22.2 34.45 -22.0 34.75 M-22.35 34.65 Q-22.4 34.55 -22.5 34.6 L-22.55 34.75 -22.55 34.85 -22.3 34.75 -22.35 34.65 M-23.8 37.15 L-23.5 37.15 -23.25 37.4 -23.3 37.75 -23.5 37.95 -23.7 37.95 -23.95 37.85 -24.05 37.7 -24.1 37.5 -23.95 37.25 -23.8 37.15 M-23.75 37.35 L-23.85 37.45 -23.8 37.6 -23.7 37.75 -23.6 37.75 -23.45 37.65 -23.45 37.45 Q-23.5 37.35 -23.6 37.35 L-23.75 37.35 M-24.95 37.8 L-24.85 37.6 -24.8 37.55 -24.65 37.5 -24.65 37.75 -24.75 37.8 -24.8 37.8 -24.8 37.85 -24.8 38.15 -24.7 38.4 -24.85 38.45 -25.15 37.7 -25.0 37.65 -24.95 37.8 M-25.35 37.85 L-25.15 38.15 -25.65 38.35 -25.55 38.5 -25.4 38.55 -25.4 38.4 -25.35 38.35 -25.1 38.25 -25.25 38.55 -25.35 38.65 -25.75 38.65 -25.9 38.4 -25.9 38.05 -25.7 37.85 -25.35 37.85 M-26.75 38.4 L-26.6 38.2 -26.3 38.2 -26.45 37.9 -26.25 37.85 -25.85 38.85 -26.05 38.9 -26.1 38.8 -26.2 38.95 -26.3 39.0 -26.55 39.0 -26.8 38.75 -26.75 38.4 M-26.55 38.65 L-26.5 38.8 -26.3 38.9 -26.25 38.7 -26.2 38.5 Q-26.25 38.4 -26.4 38.4 L-26.5 38.4 -26.6 38.45 -26.55 38.65 M-25.65 38.05 L-25.75 38.15 -25.7 38.25 -25.45 38.15 -25.55 38.05 -25.65 38.05 M-27.15 38.4 L-27.0 38.4 -27.0 38.6 -27.1 38.65 -27.15 38.7 -27.15 38.75 -27.1 39.05 -27.0 39.3 -27.2 39.35 -27.5 38.6 -27.3 38.55 -27.25 38.7 -27.2 38.5 -27.15 38.4 M-28.05 38.75 L-27.7 38.75 -27.5 39.0 -27.5 39.35 -27.75 39.55 -27.95 39.55 -28.2 39.5 -28.3 39.3 -28.35 39.15 -28.2 38.85 -28.05 38.75 M-28.0 38.95 L-28.1 39.05 -28.05 39.2 -27.95 39.35 -27.85 39.35 -27.7 39.25 -27.65 39.05 -27.85 38.95 -28.0 38.95" fill="#000000" fill-rule="evenodd" stroke="none"/>
  </g>
</svg>
