<?xml version="1.0" encoding="UTF-8" standalone="no"?>
<svg xmlns:xlink="http://www.w3.org/1999/xlink" height="38.9px" width="69.9px" xmlns="http://www.w3.org/2000/svg">
  <g transform="matrix(1.0, 0.0, 0.0, 1.0, 32.0, -4.5)">
    <path d="M29.7 8.05 L31.4 6.8 31.85 7.45 33.7 10.0 34.1 10.55 33.45 11.1 32.5 11.8 32.4 11.8 29.7 8.05" fill="url(#gradient0)" fill-rule="evenodd" stroke="none"/>
    <path d="M31.85 7.45 L36.1 4.5 37.9 7.05 33.7 10.0 31.85 7.45" fill="url(#gradient1)" fill-rule="evenodd" stroke="none"/>
    <path d="M33.45 11.1 L34.65 12.7 34.3 12.9 34.45 13.0 17.85 24.7 18.2 25.2 16.2 26.6 15.45 25.5 33.3 12.85 32.5 11.8 33.45 11.1" fill="url(#gradient2)" fill-rule="evenodd" stroke="none"/>
    <path d="M32.4 11.8 L-6.9 39.6 -9.6 35.8 29.7 8.05 32.4 11.8" fill="url(#gradient3)" fill-rule="evenodd" stroke="none"/>
    <path d="M-6.9 39.6 L-15.25 43.4 -16.0 42.35 -9.6 35.8 -6.9 39.6" fill="url(#gradient4)" fill-rule="evenodd" stroke="none"/>
    <path d="M28.4 10.2 Q29.1 10.95 28.4 11.9 L27.8 12.65 27.75 12.7 15.65 21.65 15.5 21.7 Q14.1 21.85 13.5 21.05 13.0 20.6 13.4 19.75 L13.45 19.7 13.8 19.1 13.85 19.05 26.6 9.9 26.7 9.9 Q27.9 9.55 28.4 10.2 M27.85 11.35 L28.0 10.5 27.85 10.15 26.7 10.05 13.95 19.15 13.65 19.65 Q13.45 20.1 13.7 20.4 L13.8 20.45 Q14.25 20.9 15.2 20.85 L27.3 11.9 27.85 11.35 M-8.05 35.15 L-8.05 35.1 -7.6 34.5 -7.55 34.45 9.15 22.65 9.2 22.7 Q10.35 22.25 10.95 22.95 11.6 23.7 10.95 24.65 L10.3 25.4 10.3 25.45 -5.75 37.0 -5.9 37.1 Q-7.35 37.2 -8.0 36.45 -8.45 35.95 -8.05 35.15 M-7.75 35.0 L-7.8 35.8 -7.7 35.85 Q-7.2 36.3 -6.25 36.25 L9.8 24.65 10.35 24.1 10.55 23.25 10.35 22.95 Q10.0 22.5 9.25 22.8 L-7.45 34.55 -7.75 35.0" fill="#000000" fill-opacity="0.54901963" fill-rule="evenodd" stroke="none"/>
    <path d="M27.85 11.35 L27.3 11.9 15.2 20.85 Q14.25 20.9 13.8 20.45 L13.7 20.4 Q13.45 20.1 13.65 19.65 L13.95 19.15 26.7 10.05 27.85 10.15 28.0 10.5 27.85 11.35" fill="url(#gradient5)" fill-rule="evenodd" stroke="none"/>
    <path d="M-7.75 35.0 L-7.45 34.55 9.25 22.8 Q10.0 22.5 10.35 22.95 L10.55 23.25 10.35 24.1 9.8 24.65 -6.25 36.25 Q-7.2 36.3 -7.7 35.85 L-7.8 35.8 -7.75 35.0" fill="url(#gradient6)" fill-rule="evenodd" stroke="none"/>
    <path d="M-27.45 27.4 L-27.4 27.1 -27.1 26.9 -26.7 26.85 -26.45 27.05 -26.4 27.1 -27.45 27.45 -27.45 27.4 M-26.4 27.2 L-25.9 28.6 -26.9 28.9 -27.4 27.55 -26.4 27.2 M-25.35 28.9 L-27.05 29.5 -27.2 29.2 -25.5 28.6 -25.35 28.9 M-26.45 30.0 L-26.65 29.5 -25.65 29.2 -25.45 29.7 -25.45 29.75 -24.65 31.55 -25.15 31.9 -25.75 31.9 -26.45 30.05 -26.45 30.0 M-24.2 32.65 L-24.05 33.05 Q-23.9 33.55 -24.1 34.0 L-24.2 34.3 -24.5 34.15 -25.15 33.45 -25.3 33.0 -24.8 32.9 -24.7 32.9 -24.7 32.85 -24.2 32.65" fill="#dcdddf" fill-rule="evenodd" stroke="none"/>
    <path d="M-22.25 29.0 L-22.4 29.25 -22.65 29.1 -22.55 29.1 -22.5 29.05 -22.35 28.95 -22.3 28.95 -22.25 29.0 M-22.75 30.25 L-22.8 30.2 -22.55 30.1 -22.35 30.05 -22.75 30.25 M-28.95 31.25 L-29.1 31.55 -29.35 31.4 -29.4 31.35 -29.35 31.35 -29.1 31.3 -29.0 31.3 -28.95 31.25 M-28.1 32.1 L-28.05 32.1 -28.55 32.15 -28.3 32.1 -28.05 32.0 -28.1 32.1" fill="#6b5525" fill-rule="evenodd" stroke="none"/>
    <path d="M-24.1 23.35 L-24.0 23.25 -23.9 23.35 -23.75 23.6 -23.7 23.7 Q-23.3 24.15 -23.55 24.75 L-23.2 24.55 -23.05 24.5 -23.05 24.6 Q-22.9 25.0 -23.05 25.5 L-22.8 25.35 -22.7 25.3 -22.65 25.35 Q-22.55 25.7 -22.75 26.25 L-22.45 26.1 -22.3 26.1 -22.35 26.15 -22.45 26.9 -22.15 26.6 -22.15 26.8 Q-22.1 27.2 -22.35 27.6 L-22.3 27.55 -22.1 27.45 -22.1 27.65 -22.55 28.9 -22.35 28.85 -22.35 28.8 -22.2 28.8 -20.8 29.0 -20.75 29.05 Q-20.6 29.25 -21.45 29.95 L-20.8 30.15 -20.75 30.15 Q-20.5 30.35 -21.35 30.85 L-22.5 31.5 -23.4 32.15 -24.0 32.55 -23.95 32.55 -23.8 32.95 Q-23.65 33.55 -23.8 34.0 L-24.05 34.35 -24.05 34.4 -24.15 34.5 -24.2 34.45 -24.25 34.5 -24.3 34.5 -24.3 34.45 -24.65 34.3 -25.4 33.5 -25.55 33.1 -26.3 33.15 -27.4 33.2 -28.75 33.4 Q-29.7 33.5 -29.7 33.2 L-29.65 33.2 -29.35 32.65 Q-30.4 32.6 -30.45 32.35 L-30.5 32.3 -30.45 32.3 -29.45 31.25 -29.4 31.25 -29.15 31.15 -30.4 30.45 -30.5 30.35 -30.25 30.3 -30.95 29.8 -31.05 29.65 -30.65 29.65 -31.3 29.2 -31.3 29.15 -31.25 29.1 -30.85 29.05 -31.6 28.4 -31.65 28.35 -31.5 28.35 -31.15 28.3 -31.85 27.6 -31.85 27.5 -31.65 27.45 -31.4 27.45 Q-31.9 27.05 -31.9 26.5 L-31.95 26.4 -32.0 26.15 -32.0 26.0 -31.85 26.0 Q-29.0 25.9 -28.35 27.5 L-27.5 29.05 -27.4 29.1 -27.1 29.0 -27.7 27.55 -27.65 27.55 -27.7 27.5 -27.6 27.1 Q-27.45 26.9 -27.15 26.8 L-26.55 26.75 Q-26.3 26.8 -26.2 27.0 L-26.2 27.05 -25.7 28.5 -25.35 28.4 -25.3 28.3 Q-25.15 28.1 -25.75 26.6 -26.4 25.0 -24.1 23.35 M-24.05 23.65 L-24.05 23.55 Q-26.1 25.05 -25.5 26.5 -24.95 27.95 -25.1 28.3 -24.15 28.95 -25.2 29.7 L-24.9 30.4 Q-22.65 29.45 -22.4 27.75 L-22.9 28.05 -22.95 28.05 -22.75 27.85 -22.35 27.0 -22.8 27.35 -22.85 27.35 -23.05 27.55 -23.2 27.55 -23.05 27.3 Q-22.5 26.75 -22.6 26.3 L-23.05 26.7 -23.3 26.95 -23.4 26.95 -23.3 26.7 Q-22.75 25.95 -22.85 25.55 L-23.25 25.9 -23.3 25.9 -23.45 26.15 -23.6 26.15 -23.5 25.95 -23.45 25.9 Q-23.2 25.35 -23.25 24.8 L-23.6 25.1 -23.65 25.15 -23.85 25.3 -24.0 25.3 -23.9 25.1 Q-23.5 24.3 -23.9 23.75 L-24.05 23.65 M-23.15 30.15 L-23.2 30.15 -22.7 29.5 -22.55 29.4 -22.9 29.25 Q-23.55 30.0 -24.85 30.5 L-24.5 31.45 -24.45 31.4 -23.7 30.75 -22.95 30.35 -23.05 30.3 -23.05 30.2 -23.15 30.25 -23.15 30.15 M-25.25 28.45 L-25.05 28.95 -25.45 29.1 -25.25 29.55 Q-24.55 28.95 -25.25 28.45 M-22.25 29.0 L-22.3 28.95 -22.35 28.95 -22.5 29.05 -22.55 29.1 -22.65 29.1 -22.4 29.25 -22.25 29.0 M-21.95 29.0 L-22.3 29.35 -22.5 29.55 -22.95 30.05 -22.65 29.95 -22.3 29.9 Q-22.1 29.85 -22.1 30.0 L-22.7 30.4 -22.75 30.4 -23.5 30.8 -24.25 31.45 -24.45 31.6 -25.1 32.0 -25.15 32.0 -25.85 32.1 -26.1 32.1 -26.15 32.1 -27.1 32.05 -27.95 32.2 -28.0 32.2 -28.75 32.25 -28.7 32.1 -28.35 31.9 -28.05 31.8 -28.8 31.7 -29.1 31.7 -29.5 31.6 -30.2 32.25 -29.1 32.45 -29.0 32.5 -29.45 33.2 -28.7 33.25 -27.35 33.05 -26.2 33.0 -25.45 32.9 -24.85 32.8 -24.75 32.8 -24.2 32.45 -23.6 32.1 -22.65 31.45 -22.6 31.4 -21.45 30.75 -20.95 30.3 -21.8 30.0 -21.65 29.9 Q-21.0 29.4 -21.0 29.1 L-21.95 29.0 M-22.75 30.25 L-22.35 30.05 -22.55 30.1 -22.8 30.2 -22.75 30.25 M-26.4 27.2 L-27.4 27.55 -26.9 28.9 -25.9 28.6 -26.4 27.2 M-27.45 27.4 L-27.45 27.45 -26.4 27.1 -26.45 27.05 -26.7 26.85 -27.1 26.9 -27.4 27.1 -27.45 27.4 M-29.5 30.3 L-30.1 30.4 Q-28.75 31.55 -26.4 30.9 L-26.6 30.2 Q-27.95 30.25 -27.65 29.2 L-28.6 27.55 Q-29.2 26.1 -31.75 26.15 L-31.75 26.25 -31.7 26.4 Q-31.7 27.1 -30.8 27.45 L-30.6 27.55 -30.65 27.65 -30.95 27.65 -30.95 27.6 -31.5 27.6 Q-31.2 28.1 -30.5 28.3 L-30.5 28.35 -30.25 28.4 -30.45 28.55 -30.7 28.45 -31.3 28.45 Q-31.05 28.8 -30.2 29.05 L-29.9 29.15 -30.0 29.25 -30.35 29.2 -31.0 29.2 Q-30.7 29.55 -29.95 29.7 L-29.65 29.75 -29.75 29.85 -30.6 29.8 -29.75 30.25 -29.45 30.25 -29.5 30.3 M-25.35 28.9 L-25.5 28.6 -27.2 29.2 -27.05 29.5 -25.35 28.9 M-26.85 29.6 L-27.25 29.7 -27.45 29.2 Q-27.65 30.0 -26.65 30.05 L-26.85 29.6 M-26.45 30.0 L-26.45 30.05 -25.75 31.9 -25.15 31.9 -24.65 31.55 -25.45 29.75 -25.45 29.7 -25.65 29.2 -26.65 29.5 -26.45 30.0 M-26.0 31.95 L-26.35 31.0 -28.7 31.25 -28.85 31.55 -28.7 31.55 -27.8 31.75 -27.85 31.85 -27.8 31.85 -27.8 32.0 -27.05 31.9 -26.05 31.95 -26.0 31.95 M-28.1 32.1 L-28.05 32.0 -28.3 32.1 -28.55 32.15 -28.05 32.1 -28.1 32.1 M-28.95 31.25 L-29.0 31.3 -29.1 31.3 -29.35 31.35 -29.4 31.35 -29.35 31.4 -29.1 31.55 -28.95 31.25 M-24.2 32.65 L-24.7 32.85 -24.7 32.9 -24.8 32.9 -25.3 33.0 -25.15 33.45 -24.5 34.15 -24.2 34.3 -24.1 34.0 Q-23.9 33.55 -24.05 33.05 L-24.2 32.65" fill="#1f1b1c" fill-rule="evenodd" stroke="none"/>
    <path d="M-24.05 23.65 L-23.9 23.75 Q-23.5 24.3 -23.9 25.1 L-24.0 25.3 -23.85 25.3 -23.65 25.15 -23.6 25.1 -23.25 24.8 Q-23.2 25.35 -23.45 25.9 L-23.5 25.95 -23.6 26.15 -23.45 26.15 -23.3 25.9 -23.25 25.9 -22.85 25.55 Q-22.75 25.95 -23.3 26.7 L-23.4 26.95 -23.3 26.95 -23.05 26.7 -22.6 26.3 Q-22.5 26.75 -23.05 27.3 L-23.2 27.55 -23.05 27.55 -22.85 27.35 -22.8 27.35 -22.35 27.0 -22.75 27.85 -22.95 28.05 -22.9 28.05 -22.4 27.75 Q-22.65 29.45 -24.9 30.4 L-25.2 29.7 Q-24.15 28.95 -25.1 28.3 -24.95 27.95 -25.5 26.5 -26.1 25.05 -24.05 23.55 L-24.05 23.65 M-21.95 29.0 L-21.0 29.1 Q-21.0 29.4 -21.65 29.9 L-21.8 30.0 -20.95 30.3 -21.45 30.75 -22.6 31.4 -22.65 31.45 -23.6 32.1 -24.2 32.45 -24.75 32.8 -24.85 32.8 -25.45 32.9 -26.2 33.0 -27.35 33.05 -28.7 33.25 -29.45 33.2 -29.0 32.5 -29.1 32.45 -30.2 32.25 -29.5 31.6 -29.1 31.7 -28.8 31.7 -28.05 31.8 -28.35 31.9 -28.7 32.1 -28.75 32.25 -28.0 32.2 -27.95 32.2 -27.1 32.05 -26.15 32.1 -26.1 32.1 -25.85 32.1 -25.15 32.0 -25.1 32.0 -24.45 31.6 -24.25 31.45 -23.5 30.8 -22.75 30.4 -22.7 30.4 -22.1 30.0 Q-22.1 29.85 -22.3 29.9 L-22.65 29.95 -22.95 30.05 -22.5 29.55 -22.3 29.35 -21.95 29.0 M-29.5 30.3 L-29.45 30.25 -29.75 30.25 -30.6 29.8 -29.75 29.85 -29.65 29.75 -29.95 29.7 Q-30.7 29.55 -31.0 29.2 L-30.35 29.2 -30.0 29.25 -29.9 29.15 -30.2 29.05 Q-31.05 28.8 -31.3 28.45 L-30.7 28.45 -30.45 28.55 -30.25 28.4 -30.5 28.35 -30.5 28.3 Q-31.2 28.1 -31.5 27.6 L-30.95 27.6 -30.95 27.65 -30.65 27.65 -30.6 27.55 -30.8 27.45 Q-31.7 27.1 -31.7 26.4 L-31.75 26.25 -31.75 26.15 Q-29.2 26.1 -28.6 27.55 L-27.65 29.2 Q-27.95 30.25 -26.6 30.2 L-26.4 30.9 Q-28.75 31.55 -30.1 30.4 L-29.5 30.3" fill="#ffe8a6" fill-rule="evenodd" stroke="none"/>
  </g>
  <defs>
    <linearGradient gradientTransform="matrix(0.0016, 0.0023, -0.0011, 7.0E-4, 31.85, 9.2)" gradientUnits="userSpaceOnUse" id="gradient0" spreadMethod="pad" x1="-819.2" x2="819.2">
      <stop offset="0.0" stop-color="#666666"/>
      <stop offset="0.43137254901960786" stop-color="#cccccc"/>
      <stop offset="1.0" stop-color="#666666"/>
    </linearGradient>
    <linearGradient gradientTransform="matrix(0.0011, 0.0016, -0.0033, 0.0023, 34.35, 7.65)" gradientUnits="userSpaceOnUse" id="gradient1" spreadMethod="pad" x1="-819.2" x2="819.2">
      <stop offset="0.0" stop-color="#666666"/>
      <stop offset="0.43137254901960786" stop-color="#cccccc"/>
      <stop offset="1.0" stop-color="#666666"/>
    </linearGradient>
    <linearGradient gradientTransform="matrix(0.0011, 0.0015, -0.0115, 0.0081, 24.8, 18.7)" gradientUnits="userSpaceOnUse" id="gradient2" spreadMethod="pad" x1="-819.2" x2="819.2">
      <stop offset="0.0" stop-color="#666666"/>
      <stop offset="0.43137254901960786" stop-color="#cccccc"/>
      <stop offset="1.0" stop-color="#666666"/>
    </linearGradient>
    <linearGradient gradientTransform="matrix(0.0018, 0.0026, -0.024, 0.017, 11.05, 23.9)" gradientUnits="userSpaceOnUse" id="gradient3" spreadMethod="pad" x1="-819.2" x2="819.2">
      <stop offset="0.0" stop-color="#000000"/>
      <stop offset="0.43137254901960786" stop-color="#666666"/>
      <stop offset="0.8470588235294118" stop-color="#383636"/>
      <stop offset="1.0" stop-color="#5b5b5b"/>
    </linearGradient>
    <linearGradient gradientTransform="matrix(0.0018, 0.0022, -0.0042, 0.0035, -11.95, 40.25)" gradientUnits="userSpaceOnUse" id="gradient4" spreadMethod="pad" x1="-819.2" x2="819.2">
      <stop offset="0.0" stop-color="#666666"/>
      <stop offset="0.43137254901960786" stop-color="#cccccc"/>
      <stop offset="1.0" stop-color="#666666"/>
    </linearGradient>
    <linearGradient gradientTransform="matrix(0.0018, 0.0026, -0.024, 0.017, 32.3, 8.2)" gradientUnits="userSpaceOnUse" id="gradient5" spreadMethod="pad" x1="-819.2" x2="819.2">
      <stop offset="0.0" stop-color="#202020"/>
      <stop offset="0.43137254901960786" stop-color="#7b7b7b"/>
      <stop offset="0.8470588235294118" stop-color="#383636"/>
      <stop offset="1.0" stop-color="#5b5b5b"/>
    </linearGradient>
    <linearGradient gradientTransform="matrix(0.0018, 0.0026, -0.024, 0.017, 10.85, 23.6)" gradientUnits="userSpaceOnUse" id="gradient6" spreadMethod="pad" x1="-819.2" x2="819.2">
      <stop offset="0.0" stop-color="#202020"/>
      <stop offset="0.43137254901960786" stop-color="#7b7b7b"/>
      <stop offset="0.8470588235294118" stop-color="#383636"/>
      <stop offset="1.0" stop-color="#5b5b5b"/>
    </linearGradient>
  </defs>
</svg>
