<?xml version="1.0" encoding="UTF-8" standalone="no"?>
<svg xmlns:xlink="http://www.w3.org/1999/xlink" height="3.85px" width="18.05px" xmlns="http://www.w3.org/2000/svg">
  <g transform="matrix(1.0, 0.0, 0.0, 1.0, -16.7, -0.95)">
    <path d="M34.55 2.1 L33.85 2.05 22.0 2.2 Q21.1 2.2 19.75 2.75 18.4 3.35 17.55 4.15 L17.0 4.75 16.7 4.3 Q16.6 3.75 17.4 3.0 18.25 2.25 19.55 1.65 20.85 1.05 21.8 1.05 L33.65 0.95 Q34.65 0.9 34.75 1.45 L34.55 2.1" fill="#000000" fill-opacity="0.5411765" fill-rule="evenodd" stroke="none"/>
    <path d="M19.1 4.8 L19.6 4.1 Q20.2 3.55 21.3 3.05 L22.9 2.65 31.95 2.5 Q32.75 2.5 32.85 2.85 32.9 3.3 32.4 3.75 L31.9 4.1 29.55 4.7 19.1 4.8" fill="#ffffff" fill-rule="evenodd" stroke="none"/>
    <path d="M34.55 2.1 L34.0 2.75 Q33.3 3.4 32.4 3.75 32.9 3.3 32.85 2.85 32.75 2.5 31.95 2.5 L22.9 2.65 21.3 3.05 Q20.2 3.55 19.6 4.1 L19.1 4.8 17.65 4.8 17.0 4.75 17.55 4.15 Q18.4 3.35 19.75 2.75 21.1 2.2 22.0 2.2 L33.85 2.05 34.55 2.1" fill="#9a9a9a" fill-rule="evenodd" stroke="none"/>
  </g>
</svg>
