<?xml version="1.0" encoding="UTF-8" standalone="no"?>
<svg xmlns:xlink="http://www.w3.org/1999/xlink" height="15.6px" width="5.6px" xmlns="http://www.w3.org/2000/svg">
  <g transform="matrix(1.0, 0.0, 0.0, 1.0, -48.25, 5.1)">
    <path d="M49.45 -3.15 Q50.4 -5.4 52.35 -5.05 53.7 -5.05 53.85 -2.45 53.95 -0.55 53.4 3.05 52.95 6.75 52.25 8.45 51.4 10.95 50.05 10.4 48.45 10.1 48.85 6.5 49.05 5.0 49.5 3.6 49.55 3.25 49.85 3.15 L50.4 3.1 50.8 3.45 50.85 4.0 50.35 6.65 Q50.1 8.75 50.5 9.0 L50.9 8.0 51.95 2.9 Q52.5 -0.55 52.4 -2.3 L52.15 -3.6 Q51.3 -3.7 50.75 -2.5 50.35 -1.65 49.7 1.5 L48.65 1.25 48.6 1.25 48.25 1.1 Q49.0 -2.2 49.45 -3.15" fill="#979797" fill-rule="evenodd" stroke="none"/>
  </g>
</svg>
