<?xml version="1.0" encoding="UTF-8" standalone="no"?>
<svg xmlns:xlink="http://www.w3.org/1999/xlink" height="47.15px" width="47.35px" xmlns="http://www.w3.org/2000/svg">
  <g transform="matrix(1.0, 0.0, 0.0, 1.0, -7.4, -8.7)">
    <path d="M52.6 21.0 Q51.8 21.0 51.2 21.6 50.6 22.2 50.6 23.0 50.6 23.8 51.2 24.4 51.8 25.0 52.6 25.0 53.4 25.0 54.0 24.4 54.55 23.8 54.55 23.0 54.55 22.2 54.0 21.6 53.4 21.0 52.6 21.0 M52.6 20.85 Q53.5 20.85 54.1 21.5 54.75 22.1 54.75 23.0 54.75 23.9 54.1 24.55 53.5 25.15 52.6 25.15 51.7 25.15 51.05 24.55 50.4 23.9 50.4 23.0 50.4 22.1 51.05 21.5 51.7 20.85 52.6 20.85" fill="url(#gradient0)" fill-rule="evenodd" stroke="none"/>
    <path d="M52.6 21.0 Q53.4 21.0 54.0 21.6 54.55 22.2 54.55 23.0 54.55 23.8 54.0 24.4 53.4 25.0 52.6 25.0 51.8 25.0 51.2 24.4 50.6 23.8 50.6 23.0 50.6 22.2 51.2 21.6 51.8 21.0 52.6 21.0 M52.6 21.35 Q51.9 21.35 51.45 21.85 50.95 22.35 50.95 23.0 50.95 23.7 51.45 24.15 51.9 24.65 52.6 24.65 53.25 24.65 53.75 24.15 54.25 23.7 54.25 23.0 54.25 22.35 53.75 21.85 53.25 21.35 52.6 21.35" fill="url(#gradient1)" fill-rule="evenodd" stroke="none"/>
    <path d="M52.5 39.45 Q53.4 39.45 54.0 40.1 54.65 40.7 54.65 41.6 54.65 42.5 54.0 43.15 53.4 43.75 52.5 43.75 51.6 43.75 50.95 43.15 50.3 42.5 50.3 41.6 50.3 40.7 50.95 40.1 51.6 39.45 52.5 39.45 M52.5 39.6 Q51.7 39.6 51.1 40.2 50.5 40.8 50.5 41.6 50.5 42.4 51.1 43.0 51.7 43.6 52.5 43.6 53.3 43.6 53.9 43.0 54.45 42.4 54.45 41.6 54.45 40.8 53.9 40.2 53.3 39.6 52.5 39.6" fill="url(#gradient2)" fill-rule="evenodd" stroke="none"/>
    <path d="M52.5 39.6 Q53.3 39.6 53.9 40.2 54.45 40.8 54.45 41.6 54.45 42.4 53.9 43.0 53.3 43.6 52.5 43.6 51.7 43.6 51.1 43.0 50.5 42.4 50.5 41.6 50.5 40.8 51.1 40.2 51.7 39.6 52.5 39.6 M52.5 39.95 Q51.8 39.95 51.35 40.45 50.85 40.95 50.85 41.6 50.85 42.3 51.35 42.75 51.8 43.25 52.5 43.25 L53.65 42.75 Q54.15 42.3 54.15 41.6 54.15 40.95 53.65 40.45 53.15 39.95 52.5 39.95" fill="url(#gradient3)" fill-rule="evenodd" stroke="none"/>
    <path d="M39.85 9.5 Q40.35 10.1 40.35 10.85 40.35 11.65 39.8 12.25 39.2 12.85 38.4 12.85 37.6 12.85 37.0 12.25 36.4 11.65 36.4 10.85 36.4 10.1 36.95 9.5 L37.0 9.45 Q37.6 8.85 38.4 8.85 39.2 8.85 39.8 9.45 L39.85 9.5 M39.55 9.7 L39.35 9.5 38.4 9.2 Q37.85 9.2 37.5 9.5 L37.25 9.7 Q36.75 10.2 36.75 10.85 36.75 11.55 37.25 12.0 37.7 12.5 38.4 12.5 39.05 12.5 39.55 12.0 40.05 11.55 40.05 10.85 40.05 10.2 39.55 9.7" fill="url(#gradient4)" fill-rule="evenodd" stroke="none"/>
    <path d="M40.05 9.5 Q40.55 10.05 40.55 10.85 40.55 11.75 39.9 12.4 39.3 13.0 38.4 13.0 37.5 13.0 36.85 12.4 36.2 11.75 36.2 10.85 36.2 10.05 36.7 9.5 L36.85 9.35 Q37.5 8.7 38.4 8.7 39.3 8.7 39.9 9.35 L40.05 9.5 M39.85 9.5 L39.8 9.45 Q39.2 8.85 38.4 8.85 37.6 8.85 37.0 9.45 L36.95 9.5 Q36.4 10.1 36.4 10.85 36.4 11.65 37.0 12.25 37.6 12.85 38.4 12.85 39.2 12.85 39.8 12.25 40.35 11.65 40.35 10.85 40.35 10.1 39.85 9.5" fill="url(#gradient5)" fill-rule="evenodd" stroke="none"/>
    <path d="M19.0 12.15 Q19.9 12.15 20.5 12.8 21.15 13.4 21.15 14.3 21.15 15.2 20.5 15.85 19.9 16.45 19.0 16.45 18.1 16.45 17.45 15.85 16.8 15.2 16.8 14.3 16.8 13.4 17.45 12.8 18.1 12.15 19.0 12.15 M19.0 12.3 Q18.2 12.3 17.6 12.9 17.0 13.5 17.0 14.3 17.0 15.1 17.6 15.7 18.2 16.3 19.0 16.3 19.8 16.3 20.4 15.7 20.95 15.1 20.95 14.3 20.95 13.5 20.4 12.9 19.8 12.3 19.0 12.3" fill="url(#gradient6)" fill-rule="evenodd" stroke="none"/>
    <path d="M19.0 12.3 Q19.8 12.3 20.4 12.9 20.95 13.5 20.95 14.3 20.95 15.1 20.4 15.7 19.8 16.3 19.0 16.3 18.2 16.3 17.6 15.7 17.0 15.1 17.0 14.3 17.0 13.5 17.6 12.9 18.2 12.3 19.0 12.3 M19.0 12.65 Q18.3 12.65 17.85 13.15 17.35 13.65 17.35 14.3 17.35 15.0 17.85 15.45 18.3 15.95 19.0 15.95 19.65 15.95 20.15 15.45 20.65 15.0 20.65 14.3 20.65 13.65 20.15 13.15 19.65 12.65 19.0 12.65" fill="url(#gradient7)" fill-rule="evenodd" stroke="none"/>
    <path d="M9.6 30.15 Q10.5 30.15 11.1 30.8 11.75 31.4 11.75 32.3 11.75 33.2 11.1 33.85 10.5 34.45 9.6 34.45 8.7 34.45 8.05 33.85 7.4 33.2 7.4 32.3 7.4 31.4 8.05 30.8 8.7 30.15 9.6 30.15 M9.6 30.3 Q8.8 30.3 8.2 30.9 7.6 31.5 7.6 32.3 7.6 33.1 8.2 33.7 8.8 34.3 9.6 34.3 10.4 34.3 11.0 33.7 11.55 33.1 11.55 32.3 11.55 31.5 11.0 30.9 10.4 30.3 9.6 30.3" fill="url(#gradient8)" fill-rule="evenodd" stroke="none"/>
    <path d="M9.6 30.65 Q8.9 30.65 8.45 31.15 7.95 31.65 7.95 32.3 7.95 33.0 8.45 33.45 8.9 33.95 9.6 33.95 10.25 33.95 10.75 33.45 11.25 33.0 11.25 32.3 11.25 31.65 10.75 31.15 10.25 30.65 9.6 30.65 M9.6 30.3 Q10.4 30.3 11.0 30.9 11.55 31.5 11.55 32.3 11.55 33.1 11.0 33.7 10.4 34.3 9.6 34.3 8.8 34.3 8.2 33.7 7.6 33.1 7.6 32.3 7.6 31.5 8.2 30.9 8.8 30.3 9.6 30.3" fill="url(#gradient9)" fill-rule="evenodd" stroke="none"/>
    <path d="M20.05 47.2 Q19.55 46.7 18.9 46.7 18.2 46.7 17.75 47.2 17.25 47.7 17.25 48.35 17.25 49.05 17.75 49.5 18.2 50.0 18.9 50.0 19.55 50.0 20.05 49.5 20.55 49.05 20.55 48.35 20.55 47.7 20.05 47.2 M20.3 46.95 Q20.85 47.55 20.85 48.35 20.85 49.15 20.3 49.75 19.7 50.35 18.9 50.35 18.1 50.35 17.5 49.75 16.9 49.15 16.9 48.35 16.9 47.55 17.5 46.95 18.1 46.35 18.9 46.35 19.7 46.35 20.3 46.95" fill="url(#gradient10)" fill-rule="evenodd" stroke="none"/>
    <path d="M20.3 46.95 Q19.7 46.35 18.9 46.35 18.1 46.35 17.5 46.95 16.9 47.55 16.9 48.35 16.9 49.15 17.5 49.75 18.1 50.35 18.9 50.35 19.7 50.35 20.3 49.75 20.85 49.15 20.85 48.35 20.85 47.55 20.3 46.95 M20.4 46.85 Q21.05 47.45 21.05 48.35 21.05 49.25 20.4 49.9 19.8 50.5 18.9 50.5 18.0 50.5 17.35 49.9 16.7 49.25 16.7 48.35 16.7 47.45 17.35 46.85 18.0 46.2 18.9 46.2 19.8 46.2 20.4 46.85" fill="url(#gradient11)" fill-rule="evenodd" stroke="none"/>
    <path d="M38.1 51.7 Q38.9 51.7 39.5 52.3 40.05 52.9 40.05 53.7 40.05 54.5 39.5 55.1 38.9 55.7 38.1 55.7 37.3 55.7 36.7 55.1 36.1 54.5 36.1 53.7 36.1 52.9 36.7 52.3 37.3 51.7 38.1 51.7 M38.1 52.05 Q37.4 52.05 36.95 52.55 36.45 53.05 36.45 53.7 36.45 54.4 36.95 54.85 37.4 55.35 38.1 55.35 38.75 55.35 39.25 54.85 39.75 54.4 39.75 53.7 39.75 53.05 39.25 52.55 38.75 52.05 38.1 52.05" fill="url(#gradient12)" fill-rule="evenodd" stroke="none"/>
    <path d="M38.1 51.7 Q37.3 51.7 36.7 52.3 36.1 52.9 36.1 53.7 36.1 54.5 36.7 55.1 37.3 55.7 38.1 55.7 38.9 55.7 39.5 55.1 40.05 54.5 40.05 53.7 40.05 52.9 39.5 52.3 38.9 51.7 38.1 51.7 M38.1 51.55 Q39.0 51.55 39.6 52.2 40.25 52.8 40.25 53.7 40.25 54.6 39.6 55.25 39.0 55.85 38.1 55.85 37.2 55.85 36.55 55.25 35.9 54.6 35.9 53.7 35.9 52.8 36.55 52.2 37.2 51.55 38.1 51.55" fill="url(#gradient13)" fill-rule="evenodd" stroke="none"/>
  </g>
  <defs>
    <linearGradient gradientTransform="matrix(0.0017, 0.0023, -0.0021, 0.0016, 52.4, 22.75)" gradientUnits="userSpaceOnUse" id="gradient0" spreadMethod="pad" x1="-819.2" x2="819.2">
      <stop offset="0.0" stop-color="#8c8c8c"/>
      <stop offset="1.0" stop-color="#5f5f5f"/>
    </linearGradient>
    <linearGradient gradientTransform="matrix(0.0025, 0.0038, -0.002, 0.0013, 52.8, 23.35)" gradientUnits="userSpaceOnUse" id="gradient1" spreadMethod="pad" x1="-819.2" x2="819.2">
      <stop offset="0.0" stop-color="#8c8c8c"/>
      <stop offset="1.0" stop-color="#5f5f5f"/>
    </linearGradient>
    <linearGradient gradientTransform="matrix(0.0017, 0.0023, -0.0021, 0.0016, 52.3, 41.35)" gradientUnits="userSpaceOnUse" id="gradient2" spreadMethod="pad" x1="-819.2" x2="819.2">
      <stop offset="0.0" stop-color="#8c8c8c"/>
      <stop offset="1.0" stop-color="#5f5f5f"/>
    </linearGradient>
    <linearGradient gradientTransform="matrix(0.0025, 0.0038, -0.002, 0.0013, 52.7, 41.95)" gradientUnits="userSpaceOnUse" id="gradient3" spreadMethod="pad" x1="-819.2" x2="819.2">
      <stop offset="0.0" stop-color="#8c8c8c"/>
      <stop offset="1.0" stop-color="#5f5f5f"/>
    </linearGradient>
    <linearGradient gradientTransform="matrix(0.0025, 0.0038, -0.002, 0.0013, 38.6, 11.2)" gradientUnits="userSpaceOnUse" id="gradient4" spreadMethod="pad" x1="-819.2" x2="819.2">
      <stop offset="0.0" stop-color="#8c8c8c"/>
      <stop offset="1.0" stop-color="#5f5f5f"/>
    </linearGradient>
    <linearGradient gradientTransform="matrix(0.0017, 0.0023, -0.0021, 0.0016, 38.2, 10.6)" gradientUnits="userSpaceOnUse" id="gradient5" spreadMethod="pad" x1="-819.2" x2="819.2">
      <stop offset="0.0" stop-color="#8c8c8c"/>
      <stop offset="1.0" stop-color="#5f5f5f"/>
    </linearGradient>
    <linearGradient gradientTransform="matrix(0.0017, 0.0023, -0.0021, 0.0016, 18.8, 14.05)" gradientUnits="userSpaceOnUse" id="gradient6" spreadMethod="pad" x1="-819.2" x2="819.2">
      <stop offset="0.0" stop-color="#8c8c8c"/>
      <stop offset="1.0" stop-color="#5f5f5f"/>
    </linearGradient>
    <linearGradient gradientTransform="matrix(0.0025, 0.0038, -0.002, 0.0013, 19.2, 14.65)" gradientUnits="userSpaceOnUse" id="gradient7" spreadMethod="pad" x1="-819.2" x2="819.2">
      <stop offset="0.0" stop-color="#8c8c8c"/>
      <stop offset="1.0" stop-color="#5f5f5f"/>
    </linearGradient>
    <linearGradient gradientTransform="matrix(0.0017, 0.0023, -0.0021, 0.0016, 9.4, 32.05)" gradientUnits="userSpaceOnUse" id="gradient8" spreadMethod="pad" x1="-819.2" x2="819.2">
      <stop offset="0.0" stop-color="#8c8c8c"/>
      <stop offset="1.0" stop-color="#5f5f5f"/>
    </linearGradient>
    <linearGradient gradientTransform="matrix(0.0025, 0.0038, -0.002, 0.0013, 9.8, 32.65)" gradientUnits="userSpaceOnUse" id="gradient9" spreadMethod="pad" x1="-819.2" x2="819.2">
      <stop offset="0.0" stop-color="#8c8c8c"/>
      <stop offset="1.0" stop-color="#5f5f5f"/>
    </linearGradient>
    <linearGradient gradientTransform="matrix(0.0025, 0.0038, -0.002, 0.0013, 19.1, 48.7)" gradientUnits="userSpaceOnUse" id="gradient10" spreadMethod="pad" x1="-819.2" x2="819.2">
      <stop offset="0.0" stop-color="#8c8c8c"/>
      <stop offset="1.0" stop-color="#5f5f5f"/>
    </linearGradient>
    <linearGradient gradientTransform="matrix(0.0017, 0.0023, -0.0021, 0.0016, 18.7, 48.1)" gradientUnits="userSpaceOnUse" id="gradient11" spreadMethod="pad" x1="-819.2" x2="819.2">
      <stop offset="0.0" stop-color="#8c8c8c"/>
      <stop offset="1.0" stop-color="#5f5f5f"/>
    </linearGradient>
    <linearGradient gradientTransform="matrix(0.0025, 0.0038, -0.002, 0.0013, 38.3, 54.05)" gradientUnits="userSpaceOnUse" id="gradient12" spreadMethod="pad" x1="-819.2" x2="819.2">
      <stop offset="0.0" stop-color="#8c8c8c"/>
      <stop offset="1.0" stop-color="#5f5f5f"/>
    </linearGradient>
    <linearGradient gradientTransform="matrix(0.0017, 0.0023, -0.0021, 0.0016, 37.9, 53.45)" gradientUnits="userSpaceOnUse" id="gradient13" spreadMethod="pad" x1="-819.2" x2="819.2">
      <stop offset="0.0" stop-color="#8c8c8c"/>
      <stop offset="1.0" stop-color="#5f5f5f"/>
    </linearGradient>
  </defs>
</svg>
