<?xml version="1.0" encoding="UTF-8" standalone="no"?>
<svg xmlns:xlink="http://www.w3.org/1999/xlink" height="54.2px" width="54.1px" xmlns="http://www.w3.org/2000/svg">
  <g transform="matrix(1.0, 0.0, 0.0, 1.0, 27.05, 26.5)">
    <path d="M0.0 -26.5 Q11.1 -26.5 19.15 -18.5 27.05 -10.65 27.05 0.65 27.05 11.75 19.15 19.65 11.1 27.7 0.0 27.7 -11.1 27.7 -19.15 19.65 -27.05 11.75 -27.05 0.65 -27.05 -10.65 -19.15 -18.5 -11.1 -26.5 0.0 -26.5" fill="url(#gradient0)" fill-rule="evenodd" stroke="none"/>
    <path d="M0.0 -24.5 Q10.3 -24.5 17.75 -17.1 25.05 -9.8 25.05 0.65 25.05 10.95 17.75 18.25 10.3 25.7 0.0 25.7 -10.3 25.7 -17.75 18.25 -25.05 10.95 -25.05 0.65 -25.05 -9.8 -17.75 -17.1 -10.3 -24.5 0.0 -24.5" fill="url(#gradient1)" fill-rule="evenodd" stroke="none"/>
  </g>
  <defs>
    <linearGradient gradientTransform="matrix(-0.0128, -0.0304, 0.0304, -0.0128, 0.0, 1.35)" gradientUnits="userSpaceOnUse" id="gradient0" spreadMethod="pad" x1="-819.2" x2="819.2">
      <stop offset="0.0" stop-color="#666666"/>
      <stop offset="1.0" stop-color="#e0e0e0"/>
    </linearGradient>
    <linearGradient gradientTransform="matrix(-0.0119, -0.0282, 0.0282, -0.0119, 1.4, 3.0)" gradientUnits="userSpaceOnUse" id="gradient1" spreadMethod="pad" x1="-819.2" x2="819.2">
      <stop offset="0.0" stop-color="#564d0c"/>
      <stop offset="1.0" stop-color="#dbbc40"/>
    </linearGradient>
  </defs>
</svg>
