<?xml version="1.0" encoding="UTF-8" standalone="no"?>
<svg xmlns:xlink="http://www.w3.org/1999/xlink" height="36.7px" width="36.7px" xmlns="http://www.w3.org/2000/svg">
  <g transform="matrix(1.0, 0.0, 0.0, 1.0, 18.6, 18.45)">
    <path d="M0.0 -10.25 Q4.45 -10.25 7.65 -7.05 10.8 -3.9 10.8 0.6 10.8 5.05 7.65 8.2 4.45 11.4 0.0 11.4 -4.45 11.4 -7.65 8.2 -10.8 5.05 -10.8 0.6 -10.8 -3.9 -7.65 -7.05 -4.45 -10.25 0.0 -10.25" fill="url(#gradient0)" fill-rule="evenodd" stroke="none"/>
    <path d="M18.1 -2.65 Q18.15 -2.1 17.85 -1.6 17.5 -1.15 16.95 -1.05 L-17.05 3.7 -18.0 3.45 Q-18.55 3.05 -18.6 2.5 L-18.6 2.45 Q-18.7 1.9 -18.3 1.45 L-17.45 0.85 16.55 -3.9 Q17.1 -4.0 17.55 -3.6 18.0 -3.25 18.1 -2.7 L18.1 -2.65" fill="url(#gradient1)" fill-rule="evenodd" stroke="none"/>
    <path d="M-2.85 -18.45 L-1.8 -18.15 Q-1.3 -17.85 -1.25 -17.3 L3.5 16.7 3.25 17.7 2.3 18.25 Q1.7 18.3 1.25 17.95 0.8 17.65 0.7 17.1 L-4.05 -16.9 -3.8 -17.9 Q-3.45 -18.4 -2.85 -18.45" fill="url(#gradient2)" fill-rule="evenodd" stroke="none"/>
    <path d="M10.9 -14.85 Q11.3 -14.6 11.4 -13.95 11.5 -13.4 11.2 -12.9 L-9.5 14.45 Q-9.85 14.9 -10.35 15.0 -10.95 15.05 -11.4 14.7 L-11.45 14.7 -12.0 13.8 -11.7 12.75 8.9 -14.55 Q9.25 -15.05 9.85 -15.15 L10.9 -14.9 10.9 -14.85" fill="url(#gradient3)" fill-rule="evenodd" stroke="none"/>
    <path d="M-15.1 -11.2 L-14.2 -11.75 -13.2 -11.45 14.25 9.15 Q14.65 9.55 14.75 10.1 L14.55 11.1 14.55 11.15 Q14.2 11.6 13.6 11.65 L12.5 11.4 -14.8 -9.25 Q-15.25 -9.55 -15.4 -10.15 -15.4 -10.75 -15.05 -11.15 L-15.1 -11.2" fill="url(#gradient4)" fill-rule="evenodd" stroke="none"/>
    <path d="M-0.05 -6.65 Q2.95 -6.65 5.1 -4.55 7.2 -2.4 7.2 0.6 7.2 3.55 5.1 5.65 2.95 7.8 -0.05 7.8 -3.0 7.8 -5.1 5.65 -7.25 3.55 -7.25 0.6 -7.25 -2.4 -5.1 -4.55 -3.0 -6.65 -0.05 -6.65" fill="url(#gradient5)" fill-rule="evenodd" stroke="none"/>
    <path d="M-0.05 -4.35 Q2.05 -4.35 3.5 -2.9 4.9 -1.5 4.9 0.6 4.9 2.65 3.5 4.1 2.05 5.55 -0.05 5.55 -2.05 5.55 -3.5 4.1 -5.0 2.65 -5.0 0.6 -5.0 -1.5 -3.5 -2.9 -2.05 -4.35 -0.05 -4.35" fill="url(#gradient6)" fill-rule="evenodd" stroke="none"/>
    <path d="M-0.05 -3.65 Q1.7 -3.65 2.95 -2.4 4.2 -1.15 4.2 0.6 4.2 2.35 2.95 3.6 1.7 4.8 -0.05 4.8 -1.75 4.8 -3.05 3.6 -4.25 2.35 -4.25 0.6 -4.25 -1.15 -3.05 -2.4 -1.75 -3.65 -0.05 -3.65" fill="url(#gradient7)" fill-rule="evenodd" stroke="none"/>
  </g>
  <defs>
    <linearGradient gradientTransform="matrix(-0.0051, -0.0121, 0.0121, -0.0051, 0.0, 0.6)" gradientUnits="userSpaceOnUse" id="gradient0" spreadMethod="pad" x1="-819.2" x2="819.2">
      <stop offset="0.0" stop-color="#666666"/>
      <stop offset="1.0" stop-color="#cccccc"/>
      <stop offset="1.0" stop-color="#3a85ae"/>
      <stop offset="1.0" stop-color="#3a85ae"/>
    </linearGradient>
    <linearGradient gradientTransform="matrix(-2.0E-4, -0.0016, 0.0017, -2.0E-4, -0.3, -0.05)" gradientUnits="userSpaceOnUse" id="gradient1" spreadMethod="pad" x1="-819.2" x2="819.2">
      <stop offset="0.0" stop-color="#666666"/>
      <stop offset="0.5529411764705883" stop-color="#cccccc"/>
      <stop offset="1.0" stop-color="#666666"/>
    </linearGradient>
    <linearGradient gradientTransform="matrix(-0.0022, 3.0E-4, -2.0E-4, -0.0017, -0.15, -0.3)" gradientUnits="userSpaceOnUse" id="gradient2" spreadMethod="pad" x1="-819.2" x2="819.2">
      <stop offset="0.0" stop-color="#666666"/>
      <stop offset="0.5529411764705883" stop-color="#cccccc"/>
      <stop offset="1.0" stop-color="#666666"/>
    </linearGradient>
    <linearGradient gradientTransform="matrix(0.0013, 0.001, -0.001, 0.0014, -0.25, -0.05)" gradientUnits="userSpaceOnUse" id="gradient3" spreadMethod="pad" x1="-819.2" x2="819.2">
      <stop offset="0.0" stop-color="#666666"/>
      <stop offset="0.5529411764705883" stop-color="#cccccc"/>
      <stop offset="1.0" stop-color="#666666"/>
    </linearGradient>
    <linearGradient gradientTransform="matrix(-0.001, 0.0013, -0.0014, -0.001, -1.25, -0.1)" gradientUnits="userSpaceOnUse" id="gradient4" spreadMethod="pad" x1="-819.2" x2="819.2">
      <stop offset="0.0" stop-color="#666666"/>
      <stop offset="0.5529411764705883" stop-color="#cccccc"/>
      <stop offset="1.0" stop-color="#666666"/>
    </linearGradient>
    <linearGradient gradientTransform="matrix(-0.0049, -0.0113, 0.0081, -0.0035, -0.15, -1.35)" gradientUnits="userSpaceOnUse" id="gradient5" spreadMethod="pad" x1="-819.2" x2="819.2">
      <stop offset="0.0" stop-color="#666666"/>
      <stop offset="1.0" stop-color="#cccccc"/>
      <stop offset="1.0" stop-color="#3a85ae"/>
      <stop offset="1.0" stop-color="#3a85ae"/>
    </linearGradient>
    <linearGradient gradientTransform="matrix(0.0032, 0.0078, -0.0056, 0.0023, 0.4, 1.5)" gradientUnits="userSpaceOnUse" id="gradient6" spreadMethod="pad" x1="-819.2" x2="819.2">
      <stop offset="0.0" stop-color="#666666"/>
      <stop offset="1.0" stop-color="#cccccc"/>
      <stop offset="1.0" stop-color="#3a85ae"/>
      <stop offset="1.0" stop-color="#3a85ae"/>
    </linearGradient>
    <linearGradient gradientTransform="matrix(-0.0029, -0.0066, 0.0047, -0.002, 0.25, 1.35)" gradientUnits="userSpaceOnUse" id="gradient7" spreadMethod="pad" x1="-819.2" x2="819.2">
      <stop offset="0.0" stop-color="#666666"/>
      <stop offset="1.0" stop-color="#cccccc"/>
      <stop offset="1.0" stop-color="#3a85ae"/>
      <stop offset="1.0" stop-color="#3a85ae"/>
    </linearGradient>
  </defs>
</svg>
