<?xml version="1.0" encoding="UTF-8" standalone="no"?>
<svg xmlns:xlink="http://www.w3.org/1999/xlink" height="64.5px" width="64.5px" xmlns="http://www.w3.org/2000/svg">
  <g transform="matrix(1.0, 0.0, 0.0, 1.0, -0.5, -0.05)">
    <path d="M57.85 32.3 Q57.85 21.95 50.5 14.55 43.15 7.2 32.75 7.2 22.4 7.2 15.0 14.55 7.65 21.95 7.65 32.3 7.65 42.7 15.0 50.05 22.4 57.4 32.75 57.4 43.15 57.4 50.5 50.05 57.85 42.7 57.85 32.3 M65.0 32.3 Q65.0 45.65 55.55 55.1 46.1 64.55 32.75 64.55 19.4 64.55 9.95 55.1 0.5 45.65 0.5 32.3 0.5 18.95 9.95 9.5 19.4 0.05 32.75 0.05 46.1 0.05 55.55 9.5 65.0 18.95 65.0 32.3" fill="url(#gradient0)" fill-rule="evenodd" stroke="none"/>
    <path d="M57.85 32.3 Q57.85 42.7 50.5 50.05 43.15 57.4 32.75 57.4 22.4 57.4 15.0 50.05 7.65 42.7 7.65 32.3 7.65 21.95 15.0 14.55 22.4 7.2 32.75 7.2 43.15 7.2 50.5 14.55 57.85 21.95 57.85 32.3" fill="url(#gradient1)" fill-rule="evenodd" stroke="none"/>
    <path d="M43.25 21.9 Q47.6 26.25 47.6 32.4 47.6 38.55 43.25 42.9 38.9 47.25 32.75 47.25 26.55 47.25 22.25 42.9 17.9 38.55 17.9 32.4 17.9 26.25 22.25 21.9 26.55 17.55 32.75 17.55 38.9 17.55 43.25 21.9" fill="url(#gradient2)" fill-rule="evenodd" stroke="none"/>
    <path d="M57.45 38.7 Q54.6 38.7 52.6 36.65 50.6 34.65 50.6 31.85 50.6 29.0 52.6 27.0 54.6 25.0 57.45 25.0 60.3 25.0 62.3 27.0 64.3 29.0 64.3 31.85 64.3 34.65 62.3 36.65 60.3 38.7 57.45 38.7" fill="url(#gradient3)" fill-rule="evenodd" stroke="none"/>
    <path d="M41.95 41.5 Q38.15 45.3 32.75 45.3 27.4 45.3 23.55 41.5 19.75 37.7 19.75 32.3 19.75 26.95 23.55 23.15 27.4 19.3 32.75 19.3 38.15 19.3 41.95 23.15 45.75 26.95 45.75 32.3 45.75 37.7 41.95 41.5 M40.55 40.15 Q43.8 36.9 43.8 32.35 43.8 27.8 40.55 24.55 37.35 21.3 32.75 21.3 28.2 21.3 24.95 24.55 21.75 27.8 21.75 32.35 21.75 36.9 24.95 40.15 28.2 43.4 32.75 43.4 37.35 43.4 40.55 40.15" fill="url(#gradient4)" fill-rule="evenodd" stroke="none"/>
    <path d="M58.2 24.65 L58.2 39.25 56.8 39.25 56.8 24.65 58.2 24.65" fill="#8a8a8a" fill-rule="evenodd" stroke="none"/>
    <path d="M57.45 32.0 L56.8 32.65 50.2 32.65 50.2 31.3 56.7 31.3 57.45 32.0 58.2 31.3 64.8 31.3 64.8 32.65 58.1 32.65 57.45 32.0" fill="#8a8a8a" fill-rule="evenodd" stroke="none"/>
    <path d="M41.15 40.75 Q37.7 44.25 32.75 44.25 27.85 44.25 24.35 40.75 20.9 37.25 20.9 32.35 20.9 27.45 24.35 23.95 27.85 20.45 32.75 20.45 37.7 20.45 41.15 23.95 44.65 27.45 44.65 32.35 44.65 37.25 41.15 40.75 M39.7 39.3 Q42.6 36.4 42.6 32.35 42.6 28.3 39.7 25.4 36.85 22.5 32.75 22.5 28.7 22.5 25.8 25.4 22.95 28.3 22.95 32.35 22.95 36.4 25.8 39.3 28.7 42.2 32.75 42.2 36.85 42.2 39.7 39.3" fill="url(#gradient5)" fill-rule="evenodd" stroke="none"/>
    <path d="M37.4 37.05 Q39.35 35.1 39.35 32.4 39.35 29.7 37.4 27.75 35.5 25.8 32.75 25.8 30.05 25.8 28.1 27.75 26.2 29.7 26.2 32.4 26.2 35.1 28.1 37.05 30.05 39.0 32.75 39.0 35.5 39.0 37.4 37.05 M40.75 32.4 Q40.75 35.65 38.4 38.0 36.1 40.35 32.75 40.35 29.5 40.35 27.15 38.0 24.8 35.65 24.8 32.4 24.8 29.1 27.15 26.75 29.5 24.4 32.75 24.4 36.1 24.4 38.4 26.75 40.75 29.1 40.75 32.4" fill="url(#gradient6)" fill-rule="evenodd" stroke="none"/>
    <path d="M37.4 37.05 Q35.5 39.0 32.75 39.0 30.05 39.0 28.1 37.05 26.2 35.1 26.2 32.4 26.2 29.7 28.1 27.75 30.05 25.8 32.75 25.8 35.5 25.8 37.4 27.75 39.35 29.7 39.35 32.4 39.35 35.1 37.4 37.05 M39.8 25.4 Q42.7 28.3 42.7 32.4 42.7 36.55 39.8 39.45 36.9 42.35 32.75 42.35 28.6 42.35 25.7 39.45 22.8 36.55 22.8 32.4 22.8 28.3 25.7 25.4 28.6 22.45 32.75 22.45 36.9 22.45 39.8 25.4 M32.75 41.05 Q36.4 41.05 38.9 38.5 41.45 35.95 41.45 32.35 41.45 28.75 38.9 26.25 36.4 23.65 32.75 23.65 29.2 23.65 26.6 26.25 24.05 28.75 24.05 32.35 24.05 35.95 26.6 38.5 29.2 41.05 32.75 41.05" fill="url(#gradient7)" fill-rule="evenodd" stroke="none"/>
    <path d="M40.75 32.4 Q40.75 29.1 38.4 26.75 36.1 24.4 32.75 24.4 29.5 24.4 27.15 26.75 24.8 29.1 24.8 32.4 24.8 35.65 27.15 38.0 29.5 40.35 32.75 40.35 36.1 40.35 38.4 38.0 40.75 35.65 40.75 32.4 M32.75 41.05 Q29.2 41.05 26.6 38.5 24.05 35.95 24.05 32.35 24.05 28.75 26.6 26.25 29.2 23.65 32.75 23.65 36.4 23.65 38.9 26.25 41.45 28.75 41.45 32.35 41.45 35.95 38.9 38.5 36.4 41.05 32.75 41.05" fill="url(#gradient8)" fill-rule="evenodd" stroke="none"/>
  </g>
  <defs>
    <linearGradient gradientTransform="matrix(0.0159, 0.036, -0.036, 0.0159, 32.75, 32.3)" gradientUnits="userSpaceOnUse" id="gradient0" spreadMethod="pad" x1="-819.2" x2="819.2">
      <stop offset="0.0" stop-color="#afafaf"/>
      <stop offset="1.0" stop-color="#2a2a2a"/>
    </linearGradient>
    <linearGradient gradientTransform="matrix(0.0159, 0.036, -0.036, 0.0159, 32.75, 32.3)" gradientUnits="userSpaceOnUse" id="gradient1" spreadMethod="pad" x1="-819.2" x2="819.2">
      <stop offset="0.0" stop-color="#fada70"/>
      <stop offset="0.5686274509803921" stop-color="#9f8731"/>
      <stop offset="1.0" stop-color="#4d441d"/>
    </linearGradient>
    <radialGradient cx="0" cy="0" gradientTransform="matrix(0.0182, 0.0, 0.0, 0.0182, 32.75, 32.4)" gradientUnits="userSpaceOnUse" id="gradient2" r="819.2" spreadMethod="pad">
      <stop offset="0.0" stop-color="#000000" stop-opacity="0.0"/>
      <stop offset="0.5764705882352941" stop-color="#000000" stop-opacity="0.15294118"/>
      <stop offset="0.7098039215686275" stop-color="#000000" stop-opacity="0.56078434"/>
      <stop offset="0.8156862745098039" stop-color="#000000" stop-opacity="0.7529412"/>
      <stop offset="0.9764705882352941" stop-color="#000000" stop-opacity="0.0"/>
    </radialGradient>
    <radialGradient cx="0" cy="0" gradientTransform="matrix(0.0084, 0.0, 0.0, 0.0084, 57.45, 31.85)" gradientUnits="userSpaceOnUse" id="gradient3" r="819.2" spreadMethod="pad">
      <stop offset="0.0" stop-color="#000000" stop-opacity="0.0"/>
      <stop offset="0.5764705882352941" stop-color="#000000" stop-opacity="0.15294118"/>
      <stop offset="0.7098039215686275" stop-color="#000000" stop-opacity="0.56078434"/>
      <stop offset="0.8156862745098039" stop-color="#000000" stop-opacity="0.7529412"/>
      <stop offset="0.9764705882352941" stop-color="#000000" stop-opacity="0.0"/>
    </radialGradient>
    <linearGradient gradientTransform="matrix(0.0103, 0.0137, -0.0126, 0.0096, 31.6, 30.75)" gradientUnits="userSpaceOnUse" id="gradient4" spreadMethod="pad" x1="-819.2" x2="819.2">
      <stop offset="0.0" stop-color="#8c8c8c"/>
      <stop offset="1.0" stop-color="#2a2a2a"/>
    </linearGradient>
    <linearGradient gradientTransform="matrix(0.0149, 0.0226, -0.0121, 0.008, 34.05, 34.4)" gradientUnits="userSpaceOnUse" id="gradient5" spreadMethod="pad" x1="-819.2" x2="819.2">
      <stop offset="0.0" stop-color="#afafaf"/>
      <stop offset="1.0" stop-color="#2a2a2a"/>
    </linearGradient>
    <linearGradient gradientTransform="matrix(0.01, 0.0152, -0.0081, 0.0053, 33.65, 33.75)" gradientUnits="userSpaceOnUse" id="gradient6" spreadMethod="pad" x1="-819.2" x2="819.2">
      <stop offset="0.0" stop-color="#afafaf"/>
      <stop offset="1.0" stop-color="#2a2a2a"/>
    </linearGradient>
    <radialGradient cx="0" cy="0" gradientTransform="matrix(0.0122, 0.0, 0.0, 0.0122, 32.75, 32.4)" gradientUnits="userSpaceOnUse" id="gradient7" r="819.2" spreadMethod="pad">
      <stop offset="0.0" stop-color="#000000" stop-opacity="0.0"/>
      <stop offset="0.5764705882352941" stop-color="#000000" stop-opacity="0.15294118"/>
      <stop offset="0.7098039215686275" stop-color="#000000" stop-opacity="0.56078434"/>
      <stop offset="0.8156862745098039" stop-color="#000000" stop-opacity="0.7529412"/>
      <stop offset="0.9764705882352941" stop-color="#000000" stop-opacity="0.0"/>
    </radialGradient>
    <linearGradient gradientTransform="matrix(0.0069, 0.0092, -0.0085, 0.0064, 32.0, 31.3)" gradientUnits="userSpaceOnUse" id="gradient8" spreadMethod="pad" x1="-819.2" x2="819.2">
      <stop offset="0.0" stop-color="#8c8c8c"/>
      <stop offset="1.0" stop-color="#2a2a2a"/>
    </linearGradient>
  </defs>
</svg>
