<?xml version="1.0" encoding="UTF-8" standalone="no"?>
<svg xmlns:xlink="http://www.w3.org/1999/xlink" height="54.35px" width="54.25px" xmlns="http://www.w3.org/2000/svg">
  <g transform="matrix(1.0, 0.0, 0.0, 1.0, 28.4, 26.05)">
    <path d="M22.45 -14.1 L23.0 -13.15 7.8 -3.35 7.2 -4.25 22.45 -14.1 M-22.7 16.25 L-23.25 15.35 -8.35 5.75 -7.7 6.65 -22.7 16.25" fill="url(#gradient0)" fill-rule="evenodd" stroke="none"/>
    <path d="M0.45 -8.15 L-0.4 -8.2 -0.65 -8.2 -0.65 -26.05 0.45 -26.05 0.45 -8.15 M0.45 10.2 L0.45 28.3 -0.65 28.3 -0.65 10.25 -0.4 10.25 0.45 10.2" fill="url(#gradient1)" fill-rule="evenodd" stroke="none"/>
    <path d="M22.95 15.5 L7.3 6.15 7.9 5.2 23.5 14.55 22.95 15.5 M-8.0 -4.25 L-8.6 -3.3 -23.75 -12.35 -23.2 -13.3 -8.0 -4.25" fill="url(#gradient2)" fill-rule="evenodd" stroke="none"/>
    <path d="M-0.35 -5.25 Q-3.05 -5.25 -4.95 -3.35 -6.8 -1.45 -6.8 1.2 -6.8 3.85 -4.95 5.75 -3.05 7.65 -0.35 7.65 2.35 7.65 4.2 5.75 6.1 3.85 6.1 1.2 6.1 -1.45 4.2 -3.35 2.35 -5.25 -0.35 -5.25 M-0.35 -6.6 Q2.85 -6.6 5.15 -4.3 7.45 -2.0 7.45 1.2 7.45 4.4 5.15 6.7 2.85 9.0 -0.35 9.0 -3.6 9.0 -5.85 6.7 -8.15 4.4 -8.15 1.2 -8.15 -2.0 -5.85 -4.3 -3.6 -6.6 -0.35 -6.6" fill="url(#gradient3)" fill-rule="evenodd" stroke="none"/>
    <path d="M2.4 12.65 L3.1 12.65 4.0 12.7 4.0 17.7 2.4 17.7 2.4 12.65" fill="url(#gradient4)" fill-rule="evenodd" stroke="none"/>
    <path d="M2.4 12.65 L2.4 17.7 -3.2 17.7 -3.2 12.65 2.4 12.65" fill="url(#gradient5)" fill-rule="evenodd" stroke="none"/>
    <path d="M-8.65 18.6 L-7.85 18.7 -4.1 18.7 -4.1 18.75 -8.65 18.75 -8.65 18.6" fill="url(#gradient6)" fill-rule="evenodd" stroke="none"/>
    <path d="M-3.2 17.7 L-4.85 17.7 -4.85 12.65 -3.2 12.65 -3.2 17.7" fill="url(#gradient7)" fill-rule="evenodd" stroke="none"/>
    <path d="M-3.2 -11.2 L-4.85 -11.2 -4.85 -16.25 -3.2 -16.25 -3.2 -11.2" fill="url(#gradient8)" fill-rule="evenodd" stroke="none"/>
    <path d="M2.4 -16.25 L2.4 -11.2 -3.2 -11.2 -3.2 -16.25 2.4 -16.25" fill="url(#gradient9)" fill-rule="evenodd" stroke="none"/>
    <path d="M2.4 -16.25 L3.1 -16.25 4.0 -16.2 4.0 -11.2 2.4 -11.2 2.4 -16.25" fill="url(#gradient10)" fill-rule="evenodd" stroke="none"/>
    <path d="M-20.4 -25.15 L-20.4 -20.1 -26.0 -20.1 -26.0 -25.15 -20.4 -25.15" fill="url(#gradient11)" fill-rule="evenodd" stroke="none"/>
    <path d="M-20.4 22.2 L-20.4 27.25 -26.0 27.25 -26.0 22.2 -20.4 22.2" fill="url(#gradient12)" fill-rule="evenodd" stroke="none"/>
    <path d="M-4.1 -22.5 L2.5 -22.5 3.25 -22.45 3.25 -17.45 -4.1 -17.45 -4.1 -22.5" fill="url(#gradient13)" fill-rule="evenodd" stroke="none"/>
    <path d="M-4.1 18.7 L3.25 18.7 3.25 23.7 2.5 23.7 -4.1 23.7 -4.1 18.75 -4.1 18.7" fill="url(#gradient14)" fill-rule="evenodd" stroke="none"/>
    <path d="M-4.1 -22.5 L-4.1 -17.45 -7.3 -17.45 Q-10.45 -17.45 -11.45 -15.5 -11.85 -14.6 -11.85 -13.55 L-11.85 14.8 Q-11.85 16.6 -10.9 17.55 -10.05 18.4 -8.65 18.6 L-8.65 18.75 -4.1 18.75 -4.1 23.7 -12.25 23.7 Q-15.0 23.7 -16.2 22.2 L-20.4 22.2 -26.0 22.2 -26.0 13.8 -23.05 13.8 Q-18.05 13.8 -18.05 8.8 L-18.05 -6.25 Q-18.05 -9.7 -20.45 -10.75 L-20.45 -10.8 -20.5 -10.8 -23.05 -11.25 -26.0 -11.25 -26.0 -20.0 -16.8 -20.0 Q-15.8 -22.5 -12.25 -22.5 L-4.1 -22.5" fill="url(#gradient15)" fill-rule="evenodd" stroke="none"/>
    <path d="M6.45 -7.55 L18.95 -19.45 19.65 -19.7 20.4 -19.3 20.45 -19.25 20.75 -18.55 Q20.8 -18.15 20.45 -17.85 L8.05 -6.0 7.5 -6.6 6.45 -7.55" fill="url(#gradient16)" fill-rule="evenodd" stroke="none"/>
    <path d="M7.5 8.9 L8.25 8.15 19.5 19.75 19.75 20.45 19.35 21.2 19.3 21.25 Q19.0 21.55 18.6 21.55 18.2 21.6 17.9 21.3 L6.7 9.65 7.5 8.9" fill="url(#gradient17)" fill-rule="evenodd" stroke="none"/>
    <path d="M22.5 -0.85 Q21.8 -1.55 20.85 -1.55 19.85 -1.55 19.1 -0.85 18.45 -0.1 18.45 0.9 18.45 1.85 19.1 2.55 19.85 3.3 20.85 3.3 21.8 3.3 22.5 2.55 23.25 1.85 23.25 0.9 23.25 -0.1 22.5 -0.85 M24.35 -2.65 Q25.85 -1.15 25.85 0.9 25.85 2.95 24.35 4.4 22.95 5.9 20.85 5.9 18.8 5.9 17.3 4.4 15.9 2.95 15.9 0.9 15.9 -1.15 17.3 -2.65 18.8 -4.1 20.85 -4.1 22.95 -4.1 24.35 -2.65" fill="url(#gradient18)" fill-rule="evenodd" stroke="none"/>
    <path d="M-10.3 0.05 L-10.3 0.85 -10.15 2.25 -27.4 2.4 Q-27.85 2.4 -28.15 2.05 L-28.4 1.25 -28.35 1.2 -28.15 0.5 Q-27.85 0.2 -27.4 0.15 L-10.3 0.05" fill="url(#gradient19)" fill-rule="evenodd" stroke="none"/>
    <path d="M13.75 -16.95 L16.0 -19.25 20.35 -15.0 18.1 -12.7 13.75 -16.95" fill="url(#gradient20)" fill-rule="evenodd" stroke="none"/>
    <path d="M19.25 17.05 L14.75 21.15 12.6 18.75 17.1 14.65 19.25 17.05" fill="url(#gradient21)" fill-rule="evenodd" stroke="none"/>
    <path d="M-22.2 -1.95 L-21.95 4.1 -25.1 4.25 -25.4 -1.8 -22.2 -1.95" fill="url(#gradient22)" fill-rule="evenodd" stroke="none"/>
    <path d="M14.95 -18.1 L15.45 -18.3 15.9 -18.1 16.1 -17.6 15.9 -17.1 Q15.75 -16.9 15.45 -16.9 15.15 -16.9 14.95 -17.1 L14.75 -17.6 14.95 -18.1 M19.35 -14.85 L19.55 -14.35 19.35 -13.85 18.9 -13.65 18.4 -13.85 18.2 -14.35 18.4 -14.85 18.9 -15.05 19.35 -14.85 M2.8 -14.15 L2.6 -14.65 2.8 -15.15 3.3 -15.35 3.75 -15.15 3.95 -14.65 3.75 -14.15 3.3 -13.95 2.8 -14.15 M3.75 -12.7 L3.95 -12.2 3.75 -11.7 3.3 -11.5 2.8 -11.7 2.6 -12.2 2.8 -12.7 3.3 -12.9 3.75 -12.7 M17.7 15.75 L18.15 15.95 18.35 16.45 18.15 16.95 17.7 17.15 Q17.4 17.15 17.2 16.95 L17.0 16.45 17.2 15.95 Q17.4 15.75 17.7 15.75 M13.7 18.95 Q13.9 18.75 14.2 18.75 14.5 18.75 14.65 18.95 L14.85 19.45 14.65 19.95 Q14.5 20.15 14.2 20.15 13.9 20.15 13.7 19.95 L13.5 19.45 13.7 18.95 M-24.35 -1.75 L-23.85 -2.0 -23.45 -1.8 -23.15 -1.35 Q-23.2 -1.05 -23.4 -0.85 L-23.85 -0.6 -24.4 -0.75 -24.55 -1.25 -24.35 -1.75 M-3.5 -14.15 L-3.95 -13.95 -4.45 -14.15 -4.65 -14.65 -4.45 -15.15 -3.95 -15.35 -3.5 -15.15 -3.3 -14.65 -3.5 -14.15 M-3.95 -12.9 L-3.5 -12.7 -3.3 -12.2 -3.5 -11.7 -3.95 -11.5 -4.45 -11.7 -4.65 -12.2 -4.45 -12.7 -3.95 -12.9 M-23.1 3.9 L-23.6 4.15 -24.05 3.95 -24.3 3.5 -24.1 3.0 Q-23.9 2.75 -23.6 2.75 L-23.1 2.95 -22.9 3.4 -23.1 3.9" fill="#383838" fill-rule="evenodd" stroke="none"/>
  </g>
  <defs>
    <linearGradient gradientTransform="matrix(4.0E-4, 5.0E-4, -0.0232, 0.015, 3.7, -1.35)" gradientUnits="userSpaceOnUse" id="gradient0" spreadMethod="pad" x1="-819.2" x2="819.2">
      <stop offset="0.011764705882352941" stop-color="#777777"/>
      <stop offset="0.8" stop-color="#5b5b5b"/>
      <stop offset="1.0" stop-color="#6b6b6b"/>
    </linearGradient>
    <linearGradient gradientTransform="matrix(7.0E-4, 0.0, 0.0, 0.0276, -0.1, -3.45)" gradientUnits="userSpaceOnUse" id="gradient1" spreadMethod="pad" x1="-819.2" x2="819.2">
      <stop offset="0.011764705882352941" stop-color="#777777"/>
      <stop offset="0.8" stop-color="#5b5b5b"/>
      <stop offset="1.0" stop-color="#6b6b6b"/>
    </linearGradient>
    <linearGradient gradientTransform="matrix(-3.0E-4, 6.0E-4, -0.0237, -0.0141, 3.8, 3.45)" gradientUnits="userSpaceOnUse" id="gradient2" spreadMethod="pad" x1="-819.2" x2="819.2">
      <stop offset="0.011764705882352941" stop-color="#777777"/>
      <stop offset="0.8" stop-color="#5b5b5b"/>
      <stop offset="1.0" stop-color="#6b6b6b"/>
    </linearGradient>
    <linearGradient gradientTransform="matrix(0.0098, 0.0148, -0.0079, 0.0052, 0.45, 2.55)" gradientUnits="userSpaceOnUse" id="gradient3" spreadMethod="pad" x1="-819.2" x2="819.2">
      <stop offset="0.0" stop-color="#afafaf"/>
      <stop offset="1.0" stop-color="#2a2a2a"/>
    </linearGradient>
    <linearGradient gradientTransform="matrix(-0.0056, 0.0, 2.0E-4, -0.0282, 6.0, -5.25)" gradientUnits="userSpaceOnUse" id="gradient4" spreadMethod="pad" x1="-819.2" x2="819.2">
      <stop offset="0.0" stop-color="#000000"/>
      <stop offset="0.5725490196078431" stop-color="#b8b8b8"/>
      <stop offset="1.0" stop-color="#000000"/>
    </linearGradient>
    <linearGradient gradientTransform="matrix(0.0057, 0.0, 0.0, 0.0282, -0.3, 35.75)" gradientUnits="userSpaceOnUse" id="gradient5" spreadMethod="pad" x1="-819.2" x2="819.2">
      <stop offset="0.0" stop-color="#000000"/>
      <stop offset="0.5725490196078431" stop-color="#b8b8b8"/>
      <stop offset="1.0" stop-color="#000000"/>
    </linearGradient>
    <linearGradient gradientTransform="matrix(-0.0188, -0.0309, 0.024, -0.0146, -2.45, 8.65)" gradientUnits="userSpaceOnUse" id="gradient6" spreadMethod="pad" x1="-819.2" x2="819.2">
      <stop offset="0.0" stop-color="#000000"/>
      <stop offset="0.5725490196078431" stop-color="#b8b8b8"/>
      <stop offset="1.0" stop-color="#000000"/>
    </linearGradient>
    <linearGradient gradientTransform="matrix(0.0064, 0.0, 0.0, 0.0031, -7.75, 14.9)" gradientUnits="userSpaceOnUse" id="gradient7" spreadMethod="pad" x1="-819.2" x2="819.2">
      <stop offset="0.0" stop-color="#000000"/>
      <stop offset="0.5725490196078431" stop-color="#b8b8b8"/>
      <stop offset="1.0" stop-color="#000000"/>
    </linearGradient>
    <linearGradient gradientTransform="matrix(0.0064, 0.0, 0.0, 0.0031, -7.75, -14.0)" gradientUnits="userSpaceOnUse" id="gradient8" spreadMethod="pad" x1="-819.2" x2="819.2">
      <stop offset="0.0" stop-color="#000000"/>
      <stop offset="0.5725490196078431" stop-color="#b8b8b8"/>
      <stop offset="1.0" stop-color="#000000"/>
    </linearGradient>
    <linearGradient gradientTransform="matrix(0.0057, 0.0, 0.0, 0.0282, -0.3, 6.85)" gradientUnits="userSpaceOnUse" id="gradient9" spreadMethod="pad" x1="-819.2" x2="819.2">
      <stop offset="0.0" stop-color="#000000"/>
      <stop offset="0.5725490196078431" stop-color="#b8b8b8"/>
      <stop offset="1.0" stop-color="#000000"/>
    </linearGradient>
    <linearGradient gradientTransform="matrix(-0.0056, 0.0, 2.0E-4, -0.0282, 6.0, -34.15)" gradientUnits="userSpaceOnUse" id="gradient10" spreadMethod="pad" x1="-819.2" x2="819.2">
      <stop offset="0.0" stop-color="#000000"/>
      <stop offset="0.5725490196078431" stop-color="#b8b8b8"/>
      <stop offset="1.0" stop-color="#000000"/>
    </linearGradient>
    <linearGradient gradientTransform="matrix(0.0057, 0.0, 0.0, 0.0282, -23.1, -2.05)" gradientUnits="userSpaceOnUse" id="gradient11" spreadMethod="pad" x1="-819.2" x2="819.2">
      <stop offset="0.0" stop-color="#000000"/>
      <stop offset="0.5725490196078431" stop-color="#b8b8b8"/>
      <stop offset="1.0" stop-color="#000000"/>
    </linearGradient>
    <linearGradient gradientTransform="matrix(0.0057, 0.0, 0.0, 0.0282, -23.1, 45.3)" gradientUnits="userSpaceOnUse" id="gradient12" spreadMethod="pad" x1="-819.2" x2="819.2">
      <stop offset="0.0" stop-color="#000000"/>
      <stop offset="0.5725490196078431" stop-color="#b8b8b8"/>
      <stop offset="1.0" stop-color="#000000"/>
    </linearGradient>
    <linearGradient gradientTransform="matrix(0.0076, 0.0, 0.0, 0.0282, -0.35, 0.6)" gradientUnits="userSpaceOnUse" id="gradient13" spreadMethod="pad" x1="-819.2" x2="819.2">
      <stop offset="0.0" stop-color="#a6a6a6"/>
      <stop offset="0.34901960784313724" stop-color="#d2d2d2"/>
      <stop offset="0.7764705882352941" stop-color="#a8a8a8"/>
      <stop offset="1.0" stop-color="#707070"/>
    </linearGradient>
    <linearGradient gradientTransform="matrix(0.0052, 0.0, 0.0, 0.0282, -0.35, 0.6)" gradientUnits="userSpaceOnUse" id="gradient14" spreadMethod="pad" x1="-819.2" x2="819.2">
      <stop offset="0.0" stop-color="#5f5f5f"/>
      <stop offset="0.34901960784313724" stop-color="#b4b4b4"/>
      <stop offset="0.7764705882352941" stop-color="#727272"/>
      <stop offset="1.0" stop-color="#3f3f3f"/>
    </linearGradient>
    <linearGradient gradientTransform="matrix(-0.0188, -0.0309, 0.024, -0.0146, -2.45, 8.65)" gradientUnits="userSpaceOnUse" id="gradient15" spreadMethod="pad" x1="-819.2" x2="819.2">
      <stop offset="0.00784313725490196" stop-color="#4a3000"/>
      <stop offset="0.9882352941176471" stop-color="#e9d678"/>
    </linearGradient>
    <linearGradient gradientTransform="matrix(0.001, 0.0011, -0.001, 9.0E-4, 1.35, -1.5)" gradientUnits="userSpaceOnUse" id="gradient16" spreadMethod="pad" x1="-819.2" x2="819.2">
      <stop offset="0.0" stop-color="#666666"/>
      <stop offset="0.5529411764705883" stop-color="#cccccc"/>
      <stop offset="1.0" stop-color="#666666"/>
    </linearGradient>
    <linearGradient gradientTransform="matrix(-0.001, 9.0E-4, -9.0E-4, -0.001, 1.25, 2.5)" gradientUnits="userSpaceOnUse" id="gradient17" spreadMethod="pad" x1="-819.2" x2="819.2">
      <stop offset="0.0" stop-color="#666666"/>
      <stop offset="0.5529411764705883" stop-color="#cccccc"/>
      <stop offset="1.0" stop-color="#666666"/>
    </linearGradient>
    <linearGradient gradientTransform="matrix(0.0062, 0.0095, -0.0051, 0.0033, 21.35, 1.75)" gradientUnits="userSpaceOnUse" id="gradient18" spreadMethod="pad" x1="-819.2" x2="819.2">
      <stop offset="0.0" stop-color="#afafaf"/>
      <stop offset="1.0" stop-color="#2a2a2a"/>
    </linearGradient>
    <linearGradient gradientTransform="matrix(0.0, -0.0015, 0.0014, 0.0, -2.3, 1.35)" gradientUnits="userSpaceOnUse" id="gradient19" spreadMethod="pad" x1="-819.2" x2="819.2">
      <stop offset="0.0" stop-color="#666666"/>
      <stop offset="0.5529411764705883" stop-color="#cccccc"/>
      <stop offset="1.0" stop-color="#666666"/>
    </linearGradient>
    <linearGradient gradientTransform="matrix(-0.0027, 0.0025, -0.0013, -0.0014, 17.05, -16.0)" gradientUnits="userSpaceOnUse" id="gradient20" spreadMethod="pad" x1="-819.2" x2="819.2">
      <stop offset="0.0" stop-color="#666666"/>
      <stop offset="1.0" stop-color="#cccccc"/>
    </linearGradient>
    <linearGradient gradientTransform="matrix(-0.0041, -0.0039, 0.0014, -0.0014, 15.95, 17.9)" gradientUnits="userSpaceOnUse" id="gradient21" spreadMethod="pad" x1="-819.2" x2="819.2">
      <stop offset="0.0" stop-color="#666666"/>
      <stop offset="1.0" stop-color="#cccccc"/>
    </linearGradient>
    <linearGradient gradientTransform="matrix(0.0037, 0.0, 0.0, 0.002, -23.7, 1.15)" gradientUnits="userSpaceOnUse" id="gradient22" spreadMethod="pad" x1="-819.2" x2="819.2">
      <stop offset="0.0" stop-color="#666666"/>
      <stop offset="1.0" stop-color="#cccccc"/>
    </linearGradient>
  </defs>
</svg>
