<?xml version="1.0" encoding="UTF-8" standalone="no"?>
<svg xmlns:xlink="http://www.w3.org/1999/xlink" height="23.25px" width="28.15px" xmlns="http://www.w3.org/2000/svg">
  <g transform="matrix(1.0, 0.0, 0.0, 1.0, 0.0, 0.0)">
    <path d="M25.7 23.25 L25.65 11.85 22.0 6.25 15.75 10.25 15.65 7.35 15.75 7.35 22.65 3.0 28.15 10.75 28.1 21.65 25.7 23.25" fill="#050505" fill-rule="evenodd" stroke="none"/>
    <path d="M15.65 7.35 L15.75 10.25 22.0 6.25 25.65 11.85 25.7 23.25 11.75 20.5 11.75 9.4 0.0 6.85 0.0 4.3 15.65 7.35" fill="#1b1b1b" fill-rule="evenodd" stroke="none"/>
    <path d="M22.65 3.0 L15.75 7.35 15.65 7.35 0.0 4.3 0.0 4.25 7.25 0.0 22.65 3.0" fill="#484848" fill-rule="evenodd" stroke="none"/>
  </g>
</svg>
