<?xml version="1.0" encoding="UTF-8" standalone="no"?>
<svg xmlns:xlink="http://www.w3.org/1999/xlink" height="280.0px" width="211.8px" xmlns="http://www.w3.org/2000/svg">
  <g transform="matrix(1.0, 0.0, 0.0, 1.0, 20.35, 7.5)">
    <path d="M145.6 156.9 L145.95 157.9 146.25 159.05 145.55 164.05 Q145.55 165.9 146.3 166.7 147.0 167.5 147.0 168.75 L146.55 170.1 Q145.9 171.05 145.0 171.05 L144.3 170.85 144.05 170.85 Q143.45 170.85 143.4 169.55 L143.45 168.25 Q143.45 167.45 142.85 166.7 142.2 166.0 142.2 165.4 142.2 164.0 143.5 161.0 144.35 158.95 145.05 158.0 L145.6 156.9 M126.5 156.8 L126.5 157.0 Q126.7 157.1 126.7 157.85 L126.6 159.95 Q126.6 160.4 127.65 162.1 128.7 163.75 128.7 165.85 128.7 170.25 126.35 170.25 L125.65 169.8 125.55 169.8 124.75 169.75 124.8 169.05 124.9 168.15 Q124.9 167.35 124.1 165.65 123.25 163.95 123.25 163.3 123.25 162.75 124.35 160.25 125.55 157.4 126.5 156.8 M126.8 163.95 L126.75 163.85 126.75 163.95 126.8 163.95 M127.4 209.2 L127.5 209.65 127.05 210.5 126.9 211.15 127.8 212.2 128.4 212.75 Q129.0 213.4 129.0 214.15 L129.0 214.35 128.75 215.85 128.15 216.95 Q127.5 218.75 127.2 218.75 126.8 218.75 126.6 217.75 L126.45 216.7 126.5 216.15 Q126.05 214.1 124.95 213.0 L123.75 211.8 Q123.75 211.3 124.1 210.75 123.95 210.65 123.95 210.35 123.95 209.7 125.65 208.55 127.25 207.45 127.35 209.15 L127.4 209.2 M116.5 217.35 L116.55 216.8 Q116.55 215.6 115.75 213.55 114.9 211.5 114.9 210.85 114.9 207.05 115.85 207.95 L116.05 207.7 Q117.0 206.55 117.0 207.75 L116.8 208.55 116.6 209.05 117.3 210.6 117.85 211.4 Q119.1 213.35 119.1 214.2 L118.6 215.35 Q118.05 216.15 117.45 216.15 L117.35 216.15 116.5 217.35" fill="#989898" fill-rule="evenodd" stroke="none"/>
    <path d="M104.95 0.0 L107.4 0.0 Q138.85 0.75 161.15 38.8 183.95 77.6 183.95 132.5 183.95 187.4 161.15 226.2 138.85 264.25 107.4 265.0 L104.95 265.0 66.2 265.0 65.65 265.0 64.9 265.0 Q32.7 265.0 9.9 226.2 -12.85 187.4 -12.85 132.5 -12.85 77.6 9.9 38.8 32.7 0.0 64.9 0.0 L65.65 0.0 66.2 0.0 104.95 0.0 Q73.55 0.75 51.2 38.8 28.45 77.6 28.45 132.5 28.45 187.4 51.2 226.2 73.55 264.25 104.95 265.0 73.55 264.25 51.2 226.2 28.45 187.4 28.45 132.5 28.45 77.6 51.2 38.8 73.55 0.75 104.95 0.0" fill="#747474" fill-rule="evenodd" stroke="none"/>
    <path d="M104.95 0.0 L107.4 0.0 Q138.85 0.75 161.15 38.8 183.95 77.6 183.95 132.5 183.95 187.4 161.15 226.2 138.85 264.25 107.4 265.0 L104.95 265.0 66.2 265.0 65.65 265.0 64.9 265.0 Q32.7 265.0 9.9 226.2 -12.85 187.4 -12.85 132.5 -12.85 77.6 9.9 38.8 32.7 0.0 64.9 0.0 L65.65 0.0 66.2 0.0 104.95 0.0 Q73.55 0.75 51.2 38.8 28.45 77.6 28.45 132.5 28.45 187.4 51.2 226.2 73.55 264.25 104.95 265.0" fill="none" stroke="#383838" stroke-linecap="round" stroke-linejoin="round" stroke-width="15.0"/>
    <path d="M107.4 265.0 L66.2 265.0 65.65 265.0 64.9 265.0 Q32.7 265.0 9.9 226.2 -12.85 187.4 -12.85 132.5 -12.85 77.6 9.9 38.8 32.7 0.0 64.9 0.0 L65.65 0.0 66.2 0.0 107.4 0.0 107.4 265.0" fill="#656565" fill-rule="evenodd" stroke="none"/>
    <path d="M183.95 132.5 Q183.95 187.4 161.15 226.2 138.4 265.0 106.2 265.0 74.0 265.0 51.2 226.2 28.45 187.4 28.45 132.5 28.45 77.6 51.2 38.8 74.0 0.0 106.2 0.0 138.4 0.0 161.15 38.8 183.95 77.6 183.95 132.5" fill="#c6c6c6" fill-rule="evenodd" stroke="none"/>
    <path d="M172.45 132.5 Q172.45 179.3 153.9 212.35 135.4 245.4 109.2 245.4 83.0 245.4 64.45 212.35 45.95 179.3 45.95 132.5 45.95 85.75 64.45 52.7 83.0 19.6 109.2 19.6 135.4 19.6 153.9 52.7 172.45 85.75 172.45 132.5" fill="#989898" fill-rule="evenodd" stroke="none"/>
    <path d="M161.95 132.5 Q161.95 179.3 143.4 212.35 126.6 242.4 103.45 245.15 L103.95 245.05 Q81.1 242.05 64.45 212.35 45.95 179.3 45.95 132.5 45.95 85.75 64.45 52.7 81.1 22.95 103.95 19.95 126.8 22.95 143.4 52.7 161.95 85.75 161.95 132.5" fill="#656565" fill-rule="evenodd" stroke="none"/>
    <path d="M94.35 189.15 L102.3 195.6 111.6 195.9 113.85 191.65 115.25 179.25 114.7 165.7 117.8 160.9 121.5 162.6 122.9 178.95 120.65 187.15 116.7 196.2 121.5 202.7 122.6 210.9 126.3 213.15 122.6 221.35 114.7 225.55 103.95 223.85 98.6 215.4 96.05 208.05 92.4 206.05 94.35 189.15" fill="#383838" fill-rule="evenodd" stroke="none"/>
    <path d="M91.85 149.6 L100.0 155.5 102.85 165.7 102.3 174.15 94.65 201.25 100.0 205.5 103.1 214.85 107.1 217.1 111.05 206.65 116.1 207.5 119.5 206.35 124.85 208.9 130.8 206.65 132.2 212.0 129.95 220.5 129.4 228.95 Q123.35 232.5 117.25 236.0 L111.9 231.2 100.6 231.5 95.8 214.25 88.45 211.15 86.45 206.65 86.45 198.15 94.35 166.55 88.15 156.65 89.3 151.55 Q92.1 149.85 91.85 149.6" fill="#d7d7d7" fill-rule="evenodd" stroke="none"/>
    <path d="M160.25 56.3 L170.1 71.55 171.25 97.55 174.65 109.4 172.65 114.2 171.85 115.7 Q169.0 79.65 153.9 52.7 L151.8 49.05 160.25 56.3" fill="#c9c9c9" fill-rule="evenodd" stroke="none"/>
    <path d="M73.75 139.7 L72.6 134.05 74.6 128.95 64.45 120.75 59.05 101.3 64.45 75.0 76.85 51.0 114.7 35.75 140.4 44.25 156.25 57.8 166.1 73.05 167.25 99.05 170.65 110.9 168.65 115.7 163.85 124.45 166.95 131.5 165.0 136.05 158.2 136.85 150.0 150.15 150.0 162.3 148.6 171.05 144.1 170.2 137.6 173.3 124.85 169.35 118.95 175.0 113.3 171.35 111.9 159.75 101.7 155.8 100.6 147.05 91.85 140.25 78.85 141.95 73.75 139.7" fill="#c6c6c6" fill-rule="evenodd" stroke="none"/>
    <path d="M114.15 108.0 L118.1 121.3 117.8 134.55 108.2 140.8 99.2 136.55 91.0 130.6 85.05 121.55 86.75 110.25 95.8 100.65 104.0 100.65 114.15 108.0" fill="#383838" fill-rule="evenodd" stroke="none"/>
    <path d="M158.25 97.25 L161.9 101.8 162.75 111.4 161.9 123.25 156.55 134.25 153.45 134.25 150.6 127.2 149.2 117.9 152.3 102.35 158.25 97.25" fill="#383838" fill-rule="evenodd" stroke="none"/>
    <path d="M138.65 126.4 L140.05 131.5 142.9 128.95 141.5 138.55 142.35 147.9 139.5 140.25 135.55 147.3 134.45 137.7 138.65 126.4" fill="#383838" fill-rule="evenodd" stroke="none"/>
    <path d="M101.05 107.8 L102.9 121.2 101.8 134.45 99.25 136.6 99.2 136.55 91.0 130.6 85.05 121.55 86.75 110.25 95.5 101.0 101.05 107.8" fill="#656565" fill-rule="evenodd" stroke="none"/>
    <path d="M152.65 124.0 L151.45 129.25 150.6 127.2 149.2 117.9 151.3 107.55 152.05 112.15 152.65 124.0" fill="#656565" fill-rule="evenodd" stroke="none"/>
    <path d="M162.0 93.5 Q162.0 95.45 160.5 96.25 159.55 96.75 158.25 96.75 L158.15 96.75 Q159.9 97.45 161.65 99.6 163.55 102.0 164.85 105.55 166.0 108.7 166.0 110.6 166.0 113.55 163.75 119.75 162.0 112.4 160.3 108.55 157.3 101.75 150.5 100.0 153.55 96.4 156.4 96.45 154.95 95.8 154.5 94.0 L154.5 91.75 Q154.5 89.3 155.65 88.1 156.75 87.0 158.25 87.3 162.0 88.1 162.0 93.5 M163.75 131.25 L164.0 131.7 164.25 133.5 Q164.25 136.1 158.25 137.75 153.7 139.0 149.75 139.0 L147.45 138.65 146.5 137.75 146.25 136.25 Q146.85 134.0 151.55 132.85 155.1 132.0 163.75 131.25 M123.85 46.35 L124.25 46.6 Q124.6 46.85 124.6 48.35 124.6 50.9 122.65 52.9 120.0 55.6 114.6 55.6 106.6 55.6 106.6 50.35 106.6 47.4 109.4 45.95 113.8 43.75 123.85 46.35 M121.6 130.5 Q118.9 127.9 118.05 122.75 116.65 119.85 115.55 116.3 L113.55 108.1 Q108.85 102.9 98.15 100.6 L94.35 100.25 94.25 99.85 91.6 99.5 93.75 98.8 Q95.05 96.6 97.45 96.05 L112.6 94.5 Q119.8 96.1 124.15 109.35 127.1 118.5 127.1 123.75 127.1 125.5 126.55 127.5 125.7 130.35 124.1 131.25 L122.65 129.8 121.6 130.5 M160.0 78.35 L159.5 81.0 158.9 81.65 Q158.25 82.25 156.75 82.25 L156.65 82.05 Q155.45 84.0 150.6 84.0 147.25 84.0 143.3 77.5 140.2 72.45 138.85 67.75 L137.6 64.75 137.6 64.35 Q137.6 59.4 134.15 56.75 L133.6 56.35 Q131.85 52.6 131.85 52.25 131.85 50.7 132.0 50.35 L132.1 50.35 133.2 50.35 Q133.95 45.0 142.0 49.35 150.2 53.75 153.25 59.1 156.7 65.75 160.0 78.35 M85.6 134.5 L85.85 134.1 Q86.1 134.05 86.1 135.6 L84.5 137.3 82.6 139.0 75.6 139.0 73.8 138.4 Q73.1 137.9 73.1 136.25 73.1 134.65 74.0 134.3 L75.6 134.0 82.5 133.6 Q84.2 133.65 85.6 134.5 M132.85 114.5 Q132.85 112.85 134.65 110.5 L135.35 109.65 134.7 109.15 134.1 108.5 Q134.1 106.65 135.8 103.05 137.6 99.2 139.1 98.5 L140.25 99.35 Q140.85 99.95 140.85 101.5 140.85 103.3 139.85 106.4 L138.75 109.3 Q141.9 114.15 143.75 118.4 145.6 122.85 145.6 125.5 145.6 127.05 144.4 128.5 143.15 130.0 141.6 130.0 138.15 130.0 135.9 125.95 134.35 123.1 134.35 121.6 L134.55 119.3 Q132.85 115.85 132.85 114.5 M100.2 145.2 L95.6 140.0 Q95.6 138.5 96.1 137.75 95.8 137.65 95.8 137.5 95.8 137.25 97.35 137.25 L103.1 139.65 Q108.9 142.0 110.5 142.0 111.15 142.0 118.15 136.75 123.15 134.0 124.4 137.35 125.1 138.0 125.1 140.0 125.1 143.15 121.35 148.3 117.35 153.75 114.1 153.75 107.55 153.75 106.1 148.5 L106.65 148.15 Q102.95 147.4 100.2 145.2 M97.85 155.25 L97.6 157.1 Q100.65 161.4 101.45 163.9 102.1 165.95 102.1 170.25 102.1 172.25 101.55 175.4 101.0 178.85 100.1 181.5 L99.1 181.75 Q97.8 177.85 95.8 169.05 93.85 160.7 93.85 159.6 93.85 157.6 95.5 156.4 96.25 155.8 97.85 155.25 M98.85 186.35 Q98.85 189.35 98.0 192.2 L95.85 198.35 93.6 199.6 93.0 199.9 Q92.35 199.9 92.35 198.35 92.35 196.3 95.0 191.55 97.6 186.85 98.85 186.35 M148.25 146.75 L147.55 151.25 Q147.0 154.0 147.0 155.35 147.0 158.0 146.05 161.0 L145.3 162.95 Q145.5 164.35 145.85 165.6 L145.35 168.35 144.75 169.0 Q144.1 169.6 142.6 169.6 139.55 169.6 138.15 164.2 L137.35 158.5 Q137.35 154.25 137.85 153.15 138.9 150.9 142.75 150.4 145.05 147.25 148.25 146.75 M129.85 216.0 L129.75 217.15 Q128.35 217.65 126.85 218.6 125.0 221.15 124.4 223.45 123.7 226.0 124.1 229.85 123.85 229.85 123.15 230.3 L122.05 230.9 Q121.55 231.35 120.6 231.6 119.55 230.4 118.9 228.65 118.35 227.3 118.35 226.6 118.35 223.75 119.15 222.05 L119.7 221.2 Q120.7 215.9 124.6 212.4 126.75 210.5 128.2 211.25 129.85 212.05 129.85 216.0 M115.85 211.1 L116.6 212.6 113.75 214.65 111.6 215.85 109.3 213.9 108.35 212.75 Q108.35 211.2 108.5 210.85 L108.6 210.85 Q109.7 210.7 111.85 210.9 L115.85 211.1" fill="#ffffff" fill-rule="evenodd" stroke="none"/>
  </g>
</svg>
