<?xml version="1.0" encoding="UTF-8" standalone="no"?>
<svg xmlns:xlink="http://www.w3.org/1999/xlink" height="40.2px" width="40.2px" xmlns="http://www.w3.org/2000/svg">
  <g transform="matrix(1.0, 0.0, 0.0, 1.0, 20.1, 20.1)">
    <path d="M20.1 0.0 Q20.1 8.35 14.2 14.2 8.35 20.1 0.0 20.1 -8.35 20.1 -14.25 14.2 -20.1 8.35 -20.1 0.0 -20.1 -8.35 -14.25 -14.25 -8.35 -20.1 0.0 -20.1 8.35 -20.1 14.2 -14.25 20.1 -8.35 20.1 0.0 M17.95 0.0 Q17.95 -7.4 12.65 -12.7 7.4 -17.95 0.0 -17.95 -7.4 -17.95 -12.7 -12.7 -17.95 -7.4 -17.95 0.0 -17.95 7.4 -12.7 12.65 -7.4 17.95 0.0 17.95 7.4 17.95 12.65 12.65 17.95 7.4 17.95 0.0" fill="url(#gradient0)" fill-rule="evenodd" stroke="none"/>
    <path d="M-6.35 -14.65 Q-5.55 -13.9 -4.0 -13.9 L4.0 -13.9 5.3 -14.05 Q5.95 -14.25 6.4 -14.65 L7.75 -14.65 Q13.1 -14.65 13.1 -9.35 L13.1 -7.65 Q11.05 -7.15 11.05 -4.55 L11.05 4.95 Q11.05 7.55 13.1 8.05 L13.1 9.35 Q13.1 14.65 7.75 14.65 L6.45 14.65 Q6.0 14.2 5.3 14.0 L4.0 13.8 -4.0 13.8 Q-5.65 13.8 -6.45 14.65 L-7.75 14.65 Q-13.1 14.65 -13.1 9.35 L-13.1 8.05 Q-11.15 7.45 -11.15 4.95 L-11.15 -4.55 Q-11.15 -7.05 -13.1 -7.6 L-13.1 -9.35 Q-13.1 -14.65 -7.75 -14.65 L-6.35 -14.65" fill="url(#gradient1)" fill-rule="evenodd" stroke="none"/>
    <path d="M6.4 -14.65 Q5.95 -14.25 5.3 -14.05 L4.0 -13.9 -4.0 -13.9 Q-5.55 -13.9 -6.35 -14.65 L6.4 -14.65 M-13.1 -7.6 Q-11.15 -7.05 -11.15 -4.55 L-11.15 4.95 Q-11.15 7.45 -13.1 8.05 L-13.1 -7.6 M-6.45 14.65 Q-5.65 13.8 -4.0 13.8 L4.0 13.8 5.3 14.0 Q6.0 14.2 6.45 14.65 L-6.45 14.65 M13.1 8.05 Q11.05 7.55 11.05 4.95 L11.05 -4.55 Q11.05 -7.15 13.1 -7.65 L13.1 8.05" fill="url(#gradient2)" fill-rule="evenodd" stroke="none"/>
    <path d="M-5.8 -13.45 L5.8 -13.45 Q10.65 -13.45 10.65 -8.6 L10.65 8.6 Q10.65 13.45 5.8 13.45 L-5.8 13.45 Q-10.65 13.45 -10.65 8.6 L-10.65 -8.6 Q-10.65 -13.45 -5.8 -13.45" fill="url(#gradient3)" fill-rule="evenodd" stroke="none"/>
    <path d="M-5.4 -12.5 L5.4 -12.5 Q9.9 -12.5 9.9 -8.0 L9.9 8.0 Q9.9 12.5 5.4 12.5 L-5.4 12.5 Q-9.9 12.5 -9.9 8.0 L-9.9 -8.0 Q-9.9 -12.5 -5.4 -12.5" fill="url(#gradient4)" fill-rule="evenodd" stroke="none"/>
    <path d="M-1.7 -11.65 L6.0 -11.35 Q7.7 -10.95 8.1 -10.4 L8.65 -9.25 8.7 -8.2 Q8.7 -7.3 7.6 -6.6 6.3 -5.85 4.35 -6.0 L-2.85 -5.9 -7.4 -6.45 Q-8.35 -6.75 -8.9 -7.95 -9.2 -8.6 -8.2 -9.75 L-6.95 -10.95 -1.7 -11.65" fill="url(#gradient5)" fill-rule="evenodd" stroke="none"/>
  </g>
  <defs>
    <radialGradient cx="0" cy="0" gradientTransform="matrix(0.025, 0.0, 0.0, 0.025, 0.0, 0.0)" gradientUnits="userSpaceOnUse" id="gradient0" r="819.2" spreadMethod="pad">
      <stop offset="0.0392156862745098" stop-color="#ffffff" stop-opacity="0.50980395"/>
      <stop offset="0.6" stop-color="#0ff0f5" stop-opacity="0.05882353"/>
    </radialGradient>
    <linearGradient gradientTransform="matrix(-3.0E-4, -0.0181, 0.0179, -3.0E-4, 0.0, 0.0)" gradientUnits="userSpaceOnUse" id="gradient1" spreadMethod="pad" x1="-819.2" x2="819.2">
      <stop offset="0.0" stop-color="#333333"/>
      <stop offset="0.10588235294117647" stop-color="#4a4a4a"/>
      <stop offset="0.24313725490196078" stop-color="#a3a3a3"/>
      <stop offset="0.8196078431372549" stop-color="#7a7a7a"/>
      <stop offset="1.0" stop-color="#ffffff"/>
    </linearGradient>
    <linearGradient gradientTransform="matrix(-3.0E-4, -0.0181, 0.0179, -3.0E-4, 0.0, 0.0)" gradientUnits="userSpaceOnUse" id="gradient2" spreadMethod="pad" x1="-819.2" x2="819.2">
      <stop offset="0.0" stop-color="#1e1e1e"/>
      <stop offset="0.10588235294117647" stop-color="#313131"/>
      <stop offset="0.24313725490196078" stop-color="#414141"/>
      <stop offset="0.8196078431372549" stop-color="#4a4a4a"/>
      <stop offset="1.0" stop-color="#8a8a8a"/>
    </linearGradient>
    <linearGradient gradientTransform="matrix(0.0063, 0.0234, -0.0159, 0.0042, 1.45, 4.8)" gradientUnits="userSpaceOnUse" id="gradient3" spreadMethod="pad" x1="-819.2" x2="819.2">
      <stop offset="0.0" stop-color="#0ff0f5"/>
      <stop offset="0.30980392156862746" stop-color="#4d4d4d"/>
      <stop offset="1.0" stop-color="#dbfeff"/>
    </linearGradient>
    <linearGradient gradientTransform="matrix(0.0058, 0.0217, -0.0147, 0.004, 1.35, 4.45)" gradientUnits="userSpaceOnUse" id="gradient4" spreadMethod="pad" x1="-819.2" x2="819.2">
      <stop offset="0.0" stop-color="#005664"/>
      <stop offset="1.0" stop-color="#2986a1"/>
    </linearGradient>
    <linearGradient gradientTransform="matrix(0.0, -0.0042, 0.0107, 0.0, -1.0, -9.8)" gradientUnits="userSpaceOnUse" id="gradient5" spreadMethod="pad" x1="-819.2" x2="819.2">
      <stop offset="0.0" stop-color="#ffffff" stop-opacity="0.5411765"/>
      <stop offset="1.0" stop-color="#ffffff" stop-opacity="0.0"/>
    </linearGradient>
  </defs>
</svg>
