<?xml version="1.0" encoding="UTF-8" standalone="no"?>
<svg xmlns:xlink="http://www.w3.org/1999/xlink" height="72.9px" width="72.9px" xmlns="http://www.w3.org/2000/svg">
  <g transform="matrix(1.0, 0.0, 0.0, 1.0, 36.35, 37.55)">
    <path d="M36.55 -1.1 L3.5 -0.2 31.65 17.1 2.55 1.35 18.3 30.45 1.0 2.3 0.1 35.35 -0.8 2.3 -18.1 30.45 -2.35 1.35 -31.45 17.1 -3.3 -0.2 -36.35 -1.1 -3.3 -2.0 -31.45 -19.3 -2.35 -3.55 -18.1 -32.65 -0.8 -4.5 0.1 -37.55 1.0 -4.5 18.3 -32.65 2.55 -3.55 31.65 -19.3 3.5 -2.0 36.55 -1.1" fill="url(#gradient0)" fill-rule="evenodd" stroke="none"/>
  </g>
  <defs>
    <radialGradient cx="0" cy="0" gradientTransform="matrix(0.0445, 0.0, 0.0, 0.0445, 0.1, -1.1)" gradientUnits="userSpaceOnUse" id="gradient0" r="819.2" spreadMethod="pad">
      <stop offset="0.0392156862745098" stop-color="#ffffff" stop-opacity="0.8"/>
      <stop offset="0.1607843137254902" stop-color="#ccfcfd" stop-opacity="0.25882354"/>
      <stop offset="0.3411764705882353" stop-color="#7ef7fa" stop-opacity="0.14901961"/>
      <stop offset="1.0" stop-color="#0ff0f5" stop-opacity="0.0"/>
    </radialGradient>
  </defs>
</svg>
