<?xml version="1.0" encoding="UTF-8" standalone="no"?>
<svg xmlns:xlink="http://www.w3.org/1999/xlink" height="27.45px" width="38.0px" xmlns="http://www.w3.org/2000/svg">
  <g transform="matrix(1.0, 0.0, 0.0, 1.0, 42.9, 1.5)">
    <path d="M-9.7 0.35 L-9.7 4.7 -6.9 2.95 -6.9 -1.25 M-6.9 2.95 L-5.15 1.45 M-9.7 8.3 L-9.7 12.2 -6.9 10.45 -6.9 6.55 -9.7 8.3 -9.7 4.7 Q-12.2 6.0 -15.3 6.7 L-15.3 10.3 Q-12.2 9.6 -9.7 8.3 M-6.9 10.45 L-5.15 8.95 M-6.9 2.95 L-6.9 6.55 -5.15 5.05 M-22.5 2.75 L-22.5 7.55 -15.3 6.7 -15.3 2.75 M-15.3 21.4 L-15.3 17.8 -22.5 18.65 -22.5 22.25 -15.3 21.4 Q-12.2 20.7 -9.7 19.4 L-9.7 15.8 Q-12.2 17.1 -15.3 17.8 L-15.3 14.2 -22.5 15.05 -22.5 18.65 -23.7 18.65 -29.3 18.3 -29.3 21.9 -23.7 22.25 -22.5 22.25 -22.5 25.7 M-9.7 19.4 L-6.9 17.65 -6.9 14.05 -9.7 15.8 -9.7 12.2 Q-12.2 13.5 -15.3 14.2 L-15.3 10.3 -22.5 11.15 -22.5 15.05 -23.7 15.05 -29.3 14.7 -29.3 18.3 Q-32.35 17.85 -34.9 16.85 L-34.9 20.45 Q-32.35 21.45 -29.3 21.9 L-29.3 25.7 M-6.9 17.65 L-5.15 16.15 M-5.15 12.55 L-6.9 14.05 -6.9 10.45 M-9.7 19.4 L-9.7 23.3 M-6.9 21.7 L-6.9 17.65 M-34.9 1.15 L-34.9 5.75 Q-32.35 6.75 -29.3 7.2 L-29.3 2.75 M-22.5 7.55 L-22.5 11.15 -23.7 11.15 -29.3 10.8 -29.3 14.7 Q-32.35 14.25 -34.9 13.25 L-34.9 16.85 Q-37.05 16.05 -38.9 14.85 L-38.9 18.45 Q-37.05 19.65 -34.9 20.45 L-34.9 24.1 M-22.5 7.55 L-23.7 7.55 -29.3 7.2 -29.3 10.8 Q-32.35 10.35 -34.9 9.35 L-34.9 13.25 Q-37.05 12.45 -38.9 11.25 L-38.9 14.85 -42.65 11.6 M-38.9 3.75 L-38.9 7.35 Q-37.05 8.55 -34.9 9.35 L-34.9 5.75 Q-37.05 4.95 -38.9 3.75 L-42.65 0.5 M-38.9 7.35 L-38.9 11.25 -42.65 8.0 M-38.9 21.95 L-38.9 18.45 -42.65 15.2 M-15.3 21.4 L-15.3 25.7 M-42.65 4.1 L-38.9 7.35 M-38.9 -1.0 L-38.9 3.75" fill="none" stroke="#000000" stroke-linecap="round" stroke-linejoin="round" stroke-opacity="0.3019608" stroke-width="0.5"/>
  </g>
</svg>
