<?xml version="1.0" encoding="UTF-8" standalone="no"?>
<svg xmlns:xlink="http://www.w3.org/1999/xlink" height="78.95px" width="44.25px" xmlns="http://www.w3.org/2000/svg">
  <g transform="matrix(1.0, 0.0, 0.0, 1.0, 42.85, 39.75)">
    <path d="M-9.35 2.5 Q-15.1 5.25 -23.1 5.25 -31.35 5.25 -37.35 2.5 -40.0 1.45 -41.35 0.1 L-41.35 -5.85 Q-23.85 7.4 -5.6 -5.85 L-5.6 0.6 Q-7.0 1.65 -9.35 2.5" fill="#000000" fill-opacity="0.4" fill-rule="evenodd" stroke="none"/>
    <path d="M-3.35 -5.0 Q-3.35 -1.5 -9.35 0.75 -15.1 3.5 -23.1 3.5 -31.35 3.5 -37.35 0.75 -42.85 -1.5 -42.85 -5.0 -42.85 -8.25 -37.35 -11.0 -31.35 -13.25 -23.1 -13.25 -15.1 -13.25 -9.35 -11.0 -3.35 -8.25 -3.35 -5.0" fill="url(#gradient0)" fill-rule="evenodd" stroke="none"/>
    <path d="M-3.35 -5.0 Q-3.35 -1.5 -9.35 0.75 -15.1 3.5 -23.1 3.5 -31.35 3.5 -37.35 0.75 -42.85 -1.5 -42.85 -5.0 -42.85 -8.25 -37.35 -11.0 -31.35 -13.25 -23.1 -13.25 -15.1 -13.25 -9.35 -11.0 -3.35 -8.25 -3.35 -5.0" fill="url(#gradient1)" fill-rule="evenodd" stroke="none"/>
    <path d="M-40.6 -15.75 Q-39.35 -20.25 -34.6 -22.75 L-9.6 -20.75 Q-7.35 -18.75 -5.85 -15.0 -4.35 -11.25 -5.6 -6.5 -5.85 -5.0 -8.1 -3.5 -12.35 -0.75 -21.85 -0.5 -31.85 -0.25 -37.6 -4.0 -40.6 -5.75 -41.6 -7.5 -41.85 -11.25 -40.6 -15.75" fill="url(#gradient2)" fill-rule="evenodd" stroke="none"/>
    <path d="M-23.3 -13.8 Q-29.3 -13.8 -33.8 -15.8 -38.05 -17.55 -38.05 -20.05 L-37.85 -21.1 Q-36.65 -22.2 -35.0 -23.05 L-10.0 -21.05 -8.6 -19.55 Q-9.0 -17.35 -13.05 -15.8 -17.3 -13.8 -23.3 -13.8" fill="#000000" fill-opacity="0.3019608" fill-rule="evenodd" stroke="none"/>
    <path d="M-23.1 -14.5 Q-29.1 -14.5 -33.6 -16.5 -37.85 -18.25 -37.85 -20.75 -37.85 -23.25 -33.6 -25.25 -29.1 -27.0 -23.1 -27.0 -17.1 -27.0 -12.85 -25.25 -8.35 -23.25 -8.35 -20.75 -8.35 -18.25 -12.85 -16.5 -17.1 -14.5 -23.1 -14.5" fill="url(#gradient3)" fill-rule="evenodd" stroke="none"/>
    <path d="M-23.1 -19.0 Q-27.6 -19.0 -31.1 -20.5 -34.35 -21.75 -34.35 -23.75 -34.35 -25.75 -31.1 -27.25 -27.6 -28.75 -23.1 -28.75 -18.35 -28.75 -15.1 -27.25 -11.6 -25.75 -11.6 -23.75 -11.6 -21.75 -15.1 -20.5 -18.35 -19.0 -23.1 -19.0" fill="#404040" fill-rule="evenodd" stroke="none"/>
    <path d="M-23.1 -21.25 Q-27.1 -21.25 -30.35 -22.75 -33.1 -23.75 -33.1 -25.5 -33.1 -27.5 -30.35 -28.75 -27.1 -30.0 -23.1 -30.0 -18.85 -30.0 -15.85 -28.75 -12.85 -27.5 -12.85 -25.5 -12.85 -23.75 -15.85 -22.75 -18.85 -21.25 -23.1 -21.25" fill="#2d2d2d" fill-rule="evenodd" stroke="none"/>
    <path d="M-15.6 -28.0 Q-15.6 -26.75 -17.85 -26.0 -19.85 -25.0 -23.1 -25.0 -25.85 -25.0 -28.1 -26.0 -30.35 -26.75 -30.35 -28.0 -30.35 -29.5 -28.1 -30.25 -25.85 -31.25 -23.1 -31.25 -19.85 -31.25 -17.85 -30.25 -15.6 -29.5 -15.6 -28.0" fill="#404040" fill-rule="evenodd" stroke="none"/>
    <path d="M-16.25 -31.6 L-14.8 -29.05 -12.75 -26.65 Q-11.75 -25.5 -11.45 -24.7 -10.25 -24.55 -9.2 -23.5 -8.15 -22.4 -8.15 -21.4 L-8.3 -20.25 Q-8.5 -19.4 -8.75 -19.2 -9.3 -22.15 -10.6 -22.55 -11.2 -22.75 -11.45 -23.15 L-11.5 -23.1 -11.65 -22.7 -11.6 -22.55 -11.8 -22.2 Q-12.1 -21.95 -12.5 -21.9 L-12.7 -22.8 -12.95 -23.0 -13.7 -23.85 -14.1 -23.45 -14.55 -23.45 -14.6 -23.6 -14.35 -24.35 Q-14.35 -25.1 -14.7 -25.5 L-15.45 -26.1 -16.6 -26.2 -16.7 -26.35 -16.85 -26.25 Q-17.7 -25.55 -18.45 -25.55 -18.7 -25.55 -18.8 -25.65 L-18.15 -26.75 Q-17.9 -27.2 -17.9 -27.65 L-18.1 -28.5 -18.15 -28.7 -19.55 -28.9 -20.1 -29.1 -23.35 -29.15 -23.45 -29.2 -26.45 -29.2 Q-26.5 -28.7 -27.2 -27.9 L-27.85 -27.2 -27.8 -26.65 -27.1 -25.8 Q-27.1 -25.6 -27.35 -25.55 -28.05 -25.65 -29.2 -26.45 -30.5 -26.2 -31.15 -25.75 L-32.35 -24.85 -32.4 -24.8 -32.45 -24.95 -32.4 -25.15 -32.55 -25.1 -32.45 -24.6 -32.55 -24.5 Q-33.15 -24.55 -33.15 -25.55 -33.15 -26.8 -32.75 -27.25 -32.05 -28.05 -31.5 -29.8 L-30.75 -30.7 Q-30.05 -31.2 -29.9 -31.65 -29.2 -33.1 -28.6 -33.45 L-19.95 -33.35 Q-17.45 -32.95 -16.25 -31.6 M-28.1 -26.9 L-28.05 -26.8 -28.05 -27.0 -28.1 -26.9 M-14.05 -24.05 L-13.95 -24.2 -14.0 -24.35 -14.05 -24.05" fill="#000000" fill-opacity="0.4" fill-rule="evenodd" stroke="none"/>
    <path d="M-12.1 -32.7 L-13.1 -34.25 -34.85 -33.75 -33.6 -39.75 -12.4 -39.75 -12.1 -32.7" fill="#6f8f50" fill-rule="evenodd" stroke="none"/>
    <path d="M-12.4 -39.75 L-12.35 -39.75 0.15 -21.75 1.4 -13.25 0.4 11.0 -0.85 -14.5 -12.1 -32.7 -12.4 -39.75" fill="#546b3d" fill-rule="evenodd" stroke="none"/>
    <path d="M-27.85 -31.25 L-29.35 -28.25 -35.1 -28.25 -34.85 -34.5 -11.85 -34.25 1.4 -13.25 0.9 10.25 -1.1 18.5 -2.35 19.5 -1.6 11.0 -2.1 -12.5 -9.35 -26.0 -14.1 -26.0 -18.1 -30.75 -27.85 -31.25" fill="url(#gradient4)" fill-rule="evenodd" stroke="none"/>
    <path d="M-12.3 -32.2 L-12.4 -31.95 -12.5 -32.25 -12.3 -32.2 M-15.4 -32.8 L-14.9 -32.8 -15.2 -32.6 -14.65 -32.45 -15.4 -32.45 -15.4 -32.8 M-12.25 -27.65 L-12.8 -27.65 -12.85 -27.85 -12.8 -28.05 -12.15 -27.75 -12.25 -27.65 M-31.1 -30.35 L-31.8 -29.95 -31.9 -30.15 -31.2 -30.6 -31.1 -30.35 M-29.6 -35.4 L-27.9 -36.65 Q-26.75 -37.4 -26.45 -37.35 L-29.55 -35.35 -29.6 -35.4 M-29.25 -36.65 L-28.3 -37.05 Q-28.4 -36.95 -28.8 -36.75 L-29.25 -36.65 M-26.9 -26.3 L-27.05 -26.7 -26.85 -26.7 -26.8 -26.5 -26.9 -26.3 M-28.0 -24.0 L-27.95 -23.75 -28.2 -23.6 -28.5 -23.9 -28.35 -24.25 -28.0 -24.0 M-27.0 -18.2 L-26.95 -17.95 -27.35 -16.65 -27.35 -16.6 -27.4 -16.75 -27.2 -17.5 -27.05 -18.2 -27.0 -18.2 M-35.0 -23.25 L-35.2 -21.55 -35.45 -19.7 -35.55 -19.7 -35.55 -20.45 Q-35.1 -22.15 -35.15 -23.6 L-35.05 -23.6 -35.0 -23.25 M-34.9 -20.15 L-35.0 -20.35 -34.6 -22.7 -34.5 -22.7 Q-34.55 -21.75 -34.9 -20.15 M-36.6 -16.7 L-36.75 -16.55 -36.9 -16.8 -36.6 -16.7 M-39.0 -17.45 L-38.85 -17.4 -38.8 -17.2 Q-38.8 -16.95 -39.1 -16.8 L-39.25 -16.8 -39.3 -17.1 -39.3 -17.4 -39.0 -17.45 M-36.55 -14.95 Q-36.55 -14.6 -37.35 -14.6 L-37.4 -14.6 -37.45 -14.75 Q-37.35 -15.35 -36.7 -15.25 L-36.55 -14.95 M-33.4 -17.75 L-33.45 -17.7 -33.75 -18.25 -33.65 -18.25 -33.4 -17.75 M-38.8 -11.15 L-39.15 -11.3 -39.15 -11.65 -38.55 -11.5 -38.8 -11.15 M-9.05 -15.6 Q-9.35 -14.6 -10.25 -12.95 L-11.75 -10.25 -11.85 -10.2 -10.45 -12.8 Q-9.55 -14.45 -9.15 -15.6 L-9.05 -15.6 M-12.65 -11.55 L-11.7 -12.9 Q-13.65 -9.35 -16.3 -6.65 L-16.3 -6.6 -16.35 -6.75 -15.25 -8.05 -13.65 -9.9 -12.65 -11.55 M-11.2 -10.0 L-10.15 -11.2 Q-10.95 -9.8 -12.1 -8.55 L-11.2 -10.0 M-4.9 -4.5 L-4.95 -3.8 -5.0 -3.75 -5.1 -3.8 -5.1 -5.2 -4.95 -5.2 -4.9 -4.5 M-9.05 11.1 L-10.0 13.45 -10.1 13.45 -9.65 12.15 -9.05 11.1 M-9.8 10.35 L-9.9 10.4 Q-9.1 7.1 -7.95 4.95 L-9.8 10.35 M-11.05 18.4 L-10.7 18.45 -10.65 18.55 -10.85 18.6 -11.05 18.55 -11.05 18.4 M-12.65 17.8 L-12.65 17.25 Q-12.35 17.0 -12.1 17.05 -11.8 17.1 -11.8 17.45 -11.8 17.85 -12.25 17.85 L-12.65 17.8 M-9.2 17.65 L-9.45 17.7 -9.5 17.45 -9.45 17.1 -9.3 17.1 -9.2 17.65 M-9.75 16.85 L-10.05 17.0 -10.2 16.65 -9.8 16.65 -9.75 16.85 M-7.05 16.85 L-7.45 17.0 -7.6 16.8 Q-7.45 16.55 -7.2 16.55 L-7.05 16.85 M-38.65 11.85 L-38.7 11.55 -38.6 11.5 -38.4 11.55 -38.65 11.85 M-32.95 13.8 Q-32.75 13.8 -32.65 13.9 L-32.8 14.05 -32.95 13.8 M-32.35 18.15 L-32.5 18.3 -32.55 17.9 -32.4 17.9 -32.35 18.15 M-38.75 14.95 L-38.6 15.25 -38.85 15.45 -39.2 15.3 Q-39.2 15.05 -39.0 14.95 L-38.75 14.95 M-31.45 20.25 L-31.4 20.45 -31.45 20.7 -31.55 20.75 -31.7 20.35 -31.55 20.25 -31.45 20.25 M-31.0 21.45 Q-30.65 21.3 -30.0 22.05 L-30.75 22.6 -31.75 22.25 -31.0 21.45 M-26.35 13.9 L-26.75 13.65 -26.35 13.3 Q-26.15 13.35 -26.15 13.75 L-26.35 13.9 M-28.95 15.35 Q-28.95 15.05 -28.65 15.35 L-28.85 15.55 -28.95 15.35 M-26.15 20.1 Q-25.85 20.2 -25.85 20.8 L-25.9 21.15 -26.15 21.25 -26.45 20.6 -26.15 20.1 M-29.55 31.7 L-29.65 31.7 -29.4 31.25 -29.35 31.4 -29.55 31.7 M-21.65 36.7 L-21.7 36.7 Q-21.25 35.15 -20.85 35.05 L-21.15 35.9 -21.65 36.7 M-38.85 25.9 L-38.8 26.15 -38.85 26.45 -38.9 26.55 -39.25 26.55 -39.35 26.2 -39.3 25.9 -38.85 25.9 M-37.3 30.25 L-35.1 36.0 -35.25 36.05 -36.45 33.15 -37.4 30.25 -37.3 30.25 M-36.05 30.8 L-34.45 35.35 Q-35.85 32.45 -36.15 30.8 L-36.05 30.8 M-37.55 33.3 L-37.15 34.15 -36.85 33.9 -37.1 34.35 -36.9 34.9 -36.95 34.95 -37.2 34.5 -37.55 34.85 -37.65 34.75 -37.3 34.35 -37.65 33.4 -37.65 33.3 -37.55 33.35 -37.55 33.3 M-33.3 38.4 L-33.35 38.2 -32.9 37.7 -33.3 38.4 M-8.75 27.8 L-8.85 27.7 -8.85 26.55 -8.75 26.55 -8.75 27.8 M-8.6 26.55 L-8.5 26.55 -8.35 27.9 -8.55 27.9 -8.6 27.7 -8.6 26.55 M-7.2 29.65 L-7.25 29.9 -7.4 29.95 -7.6 29.65 -7.5 29.45 -7.4 29.35 -7.2 29.65 M-9.0 31.8 L-8.7 31.9 -8.85 32.05 -9.0 31.8 M-9.05 33.2 L-9.0 33.2 -8.8 34.1 -8.8 34.55 -8.9 34.6 Q-8.9 34.15 -9.05 33.95 L-9.05 33.2 M-10.05 32.3 L-10.2 32.35 -10.35 32.3 -10.05 32.2 -10.05 32.3 M-14.4 29.6 L-14.0 28.45 -13.55 27.45 -14.3 29.55 -14.4 29.6 M-14.75 29.25 L-14.55 28.5 -14.4 28.5 -14.6 29.2 -14.75 29.25 M-10.25 31.7 L-10.2 31.9 -10.25 32.05 -10.4 32.05 -10.6 31.65 -10.4 31.65 -10.25 31.7 M-10.4 32.5 L-10.35 32.75 -10.55 33.0 -10.95 32.65 -10.7 32.55 -10.7 32.4 -10.55 32.45 -10.55 32.4 Q-10.45 32.4 -10.4 32.5 M-11.5 31.5 L-11.3 31.9 -11.5 32.0 -11.75 31.8 -11.5 31.5 M-10.6 35.7 L-10.7 36.05 -10.8 36.1 -11.1 35.65 -11.0 35.45 -10.8 35.4 -10.6 35.7" fill="#000000" fill-opacity="0.2" fill-rule="evenodd" stroke="none"/>
    <path d="M-11.3 -31.15 L-11.15 -30.6 Q-11.15 -30.1 -11.45 -30.1 L-12.45 -31.35 Q-12.45 -31.7 -11.7 -32.05 L-11.25 -31.9 -11.1 -31.65 -11.3 -31.15 M-19.75 -26.25 L-19.75 -25.9 -20.25 -25.9 -20.3 -26.0 -20.0 -26.25 -19.75 -26.25 M-10.2 -29.8 L-10.4 -29.45 -10.85 -29.65 -10.9 -29.95 -10.65 -30.35 -10.2 -29.8 M-33.45 -32.8 L-33.7 -32.85 -33.85 -33.4 Q-33.85 -33.65 -33.4 -33.65 L-33.0 -33.3 Q-33.0 -32.8 -33.45 -32.8 M-26.1 -26.55 L-26.35 -27.15 Q-26.35 -27.5 -25.75 -27.35 -25.2 -27.2 -25.15 -26.75 L-25.05 -26.75 -25.05 -26.55 -25.15 -26.5 -25.2 -26.5 -25.25 -26.45 -25.25 -26.2 -25.35 -25.85 -25.6 -25.95 -25.6 -26.25 -26.1 -26.3 -26.1 -26.55 M-24.35 -26.2 Q-23.95 -26.2 -23.95 -25.9 L-24.3 -25.65 -24.65 -25.65 -24.65 -26.2 -24.35 -26.2 M-36.1 -14.05 Q-36.1 -15.15 -35.45 -14.1 -35.45 -13.8 -35.9 -13.8 L-36.1 -14.05 M-33.15 -11.0 L-32.95 -11.2 -32.75 -11.05 Q-32.75 -10.8 -33.0 -10.8 L-33.15 -11.0 M-32.95 -6.7 L-32.7 -6.7 -32.7 -6.15 -32.85 -6.05 -32.7 -5.05 Q-32.7 -4.65 -32.9 -4.55 L-33.5 -4.55 Q-33.95 -4.55 -34.55 -4.9 L-34.65 -4.8 -35.1 -5.05 -35.25 -5.3 -35.2 -5.4 -35.45 -5.9 -35.65 -6.1 -35.55 -6.35 -35.65 -6.65 -35.15 -7.25 -34.45 -7.85 Q-34.1 -8.2 -33.6 -8.05 L-33.05 -7.55 -32.95 -6.7 M-32.1 -6.3 L-32.2 -6.2 -32.05 -6.1 -32.05 -6.25 -32.1 -6.3 M-32.05 -6.7 Q-31.5 -6.5 -31.5 -5.95 -31.5 -5.65 -31.9 -5.65 L-32.45 -5.9 -32.6 -6.2 Q-32.6 -6.9 -32.05 -6.7 M-32.35 -8.25 L-32.5 -8.35 -32.5 -8.75 -32.45 -8.8 Q-32.1 -8.7 -32.1 -8.55 L-32.35 -8.25 M-35.65 -9.95 L-35.35 -9.4 -35.55 -9.15 -35.8 -9.2 -35.9 -9.4 -35.9 -9.95 -35.65 -9.95 M-39.65 -9.95 L-40.1 -9.95 -40.15 -10.6 Q-40.15 -10.95 -39.7 -10.9 -39.3 -10.8 -39.3 -10.3 L-39.65 -9.95 M-37.65 -6.35 L-37.9 -6.0 -38.05 -5.8 -38.7 -6.35 Q-37.85 -7.5 -37.85 -6.5 L-37.65 -6.35 M-35.5 -3.75 L-35.15 -4.05 Q-34.0 -4.0 -34.0 -3.45 L-34.15 -3.35 -34.6 -3.15 -34.95 -3.15 -35.1 -3.25 -35.15 -3.2 Q-35.25 -3.1 -35.4 -3.1 -35.7 -3.1 -35.7 -3.45 L-35.5 -3.75 M-8.55 -17.1 L-8.7 -17.05 -8.95 -17.25 Q-8.7 -17.5 -8.55 -17.25 L-8.55 -17.1 M-8.15 -14.6 Q-8.15 -14.15 -8.4 -14.15 -8.65 -14.15 -8.75 -14.35 L-8.9 -14.75 -8.3 -14.95 -8.15 -14.6 M-9.05 -13.05 Q-8.65 -13.2 -8.65 -12.8 L-9.0 -12.35 -9.2 -12.55 -9.1 -12.75 -9.05 -13.05 M-7.35 -15.15 Q-8.25 -15.15 -8.15 -15.75 -8.15 -16.5 -7.15 -15.85 L-7.15 -15.2 -7.35 -15.15 M-7.45 -13.95 L-7.45 -14.25 -7.3 -14.35 -7.25 -14.25 -7.25 -14.0 -7.3 -13.95 -7.45 -13.95 M-6.35 -13.5 L-6.5 -13.35 -6.75 -13.45 -6.75 -13.6 -6.4 -13.6 -6.35 -13.5 M-14.7 -21.65 L-14.55 -21.45 -14.8 -21.15 -15.55 -21.15 -15.6 -21.3 -15.4 -21.6 -15.05 -21.8 -14.7 -21.65 M-7.65 -8.65 L-7.5 -8.85 -7.4 -8.7 -7.45 -8.5 -7.6 -8.5 -7.65 -8.65 M-5.8 -8.6 L-6.15 -9.0 -5.85 -9.3 Q-5.55 -9.25 -5.55 -8.9 -5.55 -8.6 -5.8 -8.6 M-7.0 -6.65 L-6.6 -6.75 -6.25 -6.5 -6.2 -6.3 Q-6.2 -5.95 -6.7 -5.75 L-6.95 -5.75 -7.3 -6.3 -7.3 -6.7 -7.0 -6.65 M-9.7 3.8 L-9.75 4.2 Q-9.8 4.55 -10.0 4.55 -10.45 4.55 -10.45 4.05 -10.45 3.45 -9.75 3.6 L-9.7 3.8 M-9.6 11.05 L-9.75 11.75 Q-9.9 12.3 -10.0 12.3 -10.6 12.3 -10.6 11.85 L-9.75 10.85 -9.6 11.05 M-15.45 14.15 L-15.65 14.25 -15.9 13.95 -15.55 13.65 -15.25 13.9 -15.45 14.15 M-5.7 18.7 L-5.65 18.6 -5.1 18.8 -4.9 19.15 Q-4.9 19.55 -5.3 19.55 -5.7 19.55 -5.7 18.7 M-10.05 23.35 L-9.7 22.65 -9.1 22.7 Q-8.75 22.9 -8.75 23.05 -8.75 23.6 -9.4 23.6 L-10.05 23.35 M-8.55 22.4 Q-8.55 21.95 -8.1 21.65 L-7.65 22.2 Q-7.65 22.45 -7.8 22.5 L-8.4 22.65 -8.55 22.4 M-6.8 22.75 L-7.1 22.75 -7.15 22.6 -6.85 22.2 Q-6.55 22.0 -6.55 22.35 L-6.8 22.75 M-39.6 20.75 L-39.45 21.75 Q-39.45 22.4 -39.7 22.4 -40.35 22.4 -41.4 20.8 L-41.15 20.55 -40.75 20.35 Q-40.75 19.8 -40.35 19.8 L-39.95 20.1 Q-39.6 20.45 -39.6 20.75 M-38.0 22.35 L-38.0 22.7 -38.5 22.85 -38.9 22.25 Q-38.9 21.65 -38.0 22.35 M-36.75 23.8 L-36.95 23.9 -37.1 23.7 -37.05 23.45 -36.8 23.45 -36.75 23.8 M-34.7 21.85 L-34.9 21.4 Q-34.9 20.5 -34.35 20.5 L-34.0 21.0 -34.05 21.25 -34.5 21.25 -34.7 21.85 M-22.15 13.65 L-21.45 14.15 -21.35 14.7 -21.55 14.95 -22.25 15.15 -22.5 13.95 -22.15 13.65 M-34.6 29.25 L-34.2 30.25 -34.2 30.45 -34.8 30.55 -35.65 30.35 -35.75 29.85 -36.05 29.05 -35.7 28.55 Q-35.3 28.1 -35.05 28.1 -34.7 28.1 -34.5 28.45 L-34.35 28.75 -34.6 29.25 M-33.65 30.4 L-33.7 30.65 -33.75 30.7 -34.1 30.25 Q-33.95 29.8 -33.65 30.05 L-33.65 30.4 M-35.7 32.65 L-36.15 32.5 -36.25 32.2 -35.75 32.0 Q-35.45 32.05 -35.45 32.4 L-35.7 32.65 M-8.95 31.8 L-9.15 32.15 -9.4 31.9 -9.25 31.65 -9.0 31.7 -8.95 31.8 M-8.4 33.45 L-8.4 33.75 -8.65 33.9 Q-9.05 33.9 -8.95 33.45 -8.95 32.95 -8.65 33.0 -8.4 33.0 -8.4 33.45 M-9.7 36.0 L-10.65 36.1 -10.8 36.1 -10.8 35.8 -10.25 35.2 -9.85 35.45 -9.55 35.8 -9.7 36.0 M-13.1 33.75 L-14.6 36.25 -14.65 36.15 -14.05 35.15 -13.2 33.7 -13.1 33.75 M-15.0 35.8 L-16.2 37.5 -12.45 30.95 -14.05 33.95 -15.0 35.8 M-41.0 19.35 L-41.15 19.5 Q-41.65 19.5 -41.85 18.9 -41.85 18.45 -41.4 18.6 -41.0 18.8 -41.0 19.2 L-41.0 19.35" fill="#000000" fill-opacity="0.3019608" fill-rule="evenodd" stroke="none"/>
    <path d="M0.05 -12.15 L-0.1 -12.25 -0.25 -12.45 Q-0.15 -12.85 0.2 -12.35 L0.05 -12.15 M0.0 -10.65 L-0.1 -10.6 -0.3 -10.85 -0.1 -11.0 0.05 -10.75 0.0 -10.65 M-14.2 -35.6 Q-14.6 -35.6 -14.7 -36.05 L-14.25 -36.25 -13.8 -36.0 Q-13.8 -35.6 -14.2 -35.6 M-21.0 -20.05 L-20.7 -20.3 -20.05 -20.65 -20.0 -20.25 -19.5 -20.2 -19.35 -20.2 -19.3 -19.9 -19.55 -19.7 -20.55 -19.7 -20.85 -19.85 -21.3 -19.8 -21.0 -20.05 M-24.65 -20.3 L-24.6 -20.1 -24.65 -19.9 -25.45 -19.9 -25.5 -20.1 Q-25.5 -20.5 -24.95 -20.5 -24.75 -20.5 -24.65 -20.3 M-28.85 -21.25 L-28.55 -21.1 -28.55 -20.95 -28.75 -20.9 -29.05 -20.95 -29.2 -21.15 -28.85 -21.25 M-25.95 -20.45 L-25.9 -20.35 Q-26.05 -20.2 -26.25 -20.2 L-26.45 -20.25 -26.55 -20.4 -26.55 -20.65 -25.95 -20.45 M-25.8 -15.55 L-25.75 -15.4 Q-25.8 -15.25 -26.1 -15.25 -26.6 -15.25 -26.5 -15.45 L-26.35 -15.6 -25.8 -15.55 M-27.2 -15.6 L-27.4 -15.65 -27.25 -15.85 -27.15 -15.8 -27.1 -15.7 -27.2 -15.6 M-22.4 -16.65 L-22.1 -16.5 Q-21.95 -16.35 -21.8 -16.35 -21.4 -17.05 -20.95 -17.0 L-20.15 -16.3 -20.05 -16.35 -20.25 -16.45 -20.25 -16.85 Q-19.3 -17.2 -19.1 -16.7 L-18.7 -16.9 -18.65 -16.8 Q-18.65 -16.55 -18.85 -16.6 L-19.1 -16.6 -19.1 -16.5 Q-19.1 -16.1 -19.35 -16.05 L-19.35 -15.9 -19.65 -15.5 -20.0 -15.35 -20.55 -15.45 -20.6 -15.7 -20.5 -16.05 -21.65 -15.75 Q-22.25 -15.75 -22.65 -16.35 L-22.65 -16.55 -22.4 -16.65 M-30.5 -22.0 L-30.5 -21.9 -30.8 -21.95 -30.7 -22.1 -30.5 -22.0 M-34.85 -18.7 L-34.8 -18.55 -35.05 -18.5 -35.1 -18.75 -34.95 -18.9 -34.85 -18.7 M-33.3 -17.35 L-33.4 -17.3 -33.8 -17.55 -33.5 -17.75 -33.25 -17.5 -33.3 -17.35 M-34.0 -1.2 Q-33.25 1.0 -32.35 1.9 -33.05 1.35 -33.45 0.4 L-34.05 -1.2 -34.0 -1.2 M-1.75 -21.05 L-1.45 -20.85 -1.35 -21.1 Q-0.95 -21.0 -0.9 -20.5 L-0.95 -20.3 -1.45 -20.3 -1.9 -20.75 -1.9 -21.0 -1.75 -21.05 M-1.1 -14.3 Q-0.9 -14.3 -0.8 -14.1 L-0.8 -13.0 -0.9 -12.95 -1.15 -13.15 -1.15 -13.45 Q-1.7 -13.5 -1.7 -13.8 -1.7 -14.2 -1.4 -14.25 L-1.65 -14.6 -1.6 -14.8 Q-1.1 -14.85 -1.1 -14.5 L-1.1 -14.3 M-11.75 -18.6 L-12.15 -18.45 -12.45 -18.65 -12.65 -18.55 -12.8 -18.65 Q-12.8 -19.65 -11.55 -18.85 L-11.75 -18.6 M-10.9 -19.2 L-10.9 -19.05 -11.05 -19.0 -11.2 -19.05 -11.05 -19.25 -10.9 -19.2 M-10.15 -19.8 L-10.1 -19.7 -10.25 -19.55 -10.55 -19.55 -10.15 -19.8 M-18.9 -20.0 L-18.95 -20.05 -18.3 -20.25 Q-18.4 -19.95 -18.7 -19.95 L-18.9 -20.0 M-15.9 -17.25 L-15.5 -17.45 -15.0 -17.3 -15.0 -17.25 Q-15.05 -17.1 -15.35 -17.1 L-15.9 -17.25 M-16.5 -17.3 Q-16.35 -17.45 -16.35 -17.1 L-16.65 -16.85 -16.95 -16.2 -17.15 -16.05 -17.35 -16.2 -17.4 -16.5 -17.15 -17.05 -16.5 -17.3 M-19.2 -17.35 Q-19.2 -17.15 -19.35 -17.0 L-19.6 -17.3 -19.2 -17.35 M-19.05 -16.35 L-18.45 -16.35 -18.35 -16.2 Q-18.55 -15.9 -18.95 -15.9 L-19.2 -16.1 -19.05 -16.35 M-18.0 -16.65 L-18.3 -16.55 -18.45 -16.65 -18.15 -16.7 -18.0 -16.65 M-17.95 -16.1 L-17.75 -16.25 -17.7 -16.15 Q-17.7 -15.85 -17.9 -15.85 L-18.05 -15.85 -18.1 -15.95 -17.95 -16.1 M-11.4 -15.95 L-11.0 -16.05 -10.9 -15.25 Q-10.9 -15.0 -11.15 -15.0 L-11.5 -15.1 -11.95 -15.6 -11.4 -15.7 -11.4 -15.95 M-12.7 -14.85 L-12.5 -15.15 -12.05 -15.4 -12.05 -15.15 -12.15 -14.8 -12.3 -14.7 -12.6 -14.7 -12.45 -14.5 -12.65 -13.9 Q-12.85 -13.55 -13.2 -13.55 -13.55 -13.55 -13.8 -13.9 L-14.0 -14.45 -14.0 -14.9 -13.25 -15.1 -12.7 -14.85 M-11.55 -14.25 L-11.5 -14.05 -11.7 -13.9 -11.9 -13.95 -11.95 -14.05 -11.55 -14.25 M-10.7 -13.55 L-10.75 -13.35 -10.9 -13.3 -11.05 -13.45 -10.75 -13.7 -10.7 -13.55 M-10.6 -0.15 L-10.55 -0.05 -10.6 0.05 -10.8 0.05 -10.7 -0.2 -10.6 -0.15 M-9.55 -1.5 L-9.2 -1.5 -8.85 -1.0 -8.65 -0.65 Q-8.65 -0.25 -9.4 -0.15 L-9.6 -0.25 -9.55 -0.45 -9.75 -1.3 -9.55 -1.5 M-8.2 -0.85 L-8.6 -0.8 -8.7 -0.95 -8.2 -1.05 -8.2 -0.85 M-7.75 -1.15 L-8.05 -1.2 -8.15 -1.3 -7.95 -1.45 -7.65 -1.45 -7.6 -1.25 -7.75 -1.15 M-8.45 9.8 L-8.75 10.1 -9.0 10.05 Q-8.85 9.8 -8.55 9.75 L-8.45 9.8 M-11.75 0.6 L-11.9 0.65 -12.05 0.45 Q-12.05 0.15 -11.75 0.3 L-11.75 0.6 M-13.45 0.8 L-13.5 0.8 -13.4 1.1 -14.05 1.25 -14.25 1.05 -14.25 1.0 -14.3 1.05 -14.9 1.3 -15.45 0.6 Q-15.45 0.15 -14.65 0.15 L-14.0 0.35 -13.9 0.55 -13.95 0.75 -13.9 0.9 -13.6 0.65 -12.9 0.55 -12.7 0.65 -12.7 0.75 -13.45 0.8 M-17.15 1.85 Q-17.7 1.85 -18.1 1.0 L-17.7 0.65 -17.35 0.75 -17.1 0.5 -16.85 0.9 -16.6 1.3 -16.8 1.6 -17.15 1.85 M-18.7 1.6 L-19.1 1.8 -19.3 1.75 -19.25 1.55 -18.8 1.45 -18.7 1.6 M-16.0 8.9 L-16.35 9.0 -17.15 7.65 Q-16.15 7.15 -15.75 7.25 L-15.7 7.35 -15.8 7.55 -15.7 8.0 Q-15.7 8.7 -16.0 8.9 L-15.75 9.35 -15.95 9.45 -16.2 9.2 -16.0 8.9 M-17.8 12.1 L-17.8 11.95 -17.95 11.95 -17.8 12.1 M-18.3 11.55 L-17.9 11.45 -17.5 11.45 Q-17.2 11.55 -17.2 11.8 L-17.45 12.25 -17.9 12.55 Q-18.2 12.55 -18.45 11.8 L-18.3 11.55 M-13.1 8.9 L-13.4 9.05 Q-13.75 9.05 -13.75 8.6 -13.75 8.15 -13.3 8.25 -12.9 8.35 -12.9 8.6 L-13.1 8.9 M-11.15 10.05 L-10.8 9.95 -10.65 10.05 -10.7 10.25 -11.1 10.25 -11.15 10.05 M-11.6 10.8 L-11.55 11.05 -11.7 11.55 -12.15 12.15 -12.15 11.65 -12.1 11.3 -12.15 11.3 -12.5 11.15 -12.05 10.8 -12.0 10.9 -11.85 10.7 -11.6 10.8 M-10.8 13.8 L-11.1 13.95 -11.45 14.0 -11.55 13.7 -11.45 13.5 -11.4 13.5 -10.8 13.65 -10.8 13.8 M-11.6 14.45 L-11.4 14.45 -11.4 14.4 -11.3 14.35 -11.25 14.55 -11.25 15.4 -11.55 15.45 -12.45 15.05 -12.5 14.7 -11.6 14.45 -13.7 14.6 -13.85 14.5 Q-13.85 14.35 -12.95 14.1 L-11.75 13.8 -11.6 13.95 -11.6 14.45 M-15.8 15.0 L-16.0 15.5 -15.85 15.65 -15.85 16.5 -16.15 16.5 -16.35 16.0 -16.7 16.15 -16.9 16.1 -16.95 15.95 -16.85 15.85 -16.85 15.65 -16.85 15.55 -17.25 15.7 -17.55 15.55 -16.75 15.1 -15.85 14.9 -15.8 15.0 M-16.4 15.35 L-16.35 15.6 -16.3 15.55 -16.3 15.3 -16.4 15.35 M-16.5 16.8 L-16.5 16.95 -16.65 17.05 -16.85 17.0 -16.9 16.9 -16.65 16.65 -16.5 16.8 M-16.05 20.1 L-16.05 20.2 -16.3 20.3 -16.45 20.2 -16.15 19.75 -16.05 20.1 M-20.35 1.5 L-20.35 1.85 -20.55 1.85 -20.95 2.1 -21.35 1.75 -21.2 1.5 Q-21.0 1.6 -21.05 1.75 L-20.8 1.75 -20.65 1.65 -20.6 1.7 -20.6 1.4 -20.5 1.35 -20.35 1.5 M-22.65 1.8 L-22.85 1.95 -23.1 1.8 Q-22.95 1.6 -22.7 1.65 L-22.65 1.8 M-24.65 1.25 L-24.7 1.55 -25.1 1.55 -25.3 1.5 -25.35 1.25 -24.7 1.1 -24.65 1.25 M-30.0 1.65 L-28.95 1.85 -29.15 1.25 -29.1 1.25 -28.8 1.85 -28.15 1.95 -27.95 2.05 -28.75 1.9 -28.5 2.5 -28.6 2.5 -28.9 1.9 -30.8 1.55 -30.75 1.5 -30.15 1.55 -30.0 1.65 M-23.25 10.15 Q-23.25 10.5 -23.55 10.5 -24.25 10.5 -24.1 10.0 -24.1 9.55 -23.65 9.65 -23.25 9.75 -23.25 10.15 M-21.55 12.2 L-21.6 12.85 -21.9 12.85 -22.2 12.15 Q-22.2 11.75 -21.85 11.9 L-21.85 11.6 -21.6 11.6 -21.55 12.2 M-20.35 11.75 Q-20.35 12.05 -20.5 12.05 L-20.75 11.95 -20.7 11.65 -20.4 11.6 -20.35 11.75 M-31.0 1.9 Q-31.45 1.6 -31.9 0.45 L-31.85 0.45 -31.0 1.9 M-34.1 10.6 Q-32.5 12.15 -31.65 13.9 L-34.15 10.6 -34.1 10.6 M-31.9 12.2 L-31.55 12.7 -31.95 12.2 -31.9 12.2 M-25.25 16.75 L-25.4 16.6 -25.35 16.55 -25.25 16.75 M-20.8 26.45 L-21.65 26.4 -21.65 26.1 -20.8 26.35 -20.8 26.45 M-21.4 30.45 L-21.3 30.4 -20.25 30.55 -20.1 30.85 -20.3 31.15 -21.05 31.3 Q-21.5 31.3 -21.5 30.6 L-21.4 30.45 M-27.4 31.75 L-28.1 35.1 -26.9 37.35 -28.1 35.15 -28.85 38.4 -28.9 38.4 -28.2 35.0 -29.45 32.35 -29.4 32.35 -28.2 35.0 -27.45 31.75 -27.4 31.75 M-27.75 37.8 L-27.95 38.4 -28.0 38.3 -27.85 37.6 -27.8 37.6 -27.75 37.8 M-25.9 39.1 L-26.0 39.2 -25.7 38.65 -25.9 39.1 M-12.3 24.85 Q-12.15 24.45 -11.8 24.7 L-12.1 24.9 -12.3 24.85 M-13.6 25.05 L-14.0 25.3 -14.15 25.05 -13.95 24.85 -13.45 24.65 -13.2 24.8 -12.95 24.7 Q-12.75 24.7 -12.7 24.85 L-12.7 24.95 Q-12.7 25.3 -13.2 25.3 L-13.6 25.05 M-14.3 24.9 L-14.75 24.95 -14.8 24.75 Q-14.85 24.5 -14.3 24.6 L-14.25 24.75 -14.3 24.9 M-16.15 25.9 L-16.55 25.4 -15.95 24.7 -15.45 25.1 -15.15 25.5 -15.6 25.9 -16.15 25.9 M-15.9 25.35 L-15.9 25.3 -16.0 25.3 -16.0 25.5 -15.85 25.4 -15.9 25.35 M-17.25 25.2 L-17.1 25.55 -17.6 25.7 -17.85 25.85 -18.25 26.0 Q-18.8 26.0 -18.8 25.7 L-18.75 25.55 -18.55 25.5 -18.3 25.6 Q-17.9 25.6 -17.7 25.3 L-17.4 24.9 -17.25 25.2 M-16.5 31.7 L-16.85 32.15 -17.2 31.9 -16.9 31.7 -16.55 31.6 -16.5 31.7 M-16.55 33.45 L-16.55 33.55 -16.8 33.6 -16.85 33.4 -16.75 33.4 -16.55 33.45 M-15.7 33.6 L-15.85 33.6 -15.9 33.3 -15.05 32.55 -15.0 32.7 -15.15 33.15 -15.6 33.45 -15.7 33.6" fill="#ffffff" fill-opacity="0.2" fill-rule="evenodd" stroke="none"/>
  </g>
  <defs>
    <linearGradient gradientTransform="matrix(0.0241, 0.0, 0.0, 0.0102, -23.1, -4.9)" gradientUnits="userSpaceOnUse" id="gradient0" spreadMethod="pad" x1="-819.2" x2="819.2">
      <stop offset="0.0" stop-color="#8c8c8c"/>
      <stop offset="0.7450980392156863" stop-color="#c3c3c3"/>
      <stop offset="1.0" stop-color="#8b8b8b"/>
    </linearGradient>
    <linearGradient gradientTransform="matrix(0.0241, 0.0, 0.0, 0.0102, -23.1, -4.9)" gradientUnits="userSpaceOnUse" id="gradient1" spreadMethod="pad" x1="-819.2" x2="819.2">
      <stop offset="0.0" stop-color="#374527"/>
      <stop offset="0.7647058823529411" stop-color="#6d924e"/>
      <stop offset="1.0" stop-color="#374527"/>
    </linearGradient>
    <linearGradient gradientTransform="matrix(0.0223, 0.0, 0.0, 0.0136, -23.35, -11.65)" gradientUnits="userSpaceOnUse" id="gradient2" spreadMethod="pad" x1="-819.2" x2="819.2">
      <stop offset="0.0" stop-color="#26301b"/>
      <stop offset="0.6627450980392157" stop-color="#5b7840"/>
      <stop offset="1.0" stop-color="#2e3920"/>
    </linearGradient>
    <linearGradient gradientTransform="matrix(0.0117, -0.007, 0.0039, 0.0065, -23.1, -20.75)" gradientUnits="userSpaceOnUse" id="gradient3" spreadMethod="pad" x1="-819.2" x2="819.2">
      <stop offset="0.0" stop-color="#374527"/>
      <stop offset="0.6627450980392157" stop-color="#5b7840"/>
      <stop offset="1.0" stop-color="#374527"/>
    </linearGradient>
    <linearGradient gradientTransform="matrix(-0.0041, -0.0298, 0.0326, -0.0045, -16.85, -7.5)" gradientUnits="userSpaceOnUse" id="gradient4" spreadMethod="pad" x1="-819.2" x2="819.2">
      <stop offset="0.0" stop-color="#3c4e2b"/>
      <stop offset="1.0" stop-color="#3f522d"/>
    </linearGradient>
  </defs>
</svg>
