<?xml version="1.0" encoding="UTF-8" standalone="no"?>
<svg xmlns:xlink="http://www.w3.org/1999/xlink" height="65.2px" width="90.55px" xmlns="http://www.w3.org/2000/svg">
  <g transform="matrix(1.0, 0.0, 0.0, 1.0, -59.45, 18.85)">
    <path d="M60.1 -12.8 L60.1 -18.2 93.0 -18.2 93.0 -12.8 60.1 -12.8 M143.85 45.7 L143.85 26.3 149.25 26.3 149.25 45.7 143.85 45.7 M149.25 26.2 L143.85 26.2 143.85 24.15 149.25 24.15 149.25 26.2" fill="#950505" fill-rule="evenodd" stroke="none"/>
    <path d="M60.1 -12.8 L60.1 -18.2 M149.25 24.15 L143.85 24.15" fill="none" stroke="#ff0000" stroke-linecap="square" stroke-linejoin="miter" stroke-width="1.0"/>
    <path d="M60.1 -18.2 L93.0 -18.2 93.0 -12.8 M149.25 45.7 L149.25 26.3 M149.25 26.2 L149.25 24.15" fill="none" stroke="#ff0000" stroke-linecap="round" stroke-linejoin="round" stroke-width="1.0"/>
    <path d="M143.85 45.7 L149.25 45.7" fill="none" stroke="#ff0000" stroke-linecap="square" stroke-linejoin="round" stroke-width="1.0"/>
    <path d="M144.35 26.0 L144.35 45.9 62.4 -12.9 93.25 -12.9 144.35 26.0" fill="#000000" fill-opacity="0.7019608" fill-rule="evenodd" stroke="none"/>
    <path d="M149.5 24.05 L149.5 45.75 60.25 -18.35 93.85 -18.35 149.5 24.05" fill="#c00808" fill-rule="evenodd" stroke="none"/>
    <path d="M149.5 24.05 L149.5 45.75 60.25 -18.35 93.85 -18.35 149.5 24.05 Z" fill="none" stroke="#ff0000" stroke-linecap="round" stroke-linejoin="round" stroke-width="1.0"/>
  </g>
</svg>
