<?xml version="1.0" encoding="UTF-8" standalone="no"?>
<svg xmlns:xlink="http://www.w3.org/1999/xlink" height="34.95px" width="25.55px" xmlns="http://www.w3.org/2000/svg">
  <g transform="matrix(1.0, 0.0, 0.0, 1.0, 13.75, 17.45)">
    <path d="M-12.75 -16.45 L-6.65 -16.45 -6.65 -16.35 Q-6.65 -13.9 -4.95 -12.2 -3.2 -10.45 -0.75 -10.45 1.7 -10.45 3.4 -12.2 5.15 -13.9 5.15 -16.35 L5.15 -16.45 10.8 -16.45 10.8 16.5 5.15 16.5 5.15 16.4 Q5.15 13.95 3.4 12.2 1.7 10.5 -0.75 10.5 -3.2 10.5 -4.95 12.2 -6.65 13.95 -6.65 16.4 L-6.65 16.5 -12.75 16.5 -12.75 -16.45" fill="#ffcc00" fill-rule="evenodd" stroke="none"/>
    <path d="M-12.75 -16.45 L-6.65 -16.45 -6.65 -16.35 Q-6.65 -13.9 -4.95 -12.2 -3.2 -10.45 -0.75 -10.45 1.7 -10.45 3.4 -12.2 5.15 -13.9 5.15 -16.35 L5.15 -16.45 10.8 -16.45 10.8 16.5 5.15 16.5 5.15 16.4 Q5.15 13.95 3.4 12.2 1.7 10.5 -0.75 10.5 -3.2 10.5 -4.95 12.2 -6.65 13.95 -6.65 16.4 L-6.65 16.5 -12.75 16.5 -12.75 -16.45 Z" fill="none" stroke="url(#gradient0)" stroke-linecap="round" stroke-linejoin="round" stroke-width="2.0"/>
    <path d="M2.35 -6.85 L9.8 -4.6 9.8 3.35 9.0 2.95 1.3 -0.6 Q-8.5 -5.35 -11.75 -6.2 L-11.75 -10.6 -9.15 -10.1 2.35 -6.85" fill="url(#gradient1)" fill-rule="evenodd" stroke="none"/>
    <path d="M8.3 6.85 L9.8 7.55 9.8 10.65 Q5.15 8.3 3.05 7.0 L-6.15 1.35 -11.75 -2.0 -11.75 -3.7 Q-10.5 -2.9 -7.65 -1.25 L0.25 3.05 8.3 6.85" fill="url(#gradient2)" fill-rule="evenodd" stroke="none"/>
  </g>
  <defs>
    <linearGradient gradientTransform="matrix(0.0053, -0.0207, 0.0207, 0.0053, -1.0, 0.0)" gradientUnits="userSpaceOnUse" id="gradient0" spreadMethod="pad" x1="-819.2" x2="819.2">
      <stop offset="0.0" stop-color="#c7a003"/>
      <stop offset="0.5647058823529412" stop-color="#7f6709"/>
      <stop offset="1.0" stop-color="#c7a003"/>
    </linearGradient>
    <linearGradient gradientTransform="matrix(0.0092, 0.0094, -0.0061, 0.0059, -5.9, 7.8)" gradientUnits="userSpaceOnUse" id="gradient1" spreadMethod="pad" x1="-819.2" x2="819.2">
      <stop offset="0.0" stop-color="#ffffff"/>
      <stop offset="1.0" stop-color="#ffcc00"/>
    </linearGradient>
    <linearGradient gradientTransform="matrix(0.0096, 0.0089, -0.006, 0.0064, -1.0, 3.45)" gradientUnits="userSpaceOnUse" id="gradient2" spreadMethod="pad" x1="-819.2" x2="819.2">
      <stop offset="0.0" stop-color="#ffffff"/>
      <stop offset="1.0" stop-color="#ffcc00"/>
    </linearGradient>
  </defs>
</svg>
