<?xml version="1.0" encoding="UTF-8" standalone="no"?>
<svg xmlns:xlink="http://www.w3.org/1999/xlink" height="30.1px" width="50.5px" xmlns="http://www.w3.org/2000/svg">
  <g transform="matrix(1.0, 0.0, 0.0, 1.0, -169.7, 6.95)">
    <path d="M220.05 12.1 Q219.05 18.1 211.05 21.1 203.05 24.2 192.65 22.6 182.3 21.0 175.55 15.5 168.85 10.1 169.8 4.1 170.8 -1.85 178.8 -5.05 186.85 -8.0 197.25 -6.35 207.55 -4.75 214.3 0.7 221.05 6.1 220.05 12.1" fill="url(#gradient0)" fill-rule="evenodd" stroke="none"/>
    <path d="M217.9 11.8 Q216.95 17.25 209.65 20.0 202.35 22.8 192.85 21.35 183.45 19.9 177.25 14.85 171.1 9.95 172.0 4.45 172.85 -0.95 180.2 -3.9 187.6 -6.65 197.05 -5.05 206.5 -3.6 212.6 1.3 218.75 6.3 217.9 11.8" fill="url(#gradient1)" fill-rule="evenodd" stroke="none"/>
  </g>
  <defs>
    <linearGradient gradientTransform="matrix(0.0293, -0.0341, 0.0148, 0.0127, 201.65, 17.65)" gradientUnits="userSpaceOnUse" id="gradient0" spreadMethod="pad" x1="-819.2" x2="819.2">
      <stop offset="0.0" stop-color="#ff0000"/>
      <stop offset="1.0" stop-color="#990000"/>
    </linearGradient>
    <linearGradient gradientTransform="matrix(-0.0229, -0.0341, 0.0149, -0.0099, 201.15, 15.6)" gradientUnits="userSpaceOnUse" id="gradient1" spreadMethod="pad" x1="-819.2" x2="819.2">
      <stop offset="0.0" stop-color="#ff0000"/>
      <stop offset="1.0" stop-color="#990000"/>
    </linearGradient>
  </defs>
</svg>
