<?xml version="1.0" encoding="UTF-8" standalone="no"?>
<svg xmlns:xlink="http://www.w3.org/1999/xlink" height="26.25px" width="35.15px" xmlns="http://www.w3.org/2000/svg">
  <g transform="matrix(1.0, 0.0, 0.0, 1.0, 18.05, 10.3)">
    <path d="M8.45 -5.25 L6.15 -1.95 9.85 -0.25 6.4 1.55 8.45 4.6 4.75 4.35 5.1 8.45 1.5 6.15 -0.15 9.55 -1.65 6.5 -4.75 8.75 -4.55 4.4 -8.75 4.7 -6.7 1.65 -10.0 0.2 -6.3 -1.7 -8.75 -5.35 -4.85 -5.05 -5.15 -8.5 -1.95 -6.45 -0.15 -10.3 1.75 -6.5 4.75 -8.65 4.6 -5.0 8.45 -5.25 M14.5 -0.95 L12.9 -2.7 12.95 -6.25 15.3 -3.2 14.5 -0.95 M14.05 4.8 L14.2 2.75 17.1 1.1 15.95 3.95 14.05 4.8 M13.3 7.45 L11.4 5.95 10.95 2.4 13.75 5.1 13.3 7.45 M14.05 2.3 L12.15 1.45 11.0 -1.4 13.9 0.25 14.05 2.3 M11.8 9.95 L12.55 7.75 16.3 6.8 14.15 9.6 11.8 9.95 M-0.05 13.95 L0.95 11.75 4.25 10.45 2.3 13.8 -0.05 13.95 M5.3 12.8 L5.5 10.4 8.15 8.0 7.45 11.8 5.3 12.8 M9.8 11.2 L8.9 9.0 10.15 5.7 11.35 9.3 9.8 11.2 M2.75 14.05 L5.05 13.4 7.95 15.95 4.35 15.75 2.75 14.05 M7.55 13.65 L9.3 12.0 13.05 12.9 9.8 14.35 7.55 13.65 M-15.45 -0.95 L-16.25 -3.2 -13.9 -6.25 -13.85 -2.7 -15.45 -0.95 M-6.45 -0.15 L-0.1 6.25 6.3 -0.15 -0.1 -6.5 -6.45 -0.15 M-3.6 -0.15 L-0.1 -3.65 3.45 -0.15 -0.1 3.4 -3.6 -0.15 M-6.25 12.8 L-8.4 11.8 -9.1 8.0 -6.45 10.4 -6.25 12.8 M-0.9 13.95 L-3.25 13.8 -5.2 10.45 -1.9 11.75 -0.9 13.95 M-15.0 2.3 L-14.85 0.25 -11.95 -1.4 -13.1 1.45 -15.0 2.3 M-15.0 4.8 L-16.9 3.95 -18.05 1.1 -15.15 2.75 -15.0 4.8 M-14.2 7.45 L-14.65 5.1 -11.85 2.4 -12.3 5.95 -14.2 7.45 M-10.75 11.2 L-12.3 9.3 -11.1 5.7 -9.85 9.0 -10.75 11.2 M-3.7 14.05 L-5.3 15.75 -8.9 15.95 -6.0 13.4 -3.7 14.05 M-8.5 13.65 L-10.75 14.35 -14.0 12.9 -10.25 12.0 -8.5 13.65 M-12.75 9.95 L-15.1 9.6 -17.25 6.8 -13.5 7.75 -12.75 9.95" fill="url(#gradient0)" fill-rule="evenodd" stroke="none"/>
  </g>
  <defs>
    <linearGradient gradientTransform="matrix(1.0E-4, 0.0135, -0.016, 2.0E-4, -0.4, 4.2)" gradientUnits="userSpaceOnUse" id="gradient0" spreadMethod="pad" x1="-819.2" x2="819.2">
      <stop offset="0.0" stop-color="#ff5a00"/>
      <stop offset="1.0" stop-color="#ffba00"/>
    </linearGradient>
  </defs>
</svg>
