<?xml version="1.0" encoding="UTF-8" standalone="no"?>
<svg xmlns:xlink="http://www.w3.org/1999/xlink" height="112.85px" width="60.55px" xmlns="http://www.w3.org/2000/svg">
  <g transform="matrix(1.0, 0.0, 0.0, 1.0, 3.5, 0.45)">
    <path d="M30.95 55.25 L31.15 54.95 31.05 55.5 30.95 55.25 30.7 55.6 30.75 55.6 30.45 56.15 31.7 55.3 32.2 56.15 32.55 56.7 Q32.85 57.35 32.7 58.05 32.55 58.7 32.0 59.15 31.45 59.6 30.75 59.6 L26.75 59.65 31.8 59.9 31.6 59.85 33.95 60.25 33.85 60.25 Q41.1 61.75 46.7 67.35 L47.25 68.0 Q49.65 70.55 51.35 73.45 L51.35 73.5 Q53.9 78.2 54.35 83.85 L54.35 83.9 54.4 86.0 Q54.4 95.8 48.2 103.05 L48.1 103.15 46.7 104.65 46.7 104.6 Q38.95 112.4 28.0 112.4 17.1 112.4 9.35 104.65 1.6 96.9 1.6 85.95 1.6 75.05 9.35 67.35 15.25 61.45 22.95 60.1 L23.3 59.85 Q23.7 59.6 24.25 59.6 23.55 59.55 23.05 59.15 22.5 58.7 22.35 58.05 22.2 57.35 22.5 56.7 L22.65 56.4 22.75 56.3 23.3 55.35 22.45 54.85 Q21.8 54.45 21.55 53.75 L21.5 53.45 20.6 53.75 19.45 53.5 5.05 45.55 Q2.6 44.55 2.7 42.25 2.65 41.85 3.75 38.3 L2.65 41.8 2.0 42.8 0.95 43.25 -0.15 43.05 Q-2.85 41.75 -3.0 41.15 L-3.15 40.9 Q-4.15 39.55 -2.25 35.95 3.6 18.55 6.35 8.7 L6.35 8.65 7.9 2.5 Q8.0 1.7 8.6 1.25 L9.2 0.8 9.4 0.65 Q10.65 -0.2 11.75 -0.15 L13.5 0.0 Q14.1 0.05 14.55 0.5 L15.15 1.45 15.1 2.6 13.9 6.1 13.9 6.05 6.35 30.0 Q9.55 19.9 10.25 18.1 L10.2 18.15 14.5 5.4 Q14.7 4.75 15.25 4.4 15.8 4.0 16.45 4.0 L17.45 4.3 16.9 2.45 Q16.75 1.85 17.0 1.25 17.2 0.65 17.75 0.3 18.25 -0.05 18.85 -0.05 L37.15 0.05 38.35 0.45 38.9 1.05 39.5 0.35 Q40.0 -0.05 40.65 -0.05 L44.0 0.0 Q44.65 0.15 45.1 0.6 L45.6 1.7 Q46.2 6.55 51.65 21.15 57.0 35.7 56.95 40.15 57.55 41.2 53.6 43.3 L52.4 43.5 51.8 43.3 51.65 43.9 Q51.4 44.55 50.75 44.9 39.45 50.9 36.6 52.65 L36.15 52.85 34.55 53.35 Q33.85 53.55 33.25 53.35 L33.15 53.7 32.5 54.65 31.7 55.3 30.5 53.7 30.45 53.75 30.95 55.25 M27.65 37.45 L26.55 40.1 26.7 40.0 Q27.25 39.65 27.9 39.65 L28.35 39.75 27.65 37.45" fill="#000000" fill-rule="evenodd" stroke="none"/>
    <path d="M18.85 -0.35 L37.15 -0.25 43.95 21.6 49.8 40.8 Q38.4 46.9 35.55 48.65 L33.95 49.15 24.9 19.5 18.85 -0.35 M40.65 -0.35 L43.6 -0.35 Q44.2 4.6 49.75 19.55 54.95 33.6 54.95 37.85 L52.65 39.2 Q51.85 35.5 50.75 32.6 48.25 25.9 40.65 -0.35" fill="url(#gradient0)" fill-rule="evenodd" stroke="none"/>
    <path d="M19.05 11.75 L25.85 34.2 Q22.05 43.45 20.4 49.45 L5.85 41.4 Q4.7 40.95 4.7 39.95 4.7 39.3 8.25 28.3 L12.1 16.45 16.4 3.7 Q17.15 6.35 19.05 11.75" fill="url(#gradient1)" fill-rule="evenodd" stroke="none"/>
    <path d="M11.75 -0.45 L13.2 -0.35 12.0 3.15 3.8 29.1 0.7 38.95 -1.35 37.75 Q-1.75 36.9 -0.4 34.4 5.5 16.85 8.25 6.9 9.65 1.95 9.85 0.45 L10.45 0.0 11.75 -0.45" fill="url(#gradient2)" fill-rule="evenodd" stroke="none"/>
    <path d="M45.3 83.7 Q45.3 90.05 41.25 94.85 L40.25 95.85 Q35.15 101.0 28.0 101.0 20.85 101.0 15.75 95.85 10.7 90.8 10.7 83.7 10.7 76.5 15.75 71.45 20.3 66.95 26.4 66.45 L27.4 66.4 28.0 66.4 30.3 66.55 31.85 66.75 Q36.55 67.8 40.25 71.45 L40.6 71.85 43.3 75.45 Q44.95 78.55 45.25 82.25 L45.3 83.7" fill="url(#gradient3)" fill-rule="evenodd" stroke="none"/>
    <path d="M52.4 83.7 Q52.4 92.75 46.65 99.45 L45.25 100.9 Q38.1 108.1 28.0 108.1 17.95 108.1 10.75 100.9 3.6 93.75 3.6 83.65 3.6 73.6 10.75 66.45 16.5 60.75 24.05 59.6 L24.2 59.3 31.3 59.5 33.45 59.9 Q40.1 61.3 45.25 66.45 L45.8 67.05 Q48.05 69.45 49.6 72.15 51.95 76.5 52.35 81.7 L52.4 83.7 M48.6 83.7 L48.55 82.05 Q48.25 77.65 46.25 73.95 44.95 71.7 43.05 69.65 L42.55 69.15 Q38.2 64.8 32.6 63.6 L30.8 63.3 28.0 63.1 27.3 63.15 26.1 63.2 Q18.85 63.8 13.45 69.15 7.4 75.2 7.4 83.7 7.4 92.2 13.45 98.25 19.5 104.35 28.0 104.35 36.55 104.35 42.55 98.25 L43.75 97.05 Q48.6 91.35 48.6 83.7" fill="url(#gradient4)" fill-rule="evenodd" stroke="none"/>
    <path d="M31.25 50.8 L29.2 52.25 29.1 52.8 30.65 55.15 30.75 55.3 24.3 55.3 24.45 55.0 25.9 52.85 25.85 52.45 Q25.65 52.05 23.45 50.8 L24.85 47.35 27.8 39.35 31.25 50.8" fill="url(#gradient5)" fill-rule="evenodd" stroke="none"/>
  </g>
  <defs>
    <linearGradient gradientTransform="matrix(0.0086, 0.031, -0.0291, 0.0081, 33.75, 22.9)" gradientUnits="userSpaceOnUse" id="gradient0" spreadMethod="pad" x1="-819.2" x2="819.2">
      <stop offset="0.0" stop-color="#330000"/>
      <stop offset="0.10980392156862745" stop-color="#a10000"/>
      <stop offset="0.8588235294117647" stop-color="#530000"/>
      <stop offset="0.9568627450980393" stop-color="#330000"/>
    </linearGradient>
    <linearGradient gradientTransform="matrix(-0.0116, 0.025, -0.0122, -0.0056, 15.5, 23.8)" gradientUnits="userSpaceOnUse" id="gradient1" spreadMethod="pad" x1="-819.2" x2="819.2">
      <stop offset="0.0" stop-color="#330000"/>
      <stop offset="0.10980392156862745" stop-color="#a10000"/>
      <stop offset="0.8588235294117647" stop-color="#530000"/>
      <stop offset="0.9568627450980393" stop-color="#330000"/>
    </linearGradient>
    <linearGradient gradientTransform="matrix(-0.0116, 0.025, -0.0122, -0.0056, 14.4, 23.8)" gradientUnits="userSpaceOnUse" id="gradient2" spreadMethod="pad" x1="-819.2" x2="819.2">
      <stop offset="0.0" stop-color="#330000"/>
      <stop offset="0.10980392156862745" stop-color="#a10000"/>
      <stop offset="0.8588235294117647" stop-color="#530000"/>
      <stop offset="0.9568627450980393" stop-color="#330000"/>
    </linearGradient>
    <linearGradient gradientTransform="matrix(0.0177, 0.0114, -0.0114, 0.0178, 28.05, 83.7)" gradientUnits="userSpaceOnUse" id="gradient3" spreadMethod="pad" x1="-819.2" x2="819.2">
      <stop offset="0.00784313725490196" stop-color="#f7e5b6"/>
      <stop offset="0.6823529411764706" stop-color="#decf00"/>
      <stop offset="1.0" stop-color="#c9a600"/>
    </linearGradient>
    <linearGradient gradientTransform="matrix(0.0211, 0.0136, -0.0136, 0.0211, 28.05, 83.7)" gradientUnits="userSpaceOnUse" id="gradient4" spreadMethod="pad" x1="-819.2" x2="819.2">
      <stop offset="0.00784313725490196" stop-color="#bfa700"/>
      <stop offset="0.6823529411764706" stop-color="#705a0e"/>
      <stop offset="1.0" stop-color="#afa177"/>
    </linearGradient>
    <linearGradient gradientTransform="matrix(0.0211, 0.0136, -0.0136, 0.0211, 28.05, 79.95)" gradientUnits="userSpaceOnUse" id="gradient5" spreadMethod="pad" x1="-819.2" x2="819.2">
      <stop offset="0.00784313725490196" stop-color="#858585"/>
      <stop offset="0.6823529411764706" stop-color="#121212"/>
      <stop offset="1.0" stop-color="#414141"/>
    </linearGradient>
  </defs>
</svg>
