<?xml version="1.0" encoding="UTF-8" standalone="no"?>
<svg xmlns:xlink="http://www.w3.org/1999/xlink" height="10.75px" width="171.95px" xmlns="http://www.w3.org/2000/svg">
  <g transform="matrix(1.0, 0.0, 0.0, 1.0, -4.7, 2.35)">
    <path d="M6.45 -2.35 L6.45 8.4 4.7 8.4 4.7 -2.35 6.45 -2.35" fill="#000000" fill-rule="evenodd" stroke="none"/>
    <path d="M12.35 -2.35 L12.35 8.4 10.6 8.4 10.6 -2.35 12.35 -2.35" fill="#000000" fill-rule="evenodd" stroke="none"/>
    <path d="M18.1 -2.35 L18.1 8.4 16.3 8.4 16.3 -2.35 18.1 -2.35" fill="#000000" fill-rule="evenodd" stroke="none"/>
    <path d="M24.0 -2.35 L24.0 8.4 22.2 8.4 22.2 -2.35 24.0 -2.35" fill="#000000" fill-rule="evenodd" stroke="none"/>
    <path d="M29.9 -2.35 L29.9 8.4 28.15 8.4 28.15 -2.35 29.9 -2.35" fill="#000000" fill-rule="evenodd" stroke="none"/>
    <path d="M35.8 -2.35 L35.8 8.4 34.05 8.4 34.05 -2.35 35.8 -2.35" fill="#000000" fill-rule="evenodd" stroke="none"/>
    <path d="M41.5 -2.35 L41.5 8.4 39.75 8.4 39.75 -2.35 41.5 -2.35" fill="#000000" fill-rule="evenodd" stroke="none"/>
    <path d="M47.45 -2.35 L47.45 8.4 45.65 8.4 45.65 -2.35 47.45 -2.35" fill="#000000" fill-rule="evenodd" stroke="none"/>
    <path d="M53.35 -2.35 L53.35 8.4 51.55 8.4 51.55 -2.35 53.35 -2.35" fill="#000000" fill-rule="evenodd" stroke="none"/>
    <path d="M59.25 -2.35 L59.25 8.4 57.5 8.4 57.5 -2.35 59.25 -2.35" fill="#000000" fill-rule="evenodd" stroke="none"/>
    <path d="M64.95 -2.35 L64.95 8.4 63.2 8.4 63.2 -2.35 64.95 -2.35" fill="#000000" fill-rule="evenodd" stroke="none"/>
    <path d="M70.85 -2.35 L70.85 8.4 69.1 8.4 69.1 -2.35 70.85 -2.35" fill="#000000" fill-rule="evenodd" stroke="none"/>
    <path d="M76.8 -2.35 L76.8 8.4 75.0 8.4 75.0 -2.35 76.8 -2.35" fill="#000000" fill-rule="evenodd" stroke="none"/>
    <path d="M82.7 -2.35 L82.7 8.4 80.9 8.4 80.9 -2.35 82.7 -2.35" fill="#000000" fill-rule="evenodd" stroke="none"/>
    <path d="M88.4 -2.35 L88.4 8.4 86.65 8.4 86.65 -2.35 88.4 -2.35" fill="#000000" fill-rule="evenodd" stroke="none"/>
    <path d="M94.3 -2.35 L94.3 8.4 92.55 8.4 92.55 -2.35 94.3 -2.35" fill="#000000" fill-rule="evenodd" stroke="none"/>
    <path d="M100.4 -2.35 L100.4 8.4 98.65 8.4 98.65 -2.35 100.4 -2.35" fill="#000000" fill-rule="evenodd" stroke="none"/>
    <path d="M106.3 -2.35 L106.3 8.4 104.55 8.4 104.55 -2.35 106.3 -2.35" fill="#000000" fill-rule="evenodd" stroke="none"/>
    <path d="M112.05 -2.35 L112.05 8.4 110.25 8.4 110.25 -2.35 112.05 -2.35" fill="#000000" fill-rule="evenodd" stroke="none"/>
    <path d="M117.95 -2.35 L117.95 8.4 116.15 8.4 116.15 -2.35 117.95 -2.35" fill="#000000" fill-rule="evenodd" stroke="none"/>
    <path d="M123.85 -2.35 L123.85 8.4 122.1 8.4 122.1 -2.35 123.85 -2.35" fill="#000000" fill-rule="evenodd" stroke="none"/>
    <path d="M129.75 -2.35 L129.75 8.4 128.0 8.4 128.0 -2.35 129.75 -2.35" fill="#000000" fill-rule="evenodd" stroke="none"/>
    <path d="M135.45 -2.35 L135.45 8.4 133.7 8.4 133.7 -2.35 135.45 -2.35" fill="#000000" fill-rule="evenodd" stroke="none"/>
    <path d="M141.4 -2.35 L141.4 8.4 139.6 8.4 139.6 -2.35 141.4 -2.35" fill="#000000" fill-rule="evenodd" stroke="none"/>
    <path d="M147.3 -2.35 L147.3 8.4 145.5 8.4 145.5 -2.35 147.3 -2.35" fill="#000000" fill-rule="evenodd" stroke="none"/>
    <path d="M153.2 -2.35 L153.2 8.4 151.45 8.4 151.45 -2.35 153.2 -2.35" fill="#000000" fill-rule="evenodd" stroke="none"/>
    <path d="M158.9 -2.35 L158.9 8.4 157.15 8.4 157.15 -2.35 158.9 -2.35" fill="#000000" fill-rule="evenodd" stroke="none"/>
    <path d="M164.8 -2.35 L164.8 8.4 163.05 8.4 163.05 -2.35 164.8 -2.35" fill="#000000" fill-rule="evenodd" stroke="none"/>
    <path d="M170.75 -2.35 L170.75 8.4 168.95 8.4 168.95 -2.35 170.75 -2.35" fill="#000000" fill-rule="evenodd" stroke="none"/>
    <path d="M176.65 -2.35 L176.65 8.4 174.85 8.4 174.85 -2.35 176.65 -2.35" fill="#000000" fill-rule="evenodd" stroke="none"/>
  </g>
</svg>
