<?xml version="1.0" encoding="UTF-8" standalone="no"?>
<svg xmlns:xlink="http://www.w3.org/1999/xlink" height="86.35px" width="84.25px" xmlns="http://www.w3.org/2000/svg">
  <g transform="matrix(1.0, 0.0, 0.0, 1.0, 42.1, 43.1)">
    <path d="M-0.75 42.95 L-8.2 38.55 -3.7 31.5 -1.35 32.8 2.1 31.0 6.85 38.45 -0.75 42.95 M26.65 -15.95 Q29.05 -14.55 31.4 -13.2 L31.35 -5.45 24.2 -5.4 24.2 -6.95 21.85 -8.4 26.65 -15.95 M7.7 -26.95 L3.1 -19.9 1.0 -21.2 -3.75 -19.0 -8.85 -26.8 -0.55 -31.7 7.7 -26.95 M31.15 17.15 L31.05 24.05 Q28.7 25.5 26.3 26.9 L22.1 20.45 24.2 19.35 24.2 17.1 31.15 17.15 M-32.45 -5.2 L-32.35 -13.0 -27.75 -15.7 -24.0 -9.75 -25.5 -9.1 -25.4 -5.2 -32.45 -5.2 M-24.8 16.8 L-24.75 19.75 -23.4 20.5 -27.7 27.1 -32.9 24.05 -32.8 16.75 -24.8 16.8" fill="#719a95" fill-rule="evenodd" stroke="none"/>
    <path d="M-33.25 -13.6 L-0.4 -32.45 32.3 -13.6 32.3 24.35 -0.4 43.25 -33.25 24.35 -33.25 -13.6 M30.75 -12.7 L-0.45 -30.85 -31.8 -12.7 -31.8 23.45 -0.45 41.5 30.8 23.45 30.8 -12.7 30.75 -12.7" fill="#719a95" fill-rule="evenodd" stroke="none"/>
    <path d="M17.5 -28.6 L16.95 -11.2 Q16.95 -11.1 2.2 -17.95 L17.5 -28.6 M20.05 38.35 L4.75 27.8 Q19.5 20.95 19.5 21.05 L20.05 38.35 M37.9 3.1 L21.9 12.9 21.8 -3.4 37.9 3.1 M-18.1 -11.2 L-18.5 -28.6 -3.3 -17.95 -18.1 -11.2 M-20.6 21.05 Q-20.6 20.95 -5.75 27.8 L-21.05 38.35 -20.6 21.05 M-22.95 -3.4 L-23.05 12.9 -39.0 3.1 -22.95 -3.4" fill="#4d4d4d" fill-rule="evenodd" stroke="none"/>
    <path d="M16.4 -26.55 L15.85 -10.25 Q15.85 -10.1 1.95 -16.5 L16.4 -26.55 M-3.2 -16.5 Q-17.0 -10.1 -17.0 -10.25 L-17.4 -26.55 -3.2 -16.5" fill="#ffffff" fill-rule="evenodd" stroke="none"/>
    <path d="M18.7 36.25 L4.4 26.35 Q18.3 19.95 18.3 20.05 L18.7 36.25 M20.5 12.35 L20.35 -2.85 35.45 3.2 20.5 12.35 M-19.4 20.05 Q-19.4 19.95 -5.4 26.35 L-19.75 36.25 -19.4 20.05 M-21.5 -2.85 L-21.6 12.35 -36.6 3.2 -21.5 -2.85" fill="#d0d0d0" fill-rule="evenodd" stroke="none"/>
    <path d="M-0.85 -17.2 L-0.4 -17.45 19.1 -6.15 19.1 -6.0 18.15 -5.4 18.15 -5.55 -0.4 -16.3 -19.05 -5.55 -19.05 -5.3 -19.95 -6.15 -11.05 -11.3 -4.05 -15.3 -0.85 -17.2 M13.45 28.15 L26.45 20.7 26.45 15.2 26.45 10.15 26.45 -4.15 26.45 -10.35 26.4 -10.35 27.75 -11.1 27.75 21.5 -0.35 37.7 -28.6 21.5 -28.6 -11.1 -27.35 -10.35 -27.35 3.75 -27.35 13.95 -27.35 20.7 -11.45 29.85 -0.4 36.2 3.1 34.2 13.45 28.15" fill="#121212" fill-rule="evenodd" stroke="none"/>
    <path d="M19.1 -6.0 L19.1 -6.15 -0.4 -17.45 -0.85 -17.2 -6.2 -22.5 -0.4 -25.9 11.7 -18.85 19.55 -11.0 21.25 -13.35 24.7 -11.4 22.7 -7.9 26.45 -4.15 26.45 10.15 25.15 8.85 19.85 8.6 26.45 15.2 26.45 20.7 13.45 28.15 8.15 22.85 19.0 16.6 19.1 16.5 19.1 6.35 22.6 6.3 19.1 2.8 19.1 -6.0 M-11.05 -11.3 L-19.95 -6.15 -20.0 -6.15 -20.0 -5.3 -25.9 -11.2 -16.45 -16.65 -11.05 -11.3 M-20.0 16.35 L-20.0 16.5 -7.3 23.85 3.1 34.2 -0.4 36.2 -11.45 29.85 -27.35 13.95 -27.35 3.75 -20.0 11.1 -20.0 16.35" fill="#aeaeae" fill-rule="evenodd" stroke="none"/>
    <path d="M-0.85 -17.2 L-4.05 -15.3 -9.45 -20.7 -6.2 -22.5 -0.85 -17.2 M19.1 2.8 L22.6 6.3 19.1 6.35 19.1 2.8 M26.45 15.2 L19.85 8.6 25.15 8.85 26.45 10.15 26.45 15.2 M26.45 -4.15 L22.7 -7.9 24.7 -11.4 26.4 -10.35 26.45 -10.35 26.45 -4.15 M21.25 -13.35 L19.55 -11.0 11.7 -18.85 21.25 -13.35" fill="#7b7b7b" fill-rule="evenodd" stroke="none"/>
    <path d="M-19.95 -6.15 L-19.05 -5.3 -19.05 15.95 -20.0 16.35 -20.0 11.1 -20.0 -5.3 -20.0 -6.15 -19.95 -6.15 M18.15 -5.4 L19.1 -6.0 19.1 2.8 19.1 6.35 19.1 16.5 19.0 16.6 18.15 15.95 18.15 -5.4" fill="#3c3c3c" fill-rule="evenodd" stroke="none"/>
    <path d="M19.0 16.6 L8.15 22.85 -0.4 27.8 -7.3 23.85 -20.0 16.5 -20.0 16.35 -19.05 15.95 -0.4 26.7 18.15 15.95 19.0 16.6 M24.7 -11.4 L21.25 -13.35 11.7 -18.85 -0.4 -25.9 -6.2 -22.5 -9.45 -20.7 -16.45 -16.65 -25.9 -11.2 -27.35 -10.35 -28.6 -11.1 -0.35 -27.3 27.75 -11.1 26.4 -10.35 24.7 -11.4" fill="#d0d0d0" fill-rule="evenodd" stroke="none"/>
    <path d="M-4.05 -15.3 L-11.05 -11.3 -16.45 -16.65 -9.45 -20.7 -4.05 -15.3 M8.15 22.85 L13.45 28.15 3.1 34.2 -7.3 23.85 -0.4 27.8 8.15 22.85 M-27.35 -10.35 L-25.9 -11.2 -20.0 -5.3 -20.0 11.1 -27.35 3.75 -27.35 -10.35 M-11.45 29.85 L-27.35 20.7 -27.35 13.95 -11.45 29.85" fill="#767676" fill-rule="evenodd" stroke="none"/>
    <path d="M0.65 -39.25 L0.65 -33.45 -1.25 -33.45 -1.25 -39.25 0.65 -39.25" fill="#4d4d4d" fill-rule="evenodd" stroke="none"/>
    <path d="M31.35 -37.35 L29.55 -39.0 29.55 -41.5 31.5 -43.1 31.5 -37.35 31.35 -37.35 M-28.45 -39.0 L-30.35 -37.35 -30.4 -37.35 -30.4 -43.1 -30.3 -43.1 -28.3 -41.5 -28.45 -41.5 -28.45 -39.0" fill="#3c3c3c" fill-rule="evenodd" stroke="none"/>
    <path d="M29.55 -39.0 L31.35 -37.35 -30.35 -37.35 -28.45 -39.0 29.55 -39.0 M-4.65 -30.0 L-3.6 -30.0 -3.6 -30.05 Q-3.6 -31.5 -2.65 -32.45 -1.6 -33.45 -0.25 -33.45 1.2 -33.45 2.15 -32.45 3.15 -31.5 3.15 -30.05 L3.15 -30.0 4.15 -30.0 Q4.15 -28.25 2.85 -26.95 1.55 -25.65 -0.25 -25.65 -2.05 -25.65 -3.35 -26.95 -4.65 -28.25 -4.65 -30.0 M-2.5 -30.0 L-3.6 -30.0 Q-3.6 -28.7 -2.65 -27.6 -1.6 -26.7 -0.25 -26.7 1.2 -26.7 2.15 -27.6 3.15 -28.7 3.15 -30.0 L2.05 -30.0 2.05 -30.05 Q2.05 -31.05 1.4 -31.7 0.75 -32.35 -0.25 -32.35 -1.15 -32.35 -1.85 -31.7 -2.5 -31.05 -2.5 -30.05 L-2.5 -30.0" fill="#121212" fill-rule="evenodd" stroke="none"/>
    <path d="M29.55 -41.5 L29.55 -39.0 -28.45 -39.0 -28.45 -41.5 -28.3 -41.5 29.55 -41.5" fill="#7b7b7b" fill-rule="evenodd" stroke="none"/>
    <path d="M31.5 -43.1 L29.55 -41.5 -28.3 -41.5 -30.3 -43.1 31.5 -43.1" fill="#d0d0d0" fill-rule="evenodd" stroke="none"/>
    <path d="M4.15 -30.0 L3.15 -30.0 3.15 -30.05 Q3.15 -31.5 2.15 -32.45 1.2 -33.45 -0.25 -33.45 -1.6 -33.45 -2.65 -32.45 -3.6 -31.5 -3.6 -30.05 L-3.6 -30.0 -4.65 -30.0 -4.65 -30.05 Q-4.65 -31.9 -3.35 -33.2 -2.05 -34.5 -0.25 -34.5 1.55 -34.5 2.85 -33.2 4.15 -31.9 4.15 -30.05 L4.15 -30.0" fill="#4d4d4d" fill-rule="evenodd" stroke="none"/>
    <path d="M-2.5 -30.0 Q-2.5 -29.15 -1.85 -28.45 -1.15 -27.8 -0.25 -27.8 0.75 -27.8 1.4 -28.45 2.05 -29.15 2.05 -30.0 L3.15 -30.0 Q3.15 -28.7 2.15 -27.6 1.2 -26.7 -0.25 -26.7 -1.6 -26.7 -2.65 -27.6 -3.6 -28.7 -3.6 -30.0 L-2.5 -30.0" fill="#313131" fill-rule="evenodd" stroke="none"/>
    <path d="M31.4 -9.9 L29.45 -9.35 28.55 -5.6 26.9 -5.45 25.2 -1.4 19.3 -1.4 2.95 11.45 3.05 3.7 11.8 -1.1 15.9 -11.75 37.2 -26.9 37.15 -26.6 36.35 -18.85 34.15 -17.55 33.95 -14.35 32.05 -13.65 31.4 -9.9 M0.45 -23.65 L0.6 -23.5 1.4 -21.25 1.4 -13.65 6.25 -11.4 6.25 -9.5 1.4 -9.5 1.4 -5.2 1.4 12.35 -1.75 12.35 -1.75 -5.2 -1.75 -9.5 -6.95 -9.5 -6.95 -11.4 -1.75 -13.65 -1.75 -21.25 -0.95 -23.65 -1.55 -25.2 1.1 -25.2 0.45 -23.65 M1.4 33.25 L-0.1 36.25 -1.75 33.25 -1.75 22.5 1.4 22.5 1.4 33.25 M42.0 3.35 L42.15 4.6 35.7 8.35 41.3 10.25 41.3 11.55 28.05 11.55 16.7 19.5 2.4 20.35 -2.15 20.35 -9.35 19.85 -16.6 19.5 -27.95 11.55 -41.2 11.55 -41.15 10.25 -35.6 8.35 -42.05 4.6 -42.1 3.3 -27.95 4.6 -16.2 12.55 -3.95 13.55 4.6 13.55 16.3 12.55 28.05 4.6 42.0 3.35 M-37.1 -26.7 L-37.25 -27.0 -15.9 -11.9 -11.8 -1.2 -3.05 3.6 -2.95 11.35 -19.25 -1.5 -25.15 -1.5 -26.85 -5.6 -28.55 -5.65 -29.45 -9.5 -31.45 -9.95 -32.05 -13.8 -33.9 -14.45 -34.1 -17.65 -36.3 -18.95 -37.1 -26.7" fill="#2a2726" fill-rule="evenodd" stroke="none"/>
    <path d="M37.2 -28.4 L37.15 -28.1 36.35 -20.35 34.15 -19.05 33.95 -15.85 32.05 -15.15 31.55 -11.75 24.15 -19.1 37.2 -28.4 M-0.75 -25.15 L-1.2 -26.7 0.75 -26.7 0.25 -25.15 0.35 -25.0 0.9 -22.75 0.9 -15.15 5.7 -12.85 5.7 -10.9 0.9 -10.9 0.9 -6.65 0.9 -2.3 -1.35 -4.55 -1.35 -6.65 -1.35 -10.9 -6.15 -10.9 -6.15 -12.85 -1.35 -15.15 -1.35 -22.75 -0.75 -25.15 M19.3 -2.85 L8.7 5.5 4.6 1.4 11.8 -2.55 15.2 -11.4 23.7 -2.85 19.3 -2.85 M-1.35 21.05 L0.9 21.05 0.9 31.8 -0.2 34.85 -1.35 31.8 -1.35 21.05 M2.4 18.85 L-2.15 18.85 -2.65 18.85 -9.85 11.65 -3.95 12.05 -0.65 12.05 5.9 18.65 2.4 18.85 M36.6 10.1 L28.05 10.1 19.35 16.15 14.6 11.4 16.3 11.1 28.05 3.1 29.65 3.1 36.6 10.1 M-36.65 -23.9 L-2.95 9.8 -2.95 9.9 -19.25 -3.0 -24.45 -3.0 -25.15 -3.0 -25.7 -4.15 -26.85 -7.1 -28.55 -7.15 -29.45 -10.9 -31.45 -11.45 -32.05 -15.2 -33.9 -15.9 -34.1 -19.1 -36.3 -20.4 -36.65 -23.9 M-41.2 10.1 L-35.6 6.85 -42.05 3.1 -32.75 3.1 -20.55 15.3 -27.95 10.1 -41.2 10.1" fill="#719a95" fill-rule="evenodd" stroke="none"/>
    <path d="M19.35 16.15 L16.7 18.1 5.9 18.65 -0.65 12.05 4.6 12.05 14.6 11.4 19.35 16.15 M29.65 3.1 L42.15 3.1 35.7 6.85 41.3 10.1 36.6 10.1 29.65 3.1 M24.15 -19.1 L31.55 -11.75 31.4 -11.4 29.45 -10.85 28.55 -7.1 26.9 -6.95 25.2 -2.85 23.7 -2.85 15.2 -11.4 15.9 -13.25 24.15 -19.1 M8.7 5.5 L2.95 9.95 3.05 2.2 4.6 1.4 8.7 5.5 M0.9 10.9 L-1.35 10.9 -1.35 -4.55 0.9 -2.3 0.9 10.9 M-37.25 -28.5 L-15.9 -13.3 -11.8 -2.7 -3.05 2.1 -2.95 9.8 -36.65 -23.9 -37.1 -28.2 -37.25 -28.5 M-9.35 18.35 L-16.6 18.1 -20.55 15.3 -32.75 3.1 -27.95 3.1 -16.2 11.1 -9.85 11.65 -2.65 18.85 -9.35 18.35" fill="#abcfd9" fill-rule="evenodd" stroke="none"/>
  </g>
</svg>
