<?xml version="1.0" encoding="UTF-8" standalone="no"?>
<svg xmlns:xlink="http://www.w3.org/1999/xlink" height="86.45px" width="84.25px" xmlns="http://www.w3.org/2000/svg">
  <g transform="matrix(1.0, 0.0, 0.0, 1.0, 42.1, 43.2)">
    <path d="M-0.75 42.95 L-8.2 38.55 -3.7 31.5 -1.35 32.8 2.1 31.0 6.85 38.45 -0.75 42.95 M26.65 -15.95 Q29.05 -14.55 31.4 -13.2 L31.35 -5.45 24.2 -5.4 24.2 -6.95 21.85 -8.4 26.65 -15.95 M7.7 -26.95 L3.1 -19.9 1.0 -21.2 -3.75 -19.0 -8.85 -26.8 -0.55 -31.7 7.7 -26.95 M31.15 17.15 L31.05 24.05 Q28.7 25.5 26.3 26.9 L22.1 20.45 24.2 19.35 24.2 17.1 31.15 17.15 M-32.45 -5.2 L-32.35 -13.0 -27.75 -15.7 -24.0 -9.75 -25.5 -9.1 -25.4 -5.2 -32.45 -5.2 M-24.8 16.8 L-24.75 19.75 -23.4 20.5 -27.7 27.1 -32.9 24.05 -32.8 16.75 -24.8 16.8" fill="#c9c9c9" fill-rule="evenodd" stroke="none"/>
    <path d="M0.7 -39.35 L0.7 -33.55 -1.2 -33.55 -1.2 -39.35 0.7 -39.35" fill="#4d4d4d" fill-rule="evenodd" stroke="none"/>
    <path d="M-31.8 -12.7 L-31.8 23.45 -0.45 41.5 30.8 23.45 30.8 -12.7 30.75 -12.7 32.3 -13.6 32.3 24.35 -0.4 43.25 -33.25 24.35 -33.25 -13.6 -31.8 -12.7" fill="#c9c9c9" fill-rule="evenodd" stroke="none"/>
    <path d="M-31.8 -12.7 L-33.25 -13.6 -0.4 -32.45 32.3 -13.6 30.75 -12.7 -0.45 -30.85 -31.8 -12.7" fill="#ffffff" fill-rule="evenodd" stroke="none"/>
    <path d="M29.55 -39.1 L29.55 -41.6 31.5 -43.2 31.5 -37.45 31.4 -37.45 29.55 -39.1 M-28.25 -41.6 L-28.45 -41.6 -28.45 -39.1 -30.35 -37.45 -30.4 -37.45 -30.4 -43.2 -30.25 -43.2 -28.25 -41.6" fill="#3c3c3c" fill-rule="evenodd" stroke="none"/>
    <path d="M29.55 -41.6 L29.55 -39.1 -28.45 -39.1 -28.45 -41.6 -28.25 -41.6 29.55 -41.6" fill="#7b7b7b" fill-rule="evenodd" stroke="none"/>
    <path d="M29.55 -39.1 L31.4 -37.45 -30.35 -37.45 -28.45 -39.1 29.55 -39.1 M3.15 -30.1 L2.05 -30.1 2.05 -30.15 Q2.05 -31.15 1.4 -31.8 0.75 -32.45 -0.2 -32.45 -1.15 -32.45 -1.85 -31.8 -2.5 -31.15 -2.5 -30.15 L-2.5 -30.1 -3.6 -30.1 -3.6 -30.15 Q-3.6 -31.6 -2.6 -32.55 -1.6 -33.55 -0.2 -33.55 1.2 -33.55 2.2 -32.55 3.15 -31.6 3.15 -30.15 L3.15 -30.1 4.2 -30.1 Q4.2 -28.35 2.9 -27.05 1.6 -25.75 -0.2 -25.75 -2.05 -25.75 -3.35 -27.05 -4.65 -28.35 -4.65 -30.1 L-3.6 -30.1 Q-3.6 -28.8 -2.6 -27.7 -1.6 -26.8 -0.2 -26.8 1.2 -26.8 2.2 -27.7 3.15 -28.8 3.15 -30.1" fill="#121212" fill-rule="evenodd" stroke="none"/>
    <path d="M31.5 -43.2 L29.55 -41.6 -28.25 -41.6 -30.25 -43.2 31.5 -43.2" fill="#d0d0d0" fill-rule="evenodd" stroke="none"/>
    <path d="M3.15 -30.1 L3.15 -30.15 Q3.15 -31.6 2.2 -32.55 1.2 -33.55 -0.2 -33.55 -1.6 -33.55 -2.6 -32.55 -3.6 -31.6 -3.6 -30.15 L-3.6 -30.1 -4.65 -30.1 -4.65 -30.15 Q-4.65 -32.0 -3.35 -33.3 -2.05 -34.6 -0.2 -34.6 1.6 -34.6 2.9 -33.3 4.2 -32.0 4.2 -30.15 L4.2 -30.1 3.15 -30.1" fill="#4d4d4d" fill-rule="evenodd" stroke="none"/>
    <path d="M2.05 -30.1 L3.15 -30.1 Q3.15 -28.8 2.2 -27.7 1.2 -26.8 -0.2 -26.8 -1.6 -26.8 -2.6 -27.7 -3.6 -28.8 -3.6 -30.1 L-2.5 -30.1 Q-2.5 -29.25 -1.85 -28.55 -1.15 -27.9 -0.2 -27.9 0.75 -27.9 1.4 -28.55 2.05 -29.25 2.05 -30.1" fill="#313131" fill-rule="evenodd" stroke="none"/>
    <path d="M-0.85 -17.2 L-0.4 -17.45 19.1 -6.15 19.1 -6.0 18.15 -5.4 18.15 -5.55 -0.4 -16.3 -19.05 -5.55 -19.05 -5.3 -19.95 -6.15 -11.05 -11.3 -4.05 -15.3 -0.85 -17.2 M13.45 28.15 L26.45 20.7 26.45 15.2 26.45 10.15 26.45 -4.15 26.45 -10.35 26.4 -10.35 27.75 -11.1 27.75 21.5 -0.35 37.7 -28.6 21.5 -28.6 -11.1 -27.35 -10.35 -27.35 3.75 -27.35 13.95 -27.35 20.7 -11.45 29.85 -0.4 36.2 3.1 34.2 13.45 28.15" fill="#121212" fill-rule="evenodd" stroke="none"/>
    <path d="M19.1 -6.0 L19.1 -6.15 -0.4 -17.45 -0.85 -17.2 -6.2 -22.5 -0.4 -25.9 11.7 -18.85 19.55 -11.0 21.25 -13.35 24.7 -11.4 22.7 -7.9 26.45 -4.15 26.45 10.15 25.15 8.85 19.85 8.6 26.45 15.2 26.45 20.7 13.45 28.15 8.15 22.85 19.0 16.6 19.1 16.5 19.1 6.35 22.6 6.3 19.1 2.8 19.1 -6.0 M-11.05 -11.3 L-19.95 -6.15 -20.0 -6.15 -20.0 -5.3 -25.9 -11.2 -16.45 -16.65 -11.05 -11.3 M-20.0 16.35 L-20.0 16.5 -7.3 23.85 3.1 34.2 -0.4 36.2 -11.45 29.85 -27.35 13.95 -27.35 3.75 -20.0 11.1 -20.0 16.35" fill="#aeaeae" fill-rule="evenodd" stroke="none"/>
    <path d="M-0.85 -17.2 L-4.05 -15.3 -9.45 -20.7 -6.2 -22.5 -0.85 -17.2 M19.1 2.8 L22.6 6.3 19.1 6.35 19.1 2.8 M26.45 15.2 L19.85 8.6 25.15 8.85 26.45 10.15 26.45 15.2 M26.45 -4.15 L22.7 -7.9 24.7 -11.4 26.4 -10.35 26.45 -10.35 26.45 -4.15 M21.25 -13.35 L19.55 -11.0 11.7 -18.85 21.25 -13.35" fill="#7b7b7b" fill-rule="evenodd" stroke="none"/>
    <path d="M-19.95 -6.15 L-19.05 -5.3 -19.05 15.95 -20.0 16.35 -20.0 11.1 -20.0 -5.3 -20.0 -6.15 -19.95 -6.15 M18.15 -5.4 L19.1 -6.0 19.1 2.8 19.1 6.35 19.1 16.5 19.0 16.6 18.15 15.95 18.15 -5.4" fill="#3c3c3c" fill-rule="evenodd" stroke="none"/>
    <path d="M19.0 16.6 L8.15 22.85 -0.4 27.8 -7.3 23.85 -20.0 16.5 -20.0 16.35 -19.05 15.95 -0.4 26.7 18.15 15.95 19.0 16.6 M24.7 -11.4 L21.25 -13.35 11.7 -18.85 -0.4 -25.9 -6.2 -22.5 -9.45 -20.7 -16.45 -16.65 -25.9 -11.2 -27.35 -10.35 -28.6 -11.1 -0.35 -27.3 27.75 -11.1 26.4 -10.35 24.7 -11.4" fill="#d0d0d0" fill-rule="evenodd" stroke="none"/>
    <path d="M-4.05 -15.3 L-11.05 -11.3 -16.45 -16.65 -9.45 -20.7 -4.05 -15.3 M8.15 22.85 L13.45 28.15 3.1 34.2 -7.3 23.85 -0.4 27.8 8.15 22.85 M-27.35 -10.35 L-25.9 -11.2 -20.0 -5.3 -20.0 11.1 -27.35 3.75 -27.35 -10.35 M-11.45 29.85 L-27.35 20.7 -27.35 13.95 -11.45 29.85" fill="#767676" fill-rule="evenodd" stroke="none"/>
    <path d="M34.15 -17.65 L33.95 -14.45 32.1 -13.75 31.45 -10.0 29.5 -9.45 28.6 -5.7 26.9 -5.55 25.2 -1.5 19.3 -1.5 2.95 11.35 3.1 3.6 11.85 -1.2 15.95 -11.85 37.2 -27.0 37.15 -26.7 36.35 -18.95 34.15 -17.65 M6.25 -9.6 L1.4 -9.6 1.4 -5.3 1.4 12.25 -1.7 12.25 -1.7 -5.3 -1.7 -9.6 -6.9 -9.6 -6.9 -11.5 -1.7 -13.75 -1.7 -21.35 -0.95 -23.75 -1.5 -25.3 1.15 -25.3 0.5 -23.75 0.6 -23.6 1.4 -21.35 1.4 -13.75 1.8 -13.6 6.25 -11.5 6.25 -9.6 M-1.7 22.4 L1.4 22.4 1.4 33.15 -0.1 36.15 -1.7 33.15 -1.7 22.4 M-16.2 12.45 L-3.9 13.45 4.65 13.45 16.3 12.45 28.05 4.5 42.0 3.25 42.15 4.5 35.75 8.25 41.3 10.15 41.3 11.45 28.05 11.45 16.7 19.4 2.45 20.25 -2.1 20.25 -9.3 19.75 -16.6 19.4 -27.95 11.45 -41.15 11.45 -41.1 10.15 -35.6 8.25 -42.0 4.5 -42.1 3.2 -27.95 4.5 -16.2 12.45 M-36.3 -19.05 L-37.1 -26.8 -37.2 -27.1 -15.85 -12.0 -11.75 -1.3 -3.0 3.5 -2.95 11.25 -19.25 -1.6 -25.15 -1.6 -26.85 -5.7 -28.5 -5.75 -29.4 -9.6 -31.45 -10.05 -32.0 -13.9 -33.9 -14.55 -34.1 -17.75 -36.3 -19.05" fill="#2a2726" fill-rule="evenodd" stroke="none"/>
    <path d="M36.35 -20.45 L34.15 -19.15 33.95 -15.95 32.1 -15.25 31.55 -11.85 24.2 -19.2 37.2 -28.5 37.15 -28.2 36.35 -20.45 M8.75 5.4 L4.65 1.3 11.85 -2.65 15.2 -11.5 23.7 -2.95 19.3 -2.95 8.75 5.4 M-1.35 20.95 L0.95 20.95 0.95 31.7 -0.15 34.75 -1.35 31.7 -1.35 20.95 M-9.85 11.55 L-3.9 11.95 -0.6 11.95 5.95 18.55 2.45 18.75 -2.1 18.75 -2.6 18.75 -9.85 11.55 M29.7 3.0 L36.65 10.0 28.05 10.0 19.35 16.05 14.65 11.3 16.3 11.0 28.05 3.0 29.7 3.0 M-29.4 -11.0 L-31.45 -11.55 -32.0 -15.3 -33.9 -16.0 -34.1 -19.2 -36.3 -20.5 -36.65 -24.0 -2.95 9.7 -2.95 9.8 -19.25 -3.1 -24.45 -3.1 -25.15 -3.1 -25.65 -4.25 -26.85 -7.2 -28.5 -7.25 -29.4 -11.0 M-32.75 3.0 L-20.55 15.2 -27.95 10.0 -41.15 10.0 -35.6 6.75 -42.0 3.0 -32.75 3.0" fill="#c9c9c9" fill-rule="evenodd" stroke="none"/>
    <path d="M5.75 -11.0 L0.95 -11.0 0.95 -6.75 0.95 -2.4 -1.35 -4.65 -1.35 -6.75 -1.35 -11.0 -6.15 -11.0 -6.15 -12.95 -1.35 -15.25 -1.35 -22.85 -0.75 -25.25 -1.2 -26.8 0.75 -26.8 0.3 -25.25 0.95 -22.85 0.95 -15.25 5.75 -12.95 5.75 -11.0" fill="#e1e1e1" fill-rule="evenodd" stroke="none"/>
    <path d="M28.6 -7.2 L26.9 -7.05 25.2 -2.95 23.7 -2.95 15.2 -11.5 15.95 -13.35 24.2 -19.2 31.55 -11.85 31.45 -11.5 29.5 -10.95 28.6 -7.2 M41.95 3.0 L41.95 3.15 35.75 6.75 41.3 10.0 36.65 10.0 29.7 3.0 41.95 3.0 M16.7 18.0 L5.95 18.55 -0.6 11.95 4.65 11.95 14.65 11.3 19.35 16.05 16.7 18.0 M4.65 1.3 L8.75 5.4 2.95 9.85 3.1 2.1 4.65 1.3 M0.95 -2.4 L0.95 10.8 -1.35 10.8 -1.35 -4.65 0.95 -2.4 M-15.85 -13.4 L-11.75 -2.8 -3.0 2.0 -2.95 9.7 -36.65 -24.0 -37.1 -28.3 -37.2 -28.6 -15.85 -13.4 M-2.6 18.75 L-9.3 18.25 -16.6 18.0 -20.55 15.2 -32.75 3.0 -27.95 3.0 -16.2 11.0 -9.85 11.55 -2.6 18.75" fill="#ffffff" fill-rule="evenodd" stroke="none"/>
    <path d="M41.95 3.0 L42.15 3.0 41.95 3.15 41.95 3.0" fill="#cdcdcd" fill-rule="evenodd" stroke="none"/>
  </g>
</svg>
