<?xml version="1.0" encoding="UTF-8" standalone="no"?>
<svg xmlns:xlink="http://www.w3.org/1999/xlink" height="84.15px" width="84.2px" xmlns="http://www.w3.org/2000/svg">
  <g transform="matrix(1.0, 0.0, 0.0, 1.0, 42.1, 42.05)">
    <path d="M0.65 -38.2 L0.65 -32.4 -1.25 -32.4 -1.25 -38.2 0.65 -38.2" fill="#4d4d4d" fill-rule="evenodd" stroke="none"/>
    <path d="M28.75 -10.4 L30.2 -11.25 30.2 24.35 -0.5 42.1 -31.35 24.35 -31.35 -11.25 -30.0 -10.4 -30.0 23.5 -0.55 40.45 28.8 23.5 28.8 -10.4 28.75 -10.4" fill="#4d4d4d" fill-rule="evenodd" stroke="none"/>
    <path d="M30.2 -11.25 L28.75 -10.4 -0.55 -27.45 -30.0 -10.4 -31.35 -11.25 -0.5 -28.95 30.2 -11.25" fill="#d0d0d0" fill-rule="evenodd" stroke="none"/>
    <path d="M29.55 -37.95 L29.55 -40.45 31.5 -42.05 31.5 -36.3 31.35 -36.3 29.55 -37.95 M-28.3 -40.45 L-28.5 -40.45 -28.5 -37.95 -30.35 -36.3 -30.45 -36.3 -30.45 -42.05 -30.3 -42.05 -28.3 -40.45" fill="#3c3c3c" fill-rule="evenodd" stroke="none"/>
    <path d="M29.55 -40.45 L29.55 -37.95 -28.5 -37.95 -28.5 -40.45 -28.3 -40.45 29.55 -40.45" fill="#7b7b7b" fill-rule="evenodd" stroke="none"/>
    <path d="M31.5 -42.05 L29.55 -40.45 -28.3 -40.45 -30.3 -42.05 31.5 -42.05" fill="#d0d0d0" fill-rule="evenodd" stroke="none"/>
    <path d="M29.55 -37.95 L31.35 -36.3 -30.35 -36.3 -28.5 -37.95 29.55 -37.95 M-4.65 -28.95 L-3.65 -28.95 -3.65 -29.0 Q-3.65 -30.45 -2.65 -31.4 -1.6 -32.4 -0.25 -32.4 1.15 -32.4 2.15 -31.4 3.1 -30.45 3.1 -29.0 L3.1 -28.95 4.15 -28.95 Q4.15 -27.2 2.85 -25.9 1.55 -24.6 -0.25 -24.6 -2.05 -24.6 -3.35 -25.9 -4.65 -27.2 -4.65 -28.95 M2.0 -28.95 L2.0 -29.0 Q2.0 -30.0 1.35 -30.65 0.7 -31.3 -0.25 -31.3 -1.15 -31.3 -1.9 -30.65 -2.5 -30.0 -2.5 -29.0 L-2.5 -28.95 -3.65 -28.95 Q-3.65 -27.65 -2.65 -26.55 -1.6 -25.65 -0.25 -25.65 1.15 -25.65 2.15 -26.55 3.1 -27.65 3.1 -28.95 L2.0 -28.95" fill="#121212" fill-rule="evenodd" stroke="none"/>
    <path d="M4.15 -28.95 L3.1 -28.95 3.1 -29.0 Q3.1 -30.45 2.15 -31.4 1.15 -32.4 -0.25 -32.4 -1.6 -32.4 -2.65 -31.4 -3.65 -30.45 -3.65 -29.0 L-3.65 -28.95 -4.65 -28.95 -4.65 -29.0 Q-4.65 -30.85 -3.35 -32.15 -2.05 -33.45 -0.25 -33.45 1.55 -33.45 2.85 -32.15 4.15 -30.85 4.15 -29.0 L4.15 -28.95" fill="#4d4d4d" fill-rule="evenodd" stroke="none"/>
    <path d="M2.0 -28.95 L3.1 -28.95 Q3.1 -27.65 2.15 -26.55 1.15 -25.65 -0.25 -25.65 -1.6 -25.65 -2.65 -26.55 -3.65 -27.65 -3.65 -28.95 L-2.5 -28.95 Q-2.5 -28.1 -1.9 -27.4 -1.15 -26.75 -0.25 -26.75 0.7 -26.75 1.35 -27.4 2.0 -28.1 2.0 -28.95" fill="#313131" fill-rule="evenodd" stroke="none"/>
    <path d="M-0.9 -14.65 L-0.45 -14.9 Q8.75 -9.55 17.9 -4.25 L17.9 -4.15 16.95 -3.55 16.95 -3.7 -0.45 -13.8 -17.95 -3.7 -17.95 -3.45 -18.85 -4.25 -10.45 -9.1 Q-7.15 -10.95 -3.9 -12.85 L-0.9 -14.65 M21.45 22.8 L24.75 20.95 24.75 15.8 24.75 11.05 24.75 -2.4 24.75 -8.2 24.7 -8.2 25.95 -8.9 25.95 21.7 -0.4 36.9 -26.9 21.7 -26.9 -8.9 -25.8 -8.2 -25.8 5.0 -25.8 14.6 -25.8 20.95 -10.85 29.55 -0.45 35.5 2.8 33.6 12.6 27.95 21.45 22.8" fill="#121212" fill-rule="evenodd" stroke="none"/>
    <path d="M17.9 -4.15 L17.9 -4.25 Q8.75 -9.55 -0.45 -14.9 L-0.9 -14.65 -5.85 -19.65 -0.45 -22.8 10.95 -16.2 18.3 -8.85 19.9 -11.05 23.1 -9.2 21.2 -5.9 24.75 -2.4 24.75 11.05 23.5 9.8 18.55 9.6 24.75 15.8 24.75 20.95 21.45 22.8 16.5 17.85 17.75 17.1 17.9 17.0 17.9 7.45 21.15 7.4 17.9 4.15 17.9 -4.15 M-3.9 -12.85 Q-7.15 -10.95 -10.45 -9.1 L-15.55 -14.15 -8.9 -17.95 -3.9 -12.85 M-25.8 -8.2 L-24.4 -9.0 -18.9 -3.45 -18.9 11.95 -25.8 5.0 -25.8 -8.2 M-6.95 23.9 L-0.45 27.6 7.55 22.95 12.6 27.95 2.8 33.6 -6.95 23.9 M-10.85 29.55 L-25.8 20.95 -25.8 14.6 -10.85 29.55" fill="#4d4d4d" fill-rule="evenodd" stroke="none"/>
    <path d="M-18.85 -4.25 L-17.95 -3.45 -17.95 16.5 -18.9 16.85 -18.9 11.95 -18.9 -3.45 -18.9 -4.25 -18.85 -4.25 M16.95 -3.55 L17.9 -4.15 17.9 4.15 17.9 7.45 17.9 17.0 17.75 17.1 16.95 16.5 16.95 -3.55" fill="#3c3c3c" fill-rule="evenodd" stroke="none"/>
    <path d="M-0.9 -14.65 L-3.9 -12.85 -8.9 -17.95 -5.85 -19.65 -0.9 -14.65 M-10.45 -9.1 L-18.85 -4.25 -18.9 -4.25 -18.9 -3.45 -24.4 -9.0 -15.55 -14.15 -10.45 -9.1 M17.9 4.15 L21.15 7.4 17.9 7.45 17.9 4.15 M16.5 17.85 L21.45 22.8 12.6 27.95 7.55 22.95 16.5 17.85 M24.75 15.8 L18.55 9.6 23.5 9.8 24.75 11.05 24.75 15.8 M24.75 -2.4 L21.2 -5.9 23.1 -9.2 24.7 -8.2 24.75 -8.2 24.75 -2.4 M19.9 -11.05 L18.3 -8.85 10.95 -16.2 19.9 -11.05 M-18.9 16.85 L-18.9 17.0 -6.95 23.9 2.8 33.6 -0.45 35.5 -10.85 29.55 -25.8 14.6 -25.8 5.0 -18.9 11.95 -18.9 16.85" fill="#7b7b7b" fill-rule="evenodd" stroke="none"/>
    <path d="M17.75 17.1 L16.5 17.85 7.55 22.95 -0.45 27.6 -6.95 23.9 -18.9 17.0 -18.9 16.85 -17.95 16.5 -0.45 26.55 16.95 16.5 17.75 17.1 M23.1 -9.2 L19.9 -11.05 10.95 -16.2 -0.45 -22.8 -5.85 -19.65 -8.9 -17.95 -15.55 -14.15 -24.4 -9.0 -25.8 -8.2 -26.9 -8.9 -0.4 -24.15 25.95 -8.9 24.7 -8.2 23.1 -9.2" fill="#d0d0d0" fill-rule="evenodd" stroke="none"/>
    <path d="M28.55 -4.55 L26.85 -4.4 25.2 -0.35 19.3 -0.35 2.95 12.5 3.05 4.75 11.8 -0.05 15.9 -10.7 37.2 -25.85 37.1 -25.55 36.35 -17.8 34.15 -16.5 33.95 -13.3 32.05 -12.6 31.4 -8.85 29.45 -8.3 28.55 -4.55 M0.45 -22.6 L0.6 -22.45 1.35 -20.2 1.35 -12.6 1.75 -12.45 6.25 -10.35 6.25 -8.45 1.35 -8.45 1.35 -4.15 1.35 13.4 -1.75 13.4 -1.75 -4.15 -1.75 -8.45 -6.95 -8.45 -6.95 -10.35 -1.75 -12.6 -1.75 -20.2 -0.95 -22.6 -1.55 -24.15 1.1 -24.15 0.45 -22.6 M1.35 23.55 L1.35 34.3 -0.1 37.3 -1.75 34.3 -1.75 23.55 1.35 23.55 M42.1 5.65 L35.7 9.4 41.3 11.3 41.3 12.6 28.05 12.6 16.7 20.55 2.4 21.4 -2.15 21.4 -9.35 20.9 -16.6 20.55 -27.95 12.6 -41.2 12.6 -41.15 11.3 -35.6 9.4 -42.05 5.65 -42.1 4.35 -27.95 5.65 -16.2 13.6 -3.95 14.6 4.6 14.6 16.3 13.6 28.05 5.65 42.0 4.4 42.1 5.65 M-37.25 -25.95 L-15.9 -10.85 -11.8 -0.15 -3.05 4.65 -3.0 12.4 -19.25 -0.45 -25.15 -0.45 -26.85 -4.55 -28.55 -4.6 -29.45 -8.45 -31.45 -8.9 -32.05 -12.75 -33.95 -13.4 -34.15 -16.6 -36.35 -17.9 -37.1 -25.65 -37.25 -25.95" fill="#2a2726" fill-rule="evenodd" stroke="none"/>
    <path d="M37.1 -27.05 L36.35 -19.3 34.15 -18.0 33.95 -14.8 32.05 -14.1 31.55 -10.7 24.15 -18.05 37.2 -27.35 37.1 -27.05 M0.35 -23.95 L0.9 -21.7 0.9 -14.1 5.7 -11.8 5.7 -9.85 0.9 -9.85 0.9 -5.6 0.9 -1.25 -1.35 -3.5 -1.35 -5.6 -1.35 -9.85 -6.15 -9.85 -6.15 -11.8 -1.35 -14.1 -1.35 -21.7 -0.75 -24.1 -1.25 -25.65 0.7 -25.65 0.25 -24.1 0.35 -23.95 M19.3 -1.8 L8.7 6.55 4.6 2.45 11.8 -1.5 15.2 -10.35 23.7 -1.8 19.3 -1.8 M0.9 32.85 L-0.2 35.9 -1.35 32.85 -1.35 22.1 0.9 22.1 0.9 32.85 M-9.85 12.7 L-3.95 13.1 -0.65 13.1 5.9 19.7 2.4 19.9 -2.15 19.9 -2.65 19.9 -9.85 12.7 M28.05 4.15 L29.65 4.15 36.6 11.15 28.05 11.15 19.35 17.2 14.6 12.45 16.3 12.15 28.05 4.15 M-31.45 -10.4 L-32.05 -14.15 -33.95 -14.85 -34.15 -18.05 -36.35 -19.35 -36.65 -22.85 -3.0 10.85 -3.0 10.95 -19.25 -1.95 -24.45 -1.95 -25.15 -1.95 -25.7 -3.1 -26.85 -6.05 -28.55 -6.1 -29.45 -9.85 -31.45 -10.4 M-20.55 16.35 L-27.95 11.15 -41.2 11.15 -35.6 7.9 -42.05 4.15 -32.75 4.15 -20.55 16.35" fill="#c6a331" fill-rule="evenodd" stroke="none"/>
    <path d="M14.6 12.45 L19.35 17.2 16.7 19.15 5.9 19.7 -0.65 13.1 4.6 13.1 14.6 12.45 M35.7 7.9 L41.3 11.15 36.6 11.15 29.65 4.15 42.1 4.15 35.7 7.9 M15.2 -10.35 L15.9 -12.2 24.15 -18.05 31.55 -10.7 31.4 -10.35 29.45 -9.8 28.55 -6.05 26.85 -5.9 25.2 -1.8 23.7 -1.8 15.2 -10.35 M4.6 2.45 L8.7 6.55 2.95 11.0 3.05 3.25 4.6 2.45 M0.9 11.95 L-1.35 11.95 -1.35 -3.5 0.9 -1.25 0.9 11.95 M-15.9 -12.25 L-11.8 -1.65 -3.05 3.15 -3.0 10.85 -36.65 -22.85 -37.1 -27.15 -37.25 -27.45 -15.9 -12.25 M-9.85 12.7 L-2.65 19.9 -9.35 19.4 -16.6 19.15 -20.55 16.35 -32.75 4.15 -27.95 4.15 -16.2 12.15 -9.85 12.7" fill="#e7d66c" fill-rule="evenodd" stroke="none"/>
  </g>
</svg>
