<?xml version="1.0" encoding="UTF-8" standalone="no"?>
<svg xmlns:xlink="http://www.w3.org/1999/xlink" height="79.35px" width="84.25px" xmlns="http://www.w3.org/2000/svg">
  <g transform="matrix(1.0, 0.0, 0.0, 1.0, 42.1, 39.65)">
    <path d="M0.7 -35.8 L0.7 -30.0 -1.2 -30.0 -1.2 -35.8 0.7 -35.8" fill="#4d4d4d" fill-rule="evenodd" stroke="none"/>
    <path d="M31.4 -33.9 L29.55 -35.55 29.55 -38.05 31.5 -39.65 31.5 -33.9 31.4 -33.9 M-28.45 -35.55 L-30.35 -33.9 -30.4 -33.9 -30.4 -39.65 -30.25 -39.65 -28.25 -38.05 -28.45 -38.05 -28.45 -35.55" fill="#3c3c3c" fill-rule="evenodd" stroke="none"/>
    <path d="M29.55 -35.55 L31.4 -33.9 -30.35 -33.9 -28.45 -35.55 29.55 -35.55 M2.05 -26.55 L2.05 -26.6 Q2.05 -27.6 1.4 -28.25 0.75 -28.9 -0.2 -28.9 -1.15 -28.9 -1.85 -28.25 -2.5 -27.6 -2.5 -26.6 L-2.5 -26.55 -3.6 -26.55 -3.6 -26.6 Q-3.6 -28.05 -2.6 -29.0 -1.6 -30.0 -0.2 -30.0 1.2 -30.0 2.2 -29.0 3.15 -28.05 3.15 -26.6 L3.15 -26.55 2.05 -26.55 M-4.65 -26.55 L-3.6 -26.55 Q-3.6 -25.25 -2.6 -24.15 -1.6 -23.25 -0.2 -23.25 1.2 -23.25 2.2 -24.15 3.15 -25.25 3.15 -26.55 L4.2 -26.55 Q4.2 -24.8 2.9 -23.5 1.6 -22.2 -0.2 -22.2 -2.05 -22.2 -3.35 -23.5 -4.65 -24.8 -4.65 -26.55" fill="#121212" fill-rule="evenodd" stroke="none"/>
    <path d="M29.55 -38.05 L29.55 -35.55 -28.45 -35.55 -28.45 -38.05 -28.25 -38.05 29.55 -38.05" fill="#7b7b7b" fill-rule="evenodd" stroke="none"/>
    <path d="M31.5 -39.65 L29.55 -38.05 -28.25 -38.05 -30.25 -39.65 31.5 -39.65" fill="#d0d0d0" fill-rule="evenodd" stroke="none"/>
    <path d="M2.05 -26.55 L3.15 -26.55 Q3.15 -25.25 2.2 -24.15 1.2 -23.25 -0.2 -23.25 -1.6 -23.25 -2.6 -24.15 -3.6 -25.25 -3.6 -26.55 L-2.5 -26.55 Q-2.5 -25.7 -1.85 -25.0 -1.15 -24.35 -0.2 -24.35 0.75 -24.35 1.4 -25.0 2.05 -25.7 2.05 -26.55" fill="#313131" fill-rule="evenodd" stroke="none"/>
    <path d="M3.15 -26.55 L3.15 -26.6 Q3.15 -28.05 2.2 -29.0 1.2 -30.0 -0.2 -30.0 -1.6 -30.0 -2.6 -29.0 -3.6 -28.05 -3.6 -26.6 L-3.6 -26.55 -4.65 -26.55 -4.65 -26.6 Q-4.65 -28.45 -3.35 -29.75 -2.05 -31.05 -0.2 -31.05 1.6 -31.05 2.9 -29.75 4.2 -28.45 4.2 -26.6 L4.2 -26.55 3.15 -26.55" fill="#4d4d4d" fill-rule="evenodd" stroke="none"/>
    <path d="M19.35 -8.2 L10.6 -13.2 -0.45 -19.65 -5.7 -16.55 -8.7 -14.9 -15.1 -11.2 -23.7 -6.2 -25.05 -5.45 -26.2 -6.15 -0.4 -20.9 25.3 -6.15 24.05 -5.45 22.5 -6.4 19.35 -8.2 M-17.45 18.55 L-0.45 28.4 16.5 18.55 17.3 19.15 16.0 19.9 7.4 24.85 -0.45 29.4 -6.75 25.8 -18.3 19.05 -18.3 18.95 -17.45 18.55" fill="#d0d0d0" fill-rule="evenodd" stroke="none"/>
    <path d="M10.6 -13.2 L19.35 -8.2 17.8 -6.05 10.6 -13.2 M22.5 -6.4 L24.05 -5.45 24.1 -5.45 24.1 0.2 20.65 -3.2 22.5 -6.4 M-23.7 -6.2 L-15.1 -11.2 -10.15 -6.3 -18.3 -1.6 -18.3 -0.85 -23.7 -6.2 M-8.7 -14.9 L-5.7 -16.55 -0.85 -11.7 -3.75 -9.95 -8.7 -14.9 M24.1 13.25 L24.1 17.9 18.05 11.85 22.9 12.1 24.1 13.25 M20.9 24.75 L12.2 29.7 7.4 24.85 16.0 19.9 20.9 24.75 M2.75 35.25 L-0.45 37.05 -10.5 31.25 -25.05 16.75 -25.05 7.45 -18.3 14.15 -18.3 18.95 -18.3 19.05 -6.75 25.8 2.75 35.25 M17.4 9.8 L17.4 6.55 20.6 9.75 17.4 9.8" fill="#7b7b7b" fill-rule="evenodd" stroke="none"/>
    <path d="M19.35 -8.2 L22.5 -6.4 20.65 -3.2 24.1 0.2 24.1 13.25 22.9 12.1 18.05 11.85 24.1 17.9 24.1 22.9 20.9 24.75 16.0 19.9 17.3 19.15 17.4 19.05 17.4 9.8 20.6 9.75 17.4 6.55 17.4 -1.45 17.4 -1.6 -0.45 -11.95 -0.85 -11.7 -5.7 -16.55 -0.45 -19.65 10.6 -13.2 17.8 -6.05 19.35 -8.2 M-25.05 -5.45 L-23.7 -6.2 -18.3 -0.85 -18.3 14.15 -25.05 7.45 -25.05 -5.45 M-15.1 -11.2 L-8.7 -14.9 -3.75 -9.95 -10.15 -6.3 -15.1 -11.2 M12.2 29.7 L2.75 35.25 -6.75 25.8 -0.45 29.4 7.4 24.85 12.2 29.7 M-10.5 31.25 L-25.05 22.9 -25.05 16.75 -10.5 31.25" fill="#4d4d4d" fill-rule="evenodd" stroke="none"/>
    <path d="M24.05 -5.45 L25.3 -6.15 25.3 23.65 -0.4 38.45 -26.2 23.65 -26.2 -6.15 -25.05 -5.45 -25.05 7.45 -25.05 16.75 -25.05 22.9 -10.5 31.25 -0.45 37.05 2.75 35.25 12.2 29.7 20.9 24.75 24.1 22.9 24.1 17.9 24.1 13.25 24.1 0.2 24.1 -5.45 24.05 -5.45 M16.5 -0.9 L16.5 -1.05 -0.45 -10.9 -17.45 -1.05 -17.45 -0.85 -18.3 -1.6 -10.15 -6.3 -3.75 -9.95 -0.85 -11.7 -0.45 -11.95 17.4 -1.6 17.4 -1.45 16.5 -0.9" fill="#121212" fill-rule="evenodd" stroke="none"/>
    <path d="M16.5 -0.9 L17.4 -1.45 17.4 6.55 17.4 9.8 17.4 19.05 17.3 19.15 16.5 18.55 16.5 -0.9 M-18.3 -1.6 L-17.45 -0.85 -17.45 18.55 -18.3 18.95 -18.3 14.15 -18.3 -0.85 -18.3 -1.6" fill="#3c3c3c" fill-rule="evenodd" stroke="none"/>
    <path d="M0.5 -20.2 L0.6 -20.05 1.4 -17.8 1.4 -10.2 1.8 -10.05 6.25 -7.95 6.25 -6.05 1.4 -6.05 1.4 -1.75 1.4 15.8 -1.7 15.8 -1.7 -1.75 -1.7 -6.05 -6.9 -6.05 -6.9 -7.95 -1.7 -10.2 -1.7 -17.8 -0.95 -20.2 -1.5 -21.75 1.15 -21.75 0.5 -20.2 M26.9 -2.0 L25.2 2.05 19.3 2.05 2.95 14.9 3.1 7.15 11.85 2.35 15.95 -8.3 37.2 -23.45 37.15 -23.15 36.35 -15.4 34.15 -14.1 33.95 -10.9 32.1 -10.2 31.45 -6.45 29.5 -5.9 28.6 -2.15 26.9 -2.0 M1.4 25.95 L1.4 36.7 -0.1 39.7 -1.7 36.7 -1.7 25.95 1.4 25.95 M42.0 6.8 L42.15 8.05 35.75 11.8 41.3 13.7 41.3 15.0 28.05 15.0 16.7 22.95 2.45 23.8 -2.1 23.8 -9.3 23.3 -16.6 22.95 -27.95 15.0 -41.15 15.0 -41.1 13.7 -35.6 11.8 -42.0 8.05 -42.1 6.75 -27.95 8.05 -16.2 16.0 -3.9 17.0 4.65 17.0 16.3 16.0 28.05 8.05 42.0 6.8 M-28.5 -2.2 L-29.4 -6.05 -31.45 -6.5 -32.0 -10.35 -33.9 -11.0 -34.1 -14.2 -36.3 -15.5 -37.1 -23.25 -37.2 -23.55 -15.85 -8.45 -11.75 2.25 -3.0 7.05 -2.95 14.8 -19.25 1.95 -25.15 1.95 -26.85 -2.15 -28.5 -2.2" fill="#2a2726" fill-rule="evenodd" stroke="none"/>
    <path d="M0.3 -21.7 L0.95 -19.3 0.95 -11.7 5.75 -9.4 5.75 -7.45 0.95 -7.45 0.95 -3.2 0.95 1.15 -1.35 -1.1 -1.35 -3.2 -1.35 -7.45 -6.15 -7.45 -6.15 -9.4 -1.35 -11.7 -1.35 -19.3 -0.75 -21.7 -1.2 -23.25 0.75 -23.25 0.3 -21.7 M37.2 -24.95 L37.15 -24.65 36.35 -16.9 34.15 -15.6 33.95 -12.4 32.1 -11.7 31.55 -8.3 24.2 -15.65 37.2 -24.95 M36.65 13.55 L28.05 13.55 19.35 19.6 14.65 14.85 16.3 14.55 28.05 6.55 29.7 6.55 36.65 13.55 M19.3 0.6 L8.75 8.95 4.65 4.85 11.85 0.9 15.2 -7.95 23.7 0.6 19.3 0.6 M0.95 35.25 L-0.15 38.3 -1.35 35.25 -1.35 24.5 0.95 24.5 0.95 35.25 M-2.6 22.3 L-9.85 15.1 -3.9 15.5 -0.6 15.5 5.95 22.1 2.45 22.3 -2.1 22.3 -2.6 22.3 M-28.5 -3.7 L-29.4 -7.45 -31.45 -8.0 -32.0 -11.75 -33.9 -12.45 -34.1 -15.65 -36.3 -16.95 -36.65 -20.45 -2.95 13.25 -2.95 13.35 -19.25 0.45 -24.45 0.45 -25.15 0.45 -25.65 -0.7 -26.85 -3.65 -28.5 -3.7 M-20.55 18.75 L-27.95 13.55 -41.15 13.55 -35.6 10.3 -42.0 6.55 -32.75 6.55 -20.55 18.75" fill="#8a8a8a" fill-rule="evenodd" stroke="none"/>
    <path d="M29.7 6.55 L42.15 6.55 35.75 10.3 41.3 13.55 36.65 13.55 29.7 6.55 M31.45 -7.95 L29.5 -7.4 28.6 -3.65 26.9 -3.5 25.2 0.6 23.7 0.6 15.2 -7.95 15.95 -9.8 24.2 -15.65 31.55 -8.3 31.45 -7.95 M8.75 8.95 L2.95 13.4 3.1 5.65 4.65 4.85 8.75 8.95 M0.95 1.15 L0.95 14.35 -1.35 14.35 -1.35 -1.1 0.95 1.15 M19.35 19.6 L16.7 21.55 5.95 22.1 -0.6 15.5 4.65 15.5 14.65 14.85 19.35 19.6 M-2.95 13.25 L-36.65 -20.45 -37.1 -24.75 -37.2 -25.05 -15.85 -9.85 -11.75 0.75 -3.0 5.55 -2.95 13.25 M-2.6 22.3 L-9.3 21.8 -16.6 21.55 -20.55 18.75 -32.75 6.55 -27.95 6.55 -16.2 14.55 -9.85 15.1 -2.6 22.3" fill="#cdcdcd" fill-rule="evenodd" stroke="none"/>
  </g>
</svg>
