<?xml version="1.0" encoding="UTF-8" standalone="no"?>
<svg xmlns:xlink="http://www.w3.org/1999/xlink" height="79.35px" width="84.25px" xmlns="http://www.w3.org/2000/svg">
  <g transform="matrix(1.0, 0.0, 0.0, 1.0, 42.1, 39.65)">
    <path d="M0.85 -35.95 L0.85 -30.15 -1.05 -30.15 -1.05 -35.95 0.85 -35.95" fill="#4d4d4d" fill-rule="evenodd" stroke="none"/>
    <path d="M29.55 -38.05 L31.5 -39.65 31.5 -33.9 31.4 -33.9 29.55 -35.55 29.55 -38.05 M-30.25 -39.65 L-28.25 -38.05 -28.45 -38.05 -28.45 -35.55 -30.35 -33.9 -30.4 -33.9 -30.4 -39.65 -30.25 -39.65" fill="#3c3c3c" fill-rule="evenodd" stroke="none"/>
    <path d="M31.5 -39.65 L29.55 -38.05 -28.25 -38.05 -30.25 -39.65 31.5 -39.65" fill="#d0d0d0" fill-rule="evenodd" stroke="none"/>
    <path d="M29.55 -35.55 L31.4 -33.9 -30.35 -33.9 -28.45 -35.55 29.55 -35.55 M-2.5 -26.55 L-3.6 -26.55 Q-3.6 -25.25 -2.65 -24.15 -1.6 -23.25 -0.2 -23.25 1.2 -23.25 2.2 -24.15 3.15 -25.25 3.15 -26.55 L2.05 -26.55 2.05 -26.6 Q2.05 -27.6 1.4 -28.25 0.75 -28.9 -0.2 -28.9 -1.15 -28.9 -1.85 -28.25 -2.5 -27.6 -2.5 -26.6 L-2.5 -26.55 M-4.65 -26.55 L-3.6 -26.55 -3.6 -26.6 Q-3.6 -28.05 -2.65 -29.0 -1.6 -30.0 -0.2 -30.0 1.2 -30.0 2.2 -29.0 3.15 -28.05 3.15 -26.6 L3.15 -26.55 4.2 -26.55 Q4.2 -24.8 2.9 -23.5 1.6 -22.2 -0.2 -22.2 -2.05 -22.2 -3.35 -23.5 -4.65 -24.8 -4.65 -26.55" fill="#121212" fill-rule="evenodd" stroke="none"/>
    <path d="M29.55 -38.05 L29.55 -35.55 -28.45 -35.55 -28.45 -38.05 -28.25 -38.05 29.55 -38.05" fill="#7b7b7b" fill-rule="evenodd" stroke="none"/>
    <path d="M-2.5 -26.55 Q-2.5 -25.7 -1.85 -25.0 -1.15 -24.35 -0.2 -24.35 0.75 -24.35 1.4 -25.0 2.05 -25.7 2.05 -26.55 L3.15 -26.55 Q3.15 -25.25 2.2 -24.15 1.2 -23.25 -0.2 -23.25 -1.6 -23.25 -2.65 -24.15 -3.6 -25.25 -3.6 -26.55 L-2.5 -26.55" fill="#313131" fill-rule="evenodd" stroke="none"/>
    <path d="M-4.65 -26.55 L-4.65 -26.6 Q-4.65 -28.45 -3.35 -29.75 -2.05 -31.05 -0.2 -31.05 1.6 -31.05 2.9 -29.75 4.2 -28.45 4.2 -26.6 L4.2 -26.55 3.15 -26.55 3.15 -26.6 Q3.15 -28.05 2.2 -29.0 1.2 -30.0 -0.2 -30.0 -1.6 -30.0 -2.65 -29.0 -3.6 -28.05 -3.6 -26.6 L-3.6 -26.55 -4.65 -26.55" fill="#4d4d4d" fill-rule="evenodd" stroke="none"/>
    <path d="M17.6 -6.65 L9.65 -11.25 -0.4 -17.1 -5.25 -14.25 -7.95 -12.75 -13.75 -9.4 -21.6 -4.85 -22.85 -4.15 -23.85 -4.8 -0.35 -18.25 23.0 -4.8 21.85 -4.15 20.45 -5.05 17.6 -6.65 M15.7 18.25 L14.55 18.9 6.7 23.45 -0.4 27.55 -6.15 24.25 -16.7 18.15 -16.7 18.05 -15.9 17.7 -0.4 26.65 15.0 17.7 15.7 18.25" fill="#d0d0d0" fill-rule="evenodd" stroke="none"/>
    <path d="M9.65 -11.25 L17.6 -6.65 16.15 -4.7 9.65 -11.25 M20.45 -5.05 L21.85 -4.15 21.9 -4.15 21.9 1.0 18.8 -2.15 20.45 -5.05 M-21.6 -4.85 L-13.75 -9.4 -9.25 -4.95 -16.65 -0.65 -16.7 -0.65 -16.7 0.05 -21.6 -4.85 M-7.95 -12.75 L-5.25 -14.25 -0.8 -9.85 -3.45 -8.3 -7.95 -12.75 M15.8 6.75 L18.7 9.7 15.8 9.7 15.8 6.75 M14.55 18.9 L19.0 23.3 11.1 27.85 6.7 23.45 14.55 18.9 M21.9 17.1 L16.4 11.6 20.85 11.8 21.9 12.9 21.9 17.1 M-16.7 18.05 L-16.7 18.15 -6.15 24.25 2.5 32.9 -0.4 34.55 -9.6 29.25 -22.85 16.05 -22.85 7.55 -16.7 13.65 -16.7 18.05" fill="#7b7b7b" fill-rule="evenodd" stroke="none"/>
    <path d="M17.6 -6.65 L20.45 -5.05 18.8 -2.15 21.9 1.0 21.9 12.9 20.85 11.8 16.4 11.6 21.9 17.1 21.9 21.65 19.0 23.3 14.55 18.9 15.7 18.25 15.8 18.15 15.8 9.7 18.7 9.7 15.8 6.75 15.8 -0.55 15.8 -0.65 -0.4 -10.05 -0.8 -9.85 -5.25 -14.25 -0.4 -17.1 9.65 -11.25 16.15 -4.7 17.6 -6.65 M-22.85 -4.15 L-21.6 -4.85 -16.7 0.05 -16.7 13.65 -22.85 7.55 -22.85 -4.15 M-13.75 -9.4 L-7.95 -12.75 -3.45 -8.3 -9.25 -4.95 -13.75 -9.4 M-6.15 24.25 L-0.4 27.55 6.7 23.45 11.1 27.85 2.5 32.9 -6.15 24.25 M-22.85 16.05 L-9.6 29.25 -22.85 21.65 -22.85 16.05" fill="#4d4d4d" fill-rule="evenodd" stroke="none"/>
    <path d="M21.85 -4.15 L23.0 -4.8 23.0 22.3 -0.35 35.8 -23.85 22.3 -23.85 -4.8 -22.85 -4.15 -22.85 7.55 -22.85 16.05 -22.85 21.65 -9.6 29.25 -0.4 34.55 2.5 32.9 11.1 27.85 19.0 23.3 21.9 21.65 21.9 17.1 21.9 12.9 21.9 1.0 21.9 -4.15 21.85 -4.15 M-0.8 -9.85 L-0.4 -10.05 15.8 -0.65 15.8 -0.55 15.0 -0.05 15.0 -0.15 -0.4 -9.1 -15.9 -0.15 -15.9 0.05 -16.65 -0.65 -9.25 -4.95 -3.45 -8.3 -0.8 -9.85" fill="#121212" fill-rule="evenodd" stroke="none"/>
    <path d="M15.8 -0.55 L15.8 6.75 15.8 9.7 15.8 18.15 15.7 18.25 15.0 17.7 15.0 -0.05 15.8 -0.55 M-15.9 17.7 L-16.7 18.05 -16.7 13.65 -16.7 0.05 -16.7 -0.65 -16.65 -0.65 -15.9 0.05 -15.9 17.7" fill="#3c3c3c" fill-rule="evenodd" stroke="none"/>
    <path d="M-1.5 -21.75 L1.15 -21.75 0.5 -20.2 0.6 -20.05 1.4 -17.8 1.4 -10.2 1.8 -10.05 6.25 -7.95 6.25 -6.05 1.4 -6.05 1.4 -1.75 1.4 15.8 -1.7 15.8 -1.7 -1.75 -1.7 -6.05 -6.9 -6.05 -6.9 -7.95 -1.7 -10.2 -1.7 -17.8 -0.95 -20.2 -1.5 -21.75 M36.35 -15.4 L34.15 -14.1 33.95 -10.9 32.1 -10.2 31.45 -6.45 29.5 -5.9 28.6 -2.15 26.9 -2.0 25.2 2.05 19.3 2.05 2.95 14.9 3.1 7.15 11.85 2.35 15.95 -8.3 37.2 -23.45 37.15 -23.15 36.35 -15.4 M-0.1 39.7 L-1.7 36.7 -1.7 25.95 1.4 25.95 1.4 36.7 -0.1 39.7 M-3.9 17.0 L4.65 17.0 16.3 16.0 28.05 8.05 42.0 6.8 42.15 8.05 35.7 11.8 41.3 13.7 41.3 15.0 28.05 15.0 16.7 22.95 2.45 23.8 -2.1 23.8 -9.3 23.3 -16.6 22.95 -27.95 15.0 -41.15 15.0 -41.1 13.7 -35.6 11.8 -42.0 8.05 -42.1 6.75 -27.95 8.05 -16.2 16.0 -3.9 17.0 M-37.2 -23.55 L-15.85 -8.45 -11.8 2.25 -3.0 7.05 -2.95 14.8 -19.25 1.95 -25.15 1.95 -26.85 -2.15 -28.5 -2.2 -29.45 -6.05 -31.45 -6.5 -32.0 -10.35 -33.9 -11.0 -34.1 -14.2 -36.3 -15.5 -37.1 -23.25 -37.2 -23.55" fill="#2a2726" fill-rule="evenodd" stroke="none"/>
    <path d="M-0.75 -21.7 L-1.2 -23.25 0.75 -23.25 0.3 -21.7 0.95 -19.3 0.95 -11.7 5.75 -9.4 5.75 -7.45 0.95 -7.45 0.95 -3.2 0.95 1.15 -1.35 -1.1 -1.35 -3.2 -1.35 -7.45 -6.15 -7.45 -6.15 -9.4 -1.35 -11.7 -1.35 -19.3 -0.75 -21.7 M33.95 -12.4 L32.1 -11.7 31.55 -8.3 24.15 -15.65 37.2 -24.95 37.15 -24.65 36.35 -16.9 34.15 -15.6 33.95 -12.4 M14.65 14.85 L16.3 14.55 28.05 6.55 29.7 6.55 36.65 13.55 28.05 13.55 19.35 19.6 14.65 14.85 M8.75 8.95 L4.65 4.85 11.85 0.9 15.2 -7.95 23.7 0.6 19.3 0.6 8.75 8.95 M0.95 35.25 L-0.15 38.3 -1.35 35.25 -1.35 24.5 0.95 24.5 0.95 35.25 M2.45 22.3 L-2.1 22.3 -2.65 22.3 -9.85 15.1 -3.9 15.5 -0.6 15.5 5.95 22.1 2.45 22.3 M-32.0 -11.75 L-33.9 -12.45 -34.1 -15.65 -36.3 -16.95 -36.65 -20.45 -2.95 13.25 -2.95 13.35 -19.25 0.45 -24.45 0.45 -25.15 0.45 -25.65 -0.7 -26.85 -3.65 -28.5 -3.7 -29.45 -7.45 -31.45 -8.0 -32.0 -11.75 M-32.75 6.55 L-20.55 18.75 -27.95 13.55 -41.15 13.55 -35.6 10.3 -42.0 6.55 -32.75 6.55" fill="#b8793b" fill-rule="evenodd" stroke="none"/>
    <path d="M36.65 13.55 L29.7 6.55 42.15 6.55 35.7 10.3 41.3 13.55 36.65 13.55 M29.5 -7.4 L28.6 -3.65 26.9 -3.5 25.2 0.6 23.7 0.6 15.2 -7.95 15.95 -9.8 24.15 -15.65 31.55 -8.3 31.45 -7.95 29.5 -7.4 M4.65 4.85 L8.75 8.95 2.95 13.4 3.1 5.65 4.65 4.85 M0.95 14.35 L-1.35 14.35 -1.35 -1.1 0.95 1.15 0.95 14.35 M14.65 14.85 L19.35 19.6 16.7 21.55 5.95 22.1 -0.6 15.5 4.65 15.5 14.65 14.85 M-15.85 -9.85 L-11.8 0.75 -3.0 5.55 -2.95 13.25 -36.65 -20.45 -37.1 -24.75 -37.2 -25.05 -15.85 -9.85 M-9.85 15.1 L-2.65 22.3 -9.3 21.8 -16.6 21.55 -20.55 18.75 -32.75 6.55 -27.95 6.55 -16.2 14.55 -9.85 15.1" fill="#faae52" fill-rule="evenodd" stroke="none"/>
  </g>
</svg>
