<?xml version="1.0" encoding="UTF-8" standalone="no"?>
<svg xmlns:xlink="http://www.w3.org/1999/xlink" height="59.45px" width="36.6px" xmlns="http://www.w3.org/2000/svg">
  <g transform="matrix(1.0, 0.0, 0.0, 1.0, -0.25, 25.15)">
    <path d="M21.35 -2.45 L16.0 -2.45 16.0 -25.15 21.35 -25.15 21.35 -2.45" fill="#36a9b4" fill-rule="evenodd" stroke="none"/>
    <path d="M21.35 -25.15 L29.3 -25.15 29.3 -2.45 21.35 -2.45 21.35 -25.15 M16.0 -2.45 L8.45 -2.45 8.45 -25.15 16.0 -25.15 16.0 -2.45" fill="#626262" fill-rule="evenodd" stroke="none"/>
    <path d="M8.5 -4.25 L8.5 -4.95 9.95 -3.5 9.25 -3.5 8.5 -4.25 M8.5 -8.75 L8.5 -9.45 14.45 -3.5 13.75 -3.5 8.5 -8.75 M10.75 -8.75 L10.75 -8.8 8.45 -11.15 8.45 -11.85 16.75 -3.5 16.0 -3.5 10.75 -8.75 M10.75 -4.25 L10.75 -4.3 8.45 -6.6 8.45 -7.3 12.25 -3.5 11.5 -3.5 10.75 -4.25 M8.5 -13.3 L8.5 -14.0 18.95 -3.5 18.25 -3.5 8.5 -13.3 M8.5 -17.8 L8.5 -18.5 23.5 -3.5 22.8 -3.5 8.5 -17.8 M8.5 -22.35 L8.5 -23.05 28.0 -3.5 27.3 -3.5 8.5 -22.35 M10.75 -17.8 L10.75 -17.9 8.45 -20.2 8.45 -20.9 25.8 -3.5 25.05 -3.5 10.75 -17.8 M10.75 -13.3 L10.75 -13.35 8.45 -15.65 8.45 -16.35 21.3 -3.5 20.5 -3.5 10.75 -13.3 M14.8 -25.1 L15.5 -25.1 29.1 -11.45 29.1 -10.75 14.8 -25.1 M19.3 -25.1 L20.0 -25.1 29.1 -15.95 29.1 -15.3 19.3 -25.1 M17.05 -25.1 L17.8 -25.1 26.95 -15.9 26.95 -15.85 29.1 -13.7 29.1 -13.0 17.05 -25.1 M10.25 -25.1 L10.95 -25.1 29.1 -6.95 29.1 -6.25 10.25 -25.1 M12.5 -25.1 L13.3 -25.1 26.95 -11.4 26.95 -11.35 29.1 -9.2 29.1 -8.5 12.5 -25.1 M10.75 -22.35 L10.75 -22.4 8.45 -24.7 8.45 -25.1 8.75 -25.1 26.95 -6.9 26.95 -6.8 29.1 -4.65 29.1 -3.95 10.75 -22.35 M28.35 -25.1 L29.05 -25.1 29.1 -25.05 29.1 -24.35 28.35 -25.1 M26.1 -25.1 L26.85 -25.1 26.95 -25.0 26.95 -24.9 29.1 -22.75 29.1 -22.1 26.1 -25.1 M21.55 -25.1 L22.3 -25.1 26.95 -20.45 26.95 -20.35 29.1 -18.2 29.1 -17.55 21.55 -25.1 M24.5 -25.1 L29.1 -20.5 29.1 -19.85 23.85 -25.1 24.5 -25.1" fill="#000000" fill-opacity="0.2" fill-rule="evenodd" stroke="none"/>
    <path d="M29.3 -3.25 L8.45 -3.25 8.45 -25.15 29.3 -25.15 29.3 -3.25" fill="url(#gradient0)" fill-rule="evenodd" stroke="none"/>
    <path d="M31.85 16.05 Q31.85 21.55 27.9 25.45 24.05 29.4 18.5 29.4 13.0 29.4 9.05 25.45 5.15 21.55 5.15 16.05 5.15 10.55 9.05 6.6 13.0 2.7 18.5 2.7 24.05 2.7 27.9 6.6 31.85 10.55 31.85 16.05" fill="#777777" fill-rule="evenodd" stroke="none"/>
    <path d="M28.95 26.5 Q24.65 30.9 18.5 30.9 12.35 30.9 8.0 26.5 3.65 22.2 3.65 16.05 3.65 9.9 8.0 5.55 12.35 1.2 18.5 1.2 24.65 1.2 28.95 5.55 33.35 9.9 33.35 16.05 33.35 22.2 28.95 26.5 M31.85 16.05 Q31.85 10.55 27.9 6.6 24.05 2.7 18.5 2.7 13.0 2.7 9.05 6.6 5.15 10.55 5.15 16.05 5.15 21.55 9.05 25.45 13.0 29.4 18.5 29.4 24.05 29.4 27.9 25.45 31.85 21.55 31.85 16.05" fill="url(#gradient1)" fill-rule="evenodd" stroke="none"/>
    <path d="M21.35 3.1 L21.15 2.95 18.5 2.7 17.55 2.75 Q15.35 2.9 13.5 3.65 L13.6 3.75 Q11.15 4.7 9.15 6.65 L9.1 6.7 9.0 6.85 8.9 6.75 Q6.35 9.4 5.55 12.7 L5.5 13.05 5.6 13.15 Q5.3 14.55 5.3 16.05 5.3 18.3 5.95 20.3 L5.8 20.2 Q6.4 22.2 7.7 23.95 L9.05 25.45 Q13.0 29.4 18.5 29.4 L19.65 29.35 19.5 29.25 Q22.3 29.05 24.7 27.75 L24.8 27.85 26.35 26.85 27.9 25.45 30.2 22.5 30.1 22.45 Q31.3 20.35 31.65 17.9 L31.7 17.95 31.85 16.05 Q31.85 13.45 30.95 11.2 L30.8 11.05 Q29.75 8.65 27.8 6.65 25.0 3.85 21.35 3.1 M32.8 20.3 Q31.75 23.75 28.95 26.5 L27.75 27.65 Q23.8 30.9 18.5 30.9 12.35 30.9 8.0 26.5 L6.4 24.65 Q3.65 20.9 3.65 16.05 3.65 13.9 4.2 12.0 5.15 8.4 8.0 5.55 L9.2 4.5 Q12.8 1.5 17.6 1.25 L18.5 1.2 Q24.65 1.2 28.95 5.55 33.35 9.9 33.35 16.05 33.35 18.3 32.8 20.3" fill="url(#gradient2)" fill-rule="evenodd" stroke="none"/>
    <path d="M21.35 3.1 Q25.0 3.85 27.8 6.65 29.75 8.65 30.8 11.05 L30.95 11.2 Q31.85 13.45 31.85 16.05 L31.7 17.95 31.65 17.9 Q31.3 20.35 30.1 22.45 L30.2 22.5 27.9 25.45 26.35 26.85 24.8 27.85 24.7 27.75 Q22.3 29.05 19.5 29.25 L19.65 29.35 18.5 29.4 Q13.0 29.4 9.05 25.45 L7.7 23.95 Q6.4 22.2 5.8 20.2 L5.95 20.3 Q5.3 18.3 5.3 16.05 5.3 14.55 5.6 13.15 L5.5 13.05 5.55 12.7 Q6.35 9.4 8.9 6.75 L9.0 6.85 9.1 6.7 9.15 6.65 Q11.15 4.7 13.6 3.75 L13.5 3.65 Q15.35 2.9 17.55 2.75 L18.5 2.7 21.15 2.95 21.35 3.1 M20.7 6.15 Q23.45 6.7 25.65 8.9 27.15 10.35 27.9 12.25 L28.05 12.35 Q28.75 14.05 28.75 16.05 L28.6 17.5 28.55 17.5 Q28.3 19.35 27.35 21.0 L27.45 21.05 25.65 23.25 24.45 24.35 23.3 25.15 23.25 25.05 Q21.4 26.0 19.2 26.2 L19.4 26.3 18.5 26.3 Q14.3 26.3 11.2 23.25 L10.2 22.1 Q9.2 20.75 8.7 19.25 L8.85 19.3 Q8.35 17.85 8.35 16.05 8.35 14.9 8.6 13.9 L8.5 13.8 8.6 13.5 Q9.15 10.95 11.15 8.95 L11.2 9.05 11.3 8.95 11.35 8.9 Q12.85 7.4 14.75 6.6 L14.65 6.6 Q16.05 6.0 17.75 5.85 L18.5 5.85 20.5 6.0 20.7 6.15 M29.45 19.3 Q29.9 17.8 29.9 16.05 29.9 11.4 26.5 8.05 23.2 4.65 18.5 4.65 L17.75 4.7 Q14.1 4.95 11.35 7.2 L10.45 8.05 Q8.3 10.25 7.5 13.0 7.1 14.45 7.1 16.05 7.1 19.8 9.2 22.65 L10.45 24.1 Q13.8 27.45 18.5 27.45 22.55 27.45 25.6 25.0 L26.5 24.1 Q28.65 21.95 29.45 19.3" fill="url(#gradient3)" fill-rule="evenodd" stroke="none"/>
    <path d="M29.45 19.3 Q28.65 21.95 26.5 24.1 L25.6 25.0 Q22.55 27.45 18.5 27.45 13.8 27.45 10.45 24.1 L9.2 22.65 Q7.1 19.8 7.1 16.05 7.1 14.45 7.5 13.0 8.3 10.25 10.45 8.05 L11.35 7.2 Q14.1 4.95 17.75 4.7 L18.5 4.65 Q23.2 4.65 26.5 8.05 29.9 11.4 29.9 16.05 29.9 17.8 29.45 19.3 M20.7 6.15 L20.5 6.0 18.5 5.85 17.75 5.85 Q16.05 6.0 14.65 6.6 L14.75 6.6 Q12.85 7.4 11.35 8.9 L11.3 8.95 11.2 9.05 11.15 8.95 Q9.15 10.95 8.6 13.5 L8.5 13.8 8.6 13.9 Q8.35 14.9 8.35 16.05 8.35 17.85 8.85 19.3 L8.7 19.25 Q9.2 20.75 10.2 22.1 L11.2 23.25 Q14.3 26.3 18.5 26.3 L19.4 26.3 19.2 26.2 Q21.4 26.0 23.25 25.05 L23.3 25.15 24.45 24.35 25.65 23.25 27.45 21.05 27.35 21.0 Q28.3 19.35 28.55 17.5 L28.6 17.5 28.75 16.05 Q28.75 14.05 28.05 12.35 L27.9 12.25 Q27.15 10.35 25.65 8.9 23.45 6.7 20.7 6.15" fill="url(#gradient4)" fill-rule="evenodd" stroke="none"/>
    <path d="M6.8 -6.4 L6.75 -6.4 6.75 -5.55 6.75 -1.5 6.2 -1.05 6.2 -5.55 6.2 -6.9 6.8 -6.4 M30.95 -1.5 L30.95 -5.65 30.95 -6.4 31.5 -6.9 31.5 -5.65 31.5 -1.05 30.95 -1.5" fill="#3c3c3c" fill-rule="evenodd" stroke="none"/>
    <path d="M6.2 -1.05 L6.75 -1.5 17.95 -1.5 17.8 -1.05 17.7 -1.05 6.2 -1.05 M19.25 -1.5 L30.95 -1.5 31.5 -1.05 19.45 -1.05 19.25 -1.5" fill="#121212" fill-rule="evenodd" stroke="none"/>
    <path d="M6.8 -6.4 L6.2 -6.9 8.15 -6.9 8.35 -6.9 8.4 -6.9 8.4 -6.4 6.8 -6.4 M30.95 -6.4 L29.35 -6.4 29.35 -6.9 29.4 -6.9 29.65 -6.9 31.5 -6.9 30.95 -6.4 M29.35 -3.4 L29.35 -2.9 8.4 -2.9 8.4 -3.4 29.35 -3.4" fill="#d0d0d0" fill-rule="evenodd" stroke="none"/>
    <path d="M6.75 -1.5 L6.75 -5.55 6.75 -6.4 6.8 -6.4 8.4 -6.4 8.4 -3.4 8.4 -2.9 29.35 -2.9 29.35 -3.4 29.35 -6.4 30.95 -6.4 30.95 -5.65 30.95 -1.5 19.25 -1.5 18.85 -2.45 18.4 -1.5 18.1 -2.0 17.95 -1.5 6.75 -1.5" fill="#7b7b7b" fill-rule="evenodd" stroke="none"/>
    <path d="M17.95 -1.5 L18.1 -2.0 18.4 -1.5 18.85 -2.45 19.25 -1.5 19.45 -1.05 21.35 0.0 22.05 1.85 20.85 1.55 20.3 1.55 20.25 1.35 19.8 0.55 Q19.25 0.1 18.45 0.1 17.8 0.1 17.15 0.55 16.8 1.0 16.7 1.55 L16.15 1.55 16.1 1.5 15.1 1.8 15.85 0.0 17.7 -1.05 17.8 -1.05 17.95 -1.5" fill="#808080" fill-rule="evenodd" stroke="none"/>
    <path d="M16.7 1.55 Q16.8 1.0 17.15 0.55 17.8 0.1 18.45 0.1 19.25 0.1 19.8 0.55 L20.25 1.35 20.3 1.55 19.65 1.55 19.35 1.05 Q19.0 0.65 18.45 0.65 18.05 0.65 17.6 1.05 17.35 1.25 17.35 1.55 L16.7 1.55" fill="#202020" fill-rule="evenodd" stroke="none"/>
    <path d="M30.75 2.75 L31.65 5.05 30.7 8.2 27.2 5.95 30.75 2.75" fill="url(#gradient5)" fill-rule="evenodd" stroke="none"/>
    <path d="M30.75 2.75 L27.2 5.95 25.25 2.75 28.5 2.0 30.75 2.75" fill="url(#gradient6)" fill-rule="evenodd" stroke="none"/>
    <path d="M36.85 15.75 L32.1 15.85 32.95 11.9 35.8 13.45 36.85 15.75" fill="url(#gradient7)" fill-rule="evenodd" stroke="none"/>
    <path d="M32.1 15.85 L36.85 15.75 35.8 17.85 32.95 19.6 32.1 15.85" fill="url(#gradient8)" fill-rule="evenodd" stroke="none"/>
    <path d="M9.35 6.3 L5.95 8.35 5.05 5.25 5.9 2.95 9.35 6.3" fill="url(#gradient9)" fill-rule="evenodd" stroke="none"/>
    <path d="M5.9 2.95 L8.15 2.15 11.4 2.95 9.35 6.3 5.9 2.95" fill="url(#gradient10)" fill-rule="evenodd" stroke="none"/>
    <path d="M4.85 15.55 L4.1 19.4 1.2 17.85 0.25 15.5 4.85 15.55" fill="url(#gradient11)" fill-rule="evenodd" stroke="none"/>
    <path d="M0.25 15.5 L1.25 13.45 4.05 11.7 4.85 15.55 0.25 15.5" fill="url(#gradient12)" fill-rule="evenodd" stroke="none"/>
    <path d="M18.9 34.3 L16.8 33.25 15.05 30.45 18.8 29.4 18.9 34.3" fill="url(#gradient13)" fill-rule="evenodd" stroke="none"/>
    <path d="M18.8 29.4 L22.7 30.45 21.15 33.3 18.9 34.3 18.8 29.4" fill="url(#gradient14)" fill-rule="evenodd" stroke="none"/>
    <path d="M5.8 29.0 L9.1 25.6 11.25 29.0 8.0 29.75 5.8 29.0" fill="url(#gradient15)" fill-rule="evenodd" stroke="none"/>
    <path d="M9.1 25.6 L5.8 29.0 4.9 26.7 5.85 23.55 9.1 25.6" fill="url(#gradient16)" fill-rule="evenodd" stroke="none"/>
    <path d="M27.4 25.95 L31.1 23.75 32.05 26.85 31.15 29.2 27.4 25.95" fill="url(#gradient17)" fill-rule="evenodd" stroke="none"/>
    <path d="M31.15 29.2 L28.9 29.95 25.65 29.2 27.4 25.95 31.15 29.2" fill="url(#gradient18)" fill-rule="evenodd" stroke="none"/>
  </g>
  <defs>
    <linearGradient gradientTransform="matrix(0.0, 0.0137, -0.0184, 0.0, 18.85, -14.35)" gradientUnits="userSpaceOnUse" id="gradient0" spreadMethod="pad" x1="-819.2" x2="819.2">
      <stop offset="0.00784313725490196" stop-color="#ffffff" stop-opacity="0.4509804"/>
      <stop offset="0.12549019607843137" stop-color="#000000" stop-opacity="0.16470589"/>
      <stop offset="0.39215686274509803" stop-color="#000000" stop-opacity="0.0627451"/>
      <stop offset="0.8431372549019608" stop-color="#000000" stop-opacity="0.0"/>
      <stop offset="1.0" stop-color="#000000" stop-opacity="0.6509804"/>
    </linearGradient>
    <linearGradient gradientTransform="matrix(-0.0061, -0.0171, 0.0171, -0.0061, 18.5, 16.05)" gradientUnits="userSpaceOnUse" id="gradient1" spreadMethod="pad" x1="-819.2" x2="819.2">
      <stop offset="0.00784313725490196" stop-color="#3a3a3a"/>
      <stop offset="0.6823529411764706" stop-color="#c9c9c9"/>
      <stop offset="1.0" stop-color="#ffffff"/>
    </linearGradient>
    <linearGradient gradientTransform="matrix(0.0121, 0.0134, -0.0134, 0.0121, 18.5, 16.05)" gradientUnits="userSpaceOnUse" id="gradient2" spreadMethod="pad" x1="-819.2" x2="819.2">
      <stop offset="0.0" stop-color="#ffffff" stop-opacity="0.3019608"/>
      <stop offset="0.23921568627450981" stop-color="#c2c2c2" stop-opacity="0.0"/>
      <stop offset="0.792156862745098" stop-color="#747474" stop-opacity="0.0"/>
      <stop offset="1.0" stop-color="#4a4a4a" stop-opacity="0.65882355"/>
    </linearGradient>
    <linearGradient gradientTransform="matrix(0.0105, 0.0148, -0.0132, 0.0094, 18.55, 15.95)" gradientUnits="userSpaceOnUse" id="gradient3" spreadMethod="pad" x1="-819.2" x2="819.2">
      <stop offset="0.0" stop-color="#000000" stop-opacity="0.7490196"/>
      <stop offset="0.4" stop-color="#ffffff" stop-opacity="0.41960785"/>
      <stop offset="0.49411764705882355" stop-color="#434343" stop-opacity="0.54901963"/>
      <stop offset="0.7725490196078432" stop-color="#ffffff" stop-opacity="0.09019608"/>
      <stop offset="1.0" stop-color="#ffffff"/>
    </linearGradient>
    <linearGradient gradientTransform="matrix(0.0093, 0.0103, -0.0103, 0.0093, 18.5, 16.05)" gradientUnits="userSpaceOnUse" id="gradient4" spreadMethod="pad" x1="-819.2" x2="819.2">
      <stop offset="0.0" stop-color="#ffffff" stop-opacity="0.3019608"/>
      <stop offset="0.23921568627450981" stop-color="#c2c2c2" stop-opacity="0.0"/>
      <stop offset="0.6627450980392157" stop-color="#000000" stop-opacity="0.0"/>
      <stop offset="1.0" stop-color="#000000" stop-opacity="0.47843137"/>
    </linearGradient>
    <linearGradient gradientTransform="matrix(0.0037, 0.0074, 0.003, -0.0015, 29.05, 8.25)" gradientUnits="userSpaceOnUse" id="gradient5" spreadMethod="pad" x1="-819.2" x2="819.2">
      <stop offset="0.12941176470588237" stop-color="#000000"/>
      <stop offset="0.7137254901960784" stop-color="#ffffff"/>
    </linearGradient>
    <linearGradient gradientTransform="matrix(-0.002, -0.0049, -0.0024, 0.001, 28.6, 4.85)" gradientUnits="userSpaceOnUse" id="gradient6" spreadMethod="pad" x1="-819.2" x2="819.2">
      <stop offset="0.12941176470588237" stop-color="#000000"/>
      <stop offset="0.7137254901960784" stop-color="#ffffff"/>
    </linearGradient>
    <linearGradient gradientTransform="matrix(0.0, -0.0083, 0.0033, 0.0, 33.4, 16.5)" gradientUnits="userSpaceOnUse" id="gradient7" spreadMethod="pad" x1="-819.2" x2="819.2">
      <stop offset="0.12941176470588237" stop-color="#000000"/>
      <stop offset="0.7137254901960784" stop-color="#ffffff"/>
    </linearGradient>
    <linearGradient gradientTransform="matrix(0.002, 0.0048, -0.0024, 0.001, 34.5, 18.35)" gradientUnits="userSpaceOnUse" id="gradient8" spreadMethod="pad" x1="-819.2" x2="819.2">
      <stop offset="0.12941176470588237" stop-color="#000000"/>
      <stop offset="0.7137254901960784" stop-color="#ffffff"/>
    </linearGradient>
    <linearGradient gradientTransform="matrix(-0.0049, 0.0067, -0.0027, -0.002, 7.3, 7.4)" gradientUnits="userSpaceOnUse" id="gradient9" spreadMethod="pad" x1="-819.2" x2="819.2">
      <stop offset="0.12941176470588237" stop-color="#000000"/>
      <stop offset="0.7137254901960784" stop-color="#ffffff"/>
    </linearGradient>
    <linearGradient gradientTransform="matrix(0.002, -0.0049, 0.0024, 0.001, 8.05, 5.0)" gradientUnits="userSpaceOnUse" id="gradient10" spreadMethod="pad" x1="-819.2" x2="819.2">
      <stop offset="0.12941176470588237" stop-color="#000000"/>
      <stop offset="0.7137254901960784" stop-color="#ffffff"/>
    </linearGradient>
    <linearGradient gradientTransform="matrix(-0.0012, 0.0082, -0.0033, -5.0E-4, 3.8, 19.65)" gradientUnits="userSpaceOnUse" id="gradient11" spreadMethod="pad" x1="-819.2" x2="819.2">
      <stop offset="0.12941176470588237" stop-color="#000000"/>
      <stop offset="0.7137254901960784" stop-color="#ffffff"/>
    </linearGradient>
    <linearGradient gradientTransform="matrix(-0.002, -0.0048, 0.0024, -0.001, 3.2, 15.55)" gradientUnits="userSpaceOnUse" id="gradient12" spreadMethod="pad" x1="-819.2" x2="819.2">
      <stop offset="0.12941176470588237" stop-color="#000000"/>
      <stop offset="0.7137254901960784" stop-color="#ffffff"/>
    </linearGradient>
    <linearGradient gradientTransform="matrix(-0.0014, 0.0085, -0.0025, -4.0E-4, 15.25, 35.0)" gradientUnits="userSpaceOnUse" id="gradient13" spreadMethod="pad" x1="-819.2" x2="819.2">
      <stop offset="0.12941176470588237" stop-color="#000000"/>
      <stop offset="0.7137254901960784" stop-color="#ffffff"/>
    </linearGradient>
    <linearGradient gradientTransform="matrix(-0.0016, 0.0081, -0.0033, -6.0E-4, 19.35, 33.1)" gradientUnits="userSpaceOnUse" id="gradient14" spreadMethod="pad" x1="-819.2" x2="819.2">
      <stop offset="0.12941176470588237" stop-color="#000000"/>
      <stop offset="0.7137254901960784" stop-color="#ffffff"/>
    </linearGradient>
    <linearGradient gradientTransform="matrix(0.002, 0.0049, 0.0024, -0.001, 8.8, 29.9)" gradientUnits="userSpaceOnUse" id="gradient15" spreadMethod="pad" x1="-819.2" x2="819.2">
      <stop offset="0.12941176470588237" stop-color="#000000"/>
      <stop offset="0.7137254901960784" stop-color="#ffffff"/>
    </linearGradient>
    <linearGradient gradientTransform="matrix(0.0024, 0.0079, 0.0032, -0.001, 6.7, 28.5)" gradientUnits="userSpaceOnUse" id="gradient16" spreadMethod="pad" x1="-819.2" x2="819.2">
      <stop offset="0.12941176470588237" stop-color="#000000"/>
      <stop offset="0.7137254901960784" stop-color="#ffffff"/>
    </linearGradient>
    <linearGradient gradientTransform="matrix(-0.0024, 0.0079, -0.0032, -0.001, 30.25, 28.7)" gradientUnits="userSpaceOnUse" id="gradient17" spreadMethod="pad" x1="-819.2" x2="819.2">
      <stop offset="0.12941176470588237" stop-color="#000000"/>
      <stop offset="0.7137254901960784" stop-color="#ffffff"/>
    </linearGradient>
    <linearGradient gradientTransform="matrix(-0.002, 0.0049, -0.0024, -0.001, 27.65, 29.35)" gradientUnits="userSpaceOnUse" id="gradient18" spreadMethod="pad" x1="-819.2" x2="819.2">
      <stop offset="0.12941176470588237" stop-color="#000000"/>
      <stop offset="0.7137254901960784" stop-color="#ffffff"/>
    </linearGradient>
  </defs>
</svg>
