<?xml version="1.0" encoding="UTF-8" standalone="no"?>
<svg xmlns:xlink="http://www.w3.org/1999/xlink" height="8.5px" width="9.05px" xmlns="http://www.w3.org/2000/svg">
  <g transform="matrix(1.0, 0.0, 0.0, 1.0, 0.0, 0.0)">
    <path d="M6.65 1.0 L5.1 0.8 3.3 1.1 Q2.6 1.45 2.6 1.9 2.6 2.3 2.95 2.5 L3.9 2.95 5.8 3.4 Q7.5 3.85 8.2 4.45 9.05 5.0 9.05 5.8 9.05 7.1 7.6 7.8 6.2 8.5 3.8 8.5 L0.05 7.95 0.0 7.85 0.55 5.7 1.15 5.6 2.0 7.45 3.8 7.65 5.45 7.35 Q6.05 7.1 6.05 6.55 L5.7 5.85 Q5.35 5.6 4.15 5.25 L2.85 4.9 Q1.4 4.55 0.65 4.0 0.1 3.5 0.1 2.6 0.1 1.35 1.4 0.65 2.7 0.0 5.1 0.0 L8.6 0.45 8.0 2.6 7.4 2.7 6.65 1.0" fill="#ffffff" fill-opacity="0.0" fill-rule="evenodd" stroke="none"/>
  </g>
</svg>
