<?xml version="1.0" encoding="UTF-8" standalone="no"?>
<svg xmlns:xlink="http://www.w3.org/1999/xlink" height="63.75px" width="41.15px" xmlns="http://www.w3.org/2000/svg">
  <g transform="matrix(1.0, 0.0, 0.0, 1.0, 2.05, 25.15)">
    <path d="M27.9 -2.45 L26.6 -2.45 26.6 -25.15 27.9 -25.15 27.9 -2.45 M21.35 -2.45 L16.0 -2.45 16.0 -25.15 21.35 -25.15 21.35 -2.45 M11.3 -2.45 L10.0 -2.45 10.0 -25.15 11.3 -25.15 11.3 -2.45" fill="#b4ab36" fill-rule="evenodd" stroke="none"/>
    <path d="M27.9 -25.15 L29.3 -25.15 29.3 -2.45 27.9 -2.45 27.9 -25.15 M10.0 -2.45 L8.45 -2.45 8.45 -25.15 10.0 -25.15 10.0 -2.45" fill="#858585" fill-rule="evenodd" stroke="none"/>
    <path d="M26.6 -2.45 L21.35 -2.45 21.35 -25.15 26.6 -25.15 26.6 -2.45 M16.0 -2.45 L11.3 -2.45 11.3 -25.15 16.0 -25.15 16.0 -2.45" fill="#c2c2c2" fill-rule="evenodd" stroke="none"/>
    <path d="M8.5 -4.25 L8.5 -4.95 9.95 -3.5 9.25 -3.5 8.5 -4.25 M8.5 -8.75 L8.5 -9.45 14.45 -3.5 13.75 -3.5 8.5 -8.75 M10.75 -8.75 L10.75 -8.8 8.45 -11.15 8.45 -11.85 16.75 -3.5 16.0 -3.5 10.75 -8.75 M10.75 -4.25 L10.75 -4.3 8.45 -6.6 8.45 -7.3 12.25 -3.5 11.5 -3.5 10.75 -4.25 M8.5 -13.3 L8.5 -14.0 18.95 -3.5 18.25 -3.5 8.5 -13.3 M8.5 -17.8 L8.5 -18.5 23.5 -3.5 22.8 -3.5 8.5 -17.8 M8.5 -22.35 L8.5 -23.05 28.0 -3.5 27.3 -3.5 8.5 -22.35 M10.75 -17.8 L10.75 -17.9 8.45 -20.2 8.45 -20.9 25.8 -3.5 25.05 -3.5 10.75 -17.8 M10.75 -13.3 L10.75 -13.35 8.45 -15.65 8.45 -16.35 21.3 -3.5 20.5 -3.5 10.75 -13.3 M14.8 -25.1 L15.5 -25.1 29.1 -11.45 29.1 -10.75 14.8 -25.1 M19.3 -25.1 L20.0 -25.1 29.1 -15.95 29.1 -15.3 19.3 -25.1 M17.05 -25.1 L17.8 -25.1 26.95 -15.9 26.95 -15.85 29.1 -13.7 29.1 -13.0 17.05 -25.1 M10.25 -25.1 L10.95 -25.1 29.1 -6.95 29.1 -6.25 10.25 -25.1 M12.5 -25.1 L13.3 -25.1 26.95 -11.4 26.95 -11.35 29.1 -9.2 29.1 -8.5 12.5 -25.1 M10.75 -22.35 L10.75 -22.4 8.45 -24.7 8.45 -25.1 8.75 -25.1 26.95 -6.9 26.95 -6.8 29.1 -4.65 29.1 -3.95 10.75 -22.35 M28.35 -25.1 L29.05 -25.1 29.1 -25.05 29.1 -24.35 28.35 -25.1 M26.1 -25.1 L26.85 -25.1 26.95 -25.0 26.95 -24.9 29.1 -22.75 29.1 -22.1 26.1 -25.1 M21.55 -25.1 L22.3 -25.1 26.95 -20.45 26.95 -20.35 29.1 -18.2 29.1 -17.55 21.55 -25.1 M24.5 -25.1 L29.1 -20.5 29.1 -19.85 23.85 -25.1 24.5 -25.1" fill="#000000" fill-opacity="0.2" fill-rule="evenodd" stroke="none"/>
    <path d="M29.3 -3.25 L8.45 -3.25 8.45 -25.15 29.3 -25.15 29.3 -3.25" fill="url(#gradient0)" fill-rule="evenodd" stroke="none"/>
    <path d="M33.5 18.1 Q33.5 15.15 32.5 12.65 31.4 9.8 29.05 7.45 25.75 4.15 21.45 3.35 L18.5 3.1 Q15.45 3.1 12.85 4.15 10.1 5.25 7.85 7.45 L7.7 7.65 Q4.7 10.75 3.85 14.75 3.5 16.35 3.5 18.1 3.5 20.55 4.2 22.75 5.25 26.05 7.85 28.65 12.3 33.1 18.5 33.1 L19.8 33.05 Q22.9 32.8 25.55 31.35 27.45 30.3 29.05 28.65 30.6 27.1 31.65 25.35 33.0 23.0 33.35 20.25 L33.5 18.1 M30.25 29.85 Q25.4 34.8 18.5 34.8 11.6 34.8 6.7 29.85 1.8 25.0 1.8 18.1 1.8 11.2 6.7 6.3 11.6 1.4 18.5 1.4 25.4 1.4 30.25 6.3 35.2 11.2 35.2 18.1 35.2 25.0 30.25 29.85" fill="url(#gradient1)" fill-rule="evenodd" stroke="none"/>
    <path d="M33.5 18.1 L33.35 20.25 Q33.0 23.0 31.65 25.35 30.6 27.1 29.05 28.65 27.45 30.3 25.55 31.35 22.9 32.8 19.8 33.05 L18.5 33.1 Q12.3 33.1 7.85 28.65 5.25 26.05 4.2 22.75 3.5 20.55 3.5 18.1 3.5 16.35 3.85 14.75 4.7 10.75 7.7 7.65 L7.85 7.45 Q10.1 5.25 12.85 4.15 15.45 3.1 18.5 3.1 L21.45 3.35 Q25.75 4.15 29.05 7.45 31.4 9.8 32.5 12.65 33.5 15.15 33.5 18.1" fill="#bfad28" fill-rule="evenodd" stroke="none"/>
    <path d="M21.7 3.55 L21.45 3.35 18.5 3.1 17.4 3.15 Q14.95 3.3 12.85 4.15 L13.0 4.25 Q10.25 5.35 8.0 7.55 L7.95 7.6 7.8 7.75 7.7 7.65 Q4.85 10.6 3.95 14.35 L3.85 14.75 4.0 14.85 Q3.65 16.4 3.65 18.1 3.65 20.65 4.4 22.85 L4.2 22.75 Q4.9 25.0 6.35 26.95 L7.85 28.65 Q12.3 33.1 18.5 33.1 L19.8 33.05 19.6 32.95 Q22.75 32.7 25.45 31.25 L25.55 31.35 27.3 30.25 29.05 28.65 Q30.6 27.1 31.65 25.35 L31.5 25.3 Q32.85 22.9 33.25 20.15 L33.35 20.25 33.5 18.1 Q33.5 15.15 32.5 12.65 L32.3 12.45 Q31.15 9.75 28.95 7.55 25.8 4.4 21.7 3.55 M34.55 22.85 Q33.4 26.75 30.25 29.85 L28.9 31.15 Q24.45 34.8 18.5 34.8 11.6 34.8 6.7 29.85 L4.9 27.75 Q1.8 23.55 1.8 18.1 1.8 15.7 2.4 13.55 3.5 9.5 6.7 6.3 L8.05 5.1 Q12.1 1.75 17.45 1.45 L18.5 1.4 Q25.4 1.4 30.25 6.3 35.2 11.2 35.2 18.1 35.2 20.6 34.55 22.85" fill="url(#gradient2)" fill-rule="evenodd" stroke="none"/>
    <path d="M20.95 6.95 Q24.05 7.6 26.5 10.05 28.2 11.7 29.05 13.8 L29.2 13.95 Q30.0 15.85 30.0 18.1 L29.85 19.75 29.8 19.7 Q29.5 21.8 28.45 23.65 L28.55 23.7 26.55 26.2 25.2 27.45 23.9 28.3 23.8 28.2 Q21.75 29.3 19.3 29.5 L19.5 29.6 18.5 29.6 Q13.75 29.6 10.3 26.2 L9.15 24.9 Q8.05 23.4 7.5 21.7 L7.65 21.75 Q7.1 20.1 7.1 18.1 7.1 16.8 7.35 15.65 L7.25 15.55 7.35 15.25 Q8.0 12.35 10.2 10.1 L10.3 10.2 10.4 10.1 10.45 10.05 Q12.15 8.35 14.25 7.5 L14.15 7.45 Q15.75 6.8 17.65 6.65 L18.5 6.65 20.75 6.8 20.95 6.95 M21.7 3.55 Q25.8 4.4 28.95 7.55 31.15 9.75 32.3 12.45 L32.5 12.65 Q33.5 15.15 33.5 18.1 L33.35 20.25 33.25 20.15 Q32.85 22.9 31.5 25.3 L31.65 25.35 Q30.6 27.1 29.05 28.65 L27.3 30.25 25.55 31.35 25.45 31.25 Q22.75 32.7 19.6 32.95 L19.8 33.05 18.5 33.1 Q12.3 33.1 7.85 28.65 L6.35 26.95 Q4.9 25.0 4.2 22.75 L4.4 22.85 Q3.65 20.65 3.65 18.1 3.65 16.4 4.0 14.85 L3.85 14.75 3.95 14.35 Q4.85 10.6 7.7 7.65 L7.8 7.75 7.95 7.6 8.0 7.55 Q10.25 5.35 13.0 4.25 L12.85 4.15 Q14.95 3.3 17.4 3.15 L18.5 3.1 21.45 3.35 21.7 3.55 M30.8 21.75 Q31.3 20.05 31.3 18.1 31.3 12.85 27.5 9.1 23.75 5.3 18.5 5.3 L17.65 5.35 Q13.55 5.6 10.45 8.15 L9.45 9.1 Q7.0 11.55 6.15 14.65 5.7 16.3 5.7 18.1 5.7 22.3 8.05 25.5 L9.45 27.15 Q13.2 30.9 18.5 30.9 23.05 30.9 26.45 28.15 L27.5 27.15 Q29.9 24.75 30.8 21.75" fill="url(#gradient3)" fill-rule="evenodd" stroke="none"/>
    <path d="M20.95 6.95 L20.75 6.8 18.5 6.65 17.65 6.65 Q15.75 6.8 14.15 7.45 L14.25 7.5 Q12.15 8.35 10.45 10.05 L10.4 10.1 10.3 10.2 10.2 10.1 Q8.0 12.35 7.35 15.25 L7.25 15.55 7.35 15.65 Q7.1 16.8 7.1 18.1 7.1 20.1 7.65 21.75 L7.5 21.7 Q8.05 23.4 9.15 24.9 L10.3 26.2 Q13.75 29.6 18.5 29.6 L19.5 29.6 19.3 29.5 Q21.75 29.3 23.8 28.2 L23.9 28.3 25.2 27.45 26.55 26.2 28.55 23.7 28.45 23.65 Q29.5 21.8 29.8 19.7 L29.85 19.75 30.0 18.1 Q30.0 15.85 29.2 13.95 L29.05 13.8 Q28.2 11.7 26.5 10.05 24.05 7.6 20.95 6.95 M30.8 21.75 Q29.9 24.75 27.5 27.15 L26.45 28.15 Q23.05 30.9 18.5 30.9 13.2 30.9 9.45 27.15 L8.05 25.5 Q5.7 22.3 5.7 18.1 5.7 16.3 6.15 14.65 7.0 11.55 9.45 9.1 L10.45 8.15 Q13.55 5.6 17.65 5.35 L18.5 5.3 Q23.75 5.3 27.5 9.1 31.3 12.85 31.3 18.1 31.3 20.05 30.8 21.75" fill="url(#gradient4)" fill-rule="evenodd" stroke="none"/>
    <path d="M6.8 -6.4 L6.75 -6.4 6.75 -5.55 6.75 -1.5 6.2 -1.05 6.2 -5.55 6.2 -6.9 6.8 -6.4 M30.95 -1.5 L30.95 -5.65 30.95 -6.4 31.5 -6.9 31.5 -5.65 31.5 -1.05 30.95 -1.5" fill="#3c3c3c" fill-rule="evenodd" stroke="none"/>
    <path d="M6.75 -1.5 L6.75 -5.55 6.75 -6.4 6.8 -6.4 8.4 -6.4 8.4 -3.4 8.4 -2.9 29.35 -2.9 29.35 -3.4 29.35 -6.4 30.95 -6.4 30.95 -5.65 30.95 -1.5 19.25 -1.5 18.85 -2.45 18.4 -1.5 18.1 -2.0 17.95 -1.5 6.75 -1.5" fill="#7b7b7b" fill-rule="evenodd" stroke="none"/>
    <path d="M6.8 -6.4 L6.2 -6.9 8.15 -6.9 8.35 -6.9 8.4 -6.9 8.4 -6.4 6.8 -6.4 M30.95 -6.4 L29.35 -6.4 29.35 -6.9 29.4 -6.9 29.65 -6.9 31.5 -6.9 30.95 -6.4 M29.35 -3.4 L29.35 -2.9 8.4 -2.9 8.4 -3.4 29.35 -3.4" fill="#d0d0d0" fill-rule="evenodd" stroke="none"/>
    <path d="M6.2 -1.05 L6.75 -1.5 17.95 -1.5 17.8 -1.05 17.7 -1.05 6.2 -1.05 M19.25 -1.5 L30.95 -1.5 31.5 -1.05 19.45 -1.05 19.25 -1.5" fill="#121212" fill-rule="evenodd" stroke="none"/>
    <path d="M17.95 -1.5 L18.1 -2.0 18.4 -1.5 18.85 -2.45 19.25 -1.5 19.45 -1.05 21.35 0.0 22.05 1.85 20.85 1.55 20.3 1.55 20.25 1.35 19.8 0.55 Q19.25 0.1 18.45 0.1 17.8 0.1 17.15 0.55 16.8 1.0 16.7 1.55 L16.15 1.55 16.1 1.5 15.1 1.8 15.85 0.0 17.7 -1.05 17.8 -1.05 17.95 -1.5" fill="#808080" fill-rule="evenodd" stroke="none"/>
    <path d="M16.7 1.55 Q16.8 1.0 17.15 0.55 17.8 0.1 18.45 0.1 19.25 0.1 19.8 0.55 L20.25 1.35 20.3 1.55 19.65 1.55 19.35 1.05 Q19.0 0.65 18.45 0.65 18.05 0.65 17.6 1.05 17.35 1.25 17.35 1.55 L16.7 1.55" fill="#202020" fill-rule="evenodd" stroke="none"/>
    <path d="M32.25 3.15 L33.25 5.75 32.2 9.25 28.25 6.75 32.25 3.15" fill="url(#gradient5)" fill-rule="evenodd" stroke="none"/>
    <path d="M32.25 3.15 L28.25 6.75 26.1 3.15 29.75 2.3 32.25 3.15" fill="url(#gradient6)" fill-rule="evenodd" stroke="none"/>
    <path d="M39.1 17.75 L33.75 17.85 34.7 13.45 37.95 15.2 39.1 17.75" fill="url(#gradient7)" fill-rule="evenodd" stroke="none"/>
    <path d="M33.75 17.85 L39.1 17.75 37.95 20.1 34.75 22.1 33.75 17.85" fill="url(#gradient8)" fill-rule="evenodd" stroke="none"/>
    <path d="M8.2 7.15 L4.4 9.45 3.35 5.95 4.35 3.35 8.2 7.15" fill="url(#gradient9)" fill-rule="evenodd" stroke="none"/>
    <path d="M4.35 3.35 L6.85 2.5 10.5 3.35 8.2 7.15 4.35 3.35" fill="url(#gradient10)" fill-rule="evenodd" stroke="none"/>
    <path d="M3.15 17.55 L2.3 21.85 -0.95 20.1 -2.05 17.5 3.15 17.55" fill="url(#gradient11)" fill-rule="evenodd" stroke="none"/>
    <path d="M-2.05 17.5 L-0.9 15.15 2.25 13.2 3.15 17.55 -2.05 17.5" fill="url(#gradient12)" fill-rule="evenodd" stroke="none"/>
    <path d="M18.95 38.6 L16.6 37.45 14.6 34.25 18.85 33.1 18.95 38.6" fill="url(#gradient13)" fill-rule="evenodd" stroke="none"/>
    <path d="M18.85 33.1 L23.2 34.25 21.45 37.5 18.95 38.6 18.85 33.1" fill="url(#gradient14)" fill-rule="evenodd" stroke="none"/>
    <path d="M4.2 32.65 L3.2 30.05 4.25 26.55 7.9 28.85 4.2 32.65" fill="url(#gradient15)" fill-rule="evenodd" stroke="none"/>
    <path d="M4.2 32.65 L7.9 28.85 10.35 32.65 6.7 33.5 4.2 32.65" fill="url(#gradient16)" fill-rule="evenodd" stroke="none"/>
    <path d="M32.7 32.85 L28.5 29.2 Q30.6 28.0 32.65 26.75 L33.7 30.25 32.7 32.85" fill="url(#gradient17)" fill-rule="evenodd" stroke="none"/>
    <path d="M28.5 29.2 L32.7 32.85 30.2 33.7 26.55 32.85 28.5 29.2" fill="url(#gradient18)" fill-rule="evenodd" stroke="none"/>
  </g>
  <defs>
    <linearGradient gradientTransform="matrix(0.0, 0.0137, -0.0184, 0.0, 18.85, -14.35)" gradientUnits="userSpaceOnUse" id="gradient0" spreadMethod="pad" x1="-819.2" x2="819.2">
      <stop offset="0.00784313725490196" stop-color="#ffffff" stop-opacity="0.4509804"/>
      <stop offset="0.12549019607843137" stop-color="#000000" stop-opacity="0.16470589"/>
      <stop offset="0.39215686274509803" stop-color="#000000" stop-opacity="0.0627451"/>
      <stop offset="0.8431372549019608" stop-color="#000000" stop-opacity="0.0"/>
      <stop offset="1.0" stop-color="#000000" stop-opacity="0.6509804"/>
    </linearGradient>
    <linearGradient gradientTransform="matrix(-0.0068, -0.0192, 0.0192, -0.0068, 18.5, 18.1)" gradientUnits="userSpaceOnUse" id="gradient1" spreadMethod="pad" x1="-819.2" x2="819.2">
      <stop offset="0.00784313725490196" stop-color="#434200"/>
      <stop offset="0.6823529411764706" stop-color="#c4ac03"/>
      <stop offset="1.0" stop-color="#ffd27b"/>
    </linearGradient>
    <linearGradient gradientTransform="matrix(0.0137, 0.0151, -0.0151, 0.0137, 18.5, 18.1)" gradientUnits="userSpaceOnUse" id="gradient2" spreadMethod="pad" x1="-819.2" x2="819.2">
      <stop offset="0.0" stop-color="#ffffff" stop-opacity="0.3019608"/>
      <stop offset="0.23921568627450981" stop-color="#c2c2c2" stop-opacity="0.0"/>
      <stop offset="0.792156862745098" stop-color="#747474" stop-opacity="0.0"/>
      <stop offset="1.0" stop-color="#4a4a4a" stop-opacity="0.65882355"/>
    </linearGradient>
    <linearGradient gradientTransform="matrix(0.0118, 0.0166, -0.0149, 0.0106, 18.55, 18.0)" gradientUnits="userSpaceOnUse" id="gradient3" spreadMethod="pad" x1="-819.2" x2="819.2">
      <stop offset="0.0" stop-color="#000000" stop-opacity="0.7490196"/>
      <stop offset="0.4" stop-color="#ffffff" stop-opacity="0.41960785"/>
      <stop offset="0.49411764705882355" stop-color="#434343" stop-opacity="0.54901963"/>
      <stop offset="0.7725490196078432" stop-color="#ffffff" stop-opacity="0.09019608"/>
      <stop offset="1.0" stop-color="#ffffff"/>
    </linearGradient>
    <linearGradient gradientTransform="matrix(0.0105, 0.0116, -0.0116, 0.0105, 18.5, 18.1)" gradientUnits="userSpaceOnUse" id="gradient4" spreadMethod="pad" x1="-819.2" x2="819.2">
      <stop offset="0.0" stop-color="#ffffff" stop-opacity="0.3019608"/>
      <stop offset="0.23921568627450981" stop-color="#c2c2c2" stop-opacity="0.0"/>
      <stop offset="0.6627450980392157" stop-color="#000000" stop-opacity="0.0"/>
      <stop offset="1.0" stop-color="#000000" stop-opacity="0.47843137"/>
    </linearGradient>
    <linearGradient gradientTransform="matrix(0.0041, 0.0083, 0.0033, -0.0017, 30.35, 9.35)" gradientUnits="userSpaceOnUse" id="gradient5" spreadMethod="pad" x1="-819.2" x2="819.2">
      <stop offset="0.27450980392156865" stop-color="#46392b"/>
      <stop offset="0.5176470588235295" stop-color="#ad7c32"/>
      <stop offset="0.7137254901960784" stop-color="#ffdf77"/>
    </linearGradient>
    <linearGradient gradientTransform="matrix(-0.0022, -0.0054, -0.0027, 0.0011, 29.85, 5.5)" gradientUnits="userSpaceOnUse" id="gradient6" spreadMethod="pad" x1="-819.2" x2="819.2">
      <stop offset="0.27450980392156865" stop-color="#46392b"/>
      <stop offset="0.5176470588235295" stop-color="#ad7c32"/>
      <stop offset="0.7137254901960784" stop-color="#ffdf77"/>
    </linearGradient>
    <linearGradient gradientTransform="matrix(0.0, -0.0093, 0.0037, 0.0, 35.25, 18.6)" gradientUnits="userSpaceOnUse" id="gradient7" spreadMethod="pad" x1="-819.2" x2="819.2">
      <stop offset="0.27450980392156865" stop-color="#46392b"/>
      <stop offset="0.5176470588235295" stop-color="#ad7c32"/>
      <stop offset="0.7137254901960784" stop-color="#ffdf77"/>
    </linearGradient>
    <linearGradient gradientTransform="matrix(0.0023, 0.0054, -0.0027, 0.0011, 36.45, 20.7)" gradientUnits="userSpaceOnUse" id="gradient8" spreadMethod="pad" x1="-819.2" x2="819.2">
      <stop offset="0.27450980392156865" stop-color="#46392b"/>
      <stop offset="0.5176470588235295" stop-color="#ad7c32"/>
      <stop offset="0.7137254901960784" stop-color="#ffdf77"/>
    </linearGradient>
    <linearGradient gradientTransform="matrix(-0.0055, 0.0075, -0.003, -0.0022, 5.9, 8.4)" gradientUnits="userSpaceOnUse" id="gradient9" spreadMethod="pad" x1="-819.2" x2="819.2">
      <stop offset="0.27450980392156865" stop-color="#46392b"/>
      <stop offset="0.5176470588235295" stop-color="#ad7c32"/>
      <stop offset="0.7137254901960784" stop-color="#ffdf77"/>
    </linearGradient>
    <linearGradient gradientTransform="matrix(0.0022, -0.0054, 0.0027, 0.0011, 6.75, 5.7)" gradientUnits="userSpaceOnUse" id="gradient10" spreadMethod="pad" x1="-819.2" x2="819.2">
      <stop offset="0.27450980392156865" stop-color="#46392b"/>
      <stop offset="0.5176470588235295" stop-color="#ad7c32"/>
      <stop offset="0.7137254901960784" stop-color="#ffdf77"/>
    </linearGradient>
    <linearGradient gradientTransform="matrix(-0.0014, 0.0092, -0.0037, -6.0E-4, 1.95, 22.15)" gradientUnits="userSpaceOnUse" id="gradient11" spreadMethod="pad" x1="-819.2" x2="819.2">
      <stop offset="0.27450980392156865" stop-color="#46392b"/>
      <stop offset="0.5176470588235295" stop-color="#ad7c32"/>
      <stop offset="0.7137254901960784" stop-color="#ffdf77"/>
    </linearGradient>
    <linearGradient gradientTransform="matrix(-0.0023, -0.0054, 0.0027, -0.0011, 1.3, 17.55)" gradientUnits="userSpaceOnUse" id="gradient12" spreadMethod="pad" x1="-819.2" x2="819.2">
      <stop offset="0.27450980392156865" stop-color="#46392b"/>
      <stop offset="0.5176470588235295" stop-color="#ad7c32"/>
      <stop offset="0.7137254901960784" stop-color="#ffdf77"/>
    </linearGradient>
    <linearGradient gradientTransform="matrix(-0.0016, 0.0096, -0.0029, -5.0E-4, 14.85, 39.4)" gradientUnits="userSpaceOnUse" id="gradient13" spreadMethod="pad" x1="-819.2" x2="819.2">
      <stop offset="0.27450980392156865" stop-color="#46392b"/>
      <stop offset="0.5176470588235295" stop-color="#ad7c32"/>
      <stop offset="0.7137254901960784" stop-color="#ffdf77"/>
    </linearGradient>
    <linearGradient gradientTransform="matrix(-0.0018, 0.0091, -0.0036, -7.0E-4, 19.45, 37.25)" gradientUnits="userSpaceOnUse" id="gradient14" spreadMethod="pad" x1="-819.2" x2="819.2">
      <stop offset="0.27450980392156865" stop-color="#46392b"/>
      <stop offset="0.5176470588235295" stop-color="#ad7c32"/>
      <stop offset="0.7137254901960784" stop-color="#ffdf77"/>
    </linearGradient>
    <linearGradient gradientTransform="matrix(0.0027, 0.0089, 0.0036, -0.0011, 5.2, 32.1)" gradientUnits="userSpaceOnUse" id="gradient15" spreadMethod="pad" x1="-819.2" x2="819.2">
      <stop offset="0.27450980392156865" stop-color="#46392b"/>
      <stop offset="0.5176470588235295" stop-color="#ad7c32"/>
      <stop offset="0.7137254901960784" stop-color="#ffdf77"/>
    </linearGradient>
    <linearGradient gradientTransform="matrix(0.0022, 0.0054, 0.0027, -0.0011, 7.6, 33.65)" gradientUnits="userSpaceOnUse" id="gradient16" spreadMethod="pad" x1="-819.2" x2="819.2">
      <stop offset="0.27450980392156865" stop-color="#46392b"/>
      <stop offset="0.5176470588235295" stop-color="#ad7c32"/>
      <stop offset="0.7137254901960784" stop-color="#ffdf77"/>
    </linearGradient>
    <linearGradient gradientTransform="matrix(-0.0027, 0.0089, -0.0036, -0.0011, 31.7, 32.3)" gradientUnits="userSpaceOnUse" id="gradient17" spreadMethod="pad" x1="-819.2" x2="819.2">
      <stop offset="0.27450980392156865" stop-color="#46392b"/>
      <stop offset="0.5176470588235295" stop-color="#ad7c32"/>
      <stop offset="0.7137254901960784" stop-color="#ffdf77"/>
    </linearGradient>
    <linearGradient gradientTransform="matrix(-0.0022, 0.0054, -0.0027, -0.0011, 28.75, 33.05)" gradientUnits="userSpaceOnUse" id="gradient18" spreadMethod="pad" x1="-819.2" x2="819.2">
      <stop offset="0.27450980392156865" stop-color="#46392b"/>
      <stop offset="0.5176470588235295" stop-color="#ad7c32"/>
      <stop offset="0.7137254901960784" stop-color="#ffdf77"/>
    </linearGradient>
  </defs>
</svg>
