<?xml version="1.0" encoding="UTF-8" standalone="no"?>
<svg xmlns:xlink="http://www.w3.org/1999/xlink" height="17.7px" width="17.65px" xmlns="http://www.w3.org/2000/svg">
  <g transform="matrix(1.0, 0.0, 0.0, 1.0, 0.0, 0.0)">
    <path d="M16.45 4.35 L16.55 4.45 17.4 6.5 17.4 6.65 15.2 8.85 13.35 7.0 13.35 4.35 16.45 4.35 M11.0 0.25 L11.15 0.3 Q12.25 0.6 13.25 1.15 L13.35 1.25 13.35 4.35 10.7 4.35 8.8 2.45 11.0 0.25" fill="#b4b4b4" fill-rule="evenodd" stroke="none"/>
    <path d="M13.35 1.25 L15.1 2.6 16.45 4.35 13.35 4.35 13.35 7.0 10.7 4.35 13.35 4.35 13.35 1.25" fill="#d4d4d4" fill-rule="evenodd" stroke="none"/>
    <path d="M13.35 7.0 L13.35 10.7 10.65 13.4 6.95 13.4 4.3 10.75 4.3 6.95 6.9 4.35 10.7 4.35 13.35 7.0" fill="#afafaf" fill-rule="evenodd" stroke="none"/>
    <path d="M13.35 7.0 L15.2 8.85 13.35 10.7 13.35 7.0 M10.7 4.35 L6.9 4.35 8.8 2.45 10.7 4.35" fill="#9a9a9a" fill-rule="evenodd" stroke="none"/>
    <path d="M17.4 11.05 L17.4 11.2 16.55 13.3 16.45 13.4 13.35 13.4 13.35 10.7 15.2 8.85 17.4 11.05 M4.3 1.25 L4.45 1.15 Q5.45 0.55 6.6 0.25 L8.8 2.45 6.9 4.35 4.3 4.35 4.3 1.25" fill="#7b7b7b" fill-rule="evenodd" stroke="none"/>
    <path d="M17.4 6.65 L17.65 8.85 17.4 11.05 15.2 8.85 17.4 6.65 M6.6 0.25 L8.8 0.0 11.0 0.25 8.8 2.45 6.6 0.25" fill="#8e8e8e" fill-rule="evenodd" stroke="none"/>
    <path d="M16.45 13.4 L15.1 15.15 13.35 16.5 13.35 13.4 16.45 13.4 M1.2 4.35 Q1.75 3.4 2.55 2.6 L4.3 1.25 4.3 4.35 1.2 4.35" fill="#666666" fill-rule="evenodd" stroke="none"/>
    <path d="M13.35 16.5 L13.25 16.6 11.15 17.45 11.0 17.45 8.8 15.25 10.65 13.4 13.35 13.4 13.35 16.5 M0.25 6.7 L0.3 6.55 Q0.6 5.4 1.2 4.35 L4.3 4.35 4.3 6.95 2.4 8.85 0.25 6.7" fill="#5b5b5b" fill-rule="evenodd" stroke="none"/>
    <path d="M11.0 17.45 L8.8 17.7 6.6 17.45 8.8 15.25 11.0 17.45 M0.25 11.0 Q0.0 10.0 0.0 8.85 0.0 7.7 0.25 6.7 L2.4 8.85 0.25 11.0" fill="#333d41" fill-rule="evenodd" stroke="none"/>
    <path d="M6.6 17.45 L4.4 16.6 4.3 16.5 4.3 13.4 1.2 13.4 Q0.55 12.35 0.3 11.15 L0.25 11.0 2.4 8.85 4.3 10.75 4.3 13.4 6.95 13.4 8.8 15.25 6.6 17.45" fill="#3d454a" fill-rule="evenodd" stroke="none"/>
    <path d="M4.3 6.95 L4.3 10.75 2.4 8.85 4.3 6.95 M6.95 13.4 L10.65 13.4 8.8 15.25 6.95 13.4" fill="#515151" fill-rule="evenodd" stroke="none"/>
    <path d="M6.9 4.35 L4.3 6.95 4.3 4.35 6.9 4.35 M10.65 13.4 L13.35 10.7 13.35 13.4 10.65 13.4" fill="#707070" fill-rule="evenodd" stroke="none"/>
    <path d="M4.3 16.5 L2.55 15.15 1.2 13.4 4.3 13.4 4.3 16.5" fill="#495962" fill-rule="evenodd" stroke="none"/>
    <path d="M4.3 10.75 L6.95 13.4 4.3 13.4 4.3 10.75" fill="#484848" fill-rule="evenodd" stroke="none"/>
  </g>
</svg>
