<?xml version="1.0" encoding="UTF-8" standalone="no"?>
<svg xmlns:xlink="http://www.w3.org/1999/xlink" height="57.75px" width="33.65px" xmlns="http://www.w3.org/2000/svg">
  <g transform="matrix(1.0, 0.0, 0.0, 1.0, -1.7, 25.15)">
    <path d="M31.65 19.75 Q31.1 21.45 30.15 23.0 L30.95 25.8 30.1 27.9 28.1 28.6 25.1 27.9 25.15 27.8 22.25 29.05 22.35 29.05 20.9 31.7 18.9 32.6 16.95 31.65 15.4 29.15 Q13.45 28.7 11.8 27.75 L8.9 28.4 6.8 27.7 6.0 25.6 6.8 22.8 Q5.65 20.95 5.2 18.85 L2.6 17.5 1.7 15.3 2.65 13.4 5.2 11.8 5.3 12.2 5.3 12.15 Q5.8 10.25 6.9 8.6 L6.1 5.9 6.9 3.75 9.0 3.05 12.0 3.75 11.95 3.85 Q13.5 2.95 15.2 2.55 L15.85 1.0 17.7 -0.05 17.8 -0.05 17.95 -0.5 8.75 -0.5 8.75 -1.9 8.8 -1.9 28.95 -1.9 28.95 -0.5 19.25 -0.5 19.45 -0.05 21.35 1.0 21.95 2.6 Q23.4 2.95 24.75 3.65 L27.7 2.95 29.75 3.65 30.55 5.75 29.85 8.15 Q31.15 10.05 31.7 12.25 L31.75 12.05 34.4 13.45 35.35 15.55 34.4 17.5 31.85 19.05 31.65 19.75 M29.3 -2.45 L8.45 -2.45 8.45 -25.15 29.3 -25.15 29.3 -2.45 M18.5 2.2 L20.25 2.3 19.8 1.55 Q19.25 1.1 18.45 1.1 17.8 1.1 17.15 1.55 16.9 1.9 16.8 2.3 L17.6 2.2 18.5 2.2" fill="#000000" fill-rule="evenodd" stroke="none"/>
  </g>
</svg>
