<?xml version="1.0" encoding="UTF-8" standalone="no"?>
<svg xmlns:xlink="http://www.w3.org/1999/xlink" height="287.95px" width="213.0px" xmlns="http://www.w3.org/2000/svg">
  <g transform="matrix(1.0, 0.0, 0.0, 1.0, -0.8, -191.2)">
    <path d="M213.8 241.2 L213.8 282.2 0.8 282.2 0.8 241.2 213.8 241.2" fill="url(#gradient0)" fill-rule="evenodd" stroke="none"/>
    <path d="M213.8 340.15 L213.8 381.15 0.8 381.15 0.8 340.15 213.8 340.15" fill="url(#gradient1)" fill-rule="evenodd" stroke="none"/>
    <path d="M213.8 290.15 L213.8 331.15 0.8 331.15 0.8 290.15 213.8 290.15" fill="url(#gradient2)" fill-rule="evenodd" stroke="none"/>
    <path d="M213.8 389.15 L213.8 430.15 0.8 430.15 0.8 389.15 213.8 389.15" fill="url(#gradient3)" fill-rule="evenodd" stroke="none"/>
    <path d="M213.8 191.2 L213.8 232.2 0.8 232.2 0.8 191.2 213.8 191.2" fill="url(#gradient4)" fill-rule="evenodd" stroke="none"/>
    <path d="M213.8 438.15 L213.8 479.15 0.8 479.15 0.8 438.15 213.8 438.15" fill="url(#gradient5)" fill-rule="evenodd" stroke="none"/>
  </g>
  <defs>
    <linearGradient gradientTransform="matrix(0.1221, 0.0, 0.0, 0.025, 107.3, 257.7)" gradientUnits="userSpaceOnUse" id="gradient0" spreadMethod="pad" x1="-819.2" x2="819.2">
      <stop offset="0.0" stop-color="#990000" stop-opacity="0.8"/>
      <stop offset="1.0" stop-color="#990000" stop-opacity="0.0"/>
    </linearGradient>
    <linearGradient gradientTransform="matrix(0.1221, 0.0, 0.0, 0.025, 107.3, 356.65)" gradientUnits="userSpaceOnUse" id="gradient1" spreadMethod="pad" x1="-819.2" x2="819.2">
      <stop offset="0.0" stop-color="#990000" stop-opacity="0.8"/>
      <stop offset="1.0" stop-color="#990000" stop-opacity="0.0"/>
    </linearGradient>
    <linearGradient gradientTransform="matrix(0.1221, 0.0, 0.0, 0.025, 107.3, 306.65)" gradientUnits="userSpaceOnUse" id="gradient2" spreadMethod="pad" x1="-819.2" x2="819.2">
      <stop offset="0.0" stop-color="#990000" stop-opacity="0.8"/>
      <stop offset="1.0" stop-color="#990000" stop-opacity="0.0"/>
    </linearGradient>
    <linearGradient gradientTransform="matrix(0.1221, 0.0, 0.0, 0.025, 107.3, 405.65)" gradientUnits="userSpaceOnUse" id="gradient3" spreadMethod="pad" x1="-819.2" x2="819.2">
      <stop offset="0.0" stop-color="#990000" stop-opacity="0.8"/>
      <stop offset="1.0" stop-color="#990000" stop-opacity="0.0"/>
    </linearGradient>
    <linearGradient gradientTransform="matrix(0.1221, 0.0, 0.0, 0.025, 107.3, 207.7)" gradientUnits="userSpaceOnUse" id="gradient4" spreadMethod="pad" x1="-819.2" x2="819.2">
      <stop offset="0.0" stop-color="#990000" stop-opacity="0.8"/>
      <stop offset="1.0" stop-color="#990000" stop-opacity="0.0"/>
    </linearGradient>
    <linearGradient gradientTransform="matrix(0.1221, 0.0, 0.0, 0.025, 107.3, 454.65)" gradientUnits="userSpaceOnUse" id="gradient5" spreadMethod="pad" x1="-819.2" x2="819.2">
      <stop offset="0.0" stop-color="#990000" stop-opacity="0.8"/>
      <stop offset="1.0" stop-color="#990000" stop-opacity="0.0"/>
    </linearGradient>
  </defs>
</svg>
