<?xml version="1.0" encoding="UTF-8" standalone="no"?>
<svg xmlns:xlink="http://www.w3.org/1999/xlink" height="65.2px" width="50.75px" xmlns="http://www.w3.org/2000/svg">
  <g transform="matrix(1.0, 0.0, 0.0, 1.0, 6.65, 25.15)">
    <path d="M17.15 -24.95 L20.2 -24.95 20.2 -11.75 17.15 -11.75 17.15 -24.95" fill="#b8b8b8" fill-rule="evenodd" stroke="none"/>
    <path d="M22.8 -24.95 L27.55 -24.95 27.55 -11.75 22.8 -11.75 22.8 -24.95 M10.1 -24.95 L14.85 -24.95 14.85 -11.75 10.1 -11.75 10.1 -24.95" fill="#090909" fill-rule="evenodd" stroke="none"/>
    <path d="M27.55 -11.75 L27.55 -24.95 29.3 -24.95 29.3 -11.75 27.55 -11.75 M10.1 -11.75 L8.45 -11.75 8.45 -24.95 10.1 -24.95 10.1 -11.75" fill="#4f4f4f" fill-rule="evenodd" stroke="none"/>
    <path d="M22.8 -24.95 L22.8 -11.75 20.2 -11.75 20.2 -24.95 22.8 -24.95 M17.15 -24.95 L17.15 -11.75 14.85 -11.75 14.85 -24.95 17.15 -24.95" fill="#272727" fill-rule="evenodd" stroke="none"/>
    <path d="M12.5 -25.1 L13.3 -25.1 26.4 -12.0 25.6 -12.0 12.5 -25.1 M10.75 -22.35 L10.75 -22.4 8.45 -24.7 8.45 -25.1 8.75 -25.1 21.85 -12.0 21.1 -12.0 10.75 -22.35 M28.35 -25.1 L29.05 -25.1 29.1 -25.05 29.1 -24.35 28.35 -25.1 M26.1 -25.1 L26.85 -25.1 26.95 -25.0 26.95 -24.9 29.1 -22.75 29.1 -22.1 26.1 -25.1 M21.55 -25.1 L22.3 -25.1 26.95 -20.45 26.95 -20.35 29.1 -18.2 29.1 -17.55 21.55 -25.1 M24.5 -25.1 L29.1 -20.5 29.1 -19.85 23.85 -25.1 24.5 -25.1 M10.25 -25.1 L10.95 -25.1 24.05 -12.0 23.35 -12.0 10.25 -25.1 M8.5 -13.3 L8.5 -14.0 10.5 -12.0 9.8 -12.0 8.5 -13.3 M8.5 -17.8 L8.5 -18.5 15.0 -12.0 14.3 -12.0 8.5 -17.8 M8.5 -22.35 L8.5 -23.05 19.55 -12.0 18.85 -12.0 8.5 -22.35 M10.75 -13.3 L10.75 -13.35 8.45 -15.65 8.45 -16.35 12.8 -12.0 12.05 -12.0 10.75 -13.3 M10.75 -17.8 L10.75 -17.9 8.45 -20.2 8.45 -20.9 17.35 -12.0 16.55 -12.0 10.75 -17.8 M14.8 -25.1 L15.5 -25.1 28.6 -12.0 27.9 -12.0 14.8 -25.1 M19.3 -25.1 L20.0 -25.1 29.1 -15.95 29.1 -15.3 19.3 -25.1 M17.05 -25.1 L17.8 -25.1 29.1 -13.75 29.1 -13.05 17.05 -25.1" fill="#000000" fill-opacity="0.2" fill-rule="evenodd" stroke="none"/>
    <path d="M29.3 -11.6 L8.45 -11.6 8.45 -25.15 29.3 -25.15 29.3 -11.6" fill="url(#gradient0)" fill-rule="evenodd" stroke="none"/>
    <path d="M18.65 -10.7 L25.55 -1.45 27.95 -1.65 29.0 0.75 40.5 2.1 40.45 2.4 19.4 14.6 18.55 14.6 18.65 -10.7" fill="#b6a56e" fill-rule="evenodd" stroke="none"/>
    <path d="M40.45 2.4 L36.0 12.8 37.45 14.75 19.4 14.6 18.7 14.85 18.5 15.05 17.7 15.5 18.25 14.65 18.05 14.55 18.3 14.55 9.2 -1.4 9.25 -1.65 11.5 -1.35 18.65 -10.7 18.55 14.6 19.4 14.6 40.45 2.4" fill="#696020" fill-rule="evenodd" stroke="none"/>
    <path d="M37.45 14.75 L35.85 16.8 40.45 27.45 40.2 27.45 18.7 14.85 19.4 14.6 37.45 14.75 M-3.35 2.1 L-3.4 1.9 8.2 0.65 9.2 -1.4 18.3 14.55 18.05 14.55 -3.35 2.1" fill="#7e7931" fill-rule="evenodd" stroke="none"/>
    <path d="M40.2 27.45 L28.85 28.75 27.95 31.05 27.75 31.15 18.5 15.05 18.7 14.85 40.2 27.45 M-0.25 14.35 L1.2 12.6 -3.35 2.1 18.05 14.55 -0.25 14.35" fill="#413306" fill-rule="evenodd" stroke="none"/>
    <path d="M27.75 31.15 L25.4 30.9 18.5 40.0 18.5 15.05 27.75 31.15 M-3.05 27.5 L-3.4 27.45 1.25 16.75 -0.4 14.6 -0.25 14.35 18.05 14.55 18.25 14.65 17.7 15.5 -3.05 27.5" fill="#585223" fill-rule="evenodd" stroke="none"/>
    <path d="M18.5 40.0 L18.45 40.05 11.55 30.85 9.15 31.05 8.15 28.75 -3.05 27.5 17.7 15.5 18.5 15.05 18.5 40.0" fill="#2a1e03" fill-rule="evenodd" stroke="none"/>
    <path d="M25.05 4.5 L38.25 3.6 30.85 14.6 30.7 14.85 30.85 15.2 38.25 26.2 25.0 25.25 24.65 25.35 24.4 25.6 18.55 37.6 12.8 25.75 12.55 25.5 12.25 25.4 -1.2 26.4 6.4 15.2 6.5 14.85 6.35 14.6 -1.2 3.4 12.25 4.35 12.55 4.3 12.8 4.05 18.55 -7.9 24.5 4.25 24.7 4.45 25.05 4.5" fill="url(#gradient1)" fill-rule="evenodd" stroke="none"/>
    <path d="M5.65 -6.3 L16.35 -1.95 18.3 -3.4 20.45 -1.85 31.0 -6.7 31.05 -6.4 19.4 14.95 18.7 15.35 5.65 -6.3" fill="#b6a56e" fill-rule="evenodd" stroke="none"/>
    <path d="M31.05 -6.4 L33.15 7.05 32.45 7.4 32.5 7.4 19.4 14.95 19.0 15.55 18.9 15.75 18.45 16.55 18.45 15.55 18.25 15.55 18.45 15.45 4.1 7.45 5.6 -6.3 5.65 -6.3 18.7 15.35 19.4 14.95 31.05 -6.4" fill="#696020" fill-rule="evenodd" stroke="none"/>
    <path d="M43.85 15.15 L33.4 23.45 33.1 23.1 18.9 15.75 19.0 15.55 43.85 15.15 M4.45 23.75 L-6.55 16.05 18.25 15.55 4.45 23.75" fill="#413306" fill-rule="evenodd" stroke="none"/>
    <path d="M31.8 37.15 L31.8 37.2 21.1 32.85 19.15 34.35 17.15 32.85 6.9 37.6 18.45 16.55 18.9 15.75 31.8 37.15" fill="#2a1e03" fill-rule="evenodd" stroke="none"/>
    <path d="M32.5 7.4 L34.65 8.3 44.1 15.0 43.85 15.15 19.0 15.55 19.4 14.95 32.5 7.4" fill="url(#gradient2)" fill-rule="evenodd" stroke="none"/>
    <path d="M33.1 23.1 L31.8 37.15 18.9 15.75 33.1 23.1 M6.9 37.6 L6.6 37.75 4.65 23.65 3.85 24.15 4.45 23.75 18.25 15.55 18.45 15.55 18.45 16.55 6.9 37.6 M-6.55 16.05 L-6.65 15.9 2.6 8.8 3.75 8.15 4.05 7.65 4.1 7.45 18.45 15.45 18.25 15.55 -6.55 16.05" fill="url(#gradient3)" fill-rule="evenodd" stroke="none"/>
    <path d="M19.05 3.5 L29.8 -4.2 29.2 9.05 29.2 9.4 29.5 9.6 41.55 15.1 29.75 21.2 29.5 21.4 29.4 21.75 30.65 35.1 19.55 27.95 19.25 27.9 19.0 27.9 8.0 35.75 8.6 22.3 8.5 21.95 8.35 21.7 -4.0 16.1 8.05 9.9 8.2 9.7 8.25 9.45 7.05 -3.8 18.4 3.5 18.7 3.6 19.05 3.5" fill="url(#gradient4)" fill-rule="evenodd" stroke="none"/>
    <path d="M39.9 15.05 L40.05 15.15 18.7 36.75 18.55 36.85 -2.85 15.3 -2.9 15.15 -2.85 15.05 18.55 -6.5 18.7 -6.4 39.9 15.05 M39.6 15.15 L18.55 -6.05 -2.5 15.15 18.55 36.4 39.6 15.15" fill="#565656" fill-rule="evenodd" stroke="none"/>
    <path d="M39.9 15.05 L18.7 -6.4 18.55 -6.5 -2.85 15.05 -2.9 15.15 -2.85 15.3 18.55 36.85 18.7 36.75 40.05 15.15 39.9 15.05 M41.45 15.15 L18.55 38.3 -4.35 15.15 18.55 -7.9 41.45 15.15" fill="url(#gradient5)" fill-rule="evenodd" stroke="none"/>
    <path d="M34.65 15.2 L38.2 15.15 18.8 34.8 18.75 31.25 34.65 15.2" fill="url(#gradient6)" fill-rule="evenodd" stroke="none"/>
    <path d="M34.65 15.2 L34.65 15.15 18.5 -1.15 2.35 15.15 2.6 15.4 -0.85 15.4 -1.1 15.15 18.55 -4.7 38.2 15.15 34.65 15.2" fill="url(#gradient7)" fill-rule="evenodd" stroke="none"/>
    <path d="M2.6 15.4 L2.35 15.15 18.5 -1.15 34.65 15.15 34.65 15.2 18.75 31.25 18.5 31.5 2.6 15.4" fill="url(#gradient8)" fill-rule="evenodd" stroke="none"/>
    <path d="M-0.85 15.4 L2.6 15.4 18.5 31.5 18.75 31.25 18.8 34.8 18.55 35.0 -0.85 15.4" fill="url(#gradient9)" fill-rule="evenodd" stroke="none"/>
    <path d="M38.2 15.15 L18.55 -4.7 -1.1 15.15 -0.85 15.4 18.55 35.0 18.8 34.8 38.2 15.15 M39.6 15.15 L18.55 36.4 -2.5 15.15 18.55 -6.05 39.6 15.15" fill="url(#gradient10)" fill-rule="evenodd" stroke="none"/>
    <path d="M6.2 -15.3 L6.8 -14.8 6.75 -14.8 6.75 -13.95 6.75 -9.9 6.2 -9.45 6.2 -13.95 6.2 -15.3 M31.5 -9.45 L30.95 -9.9 30.95 -14.05 30.95 -14.8 31.5 -15.3 31.5 -14.05 31.5 -9.45" fill="#3c3c3c" fill-rule="evenodd" stroke="none"/>
    <path d="M6.75 -9.9 L6.75 -13.95 6.75 -14.8 6.8 -14.8 8.4 -14.8 8.4 -11.8 8.4 -11.3 29.35 -11.3 29.35 -11.8 29.35 -14.8 30.95 -14.8 30.95 -14.05 30.95 -9.9 19.25 -9.9 18.85 -10.85 18.4 -9.9 18.1 -10.4 17.95 -9.9 6.75 -9.9" fill="#7b7b7b" fill-rule="evenodd" stroke="none"/>
    <path d="M6.8 -14.8 L6.2 -15.3 8.15 -15.3 8.35 -15.3 8.4 -15.3 8.4 -14.8 6.8 -14.8 M29.35 -11.8 L29.35 -11.3 8.4 -11.3 8.4 -11.8 29.35 -11.8 M31.5 -15.3 L30.95 -14.8 29.35 -14.8 29.35 -15.3 29.4 -15.3 29.65 -15.3 31.5 -15.3" fill="#d0d0d0" fill-rule="evenodd" stroke="none"/>
    <path d="M6.2 -9.45 L6.75 -9.9 17.95 -9.9 17.8 -9.45 17.7 -9.45 6.2 -9.45 M19.45 -9.45 L19.25 -9.9 30.95 -9.9 31.5 -9.45 19.45 -9.45" fill="#121212" fill-rule="evenodd" stroke="none"/>
    <path d="M19.25 -9.9 L19.45 -9.45 21.35 -8.4 22.05 -6.55 20.85 -6.85 20.3 -6.85 20.25 -7.05 19.8 -7.85 18.45 -8.3 17.15 -7.85 16.7 -6.85 16.15 -6.85 16.1 -6.9 15.1 -6.6 15.85 -8.4 17.7 -9.45 17.8 -9.45 17.95 -9.9 18.1 -10.4 18.4 -9.9 18.85 -10.85 19.25 -9.9" fill="#808080" fill-rule="evenodd" stroke="none"/>
    <path d="M16.7 -6.85 L17.15 -7.85 18.45 -8.3 19.8 -7.85 20.25 -7.05 20.3 -6.85 19.65 -6.85 19.35 -7.35 Q19.0 -7.75 18.45 -7.75 18.05 -7.75 17.6 -7.35 L17.35 -6.85 16.7 -6.85" fill="#202020" fill-rule="evenodd" stroke="none"/>
    <path d="M26.15 14.75 Q26.15 18.1 23.85 20.45 21.5 22.75 18.25 22.75 14.85 22.75 12.5 20.45 10.25 18.1 10.25 14.75 10.25 11.45 12.5 9.1 14.85 6.85 18.25 6.85 21.5 6.85 23.85 9.1 26.15 11.45 26.15 14.75" fill="url(#gradient11)" fill-rule="evenodd" stroke="none"/>
  </g>
  <defs>
    <linearGradient gradientTransform="matrix(0.0, 0.0085, -0.0184, 0.0, 18.85, -18.45)" gradientUnits="userSpaceOnUse" id="gradient0" spreadMethod="pad" x1="-819.2" x2="819.2">
      <stop offset="0.00784313725490196" stop-color="#ffffff" stop-opacity="0.4509804"/>
      <stop offset="0.12549019607843137" stop-color="#000000" stop-opacity="0.16470589"/>
      <stop offset="0.39215686274509803" stop-color="#000000" stop-opacity="0.0627451"/>
      <stop offset="0.8431372549019608" stop-color="#000000" stop-opacity="0.0"/>
      <stop offset="1.0" stop-color="#000000" stop-opacity="0.6509804"/>
    </linearGradient>
    <radialGradient cx="0" cy="0" gradientTransform="matrix(0.0509, 0.0, 0.0, 0.0509, 20.15, 0.6)" gradientUnits="userSpaceOnUse" id="gradient1" r="819.2" spreadMethod="pad">
      <stop offset="0.0" stop-color="#f0f0f0"/>
      <stop offset="1.0" stop-color="#090909"/>
    </radialGradient>
    <linearGradient gradientTransform="matrix(0.0153, 0.0, 0.0, 0.005, 60.25, 10.75)" gradientUnits="userSpaceOnUse" id="gradient2" spreadMethod="pad" x1="-819.2" x2="819.2">
      <stop offset="0.0" stop-color="#b6a56e"/>
      <stop offset="0.3254901960784314" stop-color="#7e7931"/>
      <stop offset="0.7176470588235294" stop-color="#413306"/>
      <stop offset="1.0" stop-color="#2a1e03"/>
    </linearGradient>
    <linearGradient gradientTransform="matrix(0.0086, 0.0, 0.0, 0.0131, 30.7, 26.25)" gradientUnits="userSpaceOnUse" id="gradient3" spreadMethod="pad" x1="-819.2" x2="819.2">
      <stop offset="0.0" stop-color="#b6a56e"/>
      <stop offset="0.3254901960784314" stop-color="#7e7931"/>
      <stop offset="0.7176470588235294" stop-color="#413306"/>
      <stop offset="1.0" stop-color="#2a1e03"/>
    </linearGradient>
    <radialGradient cx="0" cy="0" gradientTransform="matrix(0.0509, 0.0, 0.0, 0.0509, 20.15, 0.6)" gradientUnits="userSpaceOnUse" id="gradient4" r="819.2" spreadMethod="pad">
      <stop offset="0.0" stop-color="#f0f0f0"/>
      <stop offset="1.0" stop-color="#090909"/>
    </radialGradient>
    <linearGradient gradientTransform="matrix(-6.0E-4, 0.0279, -0.0282, -6.0E-4, 23.65, 22.2)" gradientUnits="userSpaceOnUse" id="gradient5" spreadMethod="pad" x1="-819.2" x2="819.2">
      <stop offset="0.0" stop-color="#d2d2d2"/>
      <stop offset="1.0" stop-color="#000000"/>
    </linearGradient>
    <radialGradient cx="0" cy="0" gradientTransform="matrix(0.0262, 0.0, 0.0, 0.0262, 18.55, 15.15)" gradientUnits="userSpaceOnUse" id="gradient6" r="819.2" spreadMethod="pad">
      <stop offset="0.3803921568627451" stop-color="#565656"/>
      <stop offset="1.0" stop-color="#000000"/>
    </radialGradient>
    <radialGradient cx="0" cy="0" gradientTransform="matrix(0.0262, 0.0, 0.0, 0.0262, 18.55, 15.15)" gradientUnits="userSpaceOnUse" id="gradient7" r="819.2" spreadMethod="pad">
      <stop offset="0.3803921568627451" stop-color="#252525"/>
      <stop offset="1.0" stop-color="#000000"/>
    </radialGradient>
    <radialGradient cx="0" cy="0" gradientTransform="matrix(0.0262, 0.0, 0.0, 0.0262, 18.55, 15.15)" gradientUnits="userSpaceOnUse" id="gradient8" r="819.2" spreadMethod="pad">
      <stop offset="0.3803921568627451" stop-color="#333333"/>
      <stop offset="1.0" stop-color="#000000"/>
    </radialGradient>
    <radialGradient cx="0" cy="0" gradientTransform="matrix(0.0262, 0.0, 0.0, 0.0262, 18.55, 15.15)" gradientUnits="userSpaceOnUse" id="gradient9" r="819.2" spreadMethod="pad">
      <stop offset="0.3803921568627451" stop-color="#434343"/>
      <stop offset="1.0" stop-color="#000000"/>
    </radialGradient>
    <linearGradient gradientTransform="matrix(-1.0E-4, -0.026, 0.0262, -1.0E-4, 18.5, 15.15)" gradientUnits="userSpaceOnUse" id="gradient10" spreadMethod="pad" x1="-819.2" x2="819.2">
      <stop offset="0.0" stop-color="#d2d2d2"/>
      <stop offset="1.0" stop-color="#000000"/>
    </linearGradient>
    <linearGradient gradientTransform="matrix(-0.01, -0.0149, 0.0081, -0.0054, 17.85, 15.35)" gradientUnits="userSpaceOnUse" id="gradient11" spreadMethod="pad" x1="-819.2" x2="819.2">
      <stop offset="0.0" stop-color="#000000"/>
      <stop offset="1.0" stop-color="#ffffff"/>
    </linearGradient>
  </defs>
</svg>
