<?xml version="1.0" encoding="UTF-8" standalone="no"?>
<svg xmlns:xlink="http://www.w3.org/1999/xlink" height="65.3px" width="43.85px" xmlns="http://www.w3.org/2000/svg">
  <g transform="matrix(1.0, 0.0, 0.0, 1.0, 3.2, 25.15)">
    <path d="M27.25 -25.15 L29.3 -25.15 29.3 -4.85 27.25 -4.85 27.25 -25.15 M10.1 -4.85 L8.45 -4.85 8.45 -25.15 10.1 -25.15 10.1 -4.85" fill="#000000" fill-rule="evenodd" stroke="none"/>
    <path d="M18.3 -4.85 L12.95 -4.85 12.95 -25.15 15.6 -25.15 18.3 -25.15 18.3 -4.85" fill="#352a2a" fill-rule="evenodd" stroke="none"/>
    <path d="M18.3 -25.15 L21.0 -25.15 27.25 -25.15 27.25 -4.85 18.3 -4.85 18.3 -25.15 M12.95 -4.85 L10.1 -4.85 10.1 -25.15 12.95 -25.15 12.95 -4.85" fill="#911a1a" fill-rule="evenodd" stroke="none"/>
    <path d="M10.75 -8.75 L10.75 -8.8 8.45 -11.15 8.45 -11.8 14.6 -5.65 13.85 -5.65 10.75 -8.75 M8.5 -8.75 L8.5 -9.45 12.3 -5.65 11.6 -5.65 8.5 -8.75 M9.4 -5.65 L8.45 -6.6 8.45 -7.3 10.1 -5.65 9.4 -5.65 M8.5 -13.3 L8.5 -14.0 16.8 -5.65 16.1 -5.65 8.5 -13.3 M8.5 -17.8 L8.5 -18.5 21.35 -5.65 20.65 -5.65 8.5 -17.8 M8.5 -22.35 L8.5 -23.05 25.85 -5.65 25.15 -5.65 8.5 -22.35 M10.75 -13.3 L10.75 -13.35 8.45 -15.65 8.45 -16.35 19.15 -5.65 18.35 -5.65 10.75 -13.3 M10.75 -17.8 L10.75 -17.85 8.45 -20.2 8.45 -20.9 23.65 -5.65 22.9 -5.65 10.75 -17.8 M14.8 -25.1 L15.5 -25.1 29.1 -11.45 29.1 -10.75 14.8 -25.1 M19.3 -25.1 L20.0 -25.1 29.1 -15.95 29.1 -15.3 19.3 -25.1 M17.05 -25.1 L17.8 -25.1 26.95 -15.9 26.95 -15.85 29.1 -13.7 29.1 -13.0 17.05 -25.1 M10.25 -25.1 L10.95 -25.1 29.1 -6.95 29.1 -6.25 10.25 -25.1 M12.5 -25.1 L13.3 -25.1 26.95 -11.4 26.95 -11.35 29.1 -9.2 29.1 -8.5 12.5 -25.1 M10.75 -22.35 L10.75 -22.4 8.45 -24.7 8.45 -25.1 8.75 -25.1 26.95 -6.9 26.95 -6.8 28.1 -5.65 27.4 -5.65 10.75 -22.35 M28.35 -25.1 L29.05 -25.1 29.1 -25.05 29.1 -24.35 28.35 -25.1 M26.1 -25.1 L26.85 -25.1 26.95 -25.0 26.95 -24.9 29.1 -22.75 29.1 -22.1 26.1 -25.1 M21.55 -25.1 L22.3 -25.1 26.95 -20.45 26.95 -20.35 29.1 -18.2 29.1 -17.55 21.55 -25.1 M24.5 -25.1 L29.1 -20.5 29.1 -19.85 23.85 -25.1 24.5 -25.1" fill="#000000" fill-opacity="0.2" fill-rule="evenodd" stroke="none"/>
    <path d="M29.3 -5.35 L8.45 -5.35 8.45 -25.15 29.3 -25.15 29.3 -5.35" fill="url(#gradient0)" fill-rule="evenodd" stroke="none"/>
    <path d="M11.1 5.6 L11.45 5.85 18.45 -3.75 18.5 -3.7 18.75 18.1 19.5 18.1 18.9 18.4 18.8 18.5 18.1 18.9 18.5 18.15 18.3 18.05 18.55 18.1 11.1 5.6" fill="url(#gradient1)" fill-rule="evenodd" stroke="none"/>
    <path d="M18.5 -3.7 L24.6 4.2 26.6 3.95 27.55 6.0 37.55 7.0 37.5 7.25 19.5 18.1 18.75 18.1 18.5 -3.7" fill="url(#gradient2)" fill-rule="evenodd" stroke="none"/>
    <path d="M37.5 7.25 L33.25 17.85 32.9 18.05 19.5 18.1 37.5 7.25" fill="url(#gradient3)" fill-rule="evenodd" stroke="none"/>
    <path d="M0.3 29.65 L0.05 29.55 3.85 20.25 4.5 18.2 18.3 18.05 18.5 18.15 18.1 18.9 0.3 29.65" fill="url(#gradient4)" fill-rule="evenodd" stroke="none"/>
    <path d="M4.5 18.2 L4.6 17.9 4.35 18.2 -0.4 7.65 18.3 18.05 4.5 18.2" fill="url(#gradient5)" fill-rule="evenodd" stroke="none"/>
    <path d="M32.9 18.05 L37.9 28.9 37.65 28.9 18.9 18.4 19.5 18.1 32.9 18.05" fill="url(#gradient6)" fill-rule="evenodd" stroke="none"/>
    <path d="M37.65 28.9 L25.85 30.55 18.8 18.5 18.9 18.4 37.65 28.9" fill="url(#gradient7)" fill-rule="evenodd" stroke="none"/>
    <path d="M-0.4 7.65 L-0.4 7.55 9.6 6.2 11.1 5.6 18.55 18.1 18.3 18.05 -0.4 7.65" fill="url(#gradient8)" fill-rule="evenodd" stroke="none"/>
    <path d="M19.1 40.1 L19.05 40.15 12.95 32.25 10.85 32.5 10.0 30.55 0.3 29.65 18.1 18.9 18.8 18.5 19.1 40.1" fill="url(#gradient9)" fill-rule="evenodd" stroke="none"/>
    <path d="M25.85 30.55 L24.95 32.1 19.1 40.1 18.8 18.5 25.85 30.55" fill="url(#gradient10)" fill-rule="evenodd" stroke="none"/>
    <path d="M7.45 -0.65 L16.7 3.1 18.35 1.85 20.2 3.2 29.35 -1.0 29.4 -0.75 19.3 17.7 18.7 18.05 7.45 -0.65" fill="url(#gradient11)" fill-rule="evenodd" stroke="none"/>
    <path d="M5.8 11.1 L6.2 11.15 7.4 -0.65 7.45 -0.65 18.7 18.05 19.3 17.7 18.95 18.25 18.9 18.4 18.5 19.1 18.5 18.25 18.3 18.25 18.5 18.15 5.8 11.1" fill="url(#gradient12)" fill-rule="evenodd" stroke="none"/>
    <path d="M29.4 -0.75 L31.1 10.55 30.85 10.85 19.3 17.7 29.4 -0.75" fill="url(#gradient13)" fill-rule="evenodd" stroke="none"/>
    <path d="M-3.1 18.65 L-3.2 18.55 4.8 12.4 5.8 11.1 18.5 18.15 18.3 18.25 -3.1 18.65" fill="url(#gradient14)" fill-rule="evenodd" stroke="none"/>
    <path d="M30.85 10.85 L40.65 17.75 40.45 17.9 18.95 18.25 19.3 17.7 30.85 10.85" fill="url(#gradient15)" fill-rule="evenodd" stroke="none"/>
    <path d="M40.45 17.9 L31.05 25.2 18.9 18.4 18.95 18.25 40.45 17.9" fill="url(#gradient16)" fill-rule="evenodd" stroke="none"/>
    <path d="M30.05 36.9 L30.05 36.95 20.8 33.2 19.1 34.5 17.35 33.2 8.5 37.3 18.5 19.1 18.9 18.4 30.05 36.9" fill="url(#gradient17)" fill-rule="evenodd" stroke="none"/>
    <path d="M6.45 25.3 L6.35 25.0 6.3 25.4 -3.1 18.65 18.3 18.25 6.45 25.3" fill="url(#gradient18)" fill-rule="evenodd" stroke="none"/>
    <path d="M8.5 37.3 L8.25 37.4 6.9 27.4 6.45 25.3 18.3 18.25 18.5 18.25 18.5 19.1 8.5 37.3" fill="url(#gradient19)" fill-rule="evenodd" stroke="none"/>
    <path d="M31.05 25.2 L31.05 27.05 30.05 36.9 18.9 18.4 31.05 25.2" fill="url(#gradient20)" fill-rule="evenodd" stroke="none"/>
    <path d="M37.05 17.8 L18.7 -0.75 18.6 -0.8 18.5 -0.75 0.1 17.8 0.05 17.9 0.1 18.0 18.5 36.55 18.6 36.65 18.7 36.55 37.05 18.0 37.15 17.9 37.05 17.8 M38.35 17.9 L18.6 37.9 -1.2 17.9 18.6 -2.05 38.35 17.9" fill="url(#gradient21)" fill-rule="evenodd" stroke="none"/>
    <path d="M37.05 17.8 L37.15 17.9 37.05 18.0 18.7 36.55 18.6 36.65 18.5 36.55 0.1 18.0 0.05 17.9 0.1 17.8 18.5 -0.75 18.6 -0.8 18.7 -0.75 37.05 17.8 M36.75 17.9 L18.6 -0.45 0.4 17.9 18.6 36.25 36.75 17.9" fill="#ff0000" fill-rule="evenodd" stroke="none"/>
    <path d="M35.55 17.9 L32.5 17.95 32.5 17.9 18.6 3.85 18.55 0.8 18.6 0.75 35.55 17.9" fill="url(#gradient22)" fill-rule="evenodd" stroke="none"/>
    <path d="M32.5 17.95 L18.75 31.8 18.55 32.0 4.8 18.1 4.6 17.9 18.55 3.8 18.6 3.85 32.5 17.9 32.5 17.95" fill="url(#gradient23)" fill-rule="evenodd" stroke="none"/>
    <path d="M18.8 34.85 L35.55 17.9 18.6 0.75 18.55 0.8 1.6 17.9 1.8 18.1 18.6 35.05 18.8 34.85 M36.75 17.9 L18.6 36.25 0.4 17.9 18.6 -0.45 36.75 17.9" fill="url(#gradient24)" fill-rule="evenodd" stroke="none"/>
    <path d="M18.55 0.8 L18.6 3.85 18.55 3.8 4.6 17.9 4.8 18.1 1.8 18.1 1.6 17.9 18.55 0.8" fill="url(#gradient25)" fill-rule="evenodd" stroke="none"/>
    <path d="M18.75 31.8 L18.8 34.85 18.6 35.05 1.8 18.1 4.8 18.1 18.55 32.0 18.75 31.8" fill="url(#gradient26)" fill-rule="evenodd" stroke="none"/>
    <path d="M32.5 17.95 L35.55 17.9 18.8 34.85 18.75 31.8 32.5 17.95" fill="url(#gradient27)" fill-rule="evenodd" stroke="none"/>
    <path d="M6.2 -3.05 L6.2 -7.55 6.2 -8.9 6.8 -8.4 6.75 -8.4 6.75 -7.55 6.75 -3.5 6.2 -3.05 M31.5 -8.9 L31.5 -7.65 31.5 -3.05 30.95 -3.5 30.95 -7.65 30.95 -8.4 31.5 -8.9" fill="#3c3c3c" fill-rule="evenodd" stroke="none"/>
    <path d="M8.4 -8.4 L8.4 -5.4 8.4 -4.9 29.35 -4.9 29.35 -5.4 29.35 -8.4 30.95 -8.4 30.95 -7.65 30.95 -3.5 19.25 -3.5 18.85 -4.45 18.4 -3.5 18.1 -4.0 17.95 -3.5 6.75 -3.5 6.75 -7.55 6.75 -8.4 6.8 -8.4 8.4 -8.4" fill="#7b7b7b" fill-rule="evenodd" stroke="none"/>
    <path d="M6.2 -8.9 L8.15 -8.9 8.35 -8.9 8.4 -8.9 8.4 -8.4 6.8 -8.4 6.2 -8.9 M8.4 -5.4 L29.35 -5.4 29.35 -4.9 8.4 -4.9 8.4 -5.4 M29.35 -8.4 L29.35 -8.9 29.4 -8.9 29.65 -8.9 31.5 -8.9 30.95 -8.4 29.35 -8.4" fill="#d0d0d0" fill-rule="evenodd" stroke="none"/>
    <path d="M31.5 -3.05 L19.45 -3.05 19.25 -3.5 30.95 -3.5 31.5 -3.05 M17.7 -3.05 L6.2 -3.05 6.75 -3.5 17.95 -3.5 17.8 -3.05 17.7 -3.05" fill="#121212" fill-rule="evenodd" stroke="none"/>
    <path d="M19.45 -3.05 L21.35 -2.0 22.05 -0.15 20.85 -0.45 20.3 -0.45 20.25 -0.65 19.8 -1.45 18.45 -1.9 17.15 -1.45 16.7 -0.45 16.15 -0.45 16.1 -0.5 15.1 -0.2 15.85 -2.0 17.7 -3.05 17.8 -3.05 17.95 -3.5 18.1 -4.0 18.4 -3.5 18.85 -4.45 19.25 -3.5 19.45 -3.05" fill="#808080" fill-rule="evenodd" stroke="none"/>
    <path d="M20.3 -0.45 L19.65 -0.45 19.35 -0.95 Q19.0 -1.35 18.45 -1.35 18.05 -1.35 17.6 -0.95 L17.35 -0.45 16.7 -0.45 17.15 -1.45 18.45 -1.9 19.8 -1.45 20.25 -0.65 20.3 -0.45" fill="#202020" fill-rule="evenodd" stroke="none"/>
    <path d="M0.0 10.2 L-1.0 9.5 -1.2 8.6 -1.3 8.5 -1.2 8.5 -1.15 8.55 -0.2 8.7 0.45 9.75 0.0 10.2" fill="#838383" fill-rule="evenodd" stroke="none"/>
    <path d="M2.6 13.1 L0.0 10.2 0.45 9.75 3.4 12.3 2.6 13.1" fill="#2e2e2e" fill-rule="evenodd" stroke="none"/>
    <path d="M3.4 12.3 L4.6 11.1 4.25 10.1 5.65 11.5 4.8 12.4 3.7 13.3 2.7 14.5 1.8 15.4 0.4 14.0 1.35 14.35 2.6 13.1 3.4 12.3" fill="#4f4f4f" fill-rule="evenodd" stroke="none"/>
    <path d="M4.8 12.4 L5.0 12.9 5.6 13.5 6.15 14.25 23.3 31.4 23.9 33.65 3.7 13.3 4.8 12.4" fill="url(#gradient28)" fill-rule="evenodd" stroke="none"/>
    <path d="M23.9 33.65 L23.9 33.7 23.85 33.7 21.7 33.0 4.55 15.85 3.75 15.35 3.15 14.75 2.7 14.5 3.7 13.3 23.9 33.65" fill="url(#gradient29)" fill-rule="evenodd" stroke="none"/>
    <path d="M32.7 12.55 L31.85 11.65 33.25 10.25 32.9 11.25 34.1 12.45 34.9 13.25 36.15 14.5 37.1 14.15 35.7 15.55 34.8 14.65 33.8 13.45 32.7 12.55" fill="#4f4f4f" fill-rule="evenodd" stroke="none"/>
    <path d="M34.9 13.25 L34.1 12.45 37.05 9.9 37.5 10.35 34.9 13.25" fill="#2e2e2e" fill-rule="evenodd" stroke="none"/>
    <path d="M37.05 9.9 L37.7 8.85 38.65 8.7 38.7 8.65 38.8 8.65 38.7 8.75 38.5 9.65 37.5 10.35 37.05 9.9" fill="#838383" fill-rule="evenodd" stroke="none"/>
    <path d="M33.8 13.45 L34.8 14.65 Q34.6 14.8 34.35 14.9 L33.75 15.5 32.95 16.0 15.8 33.15 13.65 33.85 13.6 33.85 13.6 33.8 33.8 13.45" fill="url(#gradient30)" fill-rule="evenodd" stroke="none"/>
    <path d="M32.7 12.55 L33.8 13.45 13.6 33.8 14.2 31.55 31.35 14.4 31.9 13.65 32.5 13.05 32.7 12.55" fill="url(#gradient31)" fill-rule="evenodd" stroke="none"/>
  </g>
  <defs>
    <linearGradient gradientTransform="matrix(0.0, 0.0123, -0.0184, 0.0, 18.85, -15.35)" gradientUnits="userSpaceOnUse" id="gradient0" spreadMethod="pad" x1="-819.2" x2="819.2">
      <stop offset="0.00784313725490196" stop-color="#ffffff" stop-opacity="0.4509804"/>
      <stop offset="0.12549019607843137" stop-color="#000000" stop-opacity="0.16470589"/>
      <stop offset="0.39215686274509803" stop-color="#000000" stop-opacity="0.0627451"/>
      <stop offset="0.8431372549019608" stop-color="#000000" stop-opacity="0.0"/>
      <stop offset="1.0" stop-color="#000000" stop-opacity="0.6509804"/>
    </linearGradient>
    <linearGradient gradientTransform="matrix(0.0071, 0.0042, -0.0061, 0.0104, 14.6, 5.25)" gradientUnits="userSpaceOnUse" id="gradient1" spreadMethod="pad" x1="-819.2" x2="819.2">
      <stop offset="0.0" stop-color="#f0f0f0"/>
      <stop offset="0.3254901960784314" stop-color="#838383"/>
      <stop offset="0.7176470588235294" stop-color="#484848"/>
      <stop offset="1.0" stop-color="#272727"/>
    </linearGradient>
    <linearGradient gradientTransform="matrix(-0.006, 0.012, -0.0104, -0.0052, 19.3, 15.65)" gradientUnits="userSpaceOnUse" id="gradient2" spreadMethod="pad" x1="-819.2" x2="819.2">
      <stop offset="0.0" stop-color="#f0f0f0"/>
      <stop offset="0.3254901960784314" stop-color="#838383"/>
      <stop offset="0.7176470588235294" stop-color="#484848"/>
      <stop offset="1.0" stop-color="#272727"/>
    </linearGradient>
    <linearGradient gradientTransform="matrix(-7.0E-4, -0.0071, 0.0112, -0.0011, 28.2, 13.4)" gradientUnits="userSpaceOnUse" id="gradient3" spreadMethod="pad" x1="-819.2" x2="819.2">
      <stop offset="0.0" stop-color="#f0f0f0"/>
      <stop offset="0.3254901960784314" stop-color="#838383"/>
      <stop offset="0.7176470588235294" stop-color="#484848"/>
      <stop offset="1.0" stop-color="#272727"/>
    </linearGradient>
    <linearGradient gradientTransform="matrix(-0.0018, -0.0071, 0.0113, -0.0029, 8.9, 22.95)" gradientUnits="userSpaceOnUse" id="gradient4" spreadMethod="pad" x1="-819.2" x2="819.2">
      <stop offset="0.0" stop-color="#f0f0f0"/>
      <stop offset="0.3254901960784314" stop-color="#838383"/>
      <stop offset="0.7176470588235294" stop-color="#484848"/>
      <stop offset="1.0" stop-color="#272727"/>
    </linearGradient>
    <linearGradient gradientTransform="matrix(5.0E-4, 0.0042, -0.0077, 9.0E-4, 5.65, 8.55)" gradientUnits="userSpaceOnUse" id="gradient5" spreadMethod="pad" x1="-819.2" x2="819.2">
      <stop offset="0.0" stop-color="#f0f0f0"/>
      <stop offset="0.3254901960784314" stop-color="#838383"/>
      <stop offset="0.7176470588235294" stop-color="#484848"/>
      <stop offset="1.0" stop-color="#272727"/>
    </linearGradient>
    <linearGradient gradientTransform="matrix(-0.0081, -0.0035, 0.0038, -0.0088, 28.65, 24.7)" gradientUnits="userSpaceOnUse" id="gradient6" spreadMethod="pad" x1="-819.2" x2="819.2">
      <stop offset="0.0" stop-color="#f0f0f0"/>
      <stop offset="0.3254901960784314" stop-color="#838383"/>
      <stop offset="0.7176470588235294" stop-color="#484848"/>
      <stop offset="1.0" stop-color="#272727"/>
    </linearGradient>
    <linearGradient gradientTransform="matrix(0.0114, 0.0066, -0.0022, 0.0038, 31.5, 29.35)" gradientUnits="userSpaceOnUse" id="gradient7" spreadMethod="pad" x1="-819.2" x2="819.2">
      <stop offset="0.0" stop-color="#f0f0f0"/>
      <stop offset="0.3254901960784314" stop-color="#838383"/>
      <stop offset="0.7176470588235294" stop-color="#484848"/>
      <stop offset="1.0" stop-color="#272727"/>
    </linearGradient>
    <linearGradient gradientTransform="matrix(0.0062, 0.0018, -0.0025, 0.0087, 7.9, 13.1)" gradientUnits="userSpaceOnUse" id="gradient8" spreadMethod="pad" x1="-819.2" x2="819.2">
      <stop offset="0.0" stop-color="#f0f0f0"/>
      <stop offset="0.3254901960784314" stop-color="#838383"/>
      <stop offset="0.7176470588235294" stop-color="#484848"/>
      <stop offset="1.0" stop-color="#272727"/>
    </linearGradient>
    <linearGradient gradientTransform="matrix(0.0114, 0.0066, -0.0058, 0.01, -4.25, 14.2)" gradientUnits="userSpaceOnUse" id="gradient9" spreadMethod="pad" x1="-819.2" x2="819.2">
      <stop offset="0.0" stop-color="#f0f0f0"/>
      <stop offset="0.3254901960784314" stop-color="#838383"/>
      <stop offset="0.7176470588235294" stop-color="#484848"/>
      <stop offset="1.0" stop-color="#272727"/>
    </linearGradient>
    <linearGradient gradientTransform="matrix(0.0064, 0.0037, -0.0057, 0.0098, 23.0, 31.5)" gradientUnits="userSpaceOnUse" id="gradient10" spreadMethod="pad" x1="-819.2" x2="819.2">
      <stop offset="0.0" stop-color="#f0f0f0"/>
      <stop offset="0.3254901960784314" stop-color="#838383"/>
      <stop offset="0.7176470588235294" stop-color="#484848"/>
      <stop offset="1.0" stop-color="#272727"/>
    </linearGradient>
    <linearGradient gradientTransform="matrix(8.0E-4, 0.0134, -0.0116, 7.0E-4, 17.95, 15.65)" gradientUnits="userSpaceOnUse" id="gradient11" spreadMethod="pad" x1="-819.2" x2="819.2">
      <stop offset="0.0" stop-color="#b6a56e"/>
      <stop offset="0.3254901960784314" stop-color="#7e7931"/>
      <stop offset="0.7176470588235294" stop-color="#413306"/>
      <stop offset="1.0" stop-color="#2a1e03"/>
    </linearGradient>
    <linearGradient gradientTransform="matrix(0.0082, 0.0, 0.0, 0.0121, 8.6, 9.0)" gradientUnits="userSpaceOnUse" id="gradient12" spreadMethod="pad" x1="-819.2" x2="819.2">
      <stop offset="0.0" stop-color="#b6a56e"/>
      <stop offset="0.3254901960784314" stop-color="#7e7931"/>
      <stop offset="0.7176470588235294" stop-color="#413306"/>
      <stop offset="1.0" stop-color="#2a1e03"/>
    </linearGradient>
    <linearGradient gradientTransform="matrix(-0.0042, -0.0058, 0.0091, -0.0065, 24.45, 9.25)" gradientUnits="userSpaceOnUse" id="gradient13" spreadMethod="pad" x1="-819.2" x2="819.2">
      <stop offset="0.0" stop-color="#b6a56e"/>
      <stop offset="0.3254901960784314" stop-color="#7e7931"/>
      <stop offset="0.7176470588235294" stop-color="#413306"/>
      <stop offset="1.0" stop-color="#2a1e03"/>
    </linearGradient>
    <linearGradient gradientTransform="matrix(0.0062, -0.0016, 0.0022, 0.0088, 6.75, 19.2)" gradientUnits="userSpaceOnUse" id="gradient14" spreadMethod="pad" x1="-819.2" x2="819.2">
      <stop offset="0.0" stop-color="#b6a56e"/>
      <stop offset="0.3254901960784314" stop-color="#7e7931"/>
      <stop offset="0.7176470588235294" stop-color="#413306"/>
      <stop offset="1.0" stop-color="#2a1e03"/>
    </linearGradient>
    <linearGradient gradientTransform="matrix(-0.0087, 0.0011, -0.0011, -0.0095, 30.55, 18.75)" gradientUnits="userSpaceOnUse" id="gradient15" spreadMethod="pad" x1="-819.2" x2="819.2">
      <stop offset="0.0" stop-color="#b6a56e"/>
      <stop offset="0.3254901960784314" stop-color="#7e7931"/>
      <stop offset="0.7176470588235294" stop-color="#413306"/>
      <stop offset="1.0" stop-color="#2a1e03"/>
    </linearGradient>
    <linearGradient gradientTransform="matrix(0.0132, 0.0, 0.0, 0.0045, 35.35, 21.35)" gradientUnits="userSpaceOnUse" id="gradient16" spreadMethod="pad" x1="-819.2" x2="819.2">
      <stop offset="0.0" stop-color="#b6a56e"/>
      <stop offset="0.3254901960784314" stop-color="#7e7931"/>
      <stop offset="0.7176470588235294" stop-color="#413306"/>
      <stop offset="1.0" stop-color="#2a1e03"/>
    </linearGradient>
    <linearGradient gradientTransform="matrix(0.0132, 0.0, 0.0, 0.0115, -3.2, 26.25)" gradientUnits="userSpaceOnUse" id="gradient17" spreadMethod="pad" x1="-819.2" x2="819.2">
      <stop offset="0.0" stop-color="#b6a56e"/>
      <stop offset="0.3254901960784314" stop-color="#7e7931"/>
      <stop offset="0.7176470588235294" stop-color="#413306"/>
      <stop offset="1.0" stop-color="#2a1e03"/>
    </linearGradient>
    <linearGradient gradientTransform="matrix(0.0025, 0.0034, -0.0062, 0.0047, 2.55, 16.35)" gradientUnits="userSpaceOnUse" id="gradient18" spreadMethod="pad" x1="-819.2" x2="819.2">
      <stop offset="0.0" stop-color="#b6a56e"/>
      <stop offset="0.3254901960784314" stop-color="#7e7931"/>
      <stop offset="0.7176470588235294" stop-color="#413306"/>
      <stop offset="1.0" stop-color="#2a1e03"/>
    </linearGradient>
    <linearGradient gradientTransform="matrix(-0.0051, -0.0052, 0.0083, -0.0082, 12.6, 27.2)" gradientUnits="userSpaceOnUse" id="gradient19" spreadMethod="pad" x1="-819.2" x2="819.2">
      <stop offset="0.0" stop-color="#b6a56e"/>
      <stop offset="0.3254901960784314" stop-color="#7e7931"/>
      <stop offset="0.7176470588235294" stop-color="#413306"/>
      <stop offset="1.0" stop-color="#2a1e03"/>
    </linearGradient>
    <linearGradient gradientTransform="matrix(0.0074, 0.0, 0.0, 0.0113, 29.1, 27.5)" gradientUnits="userSpaceOnUse" id="gradient20" spreadMethod="pad" x1="-819.2" x2="819.2">
      <stop offset="0.0" stop-color="#b6a56e"/>
      <stop offset="0.3254901960784314" stop-color="#7e7931"/>
      <stop offset="0.7176470588235294" stop-color="#413306"/>
      <stop offset="1.0" stop-color="#2a1e03"/>
    </linearGradient>
    <linearGradient gradientTransform="matrix(-5.0E-4, 0.0241, -0.0244, -5.0E-4, 18.6, 17.95)" gradientUnits="userSpaceOnUse" id="gradient21" spreadMethod="pad" x1="-819.2" x2="819.2">
      <stop offset="0.0" stop-color="#7e0000"/>
      <stop offset="1.0" stop-color="#000000"/>
    </linearGradient>
    <radialGradient cx="0" cy="0" gradientTransform="matrix(0.0159, 0.016, -0.0159, 0.016, 20.1, 4.6)" gradientUnits="userSpaceOnUse" id="gradient22" r="819.2" spreadMethod="pad">
      <stop offset="0.0" stop-color="#930000"/>
      <stop offset="1.0" stop-color="#000000"/>
    </radialGradient>
    <radialGradient cx="0" cy="0" gradientTransform="matrix(0.0159, 0.016, -0.0159, 0.016, 18.6, 17.9)" gradientUnits="userSpaceOnUse" id="gradient23" r="819.2" spreadMethod="pad">
      <stop offset="0.0" stop-color="#9a0000"/>
      <stop offset="1.0" stop-color="#000000"/>
    </radialGradient>
    <linearGradient gradientTransform="matrix(-1.0E-4, -0.0224, 0.0226, -1.0E-4, 17.1, 14.15)" gradientUnits="userSpaceOnUse" id="gradient24" spreadMethod="pad" x1="-819.2" x2="819.2">
      <stop offset="0.0" stop-color="#ffd0d0"/>
      <stop offset="1.0" stop-color="#000000"/>
    </linearGradient>
    <radialGradient cx="0" cy="0" gradientTransform="matrix(0.0159, 0.016, -0.0159, 0.016, 12.4, 13.95)" gradientUnits="userSpaceOnUse" id="gradient25" r="819.2" spreadMethod="pad">
      <stop offset="0.0" stop-color="#a61919"/>
      <stop offset="1.0" stop-color="#000000"/>
    </radialGradient>
    <radialGradient cx="0" cy="0" gradientTransform="matrix(0.0237, 0.0, 0.0, 0.0237, 16.95, 28.5)" gradientUnits="userSpaceOnUse" id="gradient26" r="819.2" spreadMethod="pad">
      <stop offset="0.0" stop-color="#7e0000"/>
      <stop offset="1.0" stop-color="#000000"/>
    </radialGradient>
    <radialGradient cx="0" cy="0" gradientTransform="matrix(0.0247, 0.0, 0.0, 0.0247, 24.75, 21.5)" gradientUnits="userSpaceOnUse" id="gradient27" r="819.2" spreadMethod="pad">
      <stop offset="0.0" stop-color="#7e0000"/>
      <stop offset="1.0" stop-color="#000000"/>
    </radialGradient>
    <linearGradient gradientTransform="matrix(0.0081, -0.0092, -0.0097, -0.0086, 10.35, 28.25)" gradientUnits="userSpaceOnUse" id="gradient28" spreadMethod="pad" x1="-819.2" x2="819.2">
      <stop offset="0.050980392156862744" stop-color="#4f4f4f"/>
      <stop offset="0.20784313725490197" stop-color="#2a2a2a"/>
      <stop offset="1.0" stop-color="#bdbdbd"/>
    </linearGradient>
    <linearGradient gradientTransform="matrix(0.0081, -0.0101, -0.0097, -0.0078, 13.6, 23.7)" gradientUnits="userSpaceOnUse" id="gradient29" spreadMethod="pad" x1="-819.2" x2="819.2">
      <stop offset="0.050980392156862744" stop-color="#4f4f4f"/>
      <stop offset="0.20784313725490197" stop-color="#2a2a2a"/>
      <stop offset="1.0" stop-color="#bdbdbd"/>
    </linearGradient>
    <linearGradient gradientTransform="matrix(0.0082, 0.0099, -0.0096, 0.0079, 27.9, 26.0)" gradientUnits="userSpaceOnUse" id="gradient30" spreadMethod="pad" x1="-819.2" x2="819.2">
      <stop offset="0.050980392156862744" stop-color="#4f4f4f"/>
      <stop offset="0.20784313725490197" stop-color="#2a2a2a"/>
      <stop offset="1.0" stop-color="#bdbdbd"/>
    </linearGradient>
    <linearGradient gradientTransform="matrix(-0.0081, -0.0092, 0.0097, -0.0086, 26.4, 26.55)" gradientUnits="userSpaceOnUse" id="gradient31" spreadMethod="pad" x1="-819.2" x2="819.2">
      <stop offset="0.050980392156862744" stop-color="#4f4f4f"/>
      <stop offset="0.20784313725490197" stop-color="#2a2a2a"/>
      <stop offset="1.0" stop-color="#bdbdbd"/>
    </linearGradient>
  </defs>
</svg>
