<?xml version="1.0" encoding="UTF-8" standalone="no"?>
<svg xmlns:xlink="http://www.w3.org/1999/xlink" height="71.25px" width="33.65px" xmlns="http://www.w3.org/2000/svg">
  <g transform="matrix(1.0, 0.0, 0.0, 1.0, -1.7, 25.15)">
    <path d="M25.2 -25.15 L29.3 -25.15 29.3 -2.45 25.2 -2.45 25.2 -25.15 M19.8 -2.45 L8.45 -2.45 8.45 -25.15 19.8 -25.15 19.8 -2.45" fill="#c67e12" fill-rule="evenodd" stroke="none"/>
    <path d="M25.2 -2.45 L19.8 -2.45 19.8 -25.15 25.2 -25.15 25.2 -2.45" fill="#8c2a2a" fill-rule="evenodd" stroke="none"/>
    <path d="M8.5 -4.25 L8.5 -4.95 10.8 -2.6 10.15 -2.6 8.5 -4.25 M8.6 -2.6 L8.45 -2.6 8.45 -2.75 8.6 -2.6 M8.5 -8.75 L8.5 -9.45 15.35 -2.6 14.65 -2.6 8.5 -8.75 M10.75 -8.75 L10.75 -8.8 8.45 -11.15 8.45 -11.85 17.65 -2.6 16.9 -2.6 10.75 -8.75 M10.75 -4.25 L10.75 -4.3 8.45 -6.6 8.45 -7.3 13.15 -2.6 12.4 -2.6 10.75 -4.25 M8.5 -13.3 L8.5 -14.0 19.85 -2.6 19.15 -2.6 8.5 -13.3 M8.5 -17.8 L8.5 -18.5 24.4 -2.6 23.7 -2.6 8.5 -17.8 M8.5 -22.35 L8.5 -23.05 28.9 -2.6 28.2 -2.6 8.5 -22.35 M10.75 -17.8 L10.75 -17.9 8.45 -20.2 8.45 -20.9 26.7 -2.6 25.95 -2.6 10.75 -17.8 M10.75 -13.3 L10.75 -13.35 8.45 -15.65 8.45 -16.35 22.2 -2.6 21.4 -2.6 10.75 -13.3 M14.8 -25.1 L15.5 -25.1 29.1 -11.45 29.1 -10.75 14.8 -25.1 M19.3 -25.1 L20.0 -25.1 29.1 -15.95 29.1 -15.3 19.3 -25.1 M17.05 -25.1 L17.8 -25.1 26.95 -15.9 26.95 -15.85 29.1 -13.7 29.1 -13.0 17.05 -25.1 M10.25 -25.1 L10.95 -25.1 29.1 -6.95 29.1 -6.25 10.25 -25.1 M12.5 -25.1 L13.3 -25.1 26.95 -11.4 26.95 -11.35 29.1 -9.2 29.1 -8.5 12.5 -25.1 M10.75 -22.35 L10.75 -22.4 8.45 -24.7 8.45 -25.1 8.75 -25.1 26.95 -6.9 26.95 -6.8 29.1 -4.65 29.1 -3.95 10.75 -22.35 M28.35 -25.1 L29.05 -25.1 29.1 -25.05 29.1 -24.35 28.35 -25.1 M26.1 -25.1 L26.85 -25.1 26.95 -25.0 26.95 -24.9 29.1 -22.75 29.1 -22.1 26.1 -25.1 M21.55 -25.1 L22.3 -25.1 26.95 -20.45 26.95 -20.35 29.1 -18.2 29.1 -17.55 21.55 -25.1 M24.5 -25.1 L29.1 -20.5 29.1 -19.85 23.85 -25.1 24.5 -25.1" fill="#000000" fill-opacity="0.2" fill-rule="evenodd" stroke="none"/>
    <path d="M29.3 -2.45 L8.45 -2.45 8.45 -25.15 29.3 -25.15 29.3 -2.45" fill="url(#gradient0)" fill-rule="evenodd" stroke="none"/>
    <path d="M30.75 15.85 Q30.75 20.9 27.15 24.4 23.55 28.1 18.5 28.1 13.45 28.1 9.8 24.4 6.2 20.9 6.2 15.85 6.2 10.7 9.8 7.1 13.45 3.6 18.5 3.6 23.55 3.6 27.15 7.1 30.75 10.7 30.75 15.85" fill="#c65712" fill-rule="evenodd" stroke="none"/>
    <path d="M30.75 15.85 Q30.75 10.7 27.15 7.1 23.55 3.6 18.5 3.6 13.45 3.6 9.8 7.1 6.2 10.7 6.2 15.85 6.2 20.9 9.8 24.4 13.45 28.1 18.5 28.1 23.55 28.1 27.15 24.4 30.75 20.9 30.75 15.85 M28.15 25.4 Q24.15 29.5 18.5 29.5 12.85 29.5 8.9 25.4 4.85 21.45 4.85 15.85 4.85 10.15 8.9 6.15 12.85 2.2 18.5 2.2 24.15 2.2 28.15 6.15 32.15 10.15 32.15 15.85 32.15 21.45 28.15 25.4" fill="url(#gradient1)" fill-rule="evenodd" stroke="none"/>
    <path d="M21.15 3.9 L20.9 3.75 18.5 3.6 17.6 3.65 Q15.6 3.7 13.85 4.45 L14.0 4.5 Q11.75 5.35 9.9 7.2 L9.9 7.25 9.8 7.4 9.7 7.3 Q7.35 9.7 6.65 12.8 L6.55 13.05 6.7 13.15 Q6.35 14.45 6.35 15.85 6.35 17.9 6.95 19.75 L6.8 19.65 Q7.4 21.45 8.55 23.05 L9.8 24.4 Q13.45 28.1 18.5 28.1 L19.6 28.1 19.4 28.0 Q22.0 27.75 24.2 26.6 L24.3 26.7 25.75 25.8 27.15 24.4 29.25 21.75 29.1 21.7 Q30.25 19.8 30.55 17.5 L30.65 17.55 30.75 15.85 Q30.75 13.4 29.95 11.35 L29.8 11.25 Q28.9 9.05 27.05 7.2 24.45 4.6 21.15 3.9 M31.65 19.75 Q30.65 22.9 28.15 25.4 L27.0 26.5 Q23.4 29.5 18.5 29.5 12.85 29.5 8.9 25.4 L7.4 23.7 Q4.85 20.3 4.85 15.85 4.85 13.85 5.3 12.15 6.2 8.8 8.9 6.15 9.4 5.65 9.95 5.25 13.25 2.45 17.6 2.2 L18.5 2.2 Q24.15 2.2 28.15 6.15 32.15 10.15 32.15 15.85 32.15 17.85 31.65 19.75" fill="url(#gradient2)" fill-rule="evenodd" stroke="none"/>
    <path d="M28.55 18.85 Q27.85 21.3 25.85 23.2 L25.05 24.05 Q22.2 26.3 18.5 26.3 14.2 26.3 11.1 23.2 L9.95 21.9 Q8.05 19.25 8.05 15.85 8.05 14.4 8.35 12.95 9.1 10.5 11.1 8.45 L11.95 7.65 Q14.45 5.6 17.8 5.35 L18.5 5.3 Q22.8 5.3 25.85 8.45 29.0 11.5 29.0 15.85 L28.55 18.85 M20.5 6.75 L20.35 6.6 18.5 6.45 17.8 6.45 14.95 7.1 15.05 7.15 Q13.3 7.85 11.95 9.2 L11.9 9.25 11.8 9.35 11.7 9.25 Q9.9 11.15 9.4 13.5 L9.3 13.7 9.4 13.8 Q9.15 14.75 9.15 15.85 9.15 17.5 9.65 18.85 L9.5 18.8 Q9.95 20.15 10.85 21.35 L11.8 22.45 Q14.6 25.2 18.5 25.2 L19.3 25.2 19.15 25.15 Q21.2 25.0 22.85 24.1 L22.9 24.2 24.0 23.5 25.1 22.45 26.75 20.45 26.65 20.4 Q27.45 18.85 27.75 17.15 L27.8 17.2 27.9 15.85 Q27.9 13.95 27.3 12.4 L27.15 12.3 Q26.45 10.65 25.1 9.2 23.0 7.25 20.5 6.75" fill="url(#gradient3)" fill-rule="evenodd" stroke="none"/>
    <path d="M21.15 3.9 Q24.45 4.6 27.05 7.2 28.9 9.05 29.8 11.25 L29.95 11.35 Q30.75 13.4 30.75 15.85 L30.65 17.55 30.55 17.5 Q30.25 19.8 29.1 21.7 L29.25 21.75 27.15 24.4 25.75 25.8 24.3 26.7 24.2 26.6 Q22.0 27.75 19.4 28.0 L19.6 28.1 18.5 28.1 Q13.45 28.1 9.8 24.4 L8.55 23.05 Q7.4 21.45 6.8 19.65 L6.95 19.75 Q6.35 17.9 6.35 15.85 6.35 14.45 6.7 13.15 L6.55 13.05 6.65 12.8 Q7.35 9.7 9.7 7.3 L9.8 7.4 9.9 7.25 9.9 7.2 Q11.75 5.35 14.0 4.5 L13.85 4.45 Q15.6 3.7 17.6 3.65 L18.5 3.6 20.9 3.75 21.15 3.9 M20.5 6.75 Q23.0 7.25 25.1 9.2 26.45 10.65 27.15 12.3 L27.3 12.4 Q27.9 13.95 27.9 15.85 L27.8 17.2 27.75 17.15 Q27.45 18.85 26.65 20.4 L26.75 20.45 25.1 22.45 24.0 23.5 22.9 24.2 22.85 24.1 Q21.2 25.0 19.15 25.15 L19.3 25.2 18.5 25.2 Q14.6 25.2 11.8 22.45 L10.85 21.35 Q9.95 20.15 9.5 18.8 L9.65 18.85 Q9.15 17.5 9.15 15.85 9.15 14.75 9.4 13.8 L9.3 13.7 9.4 13.5 Q9.9 11.15 11.7 9.25 L11.8 9.35 11.9 9.25 11.95 9.2 Q13.3 7.85 15.05 7.15 L14.95 7.1 17.8 6.45 18.5 6.45 20.35 6.6 20.5 6.75 M28.55 18.85 L29.0 15.85 Q29.0 11.5 25.85 8.45 22.8 5.3 18.5 5.3 L17.8 5.35 Q14.45 5.6 11.95 7.65 L11.1 8.45 Q9.1 10.5 8.35 12.95 8.05 14.4 8.05 15.85 8.05 19.25 9.95 21.9 L11.1 23.2 Q14.2 26.3 18.5 26.3 22.2 26.3 25.05 24.05 L25.85 23.2 Q27.85 21.3 28.55 18.85" fill="url(#gradient4)" fill-rule="evenodd" stroke="none"/>
    <path d="M29.5 -0.05 L19.45 -0.05 19.25 -0.5 28.95 -0.5 29.5 -0.05 M17.7 -0.05 L8.2 -0.05 8.75 -0.5 17.95 -0.5 17.8 -0.05 17.7 -0.05" fill="#121212" fill-rule="evenodd" stroke="none"/>
    <path d="M8.2 -0.05 L8.2 -2.4 8.8 -1.9 8.75 -1.9 8.75 -0.5 8.2 -0.05 M29.5 -2.4 L29.5 -0.05 28.95 -0.5 28.95 -1.9 29.5 -2.4" fill="#3c3c3c" fill-rule="evenodd" stroke="none"/>
    <path d="M8.2 -2.4 L29.5 -2.4 28.95 -1.9 8.8 -1.9 8.2 -2.4" fill="#d0d0d0" fill-rule="evenodd" stroke="none"/>
    <path d="M8.75 -0.5 L8.75 -1.9 8.8 -1.9 28.95 -1.9 28.95 -0.5 19.25 -0.5 18.85 -1.45 18.4 -0.5 18.1 -1.0 17.95 -0.5 8.75 -0.5" fill="#7b7b7b" fill-rule="evenodd" stroke="none"/>
    <path d="M19.45 -0.05 L21.35 1.0 22.05 2.85 20.85 2.55 20.3 2.55 20.25 2.35 19.8 1.55 Q19.25 1.1 18.45 1.1 17.8 1.1 17.15 1.55 16.8 2.0 16.7 2.55 L16.15 2.55 16.1 2.5 15.1 2.8 15.85 1.0 17.7 -0.05 17.8 -0.05 17.95 -0.5 18.1 -1.0 18.4 -0.5 18.85 -1.45 19.25 -0.5 19.45 -0.05" fill="#808080" fill-rule="evenodd" stroke="none"/>
    <path d="M20.3 2.55 L19.65 2.55 19.35 2.05 Q19.0 1.65 18.45 1.65 18.05 1.65 17.6 2.05 17.35 2.25 17.35 2.55 L16.7 2.55 Q16.8 2.0 17.15 1.55 17.8 1.1 18.45 1.1 19.25 1.1 19.8 1.55 L20.25 2.35 20.3 2.55" fill="#202020" fill-rule="evenodd" stroke="none"/>
    <path d="M29.75 3.65 L26.5 6.55 24.7 3.65 27.7 2.95 29.75 3.65" fill="url(#gradient5)" fill-rule="evenodd" stroke="none"/>
    <path d="M26.5 6.55 L29.75 3.65 30.55 5.75 29.7 8.55 26.5 6.55" fill="url(#gradient6)" fill-rule="evenodd" stroke="none"/>
    <path d="M35.35 15.55 L31.0 15.6 31.75 12.05 34.4 13.45 35.35 15.55" fill="url(#gradient7)" fill-rule="evenodd" stroke="none"/>
    <path d="M31.0 15.6 L35.35 15.55 34.4 17.5 31.8 19.05 31.0 15.6" fill="url(#gradient8)" fill-rule="evenodd" stroke="none"/>
    <path d="M10.05 6.85 L6.95 8.75 6.1 5.9 6.9 3.75 10.05 6.85" fill="url(#gradient9)" fill-rule="evenodd" stroke="none"/>
    <path d="M6.9 3.75 L9.0 3.05 12.0 3.75 10.05 6.85 6.9 3.75" fill="url(#gradient10)" fill-rule="evenodd" stroke="none"/>
    <path d="M1.7 15.3 L5.95 15.35 5.25 18.9 2.6 17.5 1.7 15.3" fill="url(#gradient11)" fill-rule="evenodd" stroke="none"/>
    <path d="M5.95 15.35 L1.7 15.3 2.65 13.4 5.2 11.8 5.95 15.35" fill="url(#gradient12)" fill-rule="evenodd" stroke="none"/>
    <path d="M6.8 27.7 L6.0 25.6 6.8 22.75 9.85 24.6 6.8 27.7" fill="url(#gradient13)" fill-rule="evenodd" stroke="none"/>
    <path d="M18.9 32.6 L16.95 31.65 15.3 29.05 18.8 28.1 18.9 32.6" fill="url(#gradient14)" fill-rule="evenodd" stroke="none"/>
    <path d="M18.8 28.1 L22.35 29.05 20.9 31.7 18.9 32.6 18.8 28.1" fill="url(#gradient15)" fill-rule="evenodd" stroke="none"/>
    <path d="M6.8 27.7 L9.85 24.6 11.85 27.7 8.9 28.4 6.8 27.7" fill="url(#gradient16)" fill-rule="evenodd" stroke="none"/>
    <path d="M26.7 24.9 L30.1 27.9 28.1 28.6 25.1 27.9 26.7 24.9" fill="url(#gradient17)" fill-rule="evenodd" stroke="none"/>
    <path d="M30.1 27.9 L26.7 24.9 30.1 22.9 30.95 25.8 30.1 27.9" fill="url(#gradient18)" fill-rule="evenodd" stroke="none"/>
    <path d="M25.4 7.4 L25.5 7.4 25.55 7.45 25.55 7.6 25.35 7.9 25.1 7.85 25.05 7.75 25.15 7.65 25.1 7.65 25.2 7.6 25.25 7.5 25.3 7.4 25.4 7.4" fill="#ffea8a" fill-opacity="0.6901961" fill-rule="evenodd" stroke="none"/>
    <path d="M20.8 8.2 L20.65 8.25 20.6 8.15 20.85 7.85 20.85 7.8 20.6 7.65 20.6 7.55 Q20.6 6.95 21.05 6.9 L21.2 6.85 21.25 6.9 21.75 7.0 21.7 7.0 20.75 8.15 20.8 8.2 M27.55 14.45 L27.35 14.65 27.25 14.45 27.35 14.1 Q27.5 13.85 27.7 13.9 L27.75 14.0 27.75 14.05 27.65 14.35 27.55 14.45 M9.7 13.0 L10.1 13.2 10.5 13.55 10.5 13.6 10.45 13.6 Q9.55 13.6 9.55 13.1 L9.7 13.0 M12.65 8.9 L12.6 8.9 12.6 8.65 12.75 8.6 12.85 8.65 12.9 8.7 12.9 8.75 12.85 8.95 12.8 8.95 12.7 8.95 12.65 8.9 M16.75 44.8 L16.15 45.4 15.85 46.1 15.75 46.05 Q15.7 45.65 16.1 45.3 L16.75 44.8" fill="#7a360b" fill-opacity="0.6901961" fill-rule="evenodd" stroke="none"/>
    <path d="M23.9 8.5 L23.95 8.6 23.85 8.65 23.8 8.5 23.9 8.5 M24.8 7.75 L24.85 7.75 24.9 7.8 24.8 7.75 M21.75 7.0 L21.95 7.25 21.65 7.75 Q21.15 8.0 20.85 8.2 L20.8 8.2 20.75 8.15 21.7 7.0 21.75 7.0 M27.1 9.5 L27.1 9.55 25.55 8.0 Q25.75 7.95 26.1 8.25 L26.4 8.55 27.1 9.5 M29.0 14.2 L29.3 13.85 29.35 14.0 29.15 14.5 29.0 14.5 29.0 14.2 28.95 14.1 29.2 13.8 29.0 14.2 M27.75 14.0 L27.8 14.1 27.65 14.45 27.9 14.3 27.9 14.65 27.5 15.0 27.3 14.95 27.3 14.9 27.25 14.85 27.45 14.65 27.55 14.45 27.65 14.35 27.75 14.05 27.75 14.0 M28.7 18.55 L28.75 18.65 28.4 20.25 28.65 20.35 28.6 20.45 28.3 20.45 Q27.65 21.75 26.2 23.25 23.0 26.55 18.65 26.55 L18.25 26.5 17.4 26.5 17.25 26.45 17.1 26.35 16.4 26.35 15.2 25.9 Q14.25 25.6 14.15 25.4 L15.3 25.85 16.45 26.25 16.55 26.25 15.95 24.85 15.9 24.8 15.95 24.7 16.3 24.1 Q16.65 23.65 16.65 24.3 L17.3 26.3 17.4 26.3 18.35 26.45 Q22.45 26.5 25.35 23.8 27.5 21.85 28.55 19.0 L28.9 15.7 28.8 14.15 28.9 14.15 29.0 15.8 29.2 15.8 29.25 16.05 29.0 16.05 28.85 17.25 28.95 17.2 29.15 17.35 29.6 17.35 29.75 17.55 29.1 18.05 28.9 18.0 28.85 17.5 28.8 17.65 28.7 18.65 28.7 18.55 M29.15 15.9 L29.0 15.9 29.0 16.0 29.15 15.9 M23.95 23.1 L24.0 23.25 23.9 23.3 13.75 21.8 23.95 23.1 M9.55 7.4 L9.55 7.35 9.6 7.3 8.35 6.85 9.6 7.25 Q9.75 6.6 12.7 5.0 15.95 3.25 17.15 3.55 L17.25 3.6 Q14.45 4.25 12.25 5.45 10.6 6.4 9.75 7.3 L9.7 7.35 9.6 7.45 9.55 7.4 Q6.45 11.0 6.4 14.85 L6.3 14.25 Q6.3 12.6 7.4 10.35 8.45 8.25 9.55 7.4 M12.85 8.65 L12.65 8.4 12.7 8.35 12.75 8.35 Q14.95 6.6 17.5 6.5 L17.65 6.45 17.65 6.5 18.65 6.5 18.7 6.65 18.65 6.7 17.95 6.65 17.4 6.65 15.15 7.85 12.35 9.25 10.85 11.15 9.7 13.0 9.55 13.1 9.55 13.05 9.5 12.8 9.55 12.5 9.7 12.15 Q10.15 10.8 11.5 9.45 L11.85 9.1 12.1 8.85 12.25 8.7 12.35 8.8 12.55 8.8 12.6 8.95 12.65 8.9 12.7 8.95 12.8 8.95 12.85 8.95 12.9 8.75 12.9 8.7 12.85 8.65 M10.5 13.55 L10.5 13.4 10.6 13.4 10.6 13.95 10.55 14.0 10.5 14.0 10.5 14.1 10.45 14.15 9.75 14.65 9.7 14.6 9.55 14.65 9.25 16.45 9.55 18.1 9.5 18.15 Q9.1 17.85 9.0 17.35 L8.95 16.45 9.15 15.05 9.2 14.55 9.15 14.4 9.25 14.15 9.3 14.15 9.3 13.75 9.35 13.7 9.35 13.5 9.4 13.5 9.4 13.25 9.5 13.25 9.5 13.35 9.6 13.55 9.6 13.9 9.55 13.95 9.55 14.1 9.7 14.1 9.9 14.2 9.95 14.15 10.25 14.05 10.2 13.95 10.45 13.9 10.5 13.6 10.5 13.55 M12.85 10.75 L12.95 10.85 12.95 11.1 12.85 11.1 12.85 10.75 M18.4 7.5 L18.5 7.7 18.35 7.55 18.4 7.5 M9.55 14.1 L9.5 14.1 9.55 14.1 M9.5 14.1 L9.4 14.1 9.45 14.05 9.4 14.05 9.35 14.15 9.5 14.1 M9.55 18.65 L9.75 18.65 Q9.9 18.45 10.55 18.4 L9.85 19.1 9.65 18.85 9.65 18.8 9.55 18.75 9.55 18.65 M8.5 18.75 L8.2 19.0 8.15 18.95 Q8.15 18.7 8.5 18.75 M12.75 22.55 L12.9 22.65 12.9 22.75 12.75 22.85 12.6 22.75 12.75 22.55" fill="#ffea8a" fill-opacity="0.50980395" fill-rule="evenodd" stroke="none"/>
  </g>
  <defs>
    <linearGradient gradientTransform="matrix(0.0, 0.0142, -0.0184, 0.0, 18.85, -13.95)" gradientUnits="userSpaceOnUse" id="gradient0" spreadMethod="pad" x1="-819.2" x2="819.2">
      <stop offset="0.00784313725490196" stop-color="#ffffff" stop-opacity="0.4509804"/>
      <stop offset="0.12549019607843137" stop-color="#000000" stop-opacity="0.16470589"/>
      <stop offset="0.39215686274509803" stop-color="#000000" stop-opacity="0.0627451"/>
      <stop offset="0.8431372549019608" stop-color="#000000" stop-opacity="0.0"/>
      <stop offset="1.0" stop-color="#000000" stop-opacity="0.6509804"/>
    </linearGradient>
    <linearGradient gradientTransform="matrix(-0.0056, -0.0157, 0.0157, -0.0056, 18.5, 15.85)" gradientUnits="userSpaceOnUse" id="gradient1" spreadMethod="pad" x1="-819.2" x2="819.2">
      <stop offset="0.00784313725490196" stop-color="#431600"/>
      <stop offset="0.615686274509804" stop-color="#d24d07"/>
      <stop offset="1.0" stop-color="#fff1e9"/>
    </linearGradient>
    <linearGradient gradientTransform="matrix(0.0112, 0.0123, -0.0123, 0.0112, 18.5, 15.85)" gradientUnits="userSpaceOnUse" id="gradient2" spreadMethod="pad" x1="-819.2" x2="819.2">
      <stop offset="0.0" stop-color="#ffffff" stop-opacity="0.3019608"/>
      <stop offset="0.23921568627450981" stop-color="#c2c2c2" stop-opacity="0.0"/>
      <stop offset="0.792156862745098" stop-color="#747474" stop-opacity="0.0"/>
      <stop offset="1.0" stop-color="#4a4a4a" stop-opacity="0.65882355"/>
    </linearGradient>
    <linearGradient gradientTransform="matrix(0.0085, 0.0095, -0.0095, 0.0085, 18.5, 15.85)" gradientUnits="userSpaceOnUse" id="gradient3" spreadMethod="pad" x1="-819.2" x2="819.2">
      <stop offset="0.0" stop-color="#ffffff" stop-opacity="0.3019608"/>
      <stop offset="0.23921568627450981" stop-color="#c2c2c2" stop-opacity="0.0"/>
      <stop offset="0.6627450980392157" stop-color="#000000" stop-opacity="0.0"/>
      <stop offset="1.0" stop-color="#000000" stop-opacity="0.47843137"/>
    </linearGradient>
    <linearGradient gradientTransform="matrix(0.0103, 0.0145, -0.0122, 0.0087, 18.55, 15.75)" gradientUnits="userSpaceOnUse" id="gradient4" spreadMethod="pad" x1="-819.2" x2="819.2">
      <stop offset="0.0" stop-color="#000000" stop-opacity="0.7490196"/>
      <stop offset="0.34901960784313724" stop-color="#f0f0f0" stop-opacity="0.21960784"/>
      <stop offset="0.49411764705882355" stop-color="#cbcbcb" stop-opacity="0.2784314"/>
      <stop offset="0.7843137254901961" stop-color="#2a2a2a" stop-opacity="0.45882353"/>
      <stop offset="1.0" stop-color="#ffffff"/>
    </linearGradient>
    <linearGradient gradientTransform="matrix(-0.0018, -0.0045, -0.0022, 9.0E-4, 27.8, 5.5)" gradientUnits="userSpaceOnUse" id="gradient5" spreadMethod="pad" x1="-819.2" x2="819.2">
      <stop offset="0.0" stop-color="#000000"/>
      <stop offset="1.0" stop-color="#ffffff"/>
    </linearGradient>
    <linearGradient gradientTransform="matrix(0.0034, 0.0068, 0.0027, -0.0014, 28.2, 8.65)" gradientUnits="userSpaceOnUse" id="gradient6" spreadMethod="pad" x1="-819.2" x2="819.2">
      <stop offset="0.0" stop-color="#000000"/>
      <stop offset="1.0" stop-color="#ffffff"/>
    </linearGradient>
    <linearGradient gradientTransform="matrix(0.0, -0.0076, 0.0031, 0.0, 32.2, 16.2)" gradientUnits="userSpaceOnUse" id="gradient7" spreadMethod="pad" x1="-819.2" x2="819.2">
      <stop offset="0.0" stop-color="#000000"/>
      <stop offset="1.0" stop-color="#ffffff"/>
    </linearGradient>
    <linearGradient gradientTransform="matrix(0.0019, 0.0044, -0.0022, 9.0E-4, 33.2, 17.95)" gradientUnits="userSpaceOnUse" id="gradient8" spreadMethod="pad" x1="-819.2" x2="819.2">
      <stop offset="0.0" stop-color="#000000"/>
      <stop offset="1.0" stop-color="#ffffff"/>
    </linearGradient>
    <linearGradient gradientTransform="matrix(-0.0045, 0.0061, -0.0025, -0.0018, 8.25, 7.9)" gradientUnits="userSpaceOnUse" id="gradient9" spreadMethod="pad" x1="-819.2" x2="819.2">
      <stop offset="0.0" stop-color="#000000"/>
      <stop offset="1.0" stop-color="#ffffff"/>
    </linearGradient>
    <linearGradient gradientTransform="matrix(0.0018, -0.0045, 0.0022, 9.0E-4, 8.9, 5.7)" gradientUnits="userSpaceOnUse" id="gradient10" spreadMethod="pad" x1="-819.2" x2="819.2">
      <stop offset="0.0" stop-color="#000000"/>
      <stop offset="1.0" stop-color="#ffffff"/>
    </linearGradient>
    <linearGradient gradientTransform="matrix(-0.0011, 0.0075, -0.003, -5.0E-4, 5.0, 19.1)" gradientUnits="userSpaceOnUse" id="gradient11" spreadMethod="pad" x1="-819.2" x2="819.2">
      <stop offset="0.0" stop-color="#000000"/>
      <stop offset="1.0" stop-color="#ffffff"/>
    </linearGradient>
    <linearGradient gradientTransform="matrix(-0.0019, -0.0044, 0.0022, -9.0E-4, 4.45, 15.35)" gradientUnits="userSpaceOnUse" id="gradient12" spreadMethod="pad" x1="-819.2" x2="819.2">
      <stop offset="0.0" stop-color="#000000"/>
      <stop offset="1.0" stop-color="#ffffff"/>
    </linearGradient>
    <linearGradient gradientTransform="matrix(0.0022, 0.0073, 0.0029, -9.0E-4, 7.6, 27.3)" gradientUnits="userSpaceOnUse" id="gradient13" spreadMethod="pad" x1="-819.2" x2="819.2">
      <stop offset="0.0" stop-color="#000000"/>
      <stop offset="1.0" stop-color="#ffffff"/>
    </linearGradient>
    <linearGradient gradientTransform="matrix(-0.0013, 0.0078, -0.0023, -4.0E-4, 15.5, 33.25)" gradientUnits="userSpaceOnUse" id="gradient14" spreadMethod="pad" x1="-819.2" x2="819.2">
      <stop offset="0.0" stop-color="#000000"/>
      <stop offset="1.0" stop-color="#ffffff"/>
    </linearGradient>
    <linearGradient gradientTransform="matrix(-0.0014, 0.0074, -0.003, -6.0E-4, 19.25, 31.45)" gradientUnits="userSpaceOnUse" id="gradient15" spreadMethod="pad" x1="-819.2" x2="819.2">
      <stop offset="0.0" stop-color="#000000"/>
      <stop offset="1.0" stop-color="#ffffff"/>
    </linearGradient>
    <linearGradient gradientTransform="matrix(0.0018, 0.0045, 0.0022, -9.0E-4, 9.6, 28.55)" gradientUnits="userSpaceOnUse" id="gradient16" spreadMethod="pad" x1="-819.2" x2="819.2">
      <stop offset="0.0" stop-color="#000000"/>
      <stop offset="1.0" stop-color="#ffffff"/>
    </linearGradient>
    <linearGradient gradientTransform="matrix(-0.0018, 0.0045, -0.0022, -9.0E-4, 26.85, 28.1)" gradientUnits="userSpaceOnUse" id="gradient17" spreadMethod="pad" x1="-819.2" x2="819.2">
      <stop offset="0.0" stop-color="#000000"/>
      <stop offset="1.0" stop-color="#ffffff"/>
    </linearGradient>
    <linearGradient gradientTransform="matrix(-0.0022, 0.0073, -0.0029, -9.0E-4, 29.3, 27.5)" gradientUnits="userSpaceOnUse" id="gradient18" spreadMethod="pad" x1="-819.2" x2="819.2">
      <stop offset="0.0" stop-color="#000000"/>
      <stop offset="1.0" stop-color="#ffffff"/>
    </linearGradient>
  </defs>
</svg>
