<?xml version="1.0" encoding="UTF-8" standalone="no"?>
<svg xmlns:xlink="http://www.w3.org/1999/xlink" height="645.95px" width="851.95px" xmlns="http://www.w3.org/2000/svg">
  <g transform="matrix(1.0, 0.0, 0.0, 1.0, 34.0, 25.0)">
    <path d="M-34.0 -25.0 L817.95 -25.0 817.95 620.95 -34.0 620.95 -34.0 -25.0" fill="#000000" fill-opacity="0.8" fill-rule="evenodd" stroke="none"/>
    <path d="M729.75 574.25 L717.75 586.7 394.95 586.7 287.95 586.7 70.2 586.7 70.2 32.75 82.15 20.3 287.95 20.3 394.95 20.3 729.75 20.3 729.75 574.25" fill="url(#gradient0)" fill-rule="evenodd" stroke="none"/>
    <path d="M729.75 574.25 L729.75 20.3 394.95 20.3 287.95 20.3 82.15 20.3 70.2 32.75 70.2 586.7 287.95 586.7 394.95 586.7 717.75 586.7 729.75 574.25 Z" fill="none" stroke="url(#gradient1)" stroke-linecap="round" stroke-linejoin="round" stroke-width="2.0"/>
    <path d="M102.05 185.0 L698.95 185.0 698.95 339.0 102.05 339.0 102.05 185.0" fill="url(#gradient2)" fill-rule="evenodd" stroke="none"/>
  </g>
  <defs>
    <radialGradient cx="0" cy="0" gradientTransform="matrix(0.4722, 0.0, 0.0, 1.0, 406.0, 116.0)" gradientUnits="userSpaceOnUse" id="gradient0" r="819.2" spreadMethod="pad">
      <stop offset="0.0" stop-color="#480000"/>
      <stop offset="1.0" stop-color="#000000"/>
    </radialGradient>
    <linearGradient gradientTransform="matrix(0.0383, 0.1119, -0.1137, 0.0383, 387.75, 98.55)" gradientUnits="userSpaceOnUse" id="gradient1" spreadMethod="pad" x1="-819.2" x2="819.2">
      <stop offset="0.00392156862745098" stop-color="#ff0000" stop-opacity="0.52156866"/>
      <stop offset="0.5333333333333333" stop-color="#700000" stop-opacity="0.27058825"/>
      <stop offset="1.0" stop-color="#fc0000" stop-opacity="0.36078432"/>
    </linearGradient>
    <radialGradient cx="0" cy="0" gradientTransform="matrix(0.3857, 0.0, 0.0, 0.8168, 400.0, 185.0)" gradientUnits="userSpaceOnUse" id="gradient2" r="819.2" spreadMethod="pad">
      <stop offset="0.0" stop-color="#930000"/>
      <stop offset="1.0" stop-color="#000000" stop-opacity="0.0"/>
    </radialGradient>
  </defs>
</svg>
