<?xml version="1.0" encoding="UTF-8" standalone="no"?>
<svg xmlns:xlink="http://www.w3.org/1999/xlink" height="55.25px" width="61.4px" xmlns="http://www.w3.org/2000/svg">
  <g transform="matrix(1.0, 0.0, 0.0, 1.0, -0.3, -4.7)">
    <path d="M58.1 45.4 Q58.3 46.4 59.0 48.0 60.1 50.7 60.35 52.55 61.7 56.55 61.7 58.7 61.7 59.5 61.1 59.5 L60.85 59.4 60.4 59.5 3.4 59.5 2.0 59.3 1.15 59.95 Q0.3 59.95 0.3 59.05 0.3 56.95 2.2 51.7 3.65 47.6 4.55 46.45 3.95 46.2 3.95 45.7 3.95 45.55 5.25 45.0 6.5 44.4 9.2 43.35 L9.8 43.15 10.35 42.95 15.25 41.05 18.25 40.2 Q21.25 39.0 21.7 38.3 22.5 36.85 22.95 33.8 L20.8 33.15 Q20.3 33.15 19.85 32.0 L19.55 30.5 19.7 27.5 19.6 27.5 Q17.3 27.5 16.6 24.65 L16.25 21.5 Q16.25 16.1 18.0 17.15 L18.1 17.25 Q18.1 13.15 19.0 10.85 L19.0 9.6 Q19.0 9.05 19.45 8.5 L19.7 8.25 19.4 7.95 18.55 7.2 Q18.55 6.15 19.75 6.9 L20.45 7.4 20.6 7.25 20.55 6.45 Q20.55 5.15 21.05 5.1 21.5 5.1 21.5 6.4 L21.5 7.55 21.85 7.2 Q23.05 5.95 24.2 5.95 24.85 5.95 25.5 5.4 25.85 5.15 27.3 6.1 L27.1 6.35 27.5 6.3 27.5 6.25 Q27.5 3.85 33.65 5.15 39.8 6.55 39.8 8.35 39.8 9.65 38.7 9.65 L37.85 9.2 37.95 9.3 Q40.1 12.05 40.1 14.3 L39.75 15.55 39.65 15.9 39.7 16.55 39.7 16.75 Q41.85 16.1 41.85 20.3 L41.6 23.5 Q41.25 25.55 40.25 26.2 L40.25 26.35 40.4 31.2 Q40.4 32.85 39.35 33.45 L37.1 34.05 37.6 36.05 37.65 36.4 38.0 37.75 39.95 38.2 45.5 40.25 52.85 41.35 Q56.5 42.05 57.0 43.3 57.65 43.95 58.1 45.4" fill="#0e0101" fill-rule="evenodd" stroke="none"/>
  </g>
</svg>
