<?xml version="1.0" encoding="UTF-8" standalone="no"?>
<svg xmlns:xlink="http://www.w3.org/1999/xlink" height="15.9px" width="12.65px" xmlns="http://www.w3.org/2000/svg">
  <g transform="matrix(1.0, 0.0, 0.0, 1.0, -1.8, -0.1)">
    <path d="M14.45 7.3 L14.45 16.0 1.8 16.0 1.8 7.45 2.7 6.35 2.7 5.15 2.7 1.3 5.45 1.3 5.45 2.55 5.45 3.75 7.5 5.55 9.0 5.55 11.0 3.75 11.0 2.55 11.0 1.3 13.6 1.3 13.6 5.0 13.6 6.2 14.45 7.3" fill="#008740" fill-rule="evenodd" stroke="none"/>
    <path d="M13.6 5.0 L14.45 6.1 14.45 7.3 13.6 6.2 13.6 5.0 M1.8 7.45 L1.8 6.25 2.7 5.15 2.7 6.35 1.8 7.45 M2.7 1.3 L2.7 0.1 5.45 0.1 5.45 1.3 2.7 1.3 M5.45 2.55 L7.5 4.35 9.0 4.35 11.0 2.55 11.0 3.75 9.0 5.55 7.5 5.55 5.45 3.75 5.45 2.55 M11.0 1.3 L11.0 0.1 13.6 0.1 13.6 1.3 11.0 1.3" fill="#3eb55c" fill-rule="evenodd" stroke="none"/>
  </g>
</svg>
