<?xml version="1.0" encoding="UTF-8" standalone="no"?>
<svg xmlns:xlink="http://www.w3.org/1999/xlink" height="17.7px" width="16.55px" xmlns="http://www.w3.org/2000/svg">
  <g transform="matrix(1.0, 0.0, 0.0, 1.0, 0.05, 0.75)">
    <path d="M15.0 8.1 Q15.0 10.9 13.0 12.85 11.0 14.85 8.25 14.85 5.4 14.85 3.4 12.85 1.5 10.9 1.5 8.1 1.5 5.3 3.4 3.3 5.4 1.35 8.25 1.35 11.0 1.35 13.0 3.3 15.0 5.3 15.0 8.1 M12.5 8.1 Q12.5 6.35 11.25 5.1 10.0 3.85 8.25 3.85 6.5 3.85 5.2 5.1 4.3 6.05 4.1 7.3 L4.0 8.1 4.1 8.95 Q4.3 10.2 5.2 11.1 6.5 12.35 8.25 12.35 10.0 12.35 11.25 11.1 12.5 9.9 12.5 8.1" fill="#ff001e" fill-rule="evenodd" stroke="none"/>
    <path d="M-0.05 9.4 L-0.05 6.8 16.5 6.8 16.5 9.4 -0.05 9.4" fill="#ff001e" fill-rule="evenodd" stroke="none"/>
    <path d="M6.85 -0.75 L9.7 -0.75 9.7 16.95 6.85 16.95 6.85 -0.75" fill="#ff001e" fill-rule="evenodd" stroke="none"/>
  </g>
</svg>
