<?xml version="1.0" encoding="UTF-8" standalone="no"?>
<svg xmlns:xlink="http://www.w3.org/1999/xlink" height="36.05px" width="36.05px" xmlns="http://www.w3.org/2000/svg">
  <g transform="matrix(1.0, 0.0, 0.0, 1.0, 18.0, 18.0)">
    <path d="M6.7 -15.65 L4.4 -10.2 M0.0 -17.0 L0.0 -11.05 M15.85 -6.35 L10.3 -4.1 M7.85 -7.8 L12.05 -12.05 M11.05 0.0 L17.05 0.0 M10.2 4.4 L15.65 6.7 M7.8 7.8 L12.05 12.05 M-15.65 -6.7 L-10.2 -4.35 M-12.0 -12.0 L-7.85 -7.85 M-4.1 -10.3 L-6.3 -15.8" fill="none" stroke="#000000" stroke-linecap="round" stroke-linejoin="round" stroke-width="2.0"/>
    <path d="M-15.8 6.3 L-10.3 4.1" fill="none" stroke="#810707" stroke-linecap="round" stroke-linejoin="round" stroke-width="2.0"/>
    <path d="M-12.0 12.0 L-7.8 7.85" fill="none" stroke="#610505" stroke-linecap="round" stroke-linejoin="round" stroke-width="2.0"/>
    <path d="M0.0 11.05 L0.0 17.05 M-4.35 10.2 L-6.7 15.65" fill="none" stroke="#470303" stroke-linecap="round" stroke-linejoin="round" stroke-width="2.0"/>
    <path d="M-17.0 0.0 L-11.05 0.0" fill="none" stroke="#db0d0d" stroke-linecap="round" stroke-linejoin="round" stroke-width="2.0"/>
    <path d="M6.35 15.85 L4.15 10.3" fill="none" stroke="#350202" stroke-linecap="round" stroke-linejoin="round" stroke-width="2.0"/>
  </g>
</svg>
