<?xml version="1.0" encoding="UTF-8" standalone="no"?>
<svg xmlns:xlink="http://www.w3.org/1999/xlink" height="64.5px" width="114.65px" xmlns="http://www.w3.org/2000/svg">
  <g transform="matrix(1.0, 0.0, 0.0, 1.0, 0.0, 0.0)">
    <path d="M31.85 17.05 Q32.15 17.05 31.9 16.9 32.5 12.95 34.85 9.3 39.15 2.35 47.4 0.5 55.6 -1.3 62.75 3.1 69.9 7.5 71.45 15.4 73.9 23.6 69.55 30.75 68.25 32.9 66.55 34.55 L66.15 35.15 65.4 34.85 31.85 17.05" fill="url(#gradient0)" fill-rule="evenodd" stroke="none"/>
    <path d="M65.4 34.85 Q62.0 37.45 56.95 38.05 49.3 38.95 40.8 33.95 33.95 29.55 29.95 21.65 28.7 18.3 28.4 15.25 L31.85 17.05 65.4 34.85" fill="url(#gradient1)" fill-rule="evenodd" stroke="none"/>
    <path d="M107.7 42.3 Q104.3 44.9 99.25 45.5 91.6 46.4 83.1 41.4 76.25 37.0 72.25 29.1 71.0 25.75 70.7 22.7 L74.15 24.5 107.7 42.3" fill="url(#gradient2)" fill-rule="evenodd" stroke="none"/>
    <path d="M74.15 24.5 Q74.45 24.5 74.2 24.35 74.8 20.4 77.15 16.75 81.45 9.8 89.7 7.95 97.9 6.15 105.05 10.55 112.2 14.95 113.75 22.85 116.2 31.05 111.85 38.2 110.55 40.35 108.85 42.0 L108.45 42.6 107.7 42.3 74.15 24.5" fill="url(#gradient3)" fill-rule="evenodd" stroke="none"/>
    <path d="M3.45 35.85 Q3.75 35.85 3.5 35.7 4.1 31.75 6.45 28.1 10.75 21.15 19.0 19.3 27.2 17.5 34.35 21.9 41.5 26.3 43.05 34.2 45.5 42.4 41.15 49.55 39.85 51.7 38.15 53.35 L37.75 53.95 37.0 53.65 3.45 35.85" fill="url(#gradient4)" fill-rule="evenodd" stroke="none"/>
    <path d="M37.0 53.65 Q33.6 56.25 28.55 56.85 20.9 57.75 12.4 52.75 5.55 48.35 1.55 40.45 0.3 37.1 0.0 34.05 L3.45 35.85 37.0 53.65" fill="url(#gradient5)" fill-rule="evenodd" stroke="none"/>
    <path d="M43.4 43.35 Q43.7 43.35 43.45 43.2 44.05 39.25 46.4 35.6 50.7 28.65 58.95 26.8 67.15 25.0 74.3 29.4 81.45 33.8 83.0 41.7 85.45 49.9 81.1 57.05 79.8 59.2 78.1 60.85 L77.7 61.45 76.95 61.15 43.4 43.35" fill="url(#gradient6)" fill-rule="evenodd" stroke="none"/>
    <path d="M76.95 61.15 Q73.55 63.75 68.5 64.35 60.85 65.25 52.35 60.25 45.5 55.85 41.5 47.95 40.25 44.6 39.95 41.55 L43.4 43.35 76.95 61.15" fill="url(#gradient7)" fill-rule="evenodd" stroke="none"/>
  </g>
  <defs>
    <radialGradient cx="0" cy="0" gradientTransform="matrix(0.0067, -0.0223, 0.0231, 0.0072, 52.25, 19.95)" gradientUnits="userSpaceOnUse" id="gradient0" r="819.2" spreadMethod="pad">
      <stop offset="0.0" stop-color="#ffffff" stop-opacity="0.7607843"/>
      <stop offset="0.984313725490196" stop-color="#ffffff" stop-opacity="0.0"/>
    </radialGradient>
    <radialGradient cx="0" cy="0" gradientTransform="matrix(0.0027, -0.0198, 0.0243, 0.009, 51.15, 21.1)" gradientUnits="userSpaceOnUse" id="gradient1" r="819.2" spreadMethod="pad">
      <stop offset="0.0" stop-color="#ffffff" stop-opacity="0.7607843"/>
      <stop offset="0.984313725490196" stop-color="#ffffff" stop-opacity="0.0"/>
    </radialGradient>
    <radialGradient cx="0" cy="0" gradientTransform="matrix(0.0027, -0.0198, 0.0243, 0.009, 93.45, 28.55)" gradientUnits="userSpaceOnUse" id="gradient2" r="819.2" spreadMethod="pad">
      <stop offset="0.0" stop-color="#ffffff" stop-opacity="0.7607843"/>
      <stop offset="0.984313725490196" stop-color="#ffffff" stop-opacity="0.0"/>
    </radialGradient>
    <radialGradient cx="0" cy="0" gradientTransform="matrix(0.0067, -0.0223, 0.0231, 0.0072, 94.55, 27.4)" gradientUnits="userSpaceOnUse" id="gradient3" r="819.2" spreadMethod="pad">
      <stop offset="0.0" stop-color="#ffffff" stop-opacity="0.7607843"/>
      <stop offset="0.984313725490196" stop-color="#ffffff" stop-opacity="0.0"/>
    </radialGradient>
    <radialGradient cx="0" cy="0" gradientTransform="matrix(0.0067, -0.0223, 0.0231, 0.0072, 23.85, 38.75)" gradientUnits="userSpaceOnUse" id="gradient4" r="819.2" spreadMethod="pad">
      <stop offset="0.0" stop-color="#ffffff" stop-opacity="0.7607843"/>
      <stop offset="0.984313725490196" stop-color="#ffffff" stop-opacity="0.0"/>
    </radialGradient>
    <radialGradient cx="0" cy="0" gradientTransform="matrix(0.0027, -0.0198, 0.0243, 0.009, 22.75, 39.9)" gradientUnits="userSpaceOnUse" id="gradient5" r="819.2" spreadMethod="pad">
      <stop offset="0.0" stop-color="#ffffff" stop-opacity="0.7607843"/>
      <stop offset="0.984313725490196" stop-color="#ffffff" stop-opacity="0.0"/>
    </radialGradient>
    <radialGradient cx="0" cy="0" gradientTransform="matrix(0.0067, -0.0223, 0.0231, 0.0072, 63.8, 46.25)" gradientUnits="userSpaceOnUse" id="gradient6" r="819.2" spreadMethod="pad">
      <stop offset="0.0" stop-color="#ffffff" stop-opacity="0.7607843"/>
      <stop offset="0.984313725490196" stop-color="#ffffff" stop-opacity="0.0"/>
    </radialGradient>
    <radialGradient cx="0" cy="0" gradientTransform="matrix(0.0027, -0.0198, 0.0243, 0.009, 62.7, 47.4)" gradientUnits="userSpaceOnUse" id="gradient7" r="819.2" spreadMethod="pad">
      <stop offset="0.0" stop-color="#ffffff" stop-opacity="0.7607843"/>
      <stop offset="0.984313725490196" stop-color="#ffffff" stop-opacity="0.0"/>
    </radialGradient>
  </defs>
</svg>
