<?xml version="1.0" encoding="UTF-8" standalone="no"?>
<svg xmlns:xlink="http://www.w3.org/1999/xlink" height="45.3px" width="45.3px" xmlns="http://www.w3.org/2000/svg">
  <g transform="matrix(1.0, 0.0, 0.0, 1.0, 0.0, 0.0)">
    <path d="M39.9 8.1 L40.8 9.05 40.1 8.15 Q45.3 14.35 45.3 22.65 45.3 32.05 38.65 38.65 34.25 43.05 28.65 44.55 L22.65 45.3 Q19.5 45.3 16.65 44.55 11.0 43.05 6.6 38.65 L5.75 37.75 Q1.25 31.9 1.25 24.15 1.25 14.75 7.85 8.1 14.5 1.5 23.9 1.5 33.3 1.5 39.9 8.1" fill="url(#gradient0)" fill-rule="evenodd" stroke="none"/>
    <path d="M40.1 8.15 L40.8 9.05 39.9 8.1 Q33.3 1.5 23.9 1.5 14.5 1.5 7.85 8.1 1.25 14.75 1.25 24.15 1.25 31.9 5.75 37.75 0.0 31.4 0.0 22.65 0.0 13.25 6.6 6.6 13.25 0.0 22.65 0.0 32.05 0.0 38.65 6.6 L40.1 8.15" fill="url(#gradient1)" fill-rule="evenodd" stroke="none"/>
    <path d="M6.65 38.7 L5.2 37.15 4.5 36.25 5.4 37.2 Q12.0 43.8 21.4 43.8 30.8 43.8 37.45 37.2 44.05 30.55 44.05 21.15 44.05 13.4 39.55 7.55 45.3 13.9 45.3 22.65 45.3 32.05 38.7 38.7 32.05 45.3 22.65 45.3 13.25 45.3 6.65 38.7" fill="url(#gradient2)" fill-rule="evenodd" stroke="none"/>
  </g>
  <defs>
    <radialGradient cx="0" cy="0" gradientTransform="matrix(0.0282, 0.0, 0.0, 0.0282, 22.65, 22.65)" gradientUnits="userSpaceOnUse" id="gradient0" r="819.2" spreadMethod="pad">
      <stop offset="0.0" stop-color="#ff3300"/>
      <stop offset="1.0" stop-color="#cc0000"/>
    </radialGradient>
    <radialGradient cx="0" cy="0" gradientTransform="matrix(0.0282, 0.0, 0.0, 0.0282, 22.65, 22.65)" gradientUnits="userSpaceOnUse" id="gradient1" r="819.2" spreadMethod="pad">
      <stop offset="0.0" stop-color="#ff9999"/>
      <stop offset="1.0" stop-color="#ff0000"/>
    </radialGradient>
    <radialGradient cx="0" cy="0" gradientTransform="matrix(-0.0282, 0.0, 0.0, -0.0282, 22.65, 22.65)" gradientUnits="userSpaceOnUse" id="gradient2" r="819.2" spreadMethod="pad">
      <stop offset="0.0" stop-color="#660000"/>
      <stop offset="1.0" stop-color="#330000" stop-opacity="0.45882353"/>
    </radialGradient>
  </defs>
</svg>
