<?xml version="1.0" encoding="UTF-8" standalone="no"?>
<svg xmlns:xlink="http://www.w3.org/1999/xlink" height="63.0px" width="39.75px" xmlns="http://www.w3.org/2000/svg">
  <g transform="matrix(1.0, 0.0, 0.0, 1.0, 0.0, 0.0)">
    <path d="M4.65 33.0 L39.75 0.0 24.65 27.45 38.75 27.45 0.0 63.0 17.9 33.0 4.65 33.0" fill="url(#gradient0)" fill-rule="evenodd" stroke="none"/>
    <path d="M22.9 30.0 L29.45 30.0 0.0 63.0 20.0 30.0 12.7 30.0 39.75 0.0 22.9 30.0" fill="url(#gradient1)" fill-rule="evenodd" stroke="none"/>
    <path d="M24.65 27.45 L38.75 27.45 29.05 30.0 22.9 30.0 24.65 27.45 M4.65 33.0 L39.75 0.0 12.9 30.0 4.65 33.0" fill="#ffffff" fill-rule="evenodd" stroke="none"/>
  </g>
  <defs>
    <radialGradient cx="0" cy="0" gradientTransform="matrix(0.0455, 0.0, 0.0, 0.0455, 19.9, 31.5)" gradientUnits="userSpaceOnUse" id="gradient0" r="819.2" spreadMethod="pad">
      <stop offset="0.12941176470588237" stop-color="#ffffcc"/>
      <stop offset="1.0" stop-color="#ffff33"/>
    </radialGradient>
    <radialGradient cx="0" cy="0" gradientTransform="matrix(0.0455, 0.0, 0.0, 0.0455, 19.9, 31.5)" gradientUnits="userSpaceOnUse" id="gradient1" r="819.2" spreadMethod="pad">
      <stop offset="0.12941176470588237" stop-color="#ffcc00" stop-opacity="0.35686275"/>
      <stop offset="1.0" stop-color="#ff9900" stop-opacity="0.31764707"/>
    </radialGradient>
  </defs>
</svg>
