<?xml version="1.0" encoding="UTF-8" standalone="no"?>
<svg xmlns:xlink="http://www.w3.org/1999/xlink" height="75.15px" width="118.35px" xmlns="http://www.w3.org/2000/svg">
  <g transform="matrix(1.0, 0.0, 0.0, 1.0, 59.15, 32.55)">
    <path d="M-0.8 -26.55 Q13.55 -26.55 23.65 -16.45 33.8 -6.3 33.8 8.05 33.8 22.4 23.65 32.5 13.55 42.6 -0.8 42.6 -15.15 42.6 -25.25 32.5 -35.35 22.4 -35.35 8.05 -35.35 -6.3 -25.25 -16.45 -15.15 -26.55 -0.8 -26.55" fill="#000000" fill-rule="evenodd" stroke="none"/>
    <path d="M10.3 -0.6 L10.3 -9.25 0.1 -15.15 -10.1 -9.25 -10.1 -0.6 0.1 5.3 10.3 -0.6 M0.1 10.0 L-11.45 3.3 -11.45 -13.35 0.1 -20.0 11.65 -13.35 11.65 3.3 0.1 10.0" fill="#23140c" fill-rule="evenodd" stroke="none"/>
    <path d="M0.1 8.2 L12.95 0.8 12.95 -10.8 0.1 -18.2 -12.75 -10.8 -12.75 0.8 0.1 8.2 M-22.65 -18.85 Q-19.3 -18.85 -18.75 -17.85 -18.55 -17.45 -18.6 -16.7 L-18.8 -15.3 -18.3 -14.1 -17.65 -12.9 -14.1 -11.25 -14.1 -14.8 -2.05 -21.75 -2.05 -23.3 0.0 -32.55 2.3 -26.55 2.3 -21.75 14.3 -14.8 14.3 -11.35 17.65 -12.9 18.35 -14.1 18.8 -15.3 18.6 -16.7 Q18.55 -17.45 18.75 -17.85 19.3 -18.85 22.65 -18.85 L39.85 -20.25 59.2 -21.45 59.2 -17.45 Q57.6 -14.75 52.15 -13.8 L52.15 -12.65 Q50.8 -10.5 46.2 -9.95 L46.2 -9.1 Q44.6 -7.15 40.2 -7.05 L40.2 -6.15 Q38.75 -4.65 35.35 -4.8 L35.35 -3.05 Q32.75 -1.05 26.25 -3.45 L26.25 -2.1 Q24.6 -1.1 21.15 -3.1 L21.15 -2.2 Q19.7 -1.6 17.45 -3.3 15.95 -4.45 14.3 -6.45 L14.3 4.85 2.3 11.8 2.3 16.3 0.2 25.55 -2.05 16.3 -2.05 11.8 -14.1 4.85 -14.1 -6.7 Q-15.75 -4.65 -17.25 -3.45 -19.6 -1.55 -21.15 -2.2 L-21.15 -3.1 Q-24.6 -1.1 -26.25 -2.1 L-26.25 -3.45 Q-32.7 -1.05 -35.3 -3.05 L-35.3 -4.8 Q-38.7 -4.65 -40.2 -6.15 L-40.2 -7.05 Q-44.55 -7.15 -46.15 -9.1 L-46.15 -9.95 Q-50.75 -10.5 -52.15 -12.65 L-52.15 -13.8 Q-57.55 -14.75 -59.15 -17.45 L-59.15 -21.45 -40.35 -20.25 -22.65 -18.85" fill="#23140c" fill-rule="evenodd" stroke="none"/>
  </g>
</svg>
