<?xml version="1.0" encoding="UTF-8" standalone="no"?>
<svg xmlns:xlink="http://www.w3.org/1999/xlink" height="17.55px" width="445.0px" xmlns="http://www.w3.org/2000/svg">
  <g transform="matrix(1.0, 0.0, 0.0, 1.0, -49.5, -290.4)">
    <path d="M440.95 290.95 Q438.75 294.3 433.5 298.6 427.6 303.45 424.7 303.45 L418.9 303.45 Q414.8 301.7 410.0 300.35 405.45 299.15 401.9 297.55 397.75 297.8 389.8 300.35 382.15 302.65 380.35 302.65 367.65 302.65 357.05 299.55 352.35 298.2 344.9 294.7 L341.55 294.7 338.35 297.55 Q335.4 299.95 330.95 299.95 L318.6 299.55 Q318.05 299.3 316.35 297.0 315.15 295.4 311.8 295.4 L305.6 295.4 Q303.85 299.55 294.85 303.2 286.5 306.7 280.05 306.7 L277.8 306.7 277.6 306.7 Q277.4 306.7 277.4 306.15 277.4 305.9 277.9 305.2 L278.4 304.0 Q278.4 302.4 275.95 301.3 274.1 300.5 267.3 298.75 264.9 297.95 262.9 296.05 L259.4 292.95 253.3 292.7 252.65 296.85 Q252.25 299.55 250.5 300.65 L250.15 300.5 249.75 300.1 245.0 299.95 243.9 299.15 Q243.3 298.35 243.6 298.2 L243.6 297.95 241.2 298.35 Q238.95 298.35 238.85 297.95 238.8 297.8 239.2 297.4 236.35 297.4 234.6 296.2 232.7 295.25 229.0 295.25 219.55 295.25 217.15 297.15 215.95 298.2 216.65 299.15 216.65 300.35 215.3 301.45 213.45 302.8 209.45 303.2 L191.05 303.2 Q189.35 302.8 185.35 301.05 L181.65 299.55 Q170.95 299.55 163.9 302.1 161.7 302.8 157.45 305.35 L151.0 305.6 Q145.4 305.6 130.5 303.05 L115.5 300.35 Q115.1 300.65 113.8 303.6 112.85 306.15 108.95 307.35 104.75 308.85 99.2 306.55 L104.65 307.1 Q110.75 307.1 112.35 303.2 L113.25 300.65 Q113.8 299.55 115.0 299.55 122.4 299.55 133.35 302.1 L145.25 304.8 149.7 304.55 156.55 304.4 Q158.5 302.8 162.35 301.45 170.0 298.6 180.2 298.6 181.35 298.6 185.5 300.35 189.9 302.25 191.2 302.4 L209.85 302.25 Q212.4 301.85 213.7 300.35 L215.15 297.8 Q215.95 296.2 217.15 295.4 218.9 294.45 222.55 294.45 231.3 294.45 234.5 295.4 236.1 296.45 236.8 296.6 L239.95 296.6 240.2 297.55 240.2 297.8 242.35 297.4 245.15 297.15 245.1 297.8 244.9 298.35 Q244.9 298.9 245.15 298.9 L245.4 299.15 250.65 299.3 Q251.3 298.35 251.65 295.65 251.95 292.95 252.8 291.9 L259.75 292.15 Q261.15 292.7 262.15 293.9 L263.75 295.8 Q265.95 298.2 271.6 299.15 278.25 300.1 279.35 302.25 279.7 303.05 279.5 304.15 L279.3 305.6 279.15 305.9 Q282.95 305.6 289.25 303.6 L298.05 300.65 Q301.85 299.7 303.5 297.55 L305.75 294.85 Q315.9 294.85 316.7 296.05 L317.1 297.4 Q317.5 298.2 319.35 298.75 L324.5 299.15 Q336.85 298.6 338.35 297.15 L339.15 295.65 Q339.65 294.7 341.55 293.9 L345.4 293.9 Q352.6 297.15 357.75 298.75 367.15 301.7 374.9 301.7 381.85 301.7 388.8 299.3 L393.5 297.55 Q395.85 296.85 397.5 296.85 L402.4 297.0 Q404.8 297.95 410.35 299.3 414.9 300.65 419.3 302.8 426.45 303.2 433.4 297.8 435.7 296.05 438.05 293.5 L440.8 290.4 Q442.1 290.8 445.2 292.3 L440.95 290.95 M455.3 295.8 Q454.2 297.15 454.2 297.95 L463.6 299.55 Q466.35 300.35 467.05 301.05 L470.3 301.3 Q472.65 305.6 473.8 305.6 475.55 305.6 482.85 302.65 L492.75 298.75 494.5 298.9 Q492.6 299.3 483.55 302.8 475.3 305.9 474.1 305.9 472.05 305.9 471.0 304.0 L469.8 301.7 466.95 301.45 463.15 299.7 453.8 298.2 Q453.7 297.8 453.9 297.15 L454.2 296.2 Q454.2 295.25 450.7 294.05 L451.65 294.3 Q455.55 294.85 455.3 295.8 M69.8 306.95 Q67.65 307.9 56.25 307.9 L53.8 307.65 50.0 307.35 49.75 307.35 49.5 306.7 Q49.5 305.75 52.45 305.75 L55.9 306.15 56.55 306.7 Q62.1 307.35 65.8 306.7 68.25 306.3 71.35 304.8 75.0 303.2 77.0 302.65 80.95 301.45 86.5 301.45 L91.8 301.7 Q92.8 301.85 93.6 303.05 L94.95 304.55 91.3 302.4 Q80.65 302.65 71.85 304.95 71.15 305.35 70.8 306.15 L69.8 306.95" fill="#ffffff" fill-rule="evenodd" stroke="none"/>
  </g>
</svg>
