<?xml version="1.0" encoding="UTF-8" standalone="no"?>
<svg xmlns:xlink="http://www.w3.org/1999/xlink" height="435.4px" width="793.55px" xmlns="http://www.w3.org/2000/svg">
  <g transform="matrix(1.0, 0.0, 0.0, 1.0, 26.8, 19.75)">
    <path d="M765.75 342.2 L753.75 354.65 300.95 354.65 241.2 414.65 -25.8 414.65 -25.8 13.7 -13.85 1.25 661.4 1.25 684.5 -18.75 765.75 -18.75 765.75 342.2" fill="url(#gradient0)" fill-rule="evenodd" stroke="none"/>
    <path d="M765.75 342.2 L765.75 -18.75 684.5 -18.75 661.4 1.25 -13.85 1.25 -25.8 13.7 -25.8 414.65 241.2 414.65 300.95 354.65 753.75 354.65 765.75 342.2 Z" fill="none" stroke="url(#gradient1)" stroke-linecap="round" stroke-linejoin="round" stroke-width="2.0"/>
    <path d="M311.25 39.9 L-26.0 39.9 -26.0 14.3 -10.75 0.55 311.25 0.55 311.25 39.9" fill="url(#gradient2)" fill-rule="evenodd" stroke="none"/>
  </g>
  <defs>
    <linearGradient gradientTransform="matrix(-0.0049, 0.2812, -0.2157, -0.0038, 369.95, 177.95)" gradientUnits="userSpaceOnUse" id="gradient0" spreadMethod="pad" x1="-819.2" x2="819.2">
      <stop offset="0.0" stop-color="#2e0000"/>
      <stop offset="0.1411764705882353" stop-color="#160000"/>
      <stop offset="0.5176470588235295" stop-color="#000000"/>
      <stop offset="0.8862745098039215" stop-color="#130000"/>
      <stop offset="1.0" stop-color="#2c0000"/>
    </linearGradient>
    <linearGradient gradientTransform="matrix(0.0698, 0.2038, -0.1137, 0.0383, 320.75, 180.55)" gradientUnits="userSpaceOnUse" id="gradient1" spreadMethod="pad" x1="-819.2" x2="819.2">
      <stop offset="0.00392156862745098" stop-color="#ce0000"/>
      <stop offset="0.5333333333333333" stop-color="#4b0000"/>
      <stop offset="0.984313725490196" stop-color="#ce0000"/>
    </linearGradient>
    <linearGradient gradientTransform="matrix(-0.1942, -1.0E-4, 0.0, -0.024, 142.6, 20.3)" gradientUnits="userSpaceOnUse" id="gradient2" spreadMethod="pad" x1="-819.2" x2="819.2">
      <stop offset="0.0" stop-color="#750000" stop-opacity="0.0"/>
      <stop offset="1.0" stop-color="#750000"/>
    </linearGradient>
  </defs>
</svg>
