<?xml version="1.0" encoding="UTF-8" standalone="no"?>
<svg xmlns:xlink="http://www.w3.org/1999/xlink" height="12.45px" width="14.8px" xmlns="http://www.w3.org/2000/svg">
  <g transform="matrix(1.0, 0.0, 0.0, 1.0, -83.2, -4.35)">
    <path d="M85.85 5.5 L89.4 9.0 89.05 9.4 85.9 6.25 85.85 5.5 M85.9 12.55 L87.05 13.65 90.55 10.15 94.05 13.65 95.3 12.5 95.2 13.25 94.05 14.4 90.55 10.9 87.05 14.4 85.9 13.25 85.9 12.55 M92.1 9.4 L91.7 9.0 95.3 5.55 95.2 6.25 92.1 9.4" fill="#000033" fill-opacity="0.16862746" fill-rule="evenodd" stroke="none"/>
    <path d="M83.2 15.9 L98.0 15.9 98.0 16.8 83.2 16.8 83.2 15.9" fill="url(#gradient0)" fill-rule="evenodd" stroke="none"/>
    <path d="M85.85 5.5 L85.9 5.5 87.05 4.35 90.55 7.85 94.05 4.35 95.2 5.5 95.3 5.55 91.7 9.0 92.1 9.4 95.2 12.5 95.3 12.5 94.05 13.65 90.55 10.15 87.05 13.65 85.9 12.55 85.9 12.5 89.05 9.4 89.4 9.0 85.85 5.5" fill="#ffffff" fill-rule="evenodd" stroke="none"/>
  </g>
  <defs>
    <radialGradient cx="0" cy="0" gradientTransform="matrix(0.0092, 0.0, 0.0, 0.0029, 90.6, 16.4)" gradientUnits="userSpaceOnUse" id="gradient0" r="819.2" spreadMethod="pad">
      <stop offset="0.16470588235294117" stop-color="#ff0000"/>
      <stop offset="1.0" stop-color="#ff0000" stop-opacity="0.078431375"/>
    </radialGradient>
  </defs>
</svg>
