<?xml version="1.0" encoding="UTF-8" standalone="no"?>
<svg xmlns:xlink="http://www.w3.org/1999/xlink" height="21.8px" width="44.55px" xmlns="http://www.w3.org/2000/svg">
  <g transform="matrix(1.0, 0.0, 0.0, 1.0, -1.95, 15.3)">
    <path d="M45.5 -14.3 L45.5 5.5 2.95 5.5 2.95 -14.3 45.5 -14.3" fill="url(#gradient0)" fill-rule="evenodd" stroke="none"/>
    <path d="M11.15 5.5 L2.95 5.5 2.95 -14.3 11.15 -14.3 M37.35 -14.3 L45.5 -14.3 45.5 5.5 37.35 5.5" fill="none" stroke="#c51414" stroke-linecap="square" stroke-linejoin="miter" stroke-width="1.5"/>
    <path d="M36.0 -8.0 L32.5 -8.0 32.5 -0.7 36.0 -0.7 36.0 -8.0 M36.75 -10.0 L38.45 -8.6 38.45 -0.2 36.75 1.2 30.05 1.2 30.05 -10.0 36.75 -10.0 M22.5 -5.35 L26.5 -5.35 26.5 -3.35 22.5 -3.35 22.5 -0.7 28.4 -0.7 28.4 1.2 20.05 1.2 20.05 -10.0 28.4 -10.0 28.4 -8.0 22.5 -8.0 22.5 -5.35 M9.9 -10.0 L16.6 -10.0 18.2 -8.6 18.2 -4.5 16.6 -3.1 18.65 1.2 15.95 1.2 13.95 -3.1 12.35 -3.1 12.35 1.2 9.9 1.2 9.9 -10.0 M15.85 -8.0 L12.35 -8.0 12.35 -5.15 15.85 -5.15 15.85 -8.0" fill="#d90000" fill-rule="evenodd" stroke="none"/>
  </g>
  <defs>
    <linearGradient gradientTransform="matrix(0.0168, 0.0197, -0.0092, 0.0078, 24.2, -4.4)" gradientUnits="userSpaceOnUse" id="gradient0" spreadMethod="pad" x1="-819.2" x2="819.2">
      <stop offset="0.0" stop-color="#540000"/>
      <stop offset="0.39215686274509803" stop-color="#150000"/>
      <stop offset="0.7372549019607844" stop-color="#380000"/>
      <stop offset="1.0" stop-color="#090000"/>
    </linearGradient>
  </defs>
</svg>
