<?xml version="1.0" encoding="UTF-8" standalone="no"?>
<svg xmlns:xlink="http://www.w3.org/1999/xlink" height="21.3px" width="59.3px" xmlns="http://www.w3.org/2000/svg">
  <g transform="matrix(1.0, 0.0, 0.0, 1.0, -2.2, 15.0)">
    <path d="M2.9 -14.2 L60.9 -14.2 60.9 5.8 2.9 5.8 2.9 -14.2" fill="url(#gradient0)" fill-rule="evenodd" stroke="none"/>
    <path d="M54.6 1.3 L52.25 1.3 49.6 -4.5 46.95 -1.55 46.95 1.3 44.7 1.3 44.7 -9.6 46.95 -9.6 46.95 -4.45 51.45 -9.6 54.15 -9.6 51.25 -6.3 54.6 1.3 M35.25 1.3 L33.05 1.3 32.15 -1.35 29.0 -1.35 28.25 1.3 25.95 1.3 29.55 -9.6 31.65 -9.6 35.25 1.3 M31.55 -3.15 L30.6 -6.4 29.6 -3.15 31.55 -3.15 M43.5 -0.05 L41.95 1.3 37.5 1.3 35.95 -0.05 35.95 -8.2 37.5 -9.6 41.95 -9.6 43.5 -8.2 43.5 -7.7 38.2 -7.7 38.2 -0.6 43.5 -0.6 43.5 -0.05 M16.25 -0.05 L14.7 1.3 8.45 1.3 8.45 -9.6 14.7 -9.6 16.25 -8.2 16.25 -5.05 15.25 -4.25 16.25 -3.35 16.25 -0.05 M13.95 -0.6 L13.95 -3.3 10.7 -3.3 10.7 -0.6 13.95 -0.6 M13.95 -5.15 L13.95 -7.7 10.7 -7.7 10.7 -5.15 13.95 -5.15 M24.75 1.3 L17.45 1.3 17.45 -9.6 19.7 -9.6 19.7 -0.6 24.75 -0.6 24.75 1.3" fill="#000000" fill-rule="evenodd" stroke="none"/>
    <path d="M2.2 6.3 L2.2 -15.0 11.9 -15.0 11.9 -13.5 3.7 -13.5 3.7 4.8 11.9 4.8 11.9 6.3 2.2 6.3" fill="url(#gradient1)" fill-rule="evenodd" stroke="none"/>
    <path d="M61.5 -15.0 L61.5 6.3 51.85 6.3 51.85 4.8 60.0 4.8 60.0 -13.5 51.85 -13.5 51.85 -15.0 61.5 -15.0" fill="url(#gradient2)" fill-rule="evenodd" stroke="none"/>
  </g>
  <defs>
    <linearGradient gradientTransform="matrix(0.0236, 0.0263, -0.0091, 0.0081, 42.4, -0.7)" gradientUnits="userSpaceOnUse" id="gradient0" spreadMethod="pad" x1="-819.2" x2="819.2">
      <stop offset="0.0" stop-color="#585858"/>
      <stop offset="0.24313725490196078" stop-color="#2e2e2e"/>
      <stop offset="0.4823529411764706" stop-color="#3f3f3f"/>
      <stop offset="1.0" stop-color="#000000"/>
    </linearGradient>
    <linearGradient gradientTransform="matrix(0.0108, 0.0069, -0.0069, 0.011, 5.7, -5.0)" gradientUnits="userSpaceOnUse" id="gradient1" spreadMethod="pad" x1="-819.2" x2="819.2">
      <stop offset="0.00392156862745098" stop-color="#000000"/>
      <stop offset="0.4627450980392157" stop-color="#2c2c2c"/>
      <stop offset="1.0" stop-color="#000000"/>
    </linearGradient>
    <linearGradient gradientTransform="matrix(0.0147, 0.0073, -0.0058, 0.0116, 54.15, -12.6)" gradientUnits="userSpaceOnUse" id="gradient2" spreadMethod="pad" x1="-819.2" x2="819.2">
      <stop offset="0.00392156862745098" stop-color="#000000"/>
      <stop offset="0.4627450980392157" stop-color="#2c2c2c"/>
      <stop offset="1.0" stop-color="#000000"/>
    </linearGradient>
  </defs>
</svg>
