<?xml version="1.0" encoding="UTF-8" standalone="no"?>
<svg xmlns:xlink="http://www.w3.org/1999/xlink" height="154.6px" width="380.55px" xmlns="http://www.w3.org/2000/svg">
  <g transform="matrix(1.0, 0.0, 0.0, 1.0, 35.4, -84.9)">
    <path d="M345.15 88.55 L-35.4 88.55 -35.4 84.9 345.15 84.9 345.15 88.55" fill="url(#gradient0)" fill-rule="evenodd" stroke="none"/>
    <path d="M345.15 103.65 L-35.4 103.65 -35.4 100.0 345.15 100.0 345.15 103.65" fill="url(#gradient1)" fill-rule="evenodd" stroke="none"/>
    <path d="M345.15 111.2 L-35.4 111.2 -35.4 107.55 345.15 107.55 345.15 111.2" fill="url(#gradient2)" fill-rule="evenodd" stroke="none"/>
    <path d="M345.15 96.1 L-35.4 96.1 -35.4 92.45 345.15 92.45 345.15 96.1" fill="url(#gradient3)" fill-rule="evenodd" stroke="none"/>
    <path d="M345.15 126.3 L-35.4 126.3 -35.4 122.65 345.15 122.65 345.15 126.3" fill="url(#gradient4)" fill-rule="evenodd" stroke="none"/>
    <path d="M345.15 133.85 L-35.4 133.85 -35.4 130.2 345.15 130.2 345.15 133.85" fill="url(#gradient5)" fill-rule="evenodd" stroke="none"/>
    <path d="M345.15 118.75 L-35.4 118.75 -35.4 115.1 345.15 115.1 345.15 118.75 M345.15 216.9 L-35.4 216.9 -35.4 213.25 345.15 213.25 345.15 216.9" fill="url(#gradient6)" fill-rule="evenodd" stroke="none"/>
    <path d="M345.15 148.95 L-35.4 148.95 -35.4 145.3 345.15 145.3 345.15 148.95" fill="url(#gradient7)" fill-rule="evenodd" stroke="none"/>
    <path d="M345.15 164.05 L-35.4 164.05 -35.4 160.4 345.15 160.4 345.15 164.05 M345.15 179.15 L-35.4 179.15 -35.4 175.5 345.15 175.5 345.15 179.15" fill="url(#gradient8)" fill-rule="evenodd" stroke="none"/>
    <path d="M345.15 156.5 L-35.4 156.5 -35.4 152.85 345.15 152.85 345.15 156.5" fill="url(#gradient9)" fill-rule="evenodd" stroke="none"/>
    <path d="M345.15 171.6 L-35.4 171.6 -35.4 167.95 345.15 167.95 345.15 171.6 M345.15 186.7 L-35.4 186.7 -35.4 183.05 345.15 183.05 345.15 186.7" fill="url(#gradient10)" fill-rule="evenodd" stroke="none"/>
    <path d="M345.15 141.4 L-35.4 141.4 -35.4 137.75 345.15 137.75 345.15 141.4 M345.15 239.5 L-35.4 239.5 -35.4 235.85 345.15 235.85 345.15 239.5" fill="url(#gradient11)" fill-rule="evenodd" stroke="none"/>
    <path d="M345.15 194.25 L-35.4 194.25 -35.4 190.6 345.15 190.6 345.15 194.25" fill="url(#gradient12)" fill-rule="evenodd" stroke="none"/>
    <path d="M345.15 209.35 L-35.4 209.35 -35.4 205.7 345.15 205.7 345.15 209.35 M345.15 224.45 L-35.4 224.45 -35.4 220.8 345.15 220.8 345.15 224.45" fill="url(#gradient13)" fill-rule="evenodd" stroke="none"/>
    <path d="M345.15 231.95 L-35.4 231.95 -35.4 228.35 345.15 228.35 345.15 231.95" fill="url(#gradient14)" fill-rule="evenodd" stroke="none"/>
    <path d="M345.15 201.8 L-35.4 201.8 -35.4 198.15 345.15 198.15 345.15 201.8" fill="url(#gradient15)" fill-rule="evenodd" stroke="none"/>
  </g>
  <defs>
    <radialGradient cx="0" cy="0" gradientTransform="matrix(0.2155, 0.0, 0.0, 0.1268, 145.55, 157.0)" gradientUnits="userSpaceOnUse" id="gradient0" r="819.2" spreadMethod="pad">
      <stop offset="0.0" stop-color="#770000" stop-opacity="0.47843137"/>
      <stop offset="1.0" stop-color="#550000" stop-opacity="0.07058824"/>
    </radialGradient>
    <radialGradient cx="0" cy="0" gradientTransform="matrix(0.2155, 0.0, 0.0, 0.1268, 145.55, 157.55)" gradientUnits="userSpaceOnUse" id="gradient1" r="819.2" spreadMethod="pad">
      <stop offset="0.0" stop-color="#770000" stop-opacity="0.47843137"/>
      <stop offset="1.0" stop-color="#550000" stop-opacity="0.07058824"/>
    </radialGradient>
    <radialGradient cx="0" cy="0" gradientTransform="matrix(0.2155, 0.0, 0.0, 0.1268, 145.55, 157.25)" gradientUnits="userSpaceOnUse" id="gradient2" r="819.2" spreadMethod="pad">
      <stop offset="0.0" stop-color="#770000" stop-opacity="0.47843137"/>
      <stop offset="1.0" stop-color="#550000" stop-opacity="0.07058824"/>
    </radialGradient>
    <radialGradient cx="0" cy="0" gradientTransform="matrix(0.2155, 0.0, 0.0, 0.1268, 145.55, 157.3)" gradientUnits="userSpaceOnUse" id="gradient3" r="819.2" spreadMethod="pad">
      <stop offset="0.0" stop-color="#770000" stop-opacity="0.47843137"/>
      <stop offset="1.0" stop-color="#550000" stop-opacity="0.07058824"/>
    </radialGradient>
    <radialGradient cx="0" cy="0" gradientTransform="matrix(0.2155, 0.0, 0.0, 0.1268, 145.55, 156.9)" gradientUnits="userSpaceOnUse" id="gradient4" r="819.2" spreadMethod="pad">
      <stop offset="0.0" stop-color="#770000" stop-opacity="0.47843137"/>
      <stop offset="1.0" stop-color="#550000" stop-opacity="0.07058824"/>
    </radialGradient>
    <radialGradient cx="0" cy="0" gradientTransform="matrix(0.2155, 0.0, 0.0, 0.1268, 145.55, 156.5)" gradientUnits="userSpaceOnUse" id="gradient5" r="819.2" spreadMethod="pad">
      <stop offset="0.0" stop-color="#770000" stop-opacity="0.47843137"/>
      <stop offset="1.0" stop-color="#550000" stop-opacity="0.07058824"/>
    </radialGradient>
    <radialGradient cx="0" cy="0" gradientTransform="matrix(0.2155, 0.0, 0.0, 0.1268, 145.55, 156.6)" gradientUnits="userSpaceOnUse" id="gradient6" r="819.2" spreadMethod="pad">
      <stop offset="0.0" stop-color="#770000" stop-opacity="0.47843137"/>
      <stop offset="1.0" stop-color="#550000" stop-opacity="0.07058824"/>
    </radialGradient>
    <radialGradient cx="0" cy="0" gradientTransform="matrix(0.2155, 0.0, 0.0, 0.1268, 145.55, 157.15)" gradientUnits="userSpaceOnUse" id="gradient7" r="819.2" spreadMethod="pad">
      <stop offset="0.0" stop-color="#770000" stop-opacity="0.47843137"/>
      <stop offset="1.0" stop-color="#550000" stop-opacity="0.07058824"/>
    </radialGradient>
    <radialGradient cx="0" cy="0" gradientTransform="matrix(0.2155, 0.0, 0.0, 0.1268, 145.55, 156.05)" gradientUnits="userSpaceOnUse" id="gradient8" r="819.2" spreadMethod="pad">
      <stop offset="0.0" stop-color="#770000" stop-opacity="0.47843137"/>
      <stop offset="1.0" stop-color="#550000" stop-opacity="0.07058824"/>
    </radialGradient>
    <radialGradient cx="0" cy="0" gradientTransform="matrix(0.2155, 0.0, 0.0, 0.1268, 145.55, 156.8)" gradientUnits="userSpaceOnUse" id="gradient9" r="819.2" spreadMethod="pad">
      <stop offset="0.0" stop-color="#770000" stop-opacity="0.47843137"/>
      <stop offset="1.0" stop-color="#550000" stop-opacity="0.07058824"/>
    </radialGradient>
    <radialGradient cx="0" cy="0" gradientTransform="matrix(0.2155, 0.0, 0.0, 0.1268, 145.55, 156.35)" gradientUnits="userSpaceOnUse" id="gradient10" r="819.2" spreadMethod="pad">
      <stop offset="0.0" stop-color="#770000" stop-opacity="0.47843137"/>
      <stop offset="1.0" stop-color="#550000" stop-opacity="0.07058824"/>
    </radialGradient>
    <radialGradient cx="0" cy="0" gradientTransform="matrix(0.2155, 0.0, 0.0, 0.1268, 145.55, 156.85)" gradientUnits="userSpaceOnUse" id="gradient11" r="819.2" spreadMethod="pad">
      <stop offset="0.0" stop-color="#770000" stop-opacity="0.47843137"/>
      <stop offset="1.0" stop-color="#550000" stop-opacity="0.07058824"/>
    </radialGradient>
    <radialGradient cx="0" cy="0" gradientTransform="matrix(0.2155, 0.0, 0.0, 0.1268, 145.55, 156.65)" gradientUnits="userSpaceOnUse" id="gradient12" r="819.2" spreadMethod="pad">
      <stop offset="0.0" stop-color="#770000" stop-opacity="0.47843137"/>
      <stop offset="1.0" stop-color="#550000" stop-opacity="0.07058824"/>
    </radialGradient>
    <radialGradient cx="0" cy="0" gradientTransform="matrix(0.2155, 0.0, 0.0, 0.1268, 145.55, 156.95)" gradientUnits="userSpaceOnUse" id="gradient13" r="819.2" spreadMethod="pad">
      <stop offset="0.0" stop-color="#770000" stop-opacity="0.47843137"/>
      <stop offset="1.0" stop-color="#550000" stop-opacity="0.07058824"/>
    </radialGradient>
    <radialGradient cx="0" cy="0" gradientTransform="matrix(0.2155, 0.0, 0.0, 0.1268, 145.55, 157.2)" gradientUnits="userSpaceOnUse" id="gradient14" r="819.2" spreadMethod="pad">
      <stop offset="0.0" stop-color="#770000" stop-opacity="0.47843137"/>
      <stop offset="1.0" stop-color="#550000" stop-opacity="0.07058824"/>
    </radialGradient>
    <radialGradient cx="0" cy="0" gradientTransform="matrix(0.2155, 0.0, 0.0, 0.1268, 145.55, 156.7)" gradientUnits="userSpaceOnUse" id="gradient15" r="819.2" spreadMethod="pad">
      <stop offset="0.0" stop-color="#770000" stop-opacity="0.47843137"/>
      <stop offset="1.0" stop-color="#550000" stop-opacity="0.07058824"/>
    </radialGradient>
  </defs>
</svg>
