<?xml version="1.0" encoding="UTF-8" standalone="no"?>
<svg xmlns:xlink="http://www.w3.org/1999/xlink" height="29.1px" width="198.45px" xmlns="http://www.w3.org/2000/svg">
  <g transform="matrix(1.0, 0.0, 0.0, 1.0, -2.35, 1.6)">
    <path d="M9.35 3.6 L6.45 12.0 2.35 12.0 5.25 3.6 9.35 3.6 M23.0 3.6 L21.7 7.3 Q21.0 9.3 19.05 9.3 L18.2 9.3 20.1 12.0 15.1 12.0 13.2 9.3 9.55 9.3 11.0 5.2 18.3 5.2 18.9 3.6 23.0 3.6 M36.95 7.9 L38.4 3.6 42.5 3.6 40.3 10.0 39.85 10.8 39.2 11.4 38.4 11.85 37.55 12.0 23.95 12.0 23.2 11.85 22.7 11.4 22.45 10.8 22.6 10.0 24.8 3.6 28.9 3.6 27.35 7.9 36.95 7.9 M49.15 19.05 L53.25 19.05 50.3 27.5 46.2 27.5 49.15 19.05 M55.0 19.05 L59.1 19.05 56.15 27.5 52.05 27.5 55.0 19.05 M55.0 13.85 L53.65 17.9 49.5 17.9 50.95 13.85 55.0 13.85 M57.85 11.85 L57.0 12.0 43.4 12.0 42.65 11.85 42.15 11.4 41.95 10.8 42.05 10.0 44.25 3.6 48.35 3.6 46.8 7.9 56.4 7.9 57.35 5.15 49.95 5.15 50.55 3.6 61.95 3.6 59.75 10.0 59.3 10.8 58.65 11.4 57.85 11.85 M67.25 19.05 L71.3 19.05 68.4 27.5 64.3 27.5 67.25 19.05 M72.4 15.9 L71.7 17.9 55.35 17.9 56.8 13.85 71.05 13.85 71.75 14.05 72.25 14.5 72.45 15.1 72.4 15.9 M65.05 3.6 L69.15 3.6 66.2 12.0 62.2 12.0 65.05 3.6 M60.9 1.1 Q62.4 1.1 62.25 2.45 L50.85 2.45 51.4 1.1 60.9 1.1 M96.7 17.9 L92.6 17.9 94.0 13.85 98.05 13.85 96.7 17.9 M85.65 19.05 L89.95 19.05 85.5 25.85 85.0 26.45 84.35 26.95 83.65 27.35 82.95 27.5 72.25 27.5 71.5 27.3 71.0 26.85 70.8 26.25 Q70.7 25.85 70.9 25.45 L73.1 19.05 77.2 19.05 75.65 23.35 82.85 23.35 85.65 19.05 M91.1 17.1 L90.7 17.9 73.5 17.9 74.15 15.9 74.6 15.1 75.3 14.5 76.05 14.05 76.9 13.85 90.25 13.85 Q91.25 13.85 91.55 14.4 91.85 14.9 91.35 16.3 L91.1 17.1 M84.0 7.9 L82.6 12.0 70.05 12.0 69.3 11.85 68.8 11.4 68.6 10.8 68.7 10.0 70.9 3.6 75.0 3.6 73.5 7.9 84.0 7.9 M115.8 23.35 L117.3 19.05 121.45 19.05 119.25 25.35 118.8 26.15 118.05 26.8 117.25 27.25 116.4 27.5 108.75 27.5 110.2 23.35 115.8 23.35 M110.3 17.9 L106.2 17.9 107.6 13.85 111.65 13.85 110.3 17.9 M105.8 19.05 L109.9 19.05 107.75 25.45 107.3 26.25 106.6 26.85 105.8 27.3 104.95 27.5 91.35 27.5 90.65 27.3 Q90.3 27.15 90.1 26.85 L89.9 26.25 90.0 25.45 92.2 19.05 96.3 19.05 94.8 23.35 104.35 23.35 105.8 19.05 M102.8 10.0 L102.35 10.8 101.65 11.4 100.85 11.85 100.0 12.0 86.4 12.0 85.7 11.85 85.2 11.4 84.95 10.8 85.05 10.0 87.25 3.6 91.35 3.6 89.85 7.9 99.4 7.9 100.85 3.6 104.95 3.6 102.8 10.0 M103.8 12.0 L106.7 3.6 110.8 3.6 107.9 12.0 103.8 12.0 M116.05 12.0 L118.95 3.6 123.0 3.6 120.15 12.0 116.05 12.0 M133.7 19.05 L137.75 19.05 134.9 27.5 130.8 27.5 133.7 19.05 M128.4 13.85 L127.0 17.9 117.7 17.9 118.3 16.0 118.75 15.3 119.5 14.6 Q119.85 14.3 120.3 14.1 L121.2 13.85 128.4 13.85 M145.2 19.05 L149.3 19.05 146.35 27.5 142.25 27.5 145.2 19.05 M145.2 13.85 L143.75 17.9 128.8 17.9 130.2 13.85 145.2 13.85 M145.55 17.9 L146.25 15.9 146.7 15.1 147.35 14.5 Q147.75 14.2 148.15 14.05 L149.0 13.85 160.6 13.85 159.2 17.9 145.55 17.9 M166.0 19.05 L163.05 27.5 159.0 27.5 161.9 19.05 166.0 19.05 M170.65 22.35 L170.3 23.35 180.75 23.35 179.35 27.5 166.9 27.5 166.15 27.3 165.65 26.85 165.4 26.25 165.55 25.45 167.75 19.05 182.25 19.05 181.1 22.35 170.65 22.35 M165.7 13.85 Q166.55 13.85 166.95 14.5 167.35 15.1 167.05 15.9 L166.4 17.9 160.9 17.9 162.35 13.85 165.7 13.85 M184.05 13.85 L182.65 17.9 168.1 17.9 168.8 15.9 169.25 15.1 169.9 14.5 170.7 14.05 171.55 13.85 184.05 13.85 M191.1 15.3 L191.85 14.6 192.7 14.1 193.6 13.85 200.8 13.85 199.4 17.9 190.05 17.9 190.65 16.0 191.1 15.3 M188.2 23.35 L189.65 19.05 193.8 19.05 191.65 25.35 191.2 26.15 190.45 26.8 189.6 27.25 188.75 27.5 181.1 27.5 182.55 23.35 188.2 23.35 M122.8 -1.6 L123.45 -1.45 124.0 -1.0 124.2 -0.35 124.15 0.45 123.4 2.45 107.1 2.45 108.5 -1.6 122.8 -1.6 M90.25 -1.45 L91.1 -1.6 104.7 -1.6 105.4 -1.45 105.95 -1.0 106.15 -0.35 106.05 0.45 105.35 2.45 87.65 2.45 88.3 0.45 88.75 -0.35 89.45 -1.0 90.25 -1.45 M40.2 -1.6 L44.25 -1.6 42.9 2.45 38.8 2.45 40.2 -1.6 M65.5 -1.6 L68.85 -1.6 Q69.7 -1.6 70.1 -1.0 70.5 -0.35 70.2 0.45 L69.55 2.45 64.1 2.45 65.5 -1.6 M46.05 -1.6 L50.1 -1.6 48.75 2.45 44.65 2.45 46.05 -1.6 M73.1 -1.0 L73.85 -1.45 74.7 -1.6 87.25 -1.6 85.85 2.45 71.3 2.45 71.95 0.45 72.4 -0.35 73.1 -1.0 M9.1 -1.6 L22.7 -1.6 23.45 -1.45 23.95 -1.0 24.15 -0.35 24.05 0.45 23.35 2.45 5.65 2.45 6.35 0.45 6.8 -0.35 7.45 -1.0 8.25 -1.45 9.1 -1.6 M26.6 -1.6 L30.65 -1.6 29.3 2.45 25.15 2.45 26.6 -1.6" fill="#950000" fill-rule="evenodd" stroke="none"/>
  </g>
</svg>
