<?xml version="1.0" encoding="UTF-8" standalone="no"?>
<svg xmlns:xlink="http://www.w3.org/1999/xlink" height="35.85px" width="143.75px" xmlns="http://www.w3.org/2000/svg">
  <g transform="matrix(1.0, 0.0, 0.0, 1.0, -23.0, 3.2)">
    <path d="M52.7 8.9 Q52.7 4.95 50.85 3.15 49.1 1.4 45.15 1.4 L35.75 1.4 Q31.8 1.4 30.0 3.15 28.2 4.95 28.2 8.9 L28.2 20.95 Q28.2 24.9 30.0 26.7 31.8 28.5 35.75 28.5 L45.15 28.5 Q49.1 28.5 50.85 26.7 52.7 24.9 52.7 20.95 L52.7 17.5 45.85 17.5 45.85 20.95 Q45.85 23.25 43.65 23.25 L37.25 23.25 Q35.0 23.25 35.0 20.95 L35.0 8.9 Q35.0 6.7 37.25 6.7 L43.65 6.7 Q45.85 6.7 45.85 8.9 L45.85 13.05 52.7 13.05 52.7 8.9 M83.6 28.1 L83.6 1.75 76.45 1.75 68.9 15.7 61.4 1.75 54.25 1.75 54.25 28.1 61.0 28.1 61.0 13.45 66.3 22.85 71.55 22.85 76.8 13.45 76.8 28.1 83.6 28.1 M111.2 14.95 L114.2 14.95 Q117.0 21.15 118.95 27.75 L116.05 27.75 115.3 25.05 110.1 25.05 109.3 27.75 106.5 27.75 Q108.55 21.0 111.2 14.95 M114.55 22.85 L112.7 17.9 Q111.6 20.35 110.75 22.85 L114.55 22.85 M102.2 14.95 L106.1 14.95 106.1 27.75 103.45 27.75 103.45 18.3 101.2 25.0 98.6 25.0 96.35 18.3 96.35 27.75 93.7 27.75 93.7 14.95 97.6 14.95 99.9 21.85 102.2 14.95 M101.95 5.5 L101.25 4.1 Q100.6 3.5 99.05 3.5 97.4 3.5 96.7 4.55 95.95 5.7 95.95 8.25 95.95 10.35 96.6 11.35 97.35 12.4 99.1 12.4 L101.15 11.95 Q101.8 11.4 101.95 10.1 L104.6 10.1 Q104.3 14.65 99.05 14.65 96.1 14.65 94.7 13.1 93.25 11.45 93.25 8.0 93.25 4.55 94.65 2.9 96.1 1.25 99.05 1.25 104.0 1.25 104.6 5.5 L101.95 5.5 M116.55 1.5 L119.2 1.5 119.2 14.35 116.55 14.35 116.55 1.5 M115.45 5.35 Q115.45 7.15 114.8 8.05 114.2 8.9 112.95 9.15 L116.3 14.35 113.1 14.35 109.95 9.3 107.6 9.3 107.6 14.35 104.9 14.35 104.9 1.5 110.45 1.5 Q113.05 1.5 113.95 2.0 115.45 2.85 115.45 5.35 M112.15 6.8 Q112.8 6.4 112.8 5.3 112.8 4.3 112.3 4.0 L110.1 3.7 107.6 3.7 107.6 7.1 109.95 7.1 112.15 6.8 M133.7 1.5 L133.7 14.35 131.05 14.35 131.05 1.5 133.7 1.5 M130.5 20.9 Q129.6 20.0 129.6 18.45 129.6 14.65 134.4 14.65 139.3 14.65 139.45 18.7 L136.8 18.7 Q136.65 17.7 136.35 17.4 135.85 16.9 134.35 16.9 L132.8 17.15 Q132.3 17.45 132.3 18.2 132.3 18.8 132.7 19.15 L133.6 19.6 136.45 20.35 Q138.1 20.75 138.8 21.45 139.85 22.35 139.85 24.05 139.85 26.5 138.0 27.4 136.85 28.05 134.8 28.05 131.85 28.05 130.55 26.9 129.45 25.9 129.35 23.75 L132.0 23.75 Q132.05 24.9 132.45 25.25 133.05 25.8 134.8 25.8 L136.5 25.55 Q137.15 25.15 137.15 24.3 L136.85 23.35 Q136.5 22.95 135.65 22.75 L132.55 21.9 Q131.15 21.6 130.5 20.9 M123.45 16.9 L121.95 17.15 Q121.45 17.45 121.45 18.2 121.45 18.8 121.85 19.15 L122.75 19.6 125.6 20.35 Q127.25 20.75 128.0 21.45 128.95 22.35 128.95 24.05 128.95 28.05 123.95 28.05 121.0 28.05 119.75 26.9 118.65 25.9 118.45 23.75 L121.1 23.75 Q121.2 24.9 121.65 25.25 122.25 25.8 123.95 25.8 L125.6 25.55 Q126.3 25.15 126.3 24.3 126.3 23.7 125.95 23.35 125.6 22.95 124.8 22.75 L121.65 21.9 Q120.3 21.6 119.65 20.9 118.75 20.0 118.75 18.45 118.75 14.65 123.6 14.65 128.45 14.65 128.55 18.7 L125.9 18.7 125.55 17.4 Q125.0 16.9 123.45 16.9 M130.3 1.5 L130.3 3.75 126.45 3.75 126.45 14.35 123.85 14.35 123.85 3.75 119.95 3.75 119.95 1.5 130.3 1.5 M147.6 14.35 L144.8 14.35 Q146.8 7.5 149.5 1.5 L152.5 1.5 Q155.3 7.75 157.2 14.35 L154.3 14.35 153.55 11.65 148.35 11.65 147.6 14.35 M142.1 11.95 Q142.75 11.4 142.9 10.1 L145.6 10.1 Q145.25 14.65 140.05 14.65 137.1 14.65 135.7 13.1 134.2 11.45 134.2 8.0 134.2 4.55 135.65 2.9 137.1 1.25 140.05 1.25 144.95 1.25 145.6 5.5 L142.9 5.5 Q142.65 4.5 142.2 4.1 141.55 3.5 140.05 3.5 138.4 3.5 137.65 4.55 136.9 5.7 136.9 8.25 136.9 10.35 137.6 11.35 138.3 12.4 140.1 12.4 L142.1 11.95 M150.95 4.5 Q149.95 6.7 149.05 9.45 L152.85 9.45 150.95 4.5 M166.75 12.1 L166.75 14.35 157.75 14.35 157.75 1.5 160.35 1.5 160.35 12.1 166.75 12.1 M24.65 -1.5 Q26.3 -3.2 28.7 -3.2 L83.6 -3.2 Q85.95 -3.2 87.6 -1.5 89.3 0.15 89.3 2.55 L89.3 26.95 Q89.3 29.3 87.6 31.0 85.95 32.65 83.6 32.65 L28.7 32.65 Q26.3 32.65 24.65 31.0 23.0 29.3 23.0 26.95 L23.0 2.55 Q23.0 0.15 24.65 -1.5" fill="#950000" fill-rule="evenodd" stroke="none"/>
  </g>
</svg>
