<?xml version="1.0" encoding="UTF-8" standalone="no"?>
<svg xmlns:xlink="http://www.w3.org/1999/xlink" height="22.35px" width="168.1px" xmlns="http://www.w3.org/2000/svg">
  <g transform="matrix(1.0, 0.0, 0.0, 1.0, -14.1, -2.15)">
    <path d="M25.35 2.6 L26.35 2.75 Q26.1 2.9 26.0 3.35 25.85 3.8 25.85 4.3 L25.85 6.7 Q25.85 7.45 26.1 7.9 L26.6 8.45 Q25.85 8.6 25.5 8.9 25.0 9.1 24.85 9.6 L24.65 10.9 24.25 10.9 24.0 9.5 Q23.9 9.05 23.4 8.9 23.0 8.6 22.3 8.45 L22.65 7.85 22.75 6.7 22.75 5.1 Q22.75 4.3 22.15 3.95 21.55 3.6 20.55 3.6 19.7 3.6 19.3 3.95 18.95 4.25 18.95 4.85 L19.05 6.25 19.55 7.7 20.05 8.9 21.15 10.4 22.65 11.9 24.15 12.7 23.75 13.05 23.75 13.4 24.25 13.6 25.0 13.7 Q24.65 13.95 24.65 14.5 24.65 15.05 25.35 15.95 L26.1 17.25 26.75 19.0 27.1 20.7 Q27.1 21.65 26.35 22.5 25.85 23.35 24.5 23.9 L20.9 24.5 19.7 24.4 18.7 24.35 17.85 24.25 17.1 24.2 16.35 24.25 15.85 24.5 15.25 24.1 14.25 23.9 14.6 23.35 14.75 22.3 14.75 19.2 14.6 18.25 14.1 17.65 15.5 17.35 16.1 16.65 16.35 15.4 16.7 15.4 Q16.7 16.25 16.95 16.65 17.1 17.1 17.6 17.35 L18.7 17.65 18.45 18.2 Q18.3 18.55 18.3 19.2 L18.3 21.2 Q18.3 22.25 18.95 22.65 19.45 23.05 20.2 23.05 21.4 23.05 21.9 22.65 22.4 22.2 22.4 21.45 22.3 19.7 21.4 18.15 20.55 16.5 19.55 15.4 L18.45 14.5 17.45 14.1 17.7 13.75 17.7 13.4 17.1 13.1 16.45 12.9 16.6 12.25 16.1 11.1 15.25 9.65 14.5 7.65 14.1 5.5 Q14.1 4.6 14.75 3.8 15.35 3.1 16.7 2.6 L19.95 2.2 20.9 2.25 21.8 2.3 22.5 2.4 23.4 2.45 24.15 2.4 24.65 2.2 25.35 2.6 M48.25 2.5 L49.2 2.7 48.75 5.15 48.35 5.15 48.35 4.35 48.25 4.05 48.0 3.95 47.75 4.15 Q47.6 4.25 47.6 4.5 L47.6 10.4 Q47.6 11.6 48.0 12.1 L48.6 12.6 Q48.25 12.75 48.25 12.85 L48.0 13.2 48.25 13.55 48.75 13.75 Q48.35 13.85 48.0 14.45 47.6 14.95 47.6 16.45 L47.6 22.5 47.75 22.65 48.0 22.7 48.35 22.65 48.5 22.5 48.5 21.45 49.0 21.45 49.6 23.9 48.6 24.1 Q48.0 24.2 47.85 24.5 47.75 24.35 47.5 24.35 L46.85 24.25 46.15 24.2 45.4 24.2 43.9 24.25 42.8 24.5 42.05 24.1 40.8 23.9 41.3 21.45 41.8 21.45 41.8 22.4 41.95 22.65 42.2 22.8 42.55 22.65 42.65 22.15 42.65 16.25 42.4 14.5 Q42.2 13.9 41.8 13.75 L42.2 13.55 42.4 13.2 42.3 12.9 41.8 12.6 Q42.2 12.5 42.4 11.9 L42.65 10.5 42.65 7.45 42.4 7.45 41.55 11.0 41.45 11.9 41.55 12.6 41.05 12.85 40.8 13.15 41.05 13.55 41.55 13.75 41.05 14.45 40.55 15.8 38.85 23.9 38.1 24.1 Q37.75 24.25 37.5 24.5 L36.85 24.1 36.1 23.9 34.4 16.05 34.0 14.75 33.75 14.05 33.5 13.75 33.9 13.55 34.0 13.2 33.9 12.85 33.4 12.6 33.5 12.1 33.4 11.0 32.65 7.45 32.3 7.45 32.3 10.6 Q32.3 11.6 32.55 12.1 L33.05 12.6 32.8 12.85 Q32.65 13.05 32.65 13.2 L32.8 13.55 33.15 13.75 Q32.8 14.05 32.55 14.9 L32.3 16.75 32.3 22.4 32.4 22.65 32.8 22.8 33.05 22.7 33.15 22.4 33.15 21.45 33.65 21.45 34.4 23.9 33.4 24.1 Q32.9 24.25 32.8 24.5 L32.4 24.35 32.05 24.25 31.55 24.2 30.95 24.2 29.95 24.25 29.2 24.5 28.35 24.1 27.2 23.9 27.85 21.4 28.2 21.4 28.35 22.4 28.35 22.65 28.7 22.7 28.95 22.65 28.95 16.05 28.7 14.35 28.1 13.75 28.45 13.55 28.7 13.2 28.6 12.85 27.95 12.6 28.7 12.1 28.95 10.4 28.95 4.55 28.95 4.05 Q28.85 3.9 28.7 3.9 L28.2 4.05 28.2 4.3 28.2 5.1 27.6 5.1 27.2 2.7 28.35 2.5 29.2 2.2 29.7 2.25 30.3 2.4 31.05 2.45 31.65 2.45 33.15 2.4 34.15 2.2 35.0 2.45 36.35 2.6 38.1 11.1 38.45 11.1 40.3 2.6 41.55 2.45 42.55 2.2 43.05 2.25 43.65 2.4 44.4 2.45 44.9 2.45 46.4 2.4 47.5 2.2 48.25 2.5 M57.0 3.8 Q56.65 4.05 56.65 4.6 L56.65 10.3 56.75 11.6 57.15 12.25 Q57.25 12.5 57.65 12.6 L57.0 12.85 56.75 13.2 57.0 13.6 Q57.15 13.75 57.65 13.9 57.0 14.1 56.75 14.8 L56.65 16.55 56.65 21.95 Q56.65 22.6 57.0 22.8 L58.25 23.05 59.5 22.8 Q60.0 22.6 60.0 21.95 L60.0 16.35 59.75 14.9 59.5 14.2 Q59.25 13.95 58.85 13.85 L59.5 13.55 59.75 13.2 59.5 12.9 58.85 12.6 Q59.5 12.35 59.75 11.8 L60.0 10.3 60.0 4.55 Q60.0 4.05 59.6 3.8 L58.35 3.6 57.0 3.8 M62.1 2.4 Q63.2 2.6 64.05 3.15 64.9 3.75 65.05 4.75 L65.05 10.0 65.15 11.5 Q65.3 11.9 65.55 12.1 L66.05 12.5 Q65.65 12.6 65.55 12.8 L65.3 13.15 65.55 13.45 66.05 13.7 65.3 14.5 Q65.05 15.05 65.05 16.25 L65.05 20.9 Q64.9 22.2 64.05 23.0 63.2 23.8 62.1 24.1 L60.1 24.5 Q60.0 24.35 59.75 24.35 L59.35 24.25 58.85 24.2 58.25 24.2 57.15 24.25 56.5 24.5 54.55 24.2 52.45 23.35 Q51.55 22.8 51.55 21.95 L51.55 15.8 51.2 14.5 50.45 13.85 51.1 13.6 51.2 13.3 51.1 13.0 50.45 12.75 50.95 12.35 51.3 11.7 51.55 10.5 51.55 5.1 Q51.55 3.8 53.05 3.05 54.4 2.2 56.4 2.2 L56.75 2.3 57.15 2.4 57.75 2.45 58.35 2.45 59.6 2.4 60.2 2.2 62.1 2.4 M84.35 2.45 L85.3 2.6 83.45 5.15 82.95 5.15 83.45 4.3 83.6 4.05 83.35 3.95 82.95 4.05 82.6 4.35 79.0 10.0 79.5 11.4 80.85 12.6 80.35 13.0 Q80.1 13.15 80.25 13.35 L80.6 13.7 81.25 13.9 Q80.85 14.05 80.75 14.5 80.5 14.9 80.75 15.75 L82.95 22.6 83.1 22.8 83.45 22.9 83.6 22.8 83.6 22.65 83.6 21.65 83.95 21.65 84.95 23.9 84.2 24.1 83.6 24.5 83.1 24.35 82.45 24.25 81.85 24.2 81.1 24.2 79.75 24.25 78.75 24.5 77.75 24.1 76.65 23.9 76.15 21.5 76.55 21.5 77.05 22.5 77.4 22.7 77.75 22.8 77.9 22.65 77.9 22.25 75.45 14.25 75.3 14.25 73.95 16.5 73.95 22.65 74.2 22.8 74.55 22.65 74.7 22.4 74.7 21.5 75.05 21.5 75.55 23.9 74.55 24.1 73.8 24.5 73.35 24.35 72.7 24.25 71.95 24.2 71.35 24.2 70.0 24.25 69.0 24.5 Q68.75 24.25 68.15 24.1 L67.15 23.9 67.75 21.3 68.15 21.3 68.15 22.3 68.25 22.65 68.65 22.65 68.9 22.6 68.9 22.2 68.9 16.3 68.65 14.45 67.9 13.7 68.4 13.45 68.65 13.1 68.4 12.75 67.9 12.4 68.65 11.8 68.9 10.3 68.9 4.15 68.9 3.8 68.65 3.75 68.25 3.8 68.15 4.2 68.15 5.05 67.65 5.05 67.25 2.6 68.4 2.45 69.25 2.2 69.75 2.3 70.25 2.4 71.0 2.45 71.6 2.45 73.1 2.4 74.2 2.2 74.95 2.5 75.9 2.6 75.3 5.15 74.95 5.15 74.8 4.25 74.7 4.05 74.45 3.95 74.05 4.05 73.95 4.5 73.95 12.1 74.05 12.1 79.15 4.3 79.25 4.05 79.0 3.9 78.65 3.9 78.4 4.15 77.65 5.15 77.3 5.1 78.5 2.55 79.75 2.45 80.5 2.2 80.75 2.25 81.1 2.4 81.6 2.45 82.0 2.45 82.85 2.4 83.45 2.2 84.35 2.45 M99.3 2.7 L98.9 3.15 98.8 4.05 98.8 6.95 98.9 7.85 99.15 8.45 Q98.4 8.6 97.9 8.9 97.55 9.1 97.45 9.6 97.2 10.0 97.2 10.9 L96.8 10.9 Q96.8 9.65 96.3 9.15 95.95 8.7 94.7 8.45 L95.1 7.9 95.2 6.85 95.2 5.1 Q95.2 4.3 94.85 3.95 94.45 3.65 93.7 3.65 92.85 3.6 92.5 3.95 92.1 4.25 92.1 5.1 L92.1 10.9 Q92.1 11.85 92.35 12.1 L93.1 12.35 93.6 12.1 93.85 11.85 93.7 11.6 93.6 11.4 93.45 11.1 93.35 10.7 93.95 10.2 94.95 9.95 94.7 10.2 94.7 10.4 94.85 10.7 95.45 11.05 95.95 11.4 96.2 11.85 95.95 12.35 95.2 12.7 96.55 13.2 95.2 13.7 95.95 14.1 96.2 14.65 96.05 15.1 95.45 15.45 94.7 15.85 Q94.35 16.05 94.35 16.2 L94.45 16.45 94.7 16.65 93.7 16.5 93.25 15.95 93.35 15.55 93.6 15.15 93.85 14.9 93.85 14.6 93.6 14.3 93.0 14.2 Q92.35 14.1 92.25 14.55 92.0 14.95 92.1 16.2 L92.1 22.15 Q92.1 22.65 92.5 22.9 L93.7 23.05 94.95 22.8 Q95.35 22.5 95.2 21.6 L95.2 19.45 95.2 18.55 94.85 17.9 96.05 17.5 96.8 16.85 96.95 15.45 97.3 15.45 Q97.3 16.45 97.55 16.95 97.65 17.35 98.15 17.55 L99.4 17.95 98.9 18.5 98.8 19.45 98.8 22.1 98.8 23.1 98.9 23.65 99.3 23.9 98.4 24.1 97.65 24.35 97.3 24.35 96.8 24.25 96.45 24.2 95.95 24.2 94.95 24.25 94.2 24.35 93.45 24.4 92.35 24.5 91.5 24.4 90.5 24.35 89.5 24.2 88.55 24.2 87.8 24.25 87.05 24.5 86.3 24.1 85.2 23.9 85.8 21.2 86.3 21.2 86.3 22.2 86.3 22.6 86.65 22.65 87.05 22.6 87.05 22.2 87.05 16.65 Q87.05 15.25 86.65 14.55 L86.05 13.75 86.55 13.45 86.8 13.15 86.55 12.85 86.05 12.6 86.8 11.85 87.05 10.25 87.05 4.25 87.05 3.95 86.8 3.9 86.45 3.95 Q86.3 4.05 86.3 4.25 L86.3 5.25 85.8 5.25 85.3 2.7 86.3 2.55 87.15 2.2 87.55 2.3 88.15 2.4 88.8 2.45 89.5 2.45 90.75 2.4 91.6 2.3 92.35 2.2 93.0 2.2 93.95 2.2 94.7 2.3 95.45 2.4 96.3 2.45 97.05 2.4 97.8 2.2 98.4 2.5 99.3 2.7 M120.05 8.45 Q119.3 8.6 118.95 8.9 118.45 9.1 118.3 9.6 118.05 10.1 118.05 10.9 L117.7 10.9 117.45 9.5 Q117.35 9.05 116.85 8.9 116.45 8.6 115.7 8.45 L116.1 7.85 116.2 6.7 116.2 5.1 Q116.2 4.3 115.6 3.95 115.0 3.6 114.0 3.6 113.15 3.6 112.75 3.95 112.4 4.25 112.4 4.85 L112.5 6.25 113.0 7.7 113.5 8.9 114.6 10.4 116.1 11.9 Q116.85 12.5 117.6 12.7 L117.2 13.05 117.2 13.4 117.7 13.6 118.45 13.7 Q118.05 13.95 118.05 14.5 118.05 15.05 118.8 15.95 L119.55 17.25 120.15 19.0 120.55 20.7 Q120.55 21.65 119.8 22.5 119.3 23.35 117.95 23.9 L114.35 24.5 113.15 24.4 112.15 24.35 111.25 24.25 110.55 24.2 109.8 24.25 109.3 24.5 Q109.05 24.25 108.7 24.1 L107.7 23.9 108.05 23.35 108.2 22.3 108.2 19.2 108.05 18.25 107.55 17.65 108.9 17.35 109.55 16.65 109.8 15.4 110.15 15.4 Q110.15 16.25 110.4 16.65 110.55 17.1 111.0 17.35 L112.15 17.65 111.9 18.2 Q111.75 18.55 111.75 19.2 L111.75 21.2 Q111.75 22.25 112.4 22.65 112.9 23.05 113.6 23.05 114.85 23.05 115.35 22.65 115.85 22.2 115.85 21.45 115.7 19.7 114.85 18.15 114.0 16.5 113.0 15.4 L111.9 14.5 110.9 14.1 111.15 13.75 111.15 13.4 110.55 13.1 109.9 12.9 110.05 12.25 109.55 11.1 108.7 9.65 107.95 7.65 107.55 5.5 Q107.55 4.6 108.2 3.8 108.8 3.1 110.15 2.6 L113.35 2.2 114.35 2.25 115.25 2.3 115.95 2.4 116.85 2.45 117.6 2.4 118.05 2.2 118.8 2.6 119.8 2.75 Q119.55 2.9 119.45 3.35 119.3 3.8 119.3 4.3 L119.3 6.7 Q119.3 7.45 119.55 7.9 L120.05 8.45 120.3 8.05 120.55 6.95 120.55 2.7 121.55 2.55 122.25 2.2 122.65 2.3 123.0 2.4 123.9 2.45 124.75 2.4 125.5 2.2 125.85 2.3 126.45 2.4 127.2 2.45 127.95 2.45 129.7 2.4 130.7 2.2 131.05 2.25 131.4 2.4 132.3 2.45 133.25 2.4 133.9 2.2 134.65 2.55 135.6 2.7 135.6 6.95 Q135.6 7.7 135.85 8.05 L136.35 8.55 Q135.15 8.8 134.65 9.35 134.25 9.9 134.25 11.05 L133.9 11.05 133.75 9.65 133.05 8.95 131.8 8.55 132.15 8.05 132.4 6.95 132.4 4.3 Q132.4 3.95 132.05 3.8 L131.4 3.65 130.8 3.8 Q130.55 3.95 130.55 4.3 L130.55 10.8 Q130.55 11.8 130.9 12.25 L131.4 12.85 Q131.15 12.9 130.9 13.1 L130.8 13.4 130.9 13.75 131.4 13.95 Q131.05 14.05 130.8 14.55 130.55 15.05 130.55 16.05 L130.55 22.4 Q130.55 22.6 130.7 22.65 L131.05 22.65 131.4 22.65 131.4 22.4 131.4 21.6 132.05 21.6 132.4 23.9 131.4 24.1 Q130.9 24.25 130.7 24.5 130.55 24.35 130.2 24.35 L129.45 24.25 128.8 24.2 128.1 24.2 126.85 24.25 125.85 24.5 Q125.6 24.25 125.0 24.1 L123.75 23.9 124.5 21.65 125.0 21.65 125.0 22.4 125.1 22.65 125.35 22.7 125.6 22.65 125.6 22.4 125.6 16.05 125.35 14.65 124.6 14.05 125.1 13.75 125.25 13.45 125.1 13.15 124.6 12.85 125.35 12.2 125.6 10.8 125.6 4.3 125.35 3.8 124.75 3.65 124.15 3.8 123.9 4.3 123.9 6.95 124.0 8.05 124.35 8.55 123.15 8.95 Q122.65 9.2 122.5 9.65 122.25 10.15 122.25 11.05 L121.9 11.05 Q121.9 9.9 121.55 9.35 121.05 8.8 119.9 8.55 L120.05 8.45 M141.9 11.6 L141.9 11.15 141.7 8.3 141.55 8.0 141.45 7.95 141.2 8.0 Q141.05 8.15 141.2 8.3 L140.8 11.15 140.95 12.1 Q141.05 12.5 141.3 12.6 141.05 12.75 140.95 12.85 140.8 13.05 140.8 13.3 L140.95 13.6 141.3 13.85 140.55 14.55 Q140.2 15.1 140.2 15.75 140.05 16.25 140.3 16.5 L141.45 16.65 142.55 16.5 Q142.8 16.3 142.65 15.75 L142.3 14.55 141.55 13.85 142.05 13.6 142.05 13.3 Q142.05 12.9 141.55 12.6 L141.8 12.25 141.9 11.6 M144.5 2.2 L144.9 2.5 145.5 2.7 146.75 10.0 147.1 11.6 147.75 12.35 148.35 12.6 147.75 12.9 147.6 13.2 147.75 13.55 148.35 13.85 147.85 14.6 Q147.6 15.15 147.75 16.15 L148.7 22.4 148.85 22.65 149.1 22.8 149.45 22.65 149.6 22.4 149.6 21.5 150.1 21.5 150.6 23.9 149.85 24.1 Q149.45 24.25 149.35 24.5 L148.85 24.35 148.25 24.25 147.5 24.2 146.85 24.2 145.5 24.25 144.4 24.5 Q144.25 24.25 143.65 24.1 L142.65 23.9 142.55 21.6 142.9 21.6 143.15 22.6 143.3 22.7 143.55 22.8 143.8 22.65 143.8 22.4 143.4 19.45 143.05 19.05 142.3 18.85 140.3 18.85 139.7 19.05 139.45 19.45 138.95 22.4 Q138.95 22.65 139.1 22.7 L139.45 22.8 139.7 22.7 139.95 22.5 140.05 21.45 140.45 21.45 140.45 24.0 139.6 24.1 Q139.2 24.25 139.1 24.5 138.85 24.35 138.7 24.35 L138.2 24.25 137.6 24.2 137.1 24.2 136.25 24.25 135.5 24.5 134.9 24.1 134.15 23.9 134.5 21.5 134.9 21.5 134.9 22.4 135.0 22.65 135.35 22.8 135.75 22.65 135.75 22.4 136.75 16.05 Q136.85 15.05 136.6 14.55 L136.0 13.85 136.5 13.6 136.75 13.3 136.5 12.9 136.1 12.6 136.75 12.25 137.25 11.5 137.6 10.0 138.95 2.7 139.6 2.5 139.95 2.2 140.3 2.3 140.95 2.4 141.7 2.45 142.3 2.45 143.65 2.4 144.5 2.2 M162.45 2.75 L163.3 2.85 Q163.05 3.05 162.95 3.55 162.8 4.05 162.8 4.6 L162.8 6.95 Q162.8 7.65 162.95 8.05 L163.45 8.55 Q162.3 8.75 161.8 9.15 161.45 9.65 161.45 10.7 L160.95 10.7 160.7 9.5 160.1 8.9 159.0 8.55 159.35 7.85 159.5 6.95 159.5 4.85 Q159.6 4.3 159.25 4.05 158.85 3.75 158.0 3.75 157.15 3.75 156.9 4.05 156.5 4.3 156.5 4.85 L156.5 10.3 Q156.5 11.15 156.65 11.6 156.75 12.1 157.0 12.35 L157.4 12.6 Q157.0 12.75 156.9 12.9 156.65 13.05 156.65 13.3 L156.9 13.6 Q157.0 13.75 157.4 13.95 156.9 14.2 156.65 14.85 156.5 15.55 156.5 16.55 L156.5 21.95 Q156.5 22.5 156.9 22.8 L158.0 23.05 159.1 22.8 Q159.5 22.5 159.5 21.95 L159.5 19.2 159.35 18.35 159.0 17.9 160.2 17.55 Q160.6 17.45 160.85 16.95 L160.95 15.55 161.45 15.55 Q161.45 16.35 161.6 16.85 L162.2 17.5 163.45 17.9 163.05 18.35 163.05 19.2 163.05 21.3 Q163.05 22.8 161.8 23.65 160.6 24.4 157.5 24.5 154.8 24.5 153.3 23.8 151.8 23.0 151.7 21.05 L151.7 16.55 151.55 14.85 150.8 13.95 151.3 13.6 151.55 13.3 151.3 12.9 150.8 12.6 151.45 11.85 151.7 10.3 151.7 6.15 Q151.8 4.5 152.55 3.65 153.15 2.8 154.55 2.5 L157.25 2.2 158.1 2.2 159.1 2.4 159.85 2.5 160.7 2.55 161.35 2.5 161.8 2.4 162.45 2.75 M179.75 2.4 L180.35 2.2 181.25 2.45 182.2 2.6 180.35 5.15 179.85 5.15 180.35 4.3 180.5 4.05 180.25 3.95 179.85 4.05 179.5 4.35 175.9 10.0 176.4 11.4 177.75 12.6 177.3 13.0 Q177.05 13.15 177.15 13.35 L177.5 13.7 178.15 13.9 Q177.75 14.05 177.65 14.5 177.4 14.9 177.65 15.75 L179.85 22.6 180.0 22.8 180.35 22.9 180.5 22.8 180.5 22.65 180.5 21.65 180.85 21.65 181.85 23.9 181.1 24.1 180.5 24.5 180.0 24.35 179.4 24.25 178.75 24.2 178.0 24.2 176.65 24.25 175.65 24.5 174.7 24.1 173.55 23.9 173.05 21.5 173.45 21.5 173.95 22.5 174.3 22.7 174.7 22.8 174.8 22.65 174.8 22.25 172.35 14.25 172.2 14.25 170.85 16.5 170.85 22.65 171.1 22.8 171.45 22.65 171.6 22.4 171.6 21.5 171.95 21.5 172.45 23.9 171.45 24.1 170.7 24.5 170.25 24.35 169.6 24.25 168.85 24.2 168.25 24.2 166.9 24.25 165.9 24.5 Q165.65 24.25 165.05 24.1 L164.05 23.9 164.65 21.3 165.05 21.3 165.05 22.3 165.15 22.65 165.55 22.65 165.8 22.6 165.8 22.2 165.8 16.3 165.55 14.45 164.8 13.7 165.3 13.45 165.55 13.1 165.3 12.75 164.8 12.4 165.55 11.8 165.8 10.3 165.8 4.15 165.8 3.8 165.55 3.75 165.15 3.8 165.05 4.2 165.05 5.05 164.55 5.05 164.15 2.6 165.3 2.45 166.15 2.2 166.65 2.3 167.15 2.4 167.9 2.45 168.5 2.45 170.0 2.4 171.1 2.2 171.85 2.5 172.85 2.6 172.2 5.15 171.85 5.15 171.7 4.25 171.6 4.05 171.35 3.95 170.95 4.05 170.85 4.5 170.85 12.1 170.95 12.1 176.05 4.3 176.15 4.05 175.9 3.9 175.55 3.9 175.3 4.15 174.55 5.15 174.2 5.1 175.4 2.55 176.65 2.45 177.4 2.2 177.65 2.25 178.0 2.4 178.5 2.45 178.9 2.45 179.75 2.4" fill="#950000" fill-rule="evenodd" stroke="none"/>
  </g>
</svg>
