<?xml version="1.0" encoding="UTF-8" standalone="no"?>
<svg xmlns:xlink="http://www.w3.org/1999/xlink" height="43.65px" width="88.85px" xmlns="http://www.w3.org/2000/svg">
  <g transform="matrix(1.0, 0.0, 0.0, 1.0, -48.65, 12.05)">
    <path d="M76.65 -1.95 L76.65 21.7 68.5 21.7 68.5 13.55 66.75 13.55 66.75 21.7 58.15 21.7 58.15 -1.95 66.75 -1.95 66.75 6.3 68.5 6.3 68.5 -1.95 76.65 -1.95 M68.7 -3.7 L68.7 -12.05 117.65 -12.05 117.65 -3.7 68.7 -3.7 M48.65 -12.05 L66.5 -12.05 66.5 -3.7 56.0 -3.7 56.0 8.6 48.65 8.6 48.65 -12.05 M97.05 -1.95 L97.05 5.3 101.2 -1.95 110.0 -1.95 103.55 9.9 110.0 21.7 101.1 21.7 97.05 14.25 97.05 21.7 89.3 21.7 89.3 -1.95 97.05 -1.95 M119.6 -3.7 L119.6 -12.05 137.5 -12.05 137.5 8.6 130.2 8.6 130.2 -3.7 119.6 -3.7 M128.55 -1.95 L128.55 4.9 119.5 4.9 119.5 6.75 128.55 6.75 128.55 21.7 111.4 21.7 111.4 15.4 120.9 15.4 120.9 13.15 111.4 13.15 111.4 -1.95 128.55 -1.95 M87.6 -1.95 L87.6 21.7 78.3 21.7 78.3 -1.95 87.6 -1.95 M56.0 10.8 L56.0 23.3 66.5 23.3 66.5 31.6 48.65 31.6 48.65 10.8 56.0 10.8 M117.65 23.3 L117.65 31.6 68.7 31.6 68.7 23.3 117.65 23.3 M137.5 10.8 L137.5 31.6 119.6 31.6 119.6 23.3 130.2 23.3 130.2 10.8 137.5 10.8" fill="#950000" fill-rule="evenodd" stroke="none"/>
  </g>
</svg>
