<?xml version="1.0" encoding="UTF-8" standalone="no"?>
<svg xmlns:xlink="http://www.w3.org/1999/xlink" height="24.0px" width="192.6px" xmlns="http://www.w3.org/2000/svg">
  <g transform="matrix(1.0, 0.0, 0.0, 1.0, -3.7, -3.75)">
    <path d="M22.6 9.45 L21.85 12.15 36.0 12.15 Q37.1 12.15 36.7 13.5 36.25 15.05 35.2 15.05 L21.1 15.05 20.25 18.2 Q19.7 20.25 23.5 20.25 L33.8 20.25 Q34.8 20.25 34.45 21.5 34.0 23.15 33.0 23.15 L22.55 23.15 Q20.25 23.15 18.6 22.15 16.6 20.9 17.3 18.35 L19.7 9.45 22.6 9.45 M59.25 5.05 Q59.05 5.8 58.25 6.25 L44.95 13.35 54.7 20.8 Q55.3 21.25 55.05 22.0 54.75 23.15 53.6 23.15 L52.1 23.0 41.9 15.2 40.1 21.9 Q39.75 23.15 38.7 23.15 L37.5 23.05 Q37.0 22.8 37.25 21.9 L41.3 6.9 13.8 6.9 9.75 21.9 Q9.4 23.15 8.4 23.15 L7.15 23.05 Q6.55 22.85 6.8 21.9 L10.95 6.75 4.5 6.75 Q3.45 6.75 3.8 5.55 4.0 4.65 4.25 4.35 4.6 3.9 5.25 3.9 L43.3 3.9 43.3 3.95 43.9 3.9 Q44.95 3.9 44.6 5.15 L42.85 11.6 56.75 4.05 58.4 3.9 Q59.55 3.9 59.25 5.05 M78.2 5.15 Q78.45 4.25 79.15 4.0 L80.4 3.9 Q81.45 3.9 81.1 5.15 L76.8 21.1 Q76.2 23.3 74.6 23.3 73.85 23.3 73.2 22.35 L63.3 8.45 59.65 21.9 Q59.4 22.85 58.7 23.05 L58.2 23.15 57.4 23.15 Q56.4 23.15 56.75 21.9 L61.05 5.85 Q61.65 3.75 63.15 3.75 64.05 3.75 64.8 4.8 L74.55 18.5 78.2 5.15 M85.35 8.4 L85.0 9.2 82.65 17.9 Q82.05 20.25 86.5 20.25 L91.15 20.25 93.25 20.1 85.35 8.4 M95.5 3.9 Q98.95 3.9 100.2 4.65 102.4 5.85 101.5 9.1 L99.1 17.95 Q97.75 23.15 90.25 23.15 L85.75 23.15 Q82.75 23.15 81.2 22.25 78.9 20.95 79.7 18.0 L82.1 9.1 Q83.55 3.9 90.95 3.9 L95.5 3.9 M98.6 9.2 Q99.25 6.75 94.8 6.75 L90.15 6.75 87.65 7.05 95.7 18.9 96.2 17.9 98.6 9.2 M123.2 5.8 Q124.0 7.05 123.55 8.75 L122.8 11.1 121.05 13.55 121.45 15.3 121.5 15.8 121.35 16.6 121.0 18.0 Q120.25 20.8 117.75 22.15 115.75 23.15 113.2 23.15 L100.8 23.15 Q99.8 23.15 100.15 21.9 L101.25 17.65 104.2 17.65 103.5 20.25 113.7 20.25 Q117.2 20.25 117.95 18.45 L118.35 17.05 Q118.9 15.05 115.3 15.05 L102.0 15.05 103.5 9.45 106.45 9.45 105.75 12.15 116.0 12.15 Q119.8 12.15 120.25 10.4 L120.6 8.75 Q121.05 6.75 117.35 6.75 L104.2 6.75 104.65 5.15 Q105.0 3.9 106.0 3.9 L118.25 3.9 121.15 4.25 Q122.5 4.65 123.2 5.8 M138.15 6.75 L133.55 6.75 Q129.1 6.75 128.4 9.2 L126.05 17.9 Q125.4 20.25 129.9 20.25 L134.55 20.25 Q138.95 20.25 139.6 17.9 L142.0 9.2 Q142.65 6.75 138.15 6.75 M136.8 8.7 Q137.3 8.7 137.7 9.15 138.05 9.55 138.05 10.2 L137.7 11.25 135.8 13.5 137.7 15.75 Q138.05 16.2 138.05 16.85 L137.7 17.9 Q137.3 18.35 136.8 18.35 136.3 18.35 135.9 17.9 L134.05 15.65 132.15 17.9 Q131.8 18.35 131.25 18.35 130.75 18.35 130.4 17.9 130.0 17.45 130.0 16.85 130.0 16.2 130.4 15.75 L132.25 13.5 130.4 11.25 Q130.0 10.8 130.0 10.2 130.0 9.55 130.4 9.15 130.75 8.7 131.25 8.7 131.8 8.7 132.15 9.15 L134.05 11.4 135.9 9.15 Q136.25 8.7 136.8 8.7 M143.6 4.65 Q145.8 5.85 144.9 9.1 L142.5 17.95 Q141.1 23.15 133.65 23.15 L129.1 23.15 Q126.1 23.15 124.6 22.25 122.3 20.95 123.1 18.0 L125.5 9.1 Q126.95 3.9 134.35 3.9 L138.85 3.9 Q142.35 3.9 143.6 4.65 M152.6 12.0 L158.15 12.0 Q158.65 12.0 159.05 12.45 159.4 12.9 159.4 13.5 L159.05 14.55 Q158.65 15.0 158.15 15.0 L152.6 15.0 Q152.1 15.0 151.75 14.55 151.35 14.15 151.35 13.5 151.35 12.9 151.75 12.45 152.1 12.0 152.6 12.0 M159.6 6.75 L154.95 6.75 Q150.45 6.75 149.8 9.2 L147.45 17.9 Q146.85 20.25 151.3 20.25 L155.95 20.25 Q160.4 20.25 161.0 17.9 L163.35 9.2 Q164.05 6.75 159.6 6.75 M165.0 4.65 Q167.2 5.85 166.3 9.1 L163.9 17.95 Q162.55 23.15 155.05 23.15 L150.5 23.15 Q147.55 23.15 146.0 22.25 143.7 20.95 144.5 18.0 L146.9 9.1 Q148.35 3.9 155.7 3.9 L160.3 3.9 Q163.75 3.9 165.0 4.65 M195.05 3.95 Q196.7 3.95 196.2 5.9 L190.3 27.75 5.2 27.75 5.95 25.0 188.1 25.0 192.3 9.45 180.25 22.2 Q179.25 23.25 178.1 23.25 176.95 23.25 176.5 22.2 L171.2 9.4 167.8 21.9 Q167.45 23.15 166.45 23.15 L165.2 23.05 Q164.6 22.85 164.9 21.9 L169.25 5.75 Q169.7 4.0 171.4 4.0 172.45 4.0 172.85 4.9 L179.15 19.5 193.15 4.9 Q194.05 3.95 195.05 3.95" fill="#950000" fill-rule="evenodd" stroke="none"/>
  </g>
</svg>
