<?xml version="1.0" encoding="UTF-8" standalone="no"?>
<svg xmlns:xlink="http://www.w3.org/1999/xlink" height="70.3px" width="119.8px" xmlns="http://www.w3.org/2000/svg">
  <g transform="matrix(1.0, 0.0, 0.0, 1.0, -35.3, 30.2)">
    <path d="M39.45 29.75 Q39.45 30.15 39.0 30.15 38.6 30.15 38.6 29.75 38.6 29.3 39.0 29.3 39.45 29.3 39.45 29.75 M74.95 37.05 Q75.05 36.8 75.25 36.7 L75.85 36.75 76.2 37.15 76.15 37.45 75.9 37.6 75.15 37.45 Q74.9 37.3 74.95 37.05 M72.2 36.0 L71.8 35.4 71.75 35.0 Q71.9 34.8 72.1 34.9 L72.3 34.75 72.9 34.7 74.1 35.9 74.65 37.6 74.2 38.05 73.85 38.1 73.45 38.0 72.55 36.7 72.2 36.0 M40.55 27.0 L40.75 26.55 Q40.9 26.2 41.3 26.25 L41.65 26.65 41.45 27.7 40.7 28.35 Q40.35 28.45 40.2 28.15 40.05 27.9 40.25 27.65 L40.35 27.45 40.55 27.0 M62.5 11.35 L62.1 11.2 61.9 10.75 Q61.9 10.35 62.35 10.2 L62.85 10.05 63.4 10.05 Q63.85 10.05 63.9 10.5 L63.55 11.0 62.95 11.25 62.5 11.35 M72.55 6.0 L71.35 7.45 70.5 8.65 Q72.65 8.4 75.45 8.6 L74.6 6.6 73.75 4.45 72.55 6.0 M110.1 26.25 L109.8 25.7 109.65 25.5 109.5 25.2 109.6 24.8 110.0 24.7 Q110.55 24.9 110.9 25.95 111.0 26.3 110.65 26.45 110.25 26.6 110.1 26.25 M82.15 39.6 L81.95 40.05 81.55 40.1 Q81.05 39.9 80.6 39.35 80.1 39.1 79.75 38.5 L79.7 38.2 79.75 38.15 Q79.85 37.75 80.3 37.8 81.05 37.95 81.55 38.4 82.1 38.9 82.15 39.6 M82.15 37.4 L82.05 37.9 81.6 37.85 81.55 37.8 81.45 37.8 Q81.2 37.65 81.3 37.4 L81.3 37.35 81.55 37.1 Q82.0 37.05 82.15 37.4 M84.55 30.8 Q84.55 30.3 85.0 30.3 85.45 30.3 85.45 30.8 L85.0 31.25 Q84.55 31.25 84.55 30.8 M81.4 30.55 Q82.85 31.0 82.8 31.75 82.7 32.35 82.2 32.65 L81.1 32.8 80.05 32.1 79.15 31.2 Q79.05 31.05 79.1 30.9 79.1 30.55 79.25 30.3 L79.85 30.2 81.4 30.55 M95.75 23.2 L95.7 21.7 96.05 21.45 96.4 21.7 96.55 22.25 96.55 22.45 96.65 22.8 96.6 22.95 96.6 23.2 Q96.65 23.65 96.2 23.65 95.7 23.65 95.75 23.2 M94.15 19.7 Q94.35 19.75 94.4 19.9 L94.7 20.2 94.75 20.4 Q95.0 20.65 94.75 21.25 L94.75 21.65 94.45 22.05 93.95 22.0 Q93.45 21.6 93.55 20.85 93.6 20.1 93.9 19.8 L94.15 19.7 M118.5 22.3 Q118.9 22.15 118.95 22.55 L119.1 23.1 119.45 23.55 119.45 24.1 119.45 24.3 119.4 24.7 119.0 25.0 118.5 24.7 118.35 24.15 118.05 24.05 117.8 23.65 117.7 23.75 117.6 23.85 Q117.25 24.1 116.95 23.85 L116.8 23.5 Q116.8 23.3 116.95 23.15 L117.35 22.95 117.75 23.05 117.9 23.35 118.05 23.25 118.2 23.2 118.2 22.75 Q118.1 22.45 118.5 22.3 M105.55 22.3 L105.2 21.85 104.6 20.85 Q104.45 20.55 104.7 20.35 L105.2 20.45 105.8 21.45 106.25 22.3 106.0 22.5 105.55 22.3 M101.5 15.55 L101.35 15.65 101.2 15.55 101.05 15.1 Q100.95 14.95 101.1 14.85 L101.35 14.9 101.5 15.55 M108.15 12.45 L108.35 12.75 108.45 13.1 108.25 13.45 107.5 13.6 107.2 13.5 107.0 13.25 Q106.9 12.9 107.25 12.65 107.5 12.45 107.8 12.4 L108.15 12.45 M113.6 11.95 L114.4 10.8 118.3 13.0 114.85 13.0 113.6 11.95 M117.3 3.3 L117.25 3.55 116.1 4.45 115.6 5.0 114.75 6.0 114.6 6.1 112.8 7.45 112.1 7.35 Q111.75 7.0 112.0 6.65 L112.9 5.85 113.95 5.25 114.75 4.45 Q115.25 3.9 115.65 3.85 116.4 3.3 117.05 3.2 L117.3 3.3 M131.9 31.25 L132.05 31.55 132.05 33.45 Q132.0 34.55 131.55 35.25 L131.1 35.4 130.8 35.05 131.15 32.45 131.05 31.55 Q131.05 31.15 131.45 31.1 L131.75 31.05 131.9 31.25 M133.45 32.1 Q133.85 32.1 133.95 32.45 L133.85 32.9 Q133.7 33.1 133.45 33.1 133.2 33.1 133.05 32.9 L133.0 32.45 Q133.1 32.1 133.45 32.1 M122.45 3.1 L122.05 3.45 Q126.9 8.45 128.0 13.0 L128.05 13.15 128.8 12.85 Q129.2 12.7 129.4 13.1 129.6 13.5 129.35 13.75 L128.6 14.4 128.85 15.15 128.7 15.65 128.2 15.85 128.2 16.15 Q128.2 16.5 127.85 16.65 L127.25 16.55 126.65 15.95 Q123.5 18.35 120.15 20.05 L119.5 20.6 119.7 20.75 Q119.95 20.95 119.7 21.25 119.5 21.6 119.2 21.4 L118.8 21.15 118.6 21.3 118.2 21.35 117.9 21.15 117.3 21.4 117.2 21.65 Q117.05 21.95 116.7 21.8 116.35 21.65 116.45 21.35 116.2 21.05 116.4 20.75 L117.15 19.65 116.75 19.2 116.4 19.1 Q114.55 17.85 112.9 15.7 L110.2 11.6 110.0 11.75 109.6 11.7 Q109.35 11.5 109.5 11.3 L109.8 10.95 108.8 9.35 Q108.6 9.0 108.95 8.8 L109.6 8.9 110.45 10.2 110.5 10.15 109.2 8.3 Q109.0 7.95 109.35 7.7 L109.95 7.75 111.3 9.3 Q113.9 6.85 119.05 3.95 L118.65 2.7 Q118.55 2.25 119.0 2.05 119.4 1.9 119.65 2.3 L120.2 3.3 120.4 3.15 120.65 2.85 121.05 2.8 121.9 2.35 Q122.25 2.15 122.55 2.5 122.8 2.85 122.45 3.1 M123.75 10.8 L124.6 11.95 123.4 13.0 119.9 13.0 123.75 10.8 M125.6 12.1 L123.25 8.85 115.0 8.85 112.6 12.1 114.7 13.8 116.85 13.8 116.85 16.3 117.45 15.4 117.45 13.8 117.85 13.8 117.85 15.4 118.45 15.4 118.45 13.8 118.8 13.8 118.8 15.4 119.4 15.4 119.4 13.8 119.8 13.8 119.8 15.4 120.4 15.4 120.4 13.8 120.75 13.8 120.75 15.4 121.35 16.3 121.35 13.8 123.5 13.8 125.6 12.1 M135.9 8.0 L135.65 10.6 136.05 15.1 136.45 14.95 142.15 12.55 140.7 11.2 137.45 7.4 137.3 7.25 136.0 6.4 135.9 8.0 M152.35 23.8 L152.0 23.65 151.9 23.35 152.15 23.15 153.1 23.35 154.0 23.45 Q154.6 23.5 155.05 24.15 L155.05 24.6 154.6 24.75 153.4 24.3 152.85 24.3 152.4 24.0 152.35 23.8 M128.25 -0.8 Q128.0 -1.15 128.35 -1.4 L129.0 -1.5 131.05 -0.4 Q132.45 -0.15 133.9 0.65 L134.45 0.6 Q134.8 0.7 134.8 1.05 L134.8 1.2 137.55 3.3 139.45 4.95 140.85 5.75 143.7 7.2 Q145.4 8.1 146.35 9.1 148.1 10.1 148.35 11.05 L148.25 11.45 148.65 11.8 148.85 11.45 149.25 11.35 149.6 11.4 149.95 11.35 150.1 11.4 150.35 11.05 150.7 11.0 150.9 11.35 151.85 11.7 152.3 11.95 152.65 12.4 152.45 12.75 151.85 12.7 151.35 12.45 150.55 12.15 150.25 12.3 149.25 12.3 149.35 12.45 149.75 12.45 Q150.15 12.45 150.25 12.9 150.3 13.35 149.85 13.45 L148.95 13.6 148.95 14.05 148.6 14.35 147.0 14.7 145.15 15.75 143.2 16.5 138.65 17.85 141.45 18.7 144.15 19.5 146.85 20.25 148.7 20.7 150.5 21.15 151.2 21.35 151.3 21.4 151.65 21.45 151.9 21.75 151.95 22.1 151.8 22.3 151.55 22.4 147.05 21.6 Q149.25 22.4 150.2 23.45 L151.35 24.15 151.45 24.25 Q152.9 25.0 153.8 26.1 154.0 26.3 153.8 26.55 L153.4 26.65 150.55 25.2 150.3 25.1 Q149.0 24.45 147.75 24.1 L144.6 23.25 147.65 24.55 150.7 25.85 Q150.95 25.95 150.85 26.2 L150.5 26.4 Q144.9 25.55 138.5 21.2 L135.8 20.1 135.0 24.35 134.8 24.6 134.5 27.3 134.25 29.95 Q134.2 30.35 133.8 30.35 L133.5 30.4 133.3 30.15 133.25 29.4 132.95 29.6 Q132.65 29.55 132.65 29.3 L132.65 28.95 132.45 28.65 132.35 27.2 Q131.75 27.5 131.2 27.0 130.5 26.4 130.45 24.95 L130.65 22.7 131.3 15.75 131.85 11.6 Q131.9 8.55 132.35 5.4 L132.3 5.25 132.35 5.3 Q132.0 4.45 132.45 3.75 130.3 2.15 129.0 0.8 128.65 0.5 128.95 0.1 L128.25 -0.8 M126.5 -1.15 Q125.5 -1.65 125.15 -2.4 124.95 -2.85 125.3 -3.1 L126.0 -3.05 126.95 -2.2 126.95 -2.15 127.1 -2.1 127.35 -1.9 128.0 -1.6 128.2 -1.35 Q128.15 -1.15 127.95 -1.2 L127.2 -1.3 Q126.95 -0.95 126.5 -1.15 M121.8 -3.45 Q121.95 -3.9 122.35 -3.75 L122.5 -3.7 122.7 -3.4 122.6 -3.05 Q122.45 -2.8 122.15 -2.9 L122.1 -2.9 Q121.7 -2.95 121.8 -3.45 M113.95 -5.05 Q114.35 -5.25 114.6 -4.9 114.85 -4.55 114.55 -4.25 L113.6 -3.45 113.45 -3.4 113.35 -3.35 113.05 -3.25 112.5 -3.05 112.2 -3.25 Q112.15 -3.5 112.35 -3.6 L112.6 -3.7 Q112.45 -4.1 112.8 -4.3 L113.95 -5.05 M115.7 -4.4 L115.9 -4.75 116.4 -5.0 116.8 -4.9 116.9 -4.5 116.85 -4.4 116.8 -4.35 116.65 -4.15 116.6 -4.05 116.5 -4.0 116.35 -4.0 115.95 -4.0 115.9 -4.0 115.7 -4.4 M111.2 -3.2 L111.25 -3.2 Q111.75 -3.45 111.95 -3.0 112.2 -2.6 111.8 -2.3 L111.4 -2.0 112.05 -2.2 112.45 -2.2 113.05 -2.7 Q113.45 -3.0 113.8 -2.7 114.15 -2.35 113.85 -2.0 L113.95 -1.6 113.7 -1.25 113.65 -1.2 Q114.1 -0.35 113.35 0.3 L113.25 0.4 112.9 0.65 Q110.5 2.05 106.75 5.35 L104.65 7.05 Q103.3 8.15 102.45 9.15 L105.8 14.0 107.35 15.55 108.95 17.0 111.4 19.9 Q111.9 20.45 111.75 21.2 111.6 21.9 111.05 22.3 L111.7 23.35 Q111.9 23.65 111.6 23.95 L111.0 23.9 109.75 22.35 109.6 22.25 108.9 21.65 109.25 23.2 Q109.35 23.7 108.9 23.8 108.45 23.95 108.3 23.5 L107.55 21.85 106.95 21.5 105.4 19.55 103.85 17.5 100.95 13.85 Q99.8 13.3 98.65 11.9 97.55 10.4 97.45 9.15 97.35 8.0 98.25 7.2 98.4 6.25 99.1 5.45 99.65 4.8 100.9 3.9 L105.4 0.5 108.1 -1.7 Q109.65 -2.75 111.2 -3.2 M83.3 -0.65 L83.75 -0.55 83.9 -0.1 83.75 0.35 83.85 0.7 83.75 1.0 83.5 1.15 83.5 1.4 83.3 1.6 83.15 1.45 82.8 0.55 82.8 0.65 82.5 1.05 82.45 1.05 82.05 1.0 81.9 0.65 82.05 0.3 82.45 0.2 82.5 0.25 82.7 0.4 82.5 -0.4 Q82.5 -0.75 82.85 -0.8 83.15 -0.9 83.3 -0.65 M93.95 -12.4 Q93.95 -15.1 94.25 -17.2 L94.25 -17.35 Q94.3 -17.8 94.8 -17.7 L95.3 -17.2 95.15 -9.3 95.6 -4.05 96.0 1.2 96.25 11.85 96.35 19.35 Q96.35 19.85 95.85 19.85 95.3 19.85 95.3 19.35 L95.3 19.3 95.25 19.1 95.25 18.25 95.05 18.15 94.15 17.25 Q94.0 17.5 93.65 17.5 L93.2 17.1 92.95 15.95 90.45 13.1 88.0 10.95 87.45 16.1 Q87.35 16.9 86.6 16.95 85.85 16.95 85.7 16.2 L85.2 16.25 84.7 16.0 84.65 17.4 Q84.65 17.9 84.15 17.9 83.6 17.9 83.65 17.4 L83.65 14.85 83.15 13.4 82.95 12.35 82.45 8.25 Q82.3 5.85 82.6 4.1 L82.85 3.8 83.2 3.8 83.2 2.55 Q83.3 2.1 83.75 2.1 84.25 2.15 84.35 2.55 L84.65 3.8 84.8 4.0 85.15 4.3 Q85.3 4.9 86.0 5.5 L85.6 4.7 Q85.4 4.25 85.8 4.0 86.2 3.75 86.5 4.2 L90.15 9.35 92.1 11.1 91.9 9.35 91.25 5.7 91.25 2.8 91.15 -0.05 Q91.0 -0.7 91.35 -1.2 L91.5 -8.7 Q91.5 -9.1 91.95 -9.2 92.45 -9.3 92.5 -8.85 L93.2 -3.45 93.4 -11.9 93.6 -12.3 93.95 -12.4 M92.9 -23.6 Q93.05 -23.95 93.4 -23.9 93.8 -23.85 93.9 -23.5 94.1 -22.4 93.75 -20.6 L93.3 -17.75 93.3 -14.95 92.95 -12.15 92.5 -11.85 Q92.2 -11.9 92.2 -12.25 L92.15 -13.05 Q91.5 -15.75 91.6 -18.45 91.75 -21.55 92.9 -23.6 M74.4 -3.5 L74.4 -3.4 74.65 -3.6 74.75 -3.65 75.15 -4.5 75.35 -4.55 75.5 -4.4 75.45 -4.2 75.75 -4.05 75.85 -3.7 75.05 -1.6 77.7 5.2 Q77.1 3.15 76.85 1.7 76.55 -0.25 76.7 -1.9 76.75 -2.35 77.15 -2.35 L77.35 -2.35 Q77.7 -2.35 77.8 -2.05 L77.8 -1.95 77.85 -2.0 78.0 -2.0 78.15 -1.75 78.15 -1.7 77.95 -1.45 78.45 1.8 78.6 5.1 79.5 8.0 80.2 10.9 80.6 12.85 82.3 17.05 Q83.15 19.45 83.3 21.45 L82.95 21.85 82.5 21.65 82.45 21.5 82.7 24.2 Q82.75 24.6 82.3 24.7 81.85 24.75 81.8 24.35 L80.9 19.55 80.7 19.65 80.65 19.75 80.7 21.1 80.3 21.5 Q79.9 21.6 79.8 21.2 L79.8 21.05 79.8 19.75 79.8 19.65 Q79.25 19.5 79.05 19.05 L78.05 16.6 77.3 14.05 76.9 12.95 75.15 12.9 73.5 12.8 68.45 13.15 67.85 13.05 67.4 14.15 66.85 14.75 66.1 14.6 65.6 16.3 Q65.2 17.1 64.4 17.25 L63.9 17.1 63.85 17.05 Q63.65 16.8 63.75 16.6 L63.65 16.6 63.05 16.8 63.05 16.85 63.05 17.0 63.05 17.05 62.9 17.4 Q62.55 17.9 62.1 17.65 61.65 17.5 61.75 17.05 61.8 16.8 62.1 16.7 L62.15 16.7 62.35 16.2 Q62.45 16.0 62.7 16.0 L63.05 15.85 63.7 15.95 Q64.05 16.05 63.95 16.4 L64.35 16.1 64.75 15.7 64.4 15.7 64.2 15.45 63.65 15.4 Q63.4 15.15 63.6 14.85 L63.75 14.65 63.5 14.5 63.35 14.75 Q63.2 15.05 62.95 14.9 62.65 14.75 62.7 14.5 L62.85 14.0 Q62.75 13.75 62.9 13.55 L64.0 12.05 64.15 11.9 63.25 12.15 62.9 12.0 Q62.75 11.75 63.0 11.65 L63.65 11.45 64.25 11.5 64.3 11.55 Q65.2 9.4 66.75 7.0 L69.85 2.75 Q71.25 -0.1 73.55 -2.9 L73.5 -3.4 73.9 -3.85 74.4 -3.5 M76.25 -6.65 L76.65 -6.25 76.45 -5.45 76.4 -5.4 76.4 -5.35 76.15 -5.1 75.8 -5.15 Q75.5 -5.15 75.4 -5.35 L75.3 -5.9 75.75 -6.25 75.8 -6.25 75.85 -6.35 Q75.9 -6.65 76.25 -6.65 M76.7 -8.05 Q76.7 -8.5 77.15 -8.5 L77.6 -8.05 Q77.6 -7.6 77.15 -7.6 76.7 -7.6 76.7 -8.05 M62.15 -6.35 Q62.35 -6.55 62.55 -6.35 L62.8 -6.1 63.05 -5.8 63.0 -5.6 62.85 -5.55 62.15 -5.95 Q61.95 -6.15 62.15 -6.35 M48.05 -0.75 L48.05 -0.9 47.95 -1.15 48.15 -2.1 48.45 -2.35 48.6 -2.65 48.85 -2.8 49.05 -2.6 Q49.15 -1.9 48.75 -1.0 L48.7 -0.7 48.05 -0.75 M47.2 -6.45 L47.4 -6.95 47.85 -7.1 48.15 -7.3 48.55 -7.25 49.1 -6.65 49.3 -6.1 49.3 -5.55 Q49.15 -5.25 48.8 -5.25 L48.35 -5.25 48.35 -5.2 48.25 -4.8 Q48.0 -4.25 47.45 -4.4 47.2 -4.45 47.1 -4.7 L47.05 -5.15 47.2 -6.45 M43.55 -16.15 L43.55 -16.25 42.1 -17.4 Q42.55 -16.95 43.55 -16.15 M41.1 -26.0 Q41.4 -26.35 41.75 -26.15 L42.6 -25.45 Q42.9 -25.15 42.65 -24.8 42.4 -24.5 42.0 -24.7 L41.15 -25.35 Q40.8 -25.6 41.1 -26.0 M35.9 -21.7 L36.0 -22.0 36.35 -22.05 Q36.8 -22.0 37.1 -21.6 L37.6 -20.85 38.15 -20.15 Q38.35 -19.85 38.05 -19.6 L37.5 -19.65 37.35 -19.85 36.95 -19.9 Q35.95 -20.75 35.9 -21.7 M38.95 -22.45 Q38.65 -22.7 38.95 -23.0 L39.55 -22.9 39.6 -22.25 39.45 -22.1 39.2 -22.15 38.95 -22.45 M68.4 30.3 L68.65 30.8 68.55 31.15 68.25 31.2 67.8 30.9 67.7 30.35 67.9 30.15 Q68.15 30.1 68.4 30.3 L66.8 28.35 66.85 28.5 66.6 28.95 66.05 28.95 64.75 28.0 63.65 26.85 62.85 26.05 62.3 25.5 62.0 25.2 Q61.95 25.0 62.05 24.85 62.0 24.65 62.1 24.4 62.2 24.2 62.5 24.25 62.8 24.3 63.1 24.65 L63.65 25.2 65.15 26.15 65.6 26.45 63.8 24.5 61.85 22.65 59.3 20.2 57.8 18.75 57.6 18.7 56.2 17.7 Q58.6 20.1 60.15 22.4 L60.05 22.65 59.8 22.65 Q56.4 18.8 51.3 13.85 L49.5 17.5 Q48.6 19.6 48.15 21.35 48.0 22.05 47.35 22.3 L46.1 22.4 45.9 22.45 45.6 24.45 45.15 24.85 Q44.8 24.85 44.75 24.45 44.65 23.2 45.0 21.9 L44.65 21.85 43.7 24.1 43.55 24.25 43.1 25.65 Q42.9 26.1 42.35 26.0 41.85 25.85 42.0 25.35 L41.85 25.45 41.15 25.5 Q40.75 25.2 41.0 24.75 L42.05 22.9 42.75 20.8 42.25 21.2 42.1 21.45 Q41.9 21.9 41.4 21.7 L40.3 22.4 Q40.0 22.5 39.9 22.2 39.8 21.95 40.05 21.8 L40.6 21.4 Q40.3 21.2 40.35 20.75 40.65 19.05 41.7 16.95 L43.55 13.45 43.55 13.1 44.7 10.1 45.3 7.95 Q46.5 6.65 47.55 4.85 L49.2 1.4 49.45 1.6 50.15 -0.75 Q49.7 -3.1 50.4 -4.7 50.5 -4.95 50.85 -4.95 L51.25 -4.7 51.75 -3.2 Q52.45 -2.15 52.1 -0.9 L53.1 -2.3 53.5 -2.4 53.7 -2.05 52.9 -0.1 52.6 -0.05 52.45 0.3 53.4 -0.2 54.6 -2.15 55.35 -2.3 Q55.8 -2.05 55.55 -1.6 L54.15 1.5 53.0 4.65 52.85 5.0 55.5 3.8 57.1 3.05 58.9 1.8 60.45 0.2 Q60.8 -0.3 60.6 -0.8 L60.65 -0.85 60.55 -0.9 Q60.25 -1.6 59.55 -1.7 L58.0 -2.9 55.9 -4.65 55.65 -4.7 55.4 -4.85 55.15 -5.0 49.7 -8.0 47.65 -9.2 Q46.5 -9.9 45.75 -10.65 45.55 -10.8 45.75 -11.0 L46.1 -11.0 Q46.85 -10.4 48.0 -9.85 48.65 -9.5 50.0 -8.9 L47.05 -11.05 44.35 -13.0 41.95 -15.3 Q41.75 -15.55 41.95 -15.7 39.15 -18.05 39.15 -20.15 L39.55 -20.75 40.25 -20.6 40.85 -20.05 Q41.05 -21.0 41.85 -21.3 L40.0 -22.95 Q39.05 -23.9 38.45 -24.85 38.2 -25.15 38.55 -25.4 38.85 -25.6 39.1 -25.4 40.05 -24.55 42.8 -23.1 45.2 -21.8 46.35 -20.6 L48.65 -18.0 Q50.1 -16.25 50.4 -14.95 L52.25 -13.2 Q51.75 -14.05 51.55 -14.85 51.45 -15.1 51.7 -15.25 L52.1 -15.1 54.7 -12.3 57.35 -9.55 58.2 -8.65 58.45 -8.9 58.85 -8.75 59.15 -8.5 59.7 -7.95 59.8 -7.7 59.7 -7.45 59.55 -7.4 60.35 -6.65 63.65 -3.9 Q66.05 -2.3 67.2 -0.65 L67.65 -0.5 67.9 -0.2 67.7 0.1 68.0 0.7 68.0 0.8 68.15 1.2 67.85 1.5 65.85 2.55 65.7 2.75 64.9 3.25 64.4 3.75 Q60.7 6.8 57.25 7.55 L57.15 7.65 54.85 9.3 Q60.0 16.9 65.2 21.35 L66.6 22.6 67.55 23.15 69.15 24.05 Q70.2 24.35 71.35 25.4 L73.25 27.2 74.15 27.9 Q74.5 28.2 74.2 28.65 L73.45 28.8 71.45 27.1 69.45 25.45 70.0 26.2 72.0 28.25 Q73.2 29.45 73.2 30.7 L79.25 36.35 Q79.5 36.6 79.35 36.95 L78.85 37.25 Q78.35 37.25 77.85 36.85 L77.0 36.1 72.7 32.45 72.35 32.15 71.3 32.25 Q70.05 31.75 68.8 30.65 L68.4 30.3 M37.2 -29.7 L37.5 -29.3 38.35 -28.65 Q38.75 -28.05 38.5 -27.2 L38.0 -26.55 37.2 -26.45 Q35.5 -27.1 35.3 -29.2 35.25 -29.5 35.5 -29.8 L36.05 -30.15 Q36.75 -30.35 37.2 -29.7" fill="#950000" fill-rule="evenodd" stroke="none"/>
  </g>
</svg>
