<?xml version="1.0" encoding="UTF-8" standalone="no"?>
<svg xmlns:xlink="http://www.w3.org/1999/xlink" height="21.5px" width="139.45px" xmlns="http://www.w3.org/2000/svg">
  <g transform="matrix(1.0, 0.0, 0.0, 1.0, -27.6, -3.35)">
    <path d="M164.15 24.85 Q161.65 24.85 160.1 23.75 158.4 22.4 158.4 19.95 L158.6 18.95 159.25 15.1 166.0 15.1 164.15 24.85 M166.45 12.55 L159.65 12.55 159.85 11.5 Q160.1 10.0 158.7 10.0 L153.6 10.0 Q151.85 10.0 151.2 12.55 L144.8 12.55 145.4 9.0 Q145.8 6.7 147.8 5.0 149.7 3.35 152.15 3.35 L162.1 3.35 Q164.3 3.35 165.7 4.75 167.05 6.15 167.05 8.25 L167.0 9.4 166.45 12.55 M142.95 9.4 L142.35 12.55 135.6 12.55 135.7 11.6 Q135.95 10.0 134.5 10.0 L129.5 10.0 Q127.9 10.0 127.25 12.55 L120.75 12.55 121.35 9.05 Q121.75 6.7 123.7 5.0 125.65 3.35 127.95 3.35 L137.95 3.35 Q140.1 3.35 141.6 4.75 143.0 6.15 143.0 8.3 L142.95 9.4 M150.8 15.1 L150.2 19.2 Q149.75 22.0 147.5 23.5 145.4 24.85 142.55 24.85 L144.35 15.1 150.8 15.1 M127.75 18.2 L132.85 18.2 Q134.5 18.2 135.25 15.25 L135.3 15.1 141.9 15.1 141.2 19.2 Q140.75 21.65 138.8 23.3 136.9 24.85 134.5 24.85 L124.6 24.85 Q122.4 24.85 120.95 23.45 119.5 22.05 119.5 19.9 L119.6 18.95 120.3 15.1 126.85 15.1 126.6 16.6 Q126.35 18.2 127.75 18.2 M117.25 12.25 L117.5 12.55 97.8 12.55 97.8 12.5 98.25 9.1 Q98.7 6.7 100.65 5.1 102.55 3.4 105.0 3.4 L120.95 3.4 Q120.3 6.8 118.45 8.3 117.05 9.5 116.05 9.75 L114.1 10.0 105.4 10.0 Q104.6 10.0 104.6 10.6 L104.85 10.9 113.5 10.9 Q115.7 10.9 117.25 12.25 M102.95 17.35 Q100.75 17.35 99.3 15.95 L98.55 15.1 118.65 15.1 118.65 15.75 118.2 19.15 Q117.75 21.55 115.85 23.25 113.9 24.85 111.5 24.85 L95.5 24.85 Q96.1 21.95 97.7 20.2 99.55 18.25 102.4 18.25 L110.9 18.25 Q111.65 18.25 111.65 17.65 L111.35 17.35 102.95 17.35 M95.85 9.4 L95.25 12.55 88.5 12.55 88.65 11.5 Q88.95 10.0 87.55 10.0 L82.45 10.0 Q80.7 10.0 80.0 12.55 L73.65 12.55 74.25 9.0 Q74.65 6.7 76.65 5.0 78.55 3.35 81.0 3.35 L90.9 3.35 Q93.05 3.35 94.5 4.75 95.9 6.15 95.9 8.25 L95.85 9.4 M87.25 19.95 L87.35 18.95 88.05 15.1 94.8 15.1 93.0 24.85 Q90.45 24.85 88.95 23.75 87.25 22.4 87.25 19.95 M71.8 9.4 L71.2 12.55 64.4 12.55 64.5 11.6 Q64.75 10.0 63.35 10.0 L58.3 10.0 Q56.75 10.0 56.0 12.55 L49.6 12.55 50.15 9.05 Q50.6 6.7 52.5 5.0 54.45 3.35 56.8 3.35 L66.8 3.35 Q68.95 3.35 70.4 4.75 71.85 6.15 71.85 8.3 L71.8 9.4 M70.75 15.1 L70.05 19.2 Q69.55 21.65 67.65 23.3 65.75 24.85 63.35 24.85 L53.4 24.85 Q51.15 24.85 49.75 23.45 48.3 22.05 48.3 19.9 48.3 19.35 48.45 18.95 L49.15 15.1 55.6 15.1 55.4 16.6 Q55.15 18.2 56.6 18.2 L61.6 18.2 Q63.35 18.2 64.05 15.25 L64.1 15.1 70.75 15.1 M79.65 15.1 L79.05 19.2 Q78.6 22.0 76.35 23.5 74.25 24.85 71.4 24.85 L73.2 15.1 79.65 15.1 M45.7 9.8 L43.65 10.0 38.55 10.0 Q36.95 10.0 36.25 12.55 L29.75 12.55 30.4 9.0 Q30.85 6.6 32.7 5.0 34.5 3.35 37.0 3.35 L50.45 3.35 Q49.85 6.7 47.95 8.3 L45.7 9.8 M35.25 19.25 Q34.8 22.0 32.55 23.5 30.5 24.85 27.6 24.85 L29.3 15.1 35.8 15.1 35.25 19.25" fill="#950000" fill-rule="evenodd" stroke="none"/>
  </g>
</svg>
