<?xml version="1.0" encoding="UTF-8" standalone="no"?>
<svg xmlns:xlink="http://www.w3.org/1999/xlink" height="21.5px" width="204.45px" xmlns="http://www.w3.org/2000/svg">
  <g transform="matrix(1.0, 0.0, 0.0, 1.0, 1.95, -4.9)">
    <path d="M25.95 19.0 Q25.95 22.05 24.2 24.25 22.35 26.4 19.85 26.4 L1.25 26.4 Q0.5 26.4 -0.05 25.9 -0.55 25.35 -0.55 24.6 -0.55 23.8 -0.05 23.3 0.5 22.75 1.25 22.75 L19.85 22.75 Q20.85 22.75 21.55 21.65 22.3 20.5 22.3 19.0 22.3 17.5 21.55 16.35 20.85 15.25 19.85 15.25 L6.15 15.25 Q5.4 15.25 4.9 14.7 4.35 14.15 4.35 13.4 4.35 12.65 4.9 12.1 5.4 11.55 6.15 11.55 L19.85 11.55 Q22.35 11.55 24.2 13.75 25.95 15.9 25.95 19.0 M29.0 10.75 Q29.8 10.75 30.35 11.3 30.85 11.85 30.85 12.6 L30.85 24.6 Q30.85 25.35 30.35 25.9 29.8 26.4 29.0 26.4 28.25 26.4 27.75 25.9 27.2 25.35 27.2 24.6 L27.2 12.6 Q27.2 11.85 27.75 11.3 28.25 10.75 29.0 10.75 M45.55 10.75 Q44.8 9.65 43.85 9.65 L4.15 9.65 Q3.2 9.65 2.45 10.75 1.7 11.9 1.7 13.4 1.7 14.9 2.45 16.05 3.2 17.15 4.15 17.15 L17.9 17.15 Q18.65 17.15 19.2 17.7 19.7 18.25 19.7 19.0 19.7 19.75 19.2 20.3 18.65 20.8 17.9 20.8 L4.15 20.8 Q1.65 20.8 -0.15 18.65 -1.95 16.45 -1.95 13.4 -1.95 10.3 -0.15 8.15 1.65 5.95 4.15 5.95 L43.85 5.95 Q46.35 5.95 48.15 8.15 49.95 10.3 49.95 13.4 49.95 16.45 48.15 18.65 46.35 20.8 43.85 20.8 L34.05 20.8 Q33.3 20.8 32.75 20.3 32.25 19.75 32.25 19.0 32.25 18.25 32.75 17.7 33.3 17.15 34.05 17.15 L43.85 17.15 Q44.8 17.15 45.55 16.05 46.3 14.9 46.3 13.4 46.3 11.9 45.55 10.75 M60.85 5.95 Q61.8 5.95 62.35 6.7 L75.0 23.5 Q75.5 24.1 75.4 24.85 75.3 25.6 74.65 26.05 L73.55 26.4 Q72.65 26.4 72.1 25.7 L68.45 20.8 58.1 20.8 Q57.35 20.8 56.8 20.3 56.3 19.75 56.3 19.0 56.3 18.25 56.8 17.7 57.35 17.15 58.1 17.15 L65.65 17.15 60.95 10.9 50.55 25.65 Q50.0 26.4 49.0 26.4 48.45 26.4 47.95 26.05 47.35 25.65 47.25 24.9 47.1 24.2 47.5 23.55 L59.4 6.75 Q59.95 5.95 60.85 5.95 M121.1 8.35 Q120.55 8.9 119.75 8.9 L83.1 8.9 Q81.15 8.9 79.75 10.85 78.35 12.85 78.35 15.6 78.35 18.4 79.75 20.4 81.15 22.35 83.1 22.35 L95.35 22.35 Q96.1 22.35 96.65 22.9 97.2 23.4 97.2 24.15 97.2 24.9 96.65 25.45 96.1 26.0 95.35 26.0 L83.1 26.0 Q79.6 26.0 77.15 22.95 74.7 19.9 74.7 15.6 74.7 11.35 77.15 8.3 79.6 5.25 83.1 5.25 L119.75 5.25 Q120.55 5.25 121.1 5.8 121.6 6.3 121.6 7.05 121.6 7.8 121.1 8.35 M144.05 16.0 Q143.3 14.9 142.35 14.9 L128.6 14.9 Q127.85 14.9 127.35 14.35 126.8 13.8 126.8 13.05 126.8 12.3 127.35 11.75 127.85 11.2 128.6 11.2 L142.35 11.2 Q144.85 11.2 146.65 13.4 148.45 15.55 148.45 18.65 148.45 21.7 146.65 23.9 144.85 26.05 142.35 26.05 L111.55 26.05 111.05 26.0 98.7 26.0 98.7 11.45 Q98.7 10.7 99.25 10.15 99.8 9.65 100.55 9.65 101.3 9.65 101.85 10.15 102.4 10.7 102.4 11.45 L102.4 13.8 113.8 13.8 Q114.55 13.8 115.1 14.35 115.6 14.85 115.6 15.6 115.6 16.35 115.1 16.9 114.55 17.45 113.8 17.45 L102.4 17.45 102.4 22.35 119.75 22.35 120.25 22.45 142.35 22.45 Q143.3 22.45 144.05 21.3 144.8 20.15 144.8 18.65 144.8 17.15 144.05 16.0 M146.6 5.6 Q147.35 5.6 147.9 6.15 148.45 6.7 148.45 7.45 148.45 8.2 147.9 8.75 147.35 9.3 146.6 9.3 L128.0 9.3 Q127.05 9.3 126.3 10.4 125.55 11.55 125.55 13.05 125.55 14.55 126.3 15.7 127.05 16.8 128.0 16.8 L141.75 16.8 Q142.5 16.8 143.0 17.35 143.55 17.9 143.55 18.65 143.55 19.4 143.0 19.95 142.5 20.5 141.75 20.5 L128.0 20.5 Q125.5 20.5 123.7 18.3 121.9 16.1 121.9 13.05 121.9 10.0 123.7 7.8 125.5 5.6 128.0 5.6 L146.6 5.6 M171.7 5.75 Q172.1 6.4 171.95 7.15 L171.1 8.3 159.25 15.75 172.05 22.65 Q172.75 23.0 172.95 23.7 173.15 24.45 172.8 25.1 172.25 26.05 171.2 26.05 L170.3 25.85 153.65 16.85 153.65 24.25 Q153.65 25.0 153.1 25.55 152.55 26.05 151.8 26.05 151.05 26.05 150.5 25.55 150.0 25.0 150.0 24.25 L150.0 7.45 Q150.0 6.7 150.5 6.15 151.05 5.6 151.8 5.6 152.55 5.6 153.1 6.15 153.65 6.7 153.65 7.45 L153.65 14.95 169.2 5.2 Q169.65 4.9 170.15 4.9 171.15 4.9 171.7 5.75 M176.3 4.9 Q177.05 4.9 177.6 5.45 178.1 5.95 178.1 6.7 L178.1 24.25 Q178.1 25.0 177.6 25.55 177.05 26.05 176.3 26.05 175.55 26.05 175.05 25.55 174.45 25.0 174.45 24.25 L174.45 6.7 Q174.45 5.95 175.05 5.45 175.55 4.9 176.3 4.9 M202.5 6.7 L202.5 24.25 202.2 25.25 201.4 25.9 200.65 26.05 Q199.95 26.05 199.4 25.6 L183.5 10.9 183.5 24.25 Q183.5 25.0 183.0 25.55 182.45 26.05 181.65 26.05 180.9 26.05 180.4 25.55 179.85 25.0 179.85 24.25 L179.85 6.7 Q179.85 6.2 180.15 5.75 L180.95 5.05 181.95 4.95 Q182.5 5.0 182.9 5.4 L198.8 20.05 198.8 6.7 Q198.8 5.95 199.35 5.45 199.9 4.9 200.65 4.9 201.4 4.9 201.95 5.45 202.5 5.95 202.5 6.7" fill="#950000" fill-rule="evenodd" stroke="none"/>
  </g>
</svg>
