<?xml version="1.0" encoding="UTF-8" standalone="no"?>
<svg xmlns:xlink="http://www.w3.org/1999/xlink" height="26.35px" width="134.4px" xmlns="http://www.w3.org/2000/svg">
  <g transform="matrix(1.0, 0.0, 0.0, 1.0, -33.0, -0.1)">
    <path d="M52.8 26.45 L46.2 26.45 46.2 19.85 39.6 19.85 39.6 26.45 33.0 26.45 33.0 0.1 52.8 0.1 52.8 26.45 M46.2 13.25 L46.2 6.7 39.6 6.7 39.6 13.25 46.2 13.25 M75.45 6.7 L68.9 6.7 68.9 26.45 62.3 26.45 62.3 6.7 55.7 6.7 55.7 0.1 75.45 0.1 75.45 6.7 M86.85 3.15 L86.85 6.1 83.5 8.1 80.95 6.6 79.2 7.55 79.2 18.95 89.05 24.6 91.15 23.4 91.15 20.5 94.55 18.55 97.05 20.0 98.85 18.95 98.85 7.55 89.05 1.9 86.85 3.15 M83.2 9.9 L89.05 6.55 94.85 9.9 94.85 16.6 89.05 20.0 83.2 16.6 83.2 9.9 M83.5 0.3 L86.15 1.85 89.05 0.15 100.4 6.7 100.4 19.8 97.9 21.25 97.9 24.35 94.55 26.3 91.85 24.75 Q90.45 25.6 89.05 26.4 L77.65 19.8 77.65 6.7 80.15 5.25 80.15 2.25 83.5 0.3 M138.35 0.1 L144.95 0.1 144.95 26.45 138.35 26.45 138.35 0.1 M128.8 6.7 L122.3 6.7 122.3 26.45 115.7 26.45 115.7 6.7 109.2 6.7 109.2 26.45 102.6 26.45 102.6 0.1 135.4 0.1 135.4 26.45 128.8 26.45 128.8 6.7 M167.4 0.1 L167.4 6.7 154.3 6.7 154.3 19.85 167.4 19.85 167.4 26.45 147.7 26.45 147.7 0.1 167.4 0.1" fill="#950000" fill-rule="evenodd" stroke="none"/>
  </g>
</svg>
