<?xml version="1.0" encoding="UTF-8" standalone="no"?>
<svg xmlns:xlink="http://www.w3.org/1999/xlink" height="43.8px" width="179.6px" xmlns="http://www.w3.org/2000/svg">
  <g transform="matrix(1.0, 0.0, 0.0, 1.0, -12.05, 15.2)">
    <path d="M176.6 1.1 L191.65 1.1 191.65 5.45 186.85 5.45 186.85 17.7 181.45 17.7 181.45 5.45 176.6 5.45 176.6 1.1 M158.9 1.1 L164.0 1.1 169.6 9.75 169.6 1.1 174.75 1.1 174.75 17.7 169.7 17.7 164.05 8.95 164.05 17.7 158.9 17.7 158.9 1.1 M142.25 17.7 L142.25 1.1 155.65 1.1 155.65 4.95 147.65 4.95 147.65 7.3 154.4 7.3 154.4 11.2 147.65 11.2 147.65 13.8 156.0 13.8 156.0 17.7 142.25 17.7 M120.85 1.1 L127.4 1.1 130.2 11.45 133.1 1.1 139.55 1.1 139.55 17.7 134.75 17.7 134.75 8.1 132.05 17.7 128.35 17.7 125.65 8.1 125.65 17.7 120.85 17.7 120.85 1.1 M101.85 1.1 L106.95 1.1 112.55 9.75 112.55 1.1 117.7 1.1 117.7 17.7 112.65 17.7 107.0 8.95 107.0 17.7 101.85 17.7 101.85 1.1 M99.65 17.7 L94.2 17.7 Q93.95 16.95 93.95 14.65 93.95 12.95 93.4 12.4 92.9 11.9 91.5 11.9 L89.45 11.9 89.45 17.7 84.1 17.7 84.1 1.1 91.7 1.1 Q95.25 1.1 96.9 1.85 99.1 2.9 99.1 5.8 99.1 7.55 98.3 8.55 97.5 9.55 96.3 9.9 98.0 10.35 98.55 11.3 99.1 12.2 99.1 14.2 L99.1 15.9 Q99.1 17.15 99.65 17.15 L99.65 17.7 M94.0 6.7 Q94.0 4.95 91.8 4.95 L89.45 4.95 89.45 8.25 91.5 8.25 Q94.0 8.25 94.0 6.7 M68.15 17.7 L68.15 1.1 81.55 1.1 81.55 4.95 73.55 4.95 73.55 7.3 80.3 7.3 80.3 11.2 73.55 11.2 73.55 13.8 81.9 13.8 81.9 17.7 68.15 17.7 M57.65 12.1 L60.6 1.1 66.1 1.1 60.35 17.7 54.95 17.7 49.4 1.1 54.9 1.1 57.65 12.1 M36.55 9.25 Q36.55 11.45 37.35 12.75 38.2 14.05 39.75 14.05 41.25 14.05 42.1 12.85 42.95 11.6 42.95 9.3 42.95 7.3 42.05 6.0 41.25 4.7 39.65 4.7 38.2 4.7 37.35 5.95 36.55 7.15 36.55 9.25 M31.15 9.25 Q31.15 5.2 33.6 2.9 36.0 0.65 39.75 0.65 43.65 0.65 45.95 3.05 48.3 5.45 48.3 9.3 48.3 13.3 46.0 15.7 43.7 18.1 39.85 18.1 35.8 18.1 33.45 15.75 31.15 13.35 31.15 9.25 M21.4 12.1 L21.4 8.5 28.7 8.5 28.7 17.75 25.2 17.75 25.1 16.15 22.95 17.65 20.2 18.1 Q16.25 18.1 14.05 15.6 12.05 13.3 12.05 9.55 12.05 5.55 14.4 3.1 16.75 0.65 20.7 0.65 23.85 0.65 25.95 2.25 28.05 3.85 28.55 6.8 L23.4 6.8 Q23.1 5.75 22.45 5.2 21.7 4.7 20.6 4.7 19.05 4.7 18.25 6.05 17.45 7.4 17.45 9.55 17.45 11.95 18.4 13.0 19.3 14.05 20.9 14.05 21.95 14.05 22.75 13.5 23.55 12.9 23.75 12.1 L21.4 12.1" fill="#950000" fill-rule="evenodd" stroke="none"/>
    <path d="M85.9 -4.5 L114.85 -4.5 114.85 -2.4 85.9 -2.4 85.9 -4.5 M82.45 -6.6 L100.5 -15.2 118.2 -6.6 118.2 -5.2 82.45 -5.2 82.4 -5.85 82.45 -6.6" fill="#950000" fill-rule="evenodd" stroke="none"/>
    <path d="M84.5 21.05 L116.25 21.05 116.25 23.55 118.55 23.55 118.55 25.9 120.3 25.9 120.3 28.6 80.45 28.6 80.45 25.9 82.15 25.9 82.15 23.55 84.5 23.55 84.5 21.05" fill="#950000" fill-rule="evenodd" stroke="none"/>
  </g>
</svg>
