<?xml version="1.0" encoding="UTF-8" standalone="no"?>
<svg xmlns:xlink="http://www.w3.org/1999/xlink" height="33.85px" width="217.0px" xmlns="http://www.w3.org/2000/svg">
  <g transform="matrix(1.0, 0.0, 0.0, 1.0, 17.75, -4.2)">
    <path d="M199.25 38.05 L-17.75 38.05 -17.75 4.2 199.25 4.2 199.25 38.05" fill="url(#gradient0)" fill-rule="evenodd" stroke="none"/>
    <path d="M129.15 32.05 L133.85 21.35 143.15 21.35 138.4 32.05 129.15 32.05 M125.85 32.05 L116.6 32.05 121.3 21.35 130.6 21.35 125.85 32.05 M118.3 21.35 L113.55 32.05 104.3 32.05 109.0 21.35 118.3 21.35 M93.7 21.35 L88.95 32.05 79.7 32.05 84.4 21.35 93.7 21.35 M92.0 32.05 L96.7 21.35 106.0 21.35 101.25 32.05 92.0 32.05 M56.65 21.35 L51.9 32.05 42.65 32.05 47.35 21.35 56.65 21.35 M67.4 32.05 L72.1 21.35 81.4 21.35 76.65 32.05 67.4 32.05 M68.95 21.35 L64.2 32.05 54.95 32.05 59.65 21.35 68.95 21.35 M30.35 32.05 L35.05 21.35 44.35 21.35 39.6 32.05 30.35 32.05 M27.3 32.05 L18.05 32.05 22.75 21.35 32.05 21.35 27.3 32.05" fill="#000000" fill-opacity="0.2509804" fill-rule="evenodd" stroke="none"/>
  </g>
  <defs>
    <linearGradient gradientTransform="matrix(-0.1249, -1.0E-4, 0.0, -0.0207, 90.75, 21.2)" gradientUnits="userSpaceOnUse" id="gradient0" spreadMethod="pad" x1="-819.2" x2="819.2">
      <stop offset="0.0" stop-color="#750000" stop-opacity="0.0"/>
      <stop offset="1.0" stop-color="#750000"/>
    </linearGradient>
  </defs>
</svg>
