<?xml version="1.0" encoding="UTF-8" standalone="no"?>
<svg xmlns:xlink="http://www.w3.org/1999/xlink" height="21.75px" width="31.8px" xmlns="http://www.w3.org/2000/svg">
  <g transform="matrix(1.0, 0.0, 0.0, 1.0, 10.7, -14.75)">
    <path d="M19.9 17.95 L13.25 33.35 11.1 35.5 -7.45 35.5 -9.7 33.35 -9.7 18.0 -7.45 15.8 17.75 15.75 19.9 17.95" fill="url(#gradient0)" fill-rule="evenodd" stroke="none"/>
    <path d="M21.1 17.75 L14.1 33.95 11.55 36.5 -7.85 36.5 -10.7 33.8 -10.7 17.6 -7.85 14.8 18.2 14.75 21.1 17.75 M19.9 17.95 L17.75 15.75 -7.45 15.8 -9.7 18.0 -9.7 33.35 -7.45 35.5 11.1 35.5 13.25 33.35 19.9 17.95" fill="url(#gradient1)" fill-rule="evenodd" stroke="none"/>
  </g>
  <defs>
    <linearGradient gradientTransform="matrix(0.0, 0.0115, -0.0121, 0.0, 5.15, 25.65)" gradientUnits="userSpaceOnUse" id="gradient0" spreadMethod="pad" x1="-819.2" x2="819.2">
      <stop offset="0.06666666666666667" stop-color="#f07373"/>
      <stop offset="0.2196078431372549" stop-color="#ee0101"/>
      <stop offset="0.48627450980392156" stop-color="#ee0101"/>
      <stop offset="1.0" stop-color="#6d100e"/>
    </linearGradient>
    <linearGradient gradientTransform="matrix(-1.0E-4, 0.0178, -0.0133, -1.0E-4, 5.25, 23.65)" gradientUnits="userSpaceOnUse" id="gradient1" spreadMethod="pad" x1="-819.2" x2="819.2">
      <stop offset="0.0" stop-color="#000000"/>
      <stop offset="1.0" stop-color="#ffffff"/>
    </linearGradient>
  </defs>
</svg>
