<?xml version="1.0" encoding="UTF-8" standalone="no"?>
<svg xmlns:xlink="http://www.w3.org/1999/xlink" height="17.65px" width="30.95px" xmlns="http://www.w3.org/2000/svg">
  <g transform="matrix(1.0, 0.0, 0.0, 1.0, 0.0, 0.0)">
    <path d="M2.35 7.4 L5.25 9.85 13.6 9.85 4.3 4.6 2.35 7.4 M25.4 0.0 L30.95 7.7 26.0 11.8 20.9 11.8 20.9 17.65 19.4 15.65 19.4 11.8 18.55 11.8 18.55 15.55 17.15 15.55 17.15 11.8 16.15 11.8 16.15 15.55 14.8 15.55 14.8 11.8 13.9 11.8 13.9 15.55 12.4 15.55 12.4 11.8 11.55 11.8 11.55 15.65 10.05 17.65 10.05 11.8 5.05 11.8 0.0 7.7 5.55 0.0 25.4 0.0 M28.6 7.4 L26.55 4.6 17.35 9.85 25.7 9.85 28.6 7.4" fill="#ffffff" fill-rule="evenodd" stroke="none"/>
  </g>
</svg>
