<?xml version="1.0" encoding="UTF-8" standalone="no"?>
<svg xmlns:xlink="http://www.w3.org/1999/xlink" height="17.15px" width="24.25px" xmlns="http://www.w3.org/2000/svg">
  <g transform="matrix(1.0, 0.0, 0.0, 1.0, -4.2, -1.05)">
    <path d="M5.95 12.95 L5.95 13.25 Q5.95 15.1 6.45 17.0 L12.75 17.45 12.4 15.8 12.35 13.7 12.4 13.3 5.95 12.95 M13.6 10.05 L13.75 9.75 14.15 7.8 8.45 7.8 Q8.45 9.35 7.05 10.9 L6.1 12.25 12.6 12.55 13.6 10.05 M28.45 1.05 L28.45 3.95 27.2 6.9 22.25 6.9 21.25 10.5 14.25 10.5 13.8 11.55 Q13.2 12.85 13.15 13.85 13.0 14.9 13.2 15.7 L13.6 18.2 6.1 17.75 5.9 17.65 5.75 17.45 Q5.25 15.85 5.25 13.25 5.25 12.3 5.65 11.5 L6.5 10.35 Q7.7 9.0 7.7 7.7 7.7 6.75 7.25 6.3 L4.2 6.3 4.2 2.6 5.75 1.05 28.45 1.05 M26.75 6.15 L27.65 3.95 4.95 3.95 4.95 5.45 7.5 5.45 7.65 5.6 7.9 5.95 8.4 7.0 14.2 7.0 14.35 6.15 26.75 6.15 M20.7 9.75 L21.45 6.9 17.2 6.9 16.7 9.4 Q15.15 8.75 15.7 6.9 L15.0 6.9 14.45 9.75 20.7 9.75" fill="#ffffff" fill-rule="evenodd" stroke="none"/>
  </g>
</svg>
