<?xml version="1.0" encoding="UTF-8" standalone="no"?>
<svg xmlns:xlink="http://www.w3.org/1999/xlink" height="33.8px" width="29.05px" xmlns="http://www.w3.org/2000/svg">
  <g transform="matrix(1.0, 0.0, 0.0, 1.0, -1.2, 8.35)">
    <path d="M11.4 -8.35 L13.75 -8.35 13.75 -3.75 17.5 -0.9 16.1 0.95 11.4 -2.6 11.4 -8.35" fill="#ffffff" fill-rule="evenodd" stroke="none"/>
    <path d="M13.75 25.45 L11.4 25.45 11.4 19.65 16.1 16.1 17.5 17.95 13.75 20.8 13.75 25.45" fill="#ffffff" fill-rule="evenodd" stroke="none"/>
    <path d="M12.45 3.85 Q19.35 3.85 25.35 5.95 30.25 7.65 30.25 8.55 30.05 9.45 25.25 11.15 19.25 13.25 12.45 13.25 L1.2 13.25 1.2 3.85 12.45 3.85" fill="#ffffff" fill-rule="evenodd" stroke="none"/>
  </g>
</svg>
