<?xml version="1.0" encoding="UTF-8" standalone="no"?>
<svg xmlns:xlink="http://www.w3.org/1999/xlink" height="2.8px" width="29.15px" xmlns="http://www.w3.org/2000/svg">
  <g transform="matrix(1.0, 0.0, 0.0, 1.0, -1.0, -7.0)">
    <path d="M26.25 7.0 Q28.1 7.0 29.25 7.6 30.15 8.0 30.15 8.35 30.15 8.8 29.25 9.25 28.1 9.8 26.25 9.8 L23.75 9.8 23.75 7.0 26.25 7.0" fill="#ffffff" fill-rule="evenodd" stroke="none"/>
    <path d="M15.0 7.0 Q16.85 7.0 18.1 7.6 19.0 8.0 19.0 8.35 19.0 8.8 18.1 9.25 L15.0 9.8 12.5 9.8 12.5 7.0 15.0 7.0" fill="#ffffff" fill-rule="evenodd" stroke="none"/>
    <path d="M3.45 7.0 Q5.3 7.0 6.5 7.6 7.45 8.0 7.45 8.35 7.45 8.8 6.5 9.25 5.3 9.8 3.45 9.8 L1.0 9.8 1.0 7.0 3.45 7.0" fill="#ffffff" fill-rule="evenodd" stroke="none"/>
  </g>
</svg>
