<?xml version="1.0" encoding="UTF-8" standalone="no"?>
<svg xmlns:xlink="http://www.w3.org/1999/xlink" height="4.8px" width="35.55px" xmlns="http://www.w3.org/2000/svg">
  <g transform="matrix(1.0, 0.0, 0.0, 1.0, 2.35, -6.4)">
    <path d="M26.3 6.4 Q29.5 6.4 31.6 7.35 33.2 8.15 33.2 8.8 33.2 9.5 31.6 10.25 29.5 11.2 26.3 11.2 L21.95 11.2 21.95 6.4 26.3 6.4" fill="#ffffff" fill-rule="evenodd" stroke="none"/>
    <path d="M18.45 8.25 L20.9 8.8 18.45 9.5 -2.35 8.8 18.45 8.25" fill="#ffffff" fill-rule="evenodd" stroke="none"/>
    <path d="M15.7 7.45 L14.25 7.75 2.3 7.45 14.25 7.2 15.7 7.45" fill="#ffffff" fill-rule="evenodd" stroke="none"/>
    <path d="M2.15 10.25 L14.1 9.9 15.6 10.25 14.1 10.55 2.15 10.25" fill="#ffffff" fill-rule="evenodd" stroke="none"/>
  </g>
</svg>
