<?xml version="1.0" encoding="UTF-8" standalone="no"?>
<svg xmlns:xlink="http://www.w3.org/1999/xlink" height="33.7px" width="39.05px" xmlns="http://www.w3.org/2000/svg">
  <g transform="matrix(1.0, 0.0, 0.0, 1.0, 5.7, 8.25)">
    <path d="M27.85 -8.25 L29.85 -8.25 29.95 -8.1 Q33.35 -0.1 33.35 8.6 33.35 17.45 29.95 25.3 L29.85 25.45 27.85 25.45 Q31.5 17.45 31.5 8.6 31.5 -0.3 27.85 -8.25" fill="#ffffff" fill-rule="evenodd" stroke="none"/>
    <path d="M-5.7 -0.45 L-5.7 -2.4 Q-2.45 -1.25 -0.4 1.55 1.8 4.3 2.05 7.85 L21.3 7.85 21.3 4.55 27.85 8.75 21.3 12.4 21.3 9.55 2.05 9.55 Q1.7 13.0 -0.4 15.75 -2.55 18.45 -5.7 19.55 L-5.7 17.6 Q-3.05 16.5 -1.45 14.05 0.2 11.55 0.2 8.6 0.2 5.6 -1.45 3.1 -3.05 0.75 -5.7 -0.45" fill="#ffffff" fill-rule="evenodd" stroke="none"/>
  </g>
</svg>
