<?xml version="1.0" encoding="UTF-8" standalone="no"?>
<svg xmlns:xlink="http://www.w3.org/1999/xlink" height="17.0px" width="27.25px" xmlns="http://www.w3.org/2000/svg">
  <g transform="matrix(1.0, 0.0, 0.0, 1.0, -3.2, 0.45)">
    <path d="M30.45 8.05 Q30.45 9.4 27.6 11.05 24.0 13.0 18.35 13.55 L16.4 14.9 16.25 14.9 16.25 13.85 12.45 16.55 12.4 16.55 12.4 13.75 10.4 13.75 8.7 14.9 8.65 14.9 8.65 13.75 3.2 13.75 3.2 2.25 8.65 2.25 8.65 1.1 8.7 1.1 10.4 2.25 12.4 2.25 12.4 -0.45 12.45 -0.45 16.25 2.25 16.25 1.1 16.4 1.1 18.35 2.55 Q24.0 3.1 27.6 5.05 30.45 6.6 30.45 8.05" fill="#ffffff" fill-rule="evenodd" stroke="none"/>
  </g>
</svg>
