<?xml version="1.0" encoding="UTF-8" standalone="no"?>
<svg xmlns:xlink="http://www.w3.org/1999/xlink" height="21.6px" width="34.1px" xmlns="http://www.w3.org/2000/svg">
  <g transform="matrix(1.0, 0.0, 0.0, 1.0, 1.3, 1.45)">
    <path d="M29.95 -1.45 L32.1 -1.05 32.8 -0.4 32.1 0.2 29.95 0.55 28.15 0.55 28.15 -1.45 29.95 -1.45" fill="#ffffff" fill-rule="evenodd" stroke="none"/>
    <path d="M24.15 -1.45 L26.4 -1.05 27.0 -0.4 26.4 0.2 24.15 0.55 22.4 0.55 22.4 -1.45 24.15 -1.45" fill="#ffffff" fill-rule="evenodd" stroke="none"/>
    <path d="M24.15 18.15 L26.4 18.55 Q27.0 18.85 27.0 19.2 L26.4 19.75 24.15 20.15 22.4 20.15 22.4 18.15 24.15 18.15" fill="#ffffff" fill-rule="evenodd" stroke="none"/>
    <path d="M18.2 -1.45 L20.35 -1.05 21.05 -0.4 Q21.05 -0.1 20.35 0.2 L18.2 0.55 16.4 0.55 16.4 -1.45 18.2 -1.45" fill="#ffffff" fill-rule="evenodd" stroke="none"/>
    <path d="M-0.8 11.35 Q-1.55 10.05 -1.15 8.7 -0.75 7.3 0.55 6.5 L1.7 6.1 9.25 5.6 4.95 11.8 4.0 12.7 Q2.75 13.4 1.3 13.0 -0.1 12.6 -0.8 11.35" fill="#ffffff" fill-rule="evenodd" stroke="none"/>
    <path d="M10.9 4.5 L14.9 2.3 15.1 2.7 11.15 5.0 10.9 4.5" fill="#ffffff" fill-rule="evenodd" stroke="none"/>
    <path d="M10.9 14.65 L11.15 14.25 15.1 16.55 14.9 16.95 10.9 14.65" fill="#ffffff" fill-rule="evenodd" stroke="none"/>
  </g>
</svg>
