<?xml version="1.0" encoding="UTF-8" standalone="no"?>
<svg xmlns:xlink="http://www.w3.org/1999/xlink" height="33.95px" width="40.2px" xmlns="http://www.w3.org/2000/svg">
  <g transform="matrix(1.0, 0.0, 0.0, 1.0, 4.5, 8.5)">
    <path d="M15.65 6.85 Q15.0 6.85 14.5 7.35 14.0 7.8 14.0 8.45 14.0 9.1 14.5 9.6 15.0 10.1 15.65 10.1 16.3 10.1 16.75 9.6 17.25 9.1 17.25 8.45 17.25 7.8 16.75 7.35 16.3 6.85 15.65 6.85 M15.65 4.35 Q17.1 4.35 18.25 5.2 19.35 6.2 19.7 7.6 L29.05 7.6 29.05 6.6 32.2 8.55 29.05 10.35 29.05 9.35 19.7 9.35 Q19.35 10.75 18.25 11.75 17.1 12.6 15.65 12.6 14.1 12.6 13.05 11.75 11.9 10.75 11.55 9.35 L2.65 9.35 2.65 10.35 -0.55 8.3 2.65 6.6 2.65 7.6 11.55 7.6 Q11.9 6.2 13.05 5.2 14.1 4.35 15.65 4.35" fill="#ffffff" fill-rule="evenodd" stroke="none"/>
    <path d="M21.95 -8.5 L26.35 -8.5 Q30.65 -5.75 33.1 -1.35 35.7 3.2 35.7 8.45 35.7 13.75 33.1 18.3 30.65 22.7 26.35 25.45 L21.95 25.45 Q27.15 23.5 30.45 18.9 33.75 14.15 33.75 8.45 33.75 2.7 30.45 -1.95 27.15 -6.55 21.95 -8.5" fill="#ffffff" fill-rule="evenodd" stroke="none"/>
    <path d="M9.2 -8.5 Q4.0 -6.55 0.85 -1.95 -2.5 2.7 -2.5 8.45 -2.5 14.15 0.85 18.9 4.0 23.5 9.2 25.45 L4.9 25.45 Q0.6 22.7 -1.9 18.3 -4.5 13.75 -4.5 8.45 -4.5 3.2 -1.9 -1.35 0.6 -5.75 4.9 -8.5 L9.2 -8.5" fill="#ffffff" fill-rule="evenodd" stroke="none"/>
  </g>
</svg>
