<?xml version="1.0" encoding="UTF-8" standalone="no"?>
<svg xmlns:xlink="http://www.w3.org/1999/xlink" height="29.8px" width="17.05px" xmlns="http://www.w3.org/2000/svg">
  <g transform="matrix(1.0, 0.0, 0.0, 1.0, -6.35, 8.4)">
    <path d="M17.3 9.85 Q16.1 7.5 15.45 5.6 L13.45 6.4 Q14.85 10.15 17.85 14.95 L18.5 14.55 18.65 17.05 16.4 15.95 17.15 15.4 Q14.4 10.9 12.7 6.7 L10.85 7.35 Q13.3 14.25 17.7 19.5 L21.5 16.45 Q19.45 14.15 17.3 9.85 M6.35 -8.4 L14.05 -8.4 Q14.35 0.95 18.5 9.15 20.65 13.55 23.0 16.1 L23.4 16.6 17.45 21.4 17.0 20.85 Q10.0 12.65 7.55 0.8 6.6 -3.45 6.35 -8.4" fill="#ffffff" fill-rule="evenodd" stroke="none"/>
  </g>
</svg>
