<?xml version="1.0" encoding="UTF-8" standalone="no"?>
<svg xmlns:xlink="http://www.w3.org/1999/xlink" height="25.3px" width="26.15px" xmlns="http://www.w3.org/2000/svg">
  <g transform="matrix(1.0, 0.0, 0.0, 1.0, -2.35, 4.2)">
    <path d="M15.35 16.45 L9.85 12.2 Q8.05 10.45 6.65 1.55 L15.35 -0.9 15.45 -0.9 24.25 1.55 Q22.75 10.45 21.0 12.2 L15.45 16.45 15.35 16.45" fill="#ffffff" fill-rule="evenodd" stroke="none"/>
    <path d="M13.8 -2.35 L4.2 0.35 Q4.9 4.45 5.85 8.1 L4.45 8.8 Q3.25 4.25 2.35 -0.95 L13.8 -4.2 13.8 -2.35" fill="#ffffff" fill-rule="evenodd" stroke="none"/>
    <path d="M16.75 -2.35 L16.75 -4.2 28.5 -0.95 Q27.65 4.35 26.35 8.9 L24.95 8.2 Q26.0 4.45 26.6 0.35 L16.75 -2.35" fill="#ffffff" fill-rule="evenodd" stroke="none"/>
    <path d="M25.2 12.0 Q24.5 13.95 23.75 14.7 20.5 17.7 15.45 21.1 L15.35 21.1 Q10.2 17.7 7.15 14.7 6.3 13.95 5.6 12.0 L6.9 11.3 Q7.6 13.25 8.3 13.75 10.4 15.85 15.35 19.25 L15.45 19.25 Q20.4 15.85 22.5 13.75 23.1 13.25 23.9 11.4 L25.2 12.0" fill="#ffffff" fill-rule="evenodd" stroke="none"/>
  </g>
</svg>
