<?xml version="1.0" encoding="UTF-8" standalone="no"?>
<svg xmlns:xlink="http://www.w3.org/1999/xlink" height="1.95px" width="4.15px" xmlns="http://www.w3.org/2000/svg">
  <g transform="matrix(1.0, 0.0, 0.0, 1.0, 0.0, 0.0)">
    <path d="M3.25 0.7 Q3.15 0.5 2.8 0.45 L1.9 0.45 1.75 0.55 1.8 0.6 1.45 0.7 1.4 0.65 1.15 0.8 0.95 1.0 Q0.65 1.25 0.7 1.55 0.75 1.75 1.25 1.85 L2.25 1.8 3.2 1.45 3.45 0.95 3.25 0.7 M3.75 1.3 L2.4 1.85 0.85 1.9 0.05 1.45 Q-0.1 1.05 0.4 0.7 0.85 0.3 1.45 0.15 L1.75 0.1 3.3 0.05 Q3.95 0.15 4.1 0.55 L3.75 1.3" fill="url(#gradient0)" fill-rule="evenodd" stroke="none"/>
    <path d="M3.25 0.7 L3.45 0.95 3.2 1.45 2.25 1.8 1.25 1.85 Q0.75 1.75 0.7 1.55 0.65 1.25 0.95 1.0 L0.9 1.25 Q1.0 1.45 1.35 1.5 L2.25 1.5 2.6 1.4 3.05 1.15 3.25 0.75 3.25 0.7" fill="url(#gradient1)" fill-rule="evenodd" stroke="none"/>
    <path d="M1.8 0.6 L1.75 0.55 1.9 0.45 2.8 0.45 Q3.15 0.5 3.25 0.7 L3.25 0.75 3.05 1.15 2.6 1.4 1.8 0.6 M0.95 1.0 L1.15 0.8 1.4 0.65 1.45 0.7 2.25 1.5 1.35 1.5 Q1.0 1.45 0.9 1.25 L0.95 1.0" fill="url(#gradient2)" fill-rule="evenodd" stroke="none"/>
    <path d="M1.45 0.7 L1.8 0.6 2.6 1.4 2.25 1.5 1.45 0.7" fill="url(#gradient3)" fill-rule="evenodd" stroke="none"/>
  </g>
  <defs>
    <radialGradient cx="0" cy="0" gradientTransform="matrix(0.0042, 0.0, 0.0, 0.0042, 1.2, 0.55)" gradientUnits="userSpaceOnUse" id="gradient0" r="819.2" spreadMethod="pad">
      <stop offset="0.0" stop-color="#000000" stop-opacity="0.0"/>
      <stop offset="0.5019607843137255" stop-color="#000000" stop-opacity="0.24705882"/>
      <stop offset="1.0" stop-color="#000000"/>
    </radialGradient>
    <radialGradient cx="0" cy="0" gradientTransform="matrix(0.0034, 0.0, 0.0, 0.0034, 1.95, 0.0)" gradientUnits="userSpaceOnUse" id="gradient1" r="819.2" spreadMethod="pad">
      <stop offset="0.0" stop-color="#000000" stop-opacity="0.0"/>
      <stop offset="0.5019607843137255" stop-color="#000000" stop-opacity="0.24705882"/>
      <stop offset="1.0" stop-color="#000000"/>
    </radialGradient>
    <radialGradient cx="0" cy="0" gradientTransform="matrix(0.0035, 0.0, 0.0, 0.0013, 2.15, 0.9)" gradientUnits="userSpaceOnUse" id="gradient2" r="819.2" spreadMethod="pad">
      <stop offset="0.0" stop-color="#000000" stop-opacity="0.0"/>
      <stop offset="0.5019607843137255" stop-color="#000000" stop-opacity="0.24705882"/>
      <stop offset="1.0" stop-color="#000000"/>
    </radialGradient>
    <radialGradient cx="0" cy="0" gradientTransform="matrix(0.0035, 0.0, 0.0, 0.0013, 2.15, 0.9)" gradientUnits="userSpaceOnUse" id="gradient3" r="819.2" spreadMethod="pad">
      <stop offset="0.0" stop-color="#000000" stop-opacity="0.21960784"/>
      <stop offset="1.0" stop-color="#000000"/>
    </radialGradient>
  </defs>
</svg>
