<?xml version="1.0" encoding="UTF-8" standalone="no"?>
<svg xmlns:xlink="http://www.w3.org/1999/xlink" height="25.2px" width="25.2px" xmlns="http://www.w3.org/2000/svg">
  <g transform="matrix(1.0, 0.0, 0.0, 1.0, -2.65, 3.75)">
    <path d="M11.35 9.25 L8.4 9.25 Q8.55 11.85 10.4 13.7 12.25 15.6 14.85 15.7 L14.85 12.75 Q13.45 12.65 12.5 11.6 11.55 10.65 11.35 9.25 M14.85 2.0 Q12.25 2.15 10.4 4.0 8.55 5.85 8.4 8.45 L11.35 8.45 Q11.55 7.05 12.5 6.1 13.45 5.15 14.85 4.95 L14.85 2.0 M19.2 9.25 Q19.05 10.65 18.1 11.6 17.05 12.65 15.65 12.75 L15.65 15.7 Q18.25 15.6 20.1 13.7 22.0 11.85 22.1 9.25 L19.2 9.25 M18.0 6.1 Q19.05 7.05 19.2 8.45 L22.1 8.45 Q22.0 5.85 20.1 4.0 18.25 2.15 15.65 2.0 L15.65 4.95 Q17.05 5.15 18.0 6.1 M18.0 8.8 Q18.0 7.65 17.2 6.9 16.4 6.1 15.3 6.1 14.15 6.1 13.3 6.9 12.5 7.65 12.5 8.8 12.5 10.0 13.3 10.8 14.15 11.6 15.3 11.6 16.4 11.6 17.2 10.8 18.0 9.95 18.0 8.8 M24.35 8.45 L24.35 9.25 23.3 9.25 Q23.2 12.3 20.95 14.55 18.75 16.75 15.65 16.9 L15.65 17.95 14.85 17.95 14.85 16.9 Q11.8 16.75 9.6 14.55 7.35 12.3 7.2 9.25 L6.15 9.25 6.15 8.45 7.2 8.45 Q7.35 5.3 9.6 3.15 11.8 0.95 14.85 0.8 L14.85 -0.25 15.65 -0.25 15.65 0.8 Q18.7 0.95 20.95 3.15 23.15 5.3 23.3 8.45 L24.35 8.45" fill="#ffffff" fill-rule="evenodd" stroke="none"/>
    <path d="M7.5 16.55 L6.2 21.45 2.65 17.85 7.5 16.55" fill="#ffffff" fill-rule="evenodd" stroke="none"/>
    <path d="M22.95 1.2 L24.25 -3.75 27.85 -0.1 22.95 1.2" fill="#ffffff" fill-rule="evenodd" stroke="none"/>
    <path d="M2.65 -0.1 L6.2 -3.75 7.5 1.2 2.65 -0.1" fill="#ffffff" fill-rule="evenodd" stroke="none"/>
    <path d="M27.85 17.85 L24.25 21.45 22.95 16.55 27.85 17.85" fill="#ffffff" fill-rule="evenodd" stroke="none"/>
  </g>
</svg>
