<?xml version="1.0" encoding="UTF-8" standalone="no"?>
<svg xmlns:xlink="http://www.w3.org/1999/xlink" height="23.9px" width="24.3px" xmlns="http://www.w3.org/2000/svg">
  <g transform="matrix(1.0, 0.0, 0.0, 1.0, -3.55, 3.25)">
    <path d="M20.9 7.4 Q21.35 9.5 20.1 12.55 20.7 9.15 19.85 5.25 18.8 1.15 13.75 -1.55 L14.45 0.45 Q15.15 2.6 15.05 3.4 14.85 4.55 15.05 6.7 14.15 6.25 14.35 4.25 14.5 3.05 13.9 1.5 L13.2 0.25 13.15 1.55 Q12.8 3.05 11.8 4.2 10.0 6.25 11.2 11.15 10.05 10.35 10.05 8.0 L9.55 9.6 Q9.4 10.1 9.4 11.15 9.4 12.65 10.75 14.65 11.9 16.55 14.25 17.25 L14.5 17.35 Q13.5 15.85 13.5 13.95 13.4 11.5 15.3 9.5 L15.2 13.25 Q15.3 14.9 16.7 15.25 16.55 14.65 16.7 13.25 L16.9 12.05 17.3 13.1 17.75 15.25 Q17.75 16.55 16.55 17.45 18.8 16.9 19.6 16.4 L21.25 14.75 Q22.3 13.15 22.1 11.0 L21.65 9.0 Q21.0 7.95 20.9 7.4 M27.85 0.15 Q25.85 12.4 23.4 14.75 20.65 17.35 15.75 20.65 L15.65 20.65 Q11.1 17.6 8.0 14.75 6.5 13.25 4.85 6.55 L3.55 0.15 15.65 -3.25 15.75 -3.25 27.85 0.15" fill="#ffffff" fill-rule="evenodd" stroke="none"/>
  </g>
</svg>
