<?xml version="1.0" encoding="UTF-8" standalone="no"?>
<svg xmlns:xlink="http://www.w3.org/1999/xlink" height="25.1px" width="25.1px" xmlns="http://www.w3.org/2000/svg">
  <g transform="matrix(1.0, 0.0, 0.0, 1.0, -3.35, 3.85)">
    <path d="M25.7 6.85 L22.2 6.85 22.2 2.4 17.75 2.4 17.75 -1.05 25.7 -1.05 25.7 6.85" fill="#ffffff" fill-rule="evenodd" stroke="none"/>
    <path d="M22.2 10.55 L25.7 10.55 25.7 18.45 17.75 18.45 17.75 14.95 22.2 14.95 22.2 10.55" fill="#ffffff" fill-rule="evenodd" stroke="none"/>
    <path d="M9.65 6.85 L6.15 6.85 6.15 -1.05 14.1 -1.05 14.1 2.4 9.65 2.4 9.65 6.85" fill="#ffffff" fill-rule="evenodd" stroke="none"/>
    <path d="M6.15 10.55 L9.65 10.55 9.65 14.95 14.1 14.95 14.1 18.45 6.15 18.45 6.15 10.55" fill="#ffffff" fill-rule="evenodd" stroke="none"/>
    <path d="M21.6 -2.55 L21.6 -3.85 28.45 -3.85 28.45 3.05 27.15 3.05 27.15 -2.55 21.6 -2.55" fill="#ffffff" fill-rule="evenodd" stroke="none"/>
    <path d="M10.25 -2.55 L4.65 -2.55 4.65 3.05 3.35 3.05 3.35 -3.85 10.25 -3.85 10.25 -2.55" fill="#ffffff" fill-rule="evenodd" stroke="none"/>
    <path d="M3.35 14.35 L4.65 14.35 4.65 19.95 10.25 19.95 10.25 21.25 3.35 21.25 3.35 14.35" fill="#ffffff" fill-rule="evenodd" stroke="none"/>
    <path d="M21.6 19.95 L27.15 19.95 27.15 14.35 28.45 14.35 28.45 21.25 21.6 21.25 21.6 19.95" fill="#ffffff" fill-rule="evenodd" stroke="none"/>
    <path d="M18.85 8.45 L18.85 8.95 16.25 8.95 16.25 11.55 15.75 11.55 15.75 8.95 13.1 8.95 13.1 8.45 15.75 8.45 15.75 5.8 16.25 5.8 16.25 8.45 18.85 8.45" fill="#ffffff" fill-rule="evenodd" stroke="none"/>
  </g>
</svg>
