<?xml version="1.0" encoding="UTF-8" standalone="no"?>
<svg xmlns:xlink="http://www.w3.org/1999/xlink" height="34.4px" width="42.2px" xmlns="http://www.w3.org/2000/svg">
  <g transform="matrix(1.0, 0.0, 0.0, 1.0, 5.9, 8.45)">
    <path d="M30.85 11.05 L36.3 11.0 36.3 12.5 29.8 12.55 29.55 11.8 26.95 25.95 24.35 7.6 22.45 21.55 19.95 11.8 19.6 12.55 9.55 12.55 11.15 19.45 7.45 12.55 -5.9 12.55 -5.9 11.05 6.6 11.05 0.6 0.25 6.8 0.25 4.4 -8.45 12.2 -8.45 15.15 5.25 7.85 5.25 9.2 11.05 18.65 11.05 20.25 7.1 22.0 13.8 24.25 -3.3 27.1 16.8 29.15 5.9 30.85 11.05" fill="#ffffff" fill-rule="evenodd" stroke="none"/>
  </g>
</svg>
