<?xml version="1.0" encoding="UTF-8" standalone="no"?>
<svg xmlns:xlink="http://www.w3.org/1999/xlink" height="24.0px" width="24.3px" xmlns="http://www.w3.org/2000/svg">
  <g transform="matrix(1.0, 0.0, 0.0, 1.0, -3.5, 3.55)">
    <path d="M19.2 7.1 Q19.2 9.1 17.45 10.15 L19.7 14.15 Q23.8 11.8 23.8 7.1 L19.2 7.1 M13.95 10.15 Q12.1 9.1 12.1 7.1 L7.5 7.1 Q7.5 11.8 11.7 14.15 L13.95 10.15 M17.55 5.35 Q16.75 4.55 15.7 4.55 14.65 4.55 13.95 5.35 13.15 6.05 13.15 7.1 13.15 8.15 13.95 8.9 14.65 9.6 15.7 9.6 16.75 9.6 17.55 8.9 18.2 8.15 18.2 7.1 18.2 6.05 17.55 5.35 M19.8 0.0 Q17.8 -1.1 15.7 -1.1 13.6 -1.1 11.6 0.0 L13.95 4.05 Q14.75 3.5 15.7 3.5 16.65 3.5 17.45 4.05 L19.8 0.0 M27.8 -0.15 Q25.8 12.15 23.35 14.5 20.95 16.85 15.7 20.35 L15.7 20.45 15.6 20.45 15.6 20.35 Q10.7 17.1 7.95 14.5 6.45 13.0 4.8 6.3 L3.5 -0.15 15.6 -3.45 15.6 -3.55 15.7 -3.45 27.8 -0.15" fill="#ffffff" fill-rule="evenodd" stroke="none"/>
  </g>
</svg>
