<?xml version="1.0" encoding="UTF-8" standalone="no"?>
<svg xmlns:xlink="http://www.w3.org/1999/xlink" height="19.3px" width="32.0px" xmlns="http://www.w3.org/2000/svg">
  <g transform="matrix(1.0, 0.0, 0.0, 1.0, 0.0, 1.2)">
    <path d="M8.45 1.8 L1.2 1.8 1.2 16.85 8.45 16.85 8.45 1.8 M3.05 -1.2 L6.7 -1.2 6.7 0.55 9.65 0.55 9.65 18.1 0.0 18.1 0.0 0.55 3.05 0.55 3.05 -1.2" fill="#ffffff" fill-rule="evenodd" stroke="none"/>
    <path d="M2.45 2.9 L7.2 2.9 7.2 15.8 2.45 15.8 2.45 2.9" fill="#ffffff" fill-rule="evenodd" stroke="none"/>
    <path d="M19.6 16.85 L19.6 1.8 12.35 1.8 12.35 16.85 19.6 16.85 M17.85 0.55 L20.85 0.55 20.85 18.1 11.15 18.1 11.15 0.55 14.2 0.55 14.2 -1.2 17.85 -1.2 17.85 0.55" fill="#ffffff" fill-rule="evenodd" stroke="none"/>
    <path d="M13.6 2.9 L18.4 2.9 18.4 15.8 13.6 15.8 13.6 2.9" fill="#ffffff" fill-rule="evenodd" stroke="none"/>
    <path d="M30.75 1.8 L23.55 1.8 23.55 16.85 30.75 16.85 30.75 1.8 M29.05 -1.2 L29.05 0.55 32.0 0.55 32.0 18.1 22.3 18.1 22.3 0.55 25.35 0.55 25.35 -1.2 29.05 -1.2" fill="#ffffff" fill-rule="evenodd" stroke="none"/>
    <path d="M24.75 2.9 L29.55 2.9 29.55 15.8 24.75 15.8 24.75 2.9" fill="#ffffff" fill-rule="evenodd" stroke="none"/>
  </g>
</svg>
