<?xml version="1.0" encoding="UTF-8" standalone="no"?>
<svg xmlns:xlink="http://www.w3.org/1999/xlink" height="27.55px" width="25.5px" xmlns="http://www.w3.org/2000/svg">
  <g transform="matrix(1.0, 0.0, 0.0, 1.0, -3.2, 6.05)">
    <path d="M14.55 12.35 L25.0 10.0 Q28.35 14.45 28.7 14.45 L21.55 21.5 Q17.85 17.65 14.55 12.35 M22.05 17.75 L24.75 17.6 25.0 14.95 22.05 17.75" fill="#ffffff" fill-rule="evenodd" stroke="none"/>
    <path d="M21.95 5.2 L22.85 6.7 16.45 8.1 21.95 5.2" fill="#ffffff" fill-rule="evenodd" stroke="none"/>
    <path d="M20.05 1.2 L10.1 3.2 Q9.15 0.3 8.7 -1.85 L18.55 -3.7 Q19.1 -1.35 20.05 1.2" fill="#ffffff" fill-rule="evenodd" stroke="none"/>
    <path d="M6.35 7.8 L9.75 7.1 9.95 7.45 6.9 9.15 6.35 7.8" fill="#ffffff" fill-rule="evenodd" stroke="none"/>
    <path d="M10.55 -3.45 L8.25 -5.0 6.45 -3.0 10.55 -3.45 M3.75 -2.1 L3.2 -5.0 13.15 -6.05 13.6 -3.45 6.6 -2.1 Q7.05 0.5 8.25 3.65 L5.2 4.25 Q4.25 1.1 3.75 -2.1" fill="#ffffff" fill-rule="evenodd" stroke="none"/>
    <path d="M13.05 19.75 Q10.65 16.8 8.95 13.55 L12.8 12.7 16.05 17.3 13.05 19.75" fill="#ffffff" fill-rule="evenodd" stroke="none"/>
  </g>
</svg>
