<?xml version="1.0" encoding="UTF-8" standalone="no"?>
<svg xmlns:xlink="http://www.w3.org/1999/xlink" height="27.4px" width="25.2px" xmlns="http://www.w3.org/2000/svg">
  <g transform="matrix(1.0, 0.0, 0.0, 1.0, -2.8, 4.95)">
    <path d="M24.45 1.95 L25.55 1.25 Q21.8 -3.8 15.45 -3.8 11.6 -3.8 8.4 -1.7 5.35 0.4 3.85 3.8 L2.8 3.35 Q4.35 -0.4 7.75 -2.6 11.25 -4.95 15.45 -4.95 18.85 -4.95 21.8 -3.35 24.7 -1.9 26.6 0.75 L27.85 -0.05 28.0 4.75 24.45 1.95" fill="#ffffff" fill-rule="evenodd" stroke="none"/>
    <path d="M26.95 13.75 L28.0 14.15 Q26.45 17.9 23.05 20.2 19.55 22.45 15.35 22.45 11.45 22.45 8.05 20.35 4.8 18.25 3.05 14.85 L4.1 14.35 Q5.7 17.5 8.75 19.4 11.7 21.3 15.35 21.3 19.2 21.3 22.4 19.2 25.45 17.15 26.95 13.75" fill="#ffffff" fill-rule="evenodd" stroke="none"/>
    <path d="M15.45 13.2 Q17.35 13.2 18.65 11.8 20.0 10.5 20.0 8.6 20.0 6.65 18.65 5.35 17.35 3.95 15.45 3.95 13.5 3.95 12.15 5.35 10.8 6.65 10.8 8.6 10.8 10.5 12.15 11.8 13.5 13.2 15.45 13.2 M24.85 7.2 L24.85 10.05 22.75 10.05 Q22.35 11.7 21.65 12.75 L23.1 14.25 21.0 16.25 19.55 14.8 Q18.5 15.65 16.85 15.9 L16.85 18.0 13.95 18.0 13.95 15.9 Q12.3 15.65 11.25 14.8 L9.75 16.25 7.75 14.25 9.25 12.75 Q8.4 11.7 8.1 10.05 L6.0 10.05 6.0 7.2 8.1 7.2 Q8.4 5.6 9.25 4.4 L7.75 2.9 9.75 0.9 11.25 2.4 Q12.55 1.5 13.95 1.25 L13.95 -0.85 16.85 -0.85 16.85 1.25 Q18.25 1.5 19.55 2.4 L21.0 0.9 23.1 2.9 21.65 4.4 Q22.4 5.6 22.75 7.2 L24.85 7.2" fill="#ffffff" fill-rule="evenodd" stroke="none"/>
  </g>
</svg>
