<?xml version="1.0" encoding="UTF-8" standalone="no"?>
<svg xmlns:xlink="http://www.w3.org/1999/xlink" height="25.2px" width="25.2px" xmlns="http://www.w3.org/2000/svg">
  <g transform="matrix(1.0, 0.0, 0.0, 1.0, -3.35, 3.8)">
    <path d="M19.15 5.6 L19.15 -2.35 12.75 -2.35 12.75 5.6 4.9 5.6 4.9 8.6 Q6.5 7.75 9.6 7.75 11.4 7.75 14.8 9.0 18.2 10.1 19.9 10.1 24.75 10.1 27.1 8.5 L27.1 5.6 19.15 5.6 M20.7 -3.8 L20.7 4.05 28.55 4.05 28.55 13.45 20.7 13.45 20.7 21.4 11.3 21.4 11.3 13.45 3.35 13.45 3.35 4.05 11.3 4.05 11.3 -3.8 20.7 -3.8" fill="#ffffff" fill-rule="evenodd" stroke="none"/>
  </g>
</svg>
