<?xml version="1.0" encoding="UTF-8" standalone="no"?>
<svg xmlns:xlink="http://www.w3.org/1999/xlink" height="23.45px" width="31.05px" xmlns="http://www.w3.org/2000/svg">
  <g transform="matrix(1.0, 0.0, 0.0, 1.0, -0.5, 1.5)">
    <path d="M11.75 4.55 L11.15 7.6 17.6 7.6 18.35 4.55 14.0 4.55 13.5 7.25 Q12.6 6.8 12.35 5.85 12.25 5.15 12.45 4.55 L11.75 4.55 M0.5 0.1 L2.15 -1.5 25.8 -1.5 25.8 1.5 25.7 1.5 24.4 4.55 19.25 4.55 18.2 8.35 10.95 8.35 10.5 9.4 Q9.8 11.0 9.75 11.75 L9.8 13.75 10.25 16.3 9.8 16.4 9.55 16.4 8.7 16.3 8.5 16.3 2.5 15.85 2.25 15.8 2.15 15.6 1.8 14.4 Q1.55 13.0 1.55 11.15 1.55 10.1 1.95 9.4 L2.85 8.2 Q4.15 6.9 4.15 5.4 4.15 4.45 3.65 3.9 L0.5 3.9 0.5 0.1" fill="#ffffff" fill-rule="evenodd" stroke="none"/>
    <path d="M27.7 5.85 L28.85 3.55 29.95 4.0 Q31.2 4.55 31.55 5.4 L30.05 7.95 23.5 14.55 22.05 16.5 21.5 16.4 Q16.35 21.2 13.55 21.95 L14.0 19.6 19.4 14.2 19.95 14.2 Q20.1 14.05 19.85 13.1 L22.45 11.05 27.7 5.85" fill="#ffffff" fill-rule="evenodd" stroke="none"/>
  </g>
</svg>
