<?xml version="1.0" encoding="UTF-8" standalone="no"?>
<svg xmlns:xlink="http://www.w3.org/1999/xlink" height="22.0px" width="21.9px" xmlns="http://www.w3.org/2000/svg">
  <g transform="matrix(1.0, 0.0, 0.0, 1.0, -4.5, 2.1)">
    <path d="M21.3 15.65 Q20.95 15.3 20.5 15.65 20.15 16.1 20.5 16.45 20.95 16.85 21.3 16.45 21.75 16.1 21.3 15.65 M10.4 16.5 Q10.75 16.15 10.4 15.8 10.05 15.45 9.6 15.8 9.25 16.15 9.6 16.5 10.05 16.95 10.4 16.5 M8.5 14.7 Q8.95 14.35 8.5 13.9 8.15 13.55 7.75 13.9 7.35 14.35 7.75 14.7 8.15 15.15 8.5 14.7 M12.05 14.85 Q12.45 14.5 12.05 14.05 11.7 13.7 11.25 14.05 10.9 14.5 11.25 14.85 11.7 15.3 12.05 14.85 M18.8 14.0 Q18.45 14.35 18.8 14.7 19.2 15.15 19.6 14.7 19.95 14.35 19.6 14.0 19.2 13.65 18.8 14.0 M9.4 12.2 Q9.0 12.65 9.4 13.0 9.8 13.4 10.15 13.0 10.6 12.65 10.15 12.2 9.8 11.85 9.4 12.2 M9.65 1.15 Q9.3 1.55 9.65 1.95 10.1 2.35 10.45 1.95 10.9 1.55 10.45 1.15 10.1 0.8 9.65 1.15 M10.25 4.75 Q9.9 4.35 9.45 4.75 9.1 5.1 9.45 5.45 9.9 5.9 10.25 5.45 10.6 5.1 10.25 4.75 M7.8 3.0 Q7.45 3.45 7.8 3.8 8.25 4.25 8.6 3.8 9.0 3.45 8.6 3.0 8.25 2.65 7.8 3.0 M12.1 3.65 Q12.55 3.3 12.1 2.85 11.75 2.5 11.3 2.85 10.95 3.3 11.3 3.65 11.75 4.1 12.1 3.65 M23.15 13.8 Q22.8 13.4 22.4 13.8 22.0 14.2 22.4 14.55 22.8 15.0 23.15 14.55 23.6 14.2 23.15 13.8 M21.45 12.9 Q21.9 12.55 21.45 12.15 21.1 11.75 20.65 12.15 20.3 12.55 20.65 12.9 21.1 13.35 21.45 12.9 M19.6 8.8 L19.15 7.9 16.5 5.15 Q16.0 4.75 15.35 4.75 14.7 4.75 14.25 5.15 L11.55 7.9 Q11.1 8.3 11.1 8.9 L11.55 9.9 14.25 12.55 Q14.7 13.05 15.35 13.05 16.0 13.05 16.4 12.55 L19.15 9.9 Q19.6 9.45 19.6 8.8 M21.3 4.75 Q20.95 4.35 20.5 4.75 20.15 5.15 20.5 5.5 20.95 5.95 21.3 5.5 21.75 5.15 21.3 4.75 M19.45 3.65 Q19.85 3.3 19.45 2.85 19.1 2.5 18.65 2.85 18.3 3.3 18.65 3.65 19.1 4.1 19.45 3.65 M21.15 2.0 Q21.6 1.65 21.15 1.2 20.8 0.85 20.35 1.2 20.0 1.65 20.35 2.0 20.8 2.45 21.15 2.0 M22.25 3.1 Q21.9 3.45 22.25 3.8 22.65 4.3 23.05 3.8 23.4 3.45 23.05 3.1 22.65 2.7 22.25 3.1 M21.3 -2.1 Q21.95 -2.1 22.3 -1.65 L26.0 2.0 Q26.4 2.45 26.4 3.0 26.4 3.6 26.0 4.0 L21.15 8.9 26.0 13.7 Q26.4 14.15 26.4 14.8 26.4 15.35 26.0 15.8 L22.3 19.45 Q21.95 19.9 21.3 19.9 20.75 19.9 20.3 19.45 L15.5 14.55 10.6 19.45 Q10.15 19.9 9.6 19.9 8.95 19.9 8.6 19.45 L4.95 15.8 Q4.5 15.35 4.5 14.8 4.5 14.15 4.95 13.7 L9.75 8.9 4.95 4.0 Q4.5 3.6 4.5 3.0 4.5 2.45 4.95 2.0 L8.6 -1.65 Q8.95 -2.1 9.6 -2.1 10.15 -2.1 10.6 -1.65 L15.5 3.2 20.3 -1.65 Q20.75 -2.1 21.3 -2.1" fill="#ffffff" fill-rule="evenodd" stroke="none"/>
  </g>
</svg>
