<?xml version="1.0" encoding="UTF-8" standalone="no"?>
<svg xmlns:xlink="http://www.w3.org/1999/xlink" height="34.55px" width="26.0px" xmlns="http://www.w3.org/2000/svg">
  <g transform="matrix(1.0, 0.0, 0.0, 1.0, -0.85, 8.8)">
    <path d="M2.55 -7.15 Q2.6 -4.3 6.15 -2.4 8.25 -1.3 13.9 0.3 19.55 1.9 21.7 3.05 25.2 4.95 25.2 7.85 25.2 10.75 21.65 13.0 19.4 14.4 13.85 16.4 8.0 18.5 6.05 19.6 2.55 21.6 2.55 24.1" fill="none" stroke="#ffffff" stroke-linecap="square" stroke-linejoin="miter" stroke-width="2.5"/>
    <path d="M25.15 -7.15 Q25.1 -4.3 21.55 -2.4 19.45 -1.3 13.8 0.3 8.15 1.9 6.0 3.05 2.5 4.95 2.5 7.85 2.5 10.75 6.05 13.0 8.3 14.4 13.85 16.4 19.7 18.5 21.65 19.6 25.15 21.6 25.15 24.1" fill="none" stroke="#ffffff" stroke-linecap="square" stroke-linejoin="miter" stroke-width="2.5"/>
    <path d="M2.75 -7.85 L23.75 -7.85 M4.55 -4.55 L24.0 -4.55 M2.1 7.55 L25.2 7.55 M2.75 24.9 L23.6 24.9 M4.3 20.8 L22.5 20.8 M3.75 11.5 L23.1 11.5 M4.4 3.7 L21.65 3.7" fill="none" stroke="#ffffff" stroke-linecap="square" stroke-linejoin="miter" stroke-width="1.0"/>
  </g>
</svg>
