<?xml version="1.0" encoding="UTF-8" standalone="no"?>
<svg xmlns:xlink="http://www.w3.org/1999/xlink" height="31.65px" width="32.7px" xmlns="http://www.w3.org/2000/svg">
  <g transform="matrix(1.0, 0.0, 0.0, 1.0, 0.0, 6.6)">
    <path d="M7.45 8.15 L11.3 7.75 11.75 9.45 7.75 9.25 7.45 8.15 M32.55 6.25 L31.4 10.5 27.5 10.3 28.4 7.1 28.65 5.95 32.7 5.55 32.55 6.25 M13.3 7.55 L26.5 6.2 26.2 7.55 25.45 10.2 13.85 9.55 13.3 7.55" fill="#ffffff" fill-rule="evenodd" stroke="none"/>
    <path d="M10.45 14.05 Q9.9 13.45 9.5 11.1 L20.9 13.1 Q20.1 14.65 19.5 15.1 L16.65 17.0 14.6 18.1 14.55 18.1 10.45 14.05 M21.85 1.9 L21.55 4.4 8.5 6.7 7.45 2.9 14.45 0.4 14.5 0.4 21.85 1.9 M5.55 17.05 Q4.25 15.55 3.45 10.15 L7.4 10.8 Q7.95 14.15 8.85 15.1 L14.3 20.5 14.35 20.5 17.1 19.0 20.95 16.45 Q21.8 15.8 22.95 13.4 L26.85 14.05 Q25.0 18.05 23.6 19.1 21.8 20.5 17.9 22.8 L13.85 25.05 13.8 25.05 Q8.05 19.95 5.55 17.05 M28.6 -3.6 L27.75 3.35 23.7 4.05 24.2 0.0 14.35 -2.0 14.3 -2.0 4.95 1.35 Q5.5 3.75 6.35 6.4 L6.55 7.0 2.7 7.7 2.1 5.8 0.0 -1.65 14.0 -6.6 14.05 -6.6 28.6 -3.6" fill="#ffffff" fill-rule="evenodd" stroke="none"/>
  </g>
</svg>
