<?xml version="1.0" encoding="UTF-8" standalone="no"?>
<svg xmlns:xlink="http://www.w3.org/1999/xlink" height="10.7px" width="125.1px" xmlns="http://www.w3.org/2000/svg">
  <g transform="matrix(1.0, 0.0, 0.0, 1.0, -15.35, -21.35)">
    <path d="M123.15 32.05 L113.9 32.05 118.6 21.35 127.9 21.35 123.15 32.05 M140.45 21.35 L135.7 32.05 126.45 32.05 131.15 21.35 140.45 21.35 M115.6 21.35 L110.85 32.05 101.6 32.05 106.3 21.35 115.6 21.35 M91.0 21.35 L86.25 32.05 77.0 32.05 81.7 21.35 91.0 21.35 M89.3 32.05 L94.0 21.35 103.3 21.35 98.55 32.05 89.3 32.05 M78.7 21.35 L73.95 32.05 64.7 32.05 69.4 21.35 78.7 21.35 M53.95 21.35 L49.2 32.05 39.95 32.05 44.65 21.35 53.95 21.35 M56.95 21.35 L66.25 21.35 61.5 32.05 52.25 32.05 56.95 21.35 M29.35 21.35 L24.6 32.05 15.35 32.05 20.05 21.35 29.35 21.35 M27.65 32.05 L32.35 21.35 41.65 21.35 36.9 32.05 27.65 32.05" fill="#000000" fill-opacity="0.2509804" fill-rule="evenodd" stroke="none"/>
  </g>
</svg>
