<?xml version="1.0" encoding="UTF-8" standalone="no"?>
<svg xmlns:xlink="http://www.w3.org/1999/xlink" height="71.3px" width="271.6px" xmlns="http://www.w3.org/2000/svg">
  <g transform="matrix(1.0, 0.0, 0.0, 1.0, 251.85, 3.3)">
    <path d="M-240.85 46.0 Q-241.3 47.4 -242.85 48.0 L-243.55 47.65 Q-244.4 47.2 -244.85 46.75 -244.05 45.5 -243.15 45.0 L-241.6 44.5 -240.85 46.0 M-247.85 66.0 Q-248.3 67.4 -249.85 68.0 L-250.55 67.65 Q-251.4 67.2 -251.85 66.75 -251.05 65.5 -250.15 65.0 L-248.6 64.5 -247.85 66.0" fill="#150006" fill-rule="evenodd" stroke="none"/>
    <path d="M6.0 12.05 L-3.25 12.05 1.45 1.35 10.75 1.35 6.0 12.05" fill="url(#gradient0)" fill-rule="evenodd" stroke="none"/>
    <path d="M6.0 12.05 L-3.25 12.05 1.45 1.35 10.75 1.35 6.0 12.05 Z" fill="none" stroke="url(#gradient1)" stroke-linecap="butt" stroke-linejoin="miter" stroke-width="1.0"/>
    <path d="M19.75 -1.75 Q14.05 1.4 7.5 7.4 L6.5 8.35 8.7 13.85 10.5 18.3 10.5 18.7 10.35 18.75 10.0 19.0 Q9.05 17.45 5.85 8.9 -0.7 14.8 -3.5 16.75 L-4.0 16.4 5.5 8.0 4.65 5.7 Q1.65 -2.55 -1.25 -2.75 L-1.25 -3.3 Q2.95 -2.0 4.4 1.05 5.25 2.8 6.0 6.9 L6.2 7.45 Q12.4 2.2 19.0 -2.5 L19.75 -1.75" fill="#00ff00" fill-rule="evenodd" stroke="none"/>
  </g>
  <defs>
    <linearGradient gradientTransform="matrix(0.0, -0.0096, -0.0096, 0.0, 3.7, 6.25)" gradientUnits="userSpaceOnUse" id="gradient0" spreadMethod="pad" x1="-819.2" x2="819.2">
      <stop offset="0.07450980392156863" stop-color="#000000"/>
      <stop offset="0.2980392156862745" stop-color="#5f1210"/>
      <stop offset="0.6039215686274509" stop-color="#ff0000"/>
      <stop offset="0.615686274509804" stop-color="#fb6464"/>
      <stop offset="0.9764705882352941" stop-color="#ca0606"/>
    </linearGradient>
    <linearGradient gradientTransform="matrix(0.0, -0.0071, -0.0071, 0.0, 3.7, 6.65)" gradientUnits="userSpaceOnUse" id="gradient1" spreadMethod="pad" x1="-819.2" x2="819.2">
      <stop offset="0.0" stop-color="#e6e6e6"/>
      <stop offset="0.10980392156862745" stop-color="#dfdfdf"/>
      <stop offset="0.27450980392156865" stop-color="#cbcbcb"/>
      <stop offset="0.47058823529411764" stop-color="#ababab"/>
      <stop offset="0.6941176470588235" stop-color="#7d7d7d"/>
      <stop offset="0.9333333333333333" stop-color="#444444"/>
      <stop offset="1.0" stop-color="#333333"/>
    </linearGradient>
  </defs>
</svg>
