<?xml version="1.0" encoding="UTF-8" standalone="no"?>
<svg xmlns:xlink="http://www.w3.org/1999/xlink" height="24.55px" width="32.25px" xmlns="http://www.w3.org/2000/svg">
  <g transform="matrix(1.0, 0.0, 0.0, 1.0, 16.15, 12.35)">
    <path d="M7.4 -11.35 L15.1 -8.8 15.1 0.05 -7.05 11.2 -15.15 8.2 -15.15 -0.65 7.4 -11.35" fill="#383838" fill-rule="evenodd" stroke="none"/>
    <path d="M7.4 -11.35 L15.1 -8.8 15.1 0.05 -7.05 11.2 -15.15 8.2 -15.15 -0.65 7.4 -11.35 Z" fill="none" stroke="#333333" stroke-linecap="round" stroke-linejoin="round" stroke-width="2.0"/>
    <path d="M7.4 -11.35 L15.05 -8.8 -5.9 3.0 -15.15 -0.65 7.4 -11.35" fill="#d8d8d8" fill-rule="evenodd" stroke="none"/>
    <path d="M5.6 -10.45 L7.4 -11.35 7.85 -11.2 6.5 -7.35 5.25 -3.25 3.7 -2.4 3.9 -3.9 5.15 -8.85 5.6 -10.45 M9.5 -10.65 L15.05 -8.8 7.9 -4.75 7.95 -5.1 9.6 -9.85 9.85 -10.5 9.5 -10.65 M-0.4 -0.05 L-2.0 0.85 -1.95 0.8 -0.65 0.05 -0.4 -0.05 M-4.95 2.5 L-5.9 3.0 -15.15 -0.65 -1.15 -7.25 -2.7 -3.5 -4.95 2.5" fill="#d8d8d8" fill-rule="evenodd" stroke="none"/>
    <path d="M7.85 -11.2 L9.5 -10.65 9.85 -10.5 9.6 -9.85 7.95 -5.1 7.9 -4.75 5.25 -3.25 6.5 -7.35 7.85 -11.2 M3.7 -2.4 L-0.4 -0.05 -0.65 0.05 -1.95 0.8 -2.0 0.85 -4.95 2.5 -2.7 -3.5 -1.15 -7.25 -1.15 -7.3 1.85 -8.7 5.6 -10.45 5.15 -8.85 3.9 -3.9 3.7 -2.4" fill="#ffffff" fill-rule="evenodd" stroke="none"/>
    <path d="M-7.25 2.4 L15.1 -8.85 15.1 0.05 -7.25 11.3 -7.25 2.4" fill="#9e9e9e" fill-rule="evenodd" stroke="none"/>
    <path d="M3.15 -2.8 L5.75 -4.1 5.75 -4.05 5.15 0.0 4.6 4.2 4.45 5.4 2.2 6.55 2.25 5.4 3.15 -2.8 M-4.5 9.95 L-7.25 11.3 -7.25 2.4 -4.2 0.9 -4.25 2.0 -4.1 3.2 -4.15 3.7 -4.15 4.75 -4.2 5.55 -4.5 8.25 -4.5 9.95" fill="#9e9e9e" fill-rule="evenodd" stroke="none"/>
    <path d="M-4.2 0.9 L-3.5 0.55 -3.5 0.5 -2.3 -0.1 -2.25 -0.05 3.15 -2.8 2.25 5.4 2.2 6.55 -4.5 9.95 -4.5 8.25 -4.2 5.55 -4.15 4.75 -4.15 3.7 -4.1 3.2 -4.25 2.0 -4.2 0.9 M5.75 -4.1 L7.75 -5.1 7.85 -4.35 6.75 2.55 6.7 4.3 4.45 5.4 4.6 4.2 5.15 0.0 5.75 -4.05 5.75 -4.1" fill="#b0b0b0" fill-rule="evenodd" stroke="none"/>
    <path d="M-15.15 -0.65 L-7.0 2.4 -7.0 11.25 -15.15 8.2 -15.15 -0.65" fill="#bcbcbc" fill-rule="evenodd" stroke="none"/>
    <path d="M-8.4 4.75 L-8.4 9.25 -13.8 7.25 -13.55 7.1 -11.0 5.95 -8.4 4.75" fill="#333333" fill-rule="evenodd" stroke="none"/>
    <path d="M-13.8 7.25 L-13.8 1.35 -8.4 3.4 -8.4 4.75 -11.0 5.95 -13.55 7.1 -13.8 7.25" fill="#707070" fill-rule="evenodd" stroke="none"/>
  </g>
</svg>
