<?xml version="1.0" encoding="UTF-8" standalone="no"?>
<svg xmlns:xlink="http://www.w3.org/1999/xlink" height="30.4px" width="281.3px" xmlns="http://www.w3.org/2000/svg">
  <g transform="matrix(1.0, 0.0, 0.0, 1.0, 42.6, 3.5)">
    <path d="M126.1 -2.95 L126.0 21.9 -41.6 21.9 -22.15 -2.95 126.1 -2.95" fill="url(#gradient0)" fill-rule="evenodd" stroke="none"/>
    <path d="M126.1 -2.95 L126.0 21.9 -41.6 21.9 -22.15 -2.95 126.1 -2.95 Z" fill="none" stroke="url(#gradient1)" stroke-linecap="butt" stroke-linejoin="miter" stroke-width="1.0"/>
    <path d="M119.55 17.85 L-32.55 17.85 -31.35 16.7 119.4 16.7 119.55 17.85 M118.65 8.4 L-22.45 8.4 -21.25 7.25 118.5 7.25 118.65 8.4 M118.75 10.75 L-24.95 10.75 -23.8 9.6 118.7 9.6 118.75 10.75 M119.0 13.1 L-27.5 13.1 -26.3 12.0 118.9 12.0 119.0 13.1 M119.25 15.45 L-30.0 15.45 -28.85 14.35 119.1 14.35 119.25 15.45 M118.35 1.3 L-14.95 1.3 -13.65 0.2 118.35 0.2 118.35 1.3 M118.45 3.7 L-17.45 3.7 -16.2 2.55 118.35 2.55 118.45 3.7 M118.45 6.05 L-20.0 6.05 -18.75 4.9 118.45 4.9 118.45 6.05" fill="#000000" fill-opacity="0.5019608" fill-rule="evenodd" stroke="none"/>
  </g>
  <defs>
    <radialGradient cx="0" cy="0" fx="25.6" fy="0" gradientTransform="matrix(1.0E-4, -0.0162, 0.0929, 9.0E-4, 57.5, 9.85)" gradientUnits="userSpaceOnUse" id="gradient0" r="819.2" spreadMethod="pad">
      <stop offset="0.0" stop-color="#3a5c85"/>
      <stop offset="1.0" stop-color="#000000"/>
    </radialGradient>
    <linearGradient gradientTransform="matrix(0.0, -0.0154, 0.0157, 0.0, 42.2, 9.5)" gradientUnits="userSpaceOnUse" id="gradient1" spreadMethod="pad" x1="-819.2" x2="819.2">
      <stop offset="0.0" stop-color="#3a5c85"/>
      <stop offset="1.0" stop-color="#000000" stop-opacity="0.0"/>
    </linearGradient>
  </defs>
</svg>
