<?xml version="1.0" encoding="UTF-8" standalone="no"?>
<svg xmlns:xlink="http://www.w3.org/1999/xlink" height="53.8px" width="38.1px" xmlns="http://www.w3.org/2000/svg">
  <g transform="matrix(1.0, 0.0, 0.0, 1.0, 8.45, 6.9)">
    <path d="M24.6 4.5 L24.6 14.55 29.65 14.55 29.65 46.9 -8.45 46.9 -8.45 14.55 -3.0 14.55 -3.0 4.5 Q-3.0 -0.2 0.95 -3.65 5.0 -6.9 10.75 -6.9 L10.85 -6.9 Q16.6 -6.9 20.6 -3.65 24.6 -0.2 24.6 4.5 M17.35 7.7 Q17.35 4.65 15.4 2.55 13.55 0.5 10.75 0.5 7.95 0.5 6.05 2.55 4.15 4.65 4.15 7.7 L4.15 14.55 17.35 14.55 17.35 7.7 M7.25 27.95 L8.3 28.7 5.35 38.85 16.6 38.85 13.55 28.65 14.4 27.95 Q16.0 26.5 16.0 24.5 16.0 22.5 14.4 21.1 13.0 19.7 10.9 19.7 8.75 19.7 7.25 21.1 5.8 22.5 5.8 24.5 5.8 26.5 7.25 27.95" fill="#666666" fill-rule="evenodd" stroke="none"/>
  </g>
</svg>
