<?xml version="1.0" encoding="UTF-8" standalone="no"?>
<svg xmlns:xlink="http://www.w3.org/1999/xlink" height="173.25px" width="401.3px" xmlns="http://www.w3.org/2000/svg">
  <g transform="matrix(1.0, 0.0, 0.0, 1.0, 200.65, 86.6)">
    <path d="M200.65 -72.9 L-200.65 -72.9 -200.65 -75.5 200.65 -75.5 200.65 -72.9 M200.65 -78.35 L-200.65 -78.35 -200.65 -81.05 200.65 -81.05 200.65 -78.35 M200.65 -61.85 L-200.65 -61.85 -200.65 -64.5 200.65 -64.5 200.65 -61.85 M200.65 -67.35 L-200.65 -67.35 -200.65 -70.0 200.65 -70.0 200.65 -67.35 M200.65 -83.9 L-200.65 -83.9 -200.65 -86.6 200.65 -86.6 200.65 -83.9 M200.65 -56.35 L-200.65 -56.35 -200.65 -58.95 200.65 -58.95 200.65 -56.35 M200.65 -50.8 L-200.65 -50.8 -200.65 -53.5 200.65 -53.5 200.65 -50.8 M200.65 -34.2 L-200.65 -34.2 -200.65 -36.9 200.65 -36.9 200.65 -34.2 M200.65 -28.7 L-200.65 -28.7 -200.65 -31.3 200.65 -31.3 200.65 -28.7 M200.65 -39.7 L-200.65 -39.7 -200.65 -42.35 200.65 -42.35 200.65 -39.7 M200.65 -45.3 L-200.65 -45.3 -200.65 -47.9 200.65 -47.9 200.65 -45.3 M-200.65 -3.75 L200.65 -3.75 200.65 -1.8 -200.65 -1.8 -200.65 -3.75 M200.65 -6.6 L-200.65 -6.6 -200.65 -9.25 200.65 -9.25 200.65 -6.6 M200.65 -12.1 L-200.65 -12.1 -200.65 -14.8 200.65 -14.8 200.65 -12.1 M200.65 -17.6 L-200.65 -17.6 -200.65 -20.35 200.65 -20.35 200.65 -17.6 M200.65 -23.15 L-200.65 -23.15 -200.65 -25.85 200.65 -25.85 200.65 -23.15 M200.65 20.35 L-200.65 20.35 -200.65 17.7 200.65 17.7 200.65 20.35 M200.65 14.85 L-200.65 14.85 -200.65 12.15 200.65 12.15 200.65 14.85 M200.65 3.75 L-200.65 3.75 -200.65 1.1 200.65 1.1 200.65 3.75 M200.65 9.35 L-200.65 9.35 -200.65 6.65 200.65 6.65 200.65 9.35 M200.65 47.95 L-200.65 47.95 -200.65 45.3 200.65 45.3 200.65 47.95 M200.65 42.45 L-200.65 42.45 -200.65 39.8 200.65 39.8 200.65 42.45 M200.65 36.95 L-200.65 36.95 -200.65 34.25 200.65 34.25 200.65 36.95 M200.65 31.4 L-200.65 31.4 -200.65 28.7 200.65 28.7 200.65 31.4 M200.65 25.9 L-200.65 25.9 -200.65 23.2 200.65 23.2 200.65 25.9 M200.65 53.5 L-200.65 53.5 -200.65 50.8 200.65 50.8 200.65 53.5 M200.65 59.0 L-200.65 59.0 -200.65 56.35 200.65 56.35 200.65 59.0 M200.65 75.55 L-200.65 75.55 -200.65 72.9 200.65 72.9 200.65 75.55 M200.65 81.1 L-200.65 81.1 -200.65 78.4 200.65 78.4 200.65 81.1 M200.65 86.65 L-200.65 86.65 -200.65 83.95 200.65 83.95 200.65 86.65 M200.65 70.05 L-200.65 70.05 -200.65 67.35 200.65 67.35 200.65 70.05 M200.65 64.55 L-200.65 64.55 -200.65 61.85 200.65 61.85 200.65 64.55" fill="#000000" fill-opacity="0.47843137" fill-rule="evenodd" stroke="none"/>
  </g>
</svg>
