<?xml version="1.0" encoding="UTF-8" standalone="no"?>
<svg xmlns:xlink="http://www.w3.org/1999/xlink" height="13.95px" width="13.5px" xmlns="http://www.w3.org/2000/svg">
  <g transform="matrix(1.0, 0.0, 0.0, 1.0, 48.15, 8.15)">
    <path d="M-44.6 -0.4 L-43.5 -1.45 Q-42.5 -2.6 -42.3 -3.4 -42.1 -4.2 -41.4 -4.55 -40.55 -5.05 -40.4 -5.3 -40.15 -5.7 -40.15 -6.95 L-39.9 -8.1 -39.0 -7.9 -38.3 -6.95 Q-37.9 -6.05 -38.8 -4.9 -39.65 -3.7 -39.5 -3.05 -39.35 -2.45 -37.55 -2.6 L-35.75 -2.6 -35.1 -2.25 -34.75 -1.75 Q-34.6 -1.4 -34.9 -0.95 L-35.15 -0.5 Q-34.6 0.0 -34.65 0.65 -34.65 1.05 -35.1 1.45 L-35.5 1.8 -35.2 1.95 Q-34.9 2.2 -34.9 2.6 L-35.4 3.45 -35.85 3.8 -35.85 4.35 -36.15 5.05 -37.95 5.6 -39.95 5.8 -44.6 4.8 -44.6 -0.4 M-47.3 -1.05 L-46.25 -1.05 Q-45.4 -1.05 -45.4 -0.2 L-45.4 4.35 Q-45.4 5.15 -46.25 5.15 L-47.3 5.15 Q-48.15 5.15 -48.15 4.35 L-48.15 -0.2 Q-48.15 -1.05 -47.3 -1.05" fill="#0099ff" fill-rule="evenodd" stroke="none"/>
  </g>
</svg>
