<?xml version="1.0" encoding="UTF-8" standalone="no"?>
<svg xmlns:xlink="http://www.w3.org/1999/xlink" height="30.45px" width="45.35px" xmlns="http://www.w3.org/2000/svg">
  <g transform="matrix(1.0, 0.0, 0.0, 1.0, 22.65, -5.0)">
    <path d="M21.8 6.2 L22.0 6.2 22.1 6.45 22.15 7.0 22.7 7.0 22.7 10.35 22.15 10.35 22.1 11.65 22.3 11.65 22.3 12.7 22.1 12.7 22.0 14.3 21.7 14.65 20.85 15.1 19.85 15.1 19.85 14.75 19.15 14.75 19.15 15.2 12.65 15.2 12.65 15.35 11.0 15.35 Q9.25 15.35 8.4 16.05 L8.35 16.05 8.25 17.95 Q8.25 20.25 8.85 21.45 L8.4 21.8 -0.7 22.05 -1.3 21.9 -2.4 21.5 -3.8 21.7 Q-4.8 22.15 -5.1 22.55 L-5.5 23.4 Q-5.7 24.65 -5.25 25.35 L-5.6 25.55 -6.4 26.15 Q-7.55 27.4 -7.2 29.55 L-7.55 29.8 -8.35 30.55 Q-9.35 31.95 -8.75 33.75 L-9.25 34.05 -10.05 34.05 -10.15 35.45 -20.35 34.3 -20.05 33.65 -19.5 32.85 -19.4 32.6 -20.4 32.6 -20.5 32.6 Q-21.85 32.25 -22.65 31.15 L-21.5 27.7 Q-20.0 24.0 -18.4 22.4 -17.2 20.55 -16.5 18.4 -15.25 14.3 -18.1 13.3 L-19.4 13.25 -19.7 12.7 Q-19.9 12.15 -19.6 11.5 L-19.25 10.85 -19.25 6.5 -19.25 6.4 -19.2 6.2 -19.2 6.15 Q-19.0 5.8 -18.55 5.8 L-17.1 5.8 -16.75 5.0 -15.85 5.0 -15.85 5.7 -1.5 5.7 -1.15 6.15 5.3 6.2 5.5 5.8 19.85 5.8 20.05 5.35 20.65 5.35 20.85 5.8 21.8 5.8 21.8 6.2 M6.9 16.3 Q6.4 15.45 5.55 15.45 L0.3 15.8 -0.05 16.25 -0.6 17.15 Q-1.15 18.85 0.1 20.35 L-0.5 20.65 -1.4 19.75 Q-2.45 18.55 -2.65 16.95 L-2.85 17.4 -2.9 18.4 Q-2.9 20.1 -0.95 20.9 L5.4 20.75 5.75 20.65 6.4 20.15 Q7.35 19.3 7.2 17.75 L7.15 17.25 7.1 17.05 6.9 16.6 6.9 16.45 6.9 16.3" fill="#ffffff" fill-rule="evenodd" stroke="none"/>
  </g>
</svg>
