<?xml version="1.0" encoding="UTF-8" standalone="no"?>
<svg xmlns:xlink="http://www.w3.org/1999/xlink" height="25.05px" width="139.15px" xmlns="http://www.w3.org/2000/svg">
  <g transform="matrix(1.0, 0.0, 0.0, 1.0, 69.55, -7.5)">
    <path d="M-25.35 17.6 L-25.0 17.95 -24.55 18.6 -24.4 18.2 -23.9 17.7 -24.1 18.0 -24.3 18.85 Q-24.45 20.15 -22.85 20.95 L-22.15 21.05 -20.55 21.3 Q-18.15 21.35 -17.45 20.05 -17.15 19.55 -17.2 18.9 -17.35 17.65 -18.95 17.1 L-20.05 17.2 Q-21.85 17.8 -22.3 19.25 L-22.35 20.55 Q-22.85 19.8 -22.55 18.7 L-22.15 17.8 -22.3 17.15 -25.35 17.6 M5.45 8.55 L5.45 8.15 0.55 8.15 0.55 8.55 5.45 8.55 M11.3 8.55 L11.3 8.15 6.45 8.15 6.45 8.55 11.3 8.55 M17.3 8.55 L17.3 8.15 12.4 8.15 12.4 8.55 17.3 8.55 M29.2 8.55 L29.2 8.15 24.3 8.15 24.3 8.55 29.2 8.55 M23.2 8.55 L23.2 8.15 18.25 8.15 18.25 8.55 23.2 8.55 M35.1 8.55 L35.1 8.15 30.2 8.15 30.2 8.55 35.1 8.55 M47.0 8.55 L47.0 8.15 42.05 8.15 42.05 8.55 47.0 8.55 M41.05 8.55 L41.05 8.15 36.2 8.15 36.2 8.55 41.05 8.55 M58.7 8.55 L58.7 8.15 53.75 8.15 53.75 8.55 58.7 8.55 M52.65 8.55 L52.65 8.15 47.75 8.15 47.75 8.55 52.65 8.55 M64.55 8.55 L64.55 8.15 59.65 8.15 59.65 8.55 64.55 8.55 M69.6 14.5 L27.3 14.5 Q27.2 15.25 26.55 15.9 L25.95 16.35 4.6 17.4 -1.9 17.3 -4.3 17.15 -4.2 16.95 -16.9 16.7 -17.65 16.95 -17.75 17.4 Q-17.4 17.65 -17.15 18.4 L-16.95 19.15 Q-17.0 20.9 -18.85 21.35 L-20.15 21.55 -20.75 21.55 -20.85 21.55 -21.65 21.5 -22.45 21.35 -23.75 20.8 Q-24.3 20.3 -24.55 19.4 -24.8 18.55 -25.35 18.0 L-25.8 17.7 Q-29.35 18.85 -31.55 21.8 L-32.7 23.75 -33.05 24.55 -38.6 23.35 -39.1 23.05 Q-41.35 23.3 -54.45 27.95 L-64.6 31.65 -67.05 32.55 -67.35 32.25 -69.1 19.15 -69.55 17.45 -69.15 16.7 -37.55 13.4 -36.9 13.65 -35.8 14.1 -35.5 14.3 -34.5 14.6 Q-32.65 14.8 -30.15 13.5 L-27.5 12.65 -27.5 12.35 -26.85 12.1 -26.6 11.7 -25.85 11.4 -25.4 11.65 -24.65 11.4 -24.45 11.65 -18.5 10.0 -17.85 9.7 -18.25 9.55 -23.15 10.8 -23.15 10.65 -23.7 10.15 Q-24.1 9.6 -23.35 9.2 L-22.85 9.1 Q-22.3 9.15 -21.8 9.7 L-19.8 9.65 -18.85 9.25 -18.45 8.95 -17.0 8.8 -16.9 8.8 -5.1 7.9 68.1 7.9 68.1 7.5 68.5 7.5 68.5 7.9 69.6 7.9 69.6 14.5" fill="#ffffff" fill-rule="evenodd" stroke="none"/>
  </g>
</svg>
