<?xml version="1.0" encoding="UTF-8" standalone="no"?>
<svg xmlns:xlink="http://www.w3.org/1999/xlink" height="34.5px" width="65.2px" xmlns="http://www.w3.org/2000/svg">
  <g transform="matrix(1.0, 0.0, 0.0, 1.0, 32.6, -2.75)">
    <path d="M-15.5 5.8 L-15.5 6.05 -14.75 6.05 -14.75 6.45 -13.95 6.45 -13.95 6.25 10.8 6.25 11.1 6.55 22.55 6.65 23.7 6.8 23.7 6.65 25.75 6.65 25.75 6.85 26.0 6.85 26.0 6.55 26.2 6.55 26.2 5.75 25.85 5.75 25.85 2.75 27.9 2.75 28.55 5.75 28.4 5.75 28.4 6.55 28.55 6.55 28.55 9.3 28.2 9.3 28.2 10.3 28.4 10.3 28.4 10.5 29.0 10.5 29.0 10.1 29.7 10.1 29.7 10.5 32.6 10.5 32.6 12.65 29.7 12.65 29.7 12.95 29.0 12.95 29.0 12.65 28.4 12.65 27.95 13.15 26.45 13.15 26.45 12.65 25.95 12.65 25.4 13.55 4.6 15.6 4.3 15.45 4.25 14.15 3.7 14.2 Q3.15 14.4 3.05 15.05 L3.45 16.8 3.5 17.35 3.25 17.45 Q3.25 21.1 6.5 28.5 L9.8 35.1 6.35 37.25 Q3.4 33.05 0.95 25.7 L-0.45 21.0 -0.95 19.1 -1.1 19.2 -1.7 19.2 -3.3 19.6 -3.75 19.75 -4.1 19.95 -4.25 20.15 -5.45 23.25 -5.6 23.5 -6.5 24.35 -6.7 24.45 -10.8 24.45 -11.3 24.3 -12.0 23.9 -12.35 23.75 -12.9 23.75 -13.6 24.2 -16.3 30.5 Q-16.15 31.15 -16.45 31.45 L-16.75 31.55 Q-19.7 30.35 -21.6 29.0 L-22.65 28.2 -22.95 27.9 -17.85 19.55 -17.8 19.5 Q-17.4 18.35 -18.25 17.5 L-18.9 17.0 -19.2 16.8 -20.05 16.7 -20.6 16.7 -21.45 16.0 -25.05 16.0 -25.6 16.75 -26.5 16.75 -27.2 16.45 -27.35 15.6 -27.05 14.35 -27.55 14.0 -28.25 15.05 -28.45 16.3 -29.0 19.1 Q-30.0 23.2 -30.9 23.35 L-31.2 23.45 -31.55 23.4 Q-32.3 23.3 -32.6 22.5 L-32.15 20.15 Q-31.65 17.65 -31.65 16.65 L-31.75 13.15 Q-31.8 9.5 -31.5 8.9 L-30.45 8.0 -26.75 9.05 -26.5 9.05 -25.1 6.3 -20.7 6.3 -20.7 7.35 -19.5 7.35 -19.5 4.85 -18.35 4.05 -17.15 4.05 -17.05 3.55 -14.6 4.5 -15.35 5.9 -15.5 5.8 -15.5 5.75 -15.55 5.75 -15.5 5.8 M-11.55 19.55 L-12.7 21.9 -12.7 22.45 -10.75 23.7 -7.05 23.75 -6.4 23.35 -6.1 22.9 -5.0 20.0 -5.35 19.55 -9.15 19.55 Q-9.95 20.85 -9.65 22.2 L-9.2 23.3 Q-10.35 23.0 -10.7 21.25 L-10.8 20.05 -10.8 19.55 -11.55 19.55" fill="#ffffff" fill-rule="evenodd" stroke="none"/>
  </g>
</svg>
