<?xml version="1.0" encoding="UTF-8" standalone="no"?>
<svg xmlns:xlink="http://www.w3.org/1999/xlink" height="35.85px" width="131.95px" xmlns="http://www.w3.org/2000/svg">
  <g transform="matrix(1.0, 0.0, 0.0, 1.0, 65.95, -1.95)">
    <path d="M43.6 9.15 L43.6 7.15 43.0 7.15 43.0 5.6 41.9 5.45 39.45 8.55 39.45 9.15 43.6 9.15 M62.0 12.95 L61.7 12.95 61.7 13.1 61.0 13.1 61.0 12.95 60.75 12.95 60.75 13.1 59.95 13.1 59.95 12.95 44.5 12.95 44.5 13.15 45.25 13.35 45.25 14.5 44.45 14.5 44.0 15.05 43.0 15.05 43.0 12.95 39.9 12.95 39.9 14.45 39.35 14.8 39.6 15.35 39.8 17.4 39.3 17.5 38.55 17.05 38.55 15.2 38.95 14.8 38.5 14.15 37.6 14.15 37.6 14.65 37.0 15.4 -1.05 16.1 -1.05 14.6 -1.65 14.6 -1.65 14.8 -3.7 15.35 -3.7 14.25 -4.25 14.25 -4.25 14.95 -4.8 15.2 -5.7 16.2 -5.65 19.55 -5.6 19.7 -5.2 20.15 -5.3 20.7 -6.05 20.7 -6.45 20.85 Q-6.0 28.0 -4.45 32.45 L-4.0 33.6 -3.6 34.6 -11.05 37.8 -12.85 32.45 Q-14.1 27.8 -14.4 22.65 L-14.5 22.7 -22.95 22.75 -23.5 23.9 -23.1 24.95 -23.4 25.35 -24.45 25.4 -26.3 29.1 -26.4 29.55 -26.0 30.4 -26.6 30.95 -33.15 29.75 -33.5 29.4 -27.4 20.1 Q-27.15 19.75 -27.1 18.85 L-27.1 18.0 Q-27.4 15.85 -30.35 15.85 L-36.6 17.05 -63.35 25.55 -64.55 25.25 -65.95 9.4 -64.95 8.7 -28.9 9.15 -28.9 7.4 -26.85 7.4 -25.95 4.8 -25.55 4.8 -25.55 3.1 -24.0 1.95 -23.35 1.95 -5.25 3.75 Q-4.25 4.15 -3.95 4.9 L-3.85 8.0 -4.25 8.4 -4.25 9.0 -3.7 9.0 -3.7 8.1 -1.65 8.6 -1.05 8.6 -1.05 7.2 36.95 8.0 37.6 8.4 37.6 8.65 38.25 8.65 42.25 3.65 42.5 3.45 43.05 3.1 Q43.95 2.75 44.5 3.7 L44.5 10.6 59.95 10.6 59.95 10.4 60.75 10.4 60.75 10.6 61.0 10.6 61.0 10.4 61.7 10.4 61.7 10.6 62.0 10.6 62.0 10.4 66.0 10.4 66.0 13.1 62.0 13.1 62.0 12.95 M39.9 10.6 L43.0 10.6 43.0 10.15 39.9 10.15 39.9 10.6 M-21.8 4.95 L-21.8 4.9 -21.85 4.9 -21.8 4.95 M-20.75 18.45 L-21.05 18.65 Q-21.6 19.25 -21.6 20.0 -21.6 20.85 -21.05 21.45 -20.4 22.05 -19.6 22.05 L-17.15 22.05 Q-16.3 22.05 -15.7 21.45 -15.15 20.85 -15.15 20.0 -15.15 19.4 -15.5 18.85 L-15.7 18.65 -16.0 18.4 Q-16.55 18.0 -17.15 18.0 L-18.65 18.0 Q-19.65 20.2 -18.4 21.7 -19.85 21.2 -19.8 18.1 -20.35 18.1 -20.75 18.45 M-5.65 4.8 L-6.05 4.5 -18.7 4.45 Q-19.45 4.45 -19.75 5.1 L-19.9 5.7 Q-19.35 5.7 -19.15 6.2 -18.95 6.35 -18.9 6.6 L-7.0 6.65 Q-7.0 6.05 -6.1 5.95 L-5.3 5.9 -5.3 5.6 Q-5.3 5.1 -5.65 4.8 M-28.35 12.85 L-28.35 12.65 -28.65 12.65 -28.35 12.85" fill="#ffffff" fill-rule="evenodd" stroke="none"/>
  </g>
</svg>
