<?xml version="1.0" encoding="UTF-8" standalone="no"?>
<svg xmlns:xlink="http://www.w3.org/1999/xlink" height="27.9px" width="138.05px" xmlns="http://www.w3.org/2000/svg">
  <g transform="matrix(1.0, 0.0, 0.0, 1.0, 69.0, -5.5)">
    <path d="M-58.8 31.2 L-58.85 31.25 -69.0 31.25 -69.0 16.0 -68.95 16.0 -68.95 15.75 Q-68.95 15.05 -68.45 14.95 L-68.15 14.9 -51.25 14.9 -51.25 14.85 -51.05 14.85 -51.05 14.9 -49.8 14.9 -49.8 14.8 -45.95 14.8 -44.8 14.05 -43.8 13.45 -42.9 12.9 -41.75 12.9 -41.75 13.15 -41.35 13.15 -41.35 12.9 -40.55 12.9 -40.55 13.15 -40.1 13.15 -40.1 12.9 -39.35 12.9 -39.35 13.15 -38.95 13.15 -38.95 12.9 -38.15 12.9 -38.15 13.15 -37.7 13.15 -37.7 12.9 -36.9 12.9 -36.9 13.15 -36.5 13.15 -36.5 12.9 -35.7 12.9 -35.7 13.15 -35.25 13.15 -35.25 12.9 -34.75 12.9 -34.75 10.65 -36.95 10.65 -37.9 11.55 -39.1 11.55 -39.1 11.45 -39.65 11.45 -39.65 11.65 -40.35 11.65 -40.35 11.4 -41.35 11.4 -41.35 11.55 -46.1 11.55 -46.1 11.4 -46.3 11.4 -46.3 11.7 -46.6 11.7 -46.6 11.4 -47.0 11.4 -47.0 6.7 -46.6 6.7 -46.6 6.5 -46.3 6.5 -46.3 6.7 -46.1 6.7 -46.1 6.5 -41.35 6.5 -41.35 6.95 -40.35 6.95 -40.35 6.55 -39.65 6.55 -39.65 6.7 -39.1 6.7 -39.1 6.5 -37.9 6.5 -37.0 7.5 -30.8 7.5 -30.8 6.45 -30.2 6.1 -27.8 6.1 -27.35 6.45 -27.35 7.5 -20.8 7.5 -11.75 5.5 -6.6 5.5 -6.6 12.5 -11.75 12.5 -21.0 10.65 -23.0 10.65 -23.0 12.9 -22.45 12.9 -22.45 13.15 -22.0 13.15 -22.0 12.9 -21.2 12.9 -21.2 13.15 -20.8 13.15 -20.8 12.9 -20.0 12.9 -20.0 13.15 -19.55 13.15 -19.55 12.9 -18.8 12.9 -18.8 13.15 -18.35 13.15 -18.35 12.9 -17.7 12.9 -17.7 13.15 -17.3 13.15 -17.3 12.9 -16.55 12.9 -16.55 13.15 -16.1 13.15 -16.1 12.9 -15.3 12.9 -15.3 13.15 -14.85 13.15 -14.85 12.9 -14.15 12.9 -14.15 13.15 -13.7 13.15 -13.7 12.9 -12.95 12.9 -12.95 13.1 -12.5 13.1 -12.5 12.9 -12.05 12.9 -10.85 13.45 -9.6 14.05 -9.4 14.15 -9.4 14.65 -4.5 14.65 -4.5 14.85 1.85 14.85 1.85 14.5 58.05 14.5 Q58.05 13.6 58.95 13.6 L69.05 13.6 69.05 19.0 58.95 19.0 Q58.1 19.0 58.05 18.2 L1.85 18.2 1.85 18.0 1.1 18.0 1.1 19.7 Q1.1 20.55 0.2 20.55 L-4.8 20.55 -5.45 20.35 -5.45 21.0 -6.65 21.0 -6.65 21.3 -6.9 21.3 -6.9 22.2 -6.8 22.65 -6.8 23.15 -6.85 23.55 -6.65 23.65 -6.6 23.65 -6.6 22.45 -6.75 22.45 -6.75 21.6 -4.6 21.6 -4.6 21.95 -3.15 21.95 -3.15 22.05 6.35 22.05 6.3 21.9 Q6.25 21.55 6.35 21.4 6.65 21.1 6.95 21.15 L7.8 21.4 8.15 21.4 8.15 21.55 8.25 21.6 Q8.55 21.65 8.5 22.05 L9.4 22.05 9.4 21.9 11.1 21.9 11.1 21.95 11.9 21.65 11.9 21.95 12.0 21.95 Q12.35 21.95 12.5 22.25 L12.7 23.0 12.5 23.75 12.0 24.1 11.85 24.1 11.85 24.4 11.1 23.95 11.1 24.15 9.4 24.15 9.4 23.75 8.15 23.75 8.15 24.05 7.35 24.05 7.35 23.75 -3.15 23.75 -3.15 24.25 -4.7 24.25 -4.7 24.5 -7.2 24.5 -7.6 24.05 -8.9 24.05 -9.5 23.75 -9.75 23.15 -9.75 22.65 -9.5 22.0 Q-9.3 21.85 -9.05 21.8 L-9.05 20.15 -10.65 20.15 -10.65 32.35 -23.0 33.4 -23.0 22.3 -23.3 22.65 -24.55 25.45 Q-24.75 25.8 -25.4 25.75 L-27.8 26.3 -29.55 26.05 -30.75 25.6 -31.4 25.55 -31.55 25.6 -32.3 27.2 -34.35 31.75 -34.1 32.25 -34.25 32.75 -36.15 32.4 -35.95 32.05 -37.55 31.25 -37.8 31.65 -39.0 30.75 -39.5 30.2 -35.6 23.4 Q-35.45 21.45 -36.5 21.05 L-37.3 20.85 -37.55 20.85 -40.35 20.85 -40.6 21.2 -41.15 21.4 -41.25 21.4 -41.3 21.6 -41.35 21.8 -41.55 22.15 Q-41.75 22.35 -42.1 22.4 L-42.15 22.4 -42.75 22.15 -42.95 21.65 -43.05 21.4 -43.1 21.4 -43.7 21.2 -43.75 21.2 -43.9 20.85 -57.2 20.85 Q-58.3 20.9 -59.5 21.85 -60.95 23.1 -61.05 24.95 -61.15 27.0 -60.2 28.4 -59.6 29.3 -58.85 29.65 -58.1 30.0 -58.8 31.2 M64.05 15.15 Q63.85 15.15 63.65 15.5 L63.55 16.35 63.65 17.15 Q63.85 17.5 64.05 17.5 L64.4 17.15 64.6 16.35 64.4 15.5 64.05 15.15 M62.85 17.85 L62.85 17.45 62.3 17.45 62.3 17.85 62.85 17.85 M61.7 17.45 L61.15 17.45 61.15 17.85 61.7 17.85 61.7 17.45 M61.15 16.75 L61.7 16.75 61.7 15.9 61.15 15.9 61.15 16.75 M62.85 16.75 L62.85 15.9 62.3 15.9 62.3 16.75 62.85 16.75 M62.85 14.8 L62.3 14.8 62.3 15.25 62.85 15.25 62.85 14.8 M61.7 14.8 L61.15 14.8 61.15 15.25 61.7 15.25 61.7 14.8 M67.45 15.15 Q67.25 15.15 67.1 15.5 66.95 15.85 66.95 16.35 L67.1 17.15 67.45 17.5 67.8 17.15 68.0 16.35 67.8 15.5 67.45 15.15 M65.7 15.15 Q65.5 15.15 65.35 15.5 65.2 15.85 65.2 16.35 65.2 16.8 65.35 17.15 L65.7 17.5 66.05 17.15 66.25 16.35 66.05 15.5 65.7 15.15 M-27.35 10.95 L-30.8 10.95 -30.8 10.65 -32.2 10.65 -32.2 12.9 -32.15 12.9 -32.15 13.15 -31.7 13.15 -31.7 12.9 -30.9 12.9 -30.9 13.15 -30.5 13.15 -30.5 12.9 -29.75 12.9 -29.75 13.15 -29.3 13.15 -29.3 12.9 -28.5 12.9 -28.5 13.15 -28.1 13.15 -28.1 12.9 -27.35 12.9 -27.35 13.15 -26.9 13.15 -26.9 12.9 -26.1 12.9 -26.1 13.15 -25.7 13.15 -25.7 12.9 -25.55 12.9 -25.55 10.65 -27.35 10.65 -27.35 10.95 M-38.8 20.2 L-38.7 19.35 -40.45 19.35 -40.7 19.85 -40.6 19.95 -40.6 20.0 -40.4 20.2 -38.8 20.2 M-30.75 24.75 L-29.65 25.3 -28.0 25.7 -26.45 25.45 -25.45 25.0 -25.25 24.0 Q-25.2 23.3 -25.3 22.95 L-25.75 22.45 -27.95 22.35 -28.0 22.4 -28.6 23.7 Q-28.8 24.55 -28.25 25.1 -28.6 25.1 -28.9 24.5 L-29.05 23.45 -29.0 22.7 -29.4 22.3 -29.8 22.3 -30.2 22.8 -30.9 24.35 -30.75 24.75 M-56.0 19.35 L-56.4 20.2 -54.65 20.2 -54.2 19.35 -56.0 19.35 M-58.3 19.35 L-58.8 20.2 -57.15 20.2 -56.7 19.35 -58.3 19.35 M-60.35 20.9 L-59.55 20.25 -59.05 19.35 -59.85 19.35 Q-60.3 19.4 -60.75 20.15 L-61.05 21.2 Q-60.95 21.4 -60.35 20.9 M-51.2 19.35 L-51.65 20.2 -50.1 20.2 -49.6 19.35 -51.2 19.35 M-53.5 19.35 L-53.95 20.2 -52.4 20.2 -51.9 19.35 -53.5 19.35 M-46.5 19.35 L-46.95 20.2 -45.25 20.2 -44.8 19.35 -46.5 19.35 M-48.9 19.35 L-49.35 20.2 -47.65 20.2 -47.2 19.35 -48.9 19.35 M-43.75 19.95 L-43.55 19.85 -43.9 19.35 -44.1 19.35 -44.5 20.2 -43.85 20.2 -43.75 19.95" fill="#ffffff" fill-rule="evenodd" stroke="none"/>
  </g>
</svg>
