<?xml version="1.0" encoding="UTF-8" standalone="no"?>
<svg xmlns:xlink="http://www.w3.org/1999/xlink" height="31.35px" width="142.5px" xmlns="http://www.w3.org/2000/svg">
  <g transform="matrix(1.0, 0.0, 0.0, 1.0, 71.25, -5.0)">
    <path d="M68.3 20.45 L68.3 20.8 52.15 22.95 43.8 22.95 37.8 21.55 31.4 21.55 29.4 22.2 29.4 21.25 28.85 21.25 28.85 21.55 17.6 21.55 Q16.75 21.6 16.3 22.15 15.75 22.65 15.5 23.55 L15.4 23.8 Q15.2 24.9 15.3 25.85 L15.15 26.75 15.0 27.15 Q14.65 27.6 12.25 28.5 L9.95 29.3 9.95 35.45 Q9.8 36.15 9.1 36.35 L6.1 36.35 5.7 36.1 Q5.3 35.65 5.4 34.7 L5.85 29.4 5.7 28.95 5.6 28.75 Q5.15 28.05 4.0 28.05 L3.95 27.45 4.8 26.9 4.9 26.2 4.05 25.1 3.55 25.1 Q3.0 25.2 2.9 25.4 L2.8 24.9 3.1 24.7 3.85 24.5 3.85 24.0 3.6 23.9 3.2 23.5 3.2 22.3 2.4 22.0 0.8 23.05 -5.0 23.05 -5.0 23.55 Q-5.0 24.4 -5.5 25.15 L-5.95 25.8 -5.95 32.9 Q-5.95 33.25 -6.45 33.55 L-6.9 33.85 -9.4 33.85 Q-9.85 33.85 -10.1 33.4 L-10.35 32.9 -10.35 25.85 -11.05 24.95 -11.65 24.0 -11.7 23.55 -11.95 23.55 -11.95 23.65 -12.1 23.65 -12.1 24.65 -12.95 24.65 -12.95 23.65 -13.15 23.65 -13.15 23.4 -29.8 23.4 -35.1 22.5 -37.7 22.5 -37.7 22.7 -37.85 22.7 -37.85 23.85 -38.75 23.85 -38.75 22.7 -39.05 22.7 -39.05 22.5 -50.85 22.5 -50.85 22.9 -51.1 22.9 -51.1 23.65 -52.1 23.65 -52.1 22.9 -53.4 22.9 -53.4 22.25 -54.75 22.25 -68.2 24.25 -69.8 24.25 -69.8 26.2 -71.25 26.2 -71.25 13.6 -69.8 13.6 -69.8 15.75 -68.2 15.75 -54.75 17.6 -54.0 17.6 -54.0 15.75 -53.2 15.75 -52.65 16.3 -52.65 16.85 -50.85 16.85 -50.85 17.1 -39.05 17.1 -39.05 16.85 -37.7 16.85 -37.7 17.1 -35.1 17.1 -29.8 15.85 -13.15 15.85 -13.15 15.75 -11.05 15.75 -11.05 16.15 -8.1 16.15 -8.1 14.35 -7.25 13.5 -7.25 13.0 -9.7 13.0 -9.7 13.45 -10.4 13.45 -10.4 13.0 -10.65 13.0 -10.65 13.45 -11.3 13.45 -11.3 13.0 -11.55 13.0 -11.55 13.85 -12.25 13.85 -12.25 8.4 -11.55 8.4 -11.55 9.2 -11.3 9.2 -11.3 8.8 -10.65 8.8 -10.65 9.2 -10.4 9.2 -10.4 8.8 -9.7 8.8 -9.7 8.95 -6.75 8.95 -6.75 9.75 -5.4 9.75 -5.4 7.7 -5.2 7.15 -2.2 5.6 -2.2 5.0 0.85 5.0 1.65 5.8 2.4 5.8 2.4 9.15 1.5 9.15 1.5 9.85 0.85 10.55 0.85 11.2 -0.8 11.2 -1.55 11.95 -1.55 12.2 -1.15 12.2 -1.15 13.15 -1.55 13.15 -1.55 13.5 -1.2 13.5 -0.45 14.25 -0.45 16.15 0.8 16.15 3.15 17.2 20.05 17.2 20.05 15.3 21.05 14.3 25.25 14.3 25.25 11.15 25.1 10.85 25.1 10.1 26.05 10.1 26.65 14.3 27.05 14.75 27.05 15.05 27.2 15.2 27.2 17.2 28.85 17.2 28.85 17.4 29.4 17.4 29.4 16.7 31.4 17.15 37.8 17.15 43.8 16.0 51.95 16.0 68.3 18.1 68.3 18.3 71.25 18.65 71.25 20.15 68.3 20.45 M14.05 23.55 L13.55 23.6 12.2 24.05 Q10.8 24.5 11.3 25.8 11.5 26.45 12.05 27.05 L11.9 27.3 10.5 26.6 10.5 28.85 14.5 27.15 14.65 26.55 14.65 24.15 14.05 23.55" fill="#ffffff" fill-rule="evenodd" stroke="none"/>
  </g>
</svg>
