<?xml version="1.0" encoding="UTF-8" standalone="no"?>
<svg xmlns:xlink="http://www.w3.org/1999/xlink" height="35.9px" width="140.45px" xmlns="http://www.w3.org/2000/svg">
  <g transform="matrix(1.0, 0.0, 0.0, 1.0, 70.2, -2.5)">
    <path d="M65.95 12.4 L66.25 12.4 66.25 12.1 70.25 12.1 70.25 15.0 66.25 15.0 66.25 14.7 65.95 14.7 65.95 15.0 63.0 15.0 63.0 14.7 43.8 14.7 43.8 16.0 43.45 16.0 43.45 18.9 41.45 18.9 41.45 19.6 39.85 19.6 39.85 21.15 37.35 21.15 37.35 21.7 39.4 22.0 Q40.05 22.2 40.3 22.65 L40.45 23.6 Q40.45 24.9 37.7 25.05 L34.95 25.05 34.95 24.05 14.7 24.05 Q14.4 24.65 13.3 24.85 L12.25 25.0 Q10.95 25.0 10.35 24.5 L10.3 24.45 9.0 24.45 9.0 24.0 8.1 24.0 7.0 25.05 4.6 25.05 4.6 20.2 1.7 20.2 1.7 21.25 1.95 21.25 Q2.7 21.25 2.7 22.0 L2.7 23.5 Q2.7 24.25 1.95 24.25 L-11.7 24.25 Q-12.45 24.25 -12.45 23.5 L-12.45 22.0 Q-12.45 21.25 -11.7 21.25 L-11.1 21.25 -11.1 20.25 -12.45 20.25 -12.45 20.1 -13.25 20.1 -13.25 22.55 Q-13.25 23.3 -13.8 23.85 L-13.8 27.15 Q-14.0 28.45 -14.85 28.85 L-15.7 29.1 -21.25 29.1 -21.9 28.95 -22.1 28.85 -23.15 28.85 -23.45 29.05 -26.55 35.5 -27.0 36.95 -26.95 37.35 Q-26.65 37.75 -26.8 38.1 L-26.95 38.35 Q-30.2 38.55 -33.25 37.25 L-35.0 36.35 -35.55 35.95 -30.0 27.95 Q-29.1 26.75 -29.05 25.5 -29.05 23.75 -31.25 23.3 L-31.85 23.15 Q-34.55 22.8 -35.55 22.0 L-36.0 21.45 -36.05 21.25 -51.95 20.7 Q-54.3 20.6 -55.15 21.7 -55.7 22.5 -55.5 23.75 -55.4 24.45 -55.65 24.8 L-55.95 25.05 -67.55 26.75 -67.9 25.9 -68.65 25.6 -70.0 11.85 -70.2 9.45 -68.75 9.45 -68.75 9.05 -67.25 9.05 -67.25 9.4 -66.2 9.4 -66.2 9.05 -64.05 9.05 Q-60.45 11.1 -55.3 11.9 L-50.9 12.3 Q-47.05 12.3 -43.85 11.5 L-41.5 10.65 -40.85 10.6 -40.8 10.8 -39.35 10.0 -33.0 10.0 -33.0 8.85 -33.45 8.05 Q-33.6 7.35 -32.15 7.65 L-31.5 7.95 Q-30.75 8.35 -30.55 8.75 L-29.65 8.75 -29.65 7.2 -28.5 7.2 -28.5 7.95 -28.15 7.95 -28.15 7.2 -26.95 7.2 -26.95 7.95 -26.55 7.95 -26.55 7.2 -25.4 7.2 -25.4 7.95 -25.3 7.95 -25.3 3.5 -24.25 2.7 Q-23.0 2.3 -21.75 2.7 L-21.55 2.7 -16.65 4.4 -16.65 7.95 -16.15 7.95 -16.15 7.2 -15.05 7.2 -15.05 7.95 -14.65 7.95 -14.65 7.2 -13.5 7.2 -13.5 7.95 -13.05 7.95 -13.05 7.2 -11.95 7.2 -11.95 7.95 -11.45 7.95 -11.45 7.2 -10.3 7.2 -10.3 7.95 -9.95 7.95 -9.95 7.2 -8.8 7.2 -8.8 7.95 -8.35 7.95 -8.35 7.2 -7.2 7.2 -7.2 7.95 -6.75 7.95 -6.75 7.2 -5.6 7.2 -5.6 7.95 -5.2 7.95 -5.2 7.2 -4.1 7.2 -4.1 7.95 -3.65 7.95 -3.65 7.2 -2.5 7.2 -2.5 7.95 -2.05 7.95 -2.05 7.2 -0.85 7.2 -0.85 7.95 -0.5 7.95 -0.5 7.2 0.65 7.2 0.65 7.95 1.05 7.95 1.05 7.2 2.2 7.2 2.2 8.65 3.85 8.65 3.85 9.0 4.65 9.0 4.65 8.65 9.5 8.65 9.5 9.05 10.05 9.05 10.05 8.35 11.0 8.35 11.0 9.25 12.4 9.25 12.4 8.25 13.15 8.25 13.15 9.9 13.35 9.9 13.35 11.3 13.45 11.3 13.45 12.4 39.5 12.4 39.5 12.1 40.5 11.05 40.5 6.6 41.05 3.55 42.75 3.55 42.75 11.05 43.8 12.1 43.8 12.4 63.0 12.4 63.0 12.1 65.95 12.1 65.95 12.4 M34.6 21.95 L34.6 20.35 28.15 20.35 28.15 21.95 34.6 21.95 M6.4 20.75 L8.05 22.1 9.0 22.1 9.0 21.35 Q7.5 20.4 6.4 20.75 M-16.0 23.9 L-18.95 23.9 Q-20.55 26.25 -18.75 28.15 -20.55 28.45 -22.2 24.75 L-22.6 25.35 -22.95 26.1 -22.95 27.45 Q-22.7 28.25 -21.45 28.45 L-15.75 28.45 Q-14.7 28.15 -14.7 26.9 L-14.7 24.3 -15.0 24.4 Q-15.6 24.4 -16.0 23.9 M-9.3 20.1 L-9.3 21.25 -6.05 21.25 -6.05 20.1 -9.3 20.1" fill="#ffffff" fill-rule="evenodd" stroke="none"/>
  </g>
</svg>
