<?xml version="1.0" encoding="UTF-8" standalone="no"?>
<svg xmlns:xlink="http://www.w3.org/1999/xlink" height="34.5px" width="129.8px" xmlns="http://www.w3.org/2000/svg">
  <g transform="matrix(1.0, 0.0, 0.0, 1.0, 64.9, -2.25)">
    <path d="M52.9 3.15 L64.9 5.15 64.9 13.15 52.9 15.15 52.9 15.65 49.2 15.65 49.2 14.8 48.6 14.8 48.6 15.65 36.35 15.65 36.35 16.4 32.95 16.4 32.95 15.65 27.75 16.25 27.0 16.95 Q27.0 21.85 25.35 23.85 L24.2 24.8 23.6 24.95 12.65 24.95 8.85 35.9 8.0 36.75 0.4 36.75 Q-0.45 36.55 -0.9 35.75 L-1.15 34.95 5.45 19.15 Q6.45 16.6 3.7 14.45 L0.8 12.85 0.8 9.75 -35.65 9.75 -36.5 10.45 -38.55 10.45 -38.55 11.5 -42.55 11.5 -42.55 10.05 -44.8 10.05 Q-45.1 11.9 -46.6 13.15 -47.55 13.85 -48.45 14.05 -49.8 14.05 -51.6 14.75 -51.5 26.45 -49.15 35.5 L-55.0 35.5 -55.1 36.2 -63.8 36.2 Q-63.9 34.05 -61.95 23.95 L-60.0 14.25 Q-59.65 11.8 -61.85 11.2 L-64.1 11.15 Q-65.1 8.85 -64.85 6.75 L-64.35 5.05 -53.4 5.05 -53.4 3.65 -51.0 3.65 -49.3 5.35 -42.55 5.35 -42.55 4.25 -38.55 4.25 -38.55 5.05 -36.5 5.05 -35.65 5.65 -1.0 5.65 -1.0 4.95 28.4 4.95 29.4 3.4 31.8 3.4 32.95 2.25 36.35 2.25 36.35 2.7 48.6 2.7 48.6 3.45 49.2 3.45 49.2 2.75 52.9 2.75 52.9 3.15 M18.6 17.7 L15.9 17.7 14.5 22.45 15.55 23.45 23.15 23.45 25.25 20.75 25.6 17.7 20.5 17.7 Q19.8 18.25 20.2 20.15 L20.7 21.95 Q19.5 21.2 18.9 19.4 L18.6 17.7" fill="#ffffff" fill-rule="evenodd" stroke="none"/>
  </g>
</svg>
