<?xml version="1.0" encoding="UTF-8" standalone="no"?>
<svg xmlns:xlink="http://www.w3.org/1999/xlink" height="32.85px" width="54.75px" xmlns="http://www.w3.org/2000/svg">
  <g transform="matrix(1.0, 0.0, 0.0, 1.0, 27.35, -2.95)">
    <path d="M-27.35 34.5 L-25.4 33.6 -25.45 33.6 Q-25.45 33.4 -25.1 33.3 L-24.9 33.25 -24.9 33.2 -24.25 33.1 -24.25 33.2 -24.2 33.2 -24.2 33.15 -23.9 33.0 -23.9 32.9 -23.95 32.85 -23.2 32.55 -23.15 32.5 -22.75 32.45 -22.1 32.25 -22.05 32.25 -22.05 32.2 -22.05 32.0 -22.05 31.95 Q-21.8 31.7 -21.25 31.75 L-21.2 31.75 -19.4 31.75 -19.35 31.75 -14.95 31.75 -14.9 31.75 Q-14.55 31.75 -14.5 32.0 L-14.5 32.05 Q-14.6 32.5 -14.05 32.4 L-10.1 32.4 -10.05 32.4 -10.05 32.35 -10.05 32.15 -9.75 32.1 -9.7 32.1 -9.5 32.1 -9.45 32.1 -7.15 32.1 -7.15 32.05 -12.1 30.35 -12.1 30.3 -12.1 29.45 -12.5 29.05 -12.5 29.0 -12.5 26.55 -13.1 26.55 -13.95 26.45 -14.0 26.45 -16.15 24.35 -16.5 23.15 -16.8 21.85 -17.15 21.45 -17.15 21.4 -17.15 20.55 -17.15 20.5 -13.0 20.5 -12.95 20.5 -12.95 19.55 -12.95 19.45 -15.55 16.15 -15.55 16.1 Q-17.15 15.85 -17.95 14.75 -18.6 13.95 -18.6 12.5 L-18.7 12.5 -20.75 12.5 -20.8 12.5 Q-21.7 13.5 -22.75 14.35 L-23.85 14.35 -24.85 14.25 -24.9 14.25 -25.0 13.1 -25.0 13.0 -25.0 11.6 -25.0 11.5 -25.0 10.85 -25.0 10.75 -25.0 9.35 -25.0 9.3 -25.0 9.2 -25.0 8.4 -25.0 8.3 -25.0 6.95 -25.0 6.9 -25.0 5.8 -24.6 5.2 -24.55 3.4 -24.5 3.35 -23.05 3.25 -23.0 3.25 -20.1 3.25 -20.05 3.25 -20.05 3.15 -20.0 3.0 -20.0 2.95 -19.9 2.95 -18.95 2.95 -18.85 2.95 -17.85 2.95 -17.8 2.95 -17.05 2.95 -16.95 2.95 -15.95 2.95 -15.9 2.95 -15.1 2.95 -15.05 2.95 -14.95 2.95 -13.95 2.95 -13.35 2.95 -13.3 2.95 -12.8 3.05 Q-12.8 3.45 -12.3 3.4 L-10.7 3.35 Q-10.55 4.2 -10.65 5.25 L-10.65 5.3 -10.05 5.3 -10.0 5.3 -10.0 5.2 -9.2 5.05 -6.4 5.1 -6.3 5.3 -6.3 5.35 -6.3 5.85 -6.3 5.9 -6.3 6.0 -6.3 6.05 -5.95 6.05 -5.9 6.05 0.3 6.05 0.35 6.05 0.35 5.95 1.5 5.85 1.55 5.85 3.3 5.85 4.95 5.85 7.0 5.85 Q7.25 6.05 7.3 6.6 L7.35 6.6 7.5 6.6 14.1 6.55 15.35 6.45 15.35 6.4 15.4 6.4 15.65 6.35 16.0 6.25 22.6 6.25 26.15 6.25 27.35 6.8 27.4 6.8 27.4 9.0 27.35 9.0 26.2 9.5 22.2 9.5 15.6 9.5 15.55 9.5 15.0 9.2 14.9 9.2 14.7 9.1 14.3 9.1 7.65 9.1 7.55 9.1 6.8 9.1 6.7 9.1 6.65 9.1 5.65 9.1 5.65 9.15 5.65 10.0 5.7 10.0 6.35 10.15 6.5 11.15 6.3 12.1 6.15 12.15 5.65 12.25 5.65 12.45 4.9 13.35 4.85 13.35 4.05 13.35 3.95 13.35 1.55 13.35 1.55 13.4 1.55 18.95 1.15 19.6 -0.3 19.6 -6.95 19.55 -7.35 18.95 -7.35 13.7 -7.4 13.7 -11.05 13.7 -8.15 17.4 -7.75 17.9 -7.65 20.5 -7.6 20.5 -7.5 20.5 -3.05 20.5 -3.05 20.6 -3.05 21.45 -3.15 21.45 -4.0 24.35 -4.05 24.35 -5.9 26.45 -5.9 26.5 -7.55 26.55 -7.55 27.15 -7.55 27.2 -4.4 28.4 -4.4 28.45 -3.35 28.8 -3.1 28.95 -3.1 29.0 -1.9 29.4 -1.85 29.4 0.25 30.25 0.4 30.25 0.45 30.25 1.95 30.9 2.0 30.9 2.05 31.75 4.1 31.85 4.25 32.15 4.25 32.3 4.8 32.5 4.85 32.5 4.85 32.4 4.95 32.35 Q5.6 32.5 6.0 32.85 L6.05 32.95 6.3 33.15 6.35 33.15 6.35 33.05 6.5 33.0 7.2 33.2 7.55 33.6 7.5 33.6 9.45 34.5 9.45 34.55 9.45 35.5 4.85 35.5 4.85 35.75 4.85 35.8 2.75 35.8 -3.9 35.8 -3.95 35.8 -3.95 35.75 -3.95 34.85 -8.1 34.85 -9.5 34.9 Q-10.0 34.95 -10.05 34.6 -11.9 34.5 -13.85 34.55 L-13.95 34.55 Q-13.85 35.1 -13.9 35.75 L-13.9 35.8 -16.0 35.8 -22.65 35.8 -22.7 35.8 -22.7 35.75 -22.7 35.5 -22.75 35.5 -27.35 35.5 -27.35 35.45 -27.35 34.5" fill="#ffffff" fill-rule="evenodd" stroke="none"/>
  </g>
</svg>
