<?xml version="1.0" encoding="UTF-8" standalone="no"?>
<svg xmlns:xlink="http://www.w3.org/1999/xlink" height="33.3px" width="60.8px" xmlns="http://www.w3.org/2000/svg">
  <g transform="matrix(1.0, 0.0, 0.0, 1.0, 30.4, -3.1)">
    <path d="M23.7 19.15 L23.35 21.1 11.5 32.95 12.6 34.05 10.9 35.75 2.35 27.2 4.05 25.5 5.3 26.75 17.15 14.9 17.2 14.95 19.15 14.6 19.25 14.7 21.55 12.4 Q36.65 1.5 26.0 16.85 L23.7 19.15 M-4.0 15.6 L-2.9 17.2 -2.9 33.95 -1.3 33.95 -1.3 36.4 -13.4 36.4 -13.4 33.95 -11.65 33.95 -11.65 17.2 -11.55 17.2 -10.5 15.6 -10.3 15.6 -10.3 12.35 Q-7.35 -6.1 -4.0 12.35 L-4.0 15.6 M-21.0 15.6 L-19.9 17.2 -19.9 33.95 -18.3 33.95 -18.3 36.4 -30.4 36.4 -30.4 33.95 -28.65 33.95 -28.65 17.2 -28.55 17.2 -27.5 15.6 -27.3 15.6 -27.3 12.35 Q-24.35 -6.1 -21.0 12.35 L-21.0 15.6" fill="#ffffff" fill-rule="evenodd" stroke="none"/>
  </g>
</svg>
