<?xml version="1.0" encoding="UTF-8" standalone="no"?>
<svg xmlns:xlink="http://www.w3.org/1999/xlink" height="30.95px" width="56.65px" xmlns="http://www.w3.org/2000/svg">
  <g transform="matrix(1.0, 0.0, 0.0, 1.0, 28.4, -4.3)">
    <path d="M11.95 20.15 L11.95 19.5 11.95 18.8 11.65 18.45 11.4 17.85 11.4 17.55 Q11.4 16.95 11.85 16.4 11.8 15.05 12.25 13.45 12.5 12.5 13.2 11.75 L13.3 11.4 Q13.4 10.55 14.75 9.9 L15.1 9.55 15.2 9.05 15.45 8.7 14.35 8.7 14.4 6.3 14.5 6.3 14.9 4.3 23.0 4.3 27.75 11.15 28.25 14.4 28.05 23.35 27.3 26.5 26.8 26.9 27.1 23.65 26.9 14.7 24.15 9.55 23.05 9.55 23.35 10.05 Q23.8 10.1 24.2 10.5 24.6 10.9 24.6 11.3 L24.55 11.75 24.45 12.0 Q25.05 12.65 25.45 13.75 25.95 14.85 25.7 16.25 26.4 16.85 26.4 17.55 26.4 18.35 25.55 19.0 L25.55 19.7 25.55 20.0 25.55 20.15 25.55 21.35 25.55 21.55 25.55 22.85 25.55 23.05 25.55 24.25 25.55 24.4 25.55 25.15 Q26.4 25.85 26.4 26.6 L25.95 27.75 24.7 32.95 23.75 34.0 Q22.25 35.15 19.2 35.25 15.75 35.35 14.05 34.0 13.3 33.35 13.1 32.7 L11.8 27.7 Q11.4 27.2 11.4 26.6 11.4 26.05 11.75 25.55 L11.95 25.35 11.95 24.4 11.95 23.0 11.95 21.55 11.95 20.15 M-7.85 20.15 L-7.85 19.5 -7.85 18.8 -8.15 18.45 -8.4 17.85 -8.4 17.55 -7.95 16.4 Q-8.0 15.05 -7.55 13.45 -7.3 12.5 -6.6 11.75 L-6.5 11.4 Q-6.4 10.55 -5.05 9.9 L-4.7 9.55 -4.6 9.05 -4.35 8.7 -5.45 8.7 -5.4 6.3 -5.3 6.3 -4.9 4.3 3.2 4.3 7.95 11.15 8.45 14.4 8.25 23.35 7.5 26.5 7.0 26.9 7.3 23.65 7.1 14.7 4.35 9.55 3.25 9.55 3.55 10.05 Q4.0 10.1 4.4 10.5 4.8 10.9 4.8 11.3 L4.75 11.75 4.65 12.0 Q5.25 12.65 5.65 13.75 6.15 14.85 5.9 16.25 6.6 16.85 6.6 17.55 6.6 18.35 5.75 19.0 L5.75 19.7 5.75 20.0 5.75 20.15 5.75 21.35 5.75 21.55 5.75 22.85 5.75 23.05 5.75 24.25 5.75 24.4 5.75 25.15 Q6.6 25.85 6.6 26.6 L6.15 27.75 4.9 32.95 Q4.7 33.55 3.95 34.0 2.45 35.15 -0.6 35.25 -4.05 35.35 -5.75 34.0 -6.5 33.35 -6.7 32.7 L-8.0 27.7 Q-8.4 27.2 -8.4 26.6 -8.4 26.05 -8.05 25.55 L-7.85 25.35 -7.85 24.4 -7.85 23.0 -7.85 21.55 -7.85 20.15 M-27.65 20.15 L-27.65 19.5 -27.65 18.8 -27.95 18.45 -28.2 17.85 -28.2 17.55 -27.75 16.4 Q-27.8 15.05 -27.35 13.45 -27.1 12.5 -26.4 11.75 L-26.3 11.4 Q-26.2 10.55 -24.85 9.9 L-24.5 9.55 -24.4 9.05 -24.15 8.7 -25.25 8.7 -25.2 6.3 -25.1 6.3 -24.7 4.3 -16.6 4.3 -11.85 11.15 -11.35 14.4 -11.55 23.35 -12.3 26.5 -12.8 26.9 -12.5 23.65 -12.7 14.7 -15.45 9.55 -16.55 9.55 -16.25 10.05 Q-15.8 10.1 -15.4 10.5 -15.0 10.9 -15.0 11.3 L-15.05 11.75 -15.15 12.0 Q-14.55 12.65 -14.15 13.75 -13.65 14.85 -13.9 16.25 -13.2 16.85 -13.2 17.55 -13.2 18.35 -14.05 19.0 L-14.05 19.7 -14.05 20.0 -14.05 20.15 -14.05 21.35 -14.05 21.55 -14.05 22.85 -14.05 23.05 -14.05 24.25 -14.05 24.4 -14.05 25.15 Q-13.2 25.85 -13.2 26.6 -13.2 27.2 -13.65 27.75 L-14.9 32.95 Q-15.1 33.55 -15.85 34.0 -17.35 35.15 -20.4 35.25 -23.85 35.35 -25.55 34.0 -26.3 33.35 -26.5 32.7 L-27.8 27.7 Q-28.2 27.2 -28.2 26.6 -28.2 26.05 -27.85 25.55 L-27.65 25.35 -27.65 24.4 -27.65 23.0 -27.65 21.55 -27.65 20.15" fill="#ffffff" fill-rule="evenodd" stroke="none"/>
    <path d="M25.55 20.0 L25.55 20.15 M25.55 21.35 L25.55 21.55 M25.55 22.85 L25.55 23.05 M25.55 24.25 L25.55 24.4 M11.75 25.55 L11.45 25.25 M5.75 20.0 L5.75 20.15 M5.75 21.35 L5.75 21.55 M5.75 22.85 L5.75 23.05 M5.75 24.25 L5.75 24.4 M-8.05 25.55 L-8.35 25.25 M11.95 20.15 L11.45 19.65 M11.45 21.0 L11.95 21.55 M11.95 23.0 L11.45 22.5 M11.45 23.85 L11.95 24.4 M-14.05 20.0 L-14.05 20.15 M-14.05 21.35 L-14.05 21.55 M-14.05 22.85 L-14.05 23.05 M-14.05 24.25 L-14.05 24.4 M-27.85 25.55 L-28.15 25.25 M-7.85 20.15 L-8.35 19.65 M-8.35 21.0 L-7.85 21.55 M-8.35 23.85 L-7.85 24.4 M-7.85 23.0 L-8.35 22.5 M-27.65 20.15 L-28.15 19.65 M-27.65 23.0 L-28.15 22.5 M-27.65 21.55 L-28.15 21.0 M-28.15 23.85 L-27.65 24.4" fill="none" stroke="#000000" stroke-linecap="round" stroke-linejoin="round" stroke-opacity="0.3019608" stroke-width="0.5"/>
  </g>
</svg>
