<?xml version="1.0" encoding="UTF-8" standalone="no"?>
<svg xmlns:xlink="http://www.w3.org/1999/xlink" height="34.4px" width="29.45px" xmlns="http://www.w3.org/2000/svg">
  <g transform="matrix(1.0, 0.0, 0.0, 1.0, 14.7, -2.6)">
    <path d="M3.4 2.6 Q10.1 3.05 12.95 8.15 14.7 11.4 14.7 15.95 14.85 17.6 14.25 17.6 L14.15 17.55 13.75 17.7 13.65 18.15 13.9 19.4 13.85 21.55 Q13.9 22.85 13.6 23.45 L13.6 24.4 Q14.1 24.3 14.15 25.25 L14.15 27.15 14.25 30.55 14.05 31.1 13.6 31.35 13.45 35.8 13.45 35.85 Q13.45 36.4 12.7 36.6 L7.8 37.0 Q4.4 37.0 -0.2 34.85 -4.45 32.85 -5.05 30.9 L-5.65 31.25 Q-6.85 31.85 -8.25 31.85 -11.3 31.85 -13.2 28.0 -14.7 25.1 -14.7 22.75 L-14.45 19.8 Q-14.05 17.45 -13.25 17.7 L-13.3 16.15 Q-13.3 11.0 -11.4 8.3 -8.25 3.6 0.75 2.6 L3.4 2.6" fill="#ffffff" fill-rule="evenodd" stroke="none"/>
  </g>
</svg>
