<?xml version="1.0" encoding="UTF-8" standalone="no"?>
<svg xmlns:xlink="http://www.w3.org/1999/xlink" height="32.8px" width="23.6px" xmlns="http://www.w3.org/2000/svg">
  <g transform="matrix(1.0, 0.0, 0.0, 1.0, 11.8, -3.95)">
    <path d="M10.6 8.85 Q11.8 11.8 11.8 13.0 L11.7 13.2 11.6 13.25 11.45 13.65 11.25 14.1 11.4 14.3 11.55 14.5 11.35 16.35 11.4 17.2 Q11.4 17.9 10.95 17.95 L11.0 18.25 11.0 18.95 11.0 19.7 11.3 20.45 11.6 21.15 11.6 22.65 11.75 24.0 Q11.8 24.85 11.4 25.2 L11.3 25.3 11.15 25.5 11.15 27.2 11.55 27.3 11.6 27.45 Q11.6 29.2 11.25 29.65 L11.1 29.65 11.1 30.3 11.15 31.0 11.2 31.7 Q11.5 31.6 11.6 31.85 L11.65 32.15 11.2 33.95 Q10.45 35.55 9.1 35.55 L8.75 36.0 8.2 36.7 7.5 36.6 7.25 36.6 6.85 36.6 4.7 36.75 3.6 36.65 3.55 36.65 3.45 36.65 2.8 36.15 2.05 35.65 1.95 35.65 -1.95 35.65 -6.55 35.3 Q-7.55 35.2 -7.75 34.95 L-7.85 34.95 Q-8.3 34.95 -8.45 34.15 L-8.6 32.95 -8.7 31.95 -8.8 31.0 -9.7 27.05 -9.7 25.7 -9.4 25.45 Q-7.45 24.8 -6.85 23.35 L-5.9 20.8 -4.8 18.3 -4.65 17.7 -4.5 17.1 -4.45 16.55 -5.1 14.25 -5.0 13.95 -4.95 13.7 -7.1 10.55 -9.1 8.1 -9.25 8.2 Q-9.5 8.2 -9.45 7.9 -9.35 7.45 -9.65 7.2 -9.85 7.0 -10.7 6.8 L-11.6 6.5 -11.7 6.55 -11.8 6.5 Q-9.85 4.85 -6.05 4.0 L-6.0 3.95 Q-4.55 4.05 -2.15 6.9 -0.3 9.05 0.0 9.85 L0.05 9.85 0.55 9.8 1.5 10.0 5.15 9.95 6.0 9.75 6.3 9.7 6.35 9.45 6.25 8.35 5.8 7.15 4.9 4.9 4.85 4.75 4.85 4.6 7.75 5.65 Q9.4 6.35 9.85 7.1 L9.85 7.2 10.6 8.85" fill="#ffffff" fill-rule="evenodd" stroke="none"/>
  </g>
</svg>
