<?xml version="1.0" encoding="UTF-8" standalone="no"?>
<svg xmlns:xlink="http://www.w3.org/1999/xlink" height="33.1px" width="44.15px" xmlns="http://www.w3.org/2000/svg">
  <g transform="matrix(1.0, 0.0, 0.0, 1.0, 22.05, -2.75)">
    <path d="M13.05 3.1 L13.9 5.3 14.7 7.55 15.75 9.4 15.7 10.1 15.7 10.9 15.7 11.25 16.15 11.35 16.5 11.65 Q16.65 11.65 16.8 11.8 L16.85 11.65 Q19.2 16.95 21.05 23.8 L20.8 24.45 20.6 24.9 21.35 27.45 21.85 29.05 22.05 30.4 22.1 30.5 19.6 35.7 19.25 35.75 19.15 35.85 Q18.6 34.9 17.45 34.55 L17.2 34.5 16.15 34.25 16.1 34.25 Q15.65 34.35 15.1 33.6 L14.65 32.85 Q14.5 32.4 15.25 30.55 L15.9 28.5 14.95 26.25 13.85 23.95 13.5 24.0 13.45 24.0 13.5 24.1 11.9 27.85 11.75 27.85 11.2 27.35 Q10.1 26.55 8.95 26.7 L8.8 26.25 8.65 25.45 8.1 23.65 7.75 22.4 7.15 19.7 7.35 18.35 Q7.35 17.05 7.75 15.25 L8.05 13.75 7.25 13.45 6.75 13.4 4.75 9.3 3.25 7.25 3.15 7.0 Q4.0 5.7 7.3 4.2 10.45 2.7 11.7 2.85 L12.4 2.8 13.05 3.1 M-12.7 4.45 Q-10.1 4.8 -9.45 5.5 L-9.45 5.45 Q-9.05 6.05 -8.7 7.35 L-8.4 8.3 -7.9 9.75 -7.9 9.8 -3.6 12.65 -0.65 15.05 -0.55 15.15 -0.5 15.3 -0.45 15.45 -0.35 15.85 -0.2 16.45 -0.15 17.7 Q-0.1 19.15 0.35 20.65 L0.7 21.65 0.5 21.7 0.35 21.75 0.25 21.8 -0.15 21.85 -0.3 21.9 -0.55 22.0 Q-1.05 22.1 -1.9 22.55 L-3.25 23.2 Q-3.9 23.35 -4.15 22.6 L-4.5 21.45 -4.75 20.45 Q-5.1 20.1 -5.8 20.2 L-5.45 22.55 -5.05 25.15 -2.5 31.55 -2.45 31.8 -2.25 32.05 -2.4 32.4 -2.3 32.45 Q-2.25 32.75 -3.85 33.9 -5.45 35.05 -6.1 35.25 L-6.95 34.7 -7.25 34.4 -7.65 34.65 -8.95 35.45 Q-9.5 35.55 -9.9 34.65 L-10.7 34.95 -11.0 35.0 -11.9 35.15 -12.0 35.15 Q-12.45 35.3 -13.75 33.95 -15.0 32.7 -15.5 31.6 L-17.9 27.9 -18.6 24.7 -18.85 23.4 -19.7 20.65 -19.95 19.55 -19.9 19.45 -20.1 19.15 -20.0 18.5 -19.6 17.25 -19.1 15.85 -19.1 15.65 Q-20.3 15.25 -20.7 14.4 L-21.05 13.2 -21.25 12.35 -21.65 11.05 -22.0 10.2 -22.0 9.65 -21.85 9.45 Q-21.8 8.55 -20.85 7.4 -19.55 5.6 -17.05 4.85 L-16.3 4.6 -12.7 4.45" fill="#ffffff" fill-rule="evenodd" stroke="none"/>
  </g>
</svg>
