<?xml version="1.0" encoding="UTF-8" standalone="no"?>
<svg xmlns:xlink="http://www.w3.org/1999/xlink" height="36.2px" width="46.05px" xmlns="http://www.w3.org/2000/svg">
  <g transform="matrix(1.0, 0.0, 0.0, 1.0, 23.0, -1.5)">
    <path d="M12.5 5.55 L13.55 4.55 14.4 3.95 14.5 3.9 14.85 3.65 14.95 3.6 15.1 3.55 17.05 3.75 20.05 3.75 20.3 4.0 20.2 4.15 20.95 5.5 22.1 7.85 23.05 9.95 23.05 14.2 22.45 16.3 21.9 17.85 21.95 19.0 21.6 23.25 20.9 27.8 20.35 32.15 19.95 33.75 19.4 34.35 17.35 35.75 16.25 36.1 15.9 36.05 11.9 35.15 10.3 34.5 9.2 33.95 8.0 32.75 Q7.3 31.75 6.75 30.25 L6.2 28.85 6.15 28.8 5.8 26.95 Q4.75 23.6 4.75 22.95 4.75 20.8 5.9 18.45 L6.55 17.3 6.35 16.3 6.4 14.8 5.95 8.1 6.15 7.35 6.1 7.35 6.2 7.3 6.2 7.2 6.4 7.25 6.55 7.2 8.8 7.3 10.65 7.3 11.1 7.2 11.85 6.3 12.5 5.55 M-21.25 14.8 L-19.6 13.05 -19.25 12.8 -19.55 11.7 -19.55 11.55 -19.65 11.45 -19.3 10.7 -18.35 8.1 -17.15 4.35 -17.25 4.25 -17.15 4.0 -16.25 3.95 -15.6 4.1 -14.85 3.55 -12.25 2.15 -10.65 1.5 -7.4 2.3 Q-4.55 3.15 -4.1 3.85 L-4.05 3.9 -4.1 4.75 -4.05 5.0 -4.05 5.05 -3.3 8.45 -2.75 10.3 Q-3.85 16.75 -5.3 17.45 -5.15 17.7 -5.15 17.85 -5.15 18.6 -8.3 27.1 L-11.55 36.2 -12.55 36.95 Q-13.4 37.5 -15.0 37.7 L-15.05 37.7 -17.15 37.15 Q-19.4 36.45 -20.05 35.9 L-20.9 35.0 -21.7 34.2 -22.05 33.6 -22.35 32.95 -22.55 32.3 -22.25 31.35 -21.75 29.5 -21.9 27.95 -22.45 24.3 -23.0 20.4 -22.85 19.05 Q-22.65 18.35 -22.6 17.3 L-22.5 17.3 -22.0 16.2 -21.25 14.8" fill="#ffffff" fill-rule="evenodd" stroke="none"/>
  </g>
</svg>
