<?xml version="1.0" encoding="UTF-8" standalone="no"?>
<svg xmlns:xlink="http://www.w3.org/1999/xlink" height="34.45px" width="59.45px" xmlns="http://www.w3.org/2000/svg">
  <g transform="matrix(1.0, 0.0, 0.0, 1.0, 29.7, -2.85)">
    <path d="M13.85 4.6 L14.1 6.45 Q14.5 8.95 15.15 10.4 L15.9 12.3 16.65 14.3 17.95 16.85 18.7 18.25 18.7 18.45 19.55 19.25 21.0 21.05 22.9 22.5 25.1 24.0 Q28.6 25.9 29.35 27.25 29.75 27.95 29.75 30.6 L29.75 31.5 29.4 32.2 Q29.0 32.6 27.45 32.85 L22.8 33.65 19.1 33.65 16.2 33.3 15.15 33.05 14.85 33.15 Q13.95 33.15 11.65 31.75 L11.35 31.6 10.55 31.3 9.55 30.8 9.35 30.85 9.15 30.75 5.65 30.75 0.75 30.3 Q-0.85 29.65 -0.95 29.0 -1.25 28.65 -1.35 27.05 L-1.35 25.05 -1.25 21.6 Q-1.1 19.85 -0.4 18.1 L-0.05 14.9 0.2 11.15 -0.35 8.1 -0.85 5.1 -0.85 4.95 -1.05 4.75 -1.3 4.4 0.2 4.25 0.45 4.35 2.65 5.0 4.5 5.75 6.65 6.4 8.75 5.9 10.95 5.3 13.65 4.65 13.85 4.6 M-29.1 2.85 L-27.6 4.1 Q-25.0 6.2 -24.1 6.2 L-23.85 6.15 -23.7 6.2 -21.0 6.2 -17.35 5.75 Q-16.35 5.6 -16.0 5.15 L-15.85 5.1 -15.7 5.1 -15.7 6.05 -15.7 7.7 -15.65 8.2 -15.75 8.85 -15.75 9.95 -15.7 11.9 -15.75 12.85 -15.6 13.75 -15.4 14.1 Q-15.15 14.1 -15.0 14.6 L-14.9 15.75 -14.9 16.1 -14.75 17.3 -14.95 17.9 -15.2 18.55 -15.15 19.35 -15.2 19.6 -13.8 22.9 -11.85 26.9 Q-10.1 29.8 -9.8 30.9 -9.6 31.7 -9.6 34.5 L-9.6 35.25 -9.6 35.4 Q-9.6 36.1 -11.35 36.65 L-15.6 37.2 -18.25 37.15 -18.4 37.3 -20.65 37.25 -25.0 36.75 -25.25 36.65 -25.4 36.65 Q-26.25 36.65 -27.2 34.25 L-27.95 31.85 -28.5 31.4 -28.9 31.05 Q-29.55 30.95 -29.7 30.15 L-29.7 29.25 -29.3 22.95 -28.9 18.35 -29.1 17.9 -29.3 17.35 -29.15 15.1 -28.85 14.6 -28.5 14.15 -28.35 13.0 -29.1 2.85" fill="#ffffff" fill-rule="evenodd" stroke="none"/>
  </g>
</svg>
