<?xml version="1.0" encoding="UTF-8" standalone="no"?>
<svg xmlns:xlink="http://www.w3.org/1999/xlink" height="26.0px" width="109.7px" xmlns="http://www.w3.org/2000/svg">
  <g transform="matrix(1.0, 0.0, 0.0, 1.0, 54.85, -7.5)">
    <path d="M43.45 7.5 L54.85 7.5 54.85 33.5 43.45 33.5 43.45 22.55 34.3 33.5 27.45 25.35 27.45 10.2 34.3 18.45 43.45 7.5 M11.35 18.45 L-1.2 33.5 -3.45 33.5 -3.45 21.15 0.0 17.05 0.0 7.5 11.35 7.5 11.35 18.45 M25.2 7.5 L25.2 33.5 13.75 33.5 13.75 7.5 25.2 7.5 M-9.15 17.05 L-5.75 21.15 -5.75 33.5 -8.0 33.5 -20.55 18.45 -20.55 7.5 -9.15 7.5 -9.15 17.05 M-34.3 17.05 L-34.3 7.5 -22.9 7.5 -22.9 33.5 -34.3 33.5 -34.3 23.9 -41.1 23.9 -41.1 17.05 -34.3 17.05 M-43.35 33.5 L-54.85 33.5 -54.85 7.5 -43.35 7.5 -43.35 33.5" fill="#ffffff" fill-rule="evenodd" stroke="none"/>
  </g>
</svg>
