<?xml version="1.0" encoding="UTF-8" standalone="no"?>
<svg xmlns:xlink="http://www.w3.org/1999/xlink" height="93.7px" width="118.35px" xmlns="http://www.w3.org/2000/svg">
  <g transform="matrix(1.0, 0.0, 0.0, 1.0, 59.15, 36.55)">
    <path d="M10.3 -1.45 L10.3 -13.25 0.1 -19.15 -10.1 -13.25 -10.1 -1.45 0.1 4.45 10.3 -1.45 M0.1 5.95 L-11.45 -0.7 -11.45 -14.0 0.1 -20.65 11.65 -14.0 11.65 -0.7 0.1 5.95" fill="url(#gradient0)" fill-rule="evenodd" stroke="none"/>
    <path d="M0.1 7.5 L12.95 0.1 12.95 -14.8 0.1 -22.2 -12.75 -14.8 -12.75 0.1 0.1 7.5 M-18.8 -19.3 L-18.3 -18.1 -17.65 -16.9 -14.1 -15.25 -14.1 -15.55 -2.05 -22.5 -2.05 -27.3 0.0 -36.55 2.3 -27.3 2.3 -22.5 14.3 -15.55 14.3 -15.35 17.65 -16.9 18.35 -18.1 18.8 -19.3 18.6 -20.7 Q18.55 -21.45 18.75 -21.85 19.3 -22.85 22.65 -22.85 L43.65 -22.15 59.2 -21.45 Q57.8 -19.0 53.3 -18.0 L44.1 -17.3 52.15 -16.65 Q50.25 -13.7 42.45 -13.8 L46.2 -13.1 Q44.1 -10.55 37.3 -11.1 L40.2 -10.15 Q37.6 -7.55 29.45 -9.9 L35.35 -7.05 Q33.35 -5.55 29.15 -6.55 25.8 -7.4 21.4 -9.7 L26.25 -6.15 22.65 -6.35 Q20.8 -7.1 18.45 -8.9 L21.15 -6.2 Q19.7 -5.6 17.45 -7.3 15.95 -8.45 14.3 -10.5 L14.3 0.85 2.3 7.75 2.3 12.3 0.2 21.55 -2.05 12.3 -2.05 7.8 -14.1 0.85 -14.1 -10.7 Q-15.75 -8.65 -17.25 -7.45 -19.6 -5.55 -21.15 -6.2 L-18.45 -8.9 Q-23.95 -4.7 -26.25 -6.15 L-21.35 -9.7 Q-25.8 -7.4 -29.1 -6.55 -33.35 -5.55 -35.3 -7.05 L-29.45 -9.9 Q-37.55 -7.55 -40.2 -10.15 L-37.3 -11.1 Q-44.1 -10.55 -46.15 -13.1 L-42.45 -13.8 Q-50.2 -13.7 -52.15 -16.65 L-44.1 -17.3 -53.25 -18.0 Q-57.75 -19.0 -59.15 -21.45 L-43.6 -22.15 -22.65 -22.85 Q-19.3 -22.85 -18.75 -21.85 -18.55 -21.45 -18.6 -20.7 L-18.8 -19.3" fill="url(#gradient1)" fill-rule="evenodd" stroke="none"/>
    <path d="M10.6 -1.3 L0.1 4.75 -10.4 -1.3 -10.4 -13.4 0.1 -19.45 10.6 -13.4 10.6 -1.3 M0.1 4.45 L10.3 -1.45 10.3 -13.25 0.1 -19.15 -10.1 -13.25 -10.1 -1.45 0.1 4.45 M11.65 -14.0 L11.65 -0.7 0.1 5.95 -11.45 -0.7 -11.45 -14.0 0.1 -20.65 11.65 -14.0 M11.35 -0.85 L11.35 -13.85 0.1 -20.35 -11.15 -13.85 -11.15 -0.85 0.1 5.65 11.35 -0.85" fill="url(#gradient2)" fill-rule="evenodd" stroke="none"/>
    <path d="M13.25 -14.95 L13.25 0.25 0.1 7.85 -13.05 0.25 -13.05 -14.95 0.1 -22.55 13.25 -14.95 M12.95 0.1 L12.95 -14.8 0.1 -22.2 -12.75 -14.8 -12.75 0.1 0.1 7.5 12.95 0.1 M-44.1 -17.3 L-44.05 -17.0 -51.6 -16.4 Q-49.55 -14.05 -42.75 -14.05 L-42.45 -14.05 -42.4 -13.5 -45.6 -12.9 Q-43.85 -11.3 -39.55 -11.3 L-37.3 -11.4 -35.0 -11.6 -39.6 -10.0 Q-38.35 -9.1 -35.9 -9.1 -33.25 -9.1 -29.5 -10.15 L-29.3 -9.65 -34.75 -7.0 Q-33.75 -6.45 -32.15 -6.45 -28.25 -6.45 -21.5 -9.9 L-21.2 -9.45 -25.7 -6.2 -24.9 -6.05 Q-22.65 -6.05 -18.6 -9.15 L-18.25 -8.7 -20.55 -6.35 -20.35 -6.35 Q-18.9 -6.35 -16.9 -8.1 -15.6 -9.25 -14.3 -10.9 L-13.8 -11.55 -13.8 0.7 -1.8 7.6 -1.8 12.3 0.2 20.3 2.0 12.3 2.0 7.6 14.0 0.7 14.0 -11.3 14.55 -10.65 Q15.9 -8.95 17.2 -7.9 19.0 -6.35 20.35 -6.35 L20.6 -6.35 18.25 -8.7 18.65 -9.15 Q22.65 -6.05 24.95 -6.05 L25.7 -6.2 21.2 -9.45 21.5 -9.9 Q24.85 -8.2 27.55 -7.35 30.25 -6.45 32.2 -6.45 33.75 -6.45 34.75 -7.0 L29.3 -9.65 29.55 -10.15 Q33.3 -9.1 35.9 -9.1 38.35 -9.1 39.65 -10.0 L35.0 -11.6 37.35 -11.4 39.6 -11.3 Q43.9 -11.3 45.6 -12.9 L42.4 -13.5 42.45 -14.05 42.8 -14.05 Q49.55 -14.05 51.65 -16.4 L44.1 -17.0 44.1 -17.6 45.4 -17.55 Q50.6 -17.55 53.95 -18.5 57.35 -19.4 58.7 -21.15 L22.65 -22.55 Q19.7 -22.55 19.1 -21.85 L18.9 -21.1 19.0 -20.15 19.1 -19.35 18.6 -17.95 17.9 -16.75 17.85 -16.65 17.75 -16.65 14.0 -14.9 14.0 -15.4 2.0 -22.3 2.0 -27.3 0.0 -35.3 -1.8 -27.3 -1.8 -22.3 -13.8 -15.4 -13.8 -14.8 -17.75 -16.65 -17.8 -16.65 -17.85 -16.7 -18.55 -17.95 Q-19.1 -19.0 -19.05 -19.35 L-18.95 -20.15 -18.85 -21.1 Q-18.85 -21.6 -19.1 -21.85 -19.7 -22.55 -22.65 -22.55 L-58.65 -21.15 Q-57.3 -19.4 -53.95 -18.5 -50.55 -17.55 -45.4 -17.55 L-44.1 -17.6 -44.1 -17.3 -45.4 -17.3 Q-56.7 -17.3 -59.15 -21.45 L-43.6 -22.15 -22.65 -22.85 Q-19.3 -22.85 -18.75 -21.8 -18.5 -21.45 -18.6 -20.7 L-18.8 -19.3 -18.3 -18.1 -17.65 -16.9 -14.1 -15.25 -14.1 -15.55 -2.05 -22.5 -2.05 -27.3 0.0 -36.55 2.3 -27.3 2.3 -22.5 14.3 -15.55 14.3 -15.35 17.65 -16.9 18.35 -18.1 18.8 -19.3 18.6 -20.7 Q18.55 -21.45 18.75 -21.8 19.3 -22.85 22.65 -22.85 L43.65 -22.15 59.2 -21.45 Q56.75 -17.3 45.4 -17.3 L44.1 -17.3 52.15 -16.65 Q50.3 -13.75 42.8 -13.75 L42.45 -13.8 46.2 -13.1 Q44.5 -11.0 39.6 -11.0 L37.3 -11.1 40.2 -10.15 Q38.85 -8.8 35.9 -8.8 33.3 -8.8 29.45 -9.9 L35.35 -7.05 Q34.2 -6.15 32.2 -6.15 28.2 -6.15 21.4 -9.7 L26.25 -6.15 Q25.75 -5.8 24.95 -5.8 22.6 -5.8 18.45 -8.9 L21.15 -6.2 20.35 -6.05 Q18.95 -6.05 17.05 -7.65 L14.3 -10.5 14.3 0.85 2.3 7.75 2.3 12.3 0.2 21.55 -2.05 12.3 -2.05 7.8 -14.1 0.85 -14.1 -10.7 Q-15.5 -8.95 -16.85 -7.75 -18.85 -6.05 -20.35 -6.05 L-21.15 -6.2 -18.45 -8.9 Q-22.55 -5.8 -24.9 -5.8 -25.7 -5.8 -26.25 -6.15 L-21.35 -9.7 Q-28.2 -6.15 -32.15 -6.15 -34.15 -6.15 -35.3 -7.05 L-29.45 -9.9 Q-33.3 -8.8 -35.9 -8.8 -38.85 -8.8 -40.2 -10.15 L-37.3 -11.1 -39.55 -11.0 Q-44.45 -11.0 -46.15 -13.1 L-42.45 -13.8 -42.75 -13.75 Q-50.25 -13.75 -52.15 -16.65 L-44.1 -17.3" fill="url(#gradient3)" fill-rule="evenodd" stroke="none"/>
    <path d="M-35.6 -7.3 Q-35.5 -8.95 -34.75 -9.75 L-32.5 -11.7 -32.35 -11.7 -31.95 -11.5 Q-31.35 -10.95 -31.2 -9.25 -31.0 -6.6 -31.7 -4.05 -32.6 -0.8 -34.6 -0.25 -35.05 -0.1 -35.4 -2.8 -35.75 -5.35 -35.6 -7.3" fill="#23140c" fill-rule="evenodd" stroke="none"/>
    <path d="M-34.55 8.0 Q-34.9 8.4 -35.8 7.5 -36.7 6.65 -37.6 5.0 -39.9 0.7 -39.45 -3.65 L-39.2 -6.65 Q-37.5 -5.35 -35.8 -3.25 -33.6 -0.45 -33.4 1.45 -33.3 2.55 -33.6 4.75 -33.95 7.35 -34.55 8.0" fill="#23140c" fill-rule="evenodd" stroke="none"/>
    <path d="M-40.35 6.95 L-40.35 2.95 -36.4 6.0 Q-33.4 8.55 -32.8 9.4 L-32.65 12.15 Q-32.65 15.15 -33.25 16.25 -33.5 16.7 -34.65 16.05 L-37.15 14.0 Q-40.5 10.45 -40.35 6.95" fill="#23140c" fill-rule="evenodd" stroke="none"/>
    <path d="M-33.05 23.6 Q-37.1 20.85 -37.75 17.4 L-37.75 13.4 Q-35.6 13.9 -33.2 15.15 -29.95 16.85 -28.65 19.0 L-28.55 21.4 Q-28.5 24.0 -28.75 24.95 L-30.2 25.05 Q-31.5 24.65 -33.05 23.6" fill="#23140c" fill-rule="evenodd" stroke="none"/>
    <path d="M-33.3 26.3 L-33.3 22.3 Q-30.9 22.4 -27.8 23.7 -24.05 25.3 -22.75 27.65 L-22.75 29.15 -22.75 31.15 -22.75 31.65 Q-22.75 32.2 -24.1 32.1 -25.5 32.0 -27.25 31.3 -31.85 29.55 -33.3 26.3" fill="#23140c" fill-rule="evenodd" stroke="none"/>
    <path d="M-15.4 37.15 Q-15.4 37.65 -16.75 37.85 L-19.95 37.75 Q-24.75 37.0 -26.9 34.2 L-26.9 30.15 Q-25.35 29.95 -20.2 31.5 L-15.4 33.15 -15.4 37.15" fill="#23140c" fill-rule="evenodd" stroke="none"/>
    <path d="M-17.25 35.9 Q-16.0 34.9 -10.75 33.9 L-5.7 33.15 -5.75 36.9 Q-5.65 37.25 -6.75 38.05 -7.9 38.9 -9.55 39.5 -14.05 41.3 -17.25 39.9 L-17.25 35.9" fill="#23140c" fill-rule="evenodd" stroke="none"/>
    <path d="M-23.05 22.65 L-23.05 19.05 -22.5 18.7 -21.15 17.2 -20.8 17.3 Q-20.4 17.45 -20.05 17.7 -18.9 18.6 -18.7 20.55 L-18.7 24.05 Q-18.45 27.55 -21.3 28.8 -21.95 29.1 -22.55 27.1 -23.15 25.05 -23.05 22.65" fill="#23140c" fill-rule="evenodd" stroke="none"/>
    <path d="M-17.45 24.05 L-17.45 22.55 Q-17.4 22.2 -17.15 22.5 L-16.65 22.55 Q-15.85 23.0 -15.0 23.5 -13.2 24.75 -12.45 26.35 L-12.45 29.2 Q-12.35 30.25 -12.75 31.55 -13.25 33.15 -14.2 33.9 -14.5 34.15 -15.1 33.5 L-16.25 31.6 Q-17.6 28.55 -17.45 25.55 L-17.45 24.05" fill="#23140c" fill-rule="evenodd" stroke="none"/>
    <path d="M-27.3 22.55 Q-27.7 22.6 -27.9 21.75 L-28.0 19.6 -28.0 17.75 -28.0 16.45 Q-27.6 14.75 -26.25 12.75 -24.85 10.65 -23.45 9.65 L-23.15 11.55 Q-22.9 13.8 -23.0 15.75 -23.35 21.95 -27.3 22.55" fill="#23140c" fill-rule="evenodd" stroke="none"/>
    <path d="M-32.3 7.0 Q-32.75 7.1 -33.0 4.7 L-33.05 0.8 Q-32.9 -0.85 -31.55 -2.0 L-28.4 -4.15 -28.3 -2.1 Q-28.2 0.35 -28.4 2.3 -28.9 6.45 -32.3 7.0" fill="#23140c" fill-rule="evenodd" stroke="none"/>
    <path d="M-31.25 8.45 Q-30.75 7.2 -29.05 6.0 L-26.6 4.55 -26.55 9.6 Q-26.55 11.9 -27.35 13.4 -28.35 15.2 -30.5 15.6 -30.95 15.65 -31.15 14.7 L-31.25 12.3 -31.25 8.45" fill="#23140c" fill-rule="evenodd" stroke="none"/>
    <path d="M-8.9 44.5 L-8.9 43.5 -9.45 43.7 -10.3 42.25 -10.3 38.25 -7.45 36.55 -3.2 36.55 -3.45 35.3 -1.4 34.85 -1.4 43.7 -2.6 43.7 -2.6 43.5 -5.95 46.5 -8.0 46.5 -8.9 44.5" fill="#23140c" fill-rule="evenodd" stroke="none"/>
    <path d="M-10.3 32.65 L-11.35 31.85 Q-12.1 30.9 -12.2 30.0 L-12.4 28.15 -12.45 26.35 -10.6 26.6 -8.5 26.9 Q-6.8 27.1 -4.3 29.25 L-0.65 32.9 -0.65 36.9 -2.4 37.7 -5.2 35.15 Q-8.3 32.6 -10.3 32.65" fill="#23140c" fill-rule="evenodd" stroke="none"/>
    <path d="M35.35 -7.3 Q35.5 -5.35 35.15 -2.8 34.85 -0.1 34.35 -0.25 32.35 -0.8 31.5 -4.05 30.8 -6.6 31.0 -9.25 31.15 -10.95 31.75 -11.5 L32.1 -11.7 32.3 -11.7 34.55 -9.75 Q35.25 -8.95 35.35 -7.3" fill="#23140c" fill-rule="evenodd" stroke="none"/>
    <path d="M34.35 8.0 Q33.75 7.35 33.4 4.75 33.1 2.55 33.2 1.45 33.35 -0.45 35.6 -3.25 37.3 -5.35 38.95 -6.65 L39.25 -3.65 Q39.65 0.7 37.35 5.0 36.5 6.65 35.6 7.5 34.7 8.4 34.35 8.0" fill="#23140c" fill-rule="evenodd" stroke="none"/>
    <path d="M40.1 6.95 Q40.25 10.45 36.9 14.0 L34.45 16.05 Q33.3 16.7 33.05 16.25 32.45 15.15 32.45 12.15 L32.55 9.4 Q33.2 8.55 36.2 6.0 L40.1 2.95 40.1 6.95" fill="#23140c" fill-rule="evenodd" stroke="none"/>
    <path d="M32.8 23.6 Q31.25 24.65 29.95 25.05 L28.5 24.95 Q28.25 24.0 28.3 21.4 L28.4 19.0 Q29.75 16.85 33.0 15.15 35.35 13.9 37.5 13.4 L37.5 17.4 Q36.9 20.85 32.8 23.6" fill="#23140c" fill-rule="evenodd" stroke="none"/>
    <path d="M33.05 22.3 L33.05 26.3 Q31.65 29.55 27.0 31.3 25.25 32.0 23.9 32.1 22.55 32.2 22.5 31.65 L22.55 31.15 22.55 29.15 22.5 27.65 Q23.85 25.3 27.6 23.7 30.65 22.4 33.05 22.3" fill="#23140c" fill-rule="evenodd" stroke="none"/>
    <path d="M26.65 34.2 Q24.55 37.0 19.7 37.75 L16.5 37.85 Q15.15 37.65 15.15 37.15 L15.15 33.15 20.0 31.5 Q25.15 29.95 26.65 30.15 L26.65 34.2" fill="#23140c" fill-rule="evenodd" stroke="none"/>
    <path d="M5.5 36.9 L5.45 33.15 10.55 33.9 Q15.75 34.9 17.0 35.9 L17.0 39.9 Q13.8 41.3 9.35 39.5 7.7 38.9 6.5 38.05 5.4 37.25 5.5 36.9" fill="#23140c" fill-rule="evenodd" stroke="none"/>
    <path d="M22.8 22.65 Q22.95 25.05 22.3 27.1 21.7 29.1 21.05 28.8 18.25 27.55 18.45 24.05 L18.45 20.55 Q18.7 18.6 19.85 17.7 L20.6 17.3 20.95 17.2 22.3 18.7 22.85 19.05 22.8 22.65" fill="#23140c" fill-rule="evenodd" stroke="none"/>
    <path d="M12.2 26.35 Q12.95 24.75 14.8 23.5 L16.45 22.55 16.9 22.5 Q17.2 22.2 17.25 22.55 L17.2 25.55 Q17.4 28.55 16.0 31.6 L14.9 33.5 Q14.3 34.15 13.95 33.9 13.0 33.15 12.5 31.55 12.1 30.25 12.2 29.2 L12.2 26.35" fill="#23140c" fill-rule="evenodd" stroke="none"/>
    <path d="M22.95 11.55 L23.2 9.65 Q24.65 10.65 26.05 12.75 27.35 14.75 27.8 16.45 L27.75 17.75 27.75 19.6 27.7 21.75 Q27.5 22.6 27.05 22.55 23.1 21.95 22.75 15.75 22.65 13.8 22.95 11.55" fill="#23140c" fill-rule="evenodd" stroke="none"/>
    <path d="M32.05 7.0 Q28.65 6.45 28.2 2.3 28.0 0.35 28.05 -2.1 L28.2 -4.15 31.3 -2.0 Q32.65 -0.85 32.85 0.8 33.0 2.45 32.75 4.7 32.5 7.1 32.05 7.0" fill="#23140c" fill-rule="evenodd" stroke="none"/>
    <path d="M31.0 8.45 L31.0 12.3 Q31.15 13.8 30.95 14.7 30.75 15.65 30.3 15.6 28.15 15.2 27.15 13.4 26.35 11.9 26.35 9.6 L26.4 4.55 28.85 6.0 Q30.55 7.2 31.0 8.45" fill="#23140c" fill-rule="evenodd" stroke="none"/>
    <path d="M10.05 38.25 L10.05 42.25 9.25 43.7 8.7 43.5 8.7 44.5 7.75 46.5 5.75 46.5 2.4 43.5 2.35 43.7 1.15 43.7 1.15 34.85 3.2 35.3 2.95 36.55 7.2 36.55 10.05 38.25" fill="#23140c" fill-rule="evenodd" stroke="none"/>
    <path d="M8.3 26.9 L10.35 26.6 12.2 26.35 12.15 28.15 11.95 30.0 Q11.9 30.9 11.1 31.85 L10.05 32.65 Q8.1 32.6 4.95 35.15 L2.2 37.7 0.45 36.9 0.45 32.9 4.1 29.25 Q6.55 27.1 8.3 26.9" fill="#23140c" fill-rule="evenodd" stroke="none"/>
    <path d="M-21.05 47.85 L-29.95 47.7 -29.95 43.7 -26.9 38.3 -18.7 38.3 -4.7 47.1 4.35 47.3 18.95 38.65 26.95 38.65 29.75 43.7 29.75 47.7 20.85 47.85 6.3 57.15 -6.55 57.15 -21.05 47.85" fill="#23140c" fill-rule="evenodd" stroke="none"/>
    <path d="M-29.7 47.75 L-29.95 47.75 -29.95 43.7 -29.7 43.7 -29.7 47.75" fill="url(#gradient4)" fill-rule="evenodd" stroke="none"/>
    <path d="M-20.9 48.0 L-21.05 47.85 -21.15 47.85 -21.15 43.8 -20.9 43.8 -20.9 48.0" fill="url(#gradient5)" fill-rule="evenodd" stroke="none"/>
    <path d="M-6.25 57.15 L-6.55 57.15 -6.55 53.15 -6.25 53.15 -6.25 57.15" fill="url(#gradient6)" fill-rule="evenodd" stroke="none"/>
    <path d="M6.3 57.15 L6.05 57.15 6.05 53.15 6.3 53.15 6.3 57.15" fill="url(#gradient7)" fill-rule="evenodd" stroke="none"/>
    <path d="M21.0 47.85 L20.85 47.85 20.7 47.95 20.7 43.85 21.0 43.85 21.0 47.85" fill="url(#gradient8)" fill-rule="evenodd" stroke="none"/>
    <path d="M29.75 47.7 L29.45 47.7 29.45 43.7 29.75 43.7 29.75 47.7" fill="url(#gradient9)" fill-rule="evenodd" stroke="none"/>
  </g>
  <defs>
    <linearGradient gradientTransform="matrix(0.0, -0.0521, -0.0521, 0.0, 0.1, -16.75)" gradientUnits="userSpaceOnUse" id="gradient0" spreadMethod="pad" x1="-819.2" x2="819.2">
      <stop offset="0.00392156862745098" stop-color="#543800"/>
      <stop offset="0.17647058823529413" stop-color="#e9ca00"/>
      <stop offset="0.43529411764705883" stop-color="#6a4a00"/>
      <stop offset="0.44313725490196076" stop-color="#836300"/>
      <stop offset="0.4627450980392157" stop-color="#af8f00"/>
      <stop offset="0.47843137254901963" stop-color="#ceaf00"/>
      <stop offset="0.49019607843137253" stop-color="#e2c300"/>
      <stop offset="0.5019607843137255" stop-color="#e9ca00"/>
      <stop offset="0.6274509803921569" stop-color="#feffbf"/>
      <stop offset="0.7607843137254902" stop-color="#e9ca00"/>
      <stop offset="0.984313725490196" stop-color="#6a4700"/>
    </linearGradient>
    <linearGradient gradientTransform="matrix(0.0, -0.0521, -0.0521, 0.0, 0.0, -16.75)" gradientUnits="userSpaceOnUse" id="gradient1" spreadMethod="pad" x1="-819.2" x2="819.2">
      <stop offset="0.00392156862745098" stop-color="#543800"/>
      <stop offset="0.17647058823529413" stop-color="#e9ca00"/>
      <stop offset="0.43529411764705883" stop-color="#6a4a00"/>
      <stop offset="0.44313725490196076" stop-color="#836300"/>
      <stop offset="0.4627450980392157" stop-color="#af8f00"/>
      <stop offset="0.47843137254901963" stop-color="#ceaf00"/>
      <stop offset="0.49019607843137253" stop-color="#e2c300"/>
      <stop offset="0.5019607843137255" stop-color="#e9ca00"/>
      <stop offset="0.6274509803921569" stop-color="#feffbf"/>
      <stop offset="0.7607843137254902" stop-color="#e9ca00"/>
      <stop offset="0.984313725490196" stop-color="#6a4700"/>
    </linearGradient>
    <linearGradient gradientTransform="matrix(0.0141, 0.0, 0.0, -0.0141, 0.1, -7.35)" gradientUnits="userSpaceOnUse" id="gradient2" spreadMethod="pad" x1="-819.2" x2="819.2">
      <stop offset="0.07450980392156863" stop-color="#543800"/>
      <stop offset="0.17647058823529413" stop-color="#e9ca00"/>
      <stop offset="0.43529411764705883" stop-color="#6a4a00"/>
      <stop offset="0.4588235294117647" stop-color="#836300"/>
      <stop offset="0.5058823529411764" stop-color="#af8f00"/>
      <stop offset="0.5490196078431373" stop-color="#ceaf00"/>
      <stop offset="0.5843137254901961" stop-color="#e2c300"/>
      <stop offset="0.6078431372549019" stop-color="#e9ca00"/>
      <stop offset="0.6431372549019608" stop-color="#e9ca00"/>
      <stop offset="0.8196078431372549" stop-color="#fff87f"/>
      <stop offset="0.8784313725490196" stop-color="#e9ca00"/>
      <stop offset="0.984313725490196" stop-color="#6a4700"/>
    </linearGradient>
    <linearGradient gradientTransform="matrix(0.0723, 0.0, 0.0, -0.0723, 0.0, -7.5)" gradientUnits="userSpaceOnUse" id="gradient3" spreadMethod="pad" x1="-819.2" x2="819.2">
      <stop offset="0.07450980392156863" stop-color="#543800"/>
      <stop offset="0.17647058823529413" stop-color="#e9ca00"/>
      <stop offset="0.43529411764705883" stop-color="#6a4a00"/>
      <stop offset="0.4588235294117647" stop-color="#836300"/>
      <stop offset="0.5058823529411764" stop-color="#af8f00"/>
      <stop offset="0.5490196078431373" stop-color="#ceaf00"/>
      <stop offset="0.5843137254901961" stop-color="#e2c300"/>
      <stop offset="0.6078431372549019" stop-color="#e9ca00"/>
      <stop offset="0.6431372549019608" stop-color="#e9ca00"/>
      <stop offset="0.8196078431372549" stop-color="#fff87f"/>
      <stop offset="0.8784313725490196" stop-color="#e9ca00"/>
      <stop offset="0.984313725490196" stop-color="#6a4700"/>
    </linearGradient>
    <linearGradient gradientTransform="matrix(0.0, -0.0025, -0.0025, 0.0, -29.8, 45.75)" gradientUnits="userSpaceOnUse" id="gradient4" spreadMethod="pad" x1="-819.2" x2="819.2">
      <stop offset="0.0" stop-color="#1e120b" stop-opacity="0.0"/>
      <stop offset="0.01568627450980392" stop-color="#23150d" stop-opacity="0.019607844"/>
      <stop offset="0.2235294117647059" stop-color="#653e22" stop-opacity="0.3137255"/>
      <stop offset="0.4196078431372549" stop-color="#9c5f34" stop-opacity="0.5568628"/>
      <stop offset="0.6039215686274509" stop-color="#c77a42" stop-opacity="0.7490196"/>
      <stop offset="0.7647058823529411" stop-color="#e68c4c" stop-opacity="0.8862745"/>
      <stop offset="0.9019607843137255" stop-color="#f89852" stop-opacity="0.96862745"/>
      <stop offset="1.0" stop-color="#ff9c54"/>
    </linearGradient>
    <linearGradient gradientTransform="matrix(0.0, -0.0025, -0.0025, 0.0, -21.0, 45.9)" gradientUnits="userSpaceOnUse" id="gradient5" spreadMethod="pad" x1="-819.2" x2="819.2">
      <stop offset="0.0" stop-color="#1e120b" stop-opacity="0.0"/>
      <stop offset="0.01568627450980392" stop-color="#23150d" stop-opacity="0.019607844"/>
      <stop offset="0.2235294117647059" stop-color="#653e22" stop-opacity="0.3137255"/>
      <stop offset="0.4196078431372549" stop-color="#9c5f34" stop-opacity="0.5568628"/>
      <stop offset="0.6039215686274509" stop-color="#c77a42" stop-opacity="0.7490196"/>
      <stop offset="0.7647058823529411" stop-color="#e68c4c" stop-opacity="0.8862745"/>
      <stop offset="0.9019607843137255" stop-color="#f89852" stop-opacity="0.96862745"/>
      <stop offset="1.0" stop-color="#ff9c54"/>
    </linearGradient>
    <linearGradient gradientTransform="matrix(0.0, -0.0024, -0.0024, 0.0, -6.4, 55.15)" gradientUnits="userSpaceOnUse" id="gradient6" spreadMethod="pad" x1="-819.2" x2="819.2">
      <stop offset="0.0" stop-color="#1e120b" stop-opacity="0.0"/>
      <stop offset="0.01568627450980392" stop-color="#23150d" stop-opacity="0.019607844"/>
      <stop offset="0.2235294117647059" stop-color="#653e22" stop-opacity="0.3137255"/>
      <stop offset="0.4196078431372549" stop-color="#9c5f34" stop-opacity="0.5568628"/>
      <stop offset="0.6039215686274509" stop-color="#c77a42" stop-opacity="0.7490196"/>
      <stop offset="0.7647058823529411" stop-color="#e68c4c" stop-opacity="0.8862745"/>
      <stop offset="0.9019607843137255" stop-color="#f89852" stop-opacity="0.96862745"/>
      <stop offset="1.0" stop-color="#ff9c54"/>
    </linearGradient>
    <linearGradient gradientTransform="matrix(0.0, -0.0024, -0.0024, 0.0, 6.2, 55.15)" gradientUnits="userSpaceOnUse" id="gradient7" spreadMethod="pad" x1="-819.2" x2="819.2">
      <stop offset="0.0" stop-color="#1e120b" stop-opacity="0.0"/>
      <stop offset="0.01568627450980392" stop-color="#23150d" stop-opacity="0.019607844"/>
      <stop offset="0.2235294117647059" stop-color="#653e22" stop-opacity="0.3137255"/>
      <stop offset="0.4196078431372549" stop-color="#9c5f34" stop-opacity="0.5568628"/>
      <stop offset="0.6039215686274509" stop-color="#c77a42" stop-opacity="0.7490196"/>
      <stop offset="0.7647058823529411" stop-color="#e68c4c" stop-opacity="0.8862745"/>
      <stop offset="0.9019607843137255" stop-color="#f89852" stop-opacity="0.96862745"/>
      <stop offset="1.0" stop-color="#ff9c54"/>
    </linearGradient>
    <linearGradient gradientTransform="matrix(0.0, -0.0025, -0.0025, 0.0, 20.85, 45.9)" gradientUnits="userSpaceOnUse" id="gradient8" spreadMethod="pad" x1="-819.2" x2="819.2">
      <stop offset="0.0" stop-color="#1e120b" stop-opacity="0.0"/>
      <stop offset="0.01568627450980392" stop-color="#23150d" stop-opacity="0.019607844"/>
      <stop offset="0.2235294117647059" stop-color="#653e22" stop-opacity="0.3137255"/>
      <stop offset="0.4196078431372549" stop-color="#9c5f34" stop-opacity="0.5568628"/>
      <stop offset="0.6039215686274509" stop-color="#c77a42" stop-opacity="0.7490196"/>
      <stop offset="0.7647058823529411" stop-color="#e68c4c" stop-opacity="0.8862745"/>
      <stop offset="0.9019607843137255" stop-color="#f89852" stop-opacity="0.96862745"/>
      <stop offset="1.0" stop-color="#ff9c54"/>
    </linearGradient>
    <linearGradient gradientTransform="matrix(0.0, -0.0024, -0.0024, 0.0, 29.6, 45.7)" gradientUnits="userSpaceOnUse" id="gradient9" spreadMethod="pad" x1="-819.2" x2="819.2">
      <stop offset="0.0" stop-color="#1e120b" stop-opacity="0.0"/>
      <stop offset="0.01568627450980392" stop-color="#23150d" stop-opacity="0.019607844"/>
      <stop offset="0.2235294117647059" stop-color="#653e22" stop-opacity="0.3137255"/>
      <stop offset="0.4196078431372549" stop-color="#9c5f34" stop-opacity="0.5568628"/>
      <stop offset="0.6039215686274509" stop-color="#c77a42" stop-opacity="0.7490196"/>
      <stop offset="0.7647058823529411" stop-color="#e68c4c" stop-opacity="0.8862745"/>
      <stop offset="0.9019607843137255" stop-color="#f89852" stop-opacity="0.96862745"/>
      <stop offset="1.0" stop-color="#ff9c54"/>
    </linearGradient>
  </defs>
</svg>
