<?xml version="1.0" encoding="UTF-8" standalone="no"?>
<svg xmlns:xlink="http://www.w3.org/1999/xlink" height="21.05px" width="136.7px" xmlns="http://www.w3.org/2000/svg">
  <g transform="matrix(1.0, 0.0, 0.0, 1.0, 68.35, -8.6)">
    <path d="M67.75 17.6 L61.1 17.6 61.3 16.55 Q61.55 15.1 60.15 15.1 L55.15 15.1 Q53.45 15.1 52.8 17.6 L46.55 17.6 47.15 14.1 Q47.55 11.85 49.5 10.2 51.35 8.6 53.75 8.6 L63.5 8.6 Q65.65 8.6 67.05 9.95 68.35 11.35 68.35 13.4 L68.3 14.5 67.75 17.6 M29.85 23.15 L34.85 23.15 Q36.45 23.15 37.2 20.25 L37.25 20.1 43.7 20.1 43.0 24.1 Q42.6 26.5 40.65 28.15 38.8 29.65 36.45 29.65 L26.75 29.65 Q24.6 29.65 23.15 28.3 21.75 26.9 21.75 24.8 L21.85 23.9 22.55 20.1 28.95 20.1 28.7 21.55 Q28.45 23.15 29.85 23.15 M44.75 14.5 L44.15 17.6 37.55 17.6 37.6 16.65 Q37.85 15.1 36.45 15.1 L31.55 15.1 Q30.0 15.1 29.35 17.6 L22.95 17.6 23.55 14.15 Q23.95 11.85 25.85 10.2 27.75 8.6 30.05 8.6 L39.85 8.6 Q41.95 8.6 43.4 9.95 44.8 11.35 44.8 13.45 L44.75 14.5 M65.5 29.65 Q63.05 29.65 61.55 28.6 59.9 27.25 59.9 24.85 59.9 24.25 60.05 23.9 L60.7 20.1 67.35 20.1 65.5 29.65 M52.45 20.1 L51.85 24.1 Q51.4 26.85 49.2 28.35 47.15 29.65 44.35 29.65 L46.1 20.1 52.45 20.1 M5.5 22.3 Q3.35 22.3 1.95 20.95 L1.2 20.1 20.9 20.1 20.9 20.75 20.45 24.05 Q20.05 26.45 18.15 28.1 16.25 29.65 13.9 29.65 L-1.8 29.65 Q-1.2 26.8 0.35 25.1 2.2 23.2 5.0 23.2 L13.3 23.2 Q14.05 23.2 14.05 22.6 L13.75 22.3 5.5 22.3 M19.55 17.3 L19.8 17.6 0.45 17.6 0.45 17.55 0.9 14.2 Q1.35 11.85 3.25 10.3 5.15 8.65 7.55 8.65 L23.15 8.65 Q22.55 11.95 20.7 13.45 L18.35 14.85 16.45 15.1 7.9 15.1 Q7.15 15.1 7.15 15.7 7.15 16.0 7.4 16.0 L15.85 16.0 Q18.0 16.0 19.55 17.3 M-1.45 14.5 L-2.05 17.6 -8.65 17.6 -8.5 16.55 Q-8.2 15.1 -9.6 15.1 L-14.6 15.1 Q-16.3 15.1 -17.0 17.6 L-23.2 17.6 -22.6 14.1 Q-22.2 11.85 -20.25 10.2 -18.4 8.6 -16.0 8.6 L-6.3 8.6 Q-4.2 8.6 -2.75 9.95 -1.4 11.35 -1.4 13.4 L-1.45 14.5 M-17.3 20.1 L-17.9 24.1 Q-18.35 26.85 -20.55 28.35 -22.6 29.65 -25.4 29.65 L-23.65 20.1 -17.3 20.1 M-9.85 24.85 L-9.75 23.9 -9.1 20.1 -2.45 20.1 -4.25 29.65 Q-6.75 29.65 -8.2 28.6 -9.85 27.25 -9.85 24.85 M-25.0 14.5 L-25.6 17.6 -32.25 17.6 -32.15 16.65 Q-31.95 15.1 -33.3 15.1 L-38.25 15.1 Q-39.75 15.1 -40.5 17.6 L-46.8 17.6 -46.25 14.15 Q-45.8 11.85 -43.95 10.2 -42.0 8.6 -39.7 8.6 L-29.9 8.6 Q-27.8 8.6 -26.4 9.95 -24.95 11.35 -24.95 13.45 L-25.0 14.5 M-26.05 20.1 L-26.75 24.1 Q-27.2 26.5 -29.1 28.15 -30.95 29.65 -33.3 29.65 L-43.05 29.65 Q-45.25 29.65 -46.65 28.3 -48.05 26.9 -48.05 24.8 L-47.9 23.9 -47.2 20.1 -40.9 20.1 -41.1 21.55 Q-41.35 23.15 -39.9 23.15 L-35.0 23.15 Q-33.3 23.15 -32.6 20.25 L-32.55 20.1 -26.05 20.1 M-50.6 14.9 L-52.6 15.1 -57.6 15.1 Q-59.2 15.1 -59.85 17.6 L-66.25 17.6 -65.6 14.1 Q-65.15 11.75 -63.35 10.2 -61.6 8.6 -59.15 8.6 L-45.95 8.6 Q-46.55 11.85 -48.4 13.45 L-50.6 14.9 M-60.85 24.15 Q-61.3 26.85 -63.5 28.35 -65.5 29.65 -68.35 29.65 L-66.7 20.1 -60.3 20.1 -60.85 24.15" fill="#ffffff" fill-rule="evenodd" stroke="none"/>
  </g>
</svg>
