<?xml version="1.0" encoding="UTF-8" standalone="no"?>
<svg xmlns:xlink="http://www.w3.org/1999/xlink" height="20.6px" width="140.5px" xmlns="http://www.w3.org/2000/svg">
  <g transform="matrix(1.0, 0.0, 0.0, 1.0, 70.25, -10.15)">
    <path d="M-65.3 13.85 L-67.35 19.8 -70.25 19.8 -68.2 13.85 -65.3 13.85 M-55.6 13.85 L-56.55 16.45 Q-57.05 17.9 -58.4 17.9 L-59.0 17.9 -57.65 19.8 -61.2 19.8 -62.55 17.9 -65.15 17.9 -64.1 15.0 -58.95 15.0 -58.5 13.85 -55.6 13.85 M-53.05 10.15 L-50.2 10.15 -51.15 13.05 -54.1 13.05 -53.05 10.15 M-45.75 16.9 L-44.7 13.85 -41.8 13.85 -43.35 18.4 -43.7 18.95 -44.15 19.35 -44.7 19.7 -45.3 19.8 -54.95 19.8 -55.5 19.7 -55.85 19.35 -56.0 18.95 -55.9 18.4 -54.35 13.85 -51.45 13.85 -52.55 16.9 -45.75 16.9 M-65.45 10.15 L-55.85 10.15 -55.3 10.25 -54.95 10.6 -54.8 11.05 -54.9 11.6 -55.35 13.05 -67.9 13.05 -67.4 11.6 -67.1 11.05 -66.65 10.6 -66.05 10.25 -65.45 10.15 M-43.45 10.15 L-40.6 10.15 -41.55 13.05 -44.45 13.05 -43.45 10.15 M-32.95 24.8 L-30.05 24.8 -32.15 30.75 -35.05 30.75 -32.95 24.8 M-37.1 24.8 L-34.2 24.8 -36.3 30.75 -39.2 30.75 -37.1 24.8 M-24.3 24.8 L-21.45 24.8 -23.5 30.75 -26.4 30.75 -24.3 24.8 M-11.25 24.8 L-8.25 24.8 -11.4 29.6 -11.75 30.0 -12.2 30.4 -12.7 30.65 -13.2 30.75 -20.75 30.75 -21.3 30.65 -21.65 30.3 -21.8 29.9 -21.7 29.3 -20.15 24.8 -17.25 24.8 -18.35 27.85 -13.25 27.85 -11.25 24.8 M-28.8 12.1 Q-27.75 12.1 -27.85 13.05 L-35.9 13.05 -35.5 12.1 -28.8 12.1 M-25.85 13.85 L-22.95 13.85 -25.05 19.8 -27.85 19.8 -25.85 13.85 M-20.65 22.55 L-21.15 23.95 -32.7 23.95 -31.7 21.1 -21.6 21.1 Q-21.3 21.1 -21.1 21.25 L-20.75 21.55 -20.6 22.0 -20.65 22.55 M-32.95 21.1 L-33.9 23.95 -36.85 23.95 -35.85 21.1 -32.95 21.1 M-30.95 19.7 L-31.55 19.8 -41.2 19.8 -41.7 19.7 -42.05 19.35 -42.2 18.95 -42.15 18.4 -40.6 13.85 -37.65 13.85 -38.75 16.9 -32.0 16.9 -31.3 14.95 -36.55 14.95 -36.1 13.85 -28.05 13.85 -29.6 18.4 -29.9 18.95 -30.4 19.35 -30.95 19.7 M-39.3 10.15 L-36.45 10.15 -37.4 13.05 -40.3 13.05 -39.3 10.15 M-25.55 10.15 L-23.15 10.15 Q-22.55 10.15 -22.3 10.6 -22.0 11.05 -22.2 11.6 L-22.65 13.05 -26.5 13.05 -25.55 10.15 M-3.45 23.95 L-6.35 23.95 -5.35 21.1 -2.5 21.1 -3.45 23.95 M-7.4 23.4 L-7.7 23.95 -19.85 23.95 -19.4 22.55 -19.1 22.0 -18.6 21.55 -18.05 21.25 -17.45 21.1 -8.0 21.1 Q-7.3 21.1 -7.1 21.5 -6.9 21.85 -7.25 22.85 L-7.4 23.4 M-12.45 16.9 L-13.45 19.8 -22.3 19.8 -22.85 19.7 -23.2 19.35 -23.35 18.95 -23.25 18.4 -21.7 13.85 -18.8 13.85 -19.85 16.9 -12.45 16.9 M-20.15 10.6 L-19.6 10.25 -19.0 10.15 -10.15 10.15 -11.15 13.05 -21.45 13.05 -20.95 11.6 -20.65 11.05 -20.15 10.6 M30.9 24.8 L33.8 24.8 31.7 30.75 28.8 30.75 30.9 24.8 M22.75 24.8 L25.6 24.8 23.6 30.75 20.7 30.75 22.75 24.8 M3.0 24.8 L5.9 24.8 4.35 29.3 4.05 29.9 3.55 30.3 3.0 30.65 2.4 30.75 -7.25 30.75 -7.75 30.65 -8.1 30.3 -8.25 29.9 -8.2 29.3 -6.65 24.8 -3.75 24.8 -4.8 27.85 1.95 27.85 3.0 24.8 M10.05 27.85 L11.15 24.8 14.05 24.8 12.5 29.25 12.2 29.8 11.65 30.25 11.1 30.6 10.5 30.75 5.1 30.75 6.1 27.85 10.05 27.85 M19.0 21.1 L18.0 23.95 11.4 23.95 11.85 22.65 12.15 22.15 12.7 21.65 Q12.95 21.4 13.25 21.3 L13.9 21.1 19.0 21.1 M10.25 19.8 L12.3 13.85 15.15 13.85 13.15 19.8 10.25 19.8 M1.6 19.8 L3.65 13.85 6.55 13.85 4.5 19.8 1.6 19.8 M6.2 23.95 L3.3 23.95 4.25 21.1 7.15 21.1 6.2 23.95 M0.85 18.4 L0.55 18.95 0.05 19.35 -0.5 19.7 -1.1 19.8 -10.75 19.8 -11.25 19.7 -11.6 19.35 -11.75 18.95 -11.7 18.4 -10.15 13.85 -7.25 13.85 -8.3 16.9 -1.55 16.9 -0.5 13.85 2.4 13.85 0.85 18.4 M-8.0 10.25 L-7.4 10.15 2.2 10.15 2.7 10.25 3.1 10.6 3.25 11.05 3.15 11.6 2.7 13.05 -9.85 13.05 -9.4 11.6 -9.1 11.05 -8.6 10.6 -8.0 10.25 M15.05 10.15 L15.5 10.25 15.9 10.6 16.0 11.05 16.0 11.6 15.45 13.05 3.9 13.05 4.9 10.15 15.05 10.15 M30.9 21.1 L29.85 23.95 19.3 23.95 20.25 21.1 30.9 21.1 M45.6 24.8 L43.5 30.75 40.65 30.75 42.7 24.8 45.6 24.8 M48.9 27.1 L48.65 27.85 56.05 27.85 55.05 30.75 46.25 30.75 45.7 30.65 45.35 30.3 45.2 29.9 45.3 29.3 46.85 24.8 57.1 24.8 56.3 27.1 48.9 27.1 M61.3 27.85 L62.35 24.8 65.3 24.8 63.75 29.25 63.45 29.8 62.9 30.25 62.3 30.6 61.7 30.75 56.3 30.75 57.3 27.85 61.3 27.85 M58.4 21.1 L57.4 23.95 47.1 23.95 47.6 22.55 47.9 22.0 48.35 21.55 48.95 21.25 49.55 21.1 58.4 21.1 M45.4 21.1 Q46.0 21.1 46.3 21.55 46.55 22.0 46.35 22.55 L45.9 23.95 42.0 23.95 43.05 21.1 45.4 21.1 M31.15 23.95 L31.65 22.55 31.95 22.0 32.4 21.55 32.95 21.25 33.55 21.1 41.8 21.1 40.8 23.95 31.15 23.95 M63.4 22.15 L63.9 21.65 64.5 21.3 65.15 21.1 70.25 21.1 69.25 23.95 62.65 23.95 63.05 22.65 63.4 22.15" fill="#ffffff" fill-rule="evenodd" stroke="none"/>
  </g>
</svg>
