<?xml version="1.0" encoding="UTF-8" standalone="no"?>
<svg xmlns:xlink="http://www.w3.org/1999/xlink" height="14.1px" width="138.15px" xmlns="http://www.w3.org/2000/svg">
  <g transform="matrix(1.0, 0.0, 0.0, 1.0, 69.05, -14.65)">
    <path d="M-61.3 18.75 Q-61.35 17.4 -62.25 16.5 -63.2 15.75 -64.6 15.75 -65.95 15.75 -66.7 16.4 -67.6 17.1 -67.6 18.35 -67.6 19.25 -66.85 19.85 -66.35 20.4 -64.5 20.8 L-64.2 20.9 Q-62.05 21.5 -61.3 22.0 -59.8 22.9 -59.8 24.7 -59.8 26.6 -61.2 27.7 -62.45 28.65 -64.4 28.65 -66.45 28.65 -67.7 27.45 -68.9 26.25 -69.05 24.2 L-69.05 23.9 -67.9 23.9 -67.9 24.2 Q-67.8 25.75 -66.85 26.65 -65.95 27.6 -64.4 27.6 -62.95 27.6 -62.05 26.85 -61.0 26.15 -61.0 24.85 -61.0 23.5 -62.05 22.85 L-64.55 21.95 -64.8 21.9 Q-67.0 21.25 -67.7 20.65 -68.7 19.8 -68.7 18.35 -68.7 16.55 -67.45 15.65 -66.35 14.75 -64.6 14.75 -62.65 14.75 -61.45 15.75 -60.3 16.8 -60.2 18.75 L-60.2 19.05 -61.3 19.05 -61.3 18.75 M-40.55 20.7 L-40.55 15.0 -39.4 15.0 -39.4 28.35 -40.55 28.35 -40.55 21.8 -48.05 21.8 -48.05 28.35 -49.25 28.35 -49.25 15.0 -48.05 15.0 -48.05 20.7 -40.55 20.7 M-22.7 27.6 Q-20.25 27.6 -19.0 25.85 -17.9 24.3 -17.9 21.7 -17.9 19.15 -19.0 17.55 -20.25 15.8 -22.7 15.8 -25.1 15.8 -26.35 17.55 -27.45 19.15 -27.45 21.7 -27.45 24.3 -26.35 25.85 -25.1 27.6 -22.7 27.6 M-18.1 16.8 Q-16.75 18.7 -16.75 21.7 -16.75 24.75 -18.1 26.55 -19.7 28.65 -22.7 28.65 -25.65 28.65 -27.25 26.55 -28.6 24.75 -28.6 21.7 -28.6 18.7 -27.25 16.8 -25.65 14.75 -22.7 14.75 -19.65 14.75 -18.1 16.8 M2.0 15.0 L2.0 16.1 -1.95 16.1 -1.95 28.35 -3.15 28.35 -3.15 16.1 -7.15 16.1 -7.15 15.0 2.0 15.0 M20.0 27.25 L20.0 28.35 12.05 28.35 12.05 15.0 13.2 15.0 13.2 27.25 20.0 27.25 M32.45 17.2 Q32.45 16.75 32.75 16.4 33.1 16.1 33.55 16.1 34.0 16.1 34.3 16.4 34.7 16.75 34.7 17.2 L34.7 26.15 Q34.7 26.6 34.3 26.9 34.0 27.25 33.55 27.25 33.1 27.25 32.75 26.9 32.45 26.6 32.45 26.15 L32.45 17.2 M31.45 14.95 Q31.8 15.25 31.8 15.75 L31.8 27.6 Q31.8 28.1 31.45 28.4 L30.7 28.75 Q30.2 28.75 29.9 28.4 29.55 28.1 29.55 27.6 L29.55 15.75 Q29.55 15.25 29.9 14.95 30.2 14.65 30.7 14.65 L31.45 14.95 M28.65 16.4 L28.95 17.2 28.95 26.15 28.65 26.9 Q28.3 27.25 27.85 27.25 27.4 27.25 27.05 26.9 26.75 26.6 26.75 26.15 L26.75 17.2 Q26.75 16.75 27.05 16.4 27.4 16.1 27.85 16.1 28.3 16.1 28.65 16.4 M50.55 16.1 L46.55 16.1 46.55 28.35 45.4 28.35 45.4 16.1 41.4 16.1 41.4 15.0 50.55 15.0 50.55 16.1 M68.95 15.0 L68.95 16.15 61.75 16.15 61.75 20.9 67.45 20.9 67.45 22.0 61.75 22.0 61.75 27.25 69.1 27.25 69.1 28.35 60.55 28.35 60.55 15.0 68.95 15.0" fill="#ffffff" fill-rule="evenodd" stroke="none"/>
  </g>
</svg>
