<?xml version="1.0" encoding="UTF-8" standalone="no"?>
<svg xmlns:xlink="http://www.w3.org/1999/xlink" height="25.6px" width="130.65px" xmlns="http://www.w3.org/2000/svg">
  <g transform="matrix(1.0, 0.0, 0.0, 1.0, 65.3, -7.35)">
    <path d="M-46.05 32.95 L-52.5 32.95 -52.5 26.55 -58.9 26.55 -58.9 32.95 -65.3 32.95 -65.3 7.35 -46.05 7.35 -46.05 32.95 M-52.5 20.15 L-52.5 13.75 -58.9 13.75 -58.9 20.15 -52.5 20.15 M-24.05 13.75 L-30.4 13.75 -30.4 32.95 -36.85 32.95 -36.85 13.75 -43.25 13.75 -43.25 7.35 -24.05 7.35 -24.05 13.75 M-16.5 16.85 L-10.85 13.6 -5.2 16.85 -5.2 23.4 -10.85 26.7 -16.5 23.4 -16.5 16.85 M-12.95 10.3 L-12.95 13.2 -16.25 15.1 -18.7 13.65 -20.4 14.6 -20.4 25.65 -10.85 31.15 -8.8 30.0 -8.8 27.2 -5.5 25.3 -3.05 26.7 -1.3 25.65 -1.3 14.6 -10.85 9.1 -12.95 10.3 M-16.25 7.55 L-13.65 9.05 -10.85 7.4 0.2 13.75 0.2 26.5 -2.25 27.9 -2.25 30.9 -5.5 32.8 -8.1 31.3 -10.85 32.9 -21.9 26.5 -21.9 13.75 -19.5 12.35 -19.5 9.45 -16.25 7.55 M27.8 13.75 L21.5 13.75 21.5 32.95 15.05 32.95 15.05 13.75 8.75 13.75 8.75 32.95 2.35 32.95 2.35 7.35 34.2 7.35 34.2 32.95 27.8 32.95 27.8 13.75 M37.1 7.35 L43.5 7.35 43.5 32.95 37.1 32.95 37.1 7.35 M65.35 7.35 L65.35 13.75 52.6 13.75 52.6 26.55 65.35 26.55 65.35 32.95 46.2 32.95 46.2 7.35 65.35 7.35" fill="#ffffff" fill-rule="evenodd" stroke="none"/>
  </g>
</svg>
