<?xml version="1.0" encoding="UTF-8" standalone="no"?>
<svg xmlns:xlink="http://www.w3.org/1999/xlink" height="37.85px" width="64.55px" xmlns="http://www.w3.org/2000/svg">
  <g transform="matrix(1.0, 0.0, 0.0, 1.0, 32.25, -1.4)">
    <path d="M-7.0 39.0 L-7.1 39.25 -7.3 39.25 -7.8 38.85 -8.3 38.4 -8.3 38.25 -8.3 38.2 Q-8.25 38.0 -8.0 38.0 -7.6 38.1 -7.3 38.35 -7.0 38.6 -7.0 39.0 M-7.0 37.8 L-7.05 38.05 -7.3 38.05 -7.3 38.0 -7.35 38.0 -7.45 37.8 -7.45 37.75 -7.3 37.65 Q-7.05 37.6 -7.0 37.8 M-10.85 37.6 L-10.7 37.4 -10.4 37.45 -10.2 37.65 -10.2 37.85 -10.35 37.9 -10.75 37.85 -10.85 37.6 M-12.35 37.05 L-12.55 36.7 -12.6 36.5 -12.4 36.45 -12.3 36.35 -11.95 36.35 Q-11.55 36.55 -11.3 37.0 -11.05 37.4 -11.05 37.9 L-11.25 38.15 -11.45 38.2 -11.65 38.15 -12.15 37.4 -12.35 37.05 M-5.7 34.25 L-5.45 34.0 Q-5.2 34.0 -5.2 34.25 L-5.45 34.5 -5.7 34.25 M-7.4 34.1 Q-6.6 34.35 -6.65 34.75 L-6.95 35.25 -7.55 35.3 -8.1 34.95 -8.6 34.45 -8.65 34.3 -8.55 34.0 -8.25 33.9 -7.4 34.1 M-0.5 28.25 L-0.4 28.35 -0.2 28.55 -0.2 28.65 Q-0.05 28.8 -0.2 29.1 L-0.2 29.3 -0.35 29.55 -0.65 29.5 -0.85 28.9 -0.65 28.3 -0.5 28.25 M-30.0 33.7 L-30.25 33.9 -30.45 33.7 Q-30.45 33.45 -30.25 33.45 -30.0 33.45 -30.0 33.7 M-29.4 32.2 L-29.3 31.95 Q-29.2 31.75 -29.0 31.8 L-28.8 32.0 -28.9 32.6 -29.3 32.95 -29.6 32.8 -29.55 32.55 -29.5 32.45 -29.4 32.2 M-25.35 17.25 L-25.35 17.15 -25.4 17.05 -25.3 16.5 Q-25.3 16.4 -25.15 16.4 L-25.05 16.2 -24.95 16.15 Q-24.85 16.15 -24.8 16.25 -24.75 16.65 -25.0 17.1 L-25.0 17.25 -25.35 17.25 M-25.8 14.15 L-25.7 13.9 -25.45 13.8 -25.3 13.7 -25.1 13.75 -24.8 14.05 -24.7 14.35 -24.7 14.65 -24.95 14.8 -25.2 14.8 -25.2 14.85 -25.25 15.05 Q-25.4 15.35 -25.7 15.3 L-25.85 15.1 -25.9 14.9 -25.8 14.15 M-31.9 5.95 L-31.85 5.8 -31.65 5.75 -31.25 6.0 -31.0 6.4 -30.7 6.8 -30.75 7.1 -31.05 7.05 -31.15 6.95 -31.35 6.95 Q-31.9 6.45 -31.9 5.95 M-31.2 1.65 L-31.05 1.85 -30.6 2.2 Q-30.35 2.55 -30.5 3.0 L-30.75 3.35 -31.2 3.4 Q-32.1 3.05 -32.25 1.9 L-32.1 1.6 -31.85 1.4 Q-31.45 1.3 -31.2 1.65 M-27.8 8.95 L-27.8 8.9 -28.55 8.25 -27.8 8.95 M-30.25 5.55 L-30.25 5.25 -29.95 5.3 Q-29.8 5.45 -29.9 5.65 L-30.0 5.75 -30.15 5.7 -30.25 5.55 M-29.1 3.65 Q-28.95 3.45 -28.75 3.55 L-28.3 3.95 Q-28.15 4.1 -28.25 4.3 L-28.6 4.35 -29.1 4.0 -29.1 3.65 M-6.35 17.3 L-6.1 17.35 Q-6.0 17.45 -6.05 17.6 L-6.1 17.85 -6.05 18.05 -6.1 18.2 -6.25 18.25 -6.25 18.4 -6.35 18.5 -6.45 18.45 -6.65 17.95 -6.65 18.0 -6.8 18.2 -7.05 18.2 -7.1 18.0 -7.05 17.8 -6.8 17.75 -6.8 17.8 -6.7 17.85 -6.8 17.45 -6.6 17.2 -6.35 17.3 M-9.9 13.3 L-9.7 13.05 Q-9.45 13.05 -9.45 13.3 L-9.7 13.55 -9.9 13.3 M-12.15 20.9 L-12.8 21.65 -13.25 22.3 -10.6 22.3 -11.05 21.2 -11.5 20.05 -12.15 20.9 M-17.55 23.75 L-17.8 23.7 -17.9 23.45 -17.65 23.15 -17.4 23.05 -17.1 23.05 -16.8 23.3 -17.0 23.6 -17.55 23.75 M-17.75 14.25 Q-17.65 14.1 -17.55 14.25 L-17.4 14.35 -17.3 14.5 -17.3 14.65 -17.4 14.65 -17.75 14.45 -17.75 14.25 M-14.4 34.0 L-14.25 34.25 -14.3 34.45 -14.5 34.45 -14.7 34.3 -14.75 34.0 -14.65 33.9 -14.4 34.0 -15.25 32.95 -15.25 33.0 -15.35 33.25 -15.65 33.25 -16.35 32.75 -16.95 32.1 -17.4 31.7 -17.7 31.4 -17.85 31.25 -17.8 31.05 -17.8 30.8 Q-17.75 30.7 -17.55 30.7 L-17.25 30.95 -16.95 31.25 -16.15 31.75 -15.9 31.9 -16.85 30.85 -17.9 29.85 -19.3 28.55 -20.1 27.75 -20.2 27.75 -20.95 27.2 -18.85 29.7 -18.9 29.85 -19.05 29.85 Q-20.85 27.8 -23.6 25.1 L-24.6 27.1 -25.3 29.15 -25.75 29.65 -26.4 29.7 -26.5 29.75 -26.7 30.8 -26.9 31.05 -27.15 30.8 -27.0 29.45 -27.2 29.4 -27.7 30.65 -27.8 30.7 -28.05 31.45 Q-28.15 31.7 -28.45 31.65 L-28.6 31.3 -28.7 31.35 -29.1 31.4 -29.15 31.0 -28.6 30.0 -28.2 28.85 -28.5 29.05 -28.55 29.2 Q-28.65 29.45 -28.95 29.35 L-29.55 29.7 Q-29.7 29.75 -29.75 29.6 L-29.65 29.4 -29.35 29.2 -29.5 28.85 Q-29.35 27.9 -28.8 26.8 L-27.8 24.9 -27.8 24.7 -27.15 23.1 -26.85 21.95 -25.65 20.25 -24.75 18.4 -24.6 18.5 -24.25 17.25 Q-24.45 16.0 -24.1 15.1 L-23.85 15.0 -23.65 15.1 -23.35 15.95 Q-23.0 16.5 -23.2 17.15 L-22.65 16.4 -22.4 16.35 -22.3 16.55 -22.75 17.6 -22.9 17.6 -23.0 17.8 Q-22.75 17.6 -22.5 17.55 L-21.85 16.5 Q-21.65 16.3 -21.45 16.4 -21.2 16.55 -21.3 16.8 L-22.05 18.45 -22.7 20.15 -22.75 20.35 -21.35 19.7 -20.5 19.3 -19.5 18.6 -18.7 17.75 Q-18.5 17.5 -18.6 17.2 L-18.55 17.2 -18.6 17.15 Q-18.8 16.8 -19.15 16.75 L-20.0 16.1 -21.15 15.15 -21.25 15.1 -21.4 15.05 -21.55 14.95 -24.45 13.35 -25.6 12.7 -26.6 11.9 -26.6 11.7 -26.4 11.7 -25.4 12.35 -24.3 12.85 -25.9 11.7 -27.35 10.65 -28.65 9.4 -28.65 9.2 Q-30.15 7.9 -30.15 6.8 -30.15 6.55 -29.95 6.45 L-29.55 6.55 -29.25 6.85 -28.7 6.15 -29.7 5.3 -30.55 4.25 -30.5 3.95 -30.2 3.95 -28.2 5.2 Q-26.9 5.9 -26.3 6.55 L-25.05 7.95 Q-24.25 8.9 -24.1 9.6 L-23.1 10.55 -23.45 9.65 -23.4 9.45 -23.2 9.5 -21.8 11.0 -20.35 12.5 -19.9 13.0 -19.75 12.85 -19.55 12.95 -19.4 13.05 -19.1 13.35 -19.05 13.5 -19.1 13.65 -19.15 13.65 -18.75 14.05 -16.95 15.55 Q-15.65 16.4 -15.05 17.3 L-14.8 17.4 Q-14.65 17.4 -14.65 17.55 L-14.75 17.7 -14.6 18.05 -14.6 18.1 -14.55 18.3 -14.7 18.45 -15.75 19.0 -15.85 19.15 -16.3 19.4 -16.55 19.65 Q-18.55 21.3 -20.4 21.7 L-20.45 21.75 -21.7 22.65 Q-18.9 26.75 -16.1 29.15 L-15.35 29.85 -14.85 30.1 Q-14.65 30.2 -14.0 30.6 L-12.8 31.35 -11.8 32.3 -11.3 32.7 Q-11.1 32.85 -11.25 33.1 L-11.65 33.15 -12.75 32.25 Q-13.4 31.65 -13.85 31.35 L-13.55 31.75 -12.45 32.85 Q-11.8 33.5 -11.8 34.2 L-8.55 37.25 Q-8.4 37.35 -8.5 37.55 L-8.75 37.7 -9.3 37.5 -9.75 37.1 -12.1 35.15 -12.25 34.95 -12.85 35.05 -14.2 34.15 -14.4 34.0 M-11.15 15.75 L-11.15 15.8 -11.05 15.7 -10.95 15.7 -10.75 15.25 -10.65 15.2 -10.55 15.3 -10.6 15.4 -10.45 15.45 -10.4 15.65 -10.8 16.8 -9.4 20.45 -9.85 18.55 -9.9 16.65 -9.7 16.4 -9.55 16.4 -9.35 16.55 -9.35 16.6 -9.3 16.55 -9.2 16.55 Q-9.1 16.6 -9.15 16.7 L-9.15 16.75 -9.25 16.85 Q-9.05 17.6 -9.0 18.6 L-8.9 20.4 -8.4 21.95 -8.05 23.5 -7.8 24.55 -6.9 26.85 Q-6.45 28.15 -6.35 29.2 L-6.55 29.4 Q-6.7 29.45 -6.8 29.3 L-6.7 30.7 Q-6.65 30.9 -6.9 30.95 L-7.15 30.75 -7.65 28.2 -7.75 28.25 -7.8 28.3 -7.75 29.0 -8.0 29.25 -8.25 29.05 -8.25 29.0 -8.25 28.3 -8.25 28.25 -8.65 27.9 -9.2 26.6 -9.6 25.2 -9.8 24.65 -10.75 24.6 -11.65 24.55 -14.35 24.75 -14.7 24.7 -14.95 25.25 -15.25 25.6 -15.65 25.5 -15.9 26.45 -16.55 26.95 Q-16.75 27.0 -16.8 26.85 L-16.85 26.85 -16.9 26.6 -16.95 26.6 -17.3 26.7 -17.3 26.75 -17.3 26.8 -17.3 26.85 -17.35 27.05 Q-17.55 27.3 -17.8 27.15 L-18.0 26.85 -17.8 26.65 -17.75 26.65 -17.65 26.4 -17.45 26.25 -17.3 26.2 -16.95 26.25 Q-16.75 26.3 -16.8 26.5 L-16.6 26.3 -16.35 26.1 -16.55 26.1 -16.65 25.95 -16.95 25.95 -17.0 25.65 -16.9 25.55 -17.05 25.45 -17.1 25.6 -17.35 25.7 -17.45 25.45 -17.4 25.2 -17.35 24.95 -16.75 24.15 -16.7 24.05 -17.15 24.2 Q-17.3 24.25 -17.35 24.1 L-17.3 23.95 Q-17.1 23.8 -16.95 23.8 L-16.65 23.85 -16.6 23.85 -15.3 21.4 -13.6 19.15 -11.6 16.1 -11.65 15.8 -11.45 15.6 Q-11.2 15.55 -11.15 15.75 M-10.15 14.05 L-9.95 14.3 -10.05 14.7 -10.1 14.75 -10.2 14.9 -10.4 14.9 -10.6 14.75 -10.7 14.45 Q-10.6 14.3 -10.45 14.3 L-10.4 14.3 -10.4 14.25 Q-10.35 14.05 -10.15 14.05 M-1.2 4.95 L-0.9 4.75 Q-0.7 4.8 -0.65 5.0 -0.55 5.6 -0.75 6.55 L-1.0 8.1 -1.0 9.6 -1.15 11.1 Q-1.2 11.3 -1.4 11.25 L-1.55 11.05 -1.6 10.6 Q-1.95 9.15 -1.9 7.7 -1.8 6.05 -1.2 4.95 M20.65 34.95 L20.9 35.15 20.85 35.4 20.65 35.5 20.45 35.4 20.4 35.15 Q20.45 34.95 20.65 34.95 M30.85 30.45 L30.65 30.4 30.6 30.25 30.75 30.1 31.25 30.25 31.75 30.3 Q32.05 30.3 32.3 30.65 L32.3 30.9 32.05 31.0 31.4 30.75 31.1 30.75 30.85 30.6 30.85 30.45 M8.05 31.8 L7.9 31.5 7.85 31.4 7.75 31.25 Q7.7 31.1 7.8 31.0 L8.0 30.95 8.5 31.65 8.35 31.9 Q8.15 32.0 8.05 31.8 M0.35 30.15 L0.3 29.35 Q0.3 29.2 0.5 29.2 L0.7 29.35 0.75 29.65 0.75 29.75 0.85 29.95 0.8 30.0 0.8 30.15 0.6 30.4 Q0.3 30.4 0.35 30.15 M3.45 26.05 L3.35 26.1 3.3 26.05 3.2 25.8 3.2 25.65 Q3.35 25.6 3.35 25.7 L3.45 26.05 M5.6 29.65 L5.45 29.4 5.1 28.9 Q5.05 28.7 5.15 28.6 L5.45 28.65 5.75 29.2 6.0 29.65 5.85 29.75 5.6 29.65 M19.8 34.5 L19.9 34.65 19.9 35.65 19.65 36.65 19.4 36.7 19.25 36.55 19.4 35.15 19.35 34.65 Q19.35 34.45 19.6 34.4 L19.75 34.4 19.8 34.5 M12.6 29.65 Q12.8 29.6 12.85 29.8 L12.9 30.1 13.1 30.35 13.1 30.65 13.1 30.75 13.1 30.95 12.85 31.1 12.6 30.95 12.5 30.65 12.35 30.6 12.2 30.4 12.1 30.5 11.75 30.5 11.7 30.3 11.75 30.1 12.0 30.0 12.2 30.05 12.3 30.25 12.35 30.2 12.45 30.15 12.45 29.9 12.6 29.65 M15.45 23.45 L15.9 24.1 15.25 24.65 13.35 24.65 15.45 23.45 M16.45 24.15 L15.15 22.4 10.7 22.4 9.4 24.15 10.55 25.1 11.7 25.1 11.7 26.45 12.05 25.95 12.05 25.1 12.25 25.1 12.25 25.95 12.55 25.95 12.55 25.1 12.75 25.1 12.75 25.95 13.1 25.95 13.1 25.1 13.3 25.1 13.3 25.95 13.6 25.95 13.6 25.1 13.8 25.1 13.8 25.95 14.15 26.45 14.15 25.1 15.3 25.1 16.45 24.15 M9.95 24.1 L10.4 23.45 12.5 24.65 10.65 24.65 9.95 24.1 M14.4 15.8 Q14.45 15.55 14.65 15.65 L14.75 15.65 14.85 15.8 14.8 16.0 Q14.75 16.15 14.55 16.1 14.3 16.05 14.4 15.8 M11.1 15.3 L11.2 15.1 11.45 14.95 11.7 15.0 11.75 15.25 11.6 15.4 11.6 15.45 11.5 15.5 11.45 15.5 11.25 15.5 11.2 15.5 11.1 15.3 M16.9 17.05 L16.2 16.35 Q16.1 16.1 16.25 16.0 16.45 15.8 16.65 16.0 L17.15 16.45 17.15 16.5 17.25 16.5 17.35 16.65 17.7 16.8 Q17.85 16.8 17.85 16.9 L17.7 17.0 17.3 16.95 16.9 17.05 M7.0 24.35 L7.15 24.5 7.2 24.7 7.1 24.9 6.65 25.0 6.5 24.9 6.4 24.8 Q6.35 24.6 6.55 24.45 6.65 24.35 6.85 24.35 L7.0 24.35 M14.75 19.3 L14.5 19.5 Q17.15 22.2 17.7 24.65 L17.75 24.75 18.15 24.55 18.45 24.7 18.45 25.05 18.05 25.4 18.2 25.8 18.1 26.1 17.85 26.2 17.85 26.35 17.65 26.6 17.3 26.55 17.0 26.25 13.5 28.45 13.15 28.75 13.25 28.85 13.25 29.1 13.0 29.2 12.75 29.05 12.65 29.15 12.45 29.15 12.3 29.05 11.95 29.2 11.9 29.3 Q11.8 29.5 11.65 29.4 L11.5 29.15 11.45 28.85 11.85 28.25 11.65 28.0 11.45 27.95 Q10.45 27.25 9.6 26.1 L8.15 23.9 8.0 24.0 7.8 23.95 Q7.65 23.85 7.75 23.75 L7.9 23.55 7.35 22.7 Q7.25 22.5 7.45 22.4 L7.8 22.45 8.25 23.15 8.3 23.1 7.6 22.1 7.65 21.8 8.0 21.85 8.7 22.65 Q10.1 21.35 12.9 19.8 L12.7 19.1 Q12.65 18.85 12.85 18.75 13.1 18.65 13.2 18.9 L13.5 19.45 13.6 19.35 13.75 19.2 13.95 19.15 14.45 18.9 14.8 19.0 14.75 19.3 M11.95 19.45 L11.95 19.55 11.3 20.05 11.05 20.35 10.6 20.9 10.5 20.95 9.55 21.65 9.15 21.6 Q8.95 21.4 9.1 21.25 L9.6 20.8 10.15 20.5 10.6 20.05 11.05 19.7 Q11.45 19.45 11.8 19.35 L11.95 19.45 M-0.65 10.95 L-0.45 8.4 -0.45 8.3 Q-0.45 8.05 -0.15 8.1 L0.1 8.4 0.0 12.65 0.25 15.45 0.5 18.3 0.6 24.05 0.65 28.1 0.4 28.35 0.1 28.1 0.1 28.05 0.05 27.95 0.05 27.5 -0.05 27.45 -0.5 26.95 -0.8 27.1 -1.05 26.85 -1.15 26.25 -2.5 24.7 -3.85 23.55 -4.15 26.3 Q-4.2 26.75 -4.6 26.8 -5.0 26.8 -5.05 26.4 L-5.35 26.4 -5.6 26.25 -5.65 27.05 -5.9 27.3 -6.2 27.05 -6.2 25.65 -6.45 24.85 -6.55 24.3 -6.8 22.1 -6.75 19.85 -6.6 19.7 -6.4 19.7 -6.4 19.0 Q-6.35 18.8 -6.1 18.8 -5.85 18.8 -5.8 19.0 L-5.65 19.7 -5.55 19.8 -5.35 19.95 -4.9 20.6 -5.15 20.2 -5.0 19.8 Q-4.8 19.65 -4.65 19.9 L-2.7 22.7 -1.6 23.65 -1.75 22.7 -2.1 20.7 -2.1 19.15 Q-2.05 18.15 -2.15 17.6 L-2.05 17.0 -1.95 12.95 -1.7 12.7 Q-1.45 12.65 -1.4 12.9 L-1.05 15.8 -0.9 11.25 -0.8 11.0 -0.65 10.95 M10.15 14.95 L10.5 15.0 10.45 15.35 9.95 15.8 9.9 15.8 9.85 15.85 9.65 15.9 9.35 16.0 9.2 15.9 9.3 15.7 9.4 15.65 Q9.35 15.45 9.55 15.35 L10.15 14.95 M8.65 15.95 L8.7 15.95 9.05 16.05 9.0 16.4 8.75 16.55 9.1 16.45 9.35 16.45 9.65 16.2 Q9.9 16.05 10.05 16.2 10.25 16.4 10.1 16.55 L10.15 16.8 10.0 17.0 Q10.25 17.45 9.85 17.8 L9.75 17.85 9.6 18.0 6.25 20.55 5.15 21.45 3.95 22.6 5.75 25.2 6.6 26.05 7.45 26.8 8.75 28.35 Q9.05 28.65 8.95 29.05 L8.6 29.65 8.95 30.25 8.9 30.55 8.55 30.55 7.9 29.7 7.8 29.65 7.45 29.3 7.6 30.15 7.45 30.45 Q7.2 30.55 7.1 30.3 L6.7 29.4 6.4 29.25 5.55 28.2 4.7 27.1 3.15 25.1 1.9 24.05 Q1.3 23.25 1.25 22.6 1.2 21.95 1.7 21.55 1.75 21.0 2.15 20.6 L3.1 19.75 5.55 17.9 7.0 16.75 Q7.85 16.15 8.65 15.95 M22.0 21.95 L21.85 23.35 22.05 25.8 22.25 25.7 25.35 24.4 24.55 23.7 22.8 21.65 22.75 21.55 22.05 21.1 22.0 21.95 M17.85 17.2 Q17.7 17.05 17.9 16.9 L18.25 16.85 Q18.8 17.1 19.35 17.45 20.1 17.55 20.9 18.0 L21.2 17.95 21.4 18.2 21.4 18.3 22.85 19.45 23.9 20.3 24.65 20.75 26.2 21.55 27.6 22.55 Q28.55 23.1 28.7 23.6 L28.65 23.8 28.85 24.0 28.95 23.8 29.15 23.75 29.35 23.8 29.55 23.75 29.65 23.8 29.75 23.6 29.95 23.6 30.05 23.75 30.55 23.95 30.8 24.1 31.0 24.35 30.9 24.5 30.55 24.5 30.3 24.35 29.85 24.2 29.7 24.3 29.15 24.3 29.2 24.35 29.45 24.35 29.7 24.6 29.5 24.9 29.0 25.0 29.0 25.2 28.8 25.4 27.95 25.55 26.95 26.15 25.9 26.55 23.45 27.25 24.95 27.75 26.4 28.15 27.9 28.55 28.85 28.8 29.85 29.05 30.2 29.15 30.25 29.2 30.45 29.2 30.6 29.35 30.6 29.55 30.55 29.65 30.4 29.7 28.0 29.3 Q29.15 29.7 29.7 30.3 L30.3 30.65 30.35 30.7 31.6 31.7 31.6 31.95 31.4 32.0 29.85 31.25 29.75 31.15 28.35 30.65 26.65 30.2 28.3 30.9 29.95 31.6 30.05 31.75 29.85 31.85 Q26.8 31.4 23.4 29.05 L21.9 28.5 21.5 30.75 21.4 30.9 21.2 32.35 21.1 33.8 20.85 34.0 20.7 34.05 20.55 33.9 20.55 33.5 20.4 33.6 20.2 33.45 20.2 33.25 20.1 33.1 20.05 32.3 19.45 32.2 Q19.05 31.85 19.05 31.1 L19.15 29.9 19.5 26.15 19.8 23.9 Q19.8 22.25 20.05 20.55 L20.05 20.5 Q19.85 20.05 20.1 19.65 L18.25 18.1 Q18.05 17.9 18.25 17.7 L17.85 17.2" fill="#ffffff" fill-rule="evenodd" stroke="none"/>
  </g>
</svg>
