<?xml version="1.0" encoding="UTF-8" standalone="no"?>
<svg xmlns:xlink="http://www.w3.org/1999/xlink" height="14.55px" width="138.4px" xmlns="http://www.w3.org/2000/svg">
  <g transform="matrix(1.0, 0.0, 0.0, 1.0, 69.2, -11.85)">
    <path d="M-48.25 15.85 Q-47.7 15.85 -47.35 16.2 -47.0 16.55 -47.0 17.1 L-47.0 25.2 Q-47.0 25.7 -47.35 26.1 -47.7 26.4 -48.25 26.4 L-49.1 26.1 Q-49.5 25.7 -49.5 25.2 L-49.5 17.1 Q-49.5 16.55 -49.1 16.2 -48.75 15.85 -48.25 15.85 M-50.35 21.4 Q-50.35 23.5 -51.5 24.95 -52.75 26.4 -54.45 26.4 L-67.05 26.4 -67.95 26.1 -68.25 25.2 -67.95 24.3 Q-67.55 23.95 -67.05 23.95 L-54.45 23.95 Q-53.8 23.95 -53.3 23.2 -52.8 22.45 -52.8 21.4 -52.8 20.4 -53.3 19.6 -53.8 18.85 -54.45 18.85 L-63.75 18.85 Q-64.25 18.85 -64.6 18.5 -64.95 18.15 -64.95 17.6 -64.95 17.1 -64.6 16.75 -64.25 16.35 -63.75 16.35 L-54.45 16.35 Q-52.75 16.35 -51.5 17.85 -50.35 19.3 -50.35 21.4 M-26.7 12.6 Q-26.05 12.6 -25.7 13.1 L-17.1 24.45 Q-16.8 24.85 -16.85 25.35 -16.9 25.9 -17.35 26.2 -17.65 26.4 -18.1 26.4 -18.7 26.4 -19.1 25.95 L-21.55 22.65 -28.55 22.65 Q-29.05 22.65 -29.45 22.3 L-29.8 21.4 Q-29.8 20.9 -29.45 20.55 -29.05 20.15 -28.55 20.15 L-23.45 20.15 -26.65 15.95 -33.7 25.9 Q-34.05 26.4 -34.75 26.4 L-35.45 26.2 Q-35.85 25.9 -35.9 25.4 L-35.75 24.5 -27.7 13.1 Q-27.3 12.6 -26.7 12.6 M-37.05 15.85 Q-37.55 15.1 -38.2 15.1 L-65.1 15.1 Q-65.75 15.1 -66.25 15.85 -66.75 16.6 -66.75 17.6 -66.75 18.65 -66.25 19.4 -65.75 20.15 -65.1 20.15 L-55.8 20.15 Q-55.25 20.15 -54.9 20.55 -54.55 20.9 -54.55 21.4 -54.55 21.9 -54.9 22.3 -55.25 22.65 -55.8 22.65 L-65.1 22.65 Q-66.8 22.65 -68.0 21.2 -69.2 19.7 -69.2 17.6 -69.2 15.5 -68.0 14.05 -66.8 12.6 -65.1 12.6 L-38.2 12.6 Q-36.5 12.6 -35.3 14.05 -34.1 15.5 -34.1 17.6 -34.1 19.7 -35.3 21.2 -36.5 22.65 -38.2 22.65 L-44.85 22.65 -45.75 22.3 -46.05 21.4 Q-46.05 20.9 -45.75 20.55 L-44.85 20.15 -38.2 20.15 Q-37.55 20.15 -37.05 19.4 -36.55 18.65 -36.55 17.6 -36.55 16.6 -37.05 15.85 M14.1 14.2 Q13.7 14.6 13.15 14.6 L-11.65 14.6 Q-12.95 14.6 -13.9 15.9 -14.85 17.25 -14.85 19.1 -14.85 21.0 -13.9 22.35 -12.95 23.7 -11.65 23.7 L-3.35 23.7 Q-2.85 23.7 -2.45 24.05 -2.1 24.4 -2.1 24.9 -2.1 25.4 -2.45 25.8 -2.85 26.15 -3.35 26.15 L-11.65 26.15 Q-14.0 26.15 -15.65 24.1 -17.35 22.0 -17.35 19.1 -17.35 16.25 -15.65 14.15 -14.0 12.1 -11.65 12.1 L13.15 12.1 Q13.7 12.1 14.1 12.5 L14.45 13.3 Q14.45 13.85 14.1 14.2 M29.65 19.4 Q29.1 18.65 28.5 18.65 L19.15 18.65 Q18.65 18.65 18.3 18.25 17.95 17.9 17.95 17.4 17.95 16.9 18.3 16.5 18.65 16.15 19.15 16.15 L28.5 16.15 Q30.15 16.15 31.4 17.6 32.6 19.1 32.6 21.2 32.6 23.25 31.4 24.75 30.15 26.2 28.5 26.2 L7.6 26.2 7.3 26.15 -1.1 26.15 -1.1 16.3 Q-1.1 15.8 -0.7 15.4 -0.35 15.1 0.2 15.1 0.7 15.1 1.05 15.4 1.45 15.8 1.45 16.3 L1.45 17.9 9.15 17.9 Q9.65 17.9 10.05 18.25 10.35 18.6 10.35 19.1 L10.05 20.0 9.15 20.35 1.45 20.35 1.45 23.7 13.15 23.7 13.5 23.75 28.5 23.75 Q29.1 23.75 29.65 22.95 30.15 22.2 30.15 21.2 30.15 20.15 29.65 19.4 M31.35 12.35 Q31.85 12.35 32.25 12.7 L32.6 13.6 32.25 14.45 Q31.85 14.85 31.35 14.85 L18.75 14.85 Q18.1 14.85 17.6 15.6 17.1 16.35 17.1 17.4 17.1 18.4 17.6 19.2 18.1 19.9 18.75 19.9 L28.05 19.9 Q28.6 19.9 28.9 20.3 29.3 20.65 29.3 21.2 29.3 21.7 28.9 22.05 28.6 22.45 28.05 22.45 L18.75 22.45 Q17.05 22.45 15.85 20.95 14.65 19.45 14.65 17.4 14.65 15.3 15.85 13.85 17.05 12.35 18.75 12.35 L31.35 12.35 M48.35 12.45 Q48.6 12.9 48.5 13.4 L47.95 14.15 39.9 19.2 48.6 23.9 Q49.05 24.1 49.2 24.6 49.35 25.1 49.1 25.55 48.7 26.2 48.0 26.2 L47.4 26.05 36.15 19.95 36.15 24.95 Q36.15 25.5 35.75 25.85 35.4 26.2 34.85 26.2 34.35 26.2 34.0 25.85 33.65 25.5 33.65 24.95 L33.65 13.6 Q33.65 13.1 34.0 12.7 34.35 12.35 34.85 12.35 35.4 12.35 35.75 12.7 36.15 13.1 36.15 13.6 L36.15 18.65 46.65 12.05 47.3 11.85 Q47.95 11.85 48.35 12.45 M51.45 11.85 Q51.95 11.85 52.35 12.25 52.7 12.6 52.7 13.1 L52.7 24.95 Q52.7 25.5 52.35 25.85 51.95 26.2 51.45 26.2 50.95 26.2 50.6 25.85 50.2 25.5 50.2 24.95 L50.2 13.1 Q50.2 12.6 50.6 12.25 50.95 11.85 51.45 11.85 M69.2 13.1 L69.2 24.95 69.0 25.65 68.45 26.1 67.95 26.2 Q67.45 26.2 67.1 25.9 L56.35 15.95 56.35 24.95 Q56.35 25.5 56.0 25.85 L55.1 26.2 Q54.6 26.2 54.25 25.85 53.85 25.5 53.85 24.95 L53.85 13.1 54.05 12.45 Q54.25 12.15 54.6 11.95 L55.3 11.9 Q55.65 11.95 55.95 12.2 L66.7 22.1 66.7 13.1 Q66.7 12.6 67.05 12.25 67.45 11.85 67.95 11.85 68.45 11.85 68.85 12.25 69.2 12.6 69.2 13.1" fill="#ffffff" fill-rule="evenodd" stroke="none"/>
  </g>
</svg>
