<?xml version="1.0" encoding="UTF-8" standalone="no"?>
<svg xmlns:xlink="http://www.w3.org/1999/xlink" height="31.35px" width="125.7px" xmlns="http://www.w3.org/2000/svg">
  <g transform="matrix(1.0, 0.0, 0.0, 1.0, 62.85, -3.8)">
    <path d="M-36.85 14.4 Q-36.85 10.95 -38.5 9.35 -40.0 7.8 -43.45 7.8 L-51.7 7.8 Q-55.15 7.8 -56.7 9.35 -58.3 10.95 -58.3 14.4 L-58.3 24.9 Q-58.3 28.35 -56.7 29.95 -55.15 31.5 -51.7 31.5 L-43.45 31.5 Q-40.0 31.5 -38.5 29.95 -36.85 28.35 -36.85 24.9 L-36.85 21.9 -42.85 21.9 -42.85 24.9 Q-42.85 26.95 -44.8 26.95 L-50.4 26.95 Q-52.35 26.95 -52.35 24.9 L-52.35 14.4 Q-52.35 12.45 -50.4 12.45 L-44.8 12.45 Q-42.85 12.45 -42.85 14.4 L-42.85 18.0 -36.85 18.0 -36.85 14.4 M-61.4 5.3 Q-59.95 3.8 -57.85 3.8 L-9.85 3.8 Q-7.8 3.8 -6.35 5.3 -4.85 6.75 -4.85 8.85 L-4.85 30.15 Q-4.85 32.2 -6.35 33.7 -7.8 35.15 -9.85 35.15 L-57.85 35.15 Q-59.95 35.15 -61.4 33.7 -62.85 32.2 -62.85 30.15 L-62.85 8.85 Q-62.85 6.75 -61.4 5.3 M-9.85 31.15 L-9.85 8.15 -16.1 8.15 -22.7 20.35 -29.25 8.15 -35.5 8.15 -35.5 31.15 -29.6 31.15 -29.6 18.35 -24.95 26.6 -20.4 26.6 -15.8 18.35 -15.8 31.15 -9.85 31.15 M17.2 26.6 Q16.5 24.25 15.6 22.25 L13.9 26.6 17.2 26.6 M14.3 19.65 L16.9 19.65 Q19.35 25.1 21.05 30.85 L18.55 30.85 17.9 28.5 13.35 28.5 12.65 30.85 10.2 30.85 Q11.95 24.95 14.3 19.65 M6.4 19.65 L9.85 19.65 9.85 30.85 7.5 30.85 7.5 22.6 5.55 28.45 3.25 28.45 1.3 22.6 1.3 30.85 -1.0 30.85 -1.0 19.65 2.4 19.65 4.4 25.7 6.4 19.65 M6.2 11.4 L5.6 10.2 Q5.0 9.65 3.65 9.65 2.2 9.65 1.6 10.6 0.95 11.6 0.95 13.8 0.95 15.65 1.5 16.55 2.2 17.45 3.7 17.45 4.9 17.45 5.5 17.05 6.05 16.55 6.2 15.45 L8.5 15.45 Q8.25 19.4 3.65 19.4 1.1 19.4 -0.15 18.05 -1.4 16.6 -1.4 13.6 -1.4 10.6 -0.2 9.15 1.1 7.7 3.65 7.7 8.0 7.7 8.5 11.4 L6.2 11.4 M18.0 11.3 Q18.0 12.85 17.45 13.65 16.9 14.4 15.8 14.6 L18.75 19.15 15.95 19.15 13.2 14.75 11.15 14.75 11.15 19.15 8.8 19.15 8.8 7.9 13.65 7.9 Q15.9 7.9 16.7 8.35 18.0 9.1 18.0 11.3 M15.1 12.55 Q15.7 12.2 15.7 11.25 15.7 10.35 15.25 10.1 L13.35 9.85 11.15 9.85 11.15 12.8 13.2 12.8 15.1 12.55 M18.95 7.9 L21.3 7.9 21.3 19.15 18.95 19.15 18.95 7.9 M31.15 24.9 Q30.4 24.1 30.4 22.75 30.4 19.4 34.6 19.4 38.85 19.4 39.0 22.95 L36.7 22.95 36.3 21.8 Q35.85 21.4 34.55 21.4 L33.2 21.6 Q32.75 21.85 32.75 22.5 32.75 23.05 33.1 23.35 L33.9 23.75 36.35 24.4 Q37.8 24.75 38.45 25.35 39.35 26.15 39.35 27.65 39.35 29.75 37.75 30.55 36.7 31.15 34.95 31.15 32.35 31.15 31.2 30.1 30.25 29.25 30.15 27.35 L32.5 27.35 Q32.55 28.35 32.9 28.7 L34.95 29.15 36.4 28.95 Q37.0 28.6 37.0 27.85 L36.7 27.0 35.65 26.5 32.95 25.75 Q31.75 25.5 31.15 24.9 M25.0 21.4 L23.7 21.6 Q23.25 21.85 23.25 22.5 23.25 23.05 23.6 23.35 L24.4 23.75 26.9 24.4 Q28.35 24.75 29.0 25.35 29.8 26.15 29.8 27.65 29.8 31.15 25.45 31.15 22.85 31.15 21.75 30.1 20.8 29.25 20.65 27.35 L22.95 27.35 Q23.05 28.35 23.45 28.7 23.95 29.15 25.45 29.15 L26.9 28.95 Q27.5 28.6 27.5 27.85 27.5 27.35 27.2 27.0 26.9 26.65 26.2 26.5 L23.45 25.75 Q22.25 25.5 21.7 24.9 20.9 24.1 20.9 22.75 20.9 19.4 25.15 19.4 29.4 19.4 29.45 22.95 L27.15 22.95 26.85 21.8 Q26.35 21.4 25.0 21.4 M33.95 7.9 L33.95 19.15 31.65 19.15 31.65 7.9 33.95 7.9 M31.0 7.9 L31.0 9.9 27.65 9.9 27.65 19.15 25.35 19.15 25.35 9.9 21.95 9.9 21.95 7.9 31.0 7.9 M49.05 10.55 Q48.2 12.45 47.4 14.85 L50.7 14.85 49.05 10.55 M41.3 17.05 Q41.9 16.55 42.0 15.45 L44.35 15.45 Q44.05 19.4 39.5 19.4 36.95 19.4 35.7 18.05 34.4 16.6 34.4 13.6 34.4 10.6 35.65 9.15 36.95 7.7 39.5 7.7 43.8 7.7 44.35 11.4 L42.0 11.4 Q41.8 10.55 41.4 10.2 40.85 9.65 39.5 9.65 38.1 9.65 37.4 10.6 36.75 11.6 36.75 13.8 36.75 15.65 37.4 16.55 38.0 17.45 39.55 17.45 40.75 17.45 41.3 17.05 M46.1 19.15 L43.65 19.15 Q45.4 13.15 47.8 7.9 L50.4 7.9 Q52.85 13.4 54.5 19.15 L52.0 19.15 51.35 16.8 46.8 16.8 46.1 19.15 M62.85 17.2 L62.85 19.15 55.0 19.15 55.0 7.9 57.25 7.9 57.25 17.2 62.85 17.2" fill="#ffffff" fill-rule="evenodd" stroke="none"/>
  </g>
</svg>
