<?xml version="1.0" encoding="UTF-8" standalone="no"?>
<svg xmlns:xlink="http://www.w3.org/1999/xlink" height="18.6px" width="139.9px" xmlns="http://www.w3.org/2000/svg">
  <g transform="matrix(1.0, 0.0, 0.0, 1.0, 69.95, -10.4)">
    <path d="M-60.6 10.75 L-59.75 10.9 Q-60.0 11.0 -60.05 11.4 L-60.2 12.2 -60.2 14.2 -60.0 15.15 -59.55 15.65 -60.5 16.0 Q-60.9 16.15 -61.0 16.6 L-61.2 17.65 -61.5 17.65 Q-61.5 16.9 -61.75 16.5 -61.8 16.15 -62.25 16.0 -62.55 15.75 -63.15 15.65 L-62.85 15.15 -62.75 14.2 -62.75 12.85 Q-62.75 12.2 -63.25 11.9 -63.75 11.6 -64.6 11.6 -65.3 11.6 -65.65 11.9 L-65.95 12.65 -65.85 13.8 -65.45 15.0 -65.0 16.0 -64.1 17.25 -62.85 18.5 -61.6 19.15 -61.95 19.45 -61.95 19.75 -61.5 19.9 -60.9 20.0 -61.2 20.65 Q-61.2 21.1 -60.6 21.85 L-60.0 22.95 Q-59.65 23.6 -59.45 24.4 L-59.15 25.85 Q-59.15 26.6 -59.75 27.3 -60.2 28.05 -61.3 28.5 L-64.3 29.0 -65.3 28.9 -66.15 28.85 -66.85 28.8 -67.45 28.75 -68.1 28.8 -68.5 29.0 -69.0 28.65 -69.85 28.5 -69.55 28.05 Q-69.4 27.8 -69.4 27.15 L-69.4 24.6 Q-69.4 24.1 -69.55 23.8 L-69.95 23.3 -68.8 23.05 -68.3 22.45 -68.1 21.4 -67.8 21.4 -67.6 22.45 -67.05 23.05 -66.15 23.3 -66.35 23.75 -66.45 24.6 -66.45 26.25 Q-66.45 27.1 -65.95 27.45 L-64.9 27.8 -63.45 27.45 Q-63.05 27.1 -63.05 26.45 -63.15 25.0 -63.9 23.7 -64.6 22.35 -65.45 21.4 L-66.35 20.65 -67.2 20.35 -66.95 20.05 -66.95 19.75 -67.45 19.5 -68.0 19.35 Q-67.8 19.15 -67.9 18.8 -67.9 18.4 -68.3 17.85 L-69.0 16.65 -69.65 14.95 -69.95 13.2 Q-69.95 12.45 -69.4 11.75 -68.95 11.2 -67.8 10.75 L-65.1 10.45 -64.3 10.45 -63.55 10.5 -63.0 10.6 -62.25 10.65 -61.6 10.6 -61.2 10.45 -60.6 10.75 M-41.55 10.7 L-40.75 10.85 -41.15 12.9 -41.45 12.9 -41.45 12.2 -41.55 11.95 -41.75 11.9 -41.95 12.05 -42.1 12.35 -42.1 17.25 Q-42.1 18.25 -41.75 18.65 L-41.25 19.1 -41.55 19.3 -41.75 19.6 -41.55 19.9 -41.15 20.05 -41.75 20.65 Q-42.1 21.05 -42.1 22.3 L-42.1 27.3 -41.95 27.45 -41.75 27.5 -41.45 27.45 -41.35 27.3 -41.35 26.45 -40.9 26.45 -40.4 28.5 -41.25 28.65 Q-41.75 28.75 -41.9 29.0 -41.95 28.85 -42.15 28.85 L-42.7 28.8 -43.3 28.75 -43.9 28.75 -45.15 28.8 -46.1 29.0 Q-46.2 28.8 -46.7 28.65 L-47.75 28.5 -47.35 26.45 -46.9 26.45 -46.9 27.25 -46.8 27.45 -46.6 27.55 -46.3 27.45 -46.2 27.05 -46.2 22.1 Q-46.2 21.1 -46.4 20.65 -46.6 20.15 -46.9 20.05 L-46.6 19.9 -46.4 19.6 -46.5 19.35 -46.9 19.1 Q-46.6 19.0 -46.4 18.5 L-46.2 17.35 -46.2 14.8 -46.4 14.8 -47.1 17.75 -47.2 18.5 -47.1 19.1 -47.55 19.3 -47.75 19.55 -47.55 19.9 -47.1 20.05 -47.55 20.65 -47.95 21.75 -49.35 28.5 -50.0 28.65 -50.5 29.0 Q-50.7 28.8 -51.05 28.65 L-51.65 28.5 -53.05 21.95 -53.4 20.9 -53.6 20.3 -53.8 20.05 -53.5 19.9 -53.4 19.6 -53.5 19.3 -53.9 19.1 -53.8 18.65 -53.9 17.75 -54.55 14.8 -54.8 14.8 -54.8 17.4 -54.6 18.65 -54.2 19.1 -54.4 19.3 -54.55 19.6 -54.4 19.9 Q-54.3 19.9 -54.1 20.05 L-54.6 21.0 -54.8 22.55 -54.8 27.25 -54.75 27.45 -54.4 27.55 -54.2 27.5 -54.1 27.25 -54.1 26.45 -53.7 26.45 -53.05 28.5 -53.9 28.65 -54.4 29.0 -54.75 28.85 -55.05 28.8 -55.45 28.75 -55.95 28.75 -56.8 28.8 -57.4 29.0 Q-57.6 28.85 -58.1 28.65 L-59.05 28.5 -58.5 26.4 -58.25 26.4 -58.1 27.25 -58.1 27.45 -57.8 27.5 -57.6 27.45 -57.6 21.95 Q-57.6 20.9 -57.8 20.55 L-58.3 20.05 -58.0 19.9 -57.8 19.6 -57.9 19.3 -58.45 19.1 -57.8 18.65 -57.6 17.25 -57.6 12.4 -57.6 11.95 -57.8 11.85 -58.25 11.95 -58.25 12.2 -58.25 12.85 -58.75 12.85 -59.05 10.85 -58.1 10.7 -57.4 10.45 -57.0 10.45 -56.5 10.6 -55.85 10.65 -55.35 10.65 -54.1 10.6 -53.3 10.45 -52.55 10.65 -51.45 10.75 -50.0 17.85 -49.7 17.85 -48.15 10.75 -47.1 10.65 -46.3 10.45 -45.85 10.45 -45.35 10.6 -44.75 10.65 -44.35 10.65 -43.1 10.6 -42.15 10.45 -41.55 10.7 M-34.25 11.75 Q-34.55 11.95 -34.55 12.45 L-34.55 17.15 -34.45 18.25 -34.15 18.8 -33.7 19.1 -34.25 19.3 -34.45 19.6 -34.25 19.9 -33.7 20.15 Q-34.25 20.35 -34.45 20.9 L-34.55 22.35 -34.55 26.85 Q-34.55 27.4 -34.25 27.55 L-33.2 27.8 -32.2 27.55 Q-31.75 27.4 -31.75 26.85 L-31.75 22.2 Q-31.75 21.45 -32.0 21.0 L-32.2 20.4 Q-32.4 20.2 -32.7 20.15 L-32.2 19.9 -32.0 19.6 -32.2 19.35 -32.7 19.1 Q-32.2 18.9 -32.0 18.4 -31.75 17.9 -31.75 17.15 L-31.75 12.4 Q-31.75 11.95 -32.1 11.75 L-33.15 11.6 -34.25 11.75 M-30.0 10.6 Q-29.1 10.75 -28.4 11.2 -27.7 11.7 -27.55 12.55 L-27.55 16.9 -27.5 18.15 -27.15 18.65 -26.75 19.0 Q-27.05 19.1 -27.15 19.25 L-27.35 19.55 -27.15 19.8 -26.75 20.0 -27.35 20.65 -27.55 22.1 -27.55 26.0 Q-27.7 27.1 -28.4 27.75 -29.1 28.4 -30.0 28.65 L-31.7 29.0 Q-31.75 28.85 -32.0 28.85 L-32.3 28.8 -32.7 28.75 -33.2 28.75 -34.15 28.8 -34.7 29.0 -36.3 28.75 Q-37.2 28.5 -38.05 28.05 -38.8 27.55 -38.8 26.85 L-38.8 21.75 -39.1 20.65 -39.7 20.15 -39.15 19.9 -39.1 19.65 -39.15 19.4 -39.7 19.2 -39.3 18.9 -39.0 18.35 -38.8 17.35 -38.8 12.85 Q-38.8 11.75 -37.55 11.15 -36.45 10.45 -34.75 10.45 L-34.45 10.5 -34.15 10.6 -33.65 10.65 -33.15 10.65 -32.1 10.6 -31.6 10.45 -30.0 10.6 M-11.5 10.65 L-10.7 10.75 -12.25 12.9 -12.65 12.9 -12.25 12.2 -12.15 11.95 -12.35 11.9 -12.65 11.95 -12.95 12.2 -15.95 16.9 -15.55 18.1 -14.4 19.1 -14.85 19.4 -14.9 19.7 -14.6 20.0 -14.1 20.15 -14.5 20.65 Q-14.7 21.0 -14.5 21.7 L-12.65 27.4 -12.55 27.55 -12.25 27.65 -12.15 27.55 -12.15 27.45 -12.15 26.6 -11.85 26.6 -11.0 28.5 -11.65 28.65 -12.15 29.0 -12.55 28.85 -13.1 28.8 -13.6 28.75 -14.2 28.75 -15.35 28.8 -16.15 29.0 -17.0 28.65 -17.9 28.5 -18.35 26.5 -18.0 26.5 -17.6 27.3 -17.3 27.5 -17.0 27.55 -16.85 27.45 -16.85 27.1 -18.9 20.45 -19.05 20.45 -20.15 22.35 -20.15 27.45 -19.95 27.55 -19.65 27.45 -19.55 27.25 -19.55 26.5 -19.25 26.5 -18.85 28.5 -19.65 28.65 -20.3 29.0 -20.65 28.85 -21.2 28.8 -21.8 28.75 -22.3 28.75 -23.45 28.8 -24.3 29.0 Q-24.5 28.8 -25.0 28.65 L-25.8 28.5 -25.3 26.35 -25.0 26.35 -25.0 27.15 -24.9 27.45 -24.55 27.45 -24.35 27.4 -24.35 27.1 -24.35 22.15 -24.55 20.65 Q-24.9 20.15 -25.2 20.0 L-24.8 19.8 -24.55 19.5 -24.8 19.2 -25.2 18.9 -24.55 18.4 -24.35 17.15 -24.35 12.05 -24.35 11.75 -24.55 11.7 -24.9 11.75 -25.0 12.1 -25.0 12.8 -25.4 12.8 -25.75 10.75 -24.8 10.65 -24.05 10.45 -23.65 10.5 -23.25 10.6 -22.6 10.65 -22.1 10.65 -20.85 10.6 -19.95 10.45 -19.35 10.7 -18.55 10.75 -19.05 12.9 -19.35 12.9 -19.45 12.15 -19.55 11.95 -19.75 11.9 -20.05 11.95 -20.15 12.35 -20.15 18.65 -20.05 18.65 -15.85 12.2 -15.75 11.95 -15.95 11.85 -16.25 11.85 -16.45 12.05 -17.1 12.9 -17.35 12.85 -16.35 10.7 -15.35 10.65 -14.7 10.45 -14.5 10.45 -14.2 10.6 -13.8 10.65 -13.45 10.65 -12.75 10.6 -12.25 10.45 -11.5 10.65 M0.95 10.85 L0.6 11.2 0.5 11.95 0.5 14.4 0.6 15.15 0.8 15.65 Q0.2 15.75 -0.25 16.0 L-0.6 16.6 -0.8 17.65 -1.15 17.65 Q-1.15 16.65 -1.55 16.2 -1.85 15.85 -2.9 15.65 L-2.55 15.15 -2.45 14.3 -2.45 12.85 Q-2.45 12.2 -2.75 11.9 L-3.7 11.65 Q-4.45 11.6 -4.7 11.9 -5.05 12.15 -5.05 12.85 L-5.05 17.65 Q-5.05 18.45 -4.85 18.65 L-4.2 18.9 -3.8 18.65 -3.6 18.45 -3.7 18.25 -3.8 18.1 -3.95 17.85 -4.0 17.5 -3.5 17.1 -2.7 16.9 -2.9 17.1 -2.9 17.25 -2.75 17.5 -2.25 17.8 -1.85 18.1 -1.65 18.45 -1.85 18.9 -2.45 19.15 -1.35 19.6 -2.45 20.0 Q-2.05 20.15 -1.85 20.35 L-1.65 20.8 -1.75 21.15 -2.25 21.45 -2.9 21.8 -3.2 22.1 -3.1 22.3 -2.9 22.45 -3.7 22.35 -4.1 21.85 -4.0 21.55 -3.8 21.2 -3.6 21.0 -3.6 20.75 -3.8 20.5 -4.3 20.4 Q-4.85 20.35 -4.95 20.7 L-5.05 22.1 -5.05 27.05 Q-5.05 27.45 -4.7 27.65 L-3.7 27.8 -2.7 27.55 Q-2.35 27.3 -2.45 26.6 L-2.45 24.8 -2.45 24.05 Q-2.55 23.7 -2.75 23.5 L-1.75 23.15 -1.15 22.6 Q-1.0 22.2 -1.0 21.45 L-0.75 21.45 -0.5 22.7 0.0 23.2 1.0 23.55 0.6 24.0 0.5 24.8 0.5 27.0 0.5 27.8 0.6 28.3 0.95 28.5 0.2 28.65 -0.45 28.85 -0.75 28.85 -1.15 28.8 -1.45 28.75 -1.85 28.75 -2.7 28.8 -3.3 28.85 -3.95 28.9 -4.85 29.0 -5.55 28.9 -6.4 28.85 -7.2 28.75 -8.0 28.75 -8.65 28.8 -9.25 29.0 Q-9.45 28.8 -9.9 28.65 L-10.8 28.5 -10.3 26.25 -9.9 26.25 -9.9 27.1 -9.9 27.4 -9.6 27.45 -9.25 27.4 -9.25 27.1 -9.25 22.45 Q-9.25 21.3 -9.6 20.7 -9.9 20.2 -10.1 20.05 L-9.65 19.8 -9.45 19.55 -9.65 19.3 -10.1 19.1 -9.45 18.45 -9.25 17.15 -9.25 12.15 -9.25 11.9 -9.45 11.85 -9.75 11.9 -9.9 12.15 -9.9 12.95 -10.3 12.95 -10.7 10.85 -9.9 10.7 -9.15 10.45 -8.85 10.5 -8.35 10.6 -7.8 10.65 -7.2 10.65 -6.2 10.6 -5.45 10.5 -4.85 10.45 -4.3 10.45 -3.5 10.45 -2.9 10.5 -2.25 10.6 -1.55 10.65 -0.95 10.6 -0.3 10.45 0.2 10.7 0.95 10.85 M36.4 18.25 L36.4 17.9 36.2 15.5 36.1 15.25 36.0 15.2 35.8 15.25 35.8 15.5 35.5 17.9 35.6 18.65 35.9 19.1 35.6 19.3 35.5 19.65 35.6 19.9 35.9 20.15 35.25 20.7 Q35.0 21.15 35.0 21.7 34.85 22.1 35.05 22.35 L36.0 22.45 36.95 22.35 Q37.15 22.15 37.0 21.7 L36.7 20.7 36.1 20.15 36.5 19.9 36.5 19.65 Q36.5 19.35 36.1 19.1 L36.3 18.8 36.4 18.25 M18.2 15.65 Q17.6 15.75 17.3 16.0 16.9 16.15 16.75 16.6 L16.55 17.65 16.25 17.65 16.05 16.5 15.55 16.0 14.6 15.65 14.9 15.15 15.0 14.2 15.0 12.85 Q15.0 12.2 14.5 11.9 14.0 11.6 13.15 11.6 12.45 11.6 12.15 11.9 11.85 12.15 11.85 12.65 L11.9 13.8 12.35 15.0 12.75 16.0 13.65 17.25 14.9 18.5 Q15.55 19.0 16.15 19.15 L15.85 19.45 15.85 19.75 16.25 19.9 16.9 20.0 Q16.55 20.2 16.55 20.65 16.55 21.1 17.15 21.85 L17.8 22.95 18.3 24.4 18.6 25.85 Q18.6 26.6 18.0 27.3 17.6 28.05 16.45 28.5 L13.45 29.0 12.45 28.9 11.65 28.85 10.9 28.8 10.3 28.75 9.7 28.8 9.25 29.0 8.75 28.65 7.95 28.5 8.2 28.05 8.35 27.15 8.35 24.6 8.2 23.8 7.8 23.3 8.95 23.05 9.45 22.45 9.7 21.4 9.95 21.4 Q9.95 22.1 10.2 22.45 10.3 22.85 10.7 23.05 L11.65 23.3 11.4 23.75 11.3 24.6 11.3 26.25 Q11.3 27.1 11.85 27.45 12.25 27.8 12.85 27.8 13.9 27.8 14.3 27.45 14.7 27.1 14.7 26.45 14.6 25.0 13.9 23.7 L12.35 21.4 11.4 20.65 10.6 20.35 10.8 20.05 10.8 19.75 10.3 19.5 9.75 19.35 9.9 18.8 9.45 17.85 8.75 16.65 8.15 14.95 7.8 13.2 Q7.8 12.45 8.35 11.75 8.85 11.2 9.95 10.75 L12.65 10.45 13.45 10.45 14.2 10.5 14.8 10.6 15.55 10.65 16.15 10.6 16.55 10.45 17.15 10.75 18.0 10.9 Q17.8 11.0 17.7 11.4 L17.6 12.2 17.6 14.2 17.8 15.15 18.2 15.65 18.4 15.3 18.6 14.4 18.6 10.85 19.45 10.7 20.05 10.45 20.35 10.5 20.65 10.6 21.4 10.65 22.1 10.6 22.75 10.45 23.05 10.5 23.55 10.6 24.15 10.65 24.8 10.65 26.25 10.6 27.05 10.45 27.35 10.45 27.65 10.6 28.4 10.65 29.2 10.6 29.75 10.45 30.35 10.7 31.15 10.85 31.15 14.4 31.35 15.3 31.75 15.7 Q30.75 15.9 30.35 16.4 30.0 16.85 30.0 17.8 L29.75 17.8 29.6 16.65 29.05 16.05 28.0 15.7 28.3 15.3 28.5 14.4 28.5 12.2 28.2 11.75 27.65 11.65 27.15 11.75 26.95 12.2 26.95 17.6 Q26.95 18.4 27.25 18.8 L27.65 19.3 27.25 19.5 27.15 19.75 27.25 20.05 27.65 20.2 Q27.35 20.3 27.15 20.7 L26.95 21.95 26.95 27.25 27.05 27.45 27.35 27.45 27.65 27.45 27.65 27.25 27.65 26.6 28.2 26.6 28.5 28.5 27.65 28.65 Q27.25 28.8 27.05 29.0 L26.65 28.85 26.05 28.8 25.5 28.75 24.9 28.75 23.85 28.8 23.05 29.0 22.35 28.65 21.3 28.5 21.9 26.6 22.35 26.6 22.35 27.25 22.4 27.45 22.6 27.5 22.85 27.45 22.85 27.25 22.85 21.95 22.6 20.8 22.0 20.3 22.4 20.05 22.55 19.8 22.4 19.55 Q22.35 19.4 22.0 19.3 L22.6 18.75 22.85 17.6 22.85 12.2 22.6 11.75 22.1 11.65 21.6 11.75 Q21.4 11.9 21.4 12.2 L21.4 14.4 21.5 15.3 21.8 15.7 20.8 16.05 Q20.35 16.25 20.25 16.65 L20.05 17.8 19.75 17.8 Q19.75 16.85 19.45 16.4 19.05 15.9 18.1 15.7 L18.2 15.65 M38.55 10.45 L38.9 10.7 39.4 10.85 40.45 16.9 40.7 18.25 41.25 18.9 41.75 19.1 41.25 19.35 41.15 19.6 41.25 19.9 41.75 20.15 41.35 20.75 Q41.15 21.2 41.25 22.05 L42.05 27.25 42.2 27.45 42.4 27.55 42.65 27.45 42.8 27.25 42.8 26.5 43.2 26.5 43.65 28.5 43.0 28.65 42.6 29.0 42.2 28.85 41.7 28.8 41.05 28.75 40.5 28.75 39.4 28.8 38.45 29.0 37.85 28.65 37.0 28.5 36.95 26.6 37.2 26.6 37.45 27.4 37.55 27.5 37.75 27.55 37.95 27.45 37.95 27.25 37.65 24.8 37.35 24.45 36.7 24.3 35.05 24.3 Q34.75 24.3 34.55 24.45 L34.35 24.8 33.95 27.25 34.05 27.5 34.35 27.55 34.55 27.5 34.75 27.3 34.85 26.45 35.2 26.45 35.2 28.55 34.5 28.65 Q34.15 28.8 34.05 29.0 L33.75 28.85 33.3 28.8 32.8 28.75 32.4 28.75 31.7 28.8 31.05 29.0 30.55 28.65 29.95 28.5 30.25 26.5 30.55 26.5 30.55 27.25 30.65 27.45 30.95 27.55 31.25 27.45 31.25 27.25 32.1 21.95 32.0 20.7 31.5 20.15 31.9 19.9 32.1 19.65 31.9 19.35 31.55 19.1 32.1 18.8 32.5 18.15 32.8 16.9 33.95 10.85 34.5 10.7 34.75 10.45 35.05 10.5 35.6 10.6 36.2 10.65 36.7 10.65 37.85 10.6 38.55 10.45 M53.5 10.9 L54.2 10.95 53.9 11.55 53.8 12.45 53.8 14.4 53.9 15.3 54.35 15.7 Q53.35 15.9 52.95 16.2 52.65 16.65 52.65 17.5 L52.25 17.5 52.05 16.5 51.55 16.0 50.6 15.7 50.9 15.15 51.05 14.4 51.05 12.65 50.85 11.95 49.8 11.7 48.85 11.95 Q48.55 12.2 48.55 12.65 L48.55 17.15 48.65 18.25 48.95 18.9 49.3 19.1 Q48.95 19.2 48.85 19.35 L48.65 19.65 48.85 19.9 49.3 20.2 Q48.85 20.4 48.65 20.95 L48.55 22.35 48.55 26.85 Q48.55 27.3 48.85 27.55 L49.8 27.8 50.7 27.55 Q51.05 27.3 51.05 26.85 L51.05 24.6 50.9 23.85 50.6 23.5 51.6 23.2 52.15 22.7 52.25 21.55 52.65 21.55 52.8 22.6 53.3 23.15 54.35 23.5 Q54.1 23.6 54.0 23.85 L54.0 24.6 54.0 26.35 Q54.0 27.55 52.95 28.3 51.95 28.9 49.35 29.0 47.15 29.0 45.9 28.4 44.65 27.75 44.55 26.1 L44.55 22.35 44.4 20.95 Q44.2 20.4 43.8 20.2 L44.2 19.9 44.4 19.65 44.2 19.35 43.8 19.1 44.35 18.45 44.55 17.15 44.55 13.7 Q44.65 12.35 45.25 11.65 45.75 10.95 46.9 10.7 L49.15 10.45 49.85 10.45 50.7 10.6 51.35 10.7 52.05 10.7 52.6 10.7 52.95 10.6 Q53.1 10.75 53.5 10.9 M67.9 10.6 L68.4 10.45 69.15 10.65 69.95 10.75 68.4 12.9 67.95 12.9 68.4 12.2 68.5 11.95 68.3 11.9 67.95 11.95 67.7 12.2 64.7 16.9 65.1 18.1 66.25 19.1 65.85 19.4 Q65.65 19.55 65.75 19.7 L66.0 20.0 66.55 20.15 66.15 20.65 Q65.95 21.0 66.15 21.7 L67.95 27.4 68.1 27.55 68.4 27.65 68.5 27.55 68.5 27.45 68.5 26.6 68.8 26.6 69.65 28.5 69.0 28.65 68.5 29.0 68.1 28.85 67.6 28.8 67.05 28.75 66.45 28.75 65.3 28.8 64.5 29.0 63.7 28.65 62.75 28.5 62.3 26.5 62.65 26.5 63.05 27.3 63.35 27.5 63.7 27.55 63.75 27.45 63.75 27.1 61.75 20.45 61.6 20.45 60.5 22.35 60.5 27.45 60.7 27.55 61.0 27.45 61.1 27.25 61.1 26.5 61.4 26.5 61.8 28.5 61.0 28.65 Q60.55 28.85 60.35 29.0 L60.0 28.85 59.45 28.8 58.8 28.75 58.3 28.75 57.2 28.8 56.35 29.0 55.65 28.65 54.8 28.5 55.3 26.35 55.65 26.35 55.65 27.15 55.75 27.45 56.05 27.45 56.3 27.4 56.3 27.1 56.3 22.15 56.05 20.65 Q55.75 20.15 55.45 20.0 L55.85 19.8 56.05 19.5 55.85 19.2 55.45 18.9 56.05 18.4 56.3 17.15 56.3 12.05 56.3 11.75 56.05 11.7 55.75 11.75 55.65 12.1 55.65 12.8 55.25 12.8 54.9 10.75 55.85 10.65 56.55 10.45 57.0 10.5 57.4 10.6 58.05 10.65 58.55 10.65 59.8 10.6 60.7 10.45 61.3 10.7 62.15 10.75 61.6 12.9 61.3 12.9 61.2 12.15 61.1 11.95 60.9 11.9 60.55 11.95 60.5 12.35 60.5 18.65 60.55 18.65 64.8 12.2 64.9 11.95 64.7 11.85 64.4 11.85 64.2 12.05 63.55 12.9 63.25 12.85 64.25 10.7 65.3 10.65 65.95 10.45 66.15 10.45 66.45 10.6 66.85 10.65 67.2 10.65 67.9 10.6" fill="#ffffff" fill-rule="evenodd" stroke="none"/>
  </g>
</svg>
