<?xml version="1.0" encoding="UTF-8" standalone="no"?>
<svg xmlns:xlink="http://www.w3.org/1999/xlink" height="32.65px" width="66.45px" xmlns="http://www.w3.org/2000/svg">
  <g transform="matrix(1.0, 0.0, 0.0, 1.0, 33.2, -3.7)">
    <path d="M26.55 11.25 L26.55 16.35 19.8 16.35 19.8 17.75 26.55 17.75 26.55 28.95 13.75 28.95 13.75 24.2 20.85 24.2 20.85 22.55 13.75 22.55 13.75 11.25 26.55 11.25 M-18.2 9.95 L-18.2 3.7 18.4 3.7 18.4 9.95 -18.2 9.95 M33.25 20.8 L33.25 36.35 19.85 36.35 19.85 30.15 27.8 30.15 27.8 20.8 33.25 20.8 M19.85 9.95 L19.85 3.7 33.25 3.7 33.25 19.15 27.8 19.15 27.8 9.95 19.85 9.95 M3.0 11.25 L3.0 16.65 6.1 11.25 12.7 11.25 7.85 20.1 12.7 28.95 6.0 28.95 3.0 23.35 3.0 28.95 -2.8 28.95 -2.8 11.25 3.0 11.25 M18.4 30.15 L18.4 36.35 -18.2 36.35 -18.2 30.15 18.4 30.15 M-12.25 11.25 L-12.25 28.95 -18.35 28.95 -18.35 22.85 -19.65 22.85 -19.65 28.95 -26.1 28.95 -26.1 11.25 -19.65 11.25 -19.65 17.4 -18.35 17.4 -18.35 11.25 -12.25 11.25 M-33.2 3.7 L-19.85 3.7 -19.85 9.95 -27.7 9.95 -27.7 19.15 -33.2 19.15 -33.2 3.7 M-4.1 11.25 L-4.1 28.95 -11.05 28.95 -11.05 11.25 -4.1 11.25 M-27.7 20.8 L-27.7 30.15 -19.85 30.15 -19.85 36.35 -33.2 36.35 -33.2 20.8 -27.7 20.8" fill="#ffffff" fill-rule="evenodd" stroke="none"/>
  </g>
</svg>
