<?xml version="1.0" encoding="UTF-8" standalone="no"?>
<svg xmlns:xlink="http://www.w3.org/1999/xlink" height="16.75px" width="134.45px" xmlns="http://www.w3.org/2000/svg">
  <g transform="matrix(1.0, 0.0, 0.0, 1.0, 67.2, -11.25)">
    <path d="M-54.05 15.25 L-54.55 17.15 -44.65 17.15 Q-43.9 17.15 -44.2 18.05 -44.5 19.15 -45.25 19.15 L-55.05 19.15 -55.65 21.35 Q-56.05 22.8 -53.4 22.8 L-46.2 22.8 Q-45.5 22.8 -45.75 23.65 -46.05 24.8 -46.75 24.8 L-54.05 24.8 Q-55.65 24.8 -56.8 24.1 -58.2 23.25 -57.75 21.45 L-56.05 15.25 -54.05 15.25 M-28.45 12.15 Q-28.6 12.7 -29.15 13.0 L-38.45 17.95 -31.6 23.15 Q-31.2 23.5 -31.4 24.0 -31.6 24.8 -32.4 24.8 L-33.45 24.7 -40.55 19.25 -41.8 23.95 Q-42.05 24.8 -42.8 24.8 L-43.65 24.75 Q-44.0 24.55 -43.8 23.95 L-41.0 13.45 -60.15 13.45 -63.0 23.95 Q-63.25 24.8 -63.95 24.8 L-64.8 24.75 Q-65.25 24.6 -65.05 23.95 L-62.15 13.35 -66.65 13.35 Q-67.4 13.35 -67.15 12.5 L-66.85 11.7 Q-66.6 11.35 -66.15 11.35 L-39.6 11.35 -39.6 11.4 -39.15 11.35 Q-38.45 11.35 -38.65 12.25 L-39.9 16.75 -30.2 11.5 -29.05 11.35 Q-28.25 11.35 -28.45 12.15 M-1.0 15.05 Q-0.55 13.35 -3.65 13.35 L-6.9 13.35 -8.65 13.55 -3.0 21.85 -2.65 21.15 -1.0 15.05 M-10.25 14.5 L-10.5 15.05 -12.1 21.15 Q-12.55 22.8 -9.45 22.8 L-6.2 22.8 -4.7 22.7 -10.25 14.5 M-15.2 12.25 Q-15.05 11.6 -14.55 11.45 L-13.7 11.35 Q-12.95 11.35 -13.2 12.25 L-16.2 23.4 Q-16.6 24.9 -17.75 24.9 L-18.7 24.25 -25.6 14.55 -28.15 23.95 Q-28.35 24.6 -28.85 24.75 L-29.2 24.8 -29.75 24.8 Q-30.45 24.8 -30.2 23.95 L-27.2 12.75 Q-26.75 11.25 -25.75 11.25 -25.1 11.25 -24.55 12.0 L-17.75 21.55 -15.2 12.25 M-3.15 11.35 Q-0.75 11.35 0.15 11.9 1.65 12.75 1.05 15.0 L-0.65 21.2 Q-1.6 24.8 -6.8 24.8 L-9.95 24.8 Q-12.05 24.8 -13.15 24.2 -14.75 23.25 -14.2 21.2 L-12.5 15.0 Q-11.5 11.35 -6.3 11.35 L-3.15 11.35 M16.2 12.7 Q16.75 13.55 16.45 14.75 L15.9 16.4 14.7 18.1 14.95 19.35 15.0 19.7 14.9 20.25 14.65 21.2 Q14.15 23.15 12.4 24.1 11.0 24.8 9.2 24.8 L0.55 24.8 Q-0.15 24.8 0.1 23.95 L0.85 20.95 2.9 20.95 2.45 22.8 9.55 22.8 Q12.0 22.8 12.5 21.55 L12.8 20.55 Q13.2 19.15 10.65 19.15 L1.4 19.15 2.45 15.25 4.5 15.25 4.0 17.15 11.15 17.15 Q13.8 17.15 14.15 15.9 L14.35 14.75 Q14.7 13.35 12.1 13.35 L2.9 13.35 3.25 12.25 Q3.5 11.35 4.2 11.35 L12.75 11.35 14.75 11.6 Q15.7 11.9 16.2 12.7 M25.7 14.7 L26.3 15.05 26.55 15.75 26.3 16.5 25.0 18.05 26.3 19.65 26.55 20.4 26.3 21.15 25.7 21.45 Q25.35 21.45 25.05 21.15 L23.75 19.55 22.45 21.15 21.8 21.45 Q21.45 21.45 21.2 21.15 20.95 20.85 20.95 20.4 20.95 19.95 21.2 19.65 L22.5 18.05 21.2 16.5 Q20.95 16.2 20.95 15.75 20.95 15.3 21.2 15.05 21.45 14.7 21.8 14.7 22.2 14.7 22.45 15.05 L23.75 16.6 25.05 15.05 Q25.3 14.7 25.7 14.7 M26.6 13.35 L23.4 13.35 Q20.3 13.35 19.8 15.05 L18.15 21.15 Q17.7 22.8 20.85 22.8 L24.1 22.8 Q27.2 22.8 27.65 21.15 L29.3 15.05 Q29.75 13.35 26.6 13.35 M30.4 11.9 Q31.95 12.75 31.35 15.0 L29.65 21.2 Q28.7 24.8 23.5 24.8 L20.3 24.8 Q18.2 24.8 17.15 24.2 15.55 23.25 16.1 21.2 L17.8 15.0 Q18.8 11.35 23.95 11.35 L27.1 11.35 Q29.55 11.35 30.4 11.9 M36.7 17.05 L40.6 17.05 Q40.95 17.05 41.2 17.35 L41.45 18.05 41.2 18.8 40.6 19.1 36.7 19.1 Q36.35 19.1 36.1 18.8 L35.85 18.05 Q35.85 17.65 36.1 17.35 36.35 17.05 36.7 17.05 M41.6 13.35 L38.35 13.35 Q35.2 13.35 34.75 15.05 L33.1 21.15 Q32.7 22.8 35.8 22.8 L39.05 22.8 Q42.15 22.8 42.55 21.15 L44.2 15.05 Q44.7 13.35 41.6 13.35 M45.35 11.9 Q46.9 12.75 46.25 15.0 L44.6 21.2 Q43.65 24.8 38.4 24.8 L35.25 24.8 Q33.2 24.8 32.1 24.2 30.5 23.25 31.05 21.2 L32.7 15.0 Q33.75 11.35 38.85 11.35 L42.1 11.35 Q44.5 11.35 45.35 11.9 M66.35 11.4 Q67.5 11.4 67.15 12.75 L63.0 28.0 -66.15 28.0 -65.65 26.1 61.5 26.1 64.4 15.25 56.0 24.15 Q55.3 24.9 54.5 24.9 53.7 24.9 53.4 24.15 L49.7 15.2 47.3 23.95 Q47.05 24.8 46.35 24.8 L45.5 24.75 Q45.1 24.6 45.3 23.95 L48.3 12.65 Q48.65 11.45 49.8 11.45 50.55 11.45 50.85 12.05 L55.25 22.25 65.0 12.05 Q65.65 11.4 66.35 11.4" fill="#ffffff" fill-rule="evenodd" stroke="none"/>
  </g>
</svg>
