<?xml version="1.0" encoding="UTF-8" standalone="no"?>
<svg xmlns:xlink="http://www.w3.org/1999/xlink" height="34.85px" width="112.05px" xmlns="http://www.w3.org/2000/svg">
  <g transform="matrix(1.0, 0.0, 0.0, 1.0, 50.7, -4.2)">
    <path d="M25.65 13.05 L25.75 13.15 25.9 13.35 25.95 13.25 26.1 13.05 26.05 13.15 26.0 13.45 Q25.95 13.85 26.45 14.1 L26.7 14.15 27.2 14.25 Q28.0 14.25 28.2 13.85 L28.3 13.45 Q28.25 13.05 27.75 12.85 L27.35 12.9 Q26.8 13.1 26.65 13.55 26.55 13.8 26.6 14.0 L26.55 13.4 26.7 13.1 26.65 12.9 25.65 13.05 M53.3 9.95 L53.3 10.1 54.9 10.1 54.9 9.95 53.3 9.95 56.05 9.9 56.05 9.75 56.2 9.75 56.2 9.9 56.55 9.9 56.55 12.0 42.8 12.0 42.55 12.5 42.35 12.65 35.4 12.95 33.3 12.95 32.5 12.9 32.55 12.8 28.4 12.75 28.15 12.8 28.1 12.95 28.3 13.3 28.4 13.55 Q28.35 14.1 27.75 14.25 L27.35 14.3 27.1 14.3 26.85 14.3 26.6 14.25 26.15 14.05 25.9 13.6 25.65 13.15 25.5 13.05 Q24.35 13.45 23.65 14.4 L23.25 15.05 23.15 15.3 21.35 14.9 21.15 14.8 16.15 16.4 12.85 17.6 12.05 17.9 11.95 17.8 11.4 13.55 11.25 13.0 11.4 12.75 21.65 11.65 21.9 11.75 22.25 11.9 22.35 11.95 22.65 12.05 24.1 11.7 24.95 11.4 24.95 11.3 25.15 11.25 25.25 11.1 25.5 11.0 25.65 11.1 25.85 11.0 25.95 11.1 27.9 10.55 28.1 10.45 27.95 10.4 26.35 10.8 26.35 10.75 26.2 10.6 Q26.05 10.45 26.3 10.3 L26.45 10.25 26.8 10.45 Q27.0 10.65 27.45 10.45 L27.75 10.3 27.9 10.2 28.35 10.15 35.65 10.1 36.0 10.1 37.6 10.1 37.6 10.05 37.95 10.05 37.95 10.1 39.55 10.1 39.55 10.05 39.85 10.05 39.85 10.1 41.45 10.1 41.45 10.05 41.8 10.05 41.8 10.1 43.4 10.1 43.4 10.0 43.75 10.0 43.75 10.1 45.3 10.1 45.3 10.0 45.7 10.0 45.7 10.1 47.25 10.1 47.25 10.0 47.6 10.0 47.6 10.1 49.2 10.1 49.2 9.95 49.45 9.95 49.45 10.1 51.05 10.1 51.05 9.95 51.4 9.95 51.4 10.1 53.0 10.1 53.0 9.95 53.3 9.95" fill="#ffffff" fill-rule="evenodd" stroke="none"/>
    <path d="M22.2 9.25 L22.2 9.35 16.95 10.05 14.25 10.05 12.3 9.6 10.2 9.6 9.55 9.8 9.55 9.5 9.4 9.5 9.4 9.6 5.7 9.6 Q5.45 9.6 5.3 9.8 5.1 9.95 5.05 10.25 L5.0 10.35 4.95 11.0 4.9 11.3 4.85 11.4 4.0 11.85 3.25 12.1 3.25 14.1 2.95 14.4 2.0 14.4 1.85 14.35 1.75 13.85 1.9 12.15 1.85 12.0 1.8 11.95 Q1.65 11.7 1.3 11.7 L1.3 11.5 1.55 11.35 1.6 11.1 1.3 10.75 1.15 10.75 0.95 10.85 0.9 10.7 1.0 10.6 1.25 10.55 1.25 10.4 1.15 10.35 1.05 10.25 1.05 9.85 0.75 9.75 0.25 10.1 -1.65 10.1 -1.65 10.25 -1.8 10.75 -1.95 11.0 -1.95 13.3 -2.1 13.5 -2.25 13.6 -3.05 13.6 -3.3 13.45 -3.4 13.3 -3.4 11.0 -3.6 10.7 -3.8 10.4 -3.8 10.25 -3.9 10.25 -3.9 10.3 -3.95 10.3 -3.95 10.6 -4.2 10.6 -4.2 10.3 -4.3 10.3 -4.3 10.2 -9.7 10.2 -11.45 9.9 -12.3 9.9 -12.3 9.95 -12.35 9.95 -12.35 10.35 -12.6 10.35 -12.6 9.95 -12.7 9.95 -12.7 9.9 -16.55 9.9 -16.55 10.05 -16.65 10.05 -16.65 10.3 -16.95 10.3 -16.95 10.05 -17.4 10.05 -17.4 9.8 -17.8 9.8 -22.2 10.45 -22.7 10.45 -22.7 11.1 -23.2 11.1 -23.2 7.0 -22.7 7.0 -22.7 7.7 -22.2 7.7 -17.8 8.3 -17.6 8.3 -17.6 7.7 -17.3 7.7 -17.15 7.9 -17.15 8.05 -16.55 8.05 -16.55 8.15 -12.7 8.15 -12.7 8.05 -12.3 8.05 -12.3 8.15 -11.45 8.15 -9.7 7.75 -4.3 7.75 -4.3 7.7 -3.6 7.7 -3.6 7.85 -2.65 7.85 -2.65 7.25 -2.35 6.95 -2.35 6.8 -3.15 6.8 -3.15 6.95 -3.4 6.95 -3.4 6.8 -3.45 6.8 -3.45 6.95 -3.7 6.95 -3.7 6.8 -3.75 6.8 -3.75 7.1 -4.0 7.1 -4.0 5.3 -3.75 5.3 -3.75 5.6 -3.7 5.6 -3.7 5.45 -3.45 5.45 -3.45 5.6 -3.4 5.6 -3.4 5.45 -3.15 5.45 -3.15 5.5 -2.2 5.5 -2.2 5.75 -1.75 5.75 -1.75 5.1 -1.7 4.9 -0.7 4.4 -0.7 4.2 0.25 4.2 0.55 4.45 0.75 4.45 0.75 5.55 0.5 5.55 0.5 5.8 0.25 6.0 0.25 6.25 -0.25 6.25 -0.5 6.45 -0.5 6.55 -0.4 6.55 -0.4 6.85 -0.5 6.85 -0.5 6.95 -0.4 6.95 -0.15 7.2 -0.15 7.85 0.25 7.85 1.0 8.2 6.5 8.2 6.5 7.55 6.85 7.25 8.2 7.25 8.2 6.2 8.15 6.1 8.15 5.85 8.45 5.85 8.65 7.25 8.8 7.4 8.8 7.5 8.85 7.55 8.85 8.2 9.4 8.2 9.4 8.25 9.55 8.25 9.55 8.0 10.2 8.15 12.3 8.15 14.25 7.8 16.9 7.8 22.2 8.45 22.2 8.55 23.2 8.65 23.2 9.15 22.2 9.25 M4.55 10.25 L4.4 10.25 3.95 10.4 Q3.5 10.55 3.65 11.0 L3.9 11.4 3.85 11.45 3.4 11.25 3.4 11.95 4.7 11.4 4.75 11.2 4.75 10.45 4.55 10.25" fill="#ffffff" fill-rule="evenodd" stroke="none"/>
    <path d="M58.95 20.3 L58.75 20.3 58.75 20.4 58.95 20.4 58.95 20.3 M59.3 20.4 L59.3 20.3 59.15 20.3 59.15 20.4 59.3 20.4 M59.3 20.05 L59.3 19.8 59.15 19.8 59.15 20.05 59.3 20.05 M59.3 19.4 L59.15 19.4 59.15 19.55 59.3 19.55 59.3 19.4 M58.75 20.05 L58.95 20.05 58.95 19.8 58.75 19.8 58.75 20.05 M58.95 19.4 L58.75 19.4 58.75 19.55 58.95 19.55 58.95 19.4 M60.25 19.55 L60.1 19.65 60.05 19.9 60.1 20.2 60.25 20.3 60.35 20.2 60.4 19.9 60.35 19.65 60.25 19.55 M59.7 19.55 Q59.65 19.55 59.55 19.65 L59.55 19.9 59.55 20.2 59.7 20.3 59.8 20.2 59.9 19.9 59.8 19.65 59.7 19.55 M60.8 19.55 L60.7 19.65 60.65 19.9 60.7 20.2 60.8 20.3 60.9 20.2 61.0 19.9 60.9 19.65 60.8 19.55 M19.7 24.75 L16.4 24.75 16.4 19.75 Q16.4 19.5 16.55 19.45 L16.65 19.45 22.65 19.45 22.65 19.4 23.9 19.4 24.25 19.15 24.6 19.0 24.9 18.8 25.25 18.8 25.25 18.9 25.4 18.9 25.4 18.8 25.65 18.8 25.65 18.9 25.8 18.9 25.8 18.8 26.05 18.8 26.05 18.9 26.15 18.9 26.15 18.8 26.45 18.8 26.45 18.9 26.6 18.9 26.6 18.8 26.85 18.8 26.85 18.9 26.95 18.9 26.95 18.8 27.25 18.8 27.25 18.9 27.4 18.9 27.4 18.8 27.55 18.8 27.55 18.05 26.8 18.05 26.5 18.35 25.95 18.35 25.95 18.4 25.7 18.4 25.7 18.3 25.4 18.3 25.4 18.35 23.85 18.35 23.85 18.3 23.8 18.3 23.8 18.4 23.7 18.4 23.7 18.3 23.55 18.3 23.55 16.8 23.7 16.8 23.7 16.7 23.8 16.7 23.8 16.8 23.85 16.8 23.85 16.7 25.4 16.7 25.4 16.85 25.7 16.85 25.7 16.75 25.95 16.75 25.95 16.8 26.1 16.8 26.1 16.7 26.5 16.7 26.8 17.05 28.8 17.05 28.8 16.7 29.0 16.6 29.8 16.6 29.95 16.7 29.95 17.05 32.1 17.05 35.05 16.4 36.7 16.4 36.7 18.65 35.05 18.65 32.0 18.05 31.35 18.05 31.35 18.8 31.55 18.8 31.55 18.9 31.7 18.9 31.7 18.8 31.95 18.8 31.95 18.9 32.1 18.9 32.1 18.8 32.35 18.8 32.35 18.9 32.5 18.9 32.5 18.8 32.75 18.8 32.75 18.9 32.9 18.9 32.9 18.8 33.1 18.8 33.1 18.9 33.2 18.9 33.2 18.8 33.45 18.8 33.45 18.9 33.6 18.9 33.6 18.8 33.85 18.8 33.85 18.9 34.0 18.9 34.0 18.8 34.25 18.8 34.25 18.9 34.4 18.9 34.4 18.8 34.65 18.8 34.65 18.85 34.8 18.85 34.8 18.8 34.95 18.8 35.3 19.0 35.7 19.15 35.8 19.2 35.8 19.35 37.4 19.35 37.4 19.45 39.45 19.45 39.45 19.3 57.75 19.3 58.05 19.05 61.35 19.05 61.35 20.8 58.05 20.8 Q57.75 20.8 57.75 20.5 L39.45 20.5 39.45 20.45 39.2 20.45 39.2 21.0 38.9 21.3 37.3 21.3 37.1 21.2 37.1 21.45 36.7 21.45 36.7 21.55 36.6 21.55 36.6 21.85 36.65 21.95 36.65 22.15 36.6 22.25 36.7 22.3 36.7 21.9 36.65 21.9 36.65 21.65 37.35 21.65 37.35 21.75 37.8 21.75 37.8 21.8 40.9 21.8 40.9 21.75 40.9 21.55 41.1 21.5 41.4 21.55 41.5 21.55 41.5 21.6 41.55 21.65 41.6 21.8 41.9 21.8 41.9 21.75 42.45 21.75 42.7 21.65 42.7 21.75 42.75 21.75 42.9 21.85 43.0 22.1 42.9 22.35 42.75 22.45 42.7 22.45 42.7 22.55 42.45 22.4 42.45 22.45 41.9 22.45 41.9 22.35 41.5 22.35 41.5 22.45 41.25 22.45 41.25 22.35 37.8 22.35 37.8 22.5 37.3 22.5 37.3 22.6 36.5 22.6 36.4 22.45 35.95 22.45 35.75 22.35 35.7 22.15 35.7 21.95 35.75 21.75 35.9 21.7 35.9 21.15 35.4 21.15 35.4 25.15 31.35 25.45 31.35 21.85 31.25 21.95 30.85 22.9 30.6 23.0 29.8 23.15 29.25 23.1 28.85 22.95 28.65 22.9 28.6 22.95 28.35 23.45 27.65 24.95 27.75 25.1 27.7 25.25 27.1 25.15 27.15 25.05 26.65 24.75 26.55 24.9 26.15 24.6 26.0 24.45 27.25 22.2 Q27.3 21.6 26.95 21.45 L26.7 21.4 25.7 21.4 25.65 21.5 25.45 21.55 25.4 21.55 25.4 21.65 25.4 21.7 25.3 21.8 25.15 21.9 24.95 21.8 24.85 21.65 24.85 21.55 24.8 21.55 24.6 21.5 24.55 21.4 20.25 21.4 Q19.85 21.4 19.5 21.7 19.0 22.1 19.0 22.7 18.95 23.4 19.25 23.85 L19.7 24.25 Q19.95 24.35 19.7 24.75 M29.95 18.15 L28.8 18.15 28.8 18.05 28.35 18.05 28.35 18.8 28.4 18.8 28.4 18.9 28.55 18.9 28.55 18.8 28.8 18.8 28.8 18.9 28.9 18.9 28.9 18.8 29.15 18.8 29.15 18.9 29.3 18.9 29.3 18.8 29.55 18.8 29.55 18.9 29.7 18.9 29.7 18.8 29.95 18.8 29.95 18.9 30.1 18.9 30.1 18.8 30.35 18.8 30.35 18.9 30.5 18.9 30.5 18.8 30.55 18.8 30.55 18.05 29.95 18.05 29.95 18.15 M23.7 20.9 L23.55 21.2 24.1 21.2 24.25 20.9 23.7 20.9 M22.95 20.9 L22.8 21.2 23.35 21.2 23.5 20.9 22.95 20.9 M24.6 21.1 L24.65 21.05 24.55 20.9 24.5 20.9 24.35 21.2 24.6 21.2 24.6 21.1 M20.6 20.9 L20.5 21.2 21.05 21.2 21.2 20.9 20.6 20.9 M19.85 20.9 L19.7 21.2 20.25 21.2 20.4 20.9 19.85 20.9 M21.45 20.9 L21.3 21.2 21.8 21.2 21.95 20.9 21.45 20.9 M22.2 20.9 L22.05 21.2 22.55 21.2 22.7 20.9 22.2 20.9 M26.2 21.2 L26.25 20.9 25.7 20.9 25.6 21.05 25.65 21.1 25.7 21.2 26.2 21.2 M28.85 22.65 L29.2 22.85 29.75 22.95 30.25 22.9 30.55 22.75 30.65 22.4 30.6 22.05 30.45 21.9 29.75 21.9 29.55 22.3 Q29.45 22.6 29.65 22.75 L29.45 22.6 29.4 22.25 29.4 22.0 29.3 21.85 29.15 21.85 29.0 22.0 28.8 22.55 28.85 22.65 M19.2 21.4 L19.45 21.2 19.65 20.9 19.35 20.9 19.05 21.15 19.0 21.5 19.2 21.4" fill="#ffffff" fill-rule="evenodd" stroke="none"/>
    <path d="M-22.0 28.3 L-22.15 28.2 -26.25 28.2 -26.6 28.4 -26.65 28.6 Q-26.45 28.6 -26.4 28.8 L-26.3 28.9 -22.45 28.9 Q-22.45 28.75 -22.15 28.7 L-21.9 28.7 -21.9 28.6 -22.0 28.3 M0.0 30.95 L-0.1 30.95 -0.1 31.0 -0.3 31.0 -0.3 30.95 -0.4 30.95 -0.4 31.0 -0.65 31.0 -0.65 30.95 -5.7 30.95 -5.7 31.05 -5.45 31.1 -5.45 31.5 -5.7 31.5 -5.85 31.65 -6.15 31.65 -6.15 30.95 -7.2 30.95 -7.2 31.45 -7.35 31.55 -7.3 31.75 -7.2 32.4 -7.4 32.45 -7.6 32.3 -7.6 31.7 -7.5 31.55 -7.65 31.35 -7.95 31.35 -7.95 31.55 -8.1 31.75 -20.5 32.0 -20.5 31.5 -20.7 31.5 -20.7 31.55 -21.35 31.75 -21.35 31.4 -21.55 31.4 -21.55 31.6 -21.75 31.7 -22.05 32.05 -22.0 33.15 -21.85 33.3 -21.9 33.5 -22.15 33.5 -22.25 33.55 Q-22.1 35.85 -21.6 37.3 L-21.45 37.7 -21.35 38.0 -23.75 39.05 -24.35 37.3 -24.85 34.15 -27.65 34.15 -27.8 34.55 -27.7 34.9 -27.8 35.0 -28.15 35.05 -28.75 36.25 -28.75 36.4 -28.65 36.65 -28.85 36.85 -30.95 36.45 -31.05 36.35 -29.1 33.3 -29.0 32.9 -29.0 32.6 Q-29.1 31.9 -30.05 31.9 L-32.1 32.3 -40.8 35.05 -41.2 35.0 -41.65 29.8 -41.3 29.6 -29.6 29.75 -29.6 29.15 -28.9 29.15 -28.6 28.3 -28.5 28.3 -28.5 27.75 -28.0 27.4 -27.75 27.4 -21.9 28.0 Q-21.55 28.1 -21.45 28.35 L-21.4 29.35 -21.55 29.5 -21.55 29.7 -21.35 29.7 -21.35 29.4 -20.7 29.55 -20.5 29.55 -20.5 29.1 -8.15 29.35 -7.95 29.5 -7.95 29.55 -7.7 29.55 -6.4 27.95 -6.35 27.9 -6.15 27.75 Q-5.85 27.65 -5.7 27.95 L-5.7 30.2 -0.65 30.2 -0.65 30.15 -0.4 30.15 -0.4 30.2 -0.3 30.2 -0.3 30.15 -0.1 30.15 -0.1 30.2 0.0 30.2 0.0 30.15 1.3 30.15 1.3 31.0 0.0 31.0 0.0 30.95 M-29.4 30.95 L-29.4 30.85 -29.5 30.85 -29.4 30.95 M-6.0 29.75 L-6.0 29.1 -6.15 29.1 -6.15 28.6 -6.55 28.55 -7.35 29.55 -7.35 29.75 -6.0 29.75 M-26.9 32.75 L-27.0 32.85 -27.2 33.25 -27.0 33.75 -26.55 33.95 -25.75 33.95 Q-25.5 33.95 -25.3 33.75 L-25.1 33.25 -25.2 32.9 -25.3 32.85 -25.4 32.75 Q-25.55 32.6 -25.75 32.6 L-26.25 32.6 Q-26.55 33.35 -26.15 33.8 -26.65 33.65 -26.6 32.65 L-26.9 32.75 M-7.2 30.2 L-6.15 30.2 -6.15 30.05 -7.2 30.05 -7.2 30.2" fill="#ffffff" fill-rule="evenodd" stroke="none"/>
    <path d="M-7.15 17.7 L-7.15 17.8 -6.9 17.8 -6.9 17.9 -6.65 17.9 -6.65 17.85 1.4 17.85 1.5 17.95 6.25 18.0 6.25 18.05 6.35 18.05 6.35 17.95 6.4 17.95 6.4 17.7 6.3 17.7 6.3 16.7 6.95 16.7 7.15 17.7 7.1 17.7 7.1 17.95 7.15 17.95 7.15 18.85 7.05 18.85 7.05 19.15 7.1 19.15 7.1 19.25 7.3 19.25 7.3 19.1 7.55 19.1 7.55 19.25 8.5 19.25 8.5 19.95 7.55 19.95 7.55 20.05 7.3 20.05 7.3 19.95 7.1 19.95 7.0 20.1 6.5 20.1 6.5 19.95 6.35 19.95 6.15 20.2 -0.6 20.9 -0.7 20.85 -0.75 20.4 -0.9 20.45 -1.15 20.7 -1.0 21.3 -1.0 21.45 -1.05 21.5 Q-1.05 22.7 0.0 25.1 L1.05 27.25 -0.05 27.95 Q-1.0 26.55 -1.8 24.2 L-2.25 22.65 -2.45 22.05 -2.65 22.05 -3.2 22.2 -3.35 22.25 -3.45 22.3 -3.5 22.35 -3.9 23.4 -3.95 23.45 -4.25 23.75 -5.65 23.75 -5.8 23.7 -6.05 23.6 -6.15 23.55 -6.3 23.55 -6.55 23.7 -7.45 25.75 Q-7.4 25.95 -7.5 26.05 L-7.55 26.1 -9.15 25.25 -9.5 25.0 -9.6 24.9 -7.95 22.2 -7.9 22.15 Q-7.8 21.8 -8.05 21.5 L-8.25 21.35 -8.35 21.3 -8.65 21.25 -8.85 21.25 -9.1 21.0 -10.3 21.0 -10.45 21.25 -10.75 21.25 -11.0 21.15 -11.0 20.9 -10.95 20.5 -11.1 20.35 -11.3 20.7 -11.4 21.1 -11.55 22.05 Q-11.9 23.35 -12.2 23.4 L-12.3 23.45 -12.4 23.45 -12.75 23.15 -12.6 22.35 -12.4 21.25 -12.45 20.1 -12.4 18.7 -12.05 18.4 -10.85 18.75 -10.75 18.75 -10.3 17.85 -8.85 17.85 -8.85 18.2 -8.45 18.2 -8.45 17.4 -8.1 17.15 -7.7 17.15 -7.65 16.95 -6.85 17.3 -7.1 17.75 -7.15 17.7 M-5.9 22.2 L-6.25 22.95 -6.25 23.1 -5.6 23.55 -4.4 23.55 -4.2 23.4 -4.1 23.25 -3.75 22.3 -3.85 22.2 -5.1 22.2 -5.25 23.05 -5.1 23.4 -5.6 22.75 -5.65 22.35 -5.65 22.2 -5.9 22.2" fill="#ffffff" fill-rule="evenodd" stroke="none"/>
    <path d="M-28.5 8.05 L-28.45 8.05 -28.4 8.1 -28.4 8.3 -28.2 8.3 -28.2 9.4 -28.4 9.4 -28.4 9.8 -28.35 9.8 -28.35 10.15 -28.4 10.15 -28.45 10.65 -28.55 10.8 -28.8 10.95 -29.15 10.95 -29.15 10.8 -29.35 10.8 -29.35 10.95 -31.5 10.95 -31.5 11.0 -32.0 11.0 Q-32.6 11.0 -32.85 11.25 L-32.9 11.25 -32.9 11.85 -32.7 13.0 -32.85 13.1 -35.85 13.2 -36.0 13.15 -36.4 13.0 -36.85 13.1 -37.25 13.35 -37.4 13.65 -37.3 14.25 -37.4 14.35 -37.7 14.55 Q-38.05 14.95 -37.95 15.65 L-38.05 15.7 -38.3 15.95 Q-38.65 16.4 -38.45 17.0 L-38.6 17.1 -38.85 17.1 -38.9 17.55 -42.25 17.2 -42.15 16.95 -41.95 16.7 -41.9 16.65 -42.25 16.65 -42.95 16.15 -42.6 15.05 Q-42.1 13.85 -41.6 13.3 L-40.95 12.0 Q-40.55 10.65 -41.5 10.35 L-41.9 10.35 -42.0 10.15 -42.0 9.75 -41.85 9.55 -41.85 8.0 -41.65 7.9 -41.15 7.9 -41.05 7.65 -40.75 7.65 -40.75 7.85 -36.1 7.85 -36.0 8.0 -33.9 8.05 -33.8 7.9 -29.15 7.9 -29.05 7.75 -28.9 7.75 -28.8 7.9 -28.5 7.9 -28.5 8.05 M-33.35 11.3 Q-33.5 11.05 -33.8 11.05 L-35.5 11.15 -35.6 11.3 -35.8 11.6 Q-36.0 12.15 -35.55 12.65 L-35.75 12.75 -36.05 12.45 -36.45 11.55 -36.55 11.7 -36.55 12.0 Q-36.55 12.55 -35.9 12.8 L-33.75 12.75 -33.5 12.6 Q-33.2 12.3 -33.25 11.8 L-33.25 11.65 -33.3 11.55 -33.35 11.4 -33.35 11.3" fill="#ffffff" fill-rule="evenodd" stroke="none"/>
    <path d="M49.7 30.0 L49.75 30.0 49.75 29.9 50.95 29.9 50.95 30.75 49.75 30.75 49.75 30.65 49.7 30.65 49.7 30.75 48.8 30.75 48.8 30.65 43.1 30.65 43.1 31.05 43.0 31.05 43.0 31.95 42.4 31.95 42.4 32.15 41.9 32.15 41.9 32.6 41.15 32.6 41.15 32.75 41.75 32.85 42.05 33.05 42.1 33.35 Q42.1 33.7 41.25 33.75 L40.45 33.75 40.45 33.45 34.4 33.45 Q34.3 33.65 34.0 33.7 L33.7 33.75 33.1 33.6 32.7 33.6 32.7 33.45 32.45 33.45 32.1 33.75 31.4 33.75 31.4 32.3 30.55 32.3 30.55 32.65 30.6 32.65 30.85 32.85 30.85 33.3 30.6 33.5 26.55 33.5 26.3 33.3 26.3 32.85 26.55 32.65 26.7 32.65 26.7 32.35 26.3 32.35 26.3 32.3 26.1 32.3 26.1 33.0 25.9 33.4 25.9 34.4 25.6 34.9 25.35 34.95 23.7 34.95 23.5 34.9 23.45 34.9 23.15 34.9 23.05 34.95 22.1 36.85 22.0 37.3 22.0 37.45 22.05 37.65 22.0 37.7 20.1 37.4 19.6 37.15 19.45 37.0 21.1 34.6 21.35 33.9 Q21.35 33.35 20.7 33.25 L20.55 33.2 Q19.75 33.1 19.45 32.85 L19.3 32.7 19.3 32.65 14.55 32.45 Q13.85 32.45 13.6 32.75 13.4 33.0 13.5 33.35 L13.45 33.7 13.35 33.75 9.9 34.25 9.8 34.0 9.55 33.9 9.15 29.8 9.1 29.1 9.55 29.1 9.55 29.0 10.0 29.0 10.0 29.1 10.3 29.1 10.3 29.0 10.95 29.0 Q12.0 29.6 13.55 29.85 L14.85 29.95 16.95 29.7 17.65 29.45 17.85 29.45 17.85 29.5 18.3 29.25 20.2 29.25 20.2 28.95 20.05 28.7 Q20.0 28.5 20.45 28.55 L20.65 28.65 20.9 28.9 21.2 28.9 21.2 28.45 21.55 28.45 21.55 28.65 21.65 28.65 21.65 28.45 22.0 28.45 22.0 28.65 22.1 28.65 22.1 28.45 22.45 28.45 22.45 28.65 22.5 28.65 22.5 27.35 Q22.6 27.15 22.8 27.1 L23.55 27.1 23.6 27.1 25.05 27.6 25.05 28.65 25.2 28.65 25.2 28.45 25.55 28.45 25.55 28.65 25.65 28.65 25.65 28.45 26.0 28.45 26.0 28.65 26.15 28.65 26.15 28.45 26.45 28.45 26.45 28.65 26.6 28.65 26.6 28.45 26.95 28.45 26.95 28.65 27.05 28.65 27.05 28.45 27.4 28.45 27.4 28.65 27.55 28.65 27.55 28.45 27.9 28.45 27.9 28.65 28.0 28.65 28.0 28.45 28.35 28.45 28.35 28.65 28.5 28.65 28.5 28.45 28.8 28.45 28.8 28.65 28.95 28.65 28.95 28.45 29.3 28.45 29.3 28.65 29.4 28.65 29.4 28.45 29.75 28.45 29.75 28.65 29.9 28.65 29.9 28.45 30.2 28.45 30.2 28.65 30.35 28.65 30.35 28.45 30.7 28.45 30.7 28.85 31.15 28.85 31.15 29.0 31.4 29.0 31.4 28.85 32.85 28.85 32.85 29.0 33.0 29.0 33.0 28.8 33.3 28.8 33.3 29.05 33.7 29.05 33.7 28.75 33.95 28.75 33.95 29.25 34.0 29.25 34.0 29.65 34.05 29.65 34.05 30.0 41.8 30.0 41.8 29.9 42.1 29.6 42.1 28.25 42.25 27.35 42.75 27.35 42.75 29.6 43.1 29.9 43.1 30.0 48.8 30.0 48.8 29.9 49.7 29.9 49.7 30.0 M31.95 32.5 L32.4 32.9 32.7 32.9 32.7 32.65 31.95 32.5 M25.25 33.4 L24.4 33.4 Q23.9 34.1 24.45 34.7 23.9 34.75 23.4 33.65 L23.3 33.85 23.2 34.05 23.2 34.45 23.65 34.75 25.35 34.75 25.65 34.3 25.65 33.55 25.55 33.55 25.25 33.4 M40.35 32.85 L40.35 32.35 38.4 32.35 38.4 32.85 40.35 32.85 M27.25 32.3 L27.25 32.65 28.2 32.65 28.2 32.3 27.25 32.3" fill="#ffffff" fill-rule="evenodd" stroke="none"/>
    <path d="M-22.3 18.55 L-19.4 19.0 -19.4 20.95 -22.3 21.4 -22.3 21.55 -23.2 21.55 -23.2 21.35 -23.35 21.35 -23.35 21.55 -26.3 21.55 -26.3 21.7 -27.1 21.7 -27.1 21.55 -28.35 21.7 -28.55 21.85 Q-28.55 23.05 -28.95 23.5 L-29.2 23.75 -29.35 23.8 -32.0 23.8 -32.95 26.45 -33.15 26.65 -34.95 26.65 -35.3 26.4 -35.35 26.2 -33.75 22.4 Q-33.5 21.75 -34.15 21.25 L-34.85 20.85 -34.85 20.1 -43.65 20.1 -43.85 20.3 -44.35 20.3 -44.35 20.55 -45.3 20.55 -45.3 20.2 -45.85 20.2 -46.3 20.95 -46.75 21.15 -47.5 21.35 Q-47.5 24.15 -46.9 26.35 L-48.3 26.35 -48.35 26.5 -50.45 26.5 -50.0 23.55 -49.55 21.2 Q-49.45 20.6 -50.0 20.45 L-50.5 20.45 -50.7 19.4 -50.6 19.0 -47.95 19.0 -47.95 18.65 -47.35 18.65 -46.95 19.05 -45.3 19.05 -45.3 18.8 -44.35 18.8 -44.35 19.0 -43.85 19.0 -43.65 19.15 -35.3 19.15 -35.3 18.95 -28.2 18.95 -27.95 18.6 -27.4 18.6 -27.1 18.3 -26.3 18.3 -26.3 18.4 -23.35 18.4 -23.35 18.6 -23.2 18.6 -23.2 18.45 -22.3 18.45 -22.3 18.55 M-30.55 22.05 L-31.2 22.05 -31.55 23.2 -31.3 23.4 -29.5 23.4 -28.95 22.75 -28.9 22.05 -30.1 22.05 -30.2 22.65 -30.05 23.05 -30.5 22.45 -30.55 22.05" fill="#ffffff" fill-rule="evenodd" stroke="none"/>
  </g>
</svg>
