<?xml version="1.0" encoding="UTF-8" standalone="no"?>
<svg xmlns:xlink="http://www.w3.org/1999/xlink" height="45.1px" width="17.65px" xmlns="http://www.w3.org/2000/svg">
  <g transform="matrix(1.0, 0.0, 0.0, 1.0, 8.1, -0.65)">
    <path d="M0.1 0.65 Q1.4 0.75 1.95 1.75 2.3 2.35 2.3 3.25 L2.2 3.55 2.1 3.6 2.1 3.65 2.15 3.9 2.15 4.35 2.1 4.7 2.1 4.9 2.2 5.05 2.2 5.4 2.2 6.05 2.15 6.2 2.1 6.25 2.05 7.1 1.9 7.25 0.95 7.35 Q0.3 7.35 -0.6 6.9 L-1.55 6.15 -1.65 6.2 -2.15 6.35 Q-2.75 6.35 -3.1 5.6 L-3.4 4.55 -3.35 4.0 -3.1 3.6 -3.15 3.3 Q-3.15 2.3 -2.75 1.75 -2.15 0.85 -0.4 0.65 L0.1 0.65" fill="#ffffff" fill-rule="evenodd" stroke="none"/>
    <path d="M4.35 9.45 L4.85 11.2 4.75 11.3 4.7 11.45 4.6 11.65 4.75 11.8 4.65 12.55 4.65 12.9 4.5 13.2 4.5 13.35 4.5 13.65 4.5 13.95 4.6 14.25 4.75 14.55 4.75 15.15 4.8 15.75 4.65 16.2 4.6 16.25 4.55 16.35 4.55 17.05 4.75 17.1 4.75 17.15 4.6 18.05 4.55 18.05 4.55 18.35 4.55 18.6 4.6 18.9 4.75 18.95 4.75 19.1 4.6 19.85 Q4.25 20.5 3.7 20.5 L3.55 20.7 3.35 21.0 3.05 20.95 2.95 20.95 2.8 20.95 1.9 21.0 1.45 20.95 1.4 20.95 1.1 20.75 0.8 20.55 -0.85 20.55 -2.75 20.4 -3.25 20.25 -3.3 20.25 -3.55 19.9 -3.6 19.45 -3.65 19.0 -3.7 18.6 -4.05 17.0 -4.05 16.45 -3.95 16.35 Q-3.15 16.05 -2.9 15.45 L-2.5 14.4 -2.05 13.35 -1.95 13.1 -1.9 12.85 -1.9 12.65 -2.15 11.7 -2.1 11.55 -2.1 11.45 -3.0 10.15 -3.8 9.15 -3.9 9.2 -3.95 9.05 -4.05 8.8 Q-4.1 8.7 -4.5 8.6 L-4.85 8.5 -4.95 8.5 Q-4.1 7.8 -2.55 7.45 -1.95 7.45 -0.95 8.65 L-0.05 9.85 0.2 9.85 0.55 9.95 2.1 9.9 2.45 9.85 2.55 9.8 2.6 9.7 2.55 9.25 2.35 8.75 2.0 7.85 1.95 7.75 1.95 7.7 3.15 8.15 Q3.85 8.45 4.0 8.75 L4.0 8.8 4.35 9.45" fill="#ffffff" fill-rule="evenodd" stroke="none"/>
    <path d="M3.0 29.9 L3.25 29.65 3.45 29.5 3.5 29.5 3.55 29.45 3.65 29.45 4.1 29.5 4.8 29.5 4.85 29.55 4.8 29.55 5.0 29.9 5.25 30.45 5.5 30.95 5.5 31.9 5.35 32.4 5.2 32.75 5.25 33.05 5.15 34.05 5.0 35.1 4.85 36.1 4.75 36.5 4.65 36.65 4.15 36.95 3.9 37.05 3.8 37.05 2.9 36.8 2.5 36.65 2.25 36.55 1.95 36.25 1.7 35.65 1.55 35.35 1.45 34.9 1.2 33.95 Q1.2 33.45 1.5 32.9 L1.65 32.65 1.6 32.4 1.6 32.05 1.5 30.5 1.55 30.3 2.6 30.3 2.7 30.3 2.85 30.05 3.0 29.9 M-4.85 32.05 L-4.5 31.65 -4.4 31.6 -4.45 31.35 -4.45 31.3 -4.5 31.3 -4.4 31.1 -4.2 30.5 -3.9 29.6 -3.95 29.6 -3.9 29.55 -3.7 29.5 -3.55 29.55 -3.35 29.45 -2.75 29.1 -2.4 28.95 -1.65 29.15 -0.85 29.5 -0.85 29.7 -0.85 29.8 -0.65 30.55 -0.55 31.0 Q-0.8 32.5 -1.15 32.7 L-1.1 32.75 Q-1.1 32.95 -1.85 34.95 L-2.6 37.05 -2.85 37.25 -3.4 37.4 -3.9 37.3 -4.6 37.0 -4.8 36.8 -4.95 36.6 -5.05 36.45 -5.1 36.3 -5.15 36.15 -5.1 35.95 -5.0 35.5 -5.0 35.15 -5.15 34.3 -5.3 33.35 -5.25 33.05 -5.2 32.65 -5.15 32.65 -5.05 32.4 -4.85 32.05" fill="#ffffff" fill-rule="evenodd" stroke="none"/>
    <path d="M3.9 38.7 L3.95 39.1 4.15 39.95 4.35 40.35 4.5 40.8 4.75 41.35 4.95 41.65 4.95 41.7 5.1 41.85 5.45 42.25 5.85 42.55 6.3 42.85 7.2 43.55 7.3 44.3 7.3 44.5 7.25 44.65 6.8 44.8 5.8 44.95 5.0 44.95 4.4 44.9 4.15 44.8 4.1 44.85 3.4 44.55 3.35 44.5 3.15 44.45 2.95 44.35 2.1 44.35 1.05 44.25 0.7 43.95 0.6 43.55 0.6 43.1 0.65 42.35 Q0.65 42.0 0.8 41.6 L0.9 40.9 0.95 40.1 0.8 39.45 0.7 38.8 0.7 38.75 0.6 38.65 0.95 38.6 1.0 38.65 1.45 38.8 1.85 38.95 2.35 39.1 2.8 38.95 3.25 38.85 3.85 38.7 3.9 38.7 M-5.35 38.3 L-5.05 38.6 -4.3 39.05 -3.65 39.05 -2.85 38.95 -2.55 38.8 -2.5 38.8 -2.5 39.0 -2.5 39.35 -2.45 39.45 -2.5 39.6 -2.5 39.85 -2.5 40.25 -2.5 40.45 -2.45 40.65 -2.4 40.75 -2.35 40.85 -2.3 41.1 -2.3 41.15 -2.3 41.45 -2.3 41.55 -2.4 41.7 -2.35 41.85 -2.4 41.9 -2.05 42.65 -1.65 43.5 -1.2 44.35 -1.15 45.15 -1.15 45.3 -1.15 45.35 -1.55 45.6 -2.45 45.7 -3.05 45.7 -3.05 45.75 -3.55 45.75 -4.5 45.6 -4.55 45.6 -4.95 45.1 -5.1 44.55 -5.25 44.45 -5.35 44.4 -5.5 44.2 -5.5 44.0 -5.4 42.65 -5.35 41.65 -5.35 41.55 -5.4 41.45 -5.4 40.95 -5.3 40.85 -5.25 40.75 -5.2 40.5 -5.35 38.3" fill="#ffffff" fill-rule="evenodd" stroke="none"/>
    <path d="M7.85 20.2 L8.0 20.65 8.15 21.05 8.35 21.4 8.35 21.55 8.35 21.7 8.35 21.75 8.4 21.75 8.5 21.85 8.55 21.85 9.35 24.1 9.3 24.25 9.25 24.35 9.4 24.8 9.5 25.1 9.55 25.35 9.55 25.4 9.05 26.35 9.0 26.4 8.65 26.15 8.6 26.15 8.4 26.1 8.2 25.95 8.15 25.85 8.25 25.4 8.35 25.0 8.2 24.6 8.0 24.15 7.9 24.15 7.9 24.2 7.6 24.9 7.5 24.8 7.05 24.65 7.0 24.6 7.0 24.45 6.9 24.1 6.8 23.85 6.7 23.35 6.75 23.1 6.8 22.5 6.9 22.2 6.75 22.15 6.65 22.15 6.25 21.4 5.95 21.0 5.95 20.95 Q6.1 20.7 6.75 20.4 L7.55 20.15 7.7 20.15 7.85 20.2" fill="#ffffff" fill-rule="evenodd" stroke="none"/>
    <path d="M-6.35 20.1 L-5.75 20.3 -5.6 20.65 -5.55 20.85 -5.45 21.1 -5.45 21.15 -4.6 21.65 -4.05 22.1 -4.05 22.2 -4.0 22.25 -4.0 22.4 -3.95 22.6 -3.9 23.2 -3.8 23.35 -3.85 23.35 -3.9 23.4 -4.0 23.4 -4.05 23.45 -4.3 23.55 -4.55 23.65 Q-4.7 23.7 -4.75 23.55 L-4.8 23.35 -4.85 23.15 -5.05 23.1 -4.95 23.55 -4.9 24.05 -4.4 25.25 -4.4 25.3 -4.35 25.35 -4.4 25.4 -4.65 25.7 -5.1 25.95 -5.25 25.85 -5.3 25.8 -5.4 25.8 -5.65 25.95 -5.8 25.8 -5.95 25.9 -6.0 25.9 -6.2 25.9 -6.55 25.7 -6.85 25.25 -7.3 24.55 -7.45 23.95 -7.5 23.7 -7.65 23.2 -7.7 22.95 -7.75 22.9 -7.7 22.75 -7.65 22.55 -7.55 22.25 -7.85 22.0 -7.9 21.75 -7.95 21.6 -8.05 21.35 -8.1 21.2 -8.1 21.1 -8.05 21.05 -7.9 20.65 Q-7.65 20.35 -7.15 20.2 L-7.0 20.15 -6.35 20.1" fill="#ffffff" fill-rule="evenodd" stroke="none"/>
  </g>
</svg>
