<?xml version="1.0" encoding="UTF-8" standalone="no"?>
<svg xmlns:xlink="http://www.w3.org/1999/xlink" height="594.0px" width="792.9px" xmlns="http://www.w3.org/2000/svg">
  <g transform="matrix(1.0, 0.0, 0.0, 1.0, -3.0, -4.45)">
    <path d="M791.6 42.85 L795.9 42.85 Q723.8 45.25 592.8 45.25 461.8 45.25 385.25 45.6 L371.1 45.65 Q296.2 45.85 168.55 44.8 28.45 43.6 7.45 42.9 L7.9 42.9 8.35 42.9 107.6 43.4 Q133.25 43.95 165.0 44.15 295.45 44.95 371.1 44.8 L382.9 44.75 Q459.9 44.5 591.65 44.5 719.55 44.5 791.6 42.85" fill="url(#gradient0)" fill-rule="evenodd" stroke="none"/>
    <path d="M7.9 42.9 L3.0 42.8 371.1 42.8 397.15 42.8 795.9 42.75 791.6 42.85 Q719.55 44.5 591.65 44.5 459.9 44.5 382.9 44.75 L371.1 44.8 Q295.45 44.95 165.0 44.15 133.25 43.95 107.6 43.4 L8.35 42.9 7.9 42.9" fill="url(#gradient1)" fill-rule="evenodd" stroke="none"/>
    <path d="M751.1 52.9 Q686.85 53.8 591.7 53.8 459.95 53.8 382.95 54.05 L371.1 54.1 Q295.5 54.25 165.15 53.45 24.25 52.6 3.15 52.1 L371.1 52.1 397.25 52.1 751.1 52.05 795.9 52.05 751.1 52.9" fill="url(#gradient2)" fill-rule="evenodd" stroke="none"/>
    <path d="M795.75 579.65 L777.85 597.55 3.15 597.55 3.15 22.35 21.05 4.45 795.75 4.45 795.75 579.65" fill="url(#gradient3)" fill-rule="evenodd" stroke="none"/>
    <path d="M795.85 578.5 L795.9 581.2 778.45 597.8 3.0 598.45 3.15 596.4 777.8 596.4 795.85 578.5" fill="url(#gradient4)" fill-rule="evenodd" stroke="none"/>
    <path d="M795.2 292.4 L3.15 292.4 3.15 62.15 795.2 62.15 795.2 292.4" fill="#000000" fill-rule="evenodd" stroke="none"/>
    <path d="M795.2 245.4 L3.15 245.4 3.15 62.1 795.2 62.1 795.2 245.4" fill="url(#gradient5)" fill-rule="evenodd" stroke="none"/>
    <path d="M3.1 471.4 L795.15 471.4 795.15 528.15 3.1 528.15 3.1 471.4" fill="url(#gradient6)" fill-rule="evenodd" stroke="none"/>
    <path d="M795.15 528.4 L795.15 529.4 3.1 529.4 3.1 528.4 795.15 528.4" fill="url(#gradient7)" fill-rule="evenodd" stroke="none"/>
  </g>
  <defs>
    <radialGradient cx="0" cy="0" gradientTransform="matrix(0.4859, 0.0, 0.0, 0.4859, 401.7, 44.3)" gradientUnits="userSpaceOnUse" id="gradient0" r="819.2" spreadMethod="pad">
      <stop offset="0.0" stop-color="#ff0000"/>
      <stop offset="1.0" stop-color="#ff0000" stop-opacity="0.0"/>
    </radialGradient>
    <radialGradient cx="0" cy="0" gradientTransform="matrix(0.4887, 0.0, 0.0, 0.3529, 399.45, 43.8)" gradientUnits="userSpaceOnUse" id="gradient1" r="819.2" spreadMethod="pad">
      <stop offset="0.0" stop-color="#ff0000"/>
      <stop offset="1.0" stop-color="#ff0000" stop-opacity="0.0"/>
    </radialGradient>
    <radialGradient cx="0" cy="0" gradientTransform="matrix(0.4886, 0.0, 0.0, 0.3529, 399.55, 53.1)" gradientUnits="userSpaceOnUse" id="gradient2" r="819.2" spreadMethod="pad">
      <stop offset="0.0" stop-color="#ff0000"/>
      <stop offset="1.0" stop-color="#ff0000" stop-opacity="0.0"/>
    </radialGradient>
    <linearGradient gradientTransform="matrix(0.0, 0.6781, 0.6781, 0.0, 410.85, 68.45)" gradientUnits="userSpaceOnUse" id="gradient3" spreadMethod="pad" x1="-819.2" x2="819.2">
      <stop offset="0.0" stop-color="#cc0000"/>
      <stop offset="0.1843137254901961" stop-color="#660000"/>
      <stop offset="0.6039215686274509" stop-color="#000000"/>
      <stop offset="0.8196078431372549" stop-color="#000000"/>
    </linearGradient>
    <radialGradient cx="0" cy="0" gradientTransform="matrix(0.3421, 0.0, 0.0, -0.3421, 399.35, 586.0)" gradientUnits="userSpaceOnUse" id="gradient4" r="819.2" spreadMethod="pad">
      <stop offset="0.1607843137254902" stop-color="#cc0000"/>
      <stop offset="1.0" stop-color="#660000"/>
    </radialGradient>
    <linearGradient gradientTransform="matrix(0.0, 0.0656, 0.2085, 0.0, 398.95, 116.45)" gradientUnits="userSpaceOnUse" id="gradient5" spreadMethod="pad" x1="-819.2" x2="819.2">
      <stop offset="0.00392156862745098" stop-color="#350000"/>
      <stop offset="1.0" stop-color="#000000"/>
    </linearGradient>
    <linearGradient gradientTransform="matrix(0.0, -0.0683, -0.0674, 0.0, 397.8, 527.1)" gradientUnits="userSpaceOnUse" id="gradient6" spreadMethod="pad" x1="-819.2" x2="819.2">
      <stop offset="0.00392156862745098" stop-color="#4f0000"/>
      <stop offset="1.0" stop-color="#000000"/>
    </linearGradient>
    <radialGradient cx="0" cy="0" gradientTransform="matrix(0.4835, 0.0, 0.0, 0.967, 399.15, 528.15)" gradientUnits="userSpaceOnUse" id="gradient7" r="819.2" spreadMethod="pad">
      <stop offset="0.0" stop-color="#cc0000"/>
      <stop offset="0.9764705882352941" stop-color="#660000"/>
    </radialGradient>
  </defs>
</svg>
