<?xml version="1.0" encoding="UTF-8" standalone="no"?>
<svg xmlns:xlink="http://www.w3.org/1999/xlink" height="23.15px" width="218.9px" xmlns="http://www.w3.org/2000/svg">
  <g transform="matrix(1.0, 0.0, 0.0, 1.0, 7.7, -3.9)">
    <path d="M203.75 12.0 L202.2 13.5 4.75 13.5 6.15 12.0 203.75 12.0 M200.75 15.0 L199.35 16.5 1.95 16.5 3.35 15.0 200.75 15.0 M198.0 18.0 L196.65 19.5 -0.8 19.5 0.6 18.0 198.0 18.0 M192.8 24.0 L191.65 25.5 -6.8 25.5 -5.15 24.0 192.8 24.0 M195.3 21.0 L194.05 22.5 -3.6 22.5 -3.0 21.85 -2.2 21.0 195.3 21.0 M206.65 9.0 L205.2 10.5 7.5 10.5 8.85 9.0 206.65 9.0 M209.6 6.0 L208.1 7.5 10.2 7.5 11.5 6.0 209.6 6.0" fill="#000000" fill-opacity="0.4" fill-rule="evenodd" stroke="none"/>
    <path d="M189.75 27.05 L113.8 27.05 -7.7 27.05 13.7 3.9 113.8 3.9 211.2 3.9 189.75 27.05" fill="url(#gradient0)" fill-rule="evenodd" stroke="none"/>
  </g>
  <defs>
    <linearGradient gradientTransform="matrix(0.0, -0.0103, 0.0141, 0.0, 100.25, 21.7)" gradientUnits="userSpaceOnUse" id="gradient0" spreadMethod="pad" x1="-819.2" x2="819.2">
      <stop offset="0.0" stop-color="#000000" stop-opacity="0.85882354"/>
      <stop offset="1.0" stop-color="#000000" stop-opacity="0.0"/>
    </linearGradient>
  </defs>
</svg>
