<?xml version="1.0" encoding="UTF-8" standalone="no"?>
<svg xmlns:xlink="http://www.w3.org/1999/xlink" height="12.65px" width="34.35px" xmlns="http://www.w3.org/2000/svg">
  <g transform="matrix(1.0, 0.0, 0.0, 1.0, 14.45, 6.9)">
    <path d="M-14.45 -6.9 L-12.15 -6.9 -7.9 0.25 -7.9 -6.9 -5.25 -6.9 -5.25 5.75 -7.6 5.75 -11.8 -1.4 -11.8 5.75 -14.45 5.75 -14.45 -6.9 M12.75 -5.75 L14.15 -5.75 16.0 0.15 17.05 -6.9 19.9 -6.9 17.55 5.75 15.2 5.75 13.45 0.15 11.75 5.75 9.35 5.75 7.05 -6.9 9.8 -6.9 10.95 0.25 12.75 -5.75 M6.35 -6.9 L6.35 -4.7 -0.2 -4.7 -0.2 -1.7 4.2 -1.7 4.2 0.55 -0.2 0.55 -0.2 3.55 6.35 3.55 6.35 5.75 -2.9 5.75 -2.9 -6.9 6.35 -6.9" fill="#ffffff" fill-rule="evenodd" stroke="none"/>
  </g>
</svg>
