<?xml version="1.0" encoding="UTF-8" standalone="no"?>
<svg xmlns:xlink="http://www.w3.org/1999/xlink" height="74.3px" width="19.75px" xmlns="http://www.w3.org/2000/svg">
  <g transform="matrix(1.0, 0.0, 0.0, 1.0, 1.75, 28.0)">
    <path d="M-1.75 -28.0 L-0.55 -28.0 -0.55 46.3 -1.75 46.3 -1.75 -28.0" fill="url(#gradient0)" fill-rule="evenodd" stroke="none"/>
    <path d="M6.2 -28.0 L7.4 -28.0 7.4 46.3 6.2 46.3 6.2 -28.0" fill="url(#gradient1)" fill-rule="evenodd" stroke="none"/>
    <path d="M11.5 -28.0 L12.7 -28.0 12.7 46.3 11.5 46.3 11.5 -28.0 M3.55 -28.0 L4.75 -28.0 4.75 46.3 3.55 46.3 3.55 -28.0" fill="url(#gradient2)" fill-rule="evenodd" stroke="none"/>
    <path d="M0.9 -28.0 L2.1 -28.0 2.1 46.3 0.9 46.3 0.9 -28.0" fill="url(#gradient3)" fill-rule="evenodd" stroke="none"/>
    <path d="M8.85 -28.0 L10.05 -28.0 10.05 46.3 8.85 46.3 8.85 -28.0" fill="url(#gradient4)" fill-rule="evenodd" stroke="none"/>
    <path d="M16.8 -28.0 L18.0 -28.0 18.0 46.3 16.8 46.3 16.8 -28.0" fill="url(#gradient5)" fill-rule="evenodd" stroke="none"/>
    <path d="M14.15 -28.0 L15.35 -28.0 15.35 46.3 14.15 46.3 14.15 -28.0" fill="url(#gradient6)" fill-rule="evenodd" stroke="none"/>
    <path d="M15.0 20.25 L0.0 10.1 15.0 0.0 15.0 20.25" fill="#d90000" fill-rule="evenodd" stroke="none"/>
    <path d="M15.0 20.25 L0.0 10.1 15.0 0.0 15.0 20.25 Z" fill="none" stroke="#ff0606" stroke-linecap="round" stroke-linejoin="round" stroke-width="1.0"/>
  </g>
  <defs>
    <radialGradient cx="0" cy="0" gradientTransform="matrix(0.0488, 0.0, 0.0, 0.0488, 10.35, 9.15)" gradientUnits="userSpaceOnUse" id="gradient0" r="819.2" spreadMethod="pad">
      <stop offset="0.0" stop-color="#d90000"/>
      <stop offset="1.0" stop-color="#000000"/>
    </radialGradient>
    <radialGradient cx="0" cy="0" gradientTransform="matrix(0.0488, 0.0, 0.0, 0.0488, 10.15, 9.15)" gradientUnits="userSpaceOnUse" id="gradient1" r="819.2" spreadMethod="pad">
      <stop offset="0.0" stop-color="#d90000"/>
      <stop offset="1.0" stop-color="#000000"/>
    </radialGradient>
    <radialGradient cx="0" cy="0" gradientTransform="matrix(0.0488, 0.0, 0.0, 0.0488, 10.3, 9.15)" gradientUnits="userSpaceOnUse" id="gradient2" r="819.2" spreadMethod="pad">
      <stop offset="0.0" stop-color="#d90000"/>
      <stop offset="1.0" stop-color="#000000"/>
    </radialGradient>
    <radialGradient cx="0" cy="0" gradientTransform="matrix(0.0488, 0.0, 0.0, 0.0488, 10.4, 9.15)" gradientUnits="userSpaceOnUse" id="gradient3" r="819.2" spreadMethod="pad">
      <stop offset="0.0" stop-color="#d90000"/>
      <stop offset="1.0" stop-color="#000000"/>
    </radialGradient>
    <radialGradient cx="0" cy="0" gradientTransform="matrix(0.0488, 0.0, 0.0, 0.0488, 10.25, 9.15)" gradientUnits="userSpaceOnUse" id="gradient4" r="819.2" spreadMethod="pad">
      <stop offset="0.0" stop-color="#d90000"/>
      <stop offset="1.0" stop-color="#000000"/>
    </radialGradient>
    <radialGradient cx="0" cy="0" gradientTransform="matrix(0.0488, 0.0, 0.0, 0.0488, 10.05, 9.15)" gradientUnits="userSpaceOnUse" id="gradient5" r="819.2" spreadMethod="pad">
      <stop offset="0.0" stop-color="#d90000"/>
      <stop offset="1.0" stop-color="#000000"/>
    </radialGradient>
    <radialGradient cx="0" cy="0" gradientTransform="matrix(0.0488, 0.0, 0.0, 0.0488, 10.2, 9.15)" gradientUnits="userSpaceOnUse" id="gradient6" r="819.2" spreadMethod="pad">
      <stop offset="0.0" stop-color="#d90000"/>
      <stop offset="1.0" stop-color="#000000"/>
    </radialGradient>
  </defs>
</svg>
