<?xml version="1.0" encoding="UTF-8" standalone="no"?>
<svg xmlns:xlink="http://www.w3.org/1999/xlink" height="22.0px" width="22.0px" xmlns="http://www.w3.org/2000/svg">
  <g transform="matrix(1.0, 0.0, 0.0, 1.0, -59.2, 5.8)">
    <path d="M78.0 13.0 L78.05 12.9 Q74.95 16.15 70.2 16.2 65.65 16.2 62.45 13.0 59.2 9.75 59.2 5.2 59.2 0.65 62.45 -2.55 65.65 -5.8 70.2 -5.8 74.9 -5.75 78.0 -2.55 L78.05 -2.5 Q81.2 0.7 81.2 5.2 81.2 9.75 78.0 13.0 M78.95 5.2 Q78.95 1.65 76.4 -0.9 L76.3 -1.0 76.3 -1.05 Q73.9 -3.6 70.2 -3.55 66.6 -3.55 64.05 -0.9 61.45 1.65 61.45 5.2 61.45 8.8 64.05 11.4 66.6 13.95 70.2 13.95 73.9 14.05 76.3 11.5 L76.4 11.4 Q78.95 8.8 78.95 5.2" fill="#037bc9" fill-rule="evenodd" stroke="none"/>
    <path d="M78.95 5.2 Q78.95 8.8 76.4 11.4 L76.3 11.5 Q73.9 14.05 70.2 13.95 66.6 13.95 64.05 11.4 61.45 8.8 61.45 5.2 61.45 1.65 64.05 -0.9 66.6 -3.55 70.2 -3.55 73.9 -3.6 76.3 -1.05 L76.3 -1.0 76.4 -0.9 Q78.95 1.65 78.95 5.2" fill="url(#gradient0)" fill-rule="evenodd" stroke="none"/>
  </g>
  <defs>
    <radialGradient cx="0" cy="0" gradientTransform="matrix(0.0264, 0.0, 0.0, 0.0264, 70.2, 5.2)" gradientUnits="userSpaceOnUse" id="gradient0" r="819.2" spreadMethod="pad">
      <stop offset="0.0" stop-color="#001c31"/>
      <stop offset="1.0" stop-color="#000000"/>
    </radialGradient>
  </defs>
</svg>
