<?xml version="1.0" encoding="UTF-8" standalone="no"?>
<svg xmlns:xlink="http://www.w3.org/1999/xlink" height="15.9px" width="29.6px" xmlns="http://www.w3.org/2000/svg">
  <g transform="matrix(1.0, 0.0, 0.0, 1.0, 2.7, 7.75)">
    <path d="M14.05 5.85 L14.1 5.5 14.1 0.5 13.8 -0.2 13.1 -0.5 12.75 -0.45 13.0 -0.8 13.7 -1.1 14.4 -0.8 14.7 -0.1 14.7 4.9 14.4 5.6 14.05 5.85 M16.15 -0.7 L16.4 -1.05 Q16.7 -1.35 17.1 -1.35 L17.8 -1.05 18.1 -0.35 18.1 4.65 17.8 5.35 17.45 5.6 17.5 5.25 17.5 0.25 17.2 -0.45 Q16.9 -0.75 16.5 -0.75 L16.15 -0.7 M3.45 0.4 L3.7 0.05 Q4.0 -0.25 4.4 -0.25 L5.1 0.05 5.4 0.75 5.4 5.75 5.1 6.45 4.75 6.7 4.8 6.35 4.8 1.35 4.5 0.65 3.8 0.35 3.45 0.4 M0.05 0.65 L0.3 0.3 Q0.6 0.0 1.0 0.0 1.4 0.0 1.7 0.3 L2.0 1.0 2.0 6.0 1.7 6.7 1.35 6.95 1.4 6.6 1.4 1.6 1.1 0.9 Q0.8 0.6 0.4 0.6 L0.05 0.65" fill="#000000" fill-opacity="0.5411765" fill-rule="evenodd" stroke="none"/>
    <path d="M12.7 0.5 L13.1 0.35 Q13.4 0.35 13.65 0.6 L13.85 1.1 13.85 4.9 13.65 5.45 13.15 5.7 13.0 5.6 Q12.7 5.3 12.7 4.9 L12.7 0.5 M16.55 5.45 L16.4 5.35 16.1 4.65 16.1 0.25 Q16.25 0.1 16.5 0.1 L17.05 0.35 17.25 0.85 17.25 4.65 17.05 5.2 16.55 5.45 M3.85 6.55 L3.7 6.45 Q3.4 6.15 3.4 5.75 L3.4 1.35 3.8 1.2 4.35 1.45 4.55 1.95 4.55 5.75 4.35 6.3 3.85 6.55 M0.45 6.8 L0.3 6.7 Q0.0 6.4 0.0 6.0 L0.0 1.6 Q0.15 1.45 0.4 1.45 L0.95 1.7 1.15 2.2 1.15 6.0 0.95 6.55 0.45 6.8" fill="#ffffff" fill-rule="evenodd" stroke="none"/>
    <path d="M12.7 0.5 L12.7 -0.1 12.75 -0.45 13.1 -0.5 13.8 -0.2 14.1 0.5 14.1 5.5 14.05 5.85 13.7 5.9 Q13.35 5.9 13.15 5.7 L13.65 5.45 13.85 4.9 13.85 1.1 13.65 0.6 Q13.4 0.35 13.1 0.35 L12.7 0.5 M16.1 0.25 L16.1 -0.35 16.15 -0.7 16.5 -0.75 Q16.9 -0.75 17.2 -0.45 L17.5 0.25 17.5 5.25 17.45 5.6 17.1 5.65 16.55 5.45 17.05 5.2 17.25 4.65 17.25 0.85 17.05 0.35 16.5 0.1 Q16.25 0.1 16.1 0.25 M3.45 0.4 L3.8 0.35 4.5 0.65 4.8 1.35 4.8 6.35 4.75 6.7 4.4 6.75 Q4.05 6.75 3.85 6.55 L4.35 6.3 4.55 5.75 4.55 1.95 4.35 1.45 3.8 1.2 3.4 1.35 3.4 0.75 3.45 0.4 M0.05 0.65 L0.4 0.6 Q0.8 0.6 1.1 0.9 L1.4 1.6 1.4 6.6 1.35 6.95 1.0 7.0 0.45 6.8 0.95 6.55 1.15 6.0 1.15 2.2 0.95 1.7 0.4 1.45 Q0.15 1.45 0.0 1.6 L0.0 1.0 0.05 0.65" fill="#9a9a9a" fill-rule="evenodd" stroke="none"/>
    <path d="M0.1 1.2 L0.15 1.15 2.7 -1.35 Q5.35 -3.65 7.35 -4.25 9.35 -4.85 9.5 -3.4 9.65 -1.95 7.85 0.65 6.15 3.35 3.45 5.7 L1.9 6.95 1.65 7.15 1.6 7.05 0.1 1.2" fill="url(#gradient0)" fill-rule="evenodd" stroke="none"/>
    <path d="M1.6 7.05 Q0.3 7.9 -0.8 8.1 -2.45 8.4 -2.7 6.75 -2.8 5.3 -1.45 2.7 L-0.05 0.6 0.1 1.2 1.6 7.05" fill="url(#gradient1)" fill-rule="evenodd" stroke="none"/>
    <path d="M3.95 0.5 L4.0 0.45 6.55 -2.05 Q9.2 -4.35 11.2 -4.95 13.2 -5.55 13.35 -4.1 13.5 -2.65 11.7 -0.05 10.0 2.65 7.3 5.0 L5.75 6.25 5.5 6.45 5.45 6.35 3.95 0.5" fill="url(#gradient2)" fill-rule="evenodd" stroke="none"/>
    <path d="M5.45 6.35 Q4.15 7.2 3.05 7.4 1.4 7.7 1.15 6.05 1.05 4.6 2.4 2.0 L3.8 -0.1 3.95 0.5 5.45 6.35" fill="url(#gradient3)" fill-rule="evenodd" stroke="none"/>
    <path d="M19.0 3.75 Q17.7 4.6 16.6 4.8 14.95 5.1 14.7 3.45 14.6 2.0 15.95 -0.6 L17.35 -2.7 17.5 -2.1 19.0 3.75" fill="url(#gradient4)" fill-rule="evenodd" stroke="none"/>
    <path d="M17.5 -2.1 L17.55 -2.15 20.1 -4.65 Q22.75 -6.95 24.75 -7.55 26.75 -8.15 26.9 -6.7 27.05 -5.25 25.25 -2.65 23.55 0.05 20.85 2.4 L19.3 3.65 19.05 3.85 19.0 3.75 17.5 -2.1" fill="url(#gradient5)" fill-rule="evenodd" stroke="none"/>
    <path d="M12.7 0.5 L12.75 0.45 15.3 -2.05 Q17.95 -4.35 19.95 -4.95 21.95 -5.55 22.1 -4.1 22.25 -2.65 20.45 -0.05 18.75 2.65 16.05 5.0 L14.5 6.25 14.25 6.45 14.2 6.35 12.7 0.5" fill="url(#gradient6)" fill-rule="evenodd" stroke="none"/>
    <path d="M14.2 6.35 Q12.9 7.2 11.8 7.4 10.15 7.7 9.9 6.05 9.8 4.6 11.15 2.0 L12.55 -0.1 12.7 0.5 14.2 6.35" fill="url(#gradient7)" fill-rule="evenodd" stroke="none"/>
  </g>
  <defs>
    <radialGradient cx="0" cy="0" gradientTransform="matrix(0.0071, -0.0073, 0.0024, 0.0024, 3.1, 2.15)" gradientUnits="userSpaceOnUse" id="gradient0" r="819.2" spreadMethod="pad">
      <stop offset="0.0" stop-color="#ffffff" stop-opacity="0.7607843"/>
      <stop offset="0.984313725490196" stop-color="#ffffff" stop-opacity="0.0"/>
    </radialGradient>
    <radialGradient cx="0" cy="0" gradientTransform="matrix(0.0057, -0.0065, 0.0021, 0.0029, 2.6, 2.0)" gradientUnits="userSpaceOnUse" id="gradient1" r="819.2" spreadMethod="pad">
      <stop offset="0.0" stop-color="#ffffff" stop-opacity="0.7607843"/>
      <stop offset="0.984313725490196" stop-color="#ffffff" stop-opacity="0.0"/>
    </radialGradient>
    <radialGradient cx="0" cy="0" gradientTransform="matrix(0.0071, -0.0073, 0.0024, 0.0024, 6.95, 1.45)" gradientUnits="userSpaceOnUse" id="gradient2" r="819.2" spreadMethod="pad">
      <stop offset="0.0" stop-color="#ffffff" stop-opacity="0.7607843"/>
      <stop offset="0.984313725490196" stop-color="#ffffff" stop-opacity="0.0"/>
    </radialGradient>
    <radialGradient cx="0" cy="0" gradientTransform="matrix(0.0057, -0.0065, 0.0021, 0.0029, 6.45, 1.3)" gradientUnits="userSpaceOnUse" id="gradient3" r="819.2" spreadMethod="pad">
      <stop offset="0.0" stop-color="#ffffff" stop-opacity="0.7607843"/>
      <stop offset="0.984313725490196" stop-color="#ffffff" stop-opacity="0.0"/>
    </radialGradient>
    <radialGradient cx="0" cy="0" gradientTransform="matrix(0.0057, -0.0065, 0.0021, 0.0029, 20.0, -1.3)" gradientUnits="userSpaceOnUse" id="gradient4" r="819.2" spreadMethod="pad">
      <stop offset="0.0" stop-color="#ffffff" stop-opacity="0.7607843"/>
      <stop offset="0.984313725490196" stop-color="#ffffff" stop-opacity="0.0"/>
    </radialGradient>
    <radialGradient cx="0" cy="0" gradientTransform="matrix(0.0071, -0.0073, 0.0024, 0.0024, 20.5, -1.15)" gradientUnits="userSpaceOnUse" id="gradient5" r="819.2" spreadMethod="pad">
      <stop offset="0.0" stop-color="#ffffff" stop-opacity="0.7607843"/>
      <stop offset="0.984313725490196" stop-color="#ffffff" stop-opacity="0.0"/>
    </radialGradient>
    <radialGradient cx="0" cy="0" gradientTransform="matrix(0.0071, -0.0073, 0.0024, 0.0024, 15.7, 1.45)" gradientUnits="userSpaceOnUse" id="gradient6" r="819.2" spreadMethod="pad">
      <stop offset="0.0" stop-color="#ffffff" stop-opacity="0.7607843"/>
      <stop offset="0.984313725490196" stop-color="#ffffff" stop-opacity="0.0"/>
    </radialGradient>
    <radialGradient cx="0" cy="0" gradientTransform="matrix(0.0057, -0.0065, 0.0021, 0.0029, 15.2, 1.3)" gradientUnits="userSpaceOnUse" id="gradient7" r="819.2" spreadMethod="pad">
      <stop offset="0.0" stop-color="#ffffff" stop-opacity="0.7607843"/>
      <stop offset="0.984313725490196" stop-color="#ffffff" stop-opacity="0.0"/>
    </radialGradient>
  </defs>
</svg>
