<?xml version="1.0" encoding="UTF-8" standalone="no"?>
<svg xmlns:xlink="http://www.w3.org/1999/xlink" height="17.1px" width="15.65px" xmlns="http://www.w3.org/2000/svg">
  <g transform="matrix(1.0, 0.0, 0.0, 1.0, -80.1, -6.05)">
    <path d="M93.5 8.5 Q95.75 11.0 95.75 14.6 95.75 18.1 93.5 20.65 91.2 23.15 87.95 23.15 84.75 23.15 82.4 20.65 80.1 18.1 80.1 14.6 80.1 11.0 82.4 8.5 84.75 6.05 87.95 6.05 91.2 6.05 93.5 8.5" fill="#d71212" fill-rule="evenodd" stroke="none"/>
    <path d="M89.5 8.35 L89.5 17.2 86.4 17.2 86.4 8.35 89.5 8.35 M86.0 19.2 Q86.1 18.9 86.4 18.75 L86.95 18.55 87.9 18.55 88.9 18.55 89.6 18.75 89.8 19.2 90.0 19.9 89.8 20.5 89.6 21.0 88.9 21.15 87.9 21.2 86.95 21.15 86.4 21.0 86.0 20.5 85.95 19.9 86.0 19.2" fill="#2e0000" fill-rule="evenodd" stroke="none"/>
  </g>
</svg>
