<?xml version="1.0" encoding="UTF-8" standalone="no"?>
<svg xmlns:xlink="http://www.w3.org/1999/xlink" height="194.85px" width="436.9px" xmlns="http://www.w3.org/2000/svg">
  <g transform="matrix(1.0, 0.0, 0.0, 1.0, 1.8, 1.05)">
    <path d="M10.6 2.4 L10.45 2.4 12.35 -0.15 434.8 -0.15 434.8 2.4 434.15 2.4 434.15 0.05 12.55 0.05 434.15 0.05 434.15 2.4 10.6 2.4 12.55 0.05 10.6 2.4 M434.15 5.35 L434.8 5.35 434.8 7.85 434.15 7.85 434.15 5.35 434.15 7.85 6.2 7.85 8.15 5.35 434.15 5.35 M434.15 11.05 L434.8 11.05 434.8 13.6 434.15 13.6 434.15 11.05 434.15 13.6 2.1 13.6 3.35 11.5 3.7 11.05 434.15 11.05 M0.0 184.65 L425.2 184.65 423.1 187.15 0.0 187.15 0.0 184.65 0.0 187.15 -0.5 187.15 -0.5 184.65 0.0 184.65 M0.0 178.9 L429.95 178.9 427.9 181.45 0.0 181.45 0.0 178.9 0.0 181.45 -0.5 181.45 -0.5 178.9 0.0 178.9" fill="#4f0000" fill-rule="evenodd" stroke="none"/>
    <path d="M434.15 2.4 L434.15 5.35 8.15 5.35 6.2 7.85 434.15 7.85 434.15 11.05 3.7 11.05 3.35 11.5 2.1 13.6 434.15 13.6 434.15 16.75 0.1 16.75 0.0 16.9 0.0 15.15 8.15 5.35 10.6 2.4 434.15 2.4 M434.15 19.3 L434.15 22.25 0.0 22.25 0.0 19.3 71.2 19.3 77.05 19.3 83.15 19.35 89.45 19.4 Q166.7 20.0 208.85 19.8 L323.2 19.7 342.95 19.5 405.45 19.25 434.15 19.3 M434.15 24.75 L434.15 27.95 0.0 27.95 0.0 24.75 434.15 24.75 M434.15 30.5 L434.15 33.65 0.0 33.65 0.0 30.5 40.55 30.5 87.35 31.25 Q164.9 32.35 207.3 32.05 249.75 31.75 322.3 31.75 375.3 31.75 411.2 30.5 L434.15 30.5 M434.15 36.2 L434.15 39.3 0.0 39.3 0.0 36.2 434.15 36.2 M434.15 41.85 L434.15 150.85 0.0 150.85 0.0 41.85 434.15 41.85 M434.15 153.35 L434.15 156.3 0.0 156.3 0.0 153.35 434.15 153.35 M434.15 158.85 L434.15 161.5 434.15 162.0 0.0 162.0 0.0 158.85 434.15 158.85 M434.15 164.55 L434.15 167.75 0.0 167.75 0.0 164.55 434.15 164.55 M434.15 170.25 L434.15 173.2 0.0 173.2 0.0 170.25 434.15 170.25 M433.55 175.3 L420.9 190.45 0.0 190.45 0.0 187.15 423.1 187.15 425.2 184.65 0.0 184.65 0.0 181.45 427.9 181.45 429.95 178.9 0.0 178.9 0.0 175.75 433.05 175.75 433.55 175.3" fill="#1a0000" fill-rule="evenodd" stroke="none"/>
    <path d="M434.15 16.75 L434.8 16.75 434.8 18.45 434.8 19.3 434.15 19.3 434.15 18.5 434.15 19.3 405.45 19.25 434.15 18.5 434.8 18.45 434.15 18.45 434.15 16.75 434.15 18.45 216.7 18.55 Q109.6 18.55 55.0 18.9 L71.2 19.3 0.0 19.3 0.0 16.9 0.0 19.3 -0.5 19.3 -0.5 17.55 0.0 16.9 0.1 16.75 434.15 16.75 M434.15 173.2 L434.8 173.2 434.8 174.4 Q434.55 174.45 434.4 174.6 L434.15 174.8 434.15 173.2 434.15 174.8 433.55 175.3 433.05 175.75 0.0 175.75 0.0 173.2 0.0 175.75 -0.5 175.75 -0.5 173.2 0.0 173.2 434.15 173.2" fill="#480000" fill-rule="evenodd" stroke="none"/>
    <path d="M434.15 18.45 L434.8 18.45 434.15 18.5 405.45 19.25 342.95 19.5 323.2 19.7 208.85 19.8 Q166.7 20.0 89.45 19.4 L83.15 19.35 77.05 19.3 71.2 19.3 55.0 18.9 Q109.6 18.55 216.7 18.55 L434.15 18.45" fill="url(#gradient0)" fill-rule="evenodd" stroke="none"/>
    <path d="M434.15 22.25 L434.8 22.25 434.8 24.75 434.15 24.75 434.15 22.25 434.15 24.75 0.0 24.75 0.0 22.25 0.0 24.75 -0.5 24.75 -0.5 22.25 0.0 22.25 434.15 22.25 M434.15 167.75 L434.8 167.75 434.8 170.25 434.15 170.25 434.15 167.75 434.15 170.25 0.0 170.25 0.0 167.75 0.0 170.25 -0.5 170.25 -0.5 167.75 0.0 167.75 434.15 167.75" fill="#400000" fill-rule="evenodd" stroke="none"/>
    <path d="M434.15 27.95 L434.8 27.95 434.8 30.5 434.15 30.5 434.15 29.5 434.15 30.5 411.2 30.5 434.15 29.5 434.7 29.45 434.15 29.45 434.15 27.95 434.15 29.45 215.25 29.5 0.0 29.5 0.0 28.3 0.0 29.5 -0.5 29.5 -0.5 27.95 0.0 27.95 434.15 27.95 M434.15 162.0 L434.8 162.0 434.8 164.55 434.15 164.55 434.15 162.0 434.15 164.55 0.0 164.55 0.0 162.0 0.0 164.55 -0.5 164.55 -0.5 162.0 0.0 162.0 434.15 162.0 M40.55 30.5 L0.0 30.5 0.0 29.6 0.0 30.5 -0.5 30.5 -0.5 29.55 0.0 29.6 40.55 30.5 M0.0 28.25 L0.0 27.95 0.0 28.25 0.0 28.3 0.0 28.25" fill="#370000" fill-rule="evenodd" stroke="none"/>
    <path d="M434.15 29.45 L434.7 29.45 434.15 29.5 411.2 30.5 Q375.3 31.75 322.3 31.75 249.75 31.75 207.3 32.05 164.9 32.35 87.35 31.25 L40.55 30.5 0.0 29.6 -0.5 29.55 -1.8 29.5 -0.5 29.5 0.0 29.5 215.25 29.5 434.15 29.45" fill="url(#gradient1)" fill-rule="evenodd" stroke="none"/>
    <path d="M434.15 33.65 L434.8 33.65 434.8 36.2 434.15 36.2 434.15 33.65 434.15 36.2 0.0 36.2 0.0 33.65 0.0 36.2 -0.5 36.2 -0.5 33.65 0.0 33.65 434.15 33.65 M434.15 156.3 L434.8 156.3 434.8 158.85 434.15 158.85 434.15 156.3 434.15 158.85 0.0 158.85 0.0 156.3 0.0 158.85 -0.5 158.85 -0.5 156.3 0.0 156.3 434.15 156.3" fill="#2b0000" fill-rule="evenodd" stroke="none"/>
    <path d="M434.15 39.3 L434.8 39.3 434.8 41.85 434.15 41.85 434.15 39.3 434.15 41.85 0.0 41.85 0.0 39.3 0.0 41.85 -0.5 41.85 -0.5 39.3 0.0 39.3 434.15 39.3 M434.15 150.85 L434.8 150.85 434.8 153.35 434.15 153.35 434.15 150.85 434.15 153.35 0.0 153.35 0.0 150.85 0.0 153.35 -0.5 153.35 -0.5 150.85 0.0 150.85 434.15 150.85" fill="#280000" fill-rule="evenodd" stroke="none"/>
    <path d="M434.15 2.4 L434.15 5.35 434.15 7.85 434.15 11.05 434.15 13.6 434.15 16.75 434.15 18.45 M434.15 19.3 L434.15 22.25 434.15 24.75 434.15 27.95 434.15 29.45 M434.15 30.5 L434.15 33.65 434.15 36.2 434.15 39.3 434.15 41.85 434.15 150.85 434.15 153.35 434.15 156.3 434.15 158.85 434.15 161.5 M12.55 0.05 L434.15 0.05 434.15 2.4 M434.15 18.5 L434.15 19.3 M434.15 29.5 L434.15 30.5 M0.0 36.2 L0.0 39.3 0.0 41.85 0.0 150.85 0.0 153.35 0.0 156.3 0.0 158.85 0.0 162.0 0.0 164.55 0.0 167.75 0.0 170.25 0.0 173.2 0.0 175.75 0.0 178.9 0.0 181.45 0.0 184.65 0.0 187.15 0.0 190.45 0.0 191.05 420.9 191.05 434.15 175.15 M0.0 33.65 L0.0 36.2 M0.0 27.95 L0.0 28.25 M0.0 28.3 L0.0 29.5" fill="none" stroke="#d90000" stroke-linecap="round" stroke-linejoin="round" stroke-width="1.5"/>
    <path d="M434.15 161.5 L434.15 162.0 434.15 164.55 434.15 167.75 434.15 170.25 434.15 173.2 434.15 174.8 434.15 175.15 434.15 175.75 420.9 191.7 389.55 191.7 384.25 191.7 M10.6 2.4 L8.15 5.35 0.0 15.15 0.0 16.9 0.0 19.3 0.0 22.25 0.0 24.75 0.0 27.95 M0.0 30.5 L0.0 33.65 M12.55 0.05 L10.6 2.4 M0.0 29.6 L0.0 30.5 M0.0 28.25 L0.0 28.3" fill="none" stroke="#ff0606" stroke-linecap="square" stroke-linejoin="round" stroke-width="1.0"/>
    <path d="M435.0 184.05 L425.1 192.85 -1.7 192.85 -1.7 7.85 8.2 -1.05 435.0 -1.05 435.0 184.05" fill="url(#gradient2)" fill-rule="evenodd" stroke="none"/>
    <path d="M435.05 183.35 L435.1 185.65 425.9 193.5 -1.75 193.8 -1.7 192.2 425.1 192.2 435.05 183.35" fill="url(#gradient3)" fill-rule="evenodd" stroke="none"/>
    <path d="M-1.65 127.55 L-1.65 29.9 434.75 29.9 434.75 127.55 -1.65 127.55" fill="#000000" fill-rule="evenodd" stroke="none"/>
    <path d="M-1.65 127.5 L-1.65 31.2 434.75 31.2 434.75 127.5 -1.65 127.5" fill="url(#gradient4)" fill-rule="evenodd" stroke="none"/>
  </g>
  <defs>
    <radialGradient cx="0" cy="0" gradientTransform="matrix(0.2677, 0.0, 0.0, 0.2404, 217.95, 19.2)" gradientUnits="userSpaceOnUse" id="gradient0" r="819.2" spreadMethod="pad">
      <stop offset="0.0" stop-color="#ff0000"/>
      <stop offset="1.0" stop-color="#ff0000" stop-opacity="0.0"/>
    </radialGradient>
    <radialGradient cx="0" cy="0" gradientTransform="matrix(0.269, 0.0, 0.0, 0.462, 216.35, 30.8)" gradientUnits="userSpaceOnUse" id="gradient1" r="819.2" spreadMethod="pad">
      <stop offset="0.0" stop-color="#ff0000"/>
      <stop offset="1.0" stop-color="#ff0000" stop-opacity="0.0"/>
    </radialGradient>
    <linearGradient gradientTransform="matrix(0.0, 0.3354, 0.3736, 0.0, 226.2, 102.85)" gradientUnits="userSpaceOnUse" id="gradient2" spreadMethod="pad" x1="-819.2" x2="819.2">
      <stop offset="0.0" stop-color="#cc0000"/>
      <stop offset="0.1843137254901961" stop-color="#660000"/>
      <stop offset="0.6039215686274509" stop-color="#000000"/>
      <stop offset="0.8196078431372549" stop-color="#000000"/>
    </linearGradient>
    <radialGradient cx="0" cy="0" gradientTransform="matrix(0.1885, 0.0, 0.0, -0.1692, 216.6, 188.15)" gradientUnits="userSpaceOnUse" id="gradient3" r="819.2" spreadMethod="pad">
      <stop offset="0.1607843137254902" stop-color="#cc0000"/>
      <stop offset="1.0" stop-color="#660000"/>
    </radialGradient>
    <linearGradient gradientTransform="matrix(0.0, 0.0616, 0.1149, 0.0, 215.9, 59.8)" gradientUnits="userSpaceOnUse" id="gradient4" spreadMethod="pad" x1="-819.2" x2="819.2">
      <stop offset="0.0" stop-color="#330000"/>
      <stop offset="1.0" stop-color="#000000"/>
    </linearGradient>
  </defs>
</svg>
