<?xml version="1.0" encoding="UTF-8" standalone="no"?>
<svg xmlns:xlink="http://www.w3.org/1999/xlink" height="136.05px" width="436.55px" xmlns="http://www.w3.org/2000/svg">
  <g transform="matrix(1.0, 0.0, 0.0, 1.0, 1.8, 0.0)">
    <path d="M0.0 31.3 L0.0 8.05 7.6 0.0 434.75 0.0 434.75 31.3 0.0 31.3" fill="#3e0000" fill-rule="evenodd" stroke="none"/>
    <path d="M0.0 31.3 L434.75 31.3 434.75 127.4 427.25 135.4 0.0 135.4 0.0 118.8 0.0 110.95 0.0 36.55 0.0 31.3" fill="url(#gradient0)" fill-rule="evenodd" stroke="none"/>
    <path d="M434.35 126.6 L434.35 128.65 427.4 135.75 0.0 136.05 0.05 134.6 426.8 134.6 434.35 126.6" fill="url(#gradient1)" fill-rule="evenodd" stroke="none"/>
    <path d="M207.3 30.6 Q164.9 30.85 87.35 29.95 9.85 29.0 -1.8 28.5 L215.25 28.5 434.7 28.45 Q394.3 30.35 322.3 30.35 249.75 30.35 207.3 30.6" fill="url(#gradient2)" fill-rule="evenodd" stroke="none"/>
  </g>
  <defs>
    <linearGradient gradientTransform="matrix(-4.0E-4, 0.0466, -0.0483, -4.0E-4, 166.1, 70.85)" gradientUnits="userSpaceOnUse" id="gradient0" spreadMethod="pad" x1="-819.2" x2="819.2">
      <stop offset="0.0" stop-color="#260000"/>
      <stop offset="1.0" stop-color="#000000"/>
    </linearGradient>
    <radialGradient cx="0" cy="0" gradientTransform="matrix(0.1434, 0.0, 0.0, -0.1532, 166.15, 125.9)" gradientUnits="userSpaceOnUse" id="gradient1" r="819.2" spreadMethod="pad">
      <stop offset="0.1607843137254902" stop-color="#cc0000"/>
      <stop offset="1.0" stop-color="#660000"/>
    </radialGradient>
    <radialGradient cx="0" cy="0" gradientTransform="matrix(0.269, 0.0, 0.0, 0.3841, 216.35, 29.55)" gradientUnits="userSpaceOnUse" id="gradient2" r="819.2" spreadMethod="pad">
      <stop offset="0.0" stop-color="#ff0000"/>
      <stop offset="1.0" stop-color="#ff0000" stop-opacity="0.0"/>
    </radialGradient>
  </defs>
</svg>
