<?xml version="1.0" encoding="UTF-8" standalone="no"?>
<svg xmlns:xlink="http://www.w3.org/1999/xlink" height="111.7px" width="334.85px" xmlns="http://www.w3.org/2000/svg">
  <g transform="matrix(1.0, 0.0, 0.0, 1.0, 1.3, 0.0)">
    <path d="M0.0 31.3 L0.0 8.05 7.6 0.0 332.25 0.0 332.25 31.3 0.0 31.3" fill="#3e0000" fill-rule="evenodd" stroke="none"/>
    <path d="M0.0 31.3 L332.25 31.3 332.25 102.4 324.75 110.4 0.0 110.4 0.0 93.8 0.0 85.95 0.0 36.55 0.0 31.3" fill="url(#gradient0)" fill-rule="evenodd" stroke="none"/>
    <path d="M332.25 102.4 L324.75 110.4 0.0 110.4" fill="none" stroke="url(#gradient1)" stroke-linecap="square" stroke-linejoin="miter" stroke-width="2.0"/>
    <path d="M238.45 31.8 Q190.15 31.8 161.9 32.05 133.7 32.3 82.1 31.4 30.5 30.45 22.75 29.95 L167.2 29.95 313.25 29.9 Q286.35 31.8 238.45 31.8" fill="url(#gradient2)" fill-rule="evenodd" stroke="none"/>
  </g>
  <defs>
    <linearGradient gradientTransform="matrix(-4.0E-4, 0.0466, -0.0483, -4.0E-4, 166.1, 70.85)" gradientUnits="userSpaceOnUse" id="gradient0" spreadMethod="pad" x1="-819.2" x2="819.2">
      <stop offset="0.0" stop-color="#260000"/>
      <stop offset="1.0" stop-color="#000000"/>
    </linearGradient>
    <linearGradient gradientTransform="matrix(0.1701, 0.112, -0.0377, 0.0572, 233.2, 41.35)" gradientUnits="userSpaceOnUse" id="gradient1" spreadMethod="pad" x1="-819.2" x2="819.2">
      <stop offset="0.0" stop-color="#380000"/>
      <stop offset="0.5372549019607843" stop-color="#b50000"/>
      <stop offset="0.9921568627450981" stop-color="#380000"/>
    </linearGradient>
    <radialGradient cx="0" cy="0" gradientTransform="matrix(0.179, 0.0, 0.0, 0.3841, 167.95, 31.0)" gradientUnits="userSpaceOnUse" id="gradient2" r="819.2" spreadMethod="pad">
      <stop offset="0.0" stop-color="#ff0000"/>
      <stop offset="1.0" stop-color="#ff0000" stop-opacity="0.0"/>
    </radialGradient>
  </defs>
</svg>
