<?xml version="1.0" encoding="UTF-8" standalone="no"?>
<svg xmlns:xlink="http://www.w3.org/1999/xlink" height="81.5px" width="470.25px" xmlns="http://www.w3.org/2000/svg">
  <g transform="matrix(1.0, 0.0, 0.0, 1.0, 84.6, -231.05)">
    <path d="M222.45 270.8 Q174.15 270.8 145.9 271.05 117.7 271.3 66.1 270.4 14.5 269.45 6.75 268.95 L151.2 268.95 297.25 268.9 Q270.35 270.8 222.45 270.8" fill="url(#gradient0)" fill-rule="evenodd" stroke="none"/>
    <path d="M-84.6 312.55 L-84.6 293.6 -84.6 284.7 -84.6 238.4 -84.6 232.45 385.65 232.45 385.65 303.4 375.05 312.55 -84.6 312.55" fill="url(#gradient1)" fill-rule="evenodd" stroke="none"/>
    <path d="M237.85 232.95 Q189.55 232.95 161.3 233.2 133.1 233.45 81.5 232.55 29.9 231.6 22.15 231.1 L166.6 231.1 312.65 231.05 Q285.75 232.95 237.85 232.95" fill="url(#gradient2)" fill-rule="evenodd" stroke="none"/>
  </g>
  <defs>
    <radialGradient cx="0" cy="0" gradientTransform="matrix(0.179, 0.0, 0.0, 0.3841, 151.95, 270.0)" gradientUnits="userSpaceOnUse" id="gradient0" r="819.2" spreadMethod="pad">
      <stop offset="0.0" stop-color="#ff0000"/>
      <stop offset="1.0" stop-color="#ff0000" stop-opacity="0.0"/>
    </radialGradient>
    <linearGradient gradientTransform="matrix(-6.0E-4, 0.053, -0.0683, -5.0E-4, 150.5, 267.5)" gradientUnits="userSpaceOnUse" id="gradient1" spreadMethod="pad" x1="-819.2" x2="819.2">
      <stop offset="0.0" stop-color="#260000"/>
      <stop offset="1.0" stop-color="#000000"/>
    </linearGradient>
    <radialGradient cx="0" cy="0" gradientTransform="matrix(0.179, 0.0, 0.0, 0.3841, 167.35, 232.15)" gradientUnits="userSpaceOnUse" id="gradient2" r="819.2" spreadMethod="pad">
      <stop offset="0.0" stop-color="#ff0000"/>
      <stop offset="1.0" stop-color="#ff0000" stop-opacity="0.0"/>
    </radialGradient>
  </defs>
</svg>
