<?xml version="1.0" encoding="UTF-8" standalone="no"?>
<svg xmlns:xlink="http://www.w3.org/1999/xlink" height="645.95px" width="851.95px" xmlns="http://www.w3.org/2000/svg">
  <g transform="matrix(1.0, 0.0, 0.0, 1.0, 34.0, 25.0)">
    <path d="M-24.0 -25.0 L817.95 -25.0 817.95 620.95 -24.0 620.95 -34.0 620.95 -34.0 -25.0 -24.0 -25.0 -24.0 620.95 -24.0 -25.0" fill="#000000" fill-opacity="0.8" fill-rule="evenodd" stroke="none"/>
    <path d="M715.75 508.25 L703.75 520.7 82.2 520.7 82.2 64.75 94.15 52.3 715.75 52.3 715.75 508.25" fill="#000000" fill-rule="evenodd" stroke="none"/>
    <path d="M715.75 508.25 L715.75 52.3 94.15 52.3 82.2 64.75 82.2 520.7 703.75 520.7 715.75 508.25 Z" fill="none" stroke="url(#gradient0)" stroke-linecap="round" stroke-linejoin="round" stroke-width="2.0"/>
    <path d="M95.5 59.3 L704.45 59.3 704.45 84.4 95.5 84.4 95.5 59.3" fill="url(#gradient1)" fill-rule="evenodd" stroke="none"/>
  </g>
  <defs>
    <linearGradient gradientTransform="matrix(0.3879, 0.0, 0.0, 0.3115, 398.95, 266.5)" gradientUnits="userSpaceOnUse" id="gradient0" spreadMethod="pad" x1="-819.2" x2="819.2">
      <stop offset="0.0" stop-color="#052739"/>
      <stop offset="0.5607843137254902" stop-color="#0f94df"/>
      <stop offset="0.9921568627450981" stop-color="#052739"/>
    </linearGradient>
    <linearGradient gradientTransform="matrix(0.3717, 0.0, 0.0, 0.0153, 399.95, 71.85)" gradientUnits="userSpaceOnUse" id="gradient1" spreadMethod="pad" x1="-819.2" x2="819.2">
      <stop offset="0.0" stop-color="#000000"/>
      <stop offset="0.43529411764705883" stop-color="#003278"/>
      <stop offset="0.596078431372549" stop-color="#003978"/>
      <stop offset="1.0" stop-color="#000000"/>
    </linearGradient>
  </defs>
</svg>
