<?xml version="1.0" encoding="UTF-8" standalone="no"?>
<svg xmlns:xlink="http://www.w3.org/1999/xlink" height="214.0px" width="217.5px" xmlns="http://www.w3.org/2000/svg">
  <g transform="matrix(1.0, 0.0, 0.0, 1.0, 0.0, 0.0)">
    <path d="M14.5 0.0 L105.5 90.0 84.5 0.5 144.0 3.5 109.0 91.0 187.0 4.5 206.0 34.0 113.5 92.5 206.5 80.0 203.0 133.5 116.0 96.5 217.5 182.5 168.0 214.0 112.5 97.5 120.0 213.0 65.5 206.0 108.0 101.5 25.0 203.0 0.0 160.5 104.5 98.5 4.5 124.0 6.0 81.0 104.0 94.0 7.0 49.5 10.75 25.15 14.5 0.0" fill="url(#gradient0)" fill-rule="evenodd" stroke="none"/>
  </g>
  <defs>
    <radialGradient cx="0" cy="0" gradientTransform="matrix(0.1373, 0.0, 0.0, 0.1373, 107.5, 97.0)" gradientUnits="userSpaceOnUse" id="gradient0" r="819.2" spreadMethod="pad">
      <stop offset="0.0" stop-color="#ffffff"/>
      <stop offset="1.0" stop-color="#ffffff" stop-opacity="0.0"/>
    </radialGradient>
  </defs>
</svg>
