<?xml version="1.0" encoding="UTF-8" standalone="no"?>
<svg xmlns:xlink="http://www.w3.org/1999/xlink" height="522.85px" width="616.95px" xmlns="http://www.w3.org/2000/svg">
  <g transform="matrix(1.0, 0.0, 0.0, 1.0, -16.0, 102.05)">
    <path d="M632.95 -37.5 L16.0 -37.5 16.0 -66.6 632.95 -66.6 632.95 -37.5" fill="url(#gradient0)" fill-rule="evenodd" stroke="none"/>
    <path d="M545.45 -102.05 L545.45 -70.05 85.45 -70.05 85.45 -102.05 545.45 -102.05" fill="url(#gradient1)" fill-rule="evenodd" stroke="none"/>
    <path d="M264.4 305.95 L389.9 305.95 389.9 351.95 264.4 351.95 264.4 305.95 M473.45 305.95 L597.95 305.95 597.95 351.95 473.45 351.95 473.45 305.95 M57.45 305.95 L182.45 305.95 182.45 351.95 57.45 351.95 57.45 305.95" fill="url(#gradient2)" fill-rule="evenodd" stroke="none"/>
    <path d="M431.25 370.5 L464.6 395.4 431.25 420.3 431.25 408.4 355.3 408.4 355.3 382.85 431.25 382.85 431.25 370.5" fill="url(#gradient3)" fill-rule="evenodd" stroke="none"/>
    <path d="M431.25 370.5 L431.25 382.85 355.3 382.85 355.3 408.4 431.25 408.4 431.25 420.3 464.6 395.4 431.25 370.5 Z" fill="none" stroke="url(#gradient4)" stroke-linecap="round" stroke-linejoin="round" stroke-width="1.0"/>
    <path d="M223.25 370.5 L256.6 395.4 223.25 420.3 223.25 408.4 147.3 408.4 147.3 382.85 223.25 382.85 223.25 370.5" fill="url(#gradient5)" fill-rule="evenodd" stroke="none"/>
    <path d="M223.25 370.5 L223.25 382.85 147.3 382.85 147.3 408.4 223.25 408.4 223.25 420.3 256.6 395.4 223.25 370.5 Z" fill="none" stroke="url(#gradient6)" stroke-linecap="round" stroke-linejoin="round" stroke-width="1.0"/>
    <path d="M283.55 314.8 Q283.4 319.4 281.55 322.1 280.25 324.0 278.5 324.4 277.9 327.05 278.5 329.4 279.75 329.6 281.0 330.45 L281.0 331.05 274.15 331.05 274.15 330.45 Q275.45 329.65 276.7 329.4 277.35 327.15 276.7 324.5 274.75 324.2 273.35 322.1 271.45 319.4 271.3 314.8 L283.55 314.8" fill="#ffdd54" fill-rule="evenodd" stroke="none"/>
    <path d="M284.65 318.0 L284.4 318.65 283.75 318.9 283.1 318.65 282.85 318.0 Q282.85 317.65 283.1 317.4 L283.3 317.25 283.05 317.3 283.1 316.8 285.0 316.5 Q286.45 316.6 287.15 317.6 287.85 318.6 287.35 319.85 286.8 321.05 285.35 321.9 283.9 322.7 282.4 322.6 L282.3 322.6 282.55 323.2 282.25 323.8 281.65 324.05 Q281.25 324.05 281.0 323.8 L280.75 323.2 Q280.75 322.8 281.0 322.55 L281.3 322.35 281.2 322.3 281.35 322.1 282.05 322.2 Q283.3 322.3 284.5 321.6 285.7 320.95 286.15 319.9 286.65 318.85 286.05 318.1 285.45 317.3 284.25 317.2 L284.15 317.2 284.4 317.4 284.65 318.0" fill="#ffdd54" fill-rule="evenodd" stroke="none"/>
    <path d="M270.25 318.0 Q270.25 317.65 270.55 317.4 L270.75 317.2 270.65 317.2 Q269.45 317.3 268.9 318.1 268.3 318.85 268.75 319.9 269.2 320.95 270.4 321.6 271.65 322.3 272.85 322.2 L273.6 322.1 273.7 322.3 273.6 322.35 273.9 322.55 274.2 323.2 273.9 323.8 273.3 324.05 272.65 323.8 272.4 323.2 272.65 322.6 272.55 322.6 Q271.05 322.7 269.6 321.9 268.1 321.05 267.6 319.85 267.05 318.6 267.75 317.6 268.45 316.6 269.95 316.5 L271.8 316.8 271.85 317.3 271.65 317.25 271.8 317.4 272.05 318.0 271.8 318.65 271.15 318.9 270.55 318.65 Q270.25 318.4 270.25 318.0" fill="#ffdd54" fill-rule="evenodd" stroke="none"/>
    <path d="M73.55 314.8 Q73.4 319.4 71.55 322.1 70.25 324.0 68.5 324.4 67.9 327.05 68.5 329.4 69.75 329.6 71.0 330.45 L71.0 331.05 64.15 331.05 64.15 330.45 Q65.45 329.65 66.7 329.4 67.35 327.15 66.7 324.5 64.75 324.2 63.35 322.1 61.45 319.4 61.3 314.8 L73.55 314.8" fill="#ffdd54" fill-rule="evenodd" stroke="none"/>
    <path d="M74.65 318.0 L74.4 318.65 73.75 318.9 73.1 318.65 72.85 318.0 Q72.85 317.65 73.1 317.4 L73.3 317.25 73.05 317.3 73.1 316.8 75.0 316.5 Q76.45 316.6 77.15 317.6 77.85 318.6 77.35 319.85 76.8 321.05 75.35 321.9 73.9 322.7 72.4 322.6 L72.3 322.6 72.55 323.2 72.25 323.8 71.65 324.05 71.0 323.8 70.75 323.2 Q70.75 322.8 71.0 322.55 L71.3 322.35 71.2 322.3 71.35 322.1 72.05 322.2 Q73.3 322.3 74.5 321.6 75.7 320.95 76.15 319.9 76.65 318.85 76.05 318.1 75.45 317.3 74.25 317.2 L74.15 317.2 74.4 317.4 74.65 318.0" fill="#ffdd54" fill-rule="evenodd" stroke="none"/>
    <path d="M60.25 318.0 Q60.25 317.65 60.55 317.4 L60.75 317.2 60.65 317.2 Q59.45 317.3 58.9 318.1 58.3 318.85 58.75 319.9 59.2 320.95 60.4 321.6 61.65 322.3 62.85 322.2 L63.6 322.1 63.7 322.3 63.6 322.35 63.9 322.55 64.2 323.2 63.9 323.8 63.3 324.05 62.65 323.8 62.4 323.2 62.65 322.6 62.55 322.6 Q61.05 322.7 59.6 321.9 58.1 321.05 57.6 319.85 57.05 318.6 57.75 317.6 58.45 316.6 59.95 316.5 L61.8 316.8 61.85 317.3 61.65 317.25 61.8 317.4 62.05 318.0 61.8 318.65 61.15 318.9 60.55 318.65 Q60.25 318.4 60.25 318.0" fill="#ffdd54" fill-rule="evenodd" stroke="none"/>
    <path d="M492.55 314.8 Q492.4 319.4 490.55 322.1 489.25 324.0 487.5 324.4 486.9 327.05 487.5 329.4 488.75 329.6 490.0 330.45 L490.0 331.05 483.15 331.05 483.15 330.45 Q484.45 329.65 485.7 329.4 486.35 327.15 485.7 324.5 483.75 324.2 482.35 322.1 480.45 319.4 480.3 314.8 L492.55 314.8" fill="#ffdd54" fill-rule="evenodd" stroke="none"/>
    <path d="M493.65 318.0 L493.4 318.65 492.75 318.9 492.1 318.65 491.85 318.0 Q491.85 317.65 492.1 317.4 L492.3 317.25 492.05 317.3 492.1 316.8 494.0 316.5 Q495.45 316.6 496.15 317.6 496.85 318.6 496.35 319.85 495.8 321.05 494.35 321.9 492.9 322.7 491.4 322.6 L491.3 322.6 491.55 323.2 491.25 323.8 490.65 324.05 490.0 323.8 489.75 323.2 Q489.75 322.8 490.0 322.55 L490.3 322.35 490.2 322.3 490.35 322.1 491.05 322.2 Q492.3 322.3 493.5 321.6 494.7 320.95 495.15 319.9 495.65 318.85 495.05 318.1 494.45 317.3 493.25 317.2 L493.15 317.2 493.4 317.4 493.65 318.0" fill="#ffdd54" fill-rule="evenodd" stroke="none"/>
    <path d="M479.25 318.0 Q479.25 317.65 479.55 317.4 L479.75 317.2 479.65 317.2 Q478.45 317.3 477.9 318.1 477.3 318.85 477.75 319.9 478.2 320.95 479.4 321.6 480.65 322.3 481.85 322.2 L482.6 322.1 482.7 322.3 482.6 322.35 482.9 322.55 483.2 323.2 482.9 323.8 482.3 324.05 481.65 323.8 481.4 323.2 Q481.4 322.85 481.65 322.6 L481.55 322.6 Q480.05 322.7 478.6 321.9 477.1 321.05 476.6 319.85 476.05 318.6 476.75 317.6 477.45 316.6 478.95 316.5 L480.8 316.8 480.85 317.3 480.65 317.25 480.8 317.4 481.05 318.0 480.8 318.65 480.15 318.9 479.55 318.65 Q479.25 318.4 479.25 318.0" fill="#ffdd54" fill-rule="evenodd" stroke="none"/>
    <path d="M632.95 -37.5 L16.0 -37.5 16.0 -66.6 632.95 -66.6 632.95 -37.5 M545.45 -102.05 L545.45 -70.05 85.45 -70.05 85.45 -102.05 545.45 -102.05" fill="url(#gradient7)" fill-rule="evenodd" stroke="none"/>
    <path d="M236.0 13.0 L416.0 13.0 416.0 192.95 236.0 192.95 236.0 13.0" fill="url(#gradient8)" fill-rule="evenodd" stroke="none"/>
    <path d="M236.0 13.0 L416.0 13.0 416.0 192.95 236.0 192.95 236.0 13.0 Z" fill="none" stroke="url(#gradient9)" stroke-linecap="round" stroke-linejoin="miter" stroke-width="4.0"/>
  </g>
  <defs>
    <linearGradient gradientTransform="matrix(0.3268, 0.0, 0.0, 0.0136, 326.25, -56.05)" gradientUnits="userSpaceOnUse" id="gradient0" spreadMethod="pad" x1="-819.2" x2="819.2">
      <stop offset="0.0" stop-color="#6d0000" stop-opacity="0.0"/>
      <stop offset="0.43529411764705883" stop-color="#b60000" stop-opacity="0.6509804"/>
      <stop offset="0.615686274509804" stop-color="#af0000" stop-opacity="0.6509804"/>
      <stop offset="1.0" stop-color="#770000" stop-opacity="0.0"/>
    </linearGradient>
    <linearGradient gradientTransform="matrix(0.2319, 0.0, 0.0, 0.0136, 326.15, -54.05)" gradientUnits="userSpaceOnUse" id="gradient1" spreadMethod="pad" x1="-819.2" x2="819.2">
      <stop offset="0.0" stop-color="#6d0000" stop-opacity="0.0"/>
      <stop offset="0.43529411764705883" stop-color="#b60000" stop-opacity="0.6509804"/>
      <stop offset="0.615686274509804" stop-color="#af0000" stop-opacity="0.6509804"/>
      <stop offset="1.0" stop-color="#770000" stop-opacity="0.0"/>
    </linearGradient>
    <linearGradient gradientTransform="matrix(0.0, -0.0281, 0.0284, 0.0, 326.15, 324.25)" gradientUnits="userSpaceOnUse" id="gradient2" spreadMethod="pad" x1="-819.2" x2="819.2">
      <stop offset="0.2235294117647059" stop-color="#780000"/>
      <stop offset="1.0" stop-color="#780000" stop-opacity="0.0"/>
    </linearGradient>
    <linearGradient gradientTransform="matrix(0.08, 0.0, 0.0, 0.0304, 420.45, 401.4)" gradientUnits="userSpaceOnUse" id="gradient3" spreadMethod="pad" x1="-819.2" x2="819.2">
      <stop offset="0.0" stop-color="#000000"/>
      <stop offset="1.0" stop-color="#ea1515"/>
    </linearGradient>
    <linearGradient gradientTransform="matrix(0.018, -0.0235, 0.0246, 0.0188, 412.15, 393.6)" gradientUnits="userSpaceOnUse" id="gradient4" spreadMethod="pad" x1="-819.2" x2="819.2">
      <stop offset="0.0" stop-color="#210000"/>
      <stop offset="1.0" stop-color="#f74141"/>
    </linearGradient>
    <linearGradient gradientTransform="matrix(0.08, 0.0, 0.0, 0.0304, 212.45, 401.4)" gradientUnits="userSpaceOnUse" id="gradient5" spreadMethod="pad" x1="-819.2" x2="819.2">
      <stop offset="0.0" stop-color="#000000"/>
      <stop offset="1.0" stop-color="#ea1515"/>
    </linearGradient>
    <linearGradient gradientTransform="matrix(0.018, -0.0235, 0.0246, 0.0188, 204.15, 393.6)" gradientUnits="userSpaceOnUse" id="gradient6" spreadMethod="pad" x1="-819.2" x2="819.2">
      <stop offset="0.0" stop-color="#210000"/>
      <stop offset="1.0" stop-color="#f74141"/>
    </linearGradient>
    <radialGradient cx="0" cy="0" gradientTransform="matrix(0.0898, 0.0, 0.0, 0.1005, 334.45, -73.05)" gradientUnits="userSpaceOnUse" id="gradient7" r="819.2" spreadMethod="pad">
      <stop offset="0.0" stop-color="#b60000"/>
      <stop offset="1.0" stop-color="#770000" stop-opacity="0.0"/>
    </radialGradient>
    <linearGradient gradientTransform="matrix(0.1099, 0.0, 0.0, 0.1098, 326.0, 103.0)" gradientUnits="userSpaceOnUse" id="gradient8" spreadMethod="pad" x1="-819.2" x2="819.2">
      <stop offset="0.0" stop-color="#000000"/>
      <stop offset="1.0" stop-color="#cc0000"/>
    </linearGradient>
    <linearGradient gradientTransform="matrix(-0.0597, -0.1221, 0.1007, -0.0493, 345.95, 133.0)" gradientUnits="userSpaceOnUse" id="gradient9" spreadMethod="pad" x1="-819.2" x2="819.2">
      <stop offset="0.0" stop-color="#000000"/>
      <stop offset="1.0" stop-color="#0099ff"/>
    </linearGradient>
  </defs>
</svg>
