<?xml version="1.0" encoding="UTF-8" standalone="no"?>
<svg xmlns:xlink="http://www.w3.org/1999/xlink" height="182.5px" width="182.5px" xmlns="http://www.w3.org/2000/svg">
  <g transform="matrix(1.0, 0.0, 0.0, 1.0, 1.5, -3.5)">
    <path d="M26.0 97.0 L25.75 129.0 34.5 130.5 36.0 129.5 108.0 142.5 108.0 144.0 117.5 145.25 124.5 141.25 124.75 138.5 144.5 125.5 145.75 125.5 152.5 120.75 152.5 96.75 172.25 83.5 171.75 75.25 165.5 69.75 135.75 89.75 97.5 82.75 94.5 90.0 95.25 98.5 129.25 104.25 122.75 107.75 124.5 108.5 117.25 113.0 107.25 111.5 108.5 111.0 36.25 97.75 34.25 98.5 26.0 97.0 M-1.5 3.5 L181.0 3.5 181.0 186.0 -1.5 186.0 -1.5 3.5 M5.75 74.25 L6.0 82.0 38.0 87.0 38.0 88.75 48.5 90.0 48.0 83.25 50.0 74.5 12.75 67.0 5.75 74.25" fill="#0000ff" fill-rule="evenodd" stroke="none"/>
  </g>
</svg>
