<?xml version="1.0" encoding="UTF-8" standalone="no"?>
<svg xmlns:xlink="http://www.w3.org/1999/xlink" height="16.25px" width="20.2px" xmlns="http://www.w3.org/2000/svg">
  <g transform="matrix(1.0, 0.0, 0.0, 1.0, -265.35, 93.15)">
    <path d="M281.55 -93.15 Q281.4 -88.55 279.55 -85.85 278.25 -83.95 276.5 -83.55 275.9 -80.9 276.5 -78.55 277.75 -78.35 279.0 -77.5 L279.0 -76.9 272.15 -76.9 272.15 -77.5 Q273.45 -78.3 274.7 -78.55 275.35 -80.8 274.7 -83.45 272.75 -83.75 271.35 -85.85 269.45 -88.55 269.3 -93.15 L281.55 -93.15" fill="#ffdd54" fill-rule="evenodd" stroke="none"/>
    <path d="M282.65 -89.95 L282.4 -89.3 281.75 -89.05 Q281.4 -89.05 281.1 -89.3 280.85 -89.55 280.85 -89.95 L281.1 -90.55 281.3 -90.7 281.05 -90.65 281.1 -91.15 283.0 -91.45 Q284.45 -91.35 285.15 -90.35 285.85 -89.35 285.35 -88.1 284.8 -86.9 283.35 -86.05 281.9 -85.25 280.4 -85.35 L280.3 -85.35 280.55 -84.75 280.25 -84.15 Q280.0 -83.9 279.65 -83.9 279.25 -83.9 279.0 -84.15 278.75 -84.4 278.75 -84.75 278.75 -85.15 279.0 -85.4 L279.3 -85.6 279.2 -85.65 279.35 -85.85 280.05 -85.75 Q281.3 -85.65 282.5 -86.35 283.7 -87.0 284.15 -88.05 284.65 -89.1 284.05 -89.85 283.45 -90.65 282.25 -90.75 L282.15 -90.75 282.4 -90.55 282.65 -89.95" fill="#ffdd54" fill-rule="evenodd" stroke="none"/>
    <path d="M268.25 -89.95 Q268.25 -90.3 268.55 -90.55 L268.75 -90.75 268.65 -90.75 Q267.45 -90.65 266.9 -89.85 266.3 -89.1 266.75 -88.05 267.2 -87.0 268.4 -86.35 269.65 -85.65 270.85 -85.75 L271.6 -85.85 271.7 -85.65 271.6 -85.6 271.9 -85.4 272.2 -84.75 271.9 -84.15 271.3 -83.9 Q270.9 -83.9 270.65 -84.15 270.4 -84.4 270.4 -84.75 L270.65 -85.35 270.55 -85.35 Q269.05 -85.25 267.6 -86.05 266.1 -86.9 265.6 -88.1 265.05 -89.35 265.75 -90.35 266.45 -91.35 267.95 -91.45 L269.8 -91.15 269.85 -90.65 269.65 -90.7 269.8 -90.55 270.05 -89.95 269.8 -89.3 Q269.55 -89.05 269.15 -89.05 268.8 -89.05 268.55 -89.3 268.25 -89.55 268.25 -89.95" fill="#ffdd54" fill-rule="evenodd" stroke="none"/>
  </g>
</svg>
