<?xml version="1.0" encoding="UTF-8" standalone="no"?>
<svg xmlns:xlink="http://www.w3.org/1999/xlink" height="155.6px" width="380.55px" xmlns="http://www.w3.org/2000/svg">
  <g transform="matrix(1.0, 0.0, 0.0, 1.0, 30.4, -182.05)">
    <path d="M350.15 186.55 L-30.4 186.55 -30.4 182.9 350.15 182.9 350.15 186.55 M350.15 193.8 L-30.4 193.8 -30.4 190.15 350.15 190.15 350.15 193.8 M350.15 224.4 L-30.4 224.4 -30.4 220.75 350.15 220.75 350.15 224.4 M350.15 246.8 L-30.4 246.8 -30.4 243.15 350.15 243.15 350.15 246.8 M350.15 232.35 L-30.4 232.35 -30.4 228.7 350.15 228.7 350.15 232.35 M350.15 239.55 L-30.4 239.55 -30.4 235.9 350.15 235.9 350.15 239.55 M350.15 217.15 L-30.4 217.15 -30.4 213.5 350.15 213.5 350.15 217.15 M350.15 208.95 L-30.4 208.95 -30.4 205.3 350.15 205.3 350.15 208.95 M350.15 278.1 L-30.4 278.1 -30.4 274.45 350.15 274.45 350.15 278.1 M350.15 285.35 L-30.4 285.35 -30.4 281.7 350.15 281.7 350.15 285.35 M350.15 292.6 L-30.4 292.6 -30.4 288.95 350.15 288.95 350.15 292.6 M350.15 270.25 L-30.4 270.25 -30.4 266.6 350.15 266.6 350.15 270.25 M350.15 254.7 L-30.4 254.7 -30.4 251.05 350.15 251.05 350.15 254.7 M350.15 263.0 L-30.4 263.0 -30.4 259.35 350.15 259.35 350.15 263.0 M350.15 322.5 L-30.4 322.5 -30.4 318.85 350.15 318.85 350.15 322.5 M350.15 329.75 L-30.4 329.75 -30.4 326.15 350.15 326.15 350.15 329.75 M350.15 337.65 L-30.4 337.65 -30.4 334.0 350.15 334.0 350.15 337.65 M350.15 307.4 L-30.4 307.4 -30.4 303.75 350.15 303.75 350.15 307.4 M350.15 315.3 L-30.4 315.3 -30.4 311.65 350.15 311.65 350.15 315.3 M350.15 300.1 L-30.4 300.1 -30.4 296.45 350.15 296.45 350.15 300.1 M350.15 201.1 L-30.4 201.1 -30.4 197.45 350.15 197.45 350.15 201.1" fill="url(#gradient0)" fill-rule="evenodd" stroke="none"/>
    <path d="M263.65 203.0 Q313.9 223.9 313.9 253.55 313.9 283.15 263.65 304.1 213.45 325.0 142.4 325.0 71.4 325.0 21.15 304.1 -29.05 283.15 -29.05 253.55 -29.05 223.9 21.15 203.0 71.4 182.05 142.4 182.05 213.45 182.05 263.65 203.0" fill="url(#gradient1)" fill-rule="evenodd" stroke="none"/>
  </g>
  <defs>
    <radialGradient cx="0" cy="0" gradientTransform="matrix(0.2155, 0.0, 0.0, 0.1268, 150.55, 255.0)" gradientUnits="userSpaceOnUse" id="gradient0" r="819.2" spreadMethod="pad">
      <stop offset="0.0" stop-color="#770000"/>
      <stop offset="1.0" stop-color="#550000" stop-opacity="0.07058824"/>
    </radialGradient>
    <radialGradient cx="0" cy="0" gradientTransform="matrix(0.0011, -0.0867, 0.1893, 0.0027, 142.4, 253.55)" gradientUnits="userSpaceOnUse" id="gradient1" r="819.2" spreadMethod="pad">
      <stop offset="0.23137254901960785" stop-color="#c21414" stop-opacity="0.8"/>
      <stop offset="1.0" stop-color="#c21414" stop-opacity="0.011764706"/>
    </radialGradient>
  </defs>
</svg>
