<?xml version="1.0" encoding="UTF-8" standalone="no"?>
<svg xmlns:xlink="http://www.w3.org/1999/xlink" height="31.0px" width="450.8px" xmlns="http://www.w3.org/2000/svg">
  <g transform="matrix(1.0, 0.0, 0.0, 1.0, 27.55, -4.35)">
    <path d="M423.25 4.35 L393.05 35.35 -27.55 35.35 -27.55 4.35 423.25 4.35" fill="url(#gradient0)" fill-rule="evenodd" stroke="none"/>
    <path d="M17.45 22.25 L18.45 28.15 13.15 25.35 7.85 28.15 8.9 22.25 4.55 18.1 10.5 17.3 13.15 11.9 15.8 17.3 21.75 18.1 17.45 22.25" fill="#000000" fill-opacity="0.2" fill-rule="evenodd" stroke="none"/>
    <path d="M37.2 22.25 L38.2 28.15 32.9 25.35 27.6 28.15 28.65 22.25 24.35 18.1 30.25 17.3 32.9 11.9 35.55 17.3 41.5 18.1 37.2 22.25" fill="#000000" fill-opacity="0.2" fill-rule="evenodd" stroke="none"/>
    <path d="M56.65 22.25 L57.65 28.15 52.35 25.35 47.05 28.15 48.1 22.25 43.75 18.1 49.7 17.3 52.35 11.9 55.0 17.3 60.95 18.1 56.65 22.25" fill="#000000" fill-opacity="0.2" fill-rule="evenodd" stroke="none"/>
  </g>
  <defs>
    <linearGradient gradientTransform="matrix(0.4786, -0.015, -0.0014, -0.0455, 17.85, 32.95)" gradientUnits="userSpaceOnUse" id="gradient0" spreadMethod="pad" x1="-819.2" x2="819.2">
      <stop offset="0.0" stop-color="#ff0000"/>
      <stop offset="1.0" stop-color="#ff0000" stop-opacity="0.0"/>
    </linearGradient>
  </defs>
</svg>
