<?xml version="1.0" encoding="UTF-8" standalone="no"?>
<svg xmlns:xlink="http://www.w3.org/1999/xlink" height="111.1px" width="111.1px" xmlns="http://www.w3.org/2000/svg">
  <g transform="matrix(1.0, 0.0, 0.0, 1.0, 3.5, 3.5)">
    <path d="M86.4 86.4 Q72.15 100.6 52.05 100.6 31.95 100.6 17.75 86.4 3.5 72.15 3.5 52.05 3.5 31.95 17.75 17.75 31.95 3.5 52.05 3.5 72.15 3.5 86.4 17.75 100.6 31.95 100.6 52.05 100.6 72.15 86.4 86.4" fill="url(#gradient0)" fill-rule="evenodd" stroke="none"/>
    <path d="M52.05 107.6 Q29.05 107.6 12.8 91.35 -3.5 75.05 -3.5 52.05 -3.5 29.05 12.8 12.8 29.05 -3.5 52.05 -3.5 75.05 -3.5 91.35 12.8 107.6 29.05 107.6 52.05 107.6 75.05 91.35 91.35 75.05 107.6 52.05 107.6 M86.4 86.4 Q100.6 72.15 100.6 52.05 100.6 31.95 86.4 17.75 72.15 3.5 52.05 3.5 31.95 3.5 17.75 17.75 3.5 31.95 3.5 52.05 3.5 72.15 17.75 86.4 31.95 100.6 52.05 100.6 72.15 100.6 86.4 86.4" fill="#a2c0c7" fill-rule="evenodd" stroke="none"/>
  </g>
  <defs>
    <radialGradient cx="0" cy="0" gradientTransform="matrix(0.0639, 0.0, 0.0, 0.0639, 52.05, 52.05)" gradientUnits="userSpaceOnUse" id="gradient0" r="819.2" spreadMethod="pad">
      <stop offset="0.0" stop-color="#00409a"/>
      <stop offset="1.0" stop-color="#0098ff"/>
    </radialGradient>
  </defs>
</svg>
