<?xml version="1.0" encoding="UTF-8" standalone="no"?>
<svg xmlns:xlink="http://www.w3.org/1999/xlink" height="23.2px" width="67.05px" xmlns="http://www.w3.org/2000/svg">
  <g transform="matrix(1.0, 0.0, 0.0, 1.0, 33.55, -34.55)">
    <path d="M31.75 52.85 L31.4 53.8 Q30.9 54.15 30.45 54.15 29.75 54.05 29.4 53.7 28.9 53.35 28.9 52.75 28.9 52.15 29.4 51.8 29.75 51.3 30.45 51.45 30.9 51.45 31.4 51.9 31.75 52.25 31.75 52.85" fill="url(#gradient0)" fill-rule="evenodd" stroke="none"/>
    <path d="M32.1 55.0 Q32.7 55.0 33.2 55.35 L33.5 56.45 33.2 57.35 Q32.7 57.75 32.1 57.75 31.5 57.75 31.15 57.35 30.7 56.9 30.7 56.45 30.7 55.85 31.15 55.35 31.5 55.0 32.1 55.0" fill="url(#gradient1)" fill-rule="evenodd" stroke="none"/>
    <path d="M26.2 53.45 Q25.45 53.35 25.1 52.95 24.6 52.65 24.6 52.05 24.6 51.45 25.1 51.1 25.45 50.6 26.2 50.75 26.65 50.75 27.1 51.2 27.5 51.55 27.5 52.15 27.5 52.75 27.1 53.1 L26.2 53.45" fill="url(#gradient2)" fill-rule="evenodd" stroke="none"/>
    <path d="M27.85 54.25 Q28.4 54.25 28.9 54.65 29.25 55.1 29.25 55.7 L28.9 56.65 27.85 57.0 Q27.25 57.0 26.9 56.65 26.4 56.15 26.4 55.7 26.4 55.1 26.9 54.65 27.25 54.25 27.85 54.25" fill="url(#gradient3)" fill-rule="evenodd" stroke="none"/>
    <path d="M22.7 50.35 Q23.1 50.75 23.1 51.45 L22.7 52.4 21.8 52.65 Q21.2 52.65 20.85 52.25 20.35 51.8 20.35 51.3 20.35 50.6 20.85 50.25 21.2 49.8 21.8 49.8 22.4 49.9 22.7 50.35" fill="url(#gradient4)" fill-rule="evenodd" stroke="none"/>
    <path d="M22.4 53.8 Q22.7 53.35 23.45 53.35 23.9 53.35 24.4 53.8 24.75 54.15 24.75 54.85 L24.4 55.85 23.45 56.15 22.4 55.85 Q22.0 55.35 22.0 54.85 22.0 54.15 22.4 53.8" fill="url(#gradient5)" fill-rule="evenodd" stroke="none"/>
    <path d="M17.65 53.8 Q17.65 53.1 18.1 52.85 18.45 52.5 19.2 52.5 19.65 52.5 20.1 52.85 20.5 53.2 20.5 53.95 20.5 54.4 20.1 54.85 19.65 55.25 19.2 55.25 18.45 55.25 18.1 54.85 17.65 54.25 17.65 53.8" fill="url(#gradient6)" fill-rule="evenodd" stroke="none"/>
    <path d="M-25.75 35.65 Q-25.4 35.65 -25.05 36.15 L-22.45 41.5 Q-22.2 42.2 -22.35 42.4 L-22.95 43.15 -23.75 43.25 -24.45 42.65 -27.05 37.3 Q-27.45 36.85 -27.2 36.5 -27.2 35.9 -26.75 35.8 L-25.75 35.65" fill="url(#gradient7)" fill-rule="evenodd" stroke="none"/>
    <path d="M-32.05 34.6 Q-31.7 34.6 -31.35 35.1 L-28.75 40.4 Q-28.5 41.1 -28.65 41.35 L-29.2 42.1 -30.05 42.2 -30.75 41.6 -33.35 36.25 Q-33.7 35.8 -33.5 35.4 -33.5 34.85 -33.0 34.7 L-32.05 34.6" fill="url(#gradient8)" fill-rule="evenodd" stroke="none"/>
    <path d="M-20.9 38.3 Q-21.25 37.8 -21.05 37.45 -21.05 36.85 -20.55 36.7 L-19.6 36.6 -18.9 37.1 -16.3 42.4 Q-16.05 43.15 -16.15 43.4 L-16.75 44.1 -17.6 44.2 -18.3 43.6 -20.9 38.3" fill="url(#gradient9)" fill-rule="evenodd" stroke="none"/>
    <path d="M-13.2 37.8 Q-12.85 37.8 -12.5 38.3 L-9.9 43.6 Q-9.65 44.3 -9.75 44.55 L-10.35 45.3 -11.2 45.4 -11.9 44.8 -14.5 39.45 Q-14.85 39.0 -14.6 38.6 -14.6 38.05 -14.15 37.9 L-13.2 37.8" fill="url(#gradient10)" fill-rule="evenodd" stroke="none"/>
  </g>
  <defs>
    <radialGradient cx="0" cy="0" fx="435.20000000000005" fy="0" gradientTransform="matrix(0.0049, -0.0026, 0.0013, 0.0022, 30.55, 52.25)" gradientUnits="userSpaceOnUse" id="gradient0" r="819.2" spreadMethod="pad">
      <stop offset="0.0" stop-color="#000000"/>
      <stop offset="0.984313725490196" stop-color="#000000" stop-opacity="0.0"/>
    </radialGradient>
    <radialGradient cx="0" cy="0" fx="435.20000000000005" fy="0" gradientTransform="matrix(0.0049, -0.0026, 0.0013, 0.0022, 32.35, 55.85)" gradientUnits="userSpaceOnUse" id="gradient1" r="819.2" spreadMethod="pad">
      <stop offset="0.0" stop-color="#000000"/>
      <stop offset="0.984313725490196" stop-color="#000000" stop-opacity="0.0"/>
    </radialGradient>
    <radialGradient cx="0" cy="0" fx="435.20000000000005" fy="0" gradientTransform="matrix(0.0049, -0.0026, 0.0013, 0.0022, 26.3, 51.55)" gradientUnits="userSpaceOnUse" id="gradient2" r="819.2" spreadMethod="pad">
      <stop offset="0.0" stop-color="#000000"/>
      <stop offset="0.984313725490196" stop-color="#000000" stop-opacity="0.0"/>
    </radialGradient>
    <radialGradient cx="0" cy="0" fx="435.20000000000005" fy="0" gradientTransform="matrix(0.0049, -0.0026, 0.0013, 0.0022, 28.1, 55.1)" gradientUnits="userSpaceOnUse" id="gradient3" r="819.2" spreadMethod="pad">
      <stop offset="0.0" stop-color="#000000"/>
      <stop offset="0.984313725490196" stop-color="#000000" stop-opacity="0.0"/>
    </radialGradient>
    <radialGradient cx="0" cy="0" fx="435.20000000000005" fy="0" gradientTransform="matrix(0.0049, -0.0026, 0.0013, 0.0022, 22.0, 50.85)" gradientUnits="userSpaceOnUse" id="gradient4" r="819.2" spreadMethod="pad">
      <stop offset="0.0" stop-color="#000000"/>
      <stop offset="0.984313725490196" stop-color="#000000" stop-opacity="0.0"/>
    </radialGradient>
    <radialGradient cx="0" cy="0" fx="435.20000000000005" fy="0" gradientTransform="matrix(0.0049, -0.0026, 0.0013, 0.0022, 23.55, 54.25)" gradientUnits="userSpaceOnUse" id="gradient5" r="819.2" spreadMethod="pad">
      <stop offset="0.0" stop-color="#000000"/>
      <stop offset="0.984313725490196" stop-color="#000000" stop-opacity="0.0"/>
    </radialGradient>
    <radialGradient cx="0" cy="0" fx="435.20000000000005" fy="0" gradientTransform="matrix(0.0049, -0.0026, 0.0013, 0.0022, 19.3, 53.35)" gradientUnits="userSpaceOnUse" id="gradient6" r="819.2" spreadMethod="pad">
      <stop offset="0.0" stop-color="#000000"/>
      <stop offset="0.984313725490196" stop-color="#000000" stop-opacity="0.0"/>
    </radialGradient>
    <linearGradient gradientTransform="matrix(-0.0014, 6.0E-4, -0.0021, -0.0045, -24.7, 39.8)" gradientUnits="userSpaceOnUse" id="gradient7" spreadMethod="pad" x1="-819.2" x2="819.2">
      <stop offset="0.0" stop-color="#000000"/>
      <stop offset="1.0" stop-color="#4f4f4f"/>
    </linearGradient>
    <linearGradient gradientTransform="matrix(-0.0026, 0.0015, -0.0023, -0.004, -31.1, 38.4)" gradientUnits="userSpaceOnUse" id="gradient8" spreadMethod="pad" x1="-819.2" x2="819.2">
      <stop offset="0.0" stop-color="#000000"/>
      <stop offset="1.0" stop-color="#4f4f4f"/>
    </linearGradient>
    <linearGradient gradientTransform="matrix(-0.002, 9.0E-4, -0.0021, -0.0045, -18.65, 40.3)" gradientUnits="userSpaceOnUse" id="gradient9" spreadMethod="pad" x1="-819.2" x2="819.2">
      <stop offset="0.0" stop-color="#000000"/>
      <stop offset="1.0" stop-color="#4f4f4f"/>
    </linearGradient>
    <linearGradient gradientTransform="matrix(-0.0022, 0.0011, -0.0022, -0.0045, -11.8, 41.5)" gradientUnits="userSpaceOnUse" id="gradient10" spreadMethod="pad" x1="-819.2" x2="819.2">
      <stop offset="0.0" stop-color="#000000"/>
      <stop offset="1.0" stop-color="#4f4f4f"/>
    </linearGradient>
  </defs>
</svg>
