<?xml version="1.0" encoding="UTF-8" standalone="no"?>
<svg xmlns:xlink="http://www.w3.org/1999/xlink" height="244.3px" width="232.85px" xmlns="http://www.w3.org/2000/svg">
  <g transform="matrix(1.0, 0.0, 0.0, 1.0, -273.1, -198.75)">
    <path d="M451.8 198.75 L451.8 443.05 449.1 443.05 449.1 198.75 451.8 198.75 M484.9 198.75 L484.9 443.05 482.25 443.05 482.25 198.75 484.9 198.75 M479.4 198.75 L479.4 443.05 476.75 443.05 476.75 198.75 479.4 198.75 M473.85 198.75 L473.85 443.05 471.25 443.05 471.25 198.75 473.85 198.75 M468.4 198.75 L468.4 443.05 465.7 443.05 465.7 198.75 468.4 198.75 M462.85 198.75 L462.85 443.05 460.15 443.05 460.15 198.75 462.85 198.75 M457.3 198.75 L457.3 443.05 454.65 443.05 454.65 198.75 457.3 198.75 M440.75 198.75 L440.75 443.05 438.1 443.05 438.1 198.75 440.75 198.75 M429.7 198.75 L429.7 443.05 427.05 443.05 427.05 198.75 429.7 198.75 M435.25 198.75 L435.25 443.05 432.55 443.05 432.55 198.75 435.25 198.75 M418.7 198.75 L418.7 443.05 416.0 443.05 416.0 198.75 418.7 198.75 M424.2 198.75 L424.2 443.05 421.55 443.05 421.55 198.75 424.2 198.75 M413.15 198.75 L413.15 443.05 410.45 443.05 410.45 198.75 413.15 198.75 M446.3 198.75 L446.3 443.05 443.6 443.05 443.6 198.75 446.3 198.75 M378.0 443.05 L378.0 198.75 379.95 198.75 379.95 443.05 378.0 443.05 M402.1 198.75 L402.1 443.05 399.45 443.05 399.45 198.75 402.1 198.75 M396.6 198.75 L396.6 443.05 393.9 443.05 393.9 198.75 396.6 198.75 M385.5 198.75 L385.5 443.05 382.85 443.05 382.85 198.75 385.5 198.75 M391.1 198.75 L391.1 443.05 388.4 443.05 388.4 198.75 391.1 198.75 M369.65 198.75 L369.65 443.05 366.95 443.05 366.95 198.75 369.65 198.75 M375.15 198.75 L375.15 443.05 372.5 443.05 372.5 198.75 375.15 198.75 M342.05 198.75 L342.05 443.05 339.4 443.05 339.4 198.75 342.05 198.75 M353.05 198.75 L353.05 443.05 350.45 443.05 350.45 198.75 353.05 198.75 M347.55 198.75 L347.55 443.05 344.85 443.05 344.85 198.75 347.55 198.75 M358.6 198.75 L358.6 443.05 355.9 443.05 355.9 198.75 358.6 198.75 M364.15 198.75 L364.15 443.05 361.4 443.05 361.4 198.75 364.15 198.75 M330.95 198.75 L330.95 443.05 328.25 443.05 328.25 198.75 330.95 198.75 M336.45 198.75 L336.45 443.05 333.85 443.05 333.85 198.75 336.45 198.75 M407.65 198.75 L407.65 443.05 404.95 443.05 404.95 198.75 407.65 198.75 M501.45 198.75 L501.45 443.05 498.85 443.05 498.85 198.75 501.45 198.75 M490.4 198.75 L490.4 443.05 487.8 443.05 487.8 198.75 490.4 198.75 M495.95 198.75 L495.95 443.05 493.25 443.05 493.25 198.75 495.95 198.75 M504.4 443.05 L504.4 198.75 505.95 198.75 505.95 443.05 504.4 443.05 M314.4 198.75 L314.4 443.05 311.75 443.05 311.75 198.75 314.4 198.75 M319.9 198.75 L319.9 443.05 317.25 443.05 317.25 198.75 319.9 198.75 M297.85 198.75 L297.85 443.05 295.15 443.05 295.15 198.75 297.85 198.75 M303.4 198.75 L303.4 443.05 300.7 443.05 300.7 198.75 303.4 198.75 M308.85 198.75 L308.85 443.05 306.25 443.05 306.25 198.75 308.85 198.75 M286.8 198.75 L286.8 443.05 284.1 443.05 284.1 198.75 286.8 198.75 M292.3 198.75 L292.3 443.05 289.65 443.05 289.65 198.75 292.3 198.75 M275.75 198.75 L275.75 443.05 273.1 443.05 273.1 198.75 275.75 198.75 M281.3 198.75 L281.3 443.05 278.6 443.05 278.6 198.75 281.3 198.75 M325.4 198.75 L325.4 443.05 322.8 443.05 322.8 198.75 325.4 198.75" fill="#000000" fill-opacity="0.47843137" fill-rule="evenodd" stroke="none"/>
  </g>
</svg>
