<?xml version="1.0" encoding="UTF-8" standalone="no"?>
<svg xmlns:xlink="http://www.w3.org/1999/xlink" height="152.85px" width="231.6px" xmlns="http://www.w3.org/2000/svg">
  <g transform="matrix(1.0, 0.0, 0.0, 1.0, -39.85, -52.8)">
    <path d="M210.95 203.1 L207.3 205.5 207.3 205.65 201.95 204.8 201.95 204.75 189.95 202.75 189.95 202.5 189.95 201.65 189.95 201.15 164.2 196.5 139.5 192.05 137.95 192.65 137.35 192.65 109.1 187.45 109.1 186.6 57.7 177.5 56.1 178.35 48.0 176.9 44.0 176.15 44.0 176.2 40.0 175.35 39.85 175.35 39.85 117.5 40.35 117.5 40.15 117.4 46.4 113.05 46.4 102.0 51.75 96.6 51.75 96.5 51.9 96.5 58.4 89.9 79.05 75.8 79.25 75.7 81.55 74.15 90.3 68.1 91.35 66.7 92.15 66.85 112.7 52.8 151.6 59.8 161.55 61.6 165.85 58.6 185.2 61.8 185.45 62.5 185.8 62.25 193.0 63.55 204.85 65.65 206.25 69.9 219.35 72.3 221.5 72.65 224.65 73.25 227.0 73.65 230.65 74.3 230.85 74.35 254.35 78.55 266.3 88.7 266.4 88.85 266.15 103.15 271.45 104.05 271.45 133.05 271.45 161.4 269.2 162.9 266.95 164.4 266.95 164.35 259.55 169.15 258.25 168.65 257.95 168.8 257.0 169.65 256.85 169.65 220.75 194.15 220.75 196.4 220.6 196.5 210.95 203.05 210.95 203.1 M139.05 76.9 L138.7 77.1 138.6 77.2 139.05 76.9" fill="#ffffff" fill-rule="evenodd" stroke="none"/>
  </g>
</svg>
