<?xml version="1.0" encoding="UTF-8" standalone="no"?>
<svg xmlns:xlink="http://www.w3.org/1999/xlink" height="35.15px" width="39.65px" xmlns="http://www.w3.org/2000/svg">
  <g transform="matrix(1.0, 0.0, 0.0, 1.0, -2.25, 6.5)">
    <path d="M8.55 -4.5 L35.6 -4.5 Q39.9 -4.5 39.9 -0.15 L39.9 15.05 Q39.9 19.4 35.6 19.4 L8.55 19.4 Q4.25 19.4 4.25 15.05 L4.25 -0.15 Q4.25 -4.5 8.55 -4.5" fill="#000000" fill-rule="evenodd" stroke="none"/>
    <path d="M18.2 22.8 L25.8 22.8 Q26.75 22.8 27.45 23.65 28.1 24.5 28.1 25.7 28.1 26.95 27.45 27.8 26.75 28.65 25.8 28.65 L18.2 28.65 Q17.3 28.65 16.6 27.8 15.95 26.95 15.95 25.7 15.95 24.5 16.6 23.65 17.3 22.8 18.2 22.8" fill="#ca0000" fill-rule="evenodd" stroke="none"/>
    <path d="M8.55 -4.5 L35.6 -4.5 Q39.9 -4.5 39.9 -0.15 L39.9 15.05 Q39.9 19.4 35.6 19.4 L8.55 19.4 Q4.25 19.4 4.25 15.05 L4.25 -0.15 Q4.25 -4.5 8.55 -4.5 Z" fill="none" stroke="#ca0000" stroke-linecap="square" stroke-linejoin="miter" stroke-width="3.0"/>
    <path d="M14.95 2.3 L17.85 -0.6 22.55 4.15 27.25 -0.55 30.15 2.35 25.45 7.0 30.15 11.7 27.2 14.6 22.55 9.9 17.85 14.6 14.95 11.75 19.7 7.0 14.95 2.3" fill="#cc0000" fill-rule="evenodd" stroke="none"/>
  </g>
</svg>
