<?xml version="1.0" encoding="UTF-8" standalone="no"?>
<svg xmlns:xlink="http://www.w3.org/1999/xlink" height="15.0px" width="11.0px" xmlns="http://www.w3.org/2000/svg">
  <g transform="matrix(1.0, 0.0, 0.0, 1.0, 6.0, 2.0)">
    <path d="M1.0 10.9 L1.0 9.9 -0.9 9.9 Q-3.0 9.9 -3.0 7.85 L-3.0 2.0 -3.9 2.0 Q-5.0 2.0 -5.0 3.1 L-5.0 10.9 Q-5.0 12.05 -3.9 12.05 L-0.1 12.05 Q1.0 12.05 1.0 10.9 M-3.0 0.1 Q-3.0 -2.0 -0.9 -2.0 L2.9 -2.0 Q5.0 -2.0 5.0 0.1 L5.0 7.85 Q5.0 9.9 2.9 9.9 L2.0 9.9 2.0 10.9 Q2.0 13.0 -0.1 13.0 L-3.9 13.0 Q-6.0 13.0 -6.0 10.9 L-6.0 3.1 Q-6.0 1.0 -3.9 1.0 L-3.0 1.0 -3.0 0.1 M-2.0 7.85 Q-2.0 8.9 -0.9 8.9 L2.9 8.9 Q4.0 8.9 4.0 7.85 L4.0 0.1 Q4.0 -1.0 2.9 -1.0 L-0.9 -1.0 Q-2.0 -1.0 -2.0 0.1 L-2.0 7.85" fill="#ffffff" fill-rule="evenodd" stroke="none"/>
    <path d="M1.0 10.9 Q1.0 12.05 -0.1 12.05 L-3.9 12.05 Q-5.0 12.05 -5.0 10.9 L-5.0 3.1 Q-5.0 2.0 -3.9 2.0 L-3.0 2.0 -3.0 7.85 Q-3.0 9.9 -0.9 9.9 L1.0 9.9 1.0 10.9 M-2.0 7.85 L-2.0 0.1 Q-2.0 -1.0 -0.9 -1.0 L2.9 -1.0 Q4.0 -1.0 4.0 0.1 L4.0 7.85 Q4.0 8.9 2.9 8.9 L-0.9 8.9 Q-2.0 8.9 -2.0 7.85" fill="#10476d" fill-rule="evenodd" stroke="none"/>
  </g>
</svg>
