<?xml version="1.0" encoding="UTF-8" standalone="no"?>
<svg xmlns:xlink="http://www.w3.org/1999/xlink" height="74.6px" width="439.45px" xmlns="http://www.w3.org/2000/svg">
  <g transform="matrix(1.0, 0.0, 0.0, 1.0, 2.65, 2.65)">
    <path d="M420.9 69.3 L374.05 69.3 68.95 69.3 0.0 69.3 0.0 37.1 0.0 35.25 0.0 12.55 12.55 0.0 68.95 0.0 374.05 0.0 434.15 0.0 434.15 35.25 434.15 37.1 434.15 56.05 420.9 69.3" fill="#1a0000" fill-rule="evenodd" stroke="none"/>
    <path d="M434.8 -0.15 L434.8 1.95 374.05 1.95 68.95 1.95 10.45 1.95 12.35 -0.15 68.95 -0.15 374.05 -0.15 434.8 -0.15 M429.95 60.95 L427.9 63.05 374.05 63.05 68.95 63.05 -0.5 63.05 -0.5 60.95 68.95 60.95 374.05 60.95 429.95 60.95 M425.2 65.7 L423.1 67.8 374.05 67.8 68.95 67.8 -0.5 67.8 -0.5 65.7 68.95 65.7 374.05 65.7 425.2 65.7 M434.8 4.4 L434.8 6.5 374.05 6.5 68.95 6.5 6.2 6.5 8.15 4.4 68.95 4.4 374.05 4.4 434.8 4.4 M434.8 9.15 L434.8 11.25 374.05 11.25 68.95 11.25 2.1 11.25 3.35 9.5 3.7 9.15 68.95 9.15 374.05 9.15 434.8 9.15" fill="#4f0000" fill-rule="evenodd" stroke="none"/>
    <path d="M434.8 13.9 L434.8 16.0 374.05 16.0 68.95 16.0 -0.5 16.0 -0.5 14.55 0.1 13.9 68.95 13.9 374.05 13.9 434.8 13.9 M434.8 57.2 L434.4 57.35 Q433.75 57.75 433.05 58.3 L374.05 58.3 68.95 58.3 -0.5 58.3 -0.5 56.2 68.95 56.2 374.05 56.2 434.8 56.2 434.8 57.2" fill="#480000" fill-rule="evenodd" stroke="none"/>
    <path d="M434.8 18.45 L434.8 20.55 374.05 20.55 68.95 20.55 -0.5 20.55 -0.5 18.45 68.95 18.45 374.05 18.45 434.8 18.45 M434.8 51.65 L434.8 53.75 374.05 53.75 68.95 53.75 -0.5 53.75 -0.5 51.65 68.95 51.65 374.05 51.65 434.8 51.65" fill="#400000" fill-rule="evenodd" stroke="none"/>
    <path d="M434.8 27.95 L434.8 30.05 374.05 30.05 68.95 30.05 -0.5 30.05 -0.5 27.95 68.95 27.95 374.05 27.95 434.8 27.95 M434.8 42.15 L434.8 44.25 374.05 44.25 68.95 44.25 -0.5 44.25 -0.5 42.15 68.95 42.15 374.05 42.15 434.8 42.15" fill="#2b0000" fill-rule="evenodd" stroke="none"/>
    <path d="M434.8 37.6 L434.8 39.7 374.05 39.7 68.95 39.7 -0.5 39.7 -0.5 37.6 68.95 37.6 374.05 37.6 434.8 37.6 M434.8 32.65 L434.8 34.75 374.05 34.75 68.95 34.75 -0.5 34.75 -0.5 32.65 68.95 32.65 374.05 32.65 434.8 32.65" fill="#280000" fill-rule="evenodd" stroke="none"/>
    <path d="M434.8 46.9 L434.8 49.0 374.05 49.0 68.95 49.0 -0.5 49.0 -0.5 46.9 68.95 46.9 374.05 46.9 434.8 46.9 M434.8 23.2 L434.8 25.3 374.05 25.3 68.95 25.3 -0.5 25.3 -0.5 23.2 68.95 23.2 374.05 23.2 434.8 23.2" fill="#370000" fill-rule="evenodd" stroke="none"/>
    <path d="M420.9 69.3 L374.05 69.3 68.95 69.3 0.0 69.3 0.0 37.1 0.0 35.25 0.0 12.55 12.55 0.0 68.95 0.0 374.05 0.0 434.15 0.0 434.15 35.25 434.15 37.1 434.15 56.05 420.9 69.3 Z" fill="none" stroke="#d90000" stroke-linecap="round" stroke-linejoin="round" stroke-width="1.5"/>
    <path d="M0.0 28.25 L0.0 23.45 0.0 12.55 12.55 0.0 57.2 0.0 M434.15 43.75 L434.15 44.2 434.15 56.05 420.9 69.3 389.55 69.3 384.25 69.3" fill="none" stroke="#d90000" stroke-linecap="square" stroke-linejoin="round" stroke-width="4.0"/>
    <path d="M0.0 12.55 L12.55 0.0 57.2 0.0 M0.0 23.45 L0.0 12.55 M0.0 28.25 L0.0 23.45 M434.15 43.75 L434.15 44.2 434.15 56.05 420.9 69.3 389.55 69.3 384.25 69.3" fill="none" stroke="#ff0606" stroke-linecap="square" stroke-linejoin="round" stroke-width="1.0"/>
  </g>
</svg>
