<?xml version="1.0" encoding="UTF-8" standalone="no"?>
<svg xmlns:xlink="http://www.w3.org/1999/xlink" height="209.05px" width="318.65px" xmlns="http://www.w3.org/2000/svg">
  <g transform="matrix(1.0, 0.0, 0.0, 1.0, 31.55, 45.05)">
    <path d="M177.5 59.5 L102.25 67.3 163.5 111.75 94.4 80.9 125.25 150.0 80.8 88.75 73.0 164.0 65.15 88.75 20.7 150.0 51.55 80.9 -17.55 111.75 43.7 67.3 -31.55 59.5 43.7 51.65 -17.55 7.2 51.55 38.05 20.7 -31.05 65.15 30.2 72.95 -45.05 80.8 30.2 125.25 -31.05 94.4 38.05 163.5 7.2 102.25 51.65 177.5 59.5" fill="url(#gradient0)" fill-rule="evenodd" stroke="none"/>
    <path d="M286.1 26.8 L286.1 79.2 76.6 79.2 76.6 26.8 286.1 26.8" fill="url(#gradient1)" fill-rule="evenodd" stroke="none"/>
    <path d="M286.1 26.8 L286.1 79.2 76.6 79.2 76.6 26.8 286.1 26.8 Z" fill="none" stroke="url(#gradient2)" stroke-linecap="round" stroke-linejoin="round" stroke-width="2.0"/>
  </g>
  <defs>
    <radialGradient cx="0" cy="0" gradientTransform="matrix(0.1276, 0.0, 0.0, 0.1276, 73.0, 59.5)" gradientUnits="userSpaceOnUse" id="gradient0" r="819.2" spreadMethod="pad">
      <stop offset="0.20784313725490197" stop-color="#ffffff" stop-opacity="0.6"/>
      <stop offset="0.8941176470588236" stop-color="#ffffff" stop-opacity="0.0"/>
    </radialGradient>
    <linearGradient gradientTransform="matrix(0.1279, 0.0, 0.0, 0.032, 181.35, 53.0)" gradientUnits="userSpaceOnUse" id="gradient1" spreadMethod="pad" x1="-819.2" x2="819.2">
      <stop offset="0.3607843137254902" stop-color="#053759"/>
      <stop offset="1.0" stop-color="#000000"/>
    </linearGradient>
    <linearGradient gradientTransform="matrix(0.1284, 0.0, 0.0, 0.0332, 181.35, 53.0)" gradientUnits="userSpaceOnUse" id="gradient2" spreadMethod="pad" x1="-819.2" x2="819.2">
      <stop offset="0.0" stop-color="#0f94df"/>
      <stop offset="0.9921568627450981" stop-color="#000000"/>
    </linearGradient>
  </defs>
</svg>
