<?xml version="1.0" encoding="UTF-8" standalone="no"?>
<svg xmlns:xlink="http://www.w3.org/1999/xlink" height="22.75px" width="925.1px" xmlns="http://www.w3.org/2000/svg">
  <g transform="matrix(1.0, 0.0, 0.0, 1.0, 461.1, 11.5)">
    <path d="M428.6 2.35 L428.95 2.5 429.1 2.85 428.95 3.2 428.6 3.35 -425.8 3.35 -426.15 3.2 -426.3 2.85 -426.15 2.5 -425.8 2.35 428.6 2.35 M433.3 0.35 L433.65 0.5 433.8 0.85 433.65 1.2 433.3 1.35 -430.2 1.35 -430.55 1.2 -430.7 0.85 -430.55 0.5 Q-430.4 0.35 -430.2 0.35 L433.3 0.35 M418.5 6.3 Q418.7 6.3 418.85 6.45 L419.0 6.8 418.85 7.15 418.5 7.3 -415.55 7.3 -415.9 7.15 -416.05 6.8 -415.9 6.45 Q-415.75 6.3 -415.55 6.3 L418.5 6.3 M423.9 4.3 Q424.1 4.3 424.25 4.45 L424.4 4.8 424.25 5.15 423.9 5.3 -420.8 5.3 -421.15 5.15 -421.3 4.8 -421.15 4.45 Q-421.0 4.3 -420.8 4.3 L423.9 4.3 M413.05 8.25 L413.4 8.4 413.55 8.75 413.4 9.1 413.05 9.25 -410.0 9.25 -410.35 9.1 -410.5 8.75 -410.35 8.4 Q-410.2 8.25 -410.0 8.25 L413.05 8.25 M408.8 10.25 Q409.0 10.25 409.15 10.4 L409.3 10.75 409.15 11.1 408.8 11.25 -405.75 11.25 -406.1 11.1 -406.25 10.75 -406.1 10.4 -405.75 10.25 408.8 10.25 M463.5 -11.5 L463.85 -11.35 464.0 -11.0 463.85 -10.65 463.5 -10.5 -460.6 -10.5 -460.95 -10.65 -461.1 -11.0 -460.95 -11.35 -460.6 -11.5 463.5 -11.5 M458.05 -9.55 L458.4 -9.4 458.55 -9.05 458.4 -8.7 458.05 -8.55 -455.05 -8.55 -455.4 -8.7 -455.55 -9.05 -455.4 -9.4 -455.05 -9.55 458.05 -9.55 M450.6 -7.55 L450.95 -7.4 451.1 -7.05 450.95 -6.7 Q450.8 -6.55 450.6 -6.55 L-454.05 -6.55 -454.4 -6.7 -454.55 -7.05 -454.4 -7.4 -454.05 -7.55 450.6 -7.55 M448.05 -5.6 L448.4 -5.45 448.55 -5.1 448.4 -4.75 Q448.25 -4.6 448.05 -4.6 L-446.55 -4.6 -446.9 -4.75 -447.05 -5.1 -446.9 -5.45 -446.55 -5.6 448.05 -5.6 M443.45 -3.6 L443.8 -3.45 443.95 -3.1 443.8 -2.75 Q443.65 -2.6 443.45 -2.6 L-440.45 -2.6 Q-440.65 -2.6 -440.8 -2.75 L-440.95 -3.1 -440.8 -3.45 -440.45 -3.6 443.45 -3.6 M438.1 -1.6 L438.45 -1.45 438.6 -1.1 438.45 -0.75 438.1 -0.6 -435.05 -0.6 Q-435.25 -0.6 -435.4 -0.75 L-435.55 -1.1 -435.4 -1.45 -435.05 -1.6 438.1 -1.6" fill="#000000" fill-rule="evenodd" stroke="none"/>
  </g>
</svg>
