<?xml version="1.0" encoding="UTF-8" standalone="no"?>
<svg xmlns:xlink="http://www.w3.org/1999/xlink" height="41.0px" width="220.5px" xmlns="http://www.w3.org/2000/svg">
  <g transform="matrix(1.0, 0.0, 0.0, 1.0, 132.3, 13.3)">
    <path d="M-126.8 -12.8 L82.7 -12.8 Q87.7 -12.8 87.7 -7.8 L87.7 22.2 Q87.7 27.2 82.7 27.2 L-126.8 27.2 Q-131.8 27.2 -131.8 22.2 L-131.8 -7.8 Q-131.8 -12.8 -126.8 -12.8" fill="url(#gradient0)" fill-rule="evenodd" stroke="none"/>
    <path d="M-126.8 -12.8 L82.7 -12.8 Q87.7 -12.8 87.7 -7.8 L87.7 22.2 Q87.7 27.2 82.7 27.2 L-126.8 27.2 Q-131.8 27.2 -131.8 22.2 L-131.8 -7.8 Q-131.8 -12.8 -126.8 -12.8 Z" fill="none" stroke="url(#gradient1)" stroke-linecap="round" stroke-linejoin="round" stroke-width="1.0"/>
  </g>
  <defs>
    <linearGradient gradientTransform="matrix(0.0, 0.0373, -0.0244, 0.0, -21.3, 10.95)" gradientUnits="userSpaceOnUse" id="gradient0" spreadMethod="pad" x1="-819.2" x2="819.2">
      <stop offset="0.0" stop-color="#000000"/>
      <stop offset="1.0" stop-color="#0099ff"/>
    </linearGradient>
    <linearGradient gradientTransform="matrix(0.0062, 0.0319, -0.0215, 0.0042, -22.05, 4.7)" gradientUnits="userSpaceOnUse" id="gradient1" spreadMethod="pad" x1="-819.2" x2="819.2">
      <stop offset="0.0" stop-color="#000000"/>
      <stop offset="1.0" stop-color="#0099ff"/>
    </linearGradient>
  </defs>
</svg>
