<?xml version="1.0" encoding="UTF-8" standalone="no"?>
<svg xmlns:xlink="http://www.w3.org/1999/xlink" height="676.35px" width="898.25px" xmlns="http://www.w3.org/2000/svg">
  <g transform="matrix(1.0, 0.0, 0.0, 1.0, 252.05, 181.1)">
    <path d="M646.2 495.25 L-252.05 495.25 -252.05 -181.1 646.2 -181.1 646.2 495.25" fill="#000000" fill-opacity="0.8" fill-rule="evenodd" stroke="none"/>
    <path d="M586.15 376.55 L586.15 396.1 572.5 409.35 -186.0 409.35 -186.0 376.55 -186.0 376.05 -186.0 366.45 -186.0 362.0 -186.0 315.95 -186.0 312.95 -186.0 269.95 -186.0 251.95 -186.0 221.45 -186.0 48.95 -186.0 24.0 -186.0 -16.5 -186.0 -17.5 -186.0 -59.4 -173.05 -71.95 586.15 -71.95 586.15 -17.5 586.15 -16.5 586.15 24.0 586.15 221.45 586.15 251.95 586.15 269.95 586.15 312.95 586.15 315.95 586.15 366.45 586.15 376.05 586.15 376.55" fill="#0f0000" fill-rule="evenodd" stroke="none"/>
    <path d="M584.75 -58.05 L584.75 -55.95 -186.5 -55.95 -186.5 -57.4 -185.9 -58.05 584.75 -58.05 M-183.85 -60.7 L-182.55 -62.45 -182.2 -62.8 584.75 -62.8 584.75 -60.7 -183.85 -60.7 M-179.6 -65.45 L-177.6 -67.55 584.75 -67.55 584.75 -65.45 -179.6 -65.45 M-173.25 -72.1 L584.75 -72.1 584.75 -70.0 -175.25 -70.0 -173.25 -72.1" fill="#4f0000" fill-rule="evenodd" stroke="none"/>
    <path d="M584.75 -53.5 L584.75 -51.4 -186.5 -51.4 -186.5 -53.5 584.75 -53.5 M584.75 -48.75 L584.75 -46.65 -186.5 -46.65 -186.5 -48.75 584.75 -48.75 M584.75 -44.0 L584.75 -41.9 -186.5 -41.9 -186.5 -44.0 584.75 -44.0" fill="#400000" fill-rule="evenodd" stroke="none"/>
    <path d="M584.75 -29.5 L584.75 -27.4 -186.5 -27.4 -186.5 -29.5 584.75 -29.5 M584.75 -34.05 L584.75 -31.95 -186.5 -31.95 -186.5 -33.4 -185.9 -34.05 584.75 -34.05 M584.75 -39.3 L584.75 -37.2 -186.5 -37.2 -186.5 -39.3 584.75 -39.3 M584.75 -24.75 L584.75 -22.65 -186.5 -22.65 -186.5 -24.75 584.75 -24.75 M584.75 -15.3 L584.75 -13.2 -186.5 -13.2 -186.5 -15.3 584.75 -15.3 M584.75 -20.0 L584.75 -17.9 -186.5 -17.9 -186.5 -20.0 584.75 -20.0" fill="#370000" fill-rule="evenodd" stroke="none"/>
    <path d="M584.75 -10.05 L584.75 -7.95 -186.5 -7.95 -186.5 -9.4 -185.9 -10.05 584.75 -10.05 M584.75 -5.5 L584.75 -3.4 -186.5 -3.4 -186.5 -5.5 584.75 -5.5 M584.75 -0.75 L584.75 1.35 -186.5 1.35 -186.5 -0.75 584.75 -0.75 M584.75 8.7 L584.75 10.8 -186.5 10.8 -186.5 8.7 584.75 8.7 M584.75 4.0 L584.75 6.1 -186.5 6.1 -186.5 4.0 584.75 4.0" fill="#2b0000" fill-rule="evenodd" stroke="none"/>
    <path d="M585.95 86.45 L585.95 88.55 -185.3 88.55 -185.3 86.45 585.95 86.45" fill="#2b0000" fill-rule="evenodd" stroke="none"/>
    <path d="M585.95 81.9 L585.95 84.0 -185.3 84.0 -185.3 81.9 585.95 81.9" fill="#280000" fill-rule="evenodd" stroke="none"/>
    <path d="M585.95 95.95 L585.95 98.05 -185.3 98.05 -185.3 95.95 585.95 95.95" fill="#400000" fill-rule="evenodd" stroke="none"/>
    <path d="M585.95 91.2 L585.95 93.3 -185.3 93.3 -185.3 91.2 585.95 91.2" fill="#370000" fill-rule="evenodd" stroke="none"/>
    <path d="M585.95 101.5 L585.55 101.65 Q585.05 101.9 586.15 102.6 L-185.3 102.6 -185.3 100.5 586.15 100.5 585.95 101.5" fill="#480000" fill-rule="evenodd" stroke="none"/>
    <path d="M586.15 105.25 L586.15 107.35 -186.3 107.35 -186.3 105.25 586.15 105.25 M586.15 110.0 L586.15 112.1 -186.3 112.1 -186.3 110.0 586.15 110.0" fill="#4f0000" fill-rule="evenodd" stroke="none"/>
    <path d="M585.95 140.9 L585.95 143.0 -185.3 143.0 -185.3 140.9 585.95 140.9" fill="#280000" fill-rule="evenodd" stroke="none"/>
    <path d="M585.95 145.45 L585.95 147.55 -185.3 147.55 -185.3 145.45 585.95 145.45" fill="#2b0000" fill-rule="evenodd" stroke="none"/>
    <path d="M585.95 160.5 L585.55 160.65 Q585.05 160.9 586.15 161.6 L-185.3 161.6 -185.3 159.5 586.15 159.5 585.95 160.5" fill="#480000" fill-rule="evenodd" stroke="none"/>
    <path d="M585.95 150.2 L585.95 152.3 -185.3 152.3 -185.3 150.2 585.95 150.2" fill="#370000" fill-rule="evenodd" stroke="none"/>
    <path d="M585.95 154.95 L585.95 157.05 -185.3 157.05 -185.3 154.95 585.95 154.95" fill="#400000" fill-rule="evenodd" stroke="none"/>
    <path d="M586.15 169.0 L586.15 171.1 -186.3 171.1 -186.3 169.0 586.15 169.0 M586.15 164.25 L586.15 166.35 -186.3 166.35 -186.3 164.25 586.15 164.25" fill="#4f0000" fill-rule="evenodd" stroke="none"/>
    <path d="M585.95 213.95 L585.95 216.05 -185.3 216.05 -185.3 213.95 585.95 213.95" fill="#400000" fill-rule="evenodd" stroke="none"/>
    <path d="M585.95 219.5 L585.55 219.65 Q585.05 219.9 586.15 220.6 L-185.3 220.6 -185.3 218.5 586.15 218.5 585.95 219.5" fill="#480000" fill-rule="evenodd" stroke="none"/>
    <path d="M585.95 204.45 L585.95 206.55 -185.3 206.55 -185.3 204.45 585.95 204.45" fill="#2b0000" fill-rule="evenodd" stroke="none"/>
    <path d="M585.95 199.9 L585.95 202.0 -185.3 202.0 -185.3 199.9 585.95 199.9" fill="#280000" fill-rule="evenodd" stroke="none"/>
    <path d="M585.95 209.2 L585.95 211.3 -185.3 211.3 -185.3 209.2 585.95 209.2" fill="#370000" fill-rule="evenodd" stroke="none"/>
    <path d="M586.15 228.0 L586.15 230.1 -186.3 230.1 -186.3 228.0 586.15 228.0 M586.15 223.25 L586.15 225.35 -186.3 225.35 -186.3 223.25 586.15 223.25" fill="#4f0000" fill-rule="evenodd" stroke="none"/>
    <path d="M585.95 322.45 L585.95 324.55 -185.3 324.55 -185.3 322.45 585.95 322.45" fill="#2b0000" fill-rule="evenodd" stroke="none"/>
    <path d="M585.95 317.9 L585.95 320.0 -185.3 320.0 -185.3 317.9 585.95 317.9" fill="#280000" fill-rule="evenodd" stroke="none"/>
    <path d="M585.95 331.95 L585.95 334.05 -185.3 334.05 -185.3 331.95 585.95 331.95" fill="#400000" fill-rule="evenodd" stroke="none"/>
    <path d="M585.95 327.2 L585.95 329.3 -185.3 329.3 -185.3 327.2 585.95 327.2" fill="#370000" fill-rule="evenodd" stroke="none"/>
    <path d="M586.15 341.25 L586.15 343.35 -186.3 343.35 -186.3 341.25 586.15 341.25 M586.15 346.0 L586.15 348.1 -186.3 348.1 -186.3 346.0 586.15 346.0" fill="#4f0000" fill-rule="evenodd" stroke="none"/>
    <path d="M585.95 337.5 L585.55 337.65 Q585.05 337.9 586.15 338.6 L-185.3 338.6 -185.3 336.5 586.15 336.5 585.95 337.5" fill="#480000" fill-rule="evenodd" stroke="none"/>
    <path d="M585.95 268.2 L585.95 270.3 -185.3 270.3 -185.3 268.2 585.95 268.2" fill="#370000" fill-rule="evenodd" stroke="none"/>
    <path d="M585.95 258.9 L585.95 261.0 -185.3 261.0 -185.3 258.9 585.95 258.9" fill="#280000" fill-rule="evenodd" stroke="none"/>
    <path d="M585.95 263.45 L585.95 265.55 -185.3 265.55 -185.3 263.45 585.95 263.45" fill="#2b0000" fill-rule="evenodd" stroke="none"/>
    <path d="M586.15 282.25 L586.15 284.35 -186.3 284.35 -186.3 282.25 586.15 282.25 M586.15 287.0 L586.15 289.1 -186.3 289.1 -186.3 287.0 586.15 287.0" fill="#4f0000" fill-rule="evenodd" stroke="none"/>
    <path d="M585.95 278.5 L585.55 278.65 Q585.05 278.9 586.15 279.6 L-185.3 279.6 -185.3 277.5 586.15 277.5 585.95 278.5" fill="#480000" fill-rule="evenodd" stroke="none"/>
    <path d="M585.95 272.95 L585.95 275.05 -185.3 275.05 -185.3 272.95 585.95 272.95" fill="#400000" fill-rule="evenodd" stroke="none"/>
    <path d="M584.75 386.45 L584.75 388.55 -186.5 388.55 -186.5 386.45 584.75 386.45" fill="#370000" fill-rule="evenodd" stroke="none"/>
    <path d="M584.75 381.7 L584.75 383.8 -186.5 383.8 -186.5 381.7 584.75 381.7" fill="#2b0000" fill-rule="evenodd" stroke="none"/>
    <path d="M584.75 377.15 L584.75 379.25 -186.5 379.25 -186.5 377.15 584.75 377.15" fill="#280000" fill-rule="evenodd" stroke="none"/>
    <path d="M584.75 391.2 L584.75 393.3 -186.5 393.3 -186.5 391.2 584.75 391.2" fill="#400000" fill-rule="evenodd" stroke="none"/>
    <path d="M574.85 405.25 L572.7 407.35 -186.5 407.35 -186.5 405.25 574.85 405.25 M579.75 400.5 L577.65 402.6 -186.5 402.6 -186.5 400.5 579.75 400.5" fill="#4f0000" fill-rule="evenodd" stroke="none"/>
    <path d="M584.75 396.75 L584.35 396.9 582.95 397.85 -186.5 397.85 -186.5 395.75 584.75 395.75 584.75 396.75" fill="#480000" fill-rule="evenodd" stroke="none"/>
    <path d="M586.15 376.55 L586.15 396.1 572.5 409.35 -186.0 409.35 -186.0 376.55 -186.0 376.05 -186.0 366.45 -186.0 362.0 -186.0 315.95 -186.0 312.95 -186.0 269.95 -186.0 251.95 -186.0 221.45 -186.0 48.95 -186.0 24.0 -186.0 -16.5 -186.0 -17.5 -186.0 -59.4 -173.05 -71.95 586.15 -71.95 586.15 -17.5 586.15 -16.5 586.15 24.0 586.15 221.45 586.15 251.95 586.15 269.95 586.15 312.95 586.15 315.95 586.15 366.45 586.15 376.05 586.15 376.55 Z" fill="none" stroke="#d90000" stroke-linecap="round" stroke-linejoin="round" stroke-width="1.5"/>
    <path d="M-185.0 -59.4 L-172.05 -71.95 327.45 -71.95 327.45 10.8 Q327.45 11.5 -185.5 10.8 -185.15 10.8 -184.95 -24.05 -184.8 -58.85 -185.0 -59.4" fill="url(#gradient0)" fill-rule="evenodd" stroke="none"/>
    <path d="M-186.0 -43.7 L-186.0 -48.5 -186.0 -59.4 -173.05 -71.95 -127.05 -71.95 M586.15 383.8 L586.15 384.25 586.15 396.1 572.5 409.35 540.15 409.35 534.7 409.35" fill="none" stroke="#d90000" stroke-linecap="square" stroke-linejoin="round" stroke-width="4.0"/>
    <path d="M-186.0 -43.7 L-186.0 -48.5 -186.0 -59.4 -173.05 -71.95 -127.05 -71.95 M586.15 383.8 L586.15 384.25 586.15 396.1 572.5 409.35 540.15 409.35 534.7 409.35" fill="none" stroke="#ff0606" stroke-linecap="square" stroke-linejoin="round" stroke-width="1.0"/>
  </g>
  <defs>
    <linearGradient gradientTransform="matrix(0.3131, 0.0, 0.0, 0.0507, 70.95, -30.4)" gradientUnits="userSpaceOnUse" id="gradient0" spreadMethod="pad" x1="-819.2" x2="819.2">
      <stop offset="0.09019607843137255" stop-color="#3e0000"/>
      <stop offset="1.0" stop-color="#3e0000" stop-opacity="0.0"/>
    </linearGradient>
  </defs>
</svg>
