<?xml version="1.0" encoding="UTF-8" standalone="no"?>
<svg xmlns:xlink="http://www.w3.org/1999/xlink" height="30.45px" width="45.35px" xmlns="http://www.w3.org/2000/svg">
  <g transform="matrix(1.0, 0.0, 0.0, 1.0, -5.0, -5.0)">
    <path d="M49.45 6.2 L49.65 6.2 49.75 6.45 49.8 7.0 50.35 7.0 50.35 10.35 49.8 10.35 49.75 11.65 49.95 11.65 49.95 12.7 49.75 12.7 49.65 14.3 49.35 14.65 48.5 15.1 47.5 15.1 47.5 14.75 46.8 14.75 46.8 15.2 40.3 15.2 40.3 15.35 38.65 15.35 Q36.9 15.35 36.05 16.05 L36.0 16.05 35.9 17.95 Q35.9 20.25 36.5 21.45 L36.05 21.8 26.95 22.05 26.35 21.9 25.25 21.5 Q24.75 21.25 23.85 21.7 22.85 22.15 22.55 22.55 L22.15 23.4 Q21.95 24.65 22.4 25.35 L22.05 25.55 21.25 26.15 Q20.1 27.4 20.45 29.55 L20.1 29.8 19.3 30.55 Q18.3 31.95 18.9 33.75 L18.4 34.05 17.6 34.05 17.5 35.45 7.3 34.3 7.6 33.65 Q7.85 32.95 8.15 32.85 L8.25 32.6 7.25 32.6 7.15 32.6 Q5.8 32.25 5.0 31.15 5.4 29.55 6.15 27.7 7.65 24.0 9.25 22.4 10.45 20.55 11.15 18.4 12.4 14.3 9.55 13.3 L8.25 13.25 7.95 12.7 Q7.75 12.15 8.05 11.5 L8.4 10.85 8.4 6.5 8.4 6.4 8.45 6.2 8.45 6.15 Q8.65 5.8 9.1 5.8 L10.55 5.8 10.9 5.0 11.8 5.0 11.8 5.7 26.15 5.7 26.5 6.15 32.95 6.2 33.15 5.8 47.5 5.8 47.7 5.35 48.3 5.35 48.5 5.8 49.45 5.8 49.45 6.2 M34.55 16.3 Q34.05 15.45 33.2 15.45 L27.95 15.8 27.6 16.25 27.05 17.15 Q26.5 18.85 27.75 20.35 L27.15 20.65 26.25 19.75 Q25.2 18.55 25.0 16.95 L24.8 17.4 24.75 18.4 Q24.75 20.1 26.7 20.9 L33.05 20.75 33.4 20.65 34.05 20.15 Q35.0 19.3 34.85 17.75 L34.8 17.25 34.75 17.05 34.55 16.6 34.55 16.45 34.55 16.3" fill="#790000" fill-rule="evenodd" stroke="none"/>
  </g>
</svg>
