<?xml version="1.0" encoding="UTF-8" standalone="no"?>
<svg xmlns:xlink="http://www.w3.org/1999/xlink" height="25.05px" width="139.15px" xmlns="http://www.w3.org/2000/svg">
  <g transform="matrix(1.0, 0.0, 0.0, 1.0, -0.25, -7.5)">
    <path d="M44.45 17.6 L44.8 17.95 45.25 18.6 45.4 18.2 45.9 17.7 45.7 18.0 45.5 18.85 Q45.35 20.15 46.95 20.95 L47.65 21.05 49.25 21.3 Q51.65 21.35 52.35 20.05 52.65 19.55 52.6 18.9 52.45 17.65 50.85 17.1 L49.75 17.2 Q47.95 17.8 47.5 19.25 47.3 20.0 47.45 20.55 46.95 19.8 47.25 18.7 L47.65 17.8 47.5 17.15 44.45 17.6 M75.25 8.55 L75.25 8.15 70.35 8.15 70.35 8.55 75.25 8.55 M87.1 8.55 L87.1 8.15 82.2 8.15 82.2 8.55 87.1 8.55 M81.1 8.55 L81.1 8.15 76.25 8.15 76.25 8.55 81.1 8.55 M93.0 8.55 L93.0 8.15 88.05 8.15 88.05 8.55 93.0 8.55 M99.0 8.55 L99.0 8.15 94.1 8.15 94.1 8.55 99.0 8.55 M104.9 8.55 L104.9 8.15 100.0 8.15 100.0 8.55 104.9 8.55 M110.85 8.55 L110.85 8.15 106.0 8.15 106.0 8.55 110.85 8.55 M116.8 8.55 L116.8 8.15 111.85 8.15 111.85 8.55 116.8 8.55 M128.5 8.55 L128.5 8.15 123.55 8.15 123.55 8.55 128.5 8.55 M122.45 8.55 L122.45 8.15 117.55 8.15 117.55 8.55 122.45 8.55 M139.4 14.5 L97.1 14.5 Q97.0 15.25 96.35 15.9 L95.75 16.35 74.4 17.4 67.9 17.3 65.5 17.15 65.6 16.95 52.9 16.7 52.15 16.95 52.05 17.4 52.65 18.4 52.85 19.15 Q52.8 20.9 50.95 21.35 L49.65 21.55 49.05 21.55 48.95 21.55 48.15 21.5 47.35 21.35 Q46.45 21.1 46.05 20.8 45.5 20.3 45.25 19.4 45.0 18.55 44.45 18.0 L44.0 17.7 Q40.45 18.85 38.25 21.8 L37.1 23.75 36.75 24.55 31.2 23.35 30.7 23.05 Q28.45 23.3 15.35 27.95 L5.2 31.65 2.75 32.55 2.45 32.25 0.7 19.15 0.25 17.45 0.65 16.7 32.25 13.4 32.9 13.65 34.0 14.1 34.3 14.3 35.3 14.6 Q37.15 14.8 39.65 13.5 L42.3 12.65 42.3 12.35 42.95 12.1 43.2 11.7 43.95 11.4 44.4 11.65 45.15 11.4 45.35 11.65 Q49.2 10.4 51.3 10.0 L51.95 9.7 51.55 9.55 46.65 10.8 46.65 10.65 46.1 10.15 Q45.7 9.6 46.45 9.2 L46.95 9.1 Q47.5 9.15 48.0 9.7 L50.0 9.65 50.95 9.25 51.35 8.95 52.8 8.8 52.9 8.8 64.7 7.9 137.9 7.9 137.9 7.5 138.3 7.5 138.3 7.9 139.4 7.9 139.4 14.5 M134.35 8.55 L134.35 8.15 129.45 8.15 129.45 8.55 134.35 8.55" fill="#790000" fill-rule="evenodd" stroke="none"/>
  </g>
</svg>
