<?xml version="1.0" encoding="UTF-8" standalone="no"?>
<svg xmlns:xlink="http://www.w3.org/1999/xlink" height="34.5px" width="65.2px" xmlns="http://www.w3.org/2000/svg">
  <g transform="matrix(1.0, 0.0, 0.0, 1.0, -5.2, -2.75)">
    <path d="M22.3 5.8 L22.3 6.05 23.05 6.05 23.05 6.45 23.85 6.45 23.85 6.25 48.6 6.25 48.9 6.55 60.35 6.65 61.5 6.8 61.5 6.65 63.55 6.65 63.55 6.85 63.8 6.85 63.8 6.55 64.0 6.55 64.0 5.75 63.65 5.75 63.65 2.75 65.7 2.75 66.35 5.75 66.2 5.75 66.2 6.55 66.35 6.55 66.35 9.3 66.0 9.3 66.0 10.3 66.2 10.3 66.2 10.5 66.8 10.5 66.8 10.1 67.5 10.1 67.5 10.5 70.4 10.5 70.4 12.65 67.5 12.65 67.5 12.95 66.8 12.95 66.8 12.65 66.2 12.65 65.75 13.15 64.25 13.15 64.25 12.65 63.75 12.65 63.2 13.55 42.4 15.6 42.1 15.45 42.05 14.15 41.5 14.2 Q40.95 14.4 40.85 15.05 L41.25 16.8 41.3 17.35 41.05 17.45 Q41.05 21.1 44.3 28.5 L47.6 35.1 44.15 37.25 Q41.2 33.05 38.75 25.7 L37.35 21.0 36.85 19.1 36.7 19.2 36.1 19.2 34.5 19.6 34.05 19.75 33.7 19.95 33.55 20.15 32.35 23.25 32.2 23.5 31.3 24.35 31.1 24.45 27.0 24.45 26.5 24.3 25.8 23.9 25.45 23.75 24.9 23.75 24.2 24.2 21.5 30.5 Q21.65 31.15 21.35 31.45 L21.05 31.55 Q18.1 30.35 16.2 29.0 L15.15 28.2 14.85 27.9 19.95 19.55 20.0 19.5 Q20.4 18.35 19.55 17.5 L18.9 17.0 18.6 16.8 17.75 16.7 17.2 16.7 16.35 16.0 12.75 16.0 12.2 16.75 11.3 16.75 10.6 16.45 10.45 15.6 10.75 14.35 10.25 14.0 9.55 15.05 9.35 16.3 8.8 19.1 Q7.8 23.2 6.9 23.35 L6.6 23.45 6.25 23.4 Q5.5 23.3 5.2 22.5 L5.65 20.15 6.15 16.65 6.05 13.15 Q6.0 9.5 6.3 8.9 L7.35 8.0 11.05 9.05 11.3 9.05 12.7 6.3 17.1 6.3 17.1 7.35 18.3 7.35 18.3 4.85 19.45 4.05 20.65 4.05 20.75 3.55 23.2 4.5 22.45 5.9 22.3 5.8 22.3 5.75 22.25 5.75 22.3 5.8 M26.25 19.55 L25.1 21.9 25.1 22.45 27.05 23.7 30.75 23.75 31.4 23.35 31.7 22.9 32.8 20.0 32.45 19.55 28.65 19.55 Q27.85 20.85 28.15 22.2 28.25 22.9 28.6 23.3 27.45 23.0 27.1 21.25 L27.0 20.05 27.0 19.55 26.25 19.55" fill="#790000" fill-rule="evenodd" stroke="none"/>
  </g>
</svg>
