<?xml version="1.0" encoding="UTF-8" standalone="no"?>
<svg xmlns:xlink="http://www.w3.org/1999/xlink" height="35.85px" width="131.95px" xmlns="http://www.w3.org/2000/svg">
  <g transform="matrix(1.0, 0.0, 0.0, 1.0, -7.25, -1.95)">
    <path d="M116.8 9.15 L116.8 7.15 116.2 7.15 116.2 5.6 115.1 5.45 112.65 8.55 112.65 9.15 116.8 9.15 M135.2 12.95 L134.9 12.95 134.9 13.1 134.2 13.1 134.2 12.95 133.95 12.95 133.95 13.1 133.15 13.1 133.15 12.95 117.7 12.95 117.7 13.15 118.45 13.35 118.45 14.5 117.65 14.5 117.2 15.05 116.2 15.05 116.2 12.95 113.1 12.95 113.1 14.45 112.55 14.8 112.8 15.35 113.0 17.4 112.5 17.5 111.75 17.05 111.75 15.2 112.15 14.8 111.7 14.15 110.8 14.15 110.8 14.65 110.2 15.4 72.15 16.1 72.15 14.6 71.55 14.6 71.55 14.8 69.5 15.35 69.5 14.25 68.95 14.25 68.95 14.95 68.4 15.2 67.5 16.2 67.55 19.55 67.6 19.7 68.0 20.15 67.9 20.7 67.15 20.7 66.75 20.85 Q67.2 28.0 68.75 32.45 L69.2 33.6 69.6 34.6 62.15 37.8 60.35 32.45 Q59.1 27.8 58.8 22.65 L58.7 22.7 50.25 22.75 49.7 23.9 50.1 24.95 49.8 25.35 48.75 25.4 46.9 29.1 46.8 29.55 47.2 30.4 46.6 30.95 40.05 29.75 39.7 29.4 45.8 20.1 46.1 18.85 46.1 18.0 Q45.8 15.85 42.85 15.85 L36.6 17.05 9.85 25.55 8.65 25.25 7.25 9.4 8.25 8.7 44.3 9.15 44.3 7.4 46.35 7.4 47.25 4.8 47.65 4.8 47.65 3.1 49.2 1.95 49.85 1.95 67.95 3.75 Q68.95 4.15 69.25 4.9 L69.35 8.0 68.95 8.4 68.95 9.0 69.5 9.0 69.5 8.1 71.55 8.6 72.15 8.6 72.15 7.2 110.15 8.0 110.8 8.4 110.8 8.65 111.45 8.65 115.45 3.65 115.7 3.45 Q115.95 3.2 116.25 3.1 117.15 2.75 117.7 3.7 L117.7 10.6 133.15 10.6 133.15 10.4 133.95 10.4 133.95 10.6 134.2 10.6 134.2 10.4 134.9 10.4 134.9 10.6 135.2 10.6 135.2 10.4 139.2 10.4 139.2 13.1 135.2 13.1 135.2 12.95 M113.1 10.6 L116.2 10.6 116.2 10.15 113.1 10.15 113.1 10.6 M51.4 4.95 L51.4 4.9 51.35 4.9 51.4 4.95 M67.55 4.8 L67.15 4.5 54.5 4.45 Q53.75 4.45 53.45 5.1 L53.3 5.7 Q53.85 5.7 54.05 6.2 L54.3 6.6 66.2 6.65 Q66.2 6.05 67.1 5.95 L67.9 5.9 67.9 5.6 Q67.9 5.1 67.55 4.8 M44.85 12.85 L44.85 12.65 44.55 12.65 44.85 12.85 M52.45 18.45 L52.15 18.65 Q51.6 19.25 51.6 20.0 51.6 20.85 52.15 21.45 52.8 22.05 53.6 22.05 L56.05 22.05 Q56.9 22.05 57.5 21.45 58.05 20.85 58.05 20.0 L57.7 18.85 57.5 18.65 57.2 18.4 56.05 18.0 54.55 18.0 Q53.55 20.2 54.8 21.7 53.35 21.2 53.4 18.1 52.85 18.1 52.45 18.45" fill="#790000" fill-rule="evenodd" stroke="none"/>
  </g>
</svg>
