<?xml version="1.0" encoding="UTF-8" standalone="no"?>
<svg xmlns:xlink="http://www.w3.org/1999/xlink" height="27.9px" width="138.05px" xmlns="http://www.w3.org/2000/svg">
  <g transform="matrix(1.0, 0.0, 0.0, 1.0, -3.75, -5.5)">
    <path d="M135.6 17.85 L135.6 17.45 135.05 17.45 135.05 17.85 135.6 17.85 M135.6 16.75 L135.6 15.9 135.05 15.9 135.05 16.75 135.6 16.75 M134.45 17.45 L133.9 17.45 133.9 17.85 134.45 17.85 134.45 17.45 M133.9 16.75 L134.45 16.75 134.45 15.9 133.9 15.9 133.9 16.75 M134.45 14.8 L133.9 14.8 133.9 15.25 134.45 15.25 134.45 14.8 M135.6 14.8 L135.05 14.8 135.05 15.25 135.6 15.25 135.6 14.8 M140.2 15.15 Q140.0 15.15 139.85 15.5 139.7 15.85 139.7 16.35 L139.85 17.15 140.2 17.5 140.55 17.15 140.75 16.35 140.55 15.5 140.2 15.15 M136.8 15.15 L136.4 15.5 136.3 16.35 136.4 17.15 136.8 17.5 137.15 17.15 137.35 16.35 137.15 15.5 136.8 15.15 M138.45 15.15 Q138.25 15.15 138.1 15.5 137.95 15.85 137.95 16.35 L138.1 17.15 138.45 17.5 138.8 17.15 139.0 16.35 138.8 15.5 138.45 15.15 M13.95 31.2 L13.9 31.25 3.75 31.25 3.75 16.0 3.8 16.0 3.8 15.75 Q3.8 15.05 4.3 14.95 L4.6 14.9 21.5 14.9 21.5 14.85 21.7 14.85 21.7 14.9 22.95 14.9 22.95 14.8 26.8 14.8 27.95 14.05 28.95 13.45 29.85 12.9 31.0 12.9 31.0 13.15 31.4 13.15 31.4 12.9 32.2 12.9 32.2 13.15 32.65 13.15 32.65 12.9 33.4 12.9 33.4 13.15 33.8 13.15 33.8 12.9 34.6 12.9 34.6 13.15 35.05 13.15 35.05 12.9 35.85 12.9 35.85 13.15 36.25 13.15 36.25 12.9 37.05 12.9 37.05 13.15 37.5 13.15 37.5 12.9 38.0 12.9 38.0 10.65 35.8 10.65 34.85 11.55 33.65 11.55 33.65 11.45 33.1 11.45 33.1 11.65 32.4 11.65 32.4 11.4 31.4 11.4 31.4 11.55 26.65 11.55 26.65 11.4 26.45 11.4 26.45 11.7 26.15 11.7 26.15 11.4 25.75 11.4 25.75 6.7 26.15 6.7 26.15 6.5 26.45 6.5 26.45 6.7 26.65 6.7 26.65 6.5 31.4 6.5 31.4 6.95 32.4 6.95 32.4 6.55 33.1 6.55 33.1 6.7 33.65 6.7 33.65 6.5 34.85 6.5 35.75 7.5 41.95 7.5 41.95 6.45 42.55 6.1 44.95 6.1 45.4 6.45 45.4 7.5 51.95 7.5 61.0 5.5 66.15 5.5 66.15 12.5 61.0 12.5 51.75 10.65 49.75 10.65 49.75 12.9 50.3 12.9 50.3 13.15 50.75 13.15 50.75 12.9 51.55 12.9 51.55 13.15 51.95 13.15 51.95 12.9 52.75 12.9 52.75 13.15 53.2 13.15 53.2 12.9 53.95 12.9 53.95 13.15 54.4 13.15 54.4 12.9 55.05 12.9 55.05 13.15 55.45 13.15 55.45 12.9 56.2 12.9 56.2 13.15 56.65 13.15 56.65 12.9 57.45 12.9 57.45 13.15 57.9 13.15 57.9 12.9 58.6 12.9 58.6 13.15 59.05 13.15 59.05 12.9 59.8 12.9 59.8 13.1 60.25 13.1 60.25 12.9 60.7 12.9 61.9 13.45 63.15 14.05 63.35 14.15 63.35 14.65 68.25 14.65 68.25 14.85 74.6 14.85 74.6 14.5 130.8 14.5 Q130.8 13.6 131.7 13.6 L141.8 13.6 141.8 19.0 131.7 19.0 Q130.85 19.0 130.8 18.2 L74.6 18.2 74.6 18.0 73.85 18.0 73.85 19.7 Q73.85 20.55 72.95 20.55 L67.95 20.55 67.3 20.35 67.3 21.0 66.1 21.0 66.1 21.3 65.85 21.3 65.85 22.2 65.95 22.65 65.95 23.15 65.9 23.55 66.1 23.65 66.15 23.65 66.15 22.45 66.0 22.45 66.0 21.6 68.15 21.6 68.15 21.95 69.6 21.95 69.6 22.05 79.1 22.05 79.05 21.9 Q79.0 21.55 79.1 21.4 79.4 21.1 79.7 21.15 L80.55 21.4 80.9 21.4 80.9 21.55 81.0 21.6 Q81.3 21.65 81.25 22.05 L82.15 22.05 82.15 21.9 83.85 21.9 83.85 21.95 84.65 21.65 84.65 21.95 84.75 21.95 Q85.1 21.95 85.25 22.25 L85.45 23.0 85.25 23.75 84.75 24.1 84.6 24.1 84.6 24.4 83.85 23.95 83.85 24.15 82.15 24.15 82.15 23.75 80.9 23.75 80.9 24.05 80.1 24.05 80.1 23.75 69.6 23.75 69.6 24.25 68.05 24.25 68.05 24.5 65.55 24.5 65.15 24.05 63.85 24.05 Q63.5 24.05 63.25 23.75 L63.0 23.15 63.0 22.65 63.25 22.0 63.7 21.8 63.7 20.15 62.1 20.15 62.1 32.35 49.75 33.4 49.75 22.3 49.45 22.65 48.2 25.45 Q48.0 25.8 47.35 25.75 L44.95 26.3 43.2 26.05 42.0 25.6 41.35 25.55 41.2 25.6 40.45 27.2 Q38.35 31.55 38.4 31.75 38.45 32.1 38.65 32.25 L38.5 32.75 36.6 32.4 36.8 32.05 35.2 31.25 34.95 31.65 33.75 30.75 33.25 30.2 37.15 23.4 Q37.3 21.45 36.25 21.05 L35.45 20.85 35.2 20.85 32.4 20.85 32.15 21.2 31.6 21.4 31.5 21.4 31.45 21.6 31.4 21.8 31.2 22.15 30.65 22.4 30.6 22.4 30.0 22.15 29.8 21.65 29.7 21.4 29.65 21.4 Q29.3 21.4 29.05 21.2 L29.0 21.2 28.85 20.85 15.55 20.85 Q14.45 20.9 13.25 21.85 11.8 23.1 11.7 24.95 11.6 27.0 12.55 28.4 13.15 29.3 13.9 29.65 14.65 30.0 13.95 31.2 M45.4 10.95 L41.95 10.95 41.95 10.65 40.55 10.65 40.55 12.9 40.6 12.9 40.6 13.15 41.05 13.15 41.05 12.9 41.85 12.9 41.85 13.15 42.25 13.15 42.25 12.9 43.0 12.9 43.0 13.15 43.45 13.15 43.45 12.9 44.25 12.9 44.25 13.15 44.65 13.15 44.65 12.9 45.4 12.9 45.4 13.15 45.85 13.15 45.85 12.9 46.65 12.9 46.65 13.15 47.05 13.15 47.05 12.9 47.2 12.9 47.2 10.65 45.4 10.65 45.4 10.95 M42.0 24.75 L43.1 25.3 44.75 25.7 46.3 25.45 47.3 25.0 47.5 24.0 47.45 22.95 47.0 22.45 44.8 22.35 44.75 22.4 44.15 23.7 Q43.95 24.55 44.5 25.1 44.15 25.1 43.85 24.5 43.65 24.15 43.7 23.45 L43.75 22.7 43.35 22.3 42.95 22.3 42.55 22.8 41.85 24.35 Q41.85 24.7 42.0 24.75 M19.25 19.35 L18.8 20.2 20.35 20.2 20.85 19.35 19.25 19.35 M21.55 19.35 L21.1 20.2 22.65 20.2 23.15 19.35 21.55 19.35 M23.85 19.35 L23.4 20.2 25.1 20.2 25.55 19.35 23.85 19.35 M29.0 19.95 L29.2 19.85 28.85 19.35 28.65 19.35 28.25 20.2 28.9 20.2 29.0 19.95 M26.25 19.35 L25.8 20.2 27.5 20.2 27.95 19.35 26.25 19.35 M12.4 20.9 L13.2 20.25 13.7 19.35 12.9 19.35 Q12.45 19.4 12.0 20.15 11.6 20.9 11.7 21.2 11.8 21.4 12.4 20.9 M33.95 20.2 L34.05 19.35 32.3 19.35 Q32.1 19.55 32.05 19.85 L32.15 19.95 32.15 20.0 32.35 20.2 33.95 20.2 M14.45 19.35 L13.95 20.2 15.6 20.2 16.05 19.35 14.45 19.35 M16.75 19.35 L16.35 20.2 18.1 20.2 18.55 19.35 16.75 19.35" fill="#790000" fill-rule="evenodd" stroke="none"/>
  </g>
</svg>
