<?xml version="1.0" encoding="UTF-8" standalone="no"?>
<svg xmlns:xlink="http://www.w3.org/1999/xlink" height="31.35px" width="142.5px" xmlns="http://www.w3.org/2000/svg">
  <g transform="matrix(1.0, 0.0, 0.0, 1.0, 0.0, -5.0)">
    <path d="M139.55 20.45 L139.55 20.8 123.4 22.95 115.05 22.95 109.05 21.55 102.65 21.55 100.65 22.2 100.65 21.25 100.1 21.25 100.1 21.55 88.85 21.55 Q88.0 21.6 87.55 22.15 87.0 22.65 86.75 23.55 L86.65 23.8 Q86.45 24.9 86.55 25.85 L86.4 26.75 86.25 27.15 Q85.9 27.6 83.5 28.5 L81.2 29.3 81.2 35.45 Q81.05 36.15 80.35 36.35 L77.35 36.35 76.95 36.1 Q76.55 35.65 76.65 34.7 L77.1 29.4 76.95 28.95 76.85 28.75 Q76.4 28.05 75.25 28.05 L75.2 27.45 76.05 26.9 76.15 26.2 75.3 25.1 74.8 25.1 Q74.25 25.2 74.15 25.4 L74.05 24.9 74.35 24.7 75.1 24.5 75.1 24.0 74.85 23.9 74.45 23.5 74.45 22.3 73.65 22.0 72.05 23.05 66.25 23.05 66.25 23.55 Q66.25 24.4 65.75 25.15 L65.3 25.8 65.3 32.9 64.8 33.55 64.35 33.85 61.85 33.85 61.15 33.4 60.9 32.9 60.9 25.85 60.2 24.95 59.6 24.0 59.55 23.55 59.3 23.55 59.3 23.65 59.15 23.65 59.15 24.65 58.3 24.65 58.3 23.65 58.1 23.65 58.1 23.4 41.45 23.4 36.15 22.5 33.55 22.5 33.55 22.7 33.4 22.7 33.4 23.85 32.5 23.85 32.5 22.7 32.2 22.7 32.2 22.5 20.4 22.5 20.4 22.9 20.15 22.9 20.15 23.65 19.15 23.65 19.15 22.9 17.85 22.9 17.85 22.25 16.5 22.25 3.05 24.25 1.45 24.25 1.45 26.2 0.0 26.2 0.0 13.6 1.45 13.6 1.45 15.75 3.05 15.75 16.5 17.6 17.25 17.6 17.25 15.75 18.05 15.75 18.6 16.3 18.6 16.85 20.4 16.85 20.4 17.1 32.2 17.1 32.2 16.85 33.55 16.85 33.55 17.1 36.15 17.1 41.45 15.85 58.1 15.85 58.1 15.75 60.2 15.75 60.2 16.15 63.15 16.15 63.15 14.35 64.0 13.5 64.0 13.0 61.55 13.0 61.55 13.45 60.85 13.45 60.85 13.0 60.6 13.0 60.6 13.45 59.95 13.45 59.95 13.0 59.7 13.0 59.7 13.85 59.0 13.85 59.0 8.4 59.7 8.4 59.7 9.2 59.95 9.2 59.95 8.8 60.6 8.8 60.6 9.2 60.85 9.2 60.85 8.8 61.55 8.8 61.55 8.95 64.5 8.95 64.5 9.75 65.85 9.75 65.85 7.7 66.05 7.15 69.05 5.6 69.05 5.0 72.1 5.0 72.9 5.8 73.65 5.8 73.65 9.15 72.75 9.15 72.75 9.85 72.1 10.55 72.1 11.2 70.45 11.2 69.7 11.95 69.7 12.2 70.1 12.2 70.1 13.15 69.7 13.15 69.7 13.5 70.05 13.5 70.8 14.25 70.8 16.15 72.05 16.15 74.4 17.2 91.3 17.2 91.3 15.3 92.3 14.3 96.5 14.3 96.5 11.15 96.35 10.85 96.35 10.1 97.3 10.1 97.9 14.3 98.3 14.75 98.3 15.05 98.45 15.2 98.45 17.2 100.1 17.2 100.1 17.4 100.65 17.4 100.65 16.7 102.65 17.15 109.05 17.15 115.05 16.0 123.2 16.0 139.55 18.1 139.55 18.3 142.5 18.65 142.5 20.15 139.55 20.45 M85.3 23.55 L84.8 23.6 83.45 24.05 Q82.05 24.5 82.55 25.8 82.75 26.45 83.3 27.05 L83.15 27.3 81.75 26.6 81.75 28.85 85.75 27.15 85.9 26.55 85.9 24.15 85.3 23.55" fill="#790000" fill-rule="evenodd" stroke="none"/>
  </g>
</svg>
