<?xml version="1.0" encoding="UTF-8" standalone="no"?>
<svg xmlns:xlink="http://www.w3.org/1999/xlink" height="35.9px" width="140.45px" xmlns="http://www.w3.org/2000/svg">
  <g transform="matrix(1.0, 0.0, 0.0, 1.0, -0.75, -2.5)">
    <path d="M136.9 12.4 L137.2 12.4 137.2 12.1 141.2 12.1 141.2 15.0 137.2 15.0 137.2 14.7 136.9 14.7 136.9 15.0 133.95 15.0 133.95 14.7 114.75 14.7 114.75 16.0 114.4 16.0 114.4 18.9 112.4 18.9 112.4 19.6 110.8 19.6 110.8 21.15 108.3 21.15 108.3 21.7 110.35 22.0 111.25 22.65 111.4 23.6 Q111.4 24.9 108.65 25.05 L105.9 25.05 105.9 24.05 85.65 24.05 Q85.35 24.65 84.25 24.85 L83.2 25.0 Q81.9 25.0 81.3 24.5 L81.25 24.45 79.95 24.45 79.95 24.0 79.05 24.0 77.95 25.05 75.55 25.05 75.55 20.2 72.65 20.2 72.65 21.25 72.9 21.25 Q73.65 21.25 73.65 22.0 L73.65 23.5 Q73.65 24.25 72.9 24.25 L59.25 24.25 Q58.5 24.25 58.5 23.5 L58.5 22.0 Q58.5 21.25 59.25 21.25 L59.85 21.25 59.85 20.25 58.5 20.25 58.5 20.1 57.7 20.1 57.7 22.55 Q57.7 23.3 57.15 23.85 L57.15 27.15 Q56.95 28.45 56.1 28.85 L55.25 29.1 49.7 29.1 49.05 28.95 48.85 28.85 47.8 28.85 47.5 29.05 44.4 35.5 Q44.0 36.4 43.95 36.95 43.9 37.3 44.0 37.35 L44.15 38.1 44.0 38.35 Q40.75 38.55 37.7 37.25 L35.95 36.35 35.4 35.95 40.95 27.95 Q41.85 26.75 41.9 25.5 41.9 23.75 39.7 23.3 L39.1 23.15 Q36.4 22.8 35.4 22.0 L34.95 21.45 34.9 21.25 19.0 20.7 Q16.65 20.6 15.8 21.7 15.25 22.5 15.45 23.75 15.55 24.45 15.3 24.8 L15.0 25.05 3.4 26.75 3.05 25.9 2.3 25.6 0.95 11.85 0.75 9.45 2.2 9.45 2.2 9.05 3.7 9.05 3.7 9.4 4.75 9.4 4.75 9.05 6.9 9.05 Q10.5 11.1 15.65 11.9 L20.05 12.3 27.1 11.5 29.45 10.65 30.1 10.6 30.15 10.8 31.6 10.0 37.95 10.0 37.95 8.85 37.5 8.05 Q37.35 7.35 38.8 7.65 L39.45 7.95 40.4 8.75 41.3 8.75 41.3 7.2 42.45 7.2 42.45 7.95 42.8 7.95 42.8 7.2 44.0 7.2 44.0 7.95 44.4 7.95 44.4 7.2 45.55 7.2 45.55 7.95 45.65 7.95 45.65 3.5 Q46.05 2.85 46.7 2.7 47.95 2.3 49.2 2.7 L49.4 2.7 54.3 4.4 54.3 7.95 54.8 7.95 54.8 7.2 55.9 7.2 55.9 7.95 56.3 7.95 56.3 7.2 57.45 7.2 57.45 7.95 57.9 7.95 57.9 7.2 59.0 7.2 59.0 7.95 59.5 7.95 59.5 7.2 60.65 7.2 60.65 7.95 61.0 7.95 61.0 7.2 62.15 7.2 62.15 7.95 62.6 7.95 62.6 7.2 63.75 7.2 63.75 7.95 64.2 7.95 64.2 7.2 65.35 7.2 65.35 7.95 65.75 7.95 65.75 7.2 66.85 7.2 66.85 7.95 67.3 7.95 67.3 7.2 68.45 7.2 68.45 7.95 68.9 7.95 68.9 7.2 70.1 7.2 70.1 7.95 70.45 7.95 70.45 7.2 71.6 7.2 71.6 7.95 72.0 7.95 72.0 7.2 73.15 7.2 73.15 8.65 74.8 8.65 74.8 9.0 75.6 9.0 75.6 8.65 80.45 8.65 80.45 9.05 81.0 9.05 81.0 8.35 81.95 8.35 81.95 9.25 83.35 9.25 83.35 8.25 84.1 8.25 84.1 9.9 84.3 9.9 84.3 11.3 84.4 11.3 84.4 12.4 110.45 12.4 110.45 12.1 111.45 11.05 111.45 6.6 112.0 3.55 113.7 3.55 113.7 11.05 114.75 12.1 114.75 12.4 133.95 12.4 133.95 12.1 136.9 12.1 136.9 12.4 M105.55 21.95 L105.55 20.35 99.1 20.35 99.1 21.95 105.55 21.95 M61.65 20.1 L61.65 21.25 64.9 21.25 64.9 20.1 61.65 20.1 M77.35 20.75 L79.0 22.1 79.95 22.1 79.95 21.35 Q78.45 20.4 77.35 20.75 M54.95 23.9 L52.0 23.9 Q50.4 26.25 52.2 28.15 50.4 28.45 48.75 24.75 L48.35 25.35 48.0 26.1 48.0 27.45 Q48.25 28.25 49.5 28.45 L55.2 28.45 Q56.25 28.15 56.25 26.9 L56.25 24.3 55.95 24.4 Q55.35 24.4 54.95 23.9" fill="#790000" fill-rule="evenodd" stroke="none"/>
  </g>
</svg>
