<?xml version="1.0" encoding="UTF-8" standalone="no"?>
<svg xmlns:xlink="http://www.w3.org/1999/xlink" height="34.5px" width="129.8px" xmlns="http://www.w3.org/2000/svg">
  <g transform="matrix(1.0, 0.0, 0.0, 1.0, -5.0, -2.25)">
    <path d="M122.8 3.15 L134.8 5.15 134.8 13.15 122.8 15.15 122.8 15.65 119.1 15.65 119.1 14.8 118.5 14.8 118.5 15.65 106.25 15.65 106.25 16.4 102.85 16.4 102.85 15.65 97.65 16.25 96.9 16.95 Q96.9 21.85 95.25 23.85 L94.1 24.8 93.5 24.95 82.55 24.95 78.75 35.9 77.9 36.75 70.3 36.75 Q69.45 36.55 69.0 35.75 L68.75 34.95 75.35 19.15 Q76.35 16.6 73.6 14.45 L70.7 12.85 70.7 9.75 34.25 9.75 33.4 10.45 31.35 10.45 31.35 11.5 27.35 11.5 27.35 10.05 25.1 10.05 Q24.8 11.9 23.3 13.15 22.35 13.85 21.45 14.05 20.1 14.05 18.3 14.75 18.4 26.45 20.75 35.5 L14.9 35.5 14.8 36.2 6.1 36.2 Q6.0 34.05 7.95 23.95 L9.9 14.25 Q10.25 11.8 8.05 11.2 L5.8 11.15 Q4.8 8.85 5.05 6.75 L5.55 5.05 16.5 5.05 16.5 3.65 18.9 3.65 20.6 5.35 27.35 5.35 27.35 4.25 31.35 4.25 31.35 5.05 33.4 5.05 34.25 5.65 68.9 5.65 68.9 4.95 98.3 4.95 99.3 3.4 101.7 3.4 102.85 2.25 106.25 2.25 106.25 2.7 118.5 2.7 118.5 3.45 119.1 3.45 119.1 2.75 122.8 2.75 122.8 3.15 M88.5 17.7 L85.8 17.7 84.4 22.45 85.45 23.45 93.05 23.45 95.15 20.75 95.5 17.7 90.4 17.7 Q89.7 18.25 90.1 20.15 L90.6 21.95 Q89.4 21.2 88.8 19.4 L88.5 17.7" fill="#790000" fill-rule="evenodd" stroke="none"/>
  </g>
</svg>
