<?xml version="1.0" encoding="UTF-8" standalone="no"?>
<svg xmlns:xlink="http://www.w3.org/1999/xlink" height="33.3px" width="60.8px" xmlns="http://www.w3.org/2000/svg">
  <g transform="matrix(1.0, 0.0, 0.0, 1.0, -7.4, -3.1)">
    <path d="M61.5 19.15 L61.15 21.1 49.3 32.95 50.4 34.05 48.7 35.75 40.15 27.2 41.85 25.5 43.1 26.75 54.95 14.9 55.0 14.95 56.95 14.6 57.05 14.7 59.35 12.4 Q74.45 1.5 63.8 16.85 L61.5 19.15 M33.8 15.6 L34.9 17.2 34.9 33.95 36.5 33.95 36.5 36.4 24.4 36.4 24.4 33.95 26.15 33.95 26.15 17.2 26.25 17.2 27.3 15.6 27.5 15.6 27.5 12.35 Q30.45 -6.1 33.8 12.35 L33.8 15.6 M16.8 15.6 L17.9 17.2 17.9 33.95 19.5 33.95 19.5 36.4 7.4 36.4 7.4 33.95 9.15 33.95 9.15 17.2 9.25 17.2 10.3 15.6 10.5 15.6 10.5 12.35 Q13.45 -6.1 16.8 12.35 L16.8 15.6" fill="#790000" fill-rule="evenodd" stroke="none"/>
  </g>
</svg>
