<?xml version="1.0" encoding="UTF-8" standalone="no"?>
<svg xmlns:xlink="http://www.w3.org/1999/xlink" height="30.95px" width="56.65px" xmlns="http://www.w3.org/2000/svg">
  <g transform="matrix(1.0, 0.0, 0.0, 1.0, -4.5, -4.3)">
    <path d="M44.85 20.15 L44.85 19.5 44.85 18.8 44.55 18.45 44.3 17.85 44.3 17.55 Q44.3 16.95 44.75 16.4 44.7 15.05 45.15 13.45 45.4 12.5 46.1 11.75 L46.2 11.4 Q46.3 10.55 47.65 9.9 L48.0 9.55 48.1 9.05 48.35 8.7 47.25 8.7 47.3 6.3 47.4 6.3 47.8 4.3 55.9 4.3 60.65 11.15 61.15 14.4 60.95 23.35 60.2 26.5 59.7 26.9 60.0 23.65 59.8 14.7 57.05 9.55 55.95 9.55 56.25 10.05 Q56.7 10.1 57.1 10.5 57.5 10.9 57.5 11.3 L57.45 11.75 57.35 12.0 Q57.95 12.65 58.35 13.75 58.85 14.85 58.6 16.25 59.3 16.85 59.3 17.55 59.3 18.35 58.45 19.0 L58.45 19.7 58.45 20.0 58.45 20.15 58.45 21.35 58.45 21.55 58.45 22.85 58.45 23.05 58.45 24.25 58.45 24.4 58.45 25.15 Q59.3 25.85 59.3 26.6 L58.85 27.75 57.6 32.95 Q57.4 33.55 56.65 34.0 55.15 35.15 52.1 35.25 48.65 35.35 46.95 34.0 46.2 33.35 46.0 32.7 L44.7 27.7 Q44.3 27.2 44.3 26.6 44.3 26.05 44.65 25.55 L44.85 25.35 44.85 24.4 44.85 23.0 44.85 21.55 44.85 20.15 M25.05 20.15 L25.05 19.5 25.05 18.8 24.75 18.45 24.5 17.85 24.5 17.55 Q24.5 16.95 24.95 16.4 24.9 15.05 25.35 13.45 25.6 12.5 26.3 11.75 L26.4 11.4 Q26.5 10.55 27.85 9.9 L28.2 9.55 28.3 9.05 28.55 8.7 27.45 8.7 27.5 6.3 27.6 6.3 28.0 4.3 36.1 4.3 40.85 11.15 41.35 14.4 41.15 23.35 40.4 26.5 39.9 26.9 40.2 23.65 40.0 14.7 37.25 9.55 36.15 9.55 36.45 10.05 Q36.9 10.1 37.3 10.5 37.7 10.9 37.7 11.3 L37.65 11.75 37.55 12.0 Q38.15 12.65 38.55 13.75 39.05 14.85 38.8 16.25 39.5 16.85 39.5 17.55 39.5 18.35 38.65 19.0 L38.65 19.7 38.65 20.0 38.65 20.15 38.65 21.35 38.65 21.55 38.65 22.85 38.65 23.05 38.65 24.25 38.65 24.4 38.65 25.15 Q39.5 25.85 39.5 26.6 L39.05 27.75 37.8 32.95 36.85 34.0 Q35.35 35.15 32.3 35.25 28.85 35.35 27.15 34.0 26.4 33.35 26.2 32.7 L24.9 27.7 Q24.5 27.2 24.5 26.6 24.5 26.05 24.85 25.55 L25.05 25.35 25.05 24.4 25.05 23.0 25.05 21.55 25.05 20.15 M5.25 20.15 L5.25 19.5 5.25 18.8 4.95 18.45 Q4.75 18.15 4.7 17.85 L4.7 17.55 Q4.7 16.95 5.15 16.4 5.1 15.05 5.55 13.45 5.8 12.5 6.5 11.75 L6.6 11.4 Q6.7 10.55 8.05 9.9 L8.4 9.55 8.5 9.05 8.75 8.7 7.65 8.7 7.7 6.3 7.8 6.3 8.2 4.3 16.3 4.3 21.05 11.15 21.55 14.4 21.35 23.35 20.6 26.5 20.1 26.9 20.4 23.65 20.2 14.7 17.45 9.55 16.35 9.55 16.65 10.05 Q17.1 10.1 17.5 10.5 17.9 10.9 17.9 11.3 L17.85 11.75 17.75 12.0 Q18.35 12.65 18.75 13.75 19.25 14.85 19.0 16.25 19.7 16.85 19.7 17.55 19.7 18.35 18.85 19.0 L18.85 19.7 18.85 20.0 18.85 20.15 18.85 21.35 18.85 21.55 18.85 22.85 18.85 23.05 18.85 24.25 18.85 24.4 18.85 25.15 Q19.7 25.85 19.7 26.6 L19.25 27.75 18.0 32.95 Q17.8 33.55 17.05 34.0 15.55 35.15 12.5 35.25 9.05 35.35 7.35 34.0 6.6 33.35 6.4 32.7 L5.1 27.7 Q4.7 27.2 4.7 26.6 4.7 26.05 5.05 25.55 L5.25 25.35 5.25 24.4 5.25 23.0 5.25 21.55 5.25 20.15" fill="#790000" fill-rule="evenodd" stroke="none"/>
    <path d="M58.45 20.0 L58.45 20.15 M58.45 21.35 L58.45 21.55 M58.45 22.85 L58.45 23.05 M58.45 24.25 L58.45 24.4 M44.65 25.55 L44.35 25.25 M44.85 20.15 L44.35 19.65 M44.35 21.0 L44.85 21.55 M44.35 23.85 L44.85 24.4 M44.85 23.0 L44.35 22.5 M38.65 20.0 L38.65 20.15 M38.65 21.35 L38.65 21.55 M38.65 22.85 L38.65 23.05 M38.65 24.25 L38.65 24.4 M24.85 25.55 L24.55 25.25 M25.05 20.15 L24.55 19.65 M24.55 21.0 L25.05 21.55 M24.55 23.85 L25.05 24.4 M25.05 23.0 L24.55 22.5 M18.85 20.0 L18.85 20.15 M18.85 21.35 L18.85 21.55 M18.85 22.85 L18.85 23.05 M18.85 24.25 L18.85 24.4 M5.05 25.55 L4.75 25.25 M5.25 20.15 L4.75 19.65 M5.25 21.55 L4.75 21.0 M5.25 23.0 L4.75 22.5 M4.75 23.85 L5.25 24.4" fill="none" stroke="#000000" stroke-linecap="round" stroke-linejoin="round" stroke-opacity="0.3019608" stroke-width="0.5"/>
  </g>
</svg>
