<?xml version="1.0" encoding="UTF-8" standalone="no"?>
<svg xmlns:xlink="http://www.w3.org/1999/xlink" height="34.4px" width="29.45px" xmlns="http://www.w3.org/2000/svg">
  <g transform="matrix(1.0, 0.0, 0.0, 1.0, -3.2, -2.6)">
    <path d="M21.3 2.6 Q28.0 3.05 30.85 8.15 32.6 11.4 32.6 15.95 32.75 17.6 32.15 17.6 L32.05 17.55 31.65 17.7 31.55 18.15 31.8 19.4 31.75 21.55 Q31.8 22.85 31.5 23.45 L31.5 24.4 Q32.0 24.3 32.05 25.25 L32.05 27.15 32.15 30.55 31.95 31.1 31.5 31.35 31.35 35.8 31.35 35.85 Q31.35 36.4 30.6 36.6 L25.7 37.0 Q22.3 37.0 17.7 34.85 13.45 32.85 12.85 30.9 L12.25 31.25 Q11.05 31.85 9.65 31.85 6.6 31.85 4.7 28.0 3.2 25.1 3.2 22.75 3.2 21.3 3.45 19.8 3.85 17.45 4.65 17.7 L4.6 16.15 Q4.6 11.0 6.5 8.3 9.65 3.6 18.65 2.6 L21.3 2.6" fill="#790000" fill-rule="evenodd" stroke="none"/>
  </g>
</svg>
