<?xml version="1.0" encoding="UTF-8" standalone="no"?>
<svg xmlns:xlink="http://www.w3.org/1999/xlink" height="32.8px" width="23.6px" xmlns="http://www.w3.org/2000/svg">
  <g transform="matrix(1.0, 0.0, 0.0, 1.0, -4.65, -3.95)">
    <path d="M27.05 8.85 Q28.25 11.8 28.25 13.0 L28.15 13.2 28.05 13.25 27.9 13.65 27.7 14.1 27.85 14.3 28.0 14.5 27.8 16.35 27.85 17.2 Q27.85 17.9 27.4 17.95 L27.45 18.25 27.45 18.95 27.45 19.7 27.75 20.45 28.05 21.15 28.05 22.65 28.2 24.0 Q28.25 24.85 27.85 25.2 L27.75 25.3 27.6 25.5 27.6 27.2 28.0 27.3 28.05 27.45 Q28.05 29.2 27.7 29.65 L27.55 29.65 27.55 30.3 27.6 31.0 27.65 31.7 Q27.95 31.6 28.05 31.85 L28.1 32.15 27.65 33.95 Q26.9 35.55 25.55 35.55 L25.2 36.0 24.65 36.7 23.95 36.6 23.7 36.6 23.3 36.6 21.15 36.75 20.05 36.65 20.0 36.65 19.9 36.65 19.25 36.15 18.5 35.65 18.4 35.65 14.5 35.65 9.9 35.3 Q8.9 35.2 8.7 34.95 L8.6 34.95 Q8.15 34.95 8.0 34.15 L7.85 32.95 7.75 31.95 7.65 31.0 Q6.75 27.75 6.75 27.05 L6.75 25.7 Q6.95 25.3 7.05 25.45 9.0 24.8 9.6 23.35 10.05 21.6 10.55 20.8 L11.65 18.3 11.8 17.7 11.95 17.1 12.0 16.55 11.35 14.25 11.45 13.95 11.5 13.7 9.35 10.55 7.35 8.1 7.2 8.2 Q6.95 8.2 7.0 7.9 7.1 7.45 6.8 7.2 L5.75 6.8 4.85 6.5 4.75 6.55 4.65 6.5 Q6.6 4.85 10.4 4.0 L10.45 3.95 Q11.9 4.05 14.3 6.9 16.15 9.05 16.45 9.85 L16.5 9.85 17.0 9.8 17.95 10.0 21.6 9.95 22.45 9.75 22.75 9.7 22.8 9.45 22.7 8.35 22.25 7.15 21.35 4.9 21.3 4.75 21.3 4.6 24.2 5.65 Q25.85 6.35 26.3 7.1 L26.3 7.2 27.05 8.85" fill="#790000" fill-rule="evenodd" stroke="none"/>
  </g>
</svg>
