<?xml version="1.0" encoding="UTF-8" standalone="no"?>
<svg xmlns:xlink="http://www.w3.org/1999/xlink" height="33.1px" width="44.15px" xmlns="http://www.w3.org/2000/svg">
  <g transform="matrix(1.0, 0.0, 0.0, 1.0, -5.3, -2.75)">
    <path d="M40.4 3.1 L41.25 5.3 42.05 7.55 43.1 9.4 43.05 10.1 43.05 10.9 43.05 11.25 43.5 11.35 43.85 11.65 44.15 11.8 44.2 11.65 Q46.55 16.95 48.4 23.8 L48.15 24.45 47.95 24.9 48.7 27.45 49.2 29.05 49.4 30.4 49.45 30.5 46.95 35.7 46.6 35.75 46.5 35.85 Q45.95 34.9 44.8 34.55 L44.55 34.5 Q44.0 34.15 43.5 34.25 L43.45 34.25 Q43.0 34.35 42.45 33.6 L42.0 32.85 Q41.85 32.4 42.6 30.55 L43.25 28.5 42.3 26.25 41.2 23.95 40.85 24.0 40.8 24.0 40.85 24.1 39.25 27.85 39.1 27.85 38.55 27.35 Q37.45 26.55 36.3 26.7 L36.15 26.25 36.0 25.45 35.45 23.65 35.1 22.4 34.5 19.7 34.7 18.35 Q34.7 17.05 35.1 15.25 L35.4 13.75 34.6 13.45 34.1 13.4 32.1 9.3 30.6 7.25 30.5 7.0 Q31.35 5.7 34.65 4.2 37.8 2.7 39.05 2.85 L39.75 2.8 40.4 3.1 M14.65 4.45 Q17.25 4.8 17.9 5.5 L17.9 5.45 18.65 7.35 18.95 8.3 19.45 9.75 19.45 9.8 23.75 12.65 26.7 15.05 26.8 15.15 26.85 15.3 26.9 15.45 27.0 15.85 27.15 16.45 27.2 17.7 Q27.25 19.15 27.7 20.65 L28.05 21.65 27.85 21.7 27.7 21.75 27.6 21.8 27.2 21.85 27.05 21.9 26.8 22.0 25.45 22.55 24.1 23.2 Q23.45 23.35 23.2 22.6 L22.85 21.45 22.6 20.45 21.55 20.2 21.9 22.55 22.3 25.15 Q22.6 26.35 24.85 31.55 L24.9 31.8 25.1 32.05 24.95 32.4 25.05 32.45 23.5 33.9 21.25 35.25 Q20.95 35.35 20.4 34.7 L20.1 34.4 19.7 34.65 18.4 35.45 Q17.85 35.55 17.45 34.65 L16.65 34.95 16.35 35.0 15.45 35.15 15.35 35.15 Q14.9 35.3 13.6 33.95 12.35 32.7 11.85 31.6 L9.45 27.9 8.75 24.7 8.5 23.4 7.65 20.65 7.4 19.55 7.45 19.45 7.25 19.15 Q7.15 18.7 7.35 18.5 L7.75 17.25 8.25 15.85 8.25 15.65 Q7.05 15.25 6.65 14.4 L6.3 13.2 6.1 12.35 5.7 11.05 5.35 10.2 5.35 9.65 5.5 9.45 Q5.55 8.55 6.5 7.4 7.8 5.6 10.3 4.85 L11.05 4.6 14.65 4.45" fill="#790000" fill-rule="evenodd" stroke="none"/>
  </g>
</svg>
