<?xml version="1.0" encoding="UTF-8" standalone="no"?>
<svg xmlns:xlink="http://www.w3.org/1999/xlink" height="36.2px" width="46.05px" xmlns="http://www.w3.org/2000/svg">
  <g transform="matrix(1.0, 0.0, 0.0, 1.0, -7.8, -1.5)">
    <path d="M43.3 5.55 L44.35 4.55 45.2 3.95 45.3 3.9 45.65 3.65 45.75 3.6 45.9 3.55 47.85 3.75 50.85 3.75 51.1 4.0 51.0 4.15 51.75 5.5 52.9 7.85 53.85 9.95 53.85 14.2 53.25 16.3 52.7 17.85 52.75 19.0 52.4 23.25 51.7 27.8 51.15 32.15 50.75 33.75 50.2 34.35 48.15 35.75 47.05 36.1 46.7 36.05 42.7 35.15 41.1 34.5 40.0 33.95 38.8 32.75 Q38.1 31.75 37.55 30.25 L37.0 28.85 36.95 28.8 36.6 26.95 Q35.55 23.6 35.55 22.95 35.55 20.8 36.7 18.45 L37.35 17.3 37.15 16.3 37.2 14.8 36.75 8.1 36.95 7.35 36.9 7.35 37.0 7.3 37.0 7.2 37.2 7.25 37.35 7.2 39.6 7.3 41.45 7.3 41.9 7.2 42.65 6.3 43.3 5.55 M9.55 14.8 Q10.3 13.8 11.2 13.05 L11.55 12.8 11.25 11.7 11.25 11.55 11.15 11.45 11.5 10.7 12.45 8.1 13.65 4.35 13.55 4.25 13.65 4.0 14.55 3.95 15.2 4.1 15.95 3.55 18.55 2.15 20.15 1.5 23.4 2.3 Q26.25 3.15 26.7 3.85 L26.75 3.9 26.7 4.75 26.75 5.0 26.75 5.05 27.5 8.45 28.05 10.3 Q26.95 16.75 25.5 17.45 L25.65 17.85 Q25.65 18.6 22.5 27.1 L19.25 36.2 18.25 36.95 Q17.4 37.5 15.8 37.7 L15.75 37.7 13.65 37.15 Q11.4 36.45 10.75 35.9 L9.9 35.0 9.1 34.2 8.75 33.6 8.45 32.95 8.25 32.3 8.55 31.35 9.05 29.5 8.9 27.95 8.35 24.3 7.8 20.4 Q7.8 19.65 7.95 19.05 L8.2 17.3 8.3 17.3 8.8 16.2 9.55 14.8" fill="#790000" fill-rule="evenodd" stroke="none"/>
  </g>
</svg>
