<?xml version="1.0" encoding="UTF-8" standalone="no"?>
<svg xmlns:xlink="http://www.w3.org/1999/xlink" height="34.45px" width="59.45px" xmlns="http://www.w3.org/2000/svg">
  <g transform="matrix(1.0, 0.0, 0.0, 1.0, -10.3, -2.85)">
    <path d="M53.85 4.6 L54.1 6.45 Q54.5 8.95 55.15 10.4 L55.9 12.3 56.65 14.3 57.95 16.85 58.7 18.25 58.7 18.45 59.55 19.25 61.0 21.05 62.9 22.5 Q64.05 23.45 65.1 24.0 68.6 25.9 69.35 27.25 69.75 27.95 69.75 30.6 L69.75 31.5 69.4 32.2 Q69.0 32.6 67.45 32.85 L62.8 33.65 59.1 33.65 56.2 33.3 55.15 33.05 54.85 33.15 Q53.95 33.15 51.65 31.75 L51.35 31.6 50.55 31.3 49.55 30.8 49.35 30.85 49.15 30.75 45.65 30.75 Q42.85 31.1 40.75 30.3 39.15 29.65 39.05 29.0 38.75 28.65 38.65 27.05 L38.65 25.05 38.75 21.6 Q38.9 19.85 39.6 18.1 L39.95 14.9 40.2 11.15 39.65 8.1 Q39.15 5.8 39.15 5.1 L39.15 4.95 38.95 4.75 38.7 4.4 40.2 4.25 40.45 4.35 42.65 5.0 44.5 5.75 46.65 6.4 48.75 5.9 50.95 5.3 53.65 4.65 53.85 4.6 M10.9 2.85 L12.4 4.1 Q15.0 6.2 15.9 6.2 L16.15 6.15 16.3 6.2 19.0 6.2 22.65 5.75 Q23.65 5.6 24.0 5.15 L24.15 5.1 24.3 5.1 24.3 6.05 24.3 7.7 24.35 8.2 24.25 8.85 24.25 9.95 24.3 11.9 24.25 12.85 Q24.25 13.45 24.4 13.75 L24.6 14.1 25.0 14.6 25.1 15.75 25.1 16.1 25.25 17.3 25.05 17.9 Q24.8 18.2 24.8 18.55 L24.85 19.35 24.8 19.6 26.2 22.9 Q27.15 25.2 28.15 26.9 L30.2 30.9 Q30.4 31.7 30.4 34.5 L30.4 35.25 30.4 35.4 Q30.4 36.1 28.65 36.65 L24.4 37.2 21.75 37.15 21.6 37.3 19.35 37.25 15.0 36.75 14.75 36.65 14.6 36.65 Q13.75 36.65 12.8 34.25 L12.05 31.85 11.5 31.4 11.1 31.05 Q10.45 30.95 10.3 30.15 L10.3 29.25 10.7 22.95 11.1 18.35 10.9 17.9 10.7 17.35 10.85 15.1 11.15 14.6 11.5 14.15 11.65 13.0 10.9 2.85" fill="#790000" fill-rule="evenodd" stroke="none"/>
  </g>
</svg>
