<?xml version="1.0" encoding="UTF-8" standalone="no"?>
<svg xmlns:xlink="http://www.w3.org/1999/xlink" height="26.0px" width="109.7px" xmlns="http://www.w3.org/2000/svg">
  <g transform="matrix(1.0, 0.0, 0.0, 1.0, -2.7, -7.5)">
    <path d="M101.0 7.5 L112.4 7.5 112.4 33.5 101.0 33.5 101.0 22.55 91.85 33.5 85.0 25.35 85.0 10.2 91.85 18.45 101.0 7.5 M82.75 7.5 L82.75 33.5 71.3 33.5 71.3 7.5 82.75 7.5 M68.9 18.45 L56.35 33.5 54.1 33.5 54.1 21.15 57.55 17.05 57.55 7.5 68.9 7.5 68.9 18.45 M48.4 17.05 L51.8 21.15 51.8 33.5 49.55 33.5 37.0 18.45 37.0 7.5 48.4 7.5 48.4 17.05 M23.25 17.05 L23.25 7.5 34.65 7.5 34.65 33.5 23.25 33.5 23.25 23.9 16.45 23.9 16.45 17.05 23.25 17.05 M14.2 33.5 L2.7 33.5 2.7 7.5 14.2 7.5 14.2 33.5" fill="#790000" fill-rule="evenodd" stroke="none"/>
  </g>
</svg>
