<?xml version="1.0" encoding="UTF-8" standalone="no"?>
<svg xmlns:xlink="http://www.w3.org/1999/xlink" height="21.05px" width="136.7px" xmlns="http://www.w3.org/2000/svg">
  <g transform="matrix(1.0, 0.0, 0.0, 1.0, -3.1, -8.6)">
    <path d="M139.2 17.6 L132.55 17.6 132.75 16.55 Q133.0 15.1 131.6 15.1 L126.6 15.1 Q124.9 15.1 124.25 17.6 L118.0 17.6 118.6 14.1 Q119.0 11.85 120.95 10.2 122.8 8.6 125.2 8.6 L134.95 8.6 Q137.1 8.6 138.5 9.95 139.8 11.35 139.8 13.4 L139.75 14.5 139.2 17.6 M123.9 20.1 L123.3 24.1 Q122.85 26.85 120.65 28.35 118.6 29.65 115.8 29.65 L117.55 20.1 123.9 20.1 M136.95 29.65 Q134.5 29.65 133.0 28.6 131.35 27.25 131.35 24.85 131.35 24.25 131.5 23.9 L132.15 20.1 138.8 20.1 136.95 29.65 M116.2 14.5 L115.6 17.6 109.0 17.6 109.05 16.65 Q109.3 15.1 107.9 15.1 L103.0 15.1 Q101.45 15.1 100.8 17.6 L94.4 17.6 95.0 14.15 Q95.4 11.85 97.3 10.2 99.2 8.6 101.5 8.6 L111.3 8.6 Q113.4 8.6 114.85 9.95 116.25 11.35 116.25 13.45 L116.2 14.5 M101.3 23.15 L106.3 23.15 Q107.9 23.15 108.65 20.25 L108.7 20.1 115.15 20.1 114.45 24.1 Q114.05 26.5 112.1 28.15 110.25 29.65 107.9 29.65 L98.2 29.65 Q96.05 29.65 94.6 28.3 93.2 26.9 93.2 24.8 L93.3 23.9 94.0 20.1 100.4 20.1 100.15 21.55 Q99.9 23.15 101.3 23.15 M91.0 17.3 L91.25 17.6 71.9 17.6 71.9 17.55 72.35 14.2 Q72.8 11.85 74.7 10.3 76.6 8.65 79.0 8.65 L94.6 8.65 Q94.0 11.95 92.15 13.45 90.8 14.6 89.8 14.85 L87.9 15.1 79.35 15.1 Q78.6 15.1 78.6 15.7 L78.85 16.0 87.3 16.0 Q89.45 16.0 91.0 17.3 M76.95 22.3 Q74.8 22.3 73.4 20.95 L72.65 20.1 92.35 20.1 92.35 20.75 91.9 24.05 Q91.5 26.45 89.6 28.1 87.7 29.65 85.35 29.65 L69.65 29.65 Q70.25 26.8 71.8 25.1 73.65 23.2 76.45 23.2 L84.75 23.2 Q85.5 23.2 85.5 22.6 L85.2 22.3 76.95 22.3 M70.0 14.5 L69.4 17.6 62.8 17.6 62.95 16.55 Q63.25 15.1 61.85 15.1 L56.85 15.1 Q55.15 15.1 54.45 17.6 L48.25 17.6 48.85 14.1 Q49.25 11.85 51.2 10.2 53.05 8.6 55.45 8.6 L65.15 8.6 Q67.25 8.6 68.7 9.95 70.05 11.35 70.05 13.4 L70.0 14.5 M61.6 24.85 L61.7 23.9 62.35 20.1 69.0 20.1 67.2 29.65 Q64.7 29.65 63.25 28.6 61.6 27.25 61.6 24.85 M46.45 14.5 L45.85 17.6 39.2 17.6 39.3 16.65 Q39.5 15.1 38.15 15.1 L33.2 15.1 Q31.7 15.1 30.95 17.6 L24.65 17.6 25.2 14.15 Q25.65 11.85 27.5 10.2 29.45 8.6 31.75 8.6 L41.55 8.6 Q43.65 8.6 45.05 9.95 46.5 11.35 46.5 13.45 L46.45 14.5 M45.4 20.1 L44.7 24.1 Q44.25 26.5 42.35 28.15 40.5 29.65 38.15 29.65 L28.4 29.65 Q26.2 29.65 24.8 28.3 23.4 26.9 23.4 24.8 23.4 24.25 23.55 23.9 L24.25 20.1 30.55 20.1 30.35 21.55 Q30.1 23.15 31.55 23.15 L36.45 23.15 Q38.15 23.15 38.85 20.25 L38.9 20.1 45.4 20.1 M54.15 20.1 L53.55 24.1 Q53.1 26.85 50.9 28.35 48.85 29.65 46.05 29.65 L47.8 20.1 54.15 20.1 M20.85 14.9 L18.85 15.1 13.85 15.1 Q12.25 15.1 11.6 17.6 L5.2 17.6 5.85 14.1 Q6.3 11.75 8.1 10.2 9.85 8.6 12.3 8.6 L25.5 8.6 Q24.9 11.85 23.05 13.45 L20.85 14.9 M10.6 24.15 Q10.15 26.85 7.95 28.35 5.95 29.65 3.1 29.65 L4.75 20.1 11.15 20.1 10.6 24.15" fill="#790000" fill-rule="evenodd" stroke="none"/>
  </g>
</svg>
