<?xml version="1.0" encoding="UTF-8" standalone="no"?>
<svg xmlns:xlink="http://www.w3.org/1999/xlink" height="20.6px" width="140.5px" xmlns="http://www.w3.org/2000/svg">
  <g transform="matrix(1.0, 0.0, 0.0, 1.0, -2.35, -10.15)">
    <path d="M35.5 24.8 L38.4 24.8 36.3 30.75 33.4 30.75 35.5 24.8 M39.65 24.8 L42.55 24.8 40.45 30.75 37.55 30.75 39.65 24.8 M7.3 13.85 L5.25 19.8 2.35 19.8 4.4 13.85 7.3 13.85 M17.0 13.85 L16.05 16.45 Q15.55 17.9 14.2 17.9 L13.6 17.9 14.95 19.8 11.4 19.8 10.05 17.9 7.45 17.9 8.5 15.0 13.65 15.0 14.1 13.85 17.0 13.85 M7.15 10.15 L16.75 10.15 17.3 10.25 17.65 10.6 17.8 11.05 17.7 11.6 17.25 13.05 4.7 13.05 5.2 11.6 5.5 11.05 5.95 10.6 6.55 10.25 7.15 10.15 M29.15 10.15 L32.0 10.15 31.05 13.05 28.15 13.05 29.15 10.15 M19.55 10.15 L22.4 10.15 21.45 13.05 18.5 13.05 19.55 10.15 M39.65 21.1 L38.7 23.95 35.75 23.95 36.75 21.1 39.65 21.1 M26.85 16.9 L27.9 13.85 30.8 13.85 29.25 18.4 28.9 18.95 28.45 19.35 27.9 19.7 27.3 19.8 17.65 19.8 17.1 19.7 16.75 19.35 16.6 18.95 16.7 18.4 18.25 13.85 21.15 13.85 20.05 16.9 26.85 16.9 M33.3 10.15 L36.15 10.15 35.2 13.05 32.3 13.05 33.3 10.15 M75.6 24.8 L78.5 24.8 76.95 29.3 76.65 29.9 76.15 30.3 75.6 30.65 75.0 30.75 65.35 30.75 64.85 30.65 64.5 30.3 64.35 29.9 64.4 29.3 65.95 24.8 68.85 24.8 67.8 27.85 74.55 27.85 75.6 24.8 M48.3 24.8 L51.15 24.8 49.1 30.75 46.2 30.75 48.3 24.8 M61.35 24.8 L64.35 24.8 61.2 29.6 60.85 30.0 60.4 30.4 59.9 30.65 59.4 30.75 51.85 30.75 51.3 30.65 50.95 30.3 50.8 29.9 50.9 29.3 52.45 24.8 55.35 24.8 54.25 27.85 59.35 27.85 61.35 24.8 M43.8 12.1 Q44.85 12.1 44.75 13.05 L36.7 13.05 37.1 12.1 43.8 12.1 M51.95 22.55 L51.45 23.95 39.9 23.95 40.9 21.1 51.0 21.1 51.5 21.25 51.85 21.55 52.0 22.0 51.95 22.55 M60.15 16.9 L59.15 19.8 50.3 19.8 49.75 19.7 49.4 19.35 49.25 18.95 49.35 18.4 50.9 13.85 53.8 13.85 52.75 16.9 60.15 16.9 M41.65 19.7 L41.05 19.8 31.4 19.8 30.9 19.7 30.55 19.35 30.4 18.95 Q30.35 18.65 30.45 18.4 L32.0 13.85 34.95 13.85 33.85 16.9 40.6 16.9 41.3 14.95 36.05 14.95 36.5 13.85 44.55 13.85 43.0 18.4 42.7 18.95 42.2 19.35 41.65 19.7 M46.75 13.85 L49.65 13.85 47.55 19.8 44.75 19.8 46.75 13.85 M47.05 10.15 L49.45 10.15 Q50.05 10.15 50.3 10.6 50.6 11.05 50.4 11.6 L49.95 13.05 46.1 13.05 47.05 10.15 M52.45 10.6 L53.0 10.25 53.6 10.15 62.45 10.15 61.45 13.05 51.15 13.05 51.65 11.6 51.95 11.05 52.45 10.6 M78.8 23.95 L75.9 23.95 76.85 21.1 79.75 21.1 78.8 23.95 M74.2 19.8 L76.25 13.85 79.15 13.85 77.1 19.8 74.2 19.8 M69.15 23.95 L66.25 23.95 67.25 21.1 70.1 21.1 69.15 23.95 M65.2 23.4 L64.9 23.95 52.75 23.95 53.2 22.55 53.5 22.0 54.0 21.55 54.55 21.25 55.15 21.1 64.6 21.1 Q65.3 21.1 65.5 21.5 65.7 21.85 65.35 22.85 L65.2 23.4 M73.45 18.4 L73.15 18.95 72.65 19.35 72.1 19.7 71.5 19.8 61.85 19.8 61.35 19.7 61.0 19.35 60.85 18.95 Q60.8 18.65 60.9 18.4 L62.45 13.85 65.35 13.85 64.3 16.9 71.05 16.9 72.1 13.85 75.0 13.85 73.45 18.4 M64.6 10.25 L65.2 10.15 74.8 10.15 75.3 10.25 75.7 10.6 75.85 11.05 75.75 11.6 75.3 13.05 62.75 13.05 63.2 11.6 63.5 11.05 64.0 10.6 64.6 10.25 M103.5 24.8 L106.4 24.8 104.3 30.75 101.4 30.75 103.5 24.8 M118.2 24.8 L116.1 30.75 113.25 30.75 115.3 24.8 118.2 24.8 M82.65 27.85 L83.75 24.8 86.65 24.8 85.1 29.25 84.8 29.8 84.25 30.25 83.7 30.6 83.1 30.75 77.7 30.75 78.7 27.85 82.65 27.85 M95.35 24.8 L98.2 24.8 96.2 30.75 93.3 30.75 95.35 24.8 M82.85 19.8 L84.9 13.85 87.75 13.85 85.75 19.8 82.85 19.8 M91.6 21.1 L90.6 23.95 84.0 23.95 84.45 22.65 84.75 22.15 85.3 21.65 85.85 21.3 86.5 21.1 91.6 21.1 M87.65 10.15 L88.1 10.25 88.5 10.6 88.6 11.05 88.6 11.6 88.05 13.05 76.5 13.05 77.5 10.15 87.65 10.15 M118.0 21.1 Q118.6 21.1 118.9 21.55 119.15 22.0 118.95 22.55 L118.5 23.95 114.6 23.95 115.65 21.1 118.0 21.1 M103.5 21.1 L102.45 23.95 91.9 23.95 92.85 21.1 103.5 21.1 M103.75 23.95 L104.25 22.55 104.55 22.0 105.0 21.55 105.55 21.25 106.15 21.1 114.4 21.1 113.4 23.95 103.75 23.95 M121.5 27.1 L121.25 27.85 128.65 27.85 127.65 30.75 118.85 30.75 118.3 30.65 117.95 30.3 117.8 29.9 117.9 29.3 119.45 24.8 129.7 24.8 128.9 27.1 121.5 27.1 M133.9 27.85 L134.95 24.8 137.9 24.8 136.35 29.25 136.05 29.8 135.5 30.25 134.9 30.6 134.3 30.75 128.9 30.75 129.9 27.85 133.9 27.85 M131.0 21.1 L130.0 23.95 119.7 23.95 120.2 22.55 120.5 22.0 120.95 21.55 121.55 21.25 122.15 21.1 131.0 21.1 M136.0 22.15 L136.5 21.65 137.1 21.3 137.75 21.1 142.85 21.1 141.85 23.95 135.25 23.95 135.65 22.65 136.0 22.15" fill="#790000" fill-rule="evenodd" stroke="none"/>
  </g>
</svg>
