<?xml version="1.0" encoding="UTF-8" standalone="no"?>
<svg xmlns:xlink="http://www.w3.org/1999/xlink" height="14.1px" width="138.15px" xmlns="http://www.w3.org/2000/svg">
  <g transform="matrix(1.0, 0.0, 0.0, 1.0, -2.9, -14.65)">
    <path d="M10.65 18.75 Q10.6 17.4 9.7 16.5 8.75 15.75 7.35 15.75 6.0 15.75 5.25 16.4 4.35 17.1 4.35 18.35 4.35 19.25 5.1 19.85 5.6 20.4 7.45 20.8 L7.75 20.9 Q9.9 21.5 10.65 22.0 12.15 22.9 12.15 24.7 12.15 26.6 10.75 27.7 9.5 28.65 7.55 28.65 5.5 28.65 4.25 27.45 3.05 26.25 2.9 24.2 L2.9 23.9 4.05 23.9 4.05 24.2 Q4.15 25.75 5.1 26.65 6.0 27.6 7.55 27.6 9.0 27.6 9.9 26.85 10.95 26.15 10.95 24.85 10.95 23.5 9.9 22.85 9.3 22.5 7.4 21.95 L7.15 21.9 Q4.95 21.25 4.25 20.65 3.25 19.8 3.25 18.35 3.25 16.55 4.5 15.65 5.6 14.75 7.35 14.75 9.3 14.75 10.5 15.75 11.65 16.8 11.75 18.75 L11.75 19.05 10.65 19.05 10.65 18.75 M31.4 20.7 L31.4 15.0 32.55 15.0 32.55 28.35 31.4 28.35 31.4 21.8 23.9 21.8 23.9 28.35 22.7 28.35 22.7 15.0 23.9 15.0 23.9 20.7 31.4 20.7 M53.85 16.8 Q55.2 18.7 55.2 21.7 55.2 24.75 53.85 26.55 52.25 28.65 49.25 28.65 46.3 28.65 44.7 26.55 43.35 24.75 43.35 21.7 43.35 18.7 44.7 16.8 46.3 14.75 49.25 14.75 52.3 14.75 53.85 16.8 M49.25 27.6 Q51.7 27.6 52.95 25.85 54.05 24.3 54.05 21.7 54.05 19.15 52.95 17.55 51.7 15.8 49.25 15.8 46.85 15.8 45.6 17.55 44.5 19.15 44.5 21.7 44.5 24.3 45.6 25.85 46.85 27.6 49.25 27.6 M73.95 15.0 L73.95 16.1 70.0 16.1 70.0 28.35 68.8 28.35 68.8 16.1 64.8 16.1 64.8 15.0 73.95 15.0 M100.6 16.4 L100.9 17.2 100.9 26.15 100.6 26.9 99.8 27.25 Q99.35 27.25 99.0 26.9 98.7 26.6 98.7 26.15 L98.7 17.2 Q98.7 16.75 99.0 16.4 99.35 16.1 99.8 16.1 L100.6 16.4 M91.95 27.25 L91.95 28.35 84.0 28.35 84.0 15.0 85.15 15.0 85.15 27.25 91.95 27.25 M103.4 14.95 Q103.75 15.25 103.75 15.75 L103.75 27.6 Q103.75 28.1 103.4 28.4 103.05 28.75 102.65 28.75 102.15 28.75 101.85 28.4 101.5 28.1 101.5 27.6 L101.5 15.75 Q101.5 15.25 101.85 14.95 102.15 14.65 102.65 14.65 103.05 14.65 103.4 14.95 M104.4 17.2 Q104.4 16.75 104.7 16.4 105.05 16.1 105.5 16.1 105.95 16.1 106.25 16.4 106.65 16.75 106.65 17.2 L106.65 26.15 Q106.65 26.6 106.25 26.9 L105.5 27.25 Q105.05 27.25 104.7 26.9 104.4 26.6 104.4 26.15 L104.4 17.2 M122.5 16.1 L118.5 16.1 118.5 28.35 117.35 28.35 117.35 16.1 113.35 16.1 113.35 15.0 122.5 15.0 122.5 16.1 M140.9 15.0 L140.9 16.15 133.7 16.15 133.7 20.9 139.4 20.9 139.4 22.0 133.7 22.0 133.7 27.25 141.05 27.25 141.05 28.35 132.5 28.35 132.5 15.0 140.9 15.0" fill="#790000" fill-rule="evenodd" stroke="none"/>
  </g>
</svg>
