<?xml version="1.0" encoding="UTF-8" standalone="no"?>
<svg xmlns:xlink="http://www.w3.org/1999/xlink" height="37.85px" width="64.55px" xmlns="http://www.w3.org/2000/svg">
  <g transform="matrix(1.0, 0.0, 0.0, 1.0, -6.05, -1.4)">
    <path d="M31.3 37.8 L31.25 38.05 31.0 38.05 31.0 38.0 30.95 38.0 30.85 37.8 30.85 37.75 31.0 37.65 Q31.25 37.6 31.3 37.8 M27.45 37.6 L27.6 37.4 27.9 37.45 28.1 37.65 28.1 37.85 27.95 37.9 27.55 37.85 27.45 37.6 M31.3 39.0 L31.2 39.25 31.0 39.25 30.5 38.85 30.0 38.4 30.0 38.25 30.0 38.2 Q30.05 38.0 30.3 38.0 30.7 38.1 31.0 38.35 31.3 38.6 31.3 39.0 M25.95 37.05 L25.75 36.7 25.7 36.5 25.9 36.45 26.0 36.35 26.35 36.35 27.0 37.0 27.25 37.9 27.05 38.15 26.85 38.2 26.65 38.15 26.15 37.4 25.95 37.05 M32.6 34.25 Q32.6 34.0 32.85 34.0 L33.1 34.25 32.85 34.5 32.6 34.25 M30.9 34.1 Q31.7 34.35 31.65 34.75 L31.35 35.25 30.75 35.3 30.2 34.95 29.7 34.45 29.65 34.3 29.75 34.0 30.05 33.9 30.9 34.1 M38.65 30.15 L38.6 29.35 38.8 29.2 39.0 29.35 39.05 29.65 39.05 29.75 39.15 29.95 39.1 30.0 39.1 30.15 38.9 30.4 Q38.6 30.4 38.65 30.15 M37.8 28.25 L37.9 28.35 38.1 28.55 38.1 28.65 38.1 29.1 38.1 29.3 37.95 29.55 37.65 29.5 Q37.4 29.3 37.45 28.9 L37.65 28.3 37.8 28.25 M8.3 33.7 L8.05 33.9 7.85 33.7 8.05 33.45 8.3 33.7 M8.9 32.2 L9.0 31.95 Q9.1 31.75 9.3 31.8 L9.5 32.0 9.4 32.6 9.0 32.95 8.7 32.8 Q8.65 32.7 8.75 32.55 L8.8 32.45 8.9 32.2 M12.95 17.25 L12.95 17.15 12.9 17.05 13.0 16.5 Q13.0 16.4 13.15 16.4 L13.25 16.2 13.35 16.15 13.5 16.25 13.3 17.1 13.3 17.25 12.95 17.25 M12.5 14.15 L12.6 13.9 12.85 13.8 13.0 13.7 13.2 13.75 13.5 14.05 13.6 14.35 13.6 14.65 13.35 14.8 13.1 14.8 13.1 14.85 13.05 15.05 Q12.9 15.35 12.6 15.3 L12.45 15.1 12.4 14.9 12.5 14.15 M8.05 5.55 Q7.9 5.4 8.05 5.25 L8.35 5.3 8.4 5.65 8.3 5.75 8.15 5.7 8.05 5.55 M9.2 3.65 Q9.35 3.45 9.55 3.55 L10.0 3.95 10.05 4.3 9.7 4.35 9.2 4.0 Q9.05 3.85 9.2 3.65 M6.4 5.95 L6.45 5.8 6.65 5.75 7.05 6.0 7.3 6.4 7.6 6.8 7.55 7.1 7.25 7.05 7.15 6.95 6.95 6.95 Q6.4 6.45 6.4 5.95 M7.1 1.65 L7.25 1.85 7.7 2.2 Q7.95 2.55 7.8 3.0 L7.55 3.35 7.1 3.4 Q6.2 3.05 6.05 1.9 L6.2 1.6 6.45 1.4 Q6.85 1.3 7.1 1.65 M10.5 8.95 L10.5 8.9 9.75 8.25 10.5 8.95 M31.95 17.3 L32.2 17.35 32.25 17.6 32.2 17.85 32.25 18.05 32.2 18.2 32.05 18.25 32.05 18.4 31.95 18.5 31.85 18.45 31.65 17.95 31.65 18.0 31.5 18.2 31.25 18.2 31.2 18.0 31.25 17.8 31.5 17.75 31.5 17.8 31.6 17.85 31.5 17.45 31.7 17.2 31.95 17.3 M26.15 20.9 L25.5 21.65 25.05 22.3 27.7 22.3 27.25 21.2 26.8 20.05 26.15 20.9 M20.75 23.75 L20.5 23.7 20.4 23.45 Q20.4 23.25 20.65 23.15 L20.9 23.05 21.2 23.05 Q21.45 23.05 21.5 23.3 L21.3 23.6 20.75 23.75 M23.9 34.0 L24.05 34.25 24.0 34.45 23.8 34.45 23.6 34.3 23.55 34.0 23.65 33.9 23.9 34.0 23.05 32.95 23.05 33.0 22.95 33.25 22.65 33.25 21.95 32.75 21.35 32.1 20.9 31.7 20.6 31.4 20.45 31.25 20.5 31.05 20.5 30.8 20.75 30.7 21.05 30.95 21.35 31.25 22.15 31.75 22.4 31.9 21.45 30.85 20.4 29.85 19.0 28.55 18.2 27.75 18.1 27.75 17.35 27.2 19.45 29.7 19.4 29.85 19.25 29.85 14.7 25.1 13.7 27.1 13.0 29.15 12.55 29.65 11.9 29.7 11.8 29.75 11.6 30.8 11.4 31.05 11.15 30.8 Q11.1 30.15 11.3 29.45 L11.1 29.4 10.6 30.65 10.5 30.7 10.25 31.45 Q10.15 31.7 9.85 31.65 9.6 31.6 9.7 31.3 L9.6 31.35 9.2 31.4 Q9.0 31.25 9.15 31.0 L9.7 30.0 10.1 28.85 9.8 29.05 9.75 29.2 Q9.65 29.45 9.35 29.35 L8.75 29.7 Q8.6 29.75 8.55 29.6 L8.65 29.4 8.95 29.2 8.8 28.85 Q8.95 27.9 9.5 26.8 L10.5 24.9 10.5 24.7 11.15 23.1 11.45 21.95 12.65 20.25 13.55 18.4 13.7 18.5 14.05 17.25 Q13.85 16.0 14.2 15.1 14.25 15.0 14.45 15.0 L14.65 15.1 14.95 15.95 Q15.3 16.5 15.1 17.15 L15.65 16.4 15.9 16.35 16.0 16.55 15.55 17.6 15.4 17.6 15.3 17.8 Q15.55 17.6 15.8 17.55 L16.45 16.5 16.85 16.4 17.0 16.8 16.25 18.45 15.6 20.15 15.55 20.35 16.95 19.7 17.8 19.3 18.8 18.6 19.6 17.75 19.7 17.2 19.75 17.2 19.7 17.15 Q19.5 16.8 19.15 16.75 L18.3 16.1 17.15 15.15 17.05 15.1 16.9 15.05 16.75 14.95 13.85 13.35 12.7 12.7 11.7 11.9 11.7 11.7 11.9 11.7 12.9 12.35 14.0 12.85 12.4 11.7 10.95 10.65 9.65 9.4 9.65 9.2 Q8.15 7.9 8.15 6.8 L8.35 6.45 8.75 6.55 9.05 6.85 Q9.15 6.35 9.6 6.15 L8.6 5.3 7.75 4.25 Q7.65 4.1 7.8 3.95 L8.1 3.95 10.1 5.2 12.0 6.55 13.25 7.95 Q14.05 8.9 14.2 9.6 L15.2 10.55 14.85 9.65 Q14.75 9.5 14.9 9.45 L15.1 9.5 16.5 11.0 17.95 12.5 18.4 13.0 18.55 12.85 18.75 12.95 18.9 13.05 19.2 13.35 19.25 13.5 19.2 13.65 19.15 13.65 19.55 14.05 21.35 15.55 Q22.65 16.4 23.25 17.3 L23.5 17.4 23.65 17.55 23.55 17.7 23.7 18.05 23.7 18.1 23.75 18.3 23.6 18.45 22.55 19.0 22.45 19.15 22.0 19.4 21.75 19.65 Q19.75 21.3 17.9 21.7 L17.85 21.75 16.6 22.65 Q19.4 26.75 22.2 29.15 L22.95 29.85 23.45 30.1 24.3 30.6 Q24.9 30.75 25.5 31.35 L26.5 32.3 27.0 32.7 Q27.2 32.85 27.05 33.1 L26.65 33.15 25.55 32.25 24.45 31.35 24.75 31.75 25.85 32.85 Q26.5 33.5 26.5 34.2 L29.75 37.25 29.8 37.55 29.55 37.7 29.0 37.5 28.55 37.1 26.2 35.15 26.05 34.95 25.45 35.05 24.1 34.15 23.9 34.0 M20.55 14.25 Q20.65 14.1 20.75 14.25 L20.9 14.35 21.0 14.5 21.0 14.65 20.9 14.65 20.55 14.45 20.55 14.25 M27.15 15.75 L27.15 15.8 27.25 15.7 27.35 15.7 27.55 15.25 Q27.55 15.15 27.65 15.2 L27.75 15.3 27.7 15.4 27.85 15.45 27.9 15.65 27.5 16.8 28.9 20.45 28.45 18.55 28.4 16.65 28.6 16.4 28.75 16.4 28.95 16.55 28.95 16.6 29.0 16.55 29.1 16.55 29.15 16.7 29.15 16.75 29.05 16.85 29.3 18.6 29.4 20.4 29.9 21.95 30.25 23.5 30.5 24.55 31.4 26.85 31.95 29.2 31.75 29.4 31.5 29.3 31.6 30.7 31.4 30.95 31.15 30.75 30.65 28.2 30.55 28.25 30.5 28.3 30.55 29.0 30.3 29.25 30.05 29.05 30.05 29.0 30.05 28.3 30.05 28.25 29.65 27.9 29.1 26.6 28.7 25.2 28.5 24.65 27.55 24.6 26.65 24.55 23.95 24.75 23.6 24.7 23.35 25.25 23.05 25.6 22.65 25.5 22.4 26.45 21.75 26.95 Q21.55 27.0 21.5 26.85 L21.45 26.85 21.4 26.6 21.35 26.6 21.0 26.7 21.0 26.75 21.0 26.8 21.0 26.85 20.95 27.05 20.5 27.15 Q20.25 27.1 20.3 26.85 L20.5 26.65 20.55 26.65 20.65 26.4 20.85 26.25 21.0 26.2 21.35 26.25 21.5 26.5 21.7 26.3 21.95 26.1 21.75 26.1 21.65 25.95 21.35 25.95 21.3 25.65 21.4 25.55 21.25 25.45 21.2 25.6 20.95 25.7 20.85 25.45 20.9 25.2 20.95 24.95 21.55 24.15 21.6 24.05 21.15 24.2 Q21.0 24.25 20.95 24.1 L21.0 23.95 Q21.2 23.8 21.35 23.8 L21.65 23.85 21.7 23.85 23.0 21.4 24.7 19.15 Q25.45 17.6 26.7 16.1 L26.65 15.8 26.85 15.6 Q27.1 15.55 27.15 15.75 M28.15 14.05 L28.35 14.3 28.25 14.7 28.2 14.75 28.1 14.9 27.9 14.9 27.7 14.75 27.6 14.45 Q27.7 14.3 27.85 14.3 L27.9 14.3 27.9 14.25 28.15 14.05 M28.4 13.3 L28.6 13.05 28.85 13.3 28.6 13.55 28.4 13.3 M37.65 10.95 L37.85 8.4 37.85 8.3 Q37.85 8.05 38.15 8.1 L38.4 8.4 38.3 12.65 38.55 15.45 38.8 18.3 38.9 24.05 38.95 28.1 38.7 28.35 38.4 28.1 38.4 28.05 38.35 27.95 38.35 27.5 38.25 27.45 37.8 26.95 37.5 27.1 37.25 26.85 37.15 26.25 35.8 24.7 34.45 23.55 34.15 26.3 Q34.1 26.75 33.7 26.8 33.3 26.8 33.25 26.4 L32.95 26.4 32.7 26.25 32.65 27.05 32.4 27.3 32.1 27.05 32.1 25.65 31.85 24.85 31.75 24.3 31.5 22.1 Q31.4 20.8 31.55 19.85 L31.7 19.7 31.9 19.7 31.9 19.0 Q31.95 18.8 32.2 18.8 32.45 18.8 32.5 19.0 L32.65 19.7 32.75 19.8 32.95 19.95 Q33.0 20.3 33.4 20.6 L33.15 20.2 Q33.05 19.95 33.3 19.8 L33.65 19.9 35.6 22.7 36.7 23.65 36.55 22.7 36.2 20.7 36.2 19.15 36.15 17.6 36.25 17.0 36.35 12.95 Q36.35 12.75 36.6 12.7 36.85 12.65 36.9 12.9 L37.25 15.8 37.4 11.25 37.5 11.0 37.65 10.95 M37.1 4.95 Q37.2 4.75 37.4 4.75 L37.65 5.0 37.55 6.55 37.3 8.1 37.3 9.6 37.15 11.1 36.9 11.25 36.75 11.05 36.7 10.6 Q36.35 9.15 36.4 7.7 36.5 6.05 37.1 4.95 M69.15 30.45 L68.95 30.4 68.9 30.25 69.05 30.1 69.55 30.25 70.05 30.3 70.6 30.65 70.6 30.9 70.35 31.0 69.7 30.75 69.4 30.75 69.15 30.6 69.15 30.45 M46.35 31.8 L46.2 31.5 46.15 31.4 46.05 31.25 Q46.0 31.1 46.1 31.0 L46.3 30.95 Q46.6 31.05 46.8 31.65 L46.65 31.9 46.35 31.8 M43.9 29.65 L43.75 29.4 43.4 28.9 Q43.35 28.7 43.45 28.6 L43.75 28.65 44.05 29.2 44.3 29.65 44.15 29.75 43.9 29.65 M41.75 26.05 L41.65 26.1 41.6 26.05 41.5 25.8 41.5 25.65 41.65 25.7 41.75 26.05 M58.95 34.95 Q59.15 34.95 59.2 35.15 L59.15 35.4 58.95 35.5 58.75 35.4 58.7 35.15 58.95 34.95 M58.1 34.5 L58.2 34.65 58.2 35.65 57.95 36.65 57.7 36.7 57.55 36.55 57.7 35.15 57.65 34.65 Q57.65 34.45 57.9 34.4 L58.05 34.4 58.1 34.5 M50.9 29.65 Q51.1 29.6 51.15 29.8 L51.2 30.1 51.4 30.35 51.4 30.65 51.4 30.75 51.4 30.95 51.15 31.1 50.9 30.95 50.8 30.65 50.65 30.6 50.5 30.4 50.4 30.5 50.05 30.5 50.0 30.3 50.05 30.1 50.3 30.0 50.5 30.05 50.6 30.25 50.65 30.2 50.75 30.15 50.75 29.9 50.9 29.65 M53.75 23.45 L54.2 24.1 53.55 24.65 51.65 24.65 53.75 23.45 M52.7 15.8 Q52.75 15.55 52.95 15.65 L53.05 15.65 53.15 15.8 53.1 16.0 52.85 16.1 Q52.6 16.05 52.7 15.8 M55.2 17.05 L54.5 16.35 Q54.4 16.1 54.55 16.0 54.75 15.8 54.95 16.0 L55.45 16.45 55.45 16.5 55.55 16.5 55.65 16.65 56.0 16.8 56.15 16.9 56.0 17.0 55.6 16.95 55.2 17.05 M54.75 24.15 L53.45 22.4 49.0 22.4 47.7 24.15 48.85 25.1 50.0 25.1 50.0 26.45 50.35 25.95 50.35 25.1 50.55 25.1 50.55 25.95 50.85 25.95 50.85 25.1 51.05 25.1 51.05 25.95 51.4 25.95 51.4 25.1 51.6 25.1 51.6 25.95 51.9 25.95 51.9 25.1 52.1 25.1 52.1 25.95 52.45 26.45 52.45 25.1 53.6 25.1 54.75 24.15 M48.25 24.1 L48.7 23.45 50.8 24.65 48.95 24.65 48.25 24.1 M53.05 19.3 L52.8 19.5 Q55.45 22.2 56.0 24.65 L56.05 24.75 56.45 24.55 56.75 24.7 56.75 25.05 56.35 25.4 56.5 25.8 56.4 26.1 56.15 26.2 56.15 26.35 55.95 26.6 55.6 26.55 55.3 26.25 Q53.6 27.55 51.8 28.45 L51.45 28.75 51.55 28.85 51.55 29.1 51.3 29.2 51.05 29.05 50.95 29.15 50.75 29.15 50.6 29.05 50.25 29.2 50.2 29.3 49.95 29.4 49.8 29.15 Q49.65 29.0 49.75 28.85 L50.15 28.25 49.95 28.0 49.75 27.95 Q48.75 27.25 47.9 26.1 L46.45 23.9 46.3 24.0 46.1 23.95 46.05 23.75 46.2 23.55 45.65 22.7 Q45.55 22.5 45.75 22.4 L46.1 22.45 46.55 23.15 46.6 23.1 45.9 22.1 45.95 21.8 46.3 21.85 47.0 22.65 Q48.4 21.35 51.2 19.8 L51.0 19.1 Q50.95 18.85 51.15 18.75 51.4 18.65 51.5 18.9 L51.8 19.45 51.9 19.35 52.05 19.2 52.25 19.15 52.75 18.9 Q52.9 18.8 53.1 19.0 L53.05 19.3 M50.25 19.45 L50.25 19.55 49.6 20.05 49.35 20.35 48.9 20.9 48.8 20.95 47.85 21.65 47.45 21.6 Q47.25 21.4 47.4 21.25 L47.9 20.8 48.45 20.5 48.9 20.05 49.35 19.7 Q49.75 19.45 50.1 19.35 L50.25 19.45 M45.3 24.35 L45.45 24.5 45.5 24.7 45.4 24.9 44.95 25.0 44.8 24.9 44.7 24.8 44.85 24.45 45.15 24.35 45.3 24.35 M46.95 15.95 L47.0 15.95 47.35 16.05 47.3 16.4 47.05 16.55 47.4 16.45 47.65 16.45 47.95 16.2 Q48.2 16.05 48.35 16.2 48.55 16.4 48.4 16.55 L48.45 16.8 48.3 17.0 Q48.55 17.45 48.15 17.8 L48.05 17.85 47.9 18.0 44.55 20.55 43.45 21.45 42.25 22.6 44.05 25.2 44.9 26.05 45.75 26.8 47.05 28.35 Q47.35 28.65 47.25 29.05 L46.9 29.65 47.25 30.25 47.2 30.55 46.85 30.55 46.2 29.7 46.1 29.65 45.75 29.3 45.9 30.15 45.75 30.45 Q45.5 30.55 45.4 30.3 L45.0 29.4 44.7 29.25 43.85 28.2 43.0 27.1 41.45 25.1 Q40.8 24.8 40.2 24.05 39.6 23.25 39.55 22.6 39.5 21.95 40.0 21.55 40.05 21.0 40.45 20.6 L41.4 19.75 43.85 17.9 45.3 16.75 Q46.15 16.15 46.95 15.95 M49.4 15.3 L49.5 15.1 49.75 14.95 50.0 15.0 50.05 15.25 49.9 15.4 49.9 15.45 49.8 15.5 49.75 15.5 49.55 15.5 49.5 15.5 49.4 15.3 M48.45 14.95 L48.8 15.0 48.75 15.35 48.25 15.8 48.2 15.8 48.15 15.85 47.95 15.9 47.65 16.0 47.5 15.9 47.6 15.7 47.7 15.65 Q47.65 15.45 47.85 15.35 L48.45 14.95 M60.3 21.95 L60.15 23.35 60.35 25.8 60.55 25.7 Q62.65 24.75 63.65 24.4 L62.85 23.7 61.1 21.65 61.05 21.55 60.35 21.1 60.3 21.95 M56.15 17.2 Q56.0 17.05 56.2 16.9 L56.55 16.85 57.65 17.45 Q58.4 17.55 59.2 18.0 L59.5 17.95 59.7 18.2 59.7 18.3 61.15 19.45 62.2 20.3 62.95 20.75 64.5 21.55 Q65.4 22.0 65.9 22.55 66.85 23.1 67.0 23.6 L66.95 23.8 67.15 24.0 67.25 23.8 67.45 23.75 67.65 23.8 67.85 23.75 67.95 23.8 68.05 23.6 68.25 23.6 68.35 23.75 68.85 23.95 69.1 24.1 69.3 24.35 69.2 24.5 68.85 24.5 68.6 24.35 68.15 24.2 68.0 24.3 67.45 24.3 67.5 24.35 67.75 24.35 68.0 24.6 67.8 24.9 67.3 25.0 67.3 25.2 67.1 25.4 66.25 25.55 65.25 26.15 64.2 26.55 61.75 27.25 63.25 27.75 64.7 28.15 66.2 28.55 67.15 28.8 68.15 29.05 68.5 29.15 68.55 29.2 68.75 29.2 68.9 29.35 68.9 29.55 68.85 29.65 68.7 29.7 66.3 29.3 Q67.45 29.7 68.0 30.3 L68.6 30.65 68.65 30.7 Q69.45 31.1 69.9 31.7 L69.9 31.95 69.7 32.0 68.15 31.25 68.05 31.15 66.65 30.65 64.95 30.2 66.6 30.9 68.25 31.6 68.35 31.75 68.15 31.85 Q65.1 31.4 61.7 29.05 L60.2 28.5 59.8 30.75 59.7 30.9 59.5 32.35 59.4 33.8 59.15 34.0 59.0 34.05 58.85 33.9 58.85 33.5 58.7 33.6 58.5 33.45 58.5 33.25 58.4 33.1 58.35 32.3 57.75 32.2 Q57.35 31.85 57.35 31.1 L57.45 29.9 57.8 26.15 58.1 23.9 Q58.1 22.25 58.35 20.55 L58.35 20.5 Q58.15 20.05 58.4 19.65 L56.55 18.1 Q56.35 17.9 56.55 17.7 L56.15 17.2" fill="#790000" fill-rule="evenodd" stroke="none"/>
  </g>
</svg>
