<?xml version="1.0" encoding="UTF-8" standalone="no"?>
<svg xmlns:xlink="http://www.w3.org/1999/xlink" height="14.55px" width="138.4px" xmlns="http://www.w3.org/2000/svg">
  <g transform="matrix(1.0, 0.0, 0.0, 1.0, -2.8, -11.85)">
    <path d="M21.65 21.4 Q21.65 23.5 20.5 24.95 19.25 26.4 17.55 26.4 L4.95 26.4 4.05 26.1 Q3.75 25.7 3.75 25.2 3.75 24.65 4.05 24.3 4.45 23.95 4.95 23.95 L17.55 23.95 Q18.2 23.95 18.7 23.2 19.2 22.45 19.2 21.4 19.2 20.4 18.7 19.6 18.2 18.85 17.55 18.85 L8.25 18.85 Q7.75 18.85 7.4 18.5 7.05 18.15 7.05 17.6 7.05 17.1 7.4 16.75 7.75 16.35 8.25 16.35 L17.55 16.35 Q19.25 16.35 20.5 17.85 21.65 19.3 21.65 21.4 M34.95 15.85 Q34.45 15.1 33.8 15.1 L6.9 15.1 Q6.25 15.1 5.75 15.85 5.25 16.6 5.25 17.6 5.25 18.65 5.75 19.4 6.25 20.15 6.9 20.15 L16.2 20.15 Q16.75 20.15 17.1 20.55 17.45 20.9 17.45 21.4 L17.1 22.3 Q16.75 22.65 16.2 22.65 L6.9 22.65 Q5.2 22.65 4.0 21.2 2.8 19.7 2.8 17.6 2.8 15.5 4.0 14.05 5.2 12.6 6.9 12.6 L33.8 12.6 Q35.5 12.6 36.7 14.05 37.9 15.5 37.9 17.6 37.9 19.7 36.7 21.2 35.5 22.65 33.8 22.65 L27.15 22.65 Q26.65 22.65 26.25 22.3 25.95 21.9 25.95 21.4 25.95 20.9 26.25 20.55 26.65 20.15 27.15 20.15 L33.8 20.15 Q34.45 20.15 34.95 19.4 35.45 18.65 35.45 17.6 35.45 16.6 34.95 15.85 M23.75 15.85 Q24.3 15.85 24.65 16.2 L25.0 17.1 25.0 25.2 24.65 26.1 23.75 26.4 22.9 26.1 Q22.5 25.7 22.5 25.2 L22.5 17.1 Q22.5 16.55 22.9 16.2 23.25 15.85 23.75 15.85 M45.3 12.6 Q45.95 12.6 46.3 13.1 L54.9 24.45 Q55.2 24.85 55.15 25.35 55.1 25.9 54.65 26.2 54.35 26.4 53.9 26.4 53.3 26.4 52.9 25.95 L50.45 22.65 43.45 22.65 Q42.95 22.65 42.55 22.3 42.2 21.9 42.2 21.4 42.2 20.9 42.55 20.55 42.95 20.15 43.45 20.15 L48.55 20.15 45.35 15.95 38.3 25.9 Q37.95 26.4 37.25 26.4 L36.55 26.2 Q36.15 25.9 36.1 25.4 36.0 24.95 36.25 24.5 L44.3 13.1 Q44.7 12.6 45.3 12.6 M86.1 14.2 Q85.7 14.6 85.15 14.6 L60.35 14.6 Q59.05 14.6 58.1 15.9 57.15 17.25 57.15 19.1 57.15 21.0 58.1 22.35 59.05 23.7 60.35 23.7 L68.65 23.7 Q69.15 23.7 69.55 24.05 69.9 24.4 69.9 24.9 L69.55 25.8 68.65 26.15 60.35 26.15 Q58.0 26.15 56.35 24.1 54.65 22.0 54.65 19.1 54.65 16.25 56.35 14.15 58.0 12.1 60.35 12.1 L85.15 12.1 Q85.7 12.1 86.1 12.5 L86.45 13.3 Q86.45 13.85 86.1 14.2 M101.65 19.4 Q101.1 18.65 100.5 18.65 L91.15 18.65 Q90.65 18.65 90.3 18.25 89.95 17.9 89.95 17.4 89.95 16.9 90.3 16.5 90.65 16.15 91.15 16.15 L100.5 16.15 Q102.15 16.15 103.4 17.6 104.6 19.1 104.6 21.2 104.6 23.25 103.4 24.75 102.15 26.2 100.5 26.2 L79.6 26.2 79.3 26.15 70.9 26.15 70.9 16.3 Q70.9 15.8 71.3 15.4 71.65 15.1 72.2 15.1 72.7 15.1 73.05 15.4 73.45 15.8 73.45 16.3 L73.45 17.9 81.15 17.9 Q81.65 17.9 82.05 18.25 L82.35 19.1 82.05 20.0 81.15 20.35 73.45 20.35 73.45 23.7 85.15 23.7 85.5 23.75 100.5 23.75 Q101.1 23.75 101.65 22.95 102.15 22.2 102.15 21.2 102.15 20.15 101.65 19.4 M103.35 12.35 Q103.85 12.35 104.25 12.7 104.6 13.1 104.6 13.6 L104.25 14.45 Q103.85 14.85 103.35 14.85 L90.75 14.85 Q90.1 14.85 89.6 15.6 89.1 16.35 89.1 17.4 89.1 18.4 89.6 19.2 90.1 19.9 90.75 19.9 L100.05 19.9 Q100.6 19.9 100.9 20.3 101.3 20.65 101.3 21.2 101.3 21.7 100.9 22.05 100.6 22.45 100.05 22.45 L90.75 22.45 Q89.05 22.45 87.85 20.95 86.65 19.45 86.65 17.4 86.65 15.3 87.85 13.85 89.05 12.35 90.75 12.35 L103.35 12.35 M120.35 12.45 Q120.6 12.9 120.5 13.4 120.4 13.9 119.95 14.15 L111.9 19.2 120.6 23.9 Q121.05 24.1 121.2 24.6 121.35 25.1 121.1 25.55 120.7 26.2 120.0 26.2 L119.4 26.05 108.15 19.95 108.15 24.95 Q108.15 25.5 107.75 25.85 107.4 26.2 106.85 26.2 106.35 26.2 106.0 25.85 105.65 25.5 105.65 24.95 L105.65 13.6 Q105.65 13.1 106.0 12.7 106.35 12.35 106.85 12.35 107.4 12.35 107.75 12.7 108.15 13.1 108.15 13.6 L108.15 18.65 118.65 12.05 119.3 11.85 Q119.95 11.85 120.35 12.45 M123.45 11.85 Q123.95 11.85 124.35 12.25 124.7 12.6 124.7 13.1 L124.7 24.95 Q124.7 25.5 124.35 25.85 123.95 26.2 123.45 26.2 122.95 26.2 122.6 25.85 122.2 25.5 122.2 24.95 L122.2 13.1 Q122.2 12.6 122.6 12.25 122.95 11.85 123.45 11.85 M141.2 13.1 L141.2 24.95 141.0 25.65 140.45 26.1 139.95 26.2 139.1 25.9 128.35 15.95 128.35 24.95 Q128.35 25.5 128.0 25.85 L127.1 26.2 Q126.6 26.2 126.25 25.85 125.85 25.5 125.85 24.95 L125.85 13.1 126.05 12.45 Q126.25 12.15 126.6 11.95 L127.3 11.9 127.95 12.2 138.7 22.1 138.7 13.1 Q138.7 12.6 139.05 12.25 139.45 11.85 139.95 11.85 140.45 11.85 140.85 12.25 141.2 12.6 141.2 13.1" fill="#790000" fill-rule="evenodd" stroke="none"/>
  </g>
</svg>
