<?xml version="1.0" encoding="UTF-8" standalone="no"?>
<svg xmlns:xlink="http://www.w3.org/1999/xlink" height="31.35px" width="125.7px" xmlns="http://www.w3.org/2000/svg">
  <g transform="matrix(1.0, 0.0, 0.0, 1.0, -5.25, -3.8)">
    <path d="M31.25 14.4 Q31.25 10.95 29.6 9.35 28.1 7.8 24.65 7.8 L16.4 7.8 Q12.95 7.8 11.4 9.35 9.8 10.95 9.8 14.4 L9.8 24.9 Q9.8 28.35 11.4 29.95 12.95 31.5 16.4 31.5 L24.65 31.5 Q28.1 31.5 29.6 29.95 31.25 28.35 31.25 24.9 L31.25 21.9 25.25 21.9 25.25 24.9 Q25.25 26.95 23.3 26.95 L17.7 26.95 Q15.75 26.95 15.75 24.9 L15.75 14.4 Q15.75 12.45 17.7 12.45 L23.3 12.45 Q25.25 12.45 25.25 14.4 L25.25 18.0 31.25 18.0 31.25 14.4 M58.25 31.15 L58.25 8.15 52.0 8.15 45.4 20.35 38.85 8.15 32.6 8.15 32.6 31.15 38.5 31.15 38.5 18.35 43.15 26.6 47.7 26.6 52.3 18.35 52.3 31.15 58.25 31.15 M74.5 19.65 L77.95 19.65 77.95 30.85 75.6 30.85 75.6 22.6 73.65 28.45 71.35 28.45 69.4 22.6 69.4 30.85 67.1 30.85 67.1 19.65 70.5 19.65 72.5 25.7 74.5 19.65 M6.7 5.3 Q8.15 3.8 10.25 3.8 L58.25 3.8 Q60.3 3.8 61.75 5.3 63.25 6.75 63.25 8.85 L63.25 30.15 Q63.25 32.2 61.75 33.7 60.3 35.15 58.25 35.15 L10.25 35.15 Q8.15 35.15 6.7 33.7 5.25 32.2 5.25 30.15 L5.25 8.85 Q5.25 6.75 6.7 5.3 M74.3 11.4 L73.7 10.2 Q73.1 9.65 71.75 9.65 70.3 9.65 69.7 10.6 69.05 11.6 69.05 13.8 69.05 15.65 69.6 16.55 70.3 17.45 71.8 17.45 73.0 17.45 73.6 17.05 74.15 16.55 74.3 15.45 L76.6 15.45 Q76.35 19.4 71.75 19.4 69.2 19.4 67.95 18.05 66.7 16.6 66.7 13.6 66.7 10.6 67.9 9.15 69.2 7.7 71.75 7.7 76.1 7.7 76.6 11.4 L74.3 11.4 M85.3 26.6 Q84.6 24.25 83.7 22.25 L82.0 26.6 85.3 26.6 M93.1 21.4 L91.8 21.6 Q91.35 21.85 91.35 22.5 91.35 23.05 91.7 23.35 L92.5 23.75 95.0 24.4 Q96.45 24.75 97.1 25.35 97.9 26.15 97.9 27.65 97.9 31.15 93.55 31.15 90.95 31.15 89.85 30.1 88.9 29.25 88.75 27.35 L91.05 27.35 Q91.15 28.35 91.55 28.7 L93.55 29.15 95.0 28.95 Q95.6 28.6 95.6 27.85 L95.3 27.0 Q95.0 26.65 94.3 26.5 L91.55 25.75 Q90.35 25.5 89.8 24.9 89.0 24.1 89.0 22.75 89.0 19.4 93.25 19.4 97.5 19.4 97.55 22.95 L95.25 22.95 94.95 21.8 93.1 21.4 M82.4 19.65 L85.0 19.65 Q87.45 25.1 89.15 30.85 L86.65 30.85 86.0 28.5 81.45 28.5 80.75 30.85 78.3 30.85 Q80.05 24.95 82.4 19.65 M83.2 12.55 Q83.8 12.2 83.8 11.25 83.8 10.35 83.35 10.1 L81.45 9.85 79.25 9.85 79.25 12.8 81.3 12.8 83.2 12.55 M86.1 11.3 Q86.1 12.85 85.55 13.65 85.0 14.4 83.9 14.6 L86.85 19.15 84.05 19.15 81.3 14.75 79.25 14.75 79.25 19.15 76.9 19.15 76.9 7.9 81.75 7.9 Q84.0 7.9 84.8 8.35 86.1 9.1 86.1 11.3 M87.05 7.9 L89.4 7.9 89.4 19.15 87.05 19.15 87.05 7.9 M99.1 7.9 L99.1 9.9 95.75 9.9 95.75 19.15 93.45 19.15 93.45 9.9 90.05 9.9 90.05 7.9 99.1 7.9 M102.05 7.9 L102.05 19.15 99.75 19.15 99.75 7.9 102.05 7.9 M117.15 10.55 Q116.3 12.45 115.5 14.85 L118.8 14.85 117.15 10.55 M99.25 24.9 Q98.5 24.1 98.5 22.75 98.5 19.4 102.7 19.4 106.95 19.4 107.1 22.95 L104.8 22.95 104.4 21.8 Q103.95 21.4 102.65 21.4 L101.3 21.6 Q100.85 21.85 100.85 22.5 100.85 23.05 101.2 23.35 L102.0 23.75 104.45 24.4 Q105.9 24.75 106.55 25.35 107.45 26.15 107.45 27.65 107.45 29.75 105.85 30.55 104.8 31.15 103.05 31.15 100.45 31.15 99.3 30.1 98.35 29.25 98.25 27.35 L100.6 27.35 Q100.65 28.35 101.0 28.7 101.5 29.15 103.05 29.15 L104.5 28.95 Q105.1 28.6 105.1 27.85 L104.8 27.0 Q104.5 26.65 103.75 26.5 L101.05 25.75 Q99.85 25.5 99.25 24.9 M109.4 17.05 Q110.0 16.55 110.1 15.45 L112.45 15.45 Q112.15 19.4 107.6 19.4 105.05 19.4 103.8 18.05 102.5 16.6 102.5 13.6 102.5 10.6 103.75 9.15 105.05 7.7 107.6 7.7 111.9 7.7 112.45 11.4 L110.1 11.4 Q109.9 10.55 109.5 10.2 108.95 9.65 107.6 9.65 106.2 9.65 105.5 10.6 104.85 11.6 104.85 13.8 104.85 15.65 105.5 16.55 106.1 17.45 107.65 17.45 108.85 17.45 109.4 17.05 M114.2 19.15 L111.75 19.15 Q113.5 13.15 115.9 7.9 L118.5 7.9 Q120.95 13.4 122.6 19.15 L120.1 19.15 119.45 16.8 114.9 16.8 114.2 19.15 M130.95 17.2 L130.95 19.15 123.1 19.15 123.1 7.9 125.35 7.9 125.35 17.2 130.95 17.2" fill="#790000" fill-rule="evenodd" stroke="none"/>
  </g>
</svg>
