<?xml version="1.0" encoding="UTF-8" standalone="no"?>
<svg xmlns:xlink="http://www.w3.org/1999/xlink" height="18.6px" width="139.9px" xmlns="http://www.w3.org/2000/svg">
  <g transform="matrix(1.0, 0.0, 0.0, 1.0, -2.6, -10.4)">
    <path d="M11.95 10.75 L12.8 10.9 Q12.55 11.0 12.5 11.4 12.35 11.75 12.35 12.2 L12.35 14.2 12.55 15.15 13.0 15.65 Q12.35 15.75 12.05 16.0 11.65 16.15 11.55 16.6 L11.35 17.65 11.05 17.65 10.8 16.5 10.3 16.0 Q10.0 15.75 9.4 15.65 L9.7 15.15 9.8 14.2 9.8 12.85 Q9.8 12.2 9.3 11.9 8.8 11.6 7.95 11.6 7.25 11.6 6.9 11.9 6.6 12.15 6.6 12.65 L6.7 13.8 7.1 15.0 7.55 16.0 8.45 17.25 9.7 18.5 Q10.3 19.0 10.95 19.15 L10.6 19.45 10.6 19.75 11.05 19.9 11.65 20.0 Q11.35 20.2 11.35 20.65 11.35 21.1 11.95 21.85 L12.55 22.95 13.1 24.4 13.4 25.85 Q13.4 26.6 12.8 27.3 L11.25 28.5 8.25 29.0 7.25 28.9 6.4 28.85 5.7 28.8 5.1 28.75 4.45 28.8 4.05 29.0 3.55 28.65 2.7 28.5 3.0 28.05 3.15 27.15 3.15 24.6 3.0 23.8 2.6 23.3 3.75 23.05 4.25 22.45 4.45 21.4 4.75 21.4 4.95 22.45 5.5 23.05 6.4 23.3 6.2 23.75 6.1 24.6 6.1 26.25 Q6.1 27.1 6.6 27.45 7.05 27.8 7.65 27.8 8.65 27.8 9.1 27.45 9.5 27.1 9.5 26.45 9.4 25.0 8.65 23.7 L7.1 21.4 6.2 20.65 5.35 20.35 5.6 20.05 5.6 19.75 5.1 19.5 4.55 19.35 4.65 18.8 Q4.65 18.4 4.25 17.85 L3.55 16.65 2.9 14.95 2.6 13.2 Q2.6 12.45 3.15 11.75 3.6 11.2 4.75 10.75 L7.45 10.45 8.25 10.45 9.0 10.5 9.55 10.6 10.3 10.65 10.95 10.6 11.35 10.45 11.95 10.75 M31.0 10.7 L31.8 10.85 31.4 12.9 31.1 12.9 31.1 12.2 31.0 11.95 30.8 11.9 Q30.6 11.9 30.6 12.05 L30.45 12.35 30.45 17.25 Q30.45 18.25 30.8 18.65 L31.3 19.1 31.0 19.3 30.8 19.6 31.0 19.9 31.4 20.05 30.8 20.65 Q30.45 21.05 30.45 22.3 L30.45 27.3 30.6 27.45 30.8 27.5 31.1 27.45 31.2 27.3 31.2 26.45 31.65 26.45 32.15 28.5 31.3 28.65 Q30.8 28.75 30.65 29.0 L30.4 28.85 29.85 28.8 29.25 28.75 28.65 28.75 27.4 28.8 26.45 29.0 Q26.35 28.8 25.85 28.65 L24.8 28.5 25.2 26.45 25.65 26.45 25.65 27.25 25.75 27.45 25.95 27.55 26.25 27.45 26.35 27.05 26.35 22.1 26.15 20.65 25.65 20.05 25.95 19.9 26.15 19.6 26.05 19.35 25.65 19.1 26.15 18.5 26.35 17.35 26.35 14.8 26.15 14.8 25.45 17.75 25.35 18.5 25.45 19.1 Q25.15 19.15 25.0 19.3 L24.8 19.55 25.0 19.9 25.45 20.05 Q25.15 20.2 25.0 20.65 L24.6 21.75 23.2 28.5 22.55 28.65 22.05 29.0 21.5 28.65 20.9 28.5 19.5 21.95 19.15 20.9 18.95 20.3 18.75 20.05 19.05 19.9 19.15 19.6 19.05 19.3 18.65 19.1 18.75 18.65 18.65 17.75 18.0 14.8 17.75 14.8 17.75 17.4 17.95 18.65 18.35 19.1 18.15 19.3 18.0 19.6 18.15 19.9 18.45 20.05 Q18.15 20.3 17.95 21.0 L17.75 22.55 17.75 27.25 17.8 27.45 18.15 27.55 18.35 27.5 18.45 27.25 18.45 26.45 18.85 26.45 19.5 28.5 18.65 28.65 18.15 29.0 17.8 28.85 17.5 28.8 17.1 28.75 16.6 28.75 15.75 28.8 15.15 29.0 14.45 28.65 13.5 28.5 14.05 26.4 14.3 26.4 14.45 27.25 14.45 27.45 14.75 27.5 14.95 27.45 14.95 21.95 14.75 20.55 14.25 20.05 14.55 19.9 14.75 19.6 14.65 19.3 14.1 19.1 14.75 18.65 14.95 17.25 14.95 12.4 14.95 11.95 14.75 11.85 14.3 11.95 14.3 12.2 14.3 12.85 13.8 12.85 13.5 10.85 14.45 10.7 15.15 10.45 15.55 10.45 16.05 10.6 16.7 10.65 17.2 10.65 18.45 10.6 19.25 10.45 20.0 10.65 21.1 10.75 22.55 17.85 22.85 17.85 24.4 10.75 25.45 10.65 26.25 10.45 26.7 10.45 27.2 10.6 27.8 10.65 28.2 10.65 29.45 10.6 30.4 10.45 31.0 10.7 M38.3 11.75 Q38.0 11.95 38.0 12.45 L38.0 17.15 38.1 18.25 38.4 18.8 38.85 19.1 Q38.4 19.15 38.3 19.3 L38.1 19.6 38.3 19.9 38.85 20.15 Q38.3 20.35 38.1 20.9 L38.0 22.35 38.0 26.85 Q38.0 27.4 38.3 27.55 L39.35 27.8 40.35 27.55 Q40.8 27.4 40.8 26.85 L40.8 22.2 40.55 21.0 40.35 20.4 39.85 20.15 40.35 19.9 40.55 19.6 40.35 19.35 39.85 19.1 40.55 18.4 40.8 17.15 40.8 12.4 Q40.8 11.95 40.45 11.75 L39.4 11.6 38.3 11.75 M42.55 10.6 Q43.45 10.75 44.15 11.2 44.85 11.7 45.0 12.55 L45.0 16.9 45.05 18.15 45.4 18.65 45.8 19.0 45.4 19.25 45.2 19.55 45.4 19.8 45.8 20.0 45.2 20.65 45.0 22.1 45.0 26.0 Q44.85 27.1 44.15 27.75 43.45 28.4 42.55 28.65 L40.85 29.0 Q40.8 28.85 40.55 28.85 L40.25 28.8 39.85 28.75 39.35 28.75 38.4 28.8 37.85 29.0 36.25 28.75 Q35.35 28.5 34.5 28.05 33.75 27.55 33.75 26.85 L33.75 21.75 33.45 20.65 Q33.15 20.3 32.85 20.15 L33.4 19.9 33.45 19.65 33.4 19.4 32.85 19.2 33.25 18.9 33.55 18.35 33.75 17.35 33.75 12.85 Q33.75 11.75 35.0 11.15 36.1 10.45 37.8 10.45 L38.1 10.5 38.4 10.6 38.9 10.65 39.4 10.65 40.45 10.6 40.95 10.45 42.55 10.6 M61.05 10.65 L61.85 10.75 60.3 12.9 59.9 12.9 60.3 12.2 60.4 11.95 60.2 11.9 59.9 11.95 59.6 12.2 56.6 16.9 57.0 18.1 58.15 19.1 Q57.85 19.2 57.7 19.4 57.5 19.55 57.65 19.7 L57.95 20.0 58.45 20.15 58.05 20.65 Q57.85 21.0 58.05 21.7 L59.9 27.4 60.0 27.55 60.3 27.65 60.4 27.55 60.4 27.45 60.4 26.6 60.7 26.6 61.55 28.5 60.9 28.65 60.4 29.0 60.0 28.85 59.45 28.8 58.95 28.75 58.35 28.75 57.2 28.8 56.4 29.0 55.55 28.65 54.65 28.5 54.2 26.5 54.55 26.5 54.95 27.3 55.25 27.5 55.55 27.55 55.7 27.45 55.7 27.1 53.65 20.45 53.5 20.45 52.4 22.35 52.4 27.45 52.6 27.55 52.9 27.45 53.0 27.25 53.0 26.5 53.3 26.5 53.7 28.5 52.9 28.65 Q52.5 28.85 52.25 29.0 L51.9 28.85 51.35 28.8 50.75 28.75 50.25 28.75 49.1 28.8 48.25 29.0 47.55 28.65 46.75 28.5 47.25 26.35 47.55 26.35 47.55 27.15 47.65 27.45 48.0 27.45 48.2 27.4 48.2 27.1 48.2 22.15 Q48.2 21.05 48.0 20.65 L47.35 20.0 47.75 19.8 48.0 19.5 47.75 19.2 47.35 18.9 48.0 18.4 48.2 17.15 48.2 12.05 48.2 11.75 48.0 11.7 47.65 11.75 47.55 12.1 47.55 12.8 47.15 12.8 46.8 10.75 47.75 10.65 48.5 10.45 48.9 10.5 49.3 10.6 49.95 10.65 50.45 10.65 51.7 10.6 52.6 10.45 53.2 10.7 54.0 10.75 53.5 12.9 53.2 12.9 53.1 12.15 53.0 11.95 52.8 11.9 52.5 11.95 52.4 12.35 52.4 18.65 52.5 18.65 56.7 12.2 56.8 11.95 56.6 11.85 56.3 11.85 56.1 12.05 55.45 12.9 55.2 12.85 56.2 10.7 57.2 10.65 57.85 10.45 58.05 10.45 58.35 10.6 58.75 10.65 59.1 10.65 59.8 10.6 60.3 10.45 61.05 10.65 M73.5 10.85 L73.15 11.2 73.05 11.95 73.05 14.4 73.15 15.15 73.35 15.65 Q72.75 15.75 72.3 16.0 72.05 16.15 71.95 16.6 71.75 16.9 71.75 17.65 L71.4 17.65 Q71.4 16.65 71.0 16.2 70.7 15.85 69.65 15.65 L70.0 15.15 70.1 14.3 70.1 12.85 Q70.1 12.2 69.8 11.9 L68.85 11.65 Q68.1 11.6 67.85 11.9 67.5 12.15 67.5 12.85 L67.5 17.65 Q67.5 18.45 67.7 18.65 L68.35 18.9 68.75 18.65 68.95 18.45 68.85 18.25 68.75 18.1 68.6 17.85 68.55 17.5 Q68.6 17.25 69.05 17.1 L69.85 16.9 69.65 17.1 69.65 17.25 69.8 17.5 70.3 17.8 70.7 18.1 70.9 18.45 70.7 18.9 70.1 19.15 71.2 19.6 70.1 20.0 70.7 20.35 70.9 20.8 70.8 21.15 70.3 21.45 69.65 21.8 69.35 22.1 69.45 22.3 69.65 22.45 68.85 22.35 68.45 21.85 68.55 21.55 68.75 21.2 68.95 21.0 68.95 20.75 68.75 20.5 68.25 20.4 Q67.7 20.35 67.6 20.7 67.4 21.05 67.5 22.1 L67.5 27.05 Q67.5 27.45 67.85 27.65 L68.85 27.8 69.85 27.55 Q70.2 27.3 70.1 26.6 L70.1 24.8 70.1 24.05 69.8 23.5 70.8 23.15 71.4 22.6 71.55 21.45 71.8 21.45 Q71.8 22.3 72.05 22.7 72.1 23.05 72.55 23.2 L73.55 23.55 73.15 24.0 73.05 24.8 73.05 27.0 73.05 27.8 73.15 28.3 73.5 28.5 72.75 28.65 72.1 28.85 71.8 28.85 71.4 28.8 71.1 28.75 70.7 28.75 69.85 28.8 69.25 28.85 68.6 28.9 67.7 29.0 67.0 28.9 66.15 28.85 65.35 28.75 64.55 28.75 63.9 28.8 63.3 29.0 62.65 28.65 61.75 28.5 62.25 26.25 62.65 26.25 62.65 27.1 62.65 27.4 62.95 27.45 63.3 27.4 63.3 27.1 63.3 22.45 Q63.3 21.3 62.95 20.7 L62.45 20.05 62.9 19.8 63.1 19.55 62.9 19.3 62.45 19.1 63.1 18.45 63.3 17.15 63.3 12.15 63.3 11.9 63.1 11.85 62.8 11.9 Q62.65 11.95 62.65 12.15 L62.65 12.95 62.25 12.95 61.85 10.85 62.65 10.7 63.4 10.45 63.7 10.5 64.2 10.6 64.75 10.65 65.35 10.65 66.35 10.6 67.1 10.5 67.7 10.45 68.25 10.45 69.05 10.45 69.65 10.5 70.3 10.6 71.0 10.65 71.6 10.6 72.25 10.45 72.75 10.7 73.5 10.85 M108.95 18.25 L108.95 17.9 108.75 15.5 108.65 15.25 108.55 15.2 108.35 15.25 108.35 15.5 108.05 17.9 108.15 18.65 108.45 19.1 108.15 19.3 108.05 19.65 108.15 19.9 108.45 20.15 107.8 20.7 Q107.55 21.15 107.55 21.7 107.4 22.1 107.6 22.35 L108.55 22.45 109.5 22.35 109.55 21.7 109.25 20.7 108.65 20.15 109.05 19.9 109.05 19.65 108.65 19.1 108.85 18.8 108.95 18.25 M90.75 15.65 Q90.15 15.75 89.85 16.0 89.45 16.15 89.3 16.6 L89.1 17.65 88.8 17.65 88.6 16.5 88.1 16.0 Q87.75 15.75 87.15 15.65 L87.45 15.15 87.55 14.2 87.55 12.85 Q87.55 12.2 87.05 11.9 L85.7 11.6 Q85.0 11.6 84.7 11.9 84.4 12.15 84.4 12.65 L84.45 13.8 84.9 15.0 85.3 16.0 86.2 17.25 87.45 18.5 88.7 19.15 88.4 19.45 88.4 19.75 88.8 19.9 89.45 20.0 Q89.1 20.2 89.1 20.65 89.1 21.1 89.7 21.85 L90.35 22.95 90.85 24.4 91.15 25.85 Q91.15 26.6 90.55 27.3 90.15 28.05 89.0 28.5 L86.0 29.0 85.0 28.9 84.2 28.85 83.45 28.8 82.85 28.75 82.25 28.8 81.8 29.0 81.3 28.65 80.5 28.5 80.75 28.05 80.9 27.15 80.9 24.6 80.75 23.8 80.35 23.3 81.5 23.05 82.0 22.45 82.25 21.4 82.5 21.4 Q82.5 22.1 82.75 22.45 82.85 22.85 83.25 23.05 L84.2 23.3 83.95 23.75 83.85 24.6 83.85 26.25 Q83.85 27.1 84.4 27.45 84.8 27.8 85.4 27.8 86.45 27.8 86.85 27.45 87.25 27.1 87.25 26.45 87.15 25.0 86.45 23.7 L84.9 21.4 83.95 20.65 83.15 20.35 83.35 20.05 83.35 19.75 82.85 19.5 82.3 19.35 82.45 18.8 82.0 17.85 81.3 16.65 80.7 14.95 80.35 13.2 Q80.35 12.45 80.9 11.75 L82.5 10.75 85.2 10.45 86.0 10.45 86.75 10.5 87.35 10.6 88.1 10.65 88.7 10.6 89.1 10.45 89.7 10.75 90.55 10.9 90.25 11.4 90.15 12.2 90.15 14.2 90.35 15.15 90.75 15.65 90.95 15.3 91.15 14.4 91.15 10.85 92.0 10.7 92.6 10.45 92.9 10.5 93.2 10.6 93.95 10.65 94.65 10.6 95.3 10.45 95.6 10.5 96.1 10.6 96.7 10.65 97.35 10.65 98.8 10.6 99.6 10.45 99.9 10.45 100.2 10.6 100.95 10.65 101.75 10.6 102.3 10.45 102.9 10.7 103.7 10.85 103.7 14.4 103.9 15.3 104.3 15.7 Q103.3 15.9 102.9 16.4 102.55 16.85 102.55 17.8 L102.3 17.8 102.15 16.65 101.6 16.05 100.55 15.7 100.85 15.3 101.05 14.4 101.05 12.2 100.75 11.75 100.2 11.65 99.7 11.75 99.5 12.2 99.5 17.6 Q99.5 18.4 99.8 18.8 L100.2 19.3 99.8 19.5 99.7 19.75 99.8 20.05 100.2 20.2 Q99.9 20.3 99.7 20.7 L99.5 21.95 99.5 27.25 99.6 27.45 99.9 27.45 100.2 27.45 100.2 27.25 100.2 26.6 100.75 26.6 101.05 28.5 100.2 28.65 99.6 29.0 Q99.5 28.85 99.2 28.85 L98.6 28.8 98.05 28.75 97.45 28.75 96.4 28.8 95.6 29.0 94.9 28.65 93.85 28.5 94.45 26.6 94.9 26.6 94.9 27.25 94.95 27.45 95.15 27.5 95.4 27.45 95.4 27.25 95.4 21.95 95.15 20.8 Q94.95 20.4 94.55 20.3 L94.95 20.05 95.1 19.8 94.95 19.55 94.55 19.3 95.15 18.75 95.4 17.6 95.4 12.2 95.15 11.75 94.65 11.65 94.15 11.75 Q93.95 11.9 93.95 12.2 L93.95 14.4 94.05 15.3 94.35 15.7 93.35 16.05 Q92.9 16.25 92.8 16.65 L92.6 17.8 92.3 17.8 Q92.3 16.85 92.0 16.4 91.6 15.9 90.65 15.7 L90.75 15.65 M111.1 10.45 L111.45 10.7 111.95 10.85 113.0 16.9 113.25 18.25 113.8 18.9 114.3 19.1 113.8 19.35 113.7 19.6 113.8 19.9 114.3 20.15 113.9 20.75 Q113.7 21.2 113.8 22.05 L114.6 27.25 114.75 27.45 114.95 27.55 115.2 27.45 115.35 27.25 115.35 26.5 115.75 26.5 116.2 28.5 115.55 28.65 115.15 29.0 114.75 28.85 114.25 28.8 113.6 28.75 113.05 28.75 111.95 28.8 111.0 29.0 Q110.9 28.8 110.4 28.65 L109.55 28.5 109.5 26.6 109.75 26.6 110.0 27.4 110.1 27.5 110.3 27.55 110.5 27.45 110.5 27.25 110.2 24.8 109.9 24.45 109.25 24.3 107.6 24.3 Q107.3 24.3 107.1 24.45 L106.9 24.8 106.5 27.25 106.6 27.5 106.9 27.55 107.1 27.5 107.3 27.3 107.4 26.45 107.75 26.45 107.75 28.55 107.05 28.65 106.6 29.0 106.3 28.85 105.85 28.8 105.35 28.75 104.95 28.75 104.25 28.8 103.6 29.0 103.1 28.65 102.5 28.5 102.8 26.5 103.1 26.5 103.1 27.25 103.2 27.45 103.5 27.55 103.8 27.45 103.8 27.25 104.65 21.95 104.55 20.7 104.05 20.15 104.45 19.9 104.65 19.65 104.45 19.35 104.1 19.1 104.65 18.8 105.05 18.15 105.35 16.9 106.5 10.85 107.05 10.7 107.3 10.45 107.6 10.5 108.15 10.6 108.75 10.65 109.25 10.65 110.4 10.6 111.1 10.45 M126.05 10.9 L126.75 10.95 126.45 11.55 126.35 12.45 126.35 14.4 126.45 15.3 126.9 15.7 Q125.9 15.9 125.5 16.2 125.2 16.65 125.2 17.5 L124.8 17.5 124.6 16.5 124.1 16.0 123.15 15.7 123.45 15.15 123.6 14.4 123.6 12.65 123.4 11.95 122.35 11.7 Q121.65 11.7 121.4 11.95 121.1 12.2 121.1 12.65 L121.1 17.15 121.2 18.25 121.5 18.9 121.85 19.1 Q121.5 19.2 121.4 19.35 L121.2 19.65 121.4 19.9 121.85 20.2 Q121.4 20.4 121.2 20.95 L121.1 22.35 121.1 26.85 Q121.1 27.3 121.4 27.55 L122.35 27.8 123.25 27.55 Q123.6 27.3 123.6 26.85 L123.6 24.6 123.45 23.85 123.15 23.5 124.15 23.2 124.7 22.7 124.8 21.55 125.2 21.55 Q125.2 22.2 125.35 22.6 L125.85 23.15 126.9 23.5 Q126.65 23.6 126.55 23.85 L126.55 24.6 126.55 26.35 Q126.55 27.55 125.5 28.3 124.5 28.9 121.9 29.0 119.7 29.0 118.45 28.4 117.2 27.75 117.1 26.1 L117.1 22.35 116.95 20.95 Q116.75 20.4 116.35 20.2 L116.75 19.9 116.95 19.65 116.75 19.35 116.35 19.1 116.9 18.45 117.1 17.15 117.1 13.7 Q117.2 12.35 117.8 11.65 118.3 10.95 119.45 10.7 L121.7 10.45 122.4 10.45 123.25 10.6 123.9 10.7 124.6 10.7 125.15 10.7 125.5 10.6 126.05 10.9 M140.45 10.6 L140.95 10.45 141.7 10.65 142.5 10.75 140.95 12.9 140.5 12.9 140.95 12.2 141.05 11.95 140.85 11.9 140.5 11.95 140.25 12.2 137.25 16.9 137.65 18.1 138.8 19.1 138.4 19.4 Q138.2 19.55 138.3 19.7 L138.55 20.0 139.1 20.15 138.7 20.65 Q138.5 21.0 138.7 21.7 L140.5 27.4 140.65 27.55 140.95 27.65 141.05 27.55 141.05 27.45 141.05 26.6 141.35 26.6 142.2 28.5 141.55 28.65 141.05 29.0 140.65 28.85 140.15 28.8 139.6 28.75 139.0 28.75 137.85 28.8 137.05 29.0 136.25 28.65 135.3 28.5 134.85 26.5 135.2 26.5 135.6 27.3 135.9 27.5 136.25 27.55 136.3 27.45 136.3 27.1 134.3 20.45 134.15 20.45 133.05 22.35 133.05 27.45 133.25 27.55 133.55 27.45 133.65 27.25 133.65 26.5 133.95 26.5 134.35 28.5 133.55 28.65 132.9 29.0 132.55 28.85 132.0 28.8 131.35 28.75 130.85 28.75 129.75 28.8 128.9 29.0 128.2 28.65 127.35 28.5 127.85 26.35 128.2 26.35 128.2 27.15 128.3 27.45 128.6 27.45 128.85 27.4 128.85 27.1 128.85 22.15 128.6 20.65 128.0 20.0 128.4 19.8 128.6 19.5 128.4 19.2 128.0 18.9 128.6 18.4 128.85 17.15 128.85 12.05 128.85 11.75 128.6 11.7 128.3 11.75 128.2 12.1 128.2 12.8 127.8 12.8 127.45 10.75 128.4 10.65 129.1 10.45 129.55 10.5 129.95 10.6 130.6 10.65 131.1 10.65 132.35 10.6 133.25 10.45 133.85 10.7 134.7 10.75 134.15 12.9 133.85 12.9 133.75 12.15 133.65 11.95 133.45 11.9 133.1 11.95 133.05 12.35 133.05 18.65 133.1 18.65 137.35 12.2 137.45 11.95 137.25 11.85 136.95 11.85 136.75 12.05 136.1 12.9 135.8 12.85 136.8 10.7 137.85 10.65 138.5 10.45 138.7 10.45 139.0 10.6 139.4 10.65 139.75 10.65 140.45 10.6" fill="#790000" fill-rule="evenodd" stroke="none"/>
  </g>
</svg>
