<?xml version="1.0" encoding="UTF-8" standalone="no"?>
<svg xmlns:xlink="http://www.w3.org/1999/xlink" height="32.65px" width="66.45px" xmlns="http://www.w3.org/2000/svg">
  <g transform="matrix(1.0, 0.0, 0.0, 1.0, -2.65, -3.7)">
    <path d="M55.7 9.95 L55.7 3.7 69.1 3.7 69.1 19.15 63.65 19.15 63.65 9.95 55.7 9.95 M69.1 20.8 L69.1 36.35 55.7 36.35 55.7 30.15 63.65 30.15 63.65 20.8 69.1 20.8 M62.4 11.25 L62.4 16.35 55.65 16.35 55.65 17.75 62.4 17.75 62.4 28.95 49.6 28.95 49.6 24.2 56.7 24.2 56.7 22.55 49.6 22.55 49.6 11.25 62.4 11.25 M17.65 9.95 L17.65 3.7 54.25 3.7 54.25 9.95 17.65 9.95 M38.85 11.25 L38.85 16.65 41.95 11.25 48.55 11.25 43.7 20.1 48.55 28.95 41.85 28.95 38.85 23.35 38.85 28.95 33.05 28.95 33.05 11.25 38.85 11.25 M54.25 30.15 L54.25 36.35 17.65 36.35 17.65 30.15 54.25 30.15 M31.75 11.25 L31.75 28.95 24.8 28.95 24.8 11.25 31.75 11.25 M8.15 20.8 L8.15 30.15 16.0 30.15 16.0 36.35 2.65 36.35 2.65 20.8 8.15 20.8 M2.65 3.7 L16.0 3.7 16.0 9.95 8.15 9.95 8.15 19.15 2.65 19.15 2.65 3.7 M23.6 11.25 L23.6 28.95 17.5 28.95 17.5 22.85 16.2 22.85 16.2 28.95 9.75 28.95 9.75 11.25 16.2 11.25 16.2 17.4 17.5 17.4 17.5 11.25 23.6 11.25" fill="#790000" fill-rule="evenodd" stroke="none"/>
  </g>
</svg>
