<?xml version="1.0" encoding="UTF-8" standalone="no"?>
<svg xmlns:xlink="http://www.w3.org/1999/xlink" height="16.75px" width="134.45px" xmlns="http://www.w3.org/2000/svg">
  <g transform="matrix(1.0, 0.0, 0.0, 1.0, -3.7, -11.25)">
    <path d="M16.85 15.25 L16.35 17.15 26.25 17.15 Q27.0 17.15 26.7 18.05 26.4 19.15 25.65 19.15 L15.85 19.15 15.25 21.35 Q14.85 22.8 17.5 22.8 L24.7 22.8 Q25.4 22.8 25.15 23.65 24.85 24.8 24.15 24.8 L16.85 24.8 Q15.25 24.8 14.1 24.1 12.7 23.25 13.15 21.45 L14.85 15.25 16.85 15.25 M42.45 12.15 L41.75 13.0 32.45 17.95 39.3 23.15 Q39.7 23.5 39.5 24.0 39.3 24.8 38.5 24.8 L37.45 24.7 30.35 19.25 29.1 23.95 Q28.85 24.8 28.1 24.8 L27.25 24.75 Q26.9 24.55 27.1 23.95 L29.9 13.45 10.75 13.45 7.9 23.95 Q7.65 24.8 6.95 24.8 L6.1 24.75 Q5.65 24.6 5.85 23.95 L8.75 13.35 4.25 13.35 Q3.5 13.35 3.75 12.5 L4.05 11.7 Q4.3 11.35 4.75 11.35 L31.3 11.35 31.3 11.4 31.75 11.35 Q32.45 11.35 32.25 12.25 L31.0 16.75 40.7 11.5 41.85 11.35 Q42.65 11.35 42.45 12.15 M55.7 12.25 Q55.85 11.6 56.35 11.45 L57.2 11.35 Q57.95 11.35 57.7 12.25 L54.7 23.4 Q54.3 24.9 53.15 24.9 L52.2 24.25 45.3 14.55 42.75 23.95 Q42.55 24.6 42.05 24.75 L41.7 24.8 41.15 24.8 Q40.45 24.8 40.7 23.95 L43.7 12.75 Q44.15 11.25 45.15 11.25 45.8 11.25 46.35 12.0 L53.15 21.55 55.7 12.25 M60.65 14.5 L60.4 15.05 58.8 21.15 Q58.35 22.8 61.45 22.8 L64.7 22.8 66.2 22.7 60.65 14.5 M69.9 15.05 Q70.35 13.35 67.25 13.35 L64.0 13.35 62.25 13.55 67.9 21.85 68.25 21.15 69.9 15.05 M67.75 11.35 Q70.15 11.35 71.05 11.9 72.55 12.75 71.95 15.0 L70.25 21.2 Q69.3 24.8 64.1 24.8 L60.95 24.8 Q58.85 24.8 57.75 24.2 56.15 23.25 56.7 21.2 L58.4 15.0 Q59.4 11.35 64.6 11.35 L67.75 11.35 M96.6 14.7 L97.2 15.05 97.45 15.75 97.2 16.5 95.9 18.05 97.2 19.65 97.45 20.4 97.2 21.15 96.6 21.45 Q96.25 21.45 95.95 21.15 L94.65 19.55 93.35 21.15 92.7 21.45 Q92.35 21.45 92.1 21.15 91.85 20.85 91.85 20.4 91.85 19.95 92.1 19.65 L93.4 18.05 92.1 16.5 Q91.85 16.2 91.85 15.75 91.85 15.3 92.1 15.05 92.35 14.7 92.7 14.7 93.1 14.7 93.35 15.05 L94.65 16.6 95.95 15.05 Q96.2 14.7 96.6 14.7 M97.5 13.35 L94.3 13.35 Q91.2 13.35 90.7 15.05 L89.05 21.15 Q88.6 22.8 91.75 22.8 L95.0 22.8 Q98.1 22.8 98.55 21.15 L100.2 15.05 Q100.65 13.35 97.5 13.35 M87.1 12.7 Q87.65 13.55 87.35 14.75 L86.8 16.4 85.6 18.1 85.85 19.35 85.9 19.7 85.8 20.25 85.55 21.2 Q85.05 23.15 83.3 24.1 81.9 24.8 80.1 24.8 L71.45 24.8 Q70.75 24.8 71.0 23.95 L71.75 20.95 73.8 20.95 73.35 22.8 80.45 22.8 Q82.9 22.8 83.4 21.55 L83.7 20.55 Q84.1 19.15 81.55 19.15 L72.3 19.15 73.35 15.25 75.4 15.25 74.9 17.15 82.05 17.15 Q84.7 17.15 85.05 15.9 L85.25 14.75 Q85.6 13.35 83.0 13.35 L73.8 13.35 74.15 12.25 Q74.4 11.35 75.1 11.35 L83.65 11.35 85.65 11.6 Q86.6 11.9 87.1 12.7 M101.3 11.9 Q102.85 12.75 102.25 15.0 L100.55 21.2 Q99.6 24.8 94.4 24.8 L91.2 24.8 Q89.1 24.8 88.05 24.2 86.45 23.25 87.0 21.2 L88.7 15.0 Q89.7 11.35 94.85 11.35 L98.0 11.35 Q100.45 11.35 101.3 11.9 M112.5 13.35 L109.25 13.35 Q106.1 13.35 105.65 15.05 L104.0 21.15 Q103.6 22.8 106.7 22.8 L109.95 22.8 Q113.05 22.8 113.45 21.15 L115.1 15.05 Q115.6 13.35 112.5 13.35 M107.6 17.05 L111.5 17.05 Q111.85 17.05 112.1 17.35 L112.35 18.05 112.1 18.8 111.5 19.1 107.6 19.1 Q107.25 19.1 107.0 18.8 106.75 18.55 106.75 18.05 106.75 17.65 107.0 17.35 107.25 17.05 107.6 17.05 M116.25 11.9 Q117.8 12.75 117.15 15.0 L115.5 21.2 Q114.55 24.8 109.3 24.8 L106.15 24.8 Q104.1 24.8 103.0 24.2 101.4 23.25 101.95 21.2 L103.6 15.0 Q104.65 11.35 109.75 11.35 L113.0 11.35 Q115.4 11.35 116.25 11.9 M137.25 11.4 Q138.4 11.4 138.05 12.75 L133.9 28.0 4.75 28.0 5.25 26.1 132.4 26.1 135.3 15.25 126.9 24.15 Q126.2 24.9 125.4 24.9 124.6 24.9 124.3 24.15 L120.6 15.2 118.2 23.95 Q117.95 24.8 117.25 24.8 L116.4 24.75 Q116.0 24.6 116.2 23.95 L119.2 12.65 Q119.55 11.45 120.7 11.45 121.45 11.45 121.75 12.05 L126.15 22.25 135.9 12.05 Q136.55 11.4 137.25 11.4" fill="#790000" fill-rule="evenodd" stroke="none"/>
  </g>
</svg>
