<?xml version="1.0" encoding="UTF-8" standalone="no"?>
<svg xmlns:xlink="http://www.w3.org/1999/xlink" height="30.2px" width="772.45px" xmlns="http://www.w3.org/2000/svg">
  <g transform="matrix(1.0, 0.0, 0.0, 1.0, 0.0, 0.0)">
    <path d="M772.25 14.05 L772.25 16.15 1.0 16.15 1.0 14.05 772.25 14.05" fill="url(#gradient0)" fill-rule="evenodd" stroke="none"/>
    <path d="M772.25 9.3 L772.25 11.4 1.0 11.4 1.0 9.3 772.25 9.3" fill="url(#gradient1)" fill-rule="evenodd" stroke="none"/>
    <path d="M772.25 19.6 L771.85 19.75 Q771.35 20.0 772.45 20.7 L1.0 20.7 1.0 18.6 772.45 18.6 772.25 19.6" fill="url(#gradient2)" fill-rule="evenodd" stroke="none"/>
    <path d="M772.25 4.55 L772.25 6.65 1.0 6.65 1.0 4.55 772.25 4.55" fill="url(#gradient3)" fill-rule="evenodd" stroke="none"/>
    <path d="M772.25 0.0 L772.25 2.1 1.0 2.1 1.0 0.0 772.25 0.0" fill="url(#gradient4)" fill-rule="evenodd" stroke="none"/>
    <path d="M772.45 28.1 L772.45 30.2 0.0 30.2 0.0 28.1 772.45 28.1" fill="url(#gradient5)" fill-rule="evenodd" stroke="none"/>
    <path d="M772.45 23.35 L772.45 25.45 0.0 25.45 0.0 23.35 772.45 23.35" fill="url(#gradient6)" fill-rule="evenodd" stroke="none"/>
  </g>
  <defs>
    <linearGradient gradientTransform="matrix(0.4707, 0.0, 0.0, 0.0013, 386.6, 15.1)" gradientUnits="userSpaceOnUse" id="gradient0" spreadMethod="pad" x1="-819.2" x2="819.2">
      <stop offset="0.0" stop-color="#bd0000"/>
      <stop offset="1.0" stop-color="#1a0000" stop-opacity="0.0"/>
    </linearGradient>
    <linearGradient gradientTransform="matrix(0.4707, 0.0, 0.0, 0.0013, 386.6, 10.35)" gradientUnits="userSpaceOnUse" id="gradient1" spreadMethod="pad" x1="-819.2" x2="819.2">
      <stop offset="0.0" stop-color="#bd0000"/>
      <stop offset="1.0" stop-color="#1a0000" stop-opacity="0.0"/>
    </linearGradient>
    <linearGradient gradientTransform="matrix(0.4709, 0.0, 0.0, 0.0013, 386.7, 19.65)" gradientUnits="userSpaceOnUse" id="gradient2" spreadMethod="pad" x1="-819.2" x2="819.2">
      <stop offset="0.0" stop-color="#bd0000"/>
      <stop offset="1.0" stop-color="#1a0000" stop-opacity="0.0"/>
    </linearGradient>
    <linearGradient gradientTransform="matrix(0.4707, 0.0, 0.0, 0.0013, 386.6, 5.6)" gradientUnits="userSpaceOnUse" id="gradient3" spreadMethod="pad" x1="-819.2" x2="819.2">
      <stop offset="0.0" stop-color="#bd0000"/>
      <stop offset="1.0" stop-color="#1a0000" stop-opacity="0.0"/>
    </linearGradient>
    <linearGradient gradientTransform="matrix(0.4707, 0.0, 0.0, 0.0013, 386.6, 1.05)" gradientUnits="userSpaceOnUse" id="gradient4" spreadMethod="pad" x1="-819.2" x2="819.2">
      <stop offset="0.0" stop-color="#bd0000"/>
      <stop offset="1.0" stop-color="#1a0000" stop-opacity="0.0"/>
    </linearGradient>
    <linearGradient gradientTransform="matrix(0.4715, 0.0, 0.0, 0.0013, 386.2, 29.15)" gradientUnits="userSpaceOnUse" id="gradient5" spreadMethod="pad" x1="-819.2" x2="819.2">
      <stop offset="0.0" stop-color="#bd0000"/>
      <stop offset="1.0" stop-color="#1a0000" stop-opacity="0.0"/>
    </linearGradient>
    <linearGradient gradientTransform="matrix(0.4715, 0.0, 0.0, 0.0013, 386.2, 24.4)" gradientUnits="userSpaceOnUse" id="gradient6" spreadMethod="pad" x1="-819.2" x2="819.2">
      <stop offset="0.0" stop-color="#bd0000"/>
      <stop offset="1.0" stop-color="#1a0000" stop-opacity="0.0"/>
    </linearGradient>
  </defs>
</svg>
