<?xml version="1.0" encoding="UTF-8" standalone="no"?>
<svg xmlns:xlink="http://www.w3.org/1999/xlink" height="30.2px" width="772.45px" xmlns="http://www.w3.org/2000/svg">
  <g transform="matrix(1.0, 0.0, 0.0, 1.0, 0.0, 0.0)">
    <path d="M772.45 23.35 L772.45 25.45 0.0 25.45 0.0 23.35 772.45 23.35 M772.45 28.1 L772.45 30.2 0.0 30.2 0.0 28.1 772.45 28.1 M772.25 0.0 L772.25 2.1 1.0 2.1 1.0 0.0 772.25 0.0 M772.25 4.55 L772.25 6.65 1.0 6.65 1.0 4.55 772.25 4.55 M772.25 19.6 L771.85 19.75 Q771.35 20.0 772.45 20.7 L1.0 20.7 1.0 18.6 772.45 18.6 772.25 19.6 M772.25 9.3 L772.25 11.4 1.0 11.4 1.0 9.3 772.25 9.3 M772.25 14.05 L772.25 16.15 1.0 16.15 1.0 14.05 772.25 14.05" fill="#0400ff" fill-rule="evenodd" stroke="none"/>
  </g>
</svg>
