<?xml version="1.0" encoding="UTF-8" standalone="no"?>
<svg xmlns:xlink="http://www.w3.org/1999/xlink" height="33.7px" width="67.4px" xmlns="http://www.w3.org/2000/svg">
  <g transform="matrix(1.0, 0.0, 0.0, 1.0, 0.0, 0.0)">
    <path d="M51.3 21.1 L51.45 21.35 Q52.3 23.0 53.6 24.45 L59.4 21.95 58.35 20.65 57.3 18.8 57.2 18.45 51.3 21.1 M56.75 15.0 L56.75 14.65 56.2 12.7 51.15 15.35 Q51.85 16.75 51.35 18.75 L51.1 20.4 57.05 17.7 56.75 15.0 M66.65 5.45 L66.4 3.1 46.25 13.55 46.95 14.9 49.2 13.75 49.45 13.75 49.8 14.0 50.75 14.7 55.9 12.0 55.65 11.2 66.65 5.45 M65.8 0.2 L67.1 2.75 67.4 5.9 63.0 8.2 63.75 11.85 57.55 15.1 57.65 16.25 Q57.7 17.65 58.1 18.6 L59.0 20.2 60.5 22.25 Q57.1 23.8 53.65 25.3 L53.45 25.3 53.2 25.2 Q52.0 24.0 50.8 21.7 50.35 20.85 50.35 19.95 L50.55 18.55 Q51.05 16.8 50.45 15.65 50.0 14.8 49.4 14.6 L46.7 16.0 45.0 12.7 45.65 10.65 65.8 0.2 M62.9 11.45 L62.3 8.55 58.5 10.5 59.2 13.0 Q57.55 13.1 57.2 11.2 L56.55 11.55 Q57.25 13.3 57.35 14.35 L62.9 11.45" fill="#e2b45d" fill-rule="evenodd" stroke="none"/>
    <path d="M16.1 20.9 L15.95 21.15 Q15.1 22.8 13.8 24.25 L8.0 21.75 9.05 20.45 10.1 18.6 10.2 18.25 16.1 20.9 M10.65 14.8 L10.65 14.45 11.2 12.5 16.25 15.15 Q15.55 16.55 16.05 18.55 L16.3 20.2 10.35 17.5 10.65 14.8 M0.75 5.25 L1.0 2.9 21.15 13.35 20.45 14.7 18.2 13.55 17.95 13.55 17.6 13.8 16.65 14.5 11.5 11.8 11.75 11.0 0.75 5.25 M1.6 0.0 L0.3 2.55 0.0 5.7 4.4 8.0 3.65 11.65 9.85 14.9 9.75 16.05 Q9.7 17.45 9.3 18.4 L8.4 20.0 6.9 22.05 13.75 25.1 13.95 25.1 14.2 25.0 Q15.4 23.8 16.6 21.5 L17.05 19.75 16.85 18.35 Q16.35 16.6 16.95 15.45 17.4 14.6 18.0 14.4 L20.7 15.8 22.4 12.5 21.75 10.45 1.6 0.0 M4.5 11.25 L5.1 8.35 8.9 10.3 8.2 12.8 Q9.85 12.9 10.2 11.0 L10.85 11.35 Q10.15 13.1 10.05 14.15 L4.5 11.25" fill="#e2b45d" fill-rule="evenodd" stroke="none"/>
    <path d="M20.4 23.45 L23.3 25.9 31.65 25.9 22.35 20.65 20.4 23.45 M43.45 16.05 L49.0 23.75 44.05 27.85 38.95 27.85 38.95 33.7 37.45 31.7 37.45 27.85 36.6 27.85 36.6 31.6 35.2 31.6 35.2 27.85 34.2 27.85 34.2 31.6 32.85 31.6 32.85 27.85 31.95 27.85 31.95 31.6 30.45 31.6 30.45 27.85 29.6 27.85 29.6 31.7 28.1 33.7 28.1 27.85 23.1 27.85 18.05 23.75 23.6 16.05 43.45 16.05 M46.65 23.45 L44.6 20.65 35.4 25.9 43.75 25.9 46.65 23.45" fill="#e2b45d" fill-rule="evenodd" stroke="none"/>
  </g>
</svg>
