<?xml version="1.0" encoding="UTF-8" standalone="no"?>
<svg xmlns:xlink="http://www.w3.org/1999/xlink" height="34.5px" width="34.5px" xmlns="http://www.w3.org/2000/svg">
  <g transform="matrix(1.0, 0.0, 0.0, 1.0, 1.0, 1.0)">
    <path d="M32.5 16.25 Q32.5 23.0 27.75 27.75 23.0 32.5 16.25 32.5 9.5 32.5 4.75 27.75 0.0 23.0 0.0 16.25 0.0 9.5 4.75 4.75 9.5 0.0 16.25 0.0 23.0 0.0 27.75 4.75 32.5 9.5 32.5 16.25" fill="#ff0000" fill-opacity="0.2" fill-rule="evenodd" stroke="none"/>
    <path d="M32.5 16.25 Q32.5 23.0 27.75 27.75 23.0 32.5 16.25 32.5 9.5 32.5 4.75 27.75 0.0 23.0 0.0 16.25 0.0 9.5 4.75 4.75 9.5 0.0 16.25 0.0 23.0 0.0 27.75 4.75 32.5 9.5 32.5 16.25" fill="none" stroke="#ffffff" stroke-linecap="round" stroke-linejoin="round" stroke-width="2.0"/>
    <path d="M9.45 9.95 L16.4 16.9 M9.45 23.85 L16.4 16.9" fill="none" stroke="#ffffff" stroke-linecap="square" stroke-linejoin="miter" stroke-width="3.0"/>
    <path d="M16.4 16.9 L23.35 9.95 M16.4 16.9 L23.35 23.85" fill="none" stroke="#ffffff" stroke-linecap="round" stroke-linejoin="miter" stroke-width="3.0"/>
  </g>
</svg>
