<?xml version="1.0" encoding="UTF-8" standalone="no"?>
<svg xmlns:xlink="http://www.w3.org/1999/xlink" height="16.0px" width="14.65px" xmlns="http://www.w3.org/2000/svg">
  <g transform="matrix(1.0, 0.0, 0.0, 1.0, -21.15, -127.0)">
    <path d="M33.7 129.3 Q35.8 131.65 35.8 135.0 35.8 138.3 33.7 140.65 31.55 143.0 28.5 143.0 25.5 143.0 23.3 140.65 21.15 138.3 21.15 135.0 21.15 131.65 23.3 129.3 25.5 127.0 28.5 127.0 31.55 127.0 33.7 129.3" fill="#d71212" fill-rule="evenodd" stroke="none"/>
    <path d="M29.95 129.15 L29.95 137.45 27.05 137.45 27.05 129.15 29.95 129.15 M26.7 139.3 L27.05 138.9 Q27.2 138.75 27.6 138.7 L28.45 138.7 29.4 138.7 30.05 138.9 30.25 139.3 30.45 139.95 30.25 140.55 30.05 141.0 29.4 141.15 28.45 141.2 27.6 141.15 27.05 141.0 26.7 140.55 26.65 139.95 26.7 139.3" fill="#000000" fill-rule="evenodd" stroke="none"/>
  </g>
</svg>
