<?xml version="1.0" encoding="UTF-8" standalone="no"?>
<svg xmlns:xlink="http://www.w3.org/1999/xlink" height="645.95px" width="851.95px" xmlns="http://www.w3.org/2000/svg">
  <g transform="matrix(1.0, 0.0, 0.0, 1.0, 34.0, 25.0)">
    <path d="M-24.0 -25.0 L817.95 -25.0 817.95 620.95 -24.0 620.95 -34.0 620.95 -34.0 -25.0 -24.0 -25.0 -24.0 620.95 -24.0 -25.0" fill="#000000" fill-opacity="0.8" fill-rule="evenodd" stroke="none"/>
    <path d="M715.75 508.25 L703.75 520.7 82.2 520.7 82.2 64.75 94.15 52.3 715.75 52.3 715.75 508.25" fill="#000000" fill-rule="evenodd" stroke="none"/>
    <path d="M715.75 508.25 L715.75 52.3 94.15 52.3 82.2 64.75 82.2 520.7 703.75 520.7 715.75 508.25 Z" fill="none" stroke="url(#gradient0)" stroke-linecap="round" stroke-linejoin="round" stroke-width="2.0"/>
    <path d="M569.3 421.05 L443.75 397.05 521.25 498.75 424.45 415.2 440.75 542.05 398.65 421.3 349.4 539.2 373.3 413.65 271.6 491.15 355.2 394.35 228.4 410.65 349.05 368.55 231.15 319.3 356.7 343.25 279.25 241.55 376.05 325.05 359.7 198.3 401.75 318.95 451.05 201.05 427.1 326.6 528.85 249.2 445.3 345.9 572.1 329.65 451.4 371.75 569.3 421.05" fill="url(#gradient1)" fill-rule="evenodd" stroke="none"/>
  </g>
  <defs>
    <linearGradient gradientTransform="matrix(0.3879, 0.0, 0.0, 0.3115, 398.95, 266.5)" gradientUnits="userSpaceOnUse" id="gradient0" spreadMethod="pad" x1="-819.2" x2="819.2">
      <stop offset="0.0" stop-color="#052739"/>
      <stop offset="0.5607843137254902" stop-color="#0f94df"/>
      <stop offset="0.9921568627450981" stop-color="#052739"/>
    </linearGradient>
    <radialGradient cx="0" cy="0" gradientTransform="matrix(0.2064, 0.0621, -0.0621, 0.2064, 400.25, 370.2)" gradientUnits="userSpaceOnUse" id="gradient1" r="819.2" spreadMethod="pad">
      <stop offset="0.20784313725490197" stop-color="#002f64" stop-opacity="0.6"/>
      <stop offset="0.8941176470588236" stop-color="#002c8e" stop-opacity="0.0"/>
    </radialGradient>
  </defs>
</svg>
