<?xml version="1.0" encoding="UTF-8" standalone="no"?>
<svg xmlns:xlink="http://www.w3.org/1999/xlink" height="116.45px" width="439.45px" xmlns="http://www.w3.org/2000/svg">
  <g transform="matrix(1.0, 0.0, 0.0, 1.0, 2.65, 2.65)">
    <path d="M434.15 97.9 L420.9 111.15 0.0 111.15 0.0 12.55 12.55 0.0 434.15 0.0 434.15 97.9" fill="#1a0000" fill-rule="evenodd" stroke="none"/>
    <path d="M434.8 -0.15 L434.8 1.95 10.45 1.95 12.35 -0.15 434.8 -0.15 M434.8 9.15 L434.8 11.25 2.1 11.25 3.35 9.5 3.7 9.15 434.8 9.15 M434.8 4.4 L434.8 6.5 6.2 6.5 8.15 4.4 434.8 4.4 M429.95 101.0 L427.9 103.1 -0.5 103.1 -0.5 101.0 429.95 101.0 M425.2 105.75 L423.1 107.85 -0.5 107.85 -0.5 105.75 425.2 105.75" fill="#4f0000" fill-rule="evenodd" stroke="none"/>
    <path d="M434.8 13.9 L434.8 16.0 -0.5 16.0 -0.5 14.55 0.1 13.9 434.8 13.9 M434.4 97.4 Q433.75 97.8 433.05 98.35 L-0.5 98.35 -0.5 96.25 434.8 96.25 434.8 97.25 434.4 97.4" fill="#480000" fill-rule="evenodd" stroke="none"/>
    <path d="M434.8 18.45 L434.8 20.55 -0.5 20.55 -0.5 18.45 434.8 18.45 M434.8 91.7 L434.8 93.8 -0.5 93.8 -0.5 91.7 434.8 91.7" fill="#400000" fill-rule="evenodd" stroke="none"/>
    <path d="M434.8 23.2 L434.8 25.3 -0.5 25.3 -0.5 23.2 434.8 23.2 M434.8 86.95 L434.8 89.05 -0.5 89.05 -0.5 86.95 434.8 86.95" fill="#370000" fill-rule="evenodd" stroke="none"/>
    <path d="M434.8 27.95 L434.8 30.05 -0.5 30.05 -0.5 27.95 434.8 27.95 M434.8 82.2 L434.8 84.3 -0.5 84.3 -0.5 82.2 434.8 82.2" fill="#2b0000" fill-rule="evenodd" stroke="none"/>
    <path d="M434.8 32.65 L434.8 34.75 -0.5 34.75 -0.5 32.65 434.8 32.65 M434.8 37.6 L434.8 39.7 -0.5 39.7 -0.5 37.6 434.8 37.6" fill="#280000" fill-rule="evenodd" stroke="none"/>
    <path d="M434.15 97.9 L420.9 111.15 0.0 111.15 0.0 12.55 12.55 0.0 434.15 0.0 434.15 97.9 Z" fill="none" stroke="#d90000" stroke-linecap="round" stroke-linejoin="round" stroke-width="1.5"/>
    <path d="M0.0 28.25 L0.0 23.45 0.0 12.55 12.55 0.0 57.2 0.0" fill="none" stroke="#d90000" stroke-linecap="square" stroke-linejoin="round" stroke-width="4.0"/>
    <path d="M434.15 85.6 L434.15 86.05 434.15 97.9 420.9 111.15 389.55 111.15 384.25 111.15" fill="none" stroke="#d90000" stroke-linecap="square" stroke-linejoin="round" stroke-width="4.0"/>
    <path d="M0.0 28.25 L0.0 23.45 0.0 12.55 12.55 0.0 57.2 0.0" fill="none" stroke="#ff0606" stroke-linecap="square" stroke-linejoin="round" stroke-width="1.0"/>
    <path d="M434.15 85.6 L434.15 86.05 434.15 97.9 420.9 111.15 389.55 111.15 384.25 111.15" fill="none" stroke="#ff0606" stroke-linecap="square" stroke-linejoin="round" stroke-width="1.0"/>
  </g>
</svg>
