<?xml version="1.0" encoding="UTF-8" standalone="no"?>
<svg xmlns:xlink="http://www.w3.org/1999/xlink" height="349.6px" width="754.45px" xmlns="http://www.w3.org/2000/svg">
  <g transform="matrix(1.0, 0.0, 0.0, 1.0, 2.65, 2.65)">
    <path d="M749.15 311.5 L749.15 331.05 735.9 344.3 0.0 344.3 0.0 311.5 0.0 311.0 0.0 12.55 12.55 0.0 749.15 0.0 749.15 311.0 749.15 311.5" fill="#0f0000" fill-rule="evenodd" stroke="none"/>
    <path d="M6.2 6.5 L8.15 4.4 747.8 4.4 747.8 6.5 6.2 6.5 M2.1 11.25 L3.35 9.5 3.7 9.15 747.8 9.15 747.8 11.25 2.1 11.25 M738.2 340.2 L736.1 342.3 -0.5 342.3 -0.5 340.2 738.2 340.2 M742.95 335.45 L740.9 337.55 -0.5 337.55 -0.5 335.45 742.95 335.45 M12.35 -0.15 L747.8 -0.15 747.8 1.95 10.45 1.95 12.35 -0.15" fill="#4f0000" fill-rule="evenodd" stroke="none"/>
    <path d="M747.8 13.9 L747.8 16.0 -0.5 16.0 -0.5 14.55 0.1 13.9 747.8 13.9 M747.8 331.7 L747.4 331.85 746.05 332.8 -0.5 332.8 -0.5 330.7 747.8 330.7 747.8 331.7" fill="#480000" fill-rule="evenodd" stroke="none"/>
    <path d="M747.8 18.45 L747.8 20.55 -0.5 20.55 -0.5 18.45 747.8 18.45 M747.8 326.15 L747.8 328.25 -0.5 328.25 -0.5 326.15 747.8 326.15" fill="#400000" fill-rule="evenodd" stroke="none"/>
    <path d="M747.8 23.2 L747.8 25.3 -0.5 25.3 -0.5 23.2 747.8 23.2 M747.8 321.4 L747.8 323.5 -0.5 323.5 -0.5 321.4 747.8 321.4" fill="#370000" fill-rule="evenodd" stroke="none"/>
    <path d="M747.8 27.95 L747.8 30.05 -0.5 30.05 -0.5 27.95 747.8 27.95 M747.8 316.65 L747.8 318.75 -0.5 318.75 -0.5 316.65 747.8 316.65" fill="#2b0000" fill-rule="evenodd" stroke="none"/>
    <path d="M747.8 32.65 L747.8 34.75 -0.5 34.75 -0.5 32.65 747.8 32.65 M747.8 312.1 L747.8 314.2 -0.5 314.2 -0.5 312.1 747.8 312.1" fill="#280000" fill-rule="evenodd" stroke="none"/>
    <path d="M749.15 311.5 L749.15 331.05 735.9 344.3 0.0 344.3 0.0 311.5 0.0 311.0 0.0 12.55 12.55 0.0 749.15 0.0 749.15 311.0 749.15 311.5 Z" fill="none" stroke="#d90000" stroke-linecap="round" stroke-linejoin="round" stroke-width="1.5"/>
    <path d="M749.15 318.75 L749.15 319.2 749.15 331.05 735.9 344.3 704.55 344.3 699.25 344.3 M0.0 28.25 L0.0 23.45 0.0 12.55 12.55 0.0 57.2 0.0" fill="none" stroke="#d90000" stroke-linecap="square" stroke-linejoin="round" stroke-width="4.0"/>
    <path d="M749.15 318.75 L749.15 319.2 749.15 331.05 735.9 344.3 704.55 344.3 699.25 344.3 M0.0 28.25 L0.0 23.45 0.0 12.55 12.55 0.0 57.2 0.0" fill="none" stroke="#ff0606" stroke-linecap="square" stroke-linejoin="round" stroke-width="1.0"/>
  </g>
</svg>
