<?xml version="1.0" encoding="UTF-8" standalone="no"?>
<svg xmlns:xlink="http://www.w3.org/1999/xlink" height="28.5px" width="28.5px" xmlns="http://www.w3.org/2000/svg">
  <g transform="matrix(1.0, 0.0, 0.0, 1.0, 0.55, 1.7)">
    <path d="M27.2 12.55 Q27.2 18.15 23.25 22.1 19.3 26.05 13.7 26.05 8.1 26.05 4.15 22.1 0.2 18.15 0.2 12.55 0.2 6.95 4.15 3.0 8.1 -0.95 13.7 -0.95 19.3 -0.95 23.25 3.0 27.2 6.95 27.2 12.55" fill="#120000" fill-rule="evenodd" stroke="none"/>
    <path d="M27.2 12.55 Q27.2 18.15 23.25 22.1 19.3 26.05 13.7 26.05 8.1 26.05 4.15 22.1 0.2 18.15 0.2 12.55 0.2 6.95 4.15 3.0 8.1 -0.95 13.7 -0.95 19.3 -0.95 23.25 3.0 27.2 6.95 27.2 12.55 Z" fill="none" stroke="#9c0000" stroke-linecap="butt" stroke-linejoin="miter" stroke-width="1.5"/>
  </g>
</svg>
