<?xml version="1.0" encoding="UTF-8" standalone="no"?>
<svg xmlns:xlink="http://www.w3.org/1999/xlink" height="55.2px" width="184.5px" xmlns="http://www.w3.org/2000/svg">
  <g transform="matrix(1.0, 0.0, 0.0, 1.0, 2.7, 2.7)">
    <path d="M179.15 -0.05 L179.15 40.3 166.7 49.85 -0.05 49.85 -0.05 9.0 11.8 -0.05 179.15 -0.05" fill="#1a0000" fill-opacity="0.7019608" fill-rule="evenodd" stroke="none"/>
    <path d="M179.8 -0.15 L179.8 1.35 9.8 1.35 11.6 -0.15 179.8 -0.15 M179.8 6.55 L179.8 8.05 1.95 8.05 3.1 6.8 3.45 6.55 179.8 6.55 M179.8 3.1 L179.8 4.65 5.8 4.65 7.65 3.1 179.8 3.1 M175.2 43.85 L173.3 45.35 -0.5 45.35 -0.5 43.85 175.2 43.85 M170.75 47.25 L168.75 48.75 -0.5 48.75 -0.5 47.25 170.75 47.25" fill="#4f0000" fill-rule="evenodd" stroke="none"/>
    <path d="M179.8 9.95 L179.8 11.45 -0.5 11.45 -0.5 10.45 0.05 9.95 179.8 9.95 M179.8 40.4 L179.8 41.15 179.4 41.25 Q179.0 41.4 178.15 41.9 L-0.5 41.9 -0.5 40.4 179.8 40.4" fill="#480000" fill-rule="evenodd" stroke="none"/>
    <path d="M179.8 13.25 L179.8 14.75 -0.5 14.75 -0.5 13.25 179.8 13.25 M179.8 37.15 L179.8 38.65 -0.5 38.65 -0.5 37.15 179.8 37.15" fill="#400000" fill-rule="evenodd" stroke="none"/>
    <path d="M179.8 16.65 L179.8 18.15 -0.5 18.15 -0.5 16.65 179.8 16.65 M179.8 33.7 L179.8 35.25 -0.5 35.25 -0.5 33.7 179.8 33.7" fill="#370000" fill-rule="evenodd" stroke="none"/>
    <path d="M179.8 20.05 L179.8 21.6 -0.5 21.6 -0.5 20.05 179.8 20.05 M179.8 30.3 L179.8 31.8 -0.5 31.8 -0.5 30.3 179.8 30.3" fill="#2b0000" fill-rule="evenodd" stroke="none"/>
    <path d="M179.8 27.0 L179.8 28.55 -0.5 28.55 -0.5 27.0 179.8 27.0 M179.8 23.45 L179.8 24.95 -0.5 24.95 -0.5 23.45 179.8 23.45" fill="#280000" fill-rule="evenodd" stroke="none"/>
    <path d="M179.15 -0.05 L179.15 40.3 166.7 49.85 -0.05 49.85 -0.05 9.0 11.8 -0.05 179.15 -0.05 Z" fill="none" stroke="#d90000" stroke-linecap="round" stroke-linejoin="round" stroke-width="1.5"/>
    <path d="M-0.05 20.3 L-0.05 16.85 -0.05 9.0 11.8 -0.05 53.85 -0.05 M179.15 31.45 L179.15 31.75 179.15 40.3 166.7 49.85 137.15 49.85 132.15 49.85" fill="none" stroke="#d90000" stroke-linecap="square" stroke-linejoin="round" stroke-width="4.0"/>
    <path d="M-0.05 20.3 L-0.05 16.85 -0.05 9.0 11.8 -0.05 53.85 -0.05 M179.15 31.45 L179.15 31.75 179.15 40.3 166.7 49.85 137.15 49.85 132.15 49.85" fill="none" stroke="#ff0606" stroke-linecap="square" stroke-linejoin="round" stroke-width="1.0"/>
  </g>
</svg>
