<?xml version="1.0" encoding="UTF-8" standalone="no"?>
<svg xmlns:xlink="http://www.w3.org/1999/xlink" height="106.1px" width="137.95px" xmlns="http://www.w3.org/2000/svg">
  <g transform="matrix(1.0, 0.0, 0.0, 1.0, 466.0, -135.95)">
    <path d="M-358.4 194.4 L-358.3 193.5 Q-362.75 193.45 -365.75 195.8 -368.4 197.95 -368.4 200.45 -368.4 202.5 -364.45 204.15 -360.5 205.8 -360.5 209.3 -360.5 210.35 -360.7 210.65 -361.2 211.3 -363.4 212.3 -367.05 213.9 -370.2 213.9 L-370.35 214.2 -370.4 214.8 -370.25 215.5 -370.1 215.6 -368.2 215.7 Q-364.85 215.7 -361.7 213.5 -358.7 211.4 -358.7 209.45 -358.7 206.95 -362.75 203.6 L-366.8 200.3 Q-366.25 198.7 -365.0 197.2 -362.6 194.2 -359.2 194.2 -358.6 194.2 -358.5 194.4 L-358.4 194.4 M-351.3 157.5 Q-352.45 158.25 -352.85 158.4 L-356.6 158.9 -356.1 158.4 -355.2 157.45 -354.3 156.8 -351.1 156.9 -351.3 157.5 M-400.7 150.35 L-400.7 151.4 -399.3 161.15 Q-397.7 170.8 -396.4 170.8 L-395.75 170.7 -395.9 170.6 Q-392.5 163.2 -391.8 161.1 L-391.6 161.3 Q-391.0 162.65 -390.1 165.35 -389.15 167.75 -387.6 169.3 L-387.0 169.1 -386.6 168.3 -388.6 162.9 Q-390.25 158.8 -391.4 158.8 -392.65 158.8 -394.45 162.55 L-396.7 167.4 Q-397.35 160.55 -399.8 149.1 -400.5 149.45 -400.7 150.35 M-377.2 159.1 Q-377.8 159.3 -378.1 159.6 L-378.1 163.5 Q-378.45 165.45 -380.6 167.1 L-383.2 167.2 Q-384.1 166.65 -384.1 165.25 -384.05 163.6 -383.5 162.0 -382.4 158.9 -380.0 158.9 -379.4 158.9 -379.15 159.3 L-378.8 159.8 -378.55 159.85 -378.5 159.3 Q-378.5 158.7 -378.65 158.45 L-378.8 158.1 Q-382.4 157.9 -384.25 161.05 -385.5 163.25 -385.5 165.65 L-385.5 167.25 Q-384.95 168.7 -382.0 168.7 -380.05 168.7 -378.65 167.5 L-377.3 166.0 -376.1 169.2 Q-374.9 171.3 -373.0 171.3 -371.75 171.3 -371.45 169.9 L-371.1 167.9 -371.4 167.9 -372.25 168.7 Q-372.8 169.1 -373.05 169.1 -375.1 169.1 -375.75 165.0 -376.55 159.9 -377.2 159.1 M-368.0 159.45 L-367.9 159.0 -365.65 157.25 -363.9 155.9 Q-365.65 154.95 -367.7 156.65 -369.6 158.15 -369.6 159.4 -369.6 161.15 -366.0 161.95 -362.4 162.7 -362.4 164.8 L-362.9 165.7 Q-363.95 166.6 -366.6 166.6 L-368.8 166.4 -368.9 166.4 -369.0 167.15 Q-369.0 168.15 -368.8 168.2 L-366.8 168.4 Q-364.05 168.4 -362.3 167.2 -360.8 166.15 -360.8 164.95 -360.8 164.25 -362.15 163.3 L-368.0 159.45 M-341.8 148.1 L-341.9 148.05 -342.0 148.75 -341.45 157.3 Q-341.5 162.7 -344.4 166.0 L-346.9 166.1 Q-347.9 166.1 -347.2 166.0 L-347.3 165.05 Q-347.3 163.65 -345.3 161.85 -343.3 160.05 -343.3 159.65 -343.3 159.05 -343.45 159.05 L-343.6 159.2 Q-346.4 160.55 -347.7 162.4 -348.5 163.55 -348.65 164.7 L-350.1 165.6 Q-351.65 166.7 -354.7 166.7 -357.4 166.7 -358.1 165.0 L-358.3 163.2 Q-358.3 161.5 -357.4 159.9 -353.25 160.45 -351.0 159.05 -349.3 158.0 -349.3 156.55 L-350.4 155.3 Q-355.65 154.8 -358.3 158.3 -360.1 160.65 -360.1 163.35 L-359.8 166.0 Q-358.7 168.5 -354.8 168.5 -351.25 168.5 -349.6 166.85 L-348.7 165.3 -348.45 166.2 -347.2 167.5 -344.4 167.4 Q-342.5 166.15 -341.55 163.8 L-340.5 160.9 -339.65 164.95 Q-339.0 167.25 -337.6 168.9 L-336.6 168.6 Q-336.4 168.95 -336.4 167.95 L-337.75 163.45 Q-339.1 159.2 -339.1 157.3 L-339.65 151.8 Q-340.05 148.5 -341.8 148.1 M-439.8 192.8 Q-440.8 192.8 -440.8 194.0 -440.8 198.9 -439.0 208.45 L-436.4 222.1 -435.75 221.8 -435.6 221.6 Q-438.2 202.4 -439.8 192.8 M-437.1 170.2 Q-437.55 165.65 -438.4 164.2 L-438.9 164.5 -439.0 165.1 Q-438.7 166.25 -438.2 171.15 -436.85 175.5 -432.0 175.5 -429.9 175.5 -429.15 171.9 L-428.7 167.5 -428.5 167.7 -426.85 172.6 Q-425.45 176.0 -424.2 176.0 -423.55 176.0 -423.35 175.7 L-423.2 175.2 Q-424.2 173.8 -426.3 168.4 -427.85 164.45 -429.8 163.8 -430.0 168.4 -430.25 169.65 -430.95 174.0 -432.8 174.0 -436.2 174.0 -437.1 170.2 M-421.6 165.8 L-422.2 165.8 Q-422.6 167.0 -422.6 168.5 -421.6 174.7 -420.0 174.7 L-419.3 174.5 -419.3 174.3 -418.15 167.5 Q-417.25 163.6 -415.1 161.2 L-414.3 161.3 -414.3 160.7 Q-418.25 160.45 -419.15 164.6 L-420.3 171.5 -420.5 171.5 Q-421.35 170.6 -421.5 168.7 L-421.6 165.8 M-406.0 160.8 L-406.2 160.5 Q-408.25 160.55 -410.0 164.05 -411.5 167.0 -411.5 168.9 -411.7 169.95 -411.2 170.85 -410.25 172.7 -406.8 172.7 -402.65 172.7 -401.6 170.15 L-401.2 166.8 Q-401.3 166.6 -401.65 166.6 L-402.0 166.6 Q-402.3 168.0 -402.75 168.85 -403.4 170.1 -404.7 171.1 L-408.6 171.2 Q-410.1 170.0 -410.1 169.05 -410.1 167.9 -408.65 165.1 -407.3 162.5 -406.0 160.8 M-456.35 165.2 L-456.3 165.15 -455.95 167.3 -456.2 167.3 -456.5 167.1 -456.65 166.8 -456.7 166.2 Q-456.7 165.6 -456.35 165.2 M-448.4 149.9 Q-449.95 149.4 -454.25 151.5 -455.05 151.85 -455.7 152.25 L-455.8 151.3 -456.3 151.3 -456.4 152.6 -459.2 154.4 -458.8 154.85 -458.6 155.3 -457.9 155.3 Q-457.85 154.15 -456.45 153.2 L-456.6 158.95 -456.35 164.75 Q-457.2 164.8 -457.55 165.65 L-457.8 166.85 Q-457.8 167.8 -456.7 168.5 L-455.75 168.55 Q-455.05 172.8 -454.6 178.9 L-453.8 178.9 Q-453.4 178.3 -453.4 176.8 -453.4 173.4 -453.8 168.6 -448.7 168.5 -443.5 163.4 -438.9 158.9 -438.9 156.65 L-438.9 155.25 Q-439.0 153.7 -439.65 152.55 -441.75 148.75 -448.4 149.9 M-454.25 152.15 Q-451.3 151.1 -449.1 151.1 -442.95 151.1 -441.0 152.7 -440.2 153.35 -440.2 154.65 -440.2 158.2 -442.55 160.8 -445.65 164.2 -453.6 167.3 L-453.95 167.3 -454.3 164.15 -455.65 152.75 -454.25 152.15 M-328.05 135.95 L-328.05 242.05 -466.0 242.05 -466.0 135.95 -328.05 135.95 M-411.1 203.5 L-411.4 203.0 Q-416.75 203.75 -419.55 204.6 L-421.4 194.3 Q-422.3 194.9 -422.3 198.75 -422.3 201.85 -421.9 205.45 -424.15 206.35 -427.0 207.8 L-426.4 208.15 -426.0 208.3 -421.75 207.05 -421.45 209.1 Q-420.6 214.75 -419.2 219.5 -418.4 218.8 -418.4 217.1 -418.4 212.5 -419.3 206.3 L-417.55 205.75 -411.1 203.5 M-402.8 204.1 Q-403.1 205.5 -404.75 207.05 -406.8 208.95 -409.5 209.2 L-408.25 206.45 Q-407.25 204.9 -405.4 204.0 L-402.8 204.1 M-370.2 208.35 L-370.4 206.8 -370.5 206.7 -371.4 206.6 -373.05 207.0 -374.7 207.4 Q-375.3 207.4 -375.95 202.7 -376.55 198.35 -379.0 199.3 -381.3 200.2 -382.25 203.6 L-383.7 208.9 -385.6 204.05 Q-387.25 200.4 -389.0 200.4 -391.55 200.4 -391.6 205.3 L-391.2 212.1 -391.4 212.1 Q-392.6 210.65 -392.5 208.05 -392.45 205.25 -393.2 204.1 L-393.7 204.5 -393.95 207.5 -394.3 207.6 Q-395.5 210.9 -396.4 211.95 -399.45 215.5 -406.0 215.5 -407.45 215.5 -408.8 213.9 -410.0 212.5 -410.0 211.65 L-409.95 210.85 -409.8 210.6 Q-401.3 209.0 -401.3 204.05 -401.3 202.25 -402.9 202.35 -404.35 202.45 -406.45 204.0 -411.6 207.7 -411.6 211.6 -411.6 213.5 -410.4 214.9 -408.5 217.2 -404.0 217.2 -395.7 217.2 -393.95 207.9 L-394.0 209.6 Q-392.05 216.4 -390.2 216.4 L-389.5 216.35 -389.5 216.2 -389.65 209.05 Q-389.65 204.8 -388.8 202.2 L-386.75 207.65 Q-385.0 211.7 -383.4 211.7 -382.7 211.7 -380.8 206.95 L-378.6 201.3 Q-378.3 202.65 -378.45 206.3 -377.95 209.3 -374.0 209.3 L-372.7 209.2 -372.1 209.2 Q-372.4 210.3 -370.8 210.9 -370.3 210.7 -369.9 210.1 L-370.2 208.35" fill="#999999" fill-rule="evenodd" stroke="none"/>
    <path d="M-454.25 152.15 L-455.65 152.75 -454.3 164.15 -453.95 167.3 -453.6 167.3 Q-445.65 164.2 -442.55 160.8 -440.2 158.2 -440.2 154.65 -440.2 153.35 -441.0 152.7 -442.95 151.1 -449.1 151.1 -451.3 151.1 -454.25 152.15 M-448.4 149.9 Q-441.75 148.75 -439.65 152.55 -439.0 153.7 -438.9 155.25 L-438.9 156.65 Q-438.9 158.9 -443.5 163.4 -448.7 168.5 -453.8 168.6 -453.4 173.4 -453.4 176.8 -453.4 178.3 -453.8 178.9 L-454.6 178.9 Q-455.05 172.8 -455.75 168.55 L-456.7 168.5 Q-457.8 167.8 -457.8 166.85 L-457.55 165.65 Q-457.2 164.8 -456.35 164.75 L-456.6 158.95 -456.45 153.2 Q-457.85 154.15 -457.9 155.3 L-458.6 155.3 -458.8 154.85 -459.2 154.4 -456.4 152.6 -456.3 151.3 -455.8 151.3 -455.7 152.25 Q-455.05 151.85 -454.25 151.5 -449.95 149.4 -448.4 149.9 M-456.35 165.2 Q-456.7 165.6 -456.7 166.2 L-456.65 166.8 -456.5 167.1 -456.2 167.3 -455.95 167.3 -456.3 165.15 -456.35 165.2 M-406.0 160.8 Q-407.3 162.5 -408.65 165.1 -410.1 167.9 -410.1 169.05 -410.1 170.0 -408.6 171.2 L-404.7 171.1 Q-403.4 170.1 -402.75 168.85 -402.3 168.0 -402.0 166.6 L-401.65 166.6 Q-401.3 166.6 -401.2 166.8 L-401.6 170.15 Q-402.65 172.7 -406.8 172.7 -410.25 172.7 -411.2 170.85 -411.7 169.95 -411.5 168.9 -411.5 167.0 -410.0 164.05 -408.25 160.55 -406.2 160.5 L-406.0 160.8 M-421.6 165.8 L-421.5 168.7 Q-421.35 170.6 -420.5 171.5 L-420.3 171.5 -419.15 164.6 Q-418.25 160.45 -414.3 160.7 L-414.3 161.3 -415.1 161.2 Q-417.25 163.6 -418.15 167.5 L-419.3 174.3 -419.3 174.5 -420.0 174.7 Q-421.6 174.7 -422.6 168.5 -422.6 167.0 -422.2 165.8 L-421.6 165.8 M-437.1 170.2 Q-436.2 174.0 -432.8 174.0 -430.95 174.0 -430.25 169.65 -430.0 168.4 -429.8 163.8 -427.85 164.45 -426.3 168.4 -424.2 173.8 -423.2 175.2 L-423.35 175.7 Q-423.55 176.0 -424.2 176.0 -425.45 176.0 -426.85 172.6 L-428.5 167.7 -428.7 167.5 -429.15 171.9 Q-429.9 175.5 -432.0 175.5 -436.85 175.5 -438.2 171.15 -438.7 166.25 -439.0 165.1 L-438.9 164.5 -438.4 164.2 Q-437.55 165.65 -437.1 170.2 M-439.8 192.8 Q-438.2 202.4 -435.6 221.6 L-435.75 221.8 -436.4 222.1 -439.0 208.45 Q-440.8 198.9 -440.8 194.0 -440.8 192.8 -439.8 192.8 M-341.8 148.1 Q-340.05 148.5 -339.65 151.8 L-339.1 157.3 Q-339.1 159.2 -337.75 163.45 L-336.4 167.95 Q-336.4 168.95 -336.6 168.6 L-337.6 168.9 Q-339.0 167.25 -339.65 164.95 L-340.5 160.9 -341.55 163.8 Q-342.5 166.15 -344.4 167.4 L-347.2 167.5 -348.45 166.2 -348.7 165.3 -349.6 166.85 Q-351.25 168.5 -354.8 168.5 -358.7 168.5 -359.8 166.0 L-360.1 163.35 Q-360.1 160.65 -358.3 158.3 -355.65 154.8 -350.4 155.3 L-349.3 156.55 Q-349.3 158.0 -351.0 159.05 -353.25 160.45 -357.4 159.9 -358.3 161.5 -358.3 163.2 L-358.1 165.0 Q-357.4 166.7 -354.7 166.7 -351.65 166.7 -350.1 165.6 L-348.65 164.7 Q-348.5 163.55 -347.7 162.4 -346.4 160.55 -343.6 159.2 L-343.45 159.05 Q-343.3 159.05 -343.3 159.65 -343.3 160.05 -345.3 161.85 -347.3 163.65 -347.3 165.05 L-347.2 166.0 Q-347.9 166.1 -346.9 166.1 L-344.4 166.0 Q-341.5 162.7 -341.45 157.3 L-342.0 148.75 -341.9 148.05 -341.8 148.1 M-368.0 159.45 L-362.15 163.3 Q-360.8 164.25 -360.8 164.95 -360.8 166.15 -362.3 167.2 -364.05 168.4 -366.8 168.4 L-368.8 168.2 Q-369.0 168.15 -369.0 167.15 L-368.9 166.4 -368.8 166.4 -366.6 166.6 Q-363.95 166.6 -362.9 165.7 L-362.4 164.8 Q-362.4 162.7 -366.0 161.95 -369.6 161.15 -369.6 159.4 -369.6 158.15 -367.7 156.65 -365.65 154.95 -363.9 155.9 L-365.65 157.25 -367.9 159.0 -368.0 159.45 M-377.2 159.1 Q-376.55 159.9 -375.75 165.0 -375.1 169.1 -373.05 169.1 -372.8 169.1 -372.25 168.7 L-371.4 167.9 -371.1 167.9 -371.45 169.9 Q-371.75 171.3 -373.0 171.3 -374.9 171.3 -376.1 169.2 L-377.3 166.0 -378.65 167.5 Q-380.05 168.7 -382.0 168.7 -384.95 168.7 -385.5 167.25 L-385.5 165.65 Q-385.5 163.25 -384.25 161.05 -382.4 157.9 -378.8 158.1 L-378.65 158.45 Q-378.5 158.7 -378.5 159.3 L-378.55 159.85 -378.8 159.8 -379.15 159.3 Q-379.4 158.9 -380.0 158.9 -382.4 158.9 -383.5 162.0 -384.05 163.6 -384.1 165.25 -384.1 166.65 -383.2 167.2 L-380.6 167.1 Q-378.45 165.45 -378.1 163.5 L-378.1 159.6 Q-377.8 159.3 -377.2 159.1 M-400.7 150.35 Q-400.5 149.45 -399.8 149.1 -397.35 160.55 -396.7 167.4 L-394.45 162.55 Q-392.65 158.8 -391.4 158.8 -390.25 158.8 -388.6 162.9 L-386.6 168.3 -387.0 169.1 -387.6 169.3 Q-389.15 167.75 -390.1 165.35 -391.0 162.65 -391.6 161.3 L-391.8 161.1 Q-392.5 163.2 -395.9 170.6 L-395.75 170.7 -396.4 170.8 Q-397.7 170.8 -399.3 161.15 L-400.7 151.4 -400.7 150.35 M-351.3 157.5 L-351.1 156.9 -354.3 156.8 -355.2 157.45 -356.1 158.4 -356.6 158.9 -352.85 158.4 Q-352.45 158.25 -351.3 157.5 M-358.4 194.4 L-358.5 194.4 Q-358.6 194.2 -359.2 194.2 -362.6 194.2 -365.0 197.2 -366.25 198.7 -366.8 200.3 L-362.75 203.6 Q-358.7 206.95 -358.7 209.45 -358.7 211.4 -361.7 213.5 -364.85 215.7 -368.2 215.7 L-370.1 215.6 -370.25 215.5 -370.4 214.8 -370.35 214.2 -370.2 213.9 Q-367.05 213.9 -363.4 212.3 -361.2 211.3 -360.7 210.65 -360.5 210.35 -360.5 209.3 -360.5 205.8 -364.45 204.15 -368.4 202.5 -368.4 200.45 -368.4 197.95 -365.75 195.8 -362.75 193.45 -358.3 193.5 L-358.4 194.4 M-370.2 208.35 L-369.9 210.1 Q-370.3 210.7 -370.8 210.9 -372.4 210.3 -372.1 209.2 L-372.7 209.2 -374.0 209.3 Q-377.95 209.3 -378.45 206.3 -378.3 202.65 -378.6 201.3 L-380.8 206.95 Q-382.7 211.7 -383.4 211.7 -385.0 211.7 -386.75 207.65 L-388.8 202.2 Q-389.65 204.8 -389.65 209.05 L-389.5 216.2 -389.5 216.35 -390.2 216.4 Q-392.05 216.4 -394.0 209.6 L-393.95 207.9 Q-395.7 217.2 -404.0 217.2 -408.5 217.2 -410.4 214.9 -411.6 213.5 -411.6 211.6 -411.6 207.7 -406.45 204.0 -404.35 202.45 -402.9 202.35 -401.3 202.25 -401.3 204.05 -401.3 209.0 -409.8 210.6 L-409.95 210.85 -410.0 211.65 Q-410.0 212.5 -408.8 213.9 -407.45 215.5 -406.0 215.5 -399.45 215.5 -396.4 211.95 -395.5 210.9 -394.3 207.6 L-393.95 207.5 -393.7 204.5 -393.2 204.1 Q-392.45 205.25 -392.5 208.05 -392.6 210.65 -391.4 212.1 L-391.2 212.1 -391.6 205.3 Q-391.55 200.4 -389.0 200.4 -387.25 200.4 -385.6 204.05 L-383.7 208.9 -382.25 203.6 Q-381.3 200.2 -379.0 199.3 -376.55 198.35 -375.95 202.7 -375.3 207.4 -374.7 207.4 L-373.05 207.0 -371.4 206.6 -370.5 206.7 -370.4 206.8 -370.2 208.35 M-402.8 204.1 L-405.4 204.0 Q-407.25 204.9 -408.25 206.45 L-409.5 209.2 Q-406.8 208.95 -404.75 207.05 -403.1 205.5 -402.8 204.1 M-411.1 203.5 L-417.55 205.75 -419.3 206.3 Q-418.4 212.5 -418.4 217.1 -418.4 218.8 -419.2 219.5 -420.6 214.75 -421.45 209.1 L-421.75 207.05 -426.0 208.3 -426.4 208.15 -427.0 207.8 Q-424.15 206.35 -421.9 205.45 -422.3 201.85 -422.3 198.75 -422.3 194.9 -421.4 194.3 L-419.55 204.6 Q-416.75 203.75 -411.4 203.0 L-411.1 203.5" fill="#000000" fill-rule="evenodd" stroke="none"/>
  </g>
</svg>
