<?xml version="1.0" encoding="UTF-8" standalone="no"?>
<svg xmlns:xlink="http://www.w3.org/1999/xlink" height="4.0px" width="4.0px" xmlns="http://www.w3.org/2000/svg">
  <g transform="matrix(1.0, 0.0, 0.0, 1.0, 0.0, 0.0)">
    <path d="M3.4 3.4 Q2.8 4.0 2.0 4.0 1.2 4.0 0.55 3.4 0.0 2.8 0.0 2.0 0.0 1.2 0.55 0.55 1.2 0.0 2.0 0.0 2.8 0.0 3.4 0.55 4.0 1.2 4.0 2.0 4.0 2.8 3.4 3.4" fill="#ee1c11" fill-rule="evenodd" stroke="none"/>
    <path d="M2.85 2.85 Q2.5 3.2 2.0 3.2 1.5 3.2 1.15 2.85 0.8 2.5 0.8 2.0 0.8 1.5 1.15 1.15 1.5 0.8 2.0 0.8 2.5 0.8 2.85 1.15 3.2 1.5 3.2 2.0 L2.85 2.85" fill="#f97942" fill-rule="evenodd" stroke="none"/>
  </g>
</svg>
