<?xml version="1.0" encoding="UTF-8" standalone="no"?>
<svg xmlns:xlink="http://www.w3.org/1999/xlink" height="136.05px" width="436.55px" xmlns="http://www.w3.org/2000/svg">
  <g transform="matrix(1.0, 0.0, 0.0, 1.0, 44.8, 8.0)">
    <path d="M391.75 23.3 L-43.0 23.3 -43.0 0.05 -35.4 -8.0 391.75 -8.0 391.75 23.3" fill="#3e0000" fill-rule="evenodd" stroke="none"/>
    <path d="M391.75 23.3 L391.75 119.4 384.25 127.4 -43.0 127.4 -43.0 110.8 -43.0 102.95 -43.0 28.55 -43.0 23.3 391.75 23.3" fill="url(#gradient0)" fill-rule="evenodd" stroke="none"/>
    <path d="M391.35 118.6 L391.35 120.65 384.4 127.75 -43.0 128.05 -42.95 126.6 383.8 126.6 391.35 118.6" fill="url(#gradient1)" fill-rule="evenodd" stroke="none"/>
    <path d="M164.3 22.6 Q121.9 22.85 44.35 21.95 -33.15 21.0 -44.8 20.5 L172.25 20.5 391.7 20.45 Q351.3 22.35 279.3 22.35 206.75 22.35 164.3 22.6" fill="url(#gradient2)" fill-rule="evenodd" stroke="none"/>
    <path d="M242.7 24.3 Q194.4 24.3 166.15 24.55 137.95 24.8 86.35 23.9 34.75 22.95 27.0 22.45 L171.45 22.45 317.5 22.4 Q290.6 24.3 242.7 24.3" fill="url(#gradient3)" fill-rule="evenodd" stroke="none"/>
  </g>
  <defs>
    <linearGradient gradientTransform="matrix(-4.0E-4, 0.0466, -0.0483, -4.0E-4, 123.1, 62.85)" gradientUnits="userSpaceOnUse" id="gradient0" spreadMethod="pad" x1="-819.2" x2="819.2">
      <stop offset="0.0" stop-color="#260000"/>
      <stop offset="1.0" stop-color="#000000"/>
    </linearGradient>
    <radialGradient cx="0" cy="0" gradientTransform="matrix(0.1434, 0.0, 0.0, -0.1532, 123.15, 117.9)" gradientUnits="userSpaceOnUse" id="gradient1" r="819.2" spreadMethod="pad">
      <stop offset="0.1607843137254902" stop-color="#cc0000"/>
      <stop offset="1.0" stop-color="#660000"/>
    </radialGradient>
    <radialGradient cx="0" cy="0" gradientTransform="matrix(0.269, 0.0, 0.0, 0.3841, 173.35, 21.55)" gradientUnits="userSpaceOnUse" id="gradient2" r="819.2" spreadMethod="pad">
      <stop offset="0.0" stop-color="#ff0000"/>
      <stop offset="1.0" stop-color="#ff0000" stop-opacity="0.0"/>
    </radialGradient>
    <radialGradient cx="0" cy="0" gradientTransform="matrix(0.179, 0.0, 0.0, 0.3841, 172.2, 23.5)" gradientUnits="userSpaceOnUse" id="gradient3" r="819.2" spreadMethod="pad">
      <stop offset="0.0" stop-color="#ff0000"/>
      <stop offset="1.0" stop-color="#ff0000" stop-opacity="0.0"/>
    </radialGradient>
  </defs>
</svg>
