<?xml version="1.0" encoding="UTF-8" standalone="no"?>
<svg xmlns:xlink="http://www.w3.org/1999/xlink" height="570.55px" width="722.4px" xmlns="http://www.w3.org/2000/svg">
  <g transform="matrix(1.0, 0.0, 0.0, 1.0, 2.65, 2.65)">
    <path d="M717.15 532.5 L717.15 552.05 703.9 565.3 0.0 565.3 0.0 532.5 0.0 532.0 0.0 12.55 12.55 0.0 717.15 0.0 717.15 532.0 717.15 532.5" fill="#1a0000" fill-rule="evenodd" stroke="none"/>
    <path d="M716.8 4.4 L716.8 6.5 6.2 6.5 8.15 4.4 716.8 4.4 M716.8 9.15 L716.8 11.25 2.1 11.25 3.35 9.5 3.7 9.15 716.8 9.15 M12.35 -0.15 L716.8 -0.15 716.8 1.95 10.45 1.95 12.35 -0.15 M707.2 559.2 L705.1 561.3 -0.5 561.3 -0.5 559.2 707.2 559.2 M711.95 554.45 L709.9 556.55 -0.5 556.55 -0.5 554.45 711.95 554.45" fill="#4f0000" fill-rule="evenodd" stroke="none"/>
    <path d="M716.8 13.9 L716.8 16.0 -0.5 16.0 -0.5 14.55 0.1 13.9 716.8 13.9 M716.8 550.7 L716.4 550.85 715.05 551.8 -0.5 551.8 -0.5 549.7 716.8 549.7 716.8 550.7" fill="#480000" fill-rule="evenodd" stroke="none"/>
    <path d="M716.8 18.45 L716.8 20.55 -0.5 20.55 -0.5 18.45 716.8 18.45 M716.8 545.15 L716.8 547.25 -0.5 547.25 -0.5 545.15 716.8 545.15" fill="#400000" fill-rule="evenodd" stroke="none"/>
    <path d="M716.8 23.2 L716.8 25.3 -0.5 25.3 -0.5 23.2 716.8 23.2 M716.8 540.4 L716.8 542.5 -0.5 542.5 -0.5 540.4 716.8 540.4" fill="#370000" fill-rule="evenodd" stroke="none"/>
    <path d="M716.8 27.95 L716.8 30.05 -0.5 30.05 -0.5 27.95 716.8 27.95 M716.8 535.65 L716.8 537.75 -0.5 537.75 -0.5 535.65 716.8 535.65" fill="#2b0000" fill-rule="evenodd" stroke="none"/>
    <path d="M716.8 32.65 L716.8 34.75 -0.5 34.75 -0.5 32.65 716.8 32.65 M716.8 531.1 L716.8 533.2 -0.5 533.2 -0.5 531.1 716.8 531.1" fill="#280000" fill-rule="evenodd" stroke="none"/>
    <path d="M718.15 531.5 L718.15 551.05 704.9 564.3 0.0 564.3 0.0 531.5 0.0 531.0 0.0 12.55 12.55 0.0 718.15 0.0 718.15 531.0 718.15 531.5 Z" fill="none" stroke="#d90000" stroke-linecap="round" stroke-linejoin="round" stroke-width="1.5"/>
    <path d="M0.0 28.25 L0.0 23.45 0.0 12.55 12.55 0.0 57.2 0.0" fill="none" stroke="#d90000" stroke-linecap="square" stroke-linejoin="round" stroke-width="4.0"/>
    <path d="M717.1 539.7 L717.1 540.15 717.1 552.0 703.85 565.25 672.5 565.25 667.2 565.25" fill="none" stroke="#d90000" stroke-linecap="square" stroke-linejoin="round" stroke-width="4.0"/>
    <path d="M0.0 28.25 L0.0 23.45 0.0 12.55 12.55 0.0 57.2 0.0" fill="none" stroke="#ff0606" stroke-linecap="square" stroke-linejoin="round" stroke-width="1.0"/>
    <path d="M717.1 539.7 L717.1 540.15 717.1 552.0 703.85 565.25 672.5 565.25 667.2 565.25" fill="none" stroke="#ff0606" stroke-linecap="square" stroke-linejoin="round" stroke-width="1.0"/>
  </g>
</svg>
