<?xml version="1.0" encoding="UTF-8" standalone="no"?>
<svg xmlns:xlink="http://www.w3.org/1999/xlink" height="16.0px" width="14.65px" xmlns="http://www.w3.org/2000/svg">
  <g transform="matrix(1.0, 0.0, 0.0, 1.0, -220.35, -125.45)">
    <path d="M235.0 133.45 Q235.0 136.75 232.9 139.1 230.75 141.45 227.7 141.45 224.7 141.45 222.5 139.1 220.35 136.75 220.35 133.45 220.35 130.1 222.5 127.75 224.7 125.45 227.7 125.45 230.75 125.45 232.9 127.75 235.0 130.1 235.0 133.45" fill="#989898" fill-rule="evenodd" stroke="none"/>
    <path d="M229.15 135.9 L226.25 135.9 226.25 127.6 229.15 127.6 229.15 135.9 M229.25 137.35 L229.45 137.75 229.65 138.4 229.45 139.0 229.25 139.45 228.6 139.6 227.65 139.65 226.8 139.6 226.25 139.45 225.9 139.0 225.85 138.4 225.9 137.75 226.25 137.35 226.8 137.15 227.65 137.15 228.6 137.15 229.25 137.35" fill="#000000" fill-rule="evenodd" stroke="none"/>
  </g>
</svg>
