<?xml version="1.0" encoding="UTF-8" standalone="no"?>
<svg xmlns:xlink="http://www.w3.org/1999/xlink" height="199.95px" width="506.15px" xmlns="http://www.w3.org/2000/svg">
  <g transform="matrix(1.0, 0.0, 0.0, 1.0, -157.6, -166.25)">
    <path d="M663.25 191.75 L590.1 191.75 615.1 166.25 663.25 166.25 663.25 191.75" fill="#000000" fill-opacity="0.8" fill-rule="evenodd" stroke="none"/>
    <path d="M662.75 353.1 L650.95 365.2 158.6 365.2 158.6 202.2 170.3 189.25 662.75 189.25 662.75 353.1" fill="url(#gradient0)" fill-rule="evenodd" stroke="none"/>
    <path d="M662.75 353.1 L662.75 189.25 170.3 189.25 158.6 202.2 158.6 365.2 650.95 365.2 662.75 353.1 Z" fill="none" stroke="url(#gradient1)" stroke-linecap="square" stroke-linejoin="miter" stroke-width="1.5"/>
    <path d="M365.55 228.1 L605.2 228.1 605.2 335.55 365.55 335.55 365.55 228.1" fill="url(#gradient2)" fill-rule="evenodd" stroke="none"/>
  </g>
  <defs>
    <linearGradient gradientTransform="matrix(0.0, 0.3044, 0.4434, 0.0, 382.9, 256.75)" gradientUnits="userSpaceOnUse" id="gradient0" spreadMethod="pad" x1="-819.2" x2="819.2">
      <stop offset="0.0" stop-color="#cc0000"/>
      <stop offset="0.1843137254901961" stop-color="#660000"/>
      <stop offset="0.6039215686274509" stop-color="#000000"/>
      <stop offset="0.8196078431372549" stop-color="#000000"/>
    </linearGradient>
    <linearGradient gradientTransform="matrix(-0.0465, -0.1825, 0.1008, -0.028, 407.75, 335.45)" gradientUnits="userSpaceOnUse" id="gradient1" spreadMethod="pad" x1="-819.2" x2="819.2">
      <stop offset="0.0" stop-color="#ff0000"/>
      <stop offset="1.0" stop-color="#000000"/>
    </linearGradient>
    <linearGradient gradientTransform="matrix(-3.0E-4, -0.0722, 0.0656, -2.0E-4, 482.35, 268.15)" gradientUnits="userSpaceOnUse" id="gradient2" spreadMethod="pad" x1="-819.2" x2="819.2">
      <stop offset="0.0" stop-color="#0a1821" stop-opacity="0.0"/>
      <stop offset="1.0" stop-color="#03558c"/>
    </linearGradient>
  </defs>
</svg>
