<?xml version="1.0" encoding="UTF-8" standalone="no"?>
<svg xmlns:xlink="http://www.w3.org/1999/xlink" height="45.45px" width="39.35px" xmlns="http://www.w3.org/2000/svg">
  <g transform="matrix(1.0, 0.0, 0.0, 1.0, 19.8, 22.0)">
    <path d="M2.55 5.05 L-2.45 5.05 -4.95 0.7 -2.45 -3.65 2.55 -3.65 5.05 0.7 2.55 5.05" fill="url(#gradient0)" fill-rule="evenodd" stroke="none"/>
    <path d="M-15.8 -8.35 L-0.1 -17.4 15.55 -8.35 15.55 9.75 -0.1 18.8 -15.8 9.75 -15.8 -8.35 M-11.9 -7.35 L-12.95 -6.7 -12.95 8.15 -12.25 8.55 -6.95 3.5 -4.25 8.15 -2.95 8.15 -6.8 11.7 -0.1 15.55 6.65 11.65 3.45 8.15 4.35 8.15 7.25 3.15 12.05 8.5 12.75 8.15 12.75 -6.7 12.65 -6.75 7.3 -1.65 4.35 -6.75 3.5 -6.75 6.85 -10.1 -0.1 -14.15 -6.6 -10.4 -2.8 -6.75 -4.25 -6.75 -6.85 -2.3 -11.9 -7.35" fill="url(#gradient1)" fill-rule="evenodd" stroke="none"/>
    <path d="M-19.8 -10.65 L-0.1 -22.0 19.55 -10.65 19.55 12.05 -0.1 23.45 -19.8 12.05 -19.8 -10.65 M-0.1 -19.85 L-17.9 -9.6 -17.9 11.0 -0.1 21.25 17.7 11.0 17.7 -9.6 -0.1 -19.85" fill="url(#gradient2)" fill-rule="evenodd" stroke="none"/>
    <path d="M2.4 -3.35 L-2.25 -3.35 -4.6 0.7 -2.25 4.75 2.4 4.75 4.75 0.7 2.4 -3.35 M2.55 5.05 L-2.45 5.05 -4.95 0.7 -2.45 -3.65 2.55 -3.65 5.05 0.7 2.55 5.05" fill="url(#gradient3)" fill-rule="evenodd" stroke="none"/>
    <path d="M-0.1 -17.05 L-15.5 -8.2 -15.5 9.6 -0.1 18.45 15.3 9.6 15.3 -8.2 -0.1 -17.05 M-15.8 -8.35 L-0.1 -17.4 15.55 -8.35 15.55 9.75 -0.1 18.8 -15.8 9.75 -15.8 -8.35 M-13.25 -6.9 L-11.85 -7.7 -6.9 -2.75 -4.4 -7.05 -3.5 -7.05 -7.1 -10.45 -0.1 -14.45 7.3 -10.2 4.2 -7.05 4.55 -7.05 7.4 -2.15 12.6 -7.15 13.05 -6.9 13.05 8.3 12.0 8.85 7.3 3.65 4.55 8.45 4.1 8.45 7.1 11.7 -0.1 15.85 -7.25 11.75 -3.7 8.45 -4.4 8.45 -7.0 3.95 -12.25 8.85 -13.25 8.3 -13.25 -6.9 M-11.9 -7.35 L-12.95 -6.7 -12.95 8.15 -12.25 8.55 -6.95 3.5 -4.25 8.15 -2.95 8.15 -6.8 11.7 -0.1 15.55 6.65 11.65 3.45 8.15 4.35 8.15 7.25 3.15 12.05 8.5 12.75 8.15 12.75 -6.7 12.65 -6.75 7.3 -1.65 4.35 -6.75 3.5 -6.75 6.85 -10.1 -0.1 -14.15 -6.6 -10.4 -2.8 -6.75 -4.25 -6.75 -6.85 -2.3 -11.9 -7.35" fill="url(#gradient4)" fill-rule="evenodd" stroke="none"/>
    <path d="M-18.2 -9.75 L-0.1 -20.2 18.0 -9.75 18.0 11.15 -0.1 21.6 -18.2 11.15 -18.2 -9.75 M-0.1 -21.7 L-19.5 -10.5 -19.5 11.9 -0.1 23.1 19.3 11.9 19.3 -10.5 -0.1 -21.7 M-19.8 -10.65 L-0.1 -22.0 19.55 -10.65 19.55 12.05 -0.1 23.45 -19.8 12.05 -19.8 -10.65 M-0.1 -19.85 L-17.9 -9.6 -17.9 11.0 -0.1 21.25 17.7 11.0 17.7 -9.6 -0.1 -19.85" fill="url(#gradient5)" fill-rule="evenodd" stroke="none"/>
    <path d="M13.35 -6.8 L13.35 8.55 0.1 16.15 -13.15 8.55 -13.15 -6.8 0.1 -14.45 13.35 -6.8" fill="#000000" fill-rule="evenodd" stroke="none"/>
    <path d="M2.65 -1.8 L8.35 2.3 11.7 0.2 11.7 5.65 8.35 9.0 7.55 8.2 3.45 8.2 3.45 13.35 0.1 16.7 -3.25 13.35 -3.25 8.2 -7.3 8.2 -8.15 9.0 -11.5 5.65 -11.5 0.2 -8.15 2.3 -2.45 -1.8 -3.25 -2.6 -3.25 -8.05 -0.05 -9.55 3.45 -8.05 3.45 -2.6 2.65 -1.8" fill="#23140c" fill-rule="evenodd" stroke="none"/>
  </g>
  <defs>
    <linearGradient gradientTransform="matrix(0.0, -0.0508, -0.0508, 0.0, 0.05, 9.9)" gradientUnits="userSpaceOnUse" id="gradient0" spreadMethod="pad" x1="-819.2" x2="819.2">
      <stop offset="0.00392156862745098" stop-color="#543800"/>
      <stop offset="0.17647058823529413" stop-color="#e9ca00"/>
      <stop offset="0.43529411764705883" stop-color="#6a4a00"/>
      <stop offset="0.44313725490196076" stop-color="#836300"/>
      <stop offset="0.4627450980392157" stop-color="#af8f00"/>
      <stop offset="0.47843137254901963" stop-color="#ceaf00"/>
      <stop offset="0.49019607843137253" stop-color="#e2c300"/>
      <stop offset="0.5019607843137255" stop-color="#e9ca00"/>
      <stop offset="0.6274509803921569" stop-color="#feffbf"/>
      <stop offset="0.7607843137254902" stop-color="#e9ca00"/>
      <stop offset="0.984313725490196" stop-color="#6a4700"/>
    </linearGradient>
    <linearGradient gradientTransform="matrix(0.0, -0.0508, -0.0508, 0.0, -0.1, 9.9)" gradientUnits="userSpaceOnUse" id="gradient1" spreadMethod="pad" x1="-819.2" x2="819.2">
      <stop offset="0.00392156862745098" stop-color="#543800"/>
      <stop offset="0.17647058823529413" stop-color="#e9ca00"/>
      <stop offset="0.43529411764705883" stop-color="#6a4a00"/>
      <stop offset="0.44313725490196076" stop-color="#836300"/>
      <stop offset="0.4627450980392157" stop-color="#af8f00"/>
      <stop offset="0.47843137254901963" stop-color="#ceaf00"/>
      <stop offset="0.49019607843137253" stop-color="#e2c300"/>
      <stop offset="0.5019607843137255" stop-color="#e9ca00"/>
      <stop offset="0.6274509803921569" stop-color="#feffbf"/>
      <stop offset="0.7607843137254902" stop-color="#e9ca00"/>
      <stop offset="0.984313725490196" stop-color="#6a4700"/>
    </linearGradient>
    <linearGradient gradientTransform="matrix(0.0, -0.0508, -0.0508, 0.0, -0.1, 9.9)" gradientUnits="userSpaceOnUse" id="gradient2" spreadMethod="pad" x1="-819.2" x2="819.2">
      <stop offset="0.00392156862745098" stop-color="#543800"/>
      <stop offset="0.17647058823529413" stop-color="#e9ca00"/>
      <stop offset="0.43529411764705883" stop-color="#6a4a00"/>
      <stop offset="0.44313725490196076" stop-color="#836300"/>
      <stop offset="0.4627450980392157" stop-color="#af8f00"/>
      <stop offset="0.47843137254901963" stop-color="#ceaf00"/>
      <stop offset="0.49019607843137253" stop-color="#e2c300"/>
      <stop offset="0.5019607843137255" stop-color="#e9ca00"/>
      <stop offset="0.6274509803921569" stop-color="#feffbf"/>
      <stop offset="0.7607843137254902" stop-color="#e9ca00"/>
      <stop offset="0.984313725490196" stop-color="#6a4700"/>
    </linearGradient>
    <linearGradient gradientTransform="matrix(0.0061, 0.0, 0.0, -0.0061, 0.05, 0.7)" gradientUnits="userSpaceOnUse" id="gradient3" spreadMethod="pad" x1="-819.2" x2="819.2">
      <stop offset="0.07450980392156863" stop-color="#543800"/>
      <stop offset="0.17647058823529413" stop-color="#e9ca00"/>
      <stop offset="0.43529411764705883" stop-color="#6a4a00"/>
      <stop offset="0.4588235294117647" stop-color="#836300"/>
      <stop offset="0.5058823529411764" stop-color="#af8f00"/>
      <stop offset="0.5490196078431373" stop-color="#ceaf00"/>
      <stop offset="0.5843137254901961" stop-color="#e2c300"/>
      <stop offset="0.6078431372549019" stop-color="#e9ca00"/>
      <stop offset="0.6431372549019608" stop-color="#e9ca00"/>
      <stop offset="0.8196078431372549" stop-color="#fff87f"/>
      <stop offset="0.8784313725490196" stop-color="#e9ca00"/>
      <stop offset="0.984313725490196" stop-color="#6a4700"/>
    </linearGradient>
    <linearGradient gradientTransform="matrix(0.0191, 0.0, 0.0, -0.0191, -0.1, 0.7)" gradientUnits="userSpaceOnUse" id="gradient4" spreadMethod="pad" x1="-819.2" x2="819.2">
      <stop offset="0.07450980392156863" stop-color="#543800"/>
      <stop offset="0.17647058823529413" stop-color="#e9ca00"/>
      <stop offset="0.43529411764705883" stop-color="#6a4a00"/>
      <stop offset="0.4588235294117647" stop-color="#836300"/>
      <stop offset="0.5058823529411764" stop-color="#af8f00"/>
      <stop offset="0.5490196078431373" stop-color="#ceaf00"/>
      <stop offset="0.5843137254901961" stop-color="#e2c300"/>
      <stop offset="0.6078431372549019" stop-color="#e9ca00"/>
      <stop offset="0.6431372549019608" stop-color="#e9ca00"/>
      <stop offset="0.8196078431372549" stop-color="#fff87f"/>
      <stop offset="0.8784313725490196" stop-color="#e9ca00"/>
      <stop offset="0.984313725490196" stop-color="#6a4700"/>
    </linearGradient>
    <linearGradient gradientTransform="matrix(0.024, 0.0, 0.0, -0.024, -0.1, 0.7)" gradientUnits="userSpaceOnUse" id="gradient5" spreadMethod="pad" x1="-819.2" x2="819.2">
      <stop offset="0.07450980392156863" stop-color="#543800"/>
      <stop offset="0.17647058823529413" stop-color="#e9ca00"/>
      <stop offset="0.43529411764705883" stop-color="#6a4a00"/>
      <stop offset="0.4588235294117647" stop-color="#836300"/>
      <stop offset="0.5058823529411764" stop-color="#af8f00"/>
      <stop offset="0.5490196078431373" stop-color="#ceaf00"/>
      <stop offset="0.5843137254901961" stop-color="#e2c300"/>
      <stop offset="0.6078431372549019" stop-color="#e9ca00"/>
      <stop offset="0.6431372549019608" stop-color="#e9ca00"/>
      <stop offset="0.8196078431372549" stop-color="#fff87f"/>
      <stop offset="0.8784313725490196" stop-color="#e9ca00"/>
      <stop offset="0.984313725490196" stop-color="#6a4700"/>
    </linearGradient>
  </defs>
</svg>
