<?xml version="1.0" encoding="UTF-8" standalone="no"?>
<svg xmlns:xlink="http://www.w3.org/1999/xlink" height="58.05px" width="65.75px" xmlns="http://www.w3.org/2000/svg">
  <g transform="matrix(1.0, 0.0, 0.0, 1.0, -59.65, -30.0)">
    <path d="M104.75 42.9 Q112.35 50.5 112.35 61.2 112.35 71.9 104.75 79.45 97.2 87.05 86.5 87.05 75.8 87.05 68.2 79.45 60.65 71.9 60.65 61.2 60.65 50.5 68.2 42.9 75.8 35.35 86.5 35.35 97.2 35.35 104.75 42.9 Z" fill="none" stroke="#ffffff" stroke-linecap="round" stroke-linejoin="round" stroke-width="2.0"/>
    <path d="M124.2 31.05 L124.85 30.5 124.4 31.05 86.7 74.5 73.3 58.15 77.95 54.15 82.65 50.35 89.2 59.05 124.2 31.05" fill="#000000" fill-rule="evenodd" stroke="none"/>
    <path d="M124.4 31.05 L124.85 30.5 124.2 31.05" fill="none" stroke="#ffffff" stroke-linecap="round" stroke-linejoin="round" stroke-width="1.0"/>
    <path d="M124.2 31.05 L89.2 59.05 82.65 50.35 77.95 54.15 73.3 58.15 86.7 74.5 124.4 31.05 Z" fill="none" stroke="#ffffff" stroke-linecap="round" stroke-linejoin="round" stroke-width="2.0"/>
  </g>
</svg>
