<?xml version="1.0" encoding="UTF-8" standalone="no"?>
<svg xmlns:xlink="http://www.w3.org/1999/xlink" height="137.6px" width="182.6px" xmlns="http://www.w3.org/2000/svg">
  <g transform="matrix(1.0, 0.0, 0.0, 1.0, 1.3, 1.3)">
    <path d="M80.2 43.15 L98.15 61.15 80.2 79.05 80.2 43.15" fill="#ffffff" fill-rule="evenodd" stroke="none"/>
    <path d="M104.75 42.9 Q112.35 50.5 112.35 61.2 112.35 71.9 104.75 79.45 97.2 87.05 86.5 87.05 75.8 87.05 68.2 79.45 60.65 71.9 60.65 61.2 60.65 50.5 68.2 42.9 75.8 35.35 86.5 35.35 97.2 35.35 104.75 42.9 Z" fill="none" stroke="#ffffff" stroke-linecap="round" stroke-linejoin="round" stroke-width="2.0"/>
    <path d="M180.0 135.0 L0.0 135.0 0.0 0.0 180.0 0.0 180.0 135.0" fill="#ffffff" fill-rule="evenodd" stroke="none"/>
    <path d="M180.0 135.0 L0.0 135.0 0.0 0.0 180.0 0.0 180.0 135.0 Z" fill="none" stroke="#ffffff" stroke-linecap="square" stroke-linejoin="miter" stroke-width="2.0"/>
  </g>
</svg>
