<?xml version="1.0" encoding="UTF-8" standalone="no"?>
<svg xmlns:xlink="http://www.w3.org/1999/xlink" height="57.65px" width="60.7px" xmlns="http://www.w3.org/2000/svg">
  <g transform="matrix(1.0, 0.0, 0.0, 1.0, 21.35, 20.3)">
    <path d="M22.35 15.9 L25.4 34.25 8.9 25.6 -7.6 34.25 -4.35 15.9 -17.6 2.8 0.75 0.25 8.9 -16.4 17.25 0.25 35.6 2.8 22.35 15.9" fill="url(#gradient0)" fill-rule="evenodd" stroke="none"/>
    <path d="M39.35 1.8 L24.05 16.4 27.6 37.35 8.9 27.45 -9.8 37.35 -6.2 16.4 -21.35 1.8 -0.45 -1.25 8.9 -20.3 18.25 -1.25 39.35 1.8 M22.35 15.9 L35.6 2.8 17.25 0.25 8.9 -16.4 0.75 0.25 -17.6 2.8 -4.35 15.9 -7.6 34.25 8.9 25.6 25.4 34.25 22.35 15.9" fill="#000000" fill-rule="evenodd" stroke="none"/>
    <path d="M31.7 3.85 L20.3 14.9 23.0 30.55 8.9 23.05 -5.05 30.55 -2.3 14.9 -13.7 3.85 1.95 1.45 8.9 -12.65 16.05 1.45 31.7 3.85" fill="url(#gradient1)" fill-rule="evenodd" stroke="none"/>
  </g>
  <defs>
    <linearGradient gradientTransform="matrix(0.0154, -0.0317, -0.0317, -0.0154, 10.1, 5.7)" gradientUnits="userSpaceOnUse" id="gradient0" spreadMethod="pad" x1="-819.2" x2="819.2">
      <stop offset="0.0" stop-color="#e8b56b"/>
      <stop offset="1.0" stop-color="#b27720"/>
    </linearGradient>
    <linearGradient gradientTransform="matrix(-0.0134, 0.0202, 0.0202, 0.0134, 10.8, 7.75)" gradientUnits="userSpaceOnUse" id="gradient1" spreadMethod="pad" x1="-819.2" x2="819.2">
      <stop offset="0.0" stop-color="#e8b56b"/>
      <stop offset="1.0" stop-color="#b27720"/>
    </linearGradient>
  </defs>
</svg>
