<?xml version="1.0" encoding="UTF-8" standalone="no"?>
<svg xmlns:xlink="http://www.w3.org/1999/xlink" height="568.05px" width="719.2px" xmlns="http://www.w3.org/2000/svg">
  <g transform="matrix(1.0, 0.0, 0.0, 1.0, 1.1, -0.1)">
    <path d="M3.35 37.85 L-1.1 37.75 356.45 37.75 718.1 37.7 714.2 37.8 Q648.85 39.35 532.85 39.35 413.35 39.35 343.5 39.65 273.65 39.85 145.85 39.05 L93.8 38.35 3.75 37.85 3.35 37.85" fill="url(#gradient0)" fill-rule="evenodd" stroke="none"/>
    <path d="M714.2 37.8 L718.1 37.8 Q652.7 40.1 533.9 40.1 415.05 40.1 345.65 40.45 276.2 40.75 149.1 39.7 22.0 38.5 2.95 37.85 L3.35 37.85 3.75 37.85 93.8 38.35 145.85 39.05 Q273.65 39.85 343.5 39.65 413.35 39.35 532.85 39.35 648.85 39.35 714.2 37.8" fill="url(#gradient1)" fill-rule="evenodd" stroke="none"/>
    <path d="M718.0 550.15 L701.75 567.3 -0.95 567.3 -0.95 17.2 15.3 0.1 718.0 0.1 718.0 550.15" fill="url(#gradient2)" fill-rule="evenodd" stroke="none"/>
    <path d="M718.05 547.9 L718.1 552.4 703.0 567.55 -1.1 568.15 -0.95 565.05 701.65 565.05 718.05 547.9" fill="url(#gradient3)" fill-rule="evenodd" stroke="none"/>
    <path d="M717.45 266.9 L-0.95 266.9 -0.95 46.7 717.45 46.7 717.45 266.9" fill="#000000" fill-rule="evenodd" stroke="none"/>
    <path d="M717.45 266.9 L-0.95 266.9 -0.95 46.6 717.45 46.6 717.45 266.9" fill="url(#gradient4)" fill-rule="evenodd" stroke="none"/>
    <path d="M-1.0 514.5 L717.4 514.5 717.4 542.0 -1.0 542.0 -1.0 514.5" fill="url(#gradient5)" fill-rule="evenodd" stroke="none"/>
    <path d="M717.45 540.85 L717.45 543.25 -1.0 543.25 -1.0 540.85 717.45 540.85" fill="url(#gradient6)" fill-rule="evenodd" stroke="none"/>
  </g>
  <defs>
    <radialGradient cx="0" cy="0" gradientTransform="matrix(0.4433, 0.0, 0.0, 0.3375, 358.5, 38.7)" gradientUnits="userSpaceOnUse" id="gradient0" r="819.2" spreadMethod="pad">
      <stop offset="0.0" stop-color="#ff0000"/>
      <stop offset="1.0" stop-color="#ff0000" stop-opacity="0.0"/>
    </radialGradient>
    <radialGradient cx="0" cy="0" gradientTransform="matrix(0.4407, 0.0, 0.0, 0.4647, 360.55, 39.15)" gradientUnits="userSpaceOnUse" id="gradient1" r="819.2" spreadMethod="pad">
      <stop offset="0.0" stop-color="#ff0000"/>
      <stop offset="1.0" stop-color="#ff0000" stop-opacity="0.0"/>
    </radialGradient>
    <linearGradient gradientTransform="matrix(0.0, 0.6485, 0.6151, 0.0, 374.3, 200.9)" gradientUnits="userSpaceOnUse" id="gradient2" spreadMethod="pad" x1="-819.2" x2="819.2">
      <stop offset="0.0" stop-color="#cc0000"/>
      <stop offset="0.1843137254901961" stop-color="#660000"/>
      <stop offset="0.6039215686274509" stop-color="#000000"/>
      <stop offset="0.8196078431372549" stop-color="#000000"/>
    </linearGradient>
    <radialGradient cx="0" cy="0" gradientTransform="matrix(0.3103, 0.0, 0.0, -0.3272, 358.4, 557.2)" gradientUnits="userSpaceOnUse" id="gradient3" r="819.2" spreadMethod="pad">
      <stop offset="0.1607843137254902" stop-color="#cc0000"/>
      <stop offset="1.0" stop-color="#660000"/>
    </radialGradient>
    <linearGradient gradientTransform="matrix(0.0, 0.1409, 0.1891, 0.0, 357.15, 111.95)" gradientUnits="userSpaceOnUse" id="gradient4" spreadMethod="pad" x1="-819.2" x2="819.2">
      <stop offset="0.0" stop-color="#330000"/>
      <stop offset="1.0" stop-color="#000000"/>
    </linearGradient>
    <linearGradient gradientTransform="matrix(0.0, -0.0687, -0.0611, 0.0, 362.5, 513.55)" gradientUnits="userSpaceOnUse" id="gradient5" spreadMethod="pad" x1="-819.2" x2="819.2">
      <stop offset="0.0" stop-color="#cc0000"/>
      <stop offset="0.1843137254901961" stop-color="#660000"/>
      <stop offset="0.6039215686274509" stop-color="#000000"/>
      <stop offset="0.8196078431372549" stop-color="#000000"/>
    </linearGradient>
    <radialGradient cx="0" cy="0" gradientTransform="matrix(0.4386, 0.0, 0.0, 0.9247, 358.25, 542.05)" gradientUnits="userSpaceOnUse" id="gradient6" r="819.2" spreadMethod="pad">
      <stop offset="0.0" stop-color="#cc0000"/>
      <stop offset="0.9764705882352941" stop-color="#660000"/>
    </radialGradient>
  </defs>
</svg>
