<?xml version="1.0" encoding="UTF-8" standalone="no"?>
<svg xmlns:xlink="http://www.w3.org/1999/xlink" height="188.6px" width="464.25px" xmlns="http://www.w3.org/2000/svg">
  <g transform="matrix(1.0, 0.0, 0.0, 1.0, 7.25, -80.85)">
    <path d="M457.0 85.3 L-7.25 85.3 -7.25 80.85 457.0 80.85 457.0 85.3" fill="url(#gradient0)" fill-rule="evenodd" stroke="none"/>
    <path d="M457.0 94.55 L-7.25 94.55 -7.25 90.1 457.0 90.1 457.0 94.55" fill="url(#gradient1)" fill-rule="evenodd" stroke="none"/>
    <path d="M457.0 103.75 L-7.25 103.75 -7.25 99.3 457.0 99.3 457.0 103.75" fill="url(#gradient2)" fill-rule="evenodd" stroke="none"/>
    <path d="M457.0 112.95 L-7.25 112.95 -7.25 108.5 457.0 108.5 457.0 112.95" fill="url(#gradient3)" fill-rule="evenodd" stroke="none"/>
    <path d="M457.0 131.4 L-7.25 131.4 -7.25 126.9 457.0 126.9 457.0 131.4" fill="url(#gradient4)" fill-rule="evenodd" stroke="none"/>
    <path d="M457.0 140.6 L-7.25 140.6 -7.25 136.15 457.0 136.15 457.0 140.6" fill="url(#gradient5)" fill-rule="evenodd" stroke="none"/>
    <path d="M457.0 122.15 L-7.25 122.15 -7.25 117.7 457.0 117.7 457.0 122.15 M457.0 241.9 L-7.25 241.9 -7.25 237.45 457.0 237.45 457.0 241.9" fill="url(#gradient6)" fill-rule="evenodd" stroke="none"/>
    <path d="M457.0 159.0 L-7.25 159.0 -7.25 154.55 457.0 154.55 457.0 159.0" fill="url(#gradient7)" fill-rule="evenodd" stroke="none"/>
    <path d="M457.0 195.85 L-7.25 195.85 -7.25 191.4 457.0 191.4 457.0 195.85 M457.0 177.45 L-7.25 177.45 -7.25 173.0 457.0 173.0 457.0 177.45" fill="url(#gradient8)" fill-rule="evenodd" stroke="none"/>
    <path d="M457.0 168.2 L-7.25 168.2 -7.25 163.75 457.0 163.75 457.0 168.2" fill="url(#gradient9)" fill-rule="evenodd" stroke="none"/>
    <path d="M457.0 186.65 L-7.25 186.65 -7.25 182.2 457.0 182.2 457.0 186.65 M457.0 205.05 L-7.25 205.05 -7.25 200.6 457.0 200.6 457.0 205.05" fill="url(#gradient10)" fill-rule="evenodd" stroke="none"/>
    <path d="M457.0 149.8 L-7.25 149.8 -7.25 145.35 457.0 145.35 457.0 149.8 M457.0 269.45 L-7.25 269.45 -7.25 265.0 457.0 265.0 457.0 269.45" fill="url(#gradient11)" fill-rule="evenodd" stroke="none"/>
    <path d="M457.0 232.7 L-7.25 232.7 -7.25 228.25 457.0 228.25 457.0 232.7 M457.0 251.1 L-7.25 251.1 -7.25 246.65 457.0 246.65 457.0 251.1" fill="url(#gradient12)" fill-rule="evenodd" stroke="none"/>
    <path d="M457.0 223.5 L-7.25 223.5 -7.25 219.05 457.0 219.05 457.0 223.5" fill="url(#gradient13)" fill-rule="evenodd" stroke="none"/>
    <path d="M457.0 214.25 L-7.25 214.25 -7.25 209.8 457.0 209.8 457.0 214.25" fill="url(#gradient14)" fill-rule="evenodd" stroke="none"/>
    <path d="M457.0 260.25 L-7.25 260.25 -7.25 255.85 457.0 255.85 457.0 260.25" fill="url(#gradient15)" fill-rule="evenodd" stroke="none"/>
    <path d="M351.5 115.15 Q412.8 140.65 412.8 176.8 412.8 212.95 351.5 238.5 L347.2 240.25 Q287.25 264.0 203.55 264.0 116.95 264.0 55.65 238.5 30.65 228.05 15.9 215.85 -5.6 198.15 -5.6 176.8 -5.6 140.65 55.65 115.15 116.95 89.6 203.55 89.6 290.25 89.6 351.5 115.15" fill="url(#gradient16)" fill-rule="evenodd" stroke="none"/>
  </g>
  <defs>
    <radialGradient cx="0" cy="0" gradientTransform="matrix(0.2629, 0.0, 0.0, 0.1547, 213.5, 168.85)" gradientUnits="userSpaceOnUse" id="gradient0" r="819.2" spreadMethod="pad">
      <stop offset="0.0" stop-color="#775400" stop-opacity="0.47843137"/>
      <stop offset="1.0" stop-color="#553800" stop-opacity="0.07058824"/>
    </radialGradient>
    <radialGradient cx="0" cy="0" gradientTransform="matrix(0.2629, 0.0, 0.0, 0.1547, 213.5, 169.2)" gradientUnits="userSpaceOnUse" id="gradient1" r="819.2" spreadMethod="pad">
      <stop offset="0.0" stop-color="#775400" stop-opacity="0.47843137"/>
      <stop offset="1.0" stop-color="#553800" stop-opacity="0.07058824"/>
    </radialGradient>
    <radialGradient cx="0" cy="0" gradientTransform="matrix(0.2629, 0.0, 0.0, 0.1547, 213.5, 169.5)" gradientUnits="userSpaceOnUse" id="gradient2" r="819.2" spreadMethod="pad">
      <stop offset="0.0" stop-color="#775400" stop-opacity="0.47843137"/>
      <stop offset="1.0" stop-color="#553800" stop-opacity="0.07058824"/>
    </radialGradient>
    <radialGradient cx="0" cy="0" gradientTransform="matrix(0.2629, 0.0, 0.0, 0.1547, 213.5, 169.15)" gradientUnits="userSpaceOnUse" id="gradient3" r="819.2" spreadMethod="pad">
      <stop offset="0.0" stop-color="#775400" stop-opacity="0.47843137"/>
      <stop offset="1.0" stop-color="#553800" stop-opacity="0.07058824"/>
    </radialGradient>
    <radialGradient cx="0" cy="0" gradientTransform="matrix(0.2629, 0.0, 0.0, 0.1547, 213.5, 168.7)" gradientUnits="userSpaceOnUse" id="gradient4" r="819.2" spreadMethod="pad">
      <stop offset="0.0" stop-color="#775400" stop-opacity="0.47843137"/>
      <stop offset="1.0" stop-color="#553800" stop-opacity="0.07058824"/>
    </radialGradient>
    <radialGradient cx="0" cy="0" gradientTransform="matrix(0.2629, 0.0, 0.0, 0.1547, 213.5, 168.2)" gradientUnits="userSpaceOnUse" id="gradient5" r="819.2" spreadMethod="pad">
      <stop offset="0.0" stop-color="#775400" stop-opacity="0.47843137"/>
      <stop offset="1.0" stop-color="#553800" stop-opacity="0.07058824"/>
    </radialGradient>
    <radialGradient cx="0" cy="0" gradientTransform="matrix(0.2629, 0.0, 0.0, 0.1547, 213.5, 168.35)" gradientUnits="userSpaceOnUse" id="gradient6" r="819.2" spreadMethod="pad">
      <stop offset="0.0" stop-color="#775400" stop-opacity="0.47843137"/>
      <stop offset="1.0" stop-color="#553800" stop-opacity="0.07058824"/>
    </radialGradient>
    <radialGradient cx="0" cy="0" gradientTransform="matrix(0.2629, 0.0, 0.0, 0.1547, 213.5, 169.0)" gradientUnits="userSpaceOnUse" id="gradient7" r="819.2" spreadMethod="pad">
      <stop offset="0.0" stop-color="#775400" stop-opacity="0.47843137"/>
      <stop offset="1.0" stop-color="#553800" stop-opacity="0.07058824"/>
    </radialGradient>
    <radialGradient cx="0" cy="0" gradientTransform="matrix(0.2629, 0.0, 0.0, 0.1547, 213.5, 167.65)" gradientUnits="userSpaceOnUse" id="gradient8" r="819.2" spreadMethod="pad">
      <stop offset="0.0" stop-color="#775400" stop-opacity="0.47843137"/>
      <stop offset="1.0" stop-color="#553800" stop-opacity="0.07058824"/>
    </radialGradient>
    <radialGradient cx="0" cy="0" gradientTransform="matrix(0.2629, 0.0, 0.0, 0.1547, 213.5, 168.6)" gradientUnits="userSpaceOnUse" id="gradient9" r="819.2" spreadMethod="pad">
      <stop offset="0.0" stop-color="#775400" stop-opacity="0.47843137"/>
      <stop offset="1.0" stop-color="#553800" stop-opacity="0.07058824"/>
    </radialGradient>
    <radialGradient cx="0" cy="0" gradientTransform="matrix(0.2629, 0.0, 0.0, 0.1547, 213.5, 168.05)" gradientUnits="userSpaceOnUse" id="gradient10" r="819.2" spreadMethod="pad">
      <stop offset="0.0" stop-color="#775400" stop-opacity="0.47843137"/>
      <stop offset="1.0" stop-color="#553800" stop-opacity="0.07058824"/>
    </radialGradient>
    <radialGradient cx="0" cy="0" gradientTransform="matrix(0.2629, 0.0, 0.0, 0.1547, 213.5, 168.65)" gradientUnits="userSpaceOnUse" id="gradient11" r="819.2" spreadMethod="pad">
      <stop offset="0.0" stop-color="#775400" stop-opacity="0.47843137"/>
      <stop offset="1.0" stop-color="#553800" stop-opacity="0.07058824"/>
    </radialGradient>
    <radialGradient cx="0" cy="0" gradientTransform="matrix(0.2629, 0.0, 0.0, 0.1547, 213.5, 168.75)" gradientUnits="userSpaceOnUse" id="gradient12" r="819.2" spreadMethod="pad">
      <stop offset="0.0" stop-color="#775400" stop-opacity="0.47843137"/>
      <stop offset="1.0" stop-color="#553800" stop-opacity="0.07058824"/>
    </radialGradient>
    <radialGradient cx="0" cy="0" gradientTransform="matrix(0.2629, 0.0, 0.0, 0.1547, 213.5, 168.45)" gradientUnits="userSpaceOnUse" id="gradient13" r="819.2" spreadMethod="pad">
      <stop offset="0.0" stop-color="#775400" stop-opacity="0.47843137"/>
      <stop offset="1.0" stop-color="#553800" stop-opacity="0.07058824"/>
    </radialGradient>
    <radialGradient cx="0" cy="0" gradientTransform="matrix(0.2629, 0.0, 0.0, 0.1547, 213.5, 168.4)" gradientUnits="userSpaceOnUse" id="gradient14" r="819.2" spreadMethod="pad">
      <stop offset="0.0" stop-color="#775400" stop-opacity="0.47843137"/>
      <stop offset="1.0" stop-color="#553800" stop-opacity="0.07058824"/>
    </radialGradient>
    <radialGradient cx="0" cy="0" gradientTransform="matrix(0.2629, 0.0, 0.0, 0.1547, 213.5, 169.05)" gradientUnits="userSpaceOnUse" id="gradient15" r="819.2" spreadMethod="pad">
      <stop offset="0.0" stop-color="#775400" stop-opacity="0.47843137"/>
      <stop offset="1.0" stop-color="#553800" stop-opacity="0.07058824"/>
    </radialGradient>
    <radialGradient cx="0" cy="0" gradientTransform="matrix(0.0013, -0.1058, 0.231, 0.0032, 203.55, 176.8)" gradientUnits="userSpaceOnUse" id="gradient16" r="819.2" spreadMethod="pad">
      <stop offset="0.23137254901960785" stop-color="#c27e14" stop-opacity="0.6"/>
      <stop offset="1.0" stop-color="#c28b14" stop-opacity="0.011764706"/>
    </radialGradient>
  </defs>
</svg>
