<?xml version="1.0" encoding="UTF-8" standalone="no"?>
<svg xmlns:xlink="http://www.w3.org/1999/xlink" height="57.65px" width="60.5px" xmlns="http://www.w3.org/2000/svg">
  <g transform="matrix(1.0, 0.0, 0.0, 1.0, 21.35, 20.3)">
    <path d="M22.15 15.9 L25.4 34.25 8.9 25.6 -7.6 34.25 -4.35 15.9 -17.6 3.0 0.75 0.25 8.9 -16.4 17.25 0.25 35.6 3.0 22.15 15.9" fill="url(#gradient0)" fill-rule="evenodd" stroke="none"/>
    <path d="M22.15 15.9 L35.6 3.0 17.25 0.25 8.9 -16.4 0.75 0.25 -17.6 3.0 -4.35 15.9 -7.6 34.25 8.9 25.6 25.4 34.25 22.15 15.9 M39.15 1.8 L24.05 16.4 27.6 37.35 8.9 27.45 -9.8 37.35 -6.2 16.4 -21.35 1.8 -0.45 -1.25 8.9 -20.3 18.25 -1.25 39.15 1.8" fill="#020202" fill-rule="evenodd" stroke="none"/>
    <path d="M20.3 14.9 L23.0 30.55 8.9 23.05 -5.05 30.55 -2.5 14.9 -13.85 3.85 1.95 1.45 8.9 -12.65 15.9 1.45 31.7 3.85 20.3 14.9" fill="url(#gradient1)" fill-rule="evenodd" stroke="none"/>
  </g>
  <defs>
    <linearGradient gradientTransform="matrix(0.0325, 0.0, 0.0, -0.0325, 8.9, 8.95)" gradientUnits="userSpaceOnUse" id="gradient0" spreadMethod="pad" x1="-819.2" x2="819.2">
      <stop offset="0.0" stop-color="#f1f1f2"/>
      <stop offset="1.0" stop-color="#a6a8ab"/>
    </linearGradient>
    <linearGradient gradientTransform="matrix(-0.0134, 0.0202, 0.0202, 0.0134, 10.8, 7.75)" gradientUnits="userSpaceOnUse" id="gradient1" spreadMethod="pad" x1="-819.2" x2="819.2">
      <stop offset="0.0" stop-color="#f1f1f2"/>
      <stop offset="1.0" stop-color="#a6a8ab"/>
    </linearGradient>
  </defs>
</svg>
