<?xml version="1.0" encoding="UTF-8" standalone="no"?>
<svg xmlns:xlink="http://www.w3.org/1999/xlink" height="32.5px" width="27.05px" xmlns="http://www.w3.org/2000/svg">
  <g transform="matrix(1.0, 0.0, 0.0, 1.0, 12.65, 14.8)">
    <path d="M14.3 4.05 Q14.95 10.7 11.45 14.65 7.9 18.55 2.35 17.45 -3.2 16.4 -7.55 10.95 -11.95 5.45 -12.55 -1.15 -13.2 -7.8 -9.7 -11.7 -6.25 -15.65 -0.65 -14.55 4.9 -13.5 9.3 -8.0 13.7 -2.55 14.3 4.05" fill="#ff9900" fill-rule="evenodd" stroke="none"/>
    <path d="M14.3 4.05 Q14.95 10.7 11.45 14.65 7.9 18.55 2.35 17.45 -3.2 16.4 -7.55 10.95 -11.95 5.45 -12.55 -1.15 -13.2 -7.8 -9.7 -11.7 -6.25 -15.65 -0.65 -14.55 4.9 -13.5 9.3 -8.0 13.7 -2.55 14.3 4.05" fill="url(#gradient0)" fill-rule="evenodd" stroke="none"/>
    <path d="M9.9 -5.25 L7.85 -3.25 5.55 -1.25 Q-2.45 4.65 -8.2 5.0 L-9.9 5.15 -10.6 5.15 -10.8 5.15 -10.95 5.1 -11.1 5.0 -11.5 3.75 -11.55 3.55 -10.9 3.55 -10.85 3.55 -10.6 3.6 Q-6.55 3.6 -1.95 1.45 L-1.1 1.05 0.95 -0.05 3.35 -1.35 4.45 -2.15 7.1 -4.45 Q8.95 -6.1 9.8 -7.3 L10.0 -7.05 10.7 -6.15 9.9 -5.25 M5.45 -7.6 Q3.8 -5.8 1.5 -4.5 L-1.15 -2.85 Q-2.95 -1.85 -4.65 -1.4 L-7.05 -0.65 -10.05 -0.2 -11.7 -0.05 -12.45 -0.05 -12.6 -1.3 Q-8.9 -1.25 -5.55 -2.45 -3.2 -3.3 0.4 -5.4 2.5 -6.6 4.4 -8.5 5.95 -10.05 6.25 -11.05 L6.6 -10.8 7.1 -10.3 Q6.8 -9.15 5.45 -7.6 M0.9 -8.55 L0.75 -8.25 Q0.6 -8.1 0.45 -8.1 0.0 -8.1 0.0 -8.6 0.0 -9.0 0.45 -9.0 L0.9 -8.55 M3.3 -8.2 L3.15 -7.95 Q3.0 -7.8 2.85 -7.8 2.45 -7.8 2.45 -8.25 2.45 -8.65 2.9 -8.65 3.3 -8.65 3.3 -8.2 M6.0 13.95 L6.05 14.0 6.05 14.05 5.95 13.95 6.0 13.95 M-2.7 -9.35 Q-1.7 -9.35 -1.0 -8.3 -0.4 -7.45 -0.4 -6.85 -0.4 -5.35 -1.8 -5.35 -3.2 -5.35 -3.8 -6.55 -4.15 -7.2 -4.15 -7.95 -4.2 -9.35 -2.7 -9.35 M-8.05 -3.65 Q-7.8 -3.65 -7.7 -3.4 L-7.65 -3.15 Q-7.65 -2.7 -8.1 -2.7 -8.4 -2.7 -8.55 -3.25 -8.55 -3.65 -8.05 -3.65 M-5.95 -6.15 Q-5.95 -4.9 -6.8 -4.9 -7.75 -4.9 -7.75 -5.7 -7.75 -6.9 -6.85 -6.9 -5.95 -6.95 -5.95 -6.15" fill="#ffee00" fill-rule="evenodd" stroke="none"/>
    <path d="M12.1 -0.35 L7.35 3.5 Q-1.15 9.3 -7.7 9.3 L-8.85 9.25 -9.25 8.85 -9.8 7.95 -9.85 7.85 Q-5.75 7.85 -1.2 5.9 1.8 4.65 5.6 2.15 L10.4 -1.5 12.4 -3.35 12.75 -2.65 13.2 -1.65 12.1 -0.35 M-0.75 10.7 Q0.15 10.7 0.85 11.5 1.4 12.15 1.4 12.55 1.4 13.6 0.4 13.6 -0.4 13.6 -1.25 12.9 -2.05 12.2 -2.05 11.65 L-1.8 10.95 -0.75 10.7 M3.35 12.5 Q4.3 12.5 4.3 13.05 4.3 13.6 3.8 13.6 3.0 13.6 3.0 12.9 3.0 12.5 3.35 12.5" fill="#e55e0a" fill-rule="evenodd" stroke="none"/>
    <path d="M8.2 12.85 Q8.6 12.85 8.9 13.45 8.9 13.95 8.55 13.95 L8.0 13.65 7.75 13.25 Q7.75 12.85 8.2 12.85" fill="#833403" fill-rule="evenodd" stroke="none"/>
    <path d="M-6.25 10.1 Q-5.65 10.1 -5.25 10.7 L-4.9 11.4 Q-4.9 11.95 -5.3 11.95 L-6.3 11.3 -6.8 10.6 Q-6.8 10.1 -6.25 10.1" fill="#8a3501" fill-rule="evenodd" stroke="none"/>
    <path d="M3.6 7.95 L4.1 8.3 4.25 8.7 Q4.25 9.3 3.75 9.3 L3.25 8.9 3.0 8.45 Q3.0 7.95 3.6 7.95 M6.7 7.9 Q7.8 7.9 8.45 8.65 8.9 9.2 8.9 9.8 L8.6 10.75 Q8.15 11.35 7.35 11.35 6.25 11.35 5.7 10.55 5.35 10.0 5.35 9.45 5.35 7.9 6.7 7.9" fill="#ff6100" fill-rule="evenodd" stroke="none"/>
    <path d="M12.9 3.2 Q12.9 3.85 12.45 3.85 L12.05 3.4 11.9 2.95 Q11.9 2.35 12.4 2.5 12.9 2.65 12.9 3.2 M13.4 7.25 Q13.4 7.9 12.95 7.9 L12.55 7.45 12.4 7.0 Q12.4 6.4 12.9 6.55 13.4 6.7 13.4 7.25" fill="#80390c" fill-rule="evenodd" stroke="none"/>
    <path d="M4.6 -11.9 Q4.6 -11.1 3.8 -11.1 2.3 -11.1 2.2 -12.35 2.2 -13.25 3.4 -12.85 4.6 -12.5 4.6 -11.9 M-10.45 -4.85 Q-10.45 -3.45 -11.5 -3.45 -12.2 -3.45 -12.15 -4.4 -12.15 -5.65 -11.3 -5.8 -10.45 -5.95 -10.45 -4.85" fill="#ffd200" fill-rule="evenodd" stroke="none"/>
    <path d="M-2.45 -13.65 Q-0.6 -13.65 -0.6 -12.25 -0.6 -11.15 -1.55 -11.15 -2.4 -11.15 -3.15 -11.85 -3.8 -12.45 -3.8 -12.8 L-3.6 -13.35 -3.25 -13.6 -3.05 -13.65 -2.45 -13.65 M-5.65 -13.5 Q-5.65 -13.25 -5.95 -13.25 -6.45 -13.25 -6.35 -13.55 L-6.0 -13.8 -5.65 -13.5 M-4.25 -11.55 L-3.95 -11.5 -3.25 -10.95 -3.1 -10.55 Q-3.1 -10.05 -3.75 -10.05 -4.8 -10.05 -4.85 -10.95 -4.85 -11.55 -4.25 -11.55 M-5.6 -10.25 Q-5.6 -9.15 -6.5 -9.15 -7.4 -9.15 -7.9 -10.2 -7.9 -11.5 -6.75 -11.45 -5.6 -11.4 -5.6 -10.25" fill="#ffe672" fill-rule="evenodd" stroke="none"/>
    <path d="M11.1 5.85 L11.0 6.8 Q10.75 7.4 9.95 7.4 8.65 7.4 8.65 5.65 8.65 3.8 9.9 4.05 11.1 4.3 11.1 5.85" fill="#d0590f" fill-rule="evenodd" stroke="none"/>
  </g>
  <defs>
    <radialGradient cx="0" cy="0" fx="-1561.6000000000001" fy="0" gradientTransform="matrix(0.0195, -0.0072, 0.0113, 0.0305, -0.5, -5.1)" gradientUnits="userSpaceOnUse" id="gradient0" r="819.2" spreadMethod="pad">
      <stop offset="0.2784313725490196" stop-color="#ff9900" stop-opacity="0.0"/>
      <stop offset="0.8235294117647058" stop-color="#562b03"/>
    </radialGradient>
  </defs>
</svg>
