<?xml version="1.0" encoding="UTF-8" standalone="no"?>
<svg xmlns:xlink="http://www.w3.org/1999/xlink" height="20.3px" width="20.3px" xmlns="http://www.w3.org/2000/svg">
  <g transform="matrix(1.0, 0.0, 0.0, 1.0, 10.15, 9.0)">
    <path d="M4.65 6.5 Q1.0 9.2 -2.95 9.35 -6.95 9.4 -8.95 6.8 -10.9 4.2 -9.7 0.4 -8.5 -3.4 -4.85 -6.15 -1.2 -8.9 2.75 -9.0 6.8 -9.05 8.75 -6.5 10.7 -3.9 9.45 -0.05 8.3 3.7 4.65 6.5" fill="#eb1e25" fill-rule="evenodd" stroke="none"/>
    <path d="M4.65 6.5 Q1.0 9.2 -2.95 9.35 -6.95 9.4 -8.95 6.8 -10.9 4.2 -9.7 0.4 -8.5 -3.4 -4.85 -6.15 -1.2 -8.9 2.75 -9.0 6.8 -9.05 8.75 -6.5 10.7 -3.9 9.45 -0.05 8.3 3.7 4.65 6.5" fill="url(#gradient0)" fill-rule="evenodd" stroke="none"/>
    <path d="M8.05 -4.2 Q8.5 -3.5 9.7 -2.45 L9.85 -2.3 9.85 -2.1 9.85 -1.75 9.75 -1.45 Q8.7 -1.95 7.75 -3.25 L6.75 -4.9 6.6 -5.15 6.35 -6.05 6.25 -7.6 6.3 -8.3 7.05 -7.95 7.0 -7.5 7.15 -6.5 7.3 -5.5 Q7.5 -4.7 7.95 -4.35 L8.05 -4.2 M4.25 -8.15 L4.15 -6.8 Q4.15 -5.2 4.4 -4.45 4.7 -3.45 5.9 -2.0 L8.5 0.5 9.15 1.05 8.75 1.75 8.65 2.0 7.15 0.85 4.8 -1.45 Q4.25 -2.0 3.65 -3.5 3.0 -5.1 3.0 -5.9 3.0 -7.4 3.15 -8.05 L3.5 -8.95 4.55 -8.8 4.25 -8.15 M2.35 -6.05 L2.0 -5.3 Q1.55 -4.8 0.9 -4.8 0.1 -4.8 0.1 -5.4 0.1 -6.15 1.25 -6.5 2.35 -6.85 2.35 -6.05 M3.0 -2.2 Q3.0 -1.8 2.6 -1.3 2.1 -0.6 1.3 -0.6 0.0 -0.6 0.25 -1.85 0.25 -2.65 1.65 -2.9 3.0 -3.15 3.0 -2.2 M5.6 -4.75 L5.65 -4.4 Q5.7 -4.3 5.45 -4.3 L5.2 -4.35 5.15 -4.55 5.6 -4.75 M7.95 -2.3 Q7.95 -1.6 7.45 -1.6 6.75 -1.6 6.75 -1.95 6.75 -2.95 7.35 -2.95 7.95 -2.9 7.95 -2.3 M6.45 1.35 Q6.8 1.35 6.8 1.7 L6.35 2.05 6.0 1.9 6.0 1.7 Q6.0 1.35 6.45 1.35 M-1.9 -7.5 L-2.0 -5.4 Q-2.0 -3.9 -1.45 -2.4 L-1.5 -2.15 -1.45 -2.0 -1.25 -1.8 -1.2 -1.75 Q-0.95 -0.9 0.05 0.6 L0.1 0.65 0.2 0.85 0.6 1.45 0.9 1.8 1.45 2.45 2.4 3.35 2.45 3.4 2.55 3.5 2.85 3.8 3.45 4.3 3.55 4.4 3.6 4.4 3.65 4.4 5.35 5.2 6.15 5.5 5.35 6.05 4.15 5.7 3.65 5.5 3.6 5.5 Q3.0 5.5 2.05 4.7 L1.55 4.25 0.85 3.8 -0.4 2.4 Q-3.2 -1.25 -3.2 -5.45 L-2.95 -7.25 Q-2.55 -7.45 -1.85 -7.8 L-1.9 -7.5 M2.75 1.45 Q2.75 2.15 2.05 2.15 1.5 2.15 1.45 1.65 1.45 1.0 2.1 0.95 2.75 0.85 2.75 1.45 M9.1 11.25 L9.1 11.3 9.0 11.25 9.05 11.25 9.1 11.25 M-3.8 0.45 L-4.2 0.9 -4.55 0.55 Q-4.55 0.15 -4.15 0.15 -3.8 0.15 -3.8 0.45 M-6.05 2.6 Q-5.25 2.6 -5.25 3.4 L-5.45 4.45 Q-5.75 5.35 -6.5 5.35 -7.6 5.35 -7.55 4.25 L-7.3 3.35 Q-6.85 2.6 -6.05 2.6 M-4.3 6.4 Q-4.3 6.95 -4.9 6.95 -5.45 6.95 -5.45 6.45 -5.45 5.95 -4.85 5.95 -4.3 5.95 -4.3 6.4" fill="#ff7800" fill-rule="evenodd" stroke="none"/>
    <path d="M2.4 -8.0 Q2.3 -7.5 1.85 -7.5 L1.5 -7.6 1.45 -7.85 1.65 -8.15 2.4 -8.0 M8.8 -5.25 L8.7 -5.05 Q8.6 -4.9 8.45 -4.9 L8.2 -5.2 Q8.2 -5.9 8.8 -5.25 M8.7 -1.05 L8.45 -0.8 Q8.25 -0.8 8.15 -0.95 L8.1 -1.05 Q8.1 -1.35 8.4 -1.35 L8.7 -1.05 M7.45 2.85 L7.2 3.5 Q6.85 3.95 6.35 3.95 L5.9 3.65 5.9 3.35 Q5.9 2.7 6.7 2.45 7.45 2.2 7.45 2.85 M1.45 6.4 L0.65 7.2 Q-0.15 7.7 -0.75 7.7 -1.75 7.7 -1.7 7.15 -1.7 5.7 -0.1 5.5 1.45 5.3 1.45 6.4 M-4.25 -2.55 L-4.5 -1.9 Q-4.85 -1.25 -5.4 -1.25 -5.9 -1.25 -5.8 -1.8 -5.8 -2.55 -5.0 -3.0 -4.25 -3.4 -4.25 -2.55" fill="#f35c00" fill-rule="evenodd" stroke="none"/>
    <path d="M10.15 -2.8 Q10.15 -1.4 9.15 -0.1 7.65 1.8 4.7 1.8 2.25 1.8 0.25 -0.45 -1.5 -2.35 -1.5 -3.9 L-1.2 -5.65 -0.6 -7.15 Q-0.15 -8.5 1.6 -8.8 2.8 -9.05 4.3 -8.8 6.65 -8.6 8.6 -6.25 10.15 -4.3 10.15 -2.8" fill="url(#gradient1)" fill-rule="evenodd" stroke="none"/>
  </g>
  <defs>
    <radialGradient cx="0" cy="0" fx="-1561.6000000000001" fy="0" gradientTransform="matrix(0.0139, -0.0097, 0.0073, 0.0105, 1.45, -1.05)" gradientUnits="userSpaceOnUse" id="gradient0" r="819.2" spreadMethod="pad">
      <stop offset="0.09411764705882353" stop-color="#ff9900" stop-opacity="0.0"/>
      <stop offset="0.8235294117647058" stop-color="#410f02"/>
    </radialGradient>
    <radialGradient cx="0" cy="0" fx="-1561.6000000000001" fy="0" gradientTransform="matrix(0.0085, 0.0, 0.0, 0.0077, 4.35, -3.55)" gradientUnits="userSpaceOnUse" id="gradient1" r="819.2" spreadMethod="pad">
      <stop offset="0.0" stop-color="#ffcc00" stop-opacity="0.9490196"/>
      <stop offset="0.6862745098039216" stop-color="#ff9900" stop-opacity="0.0"/>
    </radialGradient>
  </defs>
</svg>
