<?xml version="1.0" encoding="UTF-8" standalone="no"?>
<svg xmlns:xlink="http://www.w3.org/1999/xlink" height="10.25px" width="8.15px" xmlns="http://www.w3.org/2000/svg">
  <g transform="matrix(1.0, 0.0, 0.0, 1.0, -8.15, 1.85)">
    <path d="M15.8 4.75 Q14.95 6.8 13.35 7.8 11.7 8.8 10.3 8.2 8.8 7.6 8.35 5.75 7.85 3.9 8.65 1.8 9.45 -0.2 11.1 -1.25 12.75 -2.25 14.2 -1.6 15.65 -1.0 16.1 0.85 16.6 2.7 15.8 4.75" fill="#4dd8e5" fill-rule="evenodd" stroke="none"/>
    <path d="M15.8 4.75 Q14.95 6.8 13.35 7.8 11.7 8.8 10.3 8.2 8.8 7.6 8.35 5.75 7.85 3.9 8.65 1.8 9.45 -0.2 11.1 -1.25 12.75 -2.25 14.2 -1.6 15.65 -1.0 16.1 0.85 16.6 2.7 15.8 4.75" fill="url(#gradient0)" fill-rule="evenodd" stroke="none"/>
    <path d="M15.8 4.75 Q14.95 6.8 13.35 7.8 11.7 8.8 10.3 8.2 8.8 7.6 8.35 5.75 7.85 3.9 8.65 1.8 9.45 -0.2 11.1 -1.25 12.75 -2.25 14.2 -1.6 15.65 -1.0 16.1 0.85 16.6 2.7 15.8 4.75" fill="url(#gradient1)" fill-rule="evenodd" stroke="none"/>
  </g>
  <defs>
    <radialGradient cx="0" cy="0" fx="-1564.8000000000002" fy="0" gradientTransform="matrix(0.005, 0.0023, -0.003, 0.0067, 12.7, 2.5)" gradientUnits="userSpaceOnUse" id="gradient0" r="819.2" spreadMethod="pad">
      <stop offset="0.0" stop-color="#ffffff" stop-opacity="0.0"/>
      <stop offset="0.8313725490196079" stop-color="#345983" stop-opacity="0.9882353"/>
    </radialGradient>
    <radialGradient cx="0" cy="0" fx="-1568.0" fy="0" gradientTransform="matrix(0.0023, 1.0E-4, -2.0E-4, 0.0034, 13.65, 1.35)" gradientUnits="userSpaceOnUse" id="gradient1" r="819.2" spreadMethod="pad">
      <stop offset="0.09019607843137255" stop-color="#5bffde" stop-opacity="0.9882353"/>
      <stop offset="0.6823529411764706" stop-color="#ffffff" stop-opacity="0.0"/>
    </radialGradient>
  </defs>
</svg>
