<?xml version="1.0" encoding="UTF-8" standalone="no"?>
<svg xmlns:xlink="http://www.w3.org/1999/xlink" height="61.6px" width="79.6px" xmlns="http://www.w3.org/2000/svg">
  <g transform="matrix(1.0, 0.0, 0.0, 1.0, 39.8, 30.8)">
    <path d="M-26.55 9.25 Q-26.75 11.7 -23.05 22.6 -21.4 27.6 -20.65 30.75 L-31.35 30.75 -32.25 29.1 Q-34.5 24.9 -35.9 21.3 L-37.4 16.55 Q-38.85 11.1 -39.45 3.05 -40.15 -5.05 -39.45 -8.95 -38.25 -15.75 -33.65 -20.9 -30.6 -24.15 -26.3 -26.55 -22.2 -28.9 -19.45 -29.95 L-16.2 -30.8 -13.9 -30.55 -11.65 -29.85 Q-10.35 -29.55 -9.9 -28.4 -9.35 -27.0 -10.0 -24.25 -11.15 -19.65 -15.25 -13.15 L-21.7 -3.45 Q-26.3 4.35 -26.55 9.25" fill="url(#gradient0)" fill-rule="evenodd" stroke="none"/>
    <path d="M6.65 9.65 Q5.3 11.75 3.1 23.05 L1.35 30.8 -7.9 30.8 Q-8.3 28.35 -8.15 24.15 -8.0 19.35 -7.4 15.55 -7.0 12.85 -6.4 10.65 -4.95 5.25 -1.45 -2.05 1.95 -9.45 4.5 -12.55 8.9 -17.8 15.4 -20.0 19.75 -21.3 24.6 -21.3 L32.25 -20.8 35.5 -19.95 Q36.55 -19.5 37.4 -18.55 L39.0 -16.9 Q39.95 -16.0 39.8 -14.75 39.55 -13.25 37.6 -11.2 34.35 -7.75 27.55 -4.15 L17.2 1.1 Q9.3 5.6 6.65 9.65" fill="url(#gradient1)" fill-rule="evenodd" stroke="none"/>
  </g>
  <defs>
    <linearGradient gradientTransform="matrix(-0.0161, -0.0381, 0.0195, -0.0083, -31.2, -8.5)" gradientUnits="userSpaceOnUse" id="gradient0" spreadMethod="pad" x1="-819.2" x2="819.2">
      <stop offset="0.0" stop-color="#980f81"/>
      <stop offset="0.807843137254902" stop-color="#b626b6" stop-opacity="0.0"/>
    </linearGradient>
    <linearGradient gradientTransform="matrix(0.0048, -0.041, 0.0211, 0.0025, 11.45, -7.95)" gradientUnits="userSpaceOnUse" id="gradient1" spreadMethod="pad" x1="-819.2" x2="819.2">
      <stop offset="0.0" stop-color="#980f81"/>
      <stop offset="0.807843137254902" stop-color="#b626b6" stop-opacity="0.0"/>
    </linearGradient>
  </defs>
</svg>
