<?xml version="1.0" encoding="UTF-8" standalone="no"?>
<svg xmlns:xlink="http://www.w3.org/1999/xlink" height="18.8px" width="20.85px" xmlns="http://www.w3.org/2000/svg">
  <g transform="matrix(1.0, 0.0, 0.0, 1.0, 0.0, 0.0)">
    <path d="M20.85 14.65 Q20.85 16.35 19.6 17.55 L19.0 18.1 Q18.0 18.8 16.7 18.8 15.0 18.8 13.75 17.55 12.55 16.35 12.55 14.65 12.55 12.95 13.75 11.7 15.0 10.5 16.7 10.5 L18.0 10.7 18.0 7.4 8.35 7.4 8.35 14.15 8.3 14.15 8.3 14.65 Q8.3 16.35 7.05 17.55 5.85 18.8 4.15 18.8 2.4 18.8 1.2 17.55 0.0 16.35 0.0 14.65 0.0 12.95 1.2 11.7 2.4 10.5 4.15 10.5 L5.5 10.75 5.5 0.0 20.85 0.0 20.85 14.2 20.85 14.65" fill="#ffffff" fill-rule="evenodd" stroke="none"/>
  </g>
</svg>
