<?xml version="1.0" encoding="UTF-8" standalone="no"?>
<svg xmlns:xlink="http://www.w3.org/1999/xlink" height="18.2px" width="19.0px" xmlns="http://www.w3.org/2000/svg">
  <g transform="matrix(1.0, 0.0, 0.0, 1.0, -16.75, 19.95)">
    <path d="M26.25 -17.4 L28.45 -13.0 33.4 -12.3 29.8 -8.75 30.65 -4.0 Q28.45 -5.0 26.25 -6.2 24.05 -5.0 21.85 -4.0 L22.7 -8.75 19.1 -12.3 24.05 -13.0 26.25 -17.4" fill="url(#gradient0)" fill-rule="evenodd" stroke="none"/>
    <path d="M26.25 -17.4 L24.05 -13.0 19.1 -12.3 22.7 -8.75 21.85 -4.0 Q24.05 -5.0 26.25 -6.2 28.45 -5.0 30.65 -4.0 L29.8 -8.75 33.4 -12.3 28.45 -13.0 26.25 -17.4 M31.0 -8.4 L32.2 -1.75 Q29.3 -3.3 26.25 -5.0 23.35 -3.3 20.3 -1.75 L21.5 -8.4 16.75 -13.0 23.35 -14.0 Q24.9 -16.9 26.25 -19.95 L29.15 -14.0 35.75 -13.0 31.0 -8.4" fill="#020202" fill-rule="evenodd" stroke="none"/>
    <path d="M26.25 -16.4 L28.1 -12.65 32.2 -11.95 29.3 -9.1 30.0 -4.85 26.25 -6.85 22.5 -4.85 23.2 -9.1 20.15 -11.95 24.4 -12.65 26.25 -16.4" fill="url(#gradient1)" fill-rule="evenodd" stroke="none"/>
  </g>
  <defs>
    <linearGradient gradientTransform="matrix(0.0086, 0.0, 0.0, -0.0086, 26.25, -10.6)" gradientUnits="userSpaceOnUse" id="gradient0" spreadMethod="pad" x1="-819.2" x2="819.2">
      <stop offset="0.0" stop-color="#f1f1f2"/>
      <stop offset="1.0" stop-color="#a6a8ab"/>
    </linearGradient>
    <linearGradient gradientTransform="matrix(-0.0035, 0.0053, 0.0053, 0.0035, 26.75, -10.95)" gradientUnits="userSpaceOnUse" id="gradient1" spreadMethod="pad" x1="-819.2" x2="819.2">
      <stop offset="0.0" stop-color="#f1f1f2"/>
      <stop offset="1.0" stop-color="#a6a8ab"/>
    </linearGradient>
  </defs>
</svg>
