<?xml version="1.0" encoding="UTF-8" standalone="no"?>
<svg xmlns:xlink="http://www.w3.org/1999/xlink" height="27.5px" width="27.5px" xmlns="http://www.w3.org/2000/svg">
  <g transform="matrix(1.0, 0.0, 0.0, 1.0, -6.0, -6.0)">
    <path d="M30.55 19.75 Q30.55 15.55 27.75 12.5 L12.5 27.75 Q15.55 30.55 19.75 30.55 24.25 30.55 27.35 27.35 30.55 24.25 30.55 19.75 M33.5 19.75 Q33.5 25.45 29.45 29.45 25.45 33.5 19.75 33.5 14.05 33.5 10.0 29.45 6.0 25.45 6.0 19.75 6.0 14.05 10.0 10.0 14.05 6.0 19.75 6.0 25.45 6.0 29.45 10.0 33.5 14.05 33.5 19.75 M19.75 8.95 Q15.25 8.95 12.1 12.1 8.95 15.25 8.95 19.75 8.95 23.2 10.8 25.85 L25.85 10.8 Q23.2 8.95 19.75 8.95" fill="#ffffff" fill-rule="evenodd" stroke="none"/>
  </g>
</svg>
