<?xml version="1.0" encoding="UTF-8" standalone="no"?>
<svg xmlns:xlink="http://www.w3.org/1999/xlink" height="21.25px" width="26.15px" xmlns="http://www.w3.org/2000/svg">
  <g transform="matrix(1.0, 0.0, 0.0, 1.0, 0.0, 0.0)">
    <path d="M18.95 2.55 L19.7 3.7 Q24.2 10.9 19.7 18.05 L18.95 19.2 16.7 17.75 17.4 16.6 Q21.05 10.9 17.4 5.15 L16.7 4.0 18.95 2.55 M14.05 7.0 L13.3 5.9 15.6 4.45 16.3 5.55 Q19.7 10.9 16.3 16.2 L15.6 17.35 13.3 15.9 14.05 14.75 Q16.5 10.9 14.05 7.0 M20.95 18.65 Q25.9 10.85 20.95 3.05 L20.2 1.95 22.5 0.5 23.2 1.6 Q29.15 10.85 23.2 20.1 L22.5 21.25 20.2 19.8 20.95 18.65 M6.6 6.4 L12.4 0.0 12.4 21.1 6.55 14.9 0.0 14.9 0.0 6.35 6.6 6.35 6.6 6.4" fill="#ffffff" fill-rule="evenodd" stroke="none"/>
  </g>
</svg>
