<?xml version="1.0" encoding="UTF-8" standalone="no"?>
<svg xmlns:xlink="http://www.w3.org/1999/xlink" height="20.65px" width="15.5px" xmlns="http://www.w3.org/2000/svg">
  <g transform="matrix(1.0, 0.0, 0.0, 1.0, 0.0, 0.0)">
    <path d="M15.5 5.15 L15.5 12.95 9.1 12.95 9.1 14.2 3.95 14.2 3.95 12.95 Q3.95 7.75 9.1 7.75 L10.35 7.75 10.35 5.15 0.0 5.15 0.0 0.0 10.35 0.0 Q15.5 0.0 15.5 5.15 M7.8 15.85 Q8.4 16.15 8.8 16.8 L9.1 18.1 8.8 19.4 7.85 20.35 6.55 20.65 5.3 20.35 4.3 19.4 Q3.95 18.75 3.95 18.1 3.95 17.45 4.3 16.8 4.65 16.15 5.3 15.85 5.9 15.5 6.55 15.5 L7.8 15.85" fill="#ffffff" fill-rule="evenodd" stroke="none"/>
  </g>
</svg>
