<?xml version="1.0" encoding="UTF-8" standalone="no"?>
<svg xmlns:xlink="http://www.w3.org/1999/xlink" height="23.85px" width="23.9px" xmlns="http://www.w3.org/2000/svg">
  <g transform="matrix(1.0, 0.0, 0.0, 1.0, 0.0, 0.0)">
    <path d="M20.5 6.5 Q21.45 8.0 21.8 9.7 L23.9 9.7 23.9 14.15 21.8 14.15 Q21.4 15.85 20.45 17.25 L22.0 18.8 18.85 21.95 17.25 20.4 Q15.85 21.3 14.15 21.65 L14.15 23.85 9.75 23.85 9.75 21.6 Q8.1 21.25 6.7 20.35 L5.05 21.95 1.95 18.8 3.55 17.2 Q2.6 15.8 2.25 14.15 L0.0 14.15 0.0 9.7 2.25 9.7 Q2.55 8.05 3.5 6.65 L1.95 5.05 5.05 1.9 6.6 3.4 Q8.05 2.4 9.75 2.1 L9.75 0.0 14.15 0.0 14.15 2.05 Q15.9 2.4 17.4 3.35 L18.8 1.9 21.95 5.05 20.5 6.5 M14.3 9.55 L14.3 9.5 Q13.35 8.6 12.0 8.6 10.7 8.6 9.8 9.5 L9.75 9.5 Q8.8 10.5 8.8 11.85 8.8 13.2 9.75 14.15 L9.8 14.15 Q10.7 15.1 12.0 15.1 13.35 15.1 14.3 14.15 15.25 13.2 15.25 11.85 15.25 10.5 14.3 9.55" fill="#ffffff" fill-rule="evenodd" stroke="none"/>
  </g>
</svg>
