<?xml version="1.0" encoding="UTF-8" standalone="no"?>
<svg xmlns:xlink="http://www.w3.org/1999/xlink" height="59.25px" width="240.3px" xmlns="http://www.w3.org/2000/svg">
  <g transform="matrix(1.0, 0.0, 0.0, 1.0, 0.0, 0.0)">
    <path d="M193.95 8.6 Q194.6 8.9 194.9 9.55 195.3 10.2 195.3 10.9 L194.95 12.15 193.95 13.15 192.7 13.5 Q192.0 13.5 191.4 13.15 190.75 12.8 190.4 12.15 190.05 11.55 190.05 10.9 190.05 10.2 190.4 9.55 190.75 8.9 191.4 8.6 192.0 8.25 192.7 8.25 193.35 8.25 193.95 8.6 M236.4 8.6 Q237.0 8.25 237.7 8.25 238.35 8.25 238.95 8.6 239.6 8.9 239.9 9.55 240.3 10.2 240.3 10.9 L239.95 12.15 238.95 13.15 237.7 13.5 Q237.0 13.5 236.35 13.15 L235.4 12.15 Q235.05 11.55 235.05 10.9 235.05 10.2 235.4 9.55 235.75 8.9 236.4 8.6 M146.4 24.1 Q143.7 24.1 143.7 26.8 L143.7 29.3 152.45 29.3 152.45 24.1 146.4 24.1 M155.1 18.8 Q157.75 18.8 157.75 21.45 L157.75 39.05 Q157.75 41.7 155.15 41.7 152.45 41.7 152.45 39.05 L152.45 34.65 143.7 34.6 143.7 39.05 Q143.7 41.7 141.05 41.7 138.4 41.7 138.4 39.05 L138.4 26.9 Q138.4 18.8 146.35 18.8 L155.1 18.8 M129.7 18.85 L132.3 18.8 Q134.95 18.8 134.95 21.45 L134.95 40.7 Q134.95 48.75 127.0 48.75 L125.2 48.75 Q122.55 48.75 122.55 46.15 122.55 43.5 125.15 43.5 L126.95 43.45 Q129.65 43.5 129.65 40.8 L129.65 24.05 Q126.95 24.05 126.95 21.45 126.95 18.8 129.7 18.85 M123.45 39.05 Q123.4 41.7 120.75 41.7 118.15 41.7 118.15 39.05 L118.15 26.8 Q118.15 24.1 115.45 24.1 L109.3 24.1 109.3 39.0 Q109.3 41.7 106.6 41.7 104.0 41.7 104.0 39.0 L104.0 21.45 Q104.0 18.8 106.65 18.8 L115.5 18.8 Q123.45 18.8 123.45 26.9 L123.45 39.05 M97.85 18.8 Q100.5 18.85 100.5 21.45 L100.5 39.05 Q100.5 41.7 97.85 41.7 95.2 41.7 95.2 39.05 L95.2 24.1 Q92.5 24.1 92.55 21.55 92.55 18.9 95.2 18.85 L97.85 18.8 M87.2 41.7 Q84.6 41.7 84.6 39.05 L84.6 26.8 Q84.6 24.1 81.9 24.1 L75.75 24.1 75.75 39.0 Q75.75 41.7 73.05 41.7 70.45 41.7 70.45 39.0 L70.45 21.45 Q70.45 18.8 73.1 18.8 L81.95 18.8 Q89.9 18.8 89.85 26.9 L89.85 39.05 Q89.9 41.7 87.2 41.7" fill="#ffffff" fill-rule="evenodd" stroke="none"/>
    <path d="M55.2 44.55 Q51.25 51.25 44.6 55.2 37.9 59.15 29.65 59.25 21.35 59.15 14.7 55.2 8.0 51.25 4.05 44.55 0.1 37.9 0.0 29.65 0.1 21.35 4.05 14.7 8.0 8.0 14.7 4.05 21.35 0.1 29.65 0.0 37.9 0.1 44.6 4.05 51.25 8.0 55.2 14.7 59.15 21.35 59.25 29.65 59.15 37.9 55.2 44.55 M56.2 29.65 Q55.95 18.35 48.4 10.85 40.9 3.35 29.65 3.05 18.35 3.35 10.85 10.85 3.35 18.35 3.05 29.65 3.35 40.9 10.85 48.4 18.35 55.95 29.65 56.2 40.9 55.95 48.4 48.4 55.95 40.9 56.2 29.65" fill="#ffffff" fill-rule="evenodd" stroke="none"/>
  </g>
</svg>
