<?xml version="1.0" encoding="UTF-8" standalone="no"?>
<svg xmlns:xlink="http://www.w3.org/1999/xlink" height="43.8px" width="54.65px" xmlns="http://www.w3.org/2000/svg">
  <g transform="matrix(1.0, 0.0, 0.0, 1.0, -7.0, -10.9)">
    <path d="M48.7 11.55 L49.6 11.9 48.75 13.75 47.7 13.3 45.6 13.25 43.7 14.55 42.65 15.4 43.45 15.15 47.9 14.95 Q50.4 15.5 51.5 16.4 L52.6 17.4 51.85 19.1 50.55 17.65 Q49.2 16.35 46.9 16.3 L42.35 16.35 Q40.2 16.3 40.15 17.1 40.45 17.65 43.0 19.1 45.5 20.6 47.65 23.35 49.85 26.1 49.2 30.55 L48.05 36.6 47.75 38.6 47.75 38.75 48.9 39.9 Q50.05 40.85 51.8 40.4 53.5 39.65 54.95 38.7 56.4 37.7 58.15 38.0 59.95 38.5 60.8 39.5 L61.65 40.55 61.15 42.3 60.25 40.9 Q59.4 39.65 58.3 39.4 57.3 39.4 56.15 40.05 L53.7 41.1 50.25 40.8 48.15 40.1 49.4 41.65 Q50.65 43.0 52.7 42.65 L56.3 41.45 57.85 40.8 57.7 41.4 Q57.6 41.9 58.0 42.25 L58.95 42.65 59.5 42.75 57.1 43.65 Q54.75 44.35 51.7 43.6 48.8 42.55 47.35 41.1 L46.15 39.8 46.3 40.65 Q46.4 41.8 43.45 43.95 40.35 46.0 38.35 46.45 L34.55 47.25 Q32.7 47.7 31.95 48.05 31.15 48.4 31.0 49.35 L30.3 51.7 Q29.9 53.0 30.6 52.7 L31.3 52.2 31.05 52.8 Q30.55 53.95 29.45 54.55 28.4 55.1 26.6 53.5 24.15 50.85 24.85 49.3 25.5 47.8 26.6 47.2 27.7 46.5 29.7 45.7 L31.9 44.8 30.75 43.5 Q29.8 42.3 30.35 40.8 L31.9 37.4 28.6 37.85 Q25.65 38.1 23.55 36.4 21.6 34.5 19.15 34.1 16.7 33.65 15.05 34.15 L13.15 34.85 11.85 35.55 Q10.75 35.95 9.7 34.65 8.7 33.35 8.9 31.55 9.05 29.65 8.1 27.75 L7.0 25.75 7.9 26.25 Q8.75 26.75 9.15 27.55 L9.75 29.2 10.05 30.05 10.3 29.2 Q10.55 28.4 10.2 27.35 L9.5 25.25 9.1 24.2 Q9.2 24.2 10.15 24.9 11.1 25.6 11.45 26.8 L12.15 29.3 12.6 30.65 12.85 29.9 Q13.05 29.25 12.9 28.3 L12.3 25.8 11.95 24.25 13.15 25.0 Q14.15 25.7 14.35 26.75 L14.25 29.95 14.1 32.25 16.5 32.65 Q18.7 33.0 20.45 32.25 L22.7 30.0 Q23.65 28.7 26.85 27.55 30.4 26.55 32.9 26.5 L35.5 26.5 Q35.65 26.55 36.45 26.0 37.2 25.45 36.45 24.25 35.5 23.05 34.8 22.75 L34.1 22.55 33.45 23.15 30.5 23.1 Q28.25 23.05 27.0 23.15 L24.4 23.3 21.0 23.45 19.3 23.55 20.8 22.95 Q22.35 22.4 24.75 22.2 L28.65 22.1 30.2 22.15 30.1 20.8 Q29.95 19.6 29.15 19.05 28.25 18.55 25.6 17.7 22.9 16.85 19.1 16.65 L12.95 16.6 10.55 16.65 Q10.55 16.5 12.85 15.65 15.15 14.75 19.65 14.9 L25.55 15.8 Q27.15 16.35 27.9 16.3 28.4 16.1 28.6 14.85 28.8 13.6 29.8 12.3 30.8 11.05 33.65 10.9 36.5 10.9 37.45 12.0 38.45 13.1 38.85 14.1 39.3 15.15 40.6 15.1 42.4 14.65 42.85 13.35 43.3 12.0 45.4 11.5 47.8 11.3 48.7 11.55" fill="#000000" fill-rule="evenodd" stroke="none"/>
    <path d="M32.15 17.2 L30.4 16.95 30.1 16.65 34.35 15.3 32.55 17.05 32.35 17.15 32.15 17.2" fill="#ffffff" fill-rule="evenodd" stroke="none"/>
  </g>
</svg>
