<?xml version="1.0" encoding="UTF-8" standalone="no"?>
<svg xmlns:xlink="http://www.w3.org/1999/xlink" height="33.5px" width="146.25px" xmlns="http://www.w3.org/2000/svg">
  <g transform="matrix(1.0, 0.0, 0.0, 1.0, -94.65, -8.25)">
    <path d="M232.95 21.55 Q232.95 18.9 235.6 18.85 L238.25 18.8 Q240.9 18.85 240.9 21.45 L240.9 39.05 Q240.9 41.7 238.25 41.7 235.6 41.7 235.6 39.05 L235.6 24.1 Q232.9 24.1 232.95 21.55 M229.35 21.5 L229.35 39.1 Q229.35 41.7 226.65 41.75 L207.35 41.7 Q199.4 41.7 199.4 33.6 L199.4 21.45 Q199.4 18.8 202.05 18.8 204.7 18.8 204.7 21.5 L204.7 33.7 Q204.7 36.45 207.4 36.45 L211.8 36.45 211.75 21.45 Q211.75 18.8 214.4 18.8 217.05 18.8 217.05 21.5 L217.05 33.7 Q217.05 36.45 219.7 36.45 L224.1 36.45 224.1 21.5 Q224.05 18.85 226.75 18.85 229.35 18.85 229.35 21.5 M187.95 21.55 Q187.95 18.9 190.6 18.85 L193.25 18.8 Q195.9 18.85 195.9 21.45 L195.9 39.05 Q195.9 41.7 193.25 41.7 190.6 41.7 190.6 39.05 L190.6 24.1 Q187.9 24.1 187.95 21.55 M183.75 23.8 L178.55 30.15 183.75 36.35 Q184.8 37.25 184.75 39.15 184.7 41.6 182.0 41.6 180.2 41.65 179.45 40.35 L173.3 32.65 Q170.95 32.5 170.95 30.05 171.0 27.5 173.4 27.35 L173.65 27.35 179.4 19.8 Q180.15 18.5 182.0 18.55 184.7 18.55 184.7 21.0 184.75 22.95 183.75 23.8 M167.25 11.7 Q169.9 11.7 169.9 14.4 L169.9 38.95 Q169.8 41.7 167.2 41.7 164.6 41.7 164.6 39.05 L164.6 14.35 Q164.6 11.7 167.25 11.7" fill="#ed1c24" fill-rule="evenodd" stroke="none"/>
    <path d="M232.95 21.55 Q232.95 18.9 235.6 18.85 L238.25 18.8 Q240.9 18.85 240.9 21.45 L240.9 39.05 Q240.9 41.7 238.25 41.7 235.6 41.7 235.6 39.05 L235.6 24.1 Q232.9 24.1 232.95 21.55 M226.75 18.85 Q229.35 18.85 229.35 21.5 L229.35 39.1 Q229.35 41.7 226.65 41.75 L207.35 41.7 Q199.4 41.7 199.4 33.6 L199.4 21.45 Q199.4 18.8 202.05 18.8 204.7 18.8 204.7 21.5 L204.7 33.7 Q204.7 36.45 207.4 36.45 L211.8 36.45 211.75 21.45 Q211.75 18.8 214.4 18.8 217.05 18.8 217.05 21.5 L217.05 33.7 Q217.05 36.45 219.7 36.45 L224.1 36.45 224.1 21.5 Q224.05 18.85 226.75 18.85 M183.75 23.8 L178.55 30.15 183.75 36.35 Q184.8 37.25 184.75 39.15 184.7 41.6 182.0 41.6 180.2 41.65 179.45 40.35 L173.3 32.65 Q170.95 32.5 170.95 30.05 171.0 27.5 173.4 27.35 L173.65 27.35 179.4 19.8 Q180.15 18.5 182.0 18.55 184.7 18.55 184.7 21.0 184.75 22.95 183.75 23.8 M187.95 21.55 Q187.95 18.9 190.6 18.85 L193.25 18.8 Q195.9 18.85 195.9 21.45 L195.9 39.05 Q195.9 41.7 193.25 41.7 190.6 41.7 190.6 39.05 L190.6 24.1 Q187.9 24.1 187.95 21.55 M169.9 14.4 L169.9 38.95 Q169.8 41.7 167.2 41.7 164.6 41.7 164.6 39.05 L164.6 14.35 Q164.6 11.7 167.25 11.7 169.9 11.7 169.9 14.4 M94.65 10.9 Q94.65 10.2 95.0 9.55 95.35 8.9 96.0 8.6 96.6 8.25 97.3 8.25 97.95 8.25 98.55 8.6 99.2 8.9 99.5 9.55 99.9 10.2 99.9 10.9 L99.55 12.15 98.55 13.15 97.3 13.5 96.0 13.15 Q95.35 12.8 95.0 12.15 94.65 11.55 94.65 10.9 M131.75 8.25 Q132.45 8.25 133.05 8.6 133.7 8.9 134.05 9.55 134.4 10.2 134.4 10.9 L134.05 12.15 133.05 13.15 Q132.45 13.5 131.75 13.5 L130.45 13.15 129.5 12.15 Q129.15 11.55 129.15 10.9 129.15 10.2 129.5 9.55 129.85 8.9 130.5 8.6 131.1 8.25 131.75 8.25" fill="#cb0000" fill-rule="evenodd" stroke="none"/>
  </g>
</svg>
