<?xml version="1.0" encoding="UTF-8" standalone="no"?>
<svg xmlns:xlink="http://www.w3.org/1999/xlink" height="18.2px" width="19.0px" xmlns="http://www.w3.org/2000/svg">
  <g transform="matrix(1.0, 0.0, 0.0, 1.0, 18.1, 20.3)">
    <path d="M-8.6 -17.6 L-6.4 -13.15 -1.45 -12.5 -5.05 -9.1 -4.2 -4.15 -8.6 -6.55 -13.0 -4.15 Q-12.5 -6.55 -12.15 -9.1 L-15.75 -12.5 -10.8 -13.15 -8.6 -17.6" fill="url(#gradient0)" fill-rule="evenodd" stroke="none"/>
    <path d="M-8.6 -17.6 L-10.8 -13.15 -15.75 -12.5 -12.15 -9.1 Q-12.5 -6.55 -13.0 -4.15 L-8.6 -6.55 -4.2 -4.15 -5.05 -9.1 -1.45 -12.5 -6.4 -13.15 -8.6 -17.6 M-3.85 -8.75 L-2.65 -2.1 -8.6 -5.15 Q-11.5 -3.65 -14.55 -2.1 L-13.35 -8.75 -18.1 -13.35 -11.5 -14.35 -8.6 -20.3 -5.7 -14.35 0.9 -13.35 -3.85 -8.75" fill="#020202" fill-rule="evenodd" stroke="none"/>
    <path d="M-8.6 -16.75 L-6.75 -12.8 -2.5 -12.3 -5.55 -9.4 -4.85 -5.15 -8.6 -7.2 -12.35 -5.15 -11.65 -9.4 -14.7 -12.3 -10.45 -12.8 Q-9.45 -14.7 -8.6 -16.75" fill="url(#gradient1)" fill-rule="evenodd" stroke="none"/>
  </g>
  <defs>
    <linearGradient gradientTransform="matrix(0.0086, 0.0, 0.0, -0.0086, -8.6, -10.95)" gradientUnits="userSpaceOnUse" id="gradient0" spreadMethod="pad" x1="-819.2" x2="819.2">
      <stop offset="0.0" stop-color="#f1f1f2"/>
      <stop offset="1.0" stop-color="#a6a8ab"/>
    </linearGradient>
    <linearGradient gradientTransform="matrix(-0.0035, 0.0053, 0.0053, 0.0035, -8.1, -11.3)" gradientUnits="userSpaceOnUse" id="gradient1" spreadMethod="pad" x1="-819.2" x2="819.2">
      <stop offset="0.0" stop-color="#f1f1f2"/>
      <stop offset="1.0" stop-color="#a6a8ab"/>
    </linearGradient>
  </defs>
</svg>
