<?xml version="1.0" encoding="UTF-8" standalone="no"?>
<svg xmlns:xlink="http://www.w3.org/1999/xlink" height="24.65px" width="52.95px" xmlns="http://www.w3.org/2000/svg">
  <g transform="matrix(1.0, 0.0, 0.0, 1.0, 0.0, 0.0)">
    <path d="M25.7 24.5 L25.7 6.35 Q25.7 0.3 31.75 0.3 L43.85 0.3 43.85 9.35 Q43.85 15.4 37.8 15.4 L31.75 15.4 31.75 24.5 25.7 24.5 M49.95 18.45 L51.4 18.85 Q52.15 19.25 52.55 19.95 52.95 20.7 52.95 21.45 52.95 22.25 52.55 23.0 L51.45 24.1 Q50.7 24.5 49.95 24.5 L48.45 24.1 Q47.7 23.7 47.3 23.0 46.9 22.25 46.9 21.45 46.9 20.7 47.3 19.95 47.7 19.25 48.45 18.85 L49.95 18.45 M46.9 16.95 L46.9 0.3 52.95 0.3 52.95 16.95 46.9 16.95 M37.8 9.35 L37.8 6.35 31.75 6.35 31.75 9.35 37.8 9.35 M4.3 0.0 L12.3 8.05 20.35 0.05 24.6 4.3 16.6 12.35 24.6 20.35 20.35 24.65 12.3 16.6 4.3 24.65 0.0 20.35 8.05 12.35 0.0 4.3 4.3 0.0" fill="#ffffff" fill-rule="evenodd" stroke="none"/>
  </g>
</svg>
