<?xml version="1.0" encoding="UTF-8" standalone="no"?>
<svg xmlns:xlink="http://www.w3.org/1999/xlink" height="41.0px" width="43.2px" xmlns="http://www.w3.org/2000/svg">
  <g transform="matrix(1.0, 0.0, 0.0, 1.0, 11.95, 17.1)">
    <path d="M9.6 -15.7 L15.9 -3.05 29.85 -1.0 19.8 8.85 22.1 22.75 9.6 16.2 -2.8 22.75 -0.45 8.85 -10.5 -1.0 3.4 -3.05 9.6 -15.7" fill="url(#gradient0)" fill-rule="evenodd" stroke="none"/>
    <path d="M3.8 -2.4 L-9.1 -0.6 0.2 8.55 -2.0 21.6 9.6 15.4 21.35 21.6 19.0 8.55 28.45 -0.6 15.55 -2.4 9.6 -14.25 3.8 -2.4 M16.3 -3.55 L31.25 -1.5 20.45 9.1 23.0 23.9 9.6 16.95 -3.7 23.9 -1.1 9.1 -11.95 -1.5 3.0 -3.55 9.6 -17.1 16.3 -3.55" fill="#020202" fill-rule="evenodd" stroke="none"/>
    <path d="M9.6 -12.85 L15.0 -2.0 26.9 -0.35 18.25 8.05 20.3 19.9 9.6 14.35 -1.0 19.9 1.1 8.05 -7.55 -0.35 4.3 -2.0 9.6 -12.85" fill="url(#gradient1)" fill-rule="evenodd" stroke="none"/>
  </g>
  <defs>
    <linearGradient gradientTransform="matrix(0.0246, 0.0, 0.0, -0.0246, 9.6, 3.55)" gradientUnits="userSpaceOnUse" id="gradient0" spreadMethod="pad" x1="-819.2" x2="819.2">
      <stop offset="0.0" stop-color="#fff069"/>
      <stop offset="1.0" stop-color="#af982b"/>
    </linearGradient>
    <linearGradient gradientTransform="matrix(-0.0102, 0.0154, 0.0154, 0.0102, 11.0, 2.75)" gradientUnits="userSpaceOnUse" id="gradient1" spreadMethod="pad" x1="-819.2" x2="819.2">
      <stop offset="0.0" stop-color="#fff069"/>
      <stop offset="1.0" stop-color="#af982b"/>
    </linearGradient>
  </defs>
</svg>
