<?xml version="1.0" encoding="UTF-8" standalone="no"?>
<svg xmlns:xlink="http://www.w3.org/1999/xlink" height="53.35px" width="182.4px" xmlns="http://www.w3.org/2000/svg">
  <g transform="matrix(1.0, 0.0, 0.0, 1.0, 0.0, 0.0)">
    <path d="M180.95 1.5 L181.15 2.0 181.15 30.65 182.4 30.65 182.4 41.9 182.2 42.85 181.55 43.55 167.5 53.0 166.35 53.35 128.75 53.35 128.75 52.1 128.55 52.1 2.0 52.1 1.5 51.9 1.25 51.35 1.25 24.35 0.0 24.35 0.0 10.95 Q0.0 10.45 0.25 10.05 L0.85 9.3 13.6 0.35 Q14.1 0.0 14.75 0.0 L61.9 0.0 61.9 1.25 180.4 1.25 180.95 1.5 M165.75 49.35 L178.4 40.85 178.4 30.65 179.65 30.65 179.65 2.75 61.9 2.75 61.9 4.0 15.4 4.0 4.0 12.0 4.0 24.35 2.75 24.35 2.75 50.6 128.55 50.6 128.75 50.65 128.75 49.35 165.75 49.35" fill="#d90000" fill-rule="evenodd" stroke="none"/>
    <path d="M165.75 49.35 L128.75 49.35 128.75 50.65 128.55 50.6 2.75 50.6 2.75 24.35 4.0 24.35 4.0 12.0 15.4 4.0 61.9 4.0 61.9 2.75 179.65 2.75 179.65 30.65 178.4 30.65 178.4 40.85 165.75 49.35" fill="url(#gradient0)" fill-rule="evenodd" stroke="none"/>
  </g>
  <defs>
    <radialGradient cx="0" cy="0" gradientTransform="matrix(0.329, 0.0, 0.0, 0.1911, 91.2, 26.7)" gradientUnits="userSpaceOnUse" id="gradient0" r="819.2" spreadMethod="pad">
      <stop offset="0.0" stop-color="#310000" stop-opacity="0.7607843"/>
      <stop offset="1.0" stop-color="#c60000" stop-opacity="0.5882353"/>
    </radialGradient>
  </defs>
</svg>
