<?xml version="1.0" encoding="UTF-8" standalone="no"?>
<svg xmlns:xlink="http://www.w3.org/1999/xlink" height="14.85px" width="15.45px" xmlns="http://www.w3.org/2000/svg">
  <g transform="matrix(1.0, 0.0, 0.0, 1.0, 10.9, 18.65)">
    <path d="M-3.15 -17.6 L-1.0 -13.35 3.65 -12.7 0.3 -9.35 1.1 -4.6 -3.15 -6.8 -7.45 -4.6 -6.55 -9.35 -10.0 -12.7 -5.25 -13.35 -3.15 -17.6" fill="url(#gradient0)" fill-rule="evenodd" stroke="none"/>
    <path d="M-1.35 -12.95 L-3.15 -16.7 -5.0 -12.95 -9.1 -12.35 -6.15 -9.5 -6.8 -5.35 Q-5.0 -6.25 -3.15 -7.3 L0.55 -5.35 -0.2 -9.5 2.75 -12.35 -1.35 -12.95 M-3.15 -18.65 L-0.7 -13.75 4.55 -12.95 0.7 -9.1 1.6 -3.8 -3.15 -6.4 -7.95 -3.8 -7.05 -9.1 -10.9 -12.95 -5.6 -13.75 -3.15 -18.65" fill="#020202" fill-rule="evenodd" stroke="none"/>
    <path d="M2.75 -12.45 L-0.2 -9.6 0.45 -5.5 Q-1.35 -6.4 -3.15 -7.45 -5.0 -6.4 -6.8 -5.5 L-6.15 -9.6 -9.0 -12.45 -5.0 -12.95 -3.15 -16.7 -1.35 -12.95 2.75 -12.45" fill="url(#gradient1)" fill-rule="evenodd" stroke="none"/>
  </g>
  <defs>
    <linearGradient gradientTransform="matrix(0.0083, 0.0, 0.0, -0.0083, -3.15, -11.15)" gradientUnits="userSpaceOnUse" id="gradient0" spreadMethod="pad" x1="-819.2" x2="819.2">
      <stop offset="0.0" stop-color="#fff069"/>
      <stop offset="1.0" stop-color="#af982b"/>
    </linearGradient>
    <linearGradient gradientTransform="matrix(-0.0034, 0.0052, 0.0052, 0.0034, -2.65, -11.45)" gradientUnits="userSpaceOnUse" id="gradient1" spreadMethod="pad" x1="-819.2" x2="819.2">
      <stop offset="0.0" stop-color="#fff069"/>
      <stop offset="1.0" stop-color="#af982b"/>
    </linearGradient>
  </defs>
</svg>
