<?xml version="1.0" encoding="UTF-8" standalone="no"?>
<svg xmlns:xlink="http://www.w3.org/1999/xlink" height="164.8px" width="476.4px" xmlns="http://www.w3.org/2000/svg">
  <g transform="matrix(1.0, 0.0, 0.0, 1.0, 0.0, 0.0)">
    <path d="M329.85 47.0 L308.85 47.0 308.85 26.0 329.85 26.0 329.85 47.0 M329.85 92.95 L308.85 92.95 308.85 71.95 329.85 71.95 329.85 92.95 M298.7 29.6 L239.45 29.6 239.45 44.45 298.7 44.45 298.7 88.85 Q298.7 118.45 269.1 118.45 L209.85 118.45 209.85 88.85 269.1 88.85 269.1 74.0 209.85 74.0 209.85 29.6 Q209.85 0.0 239.45 0.0 L298.7 0.0 298.7 29.6 M165.5 29.6 L135.85 29.6 135.85 44.45 165.5 44.45 165.5 29.6 M165.5 118.45 L165.5 74.0 135.85 74.0 135.85 118.45 106.25 118.45 106.25 29.6 Q106.25 0.0 135.85 0.0 L195.1 0.0 195.1 118.45 165.5 118.45 M91.5 29.6 L32.25 29.6 32.25 44.45 91.5 44.45 91.5 88.85 Q91.5 118.45 61.9 118.45 L2.65 118.45 2.65 88.85 61.9 88.85 61.9 74.0 2.65 74.0 2.65 29.6 Q2.65 0.0 32.25 0.0 L91.5 0.0 91.5 29.6" fill="#ffffff" fill-rule="evenodd" stroke="none"/>
    <path d="M476.4 75.0 L476.4 116.2 457.9 116.2 457.9 164.8 416.7 164.8 416.7 116.2 363.4 116.2 340.25 93.0 340.25 0.0 381.4 0.0 381.4 75.0 416.7 75.0 416.7 0.15 457.9 0.15 457.9 75.0 476.4 75.0 M365.85 129.65 L392.2 129.65 392.2 138.45 383.45 138.45 383.45 164.8 374.6 164.8 374.6 138.45 365.85 138.45 365.85 129.65 M350.65 129.65 L350.65 156.0 368.2 156.0 368.2 164.8 341.85 164.8 341.85 129.65 350.65 129.65 M337.45 129.65 L337.45 156.0 Q337.45 164.8 328.7 164.8 L311.15 164.8 311.15 129.65 319.9 129.65 319.9 156.0 328.7 156.0 328.7 129.65 337.45 129.65 M227.65 129.65 L245.25 129.65 245.25 138.45 227.65 138.45 227.65 142.8 245.25 142.8 245.25 156.0 Q245.25 164.8 236.5 164.8 L218.95 164.8 218.95 156.0 236.5 156.0 236.5 151.6 218.95 151.6 218.95 138.45 Q218.95 129.65 227.65 129.65 M205.75 138.45 L196.95 138.45 196.95 142.8 205.75 142.8 205.75 138.45 M171.3 138.45 L153.7 138.45 153.7 142.8 164.7 142.8 164.7 151.6 153.7 151.6 153.7 156.0 171.3 156.0 171.3 164.8 144.95 164.8 144.95 138.45 Q144.95 129.65 153.7 129.65 L171.3 129.65 171.3 138.45 M196.95 129.65 L214.55 129.65 214.55 164.8 205.75 164.8 205.75 151.6 196.95 151.6 196.95 164.8 188.15 164.8 188.15 138.45 Q188.15 129.65 196.95 129.65 M289.15 142.8 L297.95 142.8 297.95 138.45 289.15 138.45 289.15 142.8 M306.75 129.65 L306.75 164.8 297.95 164.8 297.95 151.6 289.15 151.6 289.15 164.8 280.4 164.8 280.4 138.45 Q280.4 129.65 289.15 129.65 L306.75 129.65 M276.0 138.45 L258.4 138.45 258.4 142.8 276.0 142.8 276.0 156.0 Q276.0 164.8 267.25 164.8 L249.65 164.8 249.65 156.0 267.25 156.0 267.25 151.6 249.65 151.6 249.65 138.45 Q249.65 129.65 258.4 129.65 L276.0 129.65 276.0 138.45 M70.25 129.65 L96.6 129.65 96.6 164.8 87.85 164.8 87.85 138.45 83.45 138.45 83.45 156.0 74.65 156.0 74.65 138.45 70.25 138.45 70.25 164.8 61.45 164.8 61.45 138.45 Q61.45 129.65 70.25 129.65 M39.5 129.65 L57.1 129.65 57.1 156.0 Q57.1 164.8 48.3 164.8 L30.7 164.8 30.7 138.45 Q30.7 129.65 39.5 129.65 M0.0 138.45 L0.0 129.65 26.3 129.65 26.3 138.55 17.55 138.55 17.55 138.45 0.0 138.45 M26.3 164.8 L0.0 164.8 0.0 156.0 26.3 156.0 26.3 164.8 M48.3 156.0 L48.3 138.45 39.5 138.45 39.5 156.0 48.3 156.0 M140.55 129.65 L140.55 164.8 131.8 164.8 131.8 129.65 140.55 129.65 M118.6 142.8 L118.6 138.45 109.75 138.45 109.75 142.8 118.6 142.8 M118.6 129.65 Q127.4 129.65 127.4 138.45 L127.4 156.0 Q127.4 164.8 118.6 164.8 L101.05 164.8 101.05 129.65 118.6 129.65 M118.6 156.0 L118.6 151.6 109.75 151.6 109.75 156.0 118.6 156.0" fill="#e50000" fill-rule="evenodd" stroke="none"/>
    <path d="M26.35 138.35 L10.3 156.0 0.0 156.0 16.05 138.35 26.35 138.35" fill="#e50000" fill-rule="evenodd" stroke="none"/>
  </g>
</svg>
