<?xml version="1.0" encoding="UTF-8" standalone="no"?>
<svg xmlns:xlink="http://www.w3.org/1999/xlink" height="166.1px" width="477.95px" xmlns="http://www.w3.org/2000/svg">
  <g transform="matrix(1.0, 0.0, 0.0, 1.0, -169.0, -162.0)">
    <path d="M646.95 197.6 L646.95 199.1 169.0 199.1 169.0 197.6 646.95 197.6 M646.95 296.6 L646.95 298.1 169.0 298.1 169.0 296.6 646.95 296.6 M646.95 320.6 L646.95 322.1 169.0 322.1 169.0 320.6 646.95 320.6 M646.95 323.6 L646.95 325.1 169.0 325.1 169.0 323.6 646.95 323.6 M646.95 326.6 L646.95 328.1 169.0 328.1 169.0 326.6 646.95 326.6 M646.95 308.6 L646.95 310.1 169.0 310.1 169.0 308.6 646.95 308.6 M646.95 311.6 L646.95 313.1 169.0 313.1 169.0 311.6 646.95 311.6 M646.95 317.6 L646.95 319.1 169.0 319.1 169.0 317.6 646.95 317.6 M646.95 314.6 L646.95 316.1 169.0 316.1 169.0 314.6 646.95 314.6 M646.95 305.6 L646.95 307.1 169.0 307.1 169.0 305.6 646.95 305.6 M646.95 302.6 L646.95 304.1 169.0 304.1 169.0 302.6 646.95 302.6 M646.95 299.6 L646.95 301.1 169.0 301.1 169.0 299.6 646.95 299.6 M646.95 272.6 L646.95 274.1 169.0 274.1 169.0 272.6 646.95 272.6 M646.95 275.6 L646.95 277.1 169.0 277.1 169.0 275.6 646.95 275.6 M646.95 278.6 L646.95 280.1 169.0 280.1 169.0 278.6 646.95 278.6 M646.95 281.6 L646.95 283.1 169.0 283.1 169.0 281.6 646.95 281.6 M646.95 287.6 L646.95 289.1 169.0 289.1 169.0 287.6 646.95 287.6 M646.95 290.6 L646.95 292.1 169.0 292.1 169.0 290.6 646.95 290.6 M646.95 293.6 L646.95 295.1 169.0 295.1 169.0 293.6 646.95 293.6 M646.95 284.6 L646.95 286.1 169.0 286.1 169.0 284.6 646.95 284.6 M646.95 260.6 L646.95 262.1 169.0 262.1 169.0 260.6 646.95 260.6 M646.95 263.6 L646.95 265.1 169.0 265.1 169.0 263.6 646.95 263.6 M646.95 266.6 L646.95 268.1 169.0 268.1 169.0 266.6 646.95 266.6 M646.95 269.6 L646.95 271.1 169.0 271.1 169.0 269.6 646.95 269.6 M646.95 257.6 L646.95 259.1 169.0 259.1 169.0 257.6 646.95 257.6 M646.95 254.6 L646.95 256.1 169.0 256.1 169.0 254.6 646.95 254.6 M646.95 251.6 L646.95 253.1 169.0 253.1 169.0 251.6 646.95 251.6 M646.95 248.6 L646.95 250.1 169.0 250.1 169.0 248.6 646.95 248.6 M646.95 221.6 L646.95 223.1 169.0 223.1 169.0 221.6 646.95 221.6 M646.95 224.6 L646.95 226.1 169.0 226.1 169.0 224.6 646.95 224.6 M646.95 227.6 L646.95 229.1 169.0 229.1 169.0 227.6 646.95 227.6 M646.95 230.6 L646.95 232.1 169.0 232.1 169.0 230.6 646.95 230.6 M646.95 233.6 L646.95 235.1 169.0 235.1 169.0 233.6 646.95 233.6 M646.95 236.6 L646.95 238.1 169.0 238.1 169.0 236.6 646.95 236.6 M646.95 239.6 L646.95 241.1 169.0 241.1 169.0 239.6 646.95 239.6 M646.95 245.6 L646.95 247.1 169.0 247.1 169.0 245.6 646.95 245.6 M646.95 242.6 L646.95 244.1 169.0 244.1 169.0 242.6 646.95 242.6 M646.95 209.6 L646.95 211.1 169.0 211.1 169.0 209.6 646.95 209.6 M646.95 212.6 L646.95 214.1 169.0 214.1 169.0 212.6 646.95 212.6 M646.95 215.6 L646.95 217.1 169.0 217.1 169.0 215.6 646.95 215.6 M646.95 218.6 L646.95 220.1 169.0 220.1 169.0 218.6 646.95 218.6 M646.95 206.6 L646.95 208.1 169.0 208.1 169.0 206.6 646.95 206.6 M646.95 203.6 L646.95 205.1 169.0 205.1 169.0 203.6 646.95 203.6 M646.95 200.6 L646.95 202.1 169.0 202.1 169.0 200.6 646.95 200.6 M646.95 173.6 L646.95 175.1 169.0 175.1 169.0 173.6 646.95 173.6 M646.95 176.6 L646.95 178.1 169.0 178.1 169.0 176.6 646.95 176.6 M646.95 179.6 L646.95 181.1 169.0 181.1 169.0 179.6 646.95 179.6 M646.95 185.6 L646.95 187.1 169.0 187.1 169.0 185.6 646.95 185.6 M646.95 194.6 L646.95 196.1 169.0 196.1 169.0 194.6 646.95 194.6 M646.95 191.6 L646.95 193.1 169.0 193.1 169.0 191.6 646.95 191.6 M646.95 188.6 L646.95 190.1 169.0 190.1 169.0 188.6 646.95 188.6 M646.95 182.6 L646.95 184.1 169.0 184.1 169.0 182.6 646.95 182.6 M646.95 170.6 L646.95 172.1 169.0 172.1 169.0 170.6 646.95 170.6 M646.95 167.6 L646.95 169.1 169.0 169.1 169.0 167.6 646.95 167.6 M646.95 164.6 L646.95 166.1 169.0 166.1 169.0 164.6 646.95 164.6 M646.95 162.0 L646.95 163.1 169.0 163.1 169.0 162.0 646.95 162.0" fill="#000000" fill-opacity="0.4" fill-rule="evenodd" stroke="none"/>
  </g>
</svg>
