<?xml version="1.0" encoding="UTF-8" standalone="no"?>
<svg xmlns:xlink="http://www.w3.org/1999/xlink" height="77.35px" width="101.6px" xmlns="http://www.w3.org/2000/svg">
  <g transform="matrix(1.0, 0.0, 0.0, 1.0, 50.8, 38.65)">
    <path d="M-31.95 15.3 Q-32.4 18.7 -27.7 32.9 L-25.9 38.7 -43.65 38.65 Q-47.2 31.55 -48.6 25.85 -50.3 18.75 -50.7 8.05 -51.1 -2.65 -49.85 -7.9 -47.5 -17.1 -40.3 -24.15 -35.6 -28.8 -29.05 -32.25 -18.2 -38.0 -13.75 -38.55 L-10.4 -38.4 -7.1 -37.65 Q-2.9 -37.0 -5.1 -30.3 -7.15 -24.05 -13.6 -15.2 -19.85 -7.45 -23.8 -1.8 -31.25 8.95 -31.95 15.3" fill="url(#gradient0)" fill-rule="evenodd" stroke="none"/>
    <path d="M1.65 17.9 Q-0.35 20.6 -3.3 35.3 L-4.0 38.7 -20.2 38.7 -20.2 36.35 Q-20.0 25.8 -17.95 18.8 -16.0 11.8 -11.0 2.3 -6.05 -7.2 -2.35 -11.1 4.2 -17.9 13.95 -20.55 20.35 -22.2 27.75 -21.95 40.05 -21.55 44.15 -19.95 45.75 -19.3 47.05 -18.05 L49.5 -15.8 Q52.8 -13.15 47.6 -8.4 42.75 -4.0 32.7 0.5 23.5 4.1 17.2 7.1 5.5 12.7 1.65 17.9" fill="url(#gradient1)" fill-rule="evenodd" stroke="none"/>
  </g>
  <defs>
    <linearGradient gradientTransform="matrix(0.0242, -0.0094, 0.0116, 0.0298, -47.1, 21.05)" gradientUnits="userSpaceOnUse" id="gradient0" spreadMethod="pad" x1="-819.2" x2="819.2">
      <stop offset="0.0" stop-color="#34374b"/>
      <stop offset="0.5137254901960784" stop-color="#d9d3d9"/>
    </linearGradient>
    <linearGradient gradientTransform="matrix(0.0257, 0.0038, -0.0047, 0.0317, -14.35, 15.4)" gradientUnits="userSpaceOnUse" id="gradient1" spreadMethod="pad" x1="-819.2" x2="819.2">
      <stop offset="0.0" stop-color="#34374b"/>
      <stop offset="0.5137254901960784" stop-color="#d9d3d9"/>
    </linearGradient>
  </defs>
</svg>
