<?xml version="1.0" encoding="UTF-8" standalone="no"?>
<svg xmlns:xlink="http://www.w3.org/1999/xlink" height="60.05px" width="203.8px" xmlns="http://www.w3.org/2000/svg">
  <g transform="matrix(1.0, 0.0, 0.0, 1.0, -7.05, 10.85)">
    <path d="M39.75 -8.5 L94.35 -8.5 94.35 -7.0 117.6 -7.0 117.6 -2.7 131.75 -2.7 131.75 -7.35 168.55 -7.35 168.55 -10.85 206.7 -10.85 206.7 -5.4 169.9 -5.4 169.9 -2.7 174.85 -2.7 174.85 2.8 157.6 2.8 157.6 -1.9 132.85 -1.9 132.85 2.8 116.25 2.8 116.25 -1.5 114.5 -1.5 114.5 3.15 117.6 3.15 117.6 8.65 89.0 8.65 89.0 3.95 79.5 3.95 79.5 -1.5 89.0 -1.5 89.0 -3.1 39.75 -3.1 39.75 -8.5 M36.8 -5.4 L36.8 -0.7 71.7 -0.7 71.7 4.75 42.0 4.75 42.0 8.65 83.7 8.65 83.7 14.1 81.95 14.1 81.95 14.85 105.85 14.85 105.85 14.5 91.4 14.5 91.4 9.05 107.95 9.05 107.95 13.65 153.15 13.65 153.15 10.2 156.25 10.2 156.25 9.45 132.95 9.45 132.95 3.95 161.5 3.95 161.5 4.75 210.85 4.75 210.85 10.2 181.7 10.2 181.7 15.65 155.35 15.65 155.35 19.1 123.4 19.1 123.4 21.1 157.9 21.1 157.9 16.05 196.0 16.05 196.0 21.45 177.6 21.45 177.6 26.6 123.0 26.6 123.0 24.2 106.8 24.2 106.8 20.35 87.15 20.35 87.15 24.65 121.7 24.65 121.7 30.1 71.7 30.1 71.7 33.6 36.7 33.6 36.7 32.85 8.2 32.85 8.2 27.35 20.1 27.35 20.1 22.3 36.65 22.3 36.65 27.35 36.8 27.35 36.8 28.15 67.1 28.15 67.1 25.0 52.15 25.0 52.15 22.3 36.7 22.3 36.7 16.8 53.3 16.8 53.3 19.6 61.7 19.6 61.7 18.0 53.4 18.0 53.4 14.1 29.15 14.1 29.15 10.2 7.05 10.2 7.05 4.75 36.7 4.75 36.7 0.05 8.2 0.05 8.2 -5.4 36.8 -5.4 M207.7 33.25 L139.15 33.25 139.15 27.75 207.7 27.75 207.7 33.25 M167.4 39.85 L196.0 39.85 196.0 45.3 179.65 45.3 179.65 48.45 125.05 48.45 125.05 44.5 91.55 44.5 91.55 49.2 37.0 49.2 37.0 46.1 8.2 46.1 8.2 40.6 43.2 40.6 43.2 43.7 80.8 43.7 80.8 39.1 114.1 39.1 114.1 34.15 122.25 34.15 122.25 29.3 138.85 29.3 138.85 34.15 168.7 34.15 168.7 39.65 143.7 39.65 143.7 42.95 167.4 42.95 167.4 39.85 M43.85 37.5 L78.85 37.5 78.85 39.85 43.85 39.85 43.85 37.5" fill="#ce0000" fill-rule="evenodd" stroke="none"/>
  </g>
</svg>
