<?xml version="1.0" encoding="UTF-8" standalone="no"?>
<svg xmlns:xlink="http://www.w3.org/1999/xlink" height="74.6px" width="439.45px" xmlns="http://www.w3.org/2000/svg">
  <g transform="matrix(1.0, 0.0, 0.0, 1.0, 2.65, 2.65)">
    <path d="M420.9 69.3 L374.05 69.3 68.95 69.3 0.0 69.3 0.0 37.1 0.0 35.25 0.0 12.55 12.55 0.0 68.95 0.0 374.05 0.0 434.15 0.0 434.15 35.25 434.15 37.1 434.15 56.05 420.9 69.3" fill="url(#gradient0)" fill-rule="evenodd" stroke="none"/>
    <path d="M420.9 69.3 L374.05 69.3 68.95 69.3 0.0 69.3 0.0 37.1 0.0 35.25 0.0 12.55 12.55 0.0 68.95 0.0 374.05 0.0 434.15 0.0 434.15 35.25 434.15 37.1 434.15 56.05 420.9 69.3 Z" fill="none" stroke="#d90000" stroke-linecap="round" stroke-linejoin="round" stroke-width="1.5"/>
    <path d="M0.0 28.25 L0.0 23.45 0.0 12.55 12.55 0.0 57.2 0.0 M434.15 43.75 L434.15 44.2 434.15 56.05 420.9 69.3 389.55 69.3 384.25 69.3" fill="none" stroke="#d90000" stroke-linecap="square" stroke-linejoin="round" stroke-width="4.0"/>
    <path d="M0.0 28.25 L0.0 23.45 0.0 12.55 12.55 0.0 57.2 0.0 M434.15 43.75 L434.15 44.2 434.15 56.05 420.9 69.3 389.55 69.3 384.25 69.3" fill="none" stroke="#ff0606" stroke-linecap="square" stroke-linejoin="round" stroke-width="1.0"/>
  </g>
  <defs>
    <radialGradient cx="0" cy="0" gradientTransform="matrix(0.7875, 0.0, 0.0, 0.2684, 217.1, 34.65)" gradientUnits="userSpaceOnUse" id="gradient0" r="819.2" spreadMethod="pad">
      <stop offset="0.0" stop-color="#310000" stop-opacity="0.7607843"/>
      <stop offset="1.0" stop-color="#c60000" stop-opacity="0.5882353"/>
    </radialGradient>
  </defs>
</svg>
