<?xml version="1.0" encoding="UTF-8" standalone="no"?>
<svg xmlns:xlink="http://www.w3.org/1999/xlink" height="52.65px" width="187.8px" xmlns="http://www.w3.org/2000/svg">
  <g transform="matrix(1.0, 0.0, 0.0, 1.0, -8.2, 7.35)">
    <path d="M36.8 -2.3 L36.8 0.05 8.2 0.05 8.2 -2.3 36.8 -2.3 M131.75 -7.35 L169.9 -7.35 169.9 -2.7 174.85 -2.7 174.85 2.8 157.6 2.8 157.6 -1.9 132.85 -1.9 132.85 2.8 116.25 2.8 116.25 -2.7 131.75 -2.7 131.75 -7.35 M196.0 39.85 L196.0 45.3 167.4 45.3 167.4 39.85 196.0 39.85 M168.7 39.65 L115.8 39.65 115.8 44.5 80.8 44.5 80.8 39.1 114.1 39.1 114.1 34.15 122.25 34.15 122.25 29.3 138.85 29.3 138.85 34.15 168.7 34.15 168.7 39.65 M191.7 33.25 L161.65 33.25 161.65 30.45 191.7 30.45 191.7 33.25 M181.7 15.65 L155.35 15.65 155.35 19.1 105.85 19.1 105.85 14.5 91.4 14.5 91.4 9.05 107.95 9.05 107.95 13.65 153.15 13.65 153.15 10.2 181.7 10.2 181.7 15.65 M161.5 9.45 L132.95 9.45 132.95 7.05 161.5 7.05 161.5 9.45 M121.7 30.0 L67.1 30.0 67.1 26.55 121.7 26.55 121.7 30.0 M81.95 18.0 L53.4 18.0 53.4 12.55 81.95 12.55 81.95 18.0 M53.3 22.3 L36.7 22.3 36.7 16.8 53.3 16.8 53.3 22.3 M20.1 27.35 L20.1 22.3 36.65 22.3 36.65 27.35 36.8 27.35 36.8 32.85 8.2 32.85 8.2 27.35 20.1 27.35" fill="#ce0000" fill-rule="evenodd" stroke="none"/>
  </g>
</svg>
