<?xml version="1.0" encoding="UTF-8" standalone="no"?>
<svg xmlns:xlink="http://www.w3.org/1999/xlink" height="45.6px" width="188.7px" xmlns="http://www.w3.org/2000/svg">
  <g transform="matrix(1.0, 0.0, 0.0, 1.0, -4.85, 1.1)">
    <path d="M90.7 -1.1 L90.7 0.85 60.65 0.85 60.65 -1.1 90.7 -1.1 M184.3 15.65 L184.3 18.6 193.55 18.6 193.55 21.5 155.4 21.5 155.4 18.6 167.1 18.6 167.1 15.65 184.3 15.65 M147.3 44.5 L92.75 44.5 92.75 41.2 77.1 41.2 77.1 37.9 93.7 37.9 93.7 41.2 147.3 41.2 147.3 44.5 M97.3 16.8 L97.3 14.1 113.8 14.1 113.8 16.8 97.3 16.8 M54.35 28.45 L4.85 28.45 4.85 26.6 54.35 26.6 54.35 28.45 M56.85 19.9 L40.3 19.9 40.3 14.5 56.85 14.5 56.85 19.9 M26.0 5.95 L9.4 5.95 9.4 0.4 26.0 0.4 26.0 5.95 M14.15 35.55 L30.75 35.55 30.75 41.0 14.15 41.0 14.15 35.55" fill="#ce0000" fill-rule="evenodd" stroke="none"/>
  </g>
</svg>
