<?xml version="1.0" encoding="UTF-8" standalone="no"?>
<svg xmlns:xlink="http://www.w3.org/1999/xlink" height="57.35px" width="195.1px" xmlns="http://www.w3.org/2000/svg">
  <g transform="matrix(1.0, 0.0, 0.0, 1.0, -7.05, 6.2)">
    <path d="M7.05 -4.2 L7.05 -6.2 23.6 -6.2 23.6 -4.2 7.05 -4.2 M178.6 4.35 L148.6 4.35 148.6 2.4 178.6 2.4 178.6 4.35 M202.15 51.15 L106.8 51.15 106.8 48.1 93.45 48.1 93.45 44.5 110.65 44.5 110.65 47.6 202.15 47.6 202.15 51.15 M144.95 15.7 L144.95 18.8 49.65 18.8 49.65 15.2 143.6 15.2 143.6 12.15 160.15 12.15 160.15 15.7 144.95 15.7" fill="#ce0000" fill-rule="evenodd" stroke="none"/>
  </g>
</svg>
