<?xml version="1.0" encoding="UTF-8" standalone="no"?>
<svg xmlns:xlink="http://www.w3.org/1999/xlink" height="105.4px" width="332.35px" xmlns="http://www.w3.org/2000/svg">
  <g transform="matrix(1.0, 0.0, 0.0, 1.0, 19.75, -16.5)">
    <path d="M312.5 113.9 L305.0 121.9 -19.75 121.9 -19.75 105.3 -19.75 82.45 -19.75 53.05 -19.75 24.55 -12.15 16.5 312.5 16.5 312.5 113.9" fill="#000000" fill-opacity="0.8" fill-rule="evenodd" stroke="none"/>
    <path d="M312.6 112.1 L312.6 114.15 305.65 121.25 -19.75 121.55 -19.7 120.1 305.05 120.1 312.6 112.1" fill="url(#gradient0)" fill-rule="evenodd" stroke="none"/>
    <path d="M218.7 45.3 Q170.4 45.3 142.15 45.55 113.95 45.8 62.35 44.9 10.75 43.95 3.0 43.45 L147.45 43.45 293.5 43.4 Q266.6 45.3 218.7 45.3" fill="url(#gradient1)" fill-rule="evenodd" stroke="none"/>
  </g>
  <defs>
    <radialGradient cx="0" cy="0" gradientTransform="matrix(0.1434, 0.0, 0.0, -0.1532, 146.4, 116.4)" gradientUnits="userSpaceOnUse" id="gradient0" r="819.2" spreadMethod="pad">
      <stop offset="0.1607843137254902" stop-color="#cc0000"/>
      <stop offset="1.0" stop-color="#660000"/>
    </radialGradient>
    <radialGradient cx="0" cy="0" gradientTransform="matrix(0.179, 0.0, 0.0, 0.3841, 148.2, 44.5)" gradientUnits="userSpaceOnUse" id="gradient1" r="819.2" spreadMethod="pad">
      <stop offset="0.0" stop-color="#ff0000"/>
      <stop offset="1.0" stop-color="#ff0000" stop-opacity="0.0"/>
    </radialGradient>
  </defs>
</svg>
