<?xml version="1.0" encoding="UTF-8" standalone="no"?>
<svg xmlns:xlink="http://www.w3.org/1999/xlink" height="14.85px" width="15.5px" xmlns="http://www.w3.org/2000/svg">
  <g transform="matrix(1.0, 0.0, 0.0, 1.0, -14.5, 18.65)">
    <path d="M22.25 -17.6 L24.3 -13.35 29.1 -12.7 25.6 -9.35 26.5 -4.6 22.25 -6.8 18.0 -4.6 18.75 -9.35 15.4 -12.7 20.05 -13.35 22.25 -17.6" fill="url(#gradient0)" fill-rule="evenodd" stroke="none"/>
    <path d="M24.05 -12.95 L22.25 -16.7 20.45 -12.95 16.3 -12.35 19.25 -9.5 18.5 -5.35 Q20.45 -6.25 22.25 -7.3 24.05 -6.25 25.85 -5.35 L25.2 -9.5 28.2 -12.35 24.05 -12.95 M22.25 -18.65 L24.55 -13.75 30.0 -12.95 26.1 -9.1 27.0 -3.8 22.25 -6.4 17.45 -3.8 18.35 -9.1 14.5 -12.95 19.8 -13.75 22.25 -18.65" fill="#020202" fill-rule="evenodd" stroke="none"/>
    <path d="M22.25 -16.7 L24.05 -12.95 28.05 -12.45 25.2 -9.6 25.85 -5.5 Q24.05 -6.4 22.25 -7.45 20.45 -6.4 18.65 -5.5 L19.25 -9.6 16.3 -12.45 20.45 -12.95 22.25 -16.7" fill="url(#gradient1)" fill-rule="evenodd" stroke="none"/>
  </g>
  <defs>
    <linearGradient gradientTransform="matrix(0.0083, 0.0, 0.0, -0.0083, 22.25, -11.15)" gradientUnits="userSpaceOnUse" id="gradient0" spreadMethod="pad" x1="-819.2" x2="819.2">
      <stop offset="0.0" stop-color="#fff069"/>
      <stop offset="1.0" stop-color="#af982b"/>
    </linearGradient>
    <linearGradient gradientTransform="matrix(-0.0034, 0.0052, 0.0052, 0.0034, 22.65, -11.45)" gradientUnits="userSpaceOnUse" id="gradient1" spreadMethod="pad" x1="-819.2" x2="819.2">
      <stop offset="0.0" stop-color="#fff069"/>
      <stop offset="1.0" stop-color="#af982b"/>
    </linearGradient>
  </defs>
</svg>
