<?xml version="1.0" encoding="UTF-8" standalone="no"?>
<svg xmlns:xlink="http://www.w3.org/1999/xlink" height="15.65px" width="26.65px" xmlns="http://www.w3.org/2000/svg">
  <g transform="matrix(1.0, 0.0, 0.0, 1.0, 13.3, 7.8)">
    <path d="M1.1 -1.9 Q0.7 -1.45 0.7 -0.85 0.7 -0.2 1.1 0.3 1.6 0.75 2.3 0.75 3.0 0.75 3.5 0.3 4.0 -0.2 4.0 -0.85 4.0 -1.45 3.5 -1.9 3.0 -2.35 2.3 -2.35 1.6 -2.35 1.1 -1.9 M11.15 -4.9 Q13.35 -4.8 13.35 -2.95 13.35 -2.2 12.15 -1.7 L11.45 -1.7 Q11.2 -1.85 10.9 -2.35 L10.45 -3.05 8.5 -2.0 Q8.3 -2.0 8.15 -2.55 8.0 -3.05 7.65 -3.15 8.1 -3.7 9.45 -4.5 8.95 -5.05 8.95 -6.1 8.95 -7.55 10.15 -7.8 11.3 -8.0 11.3 -6.05 L11.15 -4.9 M6.7 -1.1 Q6.7 0.95 4.9 2.4 L4.4 2.45 2.4 1.9 2.75 3.4 2.5 3.65 1.9 4.15 1.8 3.7 1.45 3.25 1.35 3.75 1.45 4.2 1.3 4.2 -0.6 4.15 -0.6 4.1 -0.6 3.85 -0.6 3.75 -0.65 3.2 -1.0 3.65 -1.25 4.0 -1.5 3.95 -1.8 3.95 -2.15 3.85 -2.3 3.85 -2.3 3.65 -2.15 2.75 -1.95 2.2 -2.55 2.25 -2.45 2.05 -2.85 2.2 -4.25 2.4 -5.25 2.25 Q-6.9 0.8 -6.9 -1.1 -6.9 -3.2 -4.9 -4.75 -2.9 -6.3 -0.1 -6.3 2.75 -6.3 4.7 -4.75 6.7 -3.2 6.7 -1.1 M10.25 1.75 Q11.45 2.25 11.45 3.0 11.45 4.85 9.2 4.95 L9.45 6.1 Q9.45 8.05 8.25 7.85 7.05 7.6 7.05 6.15 7.05 5.1 7.55 4.55 6.2 3.75 5.8 3.25 L6.2 2.55 6.6 2.05 8.5 3.1 9.0 2.4 Q9.3 1.9 9.55 1.75 L10.25 1.75 M1.0 1.4 Q0.3 0.45 0.3 1.2 L0.6 1.7 1.05 1.75 1.2 1.5 1.0 1.4 M-0.2 1.2 Q-0.2 0.6 -0.6 1.0 -1.0 1.4 -1.0 1.7 L-0.95 1.9 -0.75 1.9 -0.4 1.7 -0.2 1.2 M-4.3 -0.85 Q-4.3 -0.2 -3.85 0.3 -3.35 0.75 -2.65 0.75 -1.95 0.75 -1.45 0.3 -0.9 -0.2 -0.9 -0.85 -0.9 -1.45 -1.45 -1.9 -1.95 -2.35 -2.65 -2.35 -3.35 -2.35 -3.85 -1.9 L-4.3 -0.85 M-9.45 -4.5 L-7.7 -3.15 -8.15 -2.55 Q-8.25 -2.0 -8.45 -2.0 L-10.4 -3.05 -10.85 -2.35 -11.4 -1.7 -12.1 -1.7 Q-13.3 -2.2 -13.3 -2.95 -13.3 -4.8 -11.1 -4.9 L-11.35 -6.05 Q-11.35 -8.0 -10.15 -7.8 -8.9 -7.55 -8.9 -6.1 -8.9 -5.05 -9.45 -4.5 M-6.8 2.05 Q-6.6 2.05 -6.5 2.55 L-6.0 3.25 -7.75 4.55 Q-7.25 5.1 -7.25 6.15 -7.25 7.6 -8.45 7.85 -9.65 8.05 -9.65 6.1 L-9.45 4.95 Q-11.65 4.85 -11.65 3.0 -11.65 2.25 -10.45 1.75 L-9.75 1.75 -9.2 2.4 -8.75 3.1 -6.8 2.05" fill="#b80a0a" fill-rule="evenodd" stroke="none"/>
  </g>
</svg>
