<?xml version="1.0" encoding="UTF-8" standalone="no"?>
<svg xmlns:xlink="http://www.w3.org/1999/xlink" height="35.6px" width="174.55px" xmlns="http://www.w3.org/2000/svg">
  <g transform="matrix(1.0, 0.0, 0.0, 1.0, -46.05, -5.3)">
    <path d="M220.6 25.4 L49.6 25.4 46.05 25.4 46.05 23.9 49.6 23.9 220.6 23.9 220.6 25.4 M49.6 36.3 L207.6 36.3 206.5 37.8 49.6 37.8 46.05 37.8 46.05 36.3 49.6 36.3 M49.6 39.4 L205.35 39.4 204.2 40.9 49.6 40.9 46.05 40.9 46.05 39.4 49.6 39.4 M49.6 33.2 L209.85 33.2 213.25 33.2 212.0 34.7 208.75 34.7 49.6 34.7 46.05 34.7 46.05 33.2 49.6 33.2 M220.6 28.5 L49.6 28.5 46.05 28.5 46.05 27.0 49.6 27.0 220.6 27.0 220.6 28.5 M220.6 31.6 L214.5 31.6 49.6 31.6 46.05 31.6 46.05 30.1 49.6 30.1 215.8 30.1 220.6 30.1 220.6 31.6 M220.6 6.8 L49.6 6.8 46.05 6.8 46.05 5.3 49.6 5.3 220.6 5.3 220.6 6.8 M220.6 9.9 L49.6 9.9 46.05 9.9 46.05 8.4 49.6 8.4 220.6 8.4 220.6 9.9 M220.6 16.1 L49.6 16.1 46.05 16.1 46.05 14.6 49.6 14.6 220.6 14.6 220.6 16.1 M220.6 19.2 L49.6 19.2 46.05 19.2 46.05 17.7 49.6 17.7 220.6 17.7 220.6 19.2 M220.6 22.3 L49.6 22.3 46.05 22.3 46.05 20.8 49.6 20.8 220.6 20.8 220.6 22.3 M220.6 13.0 L49.6 13.0 46.05 13.0 46.05 11.5 49.6 11.5 220.6 11.5 220.6 13.0" fill="#580000" fill-rule="evenodd" stroke="none"/>
  </g>
</svg>
