<?xml version="1.0" encoding="UTF-8" standalone="no"?>
<svg xmlns:xlink="http://www.w3.org/1999/xlink" height="39.2px" width="185.2px" xmlns="http://www.w3.org/2000/svg">
  <g transform="matrix(1.0, 0.0, 0.0, 1.0, 41.25, 0.0)">
    <path d="M119.35 0.0 L143.95 0.0 143.95 39.2 119.35 39.2 115.85 39.2 72.85 39.2 68.95 39.2 49.25 39.2 29.1 39.2 2.65 39.2 -1.15 39.2 -41.1 39.2 -41.1 0.0 -1.15 0.0 2.65 0.0 29.1 0.0 49.25 0.0 68.95 0.0 72.85 0.0 115.85 0.0 119.35 0.0" fill="url(#gradient0)" fill-rule="evenodd" stroke="none"/>
    <path d="M-37.05 23.45 L143.95 23.45 143.95 24.95 -37.05 24.95 -41.25 24.95 -41.25 23.45 -37.05 23.45 M-37.05 26.55 L143.95 26.55 143.95 28.05 -37.05 28.05 -41.25 28.05 -41.25 26.55 -37.05 26.55 M-37.05 35.85 L143.95 35.85 143.95 37.35 -37.05 37.35 -41.25 37.35 -41.25 35.85 -37.05 35.85 M-37.05 32.75 L143.95 32.75 143.95 34.25 -37.05 34.25 -41.25 34.25 -41.25 32.75 -37.05 32.75 M-37.05 29.65 L143.95 29.65 143.95 31.15 -37.05 31.15 -41.25 31.15 -41.25 29.65 -37.05 29.65 M-37.05 14.15 L143.95 14.15 143.95 15.65 -37.05 15.65 -41.25 15.65 -41.25 14.15 -37.05 14.15 M-37.05 20.35 L143.95 20.35 143.95 21.85 -37.05 21.85 -41.25 21.85 -41.25 20.35 -37.05 20.35 M-37.05 17.25 L143.95 17.25 143.95 18.75 -37.05 18.75 -41.25 18.75 -41.25 17.25 -37.05 17.25 M-37.05 4.85 L143.95 4.85 143.95 6.35 -37.05 6.35 -41.25 6.35 -41.25 4.85 -37.05 4.85 M-37.05 11.05 L143.95 11.05 143.95 12.55 -37.05 12.55 -41.25 12.55 -41.25 11.05 -37.05 11.05 M-37.05 7.95 L143.95 7.95 143.95 9.45 -37.05 9.45 -41.25 9.45 -41.25 7.95 -37.05 7.95 M-37.05 1.75 L143.95 1.75 143.95 3.25 -37.05 3.25 -41.25 3.25 -41.25 1.75 -37.05 1.75" fill="#9c680b" fill-rule="evenodd" stroke="none"/>
  </g>
  <defs>
    <linearGradient gradientTransform="matrix(0.0, 0.0177, -0.1129, 0.0, 51.45, 20.45)" gradientUnits="userSpaceOnUse" id="gradient0" spreadMethod="pad" x1="-819.2" x2="819.2">
      <stop offset="0.0" stop-color="#9a670b"/>
      <stop offset="1.0" stop-color="#db9b24"/>
    </linearGradient>
  </defs>
</svg>
