<?xml version="1.0" encoding="UTF-8" standalone="no"?>
<svg xmlns:xlink="http://www.w3.org/1999/xlink" height="50.9px" width="50.9px" xmlns="http://www.w3.org/2000/svg">
  <g transform="matrix(1.0, 0.0, 0.0, 1.0, -3.0, -8.25)">
    <path d="M28.35 57.35 Q18.5 57.35 11.55 50.4 4.6 43.45 4.6 33.6 4.6 23.75 11.55 16.8 18.5 9.9 28.35 9.9 38.2 9.9 45.15 16.8 52.1 23.75 52.1 33.6 52.1 43.45 45.15 50.4 38.2 57.35 28.35 57.35" fill="#090000" fill-rule="evenodd" stroke="none"/>
    <path d="M28.35 57.85 Q18.35 57.85 11.25 50.7 4.3 43.6 4.3 33.6 4.3 23.6 11.25 16.5 18.35 9.55 28.35 9.55 38.35 9.55 45.45 16.5 52.6 23.6 52.6 33.6 52.6 43.6 45.45 50.7 38.35 57.85 28.35 57.85 Z" fill="none" stroke="#e30000" stroke-linecap="square" stroke-linejoin="miter" stroke-width="2.0"/>
  </g>
</svg>
