<?xml version="1.0" encoding="UTF-8" standalone="no"?>
<svg xmlns:xlink="http://www.w3.org/1999/xlink" height="13.65px" width="14.4px" xmlns="http://www.w3.org/2000/svg">
  <g transform="matrix(1.0, 0.0, 0.0, 1.0, -2.4, -19.3)">
    <path d="M9.6 20.2 L11.55 24.2 15.9 24.7 12.8 27.8 13.45 32.2 9.6 30.1 5.75 32.2 6.5 27.8 3.3 24.7 7.65 24.2 9.6 20.2" fill="url(#gradient0)" fill-rule="evenodd" stroke="none"/>
    <path d="M4.3 25.1 L6.9 27.65 6.35 31.4 9.6 29.6 12.95 31.4 12.3 27.65 15.0 25.1 11.3 24.55 9.6 21.1 7.9 24.55 4.3 25.1 M11.9 23.8 L16.8 24.45 13.2 27.9 14.1 32.95 9.6 30.65 5.2 32.95 6.0 27.9 2.4 24.45 7.4 23.8 9.6 19.3 11.9 23.8" fill="#020202" fill-rule="evenodd" stroke="none"/>
    <path d="M9.6 21.1 L11.3 24.45 15.0 24.95 12.3 27.55 12.95 31.25 Q11.3 30.5 9.6 29.6 8.05 30.5 6.35 31.25 L6.9 27.55 4.3 24.95 7.9 24.45 9.6 21.1" fill="url(#gradient1)" fill-rule="evenodd" stroke="none"/>
  </g>
  <defs>
    <linearGradient gradientTransform="matrix(0.0077, 0.0, 0.0, -0.0077, 9.6, 26.1)" gradientUnits="userSpaceOnUse" id="gradient0" spreadMethod="pad" x1="-819.2" x2="819.2">
      <stop offset="0.0" stop-color="#fff069"/>
      <stop offset="1.0" stop-color="#af982b"/>
    </linearGradient>
    <linearGradient gradientTransform="matrix(-0.0031, 0.0048, 0.0048, 0.0031, 10.1, 25.85)" gradientUnits="userSpaceOnUse" id="gradient1" spreadMethod="pad" x1="-819.2" x2="819.2">
      <stop offset="0.0" stop-color="#fff069"/>
      <stop offset="1.0" stop-color="#af982b"/>
    </linearGradient>
  </defs>
</svg>
