<?xml version="1.0" encoding="UTF-8" standalone="no"?>
<svg xmlns:xlink="http://www.w3.org/1999/xlink" height="71.2px" width="270.0px" xmlns="http://www.w3.org/2000/svg">
  <g transform="matrix(1.0, 0.0, 0.0, 1.0, 0.3, 8.2)">
    <path d="M235.4 59.0 L235.3 59.0 235.3 61.2 194.55 61.2 194.55 59.0 -0.3 59.0 -0.3 -1.8 224.0 -1.8 Q231.55 -8.2 241.8 -8.2 253.4 -8.2 261.55 -0.05 269.7 8.1 269.7 19.65 269.7 31.3 261.55 39.4 254.3 46.7 244.3 47.5 L235.4 59.0" fill="#000000" fill-opacity="0.7490196" fill-rule="evenodd" stroke="none"/>
    <path d="M147.05 -6.25 Q160.4 -6.25 160.4 7.05 L160.4 49.65 Q160.4 63.0 147.05 63.0 L107.5 63.0 Q94.15 63.0 94.15 49.65 L94.15 7.05 Q94.15 -6.25 107.5 -6.25 L147.05 -6.25" fill="url(#gradient0)" fill-rule="evenodd" stroke="none"/>
    <path d="M142.5 10.35 L142.55 22.2 148.15 22.2 148.2 60.85 105.45 60.95 105.35 22.25 111.5 22.25 111.5 10.4 Q111.5 4.75 115.95 0.75 120.5 -3.15 126.9 -3.15 L127.05 -3.15 Q133.4 -3.15 137.95 0.7 142.55 4.7 142.5 10.35 M134.35 14.1 Q134.4 10.55 132.25 8.05 130.05 5.6 126.95 5.6 123.8 5.6 121.65 8.05 119.55 10.6 119.55 14.2 L119.55 22.25 134.35 22.2 134.35 14.1 M123.15 38.25 L124.3 39.1 121.0 51.3 133.5 51.25 130.05 39.05 131.15 38.25 Q132.9 36.45 132.85 34.15 132.85 31.75 131.1 30.15 129.5 28.4 127.2 28.45 124.75 28.4 123.15 30.15 121.4 31.8 121.4 34.15 121.4 36.5 123.15 38.25" fill="#000000" fill-rule="evenodd" stroke="none"/>
    <path d="M142.5 10.35 Q142.55 4.7 137.95 0.7 133.4 -3.15 127.05 -3.15 L126.9 -3.15 Q120.5 -3.15 115.95 0.75 111.5 4.75 111.5 10.4 L111.5 22.25 105.35 22.25 105.45 60.95 148.2 60.85 148.15 22.2 142.55 22.2 142.5 10.35 M134.35 14.1 Q134.4 10.55 132.25 8.05 130.05 5.6 126.95 5.6 123.8 5.6 121.65 8.05 119.55 10.6 119.55 14.2 L119.55 22.25 134.35 22.2 134.35 14.1 M123.15 38.25 Q121.4 36.5 121.4 34.15 121.4 31.8 123.15 30.15 124.75 28.4 127.2 28.45 129.5 28.4 131.1 30.15 132.85 31.75 132.85 34.15 132.9 36.45 131.15 38.25 L130.05 39.05 133.5 51.25 121.0 51.3 124.3 39.1 123.15 38.25" fill="none" stroke="#9b0000" stroke-linecap="round" stroke-linejoin="round" stroke-width="1.0"/>
  </g>
  <defs>
    <radialGradient cx="0" cy="0" gradientTransform="matrix(0.0, -0.0453, 0.0372, 0.0, 127.4, 36.95)" gradientUnits="userSpaceOnUse" id="gradient0" r="819.2" spreadMethod="pad">
      <stop offset="0.0" stop-color="#ca0000"/>
      <stop offset="1.0" stop-color="#ca0000" stop-opacity="0.0"/>
    </radialGradient>
  </defs>
</svg>
