<?xml version="1.0" encoding="UTF-8" standalone="no"?>
<svg xmlns:xlink="http://www.w3.org/1999/xlink" height="49.45px" width="185.7px" xmlns="http://www.w3.org/2000/svg">
  <g transform="matrix(1.0, 0.0, 0.0, 1.0, -44.4, 2.7)">
    <path d="M46.4 42.1 L178.05 42.25 178.05 41.75 203.05 41.7 207.55 36.1 Q201.4 35.15 196.8 30.55 191.1 24.85 191.1 16.8 191.1 9.45 195.9 4.0 L46.4 4.0 46.4 42.1 M44.4 2.0 L197.85 2.0 Q203.25 -2.7 210.6 -2.7 218.65 -2.7 224.35 3.0 230.1 8.75 230.1 16.8 230.1 24.85 224.35 30.55 219.9 35.05 214.0 36.05 L205.45 46.7 178.05 46.75 178.05 44.25 44.4 44.1 44.4 2.0 M198.2 29.15 Q202.8 33.7 209.0 34.25 L214.1 34.0 Q219.1 33.0 222.95 29.15 228.1 24.05 228.1 16.8 228.1 9.55 222.95 4.4 217.85 -0.7 210.6 -0.7 203.85 -0.7 198.95 3.75 L198.9 3.75 198.9 3.8 198.2 4.4 Q193.1 9.55 193.1 16.8 193.1 24.05 198.2 29.15" fill="#ffffff" fill-rule="evenodd" stroke="none"/>
  </g>
</svg>
