<?xml version="1.0" encoding="UTF-8" standalone="no"?>
<svg xmlns:xlink="http://www.w3.org/1999/xlink" height="44.1px" width="64.25px" xmlns="http://www.w3.org/2000/svg">
  <g transform="matrix(1.0, 0.0, 0.0, 1.0, 22.65, 8.2)">
    <path d="M-15.95 1.1 Q-14.5 -3.05 -12.6 -5.6 -14.4 -2.8 -15.7 1.45 -18.25 10.0 -15.95 16.8 -12.7 26.35 -3.8 30.1 0.55 31.9 4.3 31.8 L3.9 32.95 Q-0.1 32.8 -4.7 30.65 -14.0 26.5 -16.7 17.1 -18.9 9.45 -15.95 1.1" fill="#e8d446" fill-rule="evenodd" stroke="none"/>
    <path d="M1.6 32.05 Q0.2 31.15 0.55 29.1 L1.1 27.25 2.0 28.95 Q2.65 30.75 1.6 32.05" fill="#e8d446" fill-rule="evenodd" stroke="none"/>
    <path d="M-1.9 35.9 Q-2.0 34.25 -0.35 33.1 L1.45 32.2 Q0.95 35.8 -1.9 35.9" fill="#e8d446" fill-rule="evenodd" stroke="none"/>
    <path d="M-1.6 31.0 Q-3.05 30.0 -2.8 27.9 L-2.15 26.0 -1.25 27.65 Q-0.45 29.6 -1.6 31.0" fill="#e8d446" fill-rule="evenodd" stroke="none"/>
    <path d="M-5.0 29.85 Q-6.4 28.55 -5.9 26.25 L-5.1 24.2 Q-2.65 27.55 -5.0 29.85" fill="#e8d446" fill-rule="evenodd" stroke="none"/>
    <path d="M-8.05 28.3 Q-9.5 26.75 -8.6 24.3 L-7.45 22.25 Q-5.35 26.1 -8.05 28.3" fill="#e8d446" fill-rule="evenodd" stroke="none"/>
    <path d="M-11.05 25.75 Q-12.45 23.8 -11.15 21.35 L-9.75 19.15 -9.25 21.75 Q-9.0 24.45 -11.05 25.75" fill="#e8d446" fill-rule="evenodd" stroke="none"/>
    <path d="M-13.25 22.65 Q-14.4 20.95 -13.35 18.75 L-11.95 16.95 Q-10.5 20.95 -13.25 22.65" fill="#e8d446" fill-rule="evenodd" stroke="none"/>
    <path d="M-15.05 19.3 Q-15.95 17.45 -14.5 15.55 L-13.0 13.85 Q-12.05 18.0 -15.05 19.3" fill="#e8d446" fill-rule="evenodd" stroke="none"/>
    <path d="M-16.45 15.8 Q-16.85 14.0 -15.3 12.55 L-13.6 11.55 Q-13.6 15.3 -16.45 15.8" fill="#e8d446" fill-rule="evenodd" stroke="none"/>
    <path d="M-16.95 12.05 Q-17.25 10.35 -15.55 9.1 L-13.9 8.05 Q-14.15 11.8 -16.95 12.05" fill="#e8d446" fill-rule="evenodd" stroke="none"/>
    <path d="M-16.95 8.55 Q-17.1 7.0 -15.55 6.1 L-14.0 5.45 Q-14.5 8.55 -16.95 8.55" fill="#e8d446" fill-rule="evenodd" stroke="none"/>
    <path d="M-16.6 4.95 Q-16.45 3.55 -14.9 2.75 L-13.25 2.4 Q-14.15 5.35 -16.6 4.95" fill="#e8d446" fill-rule="evenodd" stroke="none"/>
    <path d="M-15.95 1.85 Q-15.8 0.7 -14.4 0.05 L-13.0 -0.2 Q-13.9 2.25 -15.95 1.85" fill="#e8d446" fill-rule="evenodd" stroke="none"/>
    <path d="M-14.9 -0.7 Q-14.8 -1.75 -13.5 -2.15 L-12.35 -2.25 Q-13.35 -0.35 -14.9 -0.7" fill="#e8d446" fill-rule="evenodd" stroke="none"/>
    <path d="M-13.75 -3.3 Q-13.5 -4.2 -12.35 -4.6 L-11.15 -4.7 Q-12.05 -2.8 -13.75 -3.3" fill="#e8d446" fill-rule="evenodd" stroke="none"/>
    <path d="M-5.6 35.9 Q-5.9 33.85 -3.95 32.55 L-1.9 31.55 Q-2.4 35.65 -5.6 35.9" fill="#e8d446" fill-rule="evenodd" stroke="none"/>
    <path d="M-9.6 33.85 Q-9.5 31.8 -7.3 30.9 -6.15 30.35 -5.1 30.25 -6.4 34.25 -9.6 33.85" fill="#e8d446" fill-rule="evenodd" stroke="none"/>
    <path d="M-13.35 30.9 Q-12.85 28.8 -10.25 28.3 L-7.95 28.2 Q-10.15 32.05 -13.35 30.9" fill="#e8d446" fill-rule="evenodd" stroke="none"/>
    <path d="M-17.6 26.9 Q-16.2 24.95 -13.5 25.35 -12.05 25.45 -10.9 26.0 -14.65 29.2 -17.6 26.9" fill="#e8d446" fill-rule="evenodd" stroke="none"/>
    <path d="M-19.55 22.75 Q-18.15 21.2 -15.7 21.85 -14.4 22.1 -13.5 22.75 -17.1 25.2 -19.55 22.75" fill="#e8d446" fill-rule="evenodd" stroke="none"/>
    <path d="M-21.75 18.35 Q-19.95 16.8 -17.35 17.85 -16.05 18.5 -15.15 19.3 -19.55 21.35 -21.75 18.35" fill="#e8d446" fill-rule="evenodd" stroke="none"/>
    <path d="M-22.65 13.85 Q-19.7 12.2 -16.95 15.8 -21.1 16.95 -22.65 13.85" fill="#e8d446" fill-rule="evenodd" stroke="none"/>
    <path d="M-22.15 9.1 Q-19.05 8.2 -17.25 12.05 -21.5 12.2 -22.15 9.1" fill="#e8d446" fill-rule="evenodd" stroke="none"/>
    <path d="M-21.35 4.95 Q-18.4 4.45 -17.1 8.3 -20.95 8.05 -21.35 4.95" fill="#e8d446" fill-rule="evenodd" stroke="none"/>
    <path d="M-20.05 0.95 Q-17.35 0.95 -16.85 4.7 -20.2 3.65 -20.05 0.95" fill="#e8d446" fill-rule="evenodd" stroke="none"/>
    <path d="M-18.25 -2.0 Q-15.95 -1.6 -16.05 1.45 -18.8 0.3 -18.25 -2.0" fill="#e8d446" fill-rule="evenodd" stroke="none"/>
    <path d="M-16.45 -4.05 Q-14.65 -3.55 -15.05 -1.0 -17.25 -2.25 -16.45 -4.05" fill="#e8d446" fill-rule="evenodd" stroke="none"/>
    <path d="M-14.8 -6.25 Q-13.35 -5.5 -14.0 -3.3 -15.7 -4.7 -14.8 -6.25" fill="#e8d446" fill-rule="evenodd" stroke="none"/>
    <path d="M-13.0 -5.1 Q-13.1 -6.15 -11.95 -6.8 L-10.9 -7.3 Q-11.3 -5.1 -13.0 -5.1" fill="#e8d446" fill-rule="evenodd" stroke="none"/>
    <path d="M34.5 0.7 L31.4 -6.4 34.9 0.45 Q37.85 8.85 35.55 16.45 32.8 26.0 23.4 30.25 18.75 32.3 14.65 32.45 L14.35 31.4 22.65 29.6 Q31.55 26.0 34.75 16.2 37.1 9.2 34.5 0.7" fill="#e8d446" fill-rule="evenodd" stroke="none"/>
    <path d="M17.1 31.55 Q15.9 30.25 16.7 28.45 L17.6 26.75 Q19.25 30.0 17.1 31.55" fill="#e8d446" fill-rule="evenodd" stroke="none"/>
    <path d="M20.45 35.55 Q18.65 35.4 17.75 33.6 L17.1 31.65 18.9 32.55 Q20.7 33.7 20.45 35.55" fill="#e8d446" fill-rule="evenodd" stroke="none"/>
    <path d="M20.3 30.5 Q19.15 29.1 19.9 27.15 L20.8 25.45 Q22.65 28.8 20.3 30.5" fill="#e8d446" fill-rule="evenodd" stroke="none"/>
    <path d="M23.55 29.35 Q22.1 27.9 22.9 25.6 L23.8 23.55 Q26.1 27.25 23.55 29.35" fill="#e8d446" fill-rule="evenodd" stroke="none"/>
    <path d="M26.75 27.8 Q25.1 26.35 25.45 23.9 L26.1 21.6 Q29.1 25.2 26.75 27.8" fill="#e8d446" fill-rule="evenodd" stroke="none"/>
    <path d="M29.85 25.1 Q27.8 23.8 27.9 21.1 L28.45 18.5 30.0 20.7 Q31.25 23.25 29.85 25.1" fill="#e8d446" fill-rule="evenodd" stroke="none"/>
    <path d="M32.05 22.0 Q30.25 20.95 30.35 18.65 L30.75 16.45 Q33.85 19.4 32.05 22.0" fill="#e8d446" fill-rule="evenodd" stroke="none"/>
    <path d="M33.85 18.65 Q32.05 17.85 31.65 15.4 L31.8 13.2 Q35.4 15.8 33.85 18.65" fill="#e8d446" fill-rule="evenodd" stroke="none"/>
    <path d="M35.25 15.15 Q33.45 14.9 32.7 12.85 L32.3 10.9 34.0 11.9 Q35.65 13.35 35.25 15.15" fill="#e8d446" fill-rule="evenodd" stroke="none"/>
    <path d="M35.8 11.4 Q34.0 11.15 33.2 9.2 L32.7 7.3 34.5 8.3 Q36.15 9.6 35.8 11.4" fill="#e8d446" fill-rule="evenodd" stroke="none"/>
    <path d="M35.8 7.8 Q34.25 7.8 33.35 6.4 L32.7 4.85 34.25 5.45 Q35.9 6.4 35.8 7.8" fill="#e8d446" fill-rule="evenodd" stroke="none"/>
    <path d="M35.4 4.2 Q33.85 4.45 32.8 3.0 L32.05 1.6 33.7 2.0 Q35.25 2.75 35.4 4.2" fill="#e8d446" fill-rule="evenodd" stroke="none"/>
    <path d="M34.75 1.1 Q33.45 1.35 32.45 0.2 L31.65 -1.0 33.1 -0.7 Q34.65 -0.2 34.75 1.1" fill="#e8d446" fill-rule="evenodd" stroke="none"/>
    <path d="M33.7 -1.6 Q32.7 -1.25 31.8 -2.15 L31.15 -3.05 32.3 -2.9 Q33.45 -2.65 33.7 -1.6" fill="#e8d446" fill-rule="evenodd" stroke="none"/>
    <path d="M32.55 -4.05 Q31.55 -3.7 30.65 -4.6 L29.85 -5.6 31.0 -5.5 Q32.3 -5.1 32.55 -4.05" fill="#e8d446" fill-rule="evenodd" stroke="none"/>
    <path d="M24.3 35.4 Q22.25 35.25 21.2 33.2 L20.55 31.0 22.65 32.05 Q24.55 33.35 24.3 35.4" fill="#e8d446" fill-rule="evenodd" stroke="none"/>
    <path d="M28.45 33.45 Q26.35 33.7 24.8 31.8 L23.8 29.85 26.0 30.5 Q28.3 31.4 28.45 33.45" fill="#e8d446" fill-rule="evenodd" stroke="none"/>
    <path d="M32.15 30.35 Q30.1 31.15 28.2 29.45 L26.65 27.65 29.1 27.8 Q31.65 28.3 32.15 30.35" fill="#e8d446" fill-rule="evenodd" stroke="none"/>
    <path d="M36.45 26.35 Q34.5 27.8 31.9 26.75 L29.7 25.45 32.3 24.7 Q35.0 24.3 36.45 26.35" fill="#e8d446" fill-rule="evenodd" stroke="none"/>
    <path d="M38.35 22.25 Q35.9 24.7 32.3 22.1 L34.5 21.2 Q36.95 20.7 38.35 22.25" fill="#e8d446" fill-rule="evenodd" stroke="none"/>
    <path d="M40.55 17.75 Q39.15 19.65 36.45 19.4 L34.0 18.65 36.15 17.35 Q38.75 16.3 40.55 17.75" fill="#e8d446" fill-rule="evenodd" stroke="none"/>
    <path d="M41.6 13.2 Q40.05 16.3 35.8 15.15 L37.6 13.6 Q39.8 12.2 41.6 13.2" fill="#e8d446" fill-rule="evenodd" stroke="none"/>
    <path d="M41.1 8.3 Q40.3 11.55 36.05 11.4 L37.45 9.45 Q39.15 7.8 41.1 8.3" fill="#e8d446" fill-rule="evenodd" stroke="none"/>
    <path d="M40.15 4.2 Q39.8 7.3 35.9 7.55 L36.95 5.75 Q38.35 3.9 40.15 4.2" fill="#e8d446" fill-rule="evenodd" stroke="none"/>
    <path d="M38.9 0.2 Q39.15 2.9 35.65 3.9 L36.3 2.1 Q37.2 0.2 38.9 0.2" fill="#e8d446" fill-rule="evenodd" stroke="none"/>
    <path d="M37.1 -2.8 Q37.6 -0.6 34.9 0.7 L35.15 -0.85 Q35.65 -2.55 37.1 -2.8" fill="#e8d446" fill-rule="evenodd" stroke="none"/>
    <path d="M35.25 -5.0 Q36.05 -3.05 33.85 -1.75 33.7 -2.4 33.85 -3.15 34.1 -4.6 35.25 -5.0" fill="#e8d446" fill-rule="evenodd" stroke="none"/>
    <path d="M33.6 -7.05 Q34.5 -5.6 32.8 -4.2 L32.7 -5.35 Q32.7 -6.5 33.6 -7.05" fill="#e8d446" fill-rule="evenodd" stroke="none"/>
    <path d="M31.8 -6.0 Q30.65 -6.0 30.0 -7.05 L29.6 -8.2 Q31.9 -7.7 31.8 -6.0" fill="#e8d446" fill-rule="evenodd" stroke="none"/>
  </g>
</svg>
