<?xml version="1.0" encoding="UTF-8" standalone="no"?>
<svg xmlns:xlink="http://www.w3.org/1999/xlink" height="17.6px" width="7.8px" xmlns="http://www.w3.org/2000/svg">
  <g transform="matrix(1.0, 0.0, 0.0, 1.0, 3.9, 8.8)">
    <path d="M2.45 -6.3 Q2.45 -5.3 1.7 -4.55 1.15 -3.95 0.45 -3.85 L-0.05 -3.8 -0.5 -3.85 Q-1.2 -3.95 -1.8 -4.55 -2.5 -5.3 -2.5 -6.3 -2.5 -7.3 -1.8 -8.05 -1.05 -8.8 -0.05 -8.8 1.0 -8.8 1.7 -8.05 2.45 -7.3 2.45 -6.3 M2.85 -3.5 L3.15 -3.55 3.2 -3.55 3.7 -3.4 3.9 -2.9 3.9 1.65 3.7 2.1 3.2 2.35 3.15 2.35 2.6 2.1 2.4 1.65 2.4 -1.7 3.15 -1.7 3.15 -3.5 2.85 -3.5 3.15 -3.5 3.15 -1.7 2.4 -1.7 1.9 -1.7 1.9 3.2 1.9 8.1 1.65 8.55 1.2 8.8 1.15 8.8 0.6 8.55 0.4 8.1 0.4 3.35 -0.4 3.35 -0.4 8.1 -0.65 8.55 Q-0.85 8.8 -1.15 8.8 L-1.2 8.8 -1.7 8.55 -1.9 8.1 -1.9 3.2 -1.9 -1.7 -2.35 -1.7 -2.35 1.65 -2.6 2.1 -3.1 2.35 -3.15 2.35 -3.65 2.1 -3.9 1.65 -3.9 -2.9 -3.65 -3.4 -3.15 -3.55 -3.1 -3.55 -2.75 -3.5 2.85 -3.5 M-1.9 -1.7 L1.9 -1.7 -1.9 -1.7 M-2.75 -3.5 L-3.2 -3.5 -3.2 -1.7 -2.35 -1.7 -3.2 -1.7 -3.2 -3.5 -2.75 -3.5" fill="#ffffff" fill-rule="evenodd" stroke="none"/>
    <path d="M2.85 -3.5 L3.15 -3.5 3.15 -1.7 2.4 -1.7 1.9 -1.7 -1.9 -1.7 -2.35 -1.7 -3.2 -1.7 -3.2 -3.5 -2.75 -3.5 2.85 -3.5 Z" fill="none" stroke="#ffffff" stroke-linecap="square" stroke-linejoin="miter" stroke-width="0.1"/>
  </g>
</svg>
