<?xml version="1.0" encoding="UTF-8" standalone="no"?>
<svg xmlns:xlink="http://www.w3.org/1999/xlink" height="4.4px" width="51.0px" xmlns="http://www.w3.org/2000/svg">
  <g transform="matrix(1.0, 0.0, 0.0, 1.0, 0.0, 0.0)">
    <path d="M46.0 0.0 L44.0 4.4 40.0 4.4 42.0 0.0 46.0 0.0 M45.0 4.4 L47.0 0.0 51.0 0.0 49.0 4.4 45.0 4.4 M36.0 0.0 L34.0 4.4 30.0 4.4 32.0 0.0 36.0 0.0 M35.0 4.4 L37.0 0.0 41.0 0.0 39.0 4.4 35.0 4.4 M26.0 0.0 L24.0 4.4 20.0 4.4 22.0 0.0 26.0 0.0 M25.0 4.4 L27.0 0.0 31.0 0.0 29.0 4.4 25.0 4.4 M17.0 0.0 L21.0 0.0 19.0 4.4 15.0 4.4 17.0 0.0 M16.0 0.0 L14.0 4.4 10.0 4.4 12.0 0.0 16.0 0.0 M2.0 0.0 L6.0 0.0 4.0 4.4 0.0 4.4 2.0 0.0 M5.0 4.4 L7.0 0.0 11.0 0.0 9.0 4.4 5.0 4.4" fill="#00ff99" fill-rule="evenodd" stroke="none"/>
  </g>
</svg>
