<?xml version="1.0" encoding="UTF-8" standalone="no"?>
<svg xmlns:xlink="http://www.w3.org/1999/xlink" height="56.25px" width="106.45px" xmlns="http://www.w3.org/2000/svg">
  <g transform="matrix(1.0, 0.0, 0.0, 1.0, 36.35, -0.7)">
    <path d="M8.55 47.8 Q8.2 47.35 8.4 46.95 8.4 46.35 8.9 46.25 L9.85 46.15 10.55 46.6 13.15 51.95 13.3 52.85 12.7 53.6 11.85 53.7 11.15 53.1 8.55 47.8" fill="url(#gradient0)" fill-rule="evenodd" stroke="none"/>
    <path d="M16.1 47.2 Q16.45 47.2 16.8 47.65 L19.4 53.0 19.55 53.95 18.95 54.65 18.1 54.75 Q17.5 54.55 17.4 54.15 L14.8 48.85 Q14.45 48.4 14.7 48.05 14.7 47.45 15.15 47.35 L16.1 47.2" fill="url(#gradient1)" fill-rule="evenodd" stroke="none"/>
    <path d="M20.85 48.95 Q20.85 48.4 21.3 48.25 L22.25 48.15 Q22.6 48.15 22.95 48.65 L25.55 53.95 25.7 54.9 25.1 55.6 24.25 55.7 23.55 55.15 20.95 49.8 Q20.6 49.35 20.85 48.95" fill="url(#gradient2)" fill-rule="evenodd" stroke="none"/>
    <path d="M27.7 49.45 L28.65 49.35 29.35 49.8 31.95 55.15 Q32.2 55.85 32.05 56.05 L31.5 56.75 30.65 56.9 29.95 56.3 27.35 51.0 Q27.0 50.5 27.2 50.15 27.2 49.55 27.7 49.45" fill="url(#gradient3)" fill-rule="evenodd" stroke="none"/>
    <path d="M-36.35 48.4 Q-36.35 47.65 -35.9 47.45 -35.55 47.1 -34.85 47.1 -34.35 47.1 -33.9 47.45 -33.55 47.8 -33.55 48.5 -33.55 48.95 -33.9 49.45 -34.35 49.8 -34.85 49.8 -35.55 49.8 -35.9 49.45 L-36.35 48.4" fill="url(#gradient4)" fill-rule="evenodd" stroke="none"/>
    <path d="M-31.3 44.95 Q-30.95 45.3 -30.95 46.05 -30.95 46.5 -31.3 46.95 -31.65 47.35 -32.25 47.2 L-33.2 46.85 -33.65 45.9 Q-33.65 45.2 -33.2 44.85 -32.8 44.35 -32.25 44.35 L-31.3 44.95" fill="url(#gradient5)" fill-rule="evenodd" stroke="none"/>
    <path d="M-31.65 48.4 Q-31.3 47.9 -30.6 47.9 -30.1 47.9 -29.65 48.4 -29.3 48.75 -29.3 49.45 -29.3 49.95 -29.65 50.4 L-30.6 50.75 Q-31.3 50.75 -31.65 50.4 L-32.0 49.45 Q-32.0 48.75 -31.65 48.4" fill="url(#gradient6)" fill-rule="evenodd" stroke="none"/>
    <path d="M-27.85 45.3 Q-27.4 45.3 -26.9 45.8 -26.55 46.15 -26.55 46.75 -26.55 47.35 -26.9 47.65 -27.4 48.05 -27.85 48.05 -28.55 47.9 -28.9 47.55 -29.4 47.2 -29.4 46.6 -29.4 46.05 -28.9 45.65 -28.55 45.2 -27.85 45.3" fill="url(#gradient7)" fill-rule="evenodd" stroke="none"/>
    <path d="M-26.2 48.85 Q-25.6 48.85 -25.15 49.2 -24.8 49.7 -24.8 50.25 -24.8 50.75 -25.15 51.25 L-26.2 51.55 -27.15 51.25 -27.6 50.25 Q-27.6 49.7 -27.15 49.2 -26.8 48.85 -26.2 48.85" fill="url(#gradient8)" fill-rule="evenodd" stroke="none"/>
    <path d="M-24.65 48.25 Q-25.15 47.9 -25.15 47.35 -25.15 46.75 -24.65 46.35 -24.3 45.9 -23.6 46.05 -23.15 46.05 -22.65 46.5 -22.3 46.85 -22.3 47.45 -22.3 48.05 -22.65 48.4 -23.15 48.75 -23.6 48.75 -24.3 48.65 -24.65 48.25" fill="url(#gradient9)" fill-rule="evenodd" stroke="none"/>
    <path d="M-20.9 49.95 Q-20.55 50.4 -20.55 51.0 -20.55 51.45 -20.9 51.95 -21.35 52.3 -21.95 52.3 L-22.9 51.95 -23.35 51.0 Q-23.35 50.4 -22.9 49.95 -22.55 49.55 -21.95 49.55 -21.35 49.55 -20.9 49.95" fill="url(#gradient10)" fill-rule="evenodd" stroke="none"/>
    <path d="M66.7 9.4 L51.3 6.7 54.35 4.7 70.1 7.55 66.7 9.4 M50.85 20.15 L35.45 17.45 38.45 15.45 54.2 18.3 50.85 20.15 M44.65 5.4 L29.3 2.7 32.3 0.7 48.05 3.55 44.65 5.4 M32.15 14.3 L28.8 16.15 13.4 13.45 16.4 11.45 32.15 14.3" fill="#ffffff" fill-rule="evenodd" stroke="none"/>
  </g>
  <defs>
    <linearGradient gradientTransform="matrix(-0.0026, 0.0015, -0.0023, -0.004, 10.8, 49.95)" gradientUnits="userSpaceOnUse" id="gradient0" spreadMethod="pad" x1="-819.2" x2="819.2">
      <stop offset="0.0" stop-color="#000000"/>
      <stop offset="1.0" stop-color="#4f4f4f"/>
    </linearGradient>
    <linearGradient gradientTransform="matrix(-0.0014, 6.0E-4, -0.0021, -0.0045, 17.2, 51.35)" gradientUnits="userSpaceOnUse" id="gradient1" spreadMethod="pad" x1="-819.2" x2="819.2">
      <stop offset="0.0" stop-color="#000000"/>
      <stop offset="1.0" stop-color="#4f4f4f"/>
    </linearGradient>
    <linearGradient gradientTransform="matrix(-0.002, 9.0E-4, -0.0021, -0.0045, 23.2, 51.8)" gradientUnits="userSpaceOnUse" id="gradient2" spreadMethod="pad" x1="-819.2" x2="819.2">
      <stop offset="0.0" stop-color="#000000"/>
      <stop offset="1.0" stop-color="#4f4f4f"/>
    </linearGradient>
    <linearGradient gradientTransform="matrix(-0.0022, 0.0011, -0.0022, -0.0045, 30.05, 53.0)" gradientUnits="userSpaceOnUse" id="gradient3" spreadMethod="pad" x1="-819.2" x2="819.2">
      <stop offset="0.0" stop-color="#000000"/>
      <stop offset="1.0" stop-color="#4f4f4f"/>
    </linearGradient>
    <radialGradient cx="0" cy="0" fx="435.20000000000005" fy="0" gradientTransform="matrix(0.0048, -0.0026, 0.0013, 0.0022, -34.7, 47.9)" gradientUnits="userSpaceOnUse" id="gradient4" r="819.2" spreadMethod="pad">
      <stop offset="0.0" stop-color="#000000"/>
      <stop offset="0.984313725490196" stop-color="#000000" stop-opacity="0.0"/>
    </radialGradient>
    <radialGradient cx="0" cy="0" fx="435.20000000000005" fy="0" gradientTransform="matrix(0.0048, -0.0026, 0.0013, 0.0022, -32.0, 45.45)" gradientUnits="userSpaceOnUse" id="gradient5" r="819.2" spreadMethod="pad">
      <stop offset="0.0" stop-color="#000000"/>
      <stop offset="0.984313725490196" stop-color="#000000" stop-opacity="0.0"/>
    </radialGradient>
    <radialGradient cx="0" cy="0" fx="435.20000000000005" fy="0" gradientTransform="matrix(0.0048, -0.0026, 0.0013, 0.0022, -30.45, 48.85)" gradientUnits="userSpaceOnUse" id="gradient6" r="819.2" spreadMethod="pad">
      <stop offset="0.0" stop-color="#000000"/>
      <stop offset="0.984313725490196" stop-color="#000000" stop-opacity="0.0"/>
    </radialGradient>
    <radialGradient cx="0" cy="0" fx="435.20000000000005" fy="0" gradientTransform="matrix(0.0048, -0.0026, 0.0013, 0.0022, -27.75, 46.15)" gradientUnits="userSpaceOnUse" id="gradient7" r="819.2" spreadMethod="pad">
      <stop offset="0.0" stop-color="#000000"/>
      <stop offset="0.984313725490196" stop-color="#000000" stop-opacity="0.0"/>
    </radialGradient>
    <radialGradient cx="0" cy="0" fx="435.20000000000005" fy="0" gradientTransform="matrix(0.0048, -0.0026, 0.0013, 0.0022, -25.95, 49.7)" gradientUnits="userSpaceOnUse" id="gradient8" r="819.2" spreadMethod="pad">
      <stop offset="0.0" stop-color="#000000"/>
      <stop offset="0.984313725490196" stop-color="#000000" stop-opacity="0.0"/>
    </radialGradient>
    <radialGradient cx="0" cy="0" fx="435.20000000000005" fy="0" gradientTransform="matrix(0.0048, -0.0026, 0.0013, 0.0022, -23.5, 46.85)" gradientUnits="userSpaceOnUse" id="gradient9" r="819.2" spreadMethod="pad">
      <stop offset="0.0" stop-color="#000000"/>
      <stop offset="0.984313725490196" stop-color="#000000" stop-opacity="0.0"/>
    </radialGradient>
    <radialGradient cx="0" cy="0" fx="435.20000000000005" fy="0" gradientTransform="matrix(0.0048, -0.0026, 0.0013, 0.0022, -21.7, 50.4)" gradientUnits="userSpaceOnUse" id="gradient10" r="819.2" spreadMethod="pad">
      <stop offset="0.0" stop-color="#000000"/>
      <stop offset="0.984313725490196" stop-color="#000000" stop-opacity="0.0"/>
    </radialGradient>
  </defs>
</svg>
