<?xml version="1.0" encoding="UTF-8" standalone="no"?>
<svg xmlns:xlink="http://www.w3.org/1999/xlink" height="4.4px" width="36.0px" xmlns="http://www.w3.org/2000/svg">
  <g transform="matrix(1.0, 0.0, 0.0, 1.0, 0.0, 0.0)">
    <path d="M34.0 4.4 L30.0 4.4 32.0 0.0 36.0 0.0 34.0 4.4 M27.0 0.0 L31.0 0.0 29.0 4.4 25.0 4.4 27.0 0.0 M26.0 0.0 L24.0 4.4 20.0 4.4 22.0 0.0 26.0 0.0 M15.0 4.4 L17.0 0.0 21.0 0.0 19.0 4.4 15.0 4.4 M14.0 4.4 L10.0 4.4 12.0 0.0 16.0 0.0 14.0 4.4 M6.0 0.0 L4.0 4.4 0.0 4.4 2.0 0.0 6.0 0.0 M5.0 4.4 L7.0 0.0 11.0 0.0 9.0 4.4 5.0 4.4" fill="#00ff99" fill-rule="evenodd" stroke="none"/>
  </g>
</svg>
