<?xml version="1.0" encoding="UTF-8" standalone="no"?>
<svg xmlns:xlink="http://www.w3.org/1999/xlink" height="16.3px" width="26.8px" xmlns="http://www.w3.org/2000/svg">
  <g transform="matrix(1.0, 0.0, 0.0, 1.0, 0.0, -3.25)">
    <path d="M26.8 16.8 L24.05 16.8 Q23.65 13.35 20.65 13.25 18.8 13.2 17.95 14.65 17.35 15.6 17.3 16.8 L11.0 16.8 11.0 4.6 11.0 3.75 26.8 3.75 26.8 16.8 M22.8 17.15 Q22.8 18.1 22.2 18.8 21.55 19.55 20.65 19.55 19.75 19.55 19.1 18.8 18.5 18.1 18.5 17.15 L18.55 16.8 Q18.55 15.95 19.1 15.35 19.75 14.7 20.65 14.7 21.55 14.7 22.2 15.35 22.7 15.95 22.8 16.8 L22.8 17.15 M2.6 7.4 L9.5 7.4 9.5 16.85 8.45 16.85 Q8.4 15.85 7.7 14.85 6.75 13.5 5.05 13.45 3.35 13.4 2.4 14.8 1.7 15.8 1.65 16.85 L0.0 16.85 0.0 12.9 2.6 7.4 M7.2 17.15 Q7.2 18.1 6.6 18.8 5.95 19.55 5.05 19.55 4.15 19.55 3.5 18.8 2.9 18.1 2.9 17.15 L2.9 16.85 Q3.0 16.0 3.5 15.35 4.15 14.7 5.05 14.7 5.95 14.7 6.6 15.35 7.1 16.0 7.2 16.85 L7.2 17.15" fill="#cccccc" fill-rule="evenodd" stroke="none"/>
    <path d="M6.75 3.25 L9.15 3.25 9.15 8.55 6.75 8.55 6.75 3.25" fill="#cccccc" fill-rule="evenodd" stroke="none"/>
  </g>
</svg>
