<?xml version="1.0" encoding="UTF-8" standalone="no"?>
<svg xmlns:xlink="http://www.w3.org/1999/xlink" height="15.9px" width="15.8px" xmlns="http://www.w3.org/2000/svg">
  <g transform="matrix(1.0, 0.0, 0.0, 1.0, -0.3, -0.2)">
    <path d="M6.95 12.65 L6.95 10.35 5.05 11.55 4.4 14.3 2.4 13.85 2.95 11.45 0.45 10.85 0.9 8.9 3.7 9.45 5.7 8.2 3.65 7.15 0.95 8.0 0.3 6.05 2.75 5.3 2.0 2.85 3.95 2.3 4.8 5.0 6.95 6.15 6.95 3.65 4.95 1.65 6.4 0.2 8.15 2.0 9.95 0.2 11.4 1.65 9.4 3.65 9.4 5.8 11.25 4.6 11.9 1.8 13.9 2.3 13.4 4.75 15.8 5.3 15.4 7.25 12.55 6.7 10.55 8.0 12.75 9.15 15.45 8.3 16.1 10.25 13.65 10.95 14.4 13.45 12.45 14.05 11.6 11.3 9.4 10.15 9.4 12.65 11.4 14.65 9.95 16.1 8.15 14.3 6.4 16.1 4.95 14.65 6.95 12.65" fill="#33ccff" fill-rule="evenodd" stroke="none"/>
  </g>
</svg>
