<?xml version="1.0" encoding="UTF-8" standalone="no"?>
<svg xmlns:xlink="http://www.w3.org/1999/xlink" height="14.8px" width="18.5px" xmlns="http://www.w3.org/2000/svg">
  <g transform="matrix(1.0, 0.0, 0.0, 1.0, 4.2, 2.25)">
    <path d="M11.9 1.1 Q13.3 1.2 13.3 2.7 13.3 3.35 12.5 3.7 L12.05 3.7 11.7 3.2 11.5 2.65 10.25 3.5 10.05 3.05 9.8 2.6 Q10.05 2.1 10.85 1.45 10.6 1.0 10.6 0.15 10.6 -1.05 11.25 -1.25 12.05 -1.45 12.05 0.2 L11.9 1.1 M11.4 6.55 L10.9 6.55 10.6 7.05 10.25 7.6 9.05 6.8 8.8 7.2 8.55 7.8 9.65 8.8 Q9.35 9.3 9.35 10.1 9.35 11.35 10.15 11.55 10.85 11.7 10.85 10.1 L10.65 9.2 Q12.05 9.05 12.05 7.55 12.05 6.95 11.4 6.55 M5.65 3.55 Q6.0 3.2 6.45 3.2 6.9 3.2 7.15 3.55 L7.45 4.45 7.15 5.4 Q6.9 5.75 6.45 5.75 L5.65 5.4 5.45 4.45 5.65 3.55 M9.2 4.25 Q9.2 5.9 8.05 7.05 L7.7 7.1 6.45 6.65 6.7 7.9 6.55 8.1 6.15 8.5 6.1 8.15 5.85 7.8 5.85 8.25 5.85 8.6 5.8 8.6 4.6 8.5 4.6 8.45 4.6 8.25 4.6 7.75 4.4 8.1 4.2 8.45 4.05 8.35 3.95 8.35 3.65 8.25 3.65 8.1 3.65 7.35 3.8 6.9 3.45 6.95 3.5 6.8 3.25 6.9 2.35 7.05 1.8 6.95 Q0.75 5.8 0.75 4.25 0.75 2.5 1.95 1.25 3.2 0.0 5.0 0.0 6.7 0.0 7.95 1.25 9.2 2.5 9.2 4.25 M4.85 6.1 L4.75 6.5 4.5 6.65 4.4 6.65 4.4 6.5 4.6 5.95 Q4.85 5.65 4.85 6.1 M2.35 4.45 Q2.35 3.9 2.6 3.55 2.9 3.2 3.4 3.2 3.8 3.2 4.05 3.55 4.45 3.9 4.45 4.45 4.45 4.95 4.05 5.4 3.8 5.75 3.4 5.75 2.9 5.75 2.6 5.4 L2.35 4.45 M0.75 6.8 L1.05 7.2 1.3 7.8 0.2 8.8 0.5 10.1 Q0.5 11.35 -0.2 11.55 -0.95 11.7 -0.95 10.1 L-0.8 9.2 Q-2.2 9.05 -2.2 7.55 -2.2 6.95 -1.45 6.55 L-1.05 6.55 -0.75 7.05 -0.4 7.6 0.75 6.8 M5.65 6.25 Q5.25 5.5 5.25 6.1 L5.4 6.5 5.65 6.55 5.75 6.35 5.65 6.25 M-0.8 1.45 Q-0.5 1.0 -0.5 0.15 -0.5 -1.05 -1.3 -1.25 -2.0 -1.45 -2.0 0.2 L-1.85 1.1 Q-3.2 1.2 -3.2 2.7 -3.2 3.35 -2.45 3.7 L-2.05 3.7 Q-1.85 3.65 -1.7 3.2 L-1.4 2.65 -0.2 3.5 -0.05 3.05 Q0.05 2.65 0.25 2.6 0.0 2.1 -0.8 1.45" fill="none" stroke="#000000" stroke-linecap="round" stroke-linejoin="round" stroke-width="2.0"/>
    <path d="M11.9 1.1 Q13.3 1.2 13.3 2.7 13.3 3.35 12.5 3.7 L12.05 3.7 11.7 3.2 11.5 2.65 10.25 3.5 10.05 3.05 9.8 2.6 Q10.05 2.1 10.85 1.45 10.6 1.0 10.6 0.15 10.6 -1.05 11.25 -1.25 12.05 -1.45 12.05 0.2 L11.9 1.1 M5.65 3.55 L5.45 4.45 5.65 5.4 6.45 5.75 Q6.9 5.75 7.15 5.4 L7.45 4.45 7.15 3.55 Q6.9 3.2 6.45 3.2 6.0 3.2 5.65 3.55 M11.4 6.55 Q12.05 6.95 12.05 7.55 12.05 9.05 10.65 9.2 L10.85 10.1 Q10.85 11.7 10.15 11.55 9.35 11.35 9.35 10.1 9.35 9.3 9.65 8.8 L8.55 7.8 8.8 7.2 9.05 6.8 10.25 7.6 10.6 7.05 10.9 6.55 11.4 6.55 M9.2 4.25 Q9.2 5.9 8.05 7.05 L7.7 7.1 6.45 6.65 6.7 7.9 6.55 8.1 6.15 8.5 6.1 8.15 5.85 7.8 5.85 8.25 5.85 8.6 5.8 8.6 4.6 8.5 4.6 8.45 4.6 8.25 4.6 7.75 4.4 8.1 4.2 8.45 4.05 8.35 3.95 8.35 3.65 8.25 3.65 8.1 3.65 7.35 3.8 6.9 3.45 6.95 3.5 6.8 3.25 6.9 2.35 7.05 1.8 6.95 Q0.75 5.8 0.75 4.25 0.75 2.5 1.95 1.25 3.2 0.0 5.0 0.0 6.7 0.0 7.95 1.25 9.2 2.5 9.2 4.25 M2.35 4.45 L2.6 5.4 Q2.9 5.75 3.4 5.75 3.8 5.75 4.05 5.4 4.45 4.95 4.45 4.45 4.45 3.9 4.05 3.55 3.8 3.2 3.4 3.2 2.9 3.2 2.6 3.55 2.35 3.9 2.35 4.45 M4.85 6.1 Q4.85 5.65 4.6 5.95 L4.4 6.5 4.4 6.65 4.5 6.65 4.75 6.5 4.85 6.1 M0.75 6.8 L1.05 7.2 1.3 7.8 0.2 8.8 0.5 10.1 Q0.5 11.35 -0.2 11.55 -0.95 11.7 -0.95 10.1 L-0.8 9.2 Q-2.2 9.05 -2.2 7.55 -2.2 6.95 -1.45 6.55 L-1.05 6.55 -0.75 7.05 -0.4 7.6 0.75 6.8 M5.65 6.25 Q5.25 5.5 5.25 6.1 L5.4 6.5 5.65 6.55 5.75 6.35 5.65 6.25 M-0.8 1.45 Q0.0 2.1 0.25 2.6 0.05 2.65 -0.05 3.05 L-0.2 3.5 -1.4 2.65 -1.7 3.2 Q-1.85 3.65 -2.05 3.7 L-2.45 3.7 Q-3.2 3.35 -3.2 2.7 -3.2 1.2 -1.85 1.1 L-2.0 0.2 Q-2.0 -1.45 -1.3 -1.25 -0.5 -1.05 -0.5 0.15 -0.5 1.0 -0.8 1.45" fill="#03b5ff" fill-rule="evenodd" stroke="none"/>
  </g>
</svg>
