<?xml version="1.0" encoding="UTF-8" standalone="no"?>
<svg xmlns:xlink="http://www.w3.org/1999/xlink" height="16.45px" width="28.55px" xmlns="http://www.w3.org/2000/svg">
  <g transform="matrix(1.0, 0.0, 0.0, 1.0, 8.95, -1.45)">
    <path d="M14.9 7.95 L14.9 7.25 Q16.85 -4.35 18.8 7.25 L18.8 7.95 14.9 7.95 M18.95 8.7 L18.95 16.35 19.6 16.35 19.6 17.9 14.1 17.9 14.1 16.35 14.75 16.35 14.75 8.7 18.95 8.7 M12.75 7.95 L8.85 7.95 8.85 7.25 Q10.8 -4.35 12.75 7.25 L12.75 7.95 M6.7 7.25 L6.7 7.95 2.8 7.95 2.8 7.25 Q4.75 -4.35 6.7 7.25 M6.85 8.7 L6.85 16.35 7.5 16.35 7.5 17.9 2.0 17.9 2.0 16.35 2.65 16.35 2.65 8.7 6.85 8.7 M8.7 16.35 L8.7 8.7 12.9 8.7 12.9 16.35 13.55 16.35 13.55 17.9 8.05 17.9 8.05 16.35 8.7 16.35" fill="#da0e0e" fill-rule="evenodd" stroke="none"/>
    <path d="M0.6 11.4 L-2.95 11.4 -2.95 15.3 -5.3 15.3 -5.3 11.4 -8.95 11.4 -8.95 9.2 -5.3 9.2 -5.3 5.3 -2.95 5.3 -2.95 9.2 0.6 9.2 0.6 11.4" fill="#ff0d0d" fill-rule="evenodd" stroke="none"/>
  </g>
</svg>
