<?xml version="1.0" encoding="UTF-8" standalone="no"?>
<svg xmlns:xlink="http://www.w3.org/1999/xlink" height="14.3px" width="15.3px" xmlns="http://www.w3.org/2000/svg">
  <g transform="matrix(1.0, 0.0, 0.0, 1.0, -0.3, -14.4)">
    <path d="M4.5 20.7 L4.5 27.35 5.05 27.35 5.05 28.7 0.3 28.7 0.3 27.35 0.85 27.35 0.85 20.7 4.5 20.7 M4.4 20.05 L1.0 20.05 1.0 19.45 Q2.7 9.35 4.4 19.45 L4.4 20.05 M5.55 27.35 L6.1 27.35 6.1 20.7 9.75 20.7 9.75 27.35 10.35 27.35 10.35 28.7 5.55 28.7 5.55 27.35 M9.65 20.05 L6.25 20.05 6.25 19.45 Q7.95 9.35 9.65 19.45 L9.65 20.05 M15.05 20.7 L15.05 27.35 15.6 27.35 15.6 28.7 10.8 28.7 10.8 27.35 11.4 27.35 11.4 20.7 15.05 20.7 M11.5 20.05 L11.5 19.45 Q13.2 9.35 14.9 19.45 L14.9 20.05 11.5 20.05" fill="#da0e0e" fill-rule="evenodd" stroke="none"/>
  </g>
</svg>
