<?xml version="1.0" encoding="UTF-8" standalone="no"?>
<svg xmlns:xlink="http://www.w3.org/1999/xlink" height="24.55px" width="61.9px" xmlns="http://www.w3.org/2000/svg">
  <g transform="matrix(1.0, 0.0, 0.0, 1.0, 30.3, 12.25)">
    <path d="M-7.05 -11.75 L31.1 -11.75 8.35 11.8 -29.8 11.8 -7.05 -11.75 Z" fill="none" stroke="url(#gradient0)" stroke-linecap="round" stroke-linejoin="round" stroke-width="1.0"/>
    <path d="M-7.05 -11.75 L31.1 -11.75 8.35 11.8 -29.8 11.8 -7.05 -11.75" fill="url(#gradient1)" fill-rule="evenodd" stroke="none"/>
    <path d="M7.3 10.15 L-25.55 10.15 -5.95 -10.1 26.85 -10.1 7.3 10.15" fill="url(#gradient2)" fill-rule="evenodd" stroke="none"/>
    <path d="M1.55 -0.6 L1.55 -1.2 Q3.25 -11.3 4.95 -1.2 L4.95 -0.6 1.55 -0.6 M6.8 -1.2 Q8.5 -11.3 10.2 -1.2 L10.2 -0.6 6.8 -0.6 6.8 -1.2 M10.35 6.7 L10.9 6.7 10.9 8.05 6.1 8.05 6.1 6.7 6.7 6.7 6.7 0.05 10.35 0.05 10.35 6.7 M5.05 0.05 L5.05 6.7 5.65 6.7 5.65 8.05 0.85 8.05 0.85 6.7 1.4 6.7 1.4 0.05 5.05 0.05 M0.35 8.05 L-4.4 8.05 -4.4 6.7 -3.85 6.7 -3.85 0.05 -0.2 0.05 -0.2 6.7 0.35 6.7 0.35 8.05 M-0.3 -0.6 L-3.7 -0.6 -3.7 -1.2 Q-2.0 -11.3 -0.3 -1.2 L-0.3 -0.6 M-8.7 -2.65 L-8.7 0.7 -5.65 0.7 -5.65 2.55 -8.7 2.55 -8.7 5.9 -10.7 5.9 -10.7 2.55 -13.8 2.55 -13.8 0.7 -10.7 0.7 -10.7 -2.65 -8.7 -2.65" fill="#ffffff" fill-rule="evenodd" stroke="none"/>
  </g>
  <defs>
    <linearGradient gradientTransform="matrix(0.0023, 0.0184, -0.0148, 0.0018, 0.65, 0.0)" gradientUnits="userSpaceOnUse" id="gradient0" spreadMethod="pad" x1="-819.2" x2="819.2">
      <stop offset="0.0" stop-color="#000000"/>
      <stop offset="1.0" stop-color="#f01c1c"/>
    </linearGradient>
    <linearGradient gradientTransform="matrix(0.0, 0.0146, -0.0144, 0.0, 0.7, 0.05)" gradientUnits="userSpaceOnUse" id="gradient1" spreadMethod="pad" x1="-819.2" x2="819.2">
      <stop offset="0.0" stop-color="#770000"/>
      <stop offset="1.0" stop-color="#c40000"/>
    </linearGradient>
    <linearGradient gradientTransform="matrix(0.0, 0.0126, -0.0124, 0.0, 4.2, -9.2)" gradientUnits="userSpaceOnUse" id="gradient2" spreadMethod="pad" x1="-819.2" x2="819.2">
      <stop offset="0.0" stop-color="#f89292"/>
      <stop offset="1.0" stop-color="#f23c3c" stop-opacity="0.0"/>
    </linearGradient>
  </defs>
</svg>
