<?xml version="1.0" encoding="UTF-8" standalone="no"?>
<svg xmlns:xlink="http://www.w3.org/1999/xlink" height="25.0px" width="101.9px" xmlns="http://www.w3.org/2000/svg">
  <g transform="matrix(1.0, 0.0, 0.0, 1.0, 50.95, 12.75)">
    <path d="M27.95 11.3 L-50.45 11.3 -27.95 -12.25 50.45 -12.25 27.95 11.3 Z" fill="none" stroke="url(#gradient0)" stroke-linecap="round" stroke-linejoin="round" stroke-width="1.0"/>
    <path d="M50.45 -12.25 L27.95 11.3 -50.45 11.3 -27.95 -12.25 50.45 -12.25" fill="url(#gradient1)" fill-rule="evenodd" stroke="none"/>
    <path d="M40.8 -10.7 L43.9 -10.7 45.6 -10.7 22.25 12.25 -1.85 12.25 -2.5 12.25 -48.75 12.25 -25.65 -10.7 -2.5 -10.7 -1.85 -10.7 40.8 -10.7" fill="url(#gradient2)" fill-rule="evenodd" stroke="none"/>
    <path d="M8.0 -2.1 L10.4 -2.1 Q10.65 -3.4 11.3 -4.4 L9.65 -6.1 10.65 -7.25 11.85 -8.35 13.55 -6.6 Q14.65 -7.3 15.9 -7.6 L15.9 -9.95 17.4 -10.05 19.0 -9.9 19.0 -7.6 Q20.3 -7.25 21.35 -6.55 L23.0 -8.2 24.1 -7.25 25.2 -6.0 23.55 -4.3 Q24.15 -3.3 24.4 -2.1 L26.75 -2.1 26.9 -0.55 26.75 1.05 24.4 1.05 23.45 3.3 25.15 4.9 24.1 6.15 22.95 7.15 21.25 5.5 Q20.2 6.2 19.0 6.45 L19.0 8.8 17.4 8.9 15.9 8.8 15.9 6.45 Q14.65 6.25 13.65 5.6 L11.95 7.25 10.65 6.15 9.75 5.05 11.4 3.4 Q10.65 2.3 10.4 1.05 L8.0 1.05 7.9 -0.55 8.0 -2.1 M19.35 -2.55 Q18.55 -3.35 17.4 -3.35 16.3 -3.35 15.5 -2.55 14.65 -1.75 14.65 -0.55 14.65 0.6 15.5 1.35 16.3 2.25 17.4 2.25 18.55 2.25 19.35 1.35 20.15 0.6 20.15 -0.55 20.15 -1.75 19.35 -2.55" fill="#e62222" fill-rule="evenodd" stroke="none"/>
  </g>
  <defs>
    <linearGradient gradientTransform="matrix(0.0043, 0.0179, -0.0145, 0.0035, 0.0, -0.5)" gradientUnits="userSpaceOnUse" id="gradient0" spreadMethod="pad" x1="-819.2" x2="819.2">
      <stop offset="0.0" stop-color="#000000"/>
      <stop offset="1.0" stop-color="#f01c1c"/>
    </linearGradient>
    <linearGradient gradientTransform="matrix(0.0, 0.014, -0.0144, 0.0, 0.05, 0.05)" gradientUnits="userSpaceOnUse" id="gradient1" spreadMethod="pad" x1="-819.2" x2="819.2">
      <stop offset="0.0" stop-color="#000000"/>
      <stop offset="1.0" stop-color="#710000"/>
    </linearGradient>
    <linearGradient gradientTransform="matrix(-1.0E-4, 0.015, 0.0149, 1.0E-4, 7.75, -8.95)" gradientUnits="userSpaceOnUse" id="gradient2" spreadMethod="pad" x1="-819.2" x2="819.2">
      <stop offset="0.0" stop-color="#f89292"/>
      <stop offset="1.0" stop-color="#f23c3c" stop-opacity="0.0"/>
    </linearGradient>
  </defs>
</svg>
