<?xml version="1.0" encoding="UTF-8" standalone="no"?>
<svg xmlns:xlink="http://www.w3.org/1999/xlink" height="475.65px" width="497.35px" xmlns="http://www.w3.org/2000/svg">
  <g transform="matrix(1.0, 0.0, 0.0, 1.0, 235.0, 225.75)">
    <path d="M262.35 -205.0 L-235.0 -205.0 -235.0 -212.55 262.35 -212.55 262.35 -205.0 M262.35 -218.2 L-235.0 -218.2 -235.0 -225.75 262.35 -225.75 262.35 -218.2 M262.35 -150.2 L-235.0 -150.2 -235.0 -157.75 262.35 -157.75 262.35 -150.2 M262.35 -163.45 L-235.0 -163.45 -235.0 -171.0 262.35 -171.0 262.35 -163.45 M262.35 -176.65 L-235.0 -176.65 -235.0 -184.2 262.35 -184.2 262.35 -176.65 M262.35 -137.05 L-235.0 -137.05 -235.0 -144.6 262.35 -144.6 262.35 -137.05 M262.35 -110.6 L-235.0 -110.6 -235.0 -118.15 262.35 -118.15 262.35 -110.6 M262.35 -123.85 L-235.0 -123.85 -235.0 -131.4 262.35 -131.4 262.35 -123.85 M262.35 -57.8 L-235.0 -57.8 -235.0 -65.35 262.35 -65.35 262.35 -57.8 M262.35 -84.2 L-235.0 -84.2 -235.0 -91.75 262.35 -91.75 262.35 -84.2 M262.35 -70.95 L-235.0 -70.95 -235.0 -78.5 262.35 -78.5 262.35 -70.95 M262.35 -4.95 L-235.0 -4.95 -235.0 -12.5 262.35 -12.5 262.35 -4.95 M262.35 -18.15 L-235.0 -18.15 -235.0 -25.7 262.35 -25.7 262.35 -18.15 M262.35 -31.35 L-235.0 -31.35 -235.0 -38.9 262.35 -38.9 262.35 -31.35 M262.35 -44.6 L-235.0 -44.6 -235.0 -52.15 262.35 -52.15 262.35 -44.6 M262.35 -97.4 L-235.0 -97.4 -235.0 -104.95 262.35 -104.95 262.35 -97.4 M262.35 -191.75 L-235.0 -191.75 -235.0 -199.3 262.35 -199.3 262.35 -191.75 M-235.0 15.85 L262.35 15.85 262.35 23.4 -235.0 23.4 -235.0 15.85 M-235.0 29.05 L262.35 29.05 262.35 36.6 -235.0 36.6 -235.0 29.05 M-235.0 0.75 L262.35 0.75 262.35 8.3 -235.0 8.3 -235.0 0.75 M-235.0 83.85 L262.35 83.85 262.35 91.4 -235.0 91.4 -235.0 83.85 M-235.0 57.4 L262.35 57.4 262.35 64.95 -235.0 64.95 -235.0 57.4 M-235.0 70.6 L262.35 70.6 262.35 78.15 -235.0 78.15 -235.0 70.6 M-235.0 42.3 L262.35 42.3 262.35 49.85 -235.0 49.85 -235.0 42.3 M-235.0 136.65 L262.35 136.65 262.35 144.2 -235.0 144.2 -235.0 136.65 M-235.0 123.45 L262.35 123.45 262.35 131.0 -235.0 131.0 -235.0 123.45 M-235.0 110.2 L262.35 110.2 262.35 117.75 -235.0 117.75 -235.0 110.2 M-235.0 189.45 L262.35 189.45 262.35 197.0 -235.0 197.0 -235.0 189.45 M-235.0 163.1 L262.35 163.1 262.35 170.65 -235.0 170.65 -235.0 163.1 M-235.0 149.85 L262.35 149.85 262.35 157.4 -235.0 157.4 -235.0 149.85 M-235.0 176.25 L262.35 176.25 262.35 183.8 -235.0 183.8 -235.0 176.25 M-235.0 97.0 L262.35 97.0 262.35 104.55 -235.0 104.55 -235.0 97.0 M-235.0 202.7 L262.35 202.7 262.35 210.25 -235.0 210.25 -235.0 202.7 M-235.0 215.9 L262.35 215.9 262.35 223.45 -235.0 223.45 -235.0 215.9 M-235.0 229.1 L262.35 229.1 262.35 236.65 -235.0 236.65 -235.0 229.1 M-235.0 242.35 L262.35 242.35 262.35 249.9 -235.0 249.9 -235.0 242.35" fill="#ff0000" fill-opacity="0.14901961" fill-rule="evenodd" stroke="none"/>
  </g>
</svg>
