<?xml version="1.0" encoding="UTF-8" standalone="no"?>
<svg xmlns:xlink="http://www.w3.org/1999/xlink" height="400.5px" width="400.45px" xmlns="http://www.w3.org/2000/svg">
  <g transform="matrix(1.0, 0.0, 0.0, 1.0, 199.8, 200.45)">
    <path d="M139.9 -139.7 Q167.2 -112.4 182.15 -77.0 197.65 -40.35 197.65 -0.2 197.65 39.95 182.15 76.6 167.2 112.0 139.9 139.3 112.6 166.55 77.2 181.55 40.55 197.05 0.4 197.05 -39.7 197.05 -76.35 181.55 -111.75 166.55 -139.05 139.3 -166.35 112.0 -181.3 76.6 -196.8 39.95 -196.8 -0.2 -196.8 -40.35 -181.3 -77.0 -166.35 -112.4 -139.05 -139.7 -111.75 -167.0 -76.35 -181.95 -39.7 -197.45 0.4 -197.45 40.55 -197.45 77.2 -181.95 112.6 -167.0 139.9 -139.7 Z" fill="none" stroke="#56b7e8" stroke-linecap="butt" stroke-linejoin="miter" stroke-width="6.0"/>
  </g>
</svg>
