<?xml version="1.0" encoding="UTF-8" standalone="no"?>
<svg xmlns:xlink="http://www.w3.org/1999/xlink" height="418.1px" width="417.05px" xmlns="http://www.w3.org/2000/svg">
  <g transform="matrix(1.0, 0.0, 0.0, 1.0, 208.5, 209.05)">
    <path d="M0.45 197.05 Q19.55 197.05 37.9 193.45 L40.2 205.25 Q20.35 209.05 0.45 209.05 L0.4 209.05 Q-31.45 209.05 -61.55 199.65 L-58.0 188.2 Q-29.5 197.05 0.4 197.05 L0.45 197.05" fill="#56b7e8" fill-rule="evenodd" stroke="none"/>
    <path d="M-166.1 -126.0 Q-150.6 -146.55 -130.4 -162.85 -110.25 -179.2 -86.8 -190.05 L-81.75 -179.15 Q-103.8 -168.9 -122.85 -153.55 -141.9 -138.15 -156.5 -118.8 L-166.1 -126.0" fill="#56b7e8" fill-rule="evenodd" stroke="none"/>
    <path d="M-168.45 -105.35 Q-183.2 -81.7 -190.85 -55.0 -198.5 -28.25 -198.5 -0.35 L-198.2 10.1 Q-196.15 49.1 -179.75 84.2 L-188.8 88.45 Q-206.1 51.5 -208.2 10.6 L-208.5 -0.35 Q-208.5 -29.6 -200.45 -57.75 -192.4 -85.8 -176.9 -110.65 L-168.45 -105.35" fill="#56b7e8" fill-rule="evenodd" stroke="none"/>
    <path d="M170.3 -103.75 Q148.6 -139.5 113.9 -163.55 90.0 -180.2 62.5 -189.25 35.05 -198.25 6.0 -199.05 L6.3 -209.05 Q36.75 -208.2 65.6 -198.7 94.5 -189.2 119.6 -171.75 156.0 -146.5 178.85 -108.95 L170.3 -103.75" fill="#56b7e8" fill-rule="evenodd" stroke="none"/>
    <path d="M208.55 18.1 Q204.5 63.6 182.05 103.15 159.55 142.7 122.65 169.25 L116.8 161.1 Q151.95 135.85 173.35 98.2 194.75 60.55 198.6 17.25 L208.55 18.1" fill="#56b7e8" fill-rule="evenodd" stroke="none"/>
    <path d="M112.85 -42.8 Q120.65 -22.3 120.65 -0.2 120.65 30.95 105.6 58.05 91.0 84.3 65.75 100.7 L89.05 136.5 Q80.45 142.1 71.05 146.65 L46.6 95.45 Q73.65 82.35 89.95 56.95 106.65 30.85 106.65 -0.2 106.65 -29.5 91.65 -54.55 77.1 -78.9 52.4 -92.8 L69.1 -122.55 Q90.6 -110.45 106.65 -91.95 L91.4 -78.75 Q105.35 -62.6 112.85 -42.8" fill="#56b7e8" fill-rule="evenodd" stroke="none"/>
    <path d="M-91.3 -77.85 L-106.65 -90.9 Q-90.8 -109.6 -69.6 -121.8 L-52.7 -92.15 Q-76.95 -78.1 -91.15 -54.0 -105.8 -29.15 -105.8 -0.2 -105.8 30.45 -89.45 56.3 -73.6 81.5 -47.05 94.8 L-72.1 145.7 Q-81.35 141.1 -89.6 135.55 L-66.0 100.0 Q-90.75 83.55 -105.05 57.5 -119.8 30.6 -119.8 -0.2 -119.8 -22.0 -112.2 -42.25 -104.9 -61.8 -91.3 -77.85" fill="#56b7e8" fill-rule="evenodd" stroke="none"/>
  </g>
</svg>
