<?xml version="1.0" encoding="UTF-8" standalone="no"?>
<svg xmlns:xlink="http://www.w3.org/1999/xlink" height="360.1px" width="360.1px" xmlns="http://www.w3.org/2000/svg">
  <g transform="matrix(1.0, 0.0, 0.0, 1.0, 180.05, 180.05)">
    <path d="M-66.0 -167.55 L-53.15 -135.0 -56.2 -133.75 Q-76.5 -125.2 -93.15 -111.25 -109.85 -97.25 -121.75 -78.85 L-151.15 -97.85 Q-136.4 -120.7 -115.7 -138.05 -94.95 -155.45 -69.8 -166.0 L-66.0 -167.55" fill="#56b7e8" fill-rule="evenodd" stroke="none"/>
    <path d="M68.9 -163.15 Q100.7 -149.75 125.2 -125.2 149.7 -100.7 163.1 -68.95 177.05 -36.05 177.05 0.0 177.05 36.05 163.1 68.95 149.7 100.7 125.2 125.2 100.7 149.7 68.9 163.15 36.0 177.05 0.0 177.05 -36.0 177.05 -68.9 163.15 -100.7 149.7 -125.2 125.2 -149.7 100.7 -163.1 68.95 -177.05 36.05 -177.05 0.0 -177.05 -36.05 -163.1 -68.95 -149.7 -100.7 -125.2 -125.2 -100.7 -149.75 -68.9 -163.15 -36.0 -177.05 0.0 -177.05 36.0 -177.05 68.9 -163.15 Z" fill="none" stroke="#56b7e8" stroke-linecap="butt" stroke-linejoin="miter" stroke-opacity="0.0" stroke-width="6.0"/>
  </g>
</svg>
