<?xml version="1.0" encoding="UTF-8" standalone="no"?>
<svg xmlns:xlink="http://www.w3.org/1999/xlink" height="566.1px" width="567.35px" xmlns="http://www.w3.org/2000/svg">
  <g transform="matrix(1.0, 0.0, 0.0, 1.0, 299.95, 298.1)">
    <path d="M207.6 -257.4 Q208.8 -253.55 210.3 -249.6 229.2 -200.05 248.5 -150.7 268.65 -99.05 267.3 -44.7 266.7 -20.5 263.65 3.1 251.8 -62.85 201.75 -112.9 136.2 -178.45 43.5 -178.45 -49.15 -178.45 -114.75 -112.9 -180.3 -47.35 -180.3 45.35 -180.3 138.05 -114.75 203.6 -60.6 257.7 12.05 267.15 -37.9 271.05 -86.5 256.8 -115.8 248.1 -143.15 235.3 -192.55 212.45 -231.35 173.8 -240.8 164.3 -252.5 159.35 -270.45 151.7 -283.95 152.2 -299.95 102.1 -299.95 45.35 -299.95 -96.9 -199.35 -197.5 -98.75 -298.1 43.5 -298.1 133.95 -298.1 207.6 -257.4" fill="#000000" fill-opacity="0.14901961" fill-rule="evenodd" stroke="none"/>
  </g>
</svg>
