<?xml version="1.0" encoding="UTF-8" standalone="no"?>
<svg xmlns:xlink="http://www.w3.org/1999/xlink" height="332.0px" width="303.5px" xmlns="http://www.w3.org/2000/svg">
  <g transform="matrix(1.0, 0.0, 0.0, 1.0, 154.5, 169.75)">
    <path d="M12.25 -138.25 L-60.0 -138.25 -60.0 -169.75 12.25 -169.75 12.25 -138.25 M71.0 -42.75 L130.0 -42.75 130.0 -5.75 71.0 -5.75 71.0 -42.75 M-154.5 -33.0 L-105.25 -33.0 -105.25 -22.25 -154.5 -22.25 -154.5 -33.0 M-28.75 135.0 L-28.75 162.25 -69.75 162.25 -69.75 135.0 -28.75 135.0 M149.0 94.0 L149.0 131.0 99.75 131.0 99.75 94.0 149.0 94.0 M49.25 125.5 L49.25 156.75 16.5 156.75 16.5 125.5 49.25 125.5" fill="#ffffff" fill-rule="evenodd" stroke="none"/>
  </g>
</svg>
