<?xml version="1.0" encoding="UTF-8" standalone="no"?>
<svg xmlns:xlink="http://www.w3.org/1999/xlink" height="66.55px" width="77.0px" xmlns="http://www.w3.org/2000/svg">
  <g transform="matrix(1.0, 0.0, 0.0, 1.0, 5.7, 57.75)">
    <path d="M27.4 -57.75 L27.4 -53.1 8.8 -53.1 8.8 -57.75 27.4 -57.75 M12.6 -45.55 L-2.5 -45.55 -2.5 -48.45 12.6 -48.45 12.6 -45.55 M26.85 -36.85 L46.3 -36.85 46.3 -32.2 26.85 -32.2 26.85 -36.85 M10.25 -16.5 L-5.7 -16.5 -5.7 -25.5 10.25 -25.5 10.25 -16.5 M30.9 -19.4 L30.9 -16.2 21.9 -16.2 21.9 -19.4 30.9 -19.4 M31.8 -3.7 L31.8 0.1 13.45 0.1 13.45 -3.7 31.8 -3.7 M63.75 -43.55 L43.7 -43.55 43.7 -49.05 63.75 -49.05 63.75 -43.55 M41.65 -9.8 L67.55 -9.8 67.55 -4.3 41.65 -4.3 41.65 -9.8 M57.1 -26.95 L71.3 -26.95 71.3 -22.0 57.1 -22.0 57.1 -26.95 M41.4 8.8 L25.4 8.8 25.4 5.3 41.4 5.3 41.4 8.8" fill="#ff0000" fill-rule="evenodd" stroke="none"/>
  </g>
</svg>
