<?xml version="1.0" encoding="UTF-8" standalone="no"?>
<svg xmlns:xlink="http://www.w3.org/1999/xlink" height="67.7px" width="76.15px" xmlns="http://www.w3.org/2000/svg">
  <g transform="matrix(1.0, 0.0, 0.0, 1.0, 7.45, 59.5)">
    <path d="M64.9 -49.65 L64.9 -46.15 46.3 -46.15 46.3 -49.65 64.9 -49.65 M50.95 -54.0 L34.4 -54.0 34.4 -59.5 50.95 -59.5 50.95 -54.0 M30.35 -56.05 L30.35 -49.05 1.25 -49.05 1.25 -56.05 30.35 -56.05 M26.85 -27.25 L14.35 -27.25 14.35 -31.05 26.85 -31.05 26.85 -27.25 M32.65 -40.9 L32.65 -44.1 43.4 -44.1 43.4 -39.15 35.25 -39.15 35.25 -33.05 21.3 -33.05 21.3 -40.9 32.65 -40.9 M10.25 -30.45 L-2.5 -30.45 -2.5 -34.2 10.25 -34.2 10.25 -30.45 M37.3 -21.7 L47.5 -21.7 47.5 -18.8 37.3 -18.8 37.3 -21.7 M20.75 -8.95 L-7.45 -8.95 -7.45 -20.0 20.75 -20.0 20.75 -8.95 M28.9 -10.7 L58.55 -10.7 58.55 -5.75 28.9 -5.75 28.9 -10.7 M37.9 -0.5 L37.9 8.2 10.25 8.2 10.25 -0.5 37.9 -0.5 M68.1 -30.15 L49.8 -30.15 49.8 -35.1 68.1 -35.1 68.1 -30.15 M57.1 -21.15 L68.7 -21.15 68.7 -20.25 57.1 -20.25 57.1 -21.15" fill="#ff0000" fill-rule="evenodd" stroke="none"/>
  </g>
</svg>
