<?xml version="1.0" encoding="UTF-8" standalone="no"?>
<svg xmlns:xlink="http://www.w3.org/1999/xlink" height="74.7px" width="81.4px" xmlns="http://www.w3.org/2000/svg">
  <g transform="matrix(1.0, 0.0, 0.0, 1.0, 9.8, 63.3)">
    <path d="M61.15 -54.55 L61.15 -49.05 43.1 -49.05 43.1 -54.55 61.15 -54.55 M52.4 -57.75 L28.6 -57.75 28.6 -63.3 52.4 -63.3 52.4 -57.75 M32.65 -56.05 L32.65 -48.45 16.1 -48.45 16.1 -56.05 32.65 -56.05 M21.6 -30.75 L-9.8 -30.75 -9.8 -35.7 21.6 -35.7 21.6 -30.75 M32.35 -35.1 L44.6 -35.1 44.6 -32.5 32.35 -32.5 32.35 -35.1 M14.9 -17.35 L14.9 -14.45 10.25 -14.45 10.25 -17.35 14.9 -17.35 M38.2 -19.4 L51.85 -19.4 51.85 -17.35 38.2 -17.35 38.2 -19.4 M36.75 -8.65 L45.45 -8.65 45.45 -3.7 36.75 -3.7 36.75 -8.65 M23.05 -2.55 L23.05 4.75 3.6 4.75 3.6 -2.55 23.05 -2.55 M39.9 -20.25 L-6.3 -20.25 -6.3 -25.5 39.9 -25.5 39.9 -20.25 M62.6 -36.25 L49.8 -36.25 49.8 -44.7 62.6 -44.7 62.6 -36.25 M71.6 -31.05 L71.6 -24.35 62.0 -24.35 62.0 -31.05 71.6 -31.05 M48.65 -12.7 L64.9 -12.7 64.9 -9.5 48.65 -9.5 48.65 -12.7 M8.8 -48.2 L-1.05 -48.2 -1.05 -52.25 8.8 -52.25 8.8 -48.2 M50.4 11.4 L35.55 11.4 35.55 4.45 50.4 4.45 50.4 11.4" fill="#ff0000" fill-rule="evenodd" stroke="none"/>
  </g>
</svg>
