<?xml version="1.0" encoding="UTF-8" standalone="no"?>
<svg xmlns:xlink="http://www.w3.org/1999/xlink" height="68.9px" width="80.5px" xmlns="http://www.w3.org/2000/svg">
  <g transform="matrix(1.0, 0.0, 0.0, 1.0, 7.45, 61.25)">
    <path d="M40.8 -57.75 L18.1 -57.75 18.1 -61.25 40.8 -61.25 40.8 -57.75 M44.6 -56.6 L56.5 -56.6 56.5 -52.25 68.4 -52.25 68.4 -45.85 34.4 -45.85 34.4 -52.25 44.6 -52.25 44.6 -56.6 M19.3 -54.0 L19.3 -50.2 0.7 -50.2 0.7 -54.0 19.3 -54.0 M37.0 -42.35 L62.0 -42.35 62.0 -38.3 37.0 -38.3 37.0 -42.35 M21.3 -30.15 L13.2 -30.15 13.2 -33.35 21.3 -33.35 21.3 -30.15 M37.0 -29.85 L48.05 -29.85 48.05 -25.5 41.95 -25.5 41.95 -18.25 20.15 -18.25 20.15 -25.8 37.0 -25.8 37.0 -29.85 M26.85 -41.8 L18.1 -41.8 18.1 -45.25 26.85 -45.25 26.85 -41.8 M22.75 -35.95 L34.4 -35.95 34.4 -30.15 22.75 -30.15 22.75 -35.95 M14.35 -35.7 L-4.85 -35.7 -4.85 -44.1 14.35 -44.1 14.35 -35.7 M38.45 -8.35 L62.6 -8.35 62.6 -2.55 38.45 -2.55 38.45 -8.35 M37.6 -4.0 L37.6 1.8 22.75 1.8 22.75 7.65 10.55 7.65 10.55 0.95 21.9 0.95 21.9 -4.0 37.6 -4.0 M37.6 -13.6 L37.6 -12.7 29.45 -12.7 29.45 -13.6 37.6 -13.6 M22.2 -8.35 L-1.05 -8.35 -1.05 -16.5 22.2 -16.5 22.2 -8.35 M14.65 -21.45 L-7.45 -21.45 -7.45 -28.1 14.65 -28.1 14.65 -21.45 M73.05 -30.45 L60.55 -30.45 60.55 -29.0 49.25 -29.0 49.25 -32.2 57.65 -32.2 57.65 -35.4 73.05 -35.4 73.05 -30.45 M47.75 -16.2 L63.45 -16.2 63.45 -10.7 47.75 -10.7 47.75 -16.2 M71.6 -21.7 L71.6 -16.8 60.85 -16.8 60.85 -21.7 71.6 -21.7" fill="#ff0000" fill-rule="evenodd" stroke="none"/>
  </g>
</svg>
