<?xml version="1.0" encoding="UTF-8" standalone="no"?>
<svg xmlns:xlink="http://www.w3.org/1999/xlink" height="65.45px" width="87.8px" xmlns="http://www.w3.org/2000/svg">
  <g transform="matrix(1.0, 0.0, 0.0, 1.0, 10.65, 60.7)">
    <path d="M51.85 -52.55 L39.35 -52.55 39.35 -60.4 51.85 -60.4 51.85 -52.55 M22.75 -52.25 L22.75 -41.5 0.7 -41.5 0.7 -52.25 22.75 -52.25 M33.25 -60.7 L33.25 -52.55 15.5 -52.55 15.5 -60.7 33.25 -60.7 M27.7 -42.05 L70.45 -42.05 70.45 -31.3 63.75 -31.3 63.75 -28.7 72.75 -28.7 72.75 -18.8 47.75 -18.8 47.75 -28.7 53.3 -28.7 53.3 -31.3 33.8 -31.3 33.8 -22.6 -10.65 -22.6 -10.65 -36.85 27.7 -36.85 27.7 -42.05 M17.55 -4.85 L-4.25 -4.85 -4.25 -14.45 9.1 -14.45 9.1 -20.85 26.55 -20.85 26.55 -14.45 17.55 -14.45 17.55 -4.85 M33.25 -17.35 L46.9 -17.35 46.9 -10.7 33.25 -10.7 33.25 -17.35 M43.1 -6.9 L57.95 -6.9 57.95 -0.5 43.1 -0.5 43.1 3.0 23.35 3.0 23.35 -7.5 43.1 -7.5 43.1 -6.9 M52.7 -14.15 L62.0 -14.15 62.0 -7.2 52.7 -7.2 52.7 -14.15 M77.15 -52.25 L77.15 -48.45 32.35 -48.45 32.35 -52.25 77.15 -52.25 M21.6 0.35 L21.6 4.75 12.0 4.75 12.0 0.35 21.6 0.35" fill="#ff0000" fill-rule="evenodd" stroke="none"/>
  </g>
</svg>
