<?xml version="1.0" encoding="UTF-8" standalone="no"?>
<svg xmlns:xlink="http://www.w3.org/1999/xlink" height="66.25px" width="82.85px" xmlns="http://www.w3.org/2000/svg">
  <g transform="matrix(1.0, 0.0, 0.0, 1.0, 6.0, 61.25)">
    <path d="M63.75 -49.9 L39.65 -49.9 39.65 -53.4 63.75 -53.4 63.75 -49.9 M52.7 -59.5 L33.55 -59.5 33.55 -61.25 52.7 -61.25 52.7 -59.5 M25.4 -56.3 L25.4 -54.55 4.75 -54.55 4.75 -56.3 25.4 -56.3 M33.8 -39.45 L58.8 -39.45 58.8 -36.55 33.8 -36.55 33.8 -39.45 M23.95 -40.9 L6.5 -40.9 6.5 -45.85 23.95 -45.85 23.95 -40.9 M25.95 -30.75 L-6.0 -30.75 -6.0 -34.8 25.95 -34.8 25.95 -30.75 M31.2 -46.15 L31.2 -47.0 61.75 -47.0 61.75 -42.35 31.2 -42.35 31.2 -45.85 29.75 -45.85 29.75 -46.15 31.2 -46.15 M19.85 -25.8 L19.85 -23.75 7.35 -23.75 7.35 -25.8 19.85 -25.8 M19.3 -7.75 L-2.25 -7.75 -2.25 -9.5 19.3 -9.5 19.3 -7.75 M29.45 -9.5 L66.65 -9.5 66.65 -4.3 29.45 -4.3 29.45 -9.5 M28.9 -31.6 L76.85 -31.6 76.85 -24.05 28.9 -24.05 28.9 -31.6 M49.25 -13.6 L-5.7 -13.6 -5.7 -19.7 49.25 -19.7 49.25 -13.6 M60.55 -17.95 L71.6 -17.95 71.6 -14.15 60.55 -14.15 60.55 -17.95 M57.35 -1.65 L57.35 5.0 0.95 5.0 0.95 -1.65 57.35 -1.65" fill="#ff0000" fill-rule="evenodd" stroke="none"/>
  </g>
</svg>
