<?xml version="1.0" encoding="UTF-8" standalone="no"?>
<svg xmlns:xlink="http://www.w3.org/1999/xlink" height="6.2px" width="194.35px" xmlns="http://www.w3.org/2000/svg">
  <g transform="matrix(1.0, 0.0, 0.0, 1.0, 0.0, 0.0)">
    <path d="M73.7 6.2 L45.95 6.2 41.9 6.2 0.0 6.2 0.0 0.0 41.9 0.0 45.95 0.0 73.7 0.0 73.7 6.2" fill="url(#gradient0)" fill-rule="evenodd" stroke="none"/>
    <path d="M168.55 0.0 L194.35 0.0 188.15 6.2 168.55 6.2 168.55 0.0" fill="url(#gradient1)" fill-rule="evenodd" stroke="none"/>
    <path d="M168.55 6.2 L164.8 6.2 119.65 6.2 115.6 6.2 94.85 6.2 73.7 6.2 73.7 0.0 94.85 0.0 115.6 0.0 119.65 0.0 164.8 0.0 168.55 0.0 168.55 6.2" fill="url(#gradient2)" fill-rule="evenodd" stroke="none"/>
  </g>
  <defs>
    <linearGradient gradientTransform="matrix(0.0, -0.0029, 0.0038, 0.0, 90.5, 3.0)" gradientUnits="userSpaceOnUse" id="gradient0" spreadMethod="pad" x1="-819.2" x2="819.2">
      <stop offset="0.0" stop-color="#ce0000"/>
      <stop offset="1.0" stop-color="#ff1717"/>
    </linearGradient>
    <linearGradient gradientTransform="matrix(0.0, -0.0029, 0.0038, 0.0, 160.45, 3.0)" gradientUnits="userSpaceOnUse" id="gradient1" spreadMethod="pad" x1="-819.2" x2="819.2">
      <stop offset="0.0" stop-color="#ce0000"/>
      <stop offset="1.0" stop-color="#ff1717"/>
    </linearGradient>
    <linearGradient gradientTransform="matrix(0.0, -0.0029, 0.0038, 0.0, 164.2, 3.0)" gradientUnits="userSpaceOnUse" id="gradient2" spreadMethod="pad" x1="-819.2" x2="819.2">
      <stop offset="0.0" stop-color="#ce0000"/>
      <stop offset="1.0" stop-color="#ff1717"/>
    </linearGradient>
  </defs>
</svg>
