<?xml version="1.0" encoding="UTF-8" standalone="no"?>
<svg xmlns:xlink="http://www.w3.org/1999/xlink" height="3.0px" width="133.45px" xmlns="http://www.w3.org/2000/svg">
  <g transform="matrix(1.0, 0.0, 0.0, 1.0, -37.95, -2.35)">
    <path d="M164.25 5.35 L159.0 5.35 159.0 2.35 164.25 2.35 164.25 5.35 M171.4 5.35 L166.15 5.35 166.15 2.35 171.4 2.35 171.4 5.35 M151.9 5.35 L151.9 2.35 157.15 2.35 157.15 5.35 151.9 5.35 M143.05 5.35 L137.8 5.35 137.8 2.35 143.05 2.35 143.05 5.35 M144.75 5.35 L144.75 2.35 150.0 2.35 150.0 5.35 144.75 5.35 M135.9 5.35 L130.65 5.35 130.65 2.35 135.9 2.35 135.9 5.35 M123.55 2.35 L128.8 2.35 128.8 5.35 123.55 5.35 123.55 2.35 M121.65 5.35 L116.4 5.35 116.4 2.35 121.65 2.35 121.65 5.35 M114.2 5.35 L108.95 5.35 108.95 2.35 114.2 2.35 114.2 5.35 M101.8 5.35 L101.8 2.35 107.05 2.35 107.05 5.35 101.8 5.35 M94.7 2.35 L99.95 2.35 99.95 5.35 94.7 5.35 94.7 2.35 M92.8 5.35 L87.55 5.35 87.55 2.35 92.8 2.35 92.8 5.35 M85.85 5.35 L80.6 5.35 80.6 2.35 85.85 2.35 85.85 5.35 M71.6 5.35 L66.35 5.35 66.35 2.35 71.6 2.35 71.6 5.35 M73.45 5.35 L73.45 2.35 78.7 2.35 78.7 5.35 73.45 5.35 M64.6 5.35 L59.35 5.35 59.35 2.35 64.6 2.35 64.6 5.35 M52.2 2.35 L57.45 2.35 57.45 5.35 52.2 5.35 52.2 2.35 M43.2 5.35 L37.95 5.35 37.95 2.35 43.2 2.35 43.2 5.35 M50.35 5.35 L45.1 5.35 45.1 2.35 50.35 2.35 50.35 5.35" fill="#e9961b" fill-rule="evenodd" stroke="none"/>
  </g>
</svg>
