<?xml version="1.0" encoding="UTF-8" standalone="no"?>
<svg xmlns:xlink="http://www.w3.org/1999/xlink" height="3.0px" width="40.75px" xmlns="http://www.w3.org/2000/svg">
  <g transform="matrix(1.0, 0.0, 0.0, 1.0, -130.65, -2.35)">
    <path d="M164.25 5.35 L159.0 5.35 159.0 2.35 164.25 2.35 164.25 5.35 M171.4 5.35 L166.15 5.35 166.15 2.35 171.4 2.35 171.4 5.35 M151.9 5.35 L151.9 2.35 157.15 2.35 157.15 5.35 151.9 5.35 M143.05 5.35 L137.8 5.35 137.8 2.35 143.05 2.35 143.05 5.35 M144.75 5.35 L144.75 2.35 150.0 2.35 150.0 5.35 144.75 5.35 M130.65 5.35 L130.65 2.35 135.9 2.35 135.9 5.35 130.65 5.35" fill="#e9961b" fill-rule="evenodd" stroke="none"/>
  </g>
</svg>
