<?xml version="1.0" encoding="UTF-8" standalone="no"?>
<svg xmlns:xlink="http://www.w3.org/1999/xlink" height="20.0px" width="16.85px" xmlns="http://www.w3.org/2000/svg">
  <g transform="matrix(1.0, 0.0, 0.0, 1.0, 0.0, 0.0)">
    <path d="M10.8 3.3 Q13.1 5.6 13.8 7.95 15.0 11.8 14.25 15.2 15.8 12.15 15.25 10.0 L16.25 11.6 16.8 13.6 Q17.05 15.75 15.75 17.35 14.9 18.35 13.5 19.0 L9.65 20.0 Q10.55 19.75 11.5 19.1 L12.85 17.55 Q13.45 16.1 12.0 13.35 L11.1 11.85 10.7 11.3 9.6 13.8 9.25 6.3 5.55 11.0 Q4.05 13.4 4.05 15.5 4.05 17.95 6.3 19.55 L6.7 19.85 6.85 19.9 6.5 19.85 Q3.5 19.1 1.85 17.25 0.05 15.25 0.0 13.8 0.0 12.95 0.25 12.3 L0.95 10.7 Q0.95 12.95 2.5 13.8 1.7 11.5 1.8 9.95 1.95 8.1 3.35 6.85 4.55 5.8 5.3 2.8 L5.75 0.0 Q8.5 1.05 10.8 3.3" fill="url(#gradient0)" fill-rule="evenodd" stroke="none"/>
  </g>
  <defs>
    <radialGradient cx="0" cy="0" gradientTransform="matrix(0.0135, 0.0, 0.0, 0.0135, 8.4, 10.0)" gradientUnits="userSpaceOnUse" id="gradient0" r="819.2" spreadMethod="pad">
      <stop offset="0.0" stop-color="#ffcc00"/>
      <stop offset="0.6862745098039216" stop-color="#ff6600"/>
    </radialGradient>
  </defs>
</svg>
