<?xml version="1.0" encoding="UTF-8" standalone="no"?>
<svg xmlns:xlink="http://www.w3.org/1999/xlink" height="19.9px" width="21.3px" xmlns="http://www.w3.org/2000/svg">
  <g transform="matrix(1.0, 0.0, 0.0, 1.0, 0.0, 0.0)">
    <path d="M10.65 6.0 Q9.5 6.0 8.35 6.65 L5.35 1.4 Q7.75 0.0 10.65 0.0 13.5 0.0 16.0 1.4 L13.0 6.65 Q11.85 6.0 10.65 6.0" fill="url(#gradient0)" fill-rule="evenodd" stroke="none"/>
    <path d="M6.05 10.65 Q6.05 11.9 6.7 13.0 7.35 14.1 8.4 14.7 L5.4 19.9 Q2.95 18.5 1.5 16.05 0.0 13.55 0.0 10.65 L6.05 10.65" fill="url(#gradient1)" fill-rule="evenodd" stroke="none"/>
    <path d="M10.65 8.3 Q11.65 8.3 12.3 9.0 13.0 9.7 13.0 10.65 13.0 11.6 12.3 12.25 11.6 12.95 10.65 12.95 9.7 12.95 9.05 12.25 8.35 11.6 8.35 10.65 8.35 9.7 9.05 9.0 9.7 8.3 10.65 8.3" fill="url(#gradient2)" fill-rule="evenodd" stroke="none"/>
    <path d="M21.3 10.65 Q21.3 13.55 19.8 16.05 18.4 18.5 15.9 19.9 L12.9 14.7 Q14.0 14.1 14.65 13.0 15.3 11.9 15.3 10.65 L21.3 10.65" fill="url(#gradient3)" fill-rule="evenodd" stroke="none"/>
  </g>
  <defs>
    <radialGradient cx="0" cy="0" gradientTransform="matrix(0.0074, 0.0, 0.0, 0.0074, 10.7, 3.35)" gradientUnits="userSpaceOnUse" id="gradient0" r="819.2" spreadMethod="pad">
      <stop offset="0.0" stop-color="#99ff00"/>
      <stop offset="1.0" stop-color="#669900"/>
    </radialGradient>
    <radialGradient cx="0" cy="0" gradientTransform="matrix(0.0076, 0.0, 0.0, 0.0076, 4.2, 15.3)" gradientUnits="userSpaceOnUse" id="gradient1" r="819.2" spreadMethod="pad">
      <stop offset="0.0" stop-color="#99ff00"/>
      <stop offset="1.0" stop-color="#669900"/>
    </radialGradient>
    <radialGradient cx="0" cy="0" gradientTransform="matrix(0.0037, 0.0, 0.0, 0.0037, 10.7, 10.65)" gradientUnits="userSpaceOnUse" id="gradient2" r="819.2" spreadMethod="pad">
      <stop offset="0.0" stop-color="#99ff00"/>
      <stop offset="1.0" stop-color="#669900"/>
    </radialGradient>
    <radialGradient cx="0" cy="0" gradientTransform="matrix(0.0076, 0.0, 0.0, 0.0076, 17.1, 15.3)" gradientUnits="userSpaceOnUse" id="gradient3" r="819.2" spreadMethod="pad">
      <stop offset="0.0" stop-color="#99ff00"/>
      <stop offset="1.0" stop-color="#669900"/>
    </radialGradient>
  </defs>
</svg>
