<?xml version="1.0" encoding="UTF-8" standalone="no"?>
<svg xmlns:xlink="http://www.w3.org/1999/xlink" height="12.3px" width="26.75px" xmlns="http://www.w3.org/2000/svg">
  <g transform="matrix(1.0, 0.0, 0.0, 1.0, 0.0, 0.0)">
    <path d="M26.25 2.2 Q26.75 2.2 26.75 3.45 L26.75 8.8 Q26.75 10.1 26.25 10.1 L20.5 10.1 Q20.0 10.1 20.0 8.8 L20.0 3.45 Q20.0 2.2 20.5 2.2 L26.25 2.2" fill="#1db2ea" fill-rule="evenodd" stroke="none"/>
    <path d="M22.4 2.0 L22.4 10.3 Q22.4 12.3 20.8 12.3 L1.5 12.3 Q0.0 12.3 0.0 10.3 L0.0 2.0 Q0.0 0.0 1.5 0.0 L20.8 0.0 Q22.4 0.0 22.4 2.0" fill="#1db2ea" fill-rule="evenodd" stroke="none"/>
    <path d="M20.7 3.25 L20.7 8.9 Q20.7 10.25 19.3 10.25 L2.95 10.25 Q1.7 10.25 1.7 8.9 L1.7 3.25 Q1.7 1.95 2.95 1.95 L19.3 1.95 Q20.7 1.95 20.7 3.25" fill="#000000" fill-rule="evenodd" stroke="none"/>
  </g>
</svg>
