<?xml version="1.0" encoding="UTF-8" standalone="no"?>
<svg xmlns:xlink="http://www.w3.org/1999/xlink" height="49.9px" width="49.95px" xmlns="http://www.w3.org/2000/svg">
  <g transform="matrix(1.0, 0.0, 0.0, 1.0, 25.0, 25.0)">
    <path d="M21.55 -12.5 Q25.75 -5.2 24.75 2.8 23.85 11.35 17.6 17.6 10.3 24.9 0.0 24.9 L-0.1 24.9 Q-10.4 24.9 -17.7 17.6 -21.3 14.0 -23.15 9.65 -25.0 5.25 -25.0 0.1 L-25.0 0.0 -25.0 -0.05 Q-25.0 -5.2 -23.15 -9.55 -21.4 -14.0 -17.7 -17.7 -10.4 -25.0 -0.05 -25.0 L-0.05 -0.2 6.35 -24.15 6.4 -24.15 Q16.4 -21.45 21.55 -12.5" fill="#9a1414" fill-rule="evenodd" stroke="none"/>
  </g>
</svg>
