<?xml version="1.0" encoding="UTF-8" standalone="no"?>
<svg xmlns:xlink="http://www.w3.org/1999/xlink" height="50.05px" width="50.0px" xmlns="http://www.w3.org/2000/svg">
  <g transform="matrix(1.0, 0.0, 0.0, 1.0, 25.0, 25.0)">
    <path d="M23.55 -8.0 Q25.85 -1.4 24.45 5.0 23.05 12.15 17.6 17.6 10.3 24.9 0.0 24.9 L-0.1 24.9 -0.1 25.05 Q-10.4 25.05 -17.7 17.75 -21.4 14.05 -23.15 9.65 -25.0 5.25 -25.0 0.1 L-25.0 0.0 -25.0 -0.05 Q-25.0 -5.2 -23.15 -9.55 -21.4 -14.0 -17.7 -17.7 -10.4 -25.0 -0.05 -25.0 L-0.05 -0.15 10.95 -22.4 11.0 -22.4 Q20.25 -17.8 23.55 -8.0" fill="#9a1414" fill-rule="evenodd" stroke="none"/>
  </g>
</svg>
