<?xml version="1.0" encoding="UTF-8" standalone="no"?>
<svg xmlns:xlink="http://www.w3.org/1999/xlink" height="49.9px" width="49.95px" xmlns="http://www.w3.org/2000/svg">
  <g transform="matrix(1.0, 0.0, 0.0, 1.0, 25.0, 25.0)">
    <path d="M24.7 -3.25 Q25.2 0.55 24.65 4.1 L23.7 7.95 22.1 11.6 Q20.35 14.85 17.6 17.6 10.3 24.9 0.0 24.9 L-0.1 24.9 Q-10.4 24.9 -17.7 17.6 -21.3 14.0 -23.15 9.65 -25.0 5.25 -25.0 0.1 L-25.0 0.0 -25.0 -0.05 Q-25.0 -5.2 -23.15 -9.55 -21.4 -14.0 -17.7 -17.7 -10.4 -25.0 -0.05 -25.0 L-0.05 -0.1 15.15 -19.85 15.2 -19.8 Q23.4 -13.5 24.7 -3.25" fill="#9a1414" fill-rule="evenodd" stroke="none"/>
  </g>
</svg>
