<?xml version="1.0" encoding="UTF-8" standalone="no"?>
<svg xmlns:xlink="http://www.w3.org/1999/xlink" height="49.9px" width="49.95px" xmlns="http://www.w3.org/2000/svg">
  <g transform="matrix(1.0, 0.0, 0.0, 1.0, 25.0, 25.0)">
    <path d="M20.65 -13.9 L20.7 -13.85 Q25.65 -6.45 24.85 2.1 L24.6 4.15 24.45 4.85 Q23.85 7.75 22.75 10.3 L20.6 14.15 Q18.25 17.55 14.7 20.15 8.35 24.9 0.0 24.9 L-0.1 24.9 Q-10.4 24.9 -17.7 17.6 -21.3 14.0 -23.15 9.65 -25.0 5.25 -25.0 0.1 L-25.0 0.0 -25.0 -0.05 Q-25.0 -5.2 -23.15 -9.55 -21.4 -14.0 -17.7 -17.7 -10.4 -25.0 -0.05 -25.0 L-0.05 -0.1 0.0 -0.1 20.65 -13.9" fill="#9a1414" fill-rule="evenodd" stroke="none"/>
  </g>
</svg>
