<?xml version="1.0" encoding="UTF-8" standalone="no"?>
<svg xmlns:xlink="http://www.w3.org/1999/xlink" height="49.9px" width="49.9px" xmlns="http://www.w3.org/2000/svg">
  <g transform="matrix(1.0, 0.0, 0.0, 1.0, 25.0, 25.0)">
    <path d="M24.9 -0.1 L24.9 -0.05 24.9 0.75 24.9 1.25 24.65 3.75 23.3 8.9 Q21.75 13.05 18.6 16.55 L17.85 17.35 17.6 17.6 17.35 17.85 17.15 18.1 Q15.55 19.6 13.8 20.8 L9.6 23.05 Q5.15 24.9 0.0 24.9 L-0.1 24.9 Q-10.4 24.9 -17.7 17.6 -21.3 14.0 -23.15 9.65 -25.0 5.25 -25.0 0.1 L-25.0 0.0 -25.0 -0.05 Q-25.0 -5.2 -23.15 -9.55 -21.4 -14.0 -17.7 -17.7 -10.4 -25.0 -0.05 -25.0 L-0.05 -0.1 24.35 -4.95 24.35 -4.9 24.9 -0.1" fill="#9a1414" fill-rule="evenodd" stroke="none"/>
  </g>
</svg>
