<?xml version="1.0" encoding="UTF-8" standalone="no"?>
<svg xmlns:xlink="http://www.w3.org/1999/xlink" height="49.9px" width="49.9px" xmlns="http://www.w3.org/2000/svg">
  <g transform="matrix(1.0, 0.0, 0.0, 1.0, 25.0, 25.0)">
    <path d="M24.85 -1.7 L24.8 2.6 22.95 9.85 20.0 14.85 17.6 17.6 Q14.35 20.9 10.35 22.75 6.35 24.55 1.6 24.85 L0.0 24.9 -0.1 24.9 Q-10.4 24.9 -17.7 17.6 -21.3 14.0 -23.15 9.65 -25.0 5.25 -25.0 0.1 L-25.0 0.0 -25.0 -0.05 Q-25.0 -5.2 -23.15 -9.55 -21.4 -14.0 -17.7 -17.7 -10.4 -25.0 -0.05 -25.0 L-0.05 -0.1 24.85 -1.75 24.85 -1.7" fill="#9a1414" fill-rule="evenodd" stroke="none"/>
  </g>
</svg>
