<?xml version="1.0" encoding="UTF-8" standalone="no"?>
<svg xmlns:xlink="http://www.w3.org/1999/xlink" height="50.0px" width="46.75px" xmlns="http://www.w3.org/2000/svg">
  <g transform="matrix(1.0, 0.0, 0.0, 1.0, 25.0, 25.0)">
    <path d="M-0.05 -0.05 L0.0 -0.05 0.0 0.0 21.75 11.95 21.75 12.0 Q16.75 21.05 6.85 23.95 3.3 24.95 -0.1 25.0 -3.55 25.0 -6.8 24.05 L-9.0 23.3 -12.15 21.85 Q-15.1 20.2 -17.7 17.6 -21.3 14.0 -23.15 9.65 -25.0 5.25 -25.0 0.1 L-25.0 0.0 -25.0 -0.05 Q-25.0 -5.2 -23.15 -9.55 -21.4 -14.0 -17.7 -17.7 -10.4 -25.0 -0.05 -25.0 L-0.05 -0.05" fill="#9a1414" fill-rule="evenodd" stroke="none"/>
  </g>
</svg>
