<?xml version="1.0" encoding="UTF-8" standalone="no"?>
<svg xmlns:xlink="http://www.w3.org/1999/xlink" height="49.9px" width="42.05px" xmlns="http://www.w3.org/2000/svg">
  <g transform="matrix(1.0, 0.0, 0.0, 1.0, 25.0, 25.0)">
    <path d="M-0.05 -0.05 L0.0 -0.1 17.05 18.1 17.0 18.15 Q9.75 24.9 0.0 24.9 L-0.1 24.9 -0.85 24.9 -1.35 24.9 -1.85 24.85 Q-6.45 24.5 -10.4 22.7 -14.4 20.9 -17.7 17.6 -21.3 14.0 -23.15 9.65 -25.0 5.25 -25.0 0.1 L-25.0 0.0 -25.0 -0.05 Q-25.0 -5.2 -23.15 -9.55 -21.4 -14.0 -17.7 -17.7 -10.4 -25.0 -0.05 -25.0 L-0.05 -0.05" fill="#9a1414" fill-rule="evenodd" stroke="none"/>
  </g>
</svg>
