<?xml version="1.0" encoding="UTF-8" standalone="no"?>
<svg xmlns:xlink="http://www.w3.org/1999/xlink" height="49.95px" width="39.55px" xmlns="http://www.w3.org/2000/svg">
  <g transform="matrix(1.0, 0.0, 0.0, 1.0, 25.0, 25.0)">
    <path d="M-23.15 -9.55 Q-21.4 -14.0 -17.7 -17.7 -10.4 -25.0 -0.05 -25.0 L-0.05 -0.05 0.0 -0.05 0.0 0.05 14.55 20.15 14.5 20.2 Q7.8 25.05 -0.1 24.95 L-2.95 24.75 -6.7 24.05 -9.3 23.2 Q-11.65 22.3 -13.7 20.95 -17.1 18.75 -19.7 15.4 L-20.3 14.6 -22.35 11.35 Q-25.0 6.25 -25.0 0.1 L-25.0 0.0 -25.0 -0.05 Q-25.0 -5.2 -23.15 -9.55" fill="#9a1414" fill-rule="evenodd" stroke="none"/>
  </g>
</svg>
