<?xml version="1.0" encoding="UTF-8" standalone="no"?>
<svg xmlns:xlink="http://www.w3.org/1999/xlink" height="49.95px" width="38.3px" xmlns="http://www.w3.org/2000/svg">
  <g transform="matrix(1.0, 0.0, 0.0, 1.0, 25.0, 25.0)">
    <path d="M-23.15 -9.55 Q-21.4 -14.0 -17.7 -17.7 -10.4 -25.0 -0.05 -25.0 L-0.05 -0.05 0.0 -0.05 0.0 0.05 13.3 21.0 13.25 21.05 Q6.95 25.05 -0.1 24.95 L-3.1 24.75 -4.3 24.55 -8.65 23.45 -11.5 22.2 Q-13.2 21.35 -14.7 20.2 -17.55 18.2 -19.75 15.35 L-22.05 11.95 Q-25.0 6.65 -25.0 0.1 L-25.0 0.0 -25.0 -0.05 Q-25.0 -5.2 -23.15 -9.55" fill="#9a1414" fill-rule="evenodd" stroke="none"/>
  </g>
</svg>
