<?xml version="1.0" encoding="UTF-8" standalone="no"?>
<svg xmlns:xlink="http://www.w3.org/1999/xlink" height="49.95px" width="35.6px" xmlns="http://www.w3.org/2000/svg">
  <g transform="matrix(1.0, 0.0, 0.0, 1.0, 25.0, 25.0)">
    <path d="M-23.15 -9.55 Q-21.4 -14.0 -17.7 -17.7 -10.4 -25.0 -0.05 -25.0 L-0.05 -0.05 0.0 -0.05 0.0 0.0 0.05 -0.05 10.6 22.5 10.55 22.5 Q5.3 25.0 -0.1 24.95 L-3.3 24.7 Q-9.05 24.0 -13.7 20.9 L-15.2 19.8 -16.5 18.75 -18.4 16.9 -18.8 16.45 Q-21.9 13.0 -23.45 8.9 -25.0 4.85 -25.0 0.1 L-25.0 0.0 -25.0 -0.05 Q-25.0 -5.2 -23.15 -9.55" fill="#9a1414" fill-rule="evenodd" stroke="none"/>
  </g>
</svg>
