<?xml version="1.0" encoding="UTF-8" standalone="no"?>
<svg xmlns:xlink="http://www.w3.org/1999/xlink" height="49.95px" width="32.65px" xmlns="http://www.w3.org/2000/svg">
  <g transform="matrix(1.0, 0.0, 0.0, 1.0, 25.0, 25.0)">
    <path d="M-23.15 -9.55 Q-21.4 -14.0 -17.7 -17.7 -10.4 -25.0 -0.05 -25.0 L-0.05 -0.05 0.0 -0.1 7.65 23.65 7.6 23.65 Q3.7 24.9 -0.1 24.95 L-4.6 24.55 Q-10.6 23.5 -15.4 19.65 L-16.55 18.7 -17.4 17.9 -19.0 16.25 -20.15 14.8 -21.25 13.15 Q-22.85 10.7 -23.8 7.95 -25.0 4.25 -25.0 0.1 L-25.0 0.0 -25.0 -0.05 Q-25.0 -5.2 -23.15 -9.55" fill="#9a1414" fill-rule="evenodd" stroke="none"/>
  </g>
</svg>
