<?xml version="1.0" encoding="UTF-8" standalone="no"?>
<svg xmlns:xlink="http://www.w3.org/1999/xlink" height="49.9px" width="29.65px" xmlns="http://www.w3.org/2000/svg">
  <g transform="matrix(1.0, 0.0, 0.0, 1.0, 25.0, 25.0)">
    <path d="M-23.15 -9.55 Q-21.4 -14.0 -17.7 -17.7 -10.4 -25.0 -0.05 -25.0 L-0.05 -0.05 0.0 -0.1 4.65 24.4 4.6 24.4 0.0 24.9 -0.1 24.9 -4.7 24.5 Q-7.2 24.05 -9.5 23.1 -13.7 21.4 -17.2 18.1 L-19.55 15.6 -21.1 13.45 -23.25 9.3 Q-24.1 7.15 -24.55 4.9 L-25.0 0.1 -25.0 0.0 -25.0 -0.05 Q-25.0 -5.2 -23.15 -9.55" fill="#9a1414" fill-rule="evenodd" stroke="none"/>
  </g>
</svg>
