<?xml version="1.0" encoding="UTF-8" standalone="no"?>
<svg xmlns:xlink="http://www.w3.org/1999/xlink" height="49.9px" width="26.55px" xmlns="http://www.w3.org/2000/svg">
  <g transform="matrix(1.0, 0.0, 0.0, 1.0, 25.0, 25.0)">
    <path d="M-23.15 -9.55 Q-21.4 -14.0 -17.7 -17.7 -10.4 -25.0 -0.05 -25.0 L-0.05 -0.05 0.0 -0.05 1.55 24.85 1.5 24.85 0.0 24.9 -0.1 24.9 Q-4.8 24.95 -8.95 23.35 -12.05 22.2 -14.75 20.15 L-17.7 17.6 -17.85 17.45 -18.75 16.5 Q-20.8 14.2 -22.2 11.65 L-22.85 10.3 -23.4 9.0 Q-25.0 4.85 -25.0 0.1 L-25.0 0.0 -25.0 -0.05 Q-25.0 -5.2 -23.15 -9.55" fill="#9a1414" fill-rule="evenodd" stroke="none"/>
  </g>
</svg>
