<?xml version="1.0" encoding="UTF-8" standalone="no"?>
<svg xmlns:xlink="http://www.w3.org/1999/xlink" height="110.85px" width="295.85px" xmlns="http://www.w3.org/2000/svg">
  <g transform="matrix(1.0, 0.0, 0.0, 1.0, 1.7, -12.35)">
    <path d="M218.35 24.15 L140.9 24.2 Q112.35 24.35 60.05 24.0 L-0.05 23.5 146.2 23.5 294.1 23.45 Q267.25 24.15 218.35 24.15" fill="url(#gradient0)" fill-rule="evenodd" stroke="none"/>
    <path d="M294.05 117.65 L287.35 122.65 -1.7 122.65 -1.7 17.4 5.0 12.35 294.05 12.35 294.05 117.65" fill="url(#gradient1)" fill-rule="evenodd" stroke="none"/>
    <path d="M294.1 117.25 L294.15 118.55 287.9 123.0 -1.7 123.2 -1.65 122.3 287.35 122.3 294.1 117.25" fill="url(#gradient2)" fill-rule="evenodd" stroke="none"/>
    <path d="M-1.65 90.85 L-1.65 35.3 293.85 35.3 293.85 90.85 -1.65 90.85" fill="#000000" fill-rule="evenodd" stroke="none"/>
    <path d="M-1.65 90.85 L-1.65 36.1 293.85 36.1 293.85 90.85 -1.65 90.85" fill="url(#gradient3)" fill-rule="evenodd" stroke="none"/>
  </g>
  <defs>
    <radialGradient cx="0" cy="0" gradientTransform="matrix(0.1813, 0.0, 0.0, 0.1367, 147.05, 23.85)" gradientUnits="userSpaceOnUse" id="gradient0" r="819.2" spreadMethod="pad">
      <stop offset="0.0" stop-color="#ff0000"/>
      <stop offset="1.0" stop-color="#ff0000" stop-opacity="0.0"/>
    </radialGradient>
    <linearGradient gradientTransform="matrix(0.0, 0.1908, 0.253, 0.0, 152.65, 71.45)" gradientUnits="userSpaceOnUse" id="gradient1" spreadMethod="pad" x1="-819.2" x2="819.2">
      <stop offset="0.0" stop-color="#cc0000"/>
      <stop offset="0.1843137254901961" stop-color="#660000"/>
      <stop offset="0.6039215686274509" stop-color="#000000"/>
      <stop offset="0.8196078431372549" stop-color="#000000"/>
    </linearGradient>
    <radialGradient cx="0" cy="0" gradientTransform="matrix(0.1277, 0.0, 0.0, -0.0963, 146.15, 120.0)" gradientUnits="userSpaceOnUse" id="gradient2" r="819.2" spreadMethod="pad">
      <stop offset="0.1607843137254902" stop-color="#cc0000"/>
      <stop offset="1.0" stop-color="#660000"/>
    </radialGradient>
    <linearGradient gradientTransform="matrix(0.0, 0.035, 0.0778, 0.0, 145.65, 52.35)" gradientUnits="userSpaceOnUse" id="gradient3" spreadMethod="pad" x1="-819.2" x2="819.2">
      <stop offset="0.0" stop-color="#330000"/>
      <stop offset="1.0" stop-color="#000000"/>
    </linearGradient>
  </defs>
</svg>
