<?xml version="1.0" encoding="UTF-8" standalone="no"?>
<svg xmlns:xlink="http://www.w3.org/1999/xlink" height="92.6px" width="575.1px" xmlns="http://www.w3.org/2000/svg">
  <g transform="matrix(1.0, 0.0, 0.0, 1.0, 0.0, -0.05)">
    <path d="M575.1 0.05 L575.1 0.7 0.0 0.7 0.0 0.05 575.1 0.05" fill="#292929" fill-rule="evenodd" stroke="none"/>
    <path d="M575.1 3.05 L575.1 3.65 0.0 3.65 0.0 3.05 575.1 3.05" fill="#292929" fill-rule="evenodd" stroke="none"/>
    <path d="M575.1 6.0 L575.1 6.6 0.0 6.6 0.0 6.0 575.1 6.0" fill="#292929" fill-rule="evenodd" stroke="none"/>
    <path d="M575.1 9.0 L575.1 9.6 0.0 9.6 0.0 9.0 575.1 9.0" fill="#292929" fill-rule="evenodd" stroke="none"/>
    <path d="M575.1 11.95 L575.1 12.55 0.0 12.55 0.0 11.95 575.1 11.95" fill="#292929" fill-rule="evenodd" stroke="none"/>
    <path d="M575.1 14.95 L575.1 15.5 0.0 15.5 0.0 14.95 575.1 14.95" fill="#292929" fill-rule="evenodd" stroke="none"/>
    <path d="M0.0 18.45 L0.0 17.9 575.1 17.9 575.1 18.45 0.0 18.45" fill="#292929" fill-rule="evenodd" stroke="none"/>
    <path d="M0.0 21.45 L0.0 20.85 575.1 20.85 575.1 21.45 0.0 21.45" fill="#292929" fill-rule="evenodd" stroke="none"/>
    <path d="M0.0 24.4 L0.0 23.8 575.1 23.8 575.1 24.4 0.0 24.4" fill="#292929" fill-rule="evenodd" stroke="none"/>
    <path d="M0.0 27.4 L0.0 26.75 575.1 26.75 575.1 27.4 0.0 27.4" fill="#292929" fill-rule="evenodd" stroke="none"/>
    <path d="M0.0 30.35 L0.0 29.75 575.1 29.75 575.1 30.35 0.0 30.35" fill="#292929" fill-rule="evenodd" stroke="none"/>
    <path d="M0.0 33.35 L0.0 32.7 575.1 32.7 575.1 33.35 0.0 33.35" fill="#292929" fill-rule="evenodd" stroke="none"/>
    <path d="M0.0 36.3 L0.0 35.7 575.1 35.7 575.1 36.3 0.0 36.3" fill="#292929" fill-rule="evenodd" stroke="none"/>
    <path d="M0.0 39.25 L0.0 38.65 575.1 38.65 575.1 39.25 0.0 39.25" fill="#292929" fill-rule="evenodd" stroke="none"/>
    <path d="M0.0 42.2 L0.0 41.65 575.1 41.65 575.1 42.2 0.0 42.2" fill="#292929" fill-rule="evenodd" stroke="none"/>
    <path d="M0.0 45.15 L0.0 44.6 575.1 44.6 575.1 45.15 0.0 45.15" fill="#292929" fill-rule="evenodd" stroke="none"/>
    <path d="M0.0 48.15 L0.0 47.55 575.1 47.55 575.1 48.15 0.0 48.15" fill="#292929" fill-rule="evenodd" stroke="none"/>
    <path d="M0.0 51.1 L0.0 50.5 575.1 50.5 575.1 51.1 0.0 51.1" fill="#292929" fill-rule="evenodd" stroke="none"/>
    <path d="M0.0 54.1 L0.0 53.5 575.1 53.5 575.1 54.1 0.0 54.1" fill="#292929" fill-rule="evenodd" stroke="none"/>
    <path d="M0.0 57.05 L0.0 56.45 575.1 56.45 575.1 57.05 0.0 57.05" fill="#292929" fill-rule="evenodd" stroke="none"/>
    <path d="M0.0 60.05 L0.0 59.4 575.1 59.4 575.1 60.05 0.0 60.05" fill="#292929" fill-rule="evenodd" stroke="none"/>
    <path d="M0.0 63.0 L0.0 62.4 575.1 62.4 575.1 63.0 0.0 63.0" fill="#292929" fill-rule="evenodd" stroke="none"/>
    <path d="M0.0 65.95 L0.0 65.35 575.1 65.35 575.1 65.95 0.0 65.95" fill="#292929" fill-rule="evenodd" stroke="none"/>
    <path d="M0.0 68.9 L0.0 68.35 575.1 68.35 575.1 68.9 0.0 68.9" fill="#292929" fill-rule="evenodd" stroke="none"/>
    <path d="M0.0 71.85 L0.0 71.3 575.1 71.3 575.1 71.85 0.0 71.85" fill="#292929" fill-rule="evenodd" stroke="none"/>
    <path d="M0.0 74.85 L0.0 74.25 575.1 74.25 575.1 74.85 0.0 74.85" fill="#292929" fill-rule="evenodd" stroke="none"/>
    <path d="M0.0 77.8 L0.0 77.2 575.1 77.2 575.1 77.8 0.0 77.8" fill="#292929" fill-rule="evenodd" stroke="none"/>
    <path d="M0.0 80.8 L0.0 80.2 575.1 80.2 575.1 80.8 0.0 80.8" fill="#292929" fill-rule="evenodd" stroke="none"/>
    <path d="M0.0 83.75 L0.0 83.15 575.1 83.15 575.1 83.75 0.0 83.75" fill="#292929" fill-rule="evenodd" stroke="none"/>
    <path d="M0.0 86.75 L0.0 86.1 575.1 86.1 575.1 86.75 0.0 86.75" fill="#292929" fill-rule="evenodd" stroke="none"/>
    <path d="M0.0 89.7 L0.0 89.1 575.1 89.1 575.1 89.7 0.0 89.7" fill="#292929" fill-rule="evenodd" stroke="none"/>
    <path d="M0.0 92.65 L0.0 92.05 575.1 92.05 575.1 92.65 0.0 92.65" fill="#292929" fill-rule="evenodd" stroke="none"/>
  </g>
</svg>
