<?xml version="1.0" encoding="UTF-8" standalone="no"?>
<svg xmlns:xlink="http://www.w3.org/1999/xlink" height="17.1px" width="13.25px" xmlns="http://www.w3.org/2000/svg">
  <g transform="matrix(1.0, 0.0, 0.0, 1.0, -74.85, 0.15)">
    <path d="M81.75 1.65 Q84.3 1.75 86.15 3.6 88.1 5.55 88.1 8.3 88.1 11.05 86.15 12.95 L86.15 13.0 Q84.3 14.85 81.75 14.9 L81.05 14.95 81.0 13.5 81.7 13.45 Q83.65 13.4 85.1 11.95 86.65 10.4 86.65 8.3 86.65 6.1 85.1 4.6 83.7 3.2 81.7 3.1 L81.0 3.1 81.05 1.65 81.75 1.65" fill="url(#gradient0)" fill-rule="evenodd" stroke="none"/>
    <path d="M81.7 13.55 L81.55 14.95 80.8 14.9 Q78.45 14.65 76.75 12.95 74.85 11.05 74.85 8.3 74.85 5.55 76.75 3.6 78.45 1.9 80.85 1.7 L81.55 1.65 81.7 3.1 80.95 3.15 Q79.1 3.3 77.8 4.6 L77.8 4.65 Q76.3 6.15 76.3 8.3 76.3 10.45 77.8 11.95 79.1 13.25 80.95 13.45 L81.7 13.55" fill="url(#gradient1)" fill-rule="evenodd" stroke="none"/>
    <path d="M83.0 2.55 L79.65 5.3 79.65 -0.15 83.0 2.55 M83.0 11.45 L83.0 16.95 79.65 14.2 83.0 11.45" fill="#ffffff" fill-rule="evenodd" stroke="none"/>
  </g>
  <defs>
    <linearGradient gradientTransform="matrix(-0.0011, 0.0065, -0.008, -0.0013, 84.6, 8.3)" gradientUnits="userSpaceOnUse" id="gradient0" spreadMethod="pad" x1="-819.2" x2="819.2">
      <stop offset="0.0" stop-color="#ffffff" stop-opacity="0.0"/>
      <stop offset="1.0" stop-color="#ffffff"/>
    </linearGradient>
    <linearGradient gradientTransform="matrix(0.0021, -0.0054, 0.0076, 0.0029, 78.25, 8.3)" gradientUnits="userSpaceOnUse" id="gradient1" spreadMethod="pad" x1="-819.2" x2="819.2">
      <stop offset="0.0" stop-color="#ffffff" stop-opacity="0.0"/>
      <stop offset="1.0" stop-color="#ffffff"/>
    </linearGradient>
  </defs>
</svg>
