<?xml version="1.0" encoding="UTF-8" standalone="no"?>
<svg xmlns:xlink="http://www.w3.org/1999/xlink" height="60.2px" width="23.55px" xmlns="http://www.w3.org/2000/svg">
  <g transform="matrix(1.0, 0.0, 0.0, 1.0, 0.0, 3.55)">
    <path d="M9.35 -3.35 Q12.05 -3.3 14.45 -3.4 L15.8 2.95 16.2 5.5 9.05 6.0 3.65 5.9 4.05 3.45 4.85 -3.55 9.35 -3.35 M0.0 23.0 L8.95 23.15 11.8 15.0 12.7 17.85 14.35 23.3 23.55 22.8 16.2 28.75 19.05 37.1 11.5 31.7 4.0 37.3 6.7 28.7 0.0 23.0 M14.75 51.9 L14.65 56.65 13.1 56.45 6.3 56.45 5.55 56.55 5.1 52.3 5.05 50.3 10.6 49.9 11.75 49.9 14.85 50.0 14.75 51.9" fill="#ffffff" fill-opacity="0.9882353" fill-rule="evenodd" stroke="none"/>
  </g>
</svg>
