<?xml version="1.0" encoding="UTF-8" standalone="no"?>
<svg xmlns:xlink="http://www.w3.org/1999/xlink" height="93.2px" width="224.9px" xmlns="http://www.w3.org/2000/svg">
  <g transform="matrix(1.0, 0.0, 0.0, 1.0, -1.75, -1.75)">
    <path d="M84.45 3.75 L93.55 12.9 85.2 23.2 74.0 12.0 84.45 3.75 M93.25 84.55 L84.25 93.35 73.9 85.0 85.2 74.0 93.25 84.55 M3.85 12.6 L12.9 3.55 23.4 12.0 12.1 23.1 3.85 12.6 M12.5 93.35 L3.45 84.15 12.1 73.7 23.1 85.0 12.5 93.35" fill="#434343" fill-rule="evenodd" stroke="none"/>
    <path d="M104.25 20.3 L117.2 21.0 117.65 21.0 128.7 33.1 110.25 33.9 106.55 25.5 104.25 20.3" fill="#383838" fill-rule="evenodd" stroke="none"/>
    <path d="M104.25 75.4 L110.25 61.8 128.7 62.6 117.65 74.6 104.25 75.4" fill="#2a2a2a" fill-rule="evenodd" stroke="none"/>
    <path d="M77.1 84.9 Q69.05 91.5 59.2 93.75 54.05 94.95 48.4 94.95 29.15 94.95 15.35 81.15 1.75 67.65 1.75 48.4 1.75 29.15 15.35 15.35 29.15 1.75 48.4 1.75 67.65 1.75 81.15 15.35 94.95 29.15 94.95 48.4 L94.95 48.55 74.05 50.9 Q63.55 52.15 59.05 53.45 57.1 54.0 55.6 54.75 L65.35 68.7 Q69.65 74.9 77.1 84.9" fill="#2c2c2c" fill-rule="evenodd" stroke="none"/>
    <path d="M94.95 48.55 Q94.9 67.7 81.15 81.15 L77.1 84.9 Q69.65 74.9 65.35 68.7 L55.6 54.75 Q57.1 54.0 59.05 53.45 63.55 52.15 74.05 50.9 L94.95 48.55" fill="url(#gradient0)" fill-rule="evenodd" stroke="none"/>
    <path d="M75.15 20.0 Q65.9 10.7 53.6 8.9 L53.55 3.95 Q67.8 5.75 78.4 16.15 91.45 29.05 91.55 47.35 91.7 65.65 78.85 78.6 68.8 88.85 55.1 92.25 L54.1 92.35 54.15 86.45 Q66.45 84.55 75.55 75.35 86.7 63.7 86.6 47.45 L86.6 47.35 Q86.45 31.2 75.15 20.0 M73.2 72.8 Q62.75 83.4 47.8 83.55 L47.7 83.55 Q32.8 83.65 22.4 73.15 14.85 65.9 12.5 56.45 12.35 56.25 12.35 55.9 L17.35 55.9 18.05 56.0 Q19.7 63.9 25.8 69.7 34.8 78.55 47.6 78.45 60.6 78.35 69.8 69.4 75.55 63.5 77.55 56.0 L77.8 55.45 82.7 55.4 82.6 55.95 Q80.45 65.45 73.2 72.8 M22.0 22.15 Q32.3 11.8 47.15 11.7 L47.3 11.7 Q62.25 11.55 72.85 21.85 81.05 30.0 83.0 40.9 L78.0 40.95 Q76.3 32.0 69.45 25.3 60.15 16.4 47.15 16.55 34.35 16.65 25.45 25.6 18.5 32.45 16.85 41.4 L12.9 42.4 11.75 42.3 11.85 41.4 Q13.65 30.5 22.0 22.15 M20.05 75.75 Q28.4 83.95 39.1 86.1 L39.65 86.2 40.65 86.45 39.7 91.1 39.15 91.0 Q26.3 88.75 16.5 79.05 3.5 66.25 3.35 48.0 3.25 29.65 16.05 16.65 25.75 6.8 38.5 4.35 L39.05 4.2 39.1 9.3 38.55 9.4 Q27.8 11.85 19.65 20.4 8.2 31.75 8.3 47.95 L8.3 48.05 Q8.4 64.3 20.05 75.75" fill="#1e1e1e" fill-rule="evenodd" stroke="none"/>
    <path d="M76.15 21.0 Q66.9 11.7 54.6 9.9 L54.55 4.95 Q68.8 6.75 79.4 17.15 92.45 30.05 92.55 48.35 92.7 66.65 79.85 79.6 69.4 90.25 55.2 92.3 L55.15 87.45 Q67.45 85.55 76.55 76.35 87.7 64.7 87.6 48.45 L87.6 48.35 Q87.45 32.2 76.15 21.0 M74.2 73.8 Q63.75 84.4 48.8 84.55 L48.7 84.55 Q33.8 84.65 23.4 74.15 15.85 66.9 13.5 57.45 13.35 57.25 13.35 56.9 L18.35 56.9 18.5 57.45 Q20.7 64.9 26.8 70.7 35.8 79.55 48.6 79.45 61.6 79.35 70.8 70.4 76.55 64.5 78.55 57.0 L78.8 56.45 83.7 56.4 83.6 56.95 Q81.45 66.45 74.2 73.8 M23.0 23.15 Q33.3 12.8 48.15 12.7 L48.3 12.7 Q63.25 12.55 73.85 22.85 82.05 31.0 84.0 41.9 L79.0 41.95 Q77.3 33.0 70.45 26.3 61.15 17.4 48.15 17.55 35.35 17.65 26.45 26.6 19.5 33.45 17.85 42.4 L12.85 42.4 Q14.65 31.5 23.0 23.15 M21.05 76.75 Q29.4 84.95 40.1 87.1 L40.65 87.2 40.7 92.1 40.15 92.0 Q27.3 89.75 17.5 80.05 4.5 67.25 4.35 49.0 4.25 30.65 17.05 17.65 26.75 7.8 39.5 5.35 L40.05 5.2 40.1 10.3 39.55 10.4 Q28.8 12.85 20.65 21.4 9.2 32.75 9.3 48.95 L9.3 49.05 Q9.4 65.3 21.05 76.75" fill="#7e7e7e" fill-rule="evenodd" stroke="none"/>
    <path d="M13.15 57.9 L12.05 57.95 Q8.7 57.95 6.35 55.6 4.0 53.3 4.0 49.95 4.0 46.6 6.35 44.25 8.7 41.95 12.05 41.95 15.35 41.95 17.7 44.25 18.75 45.3 19.35 46.55 18.0 45.85 16.35 45.85 13.65 45.85 11.75 47.7 9.9 49.6 9.9 52.25 9.9 54.95 11.75 56.8 L13.15 57.9" fill="#1c1c1c" fill-rule="evenodd" stroke="none"/>
    <path d="M19.35 46.55 Q20.05 48.1 20.05 49.95 20.05 53.3 17.7 55.6 15.75 57.55 13.15 57.9 L11.75 56.8 Q9.9 54.95 9.9 52.25 9.9 49.6 11.75 47.7 13.65 45.85 16.35 45.85 18.0 45.85 19.35 46.55" fill="#000000" fill-rule="evenodd" stroke="none"/>
    <path d="M13.15 57.9 L12.05 57.95 Q8.7 57.95 6.35 55.6 4.0 53.3 4.0 49.95 4.0 46.6 6.35 44.25 8.7 41.95 12.05 41.95 15.35 41.95 17.7 44.25 18.75 45.3 19.35 46.55 20.05 48.1 20.05 49.95 20.05 53.3 17.7 55.6 15.75 57.55 13.15 57.9 Z" fill="none" stroke="#808080" stroke-linecap="round" stroke-linejoin="round" stroke-width="4.0"/>
    <path d="M94.95 48.4 L94.95 48.55 Q94.9 67.7 81.15 81.15 L77.1 84.9 Q69.05 91.5 59.2 93.75 54.05 94.95 48.4 94.95 29.15 94.95 15.35 81.15 1.75 67.65 1.75 48.4 1.75 29.15 15.35 15.35 29.15 1.75 48.4 1.75 67.65 1.75 81.15 15.35 94.95 29.15 94.95 48.4" fill="url(#gradient1)" fill-rule="evenodd" stroke="none"/>
    <path d="M78.75 48.7 Q78.75 61.75 69.5 70.95 60.3 80.2 47.25 80.2 34.2 80.2 24.95 70.95 15.75 61.75 15.75 48.7 15.75 35.65 24.95 26.4 34.2 17.2 47.25 17.2 60.3 17.2 69.5 26.4 78.75 35.65 78.75 48.7" fill="url(#gradient2)" fill-rule="evenodd" stroke="none"/>
    <path d="M226.65 51.7 L226.65 56.75 207.95 56.75 207.95 52.75 194.5 52.75 194.5 56.75 175.9 56.75 175.9 52.75 173.95 52.75 162.4 52.75 162.4 56.75 125.8 56.75 125.8 38.8 134.05 38.8 135.2 38.8 160.45 38.8 162.4 38.8 162.4 42.95 175.9 42.95 175.9 38.8 194.5 38.8 194.5 42.95 207.95 42.95 207.95 38.8 226.65 38.8 226.65 44.05 136.75 44.05 132.75 44.05 132.75 51.7 137.75 51.7 226.65 51.7" fill="#8e8e8e" fill-rule="evenodd" stroke="none"/>
    <path d="M226.65 45.65 L226.65 49.65 137.2 49.65 137.75 51.7 132.75 51.7 132.75 44.05 136.75 44.05 137.2 45.65 226.65 45.65" fill="#9f9f9f" fill-rule="evenodd" stroke="none"/>
    <path d="M226.65 44.05 L226.65 45.65 137.2 45.65 136.75 44.05 226.65 44.05" fill="url(#gradient3)" fill-rule="evenodd" stroke="none"/>
    <path d="M226.65 49.65 L226.65 51.7 137.75 51.7 137.2 49.65 226.65 49.65" fill="#696969" fill-rule="evenodd" stroke="none"/>
    <path d="M67.45 32.35 L134.15 32.35 137.2 37.4 67.35 37.4 65.35 37.05 67.45 32.35" fill="url(#gradient4)" fill-rule="evenodd" stroke="none"/>
    <path d="M24.95 40.15 Q26.7 35.05 30.85 30.85 38.2 23.6 48.4 23.6 58.7 23.6 65.85 30.85 L67.35 32.35 67.45 32.35 65.35 37.05 65.25 37.0 Q64.2 36.5 63.5 35.6 L62.4 34.4 Q56.65 28.65 48.4 28.65 40.15 28.65 34.4 34.4 31.1 37.7 29.7 41.85 L24.95 40.15" fill="url(#gradient5)" fill-rule="evenodd" stroke="none"/>
    <path d="M68.7 63.2 L68.35 63.2 65.85 65.85 Q58.7 73.2 48.4 73.2 38.2 73.2 30.85 65.85 23.6 58.7 23.6 48.4 23.6 44.0 24.95 40.15 L29.7 41.85 Q28.65 44.9 28.65 48.4 28.65 56.65 34.4 62.4 40.15 68.25 48.4 68.25 56.65 68.25 62.3 62.4 L62.4 62.4 64.5 60.1 Q65.2 59.3 66.05 58.8 L68.7 63.2" fill="#252525" fill-rule="evenodd" stroke="none"/>
    <path d="M143.75 58.65 L142.1 63.2 68.7 63.2 66.05 58.8 66.25 58.7 Q67.15 58.25 68.35 58.25 L143.75 58.65" fill="#151515" fill-rule="evenodd" stroke="none"/>
    <path d="M137.2 37.4 L143.75 58.65 68.35 58.25 Q67.15 58.25 66.25 58.7 L66.05 58.8 Q65.2 59.3 64.5 60.1 L62.4 62.4 62.3 62.4 Q56.65 68.25 48.4 68.25 40.15 68.25 34.4 62.4 28.65 56.65 28.65 48.4 28.65 44.9 29.7 41.85 31.1 37.7 34.4 34.4 40.15 28.65 48.4 28.65 56.65 28.65 62.4 34.4 L63.5 35.6 Q64.2 36.5 65.25 37.0 L65.35 37.05 67.35 37.4 137.2 37.4" fill="url(#gradient6)" fill-rule="evenodd" stroke="none"/>
  </g>
  <defs>
    <radialGradient cx="0" cy="0" fx="614.4000000000001" fy="0" gradientTransform="matrix(-0.0099, 0.038, -0.038, -0.0099, 72.0, 74.5)" gradientUnits="userSpaceOnUse" id="gradient0" r="819.2" spreadMethod="pad">
      <stop offset="0.5529411764705883" stop-color="#2a2a2a"/>
      <stop offset="0.9254901960784314" stop-color="#0b0b0b"/>
    </radialGradient>
    <linearGradient gradientTransform="matrix(0.0065, -0.0565, 0.0565, 0.0065, 49.65, 44.85)" gradientUnits="userSpaceOnUse" id="gradient1" spreadMethod="pad" x1="-819.2" x2="819.2">
      <stop offset="0.0" stop-color="#000000" stop-opacity="0.0"/>
      <stop offset="0.29411764705882354" stop-color="#000000" stop-opacity="0.25882354"/>
      <stop offset="1.0" stop-color="#ffffff" stop-opacity="0.0"/>
    </linearGradient>
    <radialGradient cx="0" cy="0" gradientTransform="matrix(0.039, 0.0, 0.0, 0.039, 47.25, 48.7)" gradientUnits="userSpaceOnUse" id="gradient2" r="819.2" spreadMethod="pad">
      <stop offset="0.5529411764705883" stop-color="#000000"/>
      <stop offset="0.9254901960784314" stop-color="#000000" stop-opacity="0.0"/>
    </radialGradient>
    <linearGradient gradientTransform="matrix(-1.0E-4, 0.0107, -0.001, 0.0, 182.4, 50.5)" gradientUnits="userSpaceOnUse" id="gradient3" spreadMethod="pad" x1="-819.2" x2="819.2">
      <stop offset="0.07450980392156863" stop-color="#d7d7d7"/>
      <stop offset="1.0" stop-color="#444444"/>
    </linearGradient>
    <linearGradient gradientTransform="matrix(-9.0E-4, 0.0175, -0.0413, -0.0022, 99.55, 29.1)" gradientUnits="userSpaceOnUse" id="gradient4" spreadMethod="pad" x1="-819.2" x2="819.2">
      <stop offset="0.23137254901960785" stop-color="#2e2e2e"/>
      <stop offset="1.0" stop-color="#7b7b7b"/>
    </linearGradient>
    <linearGradient gradientTransform="matrix(0.0159, 0.0113, -0.015, 0.0211, 57.15, 29.35)" gradientUnits="userSpaceOnUse" id="gradient5" spreadMethod="pad" x1="-819.2" x2="819.2">
      <stop offset="0.0392156862745098" stop-color="#272727"/>
      <stop offset="0.611764705882353" stop-color="#777777"/>
      <stop offset="1.0" stop-color="#444444"/>
    </linearGradient>
    <linearGradient gradientTransform="matrix(-0.009, 0.0373, -0.0235, -0.0057, 87.45, 53.35)" gradientUnits="userSpaceOnUse" id="gradient6" spreadMethod="pad" x1="-819.2" x2="819.2">
      <stop offset="0.0" stop-color="#1e1e1e"/>
      <stop offset="0.3686274509803922" stop-color="#252525"/>
      <stop offset="1.0" stop-color="#121212"/>
    </linearGradient>
  </defs>
</svg>
