<?xml version="1.0" encoding="UTF-8" standalone="no"?>
<svg xmlns:xlink="http://www.w3.org/1999/xlink" height="29.5px" width="31.35px" xmlns="http://www.w3.org/2000/svg">
  <g transform="matrix(1.0, 0.0, 0.0, 1.0, 0.8, -0.9)">
    <path d="M18.4 30.4 L18.25 29.65 18.25 24.3 18.5 24.25 Q20.55 23.55 22.15 21.8 24.65 19.0 24.45 15.15 24.35 11.35 21.6 8.9 20.2 7.55 18.5 6.95 L18.25 6.85 18.25 0.9 18.5 0.95 Q22.5 1.65 25.7 4.6 30.3 8.75 30.55 15.0 30.85 21.15 26.65 25.7 23.25 29.5 18.5 30.4 L18.4 30.4 M3.1 25.7 Q-1.1 21.15 -0.75 15.0 -0.55 8.75 4.05 4.6 7.25 1.65 11.25 0.95 L11.25 6.95 Q9.6 7.55 8.2 8.9 5.4 11.35 5.25 15.15 5.05 19.0 7.65 21.8 9.25 23.55 11.25 24.25 L11.25 30.4 Q6.5 29.5 3.1 25.7" fill="#ffffff" fill-rule="evenodd" stroke="none"/>
  </g>
</svg>
