<?xml version="1.0" encoding="UTF-8" standalone="no"?>
<svg xmlns:xlink="http://www.w3.org/1999/xlink" height="30.8px" width="30.8px" xmlns="http://www.w3.org/2000/svg">
  <g transform="matrix(1.0, 0.0, 0.0, 1.0, 2.45, -0.9)">
    <path d="M12.4 7.45 Q16.8 7.45 19.85 9.45 22.95 11.5 22.95 14.4 22.95 17.3 19.85 19.3 L18.15 20.25 18.4 21.5 Q18.9 23.65 20.05 24.95 18.0 23.8 15.7 22.2 L14.4 21.25 12.4 21.35 Q8.05 21.35 4.95 19.3 1.85 17.3 1.85 14.4 1.85 11.5 4.95 9.45 8.05 7.45 12.4 7.45" fill="#000000" fill-rule="evenodd" stroke="none"/>
    <path d="M3.65 25.7 L21.8 7.1 M22.8 6.45 Q26.85 10.5 26.85 16.3 26.85 22.05 22.8 26.1 18.75 30.2 12.95 30.2 7.2 30.2 3.1 26.1 -0.95 22.05 -0.95 16.3 -0.95 10.5 3.1 6.45 7.2 2.4 12.95 2.4 18.75 2.4 22.8 6.45" fill="none" stroke="#333333" stroke-linecap="round" stroke-linejoin="miter" stroke-width="3.0"/>
  </g>
</svg>
