<?xml version="1.0" encoding="UTF-8" standalone="no"?>
<svg xmlns:xlink="http://www.w3.org/1999/xlink" height="47.6px" width="109.35px" xmlns="http://www.w3.org/2000/svg">
  <g transform="matrix(1.0, 0.0, 0.0, 1.0, -30.2, -20.95)">
    <path d="M136.2 37.9 L134.1 37.7 130.3 37.65 123.85 37.65 123.55 37.8 123.35 37.65 120.5 37.6 120.75 37.8 120.65 37.95 120.4 38.0 119.95 37.75 119.85 37.55 119.85 37.35 120.15 36.9 120.25 37.35 123.45 37.3 124.25 36.65 Q125.2 35.95 125.2 35.25 125.2 33.9 126.05 33.05 125.7 33.95 125.4 35.6 125.1 36.6 124.3 37.3 L136.4 37.1 136.05 36.35 Q135.25 34.65 135.0 33.5 L135.05 33.5 137.55 37.8 137.05 38.1 136.8 37.9 136.2 37.9 M120.0 23.5 L121.2 25.0 121.9 25.9 122.95 27.2 123.8 28.2 125.3 29.55 125.75 29.95 126.15 30.3 127.8 32.0 127.75 32.15 127.6 32.2 125.9 30.7 123.2 27.85 122.5 26.9 122.15 26.35 118.55 22.8 117.65 21.9 117.4 21.9 117.25 21.05 117.65 21.0 117.75 21.2 117.75 21.3 Q118.15 21.35 118.8 22.05 119.8 23.05 120.05 23.7 L120.5 24.2 120.0 23.5 M129.15 43.35 L129.05 43.4 Q128.2 43.1 127.45 42.35 L126.0 40.95 Q126.8 41.25 127.6 41.95 L129.15 43.35 M137.25 38.25 L137.5 38.3 137.55 38.55 138.3 41.5 139.55 45.5 Q138.75 44.15 138.15 42.2 L137.1 38.55 137.1 38.25 137.25 38.25 M135.45 39.05 L135.45 39.15 Q135.55 39.3 135.15 39.3 L133.05 38.7 134.4 38.75 135.45 39.05 M137.6 45.45 L137.6 45.6 137.35 45.65 Q135.8 45.65 134.4 44.4 L133.2 43.05 134.65 44.5 Q135.6 45.4 137.6 45.45 M99.6 36.95 L99.7 36.95 99.75 37.2 Q99.75 37.7 98.7 37.7 L98.0 37.5 97.95 37.35 98.5 37.0 99.6 36.95 M85.3 32.55 L83.9 33.85 83.85 33.8 Q84.75 32.75 85.3 32.55 M83.7 33.8 L82.9 34.9 Q82.2 35.7 81.65 35.7 L81.4 35.45 81.3 35.2 Q81.3 34.95 81.9 34.9 L82.95 34.75 83.35 34.2 83.7 33.8 M92.3 37.5 Q92.1 38.0 90.8 38.0 90.2 38.0 90.15 37.8 91.15 37.35 92.3 37.5 M75.65 37.25 L76.2 37.25 76.2 37.3 78.3 37.3 78.4 37.35 78.8 37.35 79.15 37.35 81.55 37.3 81.85 37.4 85.75 37.5 85.55 37.2 85.85 37.2 86.85 37.35 86.95 37.35 86.95 37.25 89.3 37.2 89.9 37.25 90.0 37.65 Q90.0 38.15 89.3 38.15 L87.1 38.05 87.0 37.95 85.9 37.7 82.1 37.7 71.6 38.0 65.7 38.0 Q64.8 37.85 64.8 37.6 L64.9 37.45 64.85 37.25 65.65 35.8 66.45 33.95 66.5 33.95 66.55 34.2 65.65 37.05 65.75 37.2 65.85 37.25 66.15 37.25 66.8 37.2 67.1 37.25 67.65 37.25 68.95 37.2 71.6 37.25 74.6 37.3 75.65 37.25 M93.6 37.5 L93.45 37.55 92.45 37.5 93.05 37.45 93.6 37.5 M95.9 37.4 Q95.9 37.8 95.7 37.85 L95.4 37.8 95.45 37.35 95.9 37.4 M113.25 35.55 Q114.15 37.35 115.7 37.35 L116.0 37.2 116.0 36.95 116.25 37.4 116.0 37.75 115.6 37.95 114.35 37.15 Q113.25 36.25 113.1 35.55 L113.25 35.55 M108.05 36.8 L111.15 37.0 114.5 37.3 107.75 37.75 103.85 37.6 102.15 37.4 102.1 37.2 102.15 37.1 102.2 37.25 103.8 37.0 108.05 36.8 M104.1 32.55 L104.4 32.8 103.5 33.6 103.7 33.0 104.1 32.55 M71.1 58.2 L86.45 58.1 87.0 58.15 94.5 58.2 95.05 58.3 95.0 58.35 92.85 58.35 92.35 58.4 89.6 58.4 89.2 58.45 87.0 58.45 86.45 58.5 73.85 58.4 72.5 58.3 71.2 58.35 71.0 58.3 71.1 58.2 M60.9 30.1 L61.05 30.3 60.7 30.4 60.65 30.1 60.9 30.1 M58.95 27.4 L59.85 30.4 58.85 27.4 58.95 27.4 M49.3 28.6 L52.45 29.1 52.45 29.15 52.35 29.2 47.65 28.85 47.5 28.8 47.55 28.75 49.2 28.7 49.3 28.6 M54.65 29.8 Q57.75 30.35 61.55 33.55 L61.5 33.6 60.0 32.5 58.3 31.7 Q57.65 31.3 54.6 29.85 L54.65 29.8 M61.95 29.6 L62.1 29.65 62.25 29.95 62.1 30.1 61.85 29.6 61.95 29.6 M61.05 31.5 L61.6 32.55 61.1 32.2 60.95 31.55 61.05 31.5 M31.05 39.45 L30.75 40.15 30.3 40.9 30.2 40.9 30.2 40.75 30.4 39.95 Q30.65 39.5 31.05 39.45 M32.0 59.85 L32.15 60.05 32.15 59.95 32.35 59.85 32.65 60.35 32.6 60.55 32.55 60.6 32.4 60.65 32.15 60.6 32.15 60.25 31.95 59.85 32.0 59.85 M33.6 61.4 L33.8 61.95 Q33.9 62.1 33.5 62.1 L33.25 61.8 33.0 61.35 33.6 61.4 M35.9 64.05 L35.9 64.2 35.15 63.6 34.5 62.9 35.35 63.45 35.9 64.05 M36.2 63.9 L36.6 64.55 36.6 64.8 36.2 64.7 36.15 63.9 36.2 63.9 M37.25 64.65 L37.4 65.25 37.2 65.25 36.9 64.85 Q37.1 64.65 37.25 64.65 M65.0 59.45 L65.05 59.55 61.95 63.1 60.05 64.8 57.9 66.25 57.65 66.4 57.8 66.3 56.7 66.7 50.7 68.25 50.05 68.3 49.35 68.5 48.25 68.55 47.95 68.5 47.85 68.45 48.35 68.4 49.3 68.3 Q53.95 67.55 56.5 66.55 L59.05 65.3 59.75 64.7 61.7 63.0 65.0 59.45 M68.45 62.95 Q68.2 63.0 68.15 62.8 L68.1 62.5 68.05 62.45 67.3 61.2 66.15 59.25 66.15 58.8 66.4 58.8 66.5 58.75 66.55 58.85 67.0 59.35 67.25 60.35 67.75 61.25 68.15 62.25 68.55 62.8 68.45 62.95" fill="#ffffff" fill-opacity="0.36078432" fill-rule="evenodd" stroke="none"/>
    <path d="M33.05 32.6 L33.05 32.75 33.2 33.2 32.75 34.15 32.65 34.35 31.8 36.3 Q32.15 36.35 32.7 36.9 L32.6 37.1 32.3 37.2 31.75 36.9 31.65 36.6 31.65 36.55 31.4 36.9 31.35 36.9 31.95 34.9 31.85 34.55 32.6 32.3 33.6 29.7 33.65 29.7 33.75 30.05 33.3 31.1 Q32.85 31.9 32.85 32.25 L33.0 32.65 33.05 32.6" fill="#ffffff" fill-opacity="0.1882353" fill-rule="evenodd" stroke="none"/>
  </g>
</svg>
