<?xml version="1.0" encoding="UTF-8" standalone="no"?>
<svg xmlns:xlink="http://www.w3.org/1999/xlink" height="274.7px" width="341.7px" xmlns="http://www.w3.org/2000/svg">
  <g transform="matrix(1.0, 0.0, 0.0, 1.0, 134.25, 107.85)">
    <path d="M157.25 -57.9 Q207.45 -7.7 207.45 63.0 207.45 72.1 206.75 80.75 L206.3 85.15 Q202.1 119.0 185.5 147.7 L157.25 166.85 64.85 150.3 -35.75 132.3 -81.95 124.15 -87.35 123.2 -88.25 123.0 -92.45 122.3 -99.95 120.9 -114.4 118.3 -126.3 116.2 -128.4 109.2 Q-129.6 104.8 -130.3 100.6 -134.25 82.6 -134.25 63.0 -134.25 -7.7 -84.3 -57.9 -34.35 -107.85 36.35 -107.85 107.3 -107.85 157.25 -57.9" fill="url(#gradient0)" fill-rule="evenodd" stroke="none"/>
  </g>
  <defs>
    <radialGradient cx="0" cy="0" fx="435.20000000000005" fy="0" gradientTransform="matrix(1.0E-4, 0.2087, -0.1658, 1.0E-4, 36.6, 63.0)" gradientUnits="userSpaceOnUse" id="gradient0" r="819.2" spreadMethod="pad">
      <stop offset="0.0" stop-color="#ffffff"/>
      <stop offset="0.984313725490196" stop-color="#ffffff" stop-opacity="0.0"/>
    </radialGradient>
  </defs>
</svg>
