<?xml version="1.0" encoding="UTF-8" standalone="no"?>
<svg xmlns:xlink="http://www.w3.org/1999/xlink" height="95.5px" width="221.1px" xmlns="http://www.w3.org/2000/svg">
  <g transform="matrix(1.0, 0.0, 0.0, 1.0, -12.2, -10.85)">
    <path d="M149.25 70.8 L149.4 71.35 149.9 73.45 145.75 70.5 145.7 70.45 139.65 49.35 136.95 43.75 141.1 46.8 143.0 50.4 141.2 50.3 143.5 55.65 143.45 57.25 144.8 61.45 145.95 63.35 147.15 67.8 147.5 68.55 149.25 70.8 M125.35 35.05 L132.65 43.65 130.55 43.45 121.0 31.95 125.35 35.05" fill="#5f5f5f" fill-rule="evenodd" stroke="none"/>
    <path d="M149.9 73.45 L148.3 77.75 148.3 77.8 148.2 77.85 148.15 77.8 146.3 76.65 143.9 74.85 145.75 70.5 149.9 73.45" fill="#373737" fill-rule="evenodd" stroke="none"/>
    <path d="M200.5 73.15 L200.55 73.3 182.05 72.55 178.0 69.7 196.25 70.2 196.25 70.35 196.3 70.35 197.55 71.25 200.15 72.95 200.5 73.15 M164.35 69.2 L164.4 69.2 168.55 72.1 149.25 70.8 147.5 68.55 147.9 68.55 164.35 69.2 M229.25 71.8 L229.55 72.0 229.8 72.2 232.4 74.0 232.65 74.1 213.95 73.7 209.85 70.65 228.5 71.35 229.25 71.8 M232.7 74.1 L232.75 74.05 232.8 74.15 232.7 74.1" fill="#434343" fill-rule="evenodd" stroke="none"/>
    <path d="M17.9 103.55 L13.7 100.6 22.85 93.85 26.85 96.85 17.9 103.55" fill="#1e1e1e" fill-rule="evenodd" stroke="none"/>
    <path d="M94.35 94.7 L98.4 97.3 98.65 97.5 98.55 97.6 Q89.25 105.95 89.35 106.0 L85.1 103.2 94.35 94.7" fill="#171717" fill-rule="evenodd" stroke="none"/>
    <path d="M148.3 77.75 L148.35 77.8 148.3 77.8 148.3 77.75 M148.15 77.8 L134.25 77.25 134.2 77.3 132.5 76.15 129.95 74.35 143.9 74.85 146.3 76.65 148.15 77.8 M123.3 88.35 L110.05 88.75 105.8 85.8 119.2 85.4 123.3 88.35 M98.7 76.2 L94.35 73.3 111.55 73.9 110.35 76.5 98.7 76.2" fill="#070707" fill-rule="evenodd" stroke="none"/>
    <path d="M101.45 25.85 L97.05 23.1 97.0 23.0 88.35 13.55 92.65 16.35 101.45 25.85" fill="#9b9b9b" fill-rule="evenodd" stroke="none"/>
    <path d="M98.4 97.3 L94.35 94.7 87.55 85.55 91.9 88.1 98.4 97.3" fill="#727272" fill-rule="evenodd" stroke="none"/>
    <path d="M229.25 71.8 L228.45 71.3 228.4 71.3 228.4 71.15 228.6 66.2 228.4 64.2 228.55 60.35 Q228.6 59.4 228.9 58.6 L228.95 53.1 229.05 53.15 233.1 55.95 233.1 56.0 233.05 59.9 233.3 61.8 233.25 67.0 232.85 68.15 232.75 74.05 232.7 74.1 232.7 74.15 232.65 74.1 232.4 74.0 229.8 72.2 229.55 72.0 229.25 71.8 M230.5 55.65 L230.15 69.95 231.7 70.7 231.9 56.8 230.5 55.65" fill="#5b5b5b" fill-rule="evenodd" stroke="none"/>
    <path d="M201.2 55.0 L201.05 56.45 196.8 56.25 196.95 52.15 201.2 55.0 M169.2 53.9 L169.05 55.3 164.8 55.1 164.9 51.05 169.2 53.9" fill="#616161" fill-rule="evenodd" stroke="none"/>
    <path d="M230.5 55.65 L231.9 56.8 231.7 70.7 230.15 69.95 230.5 55.65" fill="#333333" fill-rule="evenodd" stroke="none"/>
    <path d="M196.25 70.2 L196.4 66.3 196.5 66.3 200.55 69.05 200.6 69.1 200.5 73.15 200.15 72.95 197.55 71.25 196.3 70.35 196.25 70.35 196.25 70.2 M168.7 68.1 L168.55 72.1 164.4 69.2 164.35 69.2 164.5 65.15 164.6 65.2 168.7 68.05 168.7 68.1" fill="#464646" fill-rule="evenodd" stroke="none"/>
    <path d="M196.5 66.3 L209.8 66.5 209.75 69.35 200.6 69.1 200.55 69.05 196.5 66.3 M168.7 68.1 L168.7 68.05 164.6 65.2 177.85 65.5 177.85 68.35 168.7 68.1" fill="#2e2e2e" fill-rule="evenodd" stroke="none"/>
    <path d="M134.2 77.3 L123.3 88.35 119.2 85.4 130.0 74.5 132.5 76.15 134.2 77.3 M97.0 23.0 L97.05 23.1 101.45 25.85 94.1 34.15 94.05 34.15 89.95 31.35 89.9 31.3 97.0 23.0" fill="#202020" fill-rule="evenodd" stroke="none"/>
    <path d="M91.9 88.1 L87.55 85.55 Q94.3 74.85 94.35 73.3 L98.7 76.2 Q97.05 80.6 91.9 88.1" fill="#1c1c1c" fill-rule="evenodd" stroke="none"/>
    <path d="M21.2 13.7 L25.6 17.45 25.1 17.9 17.05 10.85 21.2 13.7 M79.65 19.9 L79.45 20.0 75.95 17.35 79.65 19.9" fill="#989898" fill-rule="evenodd" stroke="none"/>
    <path d="M89.95 31.35 L94.05 34.15 94.1 34.15 Q96.7 37.85 98.45 42.35 L95.25 42.25 Q93.2 36.5 89.95 31.35" fill="url(#gradient0)" fill-rule="evenodd" stroke="none"/>
    <path d="M80.3 98.8 Q70.3 105.45 60.3 106.1 L60.15 106.1 Q42.0 107.9 27.15 97.2 42.15 105.1 58.0 103.1 67.95 101.25 76.65 95.65 L80.3 98.8" fill="url(#gradient1)" fill-rule="evenodd" stroke="none"/>
    <path d="M89.5 14.8 L90.0 15.05 89.8 15.3 89.45 15.15 89.4 14.95 89.45 14.8 89.5 14.8 M90.55 16.05 L90.7 16.2 90.7 16.4 90.5 16.4 90.4 16.3 90.55 16.05 M90.9 17.0 L90.65 17.0 90.55 16.85 Q90.5 16.65 91.05 16.4 91.45 16.25 91.5 16.6 L91.3 16.95 91.1 16.95 90.95 16.6 90.8 16.6 90.9 17.0 M92.9 18.3 L92.9 18.45 92.75 18.5 92.6 18.45 92.5 18.4 92.9 18.3 M90.1 31.8 L89.55 31.6 89.7 31.55 89.7 31.4 Q89.65 30.85 89.95 30.5 L91.05 29.8 90.85 29.65 90.75 29.4 Q90.75 28.9 91.25 28.8 L91.55 28.85 91.7 29.1 91.85 28.95 91.75 28.65 Q91.75 28.45 91.95 28.4 L92.15 28.6 92.2 28.5 92.05 28.2 Q92.1 27.7 92.45 27.25 L92.7 27.05 Q92.8 26.85 93.05 26.9 L93.5 27.0 93.5 26.95 95.6 24.55 95.6 24.5 95.5 24.2 Q95.45 23.55 95.8 23.85 L95.95 24.1 96.25 23.8 96.25 23.65 96.4 23.4 96.85 23.15 97.1 22.95 97.15 23.0 97.0 23.25 97.15 23.45 96.6 23.9 96.1 24.5 96.1 24.55 95.9 24.8 95.85 24.8 95.65 25.05 93.7 27.0 93.6 27.15 93.6 27.4 Q93.65 28.0 93.15 28.1 L92.85 27.95 92.6 28.15 92.6 28.2 92.7 28.25 Q92.75 28.55 92.4 28.6 L92.35 28.6 91.7 29.25 91.6 29.4 91.5 29.55 91.4 29.8 90.75 30.9 90.05 31.6 90.7 31.85 92.0 32.6 94.15 34.2 94.2 34.25 90.1 31.8 M125.75 69.55 L127.55 69.25 128.35 69.55 130.25 69.4 130.65 69.65 130.6 69.8 130.6 69.9 130.4 70.05 128.9 69.9 127.5 69.55 126.85 69.6 126.7 69.7 125.6 69.75 125.1 69.5 124.55 69.55 121.35 69.35 121.35 69.1 123.4 69.15 125.75 69.55 M143.8 74.8 L144.75 71.95 145.25 70.55 145.25 70.5 145.1 70.55 142.85 70.45 140.85 70.2 140.75 70.1 140.95 70.1 141.7 69.85 143.15 69.95 144.9 69.6 145.15 69.55 144.85 68.6 144.5 66.35 144.4 65.4 145.9 69.65 145.9 69.9 146.1 70.35 146.05 70.6 145.9 70.65 145.9 70.75 Q147.4 71.3 150.0 73.5 L149.9 73.7 Q149.3 73.1 147.35 72.05 L145.75 71.0 145.6 71.2 144.7 72.8 144.5 74.05 144.2 74.9 143.8 74.8 M143.6 63.0 L143.85 63.9 143.5 63.0 143.6 63.0 M138.45 69.85 L138.55 70.0 138.7 69.85 139.95 70.05 Q139.9 70.3 139.4 70.35 L138.65 70.15 138.35 69.85 138.45 69.85 M130.05 74.35 L130.15 74.5 Q131.25 74.75 132.3 75.6 L134.35 77.15 133.9 77.5 132.0 75.9 130.2 74.7 Q130.2 75.15 129.6 75.35 L129.5 75.1 Q129.5 74.85 129.65 74.55 129.85 74.3 130.05 74.35" fill="#ffffff" fill-opacity="0.4" fill-rule="evenodd" stroke="none"/>
    <path d="M198.6 71.8 L198.95 72.05 199.0 72.0 199.55 71.9 199.55 72.1 199.45 72.45 200.6 73.15 200.5 73.25 199.25 72.45 198.95 72.45 198.8 72.3 198.15 71.8 196.25 70.35 196.3 70.25 197.1 71.0 198.4 71.9 198.6 71.8 M168.2 71.5 L168.5 71.85 168.5 71.9 168.55 71.95 168.55 72.0 168.45 71.95 168.35 72.05 167.95 71.65 167.85 71.55 168.0 71.55 168.2 71.5 M89.7 88.3 L89.75 88.45 Q89.85 88.7 89.6 88.75 L89.45 88.7 89.3 88.5 89.4 88.4 89.7 88.3 M90.05 91.4 L90.75 91.4 90.9 91.5 90.6 91.6 90.15 91.5 90.05 91.4 M91.45 90.75 L91.25 91.0 90.85 90.75 90.7 90.35 90.8 90.2 91.25 90.25 91.45 90.75 M83.8 95.15 L84.0 95.0 84.1 95.0 84.1 95.15 83.9 95.25 Q82.9 95.25 82.45 94.85 L82.2 94.95 81.75 94.9 81.5 94.7 82.0 94.3 Q82.45 94.1 82.5 94.6 L82.5 94.75 83.8 95.15 M86.6 95.95 L87.45 96.1 88.1 96.2 88.1 96.35 87.85 96.4 86.5 95.95 86.6 95.95 M91.6 91.75 L91.55 91.75 Q91.35 91.75 91.35 91.45 L91.15 91.5 91.15 91.45 91.2 91.4 91.4 91.4 Q91.4 91.3 91.55 91.35 L91.75 91.5 91.7 91.7 91.5 91.6 91.6 91.75 M94.55 94.75 L94.6 94.8 94.55 94.8 94.55 94.75 M94.25 95.45 L94.15 95.65 93.55 96.2 93.45 96.1 92.4 97.0 92.2 96.9 92.35 96.6 93.6 95.9 94.25 95.45 M92.1 96.6 L92.15 96.5 92.15 96.65 Q92.25 97.2 91.2 97.95 90.0 98.7 90.1 99.05 L89.65 99.7 89.0 100.1 Q88.6 100.15 88.6 99.8 L92.1 96.6 M47.4 11.95 Q47.6 12.8 48.35 14.15 L49.5 16.45 Q47.4 13.2 47.3 11.95 L47.4 11.95 M52.3 15.8 L52.3 16.55 52.15 16.55 52.15 15.8 52.3 15.8 M51.05 26.55 L51.65 26.55 51.6 26.75 51.0 26.65 51.05 26.55 M52.75 27.95 L53.5 28.45 53.5 28.6 53.2 28.3 52.6 28.2 52.6 27.9 52.75 27.95 M37.15 32.55 L37.05 32.7 33.95 31.95 34.0 31.8 Q35.35 31.65 37.15 32.55 M37.95 32.5 L38.35 32.9 38.35 33.05 38.0 33.1 37.8 32.85 37.9 32.5 37.95 32.5 M16.6 98.1 L19.8 96.15 19.85 96.25 19.35 96.7 19.55 96.7 19.7 96.75 19.7 96.85 19.7 97.1 Q19.75 97.45 19.6 97.4 L19.15 97.6 18.75 97.3 14.45 100.9 14.3 100.9 Q14.2 101.2 13.8 101.25 L13.35 101.1 13.25 100.65 Q13.2 100.25 13.75 100.15 L14.05 100.15 15.4 99.05 15.15 98.9 15.1 98.6 Q15.0 97.4 15.7 97.5 L16.2 97.8 15.85 97.9 Q15.55 98.2 15.6 98.4 L15.6 98.7 16.25 98.95 16.6 98.75 16.6 98.1 M80.1 94.1 L80.15 94.15 79.8 94.4 79.7 94.3 79.7 94.05 79.75 94.05 80.1 94.1 M86.45 102.6 L85.7 103.35 Q85.35 103.35 85.3 103.15 L85.25 102.95 85.75 102.2 86.6 101.6 86.75 101.5 88.5 99.8 88.55 99.75 88.55 99.9 Q88.65 100.25 86.8 101.85 L86.45 102.6" fill="#5f5f5f" fill-rule="evenodd" stroke="none"/>
    <path d="M196.85 52.4 L196.95 52.65 196.9 54.55 197.05 55.4 196.8 56.25 196.65 56.1 196.75 54.2 196.85 52.4 M186.0 69.75 L189.2 69.7 Q189.95 69.6 190.0 70.05 L189.45 70.5 188.95 70.35 188.3 70.25 186.5 70.1 185.65 69.9 Q185.65 69.7 186.0 69.75 M196.3 70.25 L196.25 70.2 196.0 70.1 195.9 69.9 196.1 67.95 196.15 67.45 Q196.15 66.8 196.3 66.5 L196.3 66.4 196.35 66.4 196.4 66.3 196.45 66.35 196.5 66.25 196.6 66.35 196.7 66.55 196.4 69.7 196.85 70.0 198.6 71.65 198.6 71.8 198.4 71.9 197.1 71.0 196.3 70.25 M164.7 51.25 L165.0 52.35 165.05 55.2 164.95 55.25 Q165.1 55.4 164.75 55.4 L164.35 55.3 164.25 54.1 164.4 52.55 Q164.45 51.45 164.7 51.25 M167.85 71.55 L167.8 71.55 Q167.2 71.45 165.85 70.55 164.75 69.85 164.4 69.4 L163.9 69.45 163.9 69.15 Q164.1 66.15 164.45 65.0 L164.85 65.5 164.75 68.5 165.75 68.95 Q167.15 69.8 168.25 71.25 L168.25 71.45 168.2 71.5 168.0 71.55 167.85 71.55 M178.85 69.45 L178.8 69.7 178.5 69.9 Q178.2 69.95 178.2 69.75 L178.15 69.5 Q178.15 69.1 178.5 69.05 178.85 69.1 178.85 69.45 M229.35 54.4 L228.95 58.55 229.1 58.8 228.95 60.1 228.95 60.15 228.8 60.25 228.65 60.2 228.75 60.55 228.7 62.2 228.7 63.85 228.55 63.85 Q228.35 63.9 228.25 63.4 L228.15 62.9 228.3 60.1 228.55 60.1 228.45 59.5 228.85 58.6 Q228.55 58.5 228.6 58.25 L228.8 54.95 229.05 53.4 Q229.2 52.5 229.35 54.4 M232.05 57.0 L232.15 57.15 232.05 60.2 232.0 60.25 231.8 59.6 231.75 57.05 232.05 57.0 M232.35 62.45 L232.05 62.55 Q231.75 62.55 231.75 62.4 L231.7 62.2 231.7 62.0 Q232.0 61.95 232.35 62.45 M232.75 74.0 L232.75 74.05 232.6 74.1 230.35 72.85 228.7 71.7 228.5 71.7 228.5 71.65 228.35 71.7 228.05 71.5 222.75 71.3 217.85 70.95 218.9 70.7 227.9 71.0 Q227.95 70.7 228.35 70.65 L228.4 70.6 228.4 68.5 228.45 68.25 228.55 66.2 228.7 66.3 228.5 65.65 228.3 64.75 Q228.3 64.4 228.45 64.35 L228.9 65.65 228.85 66.5 228.75 66.55 228.65 66.45 228.75 70.75 228.8 71.0 228.8 71.45 230.65 72.75 231.65 73.45 232.75 74.0 M210.05 70.6 L212.8 70.65 212.85 71.1 212.7 71.2 212.05 70.95 211.2 70.95 210.05 70.75 210.05 70.6 M215.5 71.1 L216.55 71.0 216.7 71.05 216.1 71.25 214.7 71.3 214.15 71.45 213.3 71.05 213.4 70.95 Q213.55 70.45 213.95 70.5 L215.1 70.95 215.05 71.05 215.5 71.1 M150.3 68.5 L152.85 68.85 153.0 69.0 152.25 69.3 151.45 69.6 150.05 69.7 Q148.55 69.5 147.85 68.65 L150.3 68.5 M158.1 68.95 L158.15 68.9 158.15 69.1 158.15 69.4 157.9 69.55 156.75 69.3 156.75 69.0 158.1 68.95" fill="#ffffff" fill-opacity="0.43137255" fill-rule="evenodd" stroke="none"/>
    <path d="M91.1 16.95 L91.1 17.05 91.0 18.3 90.5 19.35 Q90.95 18.55 90.9 17.0 L90.8 16.6 90.95 16.6 91.1 16.95 M91.35 18.4 L91.8 21.1 91.8 21.8 91.65 21.8 91.35 20.6 91.2 18.45 91.35 18.4" fill="#2a2a2a" fill-rule="evenodd" stroke="none"/>
    <path d="M94.0 38.75 L94.35 39.55 94.75 40.35 Q94.7 40.85 95.05 41.4 L95.4 41.95 95.3 42.1 95.0 42.1 94.65 41.2 93.95 39.0 93.95 38.75 94.0 38.75" fill="#ffffff" fill-opacity="0.56078434" fill-rule="evenodd" stroke="none"/>
    <path d="M90.1 31.8 L90.3 32.05 90.85 32.35 91.15 32.6 91.5 32.95 91.5 33.05 91.35 33.1 91.2 33.1 92.2 35.15 93.65 38.35 93.65 38.4 Q92.7 37.3 92.15 35.3 L91.4 33.7 91.0 33.15 90.8 32.95 90.6 32.6 89.95 32.0 90.1 31.8" fill="#ffffff" fill-opacity="0.52156866" fill-rule="evenodd" stroke="none"/>
    <path d="M84.5 95.55 L85.75 95.75 85.05 95.85 84.4 95.7 84.5 95.55 M91.7 91.7 L92.95 92.8 Q94.4 94.1 94.55 94.75 L94.55 94.8 94.6 94.8 95.3 95.15 Q97.05 96.05 98.65 97.45 L98.65 97.55 98.4 97.65 94.3 95.4 94.25 95.45 93.6 95.9 92.35 96.6 92.2 96.65 92.15 96.35 Q92.15 96.05 92.9 95.5 L93.7 95.1 93.6 95.0 93.8 94.7 Q92.05 93.0 91.6 91.75 L91.5 91.6 91.7 91.7 M60.1 34.65 L60.35 35.05 60.2 35.3 59.8 35.05 59.9 34.75 60.1 34.65 M58.55 37.25 L60.2 38.05 Q60.45 38.25 60.5 38.9 L60.45 39.15 60.0 39.1 58.95 38.2 Q58.55 37.9 58.5 37.5 L58.45 37.25 58.55 37.25 M23.6 16.45 L23.55 16.85 22.8 16.4 23.1 16.35 23.6 16.45 M20.6 16.15 L20.0 16.6 20.25 16.25 20.6 16.15 M12.35 15.05 Q12.35 16.4 15.8 16.5 L15.8 16.65 Q12.0 16.7 12.2 15.1 L12.35 15.05 M20.2 15.35 L20.3 15.8 19.6 15.65 19.55 15.55 20.2 15.35 M18.3 15.75 L16.95 16.2 16.25 16.85 Q16.7 15.9 17.95 15.8 L18.3 15.75 M13.55 20.8 L13.6 21.05 13.45 21.2 13.3 21.2 Q13.25 20.9 13.55 20.8 M15.25 23.65 L16.05 23.75 15.2 23.95 15.25 23.65 M18.15 22.95 L18.25 23.05 17.75 23.45 16.95 23.35 16.9 22.9 18.15 22.95 M14.85 24.8 L14.8 25.4 14.55 25.8 14.25 25.85 14.85 24.8 M16.2 97.8 L16.45 97.7 16.6 97.9 16.6 98.1 16.6 98.75 16.25 98.95 15.6 98.7 15.6 98.4 Q15.55 98.2 15.85 97.9 L16.2 97.8 M21.8 94.45 L22.0 94.6 21.5 95.35 Q20.85 95.85 20.3 95.95 L20.05 95.9 20.05 95.85 Q21.0 94.45 21.8 94.45" fill="#ffffff" fill-opacity="0.38039216" fill-rule="evenodd" stroke="none"/>
    <path d="M104.95 73.1 L111.5 73.55 111.45 73.85 110.75 74.0 108.05 73.75 105.1 74.05 103.85 74.05 103.85 73.25 104.95 73.1 M126.05 78.65 Q125.5 79.8 123.05 82.1 120.4 84.55 119.75 85.55 L119.65 85.6 123.0 88.2 122.9 88.3 121.1 87.1 Q119.35 86.05 119.4 85.8 L119.5 85.6 119.35 85.6 118.0 85.45 117.95 85.35 116.6 85.35 112.85 85.5 110.05 85.65 109.5 85.5 106.85 85.65 106.85 85.4 106.9 85.4 106.95 85.55 109.55 85.4 110.1 85.55 112.85 85.35 113.3 85.1 Q114.5 85.0 119.5 85.2 L119.55 85.3 Q119.7 84.6 122.45 81.9 L123.25 81.2 123.15 81.15 Q122.25 81.05 122.0 80.7 L122.15 80.7 Q120.7 79.7 120.5 79.15 L120.7 77.75 120.75 78.2 121.5 79.45 122.7 80.75 122.7 80.85 123.4 81.0 Q124.8 79.65 126.05 78.65 M120.7 77.4 L119.85 76.15 118.9 74.8 Q120.25 75.45 120.55 76.3 L120.7 77.4 M144.2 74.9 L144.3 74.9 Q144.05 75.3 143.6 75.3 L140.8 75.2 137.0 75.1 131.65 74.7 131.55 74.55 131.55 74.4 134.9 74.75 137.85 74.55 141.05 74.6 143.8 74.8 144.2 74.9" fill="#ffffff" fill-opacity="0.2" fill-rule="evenodd" stroke="none"/>
    <path d="M70.35 98.9 L72.6 97.75 70.6 99.4 69.35 99.45 70.35 98.9" fill="#ffffff" fill-opacity="0.16862746" fill-rule="evenodd" stroke="none"/>
    <path d="M58.25 13.3 L58.4 13.4 58.55 13.35 58.55 13.45 58.6 13.6 58.5 14.3 58.2 18.15 58.05 18.55 57.9 18.35 57.9 18.3 57.8 18.35 57.85 15.35 58.05 13.35 58.2 13.35 58.25 13.3" fill="#272727" fill-rule="evenodd" stroke="none"/>
    <path d="M56.15 95.9 L56.4 96.0 56.5 95.85 56.55 96.25 Q56.85 100.9 56.4 100.9 L56.2 100.9 55.95 101.15 55.7 100.9 55.65 100.6 55.65 99.6 55.75 98.2 55.75 96.85 55.85 96.1 55.8 96.1 Q55.8 95.85 56.15 95.9" fill="#1c1c1c" fill-rule="evenodd" stroke="none"/>
    <path d="M91.0 80.65 Q88.5 85.2 88.0 85.2 L87.6 84.85 Q87.6 84.5 90.3 80.2 L93.1 75.6 93.2 76.6 91.0 80.65" fill="#ffffff" fill-opacity="0.10980392" fill-rule="evenodd" stroke="none"/>
  </g>
  <defs>
    <linearGradient gradientTransform="matrix(-9.0E-4, 0.0046, -0.0069, -0.0014, 91.3, 34.8)" gradientUnits="userSpaceOnUse" id="gradient0" spreadMethod="pad" x1="-819.2" x2="819.2">
      <stop offset="0.0" stop-color="#272727"/>
      <stop offset="0.9450980392156862" stop-color="#797979"/>
    </linearGradient>
    <linearGradient gradientTransform="matrix(-0.0356, 0.023, -0.0038, -0.0058, 83.5, 115.05)" gradientUnits="userSpaceOnUse" id="gradient1" spreadMethod="pad" x1="-819.2" x2="819.2">
      <stop offset="0.0" stop-color="#000000"/>
      <stop offset="1.0" stop-color="#444444"/>
    </linearGradient>
  </defs>
</svg>
