<?xml version="1.0" encoding="UTF-8" standalone="no"?>
<svg xmlns:xlink="http://www.w3.org/1999/xlink" height="6.1px" width="44.95px" xmlns="http://www.w3.org/2000/svg">
  <g transform="matrix(1.0, 0.0, 0.0, 1.0, 40.5, 3.1)">
    <path d="M-27.15 -0.75 Q-27.65 -0.75 -28.0 -1.1 L-28.3 -1.9 -28.0 -2.75 -27.15 -3.05 Q-26.65 -3.05 -26.3 -2.75 L-26.05 -2.25 4.45 -2.3 4.2 -1.6 -26.0 -1.55 -26.3 -1.1 Q-26.65 -0.75 -27.15 -0.75 M-34.75 -0.05 Q-34.95 1.1 -35.9 1.8 -36.75 2.55 -37.95 2.4 -39.15 2.3 -39.9 1.45 -40.65 0.55 -40.45 -0.65 -40.3 -1.75 -39.45 -2.45 -38.5 -3.15 -37.3 -3.1 -36.1 -2.9 -35.4 -2.05 -34.6 -1.2 -34.75 -0.05 M-24.3 1.2 L-25.1 0.85 -25.45 0.0 -25.1 -0.8 Q-24.8 -1.15 -24.3 -1.15 -23.75 -1.15 -23.45 -0.8 L-23.15 -0.35 3.8 -0.4 3.55 0.3 -23.15 0.35 -23.45 0.85 Q-23.8 1.2 -24.3 1.2 M-21.2 3.0 L-22.05 2.65 -22.4 1.85 -22.05 1.0 Q-21.6 0.65 -21.2 0.65 -20.75 0.65 -20.4 1.0 L-20.1 1.45 3.1 1.5 2.85 2.2 -20.05 2.15 -20.4 2.65 Q-20.7 3.0 -21.2 3.0" fill="#ffffff" fill-rule="evenodd" stroke="none"/>
  </g>
</svg>
