<?xml version="1.0" encoding="UTF-8" standalone="no"?>
<svg xmlns:xlink="http://www.w3.org/1999/xlink" height="170.7px" width="314.9px" xmlns="http://www.w3.org/2000/svg">
  <g transform="matrix(1.0, 0.0, 0.0, 1.0, -106.7, -73.4)">
    <path d="M178.0 74.7 L178.0 122.0 178.0 138.0" fill="none" stroke="#ff0000" stroke-linecap="square" stroke-linejoin="round" stroke-width="2.0"/>
    <path d="M416.9 160.75 Q416.05 159.9 416.05 158.8 416.05 157.7 416.9 156.8 417.65 156.0 418.85 156.0 419.95 156.0 420.8 156.8 421.6 157.7 421.6 158.8 421.6 159.9 420.8 160.75 419.95 161.55 418.85 161.55 417.65 161.55 416.9 160.75 M341.7 198.15 Q342.45 197.35 343.65 197.35 344.8 197.35 345.6 198.15 346.4 199.0 346.4 200.15 346.4 201.25 345.6 202.05 344.8 202.9 343.65 202.9 342.45 202.9 341.7 202.05 340.9 201.25 340.9 200.15 340.9 199.0 341.7 198.15" fill="#ffcc00" fill-rule="evenodd" stroke="none"/>
    <path d="M210.25 127.75 L210.25 171.15 Q210.25 173.5 208.6 175.2 206.95 176.85 204.6 176.85 L161.2 176.85 Q158.85 176.85 157.15 175.2 155.5 173.5 155.5 171.15 L155.5 127.75 Q155.5 125.4 157.15 123.7 158.85 122.05 161.2 122.05 L204.6 122.05 Q206.95 122.05 208.6 123.7 210.25 125.4 210.25 127.75" fill="url(#gradient0)" fill-rule="evenodd" stroke="none"/>
    <path d="M180.25 188.3 L223.65 188.3 Q226.0 188.3 227.7 190.0 229.35 191.65 229.35 194.0 L229.35 237.4 Q229.35 239.75 227.7 241.45 226.0 243.1 223.65 243.1 L180.25 243.1 Q177.9 243.1 176.25 241.45 174.55 239.75 174.55 237.4 L174.55 194.0 Q174.55 191.65 176.25 190.0 177.9 188.3 180.25 188.3" fill="url(#gradient1)" fill-rule="evenodd" stroke="none"/>
    <path d="M242.45 190.0 Q244.1 188.3 246.45 188.3 L289.85 188.3 Q292.2 188.3 293.9 190.0 295.55 191.65 295.55 194.0 L295.55 237.4 Q295.55 239.75 293.9 241.45 292.2 243.1 289.85 243.1 L246.45 243.1 Q244.1 243.1 242.45 241.45 240.75 239.75 240.75 237.4 L240.75 194.0 Q240.75 191.65 242.45 190.0" fill="url(#gradient2)" fill-rule="evenodd" stroke="none"/>
    <path d="M109.4 190.0 Q111.05 188.3 113.4 188.3 L156.8 188.3 Q159.2 188.3 160.85 190.0 162.5 191.65 162.5 194.0 L162.5 237.4 Q162.5 239.75 160.85 241.45 159.2 243.1 156.8 243.1 L113.4 243.1 Q111.05 243.1 109.4 241.45 107.7 239.75 107.7 237.4 L107.7 194.0 Q107.7 191.65 109.4 190.0" fill="url(#gradient3)" fill-rule="evenodd" stroke="none"/>
    <path d="M210.25 127.75 L210.25 171.15 Q210.25 173.5 208.6 175.2 206.95 176.85 204.6 176.85 L161.2 176.85 Q158.85 176.85 157.15 175.2 155.5 173.5 155.5 171.15 L155.5 127.75 Q155.5 125.4 157.15 123.7 158.85 122.05 161.2 122.05 L204.6 122.05 Q206.95 122.05 208.6 123.7 210.25 125.4 210.25 127.75 M180.25 188.3 L223.65 188.3 Q226.0 188.3 227.7 190.0 229.35 191.65 229.35 194.0 L229.35 237.4 Q229.35 239.75 227.7 241.45 226.0 243.1 223.65 243.1 L180.25 243.1 Q177.9 243.1 176.25 241.45 174.55 239.75 174.55 237.4 L174.55 194.0 Q174.55 191.65 176.25 190.0 177.9 188.3 180.25 188.3 M242.45 190.0 Q244.1 188.3 246.45 188.3 L289.85 188.3 Q292.2 188.3 293.9 190.0 295.55 191.65 295.55 194.0 L295.55 237.4 Q295.55 239.75 293.9 241.45 292.2 243.1 289.85 243.1 L246.45 243.1 Q244.1 243.1 242.45 241.45 240.75 239.75 240.75 237.4 L240.75 194.0 Q240.75 191.65 242.45 190.0 M109.4 190.0 Q111.05 188.3 113.4 188.3 L156.8 188.3 Q159.2 188.3 160.85 190.0 162.5 191.65 162.5 194.0 L162.5 237.4 Q162.5 239.75 160.85 241.45 159.2 243.1 156.8 243.1 L113.4 243.1 Q111.05 243.1 109.4 241.45 107.7 239.75 107.7 237.4 L107.7 194.0 Q107.7 191.65 109.4 190.0" fill="none" stroke="#ff0000" stroke-linecap="round" stroke-linejoin="round" stroke-width="2.0"/>
    <path d="M199.05 126.9 Q200.3 128.15 200.3 129.9 L200.3 162.8 Q200.3 164.6 199.05 165.85 197.8 167.1 196.0 167.1 L163.15 167.1 Q161.35 167.1 160.1 165.85 158.8 164.6 158.8 162.8 L158.8 129.9 Q158.8 128.15 160.1 126.9 161.35 125.6 163.15 125.6 L196.0 125.6 Q197.8 125.6 199.05 126.9" fill="url(#gradient4)" fill-rule="evenodd" stroke="none"/>
    <path d="M158.8 129.9 Q158.8 128.15 160.1 126.9 161.35 125.6 163.15 125.6 L196.5 125.6 163.6 126.55 Q161.75 126.55 160.55 127.6 159.3 128.65 159.3 130.4 L158.8 144.2 158.8 129.9" fill="#ef9fa0" fill-rule="evenodd" stroke="none"/>
  </g>
  <defs>
    <radialGradient cx="0" cy="0" gradientTransform="matrix(0.0599, 0.0301, 0.0301, -0.0599, 172.55, 140.1)" gradientUnits="userSpaceOnUse" id="gradient0" r="819.2" spreadMethod="pad">
      <stop offset="0.0" stop-color="#990000"/>
      <stop offset="0.7137254901960784" stop-color="#330000"/>
    </radialGradient>
    <radialGradient cx="0" cy="0" gradientTransform="matrix(0.0599, 0.0301, 0.0301, -0.0599, 191.65, 206.35)" gradientUnits="userSpaceOnUse" id="gradient1" r="819.2" spreadMethod="pad">
      <stop offset="0.0" stop-color="#990000"/>
      <stop offset="0.7137254901960784" stop-color="#330000"/>
    </radialGradient>
    <radialGradient cx="0" cy="0" gradientTransform="matrix(0.0599, 0.0301, 0.0301, -0.0599, 257.85, 206.35)" gradientUnits="userSpaceOnUse" id="gradient2" r="819.2" spreadMethod="pad">
      <stop offset="0.0" stop-color="#990000"/>
      <stop offset="0.7137254901960784" stop-color="#330000"/>
    </radialGradient>
    <radialGradient cx="0" cy="0" gradientTransform="matrix(0.0599, 0.0301, 0.0301, -0.0599, 124.8, 206.35)" gradientUnits="userSpaceOnUse" id="gradient3" r="819.2" spreadMethod="pad">
      <stop offset="0.0" stop-color="#990000"/>
      <stop offset="0.7137254901960784" stop-color="#330000"/>
    </radialGradient>
    <radialGradient cx="0" cy="0" gradientTransform="matrix(0.0527, 0.0527, 0.0527, -0.0527, 171.6, 145.55)" gradientUnits="userSpaceOnUse" id="gradient4" r="819.2" spreadMethod="pad">
      <stop offset="0.12549019607843137" stop-color="#990000"/>
      <stop offset="1.0" stop-color="#330000"/>
    </radialGradient>
  </defs>
</svg>
