<?xml version="1.0" encoding="UTF-8" standalone="no"?>
<svg xmlns:xlink="http://www.w3.org/1999/xlink" height="41.5px" width="41.5px" xmlns="http://www.w3.org/2000/svg">
  <g transform="matrix(1.0, 0.0, 0.0, 1.0, -111.05, -191.85)">
    <path d="M151.3 193.15 Q152.55 194.4 152.55 196.2 L152.55 229.05 Q152.55 230.85 151.3 232.1 150.05 233.35 148.25 233.35 L115.35 233.35 Q113.6 233.35 112.3 232.1 111.05 230.85 111.05 229.05 L111.05 196.2 Q111.05 194.4 112.3 193.15 113.6 191.85 115.35 191.85 L148.25 191.85 Q150.05 191.85 151.3 193.15" fill="url(#gradient0)" fill-rule="evenodd" stroke="none"/>
    <path d="M111.5 196.65 L111.05 210.45 111.05 196.2 Q111.05 194.4 112.3 193.15 113.6 191.85 115.35 191.85 L148.75 191.85 115.85 192.8 Q114.0 192.8 112.8 193.85 111.5 194.9 111.5 196.65" fill="#ef9fa0" fill-rule="evenodd" stroke="none"/>
  </g>
  <defs>
    <radialGradient cx="0" cy="0" gradientTransform="matrix(0.0527, 0.0527, 0.0527, -0.0527, 123.85, 211.8)" gradientUnits="userSpaceOnUse" id="gradient0" r="819.2" spreadMethod="pad">
      <stop offset="0.12549019607843137" stop-color="#990000"/>
      <stop offset="1.0" stop-color="#330000"/>
    </radialGradient>
  </defs>
</svg>
