<?xml version="1.0" encoding="UTF-8" standalone="no"?>
<svg xmlns:xlink="http://www.w3.org/1999/xlink" height="41.5px" width="41.5px" xmlns="http://www.w3.org/2000/svg">
  <g transform="matrix(1.0, 0.0, 0.0, 1.0, -177.9, -191.85)">
    <path d="M218.1 193.15 Q219.4 194.4 219.4 196.2 L219.4 229.05 Q219.4 230.85 218.1 232.1 216.85 233.35 215.1 233.35 L182.2 233.35 Q180.4 233.35 179.15 232.1 177.9 230.85 177.9 229.05 L177.9 196.2 Q177.9 194.4 179.15 193.15 180.4 191.85 182.2 191.85 L215.1 191.85 Q216.85 191.85 218.1 193.15" fill="url(#gradient0)" fill-rule="evenodd" stroke="none"/>
    <path d="M178.35 196.65 L177.9 210.45 177.9 196.2 Q177.9 194.4 179.15 193.15 180.4 191.85 182.2 191.85 L215.55 191.85 182.65 192.8 Q180.85 192.8 179.65 193.85 178.35 194.9 178.35 196.65" fill="#ef9fa0" fill-rule="evenodd" stroke="none"/>
  </g>
  <defs>
    <radialGradient cx="0" cy="0" gradientTransform="matrix(0.0527, 0.0527, 0.0527, -0.0527, 190.7, 211.8)" gradientUnits="userSpaceOnUse" id="gradient0" r="819.2" spreadMethod="pad">
      <stop offset="0.12549019607843137" stop-color="#990000"/>
      <stop offset="1.0" stop-color="#330000"/>
    </radialGradient>
  </defs>
</svg>
