<?xml version="1.0" encoding="UTF-8" standalone="no"?>
<svg xmlns:xlink="http://www.w3.org/1999/xlink" height="41.5px" width="41.5px" xmlns="http://www.w3.org/2000/svg">
  <g transform="matrix(1.0, 0.0, 0.0, 1.0, -244.1, -191.85)">
    <path d="M245.35 193.15 Q246.6 191.85 248.4 191.85 L281.3 191.85 Q283.05 191.85 284.3 193.15 285.6 194.4 285.6 196.2 L285.6 229.05 Q285.6 230.85 284.3 232.1 283.05 233.35 281.3 233.35 L248.4 233.35 Q246.6 233.35 245.35 232.1 244.1 230.85 244.1 229.05 L244.1 196.2 Q244.1 194.4 245.35 193.15" fill="url(#gradient0)" fill-rule="evenodd" stroke="none"/>
    <path d="M244.55 196.65 L244.1 210.45 244.1 196.2 Q244.1 194.4 245.35 193.15 246.6 191.85 248.4 191.85 L281.75 191.85 248.85 192.8 Q247.05 192.8 245.85 193.85 244.55 194.9 244.55 196.65" fill="#ef9fa0" fill-rule="evenodd" stroke="none"/>
  </g>
  <defs>
    <radialGradient cx="0" cy="0" gradientTransform="matrix(0.0527, 0.0527, 0.0527, -0.0527, 256.9, 211.8)" gradientUnits="userSpaceOnUse" id="gradient0" r="819.2" spreadMethod="pad">
      <stop offset="0.12549019607843137" stop-color="#990000"/>
      <stop offset="1.0" stop-color="#330000"/>
    </radialGradient>
  </defs>
</svg>
