<?xml version="1.0" encoding="UTF-8" standalone="no"?>
<svg xmlns:xlink="http://www.w3.org/1999/xlink" height="216.15px" width="125.2px" xmlns="http://www.w3.org/2000/svg">
  <g transform="matrix(1.0, 0.0, 0.0, 1.0, -335.65, -76.45)">
    <path d="M436.0 82.85 Q439.95 85.85 442.85 90.9 445.75 96.0 448.0 103.95 450.15 111.55 452.05 123.1 454.75 139.55 459.6 184.55 462.65 212.95 458.4 234.8 454.55 254.6 444.9 268.15 436.2 280.4 423.4 286.7 411.75 292.45 398.25 292.6 384.75 292.45 373.1 286.7 360.35 280.4 351.65 268.15 342.0 254.6 338.15 234.8 333.85 212.95 336.95 184.55 341.75 139.55 344.5 123.1 346.4 111.55 348.55 103.95 350.8 96.0 353.7 90.9 356.55 85.85 360.55 82.85 364.35 79.95 369.8 78.5 374.7 77.25 382.2 76.8 387.55 76.45 398.25 76.45 409.0 76.45 414.35 76.8 421.8 77.25 426.7 78.5 432.2 79.95 436.0 82.85" fill="url(#gradient0)" fill-rule="evenodd" stroke="none"/>
    <path d="M399.85 98.0 Q400.25 98.25 400.25 98.75 L400.25 122.9 Q400.25 123.4 399.85 123.65 L399.85 98.0" fill="url(#gradient1)" fill-rule="evenodd" stroke="none"/>
    <path d="M423.4 77.95 Q432.7 79.85 437.8 85.7 443.1 91.85 446.55 105.25 449.6 117.35 452.65 142.0 427.75 137.85 400.25 137.7 L400.25 128.15 Q402.2 128.0 403.55 126.55 404.9 125.1 404.9 123.15 L404.9 99.0 Q404.9 97.0 403.55 95.6 402.2 94.15 400.25 94.0 L400.25 76.55 Q408.5 76.55 413.1 76.8 419.2 77.1 423.4 77.95" fill="url(#gradient2)" fill-rule="evenodd" stroke="none"/>
    <path d="M397.15 76.55 L397.15 94.0 Q395.2 94.15 393.85 95.6 392.55 97.0 392.55 99.0 L392.55 123.15 Q392.55 125.1 393.85 126.55 395.2 128.0 397.15 128.15 L397.15 137.7 Q369.65 137.85 344.8 142.0 347.85 117.35 350.9 105.25 354.3 91.85 359.65 85.7 364.75 79.85 374.0 77.95 378.2 77.1 384.3 76.8 388.9 76.55 397.15 76.55" fill="url(#gradient3)" fill-rule="evenodd" stroke="none"/>
    <path d="M396.25 98.75 Q396.25 98.25 396.7 98.0 L396.7 123.65 Q396.25 123.4 396.25 122.9 L396.25 98.75" fill="url(#gradient4)" fill-rule="evenodd" stroke="none"/>
    <path d="M401.9 100.1 Q403.0 103.8 403.35 108.6 403.6 111.8 403.5 117.25 403.5 120.4 402.75 122.25 401.7 125.0 399.0 124.85 398.1 124.85 396.65 123.85 395.0 122.7 395.15 121.7 L396.5 101.3 400.7 98.0 Q400.95 97.8 401.45 98.9 L401.9 100.1" fill="url(#gradient5)" fill-rule="evenodd" stroke="none"/>
    <path d="M401.7 100.05 L401.7 121.3 Q401.7 122.35 400.95 123.1 400.25 123.85 399.25 123.85 L397.3 123.85 Q396.3 123.85 395.55 123.1 394.85 122.35 394.85 121.3 L394.85 100.05 Q394.85 98.95 395.55 98.2 396.3 97.45 397.3 97.45 L399.25 97.45 Q400.25 97.45 400.95 98.2 401.7 98.95 401.7 100.05" fill="url(#gradient6)" fill-rule="evenodd" stroke="none"/>
  </g>
  <defs>
    <radialGradient cx="0" cy="0" gradientTransform="matrix(0.0, -0.1281, -0.1002, 0.0, 390.2, 184.55)" gradientUnits="userSpaceOnUse" id="gradient0" r="819.2" spreadMethod="pad">
      <stop offset="0.0" stop-color="#aaacae"/>
      <stop offset="0.9254901960784314" stop-color="#4c4c4d"/>
      <stop offset="1.0" stop-color="#333333"/>
      <stop offset="1.0" stop-color="#4c4c4d"/>
      <stop offset="1.0" stop-color="#4c4c4d"/>
      <stop offset="1.0" stop-color="#4c4c4d"/>
    </radialGradient>
    <radialGradient cx="0" cy="0" gradientTransform="matrix(0.0, 0.1182, 0.1182, 0.0, 400.2, 188.85)" gradientUnits="userSpaceOnUse" id="gradient1" r="819.2" spreadMethod="pad">
      <stop offset="0.0" stop-color="#aaacae"/>
      <stop offset="1.0" stop-color="#4c4c4d"/>
    </radialGradient>
    <radialGradient cx="0" cy="0" gradientTransform="matrix(0.0, -0.1918, -0.1185, 0.0, 390.7, 192.8)" gradientUnits="userSpaceOnUse" id="gradient2" r="819.2" spreadMethod="pad">
      <stop offset="0.0" stop-color="#aaacae"/>
      <stop offset="1.0" stop-color="#4c4c4d"/>
    </radialGradient>
    <radialGradient cx="0" cy="0" gradientTransform="matrix(0.0, -0.1918, -0.1185, 0.0, 390.7, 192.8)" gradientUnits="userSpaceOnUse" id="gradient3" r="819.2" spreadMethod="pad">
      <stop offset="0.0" stop-color="#aaacae"/>
      <stop offset="1.0" stop-color="#4c4c4d"/>
    </radialGradient>
    <radialGradient cx="0" cy="0" gradientTransform="matrix(0.0, 0.1182, 0.1182, 0.0, 400.2, 188.85)" gradientUnits="userSpaceOnUse" id="gradient4" r="819.2" spreadMethod="pad">
      <stop offset="0.0" stop-color="#aaacae"/>
      <stop offset="1.0" stop-color="#4c4c4d"/>
    </radialGradient>
    <radialGradient cx="0" cy="0" gradientTransform="matrix(0.0, -0.0178, -0.0068, 0.0, 399.35, 111.4)" gradientUnits="userSpaceOnUse" id="gradient5" r="819.2" spreadMethod="pad">
      <stop offset="0.0" stop-color="#373535"/>
      <stop offset="1.0" stop-color="#4c4c4d"/>
    </radialGradient>
    <radialGradient cx="0" cy="0" gradientTransform="matrix(0.0, -0.0172, -0.0065, 0.0, 398.25, 110.65)" gradientUnits="userSpaceOnUse" id="gradient6" r="819.2" spreadMethod="pad">
      <stop offset="0.0" stop-color="#aaacae"/>
      <stop offset="0.9254901960784314" stop-color="#4c4c4d"/>
      <stop offset="1.0" stop-color="#333333"/>
      <stop offset="1.0" stop-color="#4c4c4d"/>
      <stop offset="1.0" stop-color="#4c4c4d"/>
      <stop offset="1.0" stop-color="#4c4c4d"/>
    </radialGradient>
  </defs>
</svg>
