<?xml version="1.0" encoding="UTF-8" standalone="no"?>
<svg xmlns:xlink="http://www.w3.org/1999/xlink" height="171.9px" width="177.15px" xmlns="http://www.w3.org/2000/svg">
  <g transform="matrix(1.0, 0.0, 0.0, 1.0, 0.0, 0.0)">
    <path d="M8.55 0.05 Q7.2 13.35 10.85 36.3 L14.7 58.55 18.85 83.6 Q20.45 94.55 19.8 109.15 19.4 116.95 17.7 134.2 16.2 149.15 16.2 156.0 16.2 166.45 18.9 171.9 7.2 152.75 2.7 126.0 -2.2 96.75 1.8 59.5 6.05 19.9 8.55 0.05" fill="url(#gradient0)" fill-rule="evenodd" stroke="none"/>
    <path d="M171.75 26.7 L175.35 59.35 Q179.35 96.6 174.45 125.9 169.95 152.6 158.25 171.75 160.95 166.3 160.95 155.85 160.95 149.0 159.45 134.05 157.7 116.8 157.35 109.0 156.7 94.4 158.3 83.4 159.75 73.5 162.45 58.4 L166.3 36.2 Q168.15 24.6 168.7 16.45 169.35 7.3 168.6 0.0 L171.75 26.7" fill="url(#gradient1)" fill-rule="evenodd" stroke="none"/>
    <path d="M1.8 59.5 L2.9 49.1 2.1 59.5 Q-0.85 97.5 2.9 127.25 -2.3 97.5 1.8 59.5" fill="url(#gradient2)" fill-rule="evenodd" stroke="none"/>
    <path d="M9.05 0.1 Q7.7 13.4 11.35 36.3 L15.2 58.55 19.35 83.6 Q20.95 94.55 20.3 109.15 19.9 116.95 18.2 134.2 16.7 149.15 16.7 156.0 16.7 166.45 19.4 171.9 15.85 166.1 13.05 159.75 12.8 153.6 13.45 143.45 L14.75 124.45 Q16.5 98.8 14.9 83.6 L10.25 45.85 Q7.75 25.6 7.3 14.5 L9.05 0.1" fill="url(#gradient3)" fill-rule="evenodd" stroke="none"/>
    <path d="M175.0 59.35 L173.65 43.85 175.35 59.35 Q179.65 99.3 173.65 130.1 178.35 99.3 175.0 59.35" fill="url(#gradient4)" fill-rule="evenodd" stroke="none"/>
    <path d="M168.7 16.45 Q169.35 7.35 168.6 0.1 L169.95 11.1 Q169.7 22.75 166.85 43.75 L164.25 62.65 161.55 83.4 Q159.75 98.9 161.8 126.1 L163.3 145.75 Q163.9 156.0 163.4 162.2 161.05 167.2 158.25 171.75 160.95 166.3 160.95 155.85 160.95 149.0 159.45 134.05 157.7 116.8 157.35 109.0 156.7 94.4 158.3 83.4 159.75 73.5 162.45 58.4 L166.3 36.2 Q168.15 24.6 168.7 16.45" fill="url(#gradient5)" fill-rule="evenodd" stroke="none"/>
  </g>
  <defs>
    <radialGradient cx="0" cy="0" gradientTransform="matrix(0.0903, -0.3412, -0.2109, -0.0558, 11.9, 106.4)" gradientUnits="userSpaceOnUse" id="gradient0" r="819.2" spreadMethod="pad">
      <stop offset="0.0" stop-color="#666666"/>
      <stop offset="1.0" stop-color="#333333"/>
    </radialGradient>
    <radialGradient cx="0" cy="0" gradientTransform="matrix(-0.0903, -0.3412, 0.2109, -0.0558, 256.3, 106.4)" gradientUnits="userSpaceOnUse" id="gradient1" r="819.2" spreadMethod="pad">
      <stop offset="0.0" stop-color="#666666"/>
      <stop offset="1.0" stop-color="#333333"/>
    </radialGradient>
    <radialGradient cx="0" cy="0" gradientTransform="matrix(0.0251, -0.0946, -0.0585, -0.0155, -11.55, 97.7)" gradientUnits="userSpaceOnUse" id="gradient2" r="819.2" spreadMethod="pad">
      <stop offset="0.0" stop-color="#999999"/>
      <stop offset="1.0" stop-color="#333333"/>
    </radialGradient>
    <radialGradient cx="0" cy="0" gradientTransform="matrix(0.0704, -0.2657, -0.1642, -0.0435, -45.0, 106.55)" gradientUnits="userSpaceOnUse" id="gradient3" r="819.2" spreadMethod="pad">
      <stop offset="0.0" stop-color="#999999"/>
      <stop offset="1.0" stop-color="#333333"/>
    </radialGradient>
    <radialGradient cx="0" cy="0" gradientTransform="matrix(0.0281, -0.106, -0.0655, -0.0173, 159.9, 97.5)" gradientUnits="userSpaceOnUse" id="gradient4" r="819.2" spreadMethod="pad">
      <stop offset="0.0" stop-color="#999999"/>
      <stop offset="1.0" stop-color="#333333"/>
    </radialGradient>
    <radialGradient cx="0" cy="0" gradientTransform="matrix(0.0694, -0.2619, -0.1618, -0.0429, 106.4, 106.4)" gradientUnits="userSpaceOnUse" id="gradient5" r="819.2" spreadMethod="pad">
      <stop offset="0.0" stop-color="#999999"/>
      <stop offset="1.0" stop-color="#333333"/>
    </radialGradient>
  </defs>
</svg>
