<?xml version="1.0" encoding="UTF-8" standalone="no"?>
<svg xmlns:xlink="http://www.w3.org/1999/xlink" height="92.85px" width="74.7px" xmlns="http://www.w3.org/2000/svg">
  <g transform="matrix(1.0, 0.0, 0.0, 1.0, 0.0, 0.0)">
    <path d="M67.75 30.6 L67.85 42.3 67.85 61.45 Q67.75 67.6 70.7 70.35 72.2 71.8 74.0 72.7 74.4 73.65 74.35 78.3 74.3 83.1 73.85 86.7 52.1 86.05 23.85 89.4 L0.0 92.85 Q2.05 79.8 4.45 65.7 9.3 37.6 11.0 32.45 13.3 25.6 16.25 20.45 19.8 14.2 24.85 9.45 31.6 3.05 58.25 0.1 61.1 -0.2 65.85 0.25 70.85 0.75 72.25 1.6 74.6 3.4 74.7 11.95 74.8 17.55 74.0 23.95 69.65 24.45 68.25 27.6 L67.75 30.6" fill="url(#gradient0)" fill-rule="evenodd" stroke="none"/>
  </g>
  <defs>
    <radialGradient cx="0" cy="0" gradientTransform="matrix(0.0652, 0.0203, -0.0262, 0.0843, 41.0, 48.0)" gradientUnits="userSpaceOnUse" id="gradient0" r="819.2" spreadMethod="pad">
      <stop offset="0.0" stop-color="#ff0000" stop-opacity="0.45882353"/>
      <stop offset="0.6196078431372549" stop-color="#cc0000" stop-opacity="0.9490196"/>
      <stop offset="1.0" stop-color="#660000"/>
    </radialGradient>
  </defs>
</svg>
