<?xml version="1.0" encoding="UTF-8" standalone="no"?>
<svg xmlns:xlink="http://www.w3.org/1999/xlink" height="69.75px" width="314.15px" xmlns="http://www.w3.org/2000/svg">
  <g transform="matrix(1.0, 0.0, 0.0, 1.0, -142.7, -73.7)">
    <path d="M397.0 93.15 L397.2 84.1 Q397.4 77.45 394.15 76.8 390.85 76.2 381.1 77.05 371.3 77.85 363.3 82.65 355.25 87.4 352.2 100.45 349.1 113.4 346.55 129.6 L344.3 142.45 358.3 140.15 Q376.3 137.95 396.7 138.05 397.1 135.0 397.1 131.4 L397.0 128.1 Q395.95 128.0 394.85 127.15 392.7 125.45 392.7 121.65 L392.55 107.65 392.35 98.1 392.8 95.85 Q393.9 93.65 397.0 93.65 M396.65 138.55 L396.7 138.05" fill="none" stroke="#ff0000" stroke-linecap="round" stroke-linejoin="round" stroke-width="2.0"/>
    <path d="M294.9 74.7 L359.1 74.7 365.65 80.1 M143.7 74.7 L177.85 74.7" fill="none" stroke="#ff0000" stroke-linecap="round" stroke-linejoin="round" stroke-width="2.0"/>
    <path d="M398.3 97.45 L400.25 97.45 Q401.25 97.45 401.95 98.2 402.7 98.95 402.7 100.05 L402.7 121.3 Q402.7 122.35 401.95 123.1 401.25 123.85 400.25 123.85 L398.3 123.85 Q397.3 123.85 396.55 123.1 395.85 122.35 395.85 121.3 L395.85 100.05 Q395.85 98.95 396.55 98.2 397.3 97.45 398.3 97.45" fill="#ac2727" fill-rule="evenodd" stroke="none"/>
    <path d="M398.3 97.45 L400.25 97.45 Q401.25 97.45 401.95 98.2 402.7 98.95 402.7 100.05 L402.7 121.3 Q402.7 122.35 401.95 123.1 401.25 123.85 400.25 123.85 L398.3 123.85 Q397.3 123.85 396.55 123.1 395.85 122.35 395.85 121.3 L395.85 100.05 Q395.85 98.95 396.55 98.2 397.3 97.45 398.3 97.45 Z" fill="none" stroke="#ff0000" stroke-linecap="round" stroke-linejoin="round" stroke-width="2.0"/>
    <path d="M455.85 74.7 L427.65 74.7 400.95 98.1" fill="none" stroke="#ff0000" stroke-linecap="round" stroke-linejoin="round" stroke-width="2.0"/>
  </g>
</svg>
