<?xml version="1.0" encoding="UTF-8" standalone="no"?>
<svg xmlns:xlink="http://www.w3.org/1999/xlink" height="17.3px" width="15.85px" xmlns="http://www.w3.org/2000/svg">
  <g transform="matrix(1.0, 0.0, 0.0, 1.0, 113.65, 10.5)">
    <path d="M-100.05 -8.05 Q-97.8 -5.5 -97.8 -1.85 -97.8 1.65 -100.05 4.25 -102.4 6.8 -105.65 6.8 -108.9 6.8 -111.3 4.25 -113.65 1.65 -113.65 -1.85 -113.65 -5.5 -111.3 -8.05 -108.9 -10.5 -105.65 -10.5 -102.4 -10.5 -100.05 -8.05 M-104.0 2.3 L-104.65 2.1 -105.7 2.1 -106.6 2.1 -107.25 2.3 -107.6 2.75 -107.65 3.45 -107.6 4.1 -107.25 4.55 -106.6 4.75 -105.7 4.85 -104.65 4.75 -104.0 4.55 -103.75 4.1 -103.55 3.45 -103.75 2.75 -104.0 2.3 M-104.1 -8.25 L-107.25 -8.25 -107.25 0.75 -104.1 0.75 -104.1 -8.25" fill="#ffffff" fill-rule="evenodd" stroke="none"/>
  </g>
</svg>
