<?xml version="1.0" encoding="UTF-8" standalone="no"?>
<svg xmlns:xlink="http://www.w3.org/1999/xlink" height="31.85px" width="96.75px" xmlns="http://www.w3.org/2000/svg">
  <g transform="matrix(1.0, 0.0, 0.0, 1.0, 0.35, -1.9)">
    <path d="M5.15 2.4 L90.9 2.4 Q95.9 2.4 95.9 7.4 L95.9 28.25 Q95.9 33.25 90.9 33.25 L5.15 33.25 Q0.15 33.25 0.15 28.25 L0.15 7.4 Q0.15 2.4 5.15 2.4" fill="url(#gradient0)" fill-rule="evenodd" stroke="none"/>
    <path d="M5.15 2.4 L90.9 2.4 Q95.9 2.4 95.9 7.4 L95.9 28.25 Q95.9 33.25 90.9 33.25 L5.15 33.25 Q0.15 33.25 0.15 28.25 L0.15 7.4 Q0.15 2.4 5.15 2.4 Z" fill="none" stroke="url(#gradient1)" stroke-linecap="round" stroke-linejoin="round" stroke-width="1.0"/>
  </g>
  <defs>
    <linearGradient gradientTransform="matrix(0.1051, -0.0353, 0.005, 0.0149, 79.15, 4.2)" gradientUnits="userSpaceOnUse" id="gradient0" spreadMethod="pad" x1="-819.2" x2="819.2">
      <stop offset="0.0" stop-color="#454545"/>
      <stop offset="1.0" stop-color="#000000"/>
    </linearGradient>
    <linearGradient gradientTransform="matrix(0.0087, -0.0167, 0.0159, 0.0082, 51.35, 15.4)" gradientUnits="userSpaceOnUse" id="gradient1" spreadMethod="pad" x1="-819.2" x2="819.2">
      <stop offset="0.0" stop-color="#333333"/>
      <stop offset="1.0" stop-color="#666666"/>
    </linearGradient>
  </defs>
</svg>
