<?xml version="1.0" encoding="UTF-8" standalone="no"?>
<svg xmlns:xlink="http://www.w3.org/1999/xlink" height="62.45px" width="106.5px" xmlns="http://www.w3.org/2000/svg">
  <g transform="matrix(1.0, 0.0, 0.0, 1.0, 6.5, 5.0)">
    <path d="M100.0 57.45 L-6.5 57.45 -6.5 -5.0 100.0 -5.0 100.0 57.45" fill="#e1e1e1" fill-opacity="0.0" fill-rule="evenodd" stroke="none"/>
    <path d="M38.85 15.75 L58.7 3.0 59.15 2.65 Q59.5 3.55 59.5 4.9 L59.5 34.05 Q59.5 38.55 55.0 38.55 L5.75 38.55 3.8 38.3 22.2 26.45 22.2 29.25 28.35 29.25 28.35 22.5 32.7 19.7 32.7 29.25 38.85 29.25 38.85 15.75 M22.2 22.95 L2.0 35.9 1.65 36.25 Q1.25 35.3 1.25 34.05 L1.25 4.9 Q1.25 0.4 5.75 0.4 L55.0 0.4 56.9 0.65 38.85 12.25 38.85 8.05 32.7 8.05 32.7 16.2 28.35 19.0 28.35 8.05 22.2 8.05 22.2 22.95" fill="#000000" fill-rule="evenodd" stroke="none"/>
    <path d="M59.15 0.95 L59.4 1.45 59.6 1.35 59.85 1.8 Q60.5 3.0 60.5 4.9 L60.5 34.05 Q60.5 39.55 55.0 39.55 L5.75 39.55 Q4.15 39.55 3.0 39.05 L2.55 38.9 2.65 38.65 2.5 38.65 Q1.9 38.5 1.55 37.95 L1.35 37.45 1.15 37.55 0.9 37.1 Q0.25 35.9 0.25 34.05 L0.25 4.9 Q0.25 -0.6 5.75 -0.6 L55.0 -0.6 57.7 -0.1 58.15 0.1 58.1 0.25 58.25 0.3 Q58.8 0.4 59.15 0.95 M22.2 26.45 L3.8 38.3 5.75 38.55 55.0 38.55 Q59.5 38.55 59.5 34.05 L59.5 4.9 Q59.5 3.55 59.15 2.65 L58.7 3.0 38.85 15.75 32.7 19.7 28.35 22.5 22.2 26.45 M38.85 12.25 L56.9 0.65 55.0 0.4 5.75 0.4 Q1.25 0.4 1.25 4.9 L1.25 34.05 Q1.25 35.3 1.65 36.25 L2.0 35.9 22.2 22.95 28.35 19.0 32.7 16.2 38.85 12.25" fill="#ba1010" fill-rule="evenodd" stroke="none"/>
    <path d="M22.2 26.45 L28.35 22.5 28.35 29.25 22.2 29.25 22.2 26.45 M32.7 19.7 L38.85 15.75 38.85 29.25 32.7 29.25 32.7 19.7 M38.85 12.25 L32.7 16.2 32.7 8.05 38.85 8.05 38.85 12.25 M28.35 19.0 L22.2 22.95 22.2 8.05 28.35 8.05 28.35 19.0" fill="#ea0f0f" fill-rule="evenodd" stroke="none"/>
  </g>
</svg>
