<?xml version="1.0" encoding="UTF-8" standalone="no"?>
<svg xmlns:xlink="http://www.w3.org/1999/xlink" height="38.4px" width="58.1px" xmlns="http://www.w3.org/2000/svg">
  <g transform="matrix(1.0, 0.0, 0.0, 1.0, -1.3, -0.25)">
    <path d="M44.9 7.7 L44.95 7.95 44.0 15.45 44.0 15.55 42.55 25.6 42.5 25.7 42.5 25.8 Q42.25 27.8 40.65 29.15 39.15 30.6 37.25 30.6 35.3 30.6 34.15 29.15 33.0 27.8 33.2 25.8 33.45 23.8 34.95 22.35 36.5 21.05 38.45 21.05 40.35 21.05 41.5 22.35 L41.95 22.95 42.95 15.95 26.55 15.95 25.1 26.1 24.9 26.4 Q24.5 28.0 23.2 29.15 21.7 30.6 19.8 30.6 17.8 30.6 16.65 29.15 15.5 27.8 15.75 25.8 16.0 23.8 17.5 22.35 19.05 21.05 21.0 21.05 22.95 21.05 24.1 22.35 L24.55 23.0 26.55 7.85 26.75 7.55 Q26.85 7.4 27.05 7.4 L44.45 7.4 44.75 7.5 44.9 7.7" fill="#ffffff" fill-rule="evenodd" stroke="none"/>
    <path d="M2.8 37.15 L57.9 1.75" fill="none" stroke="#ffffff" stroke-linecap="round" stroke-linejoin="miter" stroke-width="3.0"/>
  </g>
</svg>
