<?xml version="1.0" encoding="UTF-8" standalone="no"?>
<svg xmlns:xlink="http://www.w3.org/1999/xlink" height="40.45px" width="75.4px" xmlns="http://www.w3.org/2000/svg">
  <g transform="matrix(1.0, 0.0, 0.0, 1.0, -0.1, 0.75)">
    <path d="M5.75 -0.1 L55.0 -0.1 Q60.0 -0.1 60.0 4.9 L60.0 34.05 Q60.0 39.05 55.0 39.05 L5.75 39.05 Q0.75 39.05 0.75 34.05 L0.75 4.9 Q0.75 -0.1 5.75 -0.1" fill="#2e0e0e" fill-rule="evenodd" stroke="none"/>
    <path d="M5.75 -0.1 Q0.75 -0.1 0.75 4.9 L0.75 34.05 Q0.75 39.05 5.75 39.05 L55.0 39.05 Q60.0 39.05 60.0 34.05 L60.0 4.9 Q60.0 -0.1 55.0 -0.1 L5.75 -0.1 Z" fill="none" stroke="#ffffff" stroke-linecap="square" stroke-linejoin="miter" stroke-width="1.0"/>
    <path d="M72.75 7.3 Q71.8 8.3 70.35 8.3 68.95 8.3 67.95 7.3 66.95 6.3 66.95 4.9 66.95 3.5 67.95 2.5 68.95 1.5 70.35 1.5 71.8 1.5 72.75 2.5 73.75 3.5 73.75 4.9 73.75 6.3 72.75 7.3" fill="#e41b1b" fill-rule="evenodd" stroke="none"/>
    <path d="M66.95 18.7 Q66.95 17.3 67.95 16.3 68.95 15.3 70.35 15.3 71.8 15.3 72.75 16.3 73.75 17.3 73.75 18.7 73.75 20.1 72.75 21.1 71.8 22.1 70.35 22.1 68.95 22.1 67.95 21.1 66.95 20.1 66.95 18.7" fill="#000000" fill-rule="evenodd" stroke="none"/>
    <path d="M72.75 7.3 Q71.8 8.3 70.35 8.3 68.95 8.3 67.95 7.3 66.95 6.3 66.95 4.9 66.95 3.5 67.95 2.5 68.95 1.5 70.35 1.5 71.8 1.5 72.75 2.5 73.75 3.5 73.75 4.9 73.75 6.3 72.75 7.3 M66.95 18.7 Q66.95 17.3 67.95 16.3 68.95 15.3 70.35 15.3 71.8 15.3 72.75 16.3 73.75 17.3 73.75 18.7 73.75 20.1 72.75 21.1 71.8 22.1 70.35 22.1 68.95 22.1 67.95 21.1 66.95 20.1 66.95 18.7" fill="none" stroke="#930d0d" stroke-linecap="square" stroke-linejoin="miter" stroke-width="2.0"/>
  </g>
</svg>
