<?xml version="1.0" encoding="UTF-8" standalone="no"?>
<svg xmlns:xlink="http://www.w3.org/1999/xlink" height="38.4px" width="58.1px" xmlns="http://www.w3.org/2000/svg">
  <g transform="matrix(1.0, 0.0, 0.0, 1.0, -1.3, -0.25)">
    <path d="M53.1 32.3 Q54.2 32.3 55.0 31.5 55.8 30.7 55.8 29.6 55.8 28.5 55.0 27.7 54.2 26.9 53.1 26.9 52.0 26.9 51.2 27.7 50.4 28.5 50.4 29.6 50.4 30.7 51.2 31.5 52.0 32.3 53.1 32.3 M55.0 20.45 Q55.8 19.65 55.8 18.55 55.8 17.45 55.0 16.65 54.2 15.85 53.1 15.85 52.0 15.85 51.2 16.65 50.4 17.45 50.4 18.55 50.4 19.65 51.2 20.45 52.0 21.25 53.1 21.25 54.2 21.25 55.0 20.45 M53.1 4.65 Q52.0 4.65 51.2 5.45 50.4 6.25 50.4 7.35 50.4 8.45 51.2 9.25 52.0 10.05 53.1 10.05 54.2 10.05 55.0 9.25 55.8 8.45 55.8 7.35 55.8 6.25 55.0 5.45 54.2 4.65 53.1 4.65 M53.05 1.55 Q58.05 1.55 58.05 6.55 L58.05 31.8 Q58.05 36.8 53.05 36.8 L48.5 36.8 48.5 1.55 53.05 1.55 M36.95 17.95 L26.0 28.9 26.0 6.95 36.95 17.95 M9.15 27.7 Q8.35 26.9 7.25 26.9 6.15 26.9 5.35 27.7 4.55 28.5 4.55 29.6 4.55 30.7 5.35 31.5 6.15 32.3 7.25 32.3 8.35 32.3 9.15 31.5 9.95 30.7 9.95 29.6 9.95 28.5 9.15 27.7 M9.15 20.45 Q9.95 19.65 9.95 18.55 9.95 17.45 9.15 16.65 8.35 15.85 7.25 15.85 6.15 15.85 5.35 16.65 4.55 17.45 4.55 18.55 4.55 19.65 5.35 20.45 6.15 21.25 7.25 21.25 8.35 21.25 9.15 20.45 M2.65 6.55 Q2.65 1.55 7.65 1.55 L11.8 1.55 11.8 36.8 7.65 36.8 Q2.65 36.8 2.65 31.8 L2.65 6.55 M9.15 5.45 Q8.35 4.65 7.25 4.65 6.15 4.65 5.35 5.45 4.55 6.25 4.55 7.35 4.55 8.45 5.35 9.25 6.15 10.05 7.25 10.05 8.35 10.05 9.15 9.25 9.95 8.45 9.95 7.35 9.95 6.25 9.15 5.45" fill="#e41414" fill-rule="evenodd" stroke="none"/>
    <path d="M2.8 37.15 L57.9 1.75" fill="none" stroke="#ba1010" stroke-linecap="round" stroke-linejoin="miter" stroke-width="3.0"/>
  </g>
</svg>
