<?xml version="1.0" encoding="UTF-8" standalone="no"?>
<svg xmlns:xlink="http://www.w3.org/1999/xlink" height="77.1px" width="76.8px" xmlns="http://www.w3.org/2000/svg">
  <g transform="matrix(1.0, 0.0, 0.0, 1.0, 1.1, 1.65)">
    <path d="M74.55 38.2 Q74.55 53.5 63.6 64.5 52.6 75.45 37.3 75.45 21.75 75.45 11.0 64.5 0.0 53.5 0.0 38.2 0.0 22.7 11.0 11.9 16.2 6.65 22.4 3.85 25.3 2.6 28.2 1.85 32.2 0.95 36.35 0.95 L37.3 0.95 Q43.95 0.95 49.7 2.9 57.35 5.7 63.6 11.9 74.55 22.7 74.55 38.2" fill="#242021" fill-rule="evenodd" stroke="none"/>
    <path d="M60.75 13.4 Q51.05 3.65 37.25 3.65 23.6 3.65 13.85 13.4 4.15 23.15 4.15 36.8 4.15 50.55 13.85 60.2 23.6 69.95 37.25 69.95 51.05 69.95 60.75 60.2 70.5 50.55 70.5 36.8 70.5 23.15 60.75 13.4 M74.2 36.8 Q74.2 52.1 63.35 62.9 52.6 73.75 37.25 73.75 22.05 73.75 11.15 62.9 0.4 52.1 0.4 36.8 0.4 21.6 11.15 10.7 22.05 -0.15 37.25 -0.15 52.6 -0.15 63.35 10.7 74.2 21.6 74.2 36.8" fill="#b8b8b8" fill-rule="evenodd" stroke="none"/>
    <path d="M74.2 36.8 Q74.2 52.1 63.35 62.9 52.6 73.75 37.25 73.75 22.05 73.75 11.15 62.9 0.4 52.1 0.4 36.8 0.4 21.6 11.15 10.7 22.05 -0.15 37.25 -0.15 52.6 -0.15 63.35 10.7 74.2 21.6 74.2 36.8 Z" fill="none" stroke="#454344" stroke-linecap="round" stroke-linejoin="round" stroke-width="3.0"/>
    <path d="M53.05 18.85 L37.65 33.95 49.6 51.15 54.95 53.7 54.95 59.15 35.95 59.15 35.95 54.05 40.0 52.15 30.95 38.6 24.05 45.55 24.05 51.1 29.65 54.0 29.65 59.1 14.1 59.1 9.5 53.55 16.55 51.8 16.55 22.5 13.3 20.25 10.6 18.25 14.35 13.65 29.5 13.65 29.5 18.55 24.25 22.35 24.25 36.3 40.9 20.3 35.4 19.2 35.4 13.5 53.05 13.5 53.05 18.85" fill="#f9f9f9" fill-rule="evenodd" stroke="none"/>
    <path d="M51.5 45.75 Q55.7 36.2 51.5 26.0 L55.65 23.85 Q58.5 29.05 58.5 35.85 58.5 42.65 55.65 47.95 L51.5 45.75 M48.35 44.75 L44.2 42.45 Q46.65 35.85 44.2 29.3 L48.35 27.0 Q50.35 30.9 50.35 35.85 50.35 40.85 48.35 44.75 M59.3 22.35 L63.4 19.9 Q67.45 26.6 67.45 35.85 67.45 45.1 63.4 51.85 L59.3 49.35 Q65.7 35.85 59.3 22.35" fill="#a32835" fill-rule="evenodd" stroke="none"/>
  </g>
</svg>
