<?xml version="1.0" encoding="UTF-8" standalone="no"?>
<svg xmlns:xlink="http://www.w3.org/1999/xlink" height="38.4px" width="58.1px" xmlns="http://www.w3.org/2000/svg">
  <g transform="matrix(1.0, 0.0, 0.0, 1.0, -1.3, -0.25)">
    <path d="M36.4 12.2 Q36.5 12.0 36.7 12.0 36.9 12.0 37.1 12.15 L37.25 12.45 Q37.75 18.45 35.6 24.3 L35.3 24.55 34.95 24.6 34.65 24.3 34.65 23.95 Q36.75 18.35 36.25 12.55 36.25 12.35 36.4 12.2 M32.9 5.2 Q33.0 5.05 33.2 5.05 L33.55 5.2 33.7 5.5 Q34.85 18.7 30.15 31.2 L29.9 31.45 29.55 31.5 29.25 31.3 21.0 20.75 19.95 20.75 19.65 23.1 19.5 23.4 19.15 23.5 16.25 23.5 16.0 23.45 15.8 23.2 15.75 22.95 17.05 12.75 17.25 12.45 Q17.35 12.3 17.55 12.3 L20.45 12.3 20.75 12.4 20.9 12.6 20.95 12.85 20.75 15.1 21.9 15.1 32.9 5.2 M44.05 7.05 Q44.25 7.05 44.45 7.2 L44.6 7.5 Q45.6 18.6 41.65 29.35 L41.35 29.6 41.0 29.65 40.7 29.35 40.7 29.0 Q44.6 18.5 43.6 7.6 43.6 7.4 43.75 7.25 L44.05 7.05 M40.7 9.2 L40.85 9.5 Q41.65 18.25 38.45 26.75 L38.15 27.0 37.8 27.05 37.5 26.75 37.5 26.4 Q40.65 18.15 39.85 9.6 39.85 9.4 40.0 9.25 40.1 9.05 40.3 9.05 40.5 9.05 40.7 9.2" fill="#ffffff" fill-rule="evenodd" stroke="none"/>
    <path d="M2.8 37.15 L57.9 1.75" fill="none" stroke="#ffffff" stroke-linecap="round" stroke-linejoin="miter" stroke-width="3.0"/>
  </g>
</svg>
