<?xml version="1.0" encoding="UTF-8" standalone="no"?>
<svg xmlns:xlink="http://www.w3.org/1999/xlink" height="29.8px" width="41.75px" xmlns="http://www.w3.org/2000/svg">
  <g transform="matrix(1.0, 0.0, 0.0, 1.0, -10.55, -4.5)">
    <path d="M38.35 11.65 Q41.4 14.7 41.4 18.9 41.4 23.1 38.35 26.1 35.35 29.15 31.15 29.15 26.85 29.15 23.9 26.1 20.9 23.1 20.9 18.9 20.9 14.7 23.9 11.65 26.85 8.65 31.15 8.65 35.35 8.65 38.35 11.65 M28.05 15.85 Q26.8 17.1 26.8 18.9 26.8 20.7 28.05 21.95 29.3 23.15 31.1 23.15 32.85 23.15 34.1 21.95 35.35 20.7 35.35 18.9 35.35 17.1 34.1 15.85 32.85 14.6 31.1 14.6 29.3 14.6 28.05 15.85" fill="#ba1010" fill-rule="evenodd" stroke="none"/>
    <path d="M28.05 15.85 Q29.3 14.6 31.1 14.6 32.85 14.6 34.1 15.85 35.35 17.1 35.35 18.9 35.35 20.7 34.1 21.95 32.85 23.15 31.1 23.15 29.3 23.15 28.05 21.95 26.8 20.7 26.8 18.9 26.8 17.1 28.05 15.85" fill="#000000" fill-rule="evenodd" stroke="none"/>
    <path d="M51.3 19.35 Q50.25 22.9 47.3 26.4 41.3 33.3 31.4 33.3 21.5 33.3 15.6 26.4 13.75 24.2 12.45 21.6 L11.55 19.45 Q12.85 15.95 15.95 12.55 22.25 5.5 31.45 5.5 40.7 5.5 46.95 12.5 50.1 15.95 51.3 19.35 Z" fill="none" stroke="#ba1010" stroke-linecap="round" stroke-linejoin="round" stroke-width="2.0"/>
  </g>
</svg>
