<?xml version="1.0" encoding="UTF-8" standalone="no"?>
<svg xmlns:xlink="http://www.w3.org/1999/xlink" height="38.4px" width="58.1px" xmlns="http://www.w3.org/2000/svg">
  <g transform="matrix(1.0, 0.0, 0.0, 1.0, -1.3, -0.25)">
    <path d="M29.75 3.6 Q34.6 3.6 38.0 6.7 41.4 9.85 42.2 14.9 42.95 19.95 39.15 22.1 37.35 23.1 35.3 23.65 L35.3 23.7 35.2 25.25 35.2 29.4 35.2 29.8 33.9 30.05 Q33.0 30.05 32.7 29.3 L32.65 28.7 32.65 26.6 Q32.65 25.7 32.25 25.15 31.8 24.6 31.8 25.8 L31.85 26.1 31.85 26.15 Q31.6 26.75 31.55 28.35 31.45 30.1 30.7 30.1 29.3 30.1 28.9 29.45 L28.9 25.9 29.0 25.65 Q29.0 25.15 28.55 25.3 28.05 25.45 28.1 25.9 L28.1 27.3 28.05 27.9 27.65 30.1 26.75 30.1 Q26.1 30.05 25.8 29.65 L25.4 28.95 25.4 23.95 Q22.75 23.5 20.55 22.45 16.55 20.5 17.35 15.2 18.1 9.85 21.5 6.7 24.9 3.6 29.75 3.6 M23.75 13.5 Q22.2 12.95 21.0 13.9 19.8 14.8 19.8 16.35 19.8 17.9 21.0 18.95 22.25 20.05 23.95 20.05 25.65 20.05 26.85 18.95 28.1 17.9 28.1 16.35 28.1 14.8 26.7 14.45 L23.75 13.5 M38.3 13.9 Q37.1 12.95 35.55 13.5 L32.6 14.45 Q31.2 14.8 31.2 16.35 31.2 17.9 32.45 18.95 33.65 20.05 35.35 20.05 37.05 20.05 38.3 18.95 39.5 17.9 39.5 16.35 39.5 14.8 38.3 13.9 M32.2 30.0 Q32.35 30.9 33.35 33.45 L33.15 34.1 32.65 34.6 Q31.8 34.6 31.35 34.1 L31.1 33.65 32.0 30.0 32.2 30.0 M28.25 32.45 Q28.4 33.35 29.4 35.9 L29.2 36.55 28.7 37.05 Q27.85 37.05 27.4 36.55 L27.15 36.1 28.05 32.45 28.25 32.45" fill="#ea0f0f" fill-rule="evenodd" stroke="none"/>
    <path d="M2.8 37.15 L57.9 1.75" fill="none" stroke="#ba1010" stroke-linecap="round" stroke-linejoin="miter" stroke-width="3.0"/>
  </g>
</svg>
