<?xml version="1.0" encoding="UTF-8" standalone="no"?>
<svg xmlns:xlink="http://www.w3.org/1999/xlink" height="108.4px" width="129.65px" xmlns="http://www.w3.org/2000/svg">
  <g transform="matrix(1.0, 0.0, 0.0, 1.0, 21.7, 6.85)">
    <path d="M8.2 8.5 L1.3 4.95 -5.1 1.55 Q-6.05 1.45 -7.15 0.85 L-8.9 -0.2 Q-10.15 -0.9 -12.95 -1.85 L-17.65 -3.6 -21.35 -4.85 -21.7 -5.3 -21.5 -5.45 -21.2 -5.2 -18.35 -4.55 -16.45 -3.8 -12.4 -2.25 Q-7.35 -0.45 -4.5 1.4 L-4.4 1.45 Q-0.8 3.1 1.3 4.15 5.7 6.35 8.2 8.5 M19.45 17.5 L16.65 15.0 12.85 12.05 12.55 12.1 Q12.15 12.1 9.9 10.55 L6.8 8.1 Q7.65 8.25 8.65 8.75 8.65 7.8 15.6 4.55 L24.3 0.65 Q27.25 -0.75 31.6 -1.65 L31.0 -3.8 Q31.0 -5.6 31.95 -3.65 L32.75 -1.9 35.7 -2.4 44.85 -3.55 45.05 -4.3 44.9 -5.8 Q44.9 -6.35 45.5 -6.5 46.15 -6.7 46.25 -5.7 L46.3 -4.65 Q47.15 -4.55 47.3 -3.85 L52.75 -4.45 62.75 -4.7 67.15 -3.35 67.25 -3.7 67.95 -5.6 Q69.2 -7.65 69.2 -6.4 L68.55 -4.6 67.95 -3.05 Q72.15 -1.5 77.15 1.1 84.8 5.1 86.95 7.35 L89.7 10.4 90.05 9.95 Q90.4 9.3 91.15 8.75 92.05 8.1 92.05 9.25 92.05 9.7 90.65 11.45 L93.0 14.55 Q96.05 18.9 97.4 21.8 L103.9 35.25 Q106.1 34.8 106.1 35.5 106.1 35.9 104.55 36.5 L104.9 37.2 Q107.2 42.7 107.2 50.5 L107.2 51.8 Q107.95 51.85 107.95 52.25 107.95 52.75 107.15 52.75 L106.7 59.0 Q106.05 64.5 105.1 66.7 104.6 67.8 101.4 76.4 L102.05 76.9 Q102.05 77.55 101.5 77.55 L101.0 77.45 98.95 82.15 Q98.85 87.1 87.9 98.05 L89.55 100.75 Q89.55 101.55 88.95 101.55 87.5 101.55 84.75 95.75 L80.55 86.3 80.1 86.0 80.05 85.65 80.2 85.55 79.55 84.15 76.4 78.15 76.05 77.85 76.05 77.55 74.7 75.45 71.5 70.45 69.55 67.15 Q68.95 66.7 67.2 64.15 L64.45 60.3 64.4 60.2 62.9 58.2 58.9 53.6 55.6 49.7 55.55 49.7 49.4 43.8 45.8 40.35 45.75 40.35 Q45.3 40.35 43.2 37.85 L40.25 34.6 33.35 29.45 30.45 27.1 27.5 24.55 Q25.35 22.85 24.6 21.65 L22.7 20.25 21.55 19.3 Q21.1 19.1 19.45 17.5 M33.35 0.1 L34.65 4.65 36.6 4.25 46.45 3.1 45.4 -2.35 45.05 -2.75 45.0 -2.85 35.55 -1.5 33.05 -1.05 33.35 0.1 M52.6 2.55 L59.0 2.55 65.6 3.8 66.5 0.1 67.0 -2.75 62.7 -4.05 59.2 -4.05 56.5 -3.85 52.7 -3.8 47.35 -3.1 47.1 -2.65 46.65 -2.25 46.95 -0.65 Q46.9 0.15 47.55 3.0 L52.6 2.55 M72.1 5.75 Q77.15 7.75 80.85 11.15 L84.85 15.1 85.55 14.95 85.7 14.95 88.25 12.1 89.45 10.7 Q87.2 8.05 84.35 5.85 82.95 4.75 79.1 2.85 L74.15 0.3 Q71.85 -1.1 67.8 -2.45 L67.6 -0.8 67.35 0.95 66.55 4.05 72.1 5.75 M87.25 17.75 Q90.15 21.15 91.5 24.3 95.4 33.25 96.65 37.4 L98.0 37.05 102.2 35.65 103.6 35.3 101.5 30.8 Q98.55 24.8 94.8 18.7 L90.75 12.3 90.35 11.8 88.75 13.6 86.7 15.9 86.7 16.1 86.45 16.8 87.25 17.75 M64.75 11.8 Q66.7 12.35 69.15 14.0 70.6 14.95 73.65 17.2 76.6 19.25 79.0 21.5 L79.8 20.75 84.35 16.45 84.45 16.35 84.35 16.1 84.45 15.6 80.2 11.6 Q76.45 8.25 72.0 6.45 69.65 5.5 66.35 4.7 L65.15 8.3 64.05 11.25 64.15 11.65 64.75 11.8 M85.45 30.15 Q87.15 33.6 88.5 38.9 L92.0 38.25 96.05 37.5 Q95.0 34.3 90.75 24.35 89.35 21.05 85.9 17.2 L85.55 17.2 85.45 17.2 84.85 17.75 79.65 22.2 Q83.35 25.9 85.45 30.15 M85.45 46.6 L85.7 50.6 89.85 50.6 Q89.4 46.7 88.05 41.1 L87.85 40.15 86.65 40.35 84.35 40.35 Q85.25 43.35 85.45 46.6 M89.4 42.9 L90.6 50.6 93.25 50.6 96.55 51.15 Q96.75 50.65 97.45 50.65 L97.45 49.8 Q97.45 42.85 96.35 38.55 L88.75 40.0 89.4 42.9 M78.25 27.9 L81.45 34.2 Q83.0 36.65 84.0 39.35 L86.5 39.3 87.55 39.1 Q85.8 32.2 84.25 29.5 82.25 26.05 79.8 23.35 L79.15 22.65 76.35 25.15 78.25 27.9 M80.75 47.75 L81.05 50.35 84.8 50.6 84.4 44.6 Q84.4 42.75 83.65 40.35 L82.25 40.35 79.05 40.85 Q80.2 43.85 80.75 47.75 M77.55 37.6 L78.7 39.95 82.65 39.35 83.3 39.35 81.65 35.65 76.85 27.2 75.85 25.7 75.4 26.1 73.1 28.1 72.55 28.6 Q73.9 31.3 77.55 37.6 M98.25 50.55 L98.25 50.8 Q98.7 50.95 98.8 51.45 L103.05 51.9 106.6 51.8 106.6 50.5 106.45 47.0 106.25 44.5 Q106.25 41.75 104.15 36.6 L96.9 38.4 Q98.25 43.55 98.25 50.55 M98.0 53.15 L98.0 62.35 Q97.5 67.35 95.85 72.25 L96.15 72.95 96.15 73.15 100.55 75.85 102.3 72.05 Q106.15 62.7 106.55 52.7 L106.35 52.8 103.0 52.75 98.7 52.25 98.55 52.45 98.05 52.9 98.0 53.15 M90.95 56.55 Q90.95 59.85 90.15 64.9 L89.35 69.1 91.8 70.55 94.3 72.05 94.95 71.85 Q96.75 66.8 97.2 62.1 L97.2 52.95 96.55 52.35 96.5 51.95 93.25 51.4 90.7 51.4 90.95 56.55 M86.05 53.9 L86.3 58.9 Q86.3 60.3 84.65 64.15 L84.2 65.2 Q84.55 65.5 84.55 66.05 L84.55 66.15 88.1 68.35 Q89.55 63.05 90.05 58.45 L90.05 54.45 90.1 54.3 89.95 51.4 85.8 51.35 86.05 53.9 M81.2 52.25 L81.65 57.85 Q81.65 59.9 80.1 63.3 L80.85 63.8 82.65 64.95 83.35 64.85 Q85.45 60.15 85.45 57.3 L84.9 51.35 84.75 51.35 81.1 51.0 81.2 52.25 M75.2 74.65 L76.6 76.7 80.75 69.85 82.4 66.85 82.3 66.7 82.15 66.05 82.15 65.9 80.1 64.45 79.7 64.15 78.05 67.15 Q75.25 71.95 74.1 72.8 L75.2 74.65 M78.15 79.05 L80.1 83.35 80.8 84.8 81.55 83.8 Q83.2 81.4 84.2 78.8 L85.65 75.45 87.05 72.05 87.85 69.4 84.95 67.65 84.05 67.1 83.35 67.3 83.25 67.3 82.55 68.6 79.3 74.65 77.35 77.7 78.15 79.05 M82.3 87.75 L84.3 91.75 86.1 89.1 89.2 84.6 91.05 80.95 92.8 77.1 94.15 74.0 93.85 73.6 93.7 73.1 90.35 70.85 89.05 70.1 88.55 71.5 84.8 80.15 Q82.65 84.8 81.35 85.95 L82.3 87.75 M93.7 77.55 L90.2 85.1 88.9 86.95 87.55 88.95 Q85.6 92.5 84.7 92.55 L87.3 97.1 89.4 94.7 94.05 89.8 Q95.7 88.1 96.9 85.45 L98.2 82.7 97.95 82.45 97.95 82.15 Q97.95 81.25 99.3 78.45 L100.0 77.05 95.75 74.5 95.25 74.15 95.15 74.15 93.7 77.55 M48.75 8.6 Q53.1 8.6 58.9 10.05 L62.1 11.0 Q62.35 10.45 63.05 10.5 L63.25 10.55 64.35 7.8 65.4 4.5 58.95 3.2 52.5 3.2 47.7 3.6 48.15 6.05 48.3 8.6 48.75 8.6 M50.95 14.7 Q56.9 15.5 60.9 16.55 L61.35 15.3 62.35 12.85 62.0 12.4 61.95 11.8 61.95 11.75 58.2 10.75 Q52.8 9.45 48.65 9.45 L48.35 9.45 48.6 13.6 48.7 14.7 50.95 14.7 M64.15 17.55 Q66.65 18.5 72.45 21.95 74.3 23.05 75.75 24.5 L78.45 22.0 Q75.95 19.55 72.55 17.2 L68.45 14.3 Q66.3 13.0 64.1 12.4 63.95 12.95 63.35 13.05 L62.3 15.7 61.9 16.8 64.15 17.55 M65.35 23.4 Q71.35 25.85 72.05 27.5 L72.15 27.75 72.75 27.2 75.2 25.05 75.25 25.0 Q71.45 20.75 63.45 18.0 L61.65 17.45 Q60.6 20.2 60.25 21.6 L65.35 23.4 M34.9 5.8 L36.15 10.0 36.45 9.95 39.7 9.6 42.35 9.35 44.6 8.9 47.3 8.65 46.85 5.1 46.55 3.7 37.0 4.95 34.85 5.45 34.9 5.8 M44.35 14.7 L47.7 14.7 47.4 10.55 47.35 9.5 42.85 9.95 39.7 10.45 36.5 11.1 37.75 15.15 40.1 14.9 43.1 14.85 44.35 14.7 M38.4 17.15 L38.85 18.65 38.9 18.65 Q39.55 18.65 39.8 19.15 L40.1 19.0 43.5 18.95 48.3 19.7 47.85 16.15 47.75 15.35 44.2 15.35 43.1 15.55 38.7 15.6 37.95 15.75 38.4 17.15 M56.65 25.05 L58.7 25.95 58.95 23.15 59.1 22.1 55.0 21.2 51.6 21.2 49.2 20.7 49.3 21.85 49.45 23.65 Q53.1 23.5 56.65 25.05 M40.0 22.8 L40.55 24.65 45.85 23.7 48.75 23.65 48.4 20.55 43.5 19.7 40.2 19.75 39.9 19.9 39.6 20.5 39.45 20.7 40.0 22.8 M42.0 28.5 L42.55 29.65 47.1 28.6 49.15 28.6 49.0 27.2 48.8 24.5 45.85 24.55 40.8 25.5 42.0 28.5 M51.7 20.45 L55.0 20.45 59.25 21.3 60.65 17.15 Q55.5 15.65 50.95 15.35 L48.75 15.35 49.1 19.85 51.7 20.45 M62.0 27.45 Q63.35 28.05 66.6 29.9 67.65 30.4 68.15 31.35 L68.5 31.95 68.85 31.9 68.9 31.9 70.75 29.35 71.7 28.25 71.45 27.4 Q67.05 24.8 64.45 23.75 62.55 23.0 60.05 22.35 L59.95 22.75 Q59.95 24.9 59.45 26.3 L62.0 27.45 M50.15 28.6 Q54.2 29.3 57.4 30.5 57.85 27.85 58.45 26.55 L56.95 25.95 Q52.8 24.3 50.9 24.3 L49.5 24.5 49.55 25.85 49.95 28.6 50.15 28.6 M67.6 32.0 Q66.95 31.05 66.1 30.55 L61.9 28.2 Q60.95 27.6 59.25 26.9 58.55 28.7 58.15 30.8 62.8 32.65 65.45 35.6 L67.45 33.7 67.8 33.3 67.7 33.0 Q67.7 32.6 67.85 32.35 L67.6 32.0 M50.25 29.85 L51.15 33.3 51.35 34.15 56.6 35.1 57.2 31.45 Q54.1 30.25 50.15 29.5 L50.25 29.85 M53.5 38.45 Q54.3 38.45 55.05 38.9 L55.75 37.05 56.35 35.75 Q54.4 35.1 51.5 34.85 L52.0 37.65 51.95 38.3 51.9 38.35 53.5 38.45 M58.95 36.15 Q60.15 36.95 61.4 39.55 L63.05 37.9 64.8 36.25 Q62.3 33.55 58.0 31.75 L57.25 35.35 Q58.25 35.7 58.95 36.15 M56.1 39.7 L59.15 42.2 Q59.2 41.7 60.9 40.0 59.75 37.5 58.5 36.7 57.9 36.3 57.1 36.0 56.4 38.75 55.85 39.5 L56.1 39.7 M45.75 33.95 L48.35 33.95 50.5 34.1 50.1 32.7 49.3 29.45 46.45 29.4 42.9 30.45 44.5 34.2 45.75 33.95 M33.35 28.8 L37.85 31.95 38.2 31.55 Q38.45 31.3 38.65 31.2 39.35 30.55 42.05 29.8 L41.75 29.15 40.35 25.6 38.25 26.1 36.05 27.65 Q34.3 29.05 33.9 29.05 L33.7 29.0 33.6 28.8 Q33.6 28.3 35.3 26.95 36.85 25.7 37.6 25.4 38.15 25.15 40.05 24.75 L39.7 23.65 38.9 20.95 38.75 20.95 38.1 20.75 Q35.85 22.0 33.65 24.1 L30.85 26.75 33.35 28.8 M40.55 33.9 L41.95 35.1 42.15 34.9 42.6 34.75 43.8 34.3 43.9 34.3 42.4 30.55 42.15 30.6 40.4 31.2 39.75 31.45 Q39.45 32.0 38.55 32.45 L40.55 33.9 M43.55 36.85 L45.3 38.75 45.55 38.65 44.75 36.5 44.15 34.9 43.1 35.1 42.75 35.55 42.55 35.7 43.55 36.85 M49.2 37.7 L50.55 38.05 51.3 38.25 50.65 34.75 48.3 34.6 45.7 34.6 44.75 34.8 46.05 38.4 46.6 38.2 49.2 37.7 M50.75 44.45 Q54.15 47.4 55.7 49.4 L55.75 49.45 58.1 51.7 59.2 50.05 Q60.35 48.35 60.35 46.95 60.35 43.65 57.9 42.1 56.4 41.1 55.25 40.05 L54.5 39.45 52.7 39.2 50.2 38.85 Q49.45 38.5 49.3 38.5 L46.25 39.15 46.5 39.85 46.45 40.05 48.8 42.7 50.75 44.45 M59.55 42.6 Q60.4 43.6 60.7 44.7 61.15 44.35 62.7 43.85 L61.3 40.8 59.55 42.6 M73.9 40.65 L74.05 40.9 78.3 40.05 77.05 37.55 73.85 32.5 Q72.65 30.6 72.0 29.1 71.35 29.65 71.05 30.1 L69.6 32.15 Q69.95 32.4 69.95 33.0 L69.75 33.65 69.5 33.9 73.9 40.65 M66.2 36.5 Q68.0 38.85 68.7 42.15 L69.7 41.9 73.4 41.05 72.25 39.05 69.05 34.1 68.85 34.1 68.2 33.95 67.85 34.35 66.0 36.25 66.2 36.5 M69.15 46.65 L69.05 49.9 69.05 50.05 69.85 50.05 70.1 49.95 74.5 49.95 74.6 49.95 74.95 45.55 Q74.95 44.25 73.75 41.8 L69.85 42.6 68.85 42.85 69.15 46.65 M63.6 38.55 L61.75 40.35 63.3 43.65 67.9 42.35 Q67.2 39.2 65.35 36.9 L63.6 38.55 M60.85 45.8 L60.95 48.9 60.85 49.1 62.6 49.25 63.65 49.45 63.8 47.75 Q63.8 46.45 63.0 44.55 L60.9 45.3 60.8 45.25 60.85 45.8 M64.35 47.75 L64.2 49.55 67.1 50.05 68.05 50.05 68.1 49.65 68.35 46.65 68.05 43.05 Q65.55 43.7 63.6 44.35 64.35 46.3 64.35 47.75 M75.6 47.2 L75.4 49.85 75.4 50.0 80.2 50.3 80.05 47.65 Q79.95 44.25 78.65 40.9 L74.45 41.65 Q75.6 44.1 75.6 47.2 M12.8 11.75 L15.15 13.4 15.15 13.35 Q15.15 13.25 20.5 10.55 L28.05 6.85 Q30.95 5.6 33.7 4.9 L32.35 0.85 31.85 -0.85 Q26.4 0.15 24.45 1.35 23.05 2.2 20.45 3.05 17.7 3.95 16.5 4.6 14.9 5.4 12.4 6.95 L9.15 9.05 Q10.8 9.95 12.8 11.75 M17.1 14.85 L20.45 17.75 Q20.85 16.9 25.35 14.55 29.65 12.35 30.8 12.0 L33.7 10.8 35.5 10.2 34.45 7.1 33.95 5.65 Q31.05 6.35 28.75 7.4 L21.65 10.95 Q16.25 13.7 15.75 13.7 L15.6 13.7 17.1 14.85 M21.4 18.6 L24.75 21.5 Q25.05 21.0 27.6 19.3 L30.6 17.45 Q32.1 17.0 34.0 16.0 L37.1 15.2 35.85 11.3 Q32.15 12.25 28.9 13.75 26.15 15.05 20.95 18.25 L21.4 18.7 21.4 18.6 M38.05 18.2 L37.35 15.9 Q30.75 17.35 25.1 21.8 L30.25 26.25 Q30.6 25.55 34.2 22.8 36.35 21.15 37.9 20.2 L37.85 19.85 Q37.85 19.1 38.25 18.85 L38.05 18.2 M73.9 58.8 L73.9 58.95 79.3 62.7 Q80.85 59.5 80.85 57.8 80.85 55.3 80.5 53.1 L80.25 50.9 75.4 50.6 Q75.2 52.95 73.9 58.8 M68.65 53.7 L68.35 55.7 70.7 56.95 73.15 58.5 73.6 56.25 74.45 50.8 74.5 50.55 70.05 50.55 69.85 50.6 69.0 50.6 68.65 53.7 M63.65 51.9 L63.4 52.7 65.1 53.75 67.35 55.15 67.4 54.9 67.8 53.3 Q67.8 51.85 67.95 50.65 L66.1 50.65 64.05 50.3 63.65 51.9 M62.8 50.0 L60.65 49.45 59.7 50.9 Q60.4 50.85 62.05 51.85 L62.75 52.3 63.5 50.2 62.8 50.0 M63.6 57.85 L64.65 59.2 65.4 58.35 66.95 56.65 67.25 55.75 63.95 53.75 63.1 53.25 61.6 55.55 63.6 57.85 M58.7 52.35 L61.2 55.1 62.4 52.9 62.45 52.85 59.65 51.05 58.7 52.35 M66.95 62.45 L68.65 64.6 70.05 66.5 71.3 63.95 72.95 59.4 70.1 57.55 68.2 56.35 67.85 57.3 66.3 59.3 65.35 60.2 66.95 62.45 M71.05 68.2 L72.5 70.35 73.6 72.05 77.05 66.8 78.9 63.55 Q76.75 61.95 73.65 59.9 72.0 66.8 70.4 67.35 L71.05 68.2" fill="#999999" fill-rule="evenodd" stroke="none"/>
  </g>
</svg>
