<?xml version="1.0" encoding="UTF-8" standalone="no"?>
<svg xmlns:xlink="http://www.w3.org/1999/xlink" height="25.6px" width="11.6px" xmlns="http://www.w3.org/2000/svg">
  <g transform="matrix(1.0, 0.0, 0.0, 1.0, 4.95, 16.5)">
    <path d="M6.65 -6.0 Q6.65 -3.85 5.7 -1.7 4.2 1.4 3.35 2.0 L1.25 2.25 Q-1.35 2.25 -2.25 1.3 L-4.0 -2.2 -4.5 -4.3 -4.95 -7.0 Q-4.95 -9.6 -2.05 -13.65 0.9 -17.75 2.0 -15.95 4.15 -13.95 5.45 -11.1 6.65 -8.4 6.65 -6.0" fill="url(#gradient0)" fill-rule="evenodd" stroke="none"/>
    <path d="M2.9 5.3 L2.25 7.4 Q1.45 9.1 0.6 9.1 -1.7 9.1 -2.45 6.35 L-2.7 3.55 Q-2.7 2.3 0.1 2.35 2.9 2.4 2.9 5.3" fill="url(#gradient1)" fill-rule="evenodd" stroke="none"/>
  </g>
  <defs>
    <radialGradient cx="0" cy="0" gradientTransform="matrix(0.006, 0.0, 0.0, 0.0163, 1.15, -9.0)" gradientUnits="userSpaceOnUse" id="gradient0" r="819.2" spreadMethod="pad">
      <stop offset="0.0" stop-color="#790e0e"/>
      <stop offset="1.0" stop-color="#1e0031"/>
    </radialGradient>
    <radialGradient cx="0" cy="0" gradientTransform="matrix(0.0031, 0.0, 0.0, 0.0048, 0.35, 4.9)" gradientUnits="userSpaceOnUse" id="gradient1" r="819.2" spreadMethod="pad">
      <stop offset="0.0" stop-color="#790e0e"/>
      <stop offset="1.0" stop-color="#1e0031"/>
    </radialGradient>
  </defs>
</svg>
