<?xml version="1.0" encoding="UTF-8" standalone="no"?>
<svg xmlns:xlink="http://www.w3.org/1999/xlink" height="27.5px" width="12.4px" xmlns="http://www.w3.org/2000/svg">
  <g transform="matrix(1.0, 0.0, 0.0, 1.0, 11.9, 0.5)">
    <path d="M0.0 0.6 Q0.0 1.15 -1.7 2.9 L-3.7 4.9 -6.75 8.95 Q-6.6 9.15 -6.6 9.75 -6.6 10.1 -8.3 13.2 L-9.4 15.2 -9.8 15.85 -10.55 18.4 -10.45 19.2 -9.6 22.6 -8.55 26.2 -8.6 26.35 -8.9 26.5 -9.8 24.05 -9.95 24.15 -10.75 21.55 -10.9 21.0 -11.4 19.0 -11.2 17.35 -11.05 16.9 -10.85 16.35 -10.75 15.9 -10.75 15.55 Q-10.75 13.85 -8.65 10.65 L-7.9 9.6 -7.4 9.05 -7.6 8.4 -7.5 8.15 Q-7.1 6.95 -3.8 3.1 0.0 -1.35 0.0 0.6 Z" fill="none" stroke="#1d2530" stroke-linecap="round" stroke-linejoin="round" stroke-width="1.0"/>
    <path d="M0.0 0.6 Q0.0 1.15 -1.7 2.9 L-3.7 4.9 -6.75 8.95 Q-6.6 9.15 -6.6 9.75 -6.6 10.1 -8.3 13.2 L-9.4 15.2 -9.8 15.85 -10.55 18.4 -10.45 19.2 -9.6 22.6 -8.55 26.2 -8.6 26.35 -8.9 26.5 -9.8 24.05 -9.95 24.15 -10.75 21.55 -10.9 21.0 -11.4 19.0 -11.2 17.35 -11.05 16.9 -10.85 16.35 -10.75 15.9 -10.75 15.55 Q-10.75 13.85 -8.65 10.65 L-7.9 9.6 -7.4 9.05 -7.6 8.4 -7.5 8.15 Q-7.1 6.95 -3.8 3.1 0.0 -1.35 0.0 0.6 M-8.2 11.05 L-8.2 11.1 -7.95 10.75 -8.2 11.05" fill="url(#gradient0)" fill-rule="evenodd" stroke="none"/>
  </g>
  <defs>
    <radialGradient cx="0" cy="0" gradientTransform="matrix(0.0179, 0.0, 0.0, 0.0179, -5.7, 13.25)" gradientUnits="userSpaceOnUse" id="gradient0" r="819.2" spreadMethod="pad">
      <stop offset="0.0" stop-color="#9490b4"/>
      <stop offset="1.0" stop-color="#1d2530"/>
    </radialGradient>
  </defs>
</svg>
