<?xml version="1.0" encoding="UTF-8" standalone="no"?>
<svg xmlns:xlink="http://www.w3.org/1999/xlink" height="40.15px" width="17.85px" xmlns="http://www.w3.org/2000/svg">
  <g transform="matrix(1.0, 0.0, 0.0, 1.0, 9.6, 21.05)">
    <path d="M8.25 -4.25 Q8.4 0.05 7.4 4.05 6.1 9.3 3.15 11.1 0.9 19.1 0.15 19.1 L-3.65 11.3 Q-6.65 9.85 -8.2 5.65 -9.6 1.85 -9.6 -3.35 -9.6 -8.95 -6.8 -12.4 L-5.45 -13.75 -5.25 -16.2 -4.95 -20.4 Q-4.95 -22.25 -2.6 -18.8 L-0.8 -15.7 -0.65 -15.7 1.55 -15.5 1.8 -15.9 3.1 -18.0 4.15 -19.1 Q5.7 -21.85 5.85 -20.4 L6.15 -14.0 6.15 -12.15 Q8.25 -9.15 8.25 -4.25" fill="#000000" fill-rule="evenodd" stroke="none"/>
  </g>
</svg>
