<?xml version="1.0" encoding="UTF-8" standalone="no"?>
<svg xmlns:xlink="http://www.w3.org/1999/xlink" height="19.5px" width="216.4px" xmlns="http://www.w3.org/2000/svg">
  <g transform="matrix(1.0, 0.0, 0.0, 1.0, 6.8, -6.0)">
    <path d="M203.75 12.0 L202.2 13.5 4.75 13.5 6.15 12.0 203.75 12.0 M195.3 21.0 L194.05 22.5 -3.6 22.5 -3.0 21.85 -2.2 21.0 195.3 21.0 M192.8 24.0 L191.65 25.5 -6.8 25.5 -5.15 24.0 192.8 24.0 M198.0 18.0 L196.65 19.5 -0.8 19.5 0.6 18.0 198.0 18.0 M200.75 15.0 L199.35 16.5 1.95 16.5 3.35 15.0 200.75 15.0 M209.6 6.0 L208.1 7.5 10.2 7.5 11.5 6.0 209.6 6.0 M206.65 9.0 L205.2 10.5 7.5 10.5 8.85 9.0 206.65 9.0" fill="#000000" fill-opacity="0.4" fill-rule="evenodd" stroke="none"/>
  </g>
</svg>
