<?xml version="1.0" encoding="UTF-8" standalone="no"?>
<svg xmlns:xlink="http://www.w3.org/1999/xlink" height="92.25px" width="196.5px" xmlns="http://www.w3.org/2000/svg">
  <g transform="matrix(1.0, 0.0, 0.0, 1.0, 13.0, 15.25)">
    <path d="M1.55 -7.5 Q7.35 -6.75 19.75 -0.2 26.75 3.45 41.05 11.25 48.85 15.0 59.45 20.75 L96.95 8.3 Q131.05 -3.15 147.4 -7.85 171.65 -14.85 183.05 -15.25 L183.5 -14.5 Q162.95 -9.9 146.35 -5.4 120.5 1.65 90.75 11.8 L61.2 21.75 61.7 22.0 81.5 33.0 Q92.8 39.25 122.9 54.45 150.95 68.6 164.0 76.05 L163.9 76.7 163.0 77.0 Q161.05 77.0 128.6 60.25 99.6 45.2 80.5 34.75 74.1 31.25 57.95 22.8 L34.65 30.35 Q-5.1 43.0 -11.0 43.0 L-12.6 42.75 Q-13.0 42.3 -13.0 41.55 8.55 36.9 40.55 26.85 L56.1 21.85 32.7 9.7 Q1.5 -6.45 1.5 -6.9 L1.55 -7.5" fill="#ff0000" fill-rule="evenodd" stroke="none"/>
  </g>
</svg>
