<?xml version="1.0" encoding="UTF-8" standalone="no"?>
<svg xmlns:xlink="http://www.w3.org/1999/xlink" height="94.75px" width="398.85px" xmlns="http://www.w3.org/2000/svg">
  <g transform="matrix(1.0, 0.0, 0.0, 1.0, 1.35, 0.95)">
    <path d="M1.35 3.35 L385.8 3.35 314.85 88.2 1.35 88.2 1.35 3.35" fill="#000000" fill-rule="evenodd" stroke="none"/>
    <path d="M1.35 3.35 L385.8 3.35 314.85 88.2 1.35 88.2 1.35 3.35" fill="url(#gradient0)" fill-rule="evenodd" stroke="none"/>
    <path d="M374.4 13.9 L1.8 13.9 1.8 12.1 375.3 12.1 374.4 13.9 M367.2 20.75 L366.8 21.1 1.8 21.1 1.8 19.3 368.85 19.3 367.2 20.75 M373.3 16.15 L371.25 17.5 1.8 17.5 1.8 15.7 373.55 15.7 373.3 16.15 M378.65 9.85 L377.3 10.3 1.8 10.3 1.8 8.5 380.0 8.5 378.65 9.85 M363.5 24.7 L1.8 24.7 1.8 22.9 365.05 22.9 364.45 23.55 363.5 24.7 M359.0 31.9 L1.8 31.9 1.8 30.1 359.9 30.1 359.0 31.9 M350.1 46.3 L1.8 46.3 1.8 44.5 351.65 44.5 350.1 46.3 M356.5 38.6 L356.35 39.1 1.8 39.1 1.8 37.3 356.85 37.3 356.5 38.6 M353.25 42.7 L1.8 42.7 1.8 40.9 354.9 40.9 353.25 42.7 M360.95 28.3 L1.8 28.3 1.8 26.5 362.1 26.5 362.05 26.65 360.95 28.3 M357.45 35.5 L1.8 35.5 1.8 33.7 358.15 33.7 357.45 35.5 M344.5 53.5 L1.8 53.5 1.8 51.7 345.8 51.7 344.5 53.5 M328.8 71.5 L1.8 71.5 1.8 69.7 330.95 69.7 330.2 70.0 328.8 71.5 M334.9 67.9 L1.8 67.9 1.8 66.1 336.05 66.1 334.9 67.9 M337.2 64.3 L1.8 64.3 1.8 62.5 338.4 62.5 337.2 64.3 M342.0 57.1 L1.8 57.1 1.8 55.3 343.2 55.3 342.2 56.75 342.0 57.1 M339.6 60.7 L1.8 60.7 1.8 58.9 340.8 58.9 339.6 60.7 M325.3 75.1 L1.8 75.1 1.8 73.3 327.1 73.3 325.3 75.1 M347.2 49.9 L1.8 49.9 1.8 48.1 348.6 48.1 347.2 49.9 M321.45 78.7 L1.8 78.7 1.8 76.9 323.4 76.9 321.45 78.7 M317.65 80.75 L316.8 82.3 1.8 82.3 1.8 80.5 318.35 80.5 317.65 80.75 M314.95 85.9 L1.8 85.9 1.8 84.1 315.8 84.1 314.95 85.9" fill="#000000" fill-rule="evenodd" stroke="none"/>
    <path d="M10.5 7.1 L10.5 83.95 309.25 83.95 374.6 7.1 10.5 7.1 M3.9 0.9 L389.65 0.9 314.65 90.6 3.9 90.6 3.9 0.9" fill="url(#gradient1)" fill-rule="evenodd" stroke="none"/>
    <path d="M319.4 93.8 L-1.35 93.8 -1.35 -0.95 397.5 -0.95 319.4 93.8 M2.85 3.65 L2.85 87.85 313.8 87.85 384.2 3.65 2.85 3.65" fill="url(#gradient2)" fill-rule="evenodd" stroke="none"/>
    <path d="M6.75 4.5 L6.75 87.0 311.45 87.0 380.4 4.5 6.75 4.5 M0.0 0.0 L393.45 0.0 316.95 91.5 0.0 91.5 0.0 0.0" fill="url(#gradient3)" fill-rule="evenodd" stroke="none"/>
    <path d="M372.75 17.75 L372.15 17.35 Q372.0 17.1 372.0 16.6 372.0 16.1 372.65 15.85 L374.0 15.9 374.1 16.6 Q374.1 17.7 372.75 17.75 M370.25 24.65 L369.05 25.1 368.4 24.8 Q367.0 24.15 366.9 23.7 368.0 23.7 370.25 24.65 M374.9 17.6 L374.7 16.95 375.65 17.1 Q375.65 17.55 374.9 17.6 M378.3 13.5 L377.4 13.7 Q377.25 14.0 377.25 13.25 377.25 12.7 378.3 12.8 L378.3 13.5 M355.75 39.7 L356.25 40.0 355.05 40.75 354.65 40.4 355.75 39.7 M358.35 38.85 L357.8 38.6 Q359.75 37.55 360.75 37.4 L358.35 38.85 M346.05 53.7 L343.8 53.6 343.95 53.4 346.2 53.6 346.05 53.7 M332.6 62.7 L340.1 60.4 346.5 58.65 340.35 60.7 333.05 62.85 332.6 62.7 M330.2 67.3 L332.25 67.35 332.3 67.5 329.75 67.55 329.7 67.5 Q329.8 67.3 330.2 67.3 M324.15 74.7 Q324.15 73.7 324.9 73.9 L325.95 74.7 Q325.65 75.35 324.65 75.35 L324.3 75.25 Q324.15 75.15 324.15 74.7 M283.1 87.8 L282.0 88.3 281.45 88.6 281.4 88.2 Q282.05 87.7 283.1 87.8 M279.75 87.75 L279.9 87.15 280.8 87.3 280.8 87.75 280.35 88.2 Q279.9 88.05 279.75 87.75 M278.9 89.1 L278.3 89.3 Q278.15 89.6 278.15 88.85 278.15 88.55 279.0 88.05 L279.2 88.8 278.9 89.1 M274.4 88.65 L274.25 88.2 Q274.65 87.95 275.0 88.5 L274.4 88.65 M299.9 89.3 Q300.3 89.45 299.55 89.45 L296.55 88.2 298.05 88.5 299.7 89.1 299.9 89.3 M300.75 88.8 L298.4 87.9 298.55 87.6 299.95 87.9 300.75 88.5 300.75 88.8 M198.6 2.7 L198.15 2.3 Q198.45 2.0 199.05 2.3 L198.6 2.7 M193.45 2.75 L193.5 3.3 Q193.5 3.75 193.0 3.85 L192.0 4.05 191.4 3.9 Q191.25 4.3 191.25 3.55 191.25 2.75 191.9 2.5 L193.35 2.6 193.45 2.75 M182.6 4.35 L183.05 4.0 183.4 3.65 183.95 3.05 184.5 3.1 Q185.35 3.05 185.85 4.35 L185.8 4.55 185.25 4.7 184.95 4.5 183.6 4.85 182.6 4.35 M106.35 4.5 L106.15 4.4 106.1 3.9 Q106.1 2.55 107.9 2.85 109.55 3.15 110.1 4.05 L109.95 4.65 107.75 4.8 106.95 4.6 106.35 4.5 M91.5 1.1 L91.65 2.45 91.6 2.75 91.1 2.9 Q90.65 2.9 90.45 2.6 L89.75 1.85 90.25 1.2 91.5 1.1 M116.25 90.15 L115.4 89.85 116.75 89.3 118.1 88.95 Q117.25 89.7 116.25 90.15 M91.35 90.2 Q90.55 90.2 90.2 89.6 L91.95 88.45 Q93.1 88.0 93.9 89.3 L91.35 90.2 M4.1 19.75 L3.95 19.95 Q5.6 16.45 7.35 14.7 L6.6 15.9 Q6.0 16.7 6.0 17.25 L4.1 19.75 M5.45 24.75 L5.5 24.7 5.55 25.2 5.05 26.6 4.25 27.95 3.15 29.95 3.8 28.55 5.25 24.75 5.45 24.75 M0.8 28.85 L2.6 26.05 0.6 30.3 Q0.45 30.75 0.45 30.0 L0.8 28.85 M4.95 58.35 L4.35 56.85 Q4.35 56.4 4.45 56.55 L4.5 56.85 4.5 56.7 Q4.85 56.95 5.2 57.95 L5.85 59.55 5.7 59.7 4.95 58.35 M4.65 86.4 L3.15 83.25 3.3 83.1 5.1 85.75 5.0 86.1 4.65 86.4 M2.4 81.15 Q2.4 80.4 3.45 80.4 L3.9 82.05 3.75 82.25 Q2.4 82.25 2.4 81.15 M1.85 84.35 L2.8 85.7 3.75 87.15 3.6 87.3 2.4 85.85 1.65 84.35 1.85 84.35 M72.15 89.4 L69.45 90.15 68.7 90.1 68.55 90.0 70.15 89.45 72.15 89.25 72.15 89.4" fill="#333333" fill-rule="evenodd" stroke="none"/>
    <path d="M258.75 86.6 L256.85 87.4 256.55 87.55 256.5 87.5 256.2 86.9 Q256.2 85.55 258.75 86.6 M238.5 87.3 L238.6 87.25 238.6 87.15 238.7 87.15 Q239.7 86.45 241.05 86.45 L240.1 87.65 238.85 88.2 238.25 87.75 238.55 87.35 238.5 87.3" fill="#000000" fill-rule="evenodd" stroke="none"/>
    <path d="M358.05 20.35 L358.0 20.35 356.2 22.45 356.25 22.45 353.95 25.1 353.9 25.1 352.1 27.2 352.15 27.2 350.0 29.65 349.95 29.65 348.15 31.75 348.2 31.75 345.9 34.4 345.85 34.4 344.0 36.5 344.05 36.5 341.75 39.15 341.7 39.15 339.9 41.25 339.95 41.25 337.7 43.85 337.65 43.85 335.8 45.95 335.85 45.95 333.4 48.8 333.35 48.8 331.55 50.9 329.45 53.35 329.4 53.35 327.6 55.45 325.35 58.1 325.3 58.1 323.45 60.2 323.5 60.2 321.2 62.85 321.15 62.85 319.35 64.95 319.4 64.95 317.25 67.4 317.2 67.4 315.4 69.5 315.45 69.5 313.15 72.15 313.1 72.15 311.3 74.25 309.0 76.9 307.15 79.0 307.2 79.0 306.25 80.1 305.3 81.15 15.95 81.15 15.95 10.1 366.9 10.1 363.35 14.25 360.3 17.7 360.35 17.7 358.05 20.35" fill="url(#gradient4)" fill-rule="evenodd" stroke="none"/>
  </g>
  <defs>
    <radialGradient cx="0" cy="0" gradientTransform="matrix(3.0E-4, -0.068, 0.2404, 0.0011, 185.5, 44.9)" gradientUnits="userSpaceOnUse" id="gradient0" r="819.2" spreadMethod="pad">
      <stop offset="0.3254901960784314" stop-color="#580404"/>
      <stop offset="1.0" stop-color="#000000"/>
    </radialGradient>
    <linearGradient gradientTransform="matrix(0.0, 0.0521, -0.0547, 0.0, 196.75, 46.65)" gradientUnits="userSpaceOnUse" id="gradient1" spreadMethod="pad" x1="-819.2" x2="819.2">
      <stop offset="0.0" stop-color="#333333"/>
      <stop offset="1.0" stop-color="#551111"/>
    </linearGradient>
    <linearGradient gradientTransform="matrix(0.2451, 0.0, 0.0, 0.057, 196.7, 45.75)" gradientUnits="userSpaceOnUse" id="gradient2" spreadMethod="pad" x1="-819.2" x2="819.2">
      <stop offset="0.0" stop-color="#313131"/>
      <stop offset="1.0" stop-color="#2a2a2a"/>
    </linearGradient>
    <linearGradient gradientTransform="matrix(0.0233, -0.0914, 0.054, 0.0137, 205.45, 42.85)" gradientUnits="userSpaceOnUse" id="gradient3" spreadMethod="pad" x1="-819.2" x2="819.2">
      <stop offset="0.0" stop-color="#666666"/>
      <stop offset="0.4549019607843137" stop-color="#cccccc"/>
      <stop offset="1.0" stop-color="#4d4d4d"/>
    </linearGradient>
    <linearGradient gradientTransform="matrix(0.0, 0.0238, -0.0434, 0.0, 187.6, 68.7)" gradientUnits="userSpaceOnUse" id="gradient4" spreadMethod="pad" x1="-819.2" x2="819.2">
      <stop offset="0.0" stop-color="#ffffff" stop-opacity="0.0"/>
      <stop offset="1.0" stop-color="#ffffff" stop-opacity="0.2"/>
    </linearGradient>
  </defs>
</svg>
