<?xml version="1.0" encoding="UTF-8" standalone="no"?>
<svg xmlns:xlink="http://www.w3.org/1999/xlink" height="138.1px" width="231.7px" xmlns="http://www.w3.org/2000/svg">
  <g transform="matrix(1.0, 0.0, 0.0, 1.0, -39.8, -67.55)">
    <path d="M256.85 112.65 L258.7 112.9 258.7 115.2 258.7 119.55 258.8 133.4 258.95 168.3 258.95 168.9 258.25 168.65 258.25 158.0 258.25 157.6 256.85 157.0 256.85 156.9 256.85 143.45 256.85 142.1 256.85 125.15 256.85 122.85 256.85 112.65 M139.5 180.05 L139.5 181.3 139.5 181.4 137.8 182.6 137.8 180.9 137.8 177.5 137.95 177.5 139.5 176.3 139.5 180.05 M137.8 140.2 L139.4 138.95 139.5 138.95 139.5 146.25 137.8 147.45 137.8 140.2 M138.55 149.5 L139.5 149.75 137.8 150.85 137.8 150.0 138.55 149.5 M139.5 150.85 L139.5 158.35 137.8 159.55 137.8 152.05 137.95 152.05 139.5 150.85 M137.95 192.65 L137.8 191.6 137.8 187.2 137.95 187.2 139.5 186.0 139.5 186.1 139.5 192.05 137.95 192.65" fill="#313131" fill-opacity="0.9882353" fill-rule="evenodd" stroke="none"/>
    <path d="M220.5 96.3 L220.5 98.0 220.5 98.7 148.0 85.6 149.35 85.35 153.7 84.3 220.5 96.3 M229.85 125.4 L234.2 127.8 230.2 130.5 229.75 130.1 227.55 128.65 226.1 127.95 229.85 125.4 M156.15 134.1 L154.95 134.95 153.35 136.4 153.2 136.55 132.15 132.75 130.55 132.55 104.95 127.95 105.1 127.8 103.4 127.65 102.9 127.55 103.65 125.4 103.9 124.8 109.1 125.75 156.15 134.1 M83.4 89.35 L84.6 90.6 83.65 89.85 83.15 89.6 83.4 89.35 M124.0 136.05 L125.45 136.4 139.4 138.95 137.8 140.2 110.8 135.3 109.2 134.95 110.8 133.75 123.9 136.05 124.0 136.05" fill="#414141" fill-rule="evenodd" stroke="none"/>
    <path d="M128.85 149.3 L128.7 149.3 128.7 147.1 129.6 147.2 129.6 149.0 128.85 149.3 M131.15 172.65 L130.9 172.65 130.9 162.0 131.65 162.1 131.65 171.9 131.75 171.9 131.15 172.65" fill="#272727" fill-opacity="0.9882353" fill-rule="evenodd" stroke="none"/>
    <path d="M139.5 158.35 L139.5 159.45 137.8 160.75 137.8 159.55 139.5 158.35 M139.5 174.95 L139.5 176.3 137.95 177.5 137.8 177.5 137.8 176.3 139.5 174.95" fill="#232323" fill-opacity="0.9882353" fill-rule="evenodd" stroke="none"/>
    <path d="M138.55 148.2 L138.55 149.5 137.8 150.0 137.8 148.65 Q138.2 148.45 138.55 148.2 M139.15 162.35 L139.15 171.45 137.1 172.9 137.1 163.1 137.8 163.2 137.95 163.2 139.15 162.35 M138.9 182.95 L138.9 184.3 137.8 185.15 137.8 183.8 138.9 182.95" fill="#202020" fill-opacity="0.9882353" fill-rule="evenodd" stroke="none"/>
    <path d="M137.8 148.65 L137.8 147.45 139.5 146.25 139.5 146.95 139.5 147.55 138.55 148.2 Q138.2 148.45 137.8 148.65 M137.8 152.05 L137.8 150.85 139.5 149.75 139.5 150.85 137.95 152.05 137.8 152.05 M139.5 159.45 L139.5 161.05 139.5 162.0 139.15 162.35 137.95 163.2 137.8 163.2 137.8 160.75 139.5 159.45 M139.15 171.45 L139.15 172.2 139.5 172.65 139.5 174.95 137.8 176.3 137.8 173.85 131.15 172.65 131.75 171.9 137.1 172.9 139.15 171.45 M116.6 169.75 L116.6 170.15 109.1 168.65 109.6 168.4 116.6 169.75 M139.5 181.4 L139.5 182.35 138.9 182.95 137.8 183.8 137.8 182.6 139.5 181.4 M138.9 184.3 L139.5 184.65 139.65 184.65 139.5 184.8 139.5 186.0 137.95 187.2 137.8 187.2 137.8 186.7 137.8 186.0 128.7 184.45 128.7 182.25 129.8 182.5 129.8 183.8 137.8 185.15 138.9 184.3" fill="#3c3c3c" fill-opacity="0.9882353" fill-rule="evenodd" stroke="none"/>
    <path d="M109.6 180.55 L118.2 182.1 118.2 182.5 109.1 180.9 109.6 180.55" fill="#2e2e2e" fill-opacity="0.9882353" fill-rule="evenodd" stroke="none"/>
    <path d="M189.95 189.15 L189.95 190.5 139.5 181.3 139.5 180.05 147.4 181.5 148.75 181.75 174.9 186.5 176.25 186.7 189.95 189.15 M57.8 166.1 L58.4 165.5 66.15 166.95 67.5 167.1 93.2 171.8 94.55 172.05 109.1 174.6 109.1 175.55 57.8 166.1" fill="#838383" fill-rule="evenodd" stroke="none"/>
    <path d="M236.15 170.95 L236.25 171.1 237.85 169.85 256.5 157.15 256.75 157.0 256.85 156.9 256.85 157.0 258.25 157.6 258.25 158.0 220.75 183.1 220.75 182.95 220.75 181.4 236.15 170.95" fill="#4d4d4d" fill-rule="evenodd" stroke="none"/>
    <path d="M220.5 98.7 L220.5 98.0 220.5 96.3 250.3 101.6 Q251.25 101.15 252.15 100.65 L271.45 104.05 258.7 112.9 256.85 112.65 245.85 119.9 244.4 120.8 243.65 121.5 234.2 127.8 229.85 125.4 233.85 122.6 236.5 120.8 236.6 120.65 238.8 119.35 242.55 116.65 247.65 113.25 258.95 105.5 220.5 98.7" fill="url(#gradient0)" fill-rule="evenodd" stroke="none"/>
    <path d="M236.5 120.8 L233.85 122.6 109.7 100.15 109.7 97.85 222.2 118.25 236.5 120.8" fill="url(#gradient1)" fill-rule="evenodd" stroke="none"/>
    <path d="M238.8 119.35 L236.6 120.65 236.5 120.8 222.2 118.25 109.7 97.85 105.7 100.65 105.2 100.9 99.15 105.15 77.1 120.05 76.6 119.9 74.4 119.55 108.95 96.05 109.1 96.05 238.8 119.35" fill="url(#gradient2)" fill-rule="evenodd" stroke="none"/>
    <path d="M242.55 116.65 L238.8 119.35 109.1 96.05 109.1 92.8 242.55 116.65" fill="url(#gradient3)" fill-rule="evenodd" stroke="none"/>
    <path d="M207.3 147.1 L206.2 146.85 206.05 146.85 198.8 145.65 198.55 145.5 191.55 144.3 189.95 143.9 191.05 143.3 186.2 142.45 184.75 142.25 159.15 137.65 157.6 137.4 153.2 136.55 153.35 136.4 154.95 134.95 156.15 134.1 204.15 142.75 226.1 127.95 227.55 128.65 229.75 130.1 230.2 130.5 219.55 137.4 220.75 137.85 214.1 142.35 207.3 147.1" fill="url(#gradient4)" fill-rule="evenodd" stroke="none"/>
    <path d="M109.2 134.95 L110.8 135.3 137.8 140.2 137.8 147.45 127.75 145.65 127.75 146.85 127.75 148.8 127.75 149.0 127.75 150.25 128.7 150.45 137.8 152.05 137.8 159.55 127.75 157.75 127.75 175.7 137.8 177.5 137.8 180.9 137.8 182.6 127.75 180.8 127.75 185.4 137.8 187.2 137.8 191.6 137.95 192.65 137.35 192.65 109.1 187.45 109.1 186.6 109.1 182.1 109.6 182.1 119.3 183.95 119.3 179.35 115.4 178.6 114.05 178.35 109.6 177.5 109.1 177.4 109.1 175.55 109.1 174.6 109.1 172.4 119.3 174.25 119.3 156.3 109.6 154.5 109.6 147.1 118.2 148.65 119.3 148.8 119.3 147.55 119.3 145.4 119.3 144.2 109.6 142.35 109.1 140.4 109.1 134.95 109.2 134.95 M137.8 150.85 L128.85 149.3 129.6 149.0 137.2 150.35 137.8 150.0 137.8 150.85 M109.6 145.15 L118.2 146.75 118.2 147.35 109.1 145.65 109.6 145.15" fill="url(#gradient5)" fill-rule="evenodd" stroke="none"/>
    <path d="M220.5 98.7 L258.95 105.5 247.65 113.25 106.55 87.9 106.55 78.2 148.0 85.6 220.5 98.7 M233.85 122.6 L229.85 125.4 226.1 127.95 204.15 142.75 156.15 134.1 109.1 125.75 109.1 100.65 109.7 100.15 233.85 122.6" fill="url(#gradient6)" fill-rule="evenodd" stroke="none"/>
    <path d="M157.6 137.4 L159.15 137.65 139.75 147.9 139.5 147.9 139.5 147.55 139.5 146.95 157.6 137.4 M184.75 142.25 L186.2 142.45 139.75 167.2 139.5 167.2 139.5 166.25 184.75 142.25 M189.95 158.7 L189.95 159.8 148.75 181.75 147.4 181.5 147.65 181.3 Q168.7 170.1 189.7 158.85 L189.95 158.7 M189.95 178.35 L189.95 179.45 176.25 186.7 174.9 186.5 175.15 186.25 189.7 178.45 Q189.85 178.35 189.95 178.35 M76.35 122.85 L77.1 122.95 77.95 123.05 58.65 133.4 58.4 133.4 58.3 133.4 58.4 132.4 76.35 122.85 M58.4 152.55 L58.4 151.55 103.4 127.65 105.1 127.8 104.95 127.95 58.65 152.55 58.4 152.55 M67.5 167.1 L66.15 166.95 Q86.85 155.9 107.5 144.8 L108.85 144.05 109.1 143.9 109.2 143.9 Q109.35 144.05 109.1 145.0 L108.35 145.4 67.5 167.1 M124.0 136.05 L130.55 132.55 132.15 132.75 125.45 136.4 124.0 136.05 M93.2 171.8 L109.1 163.2 109.1 164.3 94.55 172.05 93.2 171.8" fill="url(#gradient7)" fill-rule="evenodd" stroke="none"/>
    <path d="M243.65 121.5 L244.4 120.8 245.85 119.9 221.1 154.0 220.85 154.1 220.75 154.1 220.75 152.9 243.65 121.5 M237.85 169.85 L236.25 171.1 236.15 170.95 236.0 170.85 Q236.0 170.6 236.15 170.5 L256.5 142.35 Q256.65 142.1 256.85 142.1 L256.85 143.45 237.85 169.85 M220.75 172.2 L256.5 123.05 256.85 122.85 256.85 125.15 256.85 124.15 221.1 173.25 220.85 173.4 220.75 173.4 220.75 172.2" fill="url(#gradient8)" fill-rule="evenodd" stroke="none"/>
    <path d="M220.75 183.1 L258.25 158.0 258.25 168.65 257.95 168.8 257.0 169.65 256.85 169.65 220.75 194.15 220.75 194.0 220.75 183.1" fill="url(#gradient9)" fill-rule="evenodd" stroke="none"/>
    <path d="M247.65 113.25 L242.55 116.65 109.1 92.8 108.95 92.8 70.55 118.85 63.0 117.5 106.55 87.9 247.65 113.25" fill="url(#gradient10)" fill-rule="evenodd" stroke="none"/>
    <path d="M153.7 84.3 L149.35 85.35 148.0 85.6 106.55 78.2 86.4 91.9 84.6 90.6 83.4 89.35 92.95 82.8 95.15 81.25 94.55 81.15 93.1 80.9 103.55 73.85 105.45 74.2 105.95 74.35 119.4 76.75 117.85 77.85 119.4 78.1 153.7 84.3" fill="url(#gradient11)" fill-rule="evenodd" stroke="none"/>
    <path d="M119.4 76.75 L119.4 78.1 117.85 77.85 119.4 76.75 M93.1 80.9 L94.55 81.15 95.15 81.25 92.95 82.8 92.95 81.0 93.1 80.9" fill="url(#gradient12)" fill-rule="evenodd" stroke="none"/>
    <path d="M84.6 90.6 L86.4 91.9 51.75 115.45 63.0 117.5 70.55 118.85 74.4 119.55 76.6 119.9 77.1 120.05 79.85 120.5 103.9 124.8 103.65 125.4 102.9 127.55 77.95 123.05 77.1 122.95 76.35 122.85 73.7 122.35 73.2 122.25 71.05 121.85 67.25 121.15 59.75 119.8 58.4 119.55 56.1 120.65 40.35 117.5 40.15 117.4 53.45 108.15 54.65 108.3 55.25 108.4 55.75 108.55 83.15 89.6 83.65 89.85 84.6 90.6" fill="url(#gradient13)" fill-rule="evenodd" stroke="none"/>
    <path d="M74.4 119.55 L70.55 118.85 108.95 92.8 109.1 92.8 109.1 96.05 108.95 96.05 74.4 119.55" fill="url(#gradient14)" fill-rule="evenodd" stroke="none"/>
    <path d="M86.4 91.9 L106.55 78.2 106.55 87.9 63.0 117.5 51.75 115.45 86.4 91.9" fill="url(#gradient15)" fill-rule="evenodd" stroke="none"/>
    <path d="M109.7 97.85 L109.7 100.15 109.1 100.65 79.85 120.5 77.1 120.05 99.15 105.15 105.2 100.9 105.7 100.65 109.7 97.85" fill="url(#gradient16)" fill-rule="evenodd" stroke="none"/>
    <path d="M56.1 120.65 L58.4 119.55 58.4 120.65 58.4 127.05 58.4 132.4 58.3 133.4 58.4 133.4 58.4 148.3 58.4 148.55 58.4 151.55 58.4 152.55 58.4 165.5 57.8 166.1 57.7 177.5 56.1 178.35 56.1 128.65 56.1 122.25 56.1 120.65" fill="url(#gradient17)" fill-rule="evenodd" stroke="none"/>
    <path d="M189.95 190.5 L189.95 201.15 139.5 192.05 139.5 186.1 139.5 186.0 139.5 184.8 139.65 184.65 139.5 184.65 138.9 184.3 138.9 182.95 139.5 182.35 139.5 181.4 139.5 181.3 189.95 190.5 M57.7 177.5 L57.8 166.1 109.1 175.55 109.1 177.4 109.1 178.75 109.6 178.75 109.6 180.55 109.1 180.9 109.1 182.1 109.1 186.6 57.7 177.5" fill="url(#gradient18)" fill-rule="evenodd" stroke="none"/>
    <path d="M129.6 147.2 L128.7 147.1 128.7 149.3 128.85 149.3 137.8 150.85 137.8 152.05 128.7 150.45 127.75 150.25 127.75 149.0 127.75 148.8 127.75 146.85 127.75 145.65 137.8 147.45 137.8 148.65 129.6 147.2 M109.6 142.35 L119.3 144.2 119.3 145.4 119.3 147.55 119.3 148.8 118.2 148.65 109.6 147.1 109.1 146.95 109.1 145.75 109.1 145.65 118.2 147.35 118.2 146.75 118.2 145.15 109.6 143.55 109.1 143.55 109.1 142.35 109.6 142.35 M109.1 177.4 L109.6 177.5 114.05 178.35 115.4 178.6 119.3 179.35 119.3 183.95 109.6 182.1 109.1 182.1 109.1 180.9 118.2 182.5 118.2 182.1 118.2 180.3 109.6 178.75 109.1 178.75 109.1 177.4 M137.8 187.2 L127.75 185.4 127.75 180.8 137.8 182.6 137.8 183.8 129.8 182.5 128.7 182.25 128.7 184.45 137.8 186.0 137.8 186.7 137.8 187.2 M109.6 158.1 L109.1 157.9 109.1 155.7 118.2 157.4 118.2 172.9 109.1 171.2 109.1 168.65 116.6 170.15 116.6 169.75 116.6 159.45 109.6 158.1 M137.8 176.3 L128.7 174.75 128.7 159.2 137.8 160.75 137.8 163.2 137.1 163.1 131.65 162.1 130.9 162.0 130.9 172.65 131.15 172.65 137.8 173.85 137.8 176.3" fill="url(#gradient19)" fill-rule="evenodd" stroke="none"/>
    <path d="M103.9 124.8 L79.85 120.5 109.1 100.65 109.1 125.75 103.9 124.8" fill="url(#gradient20)" fill-rule="evenodd" stroke="none"/>
    <path d="M109.1 140.4 L109.6 142.35 109.1 142.35 109.1 140.4 M109.6 147.1 L109.6 154.5 109.1 154.35 109.1 146.95 109.6 147.1" fill="url(#gradient21)" fill-rule="evenodd" stroke="none"/>
    <path d="M129.6 147.2 L137.8 148.65 137.8 150.0 137.2 150.35 129.6 149.0 129.6 147.2 M109.6 145.15 L109.6 143.55 118.2 145.15 118.2 146.75 109.6 145.15 M109.6 158.1 L116.6 159.45 116.6 169.75 109.6 168.4 109.6 158.1 M109.6 178.75 L118.2 180.3 118.2 182.1 109.6 180.55 109.6 178.75 M131.65 162.1 L137.1 163.1 137.1 172.9 131.75 171.9 131.65 171.9 131.65 162.1 M137.8 183.8 L137.8 185.15 129.8 183.8 129.8 182.5 137.8 183.8" fill="url(#gradient22)" fill-rule="evenodd" stroke="none"/>
    <path d="M108.35 145.4 L109.1 145.0 109.1 145.65 109.1 145.75 108.35 145.4" fill="url(#gradient23)" fill-rule="evenodd" stroke="none"/>
    <path d="M109.6 154.5 L119.3 156.3 119.3 174.25 109.1 172.4 109.1 171.2 118.2 172.9 118.2 157.4 109.1 155.7 109.1 154.35 109.6 154.5 M137.8 177.5 L127.75 175.7 127.75 157.75 137.8 159.55 137.8 160.75 128.7 159.2 128.7 174.75 137.8 176.3 137.8 177.5" fill="url(#gradient24)" fill-rule="evenodd" stroke="none"/>
    <path d="M234.2 127.8 L243.65 121.5 220.75 152.9 220.75 137.85 219.55 137.4 230.2 130.5 234.2 127.8 M245.85 119.9 L256.85 112.65 256.85 122.85 256.5 123.05 220.75 172.2 220.75 154.1 220.85 154.1 221.1 154.0 245.85 119.9 M236.15 170.95 L220.75 181.4 220.75 173.4 220.85 173.4 221.1 173.25 256.85 124.15 256.85 125.15 256.85 142.1 Q256.65 142.1 256.5 142.35 L236.15 170.5 Q236.0 170.6 236.0 170.85 L236.15 170.95 M256.85 156.9 L256.75 157.0 256.5 157.15 237.85 169.85 256.85 143.45 256.85 156.9" fill="url(#gradient25)" fill-rule="evenodd" stroke="none"/>
    <path d="M153.2 136.55 L157.6 137.4 139.5 146.95 139.5 146.25 139.5 138.95 139.4 138.95 125.45 136.4 132.15 132.75 153.2 136.55 M159.15 137.65 L184.75 142.25 139.5 166.25 139.5 167.2 139.75 167.2 186.2 142.45 191.05 143.3 189.95 143.9 189.95 158.7 189.7 158.85 Q168.7 170.1 147.65 181.3 L147.4 181.5 139.5 180.05 139.5 176.3 139.5 174.95 139.5 172.65 139.15 172.2 139.15 171.45 139.15 162.35 139.5 162.0 139.5 161.05 139.5 159.45 139.5 158.35 139.5 150.85 139.5 149.75 138.55 149.5 138.55 148.2 139.5 147.55 139.5 147.9 139.75 147.9 159.15 137.65 M189.95 159.8 L189.95 178.35 Q189.85 178.35 189.7 178.45 L175.15 186.25 174.9 186.5 148.75 181.75 189.95 159.8 M189.95 179.45 L189.95 189.15 176.25 186.7 189.95 179.45 M58.4 119.55 L59.75 119.8 67.25 121.15 71.05 121.85 73.2 122.25 73.7 122.35 76.35 122.85 58.4 132.4 58.4 127.05 58.4 120.65 58.4 119.55 M77.95 123.05 L102.9 127.55 103.4 127.65 58.4 151.55 58.4 148.55 58.4 148.3 58.4 133.4 58.65 133.4 77.95 123.05 M58.4 165.5 L58.4 152.55 58.65 152.55 104.95 127.95 130.55 132.55 124.0 136.05 123.9 136.05 110.8 133.75 109.2 134.95 109.1 134.95 109.1 140.4 109.1 142.35 109.1 143.55 109.6 143.55 109.6 145.15 109.1 145.65 109.1 145.0 Q109.35 144.05 109.2 143.9 L109.1 143.9 108.85 144.05 107.5 144.8 Q86.85 155.9 66.15 166.95 L58.4 165.5 M67.5 167.1 L108.35 145.4 109.1 145.75 109.1 146.95 109.1 154.35 109.1 155.7 109.1 157.9 109.6 158.1 109.6 168.4 109.1 168.65 109.1 171.2 109.1 172.4 109.1 174.6 94.55 172.05 109.1 164.3 109.1 163.2 93.2 171.8 67.5 167.1" fill="url(#gradient26)" fill-rule="evenodd" stroke="none"/>
    <path d="M189.95 143.9 L191.55 144.3 198.55 145.5 198.8 145.65 206.05 146.85 206.2 146.85 207.3 147.1 207.3 204.8 207.3 205.5 207.3 205.65 189.95 202.75 189.95 202.5 189.95 201.65 189.95 201.15 189.95 190.5 189.95 189.15 189.95 179.45 189.95 178.35 189.95 159.8 189.95 158.7 189.95 143.9 M40.35 117.5 L56.1 120.65 56.1 122.25 56.1 128.65 56.1 178.35 48.0 176.9 40.0 175.35 39.85 175.35 39.85 117.5 40.35 117.5" fill="url(#gradient27)" fill-rule="evenodd" stroke="none"/>
    <path d="M258.7 112.9 L271.45 104.05 271.45 133.05 271.45 161.4 259.55 169.15 258.95 168.9 258.95 168.3 258.8 133.4 258.7 119.55 258.7 115.2 258.7 112.9 M207.3 147.1 L214.1 142.35 220.75 137.85 220.75 152.9 220.75 154.1 220.75 172.2 220.75 173.4 220.75 181.4 220.75 182.95 220.75 183.1 220.75 194.0 220.75 194.15 220.75 196.4 207.3 205.5 207.3 204.8 207.3 147.1" fill="url(#gradient28)" fill-rule="evenodd" stroke="none"/>
    <path d="M217.3 137.65 L218.5 138.1 207.05 146.0 200.25 144.75 193.0 143.45 194.15 142.85 58.3 118.5 56.0 119.6 42.65 116.9 53.75 109.25 55.5 109.55 55.95 109.7 97.8 80.7 95.8 80.35 103.75 74.95 116.75 77.35 115.05 78.45 117.65 78.9 129.55 81.0 184.25 90.6 Q248.4 101.7 252.4 101.6 L251.95 101.7 268.75 104.65 258.45 111.8 256.65 111.6 217.3 137.65 M49.05 116.0 L51.55 116.5 203.95 143.75 204.4 143.8 204.75 143.6 259.55 106.35 261.6 104.9 106.3 77.15 49.05 116.0" fill="#747474" fill-opacity="0.18039216" fill-rule="evenodd" stroke="none"/>
    <path d="M217.3 137.65 L218.5 138.1 M193.0 143.45 L194.15 142.85 M42.65 116.9 L53.75 109.25 55.5 109.55 55.95 109.7 97.8 80.7 95.8 80.35 103.75 74.95 116.75 77.35 115.05 78.45 117.65 78.9 129.55 81.0 184.25 90.6 Q248.4 101.7 252.4 101.6 L251.95 101.7 268.75 104.65 M49.05 116.0 L51.55 116.5 203.95 143.75 204.4 143.8 204.75 143.6 259.55 106.35 261.6 104.9" fill="none" stroke="#000000" stroke-linecap="round" stroke-linejoin="miter" stroke-opacity="0.47058824" stroke-width="1.0"/>
    <path d="M210.95 144.55 L210.95 203.1 207.3 205.5 207.3 205.65 201.95 204.8 201.95 146.25 206.05 146.85 206.2 146.85 207.3 147.1 210.95 144.55 M39.85 117.5 L40.35 117.5 44.0 118.25 44.0 176.2 40.0 175.35 39.85 175.35 39.85 117.5 M266.95 107.2 L271.45 104.05 271.45 133.05 271.45 161.4 266.95 164.4 266.95 107.2" fill="#ffffff" fill-opacity="0.09019608" fill-rule="evenodd" stroke="none"/>
    <path d="M227.3 121.5 L228.5 121.75 228.5 126.25 227.3 127.05 227.3 121.5 M207.3 117.85 L207.3 140.55 206.05 141.35 206.05 117.6 207.3 117.85 M217.95 119.8 L217.95 133.4 216.75 134.1 216.75 119.55 217.95 119.8 M212.6 118.85 L212.6 136.9 211.45 137.75 211.45 118.6 212.6 118.85 M221.95 120.5 L223.2 120.8 223.2 129.85 221.95 130.6 221.95 120.5 M190.3 114.7 L191.55 114.95 191.55 140.4 190.3 140.3 190.3 114.7 M196.75 115.9 L196.75 141.35 195.55 141.15 195.55 115.7 196.75 115.9 M186.2 114.0 L186.2 139.55 185.0 139.3 185.0 113.75 186.2 114.0 M202.1 116.9 L202.1 142.35 200.85 142.1 200.85 116.65 202.1 116.9 M165.0 110.25 L165.0 135.7 163.75 135.45 163.75 110.0 165.0 110.25 M175.65 112.2 L175.65 137.65 174.45 137.4 174.45 111.9 175.65 112.2 M170.3 111.2 L170.3 136.65 169.1 136.4 169.1 110.95 170.3 111.2 M180.9 113.0 L180.9 138.6 179.65 138.35 179.65 112.9 180.9 113.0 M159.75 109.25 L159.75 134.7 158.55 134.6 158.55 109.0 159.75 109.25 M143.9 106.35 L143.9 131.95 142.7 131.7 142.7 106.1 143.9 106.35 M153.2 108.05 L154.45 108.3 154.45 133.85 153.2 133.65 153.2 108.05 M149.2 107.3 L149.2 132.9 148.0 132.65 148.0 107.1 149.2 107.3 M133.35 104.4 L133.35 130.0 132.15 129.85 132.15 104.15 133.35 104.4 M128.0 103.45 L128.0 129.15 126.8 128.9 126.8 103.2 128.0 103.45 M138.55 105.35 L138.55 130.95 137.35 130.7 137.35 105.15 138.55 105.35 M122.65 128.15 L121.45 127.95 121.45 102.2 122.65 102.5 122.65 128.15 M112.15 100.65 L112.15 126.25 110.9 126.0 110.9 100.4 112.15 100.65 M117.45 101.5 L117.45 127.2 116.25 126.95 116.25 101.4 117.45 101.5" fill="#000000" fill-opacity="0.38039216" fill-rule="evenodd" stroke="none"/>
    <path d="M109.95 78.8 L258.95 105.5 247.65 113.25 242.55 116.65 238.8 119.35 236.6 120.65 236.5 120.8 233.85 122.6 229.85 125.4 204.15 142.75 109.1 125.75 109.1 117.4 Q109.2 114.45 109.45 111.7 110.05 105.25 110.8 98.85 L111.85 89.85 109.95 78.8" fill="url(#gradient29)" fill-rule="evenodd" stroke="none"/>
    <path d="M109.1 125.75 L108.85 125.6 108.6 125.6 107.65 125.5 107.5 125.5 105.7 125.15 105.45 125.15 103.9 124.8 79.85 120.5 77.1 120.05 76.6 119.9 74.4 119.55 70.55 118.85 63.0 117.5 51.75 115.45 106.55 78.2 109.95 78.8 111.85 89.85 110.8 98.85 Q110.05 105.25 109.45 111.7 109.2 114.45 109.1 117.4 L109.1 125.75 M94.55 95.95 L94.65 95.95 96.25 94.95 93.7 95.55 94.55 95.95" fill="url(#gradient30)" fill-rule="evenodd" stroke="none"/>
    <path d="M220.75 181.4 L237.1 170.25 256.85 156.9 256.85 112.65 M258.35 168.8 L258.35 156.9 M109.1 174.6 L58.4 165.5 58.4 119.55 M110.8 133.75 L125.1 136.3 139.5 138.95 139.5 147.55 M139.5 184.8 L139.5 186.1 139.5 192.05 M189.95 189.15 L139.5 180.05 139.5 182.25 M139.5 171.45 L139.5 180.05 M139.5 149.75 L139.5 162.0" fill="none" stroke="#000000" stroke-linecap="round" stroke-linejoin="round" stroke-opacity="0.4392157" stroke-width="0.1"/>
    <path d="M219.55 137.4 L230.2 130.5 Q234.55 127.45 239.05 124.55 L256.85 112.65 258.7 112.9 265.1 108.3 271.45 104.05 M189.95 143.9 L191.55 144.3 198.55 145.5 198.8 145.65 206.05 146.85 206.2 146.85 207.3 147.1 214.1 142.35 220.75 137.85 M207.3 205.5 L207.3 204.8 207.3 175.95 207.3 147.1 M258.7 112.9 L258.95 139.1 258.95 140.9 258.95 168.3 M92.95 82.8 L55.75 108.55 55.25 108.4 54.65 108.3 53.45 108.15 39.85 117.4 42.15 117.95 43.85 118.35 48.0 119.05 51.15 119.7 56.1 120.65 58.4 119.55 119.9 130.6 120.95 130.7 127.15 131.95 129.2 132.3 191.05 143.3 M56.1 178.35 L56.1 149.85 56.1 120.65 M109.2 134.95 L110.8 135.3 123.4 137.5 137.8 140.2 139.4 138.95 M137.8 173.75 L137.8 192.05 M137.1 163.1 L137.1 173.4 M137.8 162.85 L137.8 140.2 M258.95 105.5 L106.55 78.2 51.75 115.45" fill="none" stroke="#ffffff" stroke-linecap="round" stroke-linejoin="round" stroke-opacity="0.10980392" stroke-width="0.1"/>
    <path d="M246.1 86.25 L258.95 83.7 258.95 105.75 246.1 114.45 246.1 86.25" fill="url(#gradient31)" fill-rule="evenodd" stroke="none"/>
    <path d="M211.3 138.0 L204.25 142.85 197.85 141.75 197.85 105.85 211.3 103.2 211.3 138.0" fill="url(#gradient32)" fill-rule="evenodd" stroke="none"/>
    <path d="M119.75 67.55 L119.75 127.65 106.9 125.5 106.9 70.1 119.75 67.55" fill="url(#gradient33)" fill-rule="evenodd" stroke="none"/>
    <path d="M64.0 94.1 L65.45 93.85 65.45 117.95 51.75 115.55 51.75 112.05 51.75 96.5 64.0 94.1" fill="url(#gradient34)" fill-rule="evenodd" stroke="none"/>
    <path d="M106.9 102.05 L106.9 70.1 119.75 67.55 119.75 99.75 119.75 101.65 119.4 102.0 119.2 102.15 117.45 102.85 115.45 103.4 115.0 103.5 114.65 103.55 114.2 103.55 112.35 103.55 111.7 103.55 111.4 103.5 110.75 103.4 110.4 103.4 109.4 103.15 109.1 103.0 108.5 102.9 108.35 102.85 107.45 102.45 107.15 102.25 106.95 102.1 106.9 102.05" fill="url(#gradient35)" fill-rule="evenodd" stroke="none"/>
    <path d="M123.4 100.45 L123.55 128.3 116.8 127.15 116.8 104.9 123.4 100.45" fill="url(#gradient36)" fill-rule="evenodd" stroke="none"/>
    <path d="M119.75 99.75 L123.4 100.45 116.8 104.9 103.5 102.6 106.3 100.8 106.4 101.1 106.5 101.4 106.8 101.95 106.9 102.05 106.95 102.1 107.15 102.25 107.45 102.45 108.35 102.85 108.5 102.9 109.1 103.0 109.4 103.15 110.4 103.4 110.75 103.4 111.4 103.5 111.7 103.55 112.35 103.55 114.2 103.55 114.65 103.55 115.0 103.5 115.45 103.4 117.45 102.85 119.2 102.15 119.4 102.0 119.75 101.65 119.75 99.75" fill="url(#gradient37)" fill-rule="evenodd" stroke="none"/>
    <path d="M116.8 127.15 L102.9 124.65 102.95 102.5 103.5 102.6 116.8 104.9 116.8 127.15" fill="url(#gradient38)" fill-rule="evenodd" stroke="none"/>
  </g>
  <defs>
    <radialGradient cx="0" cy="0" gradientTransform="matrix(0.0338, 0.0, 0.0, 0.0202, 246.45, 105.85)" gradientUnits="userSpaceOnUse" id="gradient0" r="819.2" spreadMethod="pad">
      <stop offset="0.054901960784313725" stop-color="#080808"/>
      <stop offset="1.0" stop-color="#414141"/>
    </radialGradient>
    <radialGradient cx="0" cy="0" gradientTransform="matrix(0.124, 0.0203, -0.0187, 0.1147, 176.4, 77.25)" gradientUnits="userSpaceOnUse" id="gradient1" r="819.2" spreadMethod="pad">
      <stop offset="0.0" stop-color="#514f4f"/>
      <stop offset="1.0" stop-color="#000000"/>
    </radialGradient>
    <radialGradient cx="0" cy="0" gradientTransform="matrix(0.1931, 0.0, 0.0, 0.1931, 142.05, 124.05)" gradientUnits="userSpaceOnUse" id="gradient2" r="819.2" spreadMethod="pad">
      <stop offset="0.0392156862745098" stop-color="#4a4a4a"/>
      <stop offset="1.0" stop-color="#000000"/>
    </radialGradient>
    <radialGradient cx="0" cy="0" gradientTransform="matrix(0.124, 0.0203, -0.0187, 0.1147, 176.4, 77.25)" gradientUnits="userSpaceOnUse" id="gradient3" r="819.2" spreadMethod="pad">
      <stop offset="0.0" stop-color="#626262"/>
      <stop offset="1.0" stop-color="#000000"/>
    </radialGradient>
    <radialGradient cx="0" cy="0" gradientTransform="matrix(0.0388, 0.0, 0.0, 0.0186, 199.8, 135.6)" gradientUnits="userSpaceOnUse" id="gradient4" r="819.2" spreadMethod="pad">
      <stop offset="0.054901960784313725" stop-color="#080808"/>
      <stop offset="1.0" stop-color="#414141"/>
    </radialGradient>
    <linearGradient gradientTransform="matrix(0.007, -0.0339, 0.0171, 0.0036, 118.9, 159.8)" gradientUnits="userSpaceOnUse" id="gradient5" spreadMethod="pad" x1="-819.2" x2="819.2">
      <stop offset="0.0" stop-color="#1c1c1c"/>
      <stop offset="0.6196078431372549" stop-color="#394148"/>
      <stop offset="0.9764705882352941" stop-color="#41484d"/>
    </linearGradient>
    <radialGradient cx="0" cy="0" gradientTransform="matrix(0.124, 0.0203, -0.0187, 0.1147, 176.4, 77.25)" gradientUnits="userSpaceOnUse" id="gradient6" r="819.2" spreadMethod="pad">
      <stop offset="0.0" stop-color="#434343"/>
      <stop offset="1.0" stop-color="#000000"/>
    </radialGradient>
    <linearGradient gradientTransform="matrix(-0.0049, 0.0284, -0.0256, -0.0044, 169.45, 163.3)" gradientUnits="userSpaceOnUse" id="gradient7" spreadMethod="pad" x1="-819.2" x2="819.2">
      <stop offset="0.0" stop-color="#3c3c3c"/>
      <stop offset="0.22745098039215686" stop-color="#6a6a6a"/>
      <stop offset="1.0" stop-color="#151515"/>
    </linearGradient>
    <linearGradient gradientTransform="matrix(0.0179, 0.0302, -0.018, 0.0106, 237.7, 146.85)" gradientUnits="userSpaceOnUse" id="gradient8" spreadMethod="pad" x1="-819.2" x2="819.2">
      <stop offset="0.0" stop-color="#3c3c3c"/>
      <stop offset="0.22745098039215686" stop-color="#6a6a6a"/>
      <stop offset="1.0" stop-color="#151515"/>
    </linearGradient>
    <linearGradient gradientTransform="matrix(0.0038, 0.0055, -0.0113, 0.0079, 227.55, 182.35)" gradientUnits="userSpaceOnUse" id="gradient9" spreadMethod="pad" x1="-819.2" x2="819.2">
      <stop offset="0.0" stop-color="#6c7077"/>
      <stop offset="0.9764705882352941" stop-color="#121415"/>
    </linearGradient>
    <radialGradient cx="0" cy="0" gradientTransform="matrix(0.1931, 0.0, 0.0, 0.1931, 145.95, 102.6)" gradientUnits="userSpaceOnUse" id="gradient10" r="819.2" spreadMethod="pad">
      <stop offset="0.0" stop-color="#5d5d5d"/>
      <stop offset="1.0" stop-color="#000000"/>
    </radialGradient>
    <radialGradient cx="0" cy="0" gradientTransform="matrix(0.0441, 0.0, 0.0, 0.0193, 111.05, 76.4)" gradientUnits="userSpaceOnUse" id="gradient11" r="819.2" spreadMethod="pad">
      <stop offset="0.054901960784313725" stop-color="#080808"/>
      <stop offset="1.0" stop-color="#414141"/>
    </radialGradient>
    <linearGradient gradientTransform="matrix(0.007, -0.0339, 0.0171, 0.0036, 118.9, 159.8)" gradientUnits="userSpaceOnUse" id="gradient12" spreadMethod="pad" x1="-819.2" x2="819.2">
      <stop offset="0.0" stop-color="#535456"/>
      <stop offset="0.9764705882352941" stop-color="#7c848a"/>
    </linearGradient>
    <radialGradient cx="0" cy="0" gradientTransform="matrix(0.0269, 0.0, 0.0, 0.013, 61.05, 113.85)" gradientUnits="userSpaceOnUse" id="gradient13" r="819.2" spreadMethod="pad">
      <stop offset="0.054901960784313725" stop-color="#080808"/>
      <stop offset="1.0" stop-color="#414141"/>
    </radialGradient>
    <radialGradient cx="0" cy="0" gradientTransform="matrix(0.1021, 0.0, 0.0, 0.1021, 142.05, 124.05)" gradientUnits="userSpaceOnUse" id="gradient14" r="819.2" spreadMethod="pad">
      <stop offset="0.0392156862745098" stop-color="#707070"/>
      <stop offset="1.0" stop-color="#000000"/>
    </radialGradient>
    <radialGradient cx="0" cy="0" gradientTransform="matrix(0.1931, 0.0, 0.0, 0.1931, 142.05, 124.05)" gradientUnits="userSpaceOnUse" id="gradient15" r="819.2" spreadMethod="pad">
      <stop offset="0.0392156862745098" stop-color="#434343"/>
      <stop offset="1.0" stop-color="#000000"/>
    </radialGradient>
    <radialGradient cx="0" cy="0" gradientTransform="matrix(0.1931, 0.0, 0.0, 0.1931, 142.05, 124.05)" gradientUnits="userSpaceOnUse" id="gradient16" r="819.2" spreadMethod="pad">
      <stop offset="0.06666666666666667" stop-color="#313131"/>
      <stop offset="1.0" stop-color="#000000"/>
    </radialGradient>
    <linearGradient gradientTransform="matrix(0.0034, 3.0E-4, -0.0024, 0.0358, 57.95, 149.0)" gradientUnits="userSpaceOnUse" id="gradient17" spreadMethod="pad" x1="-819.2" x2="819.2">
      <stop offset="0.0" stop-color="#565656"/>
      <stop offset="1.0" stop-color="#151515"/>
    </linearGradient>
    <linearGradient gradientTransform="matrix(-0.002, 0.0108, -0.0317, -0.006, 87.0, 176.55)" gradientUnits="userSpaceOnUse" id="gradient18" spreadMethod="pad" x1="-819.2" x2="819.2">
      <stop offset="0.0" stop-color="#6c7077"/>
      <stop offset="0.9764705882352941" stop-color="#121415"/>
    </linearGradient>
    <linearGradient gradientTransform="matrix(0.007, -0.0339, 0.0171, 0.0036, 118.9, 159.8)" gradientUnits="userSpaceOnUse" id="gradient19" spreadMethod="pad" x1="-819.2" x2="819.2">
      <stop offset="0.0" stop-color="#1c1c1c"/>
      <stop offset="0.9764705882352941" stop-color="#647785"/>
    </linearGradient>
    <radialGradient cx="0" cy="0" gradientTransform="matrix(0.1021, 0.0, 0.0, 0.1021, 142.05, 124.05)" gradientUnits="userSpaceOnUse" id="gradient20" r="819.2" spreadMethod="pad">
      <stop offset="0.0392156862745098" stop-color="#313131"/>
      <stop offset="1.0" stop-color="#000000"/>
    </radialGradient>
    <linearGradient gradientTransform="matrix(0.007, -0.0339, 0.0171, 0.0036, 118.9, 159.8)" gradientUnits="userSpaceOnUse" id="gradient21" spreadMethod="pad" x1="-819.2" x2="819.2">
      <stop offset="0.0" stop-color="#1c1c1c"/>
      <stop offset="0.9764705882352941" stop-color="#485056"/>
    </linearGradient>
    <linearGradient gradientTransform="matrix(4.0E-4, -0.0249, 0.0071, 1.0E-4, 113.1, 163.95)" gradientUnits="userSpaceOnUse" id="gradient22" spreadMethod="pad" x1="-819.2" x2="819.2">
      <stop offset="0.0" stop-color="#151515"/>
      <stop offset="0.9058823529411765" stop-color="#424d54"/>
    </linearGradient>
    <linearGradient gradientTransform="matrix(-0.0046, 0.0268, -0.0306, -0.0053, 160.5, 155.7)" gradientUnits="userSpaceOnUse" id="gradient23" spreadMethod="pad" x1="-819.2" x2="819.2">
      <stop offset="0.0" stop-color="#9f9f9f"/>
      <stop offset="1.0" stop-color="#373c3f"/>
    </linearGradient>
    <linearGradient gradientTransform="matrix(0.007, -0.0339, 0.0171, 0.0036, 118.9, 159.8)" gradientUnits="userSpaceOnUse" id="gradient24" spreadMethod="pad" x1="-819.2" x2="819.2">
      <stop offset="0.0" stop-color="#1c1c1c"/>
      <stop offset="0.9764705882352941" stop-color="#41484d"/>
    </linearGradient>
    <linearGradient gradientTransform="matrix(0.0124, 0.017, -0.008, 0.0059, 225.95, 156.15)" gradientUnits="userSpaceOnUse" id="gradient25" spreadMethod="pad" x1="-819.2" x2="819.2">
      <stop offset="0.0" stop-color="#858585"/>
      <stop offset="0.32941176470588235" stop-color="#bbbbbb"/>
      <stop offset="1.0" stop-color="#4f5558"/>
    </linearGradient>
    <linearGradient gradientTransform="matrix(-0.0046, 0.0268, -0.0306, -0.0053, 160.5, 155.7)" gradientUnits="userSpaceOnUse" id="gradient26" spreadMethod="pad" x1="-819.2" x2="819.2">
      <stop offset="0.0" stop-color="#858585"/>
      <stop offset="0.32941176470588235" stop-color="#bbbbbb"/>
      <stop offset="1.0" stop-color="#4f5558"/>
    </linearGradient>
    <linearGradient gradientTransform="matrix(0.007, -0.0339, 0.0171, 0.0036, 118.9, 159.8)" gradientUnits="userSpaceOnUse" id="gradient27" spreadMethod="pad" x1="-819.2" x2="819.2">
      <stop offset="0.0" stop-color="#2a3c2b"/>
      <stop offset="0.5215686274509804" stop-color="#5a8053"/>
      <stop offset="0.9568627450980393" stop-color="#7cb678"/>
    </linearGradient>
    <linearGradient gradientTransform="matrix(-0.0182, -0.028, 0.008, -0.0052, 263.3, 132.9)" gradientUnits="userSpaceOnUse" id="gradient28" spreadMethod="pad" x1="-819.2" x2="819.2">
      <stop offset="0.0" stop-color="#2a3c2b"/>
      <stop offset="0.5215686274509804" stop-color="#5a8053"/>
      <stop offset="0.9568627450980393" stop-color="#7cb678"/>
    </linearGradient>
    <radialGradient cx="0" cy="0" gradientTransform="matrix(0.0246, -0.0016, 0.0043, 0.0656, 117.35, 102.85)" gradientUnits="userSpaceOnUse" id="gradient29" r="819.2" spreadMethod="pad">
      <stop offset="0.0" stop-color="#000000"/>
      <stop offset="1.0" stop-color="#000000" stop-opacity="0.0"/>
    </radialGradient>
    <radialGradient cx="0" cy="0" gradientTransform="matrix(0.0197, 0.0, 0.0, 0.0764, 106.4, 104.75)" gradientUnits="userSpaceOnUse" id="gradient30" r="819.2" spreadMethod="pad">
      <stop offset="0.0392156862745098" stop-color="#000000"/>
      <stop offset="1.0" stop-color="#000000" stop-opacity="0.0"/>
    </radialGradient>
    <linearGradient gradientTransform="matrix(0.0097, 2.0E-4, -2.0E-4, 0.0115, 248.05, 103.8)" gradientUnits="userSpaceOnUse" id="gradient31" spreadMethod="pad" x1="-819.2" x2="819.2">
      <stop offset="0.0" stop-color="#292c2e"/>
      <stop offset="0.43137254901960786" stop-color="#1c1c1c"/>
      <stop offset="0.7843137254901961" stop-color="#3a3f43"/>
      <stop offset="1.0" stop-color="#4a5054"/>
    </linearGradient>
    <linearGradient gradientTransform="matrix(0.0097, 2.0E-4, -2.0E-4, 0.0115, 204.25, 133.4)" gradientUnits="userSpaceOnUse" id="gradient32" spreadMethod="pad" x1="-819.2" x2="819.2">
      <stop offset="0.0" stop-color="#292c2e"/>
      <stop offset="0.43137254901960786" stop-color="#1c1c1c"/>
      <stop offset="0.7843137254901961" stop-color="#3a3f43"/>
      <stop offset="1.0" stop-color="#4a5054"/>
    </linearGradient>
    <linearGradient gradientTransform="matrix(0.0097, 2.0E-4, -2.0E-4, 0.0115, 113.1, 76.15)" gradientUnits="userSpaceOnUse" id="gradient33" spreadMethod="pad" x1="-819.2" x2="819.2">
      <stop offset="0.0" stop-color="#292c2e"/>
      <stop offset="0.43137254901960786" stop-color="#1c1c1c"/>
      <stop offset="0.7843137254901961" stop-color="#3a3f43"/>
      <stop offset="1.0" stop-color="#4a5054"/>
    </linearGradient>
    <linearGradient gradientTransform="matrix(0.0097, 2.0E-4, -2.0E-4, 0.0115, 61.55, 108.05)" gradientUnits="userSpaceOnUse" id="gradient34" spreadMethod="pad" x1="-819.2" x2="819.2">
      <stop offset="0.0" stop-color="#292c2e"/>
      <stop offset="0.43137254901960786" stop-color="#1c1c1c"/>
      <stop offset="0.7843137254901961" stop-color="#3a3f43"/>
      <stop offset="1.0" stop-color="#4a5054"/>
    </linearGradient>
    <radialGradient cx="0" cy="0" gradientTransform="matrix(0.0287, 0.0, 0.0, 0.0556, 113.7, 86.35)" gradientUnits="userSpaceOnUse" id="gradient35" r="819.2" spreadMethod="pad">
      <stop offset="0.5372549019607843" stop-color="#000000" stop-opacity="0.0"/>
      <stop offset="1.0" stop-color="#000000"/>
    </radialGradient>
    <linearGradient gradientTransform="matrix(-0.0056, 0.0, 0.0, -0.0149, 120.45, 115.15)" gradientUnits="userSpaceOnUse" id="gradient36" spreadMethod="pad" x1="-819.2" x2="819.2">
      <stop offset="0.0" stop-color="#000000"/>
      <stop offset="0.9686274509803922" stop-color="#434343"/>
    </linearGradient>
    <radialGradient cx="0" cy="0" gradientTransform="matrix(0.0139, 0.0, 0.0, 0.0041, 112.9, 101.4)" gradientUnits="userSpaceOnUse" id="gradient37" r="819.2" spreadMethod="pad">
      <stop offset="0.5411764705882353" stop-color="#000000"/>
      <stop offset="1.0" stop-color="#808080"/>
    </radialGradient>
    <linearGradient gradientTransform="matrix(0.0103, 0.0, 0.0, 0.0145, 108.65, 115.0)" gradientUnits="userSpaceOnUse" id="gradient38" spreadMethod="pad" x1="-819.2" x2="819.2">
      <stop offset="0.0" stop-color="#000000"/>
      <stop offset="0.9686274509803922" stop-color="#434343"/>
    </linearGradient>
  </defs>
</svg>
