<?xml version="1.0" encoding="UTF-8" standalone="no"?>
<svg xmlns:xlink="http://www.w3.org/1999/xlink" height="49.9px" width="108.7px" xmlns="http://www.w3.org/2000/svg">
  <g transform="matrix(1.0, 0.0, 0.0, 1.0, 14.05, 8.6)">
    <path d="M87.25 13.5 L87.25 35.6 -5.75 35.6 -5.75 -2.15 67.45 -2.15 87.25 13.5 M85.15 33.95 L85.15 14.15 66.05 -0.9 -3.7 -0.9 -3.7 33.95 85.15 33.95" fill="url(#gradient0)" fill-rule="evenodd" stroke="none"/>
    <path d="M93.15 10.25 L93.15 40.1 -12.55 40.1 -12.55 -7.35 71.25 -7.35 93.15 10.25 M87.25 13.5 L67.45 -2.15 -5.75 -2.15 -5.75 35.6 87.25 35.6 87.25 13.5" fill="url(#gradient1)" fill-rule="evenodd" stroke="none"/>
    <path d="M93.15 10.25 L71.25 -7.35 -12.55 -7.35 -12.55 40.1 93.15 40.1 93.15 10.25 M94.65 9.75 L94.65 41.3 -14.05 41.3 -14.05 -8.6 71.75 -8.6 94.65 9.75" fill="url(#gradient2)" fill-rule="evenodd" stroke="none"/>
  </g>
  <defs>
    <linearGradient gradientTransform="matrix(7.0E-4, 0.027, -0.033, 7.0E-4, 40.3, 14.25)" gradientUnits="userSpaceOnUse" id="gradient0" spreadMethod="pad" x1="-819.2" x2="819.2">
      <stop offset="0.00392156862745098" stop-color="#292929"/>
      <stop offset="0.9882352941176471" stop-color="#2c528b"/>
    </linearGradient>
    <linearGradient gradientTransform="matrix(0.0073, -0.039, 0.0348, 0.0052, 52.45, 0.1)" gradientUnits="userSpaceOnUse" id="gradient1" spreadMethod="pad" x1="-819.2" x2="819.2">
      <stop offset="0.0" stop-color="#666666"/>
      <stop offset="0.4549019607843137" stop-color="#cccccc"/>
      <stop offset="1.0" stop-color="#4d4d4d"/>
    </linearGradient>
    <linearGradient gradientTransform="matrix(0.0076, -0.0408, 0.0361, 0.0054, 40.3, 14.25)" gradientUnits="userSpaceOnUse" id="gradient2" spreadMethod="pad" x1="-819.2" x2="819.2">
      <stop offset="0.00392156862745098" stop-color="#1a1a1a"/>
      <stop offset="1.0" stop-color="#333333"/>
    </linearGradient>
  </defs>
</svg>
