<?xml version="1.0" encoding="UTF-8" standalone="no"?>
<svg xmlns:xlink="http://www.w3.org/1999/xlink" height="33.4px" width="33.35px" xmlns="http://www.w3.org/2000/svg">
  <g transform="matrix(1.0, 0.0, 0.0, 1.0, 3.9, 3.9)">
    <path d="M28.7 12.8 Q28.7 19.4 24.05 24.05 19.35 28.75 12.75 28.75 6.2 28.75 1.5 24.05 -3.15 19.4 -3.15 12.8 -3.15 6.2 1.5 1.5 6.2 -3.15 12.75 -3.15 19.35 -3.15 24.05 1.5 28.7 6.2 28.7 12.8" fill="#120000" fill-rule="evenodd" stroke="none"/>
    <path d="M28.7 12.8 Q28.7 19.4 24.05 24.05 19.35 28.75 12.75 28.75 6.2 28.75 1.5 24.05 -3.15 19.4 -3.15 12.8 -3.15 6.2 1.5 1.5 6.2 -3.15 12.75 -3.15 19.35 -3.15 24.05 1.5 28.7 6.2 28.7 12.8 Z" fill="none" stroke="#9c0000" stroke-linecap="butt" stroke-linejoin="miter" stroke-width="1.5"/>
  </g>
</svg>
