<?xml version="1.0" encoding="UTF-8" standalone="no"?>
<svg xmlns:xlink="http://www.w3.org/1999/xlink" height="49.9px" width="108.7px" xmlns="http://www.w3.org/2000/svg">
  <g transform="matrix(1.0, 0.0, 0.0, 1.0, -5.15, 8.6)">
    <path d="M105.55 -2.15 L105.55 35.6 12.55 35.6 12.55 13.5 32.35 -2.15 105.55 -2.15 M33.75 -0.9 L14.65 14.15 14.65 33.95 103.5 33.95 103.5 -0.9 33.75 -0.9" fill="url(#gradient0)" fill-rule="evenodd" stroke="none"/>
    <path d="M112.35 -7.35 L112.35 40.1 6.65 40.1 6.65 10.25 28.55 -7.35 112.35 -7.35 M105.55 -2.15 L32.35 -2.15 12.55 13.5 12.55 35.6 105.55 35.6 105.55 -2.15" fill="url(#gradient1)" fill-rule="evenodd" stroke="none"/>
    <path d="M112.35 -7.35 L28.55 -7.35 6.65 10.25 6.65 40.1 112.35 40.1 112.35 -7.35 M113.85 -8.6 L113.85 41.3 5.15 41.3 5.15 9.75 28.05 -8.6 113.85 -8.6" fill="url(#gradient2)" fill-rule="evenodd" stroke="none"/>
  </g>
  <defs>
    <linearGradient gradientTransform="matrix(-7.0E-4, 0.027, 0.033, 7.0E-4, 59.5, 14.25)" gradientUnits="userSpaceOnUse" id="gradient0" spreadMethod="pad" x1="-819.2" x2="819.2">
      <stop offset="0.00392156862745098" stop-color="#292929"/>
      <stop offset="0.9882352941176471" stop-color="#2c528b"/>
    </linearGradient>
    <linearGradient gradientTransform="matrix(-0.0073, -0.039, -0.0348, 0.0052, 47.35, 0.1)" gradientUnits="userSpaceOnUse" id="gradient1" spreadMethod="pad" x1="-819.2" x2="819.2">
      <stop offset="0.0" stop-color="#666666"/>
      <stop offset="0.4549019607843137" stop-color="#cccccc"/>
      <stop offset="1.0" stop-color="#4d4d4d"/>
    </linearGradient>
    <linearGradient gradientTransform="matrix(-0.0076, -0.0408, -0.0361, 0.0054, 59.5, 14.25)" gradientUnits="userSpaceOnUse" id="gradient2" spreadMethod="pad" x1="-819.2" x2="819.2">
      <stop offset="0.00392156862745098" stop-color="#1a1a1a"/>
      <stop offset="1.0" stop-color="#333333"/>
    </linearGradient>
  </defs>
</svg>
