<?xml version="1.0" encoding="UTF-8" standalone="no"?>
<svg xmlns:xlink="http://www.w3.org/1999/xlink" height="60.6px" width="60.6px" xmlns="http://www.w3.org/2000/svg">
  <g transform="matrix(1.0, 0.0, 0.0, 1.0, -241.65, 0.3)">
    <path d="M290.4 48.45 Q282.75 56.1 271.95 56.1 261.15 56.1 253.5 48.45 245.85 40.8 245.85 30.0 245.85 19.2 253.5 11.55 261.15 3.9 271.95 3.9 282.75 3.9 290.4 11.55 298.05 19.2 298.05 30.0 298.05 40.8 290.4 48.45" fill="#000000" fill-rule="evenodd" stroke="none"/>
    <path d="M301.25 30.0 Q301.25 42.1 292.7 50.7 284.1 59.3 271.95 59.3 259.85 59.3 251.25 50.7 242.65 42.1 242.65 30.0 242.65 17.85 251.25 9.25 259.85 0.7 271.95 0.7 284.1 0.7 292.7 9.25 301.25 17.85 301.25 30.0 Z" fill="none" stroke="#000000" stroke-linecap="round" stroke-linejoin="round" stroke-width="2.0"/>
  </g>
</svg>
