<?xml version="1.0" encoding="UTF-8" standalone="no"?>
<svg xmlns:xlink="http://www.w3.org/1999/xlink" height="71.05px" width="350.95px" xmlns="http://www.w3.org/2000/svg">
  <g transform="matrix(1.0, 0.0, 0.0, 1.0, 175.45, 35.5)">
    <path d="M160.75 -18.4 L158.6 -15.95 158.55 -15.95 156.75 -13.85 156.8 -13.85 154.5 -11.2 154.45 -11.2 152.6 -9.1 152.65 -9.1 150.35 -6.45 150.3 -6.45 148.5 -4.35 148.55 -4.35 146.3 -1.75 146.25 -1.75 144.4 0.35 144.45 0.35 142.0 3.2 141.95 3.2 140.15 5.3 138.05 7.75 138.0 7.75 136.2 9.85 133.95 12.5 133.9 12.5 132.05 14.6 132.1 14.6 129.8 17.25 129.75 17.25 127.95 19.35 128.0 19.35 125.85 21.8 125.8 21.8 124.0 23.9 124.05 23.9 121.75 26.55 121.7 26.55 119.9 28.65 117.6 31.3 115.75 33.4 115.8 33.4 114.85 34.5 113.9 35.55 -175.45 35.55 -175.45 -35.5 175.5 -35.5 171.95 -31.35 168.9 -27.9 168.95 -27.9 166.65 -25.25 166.6 -25.25 164.8 -23.15 164.85 -23.15 162.55 -20.5 162.5 -20.5 160.7 -18.4 160.75 -18.4" fill="#cccccc" fill-opacity="0.0" fill-rule="evenodd" stroke="none"/>
  </g>
</svg>
