<?xml version="1.0" encoding="UTF-8" standalone="no"?>
<svg xmlns:xlink="http://www.w3.org/1999/xlink" height="73.5px" width="316.0px" xmlns="http://www.w3.org/2000/svg">
  <g transform="matrix(1.0, 0.0, 0.0, 1.0, -8.85, -0.5)">
    <path d="M324.85 74.0 L298.0 74.0 298.0 71.5 324.85 71.5 324.85 74.0 M255.85 46.6 L103.7 46.6 103.7 50.5 76.85 50.5 76.85 45.95 101.5 45.95 101.5 42.0 255.85 42.0 255.85 46.6 M163.25 4.4 L184.9 4.4 184.9 9.0 157.0 9.0 157.0 5.05 8.85 5.05 8.85 0.5 163.25 0.5 163.25 4.4 M95.6 63.0 L46.95 63.0 46.95 60.5 95.6 60.5 95.6 63.0" fill="#ce0000" fill-rule="evenodd" stroke="none"/>
  </g>
</svg>
