<?xml version="1.0" encoding="UTF-8" standalone="no"?>
<svg xmlns:xlink="http://www.w3.org/1999/xlink" height="52.0px" width="253.1px" xmlns="http://www.w3.org/2000/svg">
  <g transform="matrix(1.0, 0.0, 0.0, 1.0, -46.95, -20.5)">
    <path d="M300.05 25.0 L238.25 25.0 238.25 20.5 300.05 20.5 300.05 25.0 M245.95 42.5 L219.15 42.5 219.15 35.5 245.95 35.5 245.95 42.5 M220.65 31.0 L132.25 31.0 132.25 28.2 220.65 28.2 220.65 31.0 M107.9 36.0 L80.05 36.0 80.05 31.5 107.9 31.5 107.9 36.0 M94.15 68.95 L46.95 68.95 46.95 64.0 95.6 64.0 95.6 67.55 121.0 67.55 121.0 72.5 94.15 72.5 94.15 68.95" fill="#ce0000" fill-rule="evenodd" stroke="none"/>
  </g>
</svg>
