<?xml version="1.0" encoding="UTF-8" standalone="no"?>
<svg xmlns:xlink="http://www.w3.org/1999/xlink" height="58.5px" width="305.6px" xmlns="http://www.w3.org/2000/svg">
  <g transform="matrix(1.0, 0.0, 0.0, 1.0, -22.8, -9.0)">
    <path d="M328.4 32.0 L248.2 32.0 248.2 29.6 328.4 29.6 328.4 32.0 M313.3 13.5 L313.3 20.5 286.45 20.5 286.45 13.5 313.3 13.5 M270.95 40.5 L270.95 47.5 244.15 47.5 244.15 40.5 270.95 40.5 M321.0 58.5 L321.0 65.5 294.15 65.5 294.15 58.5 321.0 58.5 M211.35 17.5 L184.5 17.5 184.5 13.25 97.65 13.25 97.65 9.0 186.05 9.0 186.05 13.25 211.35 13.25 211.35 17.5 M178.7 48.0 L151.9 48.0 151.9 44.5 178.7 44.5 178.7 48.0 M189.3 65.0 L238.0 65.0 238.0 67.5 189.3 67.5 189.3 65.0 M84.55 42.25 L65.6 42.25 65.6 46.0 37.7 46.0 37.7 42.25 22.8 42.25 22.8 38.5 84.55 38.5 84.55 42.25" fill="#ce0000" fill-rule="evenodd" stroke="none"/>
  </g>
</svg>
