<?xml version="1.0" encoding="UTF-8" standalone="no"?>
<svg xmlns:xlink="http://www.w3.org/1999/xlink" height="54.75px" width="277.95px" xmlns="http://www.w3.org/2000/svg">
  <g transform="matrix(1.0, 0.0, 0.0, 1.0, -25.75, -15.25)">
    <path d="M303.7 37.5 L276.85 37.5 276.85 30.5 303.7 30.5 303.7 37.5 M249.9 44.5 L249.9 37.5 276.75 37.5 276.75 44.5 249.9 44.5 M164.85 47.5 L188.25 47.5 188.25 54.5 161.4 54.5 161.4 48.6 84.65 48.6 84.65 41.6 164.85 41.6 164.85 47.5 M138.25 28.5 L111.4 28.5 111.4 22.25 63.0 22.25 63.0 15.25 151.4 15.25 151.4 22.25 138.25 22.25 138.25 28.5 M121.1 65.95 L121.1 62.5 147.95 62.5 147.95 66.55 122.85 66.55 122.85 70.0 61.1 70.0 61.1 66.55 53.1 66.55 53.1 62.5 81.0 62.5 81.0 65.95 121.1 65.95 M74.45 30.5 L25.75 30.5 25.75 23.5 74.45 23.5 74.45 30.5" fill="#ce0000" fill-rule="evenodd" stroke="none"/>
  </g>
</svg>
