<?xml version="1.0" encoding="UTF-8" standalone="no"?>
<svg xmlns:xlink="http://www.w3.org/1999/xlink" height="79.3px" width="142.1px" xmlns="http://www.w3.org/2000/svg">
  <g transform="matrix(1.0, 0.0, 0.0, 1.0, 43.1, 19.35)">
    <path d="M97.1 13.25 L97.1 14.1 97.1 15.25 94.85 14.9 96.25 13.85 97.1 13.25" fill="#333333" fill-rule="evenodd" stroke="none"/>
    <path d="M0.55 -3.7 L0.45 -3.7 0.7 -3.95 0.55 -3.7 M18.35 25.85 L18.25 26.75 18.2 26.75 18.35 25.85" fill="#c5dce9" fill-rule="evenodd" stroke="none"/>
    <path d="M15.65 39.35 L15.65 40.3 15.5 40.3 15.65 39.35" fill="#9baab8" fill-rule="evenodd" stroke="none"/>
    <path d="M18.25 26.75 L15.65 39.35 15.5 40.3 15.65 40.3 15.5 54.15 -43.1 43.6 -43.1 29.85 -31.1 17.75 18.2 26.75 18.25 26.75" fill="#60a660" fill-rule="evenodd" stroke="none"/>
    <path d="M0.55 -3.7 L0.7 -3.95 2.7 -5.25 23.2 -19.35 72.05 -10.55 51.45 3.4 48.85 5.2 42.05 9.7 18.35 25.85 18.2 26.75 -31.1 17.75 -6.7 1.15 -4.9 1.4 0.55 -3.7" fill="#7cc47c" fill-rule="evenodd" stroke="none"/>
    <path d="M-4.3 0.9 L0.55 -3.7 0.7 -3.95 1.85 -5.45 53.45 3.75 50.85 5.55 2.1 -3.45 -4.3 0.9" fill="#191919" fill-rule="evenodd" stroke="none"/>
    <path d="M-43.1 41.25 L-42.95 41.1 15.85 51.55 15.85 51.65 15.95 54.4 -43.1 43.75 -43.1 41.25" fill="#919191" fill-opacity="0.56078434" fill-rule="evenodd" stroke="none"/>
    <path d="M50.85 5.55 L43.85 10.05 -4.8 1.4 -4.3 0.9 2.1 -3.45 50.85 5.55" fill="url(#gradient0)" fill-rule="evenodd" stroke="none"/>
    <path d="M18.35 25.85 L21.55 26.45 37.8 29.4 35.4 42.9 35.4 43.0 18.1 39.8 15.65 39.35 18.25 26.75 18.35 25.85" fill="#9f9f9f" fill-rule="evenodd" stroke="none"/>
    <path d="M35.4 59.95 L15.5 56.3 15.5 54.15 15.65 40.3 15.65 39.35 18.1 39.8 35.4 43.0 35.4 59.95" fill="#939393" fill-rule="evenodd" stroke="none"/>
    <path d="M62.2 13.15 L61.6 13.0 Q59.25 12.65 58.1 11.7 L59.6 10.3 61.15 9.35 Q63.3 8.3 66.75 7.45 L71.35 6.85 74.55 7.0 75.4 7.2 62.2 16.1 62.2 13.15" fill="#8a8a8a" fill-rule="evenodd" stroke="none"/>
    <path d="M37.8 29.4 L62.2 13.15 62.2 16.1 40.4 30.45 37.3 44.1 37.3 54.25 37.3 55.25 37.3 58.2 35.4 59.95 35.4 43.0 35.4 42.9 37.8 29.4 M75.4 4.1 L94.0 -9.15 95.7 -10.35 96.5 -7.95 96.75 -7.15 97.1 -6.05 99.0 0.7 99.0 13.95 97.1 15.25 97.1 13.25 97.1 0.1 94.85 -6.55 94.7 -6.55 75.4 7.2 75.4 4.1" fill="#707070" fill-rule="evenodd" stroke="none"/>
    <path d="M97.1 13.25 L94.85 14.9 93.2 16.1 93.2 10.05 90.9 3.3 88.9 4.7 86.85 6.15 86.25 6.55 86.15 6.65 44.65 35.3 43.95 35.8 43.0 39.9 42.9 40.35 42.85 40.45 42.45 42.25 42.25 43.2 41.95 44.45 41.95 46.8 41.95 48.7 41.95 51.1 37.3 54.25 37.3 44.1 40.4 30.45 62.2 16.1 75.4 7.2 94.7 -6.55 94.85 -6.55 97.1 0.1 97.1 13.25" fill="url(#gradient1)" fill-rule="evenodd" stroke="none"/>
    <path d="M88.0 17.3 L87.85 17.45 87.15 17.9 87.1 17.95 87.1 17.9 85.3 17.5 87.1 16.25 87.1 13.2 42.9 42.75 42.9 42.85 42.85 42.9 42.85 46.2 42.85 48.1 41.95 48.7 41.95 46.8 41.95 44.45 42.25 43.2 42.45 42.25 42.85 40.45 42.9 40.35 42.9 41.95 87.1 12.45 87.15 9.7 86.15 6.65 86.25 6.55 86.85 6.15 88.0 9.75 88.0 17.0 88.0 17.3" fill="url(#gradient2)" fill-rule="evenodd" stroke="none"/>
    <path d="M90.45 15.65 L88.0 17.3 88.0 17.0 88.0 9.75 86.85 6.15 88.9 4.7 90.45 9.45 90.45 15.65" fill="url(#gradient3)" fill-rule="evenodd" stroke="none"/>
    <path d="M93.2 16.1 L90.45 15.65 90.45 9.45 88.9 4.7 90.9 3.3 93.2 10.05 93.2 16.1" fill="url(#gradient4)" fill-rule="evenodd" stroke="none"/>
    <path d="M86.15 6.65 L87.15 9.7 87.1 12.45 42.9 41.95 42.9 40.35 43.0 39.9 43.95 35.8 44.65 35.3 86.15 6.65" fill="url(#gradient5)" fill-rule="evenodd" stroke="none"/>
    <path d="M85.3 17.5 L42.85 46.2 42.85 42.9 42.9 42.85 42.9 42.75 87.1 13.2 87.1 16.25 85.3 17.5" fill="url(#gradient6)" fill-rule="evenodd" stroke="none"/>
    <path d="M58.1 11.7 L57.5 10.8 Q57.0 9.2 59.6 7.2 62.35 5.3 66.75 4.35 L73.85 3.9 74.55 3.9 75.4 4.1 75.4 7.2 74.55 7.0 71.35 6.85 66.75 7.45 Q63.3 8.3 61.15 9.35 L59.6 10.3 58.1 11.7" fill="url(#gradient7)" fill-rule="evenodd" stroke="none"/>
    <path d="M18.35 25.85 L72.05 -10.55 76.35 -13.55 95.7 -10.35 94.0 -9.15 75.4 4.1 74.55 3.9 73.85 3.9 66.75 4.35 Q62.35 5.3 59.6 7.2 57.0 9.2 57.5 10.8 L58.1 11.7 Q59.25 12.65 61.6 13.0 L62.2 13.15 37.8 29.4 21.55 26.45 18.35 25.85" fill="#99acb1" fill-rule="evenodd" stroke="none"/>
    <path d="M72.05 -10.55 L76.35 -13.55 95.7 -10.35 94.0 -9.15 75.5 4.1 74.65 3.9 73.95 3.9 66.85 4.35 Q62.45 5.3 59.75 7.2 57.1 9.2 57.6 10.8 L58.2 11.7 Q59.4 12.65 61.75 13.0 L62.35 13.15 37.8 29.4 21.55 26.45 18.35 25.85 72.05 -10.55" fill="url(#gradient8)" fill-rule="evenodd" stroke="none"/>
    <path d="M72.05 -10.55 L18.35 25.85 18.25 26.75 -31.1 17.75 23.2 -19.35 72.05 -10.55" fill="url(#gradient9)" fill-rule="evenodd" stroke="none"/>
    <path d="M18.35 25.85 L21.55 26.45 37.8 29.4 35.4 42.9 35.4 43.0 18.1 39.8 15.65 39.35 18.25 26.75 18.35 25.85" fill="url(#gradient10)" fill-rule="evenodd" stroke="none"/>
    <path d="M35.4 43.0 L35.4 59.95 15.5 56.3 15.5 54.15 15.65 40.3 15.65 39.35 18.1 39.8 35.4 43.0" fill="url(#gradient11)" fill-rule="evenodd" stroke="none"/>
    <path d="M-43.1 29.85 L-31.1 17.75 18.25 26.75 15.65 39.35 15.65 40.3 -43.1 29.85" fill="url(#gradient12)" fill-rule="evenodd" stroke="none"/>
    <path d="M15.5 54.15 L-43.1 43.6 -43.1 29.85 15.65 40.3 15.5 54.15" fill="url(#gradient13)" fill-rule="evenodd" stroke="none"/>
    <path d="M72.05 -10.55 L76.35 -13.55 95.7 -10.35 94.0 -9.15 75.4 4.25 74.55 4.0 73.85 4.0 66.75 4.5 Q62.35 5.4 59.6 7.3 57.0 9.35 57.5 10.9 L58.1 11.85 Q59.25 12.8 61.6 13.15 L62.2 13.25 37.8 29.4 21.55 26.45 18.35 25.85 72.05 -10.55" fill="url(#gradient14)" fill-rule="evenodd" stroke="none"/>
    <path d="M72.05 -10.55 L18.35 25.85 18.25 26.75 -31.1 17.75 23.2 -19.35 72.05 -10.55" fill="url(#gradient15)" fill-rule="evenodd" stroke="none"/>
    <path d="M80.75 -0.15 Q82.95 -2.4 87.85 -5.0 L91.15 -7.5 94.5 -9.75 80.85 -0.15 80.75 -0.15 M47.3 22.95 Q48.45 21.55 49.75 21.45 L47.4 22.95 47.3 22.95 M50.0 21.2 Q50.25 20.5 50.95 20.25 L50.15 21.2 50.0 21.2 M55.2 17.65 L55.1 17.65 57.35 16.0 55.2 17.65 M53.75 18.45 L54.1 18.35 53.9 18.45 53.75 18.45 M43.1 25.6 Q44.15 24.95 45.75 24.05 L43.35 25.45 43.1 25.6 M41.0 27.15 L42.05 26.3 41.1 27.15 41.0 27.15 M3.75 24.05 Q1.4 23.95 -2.05 22.85 L-1.9 22.85 Q1.05 23.1 4.45 24.15 L8.5 24.85 Q11.45 25.0 17.15 26.9 L17.3 27.0 16.7 27.25 Q15.65 27.25 9.7 25.1 L7.3 24.85 Q7.45 24.75 6.95 24.65 L5.55 24.4 4.0 24.55 3.75 24.05 M6.1 38.5 L5.05 38.4 4.35 38.15 6.1 38.5 M8.05 38.9 L15.65 40.4 15.75 40.65 15.25 40.9 Q10.75 39.45 9.7 39.35 L8.05 38.9 M1.85 37.9 L-0.15 37.3 -0.05 37.2 4.0 38.05 1.85 37.9 M17.75 39.45 L20.5 40.2 20.6 40.3 16.1 39.45 15.75 39.45 15.65 39.35 15.65 39.1 16.35 39.2 17.75 39.45 M37.2 29.5 L34.1 28.9 34.1 28.8 Q32.6 28.9 29.85 27.75 L30.0 27.75 33.3 28.45 Q35.65 28.8 37.2 29.4 L37.2 29.5 M37.65 29.75 L38.15 29.15 38.05 29.4 41.95 26.75 40.05 28.2 38.05 29.5 37.9 29.85 37.65 29.85 35.2 43.15 34.95 43.15 34.95 42.4 35.3 41.25 35.05 40.9 37.45 29.5 37.55 29.5 37.65 29.75 M31.15 28.55 L30.7 28.65 28.2 28.35 26.3 27.85 Q19.65 26.55 18.45 26.05 19.75 25.95 21.3 26.55 L21.3 26.65 24.3 26.9 Q25.2 27.5 25.35 27.5 27.0 27.5 27.5 27.85 L30.3 27.95 31.15 28.35 31.15 28.55 M24.75 41.1 L25.1 41.25 23.7 41.0 20.6 40.2 28.2 41.35 30.7 42.2 32.35 42.2 32.6 42.4 34.7 42.55 34.85 42.8 34.6 43.15 33.4 42.65 32.1 42.4 29.75 42.3 Q28.4 41.85 28.2 41.6 L24.75 41.1 M35.3 43.5 L35.4 45.4 35.2 48.0 35.2 43.5 35.3 43.5 M35.65 59.5 L35.4 59.5 35.55 52.95 35.65 59.5 M-14.25 20.85 Q-10.5 20.95 -7.85 22.15 L-6.1 22.25 -6.1 22.4 -4.65 22.4 -4.65 22.65 -6.3 22.65 -11.3 21.45 -13.1 21.2 -13.1 21.05 -14.25 20.85 -19.45 20.15 -19.7 20.0 -18.65 19.9 -16.15 20.35 -14.25 20.85 M-30.85 17.85 L-29.8 17.75 -29.2 17.85 Q-26.45 18.1 -23.75 19.3 L-23.75 19.4 Q-25.3 19.4 -26.15 18.6 L-26.95 18.6 -29.45 18.0 -30.75 17.85 -30.85 17.85 M-38.9 30.8 Q-40.7 30.2 -42.7 29.75 L-42.6 29.65 -31.45 31.65 -33.25 31.75 -33.35 31.5 -38.9 30.8 M-29.35 32.25 L-29.7 32.35 -30.4 31.85 -29.35 32.25 M-1.8 37.2 L-2.05 37.3 -12.6 35.4 -24.7 32.95 -15.7 34.5 -6.7 35.9 -4.4 36.25 Q-2.4 36.6 -1.8 37.2" fill="#ffffff" fill-opacity="0.43137255" fill-rule="evenodd" stroke="none"/>
    <path d="M11.0 -10.95 L46.7 -4.65 59.0 -12.85 M8.65 -9.25 L46.95 -2.5 62.1 -12.35 M17.5 -15.45 L45.25 -10.35 51.2 -14.15 M56.5 -13.3 L46.1 -6.55 13.0 -12.35 M53.7 -13.8 L45.5 -8.45 15.25 -13.9 M-3.0 50.75 L-3.0 37.1 0.45 23.55 1.4 22.85 7.55 18.7 9.7 17.3 11.95 15.85 9.2 15.4 6.5 14.9 -19.7 10.2 M-23.85 13.0 L0.2 17.4 1.5 17.65 2.0 17.75 2.1 17.75 -4.8 22.4 -8.35 36.0 -8.35 49.65 M-5.7 50.25 L-5.7 36.6 -2.3 22.95 4.7 18.25 Q5.85 17.55 6.95 16.8 L4.35 16.35 -21.85 11.6 M2.8 51.9 L2.8 43.5 2.8 38.3 6.15 24.65 13.5 19.75 15.75 18.35 17.85 16.95 20.0 15.5 21.9 14.2 18.6 13.6 15.95 13.15 13.25 12.65 10.65 12.2 -15.9 7.55 M-0.15 51.3 L-0.15 46.95 -0.15 37.7 3.05 24.05 10.3 19.15 12.45 17.75 14.55 16.35 16.7 14.9 14.05 14.45 11.35 13.95 8.75 13.5 -17.7 8.75" fill="none" stroke="#000000" stroke-linecap="round" stroke-linejoin="round" stroke-opacity="0.5686275" stroke-width="0.1"/>
  </g>
  <defs>
    <linearGradient gradientTransform="matrix(0.0065, 0.0183, -0.0077, 0.0027, 23.0, 3.4)" gradientUnits="userSpaceOnUse" id="gradient0" spreadMethod="pad" x1="-819.2" x2="819.2">
      <stop offset="0.0" stop-color="#afafaf"/>
      <stop offset="1.0" stop-color="#2c2c2c"/>
    </linearGradient>
    <radialGradient cx="0" cy="0" gradientTransform="matrix(0.0685, -0.0459, 0.0268, 0.04, 73.5, 29.25)" gradientUnits="userSpaceOnUse" id="gradient1" r="819.2" spreadMethod="pad">
      <stop offset="0.0392156862745098" stop-color="#000000"/>
      <stop offset="0.6666666666666666" stop-color="#676767"/>
      <stop offset="1.0" stop-color="#4f4f4f"/>
    </radialGradient>
    <radialGradient cx="0" cy="0" gradientTransform="matrix(0.0667, -0.0426, 0.0255, 0.04, 72.55, 32.0)" gradientUnits="userSpaceOnUse" id="gradient2" r="819.2" spreadMethod="pad">
      <stop offset="0.0" stop-color="#252525"/>
      <stop offset="0.5058823529411764" stop-color="#2c2c2c"/>
      <stop offset="1.0" stop-color="#252525"/>
    </radialGradient>
    <radialGradient cx="0" cy="0" gradientTransform="matrix(0.0667, -0.0426, 0.0255, 0.04, 72.55, 32.0)" gradientUnits="userSpaceOnUse" id="gradient3" r="819.2" spreadMethod="pad">
      <stop offset="0.0" stop-color="#252525"/>
      <stop offset="0.5058823529411764" stop-color="#5f5f5f"/>
      <stop offset="1.0" stop-color="#252525"/>
    </radialGradient>
    <linearGradient gradientTransform="matrix(-3.0E-4, -0.0076, 0.0078, -3.0E-4, 91.05, 9.7)" gradientUnits="userSpaceOnUse" id="gradient4" spreadMethod="pad" x1="-819.2" x2="819.2">
      <stop offset="0.0" stop-color="#4a4a4a"/>
      <stop offset="1.0" stop-color="#252525"/>
    </linearGradient>
    <radialGradient cx="0" cy="0" gradientTransform="matrix(0.0667, -0.0426, 0.0255, 0.04, 72.55, 32.0)" gradientUnits="userSpaceOnUse" id="gradient5" r="819.2" spreadMethod="pad">
      <stop offset="0.0" stop-color="#252525"/>
      <stop offset="0.5058823529411764" stop-color="#424242"/>
      <stop offset="1.0" stop-color="#252525"/>
    </radialGradient>
    <radialGradient cx="0" cy="0" gradientTransform="matrix(0.0667, -0.0426, 0.0255, 0.04, 72.55, 32.0)" gradientUnits="userSpaceOnUse" id="gradient6" r="819.2" spreadMethod="pad">
      <stop offset="0.0" stop-color="#252525"/>
      <stop offset="0.5058823529411764" stop-color="#5d5d5d"/>
      <stop offset="1.0" stop-color="#252525"/>
    </radialGradient>
    <linearGradient gradientTransform="matrix(0.011, 0.0, 0.0, 0.0049, 66.4, 7.7)" gradientUnits="userSpaceOnUse" id="gradient7" spreadMethod="pad" x1="-819.2" x2="819.2">
      <stop offset="0.0" stop-color="#1c1c1c"/>
      <stop offset="0.5686274509803921" stop-color="#646464"/>
      <stop offset="0.984313725490196" stop-color="#464646"/>
    </linearGradient>
    <radialGradient cx="0" cy="0" gradientTransform="matrix(0.1042, -0.0795, 0.0316, 0.0415, 41.6, 14.9)" gradientUnits="userSpaceOnUse" id="gradient8" r="819.2" spreadMethod="pad">
      <stop offset="0.0" stop-color="#ffffff" stop-opacity="0.16862746"/>
      <stop offset="0.5019607843137255" stop-color="#000000" stop-opacity="0.24705882"/>
      <stop offset="1.0" stop-color="#000000"/>
    </radialGradient>
    <radialGradient cx="0" cy="0" gradientTransform="matrix(0.1396, -0.0729, 0.0436, 0.0836, 4.1, -13.2)" gradientUnits="userSpaceOnUse" id="gradient9" r="819.2" spreadMethod="pad">
      <stop offset="0.0" stop-color="#000000" stop-opacity="0.0"/>
      <stop offset="0.5019607843137255" stop-color="#000000" stop-opacity="0.24705882"/>
      <stop offset="1.0" stop-color="#000000"/>
    </radialGradient>
    <radialGradient cx="0" cy="0" gradientTransform="matrix(0.0626, 0.0, 0.0, 0.0626, 30.0, 20.15)" gradientUnits="userSpaceOnUse" id="gradient10" r="819.2" spreadMethod="pad">
      <stop offset="0.0" stop-color="#ffffff" stop-opacity="0.16862746"/>
      <stop offset="0.5019607843137255" stop-color="#000000" stop-opacity="0.24705882"/>
      <stop offset="1.0" stop-color="#000000"/>
    </radialGradient>
    <radialGradient cx="0" cy="0" gradientTransform="matrix(0.0928, 0.0, 0.0, 0.0928, 29.15, 10.05)" gradientUnits="userSpaceOnUse" id="gradient11" r="819.2" spreadMethod="pad">
      <stop offset="0.0" stop-color="#ffffff" stop-opacity="0.16862746"/>
      <stop offset="0.5019607843137255" stop-color="#000000" stop-opacity="0.24705882"/>
      <stop offset="1.0" stop-color="#000000"/>
    </radialGradient>
    <linearGradient gradientTransform="matrix(0.0159, 0.0194, -0.0106, 0.0087, 55.95, 9.6)" gradientUnits="userSpaceOnUse" id="gradient12" spreadMethod="pad" x1="-819.2" x2="819.2">
      <stop offset="0.0" stop-color="#ffffff" stop-opacity="0.16862746"/>
      <stop offset="0.5019607843137255" stop-color="#000000" stop-opacity="0.24705882"/>
      <stop offset="1.0" stop-color="#000000"/>
    </linearGradient>
    <radialGradient cx="0" cy="0" gradientTransform="matrix(0.1253, 0.0, 0.0, 0.0623, -31.6, 37.0)" gradientUnits="userSpaceOnUse" id="gradient13" r="819.2" spreadMethod="pad">
      <stop offset="0.18823529411764706" stop-color="#d0d0d0" stop-opacity="0.16862746"/>
      <stop offset="0.6352941176470588" stop-color="#000000" stop-opacity="0.24705882"/>
      <stop offset="1.0" stop-color="#000000"/>
    </radialGradient>
    <linearGradient gradientTransform="matrix(0.0055, -0.0298, 0.0257, 0.0048, 55.6, 6.85)" gradientUnits="userSpaceOnUse" id="gradient14" spreadMethod="pad" x1="-819.2" x2="819.2">
      <stop offset="0.9294117647058824" stop-color="#ffffff" stop-opacity="0.16862746"/>
      <stop offset="0.9411764705882353" stop-color="#ffffff" stop-opacity="0.16862746"/>
      <stop offset="1.0" stop-color="#ffffff"/>
    </linearGradient>
    <linearGradient gradientTransform="matrix(0.0051, -0.029, 0.0277, 0.0049, 20.5, 3.65)" gradientUnits="userSpaceOnUse" id="gradient15" spreadMethod="pad" x1="-819.2" x2="819.2">
      <stop offset="0.9529411764705882" stop-color="#ffffff" stop-opacity="0.0"/>
      <stop offset="1.0" stop-color="#ffffff"/>
    </linearGradient>
  </defs>
</svg>
