<?xml version="1.0" encoding="UTF-8" standalone="no"?>
<svg xmlns:xlink="http://www.w3.org/1999/xlink" height="67.5px" width="304.05px" xmlns="http://www.w3.org/2000/svg">
  <g transform="matrix(1.0, 0.0, 0.0, 1.0, -18.85, -8.0)">
    <path d="M303.7 31.0 L303.7 37.5 276.85 37.5 276.85 31.0 276.65 31.0 276.65 24.0 322.9 24.0 322.9 31.0 303.7 31.0 M276.75 37.5 L276.75 44.5 249.9 44.5 249.9 37.5 276.75 37.5 M276.65 66.0 L322.9 66.0 322.9 69.0 276.65 69.0 276.65 66.0 M249.8 50.0 L203.55 50.0 203.55 43.0 249.8 43.0 249.8 50.0 M227.5 32.1 L139.1 32.1 139.1 27.6 227.5 27.6 227.5 32.1 M205.35 16.0 L151.4 16.0 151.4 22.25 138.25 22.25 138.25 28.5 111.4 28.5 111.4 22.25 63.0 22.25 63.0 15.25 148.7 15.25 148.7 9.0 205.35 9.0 205.35 16.0 M164.85 47.5 L188.25 47.5 188.25 54.5 161.4 54.5 161.4 48.6 88.2 48.6 88.2 53.0 41.95 53.0 41.95 46.0 84.65 46.0 84.65 41.6 164.85 41.6 164.85 47.5 M121.1 68.5 L121.1 62.5 147.95 62.5 147.95 69.5 122.85 69.5 122.85 75.5 61.1 75.5 61.1 69.5 53.1 69.5 53.1 62.5 81.0 62.5 81.0 68.5 121.1 68.5 M120.9 57.0 L74.65 57.0 74.65 54.0 120.9 54.0 120.9 57.0 M74.45 27.0 L25.75 27.0 25.75 23.5 74.45 23.5 74.45 27.0 M65.1 15.0 L18.85 15.0 18.85 8.0 65.1 8.0 65.1 15.0" fill="#ce0000" fill-rule="evenodd" stroke="none"/>
  </g>
</svg>
