<?xml version="1.0" encoding="UTF-8" standalone="no"?>
<svg xmlns:xlink="http://www.w3.org/1999/xlink" height="71.0px" width="324.95px" xmlns="http://www.w3.org/2000/svg">
  <g transform="matrix(1.0, 0.0, 0.0, 1.0, 0.1, -9.0)">
    <path d="M324.85 60.0 L276.75 60.0 276.75 66.0 322.9 66.0 322.9 73.0 276.65 73.0 276.65 67.0 220.1 67.0 220.1 60.0 268.2 60.0 268.2 53.0 324.85 53.0 324.85 60.0 M303.7 31.0 L303.7 37.5 276.85 37.5 276.85 31.0 276.65 31.0 276.65 30.0 227.5 30.0 227.5 34.0 251.75 34.0 251.75 37.5 276.75 37.5 276.75 44.5 249.9 44.5 249.9 41.0 195.1 41.0 195.1 34.5 139.1 34.5 139.1 27.5 220.1 27.5 220.1 23.0 276.75 23.0 276.75 24.0 322.9 24.0 322.9 31.0 303.7 31.0 M322.9 14.0 L266.25 14.0 266.25 11.0 322.9 11.0 322.9 14.0 M265.2 22.0 L208.55 22.0 208.55 15.0 265.2 15.0 265.2 22.0 M249.8 50.0 L203.55 50.0 203.55 43.0 249.8 43.0 249.8 50.0 M205.35 16.0 L151.4 16.0 151.4 22.25 138.25 22.25 138.25 28.5 111.4 28.5 111.4 22.25 63.0 22.25 63.0 15.25 148.7 15.25 148.7 9.0 205.35 9.0 205.35 16.0 M188.25 49.0 L161.4 49.0 161.4 45.65 88.2 45.65 88.2 48.15 41.95 48.15 41.95 45.55 18.75 45.55 18.75 38.55 80.5 38.55 80.5 44.15 84.65 44.15 84.65 41.6 164.85 41.6 164.85 45.0 188.25 45.0 188.25 49.0 M110.9 30.5 L-0.1 30.5 -0.1 23.5 110.9 23.5 110.9 30.5 M121.1 68.5 L121.1 62.5 147.95 62.5 147.95 69.5 122.85 69.5 122.85 75.5 63.2 75.5 63.2 80.0 1.45 80.0 1.45 73.0 61.1 73.0 61.1 69.5 53.1 69.5 53.1 62.5 81.0 62.5 81.0 68.5 121.1 68.5 M120.9 61.0 L74.65 61.0 74.65 58.0 120.9 58.0 120.9 61.0 M65.1 15.0 L18.85 15.0 18.85 12.0 65.1 12.0 65.1 15.0" fill="#ce0000" fill-rule="evenodd" stroke="none"/>
  </g>
</svg>
