<?xml version="1.0" encoding="UTF-8" standalone="no"?>
<svg xmlns:xlink="http://www.w3.org/1999/xlink" height="71.05px" width="350.95px" xmlns="http://www.w3.org/2000/svg">
  <g transform="matrix(1.0, 0.0, 0.0, 1.0, 11.0, 2.0)">
    <path d="M335.2 3.5 L333.35 5.6 333.4 5.6 331.1 8.25 331.05 8.25 329.25 10.35 329.3 10.35 327.0 13.0 326.95 13.0 325.15 15.1 325.2 15.1 323.05 17.55 323.0 17.55 321.2 19.65 321.25 19.65 318.95 22.3 318.9 22.3 317.05 24.4 317.1 24.4 314.8 27.05 314.75 27.05 312.95 29.15 313.0 29.15 310.75 31.75 310.7 31.75 308.85 33.85 308.9 33.85 306.45 36.7 306.4 36.7 304.6 38.8 302.5 41.25 302.45 41.25 300.65 43.35 298.4 46.0 298.35 46.0 296.5 48.1 296.55 48.1 294.25 50.75 294.2 50.75 292.4 52.85 292.45 52.85 290.3 55.3 290.25 55.3 288.45 57.4 288.5 57.4 286.2 60.05 286.15 60.05 284.35 62.15 282.05 64.8 280.2 66.9 280.25 66.9 279.3 68.0 278.35 69.05 -11.0 69.05 -11.0 -2.0 339.95 -2.0 336.4 2.15 335.2 3.5" fill="#d90000" fill-opacity="0.0" fill-rule="evenodd" stroke="none"/>
  </g>
</svg>
