<?xml version="1.0" encoding="UTF-8" standalone="no"?>
<svg xmlns:xlink="http://www.w3.org/1999/xlink" height="48.0px" width="36.5px" xmlns="http://www.w3.org/2000/svg">
  <g transform="matrix(1.0, 0.0, 0.0, 1.0, -13.05, -10.65)">
    <path d="M49.55 42.75 L49.3 43.6 Q48.95 44.1 48.0 44.1 46.55 44.1 33.5 33.25 L31.8 31.85 29.75 35.55 23.85 47.45 Q20.35 53.7 15.75 58.65 L14.65 58.3 Q14.25 58.0 14.25 57.0 14.25 55.2 25.3 36.8 L29.5 29.95 Q17.85 20.45 13.2 17.75 L13.05 16.85 Q20.3 17.8 31.45 26.9 38.85 15.35 43.2 10.65 L44.25 10.9 Q44.7 11.1 44.7 12.05 44.7 13.05 38.65 21.55 L33.75 28.8 49.55 42.75" fill="#33ff00" fill-opacity="0.8" fill-rule="evenodd" stroke="none"/>
  </g>
</svg>
