<?xml version="1.0" encoding="UTF-8" standalone="no"?>
<svg xmlns:xlink="http://www.w3.org/1999/xlink" height="45.4px" width="34.05px" xmlns="http://www.w3.org/2000/svg">
  <g transform="matrix(1.0, 0.0, 0.0, 1.0, -8.45, -7.1)">
    <path d="M36.0 7.5 Q41.0 9.9 42.1 12.25 42.5 13.1 42.5 17.1 42.5 22.65 39.95 27.0 36.4 33.0 28.5 35.0 L28.25 41.75 27.3 42.05 26.0 42.5 Q24.15 41.45 23.65 39.35 23.5 38.65 23.5 36.35 23.5 32.95 25.7 30.7 26.9 29.45 30.5 27.4 33.9 25.45 35.3 23.85 37.5 21.3 37.5 17.35 37.5 16.3 36.65 15.6 35.4 14.55 34.5 12.75 17.95 13.4 15.45 14.8 14.6 15.3 14.7 16.25 14.9 17.45 14.5 18.0 L14.0 19.5 Q13.75 19.75 13.75 20.2 L12.0 20.5 Q9.0 20.5 8.45 18.35 L8.5 15.85 Q8.5 12.6 15.7 9.6 24.3 6.05 36.0 7.5 M26.0 47.5 Q27.6 48.15 28.5 49.5 28.5 50.2 27.9 51.0 27.2 52.0 26.0 52.5 24.5 52.0 23.75 51.25 L23.5 49.75 Q23.5 49.2 24.4 48.45 25.25 47.7 26.0 47.5" fill="#00ff00" fill-rule="evenodd" stroke="none"/>
  </g>
</svg>
