<?xml version="1.0" encoding="UTF-8" standalone="no"?>
<svg xmlns:xlink="http://www.w3.org/1999/xlink" height="46.6px" width="46.5px" xmlns="http://www.w3.org/2000/svg">
  <g transform="matrix(1.0, 0.0, 0.0, 1.0, 6.0, -13.55)">
    <path d="M27.75 21.7 L27.9 21.65 28.6 21.2 30.6 19.95 32.35 18.9 Q37.0 16.1 37.45 16.6 37.95 17.1 35.25 21.85 L32.4 26.4 31.25 27.55 26.55 22.9 27.75 21.7 M23.25 37.45 L19.9 34.1 16.7 30.9 16.65 30.85 Q17.5 30.45 18.4 30.0 L20.45 29.0 25.15 33.65 23.25 37.45 M22.35 38.4 L7.25 53.45 0.7 46.9 0.65 46.85 15.75 31.85 22.35 38.4 M21.35 28.1 L25.55 23.95 30.2 28.65 26.05 32.75 21.35 28.1 M5.6 55.9 L-1.8 48.5 -0.55 47.3 -0.15 47.75 6.85 54.75 5.6 55.9" fill="#d0d0d0" fill-rule="evenodd" stroke="none"/>
    <path d="M30.85 16.25 Q37.95 12.0 39.65 14.45 42.0 16.1 37.9 23.3 L38.1 22.55 38.05 22.6 37.85 23.4 35.05 28.0 35.0 28.05 34.55 28.6 33.3 29.7 33.4 29.75 27.65 35.5 23.8 41.55 10.65 54.3 11.15 54.8 5.6 60.15 -6.0 48.5 -0.55 43.1 -0.15 43.5 13.85 29.5 17.2 27.3 18.65 26.6 21.85 23.45 21.7 23.25 26.1 19.2 30.85 16.25 M27.75 21.7 L26.55 22.9 31.25 27.55 32.4 26.4 35.25 21.85 Q37.95 17.1 37.45 16.6 37.0 16.1 32.35 18.9 L30.6 19.95 28.6 21.2 27.9 21.65 27.75 21.7 M23.25 37.45 L25.15 33.65 20.45 29.0 18.4 30.0 Q17.5 30.45 16.65 30.85 L16.7 30.9 19.9 34.1 23.25 37.45 M5.6 55.9 L6.85 54.75 -0.15 47.75 -0.55 47.3 -1.8 48.5 5.6 55.9 M21.35 28.1 L26.05 32.75 30.2 28.65 25.55 23.95 21.35 28.1 M22.35 38.4 L15.75 31.85 0.65 46.85 0.7 46.9 7.25 53.45 22.35 38.4" fill="url(#gradient0)" fill-rule="evenodd" stroke="none"/>
  </g>
  <defs>
    <linearGradient gradientTransform="matrix(0.0092, 0.013, -0.0228, 0.0162, 21.8, 35.8)" gradientUnits="userSpaceOnUse" id="gradient0" spreadMethod="pad" x1="-819.2" x2="819.2">
      <stop offset="0.0" stop-color="#272727" stop-opacity="0.9882353"/>
      <stop offset="0.9568627450980393" stop-color="#8a8a8a"/>
    </linearGradient>
  </defs>
</svg>
