<?xml version="1.0" encoding="UTF-8" standalone="no"?>
<svg xmlns:xlink="http://www.w3.org/1999/xlink" height="55.45px" width="58.8px" xmlns="http://www.w3.org/2000/svg">
  <g transform="matrix(1.0, 0.0, 0.0, 1.0, 9.2, -4.8)">
    <path d="M42.1 12.35 L24.95 29.6 23.15 27.75 42.9 8.0 42.95 8.0 42.1 12.35 M7.55 38.75 L15.2 31.2 17.15 32.95 9.6 40.45 7.55 38.75 M11.7 42.85 L9.85 40.95 17.55 33.3 19.5 35.05 11.7 42.85 M1.05 52.35 L-2.8 54.6 -3.6 56.9 -6.6 54.45 -4.55 53.35 -2.15 49.65 1.1 46.6 3.7 49.05 1.05 52.35 M0.45 40.45 L2.85 42.7 6.15 39.45 11.1 43.9 8.15 47.4 10.35 49.25 8.35 51.3 -1.8 42.45 0.45 40.45 M38.25 8.25 L42.55 7.4 22.7 27.3 20.95 25.45 38.25 8.25 M39.95 40.45 L42.2 42.45 32.05 51.3 30.05 49.25 32.25 47.4 29.3 43.9 34.25 39.45 37.55 42.7 39.95 40.45 M24.3 30.25 L32.85 38.75 30.8 40.45 22.55 32.2 -2.15 7.4 2.15 8.25 24.3 30.25 M39.35 52.35 L36.6 48.95 39.3 46.55 42.55 49.65 44.95 53.35 47.0 54.45 44.0 56.9 43.2 54.6 39.35 52.35 M20.2 34.35 L-1.7 12.35 -2.55 8.0 -2.5 8.0 30.55 40.95 28.7 42.85 20.2 34.35" fill="#d0d0d0" fill-rule="evenodd" stroke="none"/>
    <path d="M42.1 12.35 L42.95 8.0 42.9 8.0 23.15 27.75 24.95 29.6 42.1 12.35 M43.95 13.35 L27.15 30.25 34.0 37.05 34.35 36.7 37.6 39.95 39.95 37.75 45.25 42.5 41.4 45.8 44.1 48.4 46.35 51.85 49.6 53.85 43.05 60.25 41.55 55.95 38.05 53.9 35.6 50.9 31.95 54.05 27.15 49.1 29.45 47.15 26.55 43.7 26.65 43.6 20.2 37.2 13.8 43.6 13.9 43.7 11.0 47.15 13.3 49.1 8.45 54.05 4.8 50.9 2.4 53.9 Q0.6 54.95 -1.15 55.95 L-2.65 60.25 -9.2 53.1 -5.95 51.85 -3.7 48.35 -1.0 45.85 -4.8 42.5 0.5 37.75 2.8 39.95 6.1 36.7 6.45 37.05 13.35 30.25 -3.55 13.35 -4.45 4.9 3.15 6.4 20.2 23.35 37.3 6.4 45.55 4.8 43.95 13.35 M7.55 38.75 L9.6 40.45 17.15 32.95 15.2 31.2 7.55 38.75 M11.7 42.85 L19.5 35.05 17.55 33.3 9.85 40.95 11.7 42.85 M38.25 8.25 L20.95 25.45 22.7 27.3 42.55 7.4 38.25 8.25 M0.45 40.45 L-1.8 42.45 8.35 51.3 10.35 49.25 8.15 47.4 11.1 43.9 6.15 39.45 2.85 42.7 0.45 40.45 M1.05 52.35 L3.7 49.05 1.1 46.6 -2.15 49.65 -4.55 53.35 -6.6 54.45 -3.6 56.9 -2.8 54.6 1.05 52.35 M39.35 52.35 L43.2 54.6 44.0 56.9 47.0 54.45 44.95 53.35 42.55 49.65 39.3 46.55 36.6 48.95 39.35 52.35 M24.3 30.25 L2.15 8.25 -2.15 7.4 22.55 32.2 30.8 40.45 32.85 38.75 24.3 30.25 M39.95 40.45 L37.55 42.7 34.25 39.45 29.3 43.9 32.25 47.4 30.05 49.25 32.05 51.3 42.2 42.45 39.95 40.45 M20.2 34.35 L28.7 42.85 30.55 40.95 -2.5 8.0 -2.55 8.0 -1.7 12.35 20.2 34.35 M-0.6 7.6 L-0.65 7.7 -0.55 7.7 -0.6 7.6" fill="url(#gradient0)" fill-rule="evenodd" stroke="none"/>
  </g>
  <defs>
    <linearGradient gradientTransform="matrix(0.0179, 0.0419, -0.0341, 0.0146, 20.4, 47.2)" gradientUnits="userSpaceOnUse" id="gradient0" spreadMethod="pad" x1="-819.2" x2="819.2">
      <stop offset="0.0" stop-color="#1e1e1e" stop-opacity="0.9882353"/>
      <stop offset="0.9568627450980393" stop-color="#adadad"/>
    </linearGradient>
  </defs>
</svg>
