<?xml version="1.0" encoding="UTF-8" standalone="no"?>
<svg xmlns:xlink="http://www.w3.org/1999/xlink" height="62.15px" width="63.75px" xmlns="http://www.w3.org/2000/svg">
  <g transform="matrix(1.0, 0.0, 0.0, 1.0, 14.55, -2.4)">
    <path d="M0.15 34.45 L2.75 33.5 -0.55 36.85 1.85 36.85 2.0 40.7 -0.9 42.1 0.4 37.85 -3.8 38.5 0.15 34.45" fill="url(#gradient0)" fill-rule="evenodd" stroke="none"/>
    <path d="M-6.4 23.1 L2.4 20.45 4.9 18.0 5.2 14.05 9.1 9.5 19.7 5.7 17.1 14.6 17.1 17.45 22.4 19.25 Q24.1 20.25 26.75 22.45 L28.3 21.4 29.9 23.95 30.75 26.95 33.0 30.2 38.45 32.75 45.35 34.95 43.2 40.3 38.5 45.25 29.8 45.7 17.75 44.3 16.75 50.85 9.35 59.5 3.1 64.55 Q-16.6 52.15 -14.3 29.1 L-10.1 27.25 -6.4 23.1 M23.35 27.0 L16.4 26.9 22.55 31.5 16.75 35.55 16.0 38.7 18.4 35.95 25.95 31.5 Q25.7 31.5 23.35 27.0 M0.15 34.45 L-3.8 38.5 0.4 37.85 -0.9 42.1 2.0 40.7 1.85 36.85 -0.55 36.85 2.75 33.5 0.15 34.45" fill="url(#gradient1)" fill-rule="evenodd" stroke="none"/>
    <path d="M9.35 59.5 L16.75 50.85 17.75 44.3 29.8 45.7 38.5 45.25 43.2 40.3 45.35 34.95 38.45 32.75 33.0 30.2 30.75 26.95 29.9 23.95 28.3 21.4 26.75 22.45 Q24.1 20.25 22.4 19.25 L17.1 17.45 17.1 14.6 19.7 5.7 9.1 9.5 5.2 14.05 4.9 18.0 2.4 20.45 -6.4 23.1 1.6 17.3 1.6 15.05 8.1 8.3 21.35 2.4 20.45 7.65 20.85 12.1 20.85 14.95 22.4 16.35 26.1 19.5 26.55 16.85 32.45 22.7 32.85 24.95 33.2 27.15 Q33.3 27.05 35.45 28.8 L37.55 30.6 49.2 35.1 46.75 42.3 39.65 48.0 27.65 48.25 26.55 46.9 20.6 46.6 18.0 53.55 16.45 52.45 12.9 57.0 10.45 61.8 4.8 63.3 9.35 59.5" fill="url(#gradient2)" fill-rule="evenodd" stroke="none"/>
    <path d="M23.35 27.0 Q25.7 31.5 25.95 31.5 L18.4 35.95 16.0 38.7 16.75 35.55 22.55 31.5 16.4 26.9 23.35 27.0" fill="url(#gradient3)" fill-rule="evenodd" stroke="none"/>
  </g>
  <defs>
    <linearGradient gradientTransform="matrix(0.0133, 0.0312, -0.0341, 0.0146, 18.6, 30.9)" gradientUnits="userSpaceOnUse" id="gradient0" spreadMethod="pad" x1="-819.2" x2="819.2">
      <stop offset="0.0" stop-color="#000000" stop-opacity="0.52156866"/>
      <stop offset="0.9568627450980393" stop-color="#ffffff" stop-opacity="0.5882353"/>
    </linearGradient>
    <linearGradient gradientTransform="matrix(-0.0141, 0.0115, -0.0226, -0.0278, -0.9, 45.6)" gradientUnits="userSpaceOnUse" id="gradient1" spreadMethod="pad" x1="-819.2" x2="819.2">
      <stop offset="0.0" stop-color="#ffffff" stop-opacity="0.5686275"/>
      <stop offset="1.0" stop-color="#6b6b6b" stop-opacity="0.0"/>
    </linearGradient>
    <linearGradient gradientTransform="matrix(-0.0016, 0.0211, -0.037, -0.0027, 24.6, 40.6)" gradientUnits="userSpaceOnUse" id="gradient2" spreadMethod="pad" x1="-819.2" x2="819.2">
      <stop offset="0.0" stop-color="#000000" stop-opacity="0.52156866"/>
      <stop offset="0.9568627450980393" stop-color="#434343" stop-opacity="0.5764706"/>
    </linearGradient>
    <linearGradient gradientTransform="matrix(0.0133, 0.0312, -0.0341, 0.0146, 21.65, 38.5)" gradientUnits="userSpaceOnUse" id="gradient3" spreadMethod="pad" x1="-819.2" x2="819.2">
      <stop offset="0.0" stop-color="#000000" stop-opacity="0.52156866"/>
      <stop offset="0.9568627450980393" stop-color="#434343" stop-opacity="0.5764706"/>
    </linearGradient>
  </defs>
</svg>
