<?xml version="1.0" encoding="UTF-8" standalone="no"?>
<svg xmlns:xlink="http://www.w3.org/1999/xlink" height="63.4px" width="43.5px" xmlns="http://www.w3.org/2000/svg">
  <g transform="matrix(1.0, 0.0, 0.0, 1.0, 1.65, -3.1)">
    <path d="M5.85 66.1 Q7.65 62.45 24.15 37.3 L0.7 38.05 20.9 8.75 35.15 6.2 9.35 33.15 37.35 27.75 Q9.7 62.55 6.15 66.2 L5.85 66.1" fill="#d0d0d0" fill-rule="evenodd" stroke="none"/>
    <path d="M6.15 66.2 Q9.7 62.55 37.35 27.75 L9.35 33.15 35.15 6.2 20.9 8.75 0.7 38.05 24.15 37.3 Q7.65 62.45 5.85 66.1 L5.35 65.9 11.05 52.25 19.9 40.15 17.8 40.55 -1.65 38.4 19.55 7.35 41.85 3.1 26.45 17.1 14.95 29.4 39.6 24.8 38.85 29.35 6.8 66.5 6.15 66.2" fill="url(#gradient0)" fill-rule="evenodd" stroke="none"/>
  </g>
  <defs>
    <linearGradient gradientTransform="matrix(0.0333, 0.0285, -0.0282, 0.0329, 30.9, 39.55)" gradientUnits="userSpaceOnUse" id="gradient0" spreadMethod="pad" x1="-819.2" x2="819.2">
      <stop offset="0.0" stop-color="#000000" stop-opacity="0.6313726"/>
      <stop offset="0.9568627450980393" stop-color="#696969" stop-opacity="0.9411765"/>
    </linearGradient>
  </defs>
</svg>
