<?xml version="1.0" encoding="UTF-8" standalone="no"?>
<svg xmlns:xlink="http://www.w3.org/1999/xlink" height="31.4px" width="29.3px" xmlns="http://www.w3.org/2000/svg">
  <g transform="matrix(1.0, 0.0, 0.0, 1.0, -15.9, -10.6)">
    <path d="M44.85 38.95 L39.05 38.95 39.05 25.3 44.85 25.3 44.85 38.95 M38.75 42.0 L38.75 40.15 45.2 40.15 45.2 42.0 38.75 42.0 M43.8 21.0 L44.8 24.3 39.2 24.3 40.2 21.0 43.8 21.0 M40.45 16.8 Q40.65 12.95 41.95 10.65 L41.95 10.6 42.0 10.65 Q43.2 12.95 43.45 16.8 L43.6 19.9 40.4 19.9 40.45 16.8 M32.8 16.8 Q33.0 12.95 34.3 10.65 L34.3 10.6 34.35 10.65 Q35.55 12.95 35.8 16.8 L35.95 19.9 32.75 19.9 32.8 16.8 M25.25 16.8 Q25.45 12.95 26.7 10.65 L26.7 10.6 26.75 10.65 Q27.95 12.95 28.25 16.8 L28.35 19.9 25.15 19.9 25.25 16.8 M20.95 21.0 L21.95 24.3 16.4 24.3 17.4 21.0 20.95 21.0 M28.55 21.0 L29.55 24.3 23.95 24.3 24.95 21.0 28.55 21.0 M17.65 16.8 Q17.85 12.95 19.1 10.65 L19.1 10.6 19.2 10.65 Q20.4 12.95 20.65 16.8 L20.75 19.9 17.6 19.9 17.65 16.8 M36.15 21.0 L37.15 24.3 31.55 24.3 32.55 21.0 36.15 21.0 M16.25 38.95 L16.25 25.3 22.05 25.3 22.05 38.95 16.25 38.95 M15.9 42.0 L15.9 40.15 22.35 40.15 22.35 42.0 15.9 42.0 M37.2 38.95 L31.4 38.95 31.4 25.3 37.2 25.3 37.2 38.95 M29.6 38.95 L23.85 38.95 23.85 25.3 29.6 25.3 29.6 38.95 M31.1 42.0 L31.1 40.15 37.55 40.15 37.55 42.0 31.1 42.0 M23.5 42.0 L23.5 40.15 29.95 40.15 29.95 42.0 23.5 42.0" fill="#ffffff" fill-rule="evenodd" stroke="none"/>
  </g>
</svg>
