<?xml version="1.0" encoding="UTF-8" standalone="no"?>
<svg xmlns:xlink="http://www.w3.org/1999/xlink" height="32.05px" width="45.15px" xmlns="http://www.w3.org/2000/svg">
  <g transform="matrix(1.0, 0.0, 0.0, 1.0, -7.55, -12.1)">
    <path d="M45.45 12.1 Q50.4 12.1 50.4 17.05 L50.4 31.3 Q50.4 36.25 45.45 36.25 L14.8 36.25 Q9.85 36.25 9.85 31.3 L9.85 17.05 Q9.85 12.1 14.8 12.1 L45.45 12.1 M14.8 13.6 Q11.35 13.6 11.35 17.05 L11.35 31.3 Q11.35 34.75 14.8 34.75 L45.45 34.75 Q48.9 34.75 48.9 31.3 L48.9 17.05 Q48.9 13.6 45.45 13.6 L14.8 13.6 M15.9 14.35 L44.35 14.35 Q48.25 14.35 48.25 18.25 L48.25 29.95 Q48.25 33.85 44.35 33.85 L15.9 33.85 Q12.0 33.85 12.0 29.95 L12.0 18.25 Q12.0 14.35 15.9 14.35 M15.5 38.0 L44.7 38.0 Q48.5 37.95 49.35 38.75 L52.55 41.9 52.7 42.15 52.7 42.2 51.2 42.55 48.95 42.6 11.3 42.6 9.05 42.55 7.6 42.2 7.55 42.15 7.7 41.9 10.9 38.75 Q11.7 37.95 15.5 38.0 M52.25 43.0 Q51.9 44.25 47.9 44.15 L12.3 44.15 Q8.05 44.1 7.9 43.05 L9.0 43.2 11.3 43.3 48.95 43.3 51.25 43.2 52.25 43.0" fill="#ffffff" fill-rule="evenodd" stroke="none"/>
  </g>
</svg>
