<?xml version="1.0" encoding="UTF-8" standalone="no"?>
<svg xmlns:xlink="http://www.w3.org/1999/xlink" height="17.25px" width="65.2px" xmlns="http://www.w3.org/2000/svg">
  <g transform="matrix(1.0, 0.0, 0.0, 1.0, 0.8, -19.65)">
    <path d="M26.7 19.65 L41.4 19.65 42.8 22.7 44.55 22.8 46.35 22.8 46.35 24.1 48.7 24.1 48.7 23.4 49.8 23.35 50.45 24.8 60.85 24.8 62.65 23.6 63.1 22.8 64.4 22.8 Q63.8 26.4 64.2 30.15 L63.05 30.05 62.6 29.5 60.7 28.25 60.65 27.2 50.0 27.2 49.8 28.25 48.7 28.2 48.7 27.4 46.35 27.4 46.35 28.35 46.25 28.35 43.95 28.35 43.95 29.05 42.95 29.05 Q42.35 29.55 42.55 30.6 L43.75 33.45 43.85 33.55 44.3 33.85 Q44.65 34.2 44.15 34.55 L38.7 36.15 38.2 35.55 38.9 35.0 39.0 34.25 38.45 33.7 39.0 33.05 38.25 32.4 35.95 32.05 Q34.7 31.2 34.95 29.55 L32.2 29.55 31.35 31.55 30.8 31.4 Q29.8 34.15 26.9 36.9 L23.35 35.0 23.4 34.0 25.95 30.55 25.45 30.05 25.65 28.85 21.75 28.85 21.75 27.95 20.35 27.95 19.85 27.45 19.25 27.45 19.25 28.35 4.85 26.55 4.85 26.05 -0.8 26.05 -0.8 24.8 -0.3 24.8 -0.3 21.75 0.4 21.75 0.65 24.75 4.85 24.75 4.85 24.0 18.95 23.7 18.95 24.6 19.6 24.6 19.6 24.05 20.6 23.05 21.8 23.05 22.2 22.65 24.7 22.65 26.7 19.65 M27.05 20.75 L26.1 22.7 41.45 22.7 40.4 20.65 27.05 20.75 M36.3 31.05 Q37.25 30.6 37.25 29.45 L36.1 29.35 Q35.7 30.7 36.3 31.05 M37.8 30.35 Q37.65 30.95 36.5 31.35 L38.05 31.35 37.8 30.35" fill="#ffffff" fill-rule="evenodd" stroke="none"/>
  </g>
</svg>
