<?xml version="1.0" encoding="UTF-8" standalone="no"?>
<svg xmlns:xlink="http://www.w3.org/1999/xlink" height="30.25px" width="49.4px" xmlns="http://www.w3.org/2000/svg">
  <g transform="matrix(1.0, 0.0, 0.0, 1.0, -5.75, -12.3)">
    <path d="M25.55 42.35 L33.15 31.75 30.65 31.75 30.65 29.85 33.65 29.85 35.55 26.45 37.3 26.45 37.3 24.1 34.55 24.1 33.55 23.1 32.05 23.1 26.55 21.7 26.55 21.35 21.55 21.35 21.55 20.45 20.9 20.45 20.9 19.95 7.65 19.95 6.8 20.8 5.8 20.8 5.8 15.7 7.05 15.7 7.7 16.35 20.9 16.35 20.9 15.6 21.65 15.6 21.65 14.85 26.9 14.85 26.9 13.7 39.05 13.7 39.05 12.35 41.65 12.35 41.65 13.85 52.65 13.85 52.65 14.85 54.3 16.5 54.3 20.35 53.3 21.35 53.3 22.1 51.2 23.0 46.7 23.0 45.7 24.0 42.95 24.0 42.95 26.35 44.7 26.35 46.6 29.75 49.6 29.75 49.6 31.65 47.1 31.65 55.1 42.45 52.6 42.45 44.45 31.75 43.2 31.7 48.95 42.5 46.2 42.5 40.45 31.7 39.65 31.7 34.05 42.4 31.3 42.4 36.55 31.7 35.8 31.7 28.65 42.35 25.55 42.35" fill="#ffffff" fill-rule="evenodd" stroke="none"/>
    <path d="M25.55 42.35 L33.15 31.75 30.65 31.75 30.65 29.85 33.65 29.85 35.55 26.45 37.3 26.45 37.3 24.1 34.55 24.1 33.55 23.1 32.05 23.1 26.55 21.7 26.55 21.35 21.55 21.35 21.55 20.45 20.9 20.45 20.9 19.95 7.65 19.95 6.8 20.8 5.8 20.8 5.8 15.7 7.05 15.7 7.7 16.35 20.9 16.35 20.9 15.6 21.65 15.6 21.65 14.85 26.9 14.85 26.9 13.7 39.05 13.7 39.05 12.35 41.65 12.35 41.65 13.85 52.65 13.85 52.65 14.85 54.3 16.5 54.3 20.35 53.3 21.35 53.3 22.1 51.2 23.0 46.7 23.0 45.7 24.0 42.95 24.0 42.95 26.35 44.7 26.35 46.6 29.75 49.6 29.75 49.6 31.65 47.1 31.65 55.1 42.45 52.6 42.45 44.45 31.75 43.2 31.7 48.95 42.5 46.2 42.5 40.45 31.7 39.65 31.7 34.05 42.4 31.3 42.4 36.55 31.7 35.8 31.7 28.65 42.35 25.55 42.35 Z" fill="none" stroke="#ffffff" stroke-linecap="round" stroke-linejoin="round" stroke-opacity="0.6117647" stroke-width="0.1"/>
  </g>
</svg>
