<?xml version="1.0" encoding="UTF-8" standalone="no"?>
<svg xmlns:xlink="http://www.w3.org/1999/xlink" height="36.45px" width="36.45px" xmlns="http://www.w3.org/2000/svg">
  <g transform="matrix(1.0, 0.0, 0.0, 1.0, -13.0, -9.0)">
    <path d="M40.25 18.0 Q36.7 14.45 31.75 14.25 L31.75 16.7 33.1 16.7 33.45 16.85 33.6 17.2 33.45 17.55 33.1 17.7 31.75 17.7 31.75 19.85 33.1 19.85 33.45 20.0 33.6 20.35 33.45 20.7 33.1 20.85 31.75 20.85 31.75 23.25 31.6 23.6 31.25 23.75 30.9 23.6 30.75 23.25 30.75 20.85 29.5 20.85 29.15 20.7 29.0 20.35 29.15 20.0 Q29.3 19.85 29.5 19.85 L30.75 19.85 30.75 17.7 29.5 17.7 29.15 17.55 29.0 17.2 29.15 16.85 Q29.3 16.7 29.5 16.7 L30.75 16.7 30.75 14.25 Q25.8 14.4 22.15 18.0 18.55 21.65 18.45 26.75 L20.8 26.75 20.8 25.3 20.95 24.95 Q21.1 24.8 21.3 24.8 L21.65 24.95 21.8 25.3 21.8 26.75 24.05 26.75 24.05 25.3 24.2 24.95 24.55 24.8 24.9 24.95 25.05 25.3 25.05 26.75 27.85 26.75 28.2 26.9 28.35 27.25 28.2 27.6 27.85 27.75 25.05 27.75 25.05 28.9 24.9 29.25 24.55 29.4 24.2 29.25 24.05 28.9 24.05 27.75 21.8 27.75 21.8 28.9 21.65 29.25 21.3 29.4 Q21.1 29.4 20.95 29.25 L20.8 28.9 20.8 27.75 18.5 27.75 Q18.7 32.6 22.15 36.05 25.8 39.65 30.75 39.85 L30.75 37.35 29.5 37.35 29.15 37.2 29.0 36.85 29.15 36.5 Q29.3 36.35 29.5 36.35 L30.75 36.35 30.75 34.35 29.5 34.35 29.15 34.2 29.0 33.85 29.15 33.5 Q29.3 33.35 29.5 33.35 L30.75 33.35 30.75 31.25 Q30.75 31.05 30.9 30.9 31.05 30.75 31.25 30.75 31.45 30.75 31.6 30.9 L31.75 31.25 31.75 33.35 33.1 33.35 33.45 33.5 33.6 33.85 33.45 34.2 33.1 34.35 31.75 34.35 31.75 36.35 33.1 36.35 33.45 36.5 33.6 36.85 33.45 37.2 33.1 37.35 31.75 37.35 31.75 39.85 Q36.7 39.65 40.25 36.05 43.75 32.6 44.05 27.75 L41.8 27.75 41.8 28.9 41.65 29.25 41.3 29.4 40.95 29.25 40.8 28.9 40.8 27.75 38.55 27.75 38.55 28.9 38.4 29.25 38.05 29.4 37.7 29.25 37.55 28.9 37.55 27.75 34.75 27.75 34.4 27.6 34.25 27.25 34.4 26.9 Q34.55 26.75 34.75 26.75 L37.55 26.75 37.55 25.3 37.7 24.95 38.05 24.8 38.4 24.95 38.55 25.3 38.55 26.75 40.8 26.75 40.8 25.3 Q40.8 25.1 40.95 24.95 41.1 24.8 41.3 24.8 41.5 24.8 41.65 24.95 L41.8 25.3 41.8 26.75 44.05 26.75 Q43.95 21.65 40.25 18.0 M41.65 16.6 Q45.75 20.65 46.05 26.25 L48.45 26.25 Q48.85 26.25 49.15 26.55 L49.45 27.25 49.15 27.95 Q48.85 28.25 48.45 28.25 L46.0 28.25 Q45.6 33.6 41.7 37.45 L41.65 37.5 Q37.7 41.5 32.25 41.85 L32.25 44.45 31.95 45.15 31.25 45.45 Q30.85 45.45 30.55 45.15 30.25 44.85 30.25 44.45 L30.25 41.85 Q24.8 41.5 20.75 37.45 16.9 33.6 16.5 28.25 L14.0 28.25 Q13.6 28.25 13.3 27.95 13.0 27.65 13.0 27.25 13.0 26.85 13.3 26.55 13.6 26.25 14.0 26.25 L16.5 26.25 Q16.75 20.65 20.75 16.6 24.8 12.6 30.25 12.3 L30.25 10.0 Q30.25 9.6 30.55 9.3 30.85 9.0 31.25 9.0 31.65 9.0 31.95 9.3 L32.25 10.0 32.25 12.3 Q37.7 12.6 41.65 16.6" fill="#ffffff" fill-rule="evenodd" stroke="none"/>
  </g>
</svg>
