<?xml version="1.0" encoding="UTF-8" standalone="no"?>
<svg xmlns:xlink="http://www.w3.org/1999/xlink" height="29.5px" width="23.95px" xmlns="http://www.w3.org/2000/svg">
  <g transform="matrix(1.0, 0.0, 0.0, 1.0, -19.25, -11.75)">
    <path d="M25.25 11.85 Q26.7 16.45 30.25 16.75 L30.25 19.4 Q25.6 17.2 24.0 12.5 L25.25 11.85 M38.75 12.35 Q37.75 17.0 31.85 19.45 L31.85 16.8 Q36.1 16.7 38.0 11.75 L38.75 12.35 M39.45 13.0 L43.15 15.75 40.7 19.75 Q39.4 22.35 41.7 25.0 L41.7 27.0 43.2 27.0 43.2 30.0 41.7 30.0 41.7 36.75 43.2 36.75 43.2 38.75 41.95 38.75 41.95 41.25 32.1 41.25 32.1 38.25 34.2 38.25 34.2 35.75 32.1 35.75 32.1 30.0 34.2 30.0 34.2 27.25 31.95 27.25 31.95 21.75 Q38.5 18.75 39.45 13.0 M23.0 13.0 Q23.95 18.75 30.5 21.75 L30.5 27.25 28.25 27.25 28.25 30.0 30.35 30.0 30.35 35.75 28.25 35.75 28.25 38.25 30.35 38.25 30.35 41.25 20.5 41.25 20.5 38.75 19.25 38.75 19.25 36.75 20.75 36.75 20.75 30.0 19.25 30.0 19.25 27.0 20.75 27.0 20.75 25.0 Q22.2 23.35 21.75 19.75 L19.3 15.75 23.0 13.0 M28.75 27.85 L33.75 27.85 33.75 29.45 28.75 29.45 28.75 27.85 M28.75 36.2 L33.75 36.2 33.75 37.8 28.75 37.8 28.75 36.2" fill="#ffffff" fill-rule="evenodd" stroke="none"/>
  </g>
</svg>
