<?xml version="1.0" encoding="UTF-8" standalone="no"?>
<svg xmlns:xlink="http://www.w3.org/1999/xlink" height="37.95px" width="10.35px" xmlns="http://www.w3.org/2000/svg">
  <g transform="matrix(1.0, 0.0, 0.0, 1.0, 5.15, 18.95)">
    <path d="M-3.05 -9.45 L3.35 -9.45 3.35 10.65 Q2.55 17.35 0.1 17.45 -2.4 17.55 -3.05 10.65 L-3.05 -9.45" fill="#00cc00" fill-rule="evenodd" stroke="none"/>
    <path d="M-3.9 -15.85 L4.2 -15.85 4.2 10.15 Q3.2 18.9 0.1 19.0 -3.05 19.1 -3.9 10.15 L-3.9 -15.85" fill="url(#gradient0)" fill-rule="evenodd" stroke="none"/>
    <path d="M0.95 -10.3 L1.75 -10.3 1.75 -4.3 0.95 -4.3 0.95 -10.3 M1.05 13.9 L0.95 14.1 0.95 -2.55 1.75 -2.55 1.75 12.25 1.05 13.9" fill="#ffffff" fill-rule="evenodd" stroke="none"/>
    <path d="M-3.9 -15.85 L4.2 -15.85 4.2 -11.65 1.4 -11.65 -3.7 -10.45 -3.9 -10.35 -3.9 -15.85" fill="#000000" fill-opacity="0.5019608" fill-rule="evenodd" stroke="none"/>
    <path d="M-5.15 -18.95 L5.2 -18.95 5.2 -12.85 -5.15 -12.85 -5.15 -18.95" fill="url(#gradient1)" fill-rule="evenodd" stroke="none"/>
  </g>
  <defs>
    <linearGradient gradientTransform="matrix(0.0049, 0.0, 0.0, 0.0213, 0.15, 1.55)" gradientUnits="userSpaceOnUse" id="gradient0" spreadMethod="pad" x1="-819.2" x2="819.2">
      <stop offset="0.0" stop-color="#000000" stop-opacity="0.5019608"/>
      <stop offset="0.3176470588235294" stop-color="#ffffff" stop-opacity="0.5019608"/>
      <stop offset="0.7725490196078432" stop-color="#ffffff" stop-opacity="0.5019608"/>
      <stop offset="1.0" stop-color="#000000" stop-opacity="0.5019608"/>
    </linearGradient>
    <linearGradient gradientTransform="matrix(0.0063, 0.0, 0.0, 0.0037, 0.0, -15.9)" gradientUnits="userSpaceOnUse" id="gradient1" spreadMethod="pad" x1="-819.2" x2="819.2">
      <stop offset="0.0" stop-color="#333333"/>
      <stop offset="0.3176470588235294" stop-color="#c7c7c7"/>
      <stop offset="0.7725490196078432" stop-color="#e2e1e1"/>
      <stop offset="1.0" stop-color="#333333"/>
    </linearGradient>
  </defs>
</svg>
