<?xml version="1.0" encoding="UTF-8" standalone="no"?>
<svg xmlns:xlink="http://www.w3.org/1999/xlink" height="30.2px" width="10.9px" xmlns="http://www.w3.org/2000/svg">
  <g transform="matrix(1.0, 0.0, 0.0, 1.0, 0.0, 0.0)">
    <path d="M4.35 3.45 L3.2 1.0 3.5 0.05 5.0 0.85 6.1 0.0 7.55 0.8 8.25 0.2 9.0 0.95 6.8 3.5 6.2 3.4 5.45 3.35 5.1 3.35 5.05 3.35 4.8 3.4 4.35 3.45" fill="url(#gradient0)" fill-rule="evenodd" stroke="none"/>
    <path d="M5.45 3.35 L6.2 3.4 Q8.05 4.2 9.05 5.55 10.0 6.85 10.0 8.4 L9.65 10.35 8.95 12.0 6.8 14.1 6.15 14.25 6.65 12.15 6.75 11.75 8.35 11.1 Q9.3 10.35 9.15 8.85 L8.0 9.65 8.1 9.9 8.1 10.15 Q7.7 10.8 7.05 10.5 L7.0 10.1 7.05 8.7 Q7.05 6.35 5.45 3.35 M9.1 7.5 Q10.0 7.5 7.75 5.95 7.2 6.7 7.2 8.7 8.2 7.45 9.1 7.5" fill="url(#gradient1)" fill-rule="evenodd" stroke="none"/>
    <path d="M5.1 3.35 L5.45 3.35 Q7.05 6.35 7.05 8.7 L7.0 10.1 5.6 10.45 4.1 10.0 4.0 10.15 3.9 10.4 3.25 10.25 Q2.85 10.15 2.85 9.9 L2.95 9.35 2.35 8.8 2.35 8.95 2.3 8.55 2.4 7.6 3.7 8.65 Q3.7 6.65 3.15 5.9 L2.85 6.15 2.9 6.0 Q3.65 4.4 5.1 3.35 M5.3 14.25 L4.55 13.55 3.55 12.2 3.15 11.4 5.6 11.85 6.75 11.75 6.65 12.15 6.15 14.25 5.45 14.25 5.3 14.25 M5.65 7.9 L4.7 9.4 6.3 9.3 5.65 7.9" fill="url(#gradient2)" fill-rule="evenodd" stroke="none"/>
    <path d="M6.2 3.4 L6.8 3.5 Q8.25 3.9 9.3 4.95 10.9 6.55 10.9 8.8 10.9 11.05 9.3 12.65 8.4 13.55 7.4 13.9 L6.8 14.1 8.95 12.0 9.65 10.35 10.0 8.4 Q10.0 6.85 9.05 5.55 8.05 4.2 6.2 3.4" fill="url(#gradient3)" fill-rule="evenodd" stroke="none"/>
    <path d="M4.35 3.45 L4.8 3.4 Q2.65 4.05 1.75 5.0 0.7 6.1 0.7 8.1 0.7 10.7 2.0 12.15 L4.25 14.15 4.15 14.1 Q2.7 13.75 1.6 12.65 0.0 11.05 0.0 8.8 0.0 6.55 1.6 4.95 2.8 3.75 4.35 3.45" fill="url(#gradient4)" fill-rule="evenodd" stroke="none"/>
    <path d="M2.85 6.15 L3.15 5.9 Q3.7 6.65 3.7 8.65 L2.4 7.6 1.85 7.55 Q1.0 7.65 2.85 6.15 M2.35 8.95 L2.35 8.8 2.95 9.35 2.85 9.9 Q2.85 10.15 3.25 10.25 L3.9 10.4 4.0 10.15 4.1 10.0 5.6 10.45 7.0 10.1 7.05 10.5 Q7.7 10.8 8.1 10.15 L8.1 9.9 8.0 9.65 9.15 8.85 Q9.3 10.35 8.35 11.1 L6.75 11.75 5.6 11.85 3.15 11.4 2.75 11.1 Q2.05 10.5 2.35 8.95 M5.65 7.9 L6.3 9.3 4.7 9.4 5.65 7.9 M9.1 7.5 Q8.2 7.45 7.2 8.7 7.2 6.7 7.75 5.95 10.0 7.5 9.1 7.5" fill="url(#gradient5)" fill-rule="evenodd" stroke="none"/>
    <path d="M4.8 3.4 L5.05 3.35 5.1 3.35 Q3.65 4.4 2.9 6.0 L2.85 6.15 Q1.0 7.65 1.85 7.55 L2.4 7.6 2.3 8.55 2.35 8.95 Q2.05 10.5 2.75 11.1 L3.15 11.4 3.55 12.2 4.55 13.55 5.3 14.25 4.25 14.15 2.0 12.15 Q0.7 10.7 0.7 8.1 0.7 6.1 1.75 5.0 2.65 4.05 4.8 3.4" fill="url(#gradient6)" fill-rule="evenodd" stroke="none"/>
    <path d="M7.4 13.9 L8.2 15.55 Q7.95 16.1 7.3 16.1 L6.8 15.3 6.2 16.15 6.05 16.2 Q5.3 16.35 5.0 15.45 L4.85 15.65 4.3 16.35 Q3.8 16.35 3.85 15.45 L3.2 15.65 4.15 14.1 4.25 14.15 5.3 14.25 5.45 14.25 6.15 14.25 6.8 14.1 7.4 13.9" fill="url(#gradient7)" fill-rule="evenodd" stroke="none"/>
    <path d="M6.05 16.2 L6.15 29.6 Q6.1 30.25 5.25 30.2 4.8 30.05 4.7 29.6 L4.85 15.65 5.0 15.45 Q5.3 16.35 6.05 16.2" fill="url(#gradient8)" fill-rule="evenodd" stroke="none"/>
  </g>
  <defs>
    <radialGradient cx="0" cy="0" gradientTransform="matrix(0.0099, 0.0, 0.0, 0.0045, 6.2, 0.5)" gradientUnits="userSpaceOnUse" id="gradient0" r="819.2" spreadMethod="pad">
      <stop offset="0.0" stop-color="#d25c00"/>
      <stop offset="0.6509803921568628" stop-color="#4f2200"/>
    </radialGradient>
    <radialGradient cx="0" cy="0" gradientTransform="matrix(0.0076, 0.0, 0.0, 0.0076, 6.2, 8.35)" gradientUnits="userSpaceOnUse" id="gradient1" r="819.2" spreadMethod="pad">
      <stop offset="0.0" stop-color="#d25c00"/>
      <stop offset="0.6509803921568628" stop-color="#642c00"/>
    </radialGradient>
    <radialGradient cx="0" cy="0" gradientTransform="matrix(0.0117, 0.0, 0.0, 0.0091, 4.7, 8.95)" gradientUnits="userSpaceOnUse" id="gradient2" r="819.2" spreadMethod="pad">
      <stop offset="0.0" stop-color="#d25c00"/>
      <stop offset="0.6509803921568628" stop-color="#703100"/>
    </radialGradient>
    <radialGradient cx="0" cy="0" gradientTransform="matrix(0.0086, 0.0, 0.0, 0.0086, 7.9, 8.8)" gradientUnits="userSpaceOnUse" id="gradient3" r="819.2" spreadMethod="pad">
      <stop offset="0.0" stop-color="#b44e00"/>
      <stop offset="0.6509803921568628" stop-color="#542400"/>
    </radialGradient>
    <radialGradient cx="0" cy="0" gradientTransform="matrix(0.0088, 0.0, 0.0, 0.0088, 0.95, 8.7)" gradientUnits="userSpaceOnUse" id="gradient4" r="819.2" spreadMethod="pad">
      <stop offset="0.0" stop-color="#a64800"/>
      <stop offset="0.6509803921568628" stop-color="#542400"/>
    </radialGradient>
    <radialGradient cx="0" cy="0" gradientTransform="matrix(0.0064, 0.0, 0.0, 0.0064, 5.65, 8.8)" gradientUnits="userSpaceOnUse" id="gradient5" r="819.2" spreadMethod="pad">
      <stop offset="0.0" stop-color="#6b6b6b"/>
      <stop offset="1.0" stop-color="#000000"/>
    </radialGradient>
    <radialGradient cx="0" cy="0" gradientTransform="matrix(0.0084, 0.0, 0.0, 0.0084, 3.8, 8.65)" gradientUnits="userSpaceOnUse" id="gradient6" r="819.2" spreadMethod="pad">
      <stop offset="0.0" stop-color="#d25c00"/>
      <stop offset="0.6509803921568628" stop-color="#542400"/>
    </radialGradient>
    <radialGradient cx="0" cy="0" gradientTransform="matrix(0.0063, 0.0, 0.0, 0.0032, 5.5, 16.15)" gradientUnits="userSpaceOnUse" id="gradient7" r="819.2" spreadMethod="pad">
      <stop offset="0.0" stop-color="#d25c00"/>
      <stop offset="0.6627450980392157" stop-color="#4a2000"/>
    </radialGradient>
    <linearGradient gradientTransform="matrix(-2.0E-4, 0.0048, -0.001, 0.0, 5.45, 19.4)" gradientUnits="userSpaceOnUse" id="gradient8" spreadMethod="pad" x1="-819.2" x2="819.2">
      <stop offset="0.0" stop-color="#252525"/>
      <stop offset="0.6627450980392157" stop-color="#878787"/>
    </linearGradient>
  </defs>
</svg>
