<?xml version="1.0" encoding="UTF-8" standalone="no"?>
<svg xmlns:xlink="http://www.w3.org/1999/xlink" height="30.2px" width="10.9px" xmlns="http://www.w3.org/2000/svg">
  <g transform="matrix(1.0, 0.0, 0.0, 1.0, 5.65, 15.8)">
    <path d="M3.45 -8.3 Q2.55 -8.35 1.55 -7.1 1.55 -9.1 2.1 -9.85 4.35 -8.3 3.45 -8.3 M1.35 -5.7 L1.4 -5.3 Q2.05 -5.0 2.45 -5.65 L2.45 -5.9 2.35 -6.15 3.5 -6.95 Q3.65 -5.45 2.7 -4.7 2.05 -4.25 1.1 -4.05 L-0.05 -3.95 -2.5 -4.4 -2.9 -4.7 Q-3.6 -5.3 -3.3 -6.85 L-3.3 -7.0 -2.7 -6.45 -2.8 -5.9 -2.4 -5.55 -1.75 -5.4 -1.65 -5.65 -1.55 -5.8 -0.05 -5.35 1.35 -5.7 M-2.8 -9.65 L-2.5 -9.9 Q-1.95 -9.15 -1.95 -7.15 -2.65 -8.0 -3.25 -8.2 L-3.8 -8.25 Q-4.65 -8.15 -2.8 -9.65" fill="url(#gradient0)" fill-rule="evenodd" stroke="none"/>
    <path d="M0.0 -7.9 L0.65 -6.5 -0.95 -6.4 0.0 -7.9" fill="url(#gradient1)" fill-rule="evenodd" stroke="none"/>
    <path d="M0.4 0.4 L0.5 13.8 Q0.45 14.45 -0.4 14.4 L-0.95 13.8 -0.8 -0.15 -0.65 -0.35 Q-0.35 0.55 0.4 0.4" fill="url(#gradient2)" fill-rule="evenodd" stroke="none"/>
    <path d="M0.55 -12.4 L1.15 -12.3 Q2.6 -11.9 3.65 -10.85 5.25 -9.25 5.25 -7.0 5.25 -4.75 3.65 -3.15 2.75 -2.25 1.75 -1.9 L1.15 -1.7 3.3 -3.8 4.0 -5.45 4.35 -7.4 Q4.35 -8.95 3.4 -10.25 2.4 -11.6 0.55 -12.4" fill="url(#gradient3)" fill-rule="evenodd" stroke="none"/>
    <path d="M-1.3 -12.35 L-0.85 -12.4 Q-3.0 -11.75 -3.9 -10.8 -4.95 -9.7 -4.95 -7.7 -4.95 -5.1 -3.65 -3.65 L-1.4 -1.65 -1.5 -1.7 Q-2.95 -2.05 -4.05 -3.15 -5.65 -4.75 -5.65 -7.0 -5.65 -9.25 -4.05 -10.85 -2.85 -12.05 -1.3 -12.35" fill="url(#gradient4)" fill-rule="evenodd" stroke="none"/>
    <path d="M-0.55 -12.45 L-0.2 -12.45 Q1.4 -9.45 1.4 -7.1 L1.35 -5.7 -0.05 -5.35 -1.55 -5.8 -1.65 -5.65 -1.75 -5.4 -2.4 -5.55 -2.8 -5.9 -2.7 -6.45 -3.3 -7.0 -3.3 -6.85 -3.35 -7.25 -3.25 -8.2 Q-2.65 -8.0 -1.95 -7.15 -1.95 -9.15 -2.5 -9.9 L-2.8 -9.65 -2.75 -9.8 Q-2.0 -11.4 -0.55 -12.45 M0.0 -7.9 L-0.95 -6.4 0.65 -6.5 0.0 -7.9" fill="url(#gradient5)" fill-rule="evenodd" stroke="none"/>
    <path d="M1.1 -4.05 L1.0 -3.65 0.5 -1.55 -0.2 -1.55 -0.35 -1.55 -1.1 -2.25 Q-1.9 -3.05 -2.1 -3.6 L-2.5 -4.4 -0.05 -3.95 1.1 -4.05" fill="url(#gradient6)" fill-rule="evenodd" stroke="none"/>
    <path d="M-0.2 -12.45 L0.55 -12.4 Q2.4 -11.6 3.4 -10.25 4.35 -8.95 4.35 -7.4 L4.0 -5.45 3.3 -3.8 1.15 -1.7 0.5 -1.55 1.0 -3.65 1.1 -4.05 Q2.05 -4.25 2.7 -4.7 3.65 -5.45 3.5 -6.95 L2.35 -6.15 2.45 -5.9 2.45 -5.65 Q2.05 -5.0 1.4 -5.3 L1.35 -5.7 1.4 -7.1 Q1.4 -9.45 -0.2 -12.45 M3.45 -8.3 Q4.35 -8.3 2.1 -9.85 1.55 -9.1 1.55 -7.1 2.55 -8.35 3.45 -8.3" fill="url(#gradient7)" fill-rule="evenodd" stroke="none"/>
    <path d="M-0.85 -12.4 L-0.6 -12.45 -0.55 -12.45 Q-2.0 -11.4 -2.75 -9.8 L-2.8 -9.65 Q-4.65 -8.15 -3.8 -8.25 L-3.25 -8.2 -3.35 -7.25 -3.3 -6.85 Q-3.6 -5.3 -2.9 -4.7 L-2.5 -4.4 -2.1 -3.6 Q-1.9 -3.05 -1.1 -2.25 L-0.35 -1.55 -1.4 -1.65 -3.65 -3.65 Q-4.95 -5.1 -4.95 -7.7 -4.95 -9.7 -3.9 -10.8 -3.0 -11.75 -0.85 -12.4" fill="url(#gradient8)" fill-rule="evenodd" stroke="none"/>
    <path d="M-1.3 -12.35 L-2.45 -14.8 -2.15 -15.75 -0.65 -14.95 0.45 -15.8 1.9 -15.0 2.6 -15.6 3.35 -14.85 1.15 -12.3 0.55 -12.4 -0.2 -12.45 -0.55 -12.45 -0.6 -12.45 -0.85 -12.4 -1.3 -12.35" fill="url(#gradient9)" fill-rule="evenodd" stroke="none"/>
    <path d="M1.75 -1.9 L2.55 -0.25 Q2.3 0.3 1.65 0.3 L1.15 -0.5 0.55 0.35 0.4 0.4 Q-0.35 0.55 -0.65 -0.35 L-0.8 -0.15 -1.35 0.55 Q-1.85 0.55 -1.8 -0.35 L-2.45 -0.15 -1.5 -1.7 -1.4 -1.65 -0.35 -1.55 -0.2 -1.55 0.5 -1.55 1.15 -1.7 1.75 -1.9" fill="url(#gradient10)" fill-rule="evenodd" stroke="none"/>
  </g>
  <defs>
    <radialGradient cx="0" cy="0" gradientTransform="matrix(0.0064, 0.0, 0.0, 0.0064, 0.0, -7.0)" gradientUnits="userSpaceOnUse" id="gradient0" r="819.2" spreadMethod="pad">
      <stop offset="0.0" stop-color="#6b6b6b"/>
      <stop offset="1.0" stop-color="#000000"/>
    </radialGradient>
    <radialGradient cx="0" cy="0" gradientTransform="matrix(0.0064, 0.0, 0.0, 0.0064, 0.0, -7.0)" gradientUnits="userSpaceOnUse" id="gradient1" r="819.2" spreadMethod="pad">
      <stop offset="0.0" stop-color="#414141"/>
      <stop offset="1.0" stop-color="#000000"/>
    </radialGradient>
    <linearGradient gradientTransform="matrix(-2.0E-4, 0.0048, -0.001, 0.0, -0.2, 3.6)" gradientUnits="userSpaceOnUse" id="gradient2" spreadMethod="pad" x1="-819.2" x2="819.2">
      <stop offset="0.0" stop-color="#595959"/>
      <stop offset="0.3607843137254902" stop-color="#d0d0d0"/>
    </linearGradient>
    <radialGradient cx="0" cy="0" gradientTransform="matrix(0.0086, 0.0, 0.0, 0.0086, 2.25, -7.0)" gradientUnits="userSpaceOnUse" id="gradient3" r="819.2" spreadMethod="pad">
      <stop offset="0.0" stop-color="#dcb000"/>
      <stop offset="1.0" stop-color="#9e7300"/>
    </radialGradient>
    <radialGradient cx="0" cy="0" gradientTransform="matrix(0.0088, 0.0, 0.0, 0.0088, -4.7, -7.1)" gradientUnits="userSpaceOnUse" id="gradient4" r="819.2" spreadMethod="pad">
      <stop offset="0.0" stop-color="#dcb000"/>
      <stop offset="1.0" stop-color="#9e7300"/>
    </radialGradient>
    <radialGradient cx="0" cy="0" gradientTransform="matrix(0.0117, 0.0, 0.0, 0.0091, -0.95, -6.85)" gradientUnits="userSpaceOnUse" id="gradient5" r="819.2" spreadMethod="pad">
      <stop offset="0.24313725490196078" stop-color="#ffff00"/>
      <stop offset="1.0" stop-color="#af9400"/>
    </radialGradient>
    <radialGradient cx="0" cy="0" gradientTransform="matrix(0.0117, 0.0, 0.0, 0.0091, -0.95, -6.85)" gradientUnits="userSpaceOnUse" id="gradient6" r="819.2" spreadMethod="pad">
      <stop offset="0.29411764705882354" stop-color="#ffff00"/>
      <stop offset="1.0" stop-color="#af9400"/>
    </radialGradient>
    <radialGradient cx="0" cy="0" gradientTransform="matrix(0.0076, 0.0, 0.0, 0.0076, 0.55, -7.45)" gradientUnits="userSpaceOnUse" id="gradient7" r="819.2" spreadMethod="pad">
      <stop offset="0.1450980392156863" stop-color="#ffff00"/>
      <stop offset="0.9607843137254902" stop-color="#a78200"/>
    </radialGradient>
    <radialGradient cx="0" cy="0" gradientTransform="matrix(0.0084, 0.0, 0.0, 0.0084, -1.85, -7.15)" gradientUnits="userSpaceOnUse" id="gradient8" r="819.2" spreadMethod="pad">
      <stop offset="0.1450980392156863" stop-color="#ffff00"/>
      <stop offset="0.9607843137254902" stop-color="#a78200"/>
    </radialGradient>
    <radialGradient cx="0" cy="0" gradientTransform="matrix(0.0099, 0.0, 0.0, 0.0045, 0.55, -15.3)" gradientUnits="userSpaceOnUse" id="gradient9" r="819.2" spreadMethod="pad">
      <stop offset="0.3058823529411765" stop-color="#ffff00"/>
      <stop offset="1.0" stop-color="#888300"/>
    </radialGradient>
    <radialGradient cx="0" cy="0" gradientTransform="matrix(0.0063, 0.0, 0.0, 0.0032, -0.15, 0.35)" gradientUnits="userSpaceOnUse" id="gradient10" r="819.2" spreadMethod="pad">
      <stop offset="0.27450980392156865" stop-color="#ffff00"/>
      <stop offset="1.0" stop-color="#806300"/>
    </radialGradient>
  </defs>
</svg>
