<?xml version="1.0" encoding="UTF-8" standalone="no"?>
<svg xmlns:xlink="http://www.w3.org/1999/xlink" height="9.6px" width="23.05px" xmlns="http://www.w3.org/2000/svg">
  <g transform="matrix(1.0, 0.0, 0.0, 1.0, 0.0, 0.0)">
    <path d="M22.5 5.6 L22.55 5.65 22.35 6.4 Q22.85 6.4 22.85 6.8 L22.75 7.15 21.6 6.0 Q22.15 5.95 22.5 5.6 M22.75 7.85 L23.05 8.25 22.75 8.7 22.25 9.05 22.75 7.85 M0.15 7.25 L0.0 6.8 0.55 6.1 0.5 5.75 1.4 6.0 0.15 7.25 M0.25 4.35 L0.25 4.2 0.45 3.8 0.65 3.4 0.7 3.0 1.4 3.65 Q0.55 3.5 0.25 4.35 M22.5 2.8 L22.9 3.85 22.6 4.2 Q22.3 3.75 21.8 3.7 L21.65 3.65 21.6 3.65 22.5 2.8" fill="#592700" fill-rule="evenodd" stroke="none"/>
    <path d="M2.05 8.7 L0.8 9.2 2.05 8.7 M0.5 5.75 L0.2 5.15 Q0.3 5.75 1.4 6.0 L0.5 5.75" fill="#ff7000" fill-rule="evenodd" stroke="none"/>
    <path d="M3.65 8.0 L2.05 8.7 3.65 8.0" fill="#383838" fill-rule="evenodd" stroke="none"/>
    <path d="M17.3 5.65 L17.3 5.85 17.25 5.75 17.25 5.55 17.3 5.65 M17.25 5.65 L17.15 6.25 16.55 7.65 17.25 5.65 M5.8 5.85 L5.75 5.55 5.75 5.4 5.8 5.65 5.8 5.85 M5.75 4.1 L5.8 3.8 5.8 4.05 5.75 4.25 5.75 4.1 M17.25 4.1 L17.25 3.9 17.3 3.8 17.3 4.05 17.25 4.1" fill="#3a3a3a" fill-rule="evenodd" stroke="none"/>
    <path d="M22.75 7.15 L22.95 7.3 22.75 7.85 22.25 9.05 22.2 9.2 18.8 7.75 17.3 5.65 17.25 5.55 17.25 4.1 17.3 4.05 18.8 1.85 22.2 0.45 22.95 2.35 22.5 2.8 21.6 3.65 21.65 3.65 21.8 3.7 Q22.3 3.75 22.6 4.2 L22.85 4.85 22.5 5.6 Q22.15 5.95 21.6 6.0 L22.75 7.15" fill="url(#gradient0)" fill-rule="evenodd" stroke="none"/>
    <path d="M17.25 5.55 L17.25 5.65 16.55 7.65 16.25 8.0 15.5 8.65 Q13.65 9.75 11.6 9.6 L11.4 9.6 Q9.35 9.75 7.5 8.65 L6.75 8.0 6.15 7.05 6.1 6.9 5.95 6.45 5.9 6.3 5.8 5.9 5.8 5.85 5.8 5.65 5.8 4.05 5.8 3.8 Q6.05 2.5 6.75 1.65 L7.5 1.0 Q9.45 -0.15 11.6 0.0 13.65 -0.1 15.5 1.0 L16.25 1.65 Q17.05 2.6 17.25 4.1 L17.25 5.55" fill="url(#gradient1)" fill-rule="evenodd" stroke="none"/>
    <path d="M5.75 5.55 L4.2 7.75 3.65 8.0 2.05 8.7 0.8 9.2 0.05 7.3 0.15 7.25 1.4 6.0 Q0.3 5.75 0.2 5.15 L0.15 4.85 0.15 4.75 0.2 4.5 0.25 4.4 0.25 4.35 Q0.55 3.5 1.4 3.65 L0.7 3.0 0.05 2.35 0.8 0.45 1.85 0.9 1.9 0.9 4.2 1.85 5.75 4.1 5.75 4.25 5.8 4.05 5.8 5.65 5.75 5.4 5.75 5.55" fill="url(#gradient2)" fill-rule="evenodd" stroke="none"/>
  </g>
  <defs>
    <radialGradient cx="0" cy="0" gradientTransform="matrix(0.0068, 0.0, 0.0, 0.008, 21.05, 4.8)" gradientUnits="userSpaceOnUse" id="gradient0" r="819.2" spreadMethod="pad">
      <stop offset="0.0" stop-color="#000000" stop-opacity="0.0"/>
      <stop offset="0.9921568627450981" stop-color="#000000"/>
    </radialGradient>
    <radialGradient cx="0" cy="0" gradientTransform="matrix(0.0087, 0.0, 0.0, 0.007, 11.2, 4.65)" gradientUnits="userSpaceOnUse" id="gradient1" r="819.2" spreadMethod="pad">
      <stop offset="0.0" stop-color="#000000" stop-opacity="0.0"/>
      <stop offset="0.5450980392156862" stop-color="#000000" stop-opacity="0.3137255"/>
      <stop offset="0.9921568627450981" stop-color="#000000"/>
    </radialGradient>
    <radialGradient cx="0" cy="0" gradientTransform="matrix(0.007, 0.0, 0.0, 0.0088, 0.85, 4.8)" gradientUnits="userSpaceOnUse" id="gradient2" r="819.2" spreadMethod="pad">
      <stop offset="0.0" stop-color="#000000" stop-opacity="0.0"/>
      <stop offset="0.9921568627450981" stop-color="#000000"/>
    </radialGradient>
  </defs>
</svg>
