<?xml version="1.0" encoding="UTF-8" standalone="no"?>
<svg xmlns:xlink="http://www.w3.org/1999/xlink" height="17.95px" width="30.45px" xmlns="http://www.w3.org/2000/svg">
  <g transform="matrix(1.0, 0.0, 0.0, 1.0, 15.55, 9.0)">
    <path d="M11.35 -1.25 L10.45 -0.35 10.2 -0.6 10.15 -0.9 10.0 -0.85 Q9.8 -0.85 9.8 -1.1 L10.0 -1.7 10.45 -2.2 10.4 -2.45 Q11.1 -2.6 11.35 -1.25 M11.5 3.15 L11.2 3.6 10.7 3.95 10.5 3.7 10.7 3.4 11.0 3.2 10.7 2.7 Q10.7 2.3 11.1 2.65 L11.5 3.15 M10.45 -0.15 L11.0 0.55 10.8 1.3 Q11.3 1.3 11.3 1.7 L11.1 2.1 9.7 2.25 9.4 2.0 10.15 1.8 10.05 1.55 10.15 1.5 10.0 1.05 Q10.0 0.4 10.3 0.5 L10.4 0.6 10.45 0.45 10.3 0.05 10.45 -0.15 M-10.05 -1.6 L-10.25 -0.85 -10.65 -0.25 -10.75 -0.2 -10.35 -0.05 -10.25 0.2 -10.45 0.65 -10.45 0.7 -10.2 0.55 -9.95 0.75 Q-10.5 1.95 -10.9 2.15 L-10.65 2.55 -10.5 2.95 Q-10.5 3.1 -10.8 3.1 L-11.25 2.35 -11.55 1.7 -11.0 1.0 -11.05 0.6 -10.8 0.3 Q-11.3 -0.2 -11.3 -0.9 L-11.1 -1.3 -10.9 -1.7 -10.8 -2.65 Q-10.7 -3.8 -10.05 -1.6" fill="#580059" fill-rule="evenodd" stroke="none"/>
    <path d="M-4.8 -3.45 Q-5.3 -0.35 -4.8 2.9 L-5.6 1.35 -5.65 1.2 -5.65 1.1 -5.8 0.45 -5.8 0.25 -5.8 0.1 -5.8 -0.65 -5.8 -0.8 -5.8 -1.0 Q-5.6 -2.5 -4.8 -3.45 M4.7 2.9 Q5.35 -0.2 4.7 -3.45 5.5 -2.5 5.7 -1.0 L5.7 -1.2 5.75 -1.3 5.75 -1.05 5.75 -1.0 5.7 -0.95 5.7 -0.8 5.7 -0.65 5.75 -0.7 5.75 0.1 5.7 0.1 5.7 0.25 5.7 0.4 5.75 0.45 5.75 0.5 5.75 0.75 5.7 0.65 5.7 0.45 5.6 1.15 Q5.3 2.2 4.7 2.9" fill="#3a3a3a" fill-rule="evenodd" stroke="none"/>
    <path d="M5.7 -0.8 L5.75 -0.85 7.55 -2.35 Q8.25 -2.1 7.75 -1.55 L5.75 -0.7 5.7 -0.65 5.7 -0.8 M5.7 0.25 L5.7 0.1 5.75 0.1 7.75 1.0 Q8.25 1.55 7.55 1.8 L5.75 0.25 5.7 0.25 M-5.8 -0.65 L-7.85 -1.55 Q-8.35 -2.1 -7.65 -2.35 L-5.8 -0.8 -5.8 -0.65 M-5.8 0.25 Q-6.9 0.75 -7.65 1.8 -8.35 1.55 -7.85 1.0 -6.9 -0.1 -5.8 0.1 L-5.8 0.25" fill="#1c1c1c" fill-rule="evenodd" stroke="none"/>
    <path d="M1.2 -0.55 Q2.95 -0.25 3.05 0.4 3.15 1.05 2.15 1.45 L-0.7 1.8 Q-2.65 1.8 -3.1 0.85 -3.55 -0.15 -1.25 -0.65 L-1.35 -0.35 -1.55 0.5 Q-0.4 1.15 1.45 0.5 L1.25 -0.35 1.2 -0.55" fill="#4f4f4f" fill-rule="evenodd" stroke="none"/>
    <path d="M5.75 -1.05 L7.25 -3.25 9.85 -4.3 Q10.55 -4.3 10.45 -3.1 10.3 -2.1 9.3 -1.45 8.7 -0.75 10.25 -0.25 9.35 -0.15 9.25 1.1 9.7 2.2 10.7 2.3 L9.8 3.75 7.25 2.65 5.75 0.5 5.75 0.45 5.75 0.25 7.55 1.8 Q8.25 1.55 7.75 1.0 L5.75 0.1 5.75 -0.7 7.75 -1.55 Q8.25 -2.1 7.55 -2.35 L5.75 -0.85 5.75 -1.0 5.75 -1.05 M-1.05 -1.1 L-0.1 -3.75 0.95 -1.1 Q-0.1 -0.25 -1.05 -1.1 M1.25 -0.35 L1.45 0.5 Q-0.4 1.15 -1.55 0.5 L-1.35 -0.35 Q-0.35 0.2 1.25 -0.35 M-9.5 3.6 L-10.2 2.55 Q-9.3 2.4 -8.95 0.95 -9.55 -0.05 -10.3 -0.2 -9.25 -0.45 -9.2 -1.3 -9.25 -2.4 -10.15 -2.75 -10.75 -3.65 -9.65 -4.2 L-7.35 -3.25 -5.8 -1.0 -5.8 -0.8 -7.65 -2.35 Q-8.35 -2.1 -7.85 -1.55 L-5.8 -0.65 -5.8 0.1 Q-6.9 -0.1 -7.85 1.0 -8.35 1.55 -7.65 1.8 -6.9 0.75 -5.8 0.25 L-5.8 0.45 -7.35 2.65 -9.5 3.6" fill="#383838" fill-rule="evenodd" stroke="none"/>
    <path d="M0.95 -1.1 L1.2 -0.55 1.25 -0.35 Q-0.35 0.2 -1.35 -0.35 L-1.25 -0.65 -1.05 -1.1 Q-0.1 -0.25 0.95 -1.1" fill="#a808e2" fill-rule="evenodd" stroke="none"/>
    <path d="M-4.8 -3.45 L-4.05 -4.1 Q-2.1 -5.25 0.05 -5.1 2.1 -5.2 3.95 -4.1 L4.7 -3.45 Q5.35 -0.2 4.7 2.9 L3.95 3.55 Q2.1 4.65 0.05 4.5 L-0.15 4.5 Q-2.2 4.65 -4.05 3.55 L-4.8 2.9 Q-5.3 -0.35 -4.8 -3.45 M9.85 -4.3 L10.65 -4.65 11.4 -2.75 10.05 -1.45 Q10.95 -1.45 11.3 -0.25 10.95 0.6 10.05 0.9 L11.4 2.2 10.65 4.1 9.8 3.75 10.7 2.3 Q9.7 2.2 9.25 1.1 9.35 -0.15 10.25 -0.25 8.7 -0.75 9.3 -1.45 10.3 -2.1 10.45 -3.1 10.55 -4.3 9.85 -4.3 M1.2 -0.55 L0.95 -1.1 -0.1 -3.75 -1.05 -1.1 -1.25 -0.65 Q-3.55 -0.15 -3.1 0.85 -2.65 1.8 -0.7 1.8 L2.15 1.45 Q3.15 1.05 3.05 0.4 2.95 -0.25 1.2 -0.55 M-9.5 3.6 L-10.75 4.1 -11.5 2.2 -10.15 0.9 Q-11.4 0.85 -11.4 -0.25 -11.25 -1.65 -10.15 -1.45 L-11.5 -2.75 -10.75 -4.65 -9.7 -4.2 -9.65 -4.2 Q-10.75 -3.65 -10.15 -2.75 -9.25 -2.4 -9.2 -1.3 -9.25 -0.45 -10.3 -0.2 -9.55 -0.05 -8.95 0.95 -9.3 2.4 -10.2 2.55 L-9.5 3.6" fill="#ff99ff" fill-rule="evenodd" stroke="none"/>
    <path d="M5.7 0.45 Q5.5 1.95 4.7 2.9 L3.95 3.55 Q2.1 4.65 0.05 4.5 L-0.15 4.5 Q-2.2 4.65 -4.05 3.55 L-4.8 2.9 Q-5.5 2.05 -5.75 0.8 L-5.75 0.55 -5.75 -1.05 -5.75 -1.3 Q-5.5 -2.6 -4.8 -3.45 L-4.05 -4.1 Q-2.1 -5.25 0.05 -5.1 2.1 -5.2 3.95 -4.1 L4.7 -3.45 Q5.5 -2.5 5.7 -1.0 L5.7 0.45" fill="url(#gradient0)" fill-rule="evenodd" stroke="none"/>
    <path d="M5.7 -1.0 L7.25 -3.25 10.65 -4.65 11.4 -2.75 10.05 -1.45 Q11.05 -1.45 11.3 -0.25 11.05 0.8 10.05 0.9 L11.4 2.2 10.65 4.1 7.25 2.65 5.7 0.45 5.7 -1.0" fill="url(#gradient1)" fill-rule="evenodd" stroke="none"/>
    <path d="M-5.75 0.55 L-5.8 0.3 -5.8 0.45 -7.35 2.65 -10.75 4.1 -11.5 2.2 -10.15 0.9 Q-11.45 0.6 -11.4 -0.25 -11.25 -1.55 -10.15 -1.45 L-11.5 -2.75 -10.75 -4.65 -9.7 -4.2 -9.65 -4.2 -7.35 -3.25 -5.8 -1.0 -5.8 -0.85 -5.75 -1.05 -5.75 0.55" fill="url(#gradient2)" fill-rule="evenodd" stroke="none"/>
    <path d="M-15.55 -9.0 L14.9 -9.0 14.9 8.95 -15.55 8.95 -15.55 -9.0" fill="#ff6f00" fill-opacity="0.0" fill-rule="evenodd" stroke="none"/>
  </g>
  <defs>
    <radialGradient cx="0" cy="0" gradientTransform="matrix(0.0087, 0.0, 0.0, 0.007, -0.35, -0.45)" gradientUnits="userSpaceOnUse" id="gradient0" r="819.2" spreadMethod="pad">
      <stop offset="0.6313725490196078" stop-color="#000000" stop-opacity="0.0"/>
      <stop offset="0.9921568627450981" stop-color="#000000" stop-opacity="0.7019608"/>
    </radialGradient>
    <radialGradient cx="0" cy="0" gradientTransform="matrix(0.0068, 0.0, 0.0, 0.008, 9.5, -0.3)" gradientUnits="userSpaceOnUse" id="gradient1" r="819.2" spreadMethod="pad">
      <stop offset="0.36470588235294116" stop-color="#000000" stop-opacity="0.0"/>
      <stop offset="0.9921568627450981" stop-color="#000000"/>
    </radialGradient>
    <radialGradient cx="0" cy="0" gradientTransform="matrix(0.007, 0.0, 0.0, 0.0088, -10.7, -0.3)" gradientUnits="userSpaceOnUse" id="gradient2" r="819.2" spreadMethod="pad">
      <stop offset="0.32941176470588235" stop-color="#000000" stop-opacity="0.0"/>
      <stop offset="0.4" stop-color="#000000" stop-opacity="0.0"/>
      <stop offset="0.9921568627450981" stop-color="#000000"/>
    </radialGradient>
  </defs>
</svg>
