<?xml version="1.0" encoding="UTF-8" standalone="no"?>
<svg xmlns:xlink="http://www.w3.org/1999/xlink" height="45.75px" width="22.3px" xmlns="http://www.w3.org/2000/svg">
  <g transform="matrix(1.0, 0.0, 0.0, 1.0, 0.0, 0.0)">
    <path d="M22.3 10.4 Q22.2 11.7 21.2 13.95 20.55 16.55 19.8 17.8 L18.65 19.25 Q16.25 21.05 12.65 21.75 L11.45 21.9 11.25 21.9 11.85 45.0 Q11.1 46.3 10.15 45.4 L10.45 21.95 Q7.85 22.1 5.75 21.05 4.25 20.35 3.1 19.15 0.6 16.65 0.15 13.35 -0.05 12.2 0.05 10.95 0.2 7.2 2.05 4.6 L3.3 3.2 Q5.75 0.85 9.2 0.25 L11.65 0.0 15.8 0.55 16.95 1.05 Q17.9 1.55 18.9 2.45 L20.85 4.75 Q21.8 6.15 22.1 7.65 22.4 9.1 22.3 10.4" fill="#838383" fill-rule="evenodd" stroke="none"/>
  </g>
</svg>
