<?xml version="1.0" encoding="UTF-8" standalone="no"?>
<svg xmlns:xlink="http://www.w3.org/1999/xlink" height="45.75px" width="22.6px" xmlns="http://www.w3.org/2000/svg">
  <g transform="matrix(1.0, 0.0, 0.0, 1.0, 11.4, 21.0)">
    <path d="M4.4 -20.45 L4.6 -19.9 4.6 -19.15 4.3 -17.7 3.35 -15.9 1.5 -16.4 1.7 -15.95 2.1 -14.9 1.65 -13.45 0.85 -12.15 -0.55 -12.55 Q-1.8 -12.55 -2.45 -11.85 -0.9 -11.55 0.1 -9.5 L0.15 -9.3 0.95 -9.3 Q0.55 -8.8 0.55 -8.0 0.55 -6.8 0.7 -6.4 L0.85 -6.1 1.3 -5.5 Q2.9 -5.8 4.3 -6.65 L4.85 -7.0 Q5.25 -5.65 5.95 -4.95 L6.95 -4.2 Q8.65 -5.35 9.8 -7.05 9.25 -4.4 8.4 -3.2 L7.25 -1.75 6.5 -2.25 5.6 -3.4 Q3.5 -2.4 0.75 -2.2 L0.55 -2.6 0.45 -2.7 0.25 -4.0 0.4 -5.45 -0.15 -5.45 Q-2.3 -5.45 -3.05 -6.65 -3.55 -7.3 -3.55 -8.35 -3.55 -10.2 -2.95 -11.25 -3.5 -12.95 -4.5 -13.8 L-5.25 -14.3 Q-3.7 -15.9 -1.35 -16.3 -1.6 -19.05 -1.8 -19.75 L-2.2 -20.75 0.25 -21.0 4.4 -20.45 M-5.65 0.05 Q-7.15 -0.65 -8.3 -1.85 -10.8 -4.35 -11.25 -7.65 L-10.65 -8.0 -9.15 -8.15 -7.3 -7.85 Q-7.05 -5.6 -6.05 -4.3 L-5.4 -3.65 -4.6 -3.1 Q-5.55 -2.5 -5.7 -1.5 L-5.65 0.05" fill="#ff9a00" fill-rule="evenodd" stroke="none"/>
    <path d="M0.95 -9.3 L1.3 -9.45 1.45 -9.55 Q1.9 -9.85 1.95 -10.35 L3.5 -9.55 4.7 -9.5 6.45 -9.7 6.7 -9.85 6.8 -10.45 6.8 -11.0 6.8 -11.1 6.75 -11.95 9.75 -11.2 10.6 -11.5 11.1 -11.7 Q10.8 -9.3 9.8 -7.05 8.65 -5.35 6.95 -4.2 L5.95 -4.95 Q5.25 -5.65 4.85 -7.0 L4.3 -6.65 Q2.9 -5.8 1.3 -5.5 L0.85 -6.1 0.7 -6.4 Q0.55 -6.8 0.55 -8.0 0.55 -8.8 0.95 -9.3 M1.25 0.75 L0.05 0.9 -0.15 0.9 -0.95 0.95 Q-3.55 1.1 -5.65 0.05 L-5.7 -1.5 Q-5.55 -2.5 -4.6 -3.1 -3.05 -2.25 -0.25 -2.2 L0.3 -2.2 0.15 -1.55 Q0.15 -0.65 0.85 0.25 L1.25 0.75 M-9.35 -16.4 L-8.1 -17.8 Q-5.65 -20.15 -2.2 -20.75 L-1.8 -19.75 Q-1.6 -19.05 -1.35 -16.3 -3.7 -15.9 -5.25 -14.3 L-4.5 -13.8 Q-3.5 -12.95 -2.95 -11.25 -3.55 -10.2 -3.55 -8.35 -3.55 -7.3 -3.05 -6.65 L-3.35 -6.65 Q-4.2 -6.5 -5.15 -5.55 L-6.05 -4.3 Q-7.05 -5.6 -7.3 -7.85 L-7.35 -9.0 Q-7.35 -11.55 -6.05 -13.4 L-6.65 -14.3 Q-7.55 -15.35 -8.75 -16.1 L-9.35 -16.4" fill="#00d411" fill-rule="evenodd" stroke="none"/>
    <path d="M4.4 -20.45 L5.5 -20.0 7.4 -18.75 9.45 -16.35 Q10.45 -14.8 10.8 -13.45 L11.1 -11.7 10.6 -11.5 9.75 -11.2 6.75 -11.95 6.8 -11.1 6.8 -11.0 6.8 -10.45 6.7 -9.85 6.45 -9.7 4.7 -9.5 3.5 -9.55 1.95 -10.35 Q1.9 -9.85 1.45 -9.55 L1.3 -9.45 0.95 -9.3 0.15 -9.3 0.1 -9.5 Q-0.9 -11.55 -2.45 -11.85 -1.8 -12.55 -0.55 -12.55 L0.85 -12.15 1.65 -13.45 2.1 -14.9 1.7 -15.95 1.5 -16.4 3.35 -15.9 4.3 -17.7 4.6 -19.15 4.6 -19.9 4.4 -20.45 M7.25 -1.75 Q4.85 0.05 1.25 0.75 L0.85 0.25 Q0.15 -0.65 0.15 -1.55 L0.3 -2.2 -0.25 -2.2 Q-3.05 -2.25 -4.6 -3.1 L-5.4 -3.65 -6.05 -4.3 -5.15 -5.55 Q-4.2 -6.5 -3.35 -6.65 L-3.05 -6.65 Q-2.3 -5.45 -0.15 -5.45 L0.4 -5.45 0.25 -4.0 0.45 -2.7 0.55 -2.6 0.75 -2.2 Q3.5 -2.4 5.6 -3.4 L6.5 -2.25 7.25 -1.75 M-11.25 -7.65 L-11.35 -10.05 Q-11.2 -13.8 -9.35 -16.4 L-8.75 -16.1 Q-7.55 -15.35 -6.65 -14.3 L-6.05 -13.4 Q-7.35 -11.55 -7.35 -9.0 L-7.3 -7.85 -9.15 -8.15 -10.65 -8.0 -11.25 -7.65" fill="#bb0000" fill-rule="evenodd" stroke="none"/>
    <path d="M-0.15 0.9 L0.45 24.0 Q-0.3 25.3 -1.25 24.4 L-0.95 0.95 -0.15 0.9" fill="url(#gradient0)" fill-rule="evenodd" stroke="none"/>
    <path d="M3.35 -15.9 L4.8 -15.1 Q6.45 -13.95 6.75 -11.95 L6.8 -11.1 6.8 -11.0 6.8 -10.45 6.7 -9.85 6.45 -9.7 4.7 -9.5 3.5 -9.55 1.95 -10.35 1.95 -10.6 Q1.95 -11.4 0.95 -12.05 L0.85 -12.15 1.65 -13.45 2.1 -14.9 1.7 -15.95 1.5 -16.4 3.35 -15.9" fill="url(#gradient1)" fill-rule="evenodd" stroke="none"/>
    <path d="M1.95 -10.35 L3.5 -9.55 4.7 -9.5 6.45 -9.7 6.7 -9.85 Q6.35 -8.15 4.85 -7.0 L4.3 -6.65 Q2.9 -5.8 1.3 -5.5 L0.85 -6.1 0.7 -6.4 Q0.55 -6.8 0.55 -8.0 0.55 -8.8 0.95 -9.3 L1.3 -9.45 1.45 -9.55 Q1.9 -9.85 1.95 -10.35" fill="url(#gradient2)" fill-rule="evenodd" stroke="none"/>
    <path d="M-2.45 -11.85 Q-1.8 -12.55 -0.55 -12.55 L0.85 -12.15 0.95 -12.05 Q1.95 -11.4 1.95 -10.6 L1.95 -10.35 Q1.9 -9.85 1.45 -9.55 L1.3 -9.45 0.95 -9.3 0.15 -9.3 0.1 -9.5 Q-0.9 -11.55 -2.45 -11.85" fill="url(#gradient3)" fill-rule="evenodd" stroke="none"/>
    <path d="M-2.95 -11.25 L-2.45 -11.85 Q-0.9 -11.55 0.1 -9.5 L0.15 -9.3 0.95 -9.3 Q0.55 -8.8 0.55 -8.0 0.55 -6.8 0.7 -6.4 L0.85 -6.1 1.3 -5.5 0.4 -5.45 -0.15 -5.45 Q-2.3 -5.45 -3.05 -6.65 -3.55 -7.3 -3.55 -8.35 -3.55 -10.2 -2.95 -11.25" fill="url(#gradient4)" fill-rule="evenodd" stroke="none"/>
    <path d="M-9.35 -16.4 L-8.1 -17.8 Q-5.65 -20.15 -2.2 -20.75 L-1.8 -19.75 Q-1.6 -19.05 -1.35 -16.3 -3.7 -15.9 -5.25 -14.3 L-5.35 -14.3 -6.05 -13.4 -6.65 -14.3 Q-7.55 -15.35 -8.75 -16.1 L-9.35 -16.4" fill="url(#gradient5)" fill-rule="evenodd" stroke="none"/>
    <path d="M-11.25 -7.65 L-11.35 -10.05 Q-11.2 -13.8 -9.35 -16.4 L-8.75 -16.1 Q-7.55 -15.35 -6.65 -14.3 L-6.05 -13.4 Q-7.35 -11.55 -7.35 -9.0 L-7.3 -7.85 -9.15 -8.15 -10.65 -8.0 -11.25 -7.65" fill="url(#gradient6)" fill-rule="evenodd" stroke="none"/>
    <path d="M-5.65 0.05 Q-7.15 -0.65 -8.3 -1.85 -10.8 -4.35 -11.25 -7.65 L-10.65 -8.0 -9.15 -8.15 -7.3 -7.85 Q-7.05 -5.6 -6.05 -4.3 L-5.4 -3.65 -4.6 -3.1 Q-5.55 -2.5 -5.7 -1.5 L-5.65 0.05" fill="url(#gradient7)" fill-rule="evenodd" stroke="none"/>
    <path d="M1.25 0.75 L0.05 0.9 -0.15 0.9 -0.95 0.95 Q-3.55 1.1 -5.65 0.05 L-5.7 -1.5 Q-5.55 -2.5 -4.6 -3.1 -3.05 -2.25 -0.25 -2.2 L0.3 -2.2 0.15 -1.55 Q0.15 -0.65 0.85 0.25 L1.25 0.75" fill="url(#gradient8)" fill-rule="evenodd" stroke="none"/>
    <path d="M7.25 -1.75 Q4.85 0.05 1.25 0.75 L0.85 0.25 Q0.15 -0.65 0.15 -1.55 L0.3 -2.2 0.75 -2.2 Q3.5 -2.4 5.6 -3.4 L6.5 -2.25 7.25 -1.75" fill="url(#gradient9)" fill-rule="evenodd" stroke="none"/>
    <path d="M-1.35 -16.3 L0.3 -16.45 1.25 -16.4 1.5 -16.4 1.7 -15.95 2.1 -14.9 1.65 -13.45 0.85 -12.15 -0.55 -12.55 Q-1.8 -12.55 -2.45 -11.85 L-2.95 -11.25 Q-3.5 -12.95 -4.5 -13.8 L-5.25 -14.3 Q-3.7 -15.9 -1.35 -16.3" fill="url(#gradient10)" fill-rule="evenodd" stroke="none"/>
    <path d="M4.4 -20.45 L4.6 -19.9 4.6 -19.15 4.3 -17.7 3.35 -15.9 1.5 -16.4 1.25 -16.4 0.3 -16.45 -1.35 -16.3 Q-1.6 -19.05 -1.8 -19.75 L-2.2 -20.75 0.25 -21.0 4.4 -20.45" fill="url(#gradient11)" fill-rule="evenodd" stroke="none"/>
    <path d="M4.4 -20.45 L4.65 -20.4 Q6.35 -19.8 7.45 -18.65 L10.0 -15.85 Q11.3 -14.25 11.2 -12.0 L11.1 -11.7 10.6 -11.5 9.75 -11.2 6.75 -11.95 Q6.45 -13.95 4.8 -15.1 L3.35 -15.9 4.3 -17.7 4.6 -19.15 4.6 -19.9 4.4 -20.45" fill="url(#gradient12)" fill-rule="evenodd" stroke="none"/>
    <path d="M6.75 -11.95 L9.75 -11.2 10.6 -11.5 11.1 -11.7 Q10.8 -9.3 9.8 -7.05 8.65 -5.35 6.95 -4.2 L5.95 -4.95 Q5.25 -5.65 4.85 -7.0 6.35 -8.15 6.7 -9.85 L6.8 -10.45 6.8 -11.0 6.8 -11.1 6.75 -11.95" fill="url(#gradient13)" fill-rule="evenodd" stroke="none"/>
    <path d="M9.8 -7.05 Q10.05 -4.2 8.0 -2.3 L7.25 -1.75 6.5 -2.25 5.6 -3.4 5.85 -3.5 6.95 -4.2 Q8.65 -5.35 9.8 -7.05" fill="url(#gradient14)" fill-rule="evenodd" stroke="none"/>
    <path d="M4.85 -7.0 Q5.25 -5.65 5.95 -4.95 L6.95 -4.2 5.85 -3.5 5.6 -3.4 Q3.5 -2.4 0.75 -2.2 L0.55 -2.6 0.45 -2.7 0.25 -4.0 0.4 -5.45 1.3 -5.5 Q2.9 -5.8 4.3 -6.65 L4.85 -7.0" fill="url(#gradient15)" fill-rule="evenodd" stroke="none"/>
    <path d="M0.75 -2.2 L0.3 -2.2 -0.25 -2.2 Q-3.05 -2.25 -4.6 -3.1 L-5.4 -3.65 -6.05 -4.3 -5.15 -5.55 Q-4.2 -6.5 -3.35 -6.65 L-3.05 -6.65 Q-2.3 -5.45 -0.15 -5.45 L0.4 -5.45 0.25 -4.0 0.45 -2.7 0.55 -2.6 0.75 -2.2" fill="url(#gradient16)" fill-rule="evenodd" stroke="none"/>
    <path d="M-5.25 -14.3 L-4.5 -13.8 Q-3.5 -12.95 -2.95 -11.25 -3.55 -10.2 -3.55 -8.35 -3.55 -7.3 -3.05 -6.65 L-3.35 -6.65 Q-4.2 -6.5 -5.15 -5.55 L-6.05 -4.3 Q-7.05 -5.6 -7.3 -7.85 L-7.35 -9.0 Q-7.35 -11.55 -6.05 -13.4 L-5.35 -14.3 -5.25 -14.3" fill="url(#gradient17)" fill-rule="evenodd" stroke="none"/>
    <path d="M0.55 -20.35 Q4.85 -20.35 7.3 -17.95 9.0 -16.25 9.0 -14.95 L8.9 -14.6 Q8.4 -15.0 7.85 -15.95 L6.65 -17.45 4.7 -18.75 Q3.0 -19.6 -0.15 -19.6 L-2.05 -19.45 Q-2.65 -19.45 -2.65 -19.75 L-1.85 -20.1 0.55 -20.35" fill="url(#gradient18)" fill-rule="evenodd" stroke="none"/>
    <path d="M0.35 -16.0 Q4.2 -16.0 5.75 -13.65 6.65 -12.25 6.65 -10.45 L6.4 -9.5 Q6.45 -10.4 5.2 -13.05 3.8 -15.35 -0.9 -15.55 L-0.95 -15.8 0.35 -16.0" fill="url(#gradient19)" fill-rule="evenodd" stroke="none"/>
    <path d="M1.5 -10.6 Q1.5 -10.2 1.2 -10.2 L1.15 -10.35 Q1.15 -10.0 0.85 -10.0 0.45 -10.0 0.35 -10.7 L0.35 -10.8 0.35 -10.9 -0.25 -11.55 -0.3 -11.6 -0.3 -11.85 1.05 -11.55 1.5 -10.6" fill="url(#gradient20)" fill-rule="evenodd" stroke="none"/>
    <path d="M1.35 -9.2 L1.45 -9.1 Q1.2 -8.7 0.7 -8.7 0.0 -8.7 -0.45 -9.3 L-0.45 -9.6 0.25 -9.45 1.35 -9.2" fill="url(#gradient21)" fill-rule="evenodd" stroke="none"/>
    <path d="M-3.9 -7.85 L-3.7 -7.55 Q-3.7 -6.95 -2.8 -6.05 -1.75 -5.0 -0.55 -5.0 L1.15 -5.0 2.1 -5.2 2.85 -4.95 Q2.6 -4.65 1.2 -4.4 L-0.65 -4.4 Q-2.45 -4.7 -3.35 -5.75 -4.1 -6.5 -4.1 -7.55 L-3.9 -7.85" fill="url(#gradient22)" fill-rule="evenodd" stroke="none"/>
    <path d="M1.05 -1.9 L3.8 -2.25 5.15 -2.7 5.35 -2.45 Q5.35 -2.0 4.35 -1.65 L1.05 -1.2 Q-6.25 -1.2 -8.15 -5.9 -8.05 -5.9 -5.85 -3.9 -3.7 -1.9 1.05 -1.9" fill="url(#gradient23)" fill-rule="evenodd" stroke="none"/>
  </g>
  <defs>
    <linearGradient gradientTransform="matrix(-5.0E-4, -0.0247, 0.0011, 0.0, -0.35, 11.6)" gradientUnits="userSpaceOnUse" id="gradient0" spreadMethod="pad" x1="-819.2" x2="819.2">
      <stop offset="0.5647058823529412" stop-color="#dedede"/>
      <stop offset="1.0" stop-color="#999999"/>
    </linearGradient>
    <linearGradient gradientTransform="matrix(0.0022, -0.0019, 0.0033, 0.0038, 4.6, -13.55)" gradientUnits="userSpaceOnUse" id="gradient1" spreadMethod="pad" x1="-819.2" x2="819.2">
      <stop offset="0.0" stop-color="#000000" stop-opacity="0.0"/>
      <stop offset="1.0" stop-color="#000000" stop-opacity="0.49019608"/>
    </linearGradient>
    <linearGradient gradientTransform="matrix(0.0011, 0.0027, -0.0038, 0.0017, 4.2, -7.05)" gradientUnits="userSpaceOnUse" id="gradient2" spreadMethod="pad" x1="-819.2" x2="819.2">
      <stop offset="0.0" stop-color="#000000" stop-opacity="0.0"/>
      <stop offset="1.0" stop-color="#000000" stop-opacity="0.49019608"/>
    </linearGradient>
    <linearGradient gradientTransform="matrix(-8.0E-4, -0.0014, 0.0018, -0.001, -0.25, -11.35)" gradientUnits="userSpaceOnUse" id="gradient3" spreadMethod="pad" x1="-819.2" x2="819.2">
      <stop offset="0.0" stop-color="#000000" stop-opacity="0.0"/>
      <stop offset="1.0" stop-color="#000000" stop-opacity="0.49019608"/>
    </linearGradient>
    <linearGradient gradientTransform="matrix(-0.0024, 2.0E-4, -3.0E-4, -0.004, -2.4, -8.55)" gradientUnits="userSpaceOnUse" id="gradient4" spreadMethod="pad" x1="-819.2" x2="819.2">
      <stop offset="0.0" stop-color="#000000" stop-opacity="0.0"/>
      <stop offset="1.0" stop-color="#000000" stop-opacity="0.49019608"/>
    </linearGradient>
    <linearGradient gradientTransform="matrix(-0.0015, -0.0015, 0.0036, -0.0034, -5.55, -18.45)" gradientUnits="userSpaceOnUse" id="gradient5" spreadMethod="pad" x1="-819.2" x2="819.2">
      <stop offset="0.6470588235294118" stop-color="#000000" stop-opacity="0.0"/>
      <stop offset="1.0" stop-color="#000000" stop-opacity="0.49019608"/>
    </linearGradient>
    <linearGradient gradientTransform="matrix(-0.0022, -5.0E-4, 0.0011, -0.0053, -9.75, -11.9)" gradientUnits="userSpaceOnUse" id="gradient6" spreadMethod="pad" x1="-819.2" x2="819.2">
      <stop offset="0.615686274509804" stop-color="#000000" stop-opacity="0.0"/>
      <stop offset="1.0" stop-color="#000000" stop-opacity="0.49019608"/>
    </linearGradient>
    <linearGradient gradientTransform="matrix(-0.0026, 0.0015, -0.0029, -0.005, -9.2, -3.4)" gradientUnits="userSpaceOnUse" id="gradient7" spreadMethod="pad" x1="-819.2" x2="819.2">
      <stop offset="0.5764705882352941" stop-color="#000000" stop-opacity="0.0"/>
      <stop offset="1.0" stop-color="#000000" stop-opacity="0.49019608"/>
    </linearGradient>
    <linearGradient gradientTransform="matrix(-7.0E-4, 0.0024, -0.0043, -0.0013, -2.5, 0.55)" gradientUnits="userSpaceOnUse" id="gradient8" spreadMethod="pad" x1="-819.2" x2="819.2">
      <stop offset="0.5843137254901961" stop-color="#000000" stop-opacity="0.0"/>
      <stop offset="1.0" stop-color="#000000" stop-opacity="0.49019608"/>
    </linearGradient>
    <linearGradient gradientTransform="matrix(3.0E-4, 0.0011, -0.0041, 0.0011, 3.75, -1.3)" gradientUnits="userSpaceOnUse" id="gradient9" spreadMethod="pad" x1="-819.2" x2="819.2">
      <stop offset="0.611764705882353" stop-color="#000000" stop-opacity="0.0"/>
      <stop offset="1.0" stop-color="#000000" stop-opacity="0.49019608"/>
    </linearGradient>
    <linearGradient gradientTransform="matrix(-7.0E-4, -0.0023, 0.0042, -0.0013, -1.85, -15.4)" gradientUnits="userSpaceOnUse" id="gradient10" spreadMethod="pad" x1="-819.2" x2="819.2">
      <stop offset="0.5294117647058824" stop-color="#000000" stop-opacity="0.0"/>
      <stop offset="1.0" stop-color="#000000" stop-opacity="0.49019608"/>
    </linearGradient>
    <linearGradient gradientTransform="matrix(7.0E-4, -0.0029, 0.0042, 0.001, 1.2, -19.95)" gradientUnits="userSpaceOnUse" id="gradient11" spreadMethod="pad" x1="-819.2" x2="819.2">
      <stop offset="0.611764705882353" stop-color="#000000" stop-opacity="0.0"/>
      <stop offset="1.0" stop-color="#000000" stop-opacity="0.49019608"/>
    </linearGradient>
    <linearGradient gradientTransform="matrix(0.0018, -0.0023, 0.0052, 0.0039, 8.6, -17.15)" gradientUnits="userSpaceOnUse" id="gradient12" spreadMethod="pad" x1="-819.2" x2="819.2">
      <stop offset="0.0" stop-color="#000000" stop-opacity="0.0"/>
      <stop offset="0.5176470588235295" stop-color="#000000" stop-opacity="0.007843138"/>
    </linearGradient>
    <linearGradient gradientTransform="matrix(0.0022, 6.0E-4, -0.0013, 0.0049, 9.25, -7.95)" gradientUnits="userSpaceOnUse" id="gradient13" spreadMethod="pad" x1="-819.2" x2="819.2">
      <stop offset="0.5882352941176471" stop-color="#000000" stop-opacity="0.0"/>
      <stop offset="1.0" stop-color="#000000" stop-opacity="0.49019608"/>
    </linearGradient>
    <linearGradient gradientTransform="matrix(0.001, 4.0E-4, -0.0015, 0.0033, 8.8, -4.3)" gradientUnits="userSpaceOnUse" id="gradient14" spreadMethod="pad" x1="-819.2" x2="819.2">
      <stop offset="0.396078431372549" stop-color="#000000" stop-opacity="0.0"/>
      <stop offset="1.0" stop-color="#000000" stop-opacity="0.49019608"/>
    </linearGradient>
    <linearGradient gradientTransform="matrix(7.0E-4, 0.0021, -0.0038, 0.0012, 3.65, -3.65)" gradientUnits="userSpaceOnUse" id="gradient15" spreadMethod="pad" x1="-819.2" x2="819.2">
      <stop offset="0.611764705882353" stop-color="#000000" stop-opacity="0.0"/>
      <stop offset="1.0" stop-color="#000000" stop-opacity="0.49019608"/>
    </linearGradient>
    <linearGradient gradientTransform="matrix(-0.0016, 0.002, -0.0033, -0.0025, -2.8, -3.1)" gradientUnits="userSpaceOnUse" id="gradient16" spreadMethod="pad" x1="-819.2" x2="819.2">
      <stop offset="0.611764705882353" stop-color="#000000" stop-opacity="0.0"/>
      <stop offset="1.0" stop-color="#000000" stop-opacity="0.49019608"/>
    </linearGradient>
    <linearGradient gradientTransform="matrix(-0.0024, -1.0E-4, 3.0E-4, -0.0061, -6.6, -9.3)" gradientUnits="userSpaceOnUse" id="gradient17" spreadMethod="pad" x1="-819.2" x2="819.2">
      <stop offset="0.20392156862745098" stop-color="#000000" stop-opacity="0.0"/>
      <stop offset="1.0" stop-color="#000000" stop-opacity="0.49019608"/>
    </linearGradient>
    <radialGradient cx="0" cy="0" gradientTransform="matrix(0.0117, 0.0, 0.0, 0.0117, 1.5, -13.1)" gradientUnits="userSpaceOnUse" id="gradient18" r="819.2" spreadMethod="pad">
      <stop offset="0.6666666666666666" stop-color="#ffffff" stop-opacity="0.12941177"/>
      <stop offset="1.0" stop-color="#ffffff"/>
    </radialGradient>
    <radialGradient cx="0" cy="0" gradientTransform="matrix(0.0074, 0.0, 0.0, 0.0074, 1.25, -11.2)" gradientUnits="userSpaceOnUse" id="gradient19" r="819.2" spreadMethod="pad">
      <stop offset="0.6666666666666666" stop-color="#ffffff" stop-opacity="0.12941177"/>
      <stop offset="1.0" stop-color="#ffffff"/>
    </radialGradient>
    <radialGradient cx="0" cy="0" gradientTransform="matrix(0.0019, 0.0, 0.0, 0.0019, 0.25, -10.35)" gradientUnits="userSpaceOnUse" id="gradient20" r="819.2" spreadMethod="pad">
      <stop offset="0.6666666666666666" stop-color="#ffffff" stop-opacity="0.12941177"/>
      <stop offset="1.0" stop-color="#ffffff"/>
    </radialGradient>
    <radialGradient cx="0" cy="0" gradientTransform="matrix(0.0015, 0.0, 0.0, 0.0015, 0.65, -9.8)" gradientUnits="userSpaceOnUse" id="gradient21" r="819.2" spreadMethod="pad">
      <stop offset="0.5686274509803921" stop-color="#ffffff" stop-opacity="0.6901961"/>
      <stop offset="0.9176470588235294" stop-color="#ffffff" stop-opacity="0.14117648"/>
    </radialGradient>
    <radialGradient cx="0" cy="0" gradientTransform="matrix(0.0074, 0.0, 0.0, 0.006, 0.1, -8.6)" gradientUnits="userSpaceOnUse" id="gradient22" r="819.2" spreadMethod="pad">
      <stop offset="0.5686274509803921" stop-color="#ffffff" stop-opacity="0.6901961"/>
      <stop offset="0.9176470588235294" stop-color="#ffffff" stop-opacity="0.14117648"/>
    </radialGradient>
    <radialGradient cx="0" cy="0" gradientTransform="matrix(0.0123, 0.0, 0.0, 0.0106, 0.05, -8.15)" gradientUnits="userSpaceOnUse" id="gradient23" r="819.2" spreadMethod="pad">
      <stop offset="0.5686274509803921" stop-color="#ffffff" stop-opacity="0.6901961"/>
      <stop offset="0.9176470588235294" stop-color="#ffffff" stop-opacity="0.14117648"/>
    </radialGradient>
  </defs>
</svg>
