<?xml version="1.0" encoding="UTF-8" standalone="no"?>
<svg xmlns:xlink="http://www.w3.org/1999/xlink" height="188.9px" width="504.35px" xmlns="http://www.w3.org/2000/svg">
  <g transform="matrix(1.0, 0.0, 0.0, 1.0, 68.8, 16.1)">
    <path d="M174.4 4.1 Q125.75 4.35 36.6 3.75 L-65.85 2.9 183.45 2.9 435.5 2.8 Q389.75 4.0 306.4 4.0 L174.4 4.1" fill="url(#gradient0)" fill-rule="evenodd" stroke="none"/>
    <path d="M168.35 25.55 Q120.3 26.0 32.35 24.45 -55.6 22.85 -68.8 22.0 L177.4 22.0 426.3 21.9 Q380.45 25.15 298.8 25.15 216.5 25.15 168.35 25.55" fill="url(#gradient1)" fill-rule="evenodd" stroke="none"/>
    <path d="M435.45 163.35 L424.0 171.9 -68.65 171.9 -68.65 -7.5 -57.25 -16.1 435.45 -16.1 435.45 163.35" fill="url(#gradient2)" fill-rule="evenodd" stroke="none"/>
    <path d="M435.5 162.7 L435.55 164.95 424.95 172.55 -68.7 172.8 -68.6 171.25 424.05 171.25 435.5 162.7" fill="url(#gradient3)" fill-rule="evenodd" stroke="none"/>
    <path d="M-68.6 102.7 L-68.6 8.05 435.1 8.05 435.1 102.7 -68.6 102.7" fill="#000000" fill-rule="evenodd" stroke="none"/>
    <path d="M-68.6 155.7 L-68.6 9.35 435.1 9.35 435.1 155.7 -68.6 155.7" fill="url(#gradient4)" fill-rule="evenodd" stroke="none"/>
  </g>
  <defs>
    <radialGradient cx="0" cy="0" gradientTransform="matrix(0.309, 0.0, 0.0, 0.233, 184.9, 3.5)" gradientUnits="userSpaceOnUse" id="gradient0" r="819.2" spreadMethod="pad">
      <stop offset="0.0" stop-color="#ff0000"/>
      <stop offset="1.0" stop-color="#ff0000" stop-opacity="0.0"/>
    </radialGradient>
    <radialGradient cx="0" cy="0" gradientTransform="matrix(0.3052, 0.0, 0.0, 0.6546, 178.65, 23.8)" gradientUnits="userSpaceOnUse" id="gradient1" r="819.2" spreadMethod="pad">
      <stop offset="0.0" stop-color="#ff0000"/>
      <stop offset="1.0" stop-color="#ff0000" stop-opacity="0.0"/>
    </radialGradient>
    <linearGradient gradientTransform="matrix(0.0, 0.3252, 0.4313, 0.0, 194.45, 84.65)" gradientUnits="userSpaceOnUse" id="gradient2" spreadMethod="pad" x1="-819.2" x2="819.2">
      <stop offset="0.0" stop-color="#cc0000"/>
      <stop offset="0.1843137254901961" stop-color="#660000"/>
      <stop offset="0.6039215686274509" stop-color="#000000"/>
      <stop offset="0.8196078431372549" stop-color="#000000"/>
    </linearGradient>
    <radialGradient cx="0" cy="0" gradientTransform="matrix(0.2176, 0.0, 0.0, -0.1641, 183.35, 167.35)" gradientUnits="userSpaceOnUse" id="gradient3" r="819.2" spreadMethod="pad">
      <stop offset="0.1607843137254902" stop-color="#cc0000"/>
      <stop offset="1.0" stop-color="#660000"/>
    </radialGradient>
    <linearGradient gradientTransform="matrix(0.0, 0.0936, 0.1326, 0.0, 182.5, 52.75)" gradientUnits="userSpaceOnUse" id="gradient4" spreadMethod="pad" x1="-819.2" x2="819.2">
      <stop offset="0.0" stop-color="#330000"/>
      <stop offset="1.0" stop-color="#000000"/>
    </linearGradient>
  </defs>
</svg>
