<?xml version="1.0" encoding="UTF-8" standalone="no"?>
<svg xmlns:xlink="http://www.w3.org/1999/xlink" height="16.0px" width="14.65px" xmlns="http://www.w3.org/2000/svg">
  <g transform="matrix(1.0, 0.0, 0.0, 1.0, -64.0, -19.0)">
    <path d="M78.65 27.0 Q78.65 30.3 76.55 32.65 74.4 35.0 71.35 35.0 68.35 35.0 66.15 32.65 64.0 30.3 64.0 27.0 64.0 23.65 66.15 21.3 68.35 19.0 71.35 19.0 74.4 19.0 76.55 21.3 78.65 23.65 78.65 27.0" fill="#ffffff" fill-rule="evenodd" stroke="none"/>
    <path d="M72.8 21.15 L72.8 29.45 69.9 29.45 69.9 21.15 72.8 21.15 M72.25 30.7 L72.9 30.9 73.1 31.3 73.3 31.95 73.1 32.55 72.9 33.0 72.25 33.15 71.3 33.2 70.45 33.15 69.9 33.0 69.55 32.55 69.5 31.95 69.55 31.3 Q69.65 31.05 69.9 30.9 L70.45 30.7 71.3 30.7 72.25 30.7" fill="#000000" fill-rule="evenodd" stroke="none"/>
  </g>
</svg>
