<?xml version="1.0" encoding="UTF-8" standalone="no"?>
<svg xmlns:xlink="http://www.w3.org/1999/xlink" height="25.1px" width="228.15px" xmlns="http://www.w3.org/2000/svg">
  <g transform="matrix(1.0, 0.0, 0.0, 1.0, -6.45, -2.35)">
    <path d="M209.0 15.9 L209.9 16.65 210.2 17.05 209.5 18.3 208.5 19.35 Q208.05 19.35 206.5 17.95 L205.1 16.5 205.65 16.1 206.75 15.35 207.2 14.6 207.5 13.95 208.95 14.0 Q209.3 15.1 209.0 15.9 M233.85 27.25 L232.7 27.45 Q231.95 27.45 231.95 26.75 231.95 26.05 233.3 25.8 234.6 25.55 234.6 26.55 234.6 27.0 233.85 27.25 M193.15 5.95 L193.2 6.75 193.0 7.75 192.75 8.6 Q192.75 9.25 194.25 10.1 195.75 10.95 195.75 11.25 195.75 12.5 195.55 12.75 195.0 13.65 192.5 13.65 192.3 13.65 191.65 14.5 L190.85 15.3 Q189.9 15.3 189.65 14.55 L189.65 13.75 189.95 12.3 Q189.6 12.15 189.6 11.7 L189.6 11.4 189.95 11.4 188.85 10.1 Q188.65 10.1 188.5 10.25 L188.15 10.4 186.15 10.05 Q186.0 9.95 186.0 9.6 186.0 9.1 188.25 7.3 190.0 5.95 191.3 5.15 L192.45 5.15 193.15 5.95 M183.8 18.3 L183.5 17.45 Q183.5 16.7 183.7 16.45 L184.85 15.15 Q185.55 15.15 186.25 16.0 L186.9 17.0 186.65 17.5 Q186.3 17.85 185.8 17.85 185.35 17.85 185.15 17.55 L184.6 18.2 183.8 18.3 M191.15 22.15 Q191.15 21.6 191.55 21.2 192.05 20.65 192.8 21.0 193.85 21.55 193.95 22.55 L194.45 22.4 Q195.05 22.45 195.05 22.95 195.05 23.45 194.45 23.45 193.95 23.45 193.85 23.15 L193.55 23.55 Q193.15 23.9 192.65 23.9 192.1 23.9 191.55 23.0 L191.15 22.15 M198.6 22.45 L197.85 22.8 Q196.85 22.8 196.85 21.8 196.85 20.8 197.9 20.8 198.9 20.8 198.9 21.8 L198.6 22.45 M171.25 11.85 L169.7 11.55 169.65 11.15 Q169.65 10.25 171.1 9.8 172.5 9.3 172.5 10.4 L171.95 11.35 171.25 11.85 M167.85 13.8 L167.75 14.25 Q167.9 14.4 167.5 14.4 167.05 14.4 166.95 14.15 L166.95 13.85 167.0 13.65 167.4 13.2 167.85 13.8 M165.45 14.85 L165.75 15.3 165.65 15.6 165.05 15.75 164.7 15.75 164.7 15.5 164.9 15.1 Q165.05 14.9 165.45 14.85 M162.2 17.5 L161.55 18.0 Q160.15 19.15 159.75 20.1 L159.15 21.85 Q158.65 23.0 158.1 23.0 L156.95 22.7 155.1 22.4 Q154.95 22.5 154.95 22.15 154.95 21.85 155.25 21.2 L155.7 19.5 155.7 19.45 156.0 19.35 Q156.2 19.35 156.25 19.5 L156.45 19.65 Q157.65 19.65 157.95 19.25 L158.85 17.7 Q159.45 16.85 161.0 16.5 L161.5 16.4 161.7 16.4 Q162.05 16.1 162.65 15.8 164.1 15.0 164.1 16.8 164.1 17.7 163.55 17.7 163.15 17.7 162.75 17.15 L162.2 17.5 M160.2 17.7 L159.75 18.15 159.95 18.3 160.35 17.7 160.2 17.7 M12.75 5.3 L12.35 6.0 Q11.25 7.95 10.25 7.95 9.4 7.95 8.4 5.7 L7.3 4.85 Q6.45 4.3 6.45 3.85 6.45 2.5 9.9 2.35 13.35 2.15 13.35 3.6 L13.05 4.7 12.75 5.3" fill="#2f0f0f" fill-opacity="0.2509804" fill-rule="evenodd" stroke="none"/>
  </g>
</svg>
