<?xml version="1.0" encoding="UTF-8" standalone="no"?>
<svg xmlns:xlink="http://www.w3.org/1999/xlink" height="44.0px" width="834.2px" xmlns="http://www.w3.org/2000/svg">
  <g transform="matrix(1.0, 0.0, 0.0, 1.0, 0.5, 0.5)">
    <path d="M833.2 13.5 L0.0 13.5 0.0 0.0 833.2 0.0 833.2 13.5" fill="#3a3a3a" fill-rule="evenodd" stroke="none"/>
    <path d="M809.05 40.0 L596.1 40.0 566.1 11.0 809.05 11.0 809.05 40.0" fill="#3a3a3a" fill-rule="evenodd" stroke="none"/>
    <path d="M833.2 13.5 L809.05 13.5 809.05 43.0 551.1 43.0 514.7 13.5 0.0 13.5 0.0 0.0 833.2 0.0 833.2 13.5" fill="url(#gradient0)" fill-rule="evenodd" stroke="none"/>
    <path d="M833.2 13.5 L809.05 13.5 809.05 43.0 551.1 43.0 514.7 13.5 0.0 13.5 0.0 0.0 833.2 0.0 833.2 13.5 Z" fill="none" stroke="url(#gradient1)" stroke-linecap="butt" stroke-linejoin="miter" stroke-width="1.0"/>
    <path d="M647.9 36.55 L648.8 37.3 649.1 37.7 648.4 38.95 647.4 40.0 Q646.95 40.0 645.4 38.6 L644.0 37.15 644.55 36.75 645.65 36.0 646.1 35.25 646.4 34.6 647.85 34.65 Q648.2 35.75 647.9 36.55 M673.85 35.7 Q673.1 35.7 673.1 35.0 673.1 34.3 674.45 34.05 675.75 33.8 675.75 34.8 675.75 35.25 675.0 35.5 L673.85 35.7 M610.85 19.8 L610.8 19.4 Q610.8 18.5 612.25 18.05 613.65 17.55 613.65 18.65 L613.1 19.6 612.4 20.1 610.85 19.8 M608.1 22.1 L608.15 21.9 608.55 21.45 609.0 22.05 608.9 22.5 Q609.05 22.65 608.65 22.65 608.2 22.65 608.1 22.4 L608.1 22.1 M626.0 23.4 Q626.7 23.4 627.4 24.25 L628.05 25.25 627.8 25.75 Q627.45 26.1 626.95 26.1 626.5 26.1 626.3 25.8 L625.75 26.45 624.95 26.55 Q624.65 26.05 624.65 25.7 624.65 24.95 624.85 24.7 L626.0 23.4 M639.05 29.05 Q640.05 29.05 640.05 30.05 L639.75 30.7 639.0 31.05 Q638.0 31.05 638.0 30.05 638.0 29.05 639.05 29.05 M635.1 30.8 Q635.25 30.65 635.6 30.65 636.2 30.7 636.2 31.2 636.2 31.7 635.6 31.7 635.1 31.7 635.0 31.4 L634.7 31.8 633.8 32.15 Q633.25 32.15 632.7 31.25 L632.3 30.4 Q632.3 29.85 632.7 29.45 633.2 28.9 633.95 29.25 635.0 29.8 635.1 30.8 M606.9 23.55 L606.8 23.85 606.2 24.0 605.85 24.0 605.85 23.75 606.05 23.35 Q606.2 23.15 606.6 23.1 L606.9 23.55 M582.85 33.75 L582.65 34.75 582.4 35.6 Q582.4 36.25 583.9 37.1 L585.4 38.25 Q585.4 39.5 585.2 39.75 584.65 40.65 582.15 40.65 581.95 40.65 581.3 41.5 L580.5 42.3 Q579.55 42.3 579.3 41.55 L579.3 40.75 579.6 39.3 Q579.25 39.15 579.25 38.7 L579.25 38.4 579.6 38.4 578.5 37.1 Q578.3 37.1 578.15 37.25 L577.8 37.4 575.8 37.05 Q575.65 36.95 575.65 36.6 575.65 36.1 577.9 34.3 579.65 32.95 580.95 32.15 L582.1 32.15 582.8 32.95 582.85 33.75 M534.05 14.25 Q535.5 13.45 535.5 15.25 535.5 16.15 534.95 16.15 534.55 16.15 534.15 15.6 L533.6 15.95 532.95 16.45 Q531.55 17.6 531.15 18.55 L530.55 20.3 Q530.05 21.45 529.5 21.45 L528.35 21.15 526.5 20.85 Q526.35 20.95 526.35 20.6 526.35 20.3 526.65 19.65 L527.1 17.95 527.1 17.9 527.4 17.8 Q527.6 17.8 527.65 17.95 L527.85 18.1 Q529.05 18.1 529.35 17.7 L530.25 16.15 Q530.85 15.3 532.4 14.95 L532.9 14.85 533.1 14.85 534.05 14.25 M531.35 16.75 L531.75 16.15 531.6 16.15 531.15 16.6 531.35 16.75 M447.6 9.7 Q447.6 8.35 451.05 8.2 454.5 8.0 454.5 9.45 L454.2 10.55 453.9 11.15 453.5 11.85 Q452.4 13.8 451.4 13.8 450.55 13.8 449.55 11.55 L448.45 10.7 Q447.6 10.15 447.6 9.7" fill="#2f0f0f" fill-opacity="0.2509804" fill-rule="evenodd" stroke="none"/>
    <path d="M807.95 36.5 L553.45 36.5 528.45 14.0 807.95 14.0 807.95 36.5" fill="url(#gradient2)" fill-rule="evenodd" stroke="none"/>
  </g>
  <defs>
    <linearGradient gradientTransform="matrix(0.529, -0.0699, 0.0052, 0.0396, 416.4, 218.75)" gradientUnits="userSpaceOnUse" id="gradient0" spreadMethod="pad" x1="-819.2" x2="819.2">
      <stop offset="0.0" stop-color="#252525"/>
      <stop offset="1.0" stop-color="#313131"/>
    </linearGradient>
    <linearGradient gradientTransform="matrix(0.5092, 0.0, 0.0, 0.025, 416.6, 20.0)" gradientUnits="userSpaceOnUse" id="gradient1" spreadMethod="pad" x1="-819.2" x2="819.2">
      <stop offset="0.0" stop-color="#1b1b1b"/>
      <stop offset="1.0" stop-color="#242424"/>
    </linearGradient>
    <linearGradient gradientTransform="matrix(0.2051, 0.0, 0.0, 0.0137, 629.95, 25.25)" gradientUnits="userSpaceOnUse" id="gradient2" spreadMethod="pad" x1="-819.2" x2="819.2">
      <stop offset="0.0" stop-color="#000000" stop-opacity="0.0"/>
      <stop offset="1.0" stop-color="#000000"/>
    </linearGradient>
  </defs>
</svg>
