<?xml version="1.0" encoding="UTF-8" standalone="no"?>
<svg xmlns:xlink="http://www.w3.org/1999/xlink" height="346.95px" width="796.95px" xmlns="http://www.w3.org/2000/svg">
  <g transform="matrix(1.0, 0.0, 0.0, 1.0, 28.8, 4.4)">
    <path d="M768.15 -4.4 L768.15 342.55 -28.8 342.55 -28.8 -4.4 768.15 -4.4" fill="#000000" fill-rule="evenodd" stroke="none"/>
    <path d="M740.3 -2.9 L-18.35 -2.9 -18.35 -3.1 740.3 -3.1 740.3 -2.9 M740.3 27.3 L-18.35 27.3 -18.35 23.65 740.3 23.65 740.3 27.3 M740.3 34.55 L-18.35 34.55 -18.35 30.9 740.3 30.9 740.3 34.55 M740.3 42.4 L-18.35 42.4 -18.35 38.75 740.3 38.75 740.3 42.4 M740.3 20.05 L-18.35 20.05 -18.35 16.4 740.3 16.4 740.3 20.05 M740.3 12.15 L-18.35 12.15 -18.35 8.5 740.3 8.5 740.3 12.15 M740.3 4.9 L-18.35 4.9 -18.35 1.25 740.3 1.25 740.3 4.9 M740.3 57.9 L-18.35 57.9 -18.35 54.25 740.3 54.25 740.3 57.9 M740.3 73.0 L-18.35 73.0 -18.35 69.35 740.3 69.35 740.3 73.0 M740.3 88.2 L-18.35 88.2 -18.35 84.55 740.3 84.55 740.3 88.2 M740.3 96.45 L-18.35 96.45 -18.35 92.8 740.3 92.8 740.3 96.45 M740.3 80.25 L-18.35 80.25 -18.35 76.6 740.3 76.6 740.3 80.25 M740.3 65.8 L-18.35 65.8 -18.35 62.15 740.3 62.15 740.3 65.8 M740.3 50.65 L-18.35 50.65 -18.35 47.0 740.3 47.0 740.3 50.65 M740.3 142.15 L-18.35 142.15 -18.35 138.5 740.3 138.5 740.3 142.15 M740.3 133.95 L-18.35 133.95 -18.35 130.3 740.3 130.3 740.3 133.95 M740.3 126.1 L-18.35 126.1 -18.35 122.45 740.3 122.45 740.3 126.1 M740.3 118.8 L-18.35 118.8 -18.35 115.15 740.3 115.15 740.3 118.8 M740.3 111.55 L-18.35 111.55 -18.35 107.9 740.3 107.9 740.3 111.55 M740.3 103.7 L-18.35 103.7 -18.35 100.05 740.3 100.05 740.3 103.7 M740.3 157.35 L-18.35 157.35 -18.35 153.7 740.3 153.7 740.3 157.35 M740.3 171.8 L-18.35 171.8 -18.35 168.15 740.3 168.15 740.3 171.8 M740.3 195.25 L-18.35 195.25 -18.35 191.6 740.3 191.6 740.3 195.25 M740.3 179.7 L-18.35 179.7 -18.35 176.05 740.3 176.05 740.3 179.7 M740.3 188.0 L-18.35 188.0 -18.35 184.35 740.3 184.35 740.3 188.0 M740.3 164.55 L-18.35 164.55 -18.35 160.9 740.3 160.9 740.3 164.55 M740.3 149.4 L-18.35 149.4 -18.35 145.75 740.3 145.75 740.3 149.4 M740.3 240.3 L-18.35 240.3 -18.35 236.65 740.3 236.65 740.3 240.3 M740.3 225.1 L-18.35 225.1 -18.35 221.45 740.3 221.45 740.3 225.1 M740.3 232.4 L-18.35 232.4 -18.35 228.75 740.3 228.75 740.3 232.4 M740.3 217.6 L-18.35 217.6 -18.35 213.95 740.3 213.95 740.3 217.6 M740.3 210.35 L-18.35 210.35 -18.35 206.7 740.3 206.7 740.3 210.35 M740.3 203.1 L-18.35 203.1 -18.35 199.45 740.3 199.45 740.3 203.1 M740.3 270.9 L-18.35 270.9 -18.35 267.25 740.3 267.25 740.3 270.9 M740.3 286.05 L-18.35 286.05 -18.35 282.4 740.3 282.4 740.3 286.05 M740.3 293.25 L-18.35 293.25 -18.35 289.6 740.3 289.6 740.3 293.25 M740.3 278.15 L-18.35 278.15 -18.35 274.5 740.3 274.5 740.3 278.15 M740.3 262.65 L-18.35 262.65 -18.35 259.0 740.3 259.0 740.3 262.65 M740.3 254.75 L-18.35 254.75 -18.35 251.15 740.3 251.15 740.3 254.75 M740.3 247.5 L-18.35 247.5 -18.35 243.85 740.3 243.85 740.3 247.5 M740.3 323.9 L-18.35 323.9 -18.35 320.3 740.3 320.3 740.3 323.9 M740.3 331.8 L-18.35 331.8 -18.35 328.15 740.3 328.15 740.3 331.8 M740.3 339.05 L-18.35 339.05 -18.35 335.4 740.3 335.4 740.3 339.05 M740.3 308.45 L-18.35 308.45 -18.35 304.8 740.3 304.8 740.3 308.45 M740.3 316.65 L-18.35 316.65 -18.35 313.0 740.3 313.0 740.3 316.65 M740.3 300.5 L-18.35 300.5 -18.35 296.85 740.3 296.85 740.3 300.5" fill="url(#gradient0)" fill-rule="evenodd" stroke="none"/>
    <path d="M645.8 83.7 Q738.95 120.45 738.95 172.55 738.95 224.6 645.8 261.4 552.7 298.15 420.95 298.15 289.25 298.15 196.05 261.4 102.95 224.6 102.95 172.55 102.95 120.45 196.05 83.7 289.25 46.9 420.95 46.9 552.7 46.9 645.8 83.7" fill="url(#gradient1)" fill-rule="evenodd" stroke="none"/>
  </g>
  <defs>
    <radialGradient cx="0" cy="0" gradientTransform="matrix(0.2968, 0.0, 0.0, 0.1969, 462.0, 188.0)" gradientUnits="userSpaceOnUse" id="gradient0" r="819.2" spreadMethod="pad">
      <stop offset="0.0" stop-color="#770000"/>
      <stop offset="1.0" stop-color="#550000" stop-opacity="0.07058824"/>
    </radialGradient>
    <radialGradient cx="0" cy="0" gradientTransform="matrix(0.002, -0.1524, 0.3512, 0.0047, 420.95, 172.55)" gradientUnits="userSpaceOnUse" id="gradient1" r="819.2" spreadMethod="pad">
      <stop offset="0.23137254901960785" stop-color="#c21414" stop-opacity="0.8"/>
      <stop offset="1.0" stop-color="#c21414" stop-opacity="0.011764706"/>
    </radialGradient>
  </defs>
</svg>
