<?xml version="1.0" encoding="UTF-8" standalone="no"?>
<svg xmlns:xlink="http://www.w3.org/1999/xlink" height="349.0px" width="803.5px" xmlns="http://www.w3.org/2000/svg">
  <g transform="matrix(1.0, 0.0, 0.0, 1.0, 31.2, 5.35)">
    <path d="M179.85 339.5 L-31.05 339.5 -31.05 233.0 152.45 233.0 179.85 261.8 179.85 339.5" fill="#000000" fill-rule="evenodd" stroke="none"/>
    <path d="M-30.65 343.15 L771.8 343.15" fill="none" stroke="url(#gradient0)" stroke-linecap="butt" stroke-linejoin="miter" stroke-width="1.0"/>
    <path d="M771.75 -4.85 L-30.7 -4.85" fill="none" stroke="url(#gradient1)" stroke-linecap="butt" stroke-linejoin="miter" stroke-width="1.0"/>
    <path d="M421.0 3.6 L390.8 34.6 -29.8 34.6 -29.8 3.6 421.0 3.6" fill="url(#gradient2)" fill-rule="evenodd" stroke="none"/>
    <path d="M-31.0 36.15 L-31.0 4.2 -8.95 4.2 -8.95 36.15 -31.0 36.15" fill="url(#gradient3)" fill-rule="evenodd" stroke="none"/>
    <path d="M40.7 22.7 L41.85 29.3 35.9 26.15 29.95 29.3 31.1 22.7 26.25 18.05 32.9 17.1 35.9 11.05 38.85 17.1 45.55 18.05 40.7 22.7" fill="#000000" fill-opacity="0.2" fill-rule="evenodd" stroke="none"/>
    <path d="M62.5 22.7 L63.65 29.3 57.7 26.15 51.75 29.3 52.9 22.7 48.05 18.05 54.7 17.1 57.7 11.05 60.65 17.1 67.35 18.05 62.5 22.7" fill="#000000" fill-opacity="0.2" fill-rule="evenodd" stroke="none"/>
    <path d="M84.35 22.7 L85.5 29.3 79.55 26.15 73.6 29.3 74.75 22.7 69.9 18.05 76.55 17.1 79.55 11.05 82.5 17.1 89.2 18.05 84.35 22.7" fill="#000000" fill-opacity="0.2" fill-rule="evenodd" stroke="none"/>
  </g>
  <defs>
    <linearGradient gradientTransform="matrix(-0.4904, -0.0047, 0.0, -6.0E-4, 370.55, 343.15)" gradientUnits="userSpaceOnUse" id="gradient0" spreadMethod="pad" x1="-819.2" x2="819.2">
      <stop offset="0.25882352941176473" stop-color="#8c0000"/>
      <stop offset="1.0" stop-color="#000000"/>
    </linearGradient>
    <linearGradient gradientTransform="matrix(0.4904, -0.0047, 0.0, -6.0E-4, 370.55, -4.85)" gradientUnits="userSpaceOnUse" id="gradient1" spreadMethod="pad" x1="-819.2" x2="819.2">
      <stop offset="0.25882352941176473" stop-color="#8c0000"/>
      <stop offset="1.0" stop-color="#000000"/>
    </linearGradient>
    <linearGradient gradientTransform="matrix(0.0, -0.0454, -0.0456, 0.0, 189.05, 34.75)" gradientUnits="userSpaceOnUse" id="gradient2" spreadMethod="pad" x1="-819.2" x2="819.2">
      <stop offset="0.0" stop-color="#ff0000"/>
      <stop offset="1.0" stop-color="#ff0000" stop-opacity="0.0"/>
    </linearGradient>
    <linearGradient gradientTransform="matrix(0.02, 0.0, 0.0, -0.0215, -25.9, 128.2)" gradientUnits="userSpaceOnUse" id="gradient3" spreadMethod="pad" x1="-819.2" x2="819.2">
      <stop offset="0.0" stop-color="#000000"/>
      <stop offset="0.9411764705882353" stop-color="#000000" stop-opacity="0.12156863"/>
      <stop offset="1.0" stop-color="#000000" stop-opacity="0.0"/>
    </linearGradient>
  </defs>
</svg>
