<?xml version="1.0" encoding="UTF-8" standalone="no"?>
<svg xmlns:xlink="http://www.w3.org/1999/xlink" height="21.9px" width="120.05px" xmlns="http://www.w3.org/2000/svg">
  <g transform="matrix(1.0, 0.0, 0.0, 1.0, 28.25, -0.5)">
    <path d="M91.8 19.35 L-28.25 19.35 -28.25 0.5 91.8 0.5 91.8 19.35" fill="url(#gradient0)" fill-rule="evenodd" stroke="none"/>
    <path d="M-18.4 3.4 L-4.5 3.4 -4.35 17.4 -18.4 17.4 -18.4 3.4" fill="url(#gradient1)" fill-rule="evenodd" stroke="none"/>
    <path d="M-18.4 3.4 L-4.5 3.4 -4.35 17.4 -18.4 17.4 -18.4 3.4 Z" fill="none" stroke="url(#gradient2)" stroke-linecap="butt" stroke-linejoin="miter" stroke-width="1.0"/>
    <path d="M-11.3 14.9 L-15.2 14.9 -12.55 8.9 -8.65 8.9 -11.3 14.9" fill="#ffffff" fill-rule="evenodd" stroke="none"/>
    <path d="M-8.3 7.9 L-12.2 7.9 -11.45 5.9 -7.5 5.9 -8.3 7.9" fill="#ffffff" fill-rule="evenodd" stroke="none"/>
  </g>
  <defs>
    <linearGradient gradientTransform="matrix(0.0733, 0.0, 0.0, 0.0115, 31.75, 9.9)" gradientUnits="userSpaceOnUse" id="gradient0" spreadMethod="pad" x1="-819.2" x2="819.2">
      <stop offset="0.0" stop-color="#0b8fef" stop-opacity="0.3019608"/>
      <stop offset="1.0" stop-color="#000000" stop-opacity="0.0"/>
    </linearGradient>
    <radialGradient cx="0" cy="0" gradientTransform="matrix(0.011, 0.0, 0.0, -0.0117, -11.55, 10.35)" gradientUnits="userSpaceOnUse" id="gradient1" r="819.2" spreadMethod="pad">
      <stop offset="0.0" stop-color="#00a6ff"/>
      <stop offset="1.0" stop-color="#170094"/>
    </radialGradient>
    <linearGradient gradientTransform="matrix(0.0, -0.0092, -0.0092, 0.0, -11.4, 10.4)" gradientUnits="userSpaceOnUse" id="gradient2" spreadMethod="pad" x1="-819.2" x2="819.2">
      <stop offset="0.0" stop-color="#cccccc"/>
      <stop offset="1.0" stop-color="#333333"/>
    </linearGradient>
  </defs>
</svg>
