<?xml version="1.0" encoding="UTF-8" standalone="no"?>
<svg xmlns:xlink="http://www.w3.org/1999/xlink" height="347.0px" width="347.0px" xmlns="http://www.w3.org/2000/svg">
  <g transform="matrix(1.0, 0.0, 0.0, 1.0, 0.0, 0.0)">
    <path d="M347.0 189.1 L174.0 174.1 347.0 159.1 347.0 189.1 M341.35 126.75 L174.2 173.85 330.75 98.7 341.35 126.75 M325.25 259.1 L173.8 174.2 337.6 231.75 325.25 259.1 M307.25 61.85 L174.25 173.6 286.0 40.6 307.25 61.85 M174.1 173.0 L159.1 0.0 189.1 0.0 174.1 173.0 M174.3 173.3 L231.8 9.4 259.2 21.75 174.3 173.3 M126.8 5.65 L173.95 172.8 98.75 16.25 126.8 5.65 M61.85 39.75 L173.6 172.7 40.65 60.95 61.85 39.75 M0.0 157.9 L173.0 172.9 0.0 187.9 0.0 157.9 M21.85 87.85 L173.35 172.7 9.5 115.15 21.85 87.85 M5.7 220.2 L172.85 173.1 16.3 248.25 5.7 220.2 M87.9 325.15 L172.8 173.7 115.3 337.5 87.9 325.15 M39.8 285.1 L172.75 173.45 61.05 306.35 39.8 285.1 M220.25 341.3 L173.15 174.15 248.3 330.7 220.25 341.3 M285.2 307.2 L173.45 174.25 306.4 286.0 285.2 307.2 M172.9 174.0 L187.9 347.0 157.9 347.0 172.9 174.0" fill="url(#gradient0)" fill-rule="evenodd" stroke="none"/>
  </g>
  <defs>
    <radialGradient cx="0" cy="0" gradientTransform="matrix(0.2061, 0.0, 0.0, 0.2061, 176.4, 172.75)" gradientUnits="userSpaceOnUse" id="gradient0" r="819.2" spreadMethod="pad">
      <stop offset="0.0" stop-color="#ffffff"/>
      <stop offset="1.0" stop-color="#ffffff" stop-opacity="0.0"/>
    </radialGradient>
  </defs>
</svg>
