<?xml version="1.0" encoding="UTF-8" standalone="no"?>
<svg xmlns:xlink="http://www.w3.org/1999/xlink" height="613.7px" width="857.95px" xmlns="http://www.w3.org/2000/svg">
  <g transform="matrix(1.0, 0.0, 0.0, 1.0, 295.75, 151.8)">
    <path d="M562.2 449.35 L-295.75 449.35 -295.75 -151.8 562.2 -151.8 562.2 449.35" fill="url(#gradient0)" fill-rule="evenodd" stroke="none"/>
    <path d="M533.65 457.95 L535.9 458.2 Q536.7 458.4 536.7 458.7 L535.9 459.25 533.65 459.45 -273.35 459.45 -275.4 459.25 Q-276.45 459.0 -276.45 458.7 -276.45 458.4 -275.4 458.2 L-273.35 457.95 533.65 457.95 M533.65 460.95 L535.9 461.2 Q536.7 461.4 536.7 461.7 L536.6 461.9 -276.3 461.9 -276.45 461.7 Q-276.45 461.4 -275.4 461.2 L-273.35 460.95 533.65 460.95 M535.9 453.25 L533.65 453.45 -273.35 453.45 -275.4 453.25 Q-276.45 453.0 -276.45 452.7 -276.45 452.4 -275.4 452.2 L-273.35 451.95 533.65 451.95 535.9 452.2 Q536.7 452.4 536.7 452.7 L535.9 453.25 M535.9 456.25 L533.65 456.45 -273.35 456.45 -275.4 456.25 Q-276.45 456.0 -276.45 455.7 -276.45 455.4 -275.4 455.2 L-273.35 454.95 533.65 454.95 535.9 455.2 Q536.7 455.4 536.7 455.7 L535.9 456.25 M533.65 448.95 L535.9 449.2 Q536.7 449.4 536.7 449.7 L535.9 450.25 533.65 450.45 -273.35 450.45 -275.4 450.25 Q-276.45 450.0 -276.45 449.7 -276.45 449.4 -275.4 449.2 L-273.35 448.95 533.65 448.95 M535.9 447.25 L533.65 447.45 -273.35 447.45 -275.4 447.25 Q-276.45 447.0 -276.45 446.7 -276.45 446.4 -275.4 446.2 L-273.35 445.95 533.65 445.95 535.9 446.2 Q536.7 446.4 536.7 446.7 L535.9 447.25 M533.65 442.95 L535.9 443.2 Q536.7 443.4 536.7 443.7 L535.9 444.25 533.65 444.45 -273.35 444.45 -275.4 444.25 Q-276.45 444.0 -276.45 443.7 -276.45 443.4 -275.4 443.2 L-273.35 442.95 533.65 442.95 M535.9 441.25 L533.65 441.45 -273.35 441.45 -275.4 441.25 Q-276.45 441.0 -276.45 440.7 -276.45 440.4 -275.4 440.2 L-273.35 439.95 533.65 439.95 535.9 440.2 Q536.7 440.4 536.7 440.7 L535.9 441.25 M533.65 436.95 L535.9 437.2 Q536.7 437.4 536.7 437.7 L535.9 438.25 533.65 438.45 -273.35 438.45 -275.4 438.25 Q-276.45 438.0 -276.45 437.7 -276.45 437.4 -275.4 437.2 L-273.35 436.95 533.65 436.95 M535.9 435.25 L533.65 435.45 -273.35 435.45 -275.4 435.25 Q-276.45 435.0 -276.45 434.7 -276.45 434.4 -275.4 434.2 L-273.35 433.95 533.65 433.95 535.9 434.2 Q536.7 434.4 536.7 434.7 L535.9 435.25 M535.9 429.25 L533.65 429.45 -273.35 429.45 -275.4 429.25 Q-276.45 429.0 -276.45 428.7 -276.45 428.4 -275.4 428.2 L-273.35 427.95 533.65 427.95 535.9 428.2 Q536.7 428.4 536.7 428.7 L535.9 429.25 M533.65 424.95 L535.9 425.2 Q536.7 425.4 536.7 425.7 L535.9 426.25 533.65 426.45 -273.35 426.45 -275.4 426.25 Q-276.45 426.0 -276.45 425.7 -276.45 425.4 -275.4 425.2 L-273.35 424.95 533.65 424.95 M535.9 423.25 L533.65 423.45 -273.35 423.45 -275.4 423.25 Q-276.45 423.0 -276.45 422.7 -276.45 422.4 -275.4 422.2 L-273.35 421.95 533.65 421.95 535.9 422.2 Q536.7 422.4 536.7 422.7 L535.9 423.25 M535.9 432.25 L533.65 432.45 -273.35 432.45 -275.4 432.25 Q-276.45 432.0 -276.45 431.7 -276.45 431.4 -275.4 431.2 L-273.35 430.95 533.65 430.95 535.9 431.2 Q536.7 431.4 536.7 431.7 L535.9 432.25 M535.9 417.25 L533.65 417.45 -273.35 417.45 -275.4 417.25 Q-276.45 417.0 -276.45 416.7 -276.45 416.4 -275.4 416.2 L-273.35 415.95 533.65 415.95 535.9 416.2 Q536.7 416.4 536.7 416.7 L535.9 417.25 M533.65 418.95 L535.9 419.2 Q536.7 419.4 536.7 419.7 L535.9 420.25 533.65 420.45 -273.35 420.45 -275.4 420.25 Q-276.45 420.0 -276.45 419.7 -276.45 419.4 -275.4 419.2 L-273.35 418.95 533.65 418.95 M533.65 412.95 L535.9 413.2 Q536.7 413.4 536.7 413.7 L535.9 414.25 533.65 414.45 -273.35 414.45 -275.4 414.25 Q-276.45 414.0 -276.45 413.7 -276.45 413.4 -275.4 413.2 L-273.35 412.95 533.65 412.95 M533.65 409.95 L535.9 410.2 Q536.7 410.4 536.7 410.7 L535.9 411.25 533.65 411.45 -273.35 411.45 -275.4 411.25 Q-276.45 411.0 -276.45 410.7 -276.45 410.4 -275.4 410.2 L-273.35 409.95 533.65 409.95 M533.65 406.95 L535.9 407.2 Q536.7 407.4 536.7 407.7 L535.9 408.25 533.65 408.45 -273.35 408.45 -275.4 408.25 Q-276.45 408.0 -276.45 407.7 -276.45 407.4 -275.4 407.2 L-273.35 406.95 533.65 406.95 M535.9 402.25 L533.65 402.45 -273.35 402.45 -275.4 402.25 Q-276.45 402.0 -276.45 401.7 -276.45 401.4 -275.4 401.2 L-273.35 400.95 533.65 400.95 535.9 401.2 Q536.7 401.4 536.7 401.7 L535.9 402.25 M535.9 405.25 L533.65 405.45 -273.35 405.45 -275.4 405.25 Q-276.45 405.0 -276.45 404.7 -276.45 404.4 -275.4 404.2 L-273.35 403.95 533.65 403.95 535.9 404.2 Q536.7 404.4 536.7 404.7 L535.9 405.25 M533.65 397.95 L535.9 398.2 Q536.7 398.4 536.7 398.7 L535.9 399.25 533.65 399.45 -273.35 399.45 -275.4 399.25 Q-276.45 399.0 -276.45 398.7 -276.45 398.4 -275.4 398.2 L-273.35 397.95 533.65 397.95 M533.65 394.95 L535.9 395.2 Q536.7 395.4 536.7 395.7 L535.9 396.25 533.65 396.45 -273.35 396.45 -275.4 396.25 Q-276.45 396.0 -276.45 395.7 -276.45 395.4 -275.4 395.2 L-273.35 394.95 533.65 394.95 M533.65 391.95 L535.9 392.2 Q536.7 392.4 536.7 392.7 L535.9 393.25 533.65 393.45 -273.35 393.45 -275.4 393.25 Q-276.45 393.0 -276.45 392.7 -276.45 392.4 -275.4 392.2 L-273.35 391.95 533.65 391.95 M533.65 388.95 L535.9 389.2 Q536.7 389.4 536.7 389.7 L535.9 390.25 533.65 390.45 -273.35 390.45 -275.4 390.25 Q-276.45 390.0 -276.45 389.7 -276.45 389.4 -275.4 389.2 L-273.35 388.95 533.65 388.95 M535.9 387.25 L533.65 387.45 -273.35 387.45 -275.4 387.25 Q-276.45 387.0 -276.45 386.7 -276.45 386.4 -275.4 386.2 L-273.35 385.95 533.65 385.95 535.9 386.2 Q536.7 386.4 536.7 386.7 L535.9 387.25 M533.65 382.95 L535.9 383.2 Q536.7 383.4 536.7 383.7 L535.9 384.25 533.65 384.45 -273.35 384.45 -275.4 384.25 Q-276.45 384.0 -276.45 383.7 -276.45 383.4 -275.4 383.2 L-273.35 382.95 533.65 382.95 M535.9 381.25 L533.65 381.45 -273.35 381.45 -275.4 381.25 Q-276.45 381.0 -276.45 380.7 -276.45 380.4 -275.4 380.2 L-273.35 379.95 533.65 379.95 535.9 380.2 Q536.7 380.4 536.7 380.7 L535.9 381.25 M533.65 376.95 L535.9 377.2 Q536.7 377.4 536.7 377.7 L535.9 378.25 533.65 378.45 -273.35 378.45 -275.4 378.25 Q-276.45 378.0 -276.45 377.7 -276.45 377.4 -275.4 377.2 L-273.35 376.95 533.65 376.95 M535.9 375.25 L533.65 375.45 -273.35 375.45 -275.4 375.25 Q-276.45 375.0 -276.45 374.7 -276.45 374.4 -275.4 374.2 L-273.35 373.95 533.65 373.95 535.9 374.2 Q536.7 374.4 536.7 374.7 L535.9 375.25 M535.9 366.25 L533.65 366.45 -273.35 366.45 -275.4 366.25 Q-276.45 366.0 -276.45 365.7 -276.45 365.4 -275.4 365.2 L-273.35 364.95 533.65 364.95 535.9 365.2 Q536.7 365.4 536.7 365.7 L535.9 366.25 M533.65 370.95 L535.9 371.2 Q536.7 371.4 536.7 371.7 L535.9 372.25 533.65 372.45 -273.35 372.45 -275.4 372.25 Q-276.45 372.0 -276.45 371.7 -276.45 371.4 -275.4 371.2 L-273.35 370.95 533.65 370.95 M533.65 367.95 L535.9 368.2 Q536.7 368.4 536.7 368.7 L535.9 369.25 533.65 369.45 -273.35 369.45 -275.4 369.25 Q-276.45 369.0 -276.45 368.7 -276.45 368.4 -275.4 368.2 L-273.35 367.95 533.65 367.95 M535.9 360.25 L533.65 360.45 -273.35 360.45 -275.4 360.25 Q-276.45 360.0 -276.45 359.7 -276.45 359.4 -275.4 359.2 L-273.35 358.95 533.65 358.95 535.9 359.2 Q536.7 359.4 536.7 359.7 L535.9 360.25 M535.9 363.25 L533.65 363.45 -273.35 363.45 -275.4 363.25 Q-276.45 363.0 -276.45 362.7 -276.45 362.4 -275.4 362.2 L-273.35 361.95 533.65 361.95 535.9 362.2 Q536.7 362.4 536.7 362.7 L535.9 363.25 M533.65 352.95 L535.9 353.2 Q536.7 353.4 536.7 353.7 L535.9 354.25 533.65 354.45 -273.35 354.45 -275.4 354.25 Q-276.45 354.0 -276.45 353.7 -276.45 353.4 -275.4 353.2 L-273.35 352.95 533.65 352.95 M533.65 346.95 L535.9 347.2 Q536.7 347.4 536.7 347.7 L535.9 348.25 533.65 348.45 -273.35 348.45 -275.4 348.25 Q-276.45 348.0 -276.45 347.7 -276.45 347.4 -275.4 347.2 L-273.35 346.95 533.65 346.95 M535.9 357.25 L533.65 357.45 -273.35 357.45 -275.4 357.25 Q-276.45 357.0 -276.45 356.7 -276.45 356.4 -275.4 356.2 L-273.35 355.95 533.65 355.95 535.9 356.2 Q536.7 356.4 536.7 356.7 L535.9 357.25 M533.65 349.95 L535.9 350.2 Q536.7 350.4 536.7 350.7 L535.9 351.25 533.65 351.45 -273.35 351.45 -275.4 351.25 Q-276.45 351.0 -276.45 350.7 -276.45 350.4 -275.4 350.2 L-273.35 349.95 533.65 349.95 M533.65 343.95 L535.9 344.2 Q536.7 344.4 536.7 344.7 L535.9 345.25 533.65 345.45 -273.35 345.45 -275.4 345.25 Q-276.45 345.0 -276.45 344.7 -276.45 344.4 -275.4 344.2 L-273.35 343.95 533.65 343.95 M533.65 340.95 L535.9 341.2 Q536.7 341.4 536.7 341.7 L535.9 342.25 533.65 342.45 -273.35 342.45 -275.4 342.25 Q-276.45 342.0 -276.45 341.7 -276.45 341.4 -275.4 341.2 L-273.35 340.95 533.65 340.95 M533.65 334.95 L535.9 335.2 Q536.7 335.4 536.7 335.7 L535.9 336.25 533.65 336.45 -273.35 336.45 -275.4 336.25 Q-276.45 336.0 -276.45 335.7 -276.45 335.4 -275.4 335.2 L-273.35 334.95 533.65 334.95 M533.65 337.95 L535.9 338.2 Q536.7 338.4 536.7 338.7 L535.9 339.25 533.65 339.45 -273.35 339.45 -275.4 339.25 Q-276.45 339.0 -276.45 338.7 -276.45 338.4 -275.4 338.2 L-273.35 337.95 533.65 337.95 M535.9 330.25 L533.65 330.45 -273.35 330.45 -275.4 330.25 Q-276.45 330.0 -276.45 329.7 -276.45 329.4 -275.4 329.2 L-273.35 328.95 533.65 328.95 535.9 329.2 Q536.7 329.4 536.7 329.7 L535.9 330.25 M533.65 325.95 L535.9 326.2 Q536.7 326.4 536.7 326.7 L535.9 327.25 533.65 327.45 -273.35 327.45 -275.4 327.25 Q-276.45 327.0 -276.45 326.7 -276.45 326.4 -275.4 326.2 L-273.35 325.95 533.65 325.95 M533.65 322.95 L535.9 323.2 Q536.7 323.4 536.7 323.7 L535.9 324.25 533.65 324.45 -273.35 324.45 -275.4 324.25 Q-276.45 324.0 -276.45 323.7 -276.45 323.4 -275.4 323.2 L-273.35 322.95 533.65 322.95 M535.9 333.25 L533.65 333.45 -273.35 333.45 -275.4 333.25 Q-276.45 333.0 -276.45 332.7 -276.45 332.4 -275.4 332.2 L-273.35 331.95 533.65 331.95 535.9 332.2 Q536.7 332.4 536.7 332.7 L535.9 333.25 M535.9 318.25 L533.65 318.45 -273.35 318.45 -275.4 318.25 Q-276.45 318.0 -276.45 317.7 -276.45 317.4 -275.4 317.2 L-273.35 316.95 533.65 316.95 535.9 317.2 Q536.7 317.4 536.7 317.7 L535.9 318.25 M533.65 319.95 L535.9 320.2 Q536.7 320.4 536.7 320.7 L535.9 321.25 533.65 321.45 -273.35 321.45 -275.4 321.25 Q-276.45 321.0 -276.45 320.7 -276.45 320.4 -275.4 320.2 L-273.35 319.95 533.65 319.95 M533.65 313.95 L535.9 314.2 Q536.7 314.4 536.7 314.7 L535.9 315.25 533.65 315.45 -273.35 315.45 -275.4 315.25 Q-276.45 315.0 -276.45 314.7 -276.45 314.4 -275.4 314.2 L-273.35 313.95 533.65 313.95 M533.65 310.95 L535.9 311.2 Q536.7 311.4 536.7 311.7 L535.9 312.25 533.65 312.45 -273.35 312.45 -275.4 312.25 Q-276.45 312.0 -276.45 311.7 -276.45 311.4 -275.4 311.2 L-273.35 310.95 533.65 310.95 M533.65 307.95 L535.9 308.2 Q536.7 308.4 536.7 308.7 L535.9 309.25 533.65 309.45 -273.35 309.45 -275.4 309.25 Q-276.45 309.0 -276.45 308.7 -276.45 308.4 -275.4 308.2 L-273.35 307.95 533.65 307.95 M535.9 303.25 L533.65 303.45 -273.35 303.45 -275.4 303.25 Q-276.45 303.0 -276.45 302.7 -276.45 302.4 -275.4 302.2 L-273.35 301.95 533.65 301.95 535.9 302.2 Q536.7 302.4 536.7 302.7 L535.9 303.25 M535.9 306.25 L533.65 306.45 -273.35 306.45 -275.4 306.25 Q-276.45 306.0 -276.45 305.7 -276.45 305.4 -275.4 305.2 L-273.35 304.95 533.65 304.95 535.9 305.2 Q536.7 305.4 536.7 305.7 L535.9 306.25 M535.9 300.25 L533.65 300.45 -273.35 300.45 -275.4 300.25 Q-276.45 300.0 -276.45 299.7 -276.45 299.4 -275.4 299.2 L-273.35 298.95 533.65 298.95 535.9 299.2 Q536.7 299.4 536.7 299.7 L535.9 300.25 M533.65 295.95 L535.9 296.2 Q536.7 296.4 536.7 296.7 L535.9 297.25 533.65 297.45 -273.35 297.45 -275.4 297.25 Q-276.45 297.0 -276.45 296.7 -276.45 296.4 -275.4 296.2 L-273.35 295.95 533.65 295.95 M533.65 292.95 L535.9 293.2 Q536.7 293.4 536.7 293.7 L535.9 294.25 533.65 294.45 -273.35 294.45 -275.4 294.25 Q-276.45 294.0 -276.45 293.7 -276.45 293.4 -275.4 293.2 L-273.35 292.95 533.65 292.95 M533.65 289.95 L535.9 290.2 Q536.7 290.4 536.7 290.7 L535.9 291.25 533.65 291.45 -273.35 291.45 -275.4 291.25 Q-276.45 291.0 -276.45 290.7 -276.45 290.4 -275.4 290.2 L-273.35 289.95 533.65 289.95 M533.65 286.95 L535.9 287.2 Q536.7 287.4 536.7 287.7 L535.9 288.25 533.65 288.45 -273.35 288.45 -275.4 288.25 Q-276.45 288.0 -276.45 287.7 -276.45 287.4 -275.4 287.2 L-273.35 286.95 533.65 286.95 M533.65 283.95 L535.9 284.2 Q536.7 284.4 536.7 284.7 L535.9 285.25 533.65 285.45 -273.35 285.45 -275.4 285.25 Q-276.45 285.0 -276.45 284.7 -276.45 284.4 -275.4 284.2 L-273.35 283.95 533.65 283.95 M533.65 277.95 L535.9 278.2 Q536.7 278.4 536.7 278.7 L535.9 279.25 533.65 279.45 -273.35 279.45 -275.4 279.25 Q-276.45 279.0 -276.45 278.7 -276.45 278.4 -275.4 278.2 L-273.35 277.95 533.65 277.95 M533.65 280.95 L535.9 281.2 Q536.7 281.4 536.7 281.7 L535.9 282.25 533.65 282.45 -273.35 282.45 -275.4 282.25 Q-276.45 282.0 -276.45 281.7 -276.45 281.4 -275.4 281.2 L-273.35 280.95 533.65 280.95 M535.9 276.25 L533.65 276.45 -273.35 276.45 -275.4 276.25 Q-276.45 276.0 -276.45 275.7 -276.45 275.4 -275.4 275.2 L-273.35 274.95 533.65 274.95 535.9 275.2 Q536.7 275.4 536.7 275.7 L535.9 276.25 M535.9 267.25 L533.65 267.45 -273.35 267.45 -275.4 267.25 Q-276.45 267.0 -276.45 266.7 -276.45 266.4 -275.4 266.2 L-273.35 265.95 533.65 265.95 535.9 266.2 Q536.7 266.4 536.7 266.7 L535.9 267.25 M533.65 271.95 L535.9 272.2 Q536.7 272.4 536.7 272.7 L535.9 273.25 533.65 273.45 -273.35 273.45 -275.4 273.25 Q-276.45 273.0 -276.45 272.7 -276.45 272.4 -275.4 272.2 L-273.35 271.95 533.65 271.95 M533.65 268.95 L535.9 269.2 Q536.7 269.4 536.7 269.7 L535.9 270.25 533.65 270.45 -273.35 270.45 -275.4 270.25 Q-276.45 270.0 -276.45 269.7 -276.45 269.4 -275.4 269.2 L-273.35 268.95 533.65 268.95 M533.65 259.95 L535.9 260.2 Q536.7 260.4 536.7 260.7 L535.9 261.25 533.65 261.45 -273.35 261.45 -275.4 261.25 Q-276.45 261.0 -276.45 260.7 -276.45 260.4 -275.4 260.2 L-273.35 259.95 533.65 259.95 M535.9 264.25 L533.65 264.45 -273.35 264.45 -275.4 264.25 Q-276.45 264.0 -276.45 263.7 -276.45 263.4 -275.4 263.2 L-273.35 262.95 533.65 262.95 535.9 263.2 Q536.7 263.4 536.7 263.7 L535.9 264.25 M533.65 253.95 L535.9 254.2 Q536.7 254.4 536.7 254.7 L535.9 255.25 533.65 255.45 -273.35 255.45 -275.4 255.25 Q-276.45 255.0 -276.45 254.7 -276.45 254.4 -275.4 254.2 L-273.35 253.95 533.65 253.95 M533.65 247.95 L535.9 248.2 Q536.7 248.4 536.7 248.7 L535.9 249.25 533.65 249.45 -273.35 249.45 -275.4 249.25 Q-276.45 249.0 -276.45 248.7 -276.45 248.4 -275.4 248.2 L-273.35 247.95 533.65 247.95 M535.9 258.25 L533.65 258.45 -273.35 258.45 -275.4 258.25 Q-276.45 258.0 -276.45 257.7 -276.45 257.4 -275.4 257.2 L-273.35 256.95 533.65 256.95 535.9 257.2 Q536.7 257.4 536.7 257.7 L535.9 258.25 M533.65 250.95 L535.9 251.2 Q536.7 251.4 536.7 251.7 L535.9 252.25 533.65 252.45 -273.35 252.45 -275.4 252.25 Q-276.45 252.0 -276.45 251.7 -276.45 251.4 -275.4 251.2 L-273.35 250.95 533.65 250.95 M533.65 241.95 L535.9 242.2 Q536.7 242.4 536.7 242.7 L535.9 243.25 533.65 243.45 -273.35 243.45 -275.4 243.25 Q-276.45 243.0 -276.45 242.7 -276.45 242.4 -275.4 242.2 L-273.35 241.95 533.65 241.95 M533.65 244.95 L535.9 245.2 Q536.7 245.4 536.7 245.7 L535.9 246.25 533.65 246.45 -273.35 246.45 -275.4 246.25 Q-276.45 246.0 -276.45 245.7 -276.45 245.4 -275.4 245.2 L-273.35 244.95 533.65 244.95 M533.65 238.95 L535.9 239.2 Q536.7 239.4 536.7 239.7 L535.9 240.25 533.65 240.45 -273.35 240.45 -275.4 240.25 Q-276.45 240.0 -276.45 239.7 -276.45 239.4 -275.4 239.2 L-273.35 238.95 533.65 238.95 M535.9 237.25 L533.65 237.45 -273.35 237.45 -275.4 237.25 Q-276.45 237.0 -276.45 236.7 -276.45 236.4 -275.4 236.2 L-273.35 235.95 533.65 235.95 535.9 236.2 Q536.7 236.4 536.7 236.7 L535.9 237.25 M535.9 234.25 L533.65 234.45 -273.35 234.45 -275.4 234.25 Q-276.45 234.0 -276.45 233.7 -276.45 233.4 -275.4 233.2 L-273.35 232.95 533.65 232.95 535.9 233.2 Q536.7 233.4 536.7 233.7 L535.9 234.25 M533.65 226.95 L535.9 227.2 Q536.7 227.4 536.7 227.7 L535.9 228.25 533.65 228.45 -273.35 228.45 -275.4 228.25 Q-276.45 228.0 -276.45 227.7 -276.45 227.4 -275.4 227.2 L-273.35 226.95 533.65 226.95 M533.65 223.95 L535.9 224.2 Q536.7 224.4 536.7 224.7 L535.9 225.25 533.65 225.45 -273.35 225.45 -275.4 225.25 Q-276.45 225.0 -276.45 224.7 -276.45 224.4 -275.4 224.2 L-273.35 223.95 533.65 223.95 M535.9 231.25 L533.65 231.45 -273.35 231.45 -275.4 231.25 Q-276.45 231.0 -276.45 230.7 -276.45 230.4 -275.4 230.2 L-273.35 229.95 533.65 229.95 535.9 230.2 Q536.7 230.4 536.7 230.7 L535.9 231.25 M535.9 219.25 L533.65 219.45 -273.35 219.45 -275.4 219.25 Q-276.45 219.0 -276.45 218.7 -276.45 218.4 -275.4 218.2 L-273.35 217.95 533.65 217.95 535.9 218.2 Q536.7 218.4 536.7 218.7 L535.9 219.25 M533.65 220.95 L535.9 221.2 Q536.7 221.4 536.7 221.7 L535.9 222.25 533.65 222.45 -273.35 222.45 -275.4 222.25 Q-276.45 222.0 -276.45 221.7 -276.45 221.4 -275.4 221.2 L-273.35 220.95 533.65 220.95 M533.65 214.95 L535.9 215.2 Q536.7 215.4 536.7 215.7 L535.9 216.25 533.65 216.45 -273.35 216.45 -275.4 216.25 Q-276.45 216.0 -276.45 215.7 -276.45 215.4 -275.4 215.2 L-273.35 214.95 533.65 214.95 M535.9 213.25 L533.65 213.45 -273.35 213.45 -275.4 213.25 Q-276.45 213.0 -276.45 212.7 -276.45 212.4 -275.4 212.2 L-273.35 211.95 533.65 211.95 535.9 212.2 Q536.7 212.4 536.7 212.7 L535.9 213.25 M533.65 208.95 L535.9 209.2 Q536.7 209.4 536.7 209.7 L535.9 210.25 533.65 210.45 -273.35 210.45 -275.4 210.25 Q-276.45 210.0 -276.45 209.7 -276.45 209.4 -275.4 209.2 L-273.35 208.95 533.65 208.95 M533.65 202.95 L535.9 203.2 Q536.7 203.4 536.7 203.7 L535.9 204.25 533.65 204.45 -273.35 204.45 -275.4 204.25 Q-276.45 204.0 -276.45 203.7 -276.45 203.4 -275.4 203.2 L-273.35 202.95 533.65 202.95 M535.9 207.25 L533.65 207.45 -273.35 207.45 -275.4 207.25 Q-276.45 207.0 -276.45 206.7 -276.45 206.4 -275.4 206.2 L-273.35 205.95 533.65 205.95 535.9 206.2 Q536.7 206.4 536.7 206.7 L535.9 207.25 M533.65 199.95 L535.9 200.2 Q536.7 200.4 536.7 200.7 L535.9 201.25 533.65 201.45 -273.35 201.45 -275.4 201.25 Q-276.45 201.0 -276.45 200.7 -276.45 200.4 -275.4 200.2 L-273.35 199.95 533.65 199.95 M533.65 196.95 L535.9 197.2 Q536.7 197.4 536.7 197.7 L535.9 198.25 533.65 198.45 -273.35 198.45 -275.4 198.25 Q-276.45 198.0 -276.45 197.7 -276.45 197.4 -275.4 197.2 L-273.35 196.95 533.65 196.95 M533.65 193.95 L535.9 194.2 Q536.7 194.4 536.7 194.7 L535.9 195.25 533.65 195.45 -273.35 195.45 -275.4 195.25 Q-276.45 195.0 -276.45 194.7 -276.45 194.4 -275.4 194.2 L-273.35 193.95 533.65 193.95 M535.9 192.25 L533.65 192.45 -273.35 192.45 -275.4 192.25 Q-276.45 192.0 -276.45 191.7 -276.45 191.4 -275.4 191.2 L-273.35 190.95 533.65 190.95 535.9 191.2 Q536.7 191.4 536.7 191.7 L535.9 192.25 M533.65 187.95 L535.9 188.2 Q536.7 188.4 536.7 188.7 L535.9 189.25 533.65 189.45 -273.35 189.45 -275.4 189.25 Q-276.45 189.0 -276.45 188.7 -276.45 188.4 -275.4 188.2 L-273.35 187.95 533.65 187.95 M533.65 184.95 L535.9 185.2 Q536.7 185.4 536.7 185.7 L535.9 186.25 533.65 186.45 -273.35 186.45 -275.4 186.25 Q-276.45 186.0 -276.45 185.7 -276.45 185.4 -275.4 185.2 L-273.35 184.95 533.65 184.95 M533.65 178.95 L535.9 179.2 Q536.7 179.4 536.7 179.7 L535.9 180.25 533.65 180.45 -273.35 180.45 -275.4 180.25 Q-276.45 180.0 -276.45 179.7 -276.45 179.4 -275.4 179.2 L-273.35 178.95 533.65 178.95 M533.65 181.95 L535.9 182.2 Q536.7 182.4 536.7 182.7 L535.9 183.25 533.65 183.45 -273.35 183.45 -275.4 183.25 Q-276.45 183.0 -276.45 182.7 -276.45 182.4 -275.4 182.2 L-273.35 181.95 533.65 181.95 M535.9 177.25 L533.65 177.45 -273.35 177.45 -275.4 177.25 Q-276.45 177.0 -276.45 176.7 -276.45 176.4 -275.4 176.2 L-273.35 175.95 533.65 175.95 535.9 176.2 Q536.7 176.4 536.7 176.7 L535.9 177.25 M533.65 172.95 L535.9 173.2 Q536.7 173.4 536.7 173.7 L535.9 174.25 533.65 174.45 -273.35 174.45 -275.4 174.25 Q-276.45 174.0 -276.45 173.7 -276.45 173.4 -275.4 173.2 L-273.35 172.95 533.65 172.95 M533.65 169.95 L535.9 170.2 Q536.7 170.4 536.7 170.7 L535.9 171.25 533.65 171.45 -273.35 171.45 -275.4 171.25 Q-276.45 171.0 -276.45 170.7 -276.45 170.4 -275.4 170.2 L-273.35 169.95 533.65 169.95 M535.9 168.25 L533.65 168.45 -273.35 168.45 -275.4 168.25 Q-276.45 168.0 -276.45 167.7 -276.45 167.4 -275.4 167.2 L-273.35 166.95 533.65 166.95 535.9 167.2 Q536.7 167.4 536.7 167.7 L535.9 168.25 M535.9 162.25 L533.65 162.45 -273.35 162.45 -275.4 162.25 Q-276.45 162.0 -276.45 161.7 -276.45 161.4 -275.4 161.2 L-273.35 160.95 533.65 160.95 535.9 161.2 Q536.7 161.4 536.7 161.7 L535.9 162.25 M535.9 165.25 L533.65 165.45 -273.35 165.45 -275.4 165.25 Q-276.45 165.0 -276.45 164.7 -276.45 164.4 -275.4 164.2 L-273.35 163.95 533.65 163.95 535.9 164.2 Q536.7 164.4 536.7 164.7 L535.9 165.25 M535.9 156.25 L533.65 156.45 -273.35 156.45 -275.4 156.25 Q-276.45 156.0 -276.45 155.7 -276.45 155.4 -275.4 155.2 L-273.35 154.95 533.65 154.95 535.9 155.2 Q536.7 155.4 536.7 155.7 L535.9 156.25 M533.65 148.95 L535.9 149.2 Q536.7 149.4 536.7 149.7 L535.9 150.25 533.65 150.45 -273.35 150.45 -275.4 150.25 Q-276.45 150.0 -276.45 149.7 -276.45 149.4 -275.4 149.2 L-273.35 148.95 533.65 148.95 M535.9 159.25 L533.65 159.45 -273.35 159.45 -275.4 159.25 Q-276.45 159.0 -276.45 158.7 -276.45 158.4 -275.4 158.2 L-273.35 157.95 533.65 157.95 535.9 158.2 Q536.7 158.4 536.7 158.7 L535.9 159.25 M533.65 151.95 L535.9 152.2 Q536.7 152.4 536.7 152.7 L535.9 153.25 533.65 153.45 -273.35 153.45 -275.4 153.25 Q-276.45 153.0 -276.45 152.7 -276.45 152.4 -275.4 152.2 L-273.35 151.95 533.65 151.95 M533.65 145.95 L535.9 146.2 Q536.7 146.4 536.7 146.7 L535.9 147.25 533.65 147.45 -273.35 147.45 -275.4 147.25 Q-276.45 147.0 -276.45 146.7 -276.45 146.4 -275.4 146.2 L-273.35 145.95 533.65 145.95 M535.9 144.25 L533.65 144.45 -273.35 144.45 -275.4 144.25 Q-276.45 144.0 -276.45 143.7 -276.45 143.4 -275.4 143.2 L-273.35 142.95 533.65 142.95 535.9 143.2 Q536.7 143.4 536.7 143.7 L535.9 144.25 M533.65 139.95 L535.9 140.2 Q536.7 140.4 536.7 140.7 L535.9 141.25 533.65 141.45 -273.35 141.45 -275.4 141.25 Q-276.45 141.0 -276.45 140.7 -276.45 140.4 -275.4 140.2 L-273.35 139.95 533.65 139.95 M533.65 136.95 L535.9 137.2 Q536.7 137.4 536.7 137.7 L535.9 138.25 533.65 138.45 -273.35 138.45 -275.4 138.25 Q-276.45 138.0 -276.45 137.7 -276.45 137.4 -275.4 137.2 L-273.35 136.95 533.65 136.95 M535.9 135.25 L533.65 135.45 -273.35 135.45 -275.4 135.25 Q-276.45 135.0 -276.45 134.7 -276.45 134.4 -275.4 134.2 L-273.35 133.95 533.65 133.95 535.9 134.2 Q536.7 134.4 536.7 134.7 L535.9 135.25 M533.65 127.95 L535.9 128.2 Q536.7 128.4 536.7 128.7 L535.9 129.25 533.65 129.45 -273.35 129.45 -275.4 129.25 Q-276.45 129.0 -276.45 128.7 -276.45 128.4 -275.4 128.2 L-273.35 127.95 533.65 127.95 M535.9 126.25 L533.65 126.45 -273.35 126.45 -275.4 126.25 Q-276.45 126.0 -276.45 125.7 -276.45 125.4 -275.4 125.2 L-273.35 124.95 533.65 124.95 535.9 125.2 Q536.7 125.4 536.7 125.7 L535.9 126.25 M533.65 130.95 L535.9 131.2 Q536.7 131.4 536.7 131.7 L535.9 132.25 533.65 132.45 -273.35 132.45 -275.4 132.25 Q-276.45 132.0 -276.45 131.7 -276.45 131.4 -275.4 131.2 L-273.35 130.95 533.65 130.95 M535.9 120.25 L533.65 120.45 -273.35 120.45 -275.4 120.25 Q-276.45 120.0 -276.45 119.7 -276.45 119.4 -275.4 119.2 L-273.35 118.95 533.65 118.95 535.9 119.2 Q536.7 119.4 536.7 119.7 L535.9 120.25 M533.65 121.95 L535.9 122.2 Q536.7 122.4 536.7 122.7 L535.9 123.25 533.65 123.45 -273.35 123.45 -275.4 123.25 Q-276.45 123.0 -276.45 122.7 -276.45 122.4 -275.4 122.2 L-273.35 121.95 533.65 121.95 M533.65 115.95 L535.9 116.2 Q536.7 116.4 536.7 116.7 L535.9 117.25 533.65 117.45 -273.35 117.45 -275.4 117.25 Q-276.45 117.0 -276.45 116.7 -276.45 116.4 -275.4 116.2 L-273.35 115.95 533.65 115.95 M535.9 114.25 L533.65 114.45 -273.35 114.45 -275.4 114.25 Q-276.45 114.0 -276.45 113.7 -276.45 113.4 -275.4 113.2 L-273.35 112.95 533.65 112.95 535.9 113.2 Q536.7 113.4 536.7 113.7 L535.9 114.25 M533.65 109.95 L535.9 110.2 Q536.7 110.4 536.7 110.7 L535.9 111.25 533.65 111.45 -273.35 111.45 -275.4 111.25 Q-276.45 111.0 -276.45 110.7 -276.45 110.4 -275.4 110.2 L-273.35 109.95 533.65 109.95 M533.65 103.95 L535.9 104.2 Q536.7 104.4 536.7 104.7 L535.9 105.25 533.65 105.45 -273.35 105.45 -275.4 105.25 Q-276.45 105.0 -276.45 104.7 -276.45 104.4 -275.4 104.2 L-273.35 103.95 533.65 103.95 M535.9 108.25 L533.65 108.45 -273.35 108.45 -275.4 108.25 Q-276.45 108.0 -276.45 107.7 -276.45 107.4 -275.4 107.2 L-273.35 106.95 533.65 106.95 535.9 107.2 Q536.7 107.4 536.7 107.7 L535.9 108.25 M533.65 100.95 L535.9 101.2 Q536.7 101.4 536.7 101.7 L535.9 102.25 533.65 102.45 -273.35 102.45 -275.4 102.25 Q-276.45 102.0 -276.45 101.7 -276.45 101.4 -275.4 101.2 L-273.35 100.95 533.65 100.95 M533.65 97.95 L535.9 98.2 Q536.7 98.4 536.7 98.7 L535.9 99.25 533.65 99.45 -273.35 99.45 -275.4 99.25 Q-276.45 99.0 -276.45 98.7 -276.45 98.4 -275.4 98.2 L-273.35 97.95 533.65 97.95 M533.65 94.95 L535.9 95.2 Q536.7 95.4 536.7 95.7 L535.9 96.25 533.65 96.45 -273.35 96.45 -275.4 96.25 Q-276.45 96.0 -276.45 95.7 -276.45 95.4 -275.4 95.2 L-273.35 94.95 533.65 94.95 M535.9 93.25 L533.65 93.45 -273.35 93.45 -275.4 93.25 Q-276.45 93.0 -276.45 92.7 -276.45 92.4 -275.4 92.2 L-273.35 91.95 533.65 91.95 535.9 92.2 Q536.7 92.4 536.7 92.7 L535.9 93.25 M533.65 88.95 L535.9 89.2 Q536.7 89.4 536.7 89.7 L535.9 90.25 533.65 90.45 -273.35 90.45 -275.4 90.25 Q-276.45 90.0 -276.45 89.7 -276.45 89.4 -275.4 89.2 L-273.35 88.95 533.65 88.95 M533.65 85.95 L535.9 86.2 Q536.7 86.4 536.7 86.7 L535.9 87.25 533.65 87.45 -273.35 87.45 -275.4 87.25 Q-276.45 87.0 -276.45 86.7 -276.45 86.4 -275.4 86.2 L-273.35 85.95 533.65 85.95 M533.65 79.95 L535.9 80.2 Q536.7 80.4 536.7 80.7 L535.9 81.25 533.65 81.45 -273.35 81.45 -275.4 81.25 Q-276.45 81.0 -276.45 80.7 -276.45 80.4 -275.4 80.2 L-273.35 79.95 533.65 79.95 M533.65 82.95 L535.9 83.2 Q536.7 83.4 536.7 83.7 L535.9 84.25 533.65 84.45 -273.35 84.45 -275.4 84.25 Q-276.45 84.0 -276.45 83.7 -276.45 83.4 -275.4 83.2 L-273.35 82.95 533.65 82.95 M533.65 76.95 L535.9 77.2 Q536.7 77.4 536.7 77.7 L535.9 78.25 533.65 78.45 -273.35 78.45 -275.4 78.25 Q-276.45 78.0 -276.45 77.7 -276.45 77.4 -275.4 77.2 L-273.35 76.95 533.65 76.95 M533.65 73.95 L535.9 74.2 Q536.7 74.4 536.7 74.7 L535.9 75.25 533.65 75.45 -273.35 75.45 -275.4 75.25 Q-276.45 75.0 -276.45 74.7 -276.45 74.4 -275.4 74.2 L-273.35 73.95 533.65 73.95 M533.65 70.95 L535.9 71.2 Q536.7 71.4 536.7 71.7 L535.9 72.25 533.65 72.45 -273.35 72.45 -275.4 72.25 Q-276.45 72.0 -276.45 71.7 -276.45 71.4 -275.4 71.2 L-273.35 70.95 533.65 70.95 M535.9 69.25 L533.65 69.45 -273.35 69.45 -275.4 69.25 Q-276.45 69.0 -276.45 68.7 -276.45 68.4 -275.4 68.2 L-273.35 67.95 533.65 67.95 535.9 68.2 Q536.7 68.4 536.7 68.7 L535.9 69.25 M535.9 63.25 L533.65 63.45 -273.35 63.45 -275.4 63.25 Q-276.45 63.0 -276.45 62.7 -276.45 62.4 -275.4 62.2 L-273.35 61.95 533.65 61.95 535.9 62.2 Q536.7 62.4 536.7 62.7 L535.9 63.25 M535.9 66.25 L533.65 66.45 -273.35 66.45 -275.4 66.25 Q-276.45 66.0 -276.45 65.7 -276.45 65.4 -275.4 65.2 L-273.35 64.95 533.65 64.95 535.9 65.2 Q536.7 65.4 536.7 65.7 L535.9 66.25 M535.9 57.25 L533.65 57.45 -273.35 57.45 -275.4 57.25 Q-276.45 57.0 -276.45 56.7 -276.45 56.4 -275.4 56.2 L-273.35 55.95 533.65 55.95 535.9 56.2 Q536.7 56.4 536.7 56.7 L535.9 57.25 M533.65 49.95 L535.9 50.2 Q536.7 50.4 536.7 50.7 L535.9 51.25 533.65 51.45 -273.35 51.45 -275.4 51.25 Q-276.45 51.0 -276.45 50.7 -276.45 50.4 -275.4 50.2 L-273.35 49.95 533.65 49.95 M535.9 60.25 L533.65 60.45 -273.35 60.45 -275.4 60.25 Q-276.45 60.0 -276.45 59.7 -276.45 59.4 -275.4 59.2 L-273.35 58.95 533.65 58.95 535.9 59.2 Q536.7 59.4 536.7 59.7 L535.9 60.25 M533.65 52.95 L535.9 53.2 Q536.7 53.4 536.7 53.7 L535.9 54.25 533.65 54.45 -273.35 54.45 -275.4 54.25 Q-276.45 54.0 -276.45 53.7 -276.45 53.4 -275.4 53.2 L-273.35 52.95 533.65 52.95 M533.65 46.95 L535.9 47.2 Q536.7 47.4 536.7 47.7 L535.9 48.25 533.65 48.45 -273.35 48.45 -275.4 48.25 Q-276.45 48.0 -276.45 47.7 -276.45 47.4 -275.4 47.2 L-273.35 46.95 533.65 46.95 M535.9 45.25 L533.65 45.45 -273.35 45.45 -275.4 45.25 Q-276.45 45.0 -276.45 44.7 -276.45 44.4 -275.4 44.2 L-273.35 43.95 533.65 43.95 535.9 44.2 Q536.7 44.4 536.7 44.7 L535.9 45.25 M533.65 37.95 L535.9 38.2 Q536.7 38.4 536.7 38.7 L535.9 39.25 533.65 39.45 -273.35 39.45 -275.4 39.25 Q-276.45 39.0 -276.45 38.7 -276.45 38.4 -275.4 38.2 L-273.35 37.95 533.65 37.95 M533.65 40.95 L535.9 41.2 Q536.7 41.4 536.7 41.7 L535.9 42.25 533.65 42.45 -273.35 42.45 -275.4 42.25 Q-276.45 42.0 -276.45 41.7 -276.45 41.4 -275.4 41.2 L-273.35 40.95 533.65 40.95 M533.65 31.95 L535.9 32.2 Q536.7 32.4 536.7 32.7 L535.9 33.25 533.65 33.45 -273.35 33.45 -275.4 33.25 Q-276.45 33.0 -276.45 32.7 -276.45 32.4 -275.4 32.2 L-273.35 31.95 533.65 31.95 M533.65 28.95 L535.9 29.2 Q536.7 29.4 536.7 29.7 L535.9 30.25 533.65 30.45 -273.35 30.45 -275.4 30.25 Q-276.45 30.0 -276.45 29.7 -276.45 29.4 -275.4 29.2 L-273.35 28.95 533.65 28.95 M535.9 27.25 L533.65 27.45 -273.35 27.45 -275.4 27.25 Q-276.45 27.0 -276.45 26.7 -276.45 26.4 -275.4 26.2 L-273.35 25.95 533.65 25.95 535.9 26.2 Q536.7 26.4 536.7 26.7 L535.9 27.25 M535.9 36.25 L533.65 36.45 -273.35 36.45 -275.4 36.25 Q-276.45 36.0 -276.45 35.7 -276.45 35.4 -275.4 35.2 L-273.35 34.95 533.65 34.95 535.9 35.2 Q536.7 35.4 536.7 35.7 L535.9 36.25 M535.9 21.25 L533.65 21.45 -273.35 21.45 -275.4 21.25 Q-276.45 21.0 -276.45 20.7 -276.45 20.4 -275.4 20.2 L-273.35 19.95 533.65 19.95 535.9 20.2 Q536.7 20.4 536.7 20.7 L535.9 21.25 M533.65 22.95 L535.9 23.2 Q536.7 23.4 536.7 23.7 L535.9 24.25 533.65 24.45 -273.35 24.45 -275.4 24.25 Q-276.45 24.0 -276.45 23.7 -276.45 23.4 -275.4 23.2 L-273.35 22.95 533.65 22.95 M533.65 16.95 L535.9 17.2 Q536.7 17.4 536.7 17.7 L535.9 18.25 533.65 18.45 -273.35 18.45 -275.4 18.25 Q-276.45 18.0 -276.45 17.7 -276.45 17.4 -275.4 17.2 L-273.35 16.95 533.65 16.95 M535.9 15.25 L533.65 15.45 -273.35 15.45 -275.4 15.25 Q-276.45 15.0 -276.45 14.7 -276.45 14.4 -275.4 14.2 L-273.35 13.95 533.65 13.95 535.9 14.2 Q536.7 14.4 536.7 14.7 L535.9 15.25 M533.65 10.95 L535.9 11.2 Q536.7 11.4 536.7 11.7 L535.9 12.25 533.65 12.45 -273.35 12.45 -275.4 12.25 Q-276.45 12.0 -276.45 11.7 -276.45 11.4 -275.4 11.2 L-273.35 10.95 533.65 10.95 M533.65 4.95 L535.9 5.2 Q536.7 5.4 536.7 5.7 L535.9 6.25 533.65 6.45 -273.35 6.45 -275.4 6.25 Q-276.45 6.0 -276.45 5.7 -276.45 5.4 -275.4 5.2 L-273.35 4.95 533.65 4.95 M535.9 9.25 L533.65 9.45 -273.35 9.45 -275.4 9.25 Q-276.45 9.0 -276.45 8.7 -276.45 8.4 -275.4 8.2 L-273.35 7.95 533.65 7.95 535.9 8.2 Q536.7 8.4 536.7 8.7 L535.9 9.25 M533.65 1.95 L535.9 2.2 Q536.7 2.4 536.7 2.7 L535.9 3.25 533.65 3.45 -273.35 3.45 -275.4 3.25 Q-276.45 3.0 -276.45 2.7 -276.45 2.4 -275.4 2.2 L-273.35 1.95 533.65 1.95 M533.65 -1.05 L535.9 -0.8 Q536.7 -0.6 536.7 -0.3 L535.9 0.25 533.65 0.45 -273.35 0.45 -275.4 0.25 Q-276.45 0.0 -276.45 -0.3 -276.45 -0.6 -275.4 -0.8 L-273.35 -1.05 533.65 -1.05 M533.65 -4.05 L535.9 -3.8 Q536.7 -3.6 536.7 -3.3 L535.9 -2.75 533.65 -2.55 -273.35 -2.55 -275.4 -2.75 Q-276.45 -3.0 -276.45 -3.3 -276.45 -3.6 -275.4 -3.8 L-273.35 -4.05 533.65 -4.05 M535.9 -5.75 L533.65 -5.55 -273.35 -5.55 -275.4 -5.75 Q-276.45 -6.0 -276.45 -6.3 -276.45 -6.6 -275.4 -6.8 L-273.35 -7.05 533.65 -7.05 535.9 -6.8 Q536.7 -6.6 536.7 -6.3 L535.9 -5.75 M533.65 -10.05 L535.9 -9.8 Q536.7 -9.6 536.7 -9.3 L535.9 -8.75 533.65 -8.55 -273.35 -8.55 -275.4 -8.75 Q-276.45 -9.0 -276.45 -9.3 -276.45 -9.6 -275.4 -9.8 L-273.35 -10.05 533.65 -10.05 M533.65 -13.05 L535.9 -12.8 Q536.7 -12.6 536.7 -12.3 L535.9 -11.75 533.65 -11.55 -273.35 -11.55 -275.4 -11.75 Q-276.45 -12.0 -276.45 -12.3 -276.45 -12.6 -275.4 -12.8 L-273.35 -13.05 533.65 -13.05 M533.65 -19.05 L535.9 -18.8 Q536.7 -18.6 536.7 -18.3 L535.9 -17.75 533.65 -17.55 -273.35 -17.55 -275.4 -17.75 Q-276.45 -18.0 -276.45 -18.3 -276.45 -18.6 -275.4 -18.8 L-273.35 -19.05 533.65 -19.05 M533.65 -16.05 L535.9 -15.8 Q536.7 -15.6 536.7 -15.3 L535.9 -14.75 533.65 -14.55 -273.35 -14.55 -275.4 -14.75 Q-276.45 -15.0 -276.45 -15.3 -276.45 -15.6 -275.4 -15.8 L-273.35 -16.05 533.65 -16.05 M533.65 -22.05 L535.9 -21.8 Q536.7 -21.6 536.7 -21.3 L535.9 -20.75 533.65 -20.55 -273.35 -20.55 -275.4 -20.75 Q-276.45 -21.0 -276.45 -21.3 -276.45 -21.6 -275.4 -21.8 L-273.35 -22.05 533.65 -22.05 M533.65 -25.05 L535.9 -24.8 Q536.7 -24.6 536.7 -24.3 L535.9 -23.75 533.65 -23.55 -273.35 -23.55 -275.4 -23.75 Q-276.45 -24.0 -276.45 -24.3 -276.45 -24.6 -275.4 -24.8 L-273.35 -25.05 533.65 -25.05 M533.65 -28.05 L535.9 -27.8 Q536.7 -27.6 536.7 -27.3 L535.9 -26.75 533.65 -26.55 -273.35 -26.55 -275.4 -26.75 Q-276.45 -27.0 -276.45 -27.3 -276.45 -27.6 -275.4 -27.8 L-273.35 -28.05 533.65 -28.05 M535.9 -29.75 L533.65 -29.55 -273.35 -29.55 -275.4 -29.75 Q-276.45 -30.0 -276.45 -30.3 -276.45 -30.6 -275.4 -30.8 L-273.35 -31.05 533.65 -31.05 535.9 -30.8 Q536.7 -30.6 536.7 -30.3 L535.9 -29.75 M535.9 -35.75 L533.65 -35.55 -273.35 -35.55 -275.4 -35.75 Q-276.45 -36.0 -276.45 -36.3 -276.45 -36.6 -275.4 -36.8 L-273.35 -37.05 533.65 -37.05 535.9 -36.8 Q536.7 -36.6 536.7 -36.3 L535.9 -35.75 M535.9 -32.75 L533.65 -32.55 -273.35 -32.55 -275.4 -32.75 Q-276.45 -33.0 -276.45 -33.3 -276.45 -33.6 -275.4 -33.8 L-273.35 -34.05 533.65 -34.05 535.9 -33.8 Q536.7 -33.6 536.7 -33.3 L535.9 -32.75 M533.65 -43.05 L535.9 -42.8 Q536.7 -42.6 536.7 -42.3 L535.9 -41.75 533.65 -41.55 -273.35 -41.55 -275.4 -41.75 Q-276.45 -42.0 -276.45 -42.3 -276.45 -42.6 -275.4 -42.8 L-273.35 -43.05 533.65 -43.05 M535.9 -38.75 L533.65 -38.55 -273.35 -38.55 -275.4 -38.75 Q-276.45 -39.0 -276.45 -39.3 -276.45 -39.6 -275.4 -39.8 L-273.35 -40.05 533.65 -40.05 535.9 -39.8 Q536.7 -39.6 536.7 -39.3 L535.9 -38.75 M533.65 -46.05 L535.9 -45.8 Q536.7 -45.6 536.7 -45.3 L535.9 -44.75 533.65 -44.55 -273.35 -44.55 -275.4 -44.75 Q-276.45 -45.0 -276.45 -45.3 -276.45 -45.6 -275.4 -45.8 L-273.35 -46.05 533.65 -46.05 M535.9 -47.75 L533.65 -47.55 -273.35 -47.55 -275.4 -47.75 Q-276.45 -48.0 -276.45 -48.3 -276.45 -48.6 -275.4 -48.8 L-273.35 -49.05 533.65 -49.05 535.9 -48.8 Q536.7 -48.6 536.7 -48.3 L535.9 -47.75 M533.65 -55.05 L535.9 -54.8 Q536.7 -54.6 536.7 -54.3 L535.9 -53.75 533.65 -53.55 -273.35 -53.55 -275.4 -53.75 Q-276.45 -54.0 -276.45 -54.3 -276.45 -54.6 -275.4 -54.8 L-273.35 -55.05 533.65 -55.05 M533.65 -52.05 L535.9 -51.8 Q536.7 -51.6 536.7 -51.3 L535.9 -50.75 533.65 -50.55 -273.35 -50.55 -275.4 -50.75 Q-276.45 -51.0 -276.45 -51.3 -276.45 -51.6 -275.4 -51.8 L-273.35 -52.05 533.65 -52.05 M533.65 -58.05 L535.9 -57.8 Q536.7 -57.6 536.7 -57.3 L535.9 -56.75 533.65 -56.55 -273.35 -56.55 -275.4 -56.75 Q-276.45 -57.0 -276.45 -57.3 -276.45 -57.6 -275.4 -57.8 L-273.35 -58.05 533.65 -58.05 M533.65 -61.05 L535.9 -60.8 Q536.7 -60.6 536.7 -60.3 L535.9 -59.75 533.65 -59.55 -273.35 -59.55 -275.4 -59.75 Q-276.45 -60.0 -276.45 -60.3 -276.45 -60.6 -275.4 -60.8 L-273.35 -61.05 533.65 -61.05 M533.65 -67.05 L535.9 -66.8 Q536.7 -66.6 536.7 -66.3 L535.9 -65.75 533.65 -65.55 -273.35 -65.55 -275.4 -65.75 Q-276.45 -66.0 -276.45 -66.3 -276.45 -66.6 -275.4 -66.8 L-273.35 -67.05 533.65 -67.05 M533.65 -70.05 L535.9 -69.8 Q536.7 -69.6 536.7 -69.3 L535.9 -68.75 533.65 -68.55 -273.35 -68.55 -275.4 -68.75 Q-276.45 -69.0 -276.45 -69.3 -276.45 -69.6 -275.4 -69.8 L-273.35 -70.05 533.65 -70.05 M535.9 -71.75 L533.65 -71.55 -273.35 -71.55 -275.4 -71.75 Q-276.45 -72.0 -276.45 -72.3 -276.45 -72.6 -275.4 -72.8 L-273.35 -73.05 533.65 -73.05 535.9 -72.8 Q536.7 -72.6 536.7 -72.3 L535.9 -71.75 M535.9 -62.75 L533.65 -62.55 -273.35 -62.55 -275.4 -62.75 Q-276.45 -63.0 -276.45 -63.3 -276.45 -63.6 -275.4 -63.8 L-273.35 -64.05 533.65 -64.05 535.9 -63.8 Q536.7 -63.6 536.7 -63.3 L535.9 -62.75 M535.9 -77.75 L533.65 -77.55 -273.35 -77.55 -275.4 -77.75 Q-276.45 -78.0 -276.45 -78.3 -276.45 -78.6 -275.4 -78.8 L-273.35 -79.05 533.65 -79.05 535.9 -78.8 Q536.7 -78.6 536.7 -78.3 L535.9 -77.75 M533.65 -76.05 L535.9 -75.8 Q536.7 -75.6 536.7 -75.3 L535.9 -74.75 533.65 -74.55 -273.35 -74.55 -275.4 -74.75 Q-276.45 -75.0 -276.45 -75.3 -276.45 -75.6 -275.4 -75.8 L-273.35 -76.05 533.65 -76.05 M533.65 -82.05 L535.9 -81.8 Q536.7 -81.6 536.7 -81.3 L535.9 -80.75 533.65 -80.55 -273.35 -80.55 -275.4 -80.75 Q-276.45 -81.0 -276.45 -81.3 -276.45 -81.6 -275.4 -81.8 L-273.35 -82.05 533.65 -82.05 M533.65 -85.05 L535.9 -84.8 Q536.7 -84.6 536.7 -84.3 L535.9 -83.75 533.65 -83.55 -273.35 -83.55 -275.4 -83.75 Q-276.45 -84.0 -276.45 -84.3 -276.45 -84.6 -275.4 -84.8 L-273.35 -85.05 533.65 -85.05 M533.65 -88.05 L535.9 -87.8 Q536.7 -87.6 536.7 -87.3 L535.9 -86.75 533.65 -86.55 -273.35 -86.55 -275.4 -86.75 Q-276.45 -87.0 -276.45 -87.3 -276.45 -87.6 -275.4 -87.8 L-273.35 -88.05 533.65 -88.05 M533.65 -94.05 L535.9 -93.8 Q536.7 -93.6 536.7 -93.3 L535.9 -92.75 533.65 -92.55 -273.35 -92.55 -275.4 -92.75 Q-276.45 -93.0 -276.45 -93.3 -276.45 -93.6 -275.4 -93.8 L-273.35 -94.05 533.65 -94.05 M535.9 -89.75 L533.65 -89.55 -273.35 -89.55 -275.4 -89.75 Q-276.45 -90.0 -276.45 -90.3 -276.45 -90.6 -275.4 -90.8 L-273.35 -91.05 533.65 -91.05 535.9 -90.8 Q536.7 -90.6 536.7 -90.3 L535.9 -89.75 M535.9 -95.75 L533.65 -95.55 -273.35 -95.55 -275.4 -95.75 Q-276.45 -96.0 -276.45 -96.3 -276.45 -96.6 -275.4 -96.8 L-273.35 -97.05 533.65 -97.05 535.9 -96.8 Q536.7 -96.6 536.7 -96.3 L535.9 -95.75 M533.65 -100.05 L535.9 -99.8 Q536.7 -99.6 536.7 -99.3 L535.9 -98.75 533.65 -98.55 -273.35 -98.55 -275.4 -98.75 Q-276.45 -99.0 -276.45 -99.3 -276.45 -99.6 -275.4 -99.8 L-273.35 -100.05 533.65 -100.05 M533.65 -103.05 L535.9 -102.8 Q536.7 -102.6 536.7 -102.3 L535.9 -101.75 533.65 -101.55 -273.35 -101.55 -275.4 -101.75 Q-276.45 -102.0 -276.45 -102.3 -276.45 -102.6 -275.4 -102.8 L-273.35 -103.05 533.65 -103.05 M535.9 -104.75 L533.65 -104.55 -273.35 -104.55 -275.4 -104.75 Q-276.45 -105.0 -276.45 -105.3 -276.45 -105.6 -275.4 -105.8 L-273.35 -106.05 533.65 -106.05 535.9 -105.8 Q536.7 -105.6 536.7 -105.3 L535.9 -104.75 M533.65 -109.05 L535.9 -108.8 Q536.7 -108.6 536.7 -108.3 L535.9 -107.75 533.65 -107.55 -273.35 -107.55 -275.4 -107.75 Q-276.45 -108.0 -276.45 -108.3 -276.45 -108.6 -275.4 -108.8 L-273.35 -109.05 533.65 -109.05 M533.65 -112.05 L535.9 -111.8 Q536.7 -111.6 536.7 -111.3 L535.9 -110.75 533.65 -110.55 -273.35 -110.55 -275.4 -110.75 Q-276.45 -111.0 -276.45 -111.3 -276.45 -111.6 -275.4 -111.8 L-273.35 -112.05 533.65 -112.05 M533.65 -118.05 L535.9 -117.8 Q536.7 -117.6 536.7 -117.3 L535.9 -116.75 533.65 -116.55 -273.35 -116.55 -275.4 -116.75 Q-276.45 -117.0 -276.45 -117.3 -276.45 -117.6 -275.4 -117.8 L-273.35 -118.05 533.65 -118.05 M533.65 -115.05 L535.9 -114.8 Q536.7 -114.6 536.7 -114.3 L535.9 -113.75 533.65 -113.55 -273.35 -113.55 -275.4 -113.75 Q-276.45 -114.0 -276.45 -114.3 -276.45 -114.6 -275.4 -114.8 L-273.35 -115.05 533.65 -115.05 M533.65 -121.05 L535.9 -120.8 Q536.7 -120.6 536.7 -120.3 L535.9 -119.75 533.65 -119.55 -273.35 -119.55 -275.4 -119.75 Q-276.45 -120.0 -276.45 -120.3 -276.45 -120.6 -275.4 -120.8 L-273.35 -121.05 533.65 -121.05 M535.9 -128.75 L533.65 -128.55 -273.35 -128.55 -275.4 -128.75 Q-276.45 -129.0 -276.45 -129.3 -276.45 -129.6 -275.4 -129.8 L-273.35 -130.05 533.65 -130.05 535.9 -129.8 Q536.7 -129.6 536.7 -129.3 L535.9 -128.75 M533.65 -124.05 L535.9 -123.8 Q536.7 -123.6 536.7 -123.3 L535.9 -122.75 533.65 -122.55 -273.35 -122.55 -275.4 -122.75 Q-276.45 -123.0 -276.45 -123.3 -276.45 -123.6 -275.4 -123.8 L-273.35 -124.05 533.65 -124.05 M533.65 -127.05 L535.9 -126.8 Q536.7 -126.6 536.7 -126.3 L535.9 -125.75 533.65 -125.55 -273.35 -125.55 -275.4 -125.75 Q-276.45 -126.0 -276.45 -126.3 -276.45 -126.6 -275.4 -126.8 L-273.35 -127.05 533.65 -127.05 M533.65 -136.05 L535.9 -135.8 Q536.7 -135.6 536.7 -135.3 L535.9 -134.75 533.65 -134.55 -273.35 -134.55 -275.4 -134.75 Q-276.45 -135.0 -276.45 -135.3 -276.45 -135.6 -275.4 -135.8 L-273.35 -136.05 533.65 -136.05 M535.9 -131.75 L533.65 -131.55 -273.35 -131.55 -275.4 -131.75 Q-276.45 -132.0 -276.45 -132.3 -276.45 -132.6 -275.4 -132.8 L-273.35 -133.05 533.65 -133.05 535.9 -132.8 Q536.7 -132.6 536.7 -132.3 L535.9 -131.75 M533.65 -142.05 L535.9 -141.8 Q536.7 -141.6 536.7 -141.3 L535.9 -140.75 533.65 -140.55 -273.35 -140.55 -275.4 -140.75 Q-276.45 -141.0 -276.45 -141.3 -276.45 -141.6 -275.4 -141.8 L-273.35 -142.05 533.65 -142.05 M535.9 -137.75 L533.65 -137.55 -273.35 -137.55 -275.4 -137.75 Q-276.45 -138.0 -276.45 -138.3 -276.45 -138.6 -275.4 -138.8 L-273.35 -139.05 533.65 -139.05 535.9 -138.8 Q536.7 -138.6 536.7 -138.3 L535.9 -137.75 M535.9 -146.75 L533.65 -146.55 -273.35 -146.55 -275.4 -146.75 Q-276.45 -147.0 -276.45 -147.3 -276.45 -147.6 -275.4 -147.8 L-273.35 -148.05 533.65 -148.05 535.9 -147.8 Q536.7 -147.6 536.7 -147.3 L535.9 -146.75 M535.9 -143.75 L533.65 -143.55 -273.35 -143.55 -275.4 -143.75 Q-276.45 -144.0 -276.45 -144.3 -276.45 -144.6 -275.4 -144.8 L-273.35 -145.05 533.65 -145.05 535.9 -144.8 Q536.7 -144.6 536.7 -144.3 L535.9 -143.75 M535.9 -149.75 L533.65 -149.55 -273.35 -149.55 -275.4 -149.75 Q-276.45 -150.0 -276.45 -150.3 -276.45 -150.6 -275.4 -150.8 L-273.65 -151.05 533.95 -151.05 535.9 -150.8 Q536.7 -150.6 536.7 -150.3 L535.9 -149.75" fill="#000000" fill-opacity="0.4" fill-rule="evenodd" stroke="none"/>
    <path d="M2.15 7.2 L315.2 7.2 315.2 194.2 297.7 210.2 47.35 210.2 2.15 210.2 2.15 7.2" fill="#171717" fill-rule="evenodd" stroke="none"/>
    <path d="M2.15 7.2 L315.2 7.2 315.2 194.2 297.7 210.2 47.35 210.2 2.15 210.2" fill="none" stroke="url(#gradient1)" stroke-linecap="round" stroke-linejoin="round" stroke-width="1.0"/>
  </g>
  <defs>
    <radialGradient cx="0" cy="0" gradientTransform="matrix(-3.0E-4, -0.3177, 0.3759, -0.0085, 131.2, 70.65)" gradientUnits="userSpaceOnUse" id="gradient0" r="819.2" spreadMethod="pad">
      <stop offset="0.0" stop-color="#ffffff" stop-opacity="0.4509804"/>
      <stop offset="1.0" stop-color="#000000" stop-opacity="0.0"/>
    </radialGradient>
    <linearGradient gradientTransform="matrix(0.0353, -0.1358, 0.1204, 0.0313, 146.65, 143.7)" gradientUnits="userSpaceOnUse" id="gradient1" spreadMethod="pad" x1="-819.2" x2="819.2">
      <stop offset="0.0" stop-color="#ffffff"/>
      <stop offset="1.0" stop-color="#ffffff" stop-opacity="0.0"/>
    </linearGradient>
  </defs>
</svg>
