<?xml version="1.0" encoding="UTF-8" standalone="no"?>
<svg xmlns:xlink="http://www.w3.org/1999/xlink" height="95.6px" width="804.6px" xmlns="http://www.w3.org/2000/svg">
  <g transform="matrix(1.0, 0.0, 0.0, 1.0, 2.1, -32.9)">
    <path d="M801.7 58.5 L1.65 58.5 1.65 56.5 801.7 56.5 801.7 58.5" fill="#000000" fill-rule="evenodd" stroke="none"/>
    <path d="M801.7 62.5 L1.65 62.5 1.65 60.5 801.7 60.5 801.7 62.5" fill="#000000" fill-rule="evenodd" stroke="none"/>
    <path d="M801.7 66.5 L1.65 66.5 1.65 64.5 801.7 64.5 801.7 66.5" fill="#000000" fill-rule="evenodd" stroke="none"/>
    <path d="M801.7 70.5 L1.65 70.5 1.65 68.5 801.7 68.5 801.7 70.5" fill="#000000" fill-rule="evenodd" stroke="none"/>
    <path d="M801.7 74.5 L1.65 74.5 1.65 72.5 801.7 72.5 801.7 74.5" fill="#000000" fill-rule="evenodd" stroke="none"/>
    <path d="M801.7 78.5 L1.65 78.5 1.65 76.5 801.7 76.5 801.7 78.5" fill="#000000" fill-rule="evenodd" stroke="none"/>
    <path d="M801.7 82.5 L1.65 82.5 1.65 80.5 801.7 80.5 801.7 82.5" fill="#000000" fill-rule="evenodd" stroke="none"/>
    <path d="M801.7 86.5 L1.65 86.5 1.65 84.5 801.7 84.5 801.7 86.5" fill="#000000" fill-rule="evenodd" stroke="none"/>
    <path d="M801.7 90.5 L1.65 90.5 1.65 88.5 801.7 88.5 801.7 90.5" fill="#000000" fill-rule="evenodd" stroke="none"/>
    <path d="M801.7 94.5 L1.65 94.5 1.65 92.5 801.7 92.5 801.7 94.5" fill="#000000" fill-rule="evenodd" stroke="none"/>
    <path d="M801.7 98.5 L1.65 98.5 1.65 96.5 801.7 96.5 801.7 98.5" fill="#000000" fill-rule="evenodd" stroke="none"/>
    <path d="M801.7 102.5 L1.65 102.5 1.65 100.5 801.7 100.5 801.7 102.5" fill="#000000" fill-rule="evenodd" stroke="none"/>
    <path d="M801.7 106.5 L1.65 106.5 1.65 104.5 801.7 104.5 801.7 106.5" fill="#000000" fill-rule="evenodd" stroke="none"/>
    <path d="M801.7 110.5 L1.65 110.5 1.65 108.5 801.7 108.5 801.7 110.5" fill="#000000" fill-rule="evenodd" stroke="none"/>
    <path d="M801.7 114.5 L1.65 114.5 1.65 112.5 801.7 112.5 801.7 114.5" fill="#000000" fill-rule="evenodd" stroke="none"/>
    <path d="M801.7 118.5 L1.65 118.5 1.65 116.5 801.7 116.5 801.7 118.5" fill="#000000" fill-rule="evenodd" stroke="none"/>
    <path d="M801.7 122.5 L1.65 122.5 1.65 120.5 801.7 120.5 801.7 122.5" fill="#000000" fill-rule="evenodd" stroke="none"/>
    <path d="M801.7 126.5 L1.65 126.5 1.65 124.5 801.7 124.5 801.7 126.5" fill="#000000" fill-rule="evenodd" stroke="none"/>
    <path d="M802.0 53.5 L802.0 128.5 2.0 128.5 2.0 61.5 -1.6 61.5 -1.6 33.4 452.4 33.45 460.1 41.25 462.65 43.85 472.0 53.5 802.0 53.5" fill="url(#gradient0)" fill-rule="evenodd" stroke="none"/>
    <path d="M452.4 33.45 L460.1 41.25 462.65 43.85 472.0 53.5 802.0 53.5" fill="none" stroke="url(#gradient1)" stroke-linecap="butt" stroke-linejoin="miter" stroke-width="1.0"/>
    <path d="M-1.6 33.4 L452.4 33.45 Z" fill="none" stroke="url(#gradient2)" stroke-linecap="butt" stroke-linejoin="miter" stroke-width="1.0"/>
  </g>
  <defs>
    <linearGradient gradientTransform="matrix(-1.0E-4, 0.0721, -0.058, 0.0, 401.15, 29.9)" gradientUnits="userSpaceOnUse" id="gradient0" spreadMethod="pad" x1="-819.2" x2="819.2">
      <stop offset="0.0" stop-color="#006fb0"/>
      <stop offset="1.0" stop-color="#000000"/>
    </linearGradient>
    <linearGradient gradientTransform="matrix(0.4911, 0.0, 0.0, 0.0587, 400.2, 80.95)" gradientUnits="userSpaceOnUse" id="gradient1" spreadMethod="pad" x1="-819.2" x2="819.2">
      <stop offset="0.0" stop-color="#00c9ff"/>
      <stop offset="0.1843137254901961" stop-color="#07cefa" stop-opacity="0.9137255"/>
      <stop offset="0.4588235294117647" stop-color="#1bdaec" stop-opacity="0.68235296"/>
      <stop offset="0.7803921568627451" stop-color="#3befd5" stop-opacity="0.3019608"/>
      <stop offset="1.0" stop-color="#55ffc3" stop-opacity="0.0"/>
    </linearGradient>
    <linearGradient gradientTransform="matrix(0.4911, 0.0, 0.0, 0.0587, 400.2, 80.95)" gradientUnits="userSpaceOnUse" id="gradient2" spreadMethod="pad" x1="-819.2" x2="819.2">
      <stop offset="0.0" stop-color="#00c9ff" stop-opacity="0.0"/>
      <stop offset="0.07450980392156863" stop-color="#00c9ff"/>
      <stop offset="0.1843137254901961" stop-color="#07cefa" stop-opacity="0.9137255"/>
      <stop offset="0.4588235294117647" stop-color="#1bdaec" stop-opacity="0.68235296"/>
      <stop offset="0.7803921568627451" stop-color="#3befd5" stop-opacity="0.3019608"/>
      <stop offset="1.0" stop-color="#55ffc3" stop-opacity="0.0"/>
    </linearGradient>
  </defs>
</svg>
