<?xml version="1.0" encoding="UTF-8" standalone="no"?>
<svg xmlns:xlink="http://www.w3.org/1999/xlink" height="56.5px" width="294.75px" xmlns="http://www.w3.org/2000/svg">
  <g transform="matrix(1.0, 0.0, 0.0, 1.0, 0.0, 0.0)">
    <path d="M154.65 15.1 L154.75 24.85 116.35 25.2 106.5 8.55 148.85 8.55 154.65 15.1 M286.25 17.25 L294.75 21.25 294.75 25.0 274.0 25.0 269.0 38.75 263.0 38.75 262.75 17.5 286.25 17.25 M94.0 3.0 L73.5 17.5 73.0 32.0 Q72.4 29.25 70.2 26.5 65.8 21.0 58.0 21.0 50.2 21.0 45.55 27.0 44.1 28.85 43.15 31.15 L42.5 33.0 42.0 56.5 27.5 56.5 13.55 36.95 Q-0.3 17.3 0.0 17.0 L17.5 0.5 95.0 0.0 94.0 3.0" fill="#9c2200" fill-opacity="0.6117647" fill-rule="evenodd" stroke="none"/>
  </g>
</svg>
