<?xml version="1.0" encoding="UTF-8" standalone="no"?>
<svg xmlns:xlink="http://www.w3.org/1999/xlink" height="34.25px" width="452.2px" xmlns="http://www.w3.org/2000/svg">
  <g transform="matrix(1.0, 0.0, 0.0, 1.0, 28.95, 5.35)">
    <path d="M396.45 -4.85 L-28.45 -4.85" fill="none" stroke="url(#gradient0)" stroke-linecap="butt" stroke-linejoin="miter" stroke-width="1.0"/>
    <path d="M423.25 -3.65 L393.05 27.35 -27.55 27.35 -27.55 -3.65 423.25 -3.65" fill="url(#gradient1)" fill-rule="evenodd" stroke="none"/>
    <path d="M-28.75 28.9 L-28.75 -3.05 -6.7 -3.05 -6.7 28.9 -28.75 28.9" fill="url(#gradient2)" fill-rule="evenodd" stroke="none"/>
    <path d="M17.45 22.25 L18.45 28.15 13.15 25.35 7.85 28.15 8.9 22.25 4.55 18.1 10.5 17.3 13.15 11.9 15.8 17.3 21.75 18.1 17.45 22.25" fill="#000000" fill-opacity="0.2" fill-rule="evenodd" stroke="none"/>
    <path d="M37.2 22.25 L38.2 28.15 32.9 25.35 27.6 28.15 28.65 22.25 24.35 18.1 30.25 17.3 32.9 11.9 35.55 17.3 41.5 18.1 37.2 22.25" fill="#000000" fill-opacity="0.2" fill-rule="evenodd" stroke="none"/>
    <path d="M56.65 22.25 L57.65 28.15 52.35 25.35 47.05 28.15 48.1 22.25 43.75 18.1 49.7 17.3 52.35 11.9 55.0 17.3 60.95 18.1 56.65 22.25" fill="#000000" fill-opacity="0.2" fill-rule="evenodd" stroke="none"/>
  </g>
  <defs>
    <linearGradient gradientTransform="matrix(0.2597, -0.0047, 0.0, -6.0E-4, 184.0, -4.85)" gradientUnits="userSpaceOnUse" id="gradient0" spreadMethod="pad" x1="-819.2" x2="819.2">
      <stop offset="0.25882352941176473" stop-color="#8c0000"/>
      <stop offset="1.0" stop-color="#000000"/>
    </linearGradient>
    <linearGradient gradientTransform="matrix(0.0, -0.0454, -0.0456, 0.0, 191.3, 27.5)" gradientUnits="userSpaceOnUse" id="gradient1" spreadMethod="pad" x1="-819.2" x2="819.2">
      <stop offset="0.0" stop-color="#ff0000"/>
      <stop offset="1.0" stop-color="#ff0000" stop-opacity="0.0"/>
    </linearGradient>
    <linearGradient gradientTransform="matrix(0.02, 0.0, 0.0, -0.0215, -23.65, 120.95)" gradientUnits="userSpaceOnUse" id="gradient2" spreadMethod="pad" x1="-819.2" x2="819.2">
      <stop offset="0.0" stop-color="#000000"/>
      <stop offset="0.9411764705882353" stop-color="#000000" stop-opacity="0.12156863"/>
      <stop offset="1.0" stop-color="#000000" stop-opacity="0.0"/>
    </linearGradient>
  </defs>
</svg>
