<?xml version="1.0" encoding="UTF-8" standalone="no"?>
<svg xmlns:xlink="http://www.w3.org/1999/xlink" height="2562.75px" width="954.3px" xmlns="http://www.w3.org/2000/svg">
  <g transform="matrix(1.0, 0.0, 0.0, 1.0, 0.0, 0.0)">
    <path d="M723.95 1003.3 L724.45 1017.0 Q725.3 1040.55 736.85 1094.8 L745.55 1135.35 Q750.05 1156.65 751.45 1167.0 L759.15 1225.95 775.3 1353.1 775.85 1345.9 776.85 1306.1 777.45 1277.95 Q784.25 1264.1 790.75 1247.4 803.8 1214.05 802.55 1200.0 801.05 1183.05 777.85 1122.35 754.55 1061.45 743.35 1045.4 737.75 1037.35 723.95 1003.3 M750.35 427.4 L766.85 442.6 Q777.3 453.1 784.65 463.65 804.9 492.7 805.85 528.4 806.95 568.35 804.25 593.3 801.8 615.45 792.85 654.4 L798.2 664.75 Q804.55 678.8 809.5 697.2 825.25 756.1 820.85 836.4 L835.15 874.1 Q850.3 915.2 854.35 932.4 858.2 948.7 861.9 1009.35 866.45 1083.5 866.85 1087.4 L878.85 1180.4 880.25 1227.2 Q882.0 1276.85 883.85 1290.9 885.75 1304.95 885.5 1353.6 885.35 1377.9 884.85 1399.4 L846.35 1460.9 Q842.75 1466.6 838.35 1463.85 834.45 1461.4 832.05 1454.0 829.85 1454.75 827.5 1453.3 L822.35 1449.4 Q817.6 1446.0 821.3 1433.45 815.65 1433.05 815.45 1424.3 815.25 1415.55 820.85 1408.9 828.0 1400.4 849.25 1356.3 848.75 1347.55 847.35 1341.4 844.55 1328.9 836.4 1318.4 833.85 1315.1 831.1 1312.45 L828.85 1310.4 818.6 1320.15 Q807.85 1331.15 805.35 1337.4 804.2 1340.25 803.8 1347.4 L802.8 1360.35 Q800.3 1377.1 787.85 1382.9 782.45 1385.4 779.15 1384.35 789.35 1467.75 791.95 1498.45 795.7 1542.5 779.2 1658.4 770.95 1716.35 761.95 1765.45 L765.7 1791.5 Q769.45 1818.9 769.45 1825.45 769.45 1832.0 764.95 1857.9 L760.45 1882.45 766.45 1935.15 Q772.45 1991.0 772.45 2006.95 772.45 2018.3 764.75 2083.45 756.75 2151.3 755.95 2177.95 755.0 2208.9 759.15 2237.75 761.2 2252.2 763.45 2260.45 L797.0 2302.45 Q832.65 2346.65 842.95 2357.9 853.05 2368.95 900.35 2402.9 L950.95 2438.9 Q955.65 2442.65 953.75 2461.4 952.85 2470.8 950.95 2479.4 L895.65 2485.05 Q834.5 2490.3 805.45 2488.4 790.1 2487.4 773.95 2482.05 765.45 2479.2 746.95 2471.15 730.55 2464.0 721.1 2461.4 706.6 2457.4 692.95 2458.4 664.15 2460.55 640.25 2456.9 619.0 2453.65 604.45 2446.4 604.85 2429.55 606.9 2404.05 611.0 2353.05 619.45 2309.9 622.45 2293.8 622.65 2270.2 623.0 2222.95 608.95 2185.45 593.95 2145.4 579.5 2072.95 574.0 2045.15 570.35 2021.35 566.95 1999.05 566.95 1991.95 566.95 1975.9 572.8 1950.5 576.5 1934.3 585.5 1903.45 594.95 1871.1 597.95 1858.65 603.45 1835.9 602.95 1823.95 593.2 1801.45 583.45 1771.85 563.95 1712.6 563.95 1676.95 563.95 1634.45 553.65 1553.2 543.4 1472.55 530.95 1415.95 L509.4 1479.9 Q487.25 1547.75 484.45 1567.45 478.9 1606.5 469.1 1638.35 452.75 1691.4 424.45 1729.45 L422.75 1756.25 Q420.9 1784.4 419.95 1790.95 419.0 1797.5 413.4 1815.15 L407.95 1831.45 406.85 1872.15 Q404.6 1920.5 398.95 1958.95 395.9 1979.7 386.65 2007.95 380.15 2027.7 368.05 2058.35 352.7 2097.0 350.25 2103.65 341.95 2126.2 340.5 2137.45 336.0 2171.95 327.0 2227.45 L337.7 2293.25 Q349.3 2363.35 354.0 2384.9 358.55 2405.8 382.5 2460.85 L398.7 2497.35 Q406.05 2513.75 406.45 2515.4 407.75 2520.55 409.25 2532.45 410.95 2545.65 410.95 2552.9 410.95 2559.8 346.3 2561.9 294.0 2563.6 258.0 2561.9 235.5 2560.85 223.15 2542.6 211.8 2525.9 213.0 2501.9 212.5 2497.2 211.1 2495.4 210.0 2494.0 207.75 2493.85 L203.3 2493.65 Q200.35 2493.3 198.0 2491.4 192.95 2487.35 194.45 2459.7 195.3 2443.6 201.0 2390.9 205.25 2351.7 206.05 2320.25 206.7 2294.95 205.5 2248.45 205.05 2231.05 200.75 2183.1 195.2 2122.75 192.4 2090.0 181.55 1964.15 186.0 1925.95 188.5 1904.5 201.35 1875.95 209.0 1858.9 227.65 1825.25 245.75 1792.55 252.25 1777.65 263.0 1753.0 262.5 1736.95 262.25 1729.45 259.05 1690.55 255.95 1652.8 255.2 1622.2 252.7 1521.9 271.5 1412.95 290.25 1304.25 303.75 1241.25 307.95 1221.55 311.15 1208.8 L313.5 1200.0 319.5 1095.0 Q316.5 1050.4 312.4 1003.15 304.15 908.65 298.5 895.5 295.85 889.3 274.4 847.25 252.25 803.85 241.9 780.55 230.85 808.35 216.35 833.95 209.1 846.8 204.05 854.05 204.45 912.4 197.95 959.4 194.7 982.9 191.35 994.7 183.05 1016.9 173.95 1046.85 163.55 1081.15 156.35 1112.05 137.7 1192.3 148.35 1214.9 158.35 1236.15 179.6 1267.15 190.25 1282.65 198.85 1293.9 L198.6 1327.55 Q198.85 1363.3 201.35 1373.9 L202.0 1376.2 Q202.5 1378.95 201.9 1381.25 199.95 1388.65 187.45 1388.95 174.6 1389.25 167.0 1368.35 162.65 1356.25 160.45 1337.95 159.5 1329.8 150.9 1323.7 144.45 1319.05 139.5 1318.45 136.35 1318.05 134.25 1337.3 132.05 1357.2 133.85 1374.9 136.55 1401.3 138.05 1412.65 140.7 1432.95 143.35 1439.9 146.15 1447.2 145.3 1466.8 144.5 1485.6 142.35 1486.9 138.85 1489.0 133.25 1489.1 125.2 1489.2 120.35 1483.4 L120.1 1483.05 Q115.25 1489.85 105.95 1488.25 102.1 1487.6 99.05 1485.55 95.9 1483.5 94.85 1480.9 L94.2 1479.05 Q91.2 1479.75 87.7 1479.1 82.0 1478.0 76.85 1473.4 74.5 1471.25 70.6 1463.0 70.0 1464.4 68.85 1464.4 63.85 1464.4 59.35 1461.15 L55.85 1457.9 Q51.75 1450.55 46.9 1441.05 37.3 1422.05 33.85 1411.4 29.9 1399.05 26.85 1381.4 25.9 1378.55 25.6 1373.6 L25.35 1371.9 25.55 1371.85 25.5 1367.95 29.45 1305.75 Q32.7 1252.6 30.0 1239.0 27.2 1224.95 25.3 1208.05 L24.0 1194.0 Q18.0 1158.4 12.0 1115.25 0.0 1029.0 0.0 991.5 0.0 943.2 5.45 913.9 11.85 879.3 30.0 843.0 50.35 802.35 65.05 761.65 81.4 716.45 90.0 673.5 97.15 637.75 90.55 604.5 L84.75 579.0 Q81.45 564.4 81.0 553.5 80.45 540.55 87.35 520.5 93.7 502.0 104.8 481.7 115.65 461.85 127.6 446.55 140.1 430.55 149.95 424.5 166.85 414.2 205.85 407.05 225.35 403.5 241.45 402.0 277.1 387.0 340.85 362.25 372.7 349.9 397.45 340.5 L402.45 241.85 Q400.05 237.55 398.0 231.35 396.85 227.8 394.45 219.05 392.2 188.75 390.3 155.65 386.5 89.45 388.35 75.4 391.85 49.1 412.4 29.85 443.15 1.05 503.95 0.05 566.45 -0.95 601.1 34.0 627.2 60.35 632.95 100.55 631.1 117.45 629.0 138.8 624.9 181.55 623.95 204.05 622.95 228.3 611.6 261.05 602.4 287.5 592.45 304.55 L588.65 310.35 Q591.4 337.35 594.8 360.6 622.7 375.4 673.35 402.9 L682.7 404.35 Q694.2 406.3 704.75 408.8 738.5 416.8 750.35 427.4" fill="#000000" fill-rule="evenodd" stroke="none"/>
  </g>
</svg>
