<?xml version="1.0" encoding="UTF-8" standalone="no"?>
<svg xmlns:xlink="http://www.w3.org/1999/xlink" height="67.0px" width="123.45px" xmlns="http://www.w3.org/2000/svg">
  <g transform="matrix(1.0, 0.0, 0.0, 1.0, -28.2, -339.8)">
    <path d="M29.4 342.3 L32.2 344.65 Q37.05 348.6 38.75 348.6 L39.15 348.55 39.45 348.6 44.55 348.6 51.3 347.8 Q53.25 347.45 53.85 346.65 L54.15 346.6 54.4 346.55 54.45 348.3 54.45 351.4 54.55 352.4 Q54.3 352.75 54.3 353.55 L54.3 355.65 54.45 359.25 54.35 361.05 Q54.3 362.15 54.65 362.7 L54.95 363.4 Q55.5 363.4 55.75 364.3 55.95 364.9 55.95 366.45 L55.9 367.15 56.25 369.4 55.8 370.5 Q55.35 371.1 55.35 371.75 L55.45 373.25 55.4 373.7 58.0 379.9 Q59.8 384.15 61.65 387.3 64.9 392.8 65.45 394.85 65.85 396.3 65.85 401.55 L65.8 403.0 65.85 403.25 Q65.85 404.55 62.6 405.55 59.2 406.65 54.6 406.65 L49.65 406.55 49.4 406.8 45.15 406.7 37.0 405.75 36.6 405.55 36.3 405.6 Q34.7 405.6 32.95 401.1 L31.5 396.6 30.5 395.8 29.75 395.1 Q28.5 394.95 28.2 393.4 L28.2 391.7 Q28.2 388.55 28.95 379.95 L29.7 371.35 29.35 370.5 Q28.95 370.1 28.95 369.45 L29.25 365.25 Q29.35 364.8 29.85 364.3 L30.45 363.45 30.75 361.35 29.4 342.3 M121.85 340.5 L122.4 343.9 Q123.1 348.6 124.35 351.3 L125.75 354.9 127.1 358.65 Q127.9 360.4 129.6 363.35 L131.0 366.0 130.95 366.35 130.95 366.4 Q131.8 366.85 132.55 367.85 L135.3 371.25 138.8 373.95 Q141.0 375.75 142.95 376.8 149.5 380.35 150.9 382.85 151.65 384.2 151.65 389.1 L151.65 390.85 Q151.55 391.9 151.0 392.1 150.25 392.85 147.3 393.35 L138.65 394.8 131.7 394.8 126.3 394.15 124.3 393.7 Q124.05 393.9 123.8 393.9 122.05 393.9 117.75 391.3 L117.25 391.0 115.75 390.4 113.8 389.5 113.5 389.55 113.1 389.45 106.55 389.4 Q101.3 390.1 97.4 388.55 94.4 387.3 94.2 386.15 93.6 385.5 93.45 382.5 L93.45 378.7 Q93.45 373.95 93.6 372.3 93.95 369.05 95.25 365.7 L95.85 359.7 96.3 352.7 Q96.3 351.45 95.35 347.05 94.4 342.7 94.4 341.4 L94.4 341.15 94.05 340.75 93.55 340.1 96.3 339.8 96.85 340.0 100.95 341.25 104.4 342.6 Q107.7 343.8 108.4 343.8 L112.3 342.95 116.45 341.75 121.55 340.55 121.85 340.5" fill="#1b1b1b" fill-rule="evenodd" stroke="none"/>
  </g>
</svg>
