<?xml version="1.0" encoding="UTF-8" standalone="no"?>
<svg xmlns:xlink="http://www.w3.org/1999/xlink" height="77.4px" width="97.95px" xmlns="http://www.w3.org/2000/svg">
  <g transform="matrix(1.0, 0.0, 0.0, 1.0, -28.5, -264.9)">
    <path d="M104.05 269.15 L106.3 266.95 108.05 265.75 108.3 265.65 108.25 265.65 109.0 265.1 109.25 264.95 109.6 264.9 113.7 265.3 120.05 265.3 120.6 265.8 120.4 266.1 Q121.35 267.1 122.05 269.05 L124.45 274.05 126.45 278.45 126.45 287.5 125.2 292.0 124.05 295.3 124.1 297.75 Q124.1 301.95 123.35 306.75 L121.95 316.45 120.7 325.75 119.9 329.15 118.7 330.4 Q115.8 332.8 114.35 333.4 L112.05 334.15 111.3 334.0 Q104.65 332.95 102.8 332.05 L99.4 330.7 Q97.35 329.95 97.0 329.5 L94.45 326.95 Q92.95 324.85 91.8 321.7 L90.6 318.7 90.55 318.6 89.75 314.65 Q87.6 307.55 87.6 306.1 87.6 301.6 90.0 296.6 90.8 294.95 91.35 294.15 91.05 293.4 91.0 292.0 L91.05 288.8 Q90.15 277.0 90.15 274.6 90.15 273.4 90.5 273.0 L90.45 272.95 90.65 272.85 90.65 272.65 91.05 272.7 91.4 272.6 96.2 272.8 100.05 272.8 101.05 272.65 102.6 270.7 104.05 269.15 M32.25 293.6 Q33.85 291.5 35.75 289.9 L36.5 289.35 35.9 286.95 35.9 286.7 35.7 286.45 36.45 284.9 38.45 279.35 41.0 271.35 40.8 271.2 41.0 270.65 42.85 270.55 44.25 270.85 45.85 269.7 Q47.6 268.85 51.45 266.65 L54.85 265.25 61.7 267.0 Q67.8 268.8 68.75 270.3 L68.85 270.4 Q68.7 271.15 68.7 272.2 L68.85 272.75 68.85 272.8 70.45 280.05 71.65 284.05 Q69.25 297.75 66.2 299.25 L66.45 300.1 Q66.45 301.7 59.8 319.75 55.0 332.7 52.85 339.1 L50.75 340.65 Q49.0 341.9 45.55 342.25 L45.4 342.3 41.0 341.15 Q36.15 339.65 34.85 338.45 L33.05 336.55 31.35 334.8 30.6 333.55 29.9 332.15 29.5 330.85 30.15 328.8 Q31.2 325.7 31.2 324.85 L30.9 321.5 29.7 313.8 28.5 305.45 Q28.5 303.9 28.9 302.6 L29.4 298.85 29.55 298.85 30.65 296.55 32.25 293.6" fill="#1b1b1b" fill-rule="evenodd" stroke="none"/>
  </g>
</svg>
