<?xml version="1.0" encoding="UTF-8" standalone="no"?>
<svg xmlns:xlink="http://www.w3.org/1999/xlink" height="54.9px" width="139.4px" xmlns="http://www.w3.org/2000/svg">
  <g transform="matrix(1.0, 0.0, 0.0, 1.0, -1.8, -176.15)">
    <path d="M18.7 183.0 Q22.5 184.5 23.15 185.8 L23.15 185.7 Q23.55 186.8 23.55 188.85 L23.6 190.4 23.75 192.7 23.75 192.75 Q25.65 194.55 28.95 198.75 L32.4 203.45 32.5 203.65 32.55 203.85 32.55 204.05 32.55 204.7 32.5 205.65 32.0 207.55 Q31.6 209.7 31.65 212.1 L31.7 213.6 31.45 213.65 31.2 213.65 31.05 213.7 30.4 213.65 30.1 213.6 29.75 213.6 27.5 214.0 25.3 214.4 Q24.35 214.4 24.25 213.15 L24.2 211.35 Q24.35 210.35 24.15 209.85 23.85 209.15 22.7 209.0 L22.3 212.6 21.9 216.6 Q21.9 218.5 23.1 227.0 L23.1 227.45 23.25 227.85 22.95 228.35 23.0 228.5 Q23.0 228.95 20.15 230.0 17.35 231.05 16.25 231.05 15.8 231.05 15.3 230.0 L15.0 229.35 14.2 229.65 12.0 230.25 Q11.15 230.25 11.0 228.7 L9.65 228.75 9.3 228.75 9.25 228.75 9.2 228.75 7.85 228.6 7.65 228.6 Q6.95 228.6 5.6 226.2 4.2 223.8 3.9 222.0 1.8 216.2 1.8 215.55 L2.1 210.55 2.25 208.5 2.1 204.15 2.15 202.4 2.2 202.25 Q1.95 202.1 2.1 201.75 2.1 201.1 2.45 200.85 2.6 200.3 3.5 199.2 L4.8 197.25 4.9 197.0 Q3.25 196.0 3.0 194.55 2.9 193.85 2.95 192.6 L3.0 191.25 2.9 189.25 2.75 187.8 2.95 187.05 3.4 186.7 Q3.75 185.45 5.55 184.1 8.25 182.0 12.2 181.85 L13.4 181.75 Q14.75 181.5 18.7 183.0 M137.55 177.35 L138.05 180.95 138.3 184.6 139.05 187.8 138.75 188.8 138.45 189.9 138.35 190.45 138.9 190.8 139.3 191.35 139.7 191.8 139.8 191.55 Q141.2 200.3 141.2 211.1 L140.6 212.0 140.1 212.55 140.25 216.65 140.35 219.25 140.1 221.3 140.1 221.4 Q140.1 221.85 134.35 228.15 L133.9 228.05 133.65 228.15 Q133.2 226.55 131.65 225.55 L131.4 225.4 Q130.6 224.65 129.8 224.6 L129.8 224.55 129.75 224.55 Q129.1 224.55 128.55 223.25 L128.15 221.95 Q128.15 221.25 129.95 218.8 L131.75 216.05 131.3 212.35 130.5 208.5 130.0 208.45 129.9 208.45 129.95 208.6 126.05 213.5 125.85 213.4 125.25 212.5 Q123.95 210.8 122.3 210.65 L122.2 209.9 122.25 208.7 122.1 205.75 122.1 203.8 Q122.1 200.55 122.35 199.6 122.6 198.6 123.2 197.65 123.65 195.65 125.0 193.2 L126.0 191.05 124.95 190.4 124.2 190.05 Q124.0 188.2 122.85 183.3 L121.5 179.6 121.4 179.25 Q123.2 177.65 128.6 176.7 L135.75 176.5 Q136.15 176.35 136.75 176.7 137.5 177.1 137.55 177.35" fill="#1a1a1a" fill-rule="evenodd" stroke="none"/>
  </g>
</svg>
