<?xml version="1.0" encoding="UTF-8" standalone="no"?>
<svg xmlns:xlink="http://www.w3.org/1999/xlink" height="119.95px" width="86.35px" xmlns="http://www.w3.org/2000/svg">
  <g transform="matrix(1.0, 0.0, 0.0, 1.0, -33.4, -54.3)">
    <path d="M115.3 72.2 Q119.75 82.95 119.75 87.5 L119.45 88.1 119.0 88.3 118.45 89.7 117.8 91.35 118.3 92.2 118.8 92.9 118.0 99.6 118.3 102.8 Q118.25 105.4 116.6 105.55 L116.85 106.65 116.75 109.25 116.85 111.95 Q116.9 112.5 117.95 114.65 118.95 116.75 118.95 117.25 L118.95 122.6 Q118.95 124.2 119.5 127.7 119.7 130.75 118.3 132.05 L118.2 132.05 117.9 132.3 117.3 133.05 117.3 139.35 Q118.3 139.2 118.8 139.65 L119.05 140.25 Q119.05 146.65 117.8 148.3 L117.15 148.3 117.15 150.65 117.35 153.25 117.5 155.8 Q118.65 155.45 119.0 156.35 L119.1 157.35 Q119.1 160.25 117.45 164.0 114.85 169.85 109.85 169.85 L109.8 169.85 108.55 171.55 106.65 174.05 103.95 173.75 103.1 173.6 101.7 173.75 93.85 174.25 89.7 173.85 89.55 173.8 89.3 173.8 Q88.9 173.8 86.75 172.05 L84.1 170.1 83.7 170.2 69.45 170.2 52.75 168.95 Q49.0 168.5 48.2 167.65 L47.95 167.65 Q46.35 167.65 45.75 164.7 L45.2 160.35 44.8 156.75 44.5 153.15 Q41.15 141.25 41.15 138.85 L41.2 133.8 Q41.9 132.45 42.25 132.85 49.4 130.55 51.6 125.2 53.15 118.9 55.05 115.85 56.9 112.8 59.1 106.85 L59.6 104.55 Q59.8 103.1 60.2 102.35 60.2 101.2 60.35 100.45 59.35 97.95 57.95 92.0 57.95 91.7 58.3 90.9 L58.6 89.95 Q58.6 89.2 50.6 78.55 44.9 71.05 43.3 69.5 L42.75 69.95 Q41.85 69.95 42.1 68.7 42.45 67.1 41.4 66.2 40.65 65.55 37.45 64.7 L34.15 63.75 33.85 63.9 33.4 63.6 Q40.55 57.6 54.55 54.5 L54.6 54.3 Q59.9 54.75 68.7 65.05 75.45 72.95 76.55 75.95 L76.75 75.9 78.65 75.75 Q81.1 75.75 82.05 76.4 L95.45 76.35 98.5 75.45 99.7 75.3 99.9 74.4 Q99.9 71.95 99.45 70.35 L97.75 66.1 Q94.5 58.5 94.5 57.9 L94.5 57.85 94.25 57.2 94.35 56.7 104.95 60.5 Q110.95 63.05 112.65 65.9 L112.6 66.3 115.3 72.2" fill="#1b1b1b" fill-rule="evenodd" stroke="none"/>
  </g>
</svg>
