<?xml version="1.0" encoding="UTF-8" standalone="no"?>
<svg xmlns:xlink="http://www.w3.org/1999/xlink" height="55.1px" width="47.15px" xmlns="http://www.w3.org/2000/svg">
  <g transform="matrix(1.0, 0.0, 0.0, 1.0, -55.05, 2.1)">
    <path d="M84.0 -2.1 Q94.75 -1.45 99.3 6.8 102.15 12.0 102.15 19.25 102.35 21.9 101.45 21.9 L101.3 21.85 100.6 22.05 100.45 22.8 100.9 24.8 100.8 28.2 Q100.9 30.35 100.35 31.3 L100.35 32.8 Q101.2 32.6 101.3 34.15 L101.3 37.2 101.4 42.65 101.1 43.5 100.4 43.95 Q100.35 49.7 100.1 51.05 L100.1 51.15 Q100.1 52.0 98.9 52.35 L91.1 53.0 Q85.6 53.0 78.25 49.55 71.45 46.35 70.5 43.25 L69.55 43.8 Q67.65 44.7 65.4 44.7 60.45 44.7 57.4 38.55 55.05 33.95 55.05 30.15 55.05 27.8 55.45 25.4 56.05 21.7 57.35 22.05 L57.3 19.55 Q57.3 11.35 60.3 7.0 65.35 -0.5 79.8 -2.1 L84.0 -2.1" fill="#1b1b1b" fill-rule="evenodd" stroke="none"/>
  </g>
</svg>
