<?xml version="1.0" encoding="UTF-8" standalone="no"?>
<svg xmlns:xlink="http://www.w3.org/1999/xlink" height="65.7px" width="45.6px" xmlns="http://www.w3.org/2000/svg">
  <g transform="matrix(1.0, 0.0, 0.0, 1.0, 4.25, 25.15)">
    <path d="M28.05 -25.15 L29.3 -25.15 29.3 -4.65 28.05 -4.65 28.05 -25.15 M27.2 -4.65 L23.35 -4.65 23.35 -25.15 23.85 -25.15 27.2 -25.15 27.2 -4.65 M20.0 -4.65 L17.8 -4.65 17.8 -25.15 18.45 -25.15 20.0 -25.15 20.0 -4.65 M14.45 -4.65 L10.75 -4.65 10.75 -25.15 14.45 -25.15 14.45 -4.65 M9.9 -4.65 L8.45 -4.65 8.45 -25.15 9.9 -25.15 9.9 -4.65" fill="#a0c9c5" fill-rule="evenodd" stroke="none"/>
    <path d="M27.2 -25.15 L28.05 -25.15 28.05 -4.65 27.2 -4.65 27.2 -25.15 M23.35 -4.65 L20.0 -4.65 20.0 -25.15 23.35 -25.15 23.35 -4.65 M17.8 -4.65 L14.45 -4.65 14.45 -25.15 17.8 -25.15 17.8 -4.65 M10.75 -4.65 L9.9 -4.65 9.9 -25.15 10.75 -25.15 10.75 -4.65" fill="#ffffff" fill-rule="evenodd" stroke="none"/>
    <path d="M9.4 -5.65 L8.45 -6.6 8.45 -7.3 10.1 -5.65 9.4 -5.65 M8.5 -8.75 L8.5 -9.45 12.3 -5.65 11.6 -5.65 8.5 -8.75 M10.75 -8.75 L10.75 -8.8 8.45 -11.15 8.45 -11.8 14.6 -5.65 13.85 -5.65 10.75 -8.75 M8.5 -22.35 L8.5 -23.05 25.85 -5.65 25.15 -5.65 8.5 -22.35 M8.5 -17.8 L8.5 -18.5 21.35 -5.65 20.65 -5.65 8.5 -17.8 M8.5 -13.3 L8.5 -14.0 16.8 -5.65 16.1 -5.65 8.5 -13.3 M10.75 -17.8 L10.75 -17.85 8.45 -20.2 8.45 -20.9 23.65 -5.65 22.9 -5.65 10.75 -17.8 M10.75 -13.3 L10.75 -13.35 8.45 -15.65 8.45 -16.35 19.15 -5.65 18.35 -5.65 10.75 -13.3 M10.75 -22.35 L10.75 -22.4 8.45 -24.7 8.45 -25.1 8.75 -25.1 26.95 -6.9 26.95 -6.8 28.1 -5.65 27.4 -5.65 10.75 -22.35 M12.5 -25.1 L13.3 -25.1 26.95 -11.4 26.95 -11.35 29.1 -9.2 29.1 -8.5 12.5 -25.1 M10.25 -25.1 L10.95 -25.1 29.1 -6.95 29.1 -6.25 10.25 -25.1 M17.05 -25.1 L17.8 -25.1 26.95 -15.9 26.95 -15.85 29.1 -13.7 29.1 -13.0 17.05 -25.1 M19.3 -25.1 L20.0 -25.1 29.1 -15.95 29.1 -15.3 19.3 -25.1 M14.8 -25.1 L15.5 -25.1 29.1 -11.45 29.1 -10.75 14.8 -25.1 M24.5 -25.1 L29.1 -20.5 29.1 -19.85 23.85 -25.1 24.5 -25.1 M21.55 -25.1 L22.3 -25.1 26.95 -20.45 26.95 -20.35 29.1 -18.2 29.1 -17.55 21.55 -25.1 M26.1 -25.1 L26.85 -25.1 26.95 -25.0 26.95 -24.9 29.1 -22.75 29.1 -22.1 26.1 -25.1 M28.35 -25.1 L29.05 -25.1 29.1 -25.05 29.1 -24.35 28.35 -25.1" fill="#000000" fill-opacity="0.2" fill-rule="evenodd" stroke="none"/>
    <path d="M29.3 -5.35 L8.45 -5.35 8.45 -25.15 29.3 -25.15 29.3 -5.35" fill="url(#gradient0)" fill-rule="evenodd" stroke="none"/>
    <path d="M33.75 1.25 L34.9 4.15 33.7 8.0 29.35 5.25 33.75 1.25" fill="url(#gradient1)" fill-rule="evenodd" stroke="none"/>
    <path d="M33.75 1.25 L29.35 5.25 26.95 1.25 31.0 0.3 33.75 1.25" fill="url(#gradient2)" fill-rule="evenodd" stroke="none"/>
    <path d="M41.35 17.45 L40.1 20.05 36.55 22.25 35.45 17.55 41.35 17.45" fill="url(#gradient3)" fill-rule="evenodd" stroke="none"/>
    <path d="M35.45 17.55 L36.5 12.65 40.1 14.6 41.35 17.45 35.45 17.55" fill="url(#gradient4)" fill-rule="evenodd" stroke="none"/>
    <path d="M7.1 5.7 L2.9 8.25 1.7 4.35 2.85 1.45 7.1 5.7" fill="url(#gradient5)" fill-rule="evenodd" stroke="none"/>
    <path d="M2.85 1.45 L5.6 0.5 9.65 1.45 7.1 5.7 2.85 1.45" fill="url(#gradient6)" fill-rule="evenodd" stroke="none"/>
    <path d="M-4.25 17.15 L-3.0 14.55 0.5 12.4 1.5 17.2 -4.25 17.15" fill="url(#gradient7)" fill-rule="evenodd" stroke="none"/>
    <path d="M1.5 17.2 L0.55 22.0 -3.05 20.05 -4.25 17.15 1.5 17.2" fill="url(#gradient8)" fill-rule="evenodd" stroke="none"/>
    <path d="M19.0 40.55 L16.4 39.3 14.2 35.75 18.9 34.45 19.0 40.55" fill="url(#gradient9)" fill-rule="evenodd" stroke="none"/>
    <path d="M2.65 33.95 L6.75 29.75 9.5 33.95 5.45 34.9 2.65 33.95" fill="url(#gradient10)" fill-rule="evenodd" stroke="none"/>
    <path d="M2.65 33.95 L1.55 31.1 2.7 27.2 6.75 29.75 2.65 33.95" fill="url(#gradient11)" fill-rule="evenodd" stroke="none"/>
    <path d="M18.9 34.45 L23.75 35.75 21.8 39.35 19.0 40.55 18.9 34.45" fill="url(#gradient12)" fill-rule="evenodd" stroke="none"/>
    <path d="M29.6 30.15 L34.2 27.4 35.4 31.3 34.25 34.2 29.6 30.15" fill="url(#gradient13)" fill-rule="evenodd" stroke="none"/>
    <path d="M34.25 34.2 L31.5 35.15 27.45 34.2 29.6 30.15 34.25 34.2" fill="url(#gradient14)" fill-rule="evenodd" stroke="none"/>
    <path d="M31.85 31.4 Q26.3 37.05 18.5 37.05 10.65 37.05 5.1 31.4 -0.45 25.9 -0.45 18.1 -0.45 10.25 5.1 4.7 10.65 -0.85 18.5 -0.85 26.3 -0.85 31.85 4.7 37.45 10.25 37.45 18.1 37.45 25.9 31.85 31.4 M35.5 18.1 Q35.5 14.75 34.4 11.9 33.15 8.65 30.45 6.0 26.7 2.25 21.85 1.35 L18.5 1.05 Q15.05 1.05 12.1 2.25 8.95 3.5 6.4 6.0 L6.25 6.25 Q2.85 9.75 1.85 14.3 1.45 16.1 1.45 18.1 1.45 20.85 2.25 23.35 3.45 27.1 6.4 30.05 11.45 35.1 18.5 35.1 L19.95 35.05 Q23.5 34.75 26.5 33.1 28.65 31.95 30.45 30.05 32.2 28.3 33.4 26.3 34.95 23.65 35.35 20.55 L35.5 18.1" fill="url(#gradient15)" fill-rule="evenodd" stroke="none"/>
    <path d="M35.5 18.1 L35.35 20.55 Q34.95 23.65 33.4 26.3 32.2 28.3 30.45 30.05 28.65 31.95 26.5 33.1 23.5 34.75 19.95 35.05 L18.5 35.1 Q11.45 35.1 6.4 30.05 3.45 27.1 2.25 23.35 1.45 20.85 1.45 18.1 1.45 16.1 1.85 14.3 2.85 9.75 6.25 6.25 L6.4 6.0 Q8.95 3.5 12.1 2.25 15.05 1.05 18.5 1.05 L21.85 1.35 Q26.7 2.25 30.45 6.0 33.15 8.65 34.4 11.9 35.5 14.75 35.5 18.1" fill="url(#gradient16)" fill-rule="evenodd" stroke="none"/>
    <path d="M37.05 17.8 L37.15 17.9 37.05 18.0 18.7 36.55 18.6 36.65 18.5 36.55 0.1 18.0 0.05 17.9 0.1 17.8 18.5 -0.75 18.6 -0.8 18.7 -0.75 37.05 17.8 M36.75 17.9 L18.6 -0.45 0.4 17.9 18.6 36.25 36.75 17.9" fill="#565656" fill-rule="evenodd" stroke="none"/>
    <path d="M37.05 17.8 L18.7 -0.75 18.6 -0.8 18.5 -0.75 0.1 17.8 0.05 17.9 0.1 18.0 18.5 36.55 18.6 36.65 18.7 36.55 37.05 18.0 37.15 17.9 37.05 17.8 M38.35 17.9 L18.6 37.9 -1.2 17.9 18.6 -2.05 38.35 17.9" fill="url(#gradient17)" fill-rule="evenodd" stroke="none"/>
    <path d="M35.55 17.9 L18.6 0.75 18.55 0.8 1.6 17.9 1.8 18.1 18.6 35.05 18.8 34.85 35.55 17.9 M36.75 17.9 L18.6 36.25 0.4 17.9 18.6 -0.45 36.75 17.9" fill="url(#gradient18)" fill-rule="evenodd" stroke="none"/>
    <path d="M32.5 17.95 L32.5 17.9 18.6 3.85 18.55 0.8 18.6 0.75 35.55 17.9 32.5 17.95" fill="url(#gradient19)" fill-rule="evenodd" stroke="none"/>
    <path d="M18.6 3.85 L32.5 17.9 32.5 17.95 18.75 31.8 18.55 32.0 4.8 18.1 4.6 17.9 18.55 3.8 18.6 3.85" fill="url(#gradient20)" fill-rule="evenodd" stroke="none"/>
    <path d="M32.5 17.95 L35.55 17.9 18.8 34.85 18.75 31.8 32.5 17.95" fill="url(#gradient21)" fill-rule="evenodd" stroke="none"/>
    <path d="M18.55 0.8 L18.6 3.85 18.55 3.8 4.6 17.9 4.8 18.1 1.8 18.1 1.6 17.9 18.55 0.8" fill="url(#gradient22)" fill-rule="evenodd" stroke="none"/>
    <path d="M4.8 18.1 L18.55 32.0 18.75 31.8 18.8 34.85 18.6 35.05 1.8 18.1 4.8 18.1" fill="url(#gradient23)" fill-rule="evenodd" stroke="none"/>
    <path d="M6.8 -8.4 L6.75 -8.4 6.75 -7.55 6.75 -3.5 6.2 -3.05 6.2 -7.55 6.2 -8.9 6.8 -8.4 M30.95 -3.5 L30.95 -7.65 30.95 -8.4 31.5 -8.9 31.5 -7.65 31.5 -3.05 30.95 -3.5" fill="#3c3c3c" fill-rule="evenodd" stroke="none"/>
    <path d="M6.75 -3.5 L6.75 -7.55 6.75 -8.4 6.8 -8.4 8.4 -8.4 8.4 -5.4 8.4 -4.9 29.35 -4.9 29.35 -5.4 29.35 -8.4 30.95 -8.4 30.95 -7.65 30.95 -3.5 19.25 -3.5 18.85 -4.45 18.4 -3.5 18.1 -4.0 17.95 -3.5 6.75 -3.5" fill="#7b7b7b" fill-rule="evenodd" stroke="none"/>
    <path d="M6.8 -8.4 L6.2 -8.9 8.15 -8.9 8.35 -8.9 8.4 -8.9 8.4 -8.4 6.8 -8.4 M30.95 -8.4 L29.35 -8.4 29.35 -8.9 29.4 -8.9 29.65 -8.9 31.5 -8.9 30.95 -8.4 M29.35 -5.4 L29.35 -4.9 8.4 -4.9 8.4 -5.4 29.35 -5.4" fill="#d0d0d0" fill-rule="evenodd" stroke="none"/>
    <path d="M6.2 -3.05 L6.75 -3.5 17.95 -3.5 17.8 -3.05 17.7 -3.05 6.2 -3.05 M19.25 -3.5 L30.95 -3.5 31.5 -3.05 19.45 -3.05 19.25 -3.5" fill="#121212" fill-rule="evenodd" stroke="none"/>
    <path d="M17.95 -3.5 L18.1 -4.0 18.4 -3.5 18.85 -4.45 19.25 -3.5 19.45 -3.05 21.35 -2.0 22.05 -0.15 20.85 -0.45 20.3 -0.45 20.25 -0.65 19.8 -1.45 18.45 -1.9 17.15 -1.45 16.7 -0.45 16.15 -0.45 16.1 -0.5 15.1 -0.2 15.85 -2.0 17.7 -3.05 17.8 -3.05 17.95 -3.5" fill="#808080" fill-rule="evenodd" stroke="none"/>
    <path d="M16.7 -0.45 L17.15 -1.45 18.45 -1.9 19.8 -1.45 20.25 -0.65 20.3 -0.45 19.65 -0.45 19.35 -0.95 Q19.0 -1.35 18.45 -1.35 18.05 -1.35 17.6 -0.95 L17.35 -0.45 16.7 -0.45" fill="#202020" fill-rule="evenodd" stroke="none"/>
  </g>
  <defs>
    <linearGradient gradientTransform="matrix(0.0, 0.0123, -0.0184, 0.0, 18.85, -15.35)" gradientUnits="userSpaceOnUse" id="gradient0" spreadMethod="pad" x1="-819.2" x2="819.2">
      <stop offset="0.00784313725490196" stop-color="#ffffff" stop-opacity="0.4509804"/>
      <stop offset="0.12549019607843137" stop-color="#000000" stop-opacity="0.16470589"/>
      <stop offset="0.39215686274509803" stop-color="#000000" stop-opacity="0.0627451"/>
      <stop offset="0.8431372549019608" stop-color="#000000" stop-opacity="0.0"/>
      <stop offset="1.0" stop-color="#000000" stop-opacity="0.6509804"/>
    </linearGradient>
    <linearGradient gradientTransform="matrix(0.0046, 0.0092, 0.0037, -0.0018, 31.65, 8.1)" gradientUnits="userSpaceOnUse" id="gradient1" spreadMethod="pad" x1="-819.2" x2="819.2">
      <stop offset="0.0" stop-color="#000000"/>
      <stop offset="1.0" stop-color="#ffffff"/>
    </linearGradient>
    <linearGradient gradientTransform="matrix(-0.0025, -0.006, -0.003, 0.0012, 31.1, 3.85)" gradientUnits="userSpaceOnUse" id="gradient2" spreadMethod="pad" x1="-819.2" x2="819.2">
      <stop offset="0.0" stop-color="#000000"/>
      <stop offset="1.0" stop-color="#ffffff"/>
    </linearGradient>
    <linearGradient gradientTransform="matrix(0.0025, 0.006, -0.003, 0.0012, 38.45, 20.7)" gradientUnits="userSpaceOnUse" id="gradient3" spreadMethod="pad" x1="-819.2" x2="819.2">
      <stop offset="0.0" stop-color="#000000"/>
      <stop offset="1.0" stop-color="#ffffff"/>
    </linearGradient>
    <linearGradient gradientTransform="matrix(0.0, -0.0103, 0.0041, 0.0, 37.1, 18.4)" gradientUnits="userSpaceOnUse" id="gradient4" spreadMethod="pad" x1="-819.2" x2="819.2">
      <stop offset="0.0" stop-color="#000000"/>
      <stop offset="1.0" stop-color="#ffffff"/>
    </linearGradient>
    <linearGradient gradientTransform="matrix(-0.0061, 0.0083, -0.0033, -0.0024, 4.55, 7.05)" gradientUnits="userSpaceOnUse" id="gradient5" spreadMethod="pad" x1="-819.2" x2="819.2">
      <stop offset="0.0" stop-color="#000000"/>
      <stop offset="1.0" stop-color="#ffffff"/>
    </linearGradient>
    <linearGradient gradientTransform="matrix(0.0025, -0.006, 0.003, 0.0012, 5.5, 4.05)" gradientUnits="userSpaceOnUse" id="gradient6" spreadMethod="pad" x1="-819.2" x2="819.2">
      <stop offset="0.0" stop-color="#000000"/>
      <stop offset="1.0" stop-color="#ffffff"/>
    </linearGradient>
    <linearGradient gradientTransform="matrix(-0.0025, -0.006, 0.003, -0.0012, -0.55, 17.2)" gradientUnits="userSpaceOnUse" id="gradient7" spreadMethod="pad" x1="-819.2" x2="819.2">
      <stop offset="0.0" stop-color="#000000"/>
      <stop offset="1.0" stop-color="#ffffff"/>
    </linearGradient>
    <linearGradient gradientTransform="matrix(-0.0015, 0.0102, -0.0041, -6.0E-4, 0.15, 22.3)" gradientUnits="userSpaceOnUse" id="gradient8" spreadMethod="pad" x1="-819.2" x2="819.2">
      <stop offset="0.0" stop-color="#000000"/>
      <stop offset="1.0" stop-color="#ffffff"/>
    </linearGradient>
    <linearGradient gradientTransform="matrix(-0.0018, 0.0107, -0.0032, -6.0E-4, 14.45, 41.45)" gradientUnits="userSpaceOnUse" id="gradient9" spreadMethod="pad" x1="-819.2" x2="819.2">
      <stop offset="0.0" stop-color="#000000"/>
      <stop offset="1.0" stop-color="#ffffff"/>
    </linearGradient>
    <linearGradient gradientTransform="matrix(0.0025, 0.006, 0.003, -0.0012, 6.45, 35.1)" gradientUnits="userSpaceOnUse" id="gradient10" spreadMethod="pad" x1="-819.2" x2="819.2">
      <stop offset="0.0" stop-color="#000000"/>
      <stop offset="1.0" stop-color="#ffffff"/>
    </linearGradient>
    <linearGradient gradientTransform="matrix(0.003, 0.0099, 0.0039, -0.0012, 3.75, 33.35)" gradientUnits="userSpaceOnUse" id="gradient11" spreadMethod="pad" x1="-819.2" x2="819.2">
      <stop offset="0.0" stop-color="#000000"/>
      <stop offset="1.0" stop-color="#ffffff"/>
    </linearGradient>
    <linearGradient gradientTransform="matrix(-0.002, 0.0101, -0.004, -8.0E-4, 19.55, 39.05)" gradientUnits="userSpaceOnUse" id="gradient12" spreadMethod="pad" x1="-819.2" x2="819.2">
      <stop offset="0.0" stop-color="#000000"/>
      <stop offset="1.0" stop-color="#ffffff"/>
    </linearGradient>
    <linearGradient gradientTransform="matrix(-0.003, 0.0099, -0.0039, -0.0012, 33.15, 33.6)" gradientUnits="userSpaceOnUse" id="gradient13" spreadMethod="pad" x1="-819.2" x2="819.2">
      <stop offset="0.0" stop-color="#000000"/>
      <stop offset="1.0" stop-color="#ffffff"/>
    </linearGradient>
    <linearGradient gradientTransform="matrix(-0.0025, 0.006, -0.003, -0.0012, 29.9, 34.4)" gradientUnits="userSpaceOnUse" id="gradient14" spreadMethod="pad" x1="-819.2" x2="819.2">
      <stop offset="0.0" stop-color="#000000"/>
      <stop offset="1.0" stop-color="#ffffff"/>
    </linearGradient>
    <linearGradient gradientTransform="matrix(-0.0077, -0.0218, 0.0218, -0.0077, 18.5, 18.1)" gradientUnits="userSpaceOnUse" id="gradient15" spreadMethod="pad" x1="-819.2" x2="819.2">
      <stop offset="0.00784313725490196" stop-color="#414141"/>
      <stop offset="0.6823529411764706" stop-color="#b8b8b8"/>
      <stop offset="1.0" stop-color="#d2d2d2"/>
    </linearGradient>
    <linearGradient gradientTransform="matrix(0.0208, 0.0, 0.0, 0.0208, 18.5, 18.1)" gradientUnits="userSpaceOnUse" id="gradient16" spreadMethod="pad" x1="-819.2" x2="819.2">
      <stop offset="0.00784313725490196" stop-color="#414141"/>
      <stop offset="0.6823529411764706" stop-color="#b8b8b8"/>
      <stop offset="1.0" stop-color="#d2d2d2"/>
    </linearGradient>
    <linearGradient gradientTransform="matrix(-5.0E-4, 0.0241, -0.0244, -5.0E-4, 18.6, 17.95)" gradientUnits="userSpaceOnUse" id="gradient17" spreadMethod="pad" x1="-819.2" x2="819.2">
      <stop offset="0.0" stop-color="#d2d2d2"/>
      <stop offset="1.0" stop-color="#000000"/>
    </linearGradient>
    <linearGradient gradientTransform="matrix(-1.0E-4, -0.0224, 0.0226, -1.0E-4, 18.55, 17.9)" gradientUnits="userSpaceOnUse" id="gradient18" spreadMethod="pad" x1="-819.2" x2="819.2">
      <stop offset="0.0" stop-color="#d2d2d2"/>
      <stop offset="1.0" stop-color="#000000"/>
    </linearGradient>
    <radialGradient cx="0" cy="0" gradientTransform="matrix(0.0159, 0.016, -0.0159, 0.016, 22.9, 13.7)" gradientUnits="userSpaceOnUse" id="gradient19" r="819.2" spreadMethod="pad">
      <stop offset="0.0" stop-color="#c9efff"/>
      <stop offset="0.7647058823529411" stop-color="#004a62"/>
      <stop offset="1.0" stop-color="#655e79"/>
    </radialGradient>
    <radialGradient cx="0" cy="0" gradientTransform="matrix(0.0271, 0.0273, -0.0271, 0.0273, 25.0, 37.35)" gradientUnits="userSpaceOnUse" id="gradient20" r="819.2" spreadMethod="pad">
      <stop offset="0.0" stop-color="#c9efff"/>
      <stop offset="0.7647058823529411" stop-color="#004a62"/>
      <stop offset="1.0" stop-color="#655e79"/>
    </radialGradient>
    <radialGradient cx="0" cy="0" gradientTransform="matrix(0.0159, 0.016, -0.0159, 0.016, 14.7, 14.05)" gradientUnits="userSpaceOnUse" id="gradient21" r="819.2" spreadMethod="pad">
      <stop offset="0.0" stop-color="#c9efff"/>
      <stop offset="0.7647058823529411" stop-color="#004a62"/>
      <stop offset="1.0" stop-color="#655e79"/>
    </radialGradient>
    <radialGradient cx="0" cy="0" gradientTransform="matrix(0.0159, 0.016, -0.0159, 0.016, 11.8, 9.1)" gradientUnits="userSpaceOnUse" id="gradient22" r="819.2" spreadMethod="pad">
      <stop offset="0.0" stop-color="#c9efff"/>
      <stop offset="0.7647058823529411" stop-color="#004a62"/>
      <stop offset="1.0" stop-color="#655e79"/>
    </radialGradient>
    <radialGradient cx="0" cy="0" gradientTransform="matrix(0.0279, 0.0282, -0.0279, 0.0282, 25.25, 10.0)" gradientUnits="userSpaceOnUse" id="gradient23" r="819.2" spreadMethod="pad">
      <stop offset="0.0" stop-color="#c9efff"/>
      <stop offset="0.7647058823529411" stop-color="#004a62"/>
      <stop offset="1.0" stop-color="#655e79"/>
    </radialGradient>
  </defs>
</svg>
