<?xml version="1.0" encoding="UTF-8" standalone="no"?>
<svg xmlns:xlink="http://www.w3.org/1999/xlink" height="90.4px" width="332.35px" xmlns="http://www.w3.org/2000/svg">
  <g transform="matrix(1.0, 0.0, 0.0, 1.0, -4.25, 4.5)">
    <path d="M336.5 77.9 L329.0 85.9 4.25 85.9 4.25 69.3 4.25 61.45 4.25 32.05 4.25 3.55 11.85 -4.5 336.5 -4.5 336.5 77.9" fill="#000000" fill-opacity="0.8" fill-rule="evenodd" stroke="none"/>
    <path d="M336.6 76.1 L336.6 78.15 329.65 85.25 4.25 85.55 4.3 84.1 329.05 84.1 336.6 76.1" fill="url(#gradient0)" fill-rule="evenodd" stroke="none"/>
    <path d="M242.7 24.3 Q194.4 24.3 166.15 24.55 137.95 24.8 86.35 23.9 34.75 22.95 27.0 22.45 L171.45 22.45 317.5 22.4 Q290.6 24.3 242.7 24.3" fill="url(#gradient1)" fill-rule="evenodd" stroke="none"/>
  </g>
  <defs>
    <radialGradient cx="0" cy="0" gradientTransform="matrix(0.1434, 0.0, 0.0, -0.1532, 170.4, 80.4)" gradientUnits="userSpaceOnUse" id="gradient0" r="819.2" spreadMethod="pad">
      <stop offset="0.1607843137254902" stop-color="#cc0000"/>
      <stop offset="1.0" stop-color="#660000"/>
    </radialGradient>
    <radialGradient cx="0" cy="0" gradientTransform="matrix(0.179, 0.0, 0.0, 0.3841, 172.2, 23.5)" gradientUnits="userSpaceOnUse" id="gradient1" r="819.2" spreadMethod="pad">
      <stop offset="0.0" stop-color="#ff0000"/>
      <stop offset="1.0" stop-color="#ff0000" stop-opacity="0.0"/>
    </radialGradient>
  </defs>
</svg>
