<?xml version="1.0" encoding="UTF-8" standalone="no"?>
<svg xmlns:xlink="http://www.w3.org/1999/xlink" height="110.4px" width="332.35px" xmlns="http://www.w3.org/2000/svg">
  <g transform="matrix(1.0, 0.0, 0.0, 1.0, -4.25, 4.5)">
    <path d="M336.5 97.9 L329.0 105.9 4.25 105.9 4.25 89.3 4.25 81.45 4.25 32.05 4.25 3.55 11.85 -4.5 336.5 -4.5 336.5 97.9" fill="#000000" fill-opacity="0.8" fill-rule="evenodd" stroke="none"/>
    <path d="M336.6 96.1 L336.6 98.15 329.65 105.25 4.25 105.55 4.3 104.1 329.05 104.1 336.6 96.1" fill="url(#gradient0)" fill-rule="evenodd" stroke="none"/>
    <path d="M242.7 27.3 Q194.4 27.3 166.15 27.55 137.95 27.8 86.35 26.9 34.75 25.95 27.0 25.45 L171.45 25.45 317.5 25.4 Q290.6 27.3 242.7 27.3" fill="url(#gradient1)" fill-rule="evenodd" stroke="none"/>
  </g>
  <defs>
    <radialGradient cx="0" cy="0" gradientTransform="matrix(0.1434, 0.0, 0.0, -0.1532, 170.4, 100.4)" gradientUnits="userSpaceOnUse" id="gradient0" r="819.2" spreadMethod="pad">
      <stop offset="0.1607843137254902" stop-color="#cc0000"/>
      <stop offset="1.0" stop-color="#660000"/>
    </radialGradient>
    <radialGradient cx="0" cy="0" gradientTransform="matrix(0.179, 0.0, 0.0, 0.3841, 172.2, 26.5)" gradientUnits="userSpaceOnUse" id="gradient1" r="819.2" spreadMethod="pad">
      <stop offset="0.0" stop-color="#ff0000"/>
      <stop offset="1.0" stop-color="#ff0000" stop-opacity="0.0"/>
    </radialGradient>
  </defs>
</svg>
