<?xml version="1.0" encoding="UTF-8" standalone="no"?>
<svg xmlns:xlink="http://www.w3.org/1999/xlink" height="14.8px" width="14.8px" xmlns="http://www.w3.org/2000/svg">
  <g transform="matrix(1.0, 0.0, 0.0, 1.0, 7.3, 7.0)">
    <path d="M-7.3 7.8 L-7.3 -7.0 7.5 -7.0 7.5 7.8 -7.3 7.8" fill="url(#gradient0)" fill-rule="evenodd" stroke="none"/>
    <path d="M-4.65 -3.5 L-1.1 0.0 -1.45 0.4 -4.6 -2.75 -4.65 -3.5 M-4.6 3.55 L-3.45 4.65 0.05 1.15 3.55 4.65 4.8 3.5 4.7 4.25 3.55 5.4 0.05 1.9 -3.45 5.4 -4.6 4.25 -4.6 3.55 M1.6 0.4 L1.2 0.0 4.8 -3.45 4.7 -2.75 1.6 0.4" fill="#000033" fill-opacity="0.16862746" fill-rule="evenodd" stroke="none"/>
    <path d="M-4.65 -3.5 L-4.6 -3.5 -3.45 -4.65 0.05 -1.15 3.55 -4.65 4.7 -3.5 4.8 -3.45 1.2 0.0 1.6 0.4 4.7 3.5 4.8 3.5 3.55 4.65 0.05 1.15 -3.45 4.65 -4.6 3.55 -4.6 3.5 -1.45 0.4 -1.1 0.0 -4.65 -3.5" fill="#ffffff" fill-rule="evenodd" stroke="none"/>
    <path d="M-7.3 6.9 L7.5 6.9 7.5 7.8 -7.3 7.8 -7.3 6.9" fill="url(#gradient1)" fill-rule="evenodd" stroke="none"/>
  </g>
  <defs>
    <linearGradient gradientTransform="matrix(0.0, 0.009, -0.009, 0.0, 0.1, 0.4)" gradientUnits="userSpaceOnUse" id="gradient0" spreadMethod="pad" x1="-819.2" x2="819.2">
      <stop offset="0.0" stop-color="#cc0000"/>
      <stop offset="1.0" stop-color="#660000"/>
    </linearGradient>
    <radialGradient cx="0" cy="0" gradientTransform="matrix(0.0092, 0.0, 0.0, 0.0029, 0.1, 7.4)" gradientUnits="userSpaceOnUse" id="gradient1" r="819.2" spreadMethod="pad">
      <stop offset="0.16470588235294117" stop-color="#ff0000"/>
      <stop offset="1.0" stop-color="#ff0000" stop-opacity="0.078431375"/>
    </radialGradient>
  </defs>
</svg>
