<?xml version="1.0" encoding="UTF-8" standalone="no"?>
<svg xmlns:xlink="http://www.w3.org/1999/xlink" height="515.6px" width="736.25px" xmlns="http://www.w3.org/2000/svg">
  <g transform="matrix(1.0, 0.0, 0.0, 1.0, -21.65, -31.4)">
    <path d="M523.3 32.05 L650.65 32.05 682.75 54.05 757.25 54.05 757.25 547.0 523.3 547.0 523.3 32.05" fill="#000000" fill-rule="evenodd" stroke="none"/>
    <path d="M523.3 32.05 L650.65 32.05 682.75 54.05 757.25 54.05" fill="none" stroke="#851212" stroke-linecap="square" stroke-linejoin="miter" stroke-width="1.0"/>
    <path d="M22.3 32.05 L132.45 32.05 164.55 54.05 256.25 54.05 256.25 547.0 22.3 547.0 22.3 32.05" fill="#000000" fill-rule="evenodd" stroke="none"/>
    <path d="M22.3 32.05 L132.45 32.05 164.55 54.05 256.25 54.05" fill="none" stroke="#851212" stroke-linecap="square" stroke-linejoin="miter" stroke-width="1.0"/>
    <path d="M270.3 32.05 L380.45 32.05 412.55 54.05 504.25 54.05 504.25 547.0 270.3 547.0 270.3 32.05" fill="#000000" fill-rule="evenodd" stroke="none"/>
    <path d="M270.3 32.05 L380.45 32.05 412.55 54.05 504.25 54.05" fill="none" stroke="#851212" stroke-linecap="square" stroke-linejoin="miter" stroke-width="1.0"/>
  </g>
</svg>
