<?xml version="1.0" encoding="UTF-8" standalone="no"?>
<svg xmlns:xlink="http://www.w3.org/1999/xlink" height="21.0px" width="21.4px" xmlns="http://www.w3.org/2000/svg">
  <g transform="matrix(1.0, 0.0, 0.0, 1.0, 3.35, 2.95)">
    <path d="M10.85 5.85 L17.35 6.8 12.65 11.45 13.8 18.05 8.0 14.9 2.2 18.05 3.35 11.45 -1.35 6.8 5.1 5.85 8.0 -0.2 10.85 5.85" fill="#3b0000" fill-rule="evenodd" stroke="none"/>
    <path d="M-2.3 5.15 L4.35 4.2 7.35 -1.85 10.3 4.2 17.0 5.15 12.15 9.8 13.3 16.4 7.35 13.25 1.4 16.4 2.55 9.8 -2.3 5.15" fill="url(#gradient0)" fill-rule="evenodd" stroke="none"/>
    <path d="M-2.3 5.15 L4.35 4.2 7.35 -1.85 10.3 4.2 17.0 5.15 12.15 9.8 13.3 16.4 7.35 13.25 1.4 16.4 2.55 9.8 -2.3 5.15 Z" fill="none" stroke="url(#gradient1)" stroke-linecap="butt" stroke-linejoin="miter" stroke-width="1.0"/>
    <path d="M1.85 2.55 Q4.0 0.4 7.1 0.4 10.2 0.4 12.4 2.55 14.6 4.7 14.6 7.8 14.6 10.85 12.4 13.05 10.2 15.2 7.1 15.2 4.0 15.2 1.85 13.05 -0.35 10.85 -0.35 7.8 -0.35 4.7 1.85 2.55" fill="url(#gradient2)" fill-rule="evenodd" stroke="none"/>
    <path d="M-0.35 8.5 Q-0.35 5.4 1.85 3.25 4.0 1.1 7.1 1.1 10.2 1.1 12.4 3.25 14.6 5.4 14.6 8.5 14.6 11.55 12.4 13.75 10.2 15.9 7.1 15.9 4.0 15.9 1.85 13.75 -0.35 11.55 -0.35 8.5" fill="url(#gradient3)" fill-rule="evenodd" stroke="none"/>
  </g>
  <defs>
    <radialGradient cx="0" cy="0" gradientTransform="matrix(0.0115, 0.0, 0.0, -0.0114, 7.35, 7.3)" gradientUnits="userSpaceOnUse" id="gradient0" r="819.2" spreadMethod="pad">
      <stop offset="0.0" stop-color="#ff2815"/>
      <stop offset="0.4196078431372549" stop-color="#ff0000"/>
      <stop offset="1.0" stop-color="#820000"/>
    </radialGradient>
    <linearGradient gradientTransform="matrix(0.0, -0.0123, -0.0123, 0.0, 7.35, 7.2)" gradientUnits="userSpaceOnUse" id="gradient1" spreadMethod="pad" x1="-819.2" x2="819.2">
      <stop offset="0.0" stop-color="#999999"/>
      <stop offset="0.07058823529411765" stop-color="#cccccc"/>
      <stop offset="0.9607843137254902" stop-color="#333333"/>
      <stop offset="1.0" stop-color="#4d4d4d"/>
    </linearGradient>
    <radialGradient cx="0" cy="0" gradientTransform="matrix(0.0091, 0.0, 0.0, -0.0091, 7.1, 7.8)" gradientUnits="userSpaceOnUse" id="gradient2" r="819.2" spreadMethod="pad">
      <stop offset="0.0" stop-color="#ff1515"/>
      <stop offset="0.24313725490196078" stop-color="#fb1414" stop-opacity="0.9529412"/>
      <stop offset="0.4627450980392157" stop-color="#f11111" stop-opacity="0.8156863"/>
      <stop offset="0.6705882352941176" stop-color="#df0c0c" stop-opacity="0.5882353"/>
      <stop offset="0.8666666666666667" stop-color="#c50606" stop-opacity="0.26666668"/>
      <stop offset="1.0" stop-color="#b00000" stop-opacity="0.0"/>
    </radialGradient>
    <radialGradient cx="0" cy="0" gradientTransform="matrix(0.0091, 0.0, 0.0, -0.0091, 7.1, 8.5)" gradientUnits="userSpaceOnUse" id="gradient3" r="819.2" spreadMethod="pad">
      <stop offset="0.0" stop-color="#f3cd6b" stop-opacity="0.6"/>
      <stop offset="1.0" stop-color="#de6b35" stop-opacity="0.0"/>
    </radialGradient>
  </defs>
</svg>
