<?xml version="1.0" encoding="UTF-8" standalone="no"?>
<svg xmlns:xlink="http://www.w3.org/1999/xlink" height="72.4px" width="153.7px" xmlns="http://www.w3.org/2000/svg">
  <g transform="matrix(1.0, 0.0, 0.0, 1.0, -35.2, -3.15)">
    <path d="M188.9 39.35 Q188.9 54.3 166.4 64.9 143.9 75.55 112.05 75.55 80.2 75.55 57.7 64.9 35.2 54.3 35.2 39.35 35.2 24.35 57.7 13.7 80.2 3.15 112.05 3.15 143.9 3.15 166.4 13.7 188.9 24.35 188.9 39.35" fill="#0099ff" fill-opacity="0.101960786" fill-rule="evenodd" stroke="none"/>
    <path d="M112.05 69.15 Q87.5 69.15 70.2 60.4 52.9 51.7 52.9 39.35 52.9 27.0 70.2 18.25 87.5 9.55 112.05 9.55 136.55 9.55 153.85 18.25 171.2 27.0 171.2 39.35 171.2 51.7 153.85 60.4 136.55 69.15 112.05 69.15" fill="#0099ff" fill-opacity="0.2" fill-rule="evenodd" stroke="none"/>
    <path d="M152.9 39.35 Q152.9 49.6 140.95 56.8 129.0 64.1 112.05 64.1 95.1 64.1 83.15 56.8 71.2 49.6 71.2 39.35 71.2 29.05 83.15 21.8 95.1 14.6 112.05 14.6 129.0 14.6 140.95 21.8 152.9 29.05 152.9 39.35" fill="#0e91f1" fill-opacity="0.2" fill-rule="evenodd" stroke="none"/>
  </g>
</svg>
