<?xml version="1.0" encoding="UTF-8" standalone="no"?>
<svg xmlns:xlink="http://www.w3.org/1999/xlink" height="21.0px" width="21.4px" xmlns="http://www.w3.org/2000/svg">
  <g transform="matrix(1.0, 0.0, 0.0, 1.0, 3.35, 2.95)">
    <path d="M10.85 5.85 L17.35 6.8 12.65 11.45 13.8 18.05 8.0 14.9 2.2 18.05 3.35 11.45 -1.35 6.8 5.1 5.85 8.0 -0.2 10.85 5.85" fill="#3b0000" fill-rule="evenodd" stroke="none"/>
    <path d="M12.15 9.8 L13.3 16.4 7.35 13.25 1.4 16.4 2.55 9.8 -2.3 5.15 4.35 4.2 7.35 -1.85 10.3 4.2 17.0 5.15 12.15 9.8" fill="url(#gradient0)" fill-rule="evenodd" stroke="none"/>
    <path d="M12.15 9.8 L13.3 16.4 7.35 13.25 1.4 16.4 2.55 9.8 -2.3 5.15 4.35 4.2 7.35 -1.85 10.3 4.2 17.0 5.15 12.15 9.8 Z" fill="none" stroke="url(#gradient1)" stroke-linecap="butt" stroke-linejoin="miter" stroke-width="1.0"/>
  </g>
  <defs>
    <radialGradient cx="0" cy="0" gradientTransform="matrix(0.0115, 0.0, 0.0, -0.0114, 7.35, 7.25)" gradientUnits="userSpaceOnUse" id="gradient0" r="819.2" spreadMethod="pad">
      <stop offset="0.0" stop-color="#3c0100"/>
      <stop offset="1.0" stop-color="#190000"/>
    </radialGradient>
    <linearGradient gradientTransform="matrix(0.0, -0.0123, -0.0123, 0.0, 7.35, 7.15)" gradientUnits="userSpaceOnUse" id="gradient1" spreadMethod="pad" x1="-819.2" x2="819.2">
      <stop offset="0.0" stop-color="#999999"/>
      <stop offset="0.07058823529411765" stop-color="#cccccc"/>
      <stop offset="0.9607843137254902" stop-color="#333333"/>
      <stop offset="1.0" stop-color="#4d4d4d"/>
    </linearGradient>
  </defs>
</svg>
