<?xml version="1.0" encoding="UTF-8" standalone="no"?>
<svg xmlns:xlink="http://www.w3.org/1999/xlink" height="92.8px" width="208.6px" xmlns="http://www.w3.org/2000/svg">
  <g transform="matrix(1.0, 0.0, 0.0, 1.0, 0.6, 0.75)">
    <path d="M207.25 13.85 L207.25 91.3 13.3 91.3 0.15 78.15 0.15 0.0 193.4 0.0 207.25 13.85" fill="url(#gradient0)" fill-rule="evenodd" stroke="none"/>
    <path d="M204.2 24.45 L2.65 24.45 2.65 21.85 204.2 21.85 204.2 24.45 M204.2 18.9 L2.65 18.9 2.65 16.3 204.2 16.3 204.2 18.9 M204.2 13.3 L2.65 13.3 2.65 10.7 204.2 10.7 204.2 13.3 M204.2 41.15 L2.65 41.15 2.65 38.55 204.2 38.55 204.2 41.15 M204.2 35.6 L2.65 35.6 2.65 33.0 204.2 33.0 204.2 35.6 M204.2 46.75 L2.65 46.75 2.65 44.15 204.2 44.15 204.2 46.75 M204.2 30.05 L2.65 30.05 2.65 27.45 204.2 27.45 204.2 30.05 M197.4 5.15 L197.4 7.75 2.65 7.75 2.65 5.15 197.4 5.15 M204.2 57.9 L2.65 57.9 2.65 55.3 204.2 55.3 204.2 57.9 M204.2 52.3 L2.65 52.3 2.65 49.7 204.2 49.7 204.2 52.3 M204.2 69.05 L2.65 69.05 2.65 66.45 204.2 66.45 204.2 69.05 M204.2 74.6 L2.65 74.6 2.65 72.0 204.2 72.0 204.2 74.6 M204.2 85.75 L16.75 85.75 13.4 83.15 204.2 83.15 204.2 85.75 M204.2 63.45 L2.65 63.45 2.65 60.85 204.2 60.85 204.2 63.45 M204.2 80.15 L9.5 80.15 6.15 77.55 204.2 77.55 204.2 80.15 M204.2 90.4 L22.85 90.4 20.7 88.7 204.2 88.7 204.2 90.4" fill="#000000" fill-rule="evenodd" stroke="none"/>
    <path d="M204.2 24.45 L2.65 24.45 2.65 21.85 204.2 21.85 204.2 24.45 M204.2 18.9 L2.65 18.9 2.65 16.3 204.2 16.3 204.2 18.9 M204.2 13.3 L2.65 13.3 2.65 10.7 204.2 10.7 204.2 13.3 M204.2 41.15 L2.65 41.15 2.65 38.55 204.2 38.55 204.2 41.15 M204.2 35.6 L2.65 35.6 2.65 33.0 204.2 33.0 204.2 35.6 M204.2 46.75 L2.65 46.75 2.65 44.15 204.2 44.15 204.2 46.75 M204.2 30.05 L2.65 30.05 2.65 27.45 204.2 27.45 204.2 30.05 M197.4 5.15 L197.4 7.75 2.65 7.75 2.65 5.15 197.4 5.15 M204.2 57.9 L2.65 57.9 2.65 55.3 204.2 55.3 204.2 57.9 M204.2 52.3 L2.65 52.3 2.65 49.7 204.2 49.7 204.2 52.3 M204.2 69.05 L2.65 69.05 2.65 66.45 204.2 66.45 204.2 69.05 M204.2 74.6 L2.65 74.6 2.65 72.0 204.2 72.0 204.2 74.6 M204.2 85.75 L16.75 85.75 13.4 83.15 204.2 83.15 204.2 85.75 M204.2 63.45 L2.65 63.45 2.65 60.85 204.2 60.85 204.2 63.45 M204.2 80.15 L9.5 80.15 6.15 77.55 204.2 77.55 204.2 80.15 M204.2 90.4 L22.85 90.4 20.7 88.7 204.2 88.7 204.2 90.4" fill="#000000" fill-rule="evenodd" stroke="none"/>
    <path d="M207.25 13.85 L193.4 0.0 0.15 0.0 0.15 78.15 13.3 91.3 207.25 91.3 207.25 13.85 Z" fill="none" stroke="url(#gradient1)" stroke-linecap="round" stroke-linejoin="round" stroke-width="1.5"/>
  </g>
  <defs>
    <radialGradient cx="0" cy="0" gradientTransform="matrix(0.0015, -0.0572, 0.1249, 0.0033, 104.1, 44.45)" gradientUnits="userSpaceOnUse" id="gradient0" r="819.2" spreadMethod="pad">
      <stop offset="0.34901960784313724" stop-color="#276894"/>
      <stop offset="1.0" stop-color="#000000"/>
    </radialGradient>
    <linearGradient gradientTransform="matrix(0.0, 0.0541, -0.1413, -1.0E-4, 16.0, 45.6)" gradientUnits="userSpaceOnUse" id="gradient1" spreadMethod="pad" x1="-819.2" x2="819.2">
      <stop offset="0.0" stop-color="#112c3e"/>
      <stop offset="1.0" stop-color="#276894"/>
    </linearGradient>
  </defs>
</svg>
