<?xml version="1.0" encoding="UTF-8" standalone="no"?>
<svg xmlns:xlink="http://www.w3.org/1999/xlink" height="54.0px" width="54.0px" xmlns="http://www.w3.org/2000/svg">
  <g transform="matrix(1.0, 0.0, 0.0, 1.0, 6.55, 6.5)">
    <path d="M41.85 20.55 L30.5 23.2 39.0 31.15 27.85 27.8 31.2 38.95 23.25 30.45 20.6 41.8 17.9 30.45 9.95 38.95 13.3 27.8 2.15 31.15 10.65 23.2 -0.7 20.55 10.65 17.85 2.15 9.9 13.3 13.25 9.95 2.1 17.9 10.6 20.55 -0.7 23.25 10.6 31.2 2.1 27.85 13.25 39.0 9.9 30.5 17.85 41.85 20.55" fill="#ffffff" fill-rule="evenodd" stroke="none"/>
    <path d="M40.25 0.75 L32.15 13.75 47.45 13.25 34.0 20.5 47.45 27.75 32.15 27.25 40.25 40.25 27.2 32.2 27.7 47.5 20.45 34.05 13.2 47.5 13.7 32.2 0.7 40.3 8.75 27.25 -6.55 27.75 6.9 20.55 -6.55 13.25 8.75 13.75 0.7 0.8 13.7 8.8 13.2 -6.5 20.45 7.0 27.7 -6.5 27.2 8.8 40.25 0.75" fill="#ffffff" fill-rule="evenodd" stroke="none"/>
  </g>
</svg>
