<?xml version="1.0" encoding="UTF-8" standalone="no"?>
<svg xmlns:xlink="http://www.w3.org/1999/xlink" height="29.3px" width="29.0px" xmlns="http://www.w3.org/2000/svg">
  <g transform="matrix(1.0, 0.0, 0.0, 1.0, -0.1, -1.4)">
    <path d="M26.25 21.1 Q22.7 27.7 14.7 30.2 6.6 27.85 3.0 21.25 -0.55 14.85 1.2 6.8 3.4 6.05 4.65 4.95 6.05 3.75 6.75 1.9 L22.7 1.9 Q23.25 3.85 24.7 5.05 25.95 6.2 28.15 6.9 29.6 14.9 26.25 21.1" fill="url(#gradient0)" fill-rule="evenodd" stroke="none"/>
    <path d="M26.25 21.1 Q22.7 27.7 14.7 30.2 6.6 27.85 3.0 21.25 -0.55 14.85 1.2 6.8 3.4 6.05 4.65 4.95 6.05 3.75 6.75 1.9 L22.7 1.9 Q23.25 3.85 24.7 5.05 25.95 6.2 28.15 6.9 29.6 14.9 26.25 21.1 Z" fill="none" stroke="url(#gradient1)" stroke-linecap="round" stroke-linejoin="round" stroke-width="1.0"/>
  </g>
  <defs>
    <radialGradient cx="0" cy="0" gradientTransform="matrix(0.0256, 0.0, 0.0, 0.0256, 14.05, 15.2)" gradientUnits="userSpaceOnUse" id="gradient0" r="819.2" spreadMethod="pad">
      <stop offset="0.29411764705882354" stop-color="#666666"/>
      <stop offset="1.0" stop-color="#bfbfbf"/>
    </radialGradient>
    <linearGradient gradientTransform="matrix(-0.0025, -0.0218, 0.0184, -0.0019, 16.3, 15.85)" gradientUnits="userSpaceOnUse" id="gradient1" spreadMethod="pad" x1="-819.2" x2="819.2">
      <stop offset="0.0" stop-color="#000000"/>
      <stop offset="1.0" stop-color="#ffffff"/>
    </linearGradient>
  </defs>
</svg>
