<?xml version="1.0" encoding="UTF-8" standalone="no"?>
<svg xmlns:xlink="http://www.w3.org/1999/xlink" height="15.4px" width="12.8px" xmlns="http://www.w3.org/2000/svg">
  <g transform="matrix(1.0, 0.0, 0.0, 1.0, -8.1, -7.2)">
    <path d="M15.6 10.0 L13.4 10.0 Q11.7 10.0 11.7 11.7 L11.7 18.1 Q11.7 19.8 13.4 19.8 L15.6 19.8 Q17.3 19.8 17.3 18.1 L17.3 11.7 Q17.3 10.0 15.6 10.0 M19.9 18.1 Q19.9 19.95 19.1 20.8 18.25 21.6 16.4 21.6 L12.6 21.6 Q10.75 21.6 9.9 20.8 9.1 19.95 9.1 18.1 L9.1 11.7 Q9.1 9.85 9.9 9.0 10.75 8.2 12.6 8.2 L16.4 8.2 Q18.25 8.2 19.1 9.0 19.9 9.85 19.9 11.7 L19.9 18.1" fill="#000000" fill-rule="evenodd" stroke="none"/>
    <path d="M19.8 21.5 Q18.75 22.6 16.4 22.6 L12.6 22.6 Q10.25 22.6 9.2 21.5 8.1 20.45 8.1 18.1 L8.1 11.7 Q8.1 9.35 9.2 8.3 10.25 7.2 12.6 7.2 L16.4 7.2 Q18.75 7.2 19.8 8.3 20.9 9.35 20.9 11.7 L20.9 18.1 Q20.9 20.45 19.8 21.5 M15.6 10.0 Q17.3 10.0 17.3 11.7 L17.3 18.1 Q17.3 19.8 15.6 19.8 L13.4 19.8 Q11.7 19.8 11.7 18.1 L11.7 11.7 Q11.7 10.0 13.4 10.0 L15.6 10.0 M13.4 11.0 Q12.7 11.0 12.7 11.7 L12.7 18.1 Q12.7 18.8 13.4 18.8 L15.6 18.8 Q16.3 18.8 16.3 18.1 L16.3 11.7 Q16.3 11.0 15.6 11.0 L13.4 11.0 M19.9 18.1 L19.9 11.7 Q19.9 9.85 19.1 9.0 18.25 8.2 16.4 8.2 L12.6 8.2 Q10.75 8.2 9.9 9.0 9.1 9.85 9.1 11.7 L9.1 18.1 Q9.1 19.95 9.9 20.8 10.75 21.6 12.6 21.6 L16.4 21.6 Q18.25 21.6 19.1 20.8 19.9 19.95 19.9 18.1" fill="url(#gradient0)" fill-rule="evenodd" stroke="none"/>
  </g>
  <defs>
    <linearGradient gradientTransform="matrix(0.007, 0.0369, -0.0092, 0.0018, 14.0, 15.4)" gradientUnits="userSpaceOnUse" id="gradient0" spreadMethod="pad" x1="-819.2" x2="819.2">
      <stop offset="0.0" stop-color="#000000"/>
      <stop offset="1.0" stop-color="#ffffff"/>
    </linearGradient>
  </defs>
</svg>
