<?xml version="1.0" encoding="UTF-8" standalone="no"?>
<svg xmlns:xlink="http://www.w3.org/1999/xlink" height="17.95px" width="17.95px" xmlns="http://www.w3.org/2000/svg">
  <g transform="matrix(1.0, 0.0, 0.0, 1.0, 9.0, 8.95)">
    <path d="M-1.4 -8.85 L1.25 -8.85 1.25 -6.55 3.65 -8.95 5.25 -7.35 1.25 -3.35 1.25 -1.3 3.2 -1.3 7.2 -5.3 8.8 -3.7 6.4 -1.3 8.95 -1.3 8.95 1.35 6.45 1.35 8.8 3.7 7.2 5.3 3.25 1.35 1.25 1.35 1.25 3.25 5.25 7.25 3.65 8.85 1.25 6.45 1.25 9.0 -1.4 9.0 -1.4 6.5 -3.75 8.85 -5.35 7.25 -1.4 3.3 -1.4 1.35 -3.45 1.35 -7.4 5.3 -9.0 3.7 -6.65 1.35 -8.9 1.35 -8.9 -1.3 -6.6 -1.3 -9.0 -3.7 -7.4 -5.3 -3.4 -1.3 -1.4 -1.3 -1.4 -3.4 -5.35 -7.35 -3.75 -8.95 -1.4 -6.6 -1.4 -8.85" fill="#ffffff" fill-rule="evenodd" stroke="none"/>
  </g>
</svg>
