<?xml version="1.0" encoding="UTF-8" standalone="no"?>
<svg xmlns:xlink="http://www.w3.org/1999/xlink" height="70.95px" width="150.7px" xmlns="http://www.w3.org/2000/svg">
  <g transform="matrix(1.0, 0.0, 0.0, 1.0, -6.8, 153.0)">
    <path d="M7.3 -153.0 L13.8 -144.1 20.3 -134.75 Q22.75 -130.9 29.9 -125.7 33.6 -123.0 43.65 -116.55 60.0 -106.25 74.25 -99.65 L83.2 -95.7 92.05 -91.75 98.55 -87.65 Q105.15 -84.05 111.5 -84.05 L120.8 -84.3 Q137.2 -85.4 143.5 -88.05 146.5 -89.35 149.7 -90.45 154.0 -91.9 155.9 -91.9 157.6 -91.9 157.5 -91.0 157.5 -90.3 143.75 -86.15 139.85 -84.8 137.0 -84.15 132.2 -83.15 120.75 -82.3 L113.0 -82.15 112.05 -82.05 111.4 -82.05 Q104.6 -82.05 97.6 -85.8 L91.05 -89.9 72.1 -98.4 Q64.75 -101.75 56.4 -106.5 48.5 -111.0 42.25 -115.3 L35.65 -119.5 28.1 -124.5 Q20.95 -129.6 18.75 -133.75 L12.7 -142.15 Q6.8 -150.65 6.8 -152.35 L6.9 -153.0 7.3 -153.0" fill="#333333" fill-rule="evenodd" stroke="none"/>
  </g>
</svg>
