<?xml version="1.0" encoding="UTF-8" standalone="no"?>
<svg xmlns:xlink="http://www.w3.org/1999/xlink" height="15.0px" width="7.9px" xmlns="http://www.w3.org/2000/svg">
  <g transform="matrix(1.0, 0.0, 0.0, 1.0, -9.85, -7.4)">
    <path d="M13.5 10.55 L11.65 11.2 11.0 9.75 14.15 8.4 16.75 8.4 16.75 21.4 14.15 21.4 14.15 11.0 14.05 10.7 13.8 10.55 13.5 10.55" fill="#000000" fill-rule="evenodd" stroke="none"/>
    <path d="M11.55 12.3 L11.15 12.25 10.9 12.0 9.9 9.7 9.9 9.35 Q9.95 9.15 10.15 9.05 L13.85 7.45 14.05 7.4 17.25 7.4 17.6 7.55 17.75 7.9 17.75 21.9 17.6 22.25 17.25 22.4 13.65 22.4 13.3 22.25 13.15 21.9 13.15 11.7 11.55 12.3 M13.5 10.55 L13.8 10.55 14.05 10.7 14.15 11.0 14.15 21.4 16.75 21.4 16.75 8.4 14.15 8.4 11.0 9.75 11.65 11.2 13.5 10.55" fill="url(#gradient0)" fill-rule="evenodd" stroke="none"/>
  </g>
  <defs>
    <linearGradient gradientTransform="matrix(0.0045, 0.0281, -0.009, 0.0015, 13.35, 14.45)" gradientUnits="userSpaceOnUse" id="gradient0" spreadMethod="pad" x1="-819.2" x2="819.2">
      <stop offset="0.0" stop-color="#000000"/>
      <stop offset="1.0" stop-color="#ffffff"/>
    </linearGradient>
  </defs>
</svg>
