<?xml version="1.0" encoding="UTF-8" standalone="no"?>
<svg xmlns:xlink="http://www.w3.org/1999/xlink" height="15.0px" width="11.8px" xmlns="http://www.w3.org/2000/svg">
  <g transform="matrix(1.0, 0.0, 0.0, 1.0, -8.4, -7.4)">
    <path d="M19.2 12.3 Q19.2 13.75 17.95 14.85 L17.95 14.9 17.0 15.6 12.7 18.7 12.55 18.95 12.55 19.25 12.7 19.5 13.0 19.6 19.2 19.6 19.2 21.4 9.4 21.4 9.4 18.35 16.4 13.3 16.55 13.15 16.6 12.9 16.6 11.9 Q16.6 10.2 14.9 10.2 L9.8 10.2 9.8 8.4 15.7 8.4 Q17.55 8.4 18.4 9.2 19.2 10.05 19.2 11.9 L19.2 12.3" fill="#000000" fill-rule="evenodd" stroke="none"/>
    <path d="M18.6 15.65 L18.55 15.65 17.6 16.4 14.55 18.6 19.7 18.6 Q19.9 18.6 20.05 18.75 L20.2 19.1 20.2 21.9 20.05 22.25 19.7 22.4 8.9 22.4 8.55 22.25 8.4 21.9 8.4 18.1 8.45 17.9 8.6 17.7 15.6 12.65 15.6 11.9 Q15.6 11.2 14.9 11.2 L9.3 11.2 8.95 11.05 8.8 10.7 8.8 7.9 8.95 7.55 Q9.1 7.4 9.3 7.4 L15.7 7.4 Q18.05 7.4 19.1 8.5 20.2 9.55 20.2 11.9 L20.2 12.3 Q20.2 14.2 18.6 15.65 M19.2 12.3 L19.2 11.9 Q19.2 10.05 18.4 9.2 17.55 8.4 15.7 8.4 L9.8 8.4 9.8 10.2 14.9 10.2 Q16.6 10.2 16.6 11.9 L16.6 12.9 16.55 13.15 16.4 13.3 9.4 18.35 9.4 21.4 19.2 21.4 19.2 19.6 13.0 19.6 12.7 19.5 12.55 19.25 12.55 18.95 12.7 18.7 17.0 15.6 17.95 14.9 17.95 14.85 Q19.2 13.75 19.2 12.3" fill="url(#gradient0)" fill-rule="evenodd" stroke="none"/>
  </g>
  <defs>
    <linearGradient gradientTransform="matrix(0.0087, 0.0315, -0.0088, 0.0024, 15.1, 12.2)" gradientUnits="userSpaceOnUse" id="gradient0" spreadMethod="pad" x1="-819.2" x2="819.2">
      <stop offset="0.0" stop-color="#000000"/>
      <stop offset="1.0" stop-color="#ffffff"/>
    </linearGradient>
  </defs>
</svg>
