<?xml version="1.0" encoding="UTF-8" standalone="no"?>
<svg xmlns:xlink="http://www.w3.org/1999/xlink" height="89.95px" width="175.8px" xmlns="http://www.w3.org/2000/svg">
  <g transform="matrix(1.0, 0.0, 0.0, 1.0, 2.45, 172.0)">
    <path d="M13.8 -144.1 L20.3 -134.75 Q22.75 -130.9 29.9 -125.7 33.6 -123.0 43.65 -116.55 60.0 -106.25 74.25 -99.65 L83.2 -95.7 92.05 -91.75 98.55 -87.65 Q105.15 -84.05 111.5 -84.05 L120.8 -84.3 Q137.2 -85.4 143.5 -88.05 146.5 -89.35 149.7 -90.45 L154.45 -91.75 156.95 -93.0 162.8 -95.8 167.2 -98.5 Q171.5 -100.85 173.1 -100.5 L173.25 -100.25 173.35 -99.2 Q173.35 -97.8 165.3 -94.0 L153.7 -88.95 153.3 -89.15 143.75 -86.15 Q139.85 -84.8 137.0 -84.15 132.2 -83.15 120.75 -82.3 L113.0 -82.15 112.05 -82.05 111.4 -82.05 Q104.6 -82.05 97.6 -85.8 L91.05 -89.9 72.1 -98.4 Q64.75 -101.75 56.4 -106.5 48.5 -111.0 42.25 -115.3 L35.65 -119.5 28.1 -124.5 Q20.95 -129.6 18.75 -133.75 L12.7 -142.15 9.55 -146.85 9.25 -146.85 Q8.2 -146.85 2.75 -158.9 -2.45 -170.55 -2.45 -171.15 -2.45 -172.55 -2.25 -171.7 1.4 -168.6 5.1 -160.95 9.05 -152.05 11.05 -148.25 L10.9 -148.05 13.8 -144.1" fill="#333333" fill-rule="evenodd" stroke="none"/>
  </g>
</svg>
