<?xml version="1.0" encoding="UTF-8" standalone="no"?>
<svg xmlns:xlink="http://www.w3.org/1999/xlink" height="116.4px" width="44.0px" xmlns="http://www.w3.org/2000/svg">
  <g transform="matrix(1.0, 0.0, 0.0, 1.0, -576.6, -204.5)">
    <path d="M620.25 248.25 L620.35 257.55 Q620.25 263.35 619.1 266.1 L617.85 256.4 Q617.1 250.45 617.1 246.35 617.1 242.55 617.25 238.75 620.25 239.15 620.55 243.4 620.7 245.6 620.25 248.25 M592.6 213.0 Q593.25 215.15 593.7 218.85 L594.0 218.6 594.15 218.85 594.25 219.75 594.05 222.15 594.65 233.35 594.75 233.35 594.65 234.65 594.75 238.6 Q595.45 240.8 597.7 243.75 599.95 246.7 600.65 249.85 L600.9 248.25 601.5 242.9 601.25 240.45 600.5 232.5 600.6 229.05 Q600.8 227.25 601.55 226.95 601.95 225.3 602.75 224.35 602.2 226.65 602.1 229.95 L603.25 238.1 Q604.25 245.05 604.25 249.15 L603.65 255.15 603.0 261.15 Q603.0 261.85 603.7 264.6 L604.35 267.75 Q604.35 273.9 603.15 280.5 L602.6 284.25 602.7 284.9 603.25 288.65 Q603.25 296.85 601.85 303.5 L601.25 303.5 Q601.0 301.65 601.0 297.65 L601.3 294.75 601.1 286.3 601.15 285.65 601.0 284.9 Q601.0 283.25 601.9 276.15 L602.75 269.25 Q602.75 266.55 601.45 262.05 600.1 257.55 600.1 255.55 L599.85 255.6 596.3 246.45 594.75 242.2 594.75 244.35 594.05 249.6 Q593.35 253.4 593.35 255.05 593.35 258.15 594.3 267.3 595.25 276.45 595.25 278.5 L594.3 289.05 Q593.35 299.45 593.35 301.9 593.35 303.4 594.25 308.3 595.1 313.2 595.1 315.25 595.1 316.9 594.5 318.65 593.65 320.9 592.35 320.9 590.95 320.9 590.75 319.35 L590.75 317.65 591.25 313.15 591.75 308.6 591.15 302.9 590.5 297.15 Q590.5 293.4 591.8 285.55 593.1 277.65 593.1 273.9 L592.05 267.75 Q591.0 261.25 591.0 257.8 591.0 254.9 591.75 252.05 592.5 249.25 592.5 244.5 L592.25 241.05 Q591.9 238.05 591.5 237.35 L591.5 229.1 589.15 232.95 Q583.85 240.75 583.35 248.0 L582.85 248.1 582.7 247.95 Q582.5 253.65 581.9 254.8 581.0 256.35 581.0 265.6 L582.0 270.0 Q583.0 274.6 583.0 276.3 583.0 280.25 580.9 284.4 578.75 288.5 578.75 289.05 L579.7 292.8 580.6 296.9 580.5 298.65 Q580.35 299.0 579.1 299.0 L577.9 298.9 577.6 298.75 576.95 295.1 Q576.6 292.9 576.6 292.15 576.6 288.95 579.45 284.5 582.25 280.1 582.25 276.4 582.25 272.75 581.2 269.2 580.1 265.65 580.1 260.3 580.1 255.95 580.85 254.3 581.6 252.65 581.6 248.85 581.6 246.8 580.8 241.9 580.0 237.0 580.0 235.35 L580.1 232.0 579.85 232.5 579.0 232.5 Q578.6 232.35 578.6 231.55 L579.0 206.15 Q579.0 204.7 580.1 204.5 581.7 205.35 582.1 208.85 L582.25 214.1 582.1 223.3 Q581.8 227.0 580.9 229.9 L581.95 236.15 582.25 238.05 Q583.35 233.9 586.2 228.85 588.95 223.9 591.5 221.0 L591.5 214.5 591.35 213.9 592.15 213.3 592.6 213.0 M585.85 234.85 L585.75 235.1 Q586.8 234.65 587.55 233.1 L588.6 230.25 Q587.85 230.7 585.85 234.85 M601.0 256.6 L601.6 259.6 601.45 258.15 601.05 255.55 601.0 256.6 M593.25 256.25 L593.1 263.0 593.25 263.1 593.25 256.1 593.25 256.25" fill="#7c0707" fill-rule="evenodd" stroke="none"/>
  </g>
</svg>
