<?xml version="1.0" encoding="UTF-8" standalone="no"?>
<svg xmlns:xlink="http://www.w3.org/1999/xlink" height="15.2px" width="12.2px" xmlns="http://www.w3.org/2000/svg">
  <g transform="matrix(1.0, 0.0, 0.0, 1.0, -8.2, -7.4)">
    <path d="M19.0 11.5 Q19.0 12.5 18.55 13.15 L17.35 14.05 17.1 14.25 17.0 14.5 17.1 14.8 17.4 15.0 Q18.7 15.35 19.25 16.85 L19.25 16.8 19.4 18.1 19.4 18.3 Q19.4 20.0 18.65 20.85 17.8 21.6 16.1 21.6 L9.2 21.25 9.2 19.55 15.3 19.8 Q15.95 19.8 16.4 19.45 L16.45 19.4 Q16.8 18.95 16.8 18.3 L16.8 17.5 Q16.8 15.8 15.1 15.8 L11.4 15.8 11.4 14.0 14.7 14.0 Q16.4 14.0 16.4 12.3 L16.4 11.9 Q16.4 10.2 14.7 10.2 L9.4 10.2 9.4 8.4 15.7 8.4 Q17.4 8.4 18.25 9.2 L18.25 9.15 Q19.0 9.95 19.0 11.5" fill="#000000" fill-rule="evenodd" stroke="none"/>
    <path d="M19.35 13.75 L18.65 14.5 Q19.7 15.1 20.2 16.5 L20.4 18.1 20.4 18.3 Q20.4 20.5 19.4 21.55 L19.35 21.6 Q18.3 22.6 16.1 22.6 L8.65 22.2 8.35 22.05 8.2 21.7 8.2 19.0 8.3 18.75 8.5 18.55 8.75 18.5 15.3 18.8 15.7 18.7 15.8 18.3 15.8 17.5 Q15.8 16.8 15.1 16.8 L10.9 16.8 10.55 16.65 10.4 16.3 10.4 13.5 10.55 13.15 10.9 13.0 14.7 13.0 Q15.4 13.0 15.4 12.3 L15.4 11.9 Q15.4 11.2 14.7 11.2 L8.9 11.2 8.55 11.05 8.4 10.7 8.4 7.9 8.55 7.55 Q8.7 7.4 8.9 7.4 L15.7 7.4 Q17.9 7.4 18.95 8.45 20.0 9.45 20.0 11.5 20.0 12.9 19.35 13.75 M19.0 11.5 Q19.0 9.95 18.25 9.15 L18.25 9.2 Q17.4 8.4 15.7 8.4 L9.4 8.4 9.4 10.2 14.7 10.2 Q16.4 10.2 16.4 11.9 L16.4 12.3 Q16.4 14.0 14.7 14.0 L11.4 14.0 11.4 15.8 15.1 15.8 Q16.8 15.8 16.8 17.5 L16.8 18.3 Q16.8 18.95 16.45 19.4 L16.4 19.45 Q15.95 19.8 15.3 19.8 L9.2 19.55 9.2 21.25 16.1 21.6 Q17.8 21.6 18.65 20.85 19.4 20.0 19.4 18.3 L19.4 18.1 19.25 16.8 19.25 16.85 Q18.7 15.35 17.4 15.0 L17.1 14.8 17.0 14.5 17.1 14.25 17.35 14.05 18.55 13.15 Q19.0 12.5 19.0 11.5" fill="url(#gradient0)" fill-rule="evenodd" stroke="none"/>
  </g>
  <defs>
    <linearGradient gradientTransform="matrix(0.0056, 0.0183, -0.0089, 0.0027, 14.3, 14.7)" gradientUnits="userSpaceOnUse" id="gradient0" spreadMethod="pad" x1="-819.2" x2="819.2">
      <stop offset="0.0" stop-color="#000000"/>
      <stop offset="1.0" stop-color="#ffffff"/>
    </linearGradient>
  </defs>
</svg>
