<?xml version="1.0" encoding="UTF-8" standalone="no"?>
<svg xmlns:xlink="http://www.w3.org/1999/xlink" height="26.5px" width="186.5px" xmlns="http://www.w3.org/2000/svg">
  <g transform="matrix(1.0, 0.0, 0.0, 1.0, 3.8, 6.75)">
    <path d="M-0.7 13.6 Q-1.3 12.45 -2.55 11.2 -3.8 9.85 -3.8 8.55 -3.8 6.75 -3.2 5.3 L-3.2 5.25 Q0.55 -3.45 11.7 -5.35 L20.7 -5.95 28.0 -5.75 39.0 -5.75 40.25 -6.05 47.25 -6.65 Q54.45 -7.1 60.95 -5.4 L62.55 -4.95 62.3 -2.65 Q62.15 -1.3 60.6 -0.1 58.05 1.85 52.9 1.85 L45.5 1.25 Q39.5 1.25 34.25 4.1 32.75 4.9 31.7 5.75 L31.1 5.75 20.6 5.35 Q13.45 5.9 9.8 10.85 L7.9 13.4 7.8 13.45 Q5.75 15.0 4.45 15.0 L0.9 14.0 Q-0.3 13.15 -0.7 13.6 M135.4 -1.65 L142.45 -4.0 Q148.05 -5.9 153.1 -4.5 L154.7 -4.0 162.1 -4.3 167.0 -4.95 168.4 -5.1 168.9 -5.2 170.1 -5.15 Q174.0 -5.15 177.1 -3.75 179.85 -2.45 180.35 -1.35 L181.15 -0.75 Q181.6 -0.25 181.75 0.95 L182.25 1.75 Q182.7 2.9 182.7 4.55 L182.7 5.15 182.7 5.2 Q181.2 7.75 179.2 7.75 L177.2 7.75 Q175.45 6.4 172.4 5.2 169.2 3.95 166.7 3.75 L161.85 1.6 Q157.15 -0.5 154.4 -0.5 L144.35 0.0 135.4 -1.65" fill="#ffffff" fill-rule="evenodd" stroke="none"/>
    <path d="M62.55 -4.95 Q64.9 -4.2 65.9 -3.55 L66.45 -3.05 66.55 -2.7 66.5 -2.3 66.5 -2.1 Q66.5 -0.6 64.55 1.0 63.25 2.05 61.8 2.5 59.0 4.0 54.25 4.0 L48.85 3.55 44.75 3.1 Q40.5 3.1 36.45 5.0 L36.1 5.15 32.5 7.3 Q31.35 7.8 29.6 8.1 L22.65 8.5 Q16.65 8.4 13.5 10.8 12.95 11.25 11.3 13.85 L10.35 15.35 10.05 15.75 Q8.55 17.8 7.1 18.8 5.7 19.75 4.4 19.75 L3.3 19.7 Q0.95 19.35 0.25 17.55 L0.05 16.25 Q-0.2 14.8 -0.4 14.25 L-0.45 14.1 -0.55 13.9 -0.7 13.6 Q-0.3 13.15 0.9 14.0 L4.45 15.0 Q5.75 15.0 7.8 13.45 L7.9 13.4 9.8 10.85 Q13.45 5.9 20.6 5.35 L31.1 5.75 31.7 5.75 Q32.75 4.9 34.25 4.1 39.5 1.25 45.5 1.25 L52.9 1.85 Q58.05 1.85 60.6 -0.1 62.15 -1.3 62.3 -2.65 L62.55 -4.95 M182.7 5.2 L182.65 5.85 182.15 8.2 Q181.3 11.3 179.75 11.3 178.7 11.3 176.65 8.8 L175.15 7.05 175.0 7.05 Q169.65 7.05 163.55 3.65 157.45 0.25 152.35 0.25 L150.0 0.6 149.0 0.75 144.95 0.8 139.45 0.1 138.45 0.05 136.65 0.35 132.25 0.0 131.7 -0.45 135.4 -1.65 144.35 0.0 154.4 -0.5 Q157.15 -0.5 161.85 1.6 L166.7 3.75 Q169.2 3.95 172.4 5.2 175.45 6.4 177.2 7.75 L179.2 7.75 Q181.2 7.75 182.7 5.2" fill="#f0f3e8" fill-rule="evenodd" stroke="none"/>
  </g>
</svg>
