<?xml version="1.0" encoding="UTF-8" standalone="no"?>
<svg xmlns:xlink="http://www.w3.org/1999/xlink" height="15.0px" width="13.4px" xmlns="http://www.w3.org/2000/svg">
  <g transform="matrix(1.0, 0.0, 0.0, 1.0, -7.8, -7.4)">
    <path d="M18.8 19.1 L18.8 21.4 16.2 21.4 16.2 19.1 16.05 18.75 15.7 18.6 8.8 18.6 8.8 16.45 13.4 8.4 16.25 8.4 11.9 16.05 11.8 16.4 12.0 16.7 12.3 16.8 15.7 16.8 16.05 16.65 16.2 16.3 16.2 13.8 18.8 13.8 18.8 16.3 18.95 16.65 19.3 16.8 20.2 16.8 20.2 18.6 19.3 18.6 18.95 18.75 18.8 19.1" fill="#000000" fill-rule="evenodd" stroke="none"/>
    <path d="M19.8 21.9 L19.65 22.25 19.3 22.4 15.7 22.4 15.35 22.25 15.2 21.9 15.2 19.6 8.3 19.6 7.95 19.45 7.8 19.1 7.8 16.3 7.9 16.05 12.7 7.65 12.85 7.5 13.1 7.4 17.1 7.4 17.45 7.55 17.6 7.8 17.55 8.15 13.15 15.8 15.2 15.8 15.2 13.3 15.35 12.95 Q15.5 12.8 15.7 12.8 L19.3 12.8 19.65 12.95 19.8 13.3 19.8 15.8 20.7 15.8 Q20.9 15.8 21.05 15.95 L21.2 16.3 21.2 19.1 21.05 19.45 20.7 19.6 19.8 19.6 19.8 21.9 M18.8 19.1 L18.95 18.75 19.3 18.6 20.2 18.6 20.2 16.8 19.3 16.8 18.95 16.65 18.8 16.3 18.8 13.8 16.2 13.8 16.2 16.3 16.05 16.65 15.7 16.8 12.3 16.8 12.0 16.7 11.8 16.4 11.9 16.05 16.25 8.4 13.4 8.4 8.8 16.45 8.8 18.6 15.7 18.6 16.05 18.75 16.2 19.1 16.2 21.4 18.8 21.4 18.8 19.1" fill="url(#gradient0)" fill-rule="evenodd" stroke="none"/>
  </g>
  <defs>
    <linearGradient gradientTransform="matrix(0.0054, 0.0228, -0.0089, 0.0021, 14.55, 15.1)" gradientUnits="userSpaceOnUse" id="gradient0" spreadMethod="pad" x1="-819.2" x2="819.2">
      <stop offset="0.0" stop-color="#000000"/>
      <stop offset="1.0" stop-color="#ffffff"/>
    </linearGradient>
  </defs>
</svg>
