<?xml version="1.0" encoding="UTF-8" standalone="no"?>
<svg xmlns:xlink="http://www.w3.org/1999/xlink" height="15.2px" width="12.2px" xmlns="http://www.w3.org/2000/svg">
  <g transform="matrix(1.0, 0.0, 0.0, 1.0, -8.3, -7.4)">
    <path d="M12.5 10.7 L12.5 13.3 12.65 13.65 13.0 13.8 16.2 13.8 Q17.9 13.8 18.75 14.6 L18.75 14.55 Q19.5 15.35 19.5 16.9 L19.5 18.3 Q19.5 20.0 18.75 20.85 17.9 21.6 16.2 21.6 L9.3 21.25 9.3 19.55 15.4 19.8 16.5 19.45 16.55 19.4 Q16.9 18.95 16.9 18.3 L16.9 17.3 Q16.9 15.6 15.2 15.6 L9.9 15.6 9.9 8.4 18.5 8.4 18.5 10.2 13.0 10.2 12.65 10.35 12.5 10.7" fill="#000000" fill-rule="evenodd" stroke="none"/>
    <path d="M16.2 12.8 Q18.4 12.8 19.45 13.85 20.5 14.85 20.5 16.9 L20.5 18.3 Q20.5 20.5 19.5 21.55 L19.45 21.6 Q18.4 22.6 16.2 22.6 L8.75 22.2 8.45 22.05 8.3 21.7 8.3 19.0 8.4 18.75 8.6 18.55 8.85 18.5 15.4 18.8 15.8 18.7 15.9 18.3 15.9 17.3 Q15.9 16.6 15.2 16.6 L9.4 16.6 9.05 16.45 8.9 16.1 8.9 7.9 9.05 7.55 Q9.2 7.4 9.4 7.4 L19.0 7.4 19.35 7.55 19.5 7.9 19.5 10.7 19.35 11.05 19.0 11.2 13.5 11.2 13.5 12.8 16.2 12.8 M12.5 10.7 L12.65 10.35 13.0 10.2 18.5 10.2 18.5 8.4 9.9 8.4 9.9 15.6 15.2 15.6 Q16.9 15.6 16.9 17.3 L16.9 18.3 Q16.9 18.95 16.55 19.4 L16.5 19.45 15.4 19.8 9.3 19.55 9.3 21.25 16.2 21.6 Q17.9 21.6 18.75 20.85 19.5 20.0 19.5 18.3 L19.5 16.9 Q19.5 15.35 18.75 14.55 L18.75 14.6 Q17.9 13.8 16.2 13.8 L13.0 13.8 12.65 13.65 12.5 13.3 12.5 10.7" fill="url(#gradient0)" fill-rule="evenodd" stroke="none"/>
  </g>
  <defs>
    <linearGradient gradientTransform="matrix(0.0082, 0.0164, -0.0083, 0.0041, 14.35, 15.05)" gradientUnits="userSpaceOnUse" id="gradient0" spreadMethod="pad" x1="-819.2" x2="819.2">
      <stop offset="0.0" stop-color="#000000"/>
      <stop offset="1.0" stop-color="#ffffff"/>
    </linearGradient>
  </defs>
</svg>
