<?xml version="1.0" encoding="UTF-8" standalone="no"?>
<svg xmlns:xlink="http://www.w3.org/1999/xlink" height="15.4px" width="12.4px" xmlns="http://www.w3.org/2000/svg">
  <g transform="matrix(1.0, 0.0, 0.0, 1.0, -8.4, -7.2)">
    <path d="M19.8 18.5 Q19.8 20.05 19.05 20.85 18.2 21.6 16.5 21.6 L12.7 21.6 Q11.0 21.6 10.15 20.85 9.4 20.05 9.4 18.5 L9.4 11.5 Q9.4 9.8 10.15 9.0 L10.2 8.95 Q11.0 8.2 12.7 8.2 L18.8 8.55 18.8 10.3 17.5 10.2 16.2 10.1 16.15 10.1 15.25 10.05 13.7 10.0 Q11.95 10.0 12.0 11.5 L12.0 13.3 12.1 13.6 12.3 13.8 12.6 13.8 15.9 13.4 17.3 13.4 Q18.4 13.4 19.15 14.05 L19.15 14.1 Q19.8 14.8 19.8 15.9 L19.8 18.5 M17.2 16.4 Q17.2 15.9 16.85 15.55 16.5 15.2 16.0 15.2 L14.9 15.2 13.45 15.3 12.45 15.4 Q12.25 15.45 12.15 15.6 12.0 15.7 12.0 15.9 L12.0 18.1 Q12.0 19.8 13.7 19.8 L15.5 19.8 Q17.2 19.8 17.2 18.1 L17.2 16.4" fill="#000000" fill-rule="evenodd" stroke="none"/>
    <path d="M19.75 21.55 L19.75 21.6 Q18.7 22.6 16.5 22.6 L12.7 22.6 Q10.5 22.6 9.45 21.6 L9.45 21.55 Q8.4 20.55 8.4 18.5 L8.4 11.5 Q8.4 9.3 9.45 8.25 10.5 7.2 12.7 7.2 L19.35 7.6 19.7 7.8 19.8 8.1 19.8 10.8 19.75 11.05 19.55 11.25 19.3 11.3 17.45 11.2 16.1 11.1 15.15 11.05 13.7 11.0 Q13.05 11.0 13.0 11.5 L13.0 12.7 15.9 12.4 17.3 12.4 Q18.85 12.4 19.85 13.35 L19.9 13.35 Q20.8 14.35 20.8 15.9 L20.8 18.5 Q20.8 20.55 19.75 21.55 M17.2 16.4 L17.2 18.1 Q17.2 19.8 15.5 19.8 L13.7 19.8 Q12.0 19.8 12.0 18.1 L12.0 15.9 Q12.0 15.7 12.15 15.6 12.25 15.45 12.45 15.4 L13.45 15.3 14.9 15.2 16.0 15.2 Q16.5 15.2 16.85 15.55 17.2 15.9 17.2 16.4 M19.8 18.5 L19.8 15.9 Q19.8 14.8 19.15 14.1 L19.15 14.05 Q18.4 13.4 17.3 13.4 L15.9 13.4 12.6 13.8 12.3 13.8 12.1 13.6 12.0 13.3 12.0 11.5 Q11.95 10.0 13.7 10.0 L15.25 10.05 16.15 10.1 16.2 10.1 17.5 10.2 18.8 10.3 18.8 8.55 12.7 8.2 Q11.0 8.2 10.2 8.95 L10.15 9.0 Q9.4 9.8 9.4 11.5 L9.4 18.5 Q9.4 20.05 10.15 20.85 11.0 21.6 12.7 21.6 L16.5 21.6 Q18.2 21.6 19.05 20.85 19.8 20.05 19.8 18.5 M16.15 16.25 L16.0 16.2 14.9 16.2 13.6 16.3 13.55 16.3 13.0 16.35 13.0 18.1 Q13.0 18.8 13.7 18.8 L15.5 18.8 Q16.2 18.8 16.2 18.1 L16.2 16.4 16.15 16.25" fill="url(#gradient0)" fill-rule="evenodd" stroke="none"/>
  </g>
  <defs>
    <linearGradient gradientTransform="matrix(0.0044, 0.0175, -0.0091, 0.0023, 14.55, 14.85)" gradientUnits="userSpaceOnUse" id="gradient0" spreadMethod="pad" x1="-819.2" x2="819.2">
      <stop offset="0.0" stop-color="#000000"/>
      <stop offset="1.0" stop-color="#ffffff"/>
    </linearGradient>
  </defs>
</svg>
