<?xml version="1.0" encoding="UTF-8" standalone="no"?>
<svg xmlns:xlink="http://www.w3.org/1999/xlink" height="55.15px" width="264.8px" xmlns="http://www.w3.org/2000/svg">
  <g transform="matrix(1.0, 0.0, 0.0, 1.0, 2.65, 2.65)">
    <path d="M259.55 36.25 L246.3 49.5 0.0 49.5 0.0 12.55 12.55 0.0 259.55 0.0 259.55 36.25" fill="#1a0000" fill-rule="evenodd" stroke="none"/>
    <path d="M259.6 -0.15 L259.6 1.95 10.45 1.95 12.35 -0.15 259.6 -0.15 M259.6 4.4 L259.6 6.5 6.2 6.5 8.15 4.4 259.6 4.4 M251.9 43.05 L251.9 45.15 -0.5 45.15 -0.5 43.05 251.9 43.05" fill="#4f0000" fill-rule="evenodd" stroke="none"/>
    <path d="M259.6 9.15 L259.6 11.25 2.1 11.25 3.35 9.5 3.7 9.15 259.6 9.15 M255.3 38.5 L255.3 40.6 -0.5 40.6 -0.5 38.5 255.3 38.5" fill="#370000" fill-rule="evenodd" stroke="none"/>
    <path d="M259.6 13.9 L259.6 16.0 -0.5 16.0 -0.5 14.55 0.1 13.9 259.6 13.9 M259.6 33.55 L259.6 35.65 -0.5 35.65 -0.5 33.55 259.6 33.55" fill="#2b0000" fill-rule="evenodd" stroke="none"/>
    <path d="M259.55 36.25 L246.3 49.5 0.0 49.5 0.0 12.55 12.55 0.0 259.55 0.0 259.55 36.25 Z" fill="none" stroke="#d90000" stroke-linecap="round" stroke-linejoin="round" stroke-width="1.5"/>
    <path d="M259.5 28.3 L259.5 36.6 246.25 49.85 214.9 49.85 209.6 49.85 M0.0 22.7 L0.0 12.55 12.55 0.0 57.2 0.0" fill="none" stroke="#d90000" stroke-linecap="square" stroke-linejoin="round" stroke-width="4.0"/>
    <path d="M259.5 28.3 L259.5 36.6 246.25 49.85 214.9 49.85 209.6 49.85 M0.0 22.7 L0.0 12.55 12.55 0.0 57.2 0.0" fill="none" stroke="#ff0606" stroke-linecap="square" stroke-linejoin="round" stroke-width="1.0"/>
  </g>
</svg>
