<?xml version="1.0" encoding="UTF-8" standalone="no"?>
<svg xmlns:xlink="http://www.w3.org/1999/xlink" height="15.0px" width="11.8px" xmlns="http://www.w3.org/2000/svg">
  <g transform="matrix(1.0, 0.0, 0.0, 1.0, -8.5, -7.4)">
    <path d="M19.3 8.4 L19.3 10.65 14.9 21.4 11.95 21.4 16.45 10.9 16.5 10.6 16.3 10.3 16.0 10.2 9.5 10.2 9.5 8.4 19.3 8.4" fill="#000000" fill-rule="evenodd" stroke="none"/>
    <path d="M19.8 7.4 L20.15 7.55 20.3 7.9 20.3 10.7 20.3 10.9 15.7 22.1 15.5 22.35 15.2 22.4 11.2 22.4 10.9 22.3 10.75 22.05 10.75 21.7 15.25 11.2 9.0 11.2 8.65 11.05 8.5 10.7 8.5 7.9 Q8.5 7.7 8.65 7.55 8.8 7.4 9.0 7.4 L19.8 7.4 M19.3 8.4 L9.5 8.4 9.5 10.2 16.0 10.2 16.3 10.3 16.5 10.6 16.45 10.9 11.95 21.4 14.9 21.4 19.3 10.65 19.3 8.4" fill="url(#gradient0)" fill-rule="evenodd" stroke="none"/>
  </g>
  <defs>
    <linearGradient gradientTransform="matrix(0.0065, 0.021, -0.0087, 0.0027, 14.4, 15.05)" gradientUnits="userSpaceOnUse" id="gradient0" spreadMethod="pad" x1="-819.2" x2="819.2">
      <stop offset="0.0" stop-color="#000000"/>
      <stop offset="1.0" stop-color="#ffffff"/>
    </linearGradient>
  </defs>
</svg>
