<?xml version="1.0" encoding="UTF-8" standalone="no"?>
<svg xmlns:xlink="http://www.w3.org/1999/xlink" height="112.4px" width="434.25px" xmlns="http://www.w3.org/2000/svg">
  <g transform="matrix(1.0, 0.0, 0.0, 1.0, -184.05, -432.95)">
    <path d="M617.3 465.25 L617.3 535.65 609.85 543.55 185.1 543.55 185.1 544.35 185.05 544.35 185.05 527.75 185.05 519.9 185.05 470.5 185.05 465.25 185.05 442.0 192.65 433.95 617.3 433.95 617.3 465.25" fill="url(#gradient0)" fill-rule="evenodd" stroke="none"/>
    <path d="M617.3 465.25 L617.3 433.95 192.65 433.95 185.05 442.0 185.05 465.25 185.05 470.5 185.05 519.9 185.05 527.75 185.05 544.35 185.1 544.35 185.1 543.55 609.85 543.55 617.3 535.65 617.3 465.25 Z" fill="none" stroke="url(#gradient1)" stroke-linecap="round" stroke-linejoin="round" stroke-width="2.0"/>
    <path d="M475.5 465.75 Q427.2 465.75 398.95 466.0 370.75 466.25 319.15 465.35 267.55 464.4 259.8 463.9 L404.25 463.9 550.3 463.85 Q523.4 465.75 475.5 465.75" fill="url(#gradient2)" fill-rule="evenodd" stroke="none"/>
  </g>
  <defs>
    <linearGradient gradientTransform="matrix(0.0, -0.0571, 0.0674, 0.0, 401.15, 489.15)" gradientUnits="userSpaceOnUse" id="gradient0" spreadMethod="pad" x1="-819.2" x2="819.2">
      <stop offset="0.0" stop-color="#110900"/>
      <stop offset="1.0" stop-color="#372000"/>
    </linearGradient>
    <linearGradient gradientTransform="matrix(0.0245, -0.1505, 0.0676, 0.011, 452.55, 529.65)" gradientUnits="userSpaceOnUse" id="gradient1" spreadMethod="pad" x1="-819.2" x2="819.2">
      <stop offset="0.0" stop-color="#ce9a0e"/>
      <stop offset="0.5647058823529412" stop-color="#1c1400"/>
      <stop offset="1.0" stop-color="#ce7f0e"/>
    </linearGradient>
    <radialGradient cx="0" cy="0" gradientTransform="matrix(0.179, 0.0, 0.0, 0.3841, 405.0, 464.95)" gradientUnits="userSpaceOnUse" id="gradient2" r="819.2" spreadMethod="pad">
      <stop offset="0.0" stop-color="#ffcc00"/>
      <stop offset="1.0" stop-color="#ffcc00" stop-opacity="0.0"/>
    </radialGradient>
  </defs>
</svg>
