<?xml version="1.0" encoding="UTF-8" standalone="no"?>
<svg xmlns:xlink="http://www.w3.org/1999/xlink" height="15.4px" width="13.2px" xmlns="http://www.w3.org/2000/svg">
  <g transform="matrix(1.0, 0.0, 0.0, 1.0, -7.8, -7.2)">
    <path d="M11.8 12.3 Q11.8 14.0 13.5 14.0 L15.3 14.0 Q17.0 14.0 17.0 12.3 L17.0 11.7 Q17.0 10.0 15.3 10.0 L13.5 10.0 Q11.8 10.0 11.8 11.7 L11.8 12.3 M20.0 18.1 L20.0 18.3 Q20.0 20.0 19.25 20.85 18.4 21.6 16.7 21.6 L12.1 21.6 Q10.4 21.6 9.6 20.85 L9.55 20.85 Q8.8 20.0 8.8 18.3 L8.8 18.1 Q8.8 16.8 9.45 15.9 L10.85 15.0 11.1 14.8 11.2 14.5 11.1 14.25 10.85 14.05 9.65 13.15 Q9.2 12.5 9.2 11.5 L9.2 11.3 Q9.2 9.75 9.95 8.95 L9.95 9.0 Q10.8 8.2 12.5 8.2 L16.3 8.2 Q18.0 8.2 18.85 9.0 L18.85 8.95 Q19.6 9.75 19.6 11.3 L19.6 11.5 Q19.6 12.5 19.15 13.15 L17.95 14.05 17.7 14.25 17.6 14.5 17.7 14.8 18.0 15.0 Q19.3 15.35 19.85 16.85 L19.85 16.8 20.0 18.1 M17.4 17.5 Q17.4 15.8 15.7 15.8 L13.1 15.8 Q11.4 15.8 11.4 17.5 L11.4 18.3 Q11.4 18.95 11.8 19.4 L11.85 19.45 Q12.25 19.8 12.9 19.8 L15.9 19.8 Q16.55 19.8 17.0 19.45 L17.05 19.4 Q17.4 18.95 17.4 18.3 L17.4 17.5" fill="#000000" fill-rule="evenodd" stroke="none"/>
    <path d="M21.0 18.3 Q21.0 20.5 20.0 21.55 L19.95 21.6 Q18.9 22.6 16.7 22.6 L12.1 22.6 Q9.9 22.6 8.85 21.6 L8.85 21.55 Q7.8 20.5 7.8 18.3 L7.8 18.1 Q7.8 16.4 8.65 15.3 L9.55 14.5 8.85 13.75 Q8.2 12.9 8.2 11.5 L8.2 11.3 Q8.2 9.25 9.25 8.25 10.3 7.2 12.5 7.2 L16.3 7.2 Q18.5 7.2 19.55 8.25 20.6 9.25 20.6 11.3 L20.6 11.5 Q20.6 12.9 19.95 13.75 L19.25 14.5 Q20.3 15.1 20.8 16.5 L21.0 18.1 21.0 18.3 M11.8 12.3 L11.8 11.7 Q11.8 10.0 13.5 10.0 L15.3 10.0 Q17.0 10.0 17.0 11.7 L17.0 12.3 Q17.0 14.0 15.3 14.0 L13.5 14.0 Q11.8 14.0 11.8 12.3 M13.5 13.0 L15.3 13.0 Q16.0 13.0 16.0 12.3 L16.0 11.7 Q16.0 11.0 15.3 11.0 L13.5 11.0 Q12.8 11.0 12.8 11.7 L12.8 12.3 Q12.8 13.0 13.5 13.0 M17.4 17.5 L17.4 18.3 Q17.4 18.95 17.05 19.4 L17.0 19.45 Q16.55 19.8 15.9 19.8 L12.9 19.8 Q12.25 19.8 11.85 19.45 L11.8 19.4 Q11.4 18.95 11.4 18.3 L11.4 17.5 Q11.4 15.8 13.1 15.8 L15.7 15.8 Q17.4 15.8 17.4 17.5 M20.0 18.1 L19.85 16.8 19.85 16.85 Q19.3 15.35 18.0 15.0 L17.7 14.8 17.6 14.5 17.7 14.25 17.95 14.05 19.15 13.15 Q19.6 12.5 19.6 11.5 L19.6 11.3 Q19.6 9.75 18.85 8.95 L18.85 9.0 Q18.0 8.2 16.3 8.2 L12.5 8.2 Q10.8 8.2 9.95 9.0 L9.95 8.95 Q9.2 9.75 9.2 11.3 L9.2 11.5 Q9.2 12.5 9.65 13.15 L10.85 14.05 11.1 14.25 11.2 14.5 11.1 14.8 10.85 15.0 9.45 15.9 Q8.8 16.8 8.8 18.1 L8.8 18.3 Q8.8 20.0 9.55 20.85 L9.6 20.85 Q10.4 21.6 12.1 21.6 L16.7 21.6 Q18.4 21.6 19.25 20.85 20.0 20.0 20.0 18.3 L20.0 18.1 M15.7 16.8 L13.1 16.8 Q12.4 16.8 12.4 17.5 L12.4 18.3 12.5 18.7 12.9 18.8 15.9 18.8 16.3 18.7 16.4 18.3 16.4 17.5 Q16.4 16.8 15.7 16.8" fill="url(#gradient0)" fill-rule="evenodd" stroke="none"/>
  </g>
  <defs>
    <linearGradient gradientTransform="matrix(0.0071, 0.028, -0.0091, 0.0023, 14.6, 14.25)" gradientUnits="userSpaceOnUse" id="gradient0" spreadMethod="pad" x1="-819.2" x2="819.2">
      <stop offset="0.0" stop-color="#000000"/>
      <stop offset="1.0" stop-color="#ffffff"/>
    </linearGradient>
  </defs>
</svg>
