<?xml version="1.0" encoding="UTF-8" standalone="no"?>
<svg xmlns:xlink="http://www.w3.org/1999/xlink" height="20.5px" width="18.75px" xmlns="http://www.w3.org/2000/svg">
  <g transform="matrix(1.0, 0.0, 0.0, 1.0, 248.25, 97.8)">
    <path d="M-232.2 -94.85 Q-229.5 -91.85 -229.5 -87.55 -229.5 -83.3 -232.2 -80.3 -234.95 -77.3 -238.85 -77.3 -242.7 -77.3 -245.5 -80.3 -248.25 -83.3 -248.25 -87.55 -248.25 -91.85 -245.5 -94.85 -242.7 -97.8 -238.85 -97.8 -234.95 -97.8 -232.2 -94.85" fill="#d71212" fill-rule="evenodd" stroke="none"/>
    <path d="M-237.0 -95.05 L-237.0 -84.4 -240.7 -84.4 -240.7 -95.05 -237.0 -95.05 M-241.15 -82.05 L-240.7 -82.55 -240.0 -82.8 -238.9 -82.8 -237.7 -82.8 -236.85 -82.55 -236.6 -82.05 Q-236.35 -81.7 -236.35 -81.2 -236.35 -80.75 -236.6 -80.45 -236.65 -80.05 -236.85 -79.85 L-237.7 -79.65 -238.9 -79.6 -240.0 -79.65 -240.7 -79.85 -241.15 -80.45 -241.2 -81.2 -241.15 -82.05" fill="#000000" fill-rule="evenodd" stroke="none"/>
  </g>
</svg>
