<?xml version="1.0" encoding="UTF-8" standalone="no"?>
<svg xmlns:xlink="http://www.w3.org/1999/xlink" height="15.4px" width="12.4px" xmlns="http://www.w3.org/2000/svg">
  <g transform="matrix(1.0, 0.0, 0.0, 1.0, -8.0, -7.2)">
    <path d="M11.6 11.7 L11.6 13.4 Q11.6 13.9 11.95 14.25 L12.8 14.6 13.9 14.6 16.4 14.4 16.7 14.25 16.8 13.9 16.8 11.7 Q16.8 10.0 15.1 10.0 L13.3 10.0 Q11.6 10.0 11.6 11.7 M19.4 11.3 L19.4 18.3 Q19.4 20.0 18.65 20.85 17.8 21.6 16.1 21.6 L10.0 21.25 10.0 19.55 15.3 19.8 Q15.95 19.8 16.4 19.45 L16.45 19.4 Q16.8 18.95 16.8 18.3 L16.8 16.5 16.75 16.25 16.5 16.05 16.2 16.0 12.9 16.4 11.5 16.4 Q10.4 16.4 9.7 15.75 L9.65 15.75 Q9.0 15.0 9.0 13.9 L9.0 11.3 Q9.0 9.75 9.75 8.95 L9.75 9.0 Q10.6 8.2 12.3 8.2 L16.1 8.2 Q17.8 8.2 18.65 9.0 L18.65 8.95 Q19.4 9.75 19.4 11.3" fill="#000000" fill-rule="evenodd" stroke="none"/>
    <path d="M12.6 13.4 L12.65 13.55 12.8 13.6 13.9 13.6 15.8 13.5 15.8 11.7 Q15.8 11.0 15.1 11.0 L13.3 11.0 Q12.6 11.0 12.6 11.7 L12.6 13.4 M20.4 18.3 Q20.4 20.5 19.4 21.55 L19.35 21.6 Q18.3 22.6 16.1 22.6 L9.45 22.2 9.15 22.05 9.0 21.7 9.0 19.0 9.1 18.75 9.3 18.55 9.55 18.5 15.3 18.8 15.7 18.7 15.8 18.3 15.8 17.15 12.9 17.4 11.5 17.4 Q9.95 17.4 8.95 16.5 L8.95 16.45 Q8.0 15.45 8.0 13.9 L8.0 11.3 Q8.0 9.25 9.05 8.25 10.1 7.2 12.3 7.2 L16.1 7.2 Q18.3 7.2 19.35 8.25 20.4 9.25 20.4 11.3 L20.4 18.3 M19.4 11.3 Q19.4 9.75 18.65 8.95 L18.65 9.0 Q17.8 8.2 16.1 8.2 L12.3 8.2 Q10.6 8.2 9.75 9.0 L9.75 8.95 Q9.0 9.75 9.0 11.3 L9.0 13.9 Q9.0 15.0 9.65 15.75 L9.7 15.75 Q10.4 16.4 11.5 16.4 L12.9 16.4 16.2 16.0 16.5 16.05 16.75 16.25 16.8 16.5 16.8 18.3 Q16.8 18.95 16.45 19.4 L16.4 19.45 Q15.95 19.8 15.3 19.8 L10.0 19.55 10.0 21.25 16.1 21.6 Q17.8 21.6 18.65 20.85 19.4 20.0 19.4 18.3 L19.4 11.3 M11.6 11.7 Q11.6 10.0 13.3 10.0 L15.1 10.0 Q16.8 10.0 16.8 11.7 L16.8 13.9 16.7 14.25 16.4 14.4 13.9 14.6 12.8 14.6 11.95 14.25 Q11.6 13.9 11.6 13.4 L11.6 11.7" fill="url(#gradient0)" fill-rule="evenodd" stroke="none"/>
  </g>
  <defs>
    <linearGradient gradientTransform="matrix(0.0057, 0.023, -0.0027, 7.0E-4, 16.35, 11.25)" gradientUnits="userSpaceOnUse" id="gradient0" spreadMethod="pad" x1="-819.2" x2="819.2">
      <stop offset="0.0" stop-color="#000000"/>
      <stop offset="1.0" stop-color="#ffffff"/>
    </linearGradient>
  </defs>
</svg>
