<?xml version="1.0" encoding="UTF-8" standalone="no"?>
<svg xmlns:xlink="http://www.w3.org/1999/xlink" height="130.3px" width="305.35px" xmlns="http://www.w3.org/2000/svg">
  <g transform="matrix(1.0, 0.0, 0.0, 1.0, 0.0, 0.0)">
    <path d="M0.0 36.75 L0.0 9.45 7.0 0.0 305.25 0.0 305.25 36.75 0.0 36.75" fill="#3e0000" fill-rule="evenodd" stroke="none"/>
    <path d="M0.0 36.75 L305.25 36.75 305.25 120.3 298.35 129.7 0.0 129.7 0.0 110.2 0.0 100.95 0.0 42.95 0.0 36.75" fill="url(#gradient0)" fill-rule="evenodd" stroke="none"/>
    <path d="M305.35 119.15 L305.35 121.6 298.95 129.95 0.0 130.3 0.05 128.6 298.4 128.6 305.35 119.15" fill="url(#gradient1)" fill-rule="evenodd" stroke="none"/>
    <path d="M219.1 37.0 Q174.7 37.0 148.75 37.25 122.85 37.5 75.45 36.6 28.0 35.65 20.9 35.15 L153.6 35.15 287.8 35.1 Q263.1 37.0 219.1 37.0" fill="url(#gradient2)" fill-rule="evenodd" stroke="none"/>
    <path d="M270.9 118.45 L38.9 118.45 38.9 47.35 270.9 47.35 270.9 118.45" fill="#460000" fill-rule="evenodd" stroke="none"/>
  </g>
  <defs>
    <linearGradient gradientTransform="matrix(-4.0E-4, 0.0547, -0.0444, -5.0E-4, 152.6, 83.25)" gradientUnits="userSpaceOnUse" id="gradient0" spreadMethod="pad" x1="-819.2" x2="819.2">
      <stop offset="0.0" stop-color="#260000"/>
      <stop offset="1.0" stop-color="#000000"/>
    </linearGradient>
    <radialGradient cx="0" cy="0" gradientTransform="matrix(0.1318, 0.0, 0.0, -0.18, 152.65, 124.25)" gradientUnits="userSpaceOnUse" id="gradient1" r="819.2" spreadMethod="pad">
      <stop offset="0.1607843137254902" stop-color="#cc0000"/>
      <stop offset="1.0" stop-color="#660000"/>
    </radialGradient>
    <radialGradient cx="0" cy="0" gradientTransform="matrix(0.1645, 0.0, 0.0, 0.3804, 154.3, 36.2)" gradientUnits="userSpaceOnUse" id="gradient2" r="819.2" spreadMethod="pad">
      <stop offset="0.0" stop-color="#ff0000"/>
      <stop offset="1.0" stop-color="#ff0000" stop-opacity="0.0"/>
    </radialGradient>
  </defs>
</svg>
