<?xml version="1.0" encoding="UTF-8" standalone="no"?>
<svg xmlns:xlink="http://www.w3.org/1999/xlink" height="32.3px" width="32.0px" xmlns="http://www.w3.org/2000/svg">
  <g transform="matrix(1.0, 0.0, 0.0, 1.0, 1.4, 0.1)">
    <path d="M28.15 6.9 Q29.6 14.9 26.25 21.1 22.7 27.7 14.7 30.2 6.6 27.85 3.0 21.25 -0.55 14.85 1.2 6.8 3.4 6.05 4.65 4.95 6.05 3.75 6.75 1.9 L22.7 1.9 Q23.25 3.85 24.7 5.05 25.95 6.2 28.15 6.9 Z" fill="none" stroke="url(#gradient0)" stroke-linecap="square" stroke-linejoin="miter" stroke-width="3.0"/>
    <path d="M24.7 5.05 Q25.95 6.2 28.15 6.9 29.6 14.9 26.25 21.1 22.7 27.7 14.7 30.2 6.6 27.85 3.0 21.25 -0.55 14.85 1.2 6.8 3.4 6.05 4.65 4.95 6.05 3.75 6.75 1.9 L22.7 1.9 Q23.25 3.85 24.7 5.05" fill="url(#gradient1)" fill-rule="evenodd" stroke="none"/>
  </g>
  <defs>
    <linearGradient gradientTransform="matrix(-0.0037, -0.0185, 0.0187, -0.0038, 15.8, 15.8)" gradientUnits="userSpaceOnUse" id="gradient0" spreadMethod="pad" x1="-819.2" x2="819.2">
      <stop offset="0.0" stop-color="#392b0d"/>
      <stop offset="0.4627450980392157" stop-color="#e8c22f"/>
      <stop offset="1.0" stop-color="#ffffff"/>
    </linearGradient>
    <linearGradient gradientTransform="matrix(-0.0032, -0.0249, 0.0178, -0.0021, 13.8, 15.35)" gradientUnits="userSpaceOnUse" id="gradient1" spreadMethod="pad" x1="-819.2" x2="819.2">
      <stop offset="0.0" stop-color="#3d2e0e"/>
      <stop offset="0.4627450980392157" stop-color="#e4b832"/>
      <stop offset="1.0" stop-color="#f9d546"/>
    </linearGradient>
  </defs>
</svg>
