<?xml version="1.0" encoding="UTF-8" standalone="no"?>
<svg xmlns:xlink="http://www.w3.org/1999/xlink" height="15.4px" width="21.7px" xmlns="http://www.w3.org/2000/svg">
  <g transform="matrix(1.0, 0.0, 0.0, 1.0, -2.85, -7.2)">
    <path d="M22.75 20.8 Q21.9 21.6 20.05 21.6 L16.25 21.6 Q14.4 21.6 13.55 20.8 12.75 19.95 12.75 18.1 L12.75 11.7 Q12.75 9.85 13.55 9.0 14.4 8.2 16.25 8.2 L20.05 8.2 Q21.9 8.2 22.75 9.0 23.55 9.85 23.55 11.7 L23.55 18.1 Q23.55 19.95 22.75 20.8 M20.95 11.7 Q20.95 10.0 19.25 10.0 L17.05 10.0 Q15.35 10.0 15.35 11.7 L15.35 18.1 Q15.35 19.8 17.05 19.8 L19.25 19.8 Q20.95 19.8 20.95 18.1 L20.95 11.7 M9.75 8.4 L9.75 21.4 7.15 21.4 7.15 11.0 7.05 10.7 6.8 10.55 6.5 10.55 4.65 11.2 4.0 9.75 7.15 8.4 9.75 8.4" fill="#000000" fill-rule="evenodd" stroke="none"/>
    <path d="M20.95 11.7 L20.95 18.1 Q20.95 19.8 19.25 19.8 L17.05 19.8 Q15.35 19.8 15.35 18.1 L15.35 11.7 Q15.35 10.0 17.05 10.0 L19.25 10.0 Q20.95 10.0 20.95 11.7 M19.25 11.0 L17.05 11.0 Q16.35 11.0 16.35 11.7 L16.35 18.1 Q16.35 18.8 17.05 18.8 L19.25 18.8 Q19.95 18.8 19.95 18.1 L19.95 11.7 Q19.95 11.0 19.25 11.0" fill="url(#gradient0)" fill-rule="evenodd" stroke="none"/>
    <path d="M20.05 22.6 L16.25 22.6 Q13.9 22.6 12.85 21.5 11.75 20.45 11.75 18.1 L11.75 11.7 Q11.75 9.35 12.85 8.3 13.9 7.2 16.25 7.2 L20.05 7.2 Q22.4 7.2 23.45 8.3 24.55 9.35 24.55 11.7 L24.55 18.1 Q24.55 20.45 23.45 21.5 22.4 22.6 20.05 22.6 M22.75 20.8 Q23.55 19.95 23.55 18.1 L23.55 11.7 Q23.55 9.85 22.75 9.0 21.9 8.2 20.05 8.2 L16.25 8.2 Q14.4 8.2 13.55 9.0 12.75 9.85 12.75 11.7 L12.75 18.1 Q12.75 19.95 13.55 20.8 14.4 21.6 16.25 21.6 L20.05 21.6 Q21.9 21.6 22.75 20.8 M10.25 7.4 Q10.45 7.4 10.6 7.55 L10.75 7.9 10.75 21.9 10.6 22.25 10.25 22.4 6.65 22.4 6.3 22.25 6.15 21.9 6.15 11.7 4.55 12.3 4.15 12.25 3.9 12.0 2.9 9.7 2.9 9.35 3.15 9.05 6.85 7.45 7.05 7.4 10.25 7.4 M9.75 8.4 L7.15 8.4 4.0 9.75 4.65 11.2 6.5 10.55 6.8 10.55 7.05 10.7 7.15 11.0 7.15 21.4 9.75 21.4 9.75 8.4" fill="url(#gradient1)" fill-rule="evenodd" stroke="none"/>
  </g>
  <defs>
    <linearGradient gradientTransform="matrix(0.0053, 0.0109, -0.0054, 0.0026, 18.15, 14.9)" gradientUnits="userSpaceOnUse" id="gradient0" spreadMethod="pad" x1="-819.2" x2="819.2">
      <stop offset="0.0" stop-color="#3d2e0e"/>
      <stop offset="0.4627450980392157" stop-color="#d6a641"/>
      <stop offset="1.0" stop-color="#fbe1ac"/>
    </linearGradient>
    <linearGradient gradientTransform="matrix(0.0033, 0.0163, -0.0175, 0.0035, 31.05, 7.0)" gradientUnits="userSpaceOnUse" id="gradient1" spreadMethod="pad" x1="-819.2" x2="819.2">
      <stop offset="0.0" stop-color="#3d2e0e"/>
      <stop offset="0.4627450980392157" stop-color="#d6a641"/>
      <stop offset="1.0" stop-color="#fbe1ac"/>
    </linearGradient>
  </defs>
</svg>
