<?xml version="1.0" encoding="UTF-8" standalone="no"?>
<svg xmlns:xlink="http://www.w3.org/1999/xlink" height="15.0px" width="16.9px" xmlns="http://www.w3.org/2000/svg">
  <g transform="matrix(1.0, 0.0, 0.0, 1.0, -4.7, -7.55)">
    <path d="M17.35 10.7 L17.65 10.7 17.9 10.85 18.0 11.15 18.0 21.55 20.6 21.55 20.6 8.55 18.0 8.55 14.85 9.9 15.5 11.35 17.35 10.7 M15.4 12.45 L15.0 12.4 14.75 12.15 13.75 9.85 13.75 9.5 14.0 9.2 17.7 7.6 17.9 7.55 21.1 7.55 21.45 7.7 21.6 8.05 21.6 22.05 21.45 22.4 21.1 22.55 17.5 22.55 17.15 22.4 17.0 22.05 17.0 11.85 15.4 12.45" fill="url(#gradient0)" fill-rule="evenodd" stroke="none"/>
    <path d="M6.4 12.45 L6.0 12.4 5.75 12.15 4.75 9.85 4.75 9.5 5.0 9.2 8.7 7.6 8.9 7.55 12.1 7.55 12.45 7.7 12.6 8.05 12.6 22.05 12.45 22.4 12.1 22.55 8.5 22.55 8.15 22.4 8.0 22.05 8.0 11.85 6.4 12.45 M8.35 10.7 L8.65 10.7 8.9 10.85 9.0 11.15 9.0 21.55 11.6 21.55 11.6 8.55 9.0 8.55 5.85 9.9 6.5 11.35 8.35 10.7" fill="url(#gradient1)" fill-rule="evenodd" stroke="none"/>
    <path d="M17.35 10.7 L15.5 11.35 14.85 9.9 18.0 8.55 20.6 8.55 20.6 21.55 18.0 21.55 18.0 11.15 17.9 10.85 17.65 10.7 17.35 10.7 M8.35 10.7 L6.5 11.35 5.85 9.9 9.0 8.55 11.6 8.55 11.6 21.55 9.0 21.55 9.0 11.15 8.9 10.85 8.65 10.7 8.35 10.7" fill="#ffffff" fill-rule="evenodd" stroke="none"/>
  </g>
  <defs>
    <linearGradient gradientTransform="matrix(0.0033, 0.0163, -0.0175, 0.0035, 75.55, 7.0)" gradientUnits="userSpaceOnUse" id="gradient0" spreadMethod="pad" x1="-819.2" x2="819.2">
      <stop offset="0.0" stop-color="#0e333d"/>
      <stop offset="0.4627450980392157" stop-color="#41c9d6"/>
      <stop offset="1.0" stop-color="#ace7fb"/>
    </linearGradient>
    <linearGradient gradientTransform="matrix(0.0033, 0.0163, -0.0175, 0.0035, 66.55, 7.0)" gradientUnits="userSpaceOnUse" id="gradient1" spreadMethod="pad" x1="-819.2" x2="819.2">
      <stop offset="0.0" stop-color="#0e333d"/>
      <stop offset="0.4627450980392157" stop-color="#41c9d6"/>
      <stop offset="1.0" stop-color="#ace7fb"/>
    </linearGradient>
  </defs>
</svg>
