<?xml version="1.0" encoding="UTF-8" standalone="no"?>
<svg xmlns:xlink="http://www.w3.org/1999/xlink" height="15.15px" width="20.55px" xmlns="http://www.w3.org/2000/svg">
  <g transform="matrix(1.0, 0.0, 0.0, 1.0, -3.15, -7.4)">
    <path d="M22.7 12.3 Q22.7 13.75 21.45 14.85 L21.45 14.9 20.5 15.6 16.2 18.7 16.05 18.95 16.05 19.25 16.2 19.5 16.5 19.6 22.7 19.6 22.7 21.4 12.9 21.4 12.9 18.35 19.9 13.3 20.05 13.15 20.1 12.9 20.1 11.9 Q20.1 10.2 18.4 10.2 L13.3 10.2 13.3 8.4 19.2 8.4 Q21.05 8.4 21.9 9.2 22.7 10.05 22.7 11.9 L22.7 12.3 M6.8 10.7 L4.95 11.35 4.3 9.9 7.45 8.55 10.05 8.55 10.05 21.55 7.45 21.55 7.45 11.15 7.35 10.85 Q7.25 10.7 7.1 10.7 L6.8 10.7" fill="#ffffff" fill-rule="evenodd" stroke="none"/>
    <path d="M22.7 12.3 L22.7 11.9 Q22.7 10.05 21.9 9.2 21.05 8.4 19.2 8.4 L13.3 8.4 13.3 10.2 18.4 10.2 Q20.1 10.2 20.1 11.9 L20.1 12.9 20.05 13.15 19.9 13.3 12.9 18.35 12.9 21.4 22.7 21.4 22.7 19.6 16.5 19.6 16.2 19.5 16.05 19.25 16.05 18.95 16.2 18.7 20.5 15.6 21.45 14.9 21.45 14.85 Q22.7 13.75 22.7 12.3 M4.85 12.45 L4.45 12.4 4.2 12.15 3.2 9.85 3.2 9.5 3.45 9.2 7.15 7.6 7.35 7.55 10.55 7.55 Q10.75 7.55 10.9 7.7 L11.05 8.05 11.05 22.05 10.9 22.4 10.55 22.55 6.95 22.55 6.6 22.4 6.45 22.05 6.45 11.85 4.85 12.45 M22.1 15.65 L22.05 15.65 21.1 16.4 18.05 18.6 23.2 18.6 23.55 18.75 23.7 19.1 23.7 21.9 23.55 22.25 23.2 22.4 12.4 22.4 12.05 22.25 11.9 21.9 11.9 18.1 11.95 17.9 12.1 17.7 19.1 12.65 19.1 11.9 Q19.1 11.2 18.4 11.2 L12.8 11.2 12.45 11.05 12.3 10.7 12.3 7.9 12.45 7.55 Q12.6 7.4 12.8 7.4 L19.2 7.4 Q21.55 7.4 22.6 8.5 23.7 9.55 23.7 11.9 L23.7 12.3 Q23.7 14.2 22.1 15.65 M6.8 10.7 L7.1 10.7 Q7.25 10.7 7.35 10.85 L7.45 11.15 7.45 21.55 10.05 21.55 10.05 8.55 7.45 8.55 4.3 9.9 4.95 11.35 6.8 10.7" fill="url(#gradient0)" fill-rule="evenodd" stroke="none"/>
  </g>
  <defs>
    <linearGradient gradientTransform="matrix(0.0033, 0.0163, -0.0175, 0.0035, 75.55, 7.0)" gradientUnits="userSpaceOnUse" id="gradient0" spreadMethod="pad" x1="-819.2" x2="819.2">
      <stop offset="0.0" stop-color="#0e333d"/>
      <stop offset="0.4627450980392157" stop-color="#00aabb"/>
      <stop offset="1.0" stop-color="#b1f8ff"/>
    </linearGradient>
  </defs>
</svg>
