<?xml version="1.0" encoding="UTF-8" standalone="no"?>
<svg xmlns:xlink="http://www.w3.org/1999/xlink" height="40.5px" width="338.35px" xmlns="http://www.w3.org/2000/svg">
  <g transform="matrix(1.0, 0.0, 0.0, 1.0, -12.85, 0.9)">
    <path d="M36.95 17.15 L32.25 17.9 33.25 13.3 30.5 17.05 27.9 13.2 28.65 17.8 24.05 16.85 27.85 19.6 24.0 22.2 28.6 21.45 27.6 26.0 30.4 22.25 32.95 26.15 32.25 21.5 36.8 22.45 33.0 19.75 36.95 17.15 M48.1 12.85 L37.45 19.8 47.75 27.3 35.3 24.65 37.25 37.3 30.25 26.6 22.75 36.95 25.45 24.45 12.85 26.5 23.5 19.45 13.1 12.0 25.6 14.6 23.6 2.05 30.65 12.65 38.1 2.35 35.5 14.8 48.1 12.85" fill="#ffffff" fill-rule="evenodd" stroke="none"/>
    <path d="M128.7 -0.9 L351.2 -0.9 351.2 39.6 128.7 39.6 128.7 -0.9" fill="#000000" fill-opacity="0.8" fill-rule="evenodd" stroke="none"/>
  </g>
</svg>
