<?xml version="1.0" encoding="UTF-8" standalone="no"?>
<svg xmlns:xlink="http://www.w3.org/1999/xlink" height="9.05px" width="19.2px" xmlns="http://www.w3.org/2000/svg">
  <g transform="matrix(1.0, 0.0, 0.0, 1.0, 10.25, 7.25)">
    <path d="M2.95 -7.2 L3.2 -7.05 3.35 -6.8 3.4 -6.4 3.35 -6.05 3.2 -5.8 2.95 -5.65 2.6 -5.65 2.2 -5.65 1.95 -5.8 1.8 -6.05 1.75 -6.4 1.8 -6.8 1.95 -7.05 2.2 -7.2 2.6 -7.25 2.95 -7.2 M4.85 -4.6 L5.75 -4.6 5.75 -5.9 7.15 -6.2 7.15 -4.6 8.7 -4.6 8.7 -3.45 7.15 -3.45 7.15 -0.1 7.2 0.25 7.3 0.5 7.55 0.6 7.95 0.65 8.35 0.6 8.65 0.6 8.95 0.55 8.95 1.5 8.5 1.65 8.0 1.75 7.4 1.8 6.65 1.7 6.15 1.45 5.85 1.0 5.75 0.35 5.75 -3.45 4.85 -3.45 4.85 -4.6 M0.55 -3.2 L-0.7 -3.1 -1.65 -2.9 -1.65 1.6 -3.05 1.6 -3.05 -4.6 -1.8 -4.6 -1.75 -3.9 -0.7 -4.4 0.55 -4.65 0.55 -3.2 M3.25 -4.6 L3.25 1.6 1.9 1.6 1.9 -4.6 3.25 -4.6 M-5.2 -6.7 L-4.65 -6.5 -4.65 -5.5 -5.15 -5.55 -5.7 -5.55 -6.3 -5.6 -6.9 -5.55 -7.5 -5.45 -8.0 -5.15 -8.4 -4.65 -8.65 -3.85 -8.75 -2.65 -8.65 -1.4 -8.4 -0.55 -8.0 0.0 -7.45 0.3 -6.9 0.4 -6.3 0.45 -5.6 0.45 -5.05 0.4 -4.6 0.35 -4.6 1.4 -5.2 1.55 -5.95 1.7 -6.95 1.75 -7.75 1.65 -8.55 1.4 -9.2 0.9 -9.75 0.1 -10.1 -1.05 -10.25 -2.65 -10.1 -4.15 -9.7 -5.3 -9.1 -6.1 -8.4 -6.55 -7.7 -6.8 -6.95 -6.9 -5.95 -6.85 -5.2 -6.7" fill="#ffffff" fill-rule="evenodd" stroke="none"/>
  </g>
</svg>
