<?xml version="1.0" encoding="UTF-8" standalone="no"?>
<svg xmlns:xlink="http://www.w3.org/1999/xlink" height="19.65px" width="27.15px" xmlns="http://www.w3.org/2000/svg">
  <g transform="matrix(1.0, 0.0, 0.0, 1.0, 13.55, 9.8)">
    <path d="M4.95 -5.5 L4.95 -7.85 -5.55 -7.85 -5.55 -5.5 -11.55 -5.5 -11.55 0.3 -5.55 0.3 -5.55 0.8 -11.55 0.8 -11.55 7.85 -5.55 7.85 -5.55 7.95 4.95 7.95 4.95 7.85 11.6 7.85 11.6 0.8 4.95 0.8 4.95 0.3 11.6 0.3 11.6 -5.5 4.95 -5.5 M6.7 -7.5 L13.6 -7.5 13.6 9.85 -13.55 9.85 -13.55 -7.5 -7.3 -7.5 -7.3 -9.8 6.7 -9.8 6.7 -7.5 M1.75 5.85 L-2.5 5.85 -1.45 2.3 -1.9 2.0 Q-2.5 1.35 -2.5 0.5 -2.5 -0.4 -1.9 -1.0 -1.2 -1.65 -0.35 -1.65 0.5 -1.65 1.1 -1.0 1.75 -0.4 1.75 0.5 1.75 1.35 1.1 2.0 L0.75 2.3 1.75 5.85" fill="#000000" fill-rule="evenodd" stroke="none"/>
    <path d="M4.95 -5.5 L11.6 -5.5 11.6 0.3 4.95 0.3 4.95 -5.5 M4.95 0.8 L11.6 0.8 11.6 7.85 4.95 7.85 4.95 0.8 M-5.55 7.85 L-11.55 7.85 -11.55 0.8 -5.55 0.8 -5.55 7.85 M-5.55 0.3 L-11.55 0.3 -11.55 -5.5 -5.55 -5.5 -5.55 0.3" fill="#cbcbcb" fill-rule="evenodd" stroke="none"/>
    <path d="M-5.55 -5.5 L-5.55 -7.85 4.95 -7.85 4.95 -5.5 4.95 0.3 4.95 0.8 4.95 7.85 4.95 7.95 -5.55 7.95 -5.55 7.85 -5.55 0.8 -5.55 0.3 -5.55 -5.5 M1.75 5.85 L0.75 2.3 1.1 2.0 Q1.75 1.35 1.75 0.5 1.75 -0.4 1.1 -1.0 0.5 -1.65 -0.35 -1.65 -1.2 -1.65 -1.9 -1.0 -2.5 -0.4 -2.5 0.5 -2.5 1.35 -1.9 2.0 L-1.45 2.3 -2.5 5.85 1.75 5.85" fill="#999999" fill-rule="evenodd" stroke="none"/>
  </g>
</svg>
