<?xml version="1.0" encoding="UTF-8" standalone="no"?>
<svg xmlns:xlink="http://www.w3.org/1999/xlink" height="19.65px" width="27.15px" xmlns="http://www.w3.org/2000/svg">
  <g transform="matrix(1.0, 0.0, 0.0, 1.0, 103.05, 9.15)">
    <path d="M-84.55 -4.85 L-84.55 -7.2 -95.05 -7.2 -95.05 -4.85 -101.05 -4.85 -101.05 0.95 -95.05 0.95 -95.05 1.45 -101.05 1.45 -101.05 8.5 -95.05 8.5 -95.05 8.6 -84.55 8.6 -84.55 8.5 -77.9 8.5 -77.9 1.45 -84.55 1.45 -84.55 0.95 -77.9 0.95 -77.9 -4.85 -84.55 -4.85 M-96.8 -6.85 L-96.8 -9.15 -82.8 -9.15 -82.8 -6.85 -75.9 -6.85 -75.9 10.5 -103.05 10.5 -103.05 -6.85 -96.8 -6.85 M-88.4 -0.35 Q-87.75 0.25 -87.75 1.15 -87.75 2.0 -88.4 2.65 L-88.75 2.95 -87.75 6.5 -92.0 6.5 -90.95 2.95 -91.4 2.65 Q-92.0 2.0 -92.0 1.15 -92.0 0.25 -91.4 -0.35 -90.7 -1.0 -89.85 -1.0 -89.0 -1.0 -88.4 -0.35" fill="#000000" fill-rule="evenodd" stroke="none"/>
    <path d="M-95.05 -4.85 L-95.05 -7.2 -84.55 -7.2 -84.55 -4.85 -84.55 0.95 -84.55 1.45 -84.55 8.5 -84.55 8.6 -95.05 8.6 -95.05 8.5 -95.05 1.45 -95.05 0.95 -95.05 -4.85 M-88.4 -0.35 Q-89.0 -1.0 -89.85 -1.0 -90.7 -1.0 -91.4 -0.35 -92.0 0.25 -92.0 1.15 -92.0 2.0 -91.4 2.65 L-90.95 2.95 -92.0 6.5 -87.75 6.5 -88.75 2.95 -88.4 2.65 Q-87.75 2.0 -87.75 1.15 -87.75 0.25 -88.4 -0.35" fill="#999999" fill-rule="evenodd" stroke="none"/>
    <path d="M-84.55 -4.85 L-77.9 -4.85 -77.9 0.95 -84.55 0.95 -84.55 -4.85 M-84.55 1.45 L-77.9 1.45 -77.9 8.5 -84.55 8.5 -84.55 1.45 M-95.05 8.5 L-101.05 8.5 -101.05 1.45 -95.05 1.45 -95.05 8.5 M-95.05 0.95 L-101.05 0.95 -101.05 -4.85 -95.05 -4.85 -95.05 0.95" fill="#93f89b" fill-rule="evenodd" stroke="none"/>
  </g>
</svg>
