<?xml version="1.0" encoding="UTF-8" standalone="no"?>
<svg xmlns:xlink="http://www.w3.org/1999/xlink" height="19.65px" width="27.15px" xmlns="http://www.w3.org/2000/svg">
  <g transform="matrix(1.0, 0.0, 0.0, 1.0, 118.85, 9.15)">
    <path d="M-112.6 -6.85 L-112.6 -9.15 -98.6 -9.15 -98.6 -6.85 -91.7 -6.85 -91.7 10.5 -118.85 10.5 -118.85 -6.85 -112.6 -6.85 M-105.65 -1.0 Q-104.8 -1.0 -104.2 -0.35 -103.55 0.25 -103.55 1.15 -103.55 2.0 -104.2 2.65 L-104.55 2.95 -103.55 6.5 -107.8 6.5 -106.75 2.95 -107.2 2.65 Q-107.8 2.0 -107.8 1.15 -107.8 0.25 -107.2 -0.35 -106.5 -1.0 -105.65 -1.0 M-110.85 -4.85 L-116.85 -4.85 -116.85 0.95 -110.85 0.95 -110.85 1.45 -116.85 1.45 -116.85 8.5 -110.85 8.5 -110.85 8.6 -100.35 8.6 -100.35 8.5 -93.7 8.5 -93.7 1.45 -100.35 1.45 -100.35 0.95 -93.7 0.95 -93.7 -4.85 -100.35 -4.85 -100.35 -7.2 -110.85 -7.2 -110.85 -4.85" fill="#000000" fill-rule="evenodd" stroke="none"/>
    <path d="M-105.65 -1.0 Q-106.5 -1.0 -107.2 -0.35 -107.8 0.25 -107.8 1.15 -107.8 2.0 -107.2 2.65 L-106.75 2.95 -107.8 6.5 -103.55 6.5 -104.55 2.95 -104.2 2.65 Q-103.55 2.0 -103.55 1.15 -103.55 0.25 -104.2 -0.35 -104.8 -1.0 -105.65 -1.0 M-110.85 -4.85 L-110.85 -7.2 -100.35 -7.2 -100.35 -4.85 -100.35 0.95 -100.35 1.45 -100.35 8.5 -100.35 8.6 -110.85 8.6 -110.85 8.5 -110.85 1.45 -110.85 0.95 -110.85 -4.85" fill="#999999" fill-rule="evenodd" stroke="none"/>
    <path d="M-110.85 0.95 L-116.85 0.95 -116.85 -4.85 -110.85 -4.85 -110.85 0.95 M-100.35 -4.85 L-93.7 -4.85 -93.7 0.95 -100.35 0.95 -100.35 -4.85 M-100.35 1.45 L-93.7 1.45 -93.7 8.5 -100.35 8.5 -100.35 1.45 M-110.85 8.5 L-116.85 8.5 -116.85 1.45 -110.85 1.45 -110.85 8.5" fill="#c1ecff" fill-rule="evenodd" stroke="none"/>
  </g>
</svg>
