<?xml version="1.0" encoding="UTF-8" standalone="no"?>
<svg xmlns:xlink="http://www.w3.org/1999/xlink" height="19.65px" width="27.15px" xmlns="http://www.w3.org/2000/svg">
  <g transform="matrix(1.0, 0.0, 0.0, 1.0, 115.2, 9.15)">
    <path d="M-108.95 -6.85 L-108.95 -9.15 -94.95 -9.15 -94.95 -6.85 -88.05 -6.85 -88.05 10.5 -115.2 10.5 -115.2 -6.85 -108.95 -6.85 M-102.0 -1.0 Q-101.15 -1.0 -100.55 -0.35 -99.9 0.25 -99.9 1.15 -99.9 2.0 -100.55 2.65 L-100.9 2.95 -99.9 6.5 -104.15 6.5 -103.1 2.95 -103.55 2.65 Q-104.15 2.0 -104.15 1.15 -104.15 0.25 -103.55 -0.35 -102.85 -1.0 -102.0 -1.0 M-107.2 -4.85 L-113.2 -4.85 -113.2 0.95 -107.2 0.95 -107.2 1.45 -113.2 1.45 -113.2 8.5 -107.2 8.5 -107.2 8.6 -96.7 8.6 -96.7 8.5 -90.05 8.5 -90.05 1.45 -96.7 1.45 -96.7 0.95 -90.05 0.95 -90.05 -4.85 -96.7 -4.85 -96.7 -7.2 -107.2 -7.2 -107.2 -4.85" fill="#000000" fill-rule="evenodd" stroke="none"/>
    <path d="M-107.2 0.95 L-113.2 0.95 -113.2 -4.85 -107.2 -4.85 -107.2 0.95 M-96.7 -4.85 L-90.05 -4.85 -90.05 0.95 -96.7 0.95 -96.7 -4.85 M-96.7 1.45 L-90.05 1.45 -90.05 8.5 -96.7 8.5 -96.7 1.45 M-107.2 8.5 L-113.2 8.5 -113.2 1.45 -107.2 1.45 -107.2 8.5" fill="#56458e" fill-rule="evenodd" stroke="none"/>
    <path d="M-102.0 -1.0 Q-102.85 -1.0 -103.55 -0.35 -104.15 0.25 -104.15 1.15 -104.15 2.0 -103.55 2.65 L-103.1 2.95 -104.15 6.5 -99.9 6.5 -100.9 2.95 -100.55 2.65 Q-99.9 2.0 -99.9 1.15 -99.9 0.25 -100.55 -0.35 -101.15 -1.0 -102.0 -1.0 M-107.2 -4.85 L-107.2 -7.2 -96.7 -7.2 -96.7 -4.85 -96.7 0.95 -96.7 1.45 -96.7 8.5 -96.7 8.6 -107.2 8.6 -107.2 8.5 -107.2 1.45 -107.2 0.95 -107.2 -4.85" fill="#b7b7b7" fill-rule="evenodd" stroke="none"/>
  </g>
</svg>
