<?xml version="1.0" encoding="UTF-8" standalone="no"?>
<svg xmlns:xlink="http://www.w3.org/1999/xlink" height="19.65px" width="27.15px" xmlns="http://www.w3.org/2000/svg">
  <g transform="matrix(1.0, 0.0, 0.0, 1.0, 116.75, 9.15)">
    <path d="M-102.1 -0.35 Q-101.45 0.25 -101.45 1.15 -101.45 2.0 -102.1 2.65 L-102.45 2.95 -101.45 6.5 -105.7 6.5 -104.65 2.95 -105.1 2.65 Q-105.7 2.0 -105.7 1.15 -105.7 0.25 -105.1 -0.35 -104.4 -1.0 -103.55 -1.0 -102.7 -1.0 -102.1 -0.35 M-110.5 -6.85 L-110.5 -9.15 -96.5 -9.15 -96.5 -6.85 -89.6 -6.85 -89.6 10.5 -116.75 10.5 -116.75 -6.85 -110.5 -6.85 M-108.75 -4.85 L-114.75 -4.85 -114.75 0.95 -108.75 0.95 -108.75 1.45 -114.75 1.45 -114.75 8.5 -108.75 8.5 -108.75 8.6 -98.25 8.6 -98.25 8.5 -91.6 8.5 -91.6 1.45 -98.25 1.45 -98.25 0.95 -91.6 0.95 -91.6 -4.85 -98.25 -4.85 -98.25 -7.2 -108.75 -7.2 -108.75 -4.85" fill="#000000" fill-rule="evenodd" stroke="none"/>
    <path d="M-108.75 0.95 L-114.75 0.95 -114.75 -4.85 -108.75 -4.85 -108.75 0.95 M-98.25 -4.85 L-91.6 -4.85 -91.6 0.95 -98.25 0.95 -98.25 -4.85 M-98.25 1.45 L-91.6 1.45 -91.6 8.5 -98.25 8.5 -98.25 1.45 M-108.75 8.5 L-114.75 8.5 -114.75 1.45 -108.75 1.45 -108.75 8.5" fill="#9278c6" fill-rule="evenodd" stroke="none"/>
    <path d="M-102.1 -0.35 Q-102.7 -1.0 -103.55 -1.0 -104.4 -1.0 -105.1 -0.35 -105.7 0.25 -105.7 1.15 -105.7 2.0 -105.1 2.65 L-104.65 2.95 -105.7 6.5 -101.45 6.5 -102.45 2.95 -102.1 2.65 Q-101.45 2.0 -101.45 1.15 -101.45 0.25 -102.1 -0.35 M-108.75 0.95 L-108.75 -4.85 -108.75 -7.2 -98.25 -7.2 -98.25 -4.85 -98.25 0.95 -98.25 1.45 -98.25 8.5 -98.25 8.6 -108.75 8.6 -108.75 8.5 -108.75 1.45 -108.75 0.95" fill="#c1c1c1" fill-rule="evenodd" stroke="none"/>
  </g>
</svg>
