<?xml version="1.0" encoding="UTF-8" standalone="no"?>
<svg xmlns:xlink="http://www.w3.org/1999/xlink" height="19.65px" width="27.15px" xmlns="http://www.w3.org/2000/svg">
  <g transform="matrix(1.0, 0.0, 0.0, 1.0, 117.3, 9.15)">
    <path d="M-109.3 0.95 L-115.3 0.95 -115.3 -4.85 -109.3 -4.85 -109.3 0.95 M-98.8 -4.85 L-92.15 -4.85 -92.15 0.95 -98.8 0.95 -98.8 -4.85 M-98.8 1.45 L-92.15 1.45 -92.15 8.5 -98.8 8.5 -98.8 1.45 M-109.3 8.5 L-115.3 8.5 -115.3 1.45 -109.3 1.45 -109.3 8.5 M-102.65 -0.35 Q-102.0 0.25 -102.0 1.15 -102.0 2.0 -102.65 2.65 L-103.0 2.95 -102.0 6.5 -106.25 6.5 -105.2 2.95 -105.65 2.65 Q-106.25 2.0 -106.25 1.15 -106.25 0.25 -105.65 -0.35 -104.95 -1.0 -104.1 -1.0 -103.25 -1.0 -102.65 -0.35" fill="#000000" fill-rule="evenodd" stroke="none"/>
    <path d="M-109.3 0.95 L-109.3 -4.85 -109.3 -7.2 -98.8 -7.2 -98.8 -4.85 -98.8 0.95 -98.8 1.45 -98.8 8.5 -98.8 8.6 -109.3 8.6 -109.3 8.5 -109.3 1.45 -109.3 0.95 M-102.65 -0.35 Q-103.25 -1.0 -104.1 -1.0 -104.95 -1.0 -105.65 -0.35 -106.25 0.25 -106.25 1.15 -106.25 2.0 -105.65 2.65 L-105.2 2.95 -106.25 6.5 -102.0 6.5 -103.0 2.95 -102.65 2.65 Q-102.0 2.0 -102.0 1.15 -102.0 0.25 -102.65 -0.35" fill="#b7b7b7" fill-rule="evenodd" stroke="none"/>
    <path d="M-117.3 -6.85 L-111.05 -6.85 -111.05 -9.15 -97.05 -9.15 -97.05 -6.85 -90.15 -6.85 -90.15 10.5 -117.3 10.5 -117.3 -6.85 M-109.3 -4.85 L-115.3 -4.85 -115.3 0.95 -109.3 0.95 -109.3 1.45 -115.3 1.45 -115.3 8.5 -109.3 8.5 -109.3 8.6 -98.8 8.6 -98.8 8.5 -92.15 8.5 -92.15 1.45 -98.8 1.45 -98.8 0.95 -92.15 0.95 -92.15 -4.85 -98.8 -4.85 -98.8 -7.2 -109.3 -7.2 -109.3 -4.85" fill="#666666" fill-rule="evenodd" stroke="none"/>
  </g>
</svg>
