<?xml version="1.0" encoding="UTF-8" standalone="no"?>
<svg xmlns:xlink="http://www.w3.org/1999/xlink" height="8.15px" width="102.4px" xmlns="http://www.w3.org/2000/svg">
  <g transform="matrix(1.0, 0.0, 0.0, 1.0, 52.4, 4.15)">
    <path d="M6.1 -0.85 L6.1 -2.5 1.25 -2.5 1.25 -0.85 6.1 -0.85 M15.85 -0.85 L15.85 -2.5 11.0 -2.5 11.0 -0.85 15.85 -0.85 M9.35 4.0 L9.35 -4.1 17.5 -4.1 17.5 4.0 15.85 4.0 15.85 0.75 11.0 0.75 11.0 4.0 9.35 4.0 M35.35 4.0 L35.35 -2.5 32.1 -2.5 32.1 -4.1 40.25 -4.1 40.25 -2.5 37.0 -2.5 37.0 4.0 35.35 4.0 M28.85 4.0 L28.85 -4.1 30.5 -4.1 30.5 4.0 28.85 4.0 M19.1 4.0 L19.1 -4.1 27.25 -4.1 27.25 -2.5 20.75 -2.5 20.75 2.4 27.25 2.4 27.25 4.0 19.1 4.0 M45.1 4.0 L45.1 0.75 41.85 0.75 41.85 -4.1 43.5 -4.1 43.5 -0.85 48.35 -0.85 48.35 -4.1 50.0 -4.1 50.0 0.75 46.75 0.75 46.75 4.0 45.1 4.0 M-0.4 4.0 L-0.4 -4.1 7.75 -4.1 7.75 0.75 1.25 0.75 1.25 4.0 -0.4 4.0 M-36.15 -0.85 L-36.15 -2.5 -41.0 -2.5 -41.0 -0.85 -36.15 -0.85 M-52.4 4.0 L-52.4 -4.1 -44.25 -4.1 -44.25 4.0 -45.9 4.0 -45.9 -2.5 -47.5 -2.5 -47.5 4.0 -49.15 4.0 -49.15 -2.5 -50.75 -2.5 -50.75 4.0 -52.4 4.0 M-32.9 2.65 L-30.05 -0.2 -32.65 -2.8 -31.35 -4.1 -28.7 -1.5 -26.1 -4.15 -24.8 -2.85 -27.4 -0.2 -24.55 2.7 -25.85 4.0 -28.7 1.1 -31.6 4.0 -32.9 2.65 M-10.15 4.0 L-10.15 -4.1 -2.0 -4.1 -2.0 4.0 -3.65 4.0 -3.65 0.75 -8.5 0.75 -8.5 4.0 -10.15 4.0 M-3.65 -0.85 L-3.65 -2.5 -8.5 -2.5 -8.5 -0.85 -3.65 -0.85 M-19.9 4.0 L-19.9 -4.1 -11.75 -4.1 -11.75 -2.5 -18.25 -2.5 -18.25 2.4 -11.75 2.4 -11.75 4.0 -19.9 4.0 M-42.65 4.0 L-42.65 -4.1 -34.5 -4.1 -34.5 4.0 -36.15 4.0 -36.15 0.75 -41.0 0.75 -41.0 4.0 -42.65 4.0" fill="#de0000" fill-rule="evenodd" stroke="none"/>
  </g>
</svg>
