<?xml version="1.0" encoding="UTF-8" standalone="no"?>
<svg xmlns:xlink="http://www.w3.org/1999/xlink" height="9.05px" width="33.15px" xmlns="http://www.w3.org/2000/svg">
  <g transform="matrix(1.0, 0.0, 0.0, 1.0, 13.5, 7.3)">
    <path d="M7.55 -7.25 L7.8 -7.1 7.95 -6.85 8.0 -6.45 7.95 -6.1 7.8 -5.85 7.55 -5.7 7.2 -5.7 6.8 -5.7 Q6.6 -5.75 6.55 -5.85 L6.4 -6.1 6.35 -6.45 6.4 -6.85 6.55 -7.1 6.8 -7.25 7.2 -7.3 7.55 -7.25 M4.45 -3.5 L3.85 -3.55 3.25 -3.6 2.6 -3.65 1.95 -3.6 1.55 -3.5 1.35 -3.3 1.3 -3.0 1.35 -2.75 1.45 -2.55 1.65 -2.4 2.0 -2.3 3.35 -2.05 4.0 -1.85 4.45 -1.5 4.7 -1.0 4.8 -0.2 4.7 0.6 4.3 1.2 3.55 1.6 2.2 1.75 1.35 1.65 0.65 1.55 0.0 1.35 0.0 0.35 0.55 0.45 1.2 0.55 2.0 0.55 2.75 0.55 3.2 0.4 3.35 0.2 3.4 -0.2 3.4 -0.4 3.35 -0.6 3.15 -0.7 2.85 -0.8 1.55 -1.05 0.8 -1.25 0.35 -1.6 0.05 -2.1 0.0 -2.9 Q0.0 -3.85 0.65 -4.35 L2.5 -4.8 3.25 -4.75 3.9 -4.65 4.45 -4.5 4.45 -3.5 M9.7 -2.1 L9.65 -2.9 Q9.65 -3.85 10.3 -4.35 10.95 -4.8 12.15 -4.8 L12.9 -4.75 13.55 -4.65 14.1 -4.5 14.1 -3.5 13.5 -3.55 12.9 -3.6 12.25 -3.65 11.6 -3.6 11.2 -3.5 11.0 -3.3 10.95 -3.0 11.0 -2.75 11.1 -2.55 Q11.15 -2.5 11.3 -2.4 L11.65 -2.3 13.0 -2.05 13.65 -1.85 14.1 -1.5 14.35 -1.0 14.45 -0.2 14.35 0.6 Q14.25 1.0 13.95 1.2 L13.2 1.6 11.85 1.75 11.0 1.65 10.3 1.55 9.65 1.35 9.65 0.35 10.2 0.45 10.85 0.55 11.65 0.55 12.4 0.55 12.85 0.4 13.0 0.2 13.05 -0.2 13.05 -0.4 13.0 -0.6 12.8 -0.7 12.5 -0.8 11.2 -1.05 10.45 -1.25 Q10.15 -1.35 10.0 -1.6 L9.7 -2.1 M7.85 -4.65 L7.85 1.55 6.5 1.55 6.5 -4.65 7.85 -4.65 M19.4 -3.5 L17.85 -3.5 17.85 -0.15 17.9 0.2 18.0 0.45 18.25 0.55 18.65 0.6 19.05 0.55 19.35 0.55 19.65 0.5 19.65 1.45 19.2 1.6 18.7 1.7 18.1 1.75 17.35 1.65 16.85 1.4 16.55 0.95 16.45 0.3 16.45 -3.5 15.55 -3.5 15.55 -4.65 16.45 -4.65 16.45 -5.95 17.85 -6.25 17.85 -4.65 19.4 -4.65 19.4 -3.5 M-12.1 -2.85 L-10.4 -2.85 Q-9.3 -2.85 -9.3 -4.2 L-9.35 -4.8 -9.6 -5.2 -9.95 -5.45 -10.4 -5.5 -12.1 -5.5 -12.1 -2.85 M-10.35 -6.8 L-9.7 -6.75 -9.1 -6.6 -8.6 -6.3 -8.2 -5.8 -7.9 -5.1 -7.85 -4.15 -7.9 -3.45 -8.05 -2.95 -8.3 -2.55 -8.55 -2.25 Q-8.9 -1.95 -9.3 -1.85 L-7.5 1.55 -9.1 1.55 -10.7 -1.5 -12.1 -1.5 -12.1 1.55 -13.5 1.55 -13.5 -6.8 -10.35 -6.8 M-5.65 -4.15 L-4.7 -4.65 -3.6 -4.8 -2.4 -4.6 Q-1.95 -4.4 -1.65 -4.05 L-1.3 -3.25 -1.15 -2.15 -1.2 -1.6 -1.25 -1.0 -5.1 -1.0 -5.05 -0.3 -4.75 0.15 -4.2 0.45 -3.4 0.5 -2.65 0.5 -2.0 0.45 -1.45 0.35 -1.45 1.35 -2.1 1.55 -2.8 1.65 -3.65 1.75 -4.85 1.55 -5.8 1.0 -6.35 -0.05 -6.55 -1.6 -6.3 -3.2 -5.65 -4.15 M-3.7 -3.65 L-4.45 -3.55 -4.85 -3.25 -5.05 -2.75 -5.15 -2.05 -2.45 -2.05 -2.45 -2.25 -2.5 -2.85 -2.7 -3.3 Q-2.8 -3.5 -3.05 -3.55 L-3.7 -3.65" fill="#ffffff" fill-rule="evenodd" stroke="none"/>
  </g>
</svg>
