<?xml version="1.0" encoding="UTF-8" standalone="no"?>
<svg xmlns:xlink="http://www.w3.org/1999/xlink" height="21.9px" width="22.3px" xmlns="http://www.w3.org/2000/svg">
  <g transform="matrix(1.0, 0.0, 0.0, 1.0, 0.0, 0.0)">
    <path d="M7.8 10.45 L3.5 10.45 Q3.5 12.55 4.55 14.35 5.6 16.1 7.35 17.15 L9.55 13.4 Q7.8 12.4 7.8 10.45 M18.8 10.45 L14.45 10.45 Q14.45 12.45 12.75 13.4 L14.95 17.15 Q16.7 16.1 17.75 14.35 18.8 12.55 18.8 10.45 M12.65 8.95 Q12.0 8.35 11.15 8.35 10.3 8.35 9.65 8.95 9.05 9.6 9.05 10.45 9.05 11.3 9.65 11.95 10.3 12.55 11.15 12.55 12.0 12.55 12.65 11.95 13.25 11.3 13.25 10.45 13.25 9.6 12.65 8.95 M11.15 7.15 Q12.05 7.15 12.8 7.6 L14.95 3.85 Q13.15 2.8 11.15 2.8 9.15 2.8 7.3 3.85 L9.5 7.6 Q10.2 7.15 11.15 7.15 M22.3 3.1 L21.1 8.95 Q19.6 15.1 18.2 16.45 L14.1 19.8 11.15 21.85 11.15 21.9 11.1 21.85 Q6.2 18.5 4.1 16.45 2.7 15.1 1.2 8.95 0.45 5.9 0.0 3.1 L11.15 0.0 22.3 3.1" fill="url(#gradient0)" fill-rule="evenodd" stroke="none"/>
  </g>
  <defs>
    <radialGradient cx="0" cy="0" gradientTransform="matrix(0.0172, 0.0, 0.0, 0.0172, 11.15, 10.95)" gradientUnits="userSpaceOnUse" id="gradient0" r="819.2" spreadMethod="pad">
      <stop offset="0.0" stop-color="#99ff00"/>
      <stop offset="1.0" stop-color="#669900"/>
    </radialGradient>
  </defs>
</svg>
