<?xml version="1.0" encoding="UTF-8" standalone="no"?>
<svg xmlns:xlink="http://www.w3.org/1999/xlink" height="21.2px" width="21.55px" xmlns="http://www.w3.org/2000/svg">
  <g transform="matrix(1.0, 0.0, 0.0, 1.0, 0.0, 0.0)">
    <path d="M17.05 10.85 L16.3 9.6 Q16.7 11.3 15.5 13.65 16.05 11.1 15.2 8.05 14.65 6.2 12.85 4.45 11.1 2.75 8.95 1.9 8.6 5.85 7.1 7.2 5.15 8.9 6.45 12.55 5.25 11.9 5.25 10.15 L4.7 11.4 Q4.55 11.95 4.55 12.55 4.6 13.7 5.95 15.25 7.2 16.65 9.55 17.2 L9.8 17.25 9.35 17.0 Q8.05 16.0 8.35 14.3 8.55 13.15 9.35 12.05 L11.85 9.0 12.2 13.1 12.7 11.7 13.1 11.05 13.9 13.0 Q14.3 14.5 13.7 15.85 13.2 17.05 12.0 17.35 L14.95 16.55 16.65 15.3 Q17.7 14.05 17.5 12.4 L17.05 10.85 M21.55 3.0 L20.4 8.7 Q18.95 14.65 17.6 15.95 L13.6 19.2 10.8 21.2 10.75 21.2 Q6.0 17.9 3.95 15.95 2.6 14.65 1.15 8.7 L0.0 3.0 10.75 0.0 10.8 0.0 21.55 3.0" fill="url(#gradient0)" fill-rule="evenodd" stroke="none"/>
  </g>
  <defs>
    <radialGradient cx="0" cy="0" gradientTransform="matrix(0.0165, 0.0, 0.0, 0.0165, 10.8, 10.6)" gradientUnits="userSpaceOnUse" id="gradient0" r="819.2" spreadMethod="pad">
      <stop offset="0.0" stop-color="#ffcc00"/>
      <stop offset="0.6862745098039216" stop-color="#ff6600"/>
    </radialGradient>
  </defs>
</svg>
