<?xml version="1.0" encoding="UTF-8" standalone="no"?>
<svg xmlns:xlink="http://www.w3.org/1999/xlink" height="13.6px" width="63.4px" xmlns="http://www.w3.org/2000/svg">
  <g transform="matrix(1.0, 0.0, 0.0, 1.0, 6.85, 8.3)">
    <path d="M1.2 -5.2 L2.8 -5.2 2.8 -0.3 2.85 0.2 3.0 0.5 3.35 0.7 4.0 0.75 4.75 0.7 5.3 0.6 5.8 0.45 5.8 -5.2 7.45 -5.2 7.45 2.0 6.25 2.0 6.05 1.45 5.2 1.85 4.35 2.1 3.25 2.2 Q2.2 2.2 1.7 1.65 1.2 1.1 1.2 -0.1 L1.2 -5.2 M11.3 0.55 L11.75 0.65 12.25 0.75 12.9 0.75 13.65 0.65 14.1 0.35 14.35 -0.4 14.4 -1.65 14.35 -2.75 14.15 -3.45 13.75 -3.85 13.15 -3.95 12.45 -3.9 11.85 -3.8 11.3 -3.65 11.3 0.55 M11.3 5.3 L9.7 5.3 9.7 -5.2 10.85 -5.2 11.05 -4.7 11.9 -5.05 12.75 -5.3 13.85 -5.4 14.85 -5.2 15.55 -4.5 15.95 -3.35 16.1 -1.6 15.95 0.2 15.45 1.4 14.65 2.0 13.5 2.2 12.65 2.15 11.95 1.95 11.3 1.7 11.3 5.3 M22.3 -2.2 L22.3 -2.45 22.25 -3.15 22.05 -3.65 21.6 -3.95 20.85 -4.05 20.0 -3.95 19.5 -3.6 19.25 -3.0 19.2 -2.2 22.3 -2.2 M17.55 -1.7 Q17.55 -2.8 17.85 -3.55 L18.6 -4.7 19.7 -5.25 21.0 -5.4 22.4 -5.2 23.25 -4.55 23.7 -3.6 23.8 -2.35 23.8 -1.65 23.75 -0.95 19.2 -0.95 19.3 -0.15 Q19.4 0.2 19.65 0.4 L20.25 0.7 21.2 0.8 22.1 0.75 22.85 0.7 23.5 0.6 23.5 1.75 22.75 2.0 21.9 2.15 20.95 2.2 19.5 2.0 18.45 1.35 Q18.0 0.9 17.8 0.15 17.55 -0.6 17.55 -1.7 M25.45 -5.2 L26.85 -5.2 26.95 -4.45 28.15 -5.0 29.65 -5.25 29.6 -3.6 28.15 -3.5 27.05 -3.25 27.05 2.0 25.45 2.0 25.45 -5.2 M38.0 2.15 L37.05 2.1 36.15 1.75 35.4 1.2 34.75 0.25 34.35 -1.1 Q34.2 -1.9 34.2 -2.95 34.2 -3.95 34.35 -4.75 L34.8 -6.05 35.5 -6.95 36.3 -7.55 37.15 -7.8 38.0 -7.9 39.2 -7.85 40.05 -7.7 40.7 -7.45 40.7 -6.3 40.1 -6.35 39.5 -6.35 38.75 -6.4 38.05 -6.35 37.4 -6.2 36.8 -5.9 36.35 -5.3 36.0 -4.35 35.9 -2.95 36.0 -1.55 36.35 -0.5 36.8 0.1 37.4 0.45 38.1 0.6 38.75 0.65 39.6 0.65 40.2 0.6 40.8 0.55 40.8 1.75 40.05 1.95 39.2 2.1 38.0 2.15 M49.1 -6.45 L48.65 -6.5 48.35 -6.6 48.2 -6.9 48.15 -7.35 48.2 -7.8 48.35 -8.1 48.65 -8.25 49.1 -8.3 49.6 -8.25 49.85 -8.1 50.0 -7.8 50.05 -7.35 50.0 -6.9 49.85 -6.6 49.6 -6.5 49.1 -6.45 M42.6 -5.2 L44.0 -5.2 44.1 -4.45 45.3 -5.0 46.8 -5.25 46.75 -3.6 45.3 -3.5 44.2 -3.25 44.2 2.0 42.6 2.0 42.6 -5.2 M48.3 -5.2 L49.95 -5.2 49.95 2.0 48.3 2.0 48.3 -5.2 M52.85 -3.85 L51.75 -3.85 51.75 -5.2 52.85 -5.2 52.85 -6.75 54.45 -7.1 54.45 -5.2 56.3 -5.2 56.3 -3.85 54.45 -3.85 54.45 0.0 54.5 0.45 54.65 0.7 54.95 0.85 55.4 0.85 55.9 0.85 56.25 0.85 56.55 0.8 56.55 1.9 56.05 2.05 55.5 2.15 54.8 2.2 53.85 2.1 53.3 1.8 52.95 1.3 52.85 0.55 52.85 -3.85 M-6.8 0.55 L-6.05 0.65 -5.25 0.7 -4.3 0.7 -3.25 0.6 -2.65 0.35 -2.35 -0.05 -2.3 -0.6 -2.35 -1.1 -2.45 -1.45 -2.7 -1.75 -3.15 -1.95 -5.15 -2.45 -5.95 -2.8 -6.45 -3.3 -6.75 -4.1 -6.85 -5.15 -6.65 -6.4 -6.0 -7.3 -5.05 -7.8 -3.8 -7.95 -2.75 -7.9 -1.9 -7.75 -1.15 -7.55 -1.15 -6.3 -1.8 -6.35 -2.45 -6.4 -3.2 -6.45 -4.2 -6.4 -4.85 -6.25 -5.15 -5.85 -5.25 -5.25 -5.2 -4.85 -5.1 -4.55 -4.85 -4.3 -4.4 -4.15 -2.55 -3.6 -1.95 -3.4 -1.45 -3.1 -1.1 -2.75 -0.85 -2.25 -0.75 -1.6 -0.7 -0.7 Q-0.7 0.05 -0.85 0.6 L-1.3 1.55 Q-1.7 1.9 -2.35 2.05 L-4.0 2.2 -5.35 2.15 -6.2 2.0 -6.8 1.75 -6.8 0.55" fill="#ffffff" fill-rule="evenodd" stroke="none"/>
  </g>
</svg>
