<?xml version="1.0" encoding="UTF-8" standalone="no"?>
<svg xmlns:xlink="http://www.w3.org/1999/xlink" height="127.45px" width="119.7px" xmlns="http://www.w3.org/2000/svg">
  <g transform="matrix(1.0, 0.0, 0.0, 1.0, 0.0, 0.0)">
    <path d="M119.7 93.15 L83.2 93.15 83.2 52.8 119.7 52.8 119.7 93.15 M73.55 107.45 Q73.6 101.95 73.75 101.95 L101.75 101.95 101.75 107.95 100.75 107.95 96.0 124.2 94.25 127.2 62.5 127.45 27.0 127.2 25.25 124.2 20.5 107.95 19.5 107.95 19.5 101.95 42.5 101.95 42.7 107.45 42.75 112.95 Q43.75 118.55 49.75 119.2 L55.0 119.2 59.75 119.2 62.5 119.2 66.5 119.2 Q72.5 118.55 73.5 112.95 L73.55 107.45 M44.0 0.2 L44.0 34.45 75.5 59.45 75.5 62.7 55.0 62.7 48.75 56.7 Q48.9 46.5 44.0 40.85 39.0 35.15 29.75 34.95 21.05 34.75 15.2 40.8 9.7 46.5 9.5 54.7 L0.5 46.95 0.0 18.2 1.5 13.45 1.8 0.1 9.2 0.1 9.2 8.2 14.9 8.2 14.9 0.05 20.5 0.05 20.5 8.0 26.3 8.0 26.3 0.0 31.7 0.05 31.7 7.9 37.5 7.9 37.5 0.15 44.0 0.2" fill="#9c0019" fill-opacity="0.6117647" fill-rule="evenodd" stroke="none"/>
  </g>
</svg>
