<?xml version="1.0" encoding="UTF-8" standalone="no"?>
<svg xmlns:xlink="http://www.w3.org/1999/xlink" height="175.0px" width="134.5px" xmlns="http://www.w3.org/2000/svg">
  <g transform="matrix(1.0, 0.0, 0.0, 1.0, 0.0, 0.0)">
    <path d="M82.5 37.0 L86.5 65.5 83.5 68.0 54.5 68.0 47.0 46.1 Q44.8 44.65 42.8 42.65 35.5 35.35 35.5 25.0 35.5 14.65 42.8 7.3 50.15 0.0 60.5 0.0 70.85 0.0 78.15 7.3 85.5 14.65 85.5 25.0 85.5 31.6 82.5 37.0 M95.1 82.7 L133.5 165.0 134.5 174.5 108.2 174.55 Q81.8 174.7 81.5 175.0 L81.45 170.35 80.7 175.0 80.6 175.0 80.6 81.5 95.25 81.5 95.1 82.7 M73.05 15.6 Q68.25 10.8 61.45 10.8 54.65 10.8 49.85 15.6 45.05 20.4 45.05 27.2 45.05 34.0 49.85 38.8 54.65 43.6 61.45 43.6 68.25 43.6 73.05 38.8 77.85 34.0 77.85 27.2 77.85 20.4 73.05 15.6 M54.6 81.5 L54.6 174.85 49.8 174.85 Q43.75 174.65 26.3 174.55 L0.0 174.5 1.0 165.0 40.0 81.5 54.6 81.5" fill="#9c2a00" fill-opacity="0.6117647" fill-rule="evenodd" stroke="none"/>
  </g>
</svg>
