<?xml version="1.0" encoding="UTF-8" standalone="no"?>
<svg xmlns:xlink="http://www.w3.org/1999/xlink" height="167.25px" width="213.15px" xmlns="http://www.w3.org/2000/svg">
  <g transform="matrix(1.0, 0.0, 0.0, 1.0, 1.05, 0.0)">
    <path d="M208.05 46.15 L200.35 50.25 167.9 49.65 167.35 34.3 187.45 34.3 Q187.65 36.1 188.4 38.25 L188.4 38.35 186.95 39.15 185.6 38.8 Q185.15 38.85 184.75 38.5 180.1 36.0 175.4 38.05 174.35 38.5 174.05 39.4 178.25 39.7 182.3 41.4 L182.75 42.2 Q182.4 44.8 183.4 46.8 183.55 47.15 183.85 47.3 186.95 43.8 191.0 41.45 L195.65 41.2 196.55 42.0 Q196.65 44.0 196.15 46.1 L195.85 46.6 203.05 42.45 208.05 46.15 M178.85 135.15 L212.1 164.85 190.95 165.35 136.3 124.15 137.05 122.6 138.95 122.85 Q141.6 122.85 143.5 122.0 147.05 121.45 148.75 118.15 L149.85 114.2 Q149.85 110.6 147.45 108.5 146.55 107.7 145.45 107.25 L144.75 106.8 145.6 105.05 Q145.6 105.4 178.85 135.15 M200.85 5.95 L196.3 2.9 195.15 5.7 194.2 6.65 Q193.4 8.65 191.8 9.75 L188.25 8.1 187.55 7.15 186.85 6.65 Q186.05 6.15 185.65 6.45 185.65 8.0 187.05 9.3 L187.8 9.5 188.25 10.0 189.2 10.0 192.55 11.9 193.5 13.3 193.5 15.15 192.75 15.9 188.4 15.9 186.1 13.55 185.2 11.65 184.7 15.9 167.15 15.9 166.7 2.05 167.75 0.5 169.7 0.0 200.35 0.6 205.55 3.1 Q204.15 8.15 200.95 8.65 L201.05 7.15 200.85 6.9 200.85 5.95 M122.35 24.35 L146.1 0.6 154.75 0.35 130.75 24.35 122.35 24.35 M138.55 0.35 L114.55 24.35 106.15 24.35 129.9 0.6 138.55 0.35 M95.1 17.55 Q99.95 22.4 99.95 29.3 99.95 36.2 95.1 41.05 90.25 45.9 83.35 45.9 76.5 45.9 71.65 41.05 66.75 36.2 66.75 29.3 66.75 22.4 71.65 17.55 76.5 12.7 83.35 12.7 90.25 12.7 95.1 17.55 M85.5 65.15 L83.8 63.05 113.4 63.05 124.15 80.15 121.5 85.35 100.35 85.3 85.5 65.15 M82.6 60.2 L81.05 58.1 79.35 56.0 108.95 56.0 111.65 60.2 82.6 60.2 M71.05 122.85 L72.95 122.6 73.7 124.15 19.05 165.35 -1.05 164.85 31.7 135.15 64.4 105.05 65.25 106.8 64.55 107.25 Q63.45 107.7 62.55 108.5 60.15 110.6 60.15 114.2 L61.25 118.15 Q62.95 121.45 66.5 122.0 68.4 122.85 71.05 122.85 M109.1 105.05 L109.1 167.25 95.75 167.25 95.75 105.05 109.1 105.05" fill="#9c2a00" fill-opacity="0.6117647" fill-rule="evenodd" stroke="none"/>
  </g>
</svg>
