<?xml version="1.0" encoding="UTF-8" standalone="no"?>
<svg xmlns:xlink="http://www.w3.org/1999/xlink" height="154.25px" width="166.85px" xmlns="http://www.w3.org/2000/svg">
  <g transform="matrix(1.0, 0.0, 0.0, 1.0, 83.4, 74.5)">
    <path d="M-66.75 16.15 L-58.6 21.55 58.65 21.55 66.8 16.15 -66.75 16.15 M-51.5 42.6 L-36.0 60.55 36.05 60.55 51.55 42.6 -51.5 42.6 M51.8 -34.1 L36.05 -55.45 -36.0 -55.45 -51.75 -34.1 51.8 -34.1 M66.8 -2.2 L58.9 -15.9 -58.85 -15.9 -66.75 -2.2 66.8 -2.2 M83.45 -7.05 L83.45 6.95 41.75 79.2 -41.7 79.2 -83.4 6.95 -83.4 -7.05 -41.7 -74.5 41.75 -74.5 83.45 -7.05" fill="#23140c" fill-rule="evenodd" stroke="none"/>
    <path d="M-41.65 79.25 L-41.65 61.45" fill="none" stroke="url(#gradient0)" stroke-linecap="butt" stroke-linejoin="miter" stroke-width="1.0"/>
  </g>
  <defs>
    <linearGradient gradientTransform="matrix(0.0, -0.0109, -0.0109, 0.0, -41.65, 70.35)" gradientUnits="userSpaceOnUse" id="gradient0" spreadMethod="pad" x1="-819.2" x2="819.2">
      <stop offset="0.0" stop-color="#1e120b" stop-opacity="0.0"/>
      <stop offset="0.01568627450980392" stop-color="#23150d" stop-opacity="0.019607844"/>
      <stop offset="0.2235294117647059" stop-color="#653e22" stop-opacity="0.3137255"/>
      <stop offset="0.4196078431372549" stop-color="#9c5f34" stop-opacity="0.5568628"/>
      <stop offset="0.6039215686274509" stop-color="#c77a42" stop-opacity="0.7490196"/>
      <stop offset="0.7647058823529411" stop-color="#e68c4c" stop-opacity="0.8862745"/>
      <stop offset="0.9019607843137255" stop-color="#f89852" stop-opacity="0.96862745"/>
      <stop offset="1.0" stop-color="#ff9c54"/>
    </linearGradient>
  </defs>
</svg>
