<?xml version="1.0" encoding="UTF-8" standalone="no"?>
<svg xmlns:xlink="http://www.w3.org/1999/xlink" height="85.4px" width="218.35px" xmlns="http://www.w3.org/2000/svg">
  <g transform="matrix(1.0, 0.0, 0.0, 1.0, 0.0, 0.0)">
    <path d="M190.0 29.5 L164.5 29.5 Q162.1 23.15 156.35 20.0 151.15 17.15 142.0 16.5 136.15 16.05 131.0 18.1 125.3 20.3 122.0 25.0 L94.75 24.8 55.5 24.5 23.5 26.5 0.0 1.0 18.5 0.0 32.0 17.4 103.0 17.0 112.5 0.0 131.5 0.5 132.5 10.0 Q176.4 9.1 190.0 21.5 L190.0 29.5 M204.85 11.3 L218.35 17.6 218.35 29.6 204.3 29.6 Q204.65 29.25 204.8 20.25 L204.85 11.3 M189.9 54.9 L189.9 63.9 Q176.3 76.3 132.4 75.4 L131.4 84.9 112.4 85.4 102.9 67.4 101.25 63.9 125.8 63.9 Q129.45 66.6 133.7 67.9 137.85 69.2 141.9 68.9 160.1 67.6 164.9 54.9 L189.9 54.9 M204.85 73.85 L204.8 64.9 Q204.65 55.9 204.3 55.55 L218.35 55.55 218.35 67.55 204.85 73.85" fill="#9c0000" fill-rule="evenodd" stroke="none"/>
  </g>
</svg>
