<?xml version="1.0" encoding="UTF-8" standalone="no"?>
<svg xmlns:xlink="http://www.w3.org/1999/xlink" height="162.5px" width="458.5px" xmlns="http://www.w3.org/2000/svg">
  <g transform="matrix(1.0, 0.0, 0.0, 1.0, 254.4, 0.35)">
    <path d="M123.95 22.2 Q123.95 20.7 122.2 20.5 120.45 20.35 120.45 22.2 120.45 22.65 120.75 23.1 121.2 23.9 122.2 23.9 123.15 23.9 123.6 23.25 L123.95 22.2 M191.55 148.1 L204.1 162.15 78.1 162.15 78.1 148.1 191.55 148.1 M0.25 30.65 Q1.0 27.25 4.6 18.7 L54.8 18.7 62.8 -0.35 74.7 -0.35 69.55 18.7 125.65 18.7 125.95 45.35 118.15 45.55 Q117.95 42.05 116.05 38.55 112.2 31.55 103.65 31.55 97.2 31.55 93.25 36.1 92.0 37.5 91.15 39.2 L90.55 40.6 77.1 40.7 77.1 45.55 0.0 45.65 0.25 30.65 M125.75 75.6 L47.7 75.55 47.9 77.1 21.8 77.05 10.8 66.05 126.0 65.3 125.75 75.6 M64.2 42.3 Q64.2 40.55 62.5 40.55 60.75 40.5 60.75 42.25 L61.05 43.15 Q61.5 44.0 62.45 44.0 63.4 44.0 63.85 43.3 L64.2 42.3 M-59.55 30.65 L-59.3 45.65 -136.4 45.55 -136.4 40.7 -149.85 40.6 -150.45 39.2 Q-151.3 37.5 -152.55 36.1 -156.5 31.55 -162.95 31.55 -171.5 31.55 -175.35 38.55 -177.25 42.05 -177.45 45.55 L-185.25 45.35 -184.95 18.7 -128.85 18.7 -134.0 -0.35 -122.1 -0.35 -114.1 18.7 -63.9 18.7 Q-60.3 27.25 -59.55 30.65 M-123.5 42.3 L-123.15 43.3 Q-122.7 44.0 -121.75 44.0 -120.8 44.0 -120.35 43.15 -120.05 42.65 -120.05 42.25 -120.05 40.5 -121.8 40.55 -123.5 40.55 -123.5 42.3 M-185.05 75.6 L-185.3 65.3 -70.1 66.05 -81.1 77.05 -107.2 77.1 -107.0 75.55 -185.05 75.6 M-241.85 148.1 L-128.4 148.1 -128.4 162.15 -254.4 162.15 -241.85 148.1 M-183.25 22.2 L-182.9 23.25 Q-182.45 23.9 -181.5 23.9 -180.5 23.9 -180.05 23.1 -179.75 22.65 -179.75 22.2 -179.75 20.35 -181.5 20.5 -183.25 20.7 -183.25 22.2" fill="#9c0000" fill-rule="evenodd" stroke="none"/>
    <path d="M143.4 58.55 Q141.1 54.4 136.9 53.2 L136.9 41.8 151.5 41.8 151.75 64.25 145.2 64.4 Q145.0 61.5 143.4 58.55 M150.05 44.75 Q150.05 43.5 148.6 43.3 147.15 43.2 147.15 44.75 L147.4 45.5 Q147.75 46.2 148.6 46.2 149.4 46.2 149.8 45.65 L150.05 44.75 M151.6 89.75 L107.25 89.75 107.25 81.35 151.8 81.05 151.6 89.75 M-41.0 51.35 L-40.8 64.0 -66.1 64.0 -59.35 60.8 -59.35 41.3 -44.7 41.3 Q-41.65 48.5 -41.0 51.35 M-81.0 89.2 L-102.55 89.25 -102.55 80.85 -49.9 81.2 -59.15 90.45 -81.15 90.5 -81.0 89.2" fill="#9c0000" fill-opacity="0.65882355" fill-rule="evenodd" stroke="none"/>
  </g>
</svg>
