<?xml version="1.0" encoding="UTF-8" standalone="no"?>
<svg xmlns:xlink="http://www.w3.org/1999/xlink" height="151.55px" width="249.8px" xmlns="http://www.w3.org/2000/svg">
  <g transform="matrix(1.0, 0.0, 0.0, 1.0, 180.2, 94.9)">
    <path d="M22.55 -94.9 L24.45 -87.35 22.65 -85.65 21.4 -90.45 20.6 -93.05 Q21.75 -93.9 22.55 -94.9 M1.45 -79.5 L-4.2 -79.9 -3.8 -82.35 -3.15 -86.15 Q-2.8 -88.05 -2.75 -89.1 L-0.65 -89.1 1.5 -89.15 Q4.2 -89.1 6.6 -89.2 L7.95 -82.85 8.35 -80.3 1.45 -79.5 M0.8 -62.1 L3.05 -68.6 3.95 -65.75 5.6 -60.3 14.8 -60.8 7.45 -54.85 10.3 -46.5 8.25 -47.95 8.25 -48.05 Q8.25 -50.2 6.45 -52.0 L6.5 -52.45 0.8 -62.1 M9.35 -3.35 Q12.05 -3.3 14.45 -3.4 L15.8 2.95 16.2 5.5 9.05 6.0 3.65 5.9 4.05 3.45 4.85 -3.55 9.35 -3.35 M65.75 -25.6 L67.7 -27.45 69.6 -19.9 67.8 -18.2 66.55 -23.0 65.75 -25.6 M29.25 -4.65 L28.45 -7.25 30.4 -9.1 32.3 -1.55 30.5 0.15 29.25 -4.65 M53.1 -15.4 L53.5 -12.85 46.35 -12.35 40.95 -12.45 41.35 -14.9 42.15 -21.9 46.65 -21.7 Q49.35 -21.65 51.75 -21.75 L53.1 -15.4 M41.3 8.1 L46.2 8.15 49.05 0.0 49.95 2.85 51.6 8.3 60.8 7.8 53.45 13.75 56.3 22.1 48.75 16.7 41.3 21.25 41.3 18.95 43.95 13.7 41.3 11.45 41.3 8.1 M42.4 33.6 L46.25 32.8 52.05 32.8 52.05 33.2 52.0 39.65 47.75 39.45 Q45.25 39.4 43.05 39.5 L42.4 33.6 M28.5 47.05 L28.7 45.25 31.25 43.95 30.05 50.3 27.85 51.9 28.5 47.05 M0.0 23.0 L8.95 23.15 11.8 15.0 12.7 17.85 14.35 23.3 23.55 22.8 16.2 28.75 19.05 37.1 11.5 31.7 4.0 37.3 6.7 28.7 0.0 23.0 M66.1 28.6 L69.0 26.15 67.9 31.95 65.45 34.4 65.8 31.65 66.1 28.6 M14.75 51.9 L14.65 56.65 13.1 56.45 6.3 56.45 5.55 56.55 5.1 52.3 5.05 50.3 10.6 49.9 11.75 49.9 14.85 50.0 14.75 51.9 M-176.85 -89.35 L-177.95 -84.7 -178.9 -80.8 -180.2 -82.1 -178.65 -91.0 -176.85 -89.35 M-162.85 -85.45 L-158.35 -85.25 Q-155.65 -85.2 -153.25 -85.3 L-152.25 -80.5 -158.55 -80.5 -158.55 -75.9 -158.65 -75.9 -164.05 -76.0 -163.65 -78.45 Q-163.0 -82.8 -162.85 -85.45 M-164.45 -43.35 L-164.85 -41.75 -166.5 -41.75 -165.15 -49.65 -163.35 -48.0 -164.45 -43.35 M-88.85 -92.9 L-84.35 -92.7 Q-81.65 -92.65 -79.25 -92.75 L-77.9 -86.4 -77.5 -83.85 -84.65 -83.35 -85.9 -83.35 -87.05 -85.55 Q-88.05 -87.35 -89.2 -88.95 L-88.85 -92.9 M-107.1 -62.05 L-114.25 -61.55 -117.15 -61.55 -118.3 -63.65 -119.1 -65.05 Q-118.6 -68.75 -118.45 -71.1 L-113.95 -70.9 Q-111.25 -70.85 -108.85 -70.95 L-107.5 -64.6 -107.1 -62.05 M-124.95 -45.2 L-125.75 -47.8 Q-124.6 -48.65 -123.8 -49.65 L-121.9 -42.1 -122.25 -41.75 -124.05 -41.75 -124.95 -45.2 M-139.25 -89.15 Q-138.1 -90.0 -137.3 -91.0 L-135.4 -83.45 -137.2 -81.75 -138.45 -86.55 -139.25 -89.15 M-139.3 -41.75 L-149.55 -41.75 -149.35 -44.1 -144.85 -43.9 Q-142.15 -43.85 -139.75 -43.95 L-139.3 -41.75 M-101.95 -41.75 L-103.95 -41.75 -103.35 -45.25 -101.55 -43.6 -101.95 -41.75 M-98.05 -41.75 L-99.0 -41.75 -98.9 -42.1 -98.05 -41.75 M-17.0 -93.25 L-18.1 -88.6 -19.05 -84.7 -20.35 -86.0 -18.8 -94.9 -17.0 -93.25 M-63.5 -90.5 L-61.8 -90.5 -63.2 -89.2 -63.5 -90.5 M-45.7 -69.65 L-44.35 -63.3 -43.95 -60.75 Q-47.25 -59.75 -50.6 -59.7 -53.95 -59.65 -56.5 -60.35 L-56.1 -62.8 -55.45 -66.6 Q-55.1 -68.5 -55.05 -69.55 L-52.75 -69.35 -50.35 -69.35 -45.7 -69.65 M-4.7 -45.15 Q-3.55 -46.0 -2.75 -47.0 L-1.4 -41.75 -3.7 -41.75 -3.9 -42.55 -4.7 -45.15 M-66.4 -41.75 L-66.9 -41.75 -66.45 -41.95 -66.4 -41.75 M-61.1 -41.75 L-63.45 -41.75 -63.95 -43.4 Q-62.8 -44.25 -62.0 -45.25 L-61.1 -41.75 M-43.15 -41.75 L-45.0 -41.75 -44.1 -47.0 -42.3 -45.35 -43.15 -41.75 M-10.95 -9.1 L-9.15 -7.45 -10.25 -2.8 -11.2 1.1 -12.5 -0.2 -10.95 -9.1 M-11.5 44.45 L-9.25 45.65 -8.7 49.05 -8.55 50.1 -10.5 48.25 -11.5 44.45" fill="#ffffff" fill-opacity="0.9882353" fill-rule="evenodd" stroke="none"/>
  </g>
</svg>
