<?xml version="1.0" encoding="UTF-8" standalone="no"?>
<svg xmlns:xlink="http://www.w3.org/1999/xlink" height="57.95px" width="193.75px" xmlns="http://www.w3.org/2000/svg">
  <g transform="matrix(1.0, 0.0, 0.0, 1.0, 1.0, 1.0)">
    <path d="M128.95 36.95 L129.3 36.65 129.35 36.6 129.75 36.65 130.0 37.0 130.85 39.55 132.2 37.45 Q132.35 37.2 132.6 37.2 L133.05 37.25 133.3 37.65 133.2 38.1 131.3 41.0 132.85 45.65 135.9 41.7 134.9 38.35 134.9 37.95 135.25 37.65 135.7 37.65 136.0 38.05 136.8 40.55 138.4 38.45 138.8 38.2 139.25 38.35 139.45 38.75 139.3 39.2 137.75 41.25 140.2 41.2 140.6 41.35 140.8 41.8 140.65 42.15 Q140.45 42.35 140.25 42.35 L136.8 42.45 133.7 46.45 138.55 47.95 141.4 46.05 141.85 45.9 142.2 46.2 142.3 46.65 142.05 47.0 140.0 48.4 142.5 49.1 142.85 49.45 142.9 49.9 142.6 50.25 142.15 50.3 139.65 49.5 140.45 52.0 140.4 52.45 140.05 52.75 139.6 52.75 139.35 52.4 138.25 49.05 133.55 47.6 135.1 52.45 138.5 53.55 138.8 53.8 138.85 54.3 138.55 54.6 138.15 54.65 135.5 53.85 136.25 56.15 136.25 56.6 135.9 56.95 135.45 56.85 135.15 56.5 134.45 54.3 133.15 56.35 132.75 56.6 132.35 56.5 132.05 56.15 132.2 55.7 134.0 52.85 132.4 48.15 129.4 52.05 130.4 55.45 130.35 55.9 130.05 56.15 129.55 56.15 129.3 55.75 128.55 53.25 127.05 55.1 Q126.9 55.3 126.6 55.3 L126.25 55.15 126.0 54.8 126.1 54.3 127.55 52.55 125.15 52.6 124.7 52.4 Q124.55 52.3 124.55 52.0 L124.65 51.6 Q124.85 51.45 125.1 51.45 L128.45 51.4 131.7 47.05 126.6 45.45 123.8 47.35 123.35 47.45 Q123.1 47.4 123.0 47.15 L122.9 46.75 Q122.95 46.5 123.2 46.4 L125.15 45.05 122.9 44.35 122.6 44.05 122.55 43.6 122.85 43.25 123.3 43.2 125.6 43.95 124.7 41.4 Q124.65 41.15 124.75 40.95 124.85 40.7 125.1 40.6 L125.55 40.65 125.8 41.0 126.95 44.35 131.7 45.8 130.15 41.3 126.85 40.25 126.55 40.0 126.45 39.55 126.75 39.2 127.2 39.15 129.7 39.9 128.85 37.45 128.95 36.95 M175.45 34.4 Q175.7 34.45 175.85 34.65 L177.2 36.7 177.9 34.25 178.25 33.85 178.7 33.8 179.1 34.1 179.1 34.55 178.1 38.0 181.4 42.7 184.65 38.0 183.65 34.55 Q183.6 34.3 183.7 34.1 L184.1 33.8 184.55 33.85 184.85 34.25 185.6 36.7 187.0 34.65 187.4 34.4 187.9 34.5 188.15 34.9 188.05 35.4 186.6 37.45 189.45 37.4 189.9 37.6 190.1 38.05 189.95 38.5 189.5 38.65 185.7 38.75 182.75 43.05 187.75 43.0 189.85 39.95 Q190.0 39.75 190.25 39.7 L190.7 39.8 191.0 40.2 190.9 40.65 189.3 43.0 192.15 42.95 192.6 43.1 192.75 43.55 192.75 43.65 192.6 44.0 192.15 44.2 189.35 44.25 191.05 46.25 191.15 46.75 190.95 47.2 190.45 47.3 Q190.2 47.3 190.05 47.1 L187.75 44.25 182.55 44.3 185.55 48.65 189.25 48.7 189.7 48.9 189.85 49.35 189.65 49.8 189.2 49.95 186.4 49.95 188.05 52.25 188.15 52.75 187.85 53.15 187.4 53.25 187.0 52.95 185.4 50.65 184.65 53.2 184.35 53.6 183.85 53.6 183.5 53.35 Q183.4 53.1 183.45 52.85 L184.5 49.35 181.4 44.95 178.35 49.35 179.35 52.85 179.3 53.35 178.95 53.6 178.45 53.6 178.15 53.2 177.4 50.65 175.85 53.0 175.45 53.25 174.95 53.15 174.7 52.75 174.8 52.25 176.4 49.95 173.6 49.95 173.15 49.8 172.95 49.35 Q172.95 49.05 173.15 48.9 L173.55 48.7 177.3 48.65 180.25 44.35 174.85 44.4 172.7 47.45 172.3 47.7 171.8 47.6 171.55 47.2 171.65 46.75 173.3 44.4 170.7 44.4 170.25 44.2 170.05 43.75 170.25 43.3 170.7 43.1 173.15 43.1 171.55 41.15 171.4 40.7 Q171.45 40.45 171.65 40.3 L172.1 40.1 Q172.35 40.15 172.55 40.35 L174.8 43.1 180.15 43.1 177.1 38.75 173.35 38.65 172.9 38.5 172.7 38.05 172.9 37.6 173.4 37.4 176.2 37.45 174.8 35.35 174.7 34.9 174.95 34.5 175.45 34.4 M136.7 -0.45 L137.3 -0.95 138.05 -0.85 138.5 -0.25 139.65 3.65 141.9 0.45 Q142.1 0.1 142.55 0.05 L143.3 0.2 143.7 0.85 143.55 1.6 141.25 4.9 145.8 4.8 Q146.2 4.8 146.5 5.1 L146.8 5.8 146.55 6.5 145.85 6.8 139.85 6.9 135.1 13.75 143.1 13.65 143.1 13.5 146.35 8.85 Q146.55 8.5 146.95 8.45 L147.7 8.6 148.15 9.2 148.0 9.95 145.5 13.6 150.05 13.55 Q150.45 13.55 150.75 13.85 L151.05 14.55 150.8 15.25 150.1 15.55 145.6 15.65 148.3 18.85 148.5 19.6 148.15 20.3 147.4 20.5 146.75 20.15 143.05 15.65 134.8 15.75 138.6 21.15 138.75 21.9 138.35 22.55 137.6 22.7 Q137.15 22.6 136.95 22.3 L133.0 16.7 131.25 19.3 Q131.0 19.6 130.6 19.7 L129.85 19.55 129.45 18.9 Q129.35 18.45 129.6 18.15 L131.2 15.8 122.6 15.85 119.6 20.2 118.95 20.6 118.2 20.45 Q117.85 20.2 117.8 19.8 117.7 19.35 117.95 19.05 L120.15 15.85 116.05 15.85 Q115.65 15.85 115.35 15.55 115.05 15.25 115.05 14.85 115.05 14.45 115.35 14.15 115.65 13.85 116.05 13.85 L119.95 13.85 117.4 10.75 Q117.1 10.4 117.15 10.0 117.2 9.6 117.55 9.35 117.85 9.05 118.25 9.1 L118.95 9.45 122.55 13.85 131.0 13.8 126.2 6.9 120.25 6.8 Q119.8 6.8 119.55 6.5 119.25 6.2 119.25 5.8 119.25 5.35 119.55 5.1 119.85 4.8 120.3 4.8 L124.8 4.9 122.55 1.55 Q122.3 1.2 122.4 0.8 122.45 0.4 122.8 0.2 L123.55 0.05 Q123.95 0.1 124.2 0.45 L126.35 3.65 127.5 -0.25 128.0 -0.85 128.75 -0.95 129.35 -0.45 129.4 0.3 127.8 5.7 133.05 13.2 138.2 5.7 136.6 0.3 Q136.5 -0.1 136.7 -0.45 M20.65 -0.45 L21.25 -0.95 22.0 -0.85 22.45 -0.25 23.6 3.65 25.85 0.45 Q26.05 0.1 26.5 0.05 L27.25 0.2 27.65 0.85 27.5 1.6 25.2 4.9 29.75 4.8 Q30.15 4.8 30.45 5.1 L30.75 5.8 30.5 6.5 Q30.2 6.8 29.8 6.8 L23.8 6.9 19.1 13.75 27.05 13.65 30.4 8.85 Q30.6 8.5 31.0 8.45 L31.75 8.6 32.2 9.2 32.05 9.95 29.5 13.65 34.0 13.55 Q34.4 13.55 34.7 13.85 L35.0 14.55 35.0 14.7 34.75 15.25 34.05 15.55 29.55 15.65 32.25 18.85 32.45 19.6 32.1 20.3 31.35 20.5 30.7 20.15 27.0 15.65 18.75 15.75 23.55 22.6 29.4 22.7 Q29.8 22.7 30.1 23.0 L30.35 23.75 30.05 24.45 29.35 24.7 24.9 24.65 27.5 28.35 27.65 29.1 27.2 29.75 26.45 29.9 25.85 29.45 23.3 25.8 22.1 29.85 21.65 30.45 20.85 30.5 20.3 30.05 Q20.1 29.65 20.2 29.25 L21.85 23.7 16.95 16.75 12.1 23.7 13.7 29.3 13.65 30.05 13.05 30.5 12.3 30.45 11.8 29.85 10.65 25.8 8.15 29.5 7.5 29.9 6.75 29.75 6.35 29.1 Q6.25 28.65 6.5 28.35 L9.05 24.65 4.6 24.7 3.85 24.45 Q3.55 24.15 3.55 23.75 3.55 23.3 3.85 23.0 4.1 22.7 4.55 22.7 L10.45 22.6 15.15 15.8 6.55 15.85 3.15 20.75 2.5 21.15 1.75 21.0 Q1.4 20.75 1.35 20.35 1.25 19.9 1.5 19.6 L4.1 15.85 0.0 15.85 -0.7 15.55 -1.0 14.85 -0.7 14.15 Q-0.4 13.85 0.0 13.85 L3.9 13.85 1.35 10.75 Q1.05 10.4 1.1 10.0 1.15 9.6 1.5 9.35 1.8 9.05 2.2 9.1 2.6 9.15 2.9 9.5 L6.5 13.85 14.95 13.8 10.15 6.9 4.2 6.8 3.5 6.5 Q3.2 6.2 3.2 5.8 3.2 5.35 3.5 5.1 3.8 4.8 4.25 4.8 L8.75 4.9 6.5 1.55 Q6.25 1.2 6.35 0.8 6.4 0.4 6.75 0.2 7.1 -0.05 7.5 0.05 7.9 0.1 8.15 0.45 L10.3 3.65 11.45 -0.25 Q11.55 -0.65 11.95 -0.85 L12.7 -0.95 13.3 -0.45 13.35 0.3 11.75 5.7 17.0 13.2 22.15 5.75 20.55 0.3 Q20.45 -0.1 20.65 -0.45" fill="#ffffff" fill-rule="evenodd" stroke="none"/>
  </g>
</svg>
