<?xml version="1.0" encoding="UTF-8" standalone="no"?>
<svg xmlns:xlink="http://www.w3.org/1999/xlink" height="148.5px" width="481.9px" xmlns="http://www.w3.org/2000/svg">
  <g transform="matrix(1.0, 0.0, 0.0, 1.0, 0.9, -30.6)">
    <path d="M3.95 32.55 L475.9 32.55 475.9 179.05 3.95 179.05 3.95 32.55" fill="url(#gradient0)" fill-rule="evenodd" stroke="none"/>
    <path d="M3.95 30.6 L475.9 30.6 475.9 179.1 3.95 179.1 3.95 30.6" fill="url(#gradient1)" fill-rule="evenodd" stroke="none"/>
    <path d="M481.0 37.75 L-0.9 37.75 -0.9 35.95 481.0 35.95 481.0 37.75 M481.0 33.95 L-0.9 33.95 -0.9 32.15 481.0 32.15 481.0 33.95 M481.0 41.55 L-0.9 41.55 -0.9 39.75 481.0 39.75 481.0 41.55 M481.0 49.15 L-0.9 49.15 -0.9 47.25 481.0 47.25 481.0 49.15 M481.0 45.35 L-0.9 45.35 -0.9 43.5 481.0 43.5 481.0 45.35 M481.0 56.7 L-0.9 56.7 -0.9 54.85 481.0 54.85 481.0 56.7 M481.0 52.95 L-0.9 52.95 -0.9 51.05 481.0 51.05 481.0 52.95 M481.0 68.05 L-0.9 68.05 -0.9 66.2 481.0 66.2 481.0 68.05 M481.0 64.25 L-0.9 64.25 -0.9 62.45 481.0 62.45 481.0 64.25 M481.0 60.45 L-0.9 60.45 -0.9 58.65 481.0 58.65 481.0 60.45 M481.0 71.85 L-0.9 71.85 -0.9 70.0 481.0 70.0 481.0 71.85 M481.0 79.4 L-0.9 79.4 -0.9 77.55 481.0 77.55 481.0 79.4 M481.0 86.95 L-0.9 86.95 -0.9 85.15 481.0 85.15 481.0 86.95 M481.0 83.15 L-0.9 83.15 -0.9 81.35 481.0 81.35 481.0 83.15 M481.0 90.75 L-0.9 90.75 -0.9 88.95 481.0 88.95 481.0 90.75 M481.0 94.55 L-0.9 94.55 -0.9 92.7 481.0 92.7 481.0 94.55 M481.0 98.35 L-0.9 98.35 -0.9 96.5 481.0 96.5 481.0 98.35 M481.0 75.65 L-0.9 75.65 -0.9 73.8 481.0 73.8 481.0 75.65 M481.0 109.65 L-0.9 109.65 -0.9 107.8 481.0 107.8 481.0 109.65 M481.0 105.9 L-0.9 105.9 -0.9 104.05 481.0 104.05 481.0 105.9 M481.0 102.1 L-0.9 102.1 -0.9 100.3 481.0 100.3 481.0 102.1 M481.0 117.25 L-0.9 117.25 -0.9 115.45 481.0 115.45 481.0 117.25 M481.0 113.45 L-0.9 113.45 -0.9 111.65 481.0 111.65 481.0 113.45 M481.0 121.05 L-0.9 121.05 -0.9 119.25 481.0 119.25 481.0 121.05 M481.0 147.55 L-0.9 147.55 -0.9 145.7 481.0 145.7 481.0 147.55 M481.0 143.75 L-0.9 143.75 -0.9 141.95 481.0 141.95 481.0 143.75 M481.0 139.95 L-0.9 139.95 -0.9 138.15 481.0 138.15 481.0 139.95 M481.0 128.65 L-0.9 128.65 -0.9 126.75 481.0 126.75 481.0 128.65 M481.0 136.2 L-0.9 136.2 -0.9 134.35 481.0 134.35 481.0 136.2 M481.0 132.45 L-0.9 132.45 -0.9 130.55 481.0 130.55 481.0 132.45 M481.0 124.85 L-0.9 124.85 -0.9 123.0 481.0 123.0 481.0 124.85 M481.0 170.25 L-0.9 170.25 -0.9 168.45 481.0 168.45 481.0 170.25 M481.0 158.9 L-0.9 158.9 -0.9 157.05 481.0 157.05 481.0 158.9 M481.0 166.45 L-0.9 166.45 -0.9 164.65 481.0 164.65 481.0 166.45 M481.0 162.65 L-0.9 162.65 -0.9 160.85 481.0 160.85 481.0 162.65 M481.0 155.15 L-0.9 155.15 -0.9 153.3 481.0 153.3 481.0 155.15 M481.0 151.35 L-0.9 151.35 -0.9 149.5 481.0 149.5 481.0 151.35 M481.0 177.85 L-0.9 177.85 -0.9 176.0 481.0 176.0 481.0 177.85 M481.0 174.05 L-0.9 174.05 -0.9 172.2 481.0 172.2 481.0 174.05" fill="#000000" fill-opacity="0.6" fill-rule="evenodd" stroke="none"/>
  </g>
  <defs>
    <radialGradient cx="0" cy="0" gradientTransform="matrix(0.3087, 0.0, 0.0, 0.2274, 242.3, 33.4)" gradientUnits="userSpaceOnUse" id="gradient0" r="819.2" spreadMethod="pad">
      <stop offset="0.0" stop-color="#990000"/>
      <stop offset="1.0" stop-color="#230000"/>
    </radialGradient>
    <radialGradient cx="0" cy="0" gradientTransform="matrix(0.3008, 0.0, 0.0, 0.0994, 232.3, 95.3)" gradientUnits="userSpaceOnUse" id="gradient1" r="819.2" spreadMethod="pad">
      <stop offset="0.0" stop-color="#0099ff"/>
      <stop offset="1.0" stop-color="#230000"/>
    </radialGradient>
  </defs>
</svg>
