<?xml version="1.0" encoding="UTF-8" standalone="no"?>
<svg xmlns:xlink="http://www.w3.org/1999/xlink" height="80.3px" width="111.6px" xmlns="http://www.w3.org/2000/svg">
  <g transform="matrix(1.0, 0.0, 0.0, 1.0, -376.95, -23.65)">
    <path d="M487.2 79.4 L487.2 79.3 487.2 77.25 481.6 77.25 481.6 76.2 488.25 76.2 488.25 103.9 481.6 103.9 481.6 102.85 487.2 102.85 487.2 79.4 M378.0 30.8 L376.95 30.8 376.95 23.85 418.15 23.85 Q418.4 23.85 418.55 24.0 L418.7 24.35 418.7 30.8 417.65 30.8 417.65 24.85 378.0 24.85 378.0 30.8" fill="#ff0000" fill-rule="evenodd" stroke="none"/>
    <path d="M487.2 79.4 L487.2 102.85 481.6 102.85 481.6 79.4 487.2 79.4 M481.6 77.25 L487.2 77.25 487.2 79.3 481.6 79.3 481.6 77.25 M378.0 30.8 L378.0 24.85 417.65 24.85 417.65 30.8 378.0 30.8" fill="#950505" fill-rule="evenodd" stroke="none"/>
    <path d="M481.7 79.05 L481.7 103.7 380.35 30.95 418.5 30.95 481.7 79.05" fill="#000000" fill-opacity="0.7019608" fill-rule="evenodd" stroke="none"/>
    <path d="M488.05 76.6 L488.05 103.45 377.65 24.15 419.2 24.15 488.05 76.6" fill="#c00808" fill-rule="evenodd" stroke="none"/>
    <path d="M488.05 76.6 L488.05 103.45 377.65 24.15 419.2 24.15 488.05 76.6 Z" fill="none" stroke="#ff0000" stroke-linecap="round" stroke-linejoin="round" stroke-width="1.0"/>
  </g>
</svg>
