<?xml version="1.0" encoding="UTF-8" standalone="no"?>
<svg xmlns:xlink="http://www.w3.org/1999/xlink" height="136.0px" width="178.1px" xmlns="http://www.w3.org/2000/svg">
  <g transform="matrix(1.0, 0.0, 0.0, 1.0, 0.0, 0.0)">
    <path d="M172.4 4.25 Q173.2 6.45 172.9 8.25 172.6 10.1 171.4 10.55 170.2 10.95 168.8 9.75 167.4 8.55 166.6 6.35 165.8 4.2 166.1 2.35 166.4 0.5 167.6 0.1 168.8 -0.35 170.2 0.85 171.6 2.1 172.4 4.25" fill="url(#gradient0)" fill-rule="evenodd" stroke="none"/>
    <path d="M178.1 71.8 Q177.95 73.6 177.0 74.75 175.95 75.95 174.65 75.9 173.4 75.75 172.65 74.55 171.85 73.3 171.95 71.5 172.15 69.8 173.1 68.6 174.15 67.45 175.45 67.45 176.7 67.55 177.5 68.8 178.25 70.05 178.1 71.8" fill="url(#gradient1)" fill-rule="evenodd" stroke="none"/>
    <path d="M164.75 132.45 Q164.25 134.15 163.3 135.2 162.3 136.2 161.3 135.95 160.35 135.65 160.05 134.3 159.7 133.0 160.1 131.2 160.6 129.6 161.55 128.55 162.6 127.6 163.55 127.8 164.45 128.1 164.8 129.4 165.2 130.75 164.75 132.45" fill="url(#gradient2)" fill-rule="evenodd" stroke="none"/>
    <path d="M123.8 23.25 Q123.8 26.05 121.8 28.0 119.85 30.0 117.05 30.0 114.25 30.0 112.25 28.0 110.3 26.05 110.3 23.25 110.3 20.45 112.25 18.45 114.25 16.5 117.05 16.5 119.85 16.5 121.8 18.45 123.8 20.45 123.8 23.25" fill="url(#gradient3)" fill-rule="evenodd" stroke="none"/>
    <path d="M10.45 6.2 Q10.8 8.45 9.4 10.15 8.0 12.0 5.85 12.25 3.55 12.45 2.0 11.2 0.3 9.85 0.0 7.55 -0.15 5.45 1.05 3.7 2.5 1.95 4.75 1.6 6.95 1.3 8.65 2.6 10.2 4.0 10.45 6.2" fill="url(#gradient4)" fill-rule="evenodd" stroke="none"/>
    <path d="M30.55 75.15 Q31.15 77.35 30.5 79.05 29.85 80.9 28.45 81.15 26.95 81.35 25.65 80.1 24.3 78.75 23.7 76.45 23.25 74.35 23.75 72.6 24.45 70.85 25.9 70.5 27.35 70.2 28.7 71.5 30.0 72.9 30.55 75.15" fill="url(#gradient5)" fill-rule="evenodd" stroke="none"/>
    <path d="M71.35 130.45 Q71.35 132.05 70.45 133.1 69.5 134.2 68.2 134.15 66.9 134.0 66.1 132.95 65.2 131.8 65.2 130.15 65.3 128.65 66.15 127.55 67.15 126.5 68.45 126.5 69.7 126.6 70.6 127.7 71.4 128.85 71.35 130.45" fill="url(#gradient6)" fill-rule="evenodd" stroke="none"/>
  </g>
  <defs>
    <radialGradient cx="0" cy="0" gradientTransform="matrix(0.0038, -0.0014, 0.0025, 0.0069, 169.5, 5.3)" gradientUnits="userSpaceOnUse" id="gradient0" r="819.2" spreadMethod="pad">
      <stop offset="0.0" stop-color="#ffffff"/>
      <stop offset="1.0" stop-color="#ff0000"/>
    </radialGradient>
    <radialGradient cx="0" cy="0" gradientTransform="matrix(0.004, 2.0E-4, -5.0E-4, 0.0055, 175.05, 71.7)" gradientUnits="userSpaceOnUse" id="gradient1" r="819.2" spreadMethod="pad">
      <stop offset="0.0" stop-color="#ffffff"/>
      <stop offset="1.0" stop-color="#ff0000"/>
    </radialGradient>
    <radialGradient cx="0" cy="0" gradientTransform="matrix(0.003, 8.0E-4, -0.0014, 0.0053, 162.4, 131.9)" gradientUnits="userSpaceOnUse" id="gradient2" r="819.2" spreadMethod="pad">
      <stop offset="0.0" stop-color="#ffffff"/>
      <stop offset="1.0" stop-color="#ff0000"/>
    </radialGradient>
    <radialGradient cx="0" cy="0" gradientTransform="matrix(0.0089, 0.0, 0.0, 0.0089, 117.05, 23.25)" gradientUnits="userSpaceOnUse" id="gradient3" r="819.2" spreadMethod="pad">
      <stop offset="0.0" stop-color="#ffffff"/>
      <stop offset="1.0" stop-color="#ff0000"/>
    </radialGradient>
    <radialGradient cx="0" cy="0" gradientTransform="matrix(0.0069, -9.0E-4, 7.0E-4, 0.007, 5.25, 7.0)" gradientUnits="userSpaceOnUse" id="gradient4" r="819.2" spreadMethod="pad">
      <stop offset="0.0" stop-color="#ffffff"/>
      <stop offset="1.0" stop-color="#ff0000"/>
    </radialGradient>
    <radialGradient cx="0" cy="0" gradientTransform="matrix(0.0045, -9.0E-4, 0.0017, 0.007, 27.15, 75.9)" gradientUnits="userSpaceOnUse" id="gradient5" r="819.2" spreadMethod="pad">
      <stop offset="0.0" stop-color="#ffffff"/>
      <stop offset="1.0" stop-color="#ff0000"/>
    </radialGradient>
    <radialGradient cx="0" cy="0" gradientTransform="matrix(0.004, 2.0E-4, -1.0E-4, 0.005, 68.3, 130.35)" gradientUnits="userSpaceOnUse" id="gradient6" r="819.2" spreadMethod="pad">
      <stop offset="0.0" stop-color="#ffffff"/>
      <stop offset="1.0" stop-color="#ff0000"/>
    </radialGradient>
  </defs>
</svg>
