<?xml version="1.0" encoding="UTF-8" standalone="no"?>
<svg xmlns:xlink="http://www.w3.org/1999/xlink" height="36.4px" width="38.2px" xmlns="http://www.w3.org/2000/svg">
  <g transform="matrix(1.0, 0.0, 0.0, 1.0, -60.75, -3.6)">
    <path d="M95.85 3.65 L97.15 6.2 97.35 8.2 97.05 11.1 98.95 13.6 97.35 18.75 96.85 16.7 97.55 15.1 95.15 12.6 Q95.75 12.5 96.05 9.1 95.65 7.45 96.25 6.9 95.8 6.7 95.5 5.05 95.2 3.35 95.85 3.65 M60.75 20.05 L67.5 21.85 69.6 28.05 71.05 32.3 81.2 38.5 81.25 39.95 71.65 34.65 71.4 36.8 71.1 39.4 65.35 40.0 64.65 39.65 63.95 39.3 62.7 36.45 61.45 33.6 61.05 26.75 60.75 20.05 M98.0 37.6 L97.55 39.2 96.05 39.6 96.15 38.65 97.75 37.55 98.0 37.6 M78.8 20.05 Q78.65 20.25 76.15 17.75 L73.15 15.8 74.75 11.8 65.4 6.15 62.1 5.25 63.2 4.35 64.7 4.45 68.75 6.2 Q71.5 7.15 74.55 9.3 77.3 11.3 79.1 13.6 L76.95 15.5 77.05 16.7 78.8 17.75 78.8 20.05" fill="#000000" fill-opacity="0.4392157" fill-rule="evenodd" stroke="none"/>
  </g>
</svg>
