<?xml version="1.0" encoding="UTF-8" standalone="no"?>
<svg xmlns:xlink="http://www.w3.org/1999/xlink" height="153.7px" width="166.85px" xmlns="http://www.w3.org/2000/svg">
  <g transform="matrix(1.0, 0.0, 0.0, 1.0, 83.4, 75.05)">
    <path d="M-51.5 42.05 L-36.0 60.0 36.05 60.0 51.55 42.05 -51.5 42.05 M-66.75 15.6 L-58.6 21.0 58.65 21.0 66.8 15.6 -66.75 15.6 M-83.4 -7.55 L-41.7 -75.05 41.75 -75.05 83.45 -7.55 83.45 6.45 41.75 78.65 -41.7 78.65 -83.4 6.45 -83.4 -7.55 M51.8 -34.65 L36.05 -56.0 -36.0 -56.0 -51.75 -34.65 51.8 -34.65 M66.8 -2.75 L58.9 -16.45 -58.85 -16.45 -66.75 -2.75 66.8 -2.75" fill="#23140c" fill-rule="evenodd" stroke="none"/>
  </g>
</svg>
