<?xml version="1.0" encoding="UTF-8" standalone="no"?>
<svg xmlns:xlink="http://www.w3.org/1999/xlink" height="13.5px" width="9.0px" xmlns="http://www.w3.org/2000/svg">
  <g transform="matrix(1.0, 0.0, 0.0, 1.0, -18.65, -2.3)">
    <path d="M26.45 5.15 L26.45 7.65 27.65 7.65 27.65 15.8 18.65 15.8 18.65 7.65 19.95 7.65 19.95 5.15 Q19.95 3.95 20.9 3.1 21.8 2.3 23.2 2.3 24.55 2.3 25.5 3.1 26.45 3.95 26.45 5.15 M24.75 5.95 Q24.75 5.15 24.3 4.65 23.85 4.1 23.2 4.1 22.55 4.1 22.1 4.65 21.65 5.15 21.65 5.95 L21.65 7.65 24.75 7.65 24.75 5.95 M22.4 11.0 L22.6 11.2 21.9 13.75 24.55 13.75 23.85 11.2 24.05 11.0 Q24.4 10.65 24.4 10.15 24.4 9.65 24.05 9.3 23.75 8.95 23.2 8.95 22.7 8.95 22.4 9.3 22.0 9.65 22.0 10.15 22.0 10.65 22.4 11.0" fill="#737373" fill-rule="evenodd" stroke="none"/>
  </g>
</svg>
