<?xml version="1.0" encoding="UTF-8" standalone="no"?>
<svg xmlns:xlink="http://www.w3.org/1999/xlink" height="361.0px" width="482.3px" xmlns="http://www.w3.org/2000/svg">
  <g transform="matrix(1.0, 0.0, 0.0, 1.0, 0.8, 0.55)">
    <path d="M2.2 23.4 L-0.5 23.35 239.1 23.35 481.45 23.3 478.85 23.4 Q435.05 24.4 357.3 24.4 277.2 24.4 230.4 24.55 183.6 24.7 97.95 24.15 L63.1 23.7 2.75 23.4 2.2 23.4" fill="url(#gradient0)" fill-rule="evenodd" stroke="none"/>
    <path d="M478.85 23.4 L481.45 23.4 Q437.65 24.85 358.0 24.85 L231.85 25.05 Q185.3 25.25 100.15 24.55 14.95 23.85 2.2 23.4 L2.75 23.4 63.1 23.7 97.95 24.15 Q183.6 24.7 230.4 24.55 277.2 24.4 357.3 24.4 435.05 24.4 478.85 23.4" fill="url(#gradient1)" fill-rule="evenodd" stroke="none"/>
    <path d="M10.5 -0.55 L481.35 -0.55 481.35 349.05 470.5 359.95 -0.4 359.95 -0.4 10.3 10.5 -0.55" fill="url(#gradient2)" fill-rule="evenodd" stroke="none"/>
    <path d="M481.45 347.6 L481.5 350.45 471.35 360.05 -0.45 360.45 -0.35 358.5 470.5 358.5 481.45 347.6" fill="url(#gradient3)" fill-rule="evenodd" stroke="none"/>
    <path d="M481.05 169.0 L-0.4 169.0 -0.4 29.05 481.05 29.05 481.05 169.0" fill="#000000" fill-rule="evenodd" stroke="none"/>
    <path d="M481.05 168.95 L-0.4 168.95 -0.4 28.95 481.05 28.95 481.05 168.95" fill="url(#gradient4)" fill-rule="evenodd" stroke="none"/>
    <path d="M-0.45 326.35 L481.0 326.35 481.0 343.85 -0.45 343.85 -0.45 326.35" fill="url(#gradient5)" fill-rule="evenodd" stroke="none"/>
    <path d="M481.0 343.1 L481.0 344.6 -0.45 344.6 -0.45 343.1 481.0 343.1" fill="url(#gradient6)" fill-rule="evenodd" stroke="none"/>
    <path d="M478.9 28.45 L452.8 29.3 Q415.35 30.2 359.95 30.2 283.2 30.2 238.35 30.45 193.5 30.7 111.5 29.85 29.4 29.0 17.1 28.5 L246.65 28.5 452.8 28.45 478.9 28.45" fill="url(#gradient7)" fill-rule="evenodd" stroke="none"/>
    <path d="M480.35 269.95 L480.35 269.9 -0.35 269.9 -0.35 30.7 480.9 30.7 480.9 271.7 480.35 271.7 480.35 271.45 480.85 271.45 480.85 271.2 480.35 271.2 480.35 269.95" fill="url(#gradient8)" fill-rule="evenodd" stroke="none"/>
    <path d="M480.35 269.95 L480.35 271.2 480.85 271.2 480.85 271.45 480.35 271.45 -0.8 271.45 -0.8 269.95 480.35 269.95" fill="url(#gradient9)" fill-rule="evenodd" stroke="none"/>
    <path d="M397.05 115.0 L86.7 115.0 M397.05 113.0 L86.7 113.0 M397.05 111.0 L86.7 111.0 M397.05 129.0 L86.7 129.0 M397.05 131.0 L86.7 131.0 M397.05 143.0 L86.7 143.0 M397.05 133.0 L86.7 133.0 M397.05 157.0 L87.05 157.0 M397.05 155.0 L87.05 155.0 M397.05 153.0 L87.05 153.0 M397.05 151.0 L87.05 151.0 M397.05 145.0 L86.7 145.0 M397.05 147.0 L86.7 147.0 M397.05 149.0 L86.7 149.0 M397.05 165.0 L86.7 165.0 M397.05 163.0 L86.7 163.0 M397.05 161.0 L86.7 161.0 M397.05 159.0 L86.7 159.0 M397.05 171.0 L86.7 171.0 M397.05 169.0 L86.7 169.0 M397.05 167.0 L86.7 167.0 M397.05 173.0 L87.05 173.0 M397.05 179.0 L92.15 179.0 M397.05 185.0 L98.2 185.0 M397.05 183.0 L96.2 183.0 M397.05 181.0 L94.15 181.0 M397.05 177.0 L90.1 177.0 M397.05 175.0 L88.1 175.0 M389.35 39.0 L87.05 39.0 M391.15 41.0 L87.05 41.0 M393.15 43.0 L87.05 43.0 M394.9 45.0 L87.05 45.0 M397.05 105.0 L87.05 105.0 M397.05 103.0 L87.05 103.0 M397.05 77.0 L87.05 77.0 M397.05 87.0 L87.05 87.0 M397.05 89.0 L87.05 89.0 M397.05 91.0 L87.05 91.0 M397.05 93.0 L87.05 93.0 M397.05 75.0 L87.05 75.0 M397.05 73.0 L87.05 73.0 M397.05 71.0 L87.05 71.0 M397.05 61.0 L87.05 61.0 M397.05 59.0 L87.05 59.0 M397.05 57.0 L87.05 57.0 M397.05 55.0 L87.05 55.0 M397.05 47.0 L86.7 47.0 M397.05 49.0 L86.7 49.0 M397.05 51.0 L86.7 51.0 M397.05 53.0 L86.7 53.0 M397.05 69.0 L86.7 69.0 M397.05 67.0 L86.7 67.0 M397.05 65.0 L86.7 65.0 M397.05 63.0 L86.7 63.0 M397.05 95.0 L86.7 95.0 M397.05 85.0 L86.7 85.0 M397.05 83.0 L86.7 83.0 M397.05 81.0 L86.7 81.0 M397.05 79.0 L86.7 79.0 M397.05 97.0 L86.7 97.0 M397.05 99.0 L86.7 99.0 M397.05 101.0 L86.7 101.0 M397.05 127.0 L86.7 127.0 M397.05 117.0 L86.7 117.0 M397.05 109.0 L87.05 109.0 M397.05 135.0 L87.05 135.0 M397.05 137.0 L87.05 137.0 M397.05 139.0 L87.05 139.0 M397.05 141.0 L87.05 141.0 M397.05 119.0 L87.05 119.0 M397.05 121.0 L87.05 121.0 M397.05 123.0 L87.05 123.0 M397.05 125.0 L87.05 125.0 M397.05 107.0 L87.05 107.0" fill="none" stroke="url(#gradient10)" stroke-linecap="round" stroke-linejoin="round" stroke-width="0.5"/>
    <path d="M10.45 193.55 L469.4 193.55 Q474.4 193.55 474.4 198.55 L474.4 258.5 Q474.4 263.5 469.4 263.5 L10.45 263.5 Q5.45 263.5 5.45 258.5 L5.45 198.55 Q5.45 193.55 10.45 193.55" fill="#000000" fill-opacity="0.5019608" fill-rule="evenodd" stroke="none"/>
  </g>
  <defs>
    <radialGradient cx="0" cy="0" gradientTransform="matrix(0.297, 0.0, 0.0, 0.2145, 240.5, 23.95)" gradientUnits="userSpaceOnUse" id="gradient0" r="819.2" spreadMethod="pad">
      <stop offset="0.0" stop-color="#ff0000"/>
      <stop offset="1.0" stop-color="#ff0000" stop-opacity="0.0"/>
    </radialGradient>
    <radialGradient cx="0" cy="0" gradientTransform="matrix(0.2953, 0.0, 0.0, 0.2953, 241.85, 24.25)" gradientUnits="userSpaceOnUse" id="gradient1" r="819.2" spreadMethod="pad">
      <stop offset="0.0" stop-color="#ff0000"/>
      <stop offset="1.0" stop-color="#ff0000" stop-opacity="0.0"/>
    </radialGradient>
    <linearGradient gradientTransform="matrix(0.0, 0.4122, 0.4122, 0.0, 251.05, 127.05)" gradientUnits="userSpaceOnUse" id="gradient2" spreadMethod="pad" x1="-819.2" x2="819.2">
      <stop offset="0.0" stop-color="#cc0000"/>
      <stop offset="0.1843137254901961" stop-color="#660000"/>
      <stop offset="0.6039215686274509" stop-color="#000000"/>
      <stop offset="0.8196078431372549" stop-color="#000000"/>
    </linearGradient>
    <radialGradient cx="0" cy="0" gradientTransform="matrix(0.208, 0.0, 0.0, -0.208, 240.45, 353.5)" gradientUnits="userSpaceOnUse" id="gradient3" r="819.2" spreadMethod="pad">
      <stop offset="0.1607843137254902" stop-color="#cc0000"/>
      <stop offset="1.0" stop-color="#660000"/>
    </radialGradient>
    <linearGradient gradientTransform="matrix(0.0, 0.0896, 0.1267, 0.0, 239.6, 70.45)" gradientUnits="userSpaceOnUse" id="gradient4" spreadMethod="pad" x1="-819.2" x2="819.2">
      <stop offset="0.0" stop-color="#330000"/>
      <stop offset="1.0" stop-color="#000000"/>
    </linearGradient>
    <linearGradient gradientTransform="matrix(0.0, -0.0436, -0.041, 0.0, 243.15, 325.75)" gradientUnits="userSpaceOnUse" id="gradient5" spreadMethod="pad" x1="-819.2" x2="819.2">
      <stop offset="0.0" stop-color="#cc0000"/>
      <stop offset="0.1843137254901961" stop-color="#660000"/>
      <stop offset="0.6039215686274509" stop-color="#000000"/>
      <stop offset="0.8196078431372549" stop-color="#000000"/>
    </linearGradient>
    <radialGradient cx="0" cy="0" gradientTransform="matrix(0.2939, 0.0, 0.0, 0.5878, 240.3, 343.85)" gradientUnits="userSpaceOnUse" id="gradient6" r="819.2" spreadMethod="pad">
      <stop offset="0.0" stop-color="#cc0000"/>
      <stop offset="0.9764705882352941" stop-color="#660000"/>
    </radialGradient>
    <radialGradient cx="0" cy="0" gradientTransform="matrix(0.2846, 0.0, 0.0, 0.3529, 248.0, 29.5)" gradientUnits="userSpaceOnUse" id="gradient7" r="819.2" spreadMethod="pad">
      <stop offset="0.0" stop-color="#ff0000"/>
      <stop offset="1.0" stop-color="#ff0000" stop-opacity="0.0"/>
    </radialGradient>
    <radialGradient cx="0" cy="0" gradientTransform="matrix(0.3087, 0.0, 0.0, 0.2274, 242.3, 33.4)" gradientUnits="userSpaceOnUse" id="gradient8" r="819.2" spreadMethod="pad">
      <stop offset="0.0" stop-color="#990000"/>
      <stop offset="1.0" stop-color="#230000"/>
    </radialGradient>
    <radialGradient cx="0" cy="0" gradientTransform="matrix(0.9436, 0.0094, -0.1694, 0.0036, 241.7, 270.7)" gradientUnits="userSpaceOnUse" id="gradient9" r="819.2" spreadMethod="pad">
      <stop offset="0.0" stop-color="#ff0000"/>
      <stop offset="1.0" stop-color="#330000"/>
    </radialGradient>
    <radialGradient cx="0" cy="0" gradientTransform="matrix(0.2088, 0.0, 0.0, 0.1165, 241.9, 112.0)" gradientUnits="userSpaceOnUse" id="gradient10" r="819.2" spreadMethod="pad">
      <stop offset="0.0" stop-color="#ffffff" stop-opacity="0.4509804"/>
      <stop offset="1.0" stop-color="#004a4d" stop-opacity="0.0"/>
    </radialGradient>
  </defs>
</svg>
