<?xml version="1.0" encoding="UTF-8" standalone="no"?>
<svg xmlns:xlink="http://www.w3.org/1999/xlink" height="70.3px" width="119.8px" xmlns="http://www.w3.org/2000/svg">
  <g transform="matrix(1.0, 0.0, 0.0, 1.0, -68.3, 19.2)">
    <path d="M72.45 40.75 Q72.45 41.15 72.0 41.15 71.6 41.15 71.6 40.75 71.6 40.3 72.0 40.3 72.45 40.3 72.45 40.75 M73.55 38.0 L73.75 37.55 Q73.9 37.2 74.3 37.25 L74.65 37.65 74.45 38.7 73.7 39.35 Q73.35 39.45 73.2 39.15 73.05 38.9 73.25 38.65 L73.35 38.45 73.55 38.0 M115.15 48.4 L115.05 48.9 114.6 48.85 114.55 48.8 114.45 48.8 Q114.2 48.65 114.3 48.4 L114.3 48.35 114.55 48.1 Q115.0 48.05 115.15 48.4 M115.15 50.6 L114.95 51.05 114.55 51.1 Q114.05 50.9 113.6 50.35 113.1 50.1 112.75 49.5 L112.7 49.2 112.75 49.15 Q112.85 48.75 113.3 48.8 114.05 48.95 114.55 49.4 115.1 49.9 115.15 50.6 M114.4 41.55 Q115.85 42.0 115.8 42.75 115.7 43.35 115.2 43.65 L114.1 43.8 113.05 43.1 112.15 42.2 Q112.05 42.05 112.1 41.9 112.1 41.55 112.25 41.3 L112.85 41.2 114.4 41.55 M117.55 41.8 Q117.55 41.3 118.0 41.3 118.45 41.3 118.45 41.8 L118.0 42.25 Q117.55 42.25 117.55 41.8 M107.95 48.05 L108.25 47.7 108.85 47.75 109.2 48.15 109.15 48.45 108.9 48.6 108.15 48.45 Q107.9 48.3 107.95 48.05 M105.2 47.0 L104.8 46.4 Q104.65 46.2 104.75 46.0 104.9 45.8 105.1 45.9 L105.3 45.75 105.9 45.7 107.1 46.9 Q107.6 47.7 107.65 48.6 L107.2 49.05 106.85 49.1 106.45 49.0 105.55 47.7 105.2 47.0 M95.5 22.35 L95.1 22.2 94.9 21.75 Q94.9 21.35 95.35 21.2 L95.85 21.05 96.4 21.05 Q96.85 21.05 96.9 21.5 L96.55 22.0 95.95 22.25 95.5 22.35 M81.05 10.25 L81.05 10.1 80.95 9.85 81.15 8.9 81.45 8.65 81.6 8.35 81.85 8.2 82.05 8.4 Q82.15 9.1 81.75 10.0 L81.7 10.3 81.05 10.25 M80.2 4.55 L80.4 4.05 Q80.6 3.9 80.85 3.9 L81.15 3.7 81.55 3.75 82.1 4.35 82.3 4.9 82.3 5.45 81.8 5.75 81.35 5.75 81.35 5.8 81.25 6.2 Q81.0 6.75 80.45 6.6 80.2 6.55 80.1 6.3 L80.05 5.85 80.2 4.55 M95.15 4.65 Q95.35 4.45 95.55 4.65 L95.8 4.9 96.05 5.2 96.0 5.4 95.85 5.45 95.15 5.05 Q94.95 4.85 95.15 4.65 M105.55 17.0 L104.35 18.45 103.5 19.65 Q105.65 19.4 108.45 19.6 L107.6 17.6 106.75 15.45 105.55 17.0 M107.4 7.5 L107.4 7.6 107.65 7.4 107.75 7.35 108.15 6.5 108.35 6.45 108.5 6.6 108.45 6.8 108.75 6.95 108.85 7.3 108.05 9.4 110.7 16.2 Q110.1 14.15 109.85 12.7 109.55 10.75 109.7 9.1 109.75 8.65 110.15 8.65 L110.35 8.65 Q110.7 8.65 110.8 8.95 L110.8 9.05 110.85 9.0 111.0 9.0 111.15 9.25 111.15 9.3 110.95 9.55 111.45 12.8 111.6 16.1 112.5 19.0 113.2 21.9 113.6 23.85 115.3 28.05 Q116.15 30.45 116.3 32.45 116.3 32.75 115.95 32.85 115.65 32.9 115.5 32.65 L115.45 32.5 115.7 35.2 Q115.75 35.6 115.3 35.7 114.85 35.75 114.8 35.35 L113.9 30.55 113.7 30.65 113.65 30.75 113.7 32.1 113.3 32.5 Q112.9 32.6 112.8 32.2 L112.8 32.05 112.8 30.75 112.8 30.65 Q112.25 30.5 112.05 30.05 L111.05 27.6 110.3 25.05 109.9 23.95 108.15 23.9 106.5 23.8 101.45 24.15 100.85 24.05 100.4 25.15 99.85 25.75 99.1 25.6 98.6 27.3 Q98.2 28.1 97.4 28.25 L96.9 28.1 96.85 28.05 Q96.65 27.8 96.75 27.6 L96.65 27.6 96.05 27.8 96.05 27.85 96.05 28.0 96.05 28.05 95.9 28.4 Q95.55 28.9 95.1 28.65 94.65 28.5 94.75 28.05 94.8 27.8 95.1 27.7 L95.15 27.7 95.35 27.2 Q95.45 27.0 95.7 27.0 95.9 26.85 96.05 26.85 L96.7 26.95 Q97.05 27.05 96.95 27.4 L97.35 27.1 97.75 26.7 97.4 26.7 97.2 26.45 96.65 26.4 Q96.4 26.15 96.6 25.85 L96.75 25.65 96.5 25.5 96.35 25.75 95.95 25.9 Q95.65 25.75 95.7 25.5 L95.85 25.0 Q95.75 24.75 95.9 24.55 L97.0 23.05 97.15 22.9 96.25 23.15 Q96.05 23.25 95.9 23.0 95.75 22.75 96.0 22.65 L96.65 22.45 97.25 22.5 97.3 22.55 Q98.2 20.4 99.75 18.0 L102.85 13.75 Q104.25 10.9 106.55 8.1 L106.5 7.6 Q106.5 7.25 106.9 7.15 107.35 7.1 107.4 7.5 M109.25 4.35 L109.65 4.75 109.45 5.55 109.4 5.6 109.4 5.65 109.15 5.9 108.8 5.85 Q108.5 5.85 108.4 5.65 L108.3 5.1 Q108.45 4.8 108.75 4.75 L108.8 4.75 108.85 4.65 Q108.9 4.35 109.25 4.35 M109.7 2.95 Q109.7 2.5 110.15 2.5 110.6 2.5 110.6 2.95 L110.15 3.4 Q109.7 3.4 109.7 2.95 M116.3 10.35 L116.75 10.45 116.9 10.9 116.75 11.35 116.85 11.7 116.75 12.0 116.5 12.15 116.5 12.4 116.3 12.6 116.15 12.45 115.8 11.55 115.8 11.65 115.5 12.05 115.45 12.05 115.05 12.0 114.9 11.65 Q114.9 11.45 115.05 11.3 L115.45 11.2 115.5 11.25 115.7 11.4 115.5 10.6 Q115.5 10.25 115.85 10.2 116.15 10.1 116.3 10.35 M143.1 37.25 L142.8 36.7 142.65 36.5 142.5 36.2 142.6 35.8 143.0 35.7 Q143.55 35.9 143.9 36.95 144.0 37.3 143.65 37.45 143.25 37.6 143.1 37.25 M151.5 33.3 Q151.9 33.15 151.95 33.55 L152.1 34.1 Q152.5 34.25 152.45 34.55 L152.45 35.1 152.45 35.3 152.4 35.7 152.0 36.0 151.5 35.7 151.35 35.15 151.05 35.05 150.8 34.65 150.7 34.75 150.6 34.85 Q150.25 35.1 149.95 34.85 L149.8 34.5 Q149.8 34.3 149.95 34.15 L150.35 33.95 150.75 34.05 150.9 34.35 151.05 34.25 151.2 34.2 151.2 33.75 Q151.1 33.45 151.5 33.3 M128.75 34.2 L128.7 32.7 Q128.7 32.45 129.05 32.45 L129.4 32.7 129.55 33.25 129.55 33.45 129.65 33.8 129.6 33.95 129.6 34.2 Q129.65 34.65 129.2 34.65 128.7 34.65 128.75 34.2 M127.15 30.7 Q127.35 30.75 127.4 30.9 L127.7 31.2 127.75 31.4 Q128.0 31.65 127.75 32.25 L127.75 32.65 127.45 33.05 126.95 33.0 Q126.45 32.6 126.55 31.85 126.6 31.1 126.9 30.8 L127.15 30.7 M138.55 33.3 L138.2 32.85 137.6 31.85 Q137.45 31.55 137.7 31.35 L138.2 31.45 138.8 32.45 139.25 33.3 139.0 33.5 Q138.75 33.5 138.55 33.3 M134.5 26.55 L134.35 26.65 134.2 26.55 134.05 26.1 Q133.95 25.95 134.1 25.85 L134.35 25.9 134.5 26.55 M141.15 23.45 L141.35 23.75 141.45 24.1 141.25 24.45 140.5 24.6 140.2 24.5 140.0 24.25 Q139.9 23.9 140.25 23.65 140.5 23.45 140.8 23.4 L141.15 23.45 M156.75 21.8 L157.6 22.95 156.4 24.0 152.9 24.0 156.75 21.8 M158.6 23.1 L156.25 19.85 148.0 19.85 145.6 23.1 147.7 24.8 149.85 24.8 149.85 27.3 150.45 26.4 150.45 24.8 150.85 24.8 150.85 26.4 151.45 26.4 151.45 24.8 151.8 24.8 151.8 26.4 152.4 26.4 152.4 24.8 152.8 24.8 152.8 26.4 153.4 26.4 153.4 24.8 153.75 24.8 153.75 26.4 154.35 27.3 154.35 24.8 156.5 24.8 158.6 23.1 M146.6 22.95 L147.4 21.8 151.3 24.0 147.85 24.0 146.6 22.95 M150.3 14.3 L150.25 14.55 149.1 15.45 148.6 16.0 147.75 17.0 147.6 17.1 145.8 18.45 145.1 18.35 Q144.75 18.0 145.0 17.65 145.3 17.2 145.9 16.85 L146.95 16.25 147.75 15.45 Q148.25 14.9 148.65 14.85 149.4 14.3 150.05 14.2 L150.3 14.3 M144.2 7.8 L144.25 7.8 Q144.75 7.55 144.95 8.0 145.2 8.4 144.8 8.7 L144.4 9.0 145.05 8.8 145.45 8.8 146.05 8.3 Q146.45 8.0 146.8 8.3 147.15 8.65 146.85 9.0 L146.95 9.4 146.7 9.75 146.65 9.8 Q147.1 10.65 146.35 11.3 L146.25 11.4 145.9 11.65 Q143.5 13.05 139.75 16.35 L137.65 18.05 Q136.3 19.15 135.45 20.15 L138.8 25.0 140.35 26.55 141.95 28.0 144.4 30.9 Q144.9 31.45 144.75 32.2 144.6 32.9 144.05 33.3 L144.7 34.35 Q144.9 34.65 144.6 34.95 L144.0 34.9 142.75 33.35 142.6 33.25 141.9 32.65 142.25 34.2 Q142.35 34.7 141.9 34.8 141.45 34.95 141.3 34.5 L140.55 32.85 Q140.2 32.8 139.95 32.5 L138.4 30.55 136.85 28.5 133.95 24.85 Q132.8 24.3 131.65 22.9 130.55 21.4 130.45 20.15 130.35 19.0 131.25 18.2 131.4 17.25 132.1 16.45 132.65 15.8 133.9 14.9 L138.4 11.5 141.1 9.3 Q142.65 8.25 144.2 7.8 M146.95 5.95 Q147.35 5.75 147.6 6.1 147.85 6.45 147.55 6.75 L146.6 7.55 146.45 7.6 146.35 7.65 146.05 7.75 145.5 7.95 145.2 7.75 Q145.15 7.5 145.35 7.4 L145.6 7.3 Q145.45 6.9 145.8 6.7 146.2 6.45 146.95 5.95 M148.7 6.6 L148.9 6.25 149.4 6.0 149.8 6.1 149.9 6.5 149.85 6.6 149.8 6.65 149.65 6.85 149.6 6.95 149.5 7.0 149.35 7.0 148.95 7.0 148.9 7.0 148.7 6.6 M159.5 9.85 Q158.5 9.35 158.15 8.6 157.95 8.15 158.3 7.9 L159.0 7.95 159.95 8.8 159.95 8.85 160.1 8.9 160.35 9.1 161.0 9.4 Q161.2 9.4 161.2 9.65 161.15 9.85 160.95 9.8 L160.2 9.7 159.5 9.85 M154.8 7.55 Q154.95 7.1 155.35 7.25 L155.5 7.3 155.7 7.6 155.6 7.95 Q155.45 8.2 155.15 8.1 L155.1 8.1 Q154.7 8.05 154.8 7.55 M155.45 14.1 L155.05 14.45 Q159.9 19.45 161.0 24.0 L161.05 24.15 161.8 23.85 Q162.2 23.7 162.4 24.1 162.6 24.5 162.35 24.75 L161.6 25.4 161.85 26.15 161.7 26.65 161.2 26.85 161.2 27.15 Q161.2 27.5 160.85 27.65 L160.25 27.55 159.65 26.95 Q156.5 29.35 153.15 31.05 L152.5 31.6 152.7 31.75 Q152.95 31.95 152.7 32.25 152.5 32.6 152.2 32.4 L151.8 32.15 151.6 32.3 151.2 32.35 150.9 32.15 150.3 32.4 150.2 32.65 Q150.05 32.95 149.7 32.8 149.35 32.65 149.45 32.35 149.2 32.05 149.4 31.75 L150.15 30.65 149.75 30.2 149.4 30.1 Q147.55 28.85 145.9 26.7 L143.2 22.6 143.0 22.75 142.6 22.7 Q142.35 22.5 142.5 22.3 L142.8 21.95 141.8 20.35 Q141.6 20.0 141.95 19.8 L142.6 19.9 143.45 21.2 143.5 21.15 142.2 19.3 Q142.0 18.95 142.35 18.7 L142.95 18.75 144.3 20.3 Q146.9 17.85 152.05 14.95 L151.65 13.7 Q151.55 13.25 152.0 13.05 152.4 12.9 152.65 13.3 L153.2 14.3 153.4 14.15 153.65 13.85 154.05 13.8 154.9 13.35 Q155.25 13.15 155.55 13.5 155.8 13.85 155.45 14.1 M185.35 34.8 L185.0 34.65 184.9 34.35 185.15 34.15 186.1 34.35 187.0 34.45 Q187.6 34.5 188.05 35.15 L188.05 35.6 187.6 35.75 186.4 35.3 185.85 35.3 185.4 35.0 185.35 34.8 M166.45 43.1 Q166.85 43.1 166.95 43.45 L166.85 43.9 Q166.7 44.1 166.45 44.1 166.2 44.1 166.05 43.9 L166.0 43.45 Q166.1 43.1 166.45 43.1 M164.9 42.25 L165.05 42.55 165.05 44.45 Q165.0 45.55 164.55 46.25 L164.1 46.4 163.8 46.05 164.15 43.45 164.05 42.55 Q164.05 42.15 164.45 42.1 L164.75 42.05 164.9 42.25 M168.9 19.0 L168.65 21.6 169.05 26.1 169.45 25.95 Q173.3 24.15 175.15 23.55 L173.7 22.2 170.45 18.4 170.3 18.25 169.0 17.4 168.9 19.0 M161.25 10.2 Q161.0 9.85 161.35 9.6 L162.0 9.5 164.05 10.6 Q165.45 10.85 166.9 11.65 L167.45 11.6 167.8 12.05 167.8 12.2 170.55 14.3 172.45 15.95 173.85 16.75 176.7 18.2 Q178.4 19.1 179.35 20.1 181.1 21.1 181.35 22.05 L181.25 22.45 181.65 22.8 Q181.7 22.55 181.85 22.45 L182.25 22.35 182.6 22.4 182.95 22.35 183.1 22.4 183.35 22.05 183.7 22.0 183.9 22.35 184.85 22.7 185.3 22.95 185.65 23.4 185.45 23.75 184.85 23.7 184.35 23.45 183.55 23.15 183.25 23.3 182.25 23.3 182.35 23.45 182.75 23.45 Q183.15 23.45 183.25 23.9 183.3 24.35 182.85 24.45 L181.95 24.6 181.95 25.05 181.6 25.35 180.0 25.7 178.15 26.75 176.2 27.5 171.65 28.85 174.45 29.7 177.15 30.5 179.85 31.25 181.7 31.7 183.5 32.15 184.2 32.35 184.3 32.4 184.65 32.45 184.9 32.75 184.95 33.1 184.8 33.3 184.55 33.4 180.05 32.6 Q182.25 33.4 183.2 34.45 L184.35 35.15 184.45 35.25 Q185.9 36.0 186.8 37.1 187.0 37.3 186.8 37.55 L186.4 37.65 183.55 36.2 183.3 36.1 180.75 35.1 177.6 34.25 180.65 35.55 183.7 36.85 Q183.95 36.95 183.85 37.2 L183.5 37.4 Q177.9 36.55 171.5 32.2 L168.8 31.1 168.0 35.35 167.8 35.6 167.5 38.3 167.25 40.95 Q167.2 41.35 166.8 41.35 L166.5 41.4 166.3 41.15 166.25 40.4 165.95 40.6 Q165.65 40.55 165.65 40.3 L165.65 39.95 165.45 39.65 165.35 38.2 Q164.75 38.5 164.2 38.0 163.5 37.4 163.45 35.95 L163.65 33.7 164.3 26.75 164.85 22.6 Q164.9 19.55 165.35 16.4 L165.3 16.25 165.35 16.3 Q165.0 15.45 165.45 14.75 L162.0 11.8 Q161.65 11.5 161.95 11.1 L161.25 10.2 M126.95 -1.4 Q126.95 -4.1 127.25 -6.2 L127.25 -6.35 Q127.3 -6.8 127.8 -6.7 L128.3 -6.2 128.15 1.7 128.6 6.95 129.0 12.2 129.25 22.85 129.35 30.35 Q129.35 30.85 128.85 30.85 128.3 30.85 128.3 30.35 L128.3 30.3 128.25 30.1 128.25 29.25 128.05 29.15 127.15 28.25 Q127.0 28.5 126.65 28.5 L126.2 28.1 125.95 26.95 123.45 24.1 121.0 21.95 120.45 27.1 Q120.35 27.9 119.6 27.95 118.85 27.95 118.7 27.2 L118.2 27.25 117.7 27.0 117.65 28.4 Q117.65 28.9 117.15 28.9 116.6 28.9 116.65 28.4 L116.65 25.85 116.15 24.4 115.95 23.35 115.45 19.25 Q115.3 16.85 115.6 15.1 L115.85 14.8 116.2 14.8 116.2 13.55 Q116.3 13.1 116.75 13.1 117.25 13.15 117.35 13.55 L117.65 14.8 117.8 15.0 Q118.1 15.0 118.15 15.3 118.3 15.9 119.0 16.5 L118.6 15.7 Q118.4 15.25 118.8 15.0 119.2 14.75 119.5 15.2 L123.15 20.35 125.1 22.1 124.9 20.35 124.25 16.7 124.25 13.8 124.15 10.95 Q124.0 10.3 124.35 9.8 L124.5 2.3 Q124.5 1.9 124.95 1.8 125.45 1.7 125.5 2.15 L126.2 7.55 126.4 -0.9 126.6 -1.3 126.95 -1.4 M125.9 -12.6 Q126.05 -12.95 126.4 -12.9 126.8 -12.85 126.9 -12.5 127.1 -11.4 126.75 -9.6 L126.3 -6.75 126.3 -3.95 125.95 -1.15 125.5 -0.85 Q125.2 -0.9 125.2 -1.25 L125.15 -2.05 Q124.5 -4.75 124.6 -7.45 124.75 -10.55 125.9 -12.6 M76.55 -5.15 L76.55 -5.25 75.1 -6.4 76.55 -5.15 M71.95 -11.45 Q71.65 -11.7 71.95 -12.0 L72.55 -11.9 72.6 -11.25 72.45 -11.1 72.2 -11.15 71.95 -11.45 M68.9 -10.7 L69.0 -11.0 69.35 -11.05 Q69.8 -11.0 70.1 -10.6 L70.6 -9.85 71.15 -9.15 Q71.35 -8.85 71.05 -8.6 L70.5 -8.65 70.35 -8.85 69.95 -8.9 Q68.95 -9.75 68.9 -10.7 M74.1 -15.0 Q74.4 -15.35 74.75 -15.15 L75.6 -14.45 Q75.9 -14.15 75.65 -13.8 75.4 -13.5 75.0 -13.7 L74.15 -14.35 Q73.8 -14.6 74.1 -15.0 M101.4 41.3 L101.65 41.8 101.55 42.15 101.25 42.2 100.8 41.9 100.7 41.35 100.9 41.15 Q101.15 41.1 101.4 41.3 100.45 40.4 99.8 39.35 L99.85 39.5 99.6 39.95 99.05 39.95 97.75 39.0 96.65 37.85 95.85 37.05 95.3 36.5 95.0 36.2 Q94.95 36.0 95.05 35.85 95.0 35.65 95.1 35.4 95.2 35.2 95.5 35.25 95.8 35.3 96.1 35.65 L96.65 36.2 98.15 37.15 98.6 37.45 96.8 35.5 94.85 33.65 92.3 31.2 90.8 29.75 90.6 29.7 89.2 28.7 Q91.6 31.1 93.15 33.4 L93.05 33.65 92.8 33.65 Q89.4 29.8 84.3 24.85 L82.5 28.5 Q81.6 30.6 81.15 32.35 81.0 33.05 80.35 33.3 L79.1 33.4 78.9 33.45 78.6 35.45 Q78.55 35.85 78.15 35.85 77.8 35.85 77.75 35.45 77.65 34.2 78.0 32.9 L77.65 32.85 76.7 35.1 76.55 35.25 76.1 36.65 Q75.9 37.1 75.35 37.0 74.85 36.85 75.0 36.35 L74.85 36.45 74.15 36.5 Q73.75 36.2 74.0 35.75 L75.05 33.9 75.75 31.8 75.25 32.2 75.1 32.45 Q74.9 32.9 74.4 32.7 L73.3 33.4 Q73.0 33.5 72.9 33.2 72.8 32.95 73.05 32.8 L73.6 32.4 Q73.3 32.2 73.35 31.75 73.65 30.05 74.7 27.95 L76.55 24.45 76.55 24.1 77.7 21.1 78.3 18.95 80.55 15.85 82.2 12.4 82.45 12.6 83.15 10.25 Q82.7 7.9 83.4 6.3 83.5 6.05 83.85 6.05 L84.25 6.3 84.75 7.8 Q85.45 8.85 85.1 10.1 L86.1 8.7 86.5 8.6 Q86.8 8.7 86.7 8.95 L85.9 10.9 85.6 10.95 85.45 11.3 86.4 10.8 87.6 8.85 Q87.9 8.45 88.35 8.7 88.8 8.95 88.55 9.4 L87.15 12.5 86.0 15.65 85.85 16.0 88.5 14.8 90.1 14.05 91.9 12.8 93.45 11.2 Q93.8 10.7 93.6 10.2 L93.65 10.15 93.55 10.1 Q93.25 9.4 92.55 9.3 L91.0 8.1 88.9 6.35 88.65 6.3 88.4 6.15 88.15 6.0 82.7 3.0 80.65 1.8 78.75 0.35 Q78.55 0.2 78.75 0.0 L79.1 0.0 81.0 1.15 83.0 2.1 80.05 -0.05 77.35 -2.0 74.95 -4.3 Q74.75 -4.55 74.95 -4.7 72.15 -7.05 72.15 -9.15 L72.55 -9.75 73.25 -9.6 73.85 -9.05 Q74.05 -10.0 74.85 -10.3 L73.0 -11.95 71.45 -13.85 Q71.2 -14.15 71.55 -14.4 71.85 -14.6 72.1 -14.4 L75.8 -12.1 79.35 -9.6 81.65 -7.0 Q83.1 -5.25 83.4 -3.95 L85.25 -2.2 Q84.75 -3.05 84.55 -3.85 84.45 -4.1 84.7 -4.25 L85.1 -4.1 87.7 -1.3 90.35 1.45 91.2 2.35 Q91.25 2.1 91.45 2.1 L91.85 2.25 92.15 2.5 92.7 3.05 92.8 3.3 92.7 3.55 92.55 3.6 93.35 4.35 96.65 7.1 Q99.05 8.7 100.2 10.35 L100.65 10.5 100.9 10.8 100.7 11.1 101.0 11.7 101.0 11.8 101.15 12.2 100.85 12.5 98.85 13.55 98.7 13.75 97.9 14.25 97.4 14.75 Q93.7 17.8 90.25 18.55 L90.15 18.65 87.85 20.3 Q93.0 27.9 98.2 32.35 L99.6 33.6 100.55 34.15 102.15 35.05 Q103.2 35.35 104.35 36.4 L106.25 38.2 107.15 38.9 Q107.5 39.2 107.2 39.65 L106.45 39.8 104.45 38.1 102.45 36.45 103.0 37.2 105.0 39.25 Q106.2 40.45 106.2 41.7 L112.25 47.35 Q112.5 47.6 112.35 47.95 L111.85 48.25 Q111.35 48.25 110.85 47.85 L110.0 47.1 105.7 43.45 105.35 43.15 104.3 43.25 Q103.05 42.75 101.8 41.65 L101.4 41.3 M70.2 -18.7 L70.5 -18.3 Q71.05 -18.2 71.35 -17.65 71.75 -17.05 71.5 -16.2 L71.0 -15.55 70.2 -15.45 Q68.5 -16.1 68.3 -18.2 68.25 -18.5 68.5 -18.8 L69.05 -19.15 Q69.75 -19.35 70.2 -18.7" fill="#950000" fill-rule="evenodd" stroke="none"/>
  </g>
</svg>
