<?xml version="1.0" encoding="UTF-8" standalone="no"?>
<svg xmlns:xlink="http://www.w3.org/1999/xlink" height="33.1px" width="33.1px" xmlns="http://www.w3.org/2000/svg">
  <g transform="matrix(1.0, 0.0, 0.0, 1.0, 16.55, 16.55)">
    <path d="M-0.25 -10.6 L0.0 -10.6 Q4.4 -10.6 7.5 -7.5 L7.75 -7.25 -0.25 0.75 -0.25 -10.6" fill="#ffffff" fill-opacity="0.6" fill-rule="evenodd" stroke="none"/>
    <path d="M7.75 -7.25 Q10.6 -4.2 10.6 0.0 10.6 4.4 7.5 7.5 4.4 10.6 0.0 10.6 L-0.25 10.6 Q-4.3 10.5 -7.25 7.75 L-7.5 7.5 Q-10.6 4.4 -10.6 0.0 -10.6 -4.4 -7.5 -7.5 -4.5 -10.5 -0.25 -10.6 L-0.25 0.75 7.75 -7.25" fill="#ffffff" fill-opacity="0.14117648" fill-rule="evenodd" stroke="none"/>
    <path d="M7.75 -7.25 Q10.6 -4.2 10.6 0.0 10.6 4.4 7.5 7.5 4.4 10.6 0.0 10.6 L-0.25 10.6 Q-4.3 10.5 -7.25 7.75 L-7.5 7.5 Q-10.6 4.4 -10.6 0.0 -10.6 -4.4 -7.5 -7.5 -4.5 -10.5 -0.25 -10.6 L0.0 -10.6 Q4.4 -10.6 7.5 -7.5 L7.75 -7.25 Z" fill="none" stroke="#ffffff" stroke-linecap="round" stroke-linejoin="round" stroke-width="1.0"/>
    <path d="M-0.3 -13.8 L0.0 -13.8 Q5.7 -13.8 9.75 -9.75 L10.1 -9.45 Q13.8 -5.45 13.8 0.0 13.8 5.7 9.75 9.75 5.7 13.8 0.0 13.8 L-0.3 13.8 Q-5.6 13.65 -9.45 10.1 L-9.75 9.75 Q-13.8 5.7 -13.8 0.0 -13.8 -5.7 -9.75 -9.75 -5.8 -13.65 -0.3 -13.8" fill="url(#gradient0)" fill-rule="evenodd" stroke="none"/>
    <path d="M-0.35 -15.8 L0.0 -15.8 Q6.6 -15.8 11.25 -11.25 L11.6 -10.8 Q15.8 -6.3 15.8 0.0 15.8 6.6 11.25 11.25 6.6 15.8 0.0 15.8 L-0.35 15.8 Q-6.4 15.7 -10.8 11.6 L-11.25 11.25 Q-15.8 6.6 -15.8 0.0 -15.8 -6.6 -11.25 -11.25 -6.7 -15.7 -0.35 -15.8" fill="none" stroke="#000000" stroke-linecap="round" stroke-linejoin="round" stroke-width="1.5"/>
    <path d="M-0.3 -12.6 L0.0 -12.6 Q5.25 -12.6 8.9 -8.9 L9.2 -8.6 Q12.6 -5.0 12.6 0.0 12.6 5.25 8.9 8.9 5.25 12.6 0.0 12.6 L-0.3 12.6 Q-5.1 12.45 -8.6 9.2 L-8.9 8.9 Q-12.6 5.25 -12.6 0.0 -12.6 -5.25 -8.9 -8.9 -5.35 -12.45 -0.3 -12.6" fill="none" stroke="url(#gradient1)" stroke-linecap="round" stroke-linejoin="round" stroke-width="1.5"/>
    <path d="M-0.35 -15.8 L0.0 -15.8 Q6.6 -15.8 11.25 -11.25 L11.6 -10.8 Q15.8 -6.3 15.8 0.0 15.8 6.6 11.25 11.25 6.6 15.8 0.0 15.8 L-0.35 15.8 Q-6.4 15.7 -10.8 11.6 L-11.25 11.25 Q-15.8 6.6 -15.8 0.0 -15.8 -6.6 -11.25 -11.25 -6.7 -15.7 -0.35 -15.8 M-0.3 -12.6 Q-5.35 -12.45 -8.9 -8.9 -12.6 -5.25 -12.6 0.0 -12.6 5.25 -8.9 8.9 L-8.6 9.2 Q-5.1 12.45 -0.3 12.6 L0.0 12.6 Q5.25 12.6 8.9 8.9 12.6 5.25 12.6 0.0 12.6 -5.0 9.2 -8.6 L8.9 -8.9 Q5.25 -12.6 0.0 -12.6 L-0.3 -12.6" fill="url(#gradient2)" fill-rule="evenodd" stroke="none"/>
    <path d="M-0.05 -1.6 L0.0 -1.6 1.15 -1.15 1.2 -1.15 Q1.6 -0.65 1.6 0.0 1.6 0.65 1.15 1.15 L0.0 1.6 -0.05 1.6 Q-0.65 1.6 -1.15 1.2 L-1.15 1.15 Q-1.6 0.65 -1.6 0.0 -1.6 -0.65 -1.15 -1.15 -0.7 -1.6 -0.05 -1.6" fill="#333333" fill-rule="evenodd" stroke="none"/>
    <path d="M5.1 -10.05 L1.7 -0.05 -0.95 -1.45 5.1 -10.05" fill="#333333" fill-rule="evenodd" stroke="none"/>
    <path d="M6.0 5.75 L-1.15 0.65 1.0 -1.5 6.0 5.75" fill="#333333" fill-rule="evenodd" stroke="none"/>
    <path d="M8.65 -0.75 L11.35 -0.75 11.35 1.0 8.65 1.0 8.65 -0.75 M-1.25 -8.9 L-1.25 -11.6 0.55 -11.6 0.55 -8.9 -1.25 -8.9 M-12.0 -0.75 L-9.35 -0.75 -9.35 1.0 -12.0 1.0 -12.0 -0.75 M-1.25 11.75 L-1.25 9.1 0.55 9.1 0.55 11.75 -1.25 11.75" fill="#636363" fill-rule="evenodd" stroke="none"/>
  </g>
  <defs>
    <linearGradient gradientTransform="matrix(-0.0063, 0.031, -0.0165, -0.0033, 2.1, -5.5)" gradientUnits="userSpaceOnUse" id="gradient0" spreadMethod="pad" x1="-819.2" x2="819.2">
      <stop offset="0.0" stop-color="#666666"/>
      <stop offset="1.0" stop-color="#e9e9e9"/>
    </linearGradient>
    <linearGradient gradientTransform="matrix(-0.0067, 0.019, -0.019, -0.0067, 0.0, 0.0)" gradientUnits="userSpaceOnUse" id="gradient1" spreadMethod="pad" x1="-819.2" x2="819.2">
      <stop offset="0.0" stop-color="#333333"/>
      <stop offset="1.0" stop-color="#666666"/>
    </linearGradient>
    <linearGradient gradientTransform="matrix(0.0076, -0.0177, 0.0177, 0.0076, 0.0, 0.0)" gradientUnits="userSpaceOnUse" id="gradient2" spreadMethod="pad" x1="-819.2" x2="819.2">
      <stop offset="0.0" stop-color="#666666"/>
      <stop offset="1.0" stop-color="#ffffff"/>
    </linearGradient>
  </defs>
</svg>
