<?xml version="1.0" encoding="UTF-8" standalone="no"?>
<svg xmlns:xlink="http://www.w3.org/1999/xlink" height="26.85px" width="52.35px" xmlns="http://www.w3.org/2000/svg">
  <g transform="matrix(1.0, 0.0, 0.0, 1.0, -24.05, -1.9)">
    <path d="M29.55 2.4 L70.9 2.4 Q75.9 2.4 75.9 7.4 L75.9 23.25 Q75.9 28.25 70.9 28.25 L29.55 28.25 Q24.55 28.25 24.55 23.25 L24.55 7.4 Q24.55 2.4 29.55 2.4" fill="url(#gradient0)" fill-rule="evenodd" stroke="none"/>
    <path d="M29.55 2.4 L70.9 2.4 Q75.9 2.4 75.9 7.4 L75.9 23.25 Q75.9 28.25 70.9 28.25 L29.55 28.25 Q24.55 28.25 24.55 23.25 L24.55 7.4 Q24.55 2.4 29.55 2.4 Z" fill="none" stroke="url(#gradient1)" stroke-linecap="round" stroke-linejoin="round" stroke-width="1.0"/>
  </g>
  <defs>
    <linearGradient gradientTransform="matrix(0.0313, 0.0, 0.0, 0.0158, 50.2, 15.3)" gradientUnits="userSpaceOnUse" id="gradient0" spreadMethod="pad" x1="-819.2" x2="819.2">
      <stop offset="0.0" stop-color="#005a97"/>
      <stop offset="1.0" stop-color="#213441"/>
    </linearGradient>
    <linearGradient gradientTransform="matrix(0.0087, -0.0167, 0.0159, 0.0082, 51.35, 15.4)" gradientUnits="userSpaceOnUse" id="gradient1" spreadMethod="pad" x1="-819.2" x2="819.2">
      <stop offset="0.0" stop-color="#003c4c"/>
      <stop offset="1.0" stop-color="#01bef2"/>
    </linearGradient>
  </defs>
</svg>
