<?xml version="1.0" encoding="UTF-8" standalone="no"?>
<svg xmlns:xlink="http://www.w3.org/1999/xlink" height="19.5px" width="163.5px" xmlns="http://www.w3.org/2000/svg">
  <g transform="matrix(1.0, 0.0, 0.0, 1.0, -3.0, -6.0)">
    <path d="M156.05 18.0 L154.85 19.5 8.4 19.5 9.65 18.0 156.05 18.0 M153.65 21.0 L152.55 22.5 5.9 22.5 6.4 21.85 7.15 21.0 153.65 21.0 M161.2 12.0 L159.8 13.5 13.35 13.5 14.6 12.0 161.2 12.0 M158.5 15.0 L157.25 16.5 10.85 16.5 12.1 15.0 158.5 15.0 M151.45 24.0 L150.45 25.5 3.0 25.5 4.5 24.0 151.45 24.0 M165.5 7.05 L165.15 7.5 18.25 7.5 19.4 6.0 166.5 6.0 165.5 7.05 M163.8 9.0 L162.5 10.5 15.8 10.5 17.0 9.0 163.8 9.0" fill="#000000" fill-opacity="0.4" fill-rule="evenodd" stroke="none"/>
  </g>
</svg>
