<?xml version="1.0" encoding="UTF-8" standalone="no"?>
<svg xmlns:xlink="http://www.w3.org/1999/xlink" height="19.5px" width="166.25px" xmlns="http://www.w3.org/2000/svg">
  <g transform="matrix(1.0, 0.0, 0.0, 1.0, -13.25, -6.0)">
    <path d="M163.95 24.0 L162.95 25.5 13.25 25.5 14.75 24.0 163.95 24.0 M173.8 12.0 L172.5 13.5 23.5 13.5 24.65 12.0 173.8 12.0 M176.55 9.0 L175.15 10.5 25.85 10.5 27.0 9.0 176.55 9.0 M179.5 6.0 L178.0 7.5 28.15 7.5 29.3 6.0 179.5 6.0 M166.2 21.0 L165.85 21.45 165.05 22.5 16.1 22.5 17.4 21.0 166.2 21.0 M18.7 19.5 L19.9 18.0 168.75 18.0 167.45 19.5 18.7 19.5 M171.3 15.0 L170.05 16.5 21.15 16.5 22.3 15.0 171.3 15.0" fill="#000000" fill-opacity="0.4" fill-rule="evenodd" stroke="none"/>
  </g>
</svg>
