<?xml version="1.0" encoding="UTF-8" standalone="no"?>
<svg xmlns:xlink="http://www.w3.org/1999/xlink" height="159.35px" width="198.85px" xmlns="http://www.w3.org/2000/svg">
  <g transform="matrix(1.0, 0.0, 0.0, 1.0, 99.4, 79.7)">
    <path d="M52.1 55.9 L67.55 29.1 -35.45 29.1 -20.0 55.9 52.1 55.9 M-67.35 -6.5 L-25.65 -78.75 57.75 -78.75 99.45 -6.5 57.75 65.75 -25.65 65.75 -67.35 -6.5 M-42.85 -29.4 L-50.75 -15.7 82.85 -15.7 74.95 -29.4 -42.85 -29.4 M-50.75 2.65 L-42.6 16.8 74.7 16.8 82.85 2.65 -50.75 2.65 M-20.0 -68.95 L-35.7 -41.7 67.8 -41.7 52.1 -68.95 -20.0 -68.95" fill="url(#gradient0)" fill-rule="evenodd" stroke="none"/>
    <path d="M-21.15 57.9 L-38.95 27.1 71.0 27.1 53.25 57.9 -21.15 57.9 M52.1 55.9 L67.55 29.1 -35.45 29.1 -20.0 55.9 52.1 55.9 M-43.75 18.8 L-54.2 0.65 86.3 0.65 75.85 18.8 -43.75 18.8 M-54.2 -13.7 L-44.0 -31.4 76.1 -31.4 86.3 -13.7 -54.2 -13.7 M-24.5 -76.75 L-65.05 -6.5 -24.5 63.75 56.6 63.75 97.15 -6.5 56.6 -76.75 -24.5 -76.75 M-67.35 -6.5 L-25.65 -78.75 57.75 -78.75 99.45 -6.5 57.75 65.75 -25.65 65.75 -67.35 -6.5 M-42.85 -29.4 L-50.75 -15.7 82.85 -15.7 74.95 -29.4 -42.85 -29.4 M-50.75 2.65 L-42.6 16.8 74.7 16.8 82.85 2.65 -50.75 2.65 M-39.2 -39.7 L-21.15 -70.95 53.25 -70.95 71.3 -39.7 -39.2 -39.7 M-20.0 -68.95 L-35.7 -41.7 67.8 -41.7 52.1 -68.95 -20.0 -68.95" fill="url(#gradient1)" fill-rule="evenodd" stroke="none"/>
    <path d="M-40.6 -66.7 L-82.95 6.6 -40.6 66.65 -40.6 79.65 -57.25 79.65 -99.4 6.6 -99.4 -6.4 -57.25 -66.7 -40.6 -79.7 -40.6 -66.7" fill="#23140c" fill-rule="evenodd" stroke="none"/>
    <path d="M-56.25 66.5 L-56.25 79.65 -57.25 79.65 -57.25 66.5 -56.25 66.5" fill="url(#gradient2)" fill-rule="evenodd" stroke="none"/>
    <path d="M-40.6 66.65 L-40.6 79.65 -41.6 79.65 -41.6 66.65 -40.6 66.65" fill="url(#gradient3)" fill-rule="evenodd" stroke="none"/>
    <path d="M-82.95 -6.4 L-40.6 66.65 -57.25 66.65 -99.4 -6.4 -57.25 -79.7 -40.6 -79.7 -82.95 -6.4" fill="url(#gradient4)" fill-rule="evenodd" stroke="none"/>
    <path d="M-85.25 -6.4 L-44.1 -77.7 -56.1 -77.7 -97.1 -6.4 -56.1 64.65 -44.1 64.65 -85.25 -6.4 M-40.6 -79.7 L-82.95 -6.4 -40.6 66.65 -57.25 66.65 -99.4 -6.4 -57.25 -79.7 -40.6 -79.7" fill="url(#gradient5)" fill-rule="evenodd" stroke="none"/>
  </g>
  <defs>
    <linearGradient gradientTransform="matrix(0.0, -0.087, -0.087, 0.0, 16.05, -5.55)" gradientUnits="userSpaceOnUse" id="gradient0" spreadMethod="pad" x1="-819.2" x2="819.2">
      <stop offset="0.00392156862745098" stop-color="#543800"/>
      <stop offset="0.17647058823529413" stop-color="#e9ca00"/>
      <stop offset="0.43529411764705883" stop-color="#6a4a00"/>
      <stop offset="0.44313725490196076" stop-color="#836300"/>
      <stop offset="0.4627450980392157" stop-color="#af8f00"/>
      <stop offset="0.47843137254901963" stop-color="#ceaf00"/>
      <stop offset="0.49019607843137253" stop-color="#e2c300"/>
      <stop offset="0.5019607843137255" stop-color="#e9ca00"/>
      <stop offset="0.6274509803921569" stop-color="#feffbf"/>
      <stop offset="0.7607843137254902" stop-color="#e9ca00"/>
      <stop offset="0.984313725490196" stop-color="#6a4700"/>
    </linearGradient>
    <linearGradient gradientTransform="matrix(0.1018, 0.0, 0.0, -0.1018, 16.05, -6.5)" gradientUnits="userSpaceOnUse" id="gradient1" spreadMethod="pad" x1="-819.2" x2="819.2">
      <stop offset="0.07450980392156863" stop-color="#543800"/>
      <stop offset="0.17647058823529413" stop-color="#e9ca00"/>
      <stop offset="0.43529411764705883" stop-color="#6a4a00"/>
      <stop offset="0.4588235294117647" stop-color="#836300"/>
      <stop offset="0.5058823529411764" stop-color="#af8f00"/>
      <stop offset="0.5490196078431373" stop-color="#ceaf00"/>
      <stop offset="0.5843137254901961" stop-color="#e2c300"/>
      <stop offset="0.6078431372549019" stop-color="#e9ca00"/>
      <stop offset="0.6431372549019608" stop-color="#e9ca00"/>
      <stop offset="0.8196078431372549" stop-color="#fff87f"/>
      <stop offset="0.8784313725490196" stop-color="#e9ca00"/>
      <stop offset="0.984313725490196" stop-color="#6a4700"/>
    </linearGradient>
    <linearGradient gradientTransform="matrix(0.0, -0.008, -0.008, 0.0, -56.75, 73.05)" gradientUnits="userSpaceOnUse" id="gradient2" spreadMethod="pad" x1="-819.2" x2="819.2">
      <stop offset="0.0" stop-color="#1e120b" stop-opacity="0.0"/>
      <stop offset="0.01568627450980392" stop-color="#23150d" stop-opacity="0.019607844"/>
      <stop offset="0.2235294117647059" stop-color="#653e22" stop-opacity="0.3137255"/>
      <stop offset="0.4196078431372549" stop-color="#9c5f34" stop-opacity="0.5568628"/>
      <stop offset="0.6039215686274509" stop-color="#c77a42" stop-opacity="0.7490196"/>
      <stop offset="0.7647058823529411" stop-color="#e68c4c" stop-opacity="0.8862745"/>
      <stop offset="0.9019607843137255" stop-color="#f89852" stop-opacity="0.96862745"/>
      <stop offset="1.0" stop-color="#ff9c54"/>
    </linearGradient>
    <linearGradient gradientTransform="matrix(0.0, -0.0079, -0.0079, 0.0, -41.1, 73.15)" gradientUnits="userSpaceOnUse" id="gradient3" spreadMethod="pad" x1="-819.2" x2="819.2">
      <stop offset="0.0" stop-color="#1e120b" stop-opacity="0.0"/>
      <stop offset="0.01568627450980392" stop-color="#23150d" stop-opacity="0.019607844"/>
      <stop offset="0.2235294117647059" stop-color="#653e22" stop-opacity="0.3137255"/>
      <stop offset="0.4196078431372549" stop-color="#9c5f34" stop-opacity="0.5568628"/>
      <stop offset="0.6039215686274509" stop-color="#c77a42" stop-opacity="0.7490196"/>
      <stop offset="0.7647058823529411" stop-color="#e68c4c" stop-opacity="0.8862745"/>
      <stop offset="0.9019607843137255" stop-color="#f89852" stop-opacity="0.96862745"/>
      <stop offset="1.0" stop-color="#ff9c54"/>
    </linearGradient>
    <linearGradient gradientTransform="matrix(0.0, -0.0901, -0.0901, 0.0, -70.0, -10.45)" gradientUnits="userSpaceOnUse" id="gradient4" spreadMethod="pad" x1="-819.2" x2="819.2">
      <stop offset="0.00392156862745098" stop-color="#543800"/>
      <stop offset="0.17647058823529413" stop-color="#e9ca00"/>
      <stop offset="0.43529411764705883" stop-color="#6a4a00"/>
      <stop offset="0.44313725490196076" stop-color="#836300"/>
      <stop offset="0.4627450980392157" stop-color="#af8f00"/>
      <stop offset="0.47843137254901963" stop-color="#ceaf00"/>
      <stop offset="0.49019607843137253" stop-color="#e2c300"/>
      <stop offset="0.5019607843137255" stop-color="#e9ca00"/>
      <stop offset="0.6274509803921569" stop-color="#feffbf"/>
      <stop offset="0.7607843137254902" stop-color="#e9ca00"/>
      <stop offset="0.984313725490196" stop-color="#6a4700"/>
    </linearGradient>
    <linearGradient gradientTransform="matrix(0.0359, 0.0, 0.0, -0.0359, -70.0, -6.5)" gradientUnits="userSpaceOnUse" id="gradient5" spreadMethod="pad" x1="-819.2" x2="819.2">
      <stop offset="0.07450980392156863" stop-color="#543800"/>
      <stop offset="0.17647058823529413" stop-color="#e9ca00"/>
      <stop offset="0.43529411764705883" stop-color="#6a4a00"/>
      <stop offset="0.4588235294117647" stop-color="#836300"/>
      <stop offset="0.5058823529411764" stop-color="#af8f00"/>
      <stop offset="0.5490196078431373" stop-color="#ceaf00"/>
      <stop offset="0.5843137254901961" stop-color="#e2c300"/>
      <stop offset="0.6078431372549019" stop-color="#e9ca00"/>
      <stop offset="0.6431372549019608" stop-color="#e9ca00"/>
      <stop offset="0.8196078431372549" stop-color="#fff87f"/>
      <stop offset="0.8784313725490196" stop-color="#e9ca00"/>
      <stop offset="0.984313725490196" stop-color="#6a4700"/>
    </linearGradient>
  </defs>
</svg>
