<?xml version="1.0" encoding="UTF-8" standalone="no"?>
<svg xmlns:xlink="http://www.w3.org/1999/xlink" height="19.5px" width="160.7px" xmlns="http://www.w3.org/2000/svg">
  <g transform="matrix(1.0, 0.0, 0.0, 1.0, -3.0, -6.0)">
    <path d="M161.7 12.0 L162.3 12.25 162.55 12.75 162.4 13.3 161.85 13.5 13.2 13.5 14.5 12.0 161.7 12.0 M162.6 15.25 L162.85 15.75 162.7 16.3 162.15 16.5 10.65 16.5 11.95 15.0 162.0 15.0 Q162.3 15.0 162.6 15.25 M162.0 9.25 L162.25 9.75 162.1 10.3 161.55 10.5 15.75 10.5 16.95 9.0 161.4 9.0 162.0 9.25 M162.3 18.0 Q162.6 18.0 162.85 18.25 L163.1 18.75 163.0 19.3 Q162.75 19.5 162.45 19.5 L7.95 19.5 8.1 19.35 9.3 18.0 162.3 18.0 M161.7 6.25 L161.95 6.75 161.8 7.3 Q161.6 7.5 161.3 7.5 L18.2 7.5 19.25 6.0 161.15 6.0 161.7 6.25 M163.15 21.25 L163.4 21.75 163.25 22.3 162.75 22.5 5.5 22.5 6.75 21.0 162.6 21.0 Q162.9 21.0 163.15 21.25 M162.9 24.0 L163.45 24.25 163.7 24.75 163.55 25.3 163.05 25.5 3.0 25.5 4.25 24.0 162.9 24.0" fill="#000000" fill-opacity="0.4" fill-rule="evenodd" stroke="none"/>
  </g>
</svg>
