<?xml version="1.0" encoding="UTF-8" standalone="no"?>
<svg xmlns:xlink="http://www.w3.org/1999/xlink" height="20.5px" width="22.8px" xmlns="http://www.w3.org/2000/svg">
  <g transform="matrix(1.0, 0.0, 0.0, 1.0, -7.25, 2.0)">
    <path d="M27.0 8.25 Q27.0 12.15 24.2 14.95 21.4 17.75 17.5 17.75 13.6 17.75 10.8 14.95 8.0 12.15 8.0 8.25 8.0 4.3 10.8 1.5 13.6 -1.25 17.5 -1.25 21.4 -1.25 24.2 1.5 27.0 4.3 27.0 8.25" fill="#2a0000" fill-rule="evenodd" stroke="none"/>
    <path d="M27.0 8.25 Q27.0 12.15 24.2 14.95 21.4 17.75 17.5 17.75 13.6 17.75 10.8 14.95 8.0 12.15 8.0 8.25 8.0 4.3 10.8 1.5 13.6 -1.25 17.5 -1.25 21.4 -1.25 24.2 1.5 27.0 4.3 27.0 8.25 Z" fill="none" stroke="#9c0000" stroke-linecap="butt" stroke-linejoin="miter" stroke-width="1.5"/>
  </g>
</svg>
