<?xml version="1.0" encoding="UTF-8" standalone="no"?>
<svg xmlns:xlink="http://www.w3.org/1999/xlink" height="123.65px" width="123.7px" xmlns="http://www.w3.org/2000/svg">
  <g transform="matrix(1.0, 0.0, 0.0, 1.0, 0.0, 0.0)">
    <path d="M123.7 61.85 Q123.7 87.45 105.55 105.55 87.45 123.65 61.85 123.65 36.25 123.65 18.1 105.55 0.0 87.45 0.0 61.85 0.0 36.25 18.1 18.1 36.25 0.0 61.85 0.0 87.45 0.0 105.55 18.1 123.7 36.25 123.7 61.85" fill="#cc0000" fill-opacity="0.36078432" fill-rule="evenodd" stroke="none"/>
    <path d="M123.7 61.85 Q123.7 87.45 105.55 105.55 87.45 123.65 61.85 123.65 36.25 123.65 18.1 105.55 0.0 87.45 0.0 61.85 0.0 36.25 18.1 18.1 36.25 0.0 61.85 0.0 87.45 0.0 105.55 18.1 123.7 36.25 123.7 61.85" fill="#cc0000" fill-opacity="0.36078432" fill-rule="evenodd" stroke="none"/>
    <path d="M123.7 61.85 Q123.7 87.45 105.55 105.55 87.45 123.65 61.85 123.65 36.25 123.65 18.1 105.55 0.0 87.45 0.0 61.85 0.0 36.25 18.1 18.1 36.25 0.0 61.85 0.0 87.45 0.0 105.55 18.1 123.7 36.25 123.7 61.85" fill="url(#gradient0)" fill-rule="evenodd" stroke="none"/>
  </g>
  <defs>
    <radialGradient cx="0" cy="0" gradientTransform="matrix(0.0768, 0.0, 0.0, 0.0768, 61.85, 61.85)" gradientUnits="userSpaceOnUse" id="gradient0" r="819.2" spreadMethod="pad">
      <stop offset="0.7686274509803922" stop-color="#ff0000" stop-opacity="0.0"/>
      <stop offset="1.0" stop-color="#ff0000" stop-opacity="0.5019608"/>
    </radialGradient>
  </defs>
</svg>
