<?xml version="1.0" encoding="UTF-8" standalone="no"?>
<svg xmlns:xlink="http://www.w3.org/1999/xlink" height="147.35px" width="122.85px" xmlns="http://www.w3.org/2000/svg">
  <g transform="matrix(1.0, 0.0, 0.0, 1.0, -31.25, 0.0)">
    <path d="M146.3 13.95 L153.1 32.15 Q140.75 30.95 123.45 33.55 88.75 38.8 64.8 58.6 L64.55 64.7 Q64.5 66.35 65.0 66.3 L86.3 66.4 107.55 66.3 Q107.75 66.3 107.55 71.35 107.55 71.6 89.8 71.35 89.95 71.35 89.9 84.7 L89.8 98.15 Q89.8 98.4 86.45 98.15 86.65 98.15 86.45 71.65 86.45 71.95 61.45 71.65 57.95 71.95 52.65 74.1 41.95 78.4 33.5 87.75 L32.25 89.3 32.25 31.35 43.3 14.4 92.2 7.2 141.05 0.0 Q143.65 6.9 148.6 7.4 L140.15 12.3 140.15 13.95 146.3 13.95 M135.8 139.15 L131.9 139.15 131.9 147.35 78.4 147.35 78.4 142.6 85.5 146.05 86.15 120.75 86.45 106.75 88.0 106.95 89.7 107.0 90.05 120.6 90.05 120.75 90.15 134.4 110.9 134.6 131.65 134.65 135.8 139.15" fill="#ff1c1c" fill-opacity="0.6" fill-rule="evenodd" stroke="none"/>
    <path d="M153.1 32.15 L146.3 13.95 M32.25 89.3 L33.5 87.75 Q41.95 78.4 52.65 74.1 57.95 71.95 61.45 71.65 86.45 71.95 86.45 71.65 86.65 98.15 86.45 98.15 89.8 98.4 89.8 98.15 L89.9 84.7 Q89.95 71.35 89.8 71.35 107.55 71.6 107.55 71.35 107.75 66.3 107.55 66.3 L86.3 66.4 65.0 66.3 Q64.5 66.35 64.55 64.7 L64.8 58.6 Q88.75 38.8 123.45 33.55 140.75 30.95 153.1 32.15 M135.8 139.15 L131.65 134.65 110.9 134.6 90.15 134.4 90.05 120.75 90.05 120.6 89.7 107.0 88.0 106.95 86.45 106.75 86.15 120.75 85.5 146.05 78.4 142.6" fill="none" stroke="#ff0000" stroke-linecap="round" stroke-linejoin="round" stroke-width="2.0"/>
  </g>
</svg>
