<?xml version="1.0" encoding="UTF-8" standalone="no"?>
<svg xmlns:xlink="http://www.w3.org/1999/xlink" height="294.4px" width="446.7px" xmlns="http://www.w3.org/2000/svg">
  <g transform="matrix(1.0, 0.0, 0.0, 1.0, -455.6, 148.7)">
    <path d="M902.3 46.85 Q902.3 87.8 873.3 116.7 844.35 145.7 803.45 145.7 762.6 145.7 733.65 116.7 704.65 87.8 704.65 46.85 704.65 6.0 733.65 -22.95 762.6 -51.95 803.45 -51.95 844.35 -51.95 873.3 -22.95 902.3 6.0 902.3 46.85" fill="url(#gradient0)" fill-rule="evenodd" stroke="none"/>
    <path d="M697.3 -105.85 Q698.4 -107.0 700.05 -107.0 701.65 -107.0 702.8 -105.85 703.95 -104.65 703.95 -103.0 703.95 -101.45 702.8 -100.35 701.65 -99.2 700.05 -99.2 698.4 -99.2 697.3 -100.35 696.15 -101.45 696.15 -103.0 696.15 -104.65 697.3 -105.85 M757.0 32.1 Q755.35 32.1 754.25 30.95 753.1 29.85 753.1 28.3 753.1 26.65 754.25 25.45 755.35 24.3 757.0 24.3 758.6 24.3 759.75 25.45 760.9 26.65 760.9 28.3 760.9 29.85 759.75 30.95 758.6 32.1 757.0 32.1" fill="#66cc00" fill-rule="evenodd" stroke="none"/>
    <path d="M702.85 -126.9 Q704.0 -125.7 704.0 -124.05 704.0 -122.5 702.85 -121.4 701.7 -120.25 700.05 -120.25 698.45 -120.25 697.3 -121.4 696.15 -122.5 696.15 -124.05 696.15 -125.7 697.3 -126.9 698.45 -128.05 700.05 -128.05 701.7 -128.05 702.85 -126.9 M855.05 49.5 Q853.9 48.4 853.9 46.85 853.9 45.2 855.05 44.0 856.2 42.85 857.8 42.85 859.45 42.85 860.6 44.0 861.75 45.2 861.75 46.85 861.75 48.4 860.6 49.5 859.45 50.65 857.8 50.65 856.2 50.65 855.05 49.5 M829.85 68.25 Q831.45 68.25 832.6 69.4 833.75 70.6 833.75 72.2 833.75 73.75 832.6 74.9 831.45 76.05 829.85 76.05 828.2 76.05 827.05 74.9 825.9 73.75 825.9 72.2 825.9 70.6 827.05 69.4 828.2 68.25 829.85 68.25 M819.35 74.9 Q820.45 76.15 820.45 77.75 820.45 79.3 819.35 80.45 818.2 81.6 816.55 81.6 814.95 81.6 813.8 80.45 812.65 79.3 812.65 77.75 812.65 76.15 813.8 74.9 814.95 73.75 816.55 73.75 818.2 73.75 819.35 74.9 M806.55 114.6 Q805.4 115.75 803.8 115.75 802.15 115.75 801.0 114.6 799.9 113.5 799.9 111.95 799.9 110.3 801.0 109.1 802.15 107.95 803.8 107.95 805.4 107.95 806.55 109.1 807.7 110.3 807.7 111.95 807.7 113.5 806.55 114.6" fill="#ff0000" fill-rule="evenodd" stroke="none"/>
    <path d="M700.05 -140.9 Q698.4 -140.9 697.3 -142.05 696.15 -143.2 696.15 -144.75 696.15 -146.35 697.3 -147.6 698.4 -148.7 700.05 -148.7 701.65 -148.7 702.8 -147.6 703.95 -146.35 703.95 -144.75 703.95 -143.2 702.8 -142.05 701.65 -140.9 700.05 -140.9 M800.5 56.2 Q798.85 56.2 797.75 55.05 796.6 53.9 796.6 52.35 796.6 50.75 797.75 49.5 798.85 48.4 800.5 48.4 802.1 48.4 803.25 49.5 804.4 50.75 804.4 52.35 804.4 53.9 803.25 55.05 802.1 56.2 800.5 56.2" fill="#ffffff" fill-rule="evenodd" stroke="none"/>
    <path d="M823.75 -130.7 L819.6 -120.9 815.45 -130.7 823.75 -130.7 M743.6 97.65 L739.45 87.85 747.75 87.85 743.6 97.65" fill="#00ccff" fill-rule="evenodd" stroke="none"/>
    <path d="M823.45 -144.75 Q823.45 -143.2 822.3 -142.05 821.15 -140.9 819.55 -140.9 818.3 -140.9 817.4 -141.5 L816.8 -142.05 Q815.65 -143.2 815.65 -144.75 815.65 -146.35 816.8 -147.6 L817.4 -148.1 Q818.3 -148.7 819.55 -148.7 821.15 -148.7 822.3 -147.6 823.45 -146.35 823.45 -144.75 M562.8 1.15 Q563.9 0.05 565.55 0.05 567.15 0.05 568.3 1.15 569.45 2.4 569.45 4.0 569.45 5.55 568.3 6.7 567.15 7.85 565.55 7.85 563.9 7.85 562.8 6.7 561.65 5.55 561.65 4.0 561.65 2.4 562.8 1.15 M456.75 59.45 Q457.85 58.35 459.5 58.35 461.1 58.35 462.25 59.45 463.4 60.7 463.4 62.3 463.4 63.85 462.25 65.0 461.1 66.15 459.5 66.15 457.85 66.15 456.75 65.0 455.6 63.85 455.6 62.3 455.6 60.7 456.75 59.45 M834.9 109.05 Q836.0 107.95 837.65 107.95 839.25 107.95 840.4 109.05 841.55 110.3 841.55 111.9 841.55 113.45 840.4 114.6 839.25 115.75 837.65 115.75 836.0 115.75 834.9 114.6 833.75 113.45 833.75 111.9 833.75 110.3 834.9 109.05" fill="#ffcc00" fill-rule="evenodd" stroke="none"/>
  </g>
  <defs>
    <radialGradient cx="0" cy="0" gradientTransform="matrix(0.1216, 0.0, 0.0, 0.1216, 803.5, 46.9)" gradientUnits="userSpaceOnUse" id="gradient0" r="819.2" spreadMethod="pad">
      <stop offset="0.7843137254901961" stop-color="#000000" stop-opacity="0.50980395"/>
      <stop offset="1.0" stop-color="#000000" stop-opacity="0.0"/>
    </radialGradient>
  </defs>
</svg>
