<?xml version="1.0" encoding="UTF-8" standalone="no"?>
<svg xmlns:xlink="http://www.w3.org/1999/xlink" height="115.95px" width="14.25px" xmlns="http://www.w3.org/2000/svg">
  <g transform="matrix(1.0, 0.0, 0.0, 1.0, -816.0, 107.0)">
    <path d="M817.15 -105.85 Q818.25 -107.0 819.9 -107.0 821.5 -107.0 822.65 -105.85 823.8 -104.65 823.8 -103.0 823.8 -101.45 822.65 -100.35 821.5 -99.2 819.9 -99.2 818.25 -99.2 817.15 -100.35 816.0 -101.45 816.0 -103.0 816.0 -104.65 817.15 -105.85" fill="#ff8888" fill-rule="evenodd" stroke="none"/>
    <path d="M823.6 2.3 Q824.7 1.15 826.35 1.15 827.95 1.15 829.1 2.3 830.25 3.5 830.25 5.15 830.25 6.7 829.1 7.8 827.95 8.95 826.35 8.95 824.7 8.95 823.6 7.8 822.45 6.7 822.45 5.15 822.45 3.5 823.6 2.3" fill="#d47171" fill-rule="evenodd" stroke="none"/>
  </g>
</svg>
