<?xml version="1.0" encoding="UTF-8" standalone="no"?>
<svg xmlns:xlink="http://www.w3.org/1999/xlink" height="115.5px" width="115.5px" xmlns="http://www.w3.org/2000/svg">
  <g transform="matrix(1.0, 0.0, 0.0, 1.0, 0.0, 0.0)">
    <path d="M112.0 3.5 Q115.5 7.0 115.5 12.0 L115.5 103.5 Q115.5 108.45 112.0 112.0 108.5 115.5 103.5 115.5 L12.0 115.5 Q7.05 115.5 3.55 112.0 0.0 108.45 0.0 103.5 L0.0 12.0 Q0.0 7.0 3.55 3.5 7.05 0.0 12.0 0.0 L103.5 0.0 Q108.5 0.0 112.0 3.5" fill="url(#gradient0)" fill-rule="evenodd" stroke="none"/>
    <path d="M91.85 10.15 Q94.5 12.8 94.5 16.55 L94.5 85.9 Q94.5 89.65 91.85 92.35 89.2 95.0 85.45 95.0 L16.1 95.0 Q12.35 95.0 9.7 92.35 7.0 89.65 7.0 85.9 L7.0 16.55 Q7.0 12.8 9.7 10.15 12.35 7.5 16.1 7.5 L85.45 7.5 Q89.2 7.5 91.85 10.15" fill="url(#gradient1)" fill-rule="evenodd" stroke="none"/>
    <path d="M8.0 17.55 L7.0 46.7 7.0 16.55 Q7.0 12.8 9.7 10.15 12.35 7.5 16.1 7.5 L86.45 7.5 17.1 9.5 Q13.25 9.5 10.7 11.65 8.0 13.9 8.0 17.55" fill="#cccccc" fill-rule="evenodd" stroke="none"/>
  </g>
  <defs>
    <radialGradient cx="0" cy="0" gradientTransform="matrix(0.1263, 0.0635, 0.0635, -0.1263, 36.0, 38.0)" gradientUnits="userSpaceOnUse" id="gradient0" r="819.2" spreadMethod="pad">
      <stop offset="0.0" stop-color="#999999"/>
      <stop offset="0.7137254901960784" stop-color="#181818"/>
    </radialGradient>
    <radialGradient cx="0" cy="0" gradientTransform="matrix(0.1111, 0.1111, 0.1111, -0.1111, 34.0, 49.5)" gradientUnits="userSpaceOnUse" id="gradient1" r="819.2" spreadMethod="pad">
      <stop offset="0.0" stop-color="#999999"/>
      <stop offset="0.7137254901960784" stop-color="#181818"/>
    </radialGradient>
  </defs>
</svg>
