<?xml version="1.0" encoding="UTF-8" standalone="no"?>
<svg xmlns:xlink="http://www.w3.org/1999/xlink" height="115.5px" width="156.5px" xmlns="http://www.w3.org/2000/svg">
  <g transform="matrix(1.0, 0.0, 0.0, 1.0, 0.0, 0.0)">
    <path d="M3.55 3.5 Q7.05 0.0 12.0 0.0 L144.5 0.0 Q149.5 0.0 153.0 3.5 156.5 7.0 156.5 12.0 L156.5 103.5 Q156.5 108.45 153.0 112.0 149.5 115.5 144.5 115.5 L12.0 115.5 Q7.05 115.5 3.55 112.0 0.0 108.45 0.0 103.5 L0.0 12.0 Q0.0 7.0 3.55 3.5" fill="url(#gradient0)" fill-rule="evenodd" stroke="none"/>
    <path d="M9.7 10.15 Q12.35 7.5 16.1 7.5 L126.45 7.5 Q130.2 7.5 132.85 10.15 135.5 12.8 135.5 16.55 L135.5 85.9 Q135.5 89.65 132.85 92.35 130.2 95.0 126.45 95.0 L16.1 95.0 Q12.35 95.0 9.7 92.35 7.0 89.65 7.0 85.9 L7.0 16.55 Q7.0 12.8 9.7 10.15" fill="url(#gradient1)" fill-rule="evenodd" stroke="none"/>
    <path d="M7.0 16.55 Q7.0 12.8 9.7 10.15 12.35 7.5 16.1 7.5 L127.45 7.5 17.1 9.5 Q13.25 9.5 10.7 11.65 8.0 13.9 8.0 17.55 L7.0 46.7 7.0 16.55" fill="#666666" fill-rule="evenodd" stroke="none"/>
  </g>
  <defs>
    <radialGradient cx="0" cy="0" gradientTransform="matrix(0.151, 0.0759, 0.0759, -0.151, 48.8, 38.0)" gradientUnits="userSpaceOnUse" id="gradient0" r="819.2" spreadMethod="pad">
      <stop offset="0.0" stop-color="#666666"/>
      <stop offset="0.7137254901960784" stop-color="#333333"/>
    </radialGradient>
    <radialGradient cx="0" cy="0" gradientTransform="matrix(0.1465, 0.1465, 0.1465, -0.1465, 46.7, 49.5)" gradientUnits="userSpaceOnUse" id="gradient1" r="819.2" spreadMethod="pad">
      <stop offset="0.0" stop-color="#666666"/>
      <stop offset="0.7137254901960784" stop-color="#333333"/>
    </radialGradient>
  </defs>
</svg>
