<?xml version="1.0" encoding="UTF-8" standalone="no"?>
<svg xmlns:xlink="http://www.w3.org/1999/xlink" height="115.5px" width="226.5px" xmlns="http://www.w3.org/2000/svg">
  <g transform="matrix(1.0, 0.0, 0.0, 1.0, 0.0, 0.0)">
    <path d="M3.55 3.55 Q7.05 0.0 12.0 0.0 L214.5 0.0 Q219.5 0.0 223.0 3.55 226.5 7.05 226.5 12.0 L226.5 103.5 Q226.5 108.5 223.0 112.0 219.5 115.5 214.5 115.5 L12.0 115.5 Q7.05 115.5 3.55 112.0 0.0 108.5 0.0 103.5 L0.0 12.0 Q0.0 7.05 3.55 3.55" fill="url(#gradient0)" fill-rule="evenodd" stroke="none"/>
    <path d="M9.7 10.2 Q12.35 7.5 16.1 7.5 L196.45 7.5 Q200.2 7.5 202.85 10.2 205.5 12.85 205.5 16.6 L205.5 85.9 Q205.5 89.7 202.85 92.35 200.2 95.0 196.45 95.0 L16.1 95.0 Q12.35 95.0 9.7 92.35 7.0 89.7 7.0 85.9 L7.0 16.6 Q7.0 12.85 9.7 10.2" fill="url(#gradient1)" fill-rule="evenodd" stroke="none"/>
    <path d="M7.0 16.6 Q7.0 12.85 9.7 10.2 12.35 7.5 16.1 7.5 L106.8 8.0 17.1 9.5 Q13.25 9.5 10.7 11.7 8.0 13.95 8.0 17.6 L7.0 46.7 7.0 16.6" fill="#666666" fill-rule="evenodd" stroke="none"/>
  </g>
  <defs>
    <radialGradient cx="0" cy="0" gradientTransform="matrix(0.1981, 0.0995, 0.0995, -0.1981, 70.6, 38.0)" gradientUnits="userSpaceOnUse" id="gradient0" r="819.2" spreadMethod="pad">
      <stop offset="0.0" stop-color="#666666"/>
      <stop offset="0.7137254901960784" stop-color="#333333"/>
    </radialGradient>
    <radialGradient cx="0" cy="0" gradientTransform="matrix(0.2122, 0.2122, 0.2122, -0.2122, 68.3, 49.5)" gradientUnits="userSpaceOnUse" id="gradient1" r="819.2" spreadMethod="pad">
      <stop offset="0.0" stop-color="#666666"/>
      <stop offset="0.7137254901960784" stop-color="#333333"/>
    </radialGradient>
  </defs>
</svg>
