<?xml version="1.0" encoding="UTF-8" standalone="no"?>
<svg xmlns:xlink="http://www.w3.org/1999/xlink" height="159.35px" width="198.9px" xmlns="http://www.w3.org/2000/svg">
  <g transform="matrix(1.0, 0.0, 0.0, 1.0, 115.5, 79.7)">
    <path d="M-51.55 29.1 L-36.05 55.9 36.0 55.9 51.5 29.1 -51.55 29.1 M66.75 -15.65 L58.85 -29.35 -58.9 -29.35 -66.8 -15.65 66.75 -15.65 M58.6 16.8 L66.75 2.65 -66.8 2.65 -58.65 16.8 58.6 16.8 M51.75 -41.7 L36.0 -68.95 -36.05 -68.95 -51.8 -41.7 51.75 -41.7 M-41.75 -78.75 L41.7 -78.75 83.4 -6.5 41.7 65.75 -41.75 65.75 -83.45 -6.5 -41.75 -78.75" fill="url(#gradient0)" fill-rule="evenodd" stroke="none"/>
    <path d="M-37.2 57.9 L-55.0 27.1 54.95 27.1 37.15 57.9 -37.2 57.9 M-51.55 29.1 L-36.05 55.9 36.0 55.9 51.5 29.1 -51.55 29.1 M-70.25 -13.65 L-60.05 -31.35 60.0 -31.35 70.25 -13.65 -70.25 -13.65 M-59.8 18.8 L-70.3 0.65 70.25 0.65 59.75 18.8 -59.8 18.8 M66.75 -15.65 L58.85 -29.35 -58.9 -29.35 -66.8 -15.65 66.75 -15.65 M58.6 16.8 L66.75 2.65 -66.8 2.65 -58.65 16.8 58.6 16.8 M37.15 -70.95 L55.2 -39.7 -55.25 -39.7 -37.2 -70.95 37.15 -70.95 M51.75 -41.7 L36.0 -68.95 -36.05 -68.95 -51.8 -41.7 51.75 -41.7 M40.55 -76.75 L-40.6 -76.75 -81.15 -6.5 -40.6 63.75 40.55 63.75 81.1 -6.5 40.55 -76.75 M-41.75 -78.75 L41.7 -78.75 83.4 -6.5 41.7 65.75 -41.75 65.75 -83.45 -6.5 -41.75 -78.75" fill="url(#gradient1)" fill-rule="evenodd" stroke="none"/>
    <path d="M-73.3 79.65 L-115.5 6.6 -115.5 -6.4 -73.3 -66.7 -56.7 -79.7 -56.7 -66.7 -99.05 6.6 -56.7 66.65 -56.7 79.65 -73.3 79.65" fill="#23140c" fill-rule="evenodd" stroke="none"/>
    <path d="M-72.3 66.5 L-72.3 79.65 -73.3 79.65 -73.3 66.5 -72.3 66.5" fill="url(#gradient2)" fill-rule="evenodd" stroke="none"/>
    <path d="M-56.7 66.65 L-56.7 79.65 -57.7 79.65 -57.7 66.65 -56.7 66.65" fill="url(#gradient3)" fill-rule="evenodd" stroke="none"/>
    <path d="M-56.7 -79.7 L-99.05 -6.4 -56.7 66.65 -73.3 66.65 -115.5 -6.4 -73.3 -79.7 -56.7 -79.7" fill="url(#gradient4)" fill-rule="evenodd" stroke="none"/>
    <path d="M-60.15 -77.7 L-72.15 -77.7 -113.15 -6.4 -72.15 64.65 -60.15 64.65 -101.35 -6.35 -60.15 -77.7 M-73.3 -79.7 L-56.7 -79.7 -99.05 -6.4 -56.7 66.65 -73.3 66.65 -115.5 -6.4 -73.3 -79.7" fill="url(#gradient5)" fill-rule="evenodd" stroke="none"/>
  </g>
  <defs>
    <linearGradient gradientTransform="matrix(0.0, -0.087, -0.087, 0.0, 0.0, -5.55)" gradientUnits="userSpaceOnUse" id="gradient0" spreadMethod="pad" x1="-819.2" x2="819.2">
      <stop offset="0.00392156862745098" stop-color="#543800"/>
      <stop offset="0.17647058823529413" stop-color="#e9ca00"/>
      <stop offset="0.43529411764705883" stop-color="#6a4a00"/>
      <stop offset="0.44313725490196076" stop-color="#836300"/>
      <stop offset="0.4627450980392157" stop-color="#af8f00"/>
      <stop offset="0.47843137254901963" stop-color="#ceaf00"/>
      <stop offset="0.49019607843137253" stop-color="#e2c300"/>
      <stop offset="0.5019607843137255" stop-color="#e9ca00"/>
      <stop offset="0.6274509803921569" stop-color="#feffbf"/>
      <stop offset="0.7607843137254902" stop-color="#e9ca00"/>
      <stop offset="0.984313725490196" stop-color="#6a4700"/>
    </linearGradient>
    <linearGradient gradientTransform="matrix(0.1018, 0.0, 0.0, -0.1018, 0.0, -6.5)" gradientUnits="userSpaceOnUse" id="gradient1" spreadMethod="pad" x1="-819.2" x2="819.2">
      <stop offset="0.07450980392156863" stop-color="#543800"/>
      <stop offset="0.17647058823529413" stop-color="#e9ca00"/>
      <stop offset="0.43529411764705883" stop-color="#6a4a00"/>
      <stop offset="0.4588235294117647" stop-color="#836300"/>
      <stop offset="0.5058823529411764" stop-color="#af8f00"/>
      <stop offset="0.5490196078431373" stop-color="#ceaf00"/>
      <stop offset="0.5843137254901961" stop-color="#e2c300"/>
      <stop offset="0.6078431372549019" stop-color="#e9ca00"/>
      <stop offset="0.6431372549019608" stop-color="#e9ca00"/>
      <stop offset="0.8196078431372549" stop-color="#fff87f"/>
      <stop offset="0.8784313725490196" stop-color="#e9ca00"/>
      <stop offset="0.984313725490196" stop-color="#6a4700"/>
    </linearGradient>
    <linearGradient gradientTransform="matrix(0.0, -0.008, -0.008, 0.0, -72.8, 73.1)" gradientUnits="userSpaceOnUse" id="gradient2" spreadMethod="pad" x1="-819.2" x2="819.2">
      <stop offset="0.0" stop-color="#1e120b" stop-opacity="0.0"/>
      <stop offset="0.01568627450980392" stop-color="#23150d" stop-opacity="0.019607844"/>
      <stop offset="0.2235294117647059" stop-color="#653e22" stop-opacity="0.3137255"/>
      <stop offset="0.4196078431372549" stop-color="#9c5f34" stop-opacity="0.5568628"/>
      <stop offset="0.6039215686274509" stop-color="#c77a42" stop-opacity="0.7490196"/>
      <stop offset="0.7647058823529411" stop-color="#e68c4c" stop-opacity="0.8862745"/>
      <stop offset="0.9019607843137255" stop-color="#f89852" stop-opacity="0.96862745"/>
      <stop offset="1.0" stop-color="#ff9c54"/>
    </linearGradient>
    <linearGradient gradientTransform="matrix(0.0, -0.0079, -0.0079, 0.0, -57.2, 73.15)" gradientUnits="userSpaceOnUse" id="gradient3" spreadMethod="pad" x1="-819.2" x2="819.2">
      <stop offset="0.0" stop-color="#1e120b" stop-opacity="0.0"/>
      <stop offset="0.01568627450980392" stop-color="#23150d" stop-opacity="0.019607844"/>
      <stop offset="0.2235294117647059" stop-color="#653e22" stop-opacity="0.3137255"/>
      <stop offset="0.4196078431372549" stop-color="#9c5f34" stop-opacity="0.5568628"/>
      <stop offset="0.6039215686274509" stop-color="#c77a42" stop-opacity="0.7490196"/>
      <stop offset="0.7647058823529411" stop-color="#e68c4c" stop-opacity="0.8862745"/>
      <stop offset="0.9019607843137255" stop-color="#f89852" stop-opacity="0.96862745"/>
      <stop offset="1.0" stop-color="#ff9c54"/>
    </linearGradient>
    <linearGradient gradientTransform="matrix(0.0, -0.0901, -0.0901, 0.0, -86.1, -10.45)" gradientUnits="userSpaceOnUse" id="gradient4" spreadMethod="pad" x1="-819.2" x2="819.2">
      <stop offset="0.00392156862745098" stop-color="#543800"/>
      <stop offset="0.17647058823529413" stop-color="#e9ca00"/>
      <stop offset="0.43529411764705883" stop-color="#6a4a00"/>
      <stop offset="0.44313725490196076" stop-color="#836300"/>
      <stop offset="0.4627450980392157" stop-color="#af8f00"/>
      <stop offset="0.47843137254901963" stop-color="#ceaf00"/>
      <stop offset="0.49019607843137253" stop-color="#e2c300"/>
      <stop offset="0.5019607843137255" stop-color="#e9ca00"/>
      <stop offset="0.6274509803921569" stop-color="#feffbf"/>
      <stop offset="0.7607843137254902" stop-color="#e9ca00"/>
      <stop offset="0.984313725490196" stop-color="#6a4700"/>
    </linearGradient>
    <linearGradient gradientTransform="matrix(0.0359, 0.0, 0.0, -0.0359, -86.1, -6.5)" gradientUnits="userSpaceOnUse" id="gradient5" spreadMethod="pad" x1="-819.2" x2="819.2">
      <stop offset="0.07450980392156863" stop-color="#543800"/>
      <stop offset="0.17647058823529413" stop-color="#e9ca00"/>
      <stop offset="0.43529411764705883" stop-color="#6a4a00"/>
      <stop offset="0.4588235294117647" stop-color="#836300"/>
      <stop offset="0.5058823529411764" stop-color="#af8f00"/>
      <stop offset="0.5490196078431373" stop-color="#ceaf00"/>
      <stop offset="0.5843137254901961" stop-color="#e2c300"/>
      <stop offset="0.6078431372549019" stop-color="#e9ca00"/>
      <stop offset="0.6431372549019608" stop-color="#e9ca00"/>
      <stop offset="0.8196078431372549" stop-color="#fff87f"/>
      <stop offset="0.8784313725490196" stop-color="#e9ca00"/>
      <stop offset="0.984313725490196" stop-color="#6a4700"/>
    </linearGradient>
  </defs>
</svg>
