<?xml version="1.0" encoding="UTF-8" standalone="no"?>
<svg xmlns:xlink="http://www.w3.org/1999/xlink" height="115.5px" width="155.5px" xmlns="http://www.w3.org/2000/svg">
  <g transform="matrix(1.0, 0.0, 0.0, 1.0, 0.0, 0.0)">
    <path d="M152.0 3.55 Q155.5 7.05 155.5 12.0 L155.5 103.5 Q155.5 108.5 152.0 112.0 148.5 115.5 143.5 115.5 L12.0 115.5 Q7.05 115.5 3.55 112.0 0.0 108.5 0.0 103.5 L0.0 12.0 Q0.0 7.05 3.55 3.55 7.05 0.0 12.0 0.0 L143.5 0.0 Q148.5 0.0 152.0 3.55" fill="url(#gradient0)" fill-rule="evenodd" stroke="none"/>
    <path d="M9.7 10.2 Q12.35 7.5 16.1 7.5 L125.45 7.5 Q129.2 7.5 131.85 10.2 134.5 12.85 134.5 16.6 L134.5 85.9 Q134.5 89.7 131.85 92.35 129.2 95.0 125.45 95.0 L16.1 95.0 Q12.35 95.0 9.7 92.35 7.0 89.7 7.0 85.9 L7.0 16.6 Q7.0 12.85 9.7 10.2" fill="url(#gradient1)" fill-rule="evenodd" stroke="none"/>
    <path d="M8.0 17.6 L7.0 46.7 7.0 16.6 Q7.0 12.85 9.7 10.2 12.35 7.5 16.1 7.5 L126.45 7.5 17.1 9.5 Q13.25 9.5 10.7 11.7 8.0 13.95 8.0 17.6" fill="#666666" fill-rule="evenodd" stroke="none"/>
  </g>
  <defs>
    <radialGradient cx="0" cy="0" gradientTransform="matrix(0.1504, 0.0755, 0.0755, -0.1504, 48.5, 38.0)" gradientUnits="userSpaceOnUse" id="gradient0" r="819.2" spreadMethod="pad">
      <stop offset="0.0" stop-color="#666666"/>
      <stop offset="0.7137254901960784" stop-color="#333333"/>
    </radialGradient>
    <radialGradient cx="0" cy="0" gradientTransform="matrix(0.1456, 0.1456, 0.1456, -0.1456, 46.35, 49.5)" gradientUnits="userSpaceOnUse" id="gradient1" r="819.2" spreadMethod="pad">
      <stop offset="0.0" stop-color="#666666"/>
      <stop offset="0.7137254901960784" stop-color="#333333"/>
    </radialGradient>
  </defs>
</svg>
