<?xml version="1.0" encoding="UTF-8" standalone="no"?>
<svg xmlns:xlink="http://www.w3.org/1999/xlink" height="300.7px" width="296.55px" xmlns="http://www.w3.org/2000/svg">
  <g transform="matrix(1.0, 0.0, 0.0, 1.0, -0.8, 104.95)">
    <path d="M63.0 -8.45 L105.5 -8.45 105.5 34.05 63.0 34.05 63.0 -8.45 M200.3 34.05 L157.8 34.05 157.8 -8.45 200.3 -8.45 200.3 34.05 M85.85 85.95 L177.35 85.95 177.35 128.45 85.85 128.45 85.85 85.95 M108.05 129.4 L108.05 194.75" fill="none" stroke="#ffcc00" stroke-linecap="round" stroke-linejoin="round" stroke-width="2.0"/>
    <path d="M213.3 39.55 L213.3 81.8 77.25 82.05 77.25 39.55 110.95 39.45 110.8 -8.6 152.55 -8.6 153.0 39.3 213.05 39.05" fill="none" stroke="#ff0000" stroke-linecap="round" stroke-linejoin="round" stroke-width="2.0"/>
    <path d="M224.3 128.9 L181.8 128.9 181.8 86.4 224.3 86.4 224.3 128.9" fill="none" stroke="#3399ff" stroke-linecap="round" stroke-linejoin="round" stroke-width="2.0"/>
    <path d="M186.55 -55.7 L186.55 -13.2" fill="none" stroke="#666666" stroke-linecap="round" stroke-linejoin="round" stroke-width="2.0"/>
    <path d="M44.3 -61.45 L1.8 -61.45 1.8 -103.95 44.3 -103.95 44.3 -61.45 M296.35 34.05 L253.85 34.05 253.85 -8.45 296.35 -8.45 296.35 34.05" fill="none" stroke="#cccccc" stroke-linecap="round" stroke-linejoin="round" stroke-width="2.0"/>
    <path d="M205.8 -8.45 L248.3 -8.45 248.3 34.05 205.8 34.05 205.8 -8.45" fill="none" stroke="#993300" stroke-linecap="round" stroke-linejoin="round" stroke-width="2.0"/>
    <path d="M261.85 38.6 L261.85 81.1 219.35 81.1 219.35 38.6 261.85 38.6" fill="none" stroke="#339900" stroke-linecap="round" stroke-linejoin="round" stroke-width="2.0"/>
    <path d="M186.05 -13.45 L50.0 -13.2 50.0 -55.7 185.8 -56.2" fill="none" stroke="#6666cc" stroke-linecap="round" stroke-linejoin="round" stroke-width="2.0"/>
  </g>
</svg>
