<?xml version="1.0" encoding="UTF-8" standalone="no"?>
<svg xmlns:xlink="http://www.w3.org/1999/xlink" height="92.55px" width="52.25px" xmlns="http://www.w3.org/2000/svg">
  <g transform="matrix(1.0, 0.0, 0.0, 1.0, -531.35, 136.7)">
    <path d="M533.35 -81.9 Q534.4 -82.95 535.85 -82.95 L538.65 -82.95 Q540.1 -82.95 541.1 -81.9 542.15 -80.8 542.15 -79.25 L542.15 -48.8 Q542.15 -47.3 541.1 -46.25 540.1 -45.15 538.65 -45.15 L535.85 -45.15 Q534.4 -45.15 533.35 -46.25 532.35 -47.3 532.35 -48.8 L532.35 -79.25 Q532.35 -80.8 533.35 -81.9" fill="#c68809" fill-opacity="0.5019608" fill-rule="evenodd" stroke="none"/>
    <path d="M533.35 -81.9 Q534.4 -82.95 535.85 -82.95 L538.65 -82.95 Q540.1 -82.95 541.1 -81.9 542.15 -80.8 542.15 -79.25 L542.15 -48.8 Q542.15 -47.3 541.1 -46.25 540.1 -45.15 538.65 -45.15 L535.85 -45.15 Q534.4 -45.15 533.35 -46.25 532.35 -47.3 532.35 -48.8 L532.35 -79.25 Q532.35 -80.8 533.35 -81.9 Z" fill="none" stroke="#ffcc02" stroke-linecap="round" stroke-linejoin="round" stroke-width="2.0"/>
    <path d="M582.6 -135.7 L582.6 -58.65 542.75 -58.65" fill="none" stroke="#ffcc02" stroke-linecap="round" stroke-linejoin="round" stroke-width="2.0"/>
  </g>
</svg>
