<?xml version="1.0" encoding="UTF-8" standalone="no"?>
<svg xmlns:xlink="http://www.w3.org/1999/xlink" height="117.25px" width="76.6px" xmlns="http://www.w3.org/2000/svg">
  <g transform="matrix(1.0, 0.0, 0.0, 1.0, -459.45, 135.35)">
    <path d="M534.75 -88.65 L535.05 -101.4 Q535.3 -110.75 530.75 -111.65 526.1 -112.55 512.3 -111.35 498.5 -110.2 487.2 -103.45 475.9 -96.7 471.55 -78.35 467.2 -60.05 463.6 -37.2 460.8 -19.3 460.45 -19.1 L480.2 -22.3 Q505.55 -25.45 534.35 -25.3 534.9 -29.6 534.9 -34.7 L534.75 -39.35 Q533.25 -39.5 531.75 -40.7 528.7 -43.05 528.7 -48.4 L528.45 -68.2 528.2 -81.65 528.85 -84.8 Q530.35 -87.9 534.75 -87.9 M489.45 -134.35 L489.95 -106.35 M534.25 -24.6 L534.35 -25.3" fill="none" stroke="#ff0000" stroke-linecap="round" stroke-linejoin="round" stroke-width="2.0"/>
  </g>
</svg>
