<?xml version="1.0" encoding="UTF-8" standalone="no"?>
<svg xmlns:xlink="http://www.w3.org/1999/xlink" height="20.95px" width="183.65px" xmlns="http://www.w3.org/2000/svg">
  <g transform="matrix(1.0, 0.0, 0.0, 1.0, 25.5, 0.65)">
    <path d="M-22.0 -0.15 L154.65 -0.15 Q157.65 -0.15 157.65 2.85 L157.65 16.8 Q157.65 19.8 154.65 19.8 L-22.0 19.8 Q-25.0 19.8 -25.0 16.8 L-25.0 2.85 Q-25.0 -0.15 -22.0 -0.15" fill="url(#gradient0)" fill-rule="evenodd" stroke="none"/>
    <path d="M-22.0 -0.15 L154.65 -0.15 Q157.65 -0.15 157.65 2.85 L157.65 16.8 Q157.65 19.8 154.65 19.8 L-22.0 19.8 Q-25.0 19.8 -25.0 16.8 L-25.0 2.85 Q-25.0 -0.15 -22.0 -0.15 Z" fill="none" stroke="url(#gradient1)" stroke-linecap="round" stroke-linejoin="round" stroke-width="1.0"/>
  </g>
  <defs>
    <linearGradient gradientTransform="matrix(-2.0E-4, -0.0136, 0.0122, -2.0E-4, 66.3, 9.8)" gradientUnits="userSpaceOnUse" id="gradient0" spreadMethod="pad" x1="-819.2" x2="819.2">
      <stop offset="0.0" stop-color="#919191"/>
      <stop offset="1.0" stop-color="#575757"/>
    </linearGradient>
    <linearGradient gradientTransform="matrix(0.0, 0.014, -0.0711, 0.0, 149.5, 8.25)" gradientUnits="userSpaceOnUse" id="gradient1" spreadMethod="pad" x1="-819.2" x2="819.2">
      <stop offset="0.0" stop-color="#575757"/>
      <stop offset="1.0" stop-color="#181818"/>
    </linearGradient>
  </defs>
</svg>
