<?xml version="1.0" encoding="UTF-8" standalone="no"?>
<svg xmlns:xlink="http://www.w3.org/1999/xlink" height="214.65px" width="402.35px" xmlns="http://www.w3.org/2000/svg">
  <g transform="matrix(1.0, 0.0, 0.0, 1.0, -12.25, -1.55)">
    <path d="M12.25 211.9 L178.45 211.9 178.45 213.85 201.8 213.85 201.8 216.2 171.75 216.2 171.75 214.2 12.25 214.2 12.25 211.9" fill="#000000" fill-rule="evenodd" stroke="none"/>
    <path d="M414.6 9.7 L354.0 9.7 354.0 8.15 414.6 8.15 414.6 9.7 M202.95 1.55 L238.15 1.55 238.15 2.05 202.95 2.05 202.95 1.55 M185.3 10.0 L152.4 10.0 152.4 13.15 71.5 13.15 71.5 10.0 61.0 10.0 61.0 6.3 97.55 6.3 97.55 9.45 150.1 9.45 150.1 6.3 185.3 6.3 185.3 10.0 M149.85 3.4 L89.25 3.4 89.25 1.8 149.85 1.8 149.85 3.4" fill="#000000" fill-rule="evenodd" stroke="none"/>
  </g>
</svg>
