<?xml version="1.0" encoding="UTF-8" standalone="no"?>
<svg xmlns:xlink="http://www.w3.org/1999/xlink" height="224.95px" width="423.85px" xmlns="http://www.w3.org/2000/svg">
  <g transform="matrix(1.0, 0.0, 0.0, 1.0, 6.7, -1.55)">
    <path d="M325.75 224.3 L259.2 224.3 259.2 222.05 325.75 222.05 325.75 224.3 M145.1 225.95 L240.25 225.95 240.25 226.5 145.1 226.5 145.1 225.95" fill="#000000" fill-rule="evenodd" stroke="none"/>
    <path d="M414.6 11.85 L354.0 11.85 354.0 8.65 279.85 8.65 279.85 4.95 342.9 4.95 342.9 1.55 417.15 1.55 417.15 4.95 354.1 4.95 354.1 8.15 414.6 8.15 414.6 11.85 M185.3 10.0 L152.4 10.0 152.4 13.15 74.25 13.15 74.25 15.5 -6.7 15.5 -6.7 11.85 71.5 11.85 71.5 10.0 61.0 10.0 61.0 6.3 97.55 6.3 97.55 9.45 150.1 9.45 150.1 6.3 185.3 6.3 185.3 10.0 M149.85 5.5 L89.25 5.5 89.25 3.9 149.85 3.9 149.85 5.5" fill="#000000" fill-rule="evenodd" stroke="none"/>
  </g>
</svg>
