<?xml version="1.0" encoding="UTF-8" standalone="no"?>
<svg xmlns:xlink="http://www.w3.org/1999/xlink" height="220.5px" width="432.55px" xmlns="http://www.w3.org/2000/svg">
  <g transform="matrix(1.0, 0.0, 0.0, 1.0, 15.4, -1.55)">
    <path d="M340.0 222.05 L311.1 222.05 311.1 218.5 340.0 218.5 340.0 222.05 M107.85 216.2 L203.0 216.2 203.0 218.35 230.25 218.35 230.25 220.5 201.35 220.5 201.35 218.35 107.85 218.35 107.85 216.2" fill="#000000" fill-rule="evenodd" stroke="none"/>
    <path d="M414.6 11.85 L354.0 11.85 354.0 8.65 279.85 8.65 279.85 4.95 342.9 4.95 342.9 2.35 254.4 2.35 254.4 1.55 417.15 1.55 417.15 4.95 354.1 4.95 354.1 8.15 414.6 8.15 414.6 11.85 M347.7 13.95 L231.85 13.95 231.85 12.9 182.5 12.9 182.5 10.0 152.4 10.0 152.4 13.15 74.25 13.15 74.25 15.5 -6.7 15.5 -6.7 11.85 71.5 11.85 71.5 10.0 61.0 10.0 61.0 6.3 97.55 6.3 97.55 9.45 150.1 9.45 150.1 6.3 185.3 6.3 185.3 9.2 189.1 9.2 189.1 6.0 182.5 6.0 182.5 2.35 243.15 2.35 243.15 5.5 263.35 5.5 263.35 9.2 243.15 9.2 243.15 10.25 347.7 10.25 347.7 13.95 M202.95 2.05 L202.95 1.55 238.15 1.55 238.15 2.05 202.95 2.05 M149.85 5.5 L89.25 5.5 89.25 4.95 -15.4 4.95 -15.4 1.55 100.45 1.55 100.45 1.8 149.85 1.8 149.85 5.5" fill="#000000" fill-rule="evenodd" stroke="none"/>
  </g>
</svg>
