<?xml version="1.0" encoding="UTF-8" standalone="no"?>
<svg xmlns:xlink="http://www.w3.org/1999/xlink" height="10.8px" width="327.35px" xmlns="http://www.w3.org/2000/svg">
  <g transform="matrix(1.0, 0.0, 0.0, 1.0, -23.0, -215.7)">
    <path d="M350.35 223.8 L350.35 226.5 300.55 226.5 300.55 223.8 350.35 223.8 M152.45 225.65 L247.65 225.65 247.65 226.5 152.45 226.5 152.45 225.65 M122.65 226.1 L122.65 222.9 70.55 222.9 70.55 219.35 162.8 219.35 162.8 216.2 223.8 216.2 223.8 219.75 165.7 219.75 165.7 222.9 151.55 222.9 151.55 226.1 122.65 226.1 M82.9 225.35 L30.45 225.35 30.45 223.55 82.9 223.55 82.9 225.35 M72.8 219.25 L23.0 219.25 23.0 215.7 72.8 215.7 72.8 219.25" fill="#000000" fill-rule="evenodd" stroke="none"/>
  </g>
</svg>
