<?xml version="1.0" encoding="UTF-8" standalone="no"?>
<svg xmlns:xlink="http://www.w3.org/1999/xlink" height="10.3px" width="347.75px" xmlns="http://www.w3.org/2000/svg">
  <g transform="matrix(1.0, 0.0, 0.0, 1.0, -2.6, -216.2)">
    <path d="M350.35 218.75 L289.35 218.75 289.35 217.2 350.35 217.2 350.35 218.75 M350.35 226.5 L152.45 226.5 152.45 225.6 239.65 225.6 239.65 223.3 300.65 223.3 300.65 223.8 350.35 223.8 350.35 226.5 M122.1 226.5 L2.6 226.5 2.6 223.55 122.1 223.55 122.1 226.5 M122.65 226.1 L122.65 222.9 70.55 222.9 70.55 219.35 162.8 219.35 162.8 216.2 223.8 216.2 223.8 219.75 165.7 219.75 165.7 222.9 151.55 222.9 151.55 226.1 122.65 226.1 M72.8 219.25 L23.0 219.25 23.0 217.7 72.8 217.7 72.8 219.25 M288.2 222.8 L227.25 222.8 227.25 219.25 288.2 219.25 288.2 222.8" fill="#000000" fill-rule="evenodd" stroke="none"/>
  </g>
</svg>
