<?xml version="1.0" encoding="UTF-8" standalone="no"?>
<svg xmlns:xlink="http://www.w3.org/1999/xlink" height="13.35px" width="438.25px" xmlns="http://www.w3.org/2000/svg">
  <g transform="matrix(1.0, 0.0, 0.0, 1.0, 87.9, -213.15)">
    <path d="M350.35 226.5 L152.45 226.5 152.45 225.6 239.65 225.6 239.65 223.3 300.65 223.3 300.65 223.8 350.35 223.8 350.35 226.5 M350.35 218.75 L289.35 218.75 289.35 216.7 223.8 216.7 223.8 219.75 165.7 219.75 165.7 222.9 151.55 222.9 151.55 226.1 122.65 226.1 122.65 222.9 70.55 222.9 70.55 219.35 114.15 219.35 114.15 217.2 72.8 217.2 72.8 219.25 23.0 219.25 23.0 215.7 51.5 215.7 51.5 213.65 146.65 213.65 146.65 216.2 205.05 216.2 205.05 213.15 300.25 213.15 300.25 215.2 350.35 215.2 350.35 218.75 M122.1 226.5 L2.6 226.5 2.6 223.55 122.1 223.55 122.1 226.5 M288.2 220.75 L227.25 220.75 227.25 219.25 288.2 219.25 288.2 220.75" fill="#000000" fill-rule="evenodd" stroke="none"/>
    <path d="M276.3 220.8 L241.1 220.8 241.1 219.5 276.3 219.5 276.3 220.8 M-24.15 215.0 L-87.9 215.0 -87.9 213.7 -24.15 213.7 -24.15 215.0" fill="#000000" fill-rule="evenodd" stroke="none"/>
  </g>
</svg>
