<?xml version="1.0" encoding="UTF-8" standalone="no"?>
<svg xmlns:xlink="http://www.w3.org/1999/xlink" height="13.95px" width="423.85px" xmlns="http://www.w3.org/2000/svg">
  <g transform="matrix(1.0, 0.0, 0.0, 1.0, 147.55, -210.0)">
    <path d="M139.0 213.4 L202.05 213.4 202.05 210.0 276.3 210.0 276.3 213.4 213.25 213.4 213.25 216.6 273.75 216.6 273.75 220.3 213.15 220.3 213.15 217.1 139.0 217.1 139.0 213.4 M44.45 218.45 L11.55 218.45 11.55 221.6 -66.6 221.6 -66.6 223.95 -147.55 223.95 -147.55 220.3 -69.35 220.3 -69.35 218.45 -79.85 218.45 -79.85 214.75 -43.3 214.75 -43.3 217.9 9.25 217.9 9.25 214.75 44.45 214.75 44.45 218.45 M9.0 213.95 L-51.6 213.95 -51.6 212.35 9.0 212.35 9.0 213.95" fill="#000000" fill-rule="evenodd" stroke="none"/>
  </g>
</svg>
