<?xml version="1.0" encoding="UTF-8" standalone="no"?>
<svg xmlns:xlink="http://www.w3.org/1999/xlink" height="9.8px" width="422.9px" xmlns="http://www.w3.org/2000/svg">
  <g transform="matrix(1.0, 0.0, 0.0, 1.0, -94.65, -210.0)">
    <path d="M157.6 214.65 L157.6 212.4 94.65 212.4 94.65 210.0 168.75 210.0 168.75 212.4 231.65 212.4 231.65 215.0 157.7 215.0 157.7 217.25 97.2 217.25 97.2 214.65 157.6 214.65 M421.85 211.65 L421.85 212.8 361.35 212.8 361.35 211.65 421.85 211.65 M450.0 213.35 L450.0 215.95 439.55 215.95 439.55 217.25 517.55 217.25 517.55 219.8 436.8 219.8 436.8 218.15 358.85 218.15 358.85 215.95 326.0 215.95 326.0 213.35 361.1 213.35 361.1 215.55 413.55 215.55 413.55 213.35 450.0 213.35" fill="#000000" fill-rule="evenodd" stroke="none"/>
  </g>
</svg>
