<?xml version="1.0" encoding="UTF-8" standalone="no"?>
<svg xmlns:xlink="http://www.w3.org/1999/xlink" height="31.55px" width="348.6px" xmlns="http://www.w3.org/2000/svg">
  <g transform="matrix(1.0, 0.0, 0.0, 1.0, -4.1, -19.2)">
    <path d="M13.2 19.7 Q16.7 19.7 19.2 22.15 21.7 24.65 21.7 28.2 21.7 31.75 19.2 34.25 16.7 36.75 13.2 36.75 9.65 36.75 7.15 34.25 4.6 31.75 4.6 28.2 4.6 24.65 7.15 22.15 9.65 19.7 13.2 19.7 Z" fill="none" stroke="#000000" stroke-linecap="round" stroke-linejoin="round" stroke-width="1.0"/>
    <path d="M352.7 21.55 L352.7 27.4 346.05 27.4 346.05 21.55 352.7 21.55 M318.1 47.4 L318.1 50.75 313.1 50.75 313.1 47.4 318.1 47.4 M280.6 37.4 L280.6 44.05 269.8 44.05 269.8 37.4 280.6 37.4" fill="#000000" fill-opacity="0.95686275" fill-rule="evenodd" stroke="none"/>
  </g>
</svg>
