<?xml version="1.0" encoding="UTF-8" standalone="no"?>
<svg xmlns:xlink="http://www.w3.org/1999/xlink" height="327.55px" width="434.15px" xmlns="http://www.w3.org/2000/svg">
  <g transform="matrix(1.0, 0.0, 0.0, 1.0, -1.15, 1.0)">
    <path d="M418.4 325.55 L2.15 325.55 2.15 15.05 17.2 0.0 434.3 0.0 434.3 309.65 418.4 325.55 Z" fill="none" stroke="#0099ff" stroke-linecap="butt" stroke-linejoin="miter" stroke-width="1.0"/>
    <path d="M434.3 279.85 L434.3 309.65 418.4 325.55 355.55 325.55 M2.15 45.25 L2.15 15.05 17.2 0.0 83.8 0.0" fill="none" stroke="#0099ff" stroke-linecap="butt" stroke-linejoin="miter" stroke-width="2.0"/>
    <path d="M435.2 29.95 L2.7 29.95 2.7 16.5 18.45 0.65 435.2 0.65 435.2 29.95" fill="url(#gradient0)" fill-rule="evenodd" stroke="none"/>
    <path d="M434.35 33.3 L434.35 61.4 4.0 61.4 4.0 33.3 434.35 33.3" fill="url(#gradient1)" fill-rule="evenodd" stroke="none"/>
  </g>
  <defs>
    <linearGradient gradientTransform="matrix(0.264, 0.0, 0.0, 0.0179, 218.95, 15.3)" gradientUnits="userSpaceOnUse" id="gradient0" spreadMethod="pad" x1="-819.2" x2="819.2">
      <stop offset="0.0" stop-color="#0076c4"/>
      <stop offset="0.47843137254901963" stop-color="#000b12"/>
      <stop offset="0.984313725490196" stop-color="#000000" stop-opacity="0.0"/>
    </linearGradient>
    <linearGradient gradientTransform="matrix(0.2627, 0.0, 0.0, 0.0172, 219.2, 47.35)" gradientUnits="userSpaceOnUse" id="gradient1" spreadMethod="pad" x1="-819.2" x2="819.2">
      <stop offset="0.0" stop-color="#000000"/>
      <stop offset="0.43529411764705883" stop-color="#012c5c"/>
      <stop offset="0.596078431372549" stop-color="#012c5c"/>
      <stop offset="1.0" stop-color="#000000"/>
    </linearGradient>
  </defs>
</svg>
