<?xml version="1.0" encoding="UTF-8" standalone="no"?>
<svg xmlns:xlink="http://www.w3.org/1999/xlink" height="25.3px" width="142.2px" xmlns="http://www.w3.org/2000/svg">
  <g transform="matrix(1.0, 0.0, 0.0, 1.0, 0.0, 0.0)">
    <path d="M139.35 10.1 L139.0 10.85 139.7 11.0 Q141.05 11.1 141.7 11.6 142.2 11.95 142.2 12.4 L141.9 13.4 141.45 14.25 Q140.5 14.25 140.4 13.55 L140.25 12.35 138.6 12.1 138.2 12.15 Q137.75 12.15 137.55 11.85 L137.45 11.55 Q137.45 11.1 137.9 10.9 L137.95 10.9 137.95 10.85 Q138.1 10.6 139.35 10.1 M136.9 5.3 L136.6 5.9 Q136.25 6.25 135.7 6.25 135.0 6.25 134.8 5.85 L134.7 5.45 Q134.7 4.75 135.8 4.55 136.9 4.4 136.9 5.3 M135.4 9.45 Q135.4 10.3 134.45 10.3 133.45 10.3 133.45 9.55 133.45 8.65 134.6 8.65 L135.15 8.9 135.4 9.45 M134.5 7.05 L134.0 7.4 Q133.6 7.3 133.6 6.55 L134.1 6.55 134.5 7.05 M132.55 8.65 L132.3 8.6 Q132.05 8.5 132.05 8.1 132.05 7.35 132.55 6.75 132.95 6.85 133.75 7.5 L132.9 8.3 132.55 8.65 M136.15 14.6 L135.65 14.8 135.3 14.05 Q135.35 13.75 135.75 13.7 L135.35 13.5 Q134.85 13.5 134.55 13.75 L134.05 14.0 Q133.35 14.0 133.25 13.5 L133.15 12.75 Q132.9 12.4 131.9 12.15 L131.3 12.2 131.7 13.15 131.5 13.6 130.85 13.9 Q130.4 13.9 130.15 13.6 129.95 13.3 129.6 13.3 L129.0 13.4 129.25 13.8 128.9 14.3 128.8 14.45 128.6 14.65 127.0 15.8 Q126.5 15.65 126.5 14.7 L126.55 14.45 126.5 14.45 125.35 14.9 Q124.7 14.9 124.4 14.4 L124.35 14.35 123.8 14.15 123.1 13.9 121.55 14.15 119.9 13.9 118.5 13.65 Q117.55 13.65 117.45 13.15 L117.6 12.5 114.65 13.25 Q114.25 13.25 113.4 12.5 L113.1 12.2 112.4 12.2 Q112.25 12.45 112.25 11.8 112.25 11.45 112.5 11.35 L112.7 11.35 Q112.8 11.0 113.25 11.0 L114.1 11.4 114.6 11.9 114.95 11.4 Q115.1 11.15 115.6 11.15 L116.05 11.35 116.2 11.7 117.2 11.05 Q117.5 10.75 117.8 10.6 117.85 10.4 118.05 10.35 L118.5 10.3 118.7 10.45 Q119.15 10.6 119.1 11.0 L118.85 12.05 Q119.4 11.95 119.9 12.4 120.5 12.9 120.95 12.9 L122.4 12.85 Q122.65 12.15 123.1 12.15 123.55 12.15 123.8 12.55 L124.6 13.1 124.8 13.15 124.85 13.15 125.45 13.35 125.6 13.4 125.65 13.35 Q125.2 13.1 125.2 12.5 125.2 11.9 125.95 12.05 126.95 12.2 127.45 11.2 L128.15 9.8 127.95 9.4 Q127.95 8.35 128.5 8.6 L128.6 7.65 Q129.3 7.0 129.75 7.45 130.1 7.75 130.1 8.4 L129.95 9.05 129.65 9.55 130.45 10.35 130.6 9.7 Q130.9 8.95 131.8 8.95 132.4 8.95 133.0 9.65 133.55 10.3 133.55 10.75 L133.35 11.3 133.35 11.35 133.4 11.35 134.15 12.05 135.65 12.15 Q136.7 12.15 136.95 12.55 L136.95 13.0 Q136.95 13.75 136.55 13.9 L136.15 14.6 M137.25 8.15 L137.75 8.15 Q137.9 8.0 137.9 8.65 137.9 9.25 136.75 9.55 L136.15 9.25 Q136.8 8.35 137.25 8.15 M125.6 3.1 L125.6 2.65 Q125.6 1.8 126.65 1.35 127.5 0.0 128.65 0.0 129.45 0.0 129.85 0.55 L130.15 1.35 Q128.05 5.25 126.35 5.25 125.85 5.25 125.65 4.85 L125.55 4.45 125.75 3.4 125.6 3.1 M131.1 2.8 Q131.1 3.2 129.55 4.4 129.05 4.4 128.9 4.1 L128.85 3.8 Q128.85 3.15 130.0 2.45 131.1 1.75 131.1 2.8 M127.85 5.45 L128.05 7.1 128.0 7.4 127.75 7.5 Q127.2 7.5 127.15 6.75 L127.15 6.1 126.55 5.85 Q126.5 5.5 126.6 5.45 L127.1 5.4 127.55 5.45 127.85 5.45 M124.95 8.95 Q124.95 9.45 124.5 9.45 124.05 9.45 124.05 8.95 L124.05 8.7 Q124.1 8.45 124.55 8.45 124.95 8.45 124.95 8.95 M125.7 7.5 Q125.3 7.35 125.0 7.0 L124.8 6.6 Q124.8 5.95 124.9 6.15 125.95 6.25 125.95 7.05 L125.9 7.4 125.7 7.5 M126.95 8.0 L126.45 7.85 126.2 7.55 Q126.35 7.4 126.85 7.3 L127.2 7.65 126.95 8.0 M123.15 5.9 L122.3 6.5 121.2 6.8 121.2 6.25 121.75 5.6 Q121.85 5.4 122.4 5.4 122.75 5.4 122.9 5.55 L123.15 5.9 M128.35 6.65 Q128.0 6.4 128.0 6.05 L128.6 5.75 129.0 6.15 128.85 6.5 128.35 6.65 M134.55 19.8 L134.65 20.1 Q134.3 20.75 133.15 20.85 132.9 20.55 132.9 19.8 L133.65 19.55 Q134.1 19.5 134.55 19.8 M115.7 4.45 Q115.7 5.05 115.2 5.05 114.5 5.05 114.3 4.55 L114.2 4.1 Q114.2 3.55 114.5 3.45 L114.15 2.85 114.4 2.45 114.65 2.1 114.05 0.95 Q114.05 0.45 114.65 0.2 115.5 -0.2 116.7 1.05 L117.5 2.2 117.95 3.45 117.8 4.45 118.05 6.15 117.8 7.25 Q117.55 7.7 117.55 8.95 L117.2 9.1 116.9 8.55 117.4 6.5 Q117.4 5.9 116.9 5.6 116.4 5.35 116.4 4.8 L116.65 4.05 115.7 4.2 115.7 4.45 M115.3 1.9 L115.4 1.85 115.3 1.75 115.3 1.9 M111.65 10.65 L111.75 11.95 111.7 12.15 111.25 12.3 109.25 12.05 109.1 11.55 Q110.25 10.2 111.65 10.65 M114.25 10.3 Q114.65 10.55 114.65 11.05 L114.25 11.2 113.75 10.9 Q113.75 10.5 114.25 10.3 M104.85 6.05 Q104.85 6.65 104.05 6.65 103.55 6.65 103.4 6.3 L103.35 6.05 Q103.35 5.45 104.1 5.45 104.85 5.45 104.85 6.05 M104.55 7.6 Q104.55 8.45 103.7 8.4 102.9 8.35 102.9 7.6 102.9 6.8 103.7 6.8 104.05 6.8 104.3 7.05 L104.55 7.6 M112.0 8.35 Q112.0 9.5 111.15 9.5 110.3 9.5 110.3 8.85 L110.45 8.2 109.95 7.65 109.45 6.95 Q109.45 5.75 110.75 6.4 112.0 7.0 112.0 8.35 M95.15 1.15 Q95.15 1.6 94.8 2.05 94.4 2.55 93.95 2.55 93.45 2.55 93.2 1.8 L93.05 1.05 Q93.05 0.25 94.1 0.2 95.15 0.2 95.15 1.15 M97.1 10.7 Q97.1 11.5 96.5 11.5 96.0 11.5 95.8 11.2 L95.7 10.85 Q95.7 10.1 96.4 10.05 97.1 10.0 97.1 10.7 M101.2 11.6 Q101.2 12.25 100.7 12.25 100.0 12.25 99.8 11.75 L99.7 11.2 Q99.7 10.2 100.45 10.45 101.2 10.65 101.2 11.6 M85.45 6.1 Q85.45 6.6 84.9 6.6 L84.25 6.35 84.15 6.1 Q84.15 5.6 84.8 5.6 85.45 5.6 85.45 6.1 M78.95 12.05 Q78.95 11.6 79.65 11.35 80.0 10.65 80.95 10.65 81.35 10.65 81.7 11.1 L82.25 11.5 Q83.55 11.5 83.65 9.9 83.8 8.15 84.45 7.95 85.1 7.75 85.95 9.35 86.7 10.8 86.7 11.6 L86.45 12.5 87.45 13.2 87.7 14.1 88.05 14.85 88.35 15.55 88.2 15.95 87.8 16.15 86.85 15.5 86.45 14.7 Q86.35 14.1 85.8 13.75 L85.3 13.4 Q85.2 12.95 85.25 11.95 L85.2 10.5 85.15 10.4 84.35 11.7 Q83.55 12.75 82.3 12.75 L81.3 12.5 80.7 12.25 80.6 12.55 81.0 13.0 81.35 13.4 81.2 13.75 80.55 14.0 Q79.6 14.0 79.4 13.35 L79.35 12.65 79.35 12.6 Q78.95 12.45 78.95 12.05 M91.45 7.8 Q91.45 8.25 90.9 8.25 90.25 8.25 90.25 7.85 90.25 7.4 90.85 7.4 91.45 7.4 91.45 7.8 M80.95 5.05 Q80.95 5.65 80.1 5.65 79.5 5.65 79.3 5.35 L79.2 5.0 Q79.2 4.55 79.6 4.15 79.3 3.85 78.7 3.8 78.65 4.3 78.2 4.3 77.35 4.3 77.35 3.45 77.35 2.75 78.05 2.9 L78.3 3.0 78.9 2.55 Q79.85 2.1 80.7 3.45 L80.95 5.05 M72.65 8.55 Q72.65 9.1 72.0 9.25 71.3 9.35 71.3 8.6 L71.4 8.3 Q71.55 7.95 72.0 7.95 72.65 7.95 72.65 8.55 M71.5 11.9 L71.6 12.05 71.1 12.45 70.85 11.9 Q71.2 11.65 71.5 11.9 M74.85 9.7 L75.1 10.05 74.5 10.55 74.15 10.5 74.1 10.1 Q74.1 9.7 74.35 9.7 L74.85 9.7 M78.35 8.3 L78.15 8.75 77.7 9.05 Q76.95 9.05 76.95 8.35 76.95 7.7 77.65 7.7 78.35 7.7 78.35 8.3 M77.0 11.3 L77.5 11.8 76.75 12.3 76.1 11.8 76.5 11.45 Q76.8 11.3 77.0 11.3 M68.95 4.0 Q68.95 5.0 67.85 5.0 66.9 5.0 66.7 4.3 L66.65 3.65 Q66.65 2.1 67.8 2.5 68.95 2.9 68.95 4.0 M68.9 11.8 L68.35 12.5 67.25 13.4 66.7 12.75 66.6 12.2 65.4 12.0 Q64.6 11.75 64.25 11.45 66.35 10.4 66.85 10.3 L66.8 10.25 66.5 9.55 67.5 9.75 67.95 10.2 Q68.9 10.4 68.9 11.8 M73.5 12.8 L73.6 13.05 73.1 13.45 72.85 12.9 73.5 12.8 M49.7 5.8 L49.15 6.35 Q48.6 6.45 48.6 5.85 L48.65 5.6 Q48.8 5.35 49.25 5.35 49.7 5.35 49.7 5.8 M58.7 9.25 Q58.7 10.25 58.35 10.3 L58.1 10.3 57.25 9.65 56.8 8.8 56.45 7.85 55.35 7.25 Q54.2 6.85 54.0 6.65 53.45 6.2 53.35 5.75 L53.3 4.9 52.35 4.35 Q51.7 3.75 51.3 3.75 L51.15 4.3 Q51.0 4.75 50.5 4.75 49.55 4.75 49.55 3.6 49.55 1.05 52.05 1.25 54.4 1.45 54.55 3.6 L54.7 3.6 Q55.75 3.6 56.65 4.6 57.4 5.45 57.45 6.2 57.5 6.9 58.1 7.85 58.7 8.8 58.7 9.25 M45.5 7.8 L45.15 9.25 45.15 9.85 45.55 10.65 47.1 10.75 47.55 11.05 47.9 11.55 48.85 11.6 49.15 11.9 48.85 12.2 46.35 12.35 46.7 12.55 Q46.7 13.15 45.9 13.15 L42.95 12.95 40.25 13.15 40.45 13.65 Q40.45 14.25 39.3 14.25 38.2 14.25 37.85 13.85 37.7 13.65 37.7 13.25 37.7 12.55 38.9 12.1 L39.4 11.95 39.3 11.65 Q39.3 10.9 41.5 10.4 L43.5 9.35 43.8 8.85 43.9 8.7 44.05 8.1 Q44.1 7.55 44.3 7.55 L44.95 7.25 Q45.55 7.45 45.5 7.8 M40.3 11.45 L40.35 11.5 41.1 11.45 40.6 11.4 40.3 11.45 M43.85 11.05 L43.95 11.05 43.9 10.75 43.75 10.85 43.7 11.05 43.85 11.05 M48.55 7.6 Q48.55 8.4 47.55 8.6 46.5 8.75 46.5 7.85 46.5 7.55 46.8 7.2 47.15 6.8 47.8 6.8 48.1 6.8 48.35 7.1 L48.55 7.6 M55.65 22.5 Q55.35 22.85 54.95 22.85 54.5 22.85 54.4 22.65 L54.4 22.4 Q54.4 22.05 55.15 21.55 L55.7 21.4 Q55.8 21.0 56.5 20.5 57.3 20.0 57.3 20.85 L56.25 22.1 55.9 22.05 55.65 22.5 M58.8 19.6 L58.65 20.0 58.25 20.25 Q57.85 20.25 57.75 20.0 L57.7 19.7 Q57.7 19.25 58.25 19.15 58.8 19.05 58.8 19.6 M31.15 8.15 Q30.9 8.6 29.7 8.6 L29.65 8.15 Q29.85 7.9 30.4 7.9 L31.15 8.15 M39.05 5.75 L37.6 6.75 37.2 7.0 Q35.5 6.45 35.4 5.4 L34.65 5.5 Q34.05 5.5 33.9 5.15 L33.9 4.85 Q33.9 4.3 34.4 4.05 L36.2 4.1 Q37.35 4.55 37.65 4.9 L37.8 5.45 37.8 5.65 37.95 5.5 38.7 5.35 39.0 5.4 39.05 5.75 M32.6 9.95 L32.75 10.25 32.75 10.2 Q32.75 9.85 33.0 9.8 L33.25 9.8 33.8 10.3 33.9 10.7 33.6 11.15 33.6 11.55 Q33.85 11.9 33.25 11.9 32.3 11.9 31.75 11.45 L31.95 10.7 Q32.15 10.1 32.6 9.95 M32.6 10.9 L32.6 11.05 33.0 10.9 32.8 10.45 32.6 10.9 M29.65 6.0 L28.7 6.8 27.55 7.15 28.55 6.35 Q29.25 6.0 29.65 6.0 M26.95 11.1 L26.35 11.3 27.45 12.15 Q26.95 13.25 26.2 13.6 26.2 12.6 25.55 12.3 L24.8 12.05 24.85 11.55 24.05 11.35 24.1 10.5 Q24.55 9.75 26.2 10.1 26.95 10.35 27.2 10.65 L26.95 11.1 M38.3 8.8 L38.0 9.45 37.25 10.1 37.1 9.75 37.3 9.25 37.0 9.4 Q36.3 9.65 36.3 8.9 L36.4 8.1 Q36.6 7.3 37.1 7.3 37.75 7.3 37.75 8.3 L37.75 8.5 38.05 8.35 38.25 8.45 38.3 8.8 M24.0 13.05 L24.25 14.15 24.15 14.8 24.4 14.95 24.1 15.0 24.05 15.3 23.0 15.8 22.0 14.75 21.75 14.15 21.8 13.9 21.3 13.1 21.95 13.35 22.3 13.0 24.0 13.05 M21.0 17.55 L21.9 17.65 Q22.85 17.75 23.0 18.05 21.7 18.2 20.65 18.75 L19.45 18.6 21.0 17.55 M25.55 18.85 L25.25 19.6 24.75 19.8 24.3 19.05 Q24.45 18.75 24.9 18.65 25.3 18.6 25.55 18.85 M13.25 9.55 L14.3 10.65 15.25 11.9 15.25 12.05 Q14.8 12.0 14.05 11.05 L13.0 9.8 13.25 9.55 M18.35 9.8 Q19.2 9.8 19.4 10.55 L18.25 11.45 Q16.65 10.25 16.65 9.55 L18.35 9.8 M0.75 21.6 Q1.65 23.05 1.9 25.05 L1.5 25.3 0.3 23.85 Q0.0 23.45 0.0 22.4 L0.15 21.6 0.75 21.6 M16.75 20.6 L18.15 19.5 17.5 20.6 16.75 20.6" fill="#990000" fill-rule="evenodd" stroke="none"/>
  </g>
</svg>
