<?xml version="1.0" encoding="UTF-8" standalone="no"?>
<svg xmlns:xlink="http://www.w3.org/1999/xlink" height="16.5px" width="36.3px" xmlns="http://www.w3.org/2000/svg">
  <g transform="matrix(1.0, 0.0, 0.0, 1.0, -68.8, -7.0)">
    <path d="M104.8 22.0 L104.8 23.5 68.8 23.5 68.85 22.85 68.8 22.0 104.8 22.0 M104.85 19.0 L104.8 20.5 68.85 20.5 68.9 19.0 104.85 19.0 M105.05 10.0 L105.0 11.5 69.05 11.5 69.1 10.0 105.05 10.0 M105.1 8.05 L105.1 8.5 69.1 8.5 69.05 7.0 105.1 7.0 105.1 8.05 M104.95 13.0 L104.9 14.5 68.95 14.5 69.05 13.0 104.95 13.0 M104.85 16.0 L104.85 17.5 68.9 17.5 68.9 16.0 104.85 16.0" fill="#000000" fill-opacity="0.7019608" fill-rule="evenodd" stroke="none"/>
  </g>
</svg>
