<?xml version="1.0" encoding="UTF-8" standalone="no"?>
<svg xmlns:xlink="http://www.w3.org/1999/xlink" height="14.25px" width="32.6px" xmlns="http://www.w3.org/2000/svg">
  <g transform="matrix(1.0, 0.0, 0.0, 1.0, -71.6, -8.4)">
    <path d="M81.85 20.2 L81.85 10.9 75.85 10.9 75.85 20.2 81.85 20.2 M83.2 8.4 L86.1 10.2 86.1 20.85 83.2 22.65 74.5 22.65 71.6 20.85 71.6 10.2 74.5 8.4 83.2 8.4 M104.2 20.2 L104.2 22.65 89.7 22.65 89.7 17.8 99.95 12.9 99.95 10.9 89.7 10.9 89.7 10.2 92.6 8.4 101.3 8.4 104.2 10.2 104.2 14.05 93.95 18.95 93.95 20.2 104.2 20.2" fill="#ffffff" fill-rule="evenodd" stroke="none"/>
  </g>
</svg>
