<?xml version="1.0" encoding="UTF-8" standalone="no"?>
<svg xmlns:xlink="http://www.w3.org/1999/xlink" height="14.25px" width="32.6px" xmlns="http://www.w3.org/2000/svg">
  <g transform="matrix(1.0, 0.0, 0.0, 1.0, -71.6, -8.4)">
    <path d="M81.85 20.2 L81.85 10.9 75.85 10.9 75.85 20.2 81.85 20.2 M93.1 16.8 L97.6 16.8 97.6 12.75 93.1 16.8 M83.2 8.4 L86.1 10.2 86.1 20.85 83.2 22.65 74.5 22.65 71.6 20.85 71.6 10.2 74.5 8.4 83.2 8.4 M104.2 19.35 L101.8 19.35 101.8 22.65 97.6 22.65 97.6 19.35 90.4 19.35 87.9 17.15 97.7 8.4 101.8 8.4 101.8 16.8 104.2 16.8 104.2 19.35" fill="#ffffff" fill-rule="evenodd" stroke="none"/>
  </g>
</svg>
