<?xml version="1.0" encoding="UTF-8" standalone="no"?>
<svg xmlns:xlink="http://www.w3.org/1999/xlink" height="159.35px" width="198.85px" xmlns="http://www.w3.org/2000/svg">
  <g transform="matrix(1.0, 0.0, 0.0, 1.0, 99.65, 79.7)">
    <path d="M51.85 55.9 L67.3 29.1 -35.7 29.1 -20.25 55.9 51.85 55.9 M-67.65 -6.55 L-25.9 -78.8 57.5 -78.8 99.2 -6.55 57.5 65.7 -25.9 65.7 -67.65 -6.55 M-20.25 -68.95 L-36.0 -41.75 67.55 -41.75 51.85 -68.95 -20.25 -68.95 M82.6 -15.7 L74.65 -29.4 -43.1 -29.4 -51.0 -15.7 82.6 -15.7 M74.4 16.75 L82.6 2.65 -51.0 2.65 -42.85 16.75 74.4 16.75" fill="url(#gradient0)" fill-rule="evenodd" stroke="none"/>
    <path d="M53.0 57.9 L-21.4 57.9 -39.2 27.1 70.75 27.1 53.0 57.9 M51.85 55.9 L67.3 29.1 -35.7 29.1 -20.25 55.9 51.85 55.9 M-39.45 -39.75 L-21.4 -70.95 53.0 -70.95 71.0 -39.75 -39.45 -39.75 M56.35 -76.8 L-24.75 -76.8 -65.35 -6.55 -24.75 63.7 56.35 63.7 96.9 -6.55 56.35 -76.8 M-67.65 -6.55 L-25.9 -78.8 57.5 -78.8 99.2 -6.55 57.5 65.7 -25.9 65.7 -67.65 -6.55 M-20.25 -68.95 L-36.0 -41.75 67.55 -41.75 51.85 -68.95 -20.25 -68.95 M75.8 -31.4 L86.05 -13.7 -54.45 -13.7 -44.25 -31.4 75.8 -31.4 M82.6 -15.7 L74.65 -29.4 -43.1 -29.4 -51.0 -15.7 82.6 -15.7 M86.05 0.65 L75.55 18.75 -44.0 18.75 -54.45 0.65 86.05 0.65 M74.4 16.75 L82.6 2.65 -51.0 2.65 -42.85 16.75 74.4 16.75" fill="url(#gradient1)" fill-rule="evenodd" stroke="none"/>
    <path d="M-99.65 -6.4 L-57.5 -66.7 -40.9 -79.7 -40.9 -66.7 -83.2 6.6 -40.9 66.65 -40.9 79.65 -57.5 79.65 -99.65 6.6 -99.65 -6.4" fill="#23140c" fill-rule="evenodd" stroke="none"/>
    <path d="M-56.5 66.45 L-56.5 79.65 -57.5 79.65 -57.5 66.45 -56.5 66.45" fill="url(#gradient2)" fill-rule="evenodd" stroke="none"/>
    <path d="M-40.9 66.65 L-40.9 79.65 -41.9 79.65 -41.9 66.65 -40.9 66.65" fill="url(#gradient3)" fill-rule="evenodd" stroke="none"/>
    <path d="M-40.9 -79.7 L-83.2 -6.4 -40.9 66.65 -57.5 66.65 -99.65 -6.4 -57.5 -79.7 -40.9 -79.7" fill="url(#gradient4)" fill-rule="evenodd" stroke="none"/>
    <path d="M-44.35 -77.7 L-56.35 -77.7 -97.35 -6.4 -56.35 64.65 -44.35 64.65 -85.55 -6.4 -44.35 -77.7 M-57.5 -79.7 L-40.9 -79.7 -83.2 -6.4 -40.9 66.65 -57.5 66.65 -99.65 -6.4 -57.5 -79.7" fill="url(#gradient5)" fill-rule="evenodd" stroke="none"/>
  </g>
  <defs>
    <linearGradient gradientTransform="matrix(0.0, -0.087, -0.087, 0.0, 15.8, -5.6)" gradientUnits="userSpaceOnUse" id="gradient0" spreadMethod="pad" x1="-819.2" x2="819.2">
      <stop offset="0.00392156862745098" stop-color="#543800"/>
      <stop offset="0.17647058823529413" stop-color="#e9ca00"/>
      <stop offset="0.43529411764705883" stop-color="#6a4a00"/>
      <stop offset="0.44313725490196076" stop-color="#836300"/>
      <stop offset="0.4627450980392157" stop-color="#af8f00"/>
      <stop offset="0.47843137254901963" stop-color="#ceaf00"/>
      <stop offset="0.49019607843137253" stop-color="#e2c300"/>
      <stop offset="0.5019607843137255" stop-color="#e9ca00"/>
      <stop offset="0.6274509803921569" stop-color="#feffbf"/>
      <stop offset="0.7607843137254902" stop-color="#e9ca00"/>
      <stop offset="0.984313725490196" stop-color="#6a4700"/>
    </linearGradient>
    <linearGradient gradientTransform="matrix(0.1018, 0.0, 0.0, -0.1018, 15.8, -6.55)" gradientUnits="userSpaceOnUse" id="gradient1" spreadMethod="pad" x1="-819.2" x2="819.2">
      <stop offset="0.07450980392156863" stop-color="#543800"/>
      <stop offset="0.17647058823529413" stop-color="#e9ca00"/>
      <stop offset="0.43529411764705883" stop-color="#6a4a00"/>
      <stop offset="0.4588235294117647" stop-color="#836300"/>
      <stop offset="0.5058823529411764" stop-color="#af8f00"/>
      <stop offset="0.5490196078431373" stop-color="#ceaf00"/>
      <stop offset="0.5843137254901961" stop-color="#e2c300"/>
      <stop offset="0.6078431372549019" stop-color="#e9ca00"/>
      <stop offset="0.6431372549019608" stop-color="#e9ca00"/>
      <stop offset="0.8196078431372549" stop-color="#fff87f"/>
      <stop offset="0.8784313725490196" stop-color="#e9ca00"/>
      <stop offset="0.984313725490196" stop-color="#6a4700"/>
    </linearGradient>
    <linearGradient gradientTransform="matrix(0.0, -0.008, -0.008, 0.0, -57.0, 73.05)" gradientUnits="userSpaceOnUse" id="gradient2" spreadMethod="pad" x1="-819.2" x2="819.2">
      <stop offset="0.0" stop-color="#1e120b" stop-opacity="0.0"/>
      <stop offset="0.01568627450980392" stop-color="#23150d" stop-opacity="0.019607844"/>
      <stop offset="0.2235294117647059" stop-color="#653e22" stop-opacity="0.3137255"/>
      <stop offset="0.4196078431372549" stop-color="#9c5f34" stop-opacity="0.5568628"/>
      <stop offset="0.6039215686274509" stop-color="#c77a42" stop-opacity="0.7490196"/>
      <stop offset="0.7647058823529411" stop-color="#e68c4c" stop-opacity="0.8862745"/>
      <stop offset="0.9019607843137255" stop-color="#f89852" stop-opacity="0.96862745"/>
      <stop offset="1.0" stop-color="#ff9c54"/>
    </linearGradient>
    <linearGradient gradientTransform="matrix(0.0, -0.0079, -0.0079, 0.0, -41.4, 73.15)" gradientUnits="userSpaceOnUse" id="gradient3" spreadMethod="pad" x1="-819.2" x2="819.2">
      <stop offset="0.0" stop-color="#1e120b" stop-opacity="0.0"/>
      <stop offset="0.01568627450980392" stop-color="#23150d" stop-opacity="0.019607844"/>
      <stop offset="0.2235294117647059" stop-color="#653e22" stop-opacity="0.3137255"/>
      <stop offset="0.4196078431372549" stop-color="#9c5f34" stop-opacity="0.5568628"/>
      <stop offset="0.6039215686274509" stop-color="#c77a42" stop-opacity="0.7490196"/>
      <stop offset="0.7647058823529411" stop-color="#e68c4c" stop-opacity="0.8862745"/>
      <stop offset="0.9019607843137255" stop-color="#f89852" stop-opacity="0.96862745"/>
      <stop offset="1.0" stop-color="#ff9c54"/>
    </linearGradient>
    <linearGradient gradientTransform="matrix(0.0, -0.0901, -0.0901, 0.0, -70.3, -10.5)" gradientUnits="userSpaceOnUse" id="gradient4" spreadMethod="pad" x1="-819.2" x2="819.2">
      <stop offset="0.00392156862745098" stop-color="#543800"/>
      <stop offset="0.17647058823529413" stop-color="#e9ca00"/>
      <stop offset="0.43529411764705883" stop-color="#6a4a00"/>
      <stop offset="0.44313725490196076" stop-color="#836300"/>
      <stop offset="0.4627450980392157" stop-color="#af8f00"/>
      <stop offset="0.47843137254901963" stop-color="#ceaf00"/>
      <stop offset="0.49019607843137253" stop-color="#e2c300"/>
      <stop offset="0.5019607843137255" stop-color="#e9ca00"/>
      <stop offset="0.6274509803921569" stop-color="#feffbf"/>
      <stop offset="0.7607843137254902" stop-color="#e9ca00"/>
      <stop offset="0.984313725490196" stop-color="#6a4700"/>
    </linearGradient>
    <linearGradient gradientTransform="matrix(0.0359, 0.0, 0.0, -0.0359, -70.3, -6.55)" gradientUnits="userSpaceOnUse" id="gradient5" spreadMethod="pad" x1="-819.2" x2="819.2">
      <stop offset="0.07450980392156863" stop-color="#543800"/>
      <stop offset="0.17647058823529413" stop-color="#e9ca00"/>
      <stop offset="0.43529411764705883" stop-color="#6a4a00"/>
      <stop offset="0.4588235294117647" stop-color="#836300"/>
      <stop offset="0.5058823529411764" stop-color="#af8f00"/>
      <stop offset="0.5490196078431373" stop-color="#ceaf00"/>
      <stop offset="0.5843137254901961" stop-color="#e2c300"/>
      <stop offset="0.6078431372549019" stop-color="#e9ca00"/>
      <stop offset="0.6431372549019608" stop-color="#e9ca00"/>
      <stop offset="0.8196078431372549" stop-color="#fff87f"/>
      <stop offset="0.8784313725490196" stop-color="#e9ca00"/>
      <stop offset="0.984313725490196" stop-color="#6a4700"/>
    </linearGradient>
  </defs>
</svg>
