<?xml version="1.0" encoding="UTF-8" standalone="no"?>
<svg xmlns:xlink="http://www.w3.org/1999/xlink" height="260.4px" width="440.25px" xmlns="http://www.w3.org/2000/svg">
  <g transform="matrix(1.0, 0.0, 0.0, 1.0, 1.0, 1.0)">
    <path d="M438.25 54.3 L438.25 250.4 430.75 258.4 0.0 258.4 0.0 241.8 0.0 110.95 0.0 59.55 0.0 54.3 0.0 31.05 7.6 23.0 62.45 23.0 85.45 0.0 244.65 0.0 267.2 23.0 438.25 23.0 438.25 54.3" fill="url(#gradient0)" fill-rule="evenodd" stroke="none"/>
    <path d="M438.25 54.3 L438.25 23.0 267.2 23.0 244.65 0.0 85.45 0.0 62.45 23.0 7.6 23.0 0.0 31.05 0.0 54.3 0.0 59.55 0.0 110.95 0.0 241.8 0.0 258.4 430.75 258.4 438.25 250.4 438.25 54.3 Z" fill="none" stroke="url(#gradient1)" stroke-linecap="round" stroke-linejoin="round" stroke-width="2.0"/>
  </g>
  <defs>
    <linearGradient gradientTransform="matrix(0.0, 0.059, -0.1437, 0.0, 220.0, 73.0)" gradientUnits="userSpaceOnUse" id="gradient0" spreadMethod="pad" x1="-819.2" x2="819.2">
      <stop offset="0.0" stop-color="#260000"/>
      <stop offset="1.0" stop-color="#000000"/>
    </linearGradient>
    <linearGradient gradientTransform="matrix(0.1282, 0.1448, -0.0505, 0.0447, 133.5, 171.9)" gradientUnits="userSpaceOnUse" id="gradient1" spreadMethod="pad" x1="-819.2" x2="819.2">
      <stop offset="0.0" stop-color="#b50000"/>
      <stop offset="0.5803921568627451" stop-color="#3e0000"/>
      <stop offset="1.0" stop-color="#b50000"/>
    </linearGradient>
  </defs>
</svg>
