<?xml version="1.0" encoding="UTF-8" standalone="no"?>
<svg xmlns:xlink="http://www.w3.org/1999/xlink" height="260.4px" width="440.25px" xmlns="http://www.w3.org/2000/svg">
  <g transform="matrix(1.0, 0.0, 0.0, 1.0, 1.0, 1.0)">
    <path d="M438.25 54.3 L438.25 250.4 430.75 258.4 0.0 258.4 0.0 241.8 0.0 110.95 0.0 59.55 0.0 54.3 0.0 31.05 7.6 23.0 62.45 23.0 85.45 0.0 244.65 0.0 267.2 23.0 438.25 23.0 438.25 54.3" fill="url(#gradient0)" fill-rule="evenodd" stroke="none"/>
    <path d="M438.25 54.3 L438.25 23.0 267.2 23.0 244.65 0.0 85.45 0.0 62.45 23.0 7.6 23.0 0.0 31.05 0.0 54.3 0.0 59.55 0.0 110.95 0.0 241.8 0.0 258.4 430.75 258.4 438.25 250.4 438.25 54.3 Z" fill="none" stroke="url(#gradient1)" stroke-linecap="round" stroke-linejoin="round" stroke-width="2.0"/>
  </g>
  <defs>
    <linearGradient gradientTransform="matrix(0.0, 0.1536, -0.1577, 0.0, 219.1, 134.2)" gradientUnits="userSpaceOnUse" id="gradient0" spreadMethod="pad" x1="-819.2" x2="819.2">
      <stop offset="0.0" stop-color="#00111c"/>
      <stop offset="1.0" stop-color="#000000"/>
    </linearGradient>
    <linearGradient gradientTransform="matrix(0.2248, 0.1465, -0.0867, 0.1329, 219.1, 129.2)" gradientUnits="userSpaceOnUse" id="gradient1" spreadMethod="pad" x1="-819.2" x2="819.2">
      <stop offset="0.0" stop-color="#0099ff"/>
      <stop offset="0.47843137254901963" stop-color="#001b2d"/>
      <stop offset="0.984313725490196" stop-color="#000000" stop-opacity="0.0"/>
    </linearGradient>
  </defs>
</svg>
