<?xml version="1.0" encoding="UTF-8" standalone="no"?>
<svg xmlns:xlink="http://www.w3.org/1999/xlink" height="28.75px" width="22.95px" xmlns="http://www.w3.org/2000/svg">
  <g transform="matrix(1.0, 0.0, 0.0, 1.0, 0.8, 0.5)">
    <path d="M2.55 3.45 Q4.45 0.05 10.15 0.0 15.7 -0.05 17.65 2.85 20.15 6.55 20.9 8.45 22.15 11.65 21.3 15.0 19.95 20.45 18.2 23.25 15.5 27.6 11.15 27.75 6.9 27.9 3.7 23.3 1.95 20.75 0.3 16.0 -1.55 10.75 2.55 3.45" fill="url(#gradient0)" fill-rule="evenodd" stroke="none"/>
    <path d="M2.55 3.45 Q-1.55 10.75 0.3 16.0 1.95 20.75 3.7 23.3 6.9 27.9 11.15 27.75 15.5 27.6 18.2 23.25 19.95 20.45 21.3 15.0 22.15 11.65 20.9 8.45 20.15 6.55 17.65 2.85 15.7 -0.05 10.15 0.0 4.45 0.05 2.55 3.45 Z" fill="none" stroke="#000000" stroke-linecap="round" stroke-linejoin="round" stroke-width="1.0"/>
    <path d="M17.75 12.1 Q17.75 13.35 16.85 14.25 15.95 15.15 14.7 15.15 13.45 15.15 12.55 14.25 11.65 13.35 11.65 12.1 11.65 10.85 12.55 9.95 13.45 9.05 14.7 9.05 15.95 9.05 16.85 9.95 17.75 10.85 17.75 12.1 M9.9 12.1 Q9.9 13.35 9.0 14.25 8.1 15.15 6.85 15.15 5.6 15.15 4.7 14.25 3.8 13.35 3.8 12.1 3.8 10.85 4.7 9.95 5.6 9.05 6.85 9.05 8.1 9.05 9.0 9.95 9.9 10.85 9.9 12.1 M12.0 19.25 L11.65 20.15 Q11.25 20.55 10.7 20.55 10.2 20.55 9.8 20.15 9.4 19.75 9.4 19.25 9.4 18.7 9.8 18.3 10.2 17.95 10.7 17.95 11.25 17.95 11.65 18.3 12.0 18.7 12.0 19.25 M9.35 23.0 L9.0 23.9 Q8.6 24.3 8.05 24.3 7.55 24.3 7.15 23.9 6.75 23.5 6.75 23.0 6.75 22.45 7.15 22.05 7.55 21.7 8.05 21.7 8.6 21.7 9.0 22.05 9.35 22.45 9.35 23.0 M14.5 22.9 L14.15 23.8 Q13.75 24.2 13.2 24.2 12.7 24.2 12.3 23.8 11.9 23.4 11.9 22.9 11.9 22.35 12.3 21.95 12.7 21.6 13.2 21.6 13.75 21.6 14.15 21.95 14.5 22.35 14.5 22.9" fill="#000000" fill-rule="evenodd" stroke="none"/>
    <path d="M5.5 5.35 L10.55 7.25 16.1 5.35 16.1 7.35 10.7 9.25 5.5 7.35 5.5 5.35" fill="#ff3300" fill-rule="evenodd" stroke="none"/>
  </g>
  <defs>
    <linearGradient gradientTransform="matrix(0.0026, -0.0115, 0.0165, 0.0037, 10.6, 16.6)" gradientUnits="userSpaceOnUse" id="gradient0" spreadMethod="pad" x1="-819.2" x2="819.2">
      <stop offset="0.0" stop-color="#b4b49b"/>
      <stop offset="1.0" stop-color="#ffffcc"/>
    </linearGradient>
  </defs>
</svg>
