<?xml version="1.0" encoding="UTF-8" standalone="no"?>
<svg xmlns:xlink="http://www.w3.org/1999/xlink" height="27.25px" width="135.85px" xmlns="http://www.w3.org/2000/svg">
  <g transform="matrix(1.0, 0.0, 0.0, 1.0, 65.1, 12.25)">
    <path d="M-55.45 -11.75 L61.1 -11.75 Q65.3 -11.75 66.8 -10.35 68.0 -9.2 68.0 -6.15 L68.0 8.9 Q68.0 11.95 66.8 13.1 65.3 14.5 61.1 14.5 L-55.45 14.5 Q-59.65 14.5 -61.15 13.1 -62.35 11.95 -62.35 8.9 L-62.35 -6.15 Q-62.35 -9.2 -61.15 -10.35 -59.65 -11.75 -55.45 -11.75" fill="#000000" fill-rule="evenodd" stroke="none"/>
    <path d="M-55.45 -11.75 L61.1 -11.75 Q65.3 -11.75 66.8 -10.35 68.0 -9.2 68.0 -6.15 L68.0 8.9 Q68.0 11.95 66.8 13.1 65.3 14.5 61.1 14.5 L-55.45 14.5 Q-59.65 14.5 -61.15 13.1 -62.35 11.95 -62.35 8.9 L-62.35 -6.15 Q-62.35 -9.2 -61.15 -10.35 -59.65 -11.75 -55.45 -11.75 Z" fill="none" stroke="#ffcc00" stroke-linecap="butt" stroke-linejoin="miter" stroke-width="1.0"/>
  </g>
</svg>
