<?xml version="1.0" encoding="UTF-8" standalone="no"?>
<svg xmlns:xlink="http://www.w3.org/1999/xlink" height="19.1px" width="19.1px" xmlns="http://www.w3.org/2000/svg">
  <g transform="matrix(1.0, 0.0, 0.0, 1.0, 3.6, 3.65)">
    <path d="M12.25 -0.4 Q14.85 2.2 14.85 5.9 14.85 9.6 12.25 12.2 9.65 14.8 5.95 14.8 2.25 14.8 -0.35 12.2 -2.95 9.6 -2.95 5.9 -2.95 2.2 -0.35 -0.4 2.25 -3.0 5.95 -3.0 9.65 -3.0 12.25 -0.4" fill="#33ccff" fill-opacity="0.4" fill-rule="evenodd" stroke="none"/>
    <path d="M12.25 -0.4 Q14.85 2.2 14.85 5.9 14.85 9.6 12.25 12.2 9.65 14.8 5.95 14.8 2.25 14.8 -0.35 12.2 -2.95 9.6 -2.95 5.9 -2.95 2.2 -0.35 -0.4 2.25 -3.0 5.95 -3.0 9.65 -3.0 12.25 -0.4 Z" fill="none" stroke="#33ccff" stroke-linecap="square" stroke-linejoin="miter" stroke-width="1.0"/>
  </g>
</svg>
