<?xml version="1.0" encoding="UTF-8" standalone="no"?>
<svg xmlns:xlink="http://www.w3.org/1999/xlink" height="159.35px" width="198.9px" xmlns="http://www.w3.org/2000/svg">
  <g transform="matrix(1.0, 0.0, 0.0, 1.0, 115.55, 79.7)">
    <path d="M35.95 55.9 L51.45 29.1 -51.6 29.1 -36.1 55.9 35.95 55.9 M66.7 -15.7 L58.8 -29.4 -58.95 -29.4 -66.85 -15.7 66.7 -15.7 M58.55 16.75 L66.7 2.6 -66.85 2.6 -58.7 16.75 58.55 16.75 M-41.8 -78.8 L41.65 -78.8 83.35 -6.55 41.65 65.7 -41.8 65.7 -83.5 -6.55 -41.8 -78.8 M35.95 -68.95 L-36.1 -68.95 -51.85 -41.75 51.7 -41.75 35.95 -68.95" fill="url(#gradient0)" fill-rule="evenodd" stroke="none"/>
    <path d="M37.1 57.9 L-37.25 57.9 -55.05 27.1 54.9 27.1 37.1 57.9 M-36.1 55.9 L35.95 55.9 51.45 29.1 -51.6 29.1 -36.1 55.9 M-70.35 -13.7 L-60.1 -31.4 59.95 -31.4 70.2 -13.7 -70.35 -13.7 M-59.85 18.75 L-70.35 0.6 70.2 0.6 59.7 18.75 -59.85 18.75 M66.7 -15.7 L58.8 -29.4 -58.95 -29.4 -66.85 -15.7 66.7 -15.7 M58.55 16.75 L66.7 2.6 -66.85 2.6 -58.7 16.75 58.55 16.75 M-37.25 -70.95 L37.1 -70.95 55.15 -39.75 -55.3 -39.75 -37.25 -70.95 M40.5 -76.8 L-40.65 -76.8 -81.2 -6.55 -40.65 63.7 40.5 63.7 81.05 -6.55 40.5 -76.8 M-41.8 -78.8 L41.65 -78.8 83.35 -6.55 41.65 65.7 -41.8 65.7 -83.5 -6.55 -41.8 -78.8 M35.95 -68.95 L-36.1 -68.95 -51.85 -41.75 51.7 -41.75 35.95 -68.95" fill="url(#gradient1)" fill-rule="evenodd" stroke="none"/>
    <path d="M-115.55 -6.4 L-73.35 -66.7 -56.75 -79.7 -56.75 -66.7 -99.1 6.6 -56.75 66.65 -56.75 79.65 -73.35 79.65 -115.55 6.6 -115.55 -6.4" fill="#23140c" fill-rule="evenodd" stroke="none"/>
    <path d="M-72.35 79.65 L-73.35 79.65 -73.35 66.45 -72.35 66.45 -72.35 79.65" fill="url(#gradient2)" fill-rule="evenodd" stroke="none"/>
    <path d="M-56.75 79.65 L-57.75 79.65 -57.75 66.65 -56.75 66.65 -56.75 79.65" fill="url(#gradient3)" fill-rule="evenodd" stroke="none"/>
    <path d="M-56.75 -79.7 L-99.1 -6.4 -56.75 66.65 -73.35 66.65 -115.55 -6.4 -73.35 -79.7 -56.75 -79.7" fill="url(#gradient4)" fill-rule="evenodd" stroke="none"/>
    <path d="M-60.2 -77.7 L-72.2 -77.7 -113.2 -6.4 -72.2 64.65 -60.2 64.65 -101.4 -6.4 -60.2 -77.7 M-73.35 -79.7 L-56.75 -79.7 -99.1 -6.4 -56.75 66.65 -73.35 66.65 -115.55 -6.4 -73.35 -79.7" fill="url(#gradient5)" fill-rule="evenodd" stroke="none"/>
  </g>
  <defs>
    <linearGradient gradientTransform="matrix(0.0, -0.087, -0.087, 0.0, -0.05, -5.6)" gradientUnits="userSpaceOnUse" id="gradient0" spreadMethod="pad" x1="-819.2" x2="819.2">
      <stop offset="0.00392156862745098" stop-color="#543800"/>
      <stop offset="0.17647058823529413" stop-color="#e9ca00"/>
      <stop offset="0.43529411764705883" stop-color="#6a4a00"/>
      <stop offset="0.44313725490196076" stop-color="#836300"/>
      <stop offset="0.4627450980392157" stop-color="#af8f00"/>
      <stop offset="0.47843137254901963" stop-color="#ceaf00"/>
      <stop offset="0.49019607843137253" stop-color="#e2c300"/>
      <stop offset="0.5019607843137255" stop-color="#e9ca00"/>
      <stop offset="0.6274509803921569" stop-color="#feffbf"/>
      <stop offset="0.7607843137254902" stop-color="#e9ca00"/>
      <stop offset="0.984313725490196" stop-color="#6a4700"/>
    </linearGradient>
    <linearGradient gradientTransform="matrix(0.1018, 0.0, 0.0, -0.1018, -0.05, -6.55)" gradientUnits="userSpaceOnUse" id="gradient1" spreadMethod="pad" x1="-819.2" x2="819.2">
      <stop offset="0.07450980392156863" stop-color="#543800"/>
      <stop offset="0.17647058823529413" stop-color="#e9ca00"/>
      <stop offset="0.43529411764705883" stop-color="#6a4a00"/>
      <stop offset="0.4588235294117647" stop-color="#836300"/>
      <stop offset="0.5058823529411764" stop-color="#af8f00"/>
      <stop offset="0.5490196078431373" stop-color="#ceaf00"/>
      <stop offset="0.5843137254901961" stop-color="#e2c300"/>
      <stop offset="0.6078431372549019" stop-color="#e9ca00"/>
      <stop offset="0.6431372549019608" stop-color="#e9ca00"/>
      <stop offset="0.8196078431372549" stop-color="#fff87f"/>
      <stop offset="0.8784313725490196" stop-color="#e9ca00"/>
      <stop offset="0.984313725490196" stop-color="#6a4700"/>
    </linearGradient>
    <linearGradient gradientTransform="matrix(0.0, -0.008, -0.008, 0.0, -72.85, 73.05)" gradientUnits="userSpaceOnUse" id="gradient2" spreadMethod="pad" x1="-819.2" x2="819.2">
      <stop offset="0.0" stop-color="#1e120b" stop-opacity="0.0"/>
      <stop offset="0.01568627450980392" stop-color="#23150d" stop-opacity="0.019607844"/>
      <stop offset="0.2235294117647059" stop-color="#653e22" stop-opacity="0.3137255"/>
      <stop offset="0.4196078431372549" stop-color="#9c5f34" stop-opacity="0.5568628"/>
      <stop offset="0.6039215686274509" stop-color="#c77a42" stop-opacity="0.7490196"/>
      <stop offset="0.7647058823529411" stop-color="#e68c4c" stop-opacity="0.8862745"/>
      <stop offset="0.9019607843137255" stop-color="#f89852" stop-opacity="0.96862745"/>
      <stop offset="1.0" stop-color="#ff9c54"/>
    </linearGradient>
    <linearGradient gradientTransform="matrix(0.0, -0.0079, -0.0079, 0.0, -57.25, 73.15)" gradientUnits="userSpaceOnUse" id="gradient3" spreadMethod="pad" x1="-819.2" x2="819.2">
      <stop offset="0.0" stop-color="#1e120b" stop-opacity="0.0"/>
      <stop offset="0.01568627450980392" stop-color="#23150d" stop-opacity="0.019607844"/>
      <stop offset="0.2235294117647059" stop-color="#653e22" stop-opacity="0.3137255"/>
      <stop offset="0.4196078431372549" stop-color="#9c5f34" stop-opacity="0.5568628"/>
      <stop offset="0.6039215686274509" stop-color="#c77a42" stop-opacity="0.7490196"/>
      <stop offset="0.7647058823529411" stop-color="#e68c4c" stop-opacity="0.8862745"/>
      <stop offset="0.9019607843137255" stop-color="#f89852" stop-opacity="0.96862745"/>
      <stop offset="1.0" stop-color="#ff9c54"/>
    </linearGradient>
    <linearGradient gradientTransform="matrix(0.0, -0.0901, -0.0901, 0.0, -86.15, -10.5)" gradientUnits="userSpaceOnUse" id="gradient4" spreadMethod="pad" x1="-819.2" x2="819.2">
      <stop offset="0.00392156862745098" stop-color="#543800"/>
      <stop offset="0.17647058823529413" stop-color="#e9ca00"/>
      <stop offset="0.43529411764705883" stop-color="#6a4a00"/>
      <stop offset="0.44313725490196076" stop-color="#836300"/>
      <stop offset="0.4627450980392157" stop-color="#af8f00"/>
      <stop offset="0.47843137254901963" stop-color="#ceaf00"/>
      <stop offset="0.49019607843137253" stop-color="#e2c300"/>
      <stop offset="0.5019607843137255" stop-color="#e9ca00"/>
      <stop offset="0.6274509803921569" stop-color="#feffbf"/>
      <stop offset="0.7607843137254902" stop-color="#e9ca00"/>
      <stop offset="0.984313725490196" stop-color="#6a4700"/>
    </linearGradient>
    <linearGradient gradientTransform="matrix(0.0359, 0.0, 0.0, -0.0359, -86.15, -6.55)" gradientUnits="userSpaceOnUse" id="gradient5" spreadMethod="pad" x1="-819.2" x2="819.2">
      <stop offset="0.07450980392156863" stop-color="#543800"/>
      <stop offset="0.17647058823529413" stop-color="#e9ca00"/>
      <stop offset="0.43529411764705883" stop-color="#6a4a00"/>
      <stop offset="0.4588235294117647" stop-color="#836300"/>
      <stop offset="0.5058823529411764" stop-color="#af8f00"/>
      <stop offset="0.5490196078431373" stop-color="#ceaf00"/>
      <stop offset="0.5843137254901961" stop-color="#e2c300"/>
      <stop offset="0.6078431372549019" stop-color="#e9ca00"/>
      <stop offset="0.6431372549019608" stop-color="#e9ca00"/>
      <stop offset="0.8196078431372549" stop-color="#fff87f"/>
      <stop offset="0.8784313725490196" stop-color="#e9ca00"/>
      <stop offset="0.984313725490196" stop-color="#6a4700"/>
    </linearGradient>
  </defs>
</svg>
