<?xml version="1.0" encoding="UTF-8" standalone="no"?>
<svg xmlns:xlink="http://www.w3.org/1999/xlink" height="16.25px" width="20.2px" xmlns="http://www.w3.org/2000/svg">
  <g transform="matrix(1.0, 0.0, 0.0, 1.0, 24.25, 8.25)">
    <path d="M-8.05 -8.25 Q-8.2 -3.65 -10.05 -0.95 -11.35 0.95 -13.1 1.35 -13.7 4.0 -13.1 6.35 -11.85 6.55 -10.6 7.4 L-10.6 8.0 -17.45 8.0 -17.45 7.4 Q-16.15 6.6 -14.9 6.35 -14.25 4.1 -14.9 1.45 -16.85 1.15 -18.25 -0.95 -20.15 -3.65 -20.3 -8.25 L-8.05 -8.25" fill="#ffdd54" fill-rule="evenodd" stroke="none"/>
    <path d="M-6.95 -5.05 Q-6.95 -4.65 -7.2 -4.4 L-7.85 -4.15 Q-8.2 -4.15 -8.5 -4.4 L-8.75 -5.05 -8.5 -5.65 -8.3 -5.8 -8.55 -5.75 -8.5 -6.25 -6.6 -6.55 Q-5.15 -6.45 -4.45 -5.45 -3.75 -4.45 -4.25 -3.2 -4.8 -2.0 -6.25 -1.15 -7.7 -0.35 -9.2 -0.45 L-9.3 -0.45 -9.05 0.15 Q-9.05 0.5 -9.35 0.75 L-9.95 1.0 -10.6 0.75 -10.85 0.15 -10.6 -0.5 -10.3 -0.7 -10.4 -0.75 -10.25 -0.95 -9.55 -0.85 Q-8.3 -0.75 -7.1 -1.45 -5.9 -2.1 -5.45 -3.15 -4.95 -4.2 -5.55 -4.95 -6.15 -5.75 -7.35 -5.85 L-7.45 -5.85 -7.2 -5.65 -6.95 -5.05" fill="#ffdd54" fill-rule="evenodd" stroke="none"/>
    <path d="M-21.35 -5.05 L-21.05 -5.65 -20.85 -5.85 -20.95 -5.85 Q-22.15 -5.75 -22.7 -4.95 -23.3 -4.2 -22.85 -3.15 -22.4 -2.1 -21.2 -1.45 -19.95 -0.75 -18.75 -0.85 L-18.0 -0.95 -17.9 -0.75 -18.0 -0.7 -17.7 -0.5 Q-17.4 -0.25 -17.4 0.15 -17.4 0.5 -17.7 0.75 -17.95 1.0 -18.3 1.0 L-18.95 0.75 -19.2 0.15 -18.95 -0.45 -19.05 -0.45 Q-20.55 -0.35 -22.0 -1.15 -23.5 -2.0 -24.0 -3.2 -24.55 -4.45 -23.85 -5.45 -23.15 -6.45 -21.65 -6.55 L-19.8 -6.25 -19.75 -5.75 -19.95 -5.8 -19.8 -5.65 -19.55 -5.05 Q-19.55 -4.65 -19.8 -4.4 -20.05 -4.15 -20.45 -4.15 -20.8 -4.15 -21.05 -4.4 -21.35 -4.65 -21.35 -5.05" fill="#ffdd54" fill-rule="evenodd" stroke="none"/>
  </g>
</svg>
