<?xml version="1.0" encoding="UTF-8" standalone="no"?>
<svg xmlns:xlink="http://www.w3.org/1999/xlink" height="92.25px" width="393.45px" xmlns="http://www.w3.org/2000/svg">
  <g transform="matrix(1.0, 0.0, 0.0, 1.0, 1.5, -443.25)">
    <path d="M391.95 535.5 L-1.5 535.5 -1.5 493.5 391.95 493.5 391.95 535.5" fill="url(#gradient0)" fill-rule="evenodd" stroke="none"/>
    <path d="M211.5 444.25 L211.5 484.5" fill="none" stroke="#ab2929" stroke-linecap="square" stroke-linejoin="miter" stroke-width="1.5"/>
    <path d="M211.75 470.0 L240.0 470.0 M211.75 454.5 L231.0 454.5 M211.75 484.5 L245.25 484.5" fill="none" stroke="#ab2929" stroke-linecap="square" stroke-linejoin="miter" stroke-width="1.5"/>
    <path d="M247.75 484.25 Q247.75 485.1 247.15 485.65 246.6 486.25 245.75 486.25 244.95 486.25 244.35 485.65 243.75 485.1 243.75 484.25 243.75 483.4 244.35 482.8 244.95 482.25 245.75 482.25 246.6 482.25 247.15 482.8 247.75 483.4 247.75 484.25 M233.75 454.25 Q233.75 455.1 233.15 455.65 232.6 456.25 231.75 456.25 230.95 456.25 230.35 455.65 229.75 455.1 229.75 454.25 229.75 453.4 230.35 452.8 230.95 452.25 231.75 452.25 232.6 452.25 233.15 452.8 233.75 453.4 233.75 454.25 M242.25 469.75 Q242.25 470.6 241.65 471.15 241.1 471.75 240.25 471.75 239.45 471.75 238.85 471.15 238.25 470.6 238.25 469.75 238.25 468.9 238.85 468.3 239.45 467.75 240.25 467.75 241.1 467.75 241.65 468.3 242.25 468.9 242.25 469.75" fill="#ab2929" fill-rule="evenodd" stroke="none"/>
  </g>
  <defs>
    <linearGradient gradientTransform="matrix(0.3946, 0.0, 0.0, -0.5726, 2.8, 990.7)" gradientUnits="userSpaceOnUse" id="gradient0" spreadMethod="pad" x1="-819.2" x2="819.2">
      <stop offset="0.0" stop-color="#800000"/>
      <stop offset="1.0" stop-color="#000000" stop-opacity="0.9019608"/>
    </linearGradient>
  </defs>
</svg>
