<?xml version="1.0" encoding="UTF-8" standalone="no"?>
<svg xmlns:xlink="http://www.w3.org/1999/xlink" height="617.95px" width="818.15px" xmlns="http://www.w3.org/2000/svg">
  <g transform="matrix(1.0, 0.0, 0.0, 1.0, 5.0, 5.0)">
    <path d="M-5.0 -5.0 L805.0 -5.0 805.0 605.0 -5.0 605.0 -5.0 -5.0" fill="url(#gradient0)" fill-rule="evenodd" stroke="none"/>
    <path d="M810.1 612.0 L812.35 612.25 Q813.15 612.45 813.15 612.75 L813.05 612.95 0.15 612.95 0.0 612.75 Q0.0 612.45 1.05 612.25 L3.1 612.0 810.1 612.0 M813.15 609.75 L812.35 610.3 810.1 610.5 3.1 610.5 1.05 610.3 0.0 609.75 Q0.0 609.45 1.05 609.25 L3.1 609.0 810.1 609.0 812.35 609.25 Q813.15 609.45 813.15 609.75 M812.35 600.25 Q813.15 600.45 813.15 600.75 L812.35 601.3 810.1 601.5 3.1 601.5 1.05 601.3 0.0 600.75 Q0.0 600.45 1.05 600.25 L3.1 600.0 810.1 600.0 812.35 600.25 M810.1 606.0 L812.35 606.25 Q813.15 606.45 813.15 606.75 L812.35 607.3 810.1 607.5 3.1 607.5 1.05 607.3 0.0 606.75 Q0.0 606.45 1.05 606.25 L3.1 606.0 810.1 606.0 M810.1 603.0 L812.35 603.25 Q813.15 603.45 813.15 603.75 L812.35 604.3 810.1 604.5 3.1 604.5 1.05 604.3 0.0 603.75 Q0.0 603.45 1.05 603.25 L3.1 603.0 810.1 603.0 M812.35 598.3 L810.1 598.5 3.1 598.5 1.05 598.3 0.0 597.75 Q0.0 597.45 1.05 597.25 L3.1 597.0 810.1 597.0 812.35 597.25 Q813.15 597.45 813.15 597.75 L812.35 598.3 M812.35 594.25 Q813.15 594.45 813.15 594.75 L812.35 595.3 810.1 595.5 3.1 595.5 1.05 595.3 0.0 594.75 Q0.0 594.45 1.05 594.25 L3.1 594.0 810.1 594.0 812.35 594.25 M810.1 591.0 L812.35 591.25 Q813.15 591.45 813.15 591.75 L812.35 592.3 810.1 592.5 3.1 592.5 1.05 592.3 0.0 591.75 Q0.0 591.45 1.05 591.25 L3.1 591.0 810.1 591.0 M810.1 588.0 L812.35 588.25 Q813.15 588.45 813.15 588.75 L812.35 589.3 810.1 589.5 3.1 589.5 1.05 589.3 0.0 588.75 Q0.0 588.45 1.05 588.25 L3.1 588.0 810.1 588.0 M810.1 585.0 L812.35 585.25 Q813.15 585.45 813.15 585.75 L812.35 586.3 810.1 586.5 3.1 586.5 1.05 586.3 0.0 585.75 Q0.0 585.45 1.05 585.25 L3.1 585.0 810.1 585.0 M812.35 583.3 L810.1 583.5 3.1 583.5 1.05 583.3 0.0 582.75 Q0.0 582.45 1.05 582.25 L3.1 582.0 810.1 582.0 812.35 582.25 Q813.15 582.45 813.15 582.75 L812.35 583.3 M812.35 580.3 L810.1 580.5 3.1 580.5 1.05 580.3 0.0 579.75 Q0.0 579.45 1.05 579.25 L3.1 579.0 810.1 579.0 812.35 579.25 Q813.15 579.45 813.15 579.75 L812.35 580.3 M810.1 576.0 L812.35 576.25 Q813.15 576.45 813.15 576.75 L812.35 577.3 810.1 577.5 3.1 577.5 1.05 577.3 0.0 576.75 Q0.0 576.45 1.05 576.25 L3.1 576.0 810.1 576.0 M813.15 573.75 L812.35 574.3 810.1 574.5 3.1 574.5 1.05 574.3 0.0 573.75 Q0.0 573.45 1.05 573.25 L3.1 573.0 810.1 573.0 812.35 573.25 Q813.15 573.45 813.15 573.75 M812.35 571.3 L810.1 571.5 3.1 571.5 1.05 571.3 0.0 570.75 Q0.0 570.45 1.05 570.25 L3.1 570.0 810.1 570.0 812.35 570.25 Q813.15 570.45 813.15 570.75 L812.35 571.3 M812.35 564.25 Q813.15 564.45 813.15 564.75 L812.35 565.3 810.1 565.5 3.1 565.5 1.05 565.3 0.0 564.75 Q0.0 564.45 1.05 564.25 L3.1 564.0 810.1 564.0 812.35 564.25 M813.15 567.75 L812.35 568.3 810.1 568.5 3.1 568.5 1.05 568.3 0.0 567.75 Q0.0 567.45 1.05 567.25 L3.1 567.0 810.1 567.0 812.35 567.25 Q813.15 567.45 813.15 567.75 M813.15 561.75 L812.35 562.3 810.1 562.5 3.1 562.5 1.05 562.3 0.0 561.75 Q0.0 561.45 1.05 561.25 L3.1 561.0 810.1 561.0 812.35 561.25 Q813.15 561.45 813.15 561.75 M812.35 558.25 Q813.15 558.45 813.15 558.75 L812.35 559.3 810.1 559.5 3.1 559.5 1.05 559.3 0.0 558.75 Q0.0 558.45 1.05 558.25 L3.1 558.0 810.1 558.0 812.35 558.25 M810.1 555.0 L812.35 555.25 Q813.15 555.45 813.15 555.75 L812.35 556.3 810.1 556.5 3.1 556.5 1.05 556.3 0.0 555.75 Q0.0 555.45 1.05 555.25 L3.1 555.0 810.1 555.0 M810.1 552.0 L812.35 552.25 Q813.15 552.45 813.15 552.75 L812.35 553.3 810.1 553.5 3.1 553.5 1.05 553.3 0.0 552.75 Q0.0 552.45 1.05 552.25 L3.1 552.0 810.1 552.0 M813.15 549.75 L812.35 550.3 810.1 550.5 3.1 550.5 1.05 550.3 0.0 549.75 Q0.0 549.45 1.05 549.25 L3.1 549.0 810.1 549.0 812.35 549.25 Q813.15 549.45 813.15 549.75 M812.35 547.3 L810.1 547.5 3.1 547.5 1.05 547.3 0.0 546.75 Q0.0 546.45 1.05 546.25 L3.1 546.0 810.1 546.0 812.35 546.25 Q813.15 546.45 813.15 546.75 L812.35 547.3 M812.35 541.3 L810.1 541.5 3.1 541.5 1.05 541.3 0.0 540.75 Q0.0 540.45 1.05 540.25 L3.1 540.0 810.1 540.0 812.35 540.25 Q813.15 540.45 813.15 540.75 L812.35 541.3 M812.35 543.25 Q813.15 543.45 813.15 543.75 L812.35 544.3 810.1 544.5 3.1 544.5 1.05 544.3 0.0 543.75 Q0.0 543.45 1.05 543.25 L3.1 543.0 810.1 543.0 812.35 543.25 M812.35 535.3 L810.1 535.5 3.1 535.5 1.05 535.3 0.0 534.75 Q0.0 534.45 1.05 534.25 L3.1 534.0 810.1 534.0 812.35 534.25 Q813.15 534.45 813.15 534.75 L812.35 535.3 M813.15 537.75 L812.35 538.3 810.1 538.5 3.1 538.5 1.05 538.3 0.0 537.75 Q0.0 537.45 1.05 537.25 L3.1 537.0 810.1 537.0 812.35 537.25 Q813.15 537.45 813.15 537.75 M812.35 529.3 L810.1 529.5 3.1 529.5 1.05 529.3 0.0 528.75 Q0.0 528.45 1.05 528.25 L3.1 528.0 810.1 528.0 812.35 528.25 Q813.15 528.45 813.15 528.75 L812.35 529.3 M810.1 531.0 L812.35 531.25 Q813.15 531.45 813.15 531.75 L812.35 532.3 810.1 532.5 3.1 532.5 1.05 532.3 0.0 531.75 Q0.0 531.45 1.05 531.25 L3.1 531.0 810.1 531.0 M813.15 522.75 L812.35 523.3 810.1 523.5 3.1 523.5 1.05 523.3 0.0 522.75 Q0.0 522.45 1.05 522.25 L3.1 522.0 810.1 522.0 812.35 522.25 Q813.15 522.45 813.15 522.75 M810.1 525.0 L812.35 525.25 Q813.15 525.45 813.15 525.75 L812.35 526.3 810.1 526.5 3.1 526.5 1.05 526.3 0.0 525.75 Q0.0 525.45 1.05 525.25 L3.1 525.0 810.1 525.0 M812.35 516.25 Q813.15 516.45 813.15 516.75 L812.35 517.3 810.1 517.5 3.1 517.5 1.05 517.3 0.0 516.75 Q0.0 516.45 1.05 516.25 L3.1 516.0 810.1 516.0 812.35 516.25 M810.1 519.0 L812.35 519.25 Q813.15 519.45 813.15 519.75 L812.35 520.3 810.1 520.5 3.1 520.5 1.05 520.3 0.0 519.75 Q0.0 519.45 1.05 519.25 L3.1 519.0 810.1 519.0 M810.1 510.0 L812.35 510.25 Q813.15 510.45 813.15 510.75 L812.35 511.3 810.1 511.5 3.1 511.5 1.05 511.3 0.0 510.75 Q0.0 510.45 1.05 510.25 L3.1 510.0 810.1 510.0 M810.1 513.0 L812.35 513.25 Q813.15 513.45 813.15 513.75 L812.35 514.3 810.1 514.5 3.1 514.5 1.05 514.3 0.0 513.75 Q0.0 513.45 1.05 513.25 L3.1 513.0 810.1 513.0 M812.35 501.25 Q813.15 501.45 813.15 501.75 L812.35 502.3 810.1 502.5 3.1 502.5 1.05 502.3 0.0 501.75 Q0.0 501.45 1.05 501.25 L3.1 501.0 810.1 501.0 812.35 501.25 M810.1 507.0 L812.35 507.25 Q813.15 507.45 813.15 507.75 L812.35 508.3 810.1 508.5 3.1 508.5 1.05 508.3 0.0 507.75 Q0.0 507.45 1.05 507.25 L3.1 507.0 810.1 507.0 M812.35 505.3 L810.1 505.5 3.1 505.5 1.05 505.3 0.0 504.75 Q0.0 504.45 1.05 504.25 L3.1 504.0 810.1 504.0 812.35 504.25 Q813.15 504.45 813.15 504.75 L812.35 505.3 M812.35 498.25 Q813.15 498.45 813.15 498.75 L812.35 499.3 810.1 499.5 3.1 499.5 1.05 499.3 0.0 498.75 Q0.0 498.45 1.05 498.25 L3.1 498.0 810.1 498.0 812.35 498.25 M812.35 495.25 Q813.15 495.45 813.15 495.75 L812.35 496.3 810.1 496.5 3.1 496.5 1.05 496.3 0.0 495.75 Q0.0 495.45 1.05 495.25 L3.1 495.0 810.1 495.0 812.35 495.25 M812.35 493.3 L810.1 493.5 3.1 493.5 1.05 493.3 0.0 492.75 Q0.0 492.45 1.05 492.25 L3.1 492.0 810.1 492.0 812.35 492.25 Q813.15 492.45 813.15 492.75 L812.35 493.3 M810.1 489.0 L812.35 489.25 Q813.15 489.45 813.15 489.75 L812.35 490.3 810.1 490.5 3.1 490.5 1.05 490.3 0.0 489.75 Q0.0 489.45 1.05 489.25 L3.1 489.0 810.1 489.0 M812.35 487.3 L810.1 487.5 3.1 487.5 1.05 487.3 0.0 486.75 Q0.0 486.45 1.05 486.25 L3.1 486.0 810.1 486.0 812.35 486.25 Q813.15 486.45 813.15 486.75 L812.35 487.3 M812.35 484.3 L810.1 484.5 3.1 484.5 1.05 484.3 0.0 483.75 Q0.0 483.45 1.05 483.25 L3.1 483.0 810.1 483.0 812.35 483.25 Q813.15 483.45 813.15 483.75 L812.35 484.3 M812.35 481.3 L810.1 481.5 3.1 481.5 1.05 481.3 0.0 480.75 Q0.0 480.45 1.05 480.25 L3.1 480.0 810.1 480.0 812.35 480.25 Q813.15 480.45 813.15 480.75 L812.35 481.3 M810.1 477.0 L812.35 477.25 Q813.15 477.45 813.15 477.75 L812.35 478.3 810.1 478.5 3.1 478.5 1.05 478.3 0.0 477.75 Q0.0 477.45 1.05 477.25 L3.1 477.0 810.1 477.0 M812.35 475.3 L810.1 475.5 3.1 475.5 1.05 475.3 0.0 474.75 Q0.0 474.45 1.05 474.25 L3.1 474.0 810.1 474.0 812.35 474.25 Q813.15 474.45 813.15 474.75 L812.35 475.3 M812.35 472.3 L810.1 472.5 3.1 472.5 1.05 472.3 0.0 471.75 Q0.0 471.45 1.05 471.25 L3.1 471.0 810.1 471.0 812.35 471.25 Q813.15 471.45 813.15 471.75 L812.35 472.3 M812.35 465.25 Q813.15 465.45 813.15 465.75 L812.35 466.3 810.1 466.5 3.1 466.5 1.05 466.3 0.0 465.75 Q0.0 465.45 1.05 465.25 L3.1 465.0 810.1 465.0 812.35 465.25 M813.15 468.75 L812.35 469.3 810.1 469.5 3.1 469.5 1.05 469.3 0.0 468.75 Q0.0 468.45 1.05 468.25 L3.1 468.0 810.1 468.0 812.35 468.25 Q813.15 468.45 813.15 468.75 M812.35 459.25 Q813.15 459.45 813.15 459.75 L812.35 460.3 810.1 460.5 3.1 460.5 1.05 460.3 0.0 459.75 Q0.0 459.45 1.05 459.25 L3.1 459.0 810.1 459.0 812.35 459.25 M812.35 462.25 Q813.15 462.45 813.15 462.75 L812.35 463.3 810.1 463.5 3.1 463.5 1.05 463.3 0.0 462.75 Q0.0 462.45 1.05 462.25 L3.1 462.0 810.1 462.0 812.35 462.25 M812.35 456.25 Q813.15 456.45 813.15 456.75 L812.35 457.3 810.1 457.5 3.1 457.5 1.05 457.3 0.0 456.75 Q0.0 456.45 1.05 456.25 L3.1 456.0 810.1 456.0 812.35 456.25 M810.1 453.0 L812.35 453.25 Q813.15 453.45 813.15 453.75 L812.35 454.3 810.1 454.5 3.1 454.5 1.05 454.3 0.0 453.75 Q0.0 453.45 1.05 453.25 L3.1 453.0 810.1 453.0 M813.15 447.75 L812.35 448.3 810.1 448.5 3.1 448.5 1.05 448.3 0.0 447.75 Q0.0 447.45 1.05 447.25 L3.1 447.0 810.1 447.0 812.35 447.25 Q813.15 447.45 813.15 447.75 M812.35 450.25 Q813.15 450.45 813.15 450.75 L812.35 451.3 810.1 451.5 3.1 451.5 1.05 451.3 0.0 450.75 Q0.0 450.45 1.05 450.25 L3.1 450.0 810.1 450.0 812.35 450.25 M812.35 442.3 L810.1 442.5 3.1 442.5 1.05 442.3 0.0 441.75 Q0.0 441.45 1.05 441.25 L3.1 441.0 810.1 441.0 812.35 441.25 Q813.15 441.45 813.15 441.75 L812.35 442.3 M812.35 444.25 Q813.15 444.45 813.15 444.75 L812.35 445.3 810.1 445.5 3.1 445.5 1.05 445.3 0.0 444.75 Q0.0 444.45 1.05 444.25 L3.1 444.0 810.1 444.0 812.35 444.25 M812.35 438.25 Q813.15 438.45 813.15 438.75 L812.35 439.3 810.1 439.5 3.1 439.5 1.05 439.3 0.0 438.75 Q0.0 438.45 1.05 438.25 L3.1 438.0 810.1 438.0 812.35 438.25 M812.35 436.3 L810.1 436.5 3.1 436.5 1.05 436.3 0.0 435.75 Q0.0 435.45 1.05 435.25 L3.1 435.0 810.1 435.0 812.35 435.25 Q813.15 435.45 813.15 435.75 L812.35 436.3 M812.35 432.25 Q813.15 432.45 813.15 432.75 L812.35 433.3 810.1 433.5 3.1 433.5 1.05 433.3 0.0 432.75 Q0.0 432.45 1.05 432.25 L3.1 432.0 810.1 432.0 812.35 432.25 M812.35 430.3 L810.1 430.5 3.1 430.5 1.05 430.3 0.0 429.75 Q0.0 429.45 1.05 429.25 L3.1 429.0 810.1 429.0 812.35 429.25 Q813.15 429.45 813.15 429.75 L812.35 430.3 M810.1 426.0 L812.35 426.25 Q813.15 426.45 813.15 426.75 L812.35 427.3 810.1 427.5 3.1 427.5 1.05 427.3 0.0 426.75 Q0.0 426.45 1.05 426.25 L3.1 426.0 810.1 426.0 M812.35 424.3 L810.1 424.5 3.1 424.5 1.05 424.3 0.0 423.75 Q0.0 423.45 1.05 423.25 L3.1 423.0 810.1 423.0 812.35 423.25 Q813.15 423.45 813.15 423.75 L812.35 424.3 M810.1 417.0 L812.35 417.25 Q813.15 417.45 813.15 417.75 L812.35 418.3 810.1 418.5 3.1 418.5 1.05 418.3 0.0 417.75 Q0.0 417.45 1.05 417.25 L3.1 417.0 810.1 417.0 M810.1 420.0 L812.35 420.25 Q813.15 420.45 813.15 420.75 L812.35 421.3 810.1 421.5 3.1 421.5 1.05 421.3 0.0 420.75 Q0.0 420.45 1.05 420.25 L3.1 420.0 810.1 420.0 M810.1 414.0 L812.35 414.25 Q813.15 414.45 813.15 414.75 L812.35 415.3 810.1 415.5 3.1 415.5 1.05 415.3 0.0 414.75 Q0.0 414.45 1.05 414.25 L3.1 414.0 810.1 414.0 M813.15 411.75 L812.35 412.3 810.1 412.5 3.1 412.5 1.05 412.3 0.0 411.75 Q0.0 411.45 1.05 411.25 L3.1 411.0 810.1 411.0 812.35 411.25 Q813.15 411.45 813.15 411.75 M812.35 402.25 Q813.15 402.45 813.15 402.75 L812.35 403.3 810.1 403.5 3.1 403.5 1.05 403.3 0.0 402.75 Q0.0 402.45 1.05 402.25 L3.1 402.0 810.1 402.0 812.35 402.25 M810.1 408.0 L812.35 408.25 Q813.15 408.45 813.15 408.75 L812.35 409.3 810.1 409.5 3.1 409.5 1.05 409.3 0.0 408.75 Q0.0 408.45 1.05 408.25 L3.1 408.0 810.1 408.0 M812.35 406.3 L810.1 406.5 3.1 406.5 1.05 406.3 0.0 405.75 Q0.0 405.45 1.05 405.25 L3.1 405.0 810.1 405.0 812.35 405.25 Q813.15 405.45 813.15 405.75 L812.35 406.3 M812.35 399.25 Q813.15 399.45 813.15 399.75 L812.35 400.3 810.1 400.5 3.1 400.5 1.05 400.3 0.0 399.75 Q0.0 399.45 1.05 399.25 L3.1 399.0 810.1 399.0 812.35 399.25 M812.35 396.25 Q813.15 396.45 813.15 396.75 L812.35 397.3 810.1 397.5 3.1 397.5 1.05 397.3 0.0 396.75 Q0.0 396.45 1.05 396.25 L3.1 396.0 810.1 396.0 812.35 396.25 M812.35 393.25 Q813.15 393.45 813.15 393.75 L812.35 394.3 810.1 394.5 3.1 394.5 1.05 394.3 0.0 393.75 Q0.0 393.45 1.05 393.25 L3.1 393.0 810.1 393.0 812.35 393.25 M810.1 390.0 L812.35 390.25 Q813.15 390.45 813.15 390.75 L812.35 391.3 810.1 391.5 3.1 391.5 1.05 391.3 0.0 390.75 Q0.0 390.45 1.05 390.25 L3.1 390.0 810.1 390.0 M810.1 387.0 L812.35 387.25 Q813.15 387.45 813.15 387.75 L812.35 388.3 810.1 388.5 3.1 388.5 1.05 388.3 0.0 387.75 Q0.0 387.45 1.05 387.25 L3.1 387.0 810.1 387.0 M812.35 385.3 L810.1 385.5 3.1 385.5 1.05 385.3 0.0 384.75 Q0.0 384.45 1.05 384.25 L3.1 384.0 810.1 384.0 812.35 384.25 Q813.15 384.45 813.15 384.75 L812.35 385.3 M812.35 381.25 Q813.15 381.45 813.15 381.75 L812.35 382.3 810.1 382.5 3.1 382.5 1.05 382.3 0.0 381.75 Q0.0 381.45 1.05 381.25 L3.1 381.0 810.1 381.0 812.35 381.25 M813.15 378.75 L812.35 379.3 810.1 379.5 3.1 379.5 1.05 379.3 0.0 378.75 Q0.0 378.45 1.05 378.25 L3.1 378.0 810.1 378.0 812.35 378.25 Q813.15 378.45 813.15 378.75 M812.35 376.3 L810.1 376.5 3.1 376.5 1.05 376.3 0.0 375.75 Q0.0 375.45 1.05 375.25 L3.1 375.0 810.1 375.0 812.35 375.25 Q813.15 375.45 813.15 375.75 L812.35 376.3 M812.35 373.3 L810.1 373.5 3.1 373.5 1.05 373.3 0.0 372.75 Q0.0 372.45 1.05 372.25 L3.1 372.0 810.1 372.0 812.35 372.25 Q813.15 372.45 813.15 372.75 L812.35 373.3 M813.15 366.75 L812.35 367.3 810.1 367.5 3.1 367.5 1.05 367.3 0.0 366.75 Q0.0 366.45 1.05 366.25 L3.1 366.0 810.1 366.0 812.35 366.25 Q813.15 366.45 813.15 366.75 M812.35 370.3 L810.1 370.5 3.1 370.5 1.05 370.3 0.0 369.75 Q0.0 369.45 1.05 369.25 L3.1 369.0 810.1 369.0 812.35 369.25 Q813.15 369.45 813.15 369.75 L812.35 370.3 M810.1 363.0 L812.35 363.25 Q813.15 363.45 813.15 363.75 L812.35 364.3 810.1 364.5 3.1 364.5 1.05 364.3 0.0 363.75 Q0.0 363.45 1.05 363.25 L3.1 363.0 810.1 363.0 M812.35 361.3 L810.1 361.5 3.1 361.5 1.05 361.3 0.0 360.75 Q0.0 360.45 1.05 360.25 L3.1 360.0 810.1 360.0 812.35 360.25 Q813.15 360.45 813.15 360.75 L812.35 361.3 M812.35 357.25 Q813.15 357.45 813.15 357.75 L812.35 358.3 810.1 358.5 3.1 358.5 1.05 358.3 0.0 357.75 Q0.0 357.45 1.05 357.25 L3.1 357.0 810.1 357.0 812.35 357.25 M812.35 355.3 L810.1 355.5 3.1 355.5 1.05 355.3 0.0 354.75 Q0.0 354.45 1.05 354.25 L3.1 354.0 810.1 354.0 812.35 354.25 Q813.15 354.45 813.15 354.75 L812.35 355.3 M813.15 351.75 L812.35 352.3 810.1 352.5 3.1 352.5 1.05 352.3 0.0 351.75 Q0.0 351.45 1.05 351.25 L3.1 351.0 810.1 351.0 812.35 351.25 Q813.15 351.45 813.15 351.75 M810.1 348.0 L812.35 348.25 Q813.15 348.45 813.15 348.75 L812.35 349.3 810.1 349.5 3.1 349.5 1.05 349.3 0.0 348.75 Q0.0 348.45 1.05 348.25 L3.1 348.0 810.1 348.0 M813.15 342.75 L812.35 343.3 810.1 343.5 3.1 343.5 1.05 343.3 0.0 342.75 Q0.0 342.45 1.05 342.25 L3.1 342.0 810.1 342.0 812.35 342.25 Q813.15 342.45 813.15 342.75 M810.1 345.0 L812.35 345.25 Q813.15 345.45 813.15 345.75 L812.35 346.3 810.1 346.5 3.1 346.5 1.05 346.3 0.0 345.75 Q0.0 345.45 1.05 345.25 L3.1 345.0 810.1 345.0 M812.35 339.25 Q813.15 339.45 813.15 339.75 L812.35 340.3 810.1 340.5 3.1 340.5 1.05 340.3 0.0 339.75 Q0.0 339.45 1.05 339.25 L3.1 339.0 810.1 339.0 812.35 339.25 M812.35 337.3 L810.1 337.5 3.1 337.5 1.05 337.3 0.0 336.75 Q0.0 336.45 1.05 336.25 L3.1 336.0 810.1 336.0 812.35 336.25 Q813.15 336.45 813.15 336.75 L812.35 337.3 M812.35 333.25 Q813.15 333.45 813.15 333.75 L812.35 334.3 810.1 334.5 3.1 334.5 1.05 334.3 0.0 333.75 Q0.0 333.45 1.05 333.25 L3.1 333.0 810.1 333.0 812.35 333.25 M812.35 331.3 L810.1 331.5 3.1 331.5 1.05 331.3 0.0 330.75 Q0.0 330.45 1.05 330.25 L3.1 330.0 810.1 330.0 812.35 330.25 Q813.15 330.45 813.15 330.75 L812.35 331.3 M813.15 324.75 L812.35 325.3 810.1 325.5 3.1 325.5 1.05 325.3 0.0 324.75 Q0.0 324.45 1.05 324.25 L3.1 324.0 810.1 324.0 812.35 324.25 Q813.15 324.45 813.15 324.75 M810.1 327.0 L812.35 327.25 Q813.15 327.45 813.15 327.75 L812.35 328.3 810.1 328.5 3.1 328.5 1.05 328.3 0.0 327.75 Q0.0 327.45 1.05 327.25 L3.1 327.0 810.1 327.0 M813.15 318.75 L812.35 319.3 810.1 319.5 3.1 319.5 1.05 319.3 0.0 318.75 Q0.0 318.45 1.05 318.25 L3.1 318.0 810.1 318.0 812.35 318.25 Q813.15 318.45 813.15 318.75 M810.1 321.0 L812.35 321.25 Q813.15 321.45 813.15 321.75 L812.35 322.3 810.1 322.5 3.1 322.5 1.05 322.3 0.0 321.75 Q0.0 321.45 1.05 321.25 L3.1 321.0 810.1 321.0 M810.1 312.0 L812.35 312.25 Q813.15 312.45 813.15 312.75 L812.35 313.3 810.1 313.5 3.1 313.5 1.05 313.3 0.0 312.75 Q0.0 312.45 1.05 312.25 L3.1 312.0 810.1 312.0 M810.1 315.0 L812.35 315.25 Q813.15 315.45 813.15 315.75 L812.35 316.3 810.1 316.5 3.1 316.5 1.05 316.3 0.0 315.75 Q0.0 315.45 1.05 315.25 L3.1 315.0 810.1 315.0 M812.35 303.25 Q813.15 303.45 813.15 303.75 L812.35 304.3 810.1 304.5 3.1 304.5 1.05 304.3 0.0 303.75 Q0.0 303.45 1.05 303.25 L3.1 303.0 810.1 303.0 812.35 303.25 M810.1 309.0 L812.35 309.25 Q813.15 309.45 813.15 309.75 L812.35 310.3 810.1 310.5 3.1 310.5 1.05 310.3 0.0 309.75 Q0.0 309.45 1.05 309.25 L3.1 309.0 810.1 309.0 M810.1 306.0 L812.35 306.25 Q813.15 306.45 813.15 306.75 L812.35 307.3 810.1 307.5 3.1 307.5 1.05 307.3 0.0 306.75 Q0.0 306.45 1.05 306.25 L3.1 306.0 810.1 306.0 M812.35 300.25 Q813.15 300.45 813.15 300.75 L812.35 301.3 810.1 301.5 3.1 301.5 1.05 301.3 0.0 300.75 Q0.0 300.45 1.05 300.25 L3.1 300.0 810.1 300.0 812.35 300.25 M812.35 297.25 Q813.15 297.45 813.15 297.75 L812.35 298.3 810.1 298.5 3.1 298.5 1.05 298.3 0.0 297.75 Q0.0 297.45 1.05 297.25 L3.1 297.0 810.1 297.0 812.35 297.25 M810.1 294.0 L812.35 294.25 Q813.15 294.45 813.15 294.75 L812.35 295.3 810.1 295.5 3.1 295.5 1.05 295.3 0.0 294.75 Q0.0 294.45 1.05 294.25 L3.1 294.0 810.1 294.0 M810.1 291.0 L812.35 291.25 Q813.15 291.45 813.15 291.75 L812.35 292.3 810.1 292.5 3.1 292.5 1.05 292.3 0.0 291.75 Q0.0 291.45 1.05 291.25 L3.1 291.0 810.1 291.0 M812.35 289.3 L810.1 289.5 3.1 289.5 1.05 289.3 0.0 288.75 Q0.0 288.45 1.05 288.25 L3.1 288.0 810.1 288.0 812.35 288.25 Q813.15 288.45 813.15 288.75 L812.35 289.3 M812.35 286.3 L810.1 286.5 3.1 286.5 1.05 286.3 0.0 285.75 Q0.0 285.45 1.05 285.25 L3.1 285.0 810.1 285.0 812.35 285.25 Q813.15 285.45 813.15 285.75 L812.35 286.3 M810.1 282.0 L812.35 282.25 Q813.15 282.45 813.15 282.75 L812.35 283.3 810.1 283.5 3.1 283.5 1.05 283.3 0.0 282.75 Q0.0 282.45 1.05 282.25 L3.1 282.0 810.1 282.0 M810.1 279.0 L812.35 279.25 Q813.15 279.45 813.15 279.75 L812.35 280.3 810.1 280.5 3.1 280.5 1.05 280.3 0.0 279.75 Q0.0 279.45 1.05 279.25 L3.1 279.0 810.1 279.0 M810.1 276.0 L812.35 276.25 Q813.15 276.45 813.15 276.75 L812.35 277.3 810.1 277.5 3.1 277.5 1.05 277.3 0.0 276.75 Q0.0 276.45 1.05 276.25 L3.1 276.0 810.1 276.0 M812.35 274.3 L810.1 274.5 3.1 274.5 1.05 274.3 0.0 273.75 Q0.0 273.45 1.05 273.25 L3.1 273.0 810.1 273.0 812.35 273.25 Q813.15 273.45 813.15 273.75 L812.35 274.3 M812.35 267.25 Q813.15 267.45 813.15 267.75 L812.35 268.3 810.1 268.5 3.1 268.5 1.05 268.3 0.0 267.75 Q0.0 267.45 1.05 267.25 L3.1 267.0 810.1 267.0 812.35 267.25 M813.15 270.75 L812.35 271.3 810.1 271.5 3.1 271.5 1.05 271.3 0.0 270.75 Q0.0 270.45 1.05 270.25 L3.1 270.0 810.1 270.0 812.35 270.25 Q813.15 270.45 813.15 270.75 M810.1 264.0 L812.35 264.25 Q813.15 264.45 813.15 264.75 L812.35 265.3 810.1 265.5 3.1 265.5 1.05 265.3 0.0 264.75 Q0.0 264.45 1.05 264.25 L3.1 264.0 810.1 264.0 M812.35 262.3 L810.1 262.5 3.1 262.5 1.05 262.3 0.0 261.75 Q0.0 261.45 1.05 261.25 L3.1 261.0 810.1 261.0 812.35 261.25 Q813.15 261.45 813.15 261.75 L812.35 262.3 M813.15 258.75 L812.35 259.3 810.1 259.5 3.1 259.5 1.05 259.3 0.0 258.75 Q0.0 258.45 1.05 258.25 L3.1 258.0 810.1 258.0 812.35 258.25 Q813.15 258.45 813.15 258.75 M812.35 256.3 L810.1 256.5 3.1 256.5 1.05 256.3 0.0 255.75 Q0.0 255.45 1.05 255.25 L3.1 255.0 810.1 255.0 812.35 255.25 Q813.15 255.45 813.15 255.75 L812.35 256.3 M813.15 252.75 L812.35 253.3 810.1 253.5 3.1 253.5 1.05 253.3 0.0 252.75 Q0.0 252.45 1.05 252.25 L3.1 252.0 810.1 252.0 812.35 252.25 Q813.15 252.45 813.15 252.75 M810.1 249.0 L812.35 249.25 Q813.15 249.45 813.15 249.75 L812.35 250.3 810.1 250.5 3.1 250.5 1.05 250.3 0.0 249.75 Q0.0 249.45 1.05 249.25 L3.1 249.0 810.1 249.0 M813.15 243.75 L812.35 244.3 810.1 244.5 3.1 244.5 1.05 244.3 0.0 243.75 Q0.0 243.45 1.05 243.25 L3.1 243.0 810.1 243.0 812.35 243.25 Q813.15 243.45 813.15 243.75 M812.35 246.25 Q813.15 246.45 813.15 246.75 L812.35 247.3 810.1 247.5 3.1 247.5 1.05 247.3 0.0 246.75 Q0.0 246.45 1.05 246.25 L3.1 246.0 810.1 246.0 812.35 246.25 M812.35 240.25 Q813.15 240.45 813.15 240.75 L812.35 241.3 810.1 241.5 3.1 241.5 1.05 241.3 0.0 240.75 Q0.0 240.45 1.05 240.25 L3.1 240.0 810.1 240.0 812.35 240.25 M812.35 238.3 L810.1 238.5 3.1 238.5 1.05 238.3 0.0 237.75 Q0.0 237.45 1.05 237.25 L3.1 237.0 810.1 237.0 812.35 237.25 Q813.15 237.45 813.15 237.75 L812.35 238.3 M812.35 234.25 Q813.15 234.45 813.15 234.75 L812.35 235.3 810.1 235.5 3.1 235.5 1.05 235.3 0.0 234.75 Q0.0 234.45 1.05 234.25 L3.1 234.0 810.1 234.0 812.35 234.25 M812.35 232.3 L810.1 232.5 3.1 232.5 1.05 232.3 0.0 231.75 Q0.0 231.45 1.05 231.25 L3.1 231.0 810.1 231.0 812.35 231.25 Q813.15 231.45 813.15 231.75 L812.35 232.3 M813.15 225.75 L812.35 226.3 810.1 226.5 3.1 226.5 1.05 226.3 0.0 225.75 Q0.0 225.45 1.05 225.25 L3.1 225.0 810.1 225.0 812.35 225.25 Q813.15 225.45 813.15 225.75 M812.35 228.25 Q813.15 228.45 813.15 228.75 L812.35 229.3 810.1 229.5 3.1 229.5 1.05 229.3 0.0 228.75 Q0.0 228.45 1.05 228.25 L3.1 228.0 810.1 228.0 812.35 228.25 M813.15 219.75 L812.35 220.3 810.1 220.5 3.1 220.5 1.05 220.3 0.0 219.75 Q0.0 219.45 1.05 219.25 L3.1 219.0 810.1 219.0 812.35 219.25 Q813.15 219.45 813.15 219.75 M810.1 222.0 L812.35 222.25 Q813.15 222.45 813.15 222.75 L812.35 223.3 810.1 223.5 3.1 223.5 1.05 223.3 0.0 222.75 Q0.0 222.45 1.05 222.25 L3.1 222.0 810.1 222.0 M810.1 213.0 L812.35 213.25 Q813.15 213.45 813.15 213.75 L812.35 214.3 810.1 214.5 3.1 214.5 1.05 214.3 0.0 213.75 Q0.0 213.45 1.05 213.25 L3.1 213.0 810.1 213.0 M810.1 216.0 L812.35 216.25 Q813.15 216.45 813.15 216.75 L812.35 217.3 810.1 217.5 3.1 217.5 1.05 217.3 0.0 216.75 Q0.0 216.45 1.05 216.25 L3.1 216.0 810.1 216.0 M812.35 204.25 Q813.15 204.45 813.15 204.75 L812.35 205.3 810.1 205.5 3.1 205.5 1.05 205.3 0.0 204.75 Q0.0 204.45 1.05 204.25 L3.1 204.0 810.1 204.0 812.35 204.25 M810.1 210.0 L812.35 210.25 Q813.15 210.45 813.15 210.75 L812.35 211.3 810.1 211.5 3.1 211.5 1.05 211.3 0.0 210.75 Q0.0 210.45 1.05 210.25 L3.1 210.0 810.1 210.0 M810.1 207.0 L812.35 207.25 Q813.15 207.45 813.15 207.75 L812.35 208.3 810.1 208.5 3.1 208.5 1.05 208.3 0.0 207.75 Q0.0 207.45 1.05 207.25 L3.1 207.0 810.1 207.0 M812.35 201.25 Q813.15 201.45 813.15 201.75 L812.35 202.3 810.1 202.5 3.1 202.5 1.05 202.3 0.0 201.75 Q0.0 201.45 1.05 201.25 L3.1 201.0 810.1 201.0 812.35 201.25 M812.35 198.25 Q813.15 198.45 813.15 198.75 L812.35 199.3 810.1 199.5 3.1 199.5 1.05 199.3 0.0 198.75 Q0.0 198.45 1.05 198.25 L3.1 198.0 810.1 198.0 812.35 198.25 M810.1 195.0 L812.35 195.25 Q813.15 195.45 813.15 195.75 L812.35 196.3 810.1 196.5 3.1 196.5 1.05 196.3 0.0 195.75 Q0.0 195.45 1.05 195.25 L3.1 195.0 810.1 195.0 M810.1 192.0 L812.35 192.25 Q813.15 192.45 813.15 192.75 L812.35 193.3 810.1 193.5 3.1 193.5 1.05 193.3 0.0 192.75 Q0.0 192.45 1.05 192.25 L3.1 192.0 810.1 192.0 M812.35 190.3 L810.1 190.5 3.1 190.5 1.05 190.3 0.0 189.75 Q0.0 189.45 1.05 189.25 L3.1 189.0 810.1 189.0 812.35 189.25 Q813.15 189.45 813.15 189.75 L812.35 190.3 M812.35 187.3 L810.1 187.5 3.1 187.5 1.05 187.3 0.0 186.75 Q0.0 186.45 1.05 186.25 L3.1 186.0 810.1 186.0 812.35 186.25 Q813.15 186.45 813.15 186.75 L812.35 187.3 M810.1 183.0 L812.35 183.25 Q813.15 183.45 813.15 183.75 L812.35 184.3 810.1 184.5 3.1 184.5 1.05 184.3 0.0 183.75 Q0.0 183.45 1.05 183.25 L3.1 183.0 810.1 183.0 M810.1 180.0 L812.35 180.25 Q813.15 180.45 813.15 180.75 L812.35 181.3 810.1 181.5 3.1 181.5 1.05 181.3 0.0 180.75 Q0.0 180.45 1.05 180.25 L3.1 180.0 810.1 180.0 M810.1 177.0 L812.35 177.25 Q813.15 177.45 813.15 177.75 L812.35 178.3 810.1 178.5 3.1 178.5 1.05 178.3 0.0 177.75 Q0.0 177.45 1.05 177.25 L3.1 177.0 810.1 177.0 M812.35 175.3 L810.1 175.5 3.1 175.5 1.05 175.3 0.0 174.75 Q0.0 174.45 1.05 174.25 L3.1 174.0 810.1 174.0 812.35 174.25 Q813.15 174.45 813.15 174.75 L812.35 175.3 M812.35 168.25 Q813.15 168.45 813.15 168.75 L812.35 169.3 810.1 169.5 3.1 169.5 1.05 169.3 0.0 168.75 Q0.0 168.45 1.05 168.25 L3.1 168.0 810.1 168.0 812.35 168.25 M813.15 171.75 L812.35 172.3 810.1 172.5 3.1 172.5 1.05 172.3 0.0 171.75 Q0.0 171.45 1.05 171.25 L3.1 171.0 810.1 171.0 812.35 171.25 Q813.15 171.45 813.15 171.75 M810.1 165.0 L812.35 165.25 Q813.15 165.45 813.15 165.75 L812.35 166.3 810.1 166.5 3.1 166.5 1.05 166.3 0.0 165.75 Q0.0 165.45 1.05 165.25 L3.1 165.0 810.1 165.0 M812.35 163.3 L810.1 163.5 3.1 163.5 1.05 163.3 0.0 162.75 Q0.0 162.45 1.05 162.25 L3.1 162.0 810.1 162.0 812.35 162.25 Q813.15 162.45 813.15 162.75 L812.35 163.3 M812.35 159.25 Q813.15 159.45 813.15 159.75 L812.35 160.3 810.1 160.5 3.1 160.5 1.05 160.3 0.0 159.75 Q0.0 159.45 1.05 159.25 L3.1 159.0 810.1 159.0 812.35 159.25 M812.35 157.3 L810.1 157.5 3.1 157.5 1.05 157.3 0.0 156.75 Q0.0 156.45 1.05 156.25 L3.1 156.0 810.1 156.0 812.35 156.25 Q813.15 156.45 813.15 156.75 L812.35 157.3 M813.15 153.75 L812.35 154.3 810.1 154.5 3.1 154.5 1.05 154.3 0.0 153.75 Q0.0 153.45 1.05 153.25 L3.1 153.0 810.1 153.0 812.35 153.25 Q813.15 153.45 813.15 153.75 M810.1 150.0 L812.35 150.25 Q813.15 150.45 813.15 150.75 L812.35 151.3 810.1 151.5 3.1 151.5 1.05 151.3 0.0 150.75 Q0.0 150.45 1.05 150.25 L3.1 150.0 810.1 150.0 M813.15 144.75 L812.35 145.3 810.1 145.5 3.1 145.5 1.05 145.3 0.0 144.75 Q0.0 144.45 1.05 144.25 L3.1 144.0 810.1 144.0 812.35 144.25 Q813.15 144.45 813.15 144.75 M812.35 147.25 Q813.15 147.45 813.15 147.75 L812.35 148.3 810.1 148.5 3.1 148.5 1.05 148.3 0.0 147.75 Q0.0 147.45 1.05 147.25 L3.1 147.0 810.1 147.0 812.35 147.25 M812.35 141.25 Q813.15 141.45 813.15 141.75 L812.35 142.3 810.1 142.5 3.1 142.5 1.05 142.3 0.0 141.75 Q0.0 141.45 1.05 141.25 L3.1 141.0 810.1 141.0 812.35 141.25 M812.35 139.3 L810.1 139.5 3.1 139.5 1.05 139.3 0.0 138.75 Q0.0 138.45 1.05 138.25 L3.1 138.0 810.1 138.0 812.35 138.25 Q813.15 138.45 813.15 138.75 L812.35 139.3 M812.35 135.25 Q813.15 135.45 813.15 135.75 L812.35 136.3 810.1 136.5 3.1 136.5 1.05 136.3 0.0 135.75 Q0.0 135.45 1.05 135.25 L3.1 135.0 810.1 135.0 812.35 135.25 M812.35 133.3 L810.1 133.5 3.1 133.5 1.05 133.3 0.0 132.75 Q0.0 132.45 1.05 132.25 L3.1 132.0 810.1 132.0 812.35 132.25 Q813.15 132.45 813.15 132.75 L812.35 133.3 M813.15 126.75 L812.35 127.3 810.1 127.5 3.1 127.5 1.05 127.3 0.0 126.75 Q0.0 126.45 1.05 126.25 L3.1 126.0 810.1 126.0 812.35 126.25 Q813.15 126.45 813.15 126.75 M812.35 129.25 Q813.15 129.45 813.15 129.75 L812.35 130.3 810.1 130.5 3.1 130.5 1.05 130.3 0.0 129.75 Q0.0 129.45 1.05 129.25 L3.1 129.0 810.1 129.0 812.35 129.25 M813.15 120.75 L812.35 121.3 810.1 121.5 3.1 121.5 1.05 121.3 0.0 120.75 Q0.0 120.45 1.05 120.25 L3.1 120.0 810.1 120.0 812.35 120.25 Q813.15 120.45 813.15 120.75 M810.1 123.0 L812.35 123.25 Q813.15 123.45 813.15 123.75 L812.35 124.3 810.1 124.5 3.1 124.5 1.05 124.3 0.0 123.75 Q0.0 123.45 1.05 123.25 L3.1 123.0 810.1 123.0 M810.1 114.0 L812.35 114.25 Q813.15 114.45 813.15 114.75 L812.35 115.3 810.1 115.5 3.1 115.5 1.05 115.3 0.0 114.75 Q0.0 114.45 1.05 114.25 L3.1 114.0 810.1 114.0 M810.1 117.0 L812.35 117.25 Q813.15 117.45 813.15 117.75 L812.35 118.3 810.1 118.5 3.1 118.5 1.05 118.3 0.0 117.75 Q0.0 117.45 1.05 117.25 L3.1 117.0 810.1 117.0 M812.35 105.25 Q813.15 105.45 813.15 105.75 L812.35 106.3 810.1 106.5 3.1 106.5 1.05 106.3 0.0 105.75 Q0.0 105.45 1.05 105.25 L3.1 105.0 810.1 105.0 812.35 105.25 M810.1 111.0 L812.35 111.25 Q813.15 111.45 813.15 111.75 L812.35 112.3 810.1 112.5 3.1 112.5 1.05 112.3 0.0 111.75 Q0.0 111.45 1.05 111.25 L3.1 111.0 810.1 111.0 M812.35 109.3 L810.1 109.5 3.1 109.5 1.05 109.3 0.0 108.75 Q0.0 108.45 1.05 108.25 L3.1 108.0 810.1 108.0 812.35 108.25 Q813.15 108.45 813.15 108.75 L812.35 109.3 M813.15 102.75 L812.35 103.3 810.1 103.5 3.1 103.5 1.05 103.3 0.0 102.75 Q0.0 102.45 1.05 102.25 L3.1 102.0 810.1 102.0 812.35 102.25 Q813.15 102.45 813.15 102.75 M810.1 99.0 L812.35 99.25 Q813.15 99.45 813.15 99.75 L812.35 100.3 810.1 100.5 3.1 100.5 1.05 100.3 0.0 99.75 Q0.0 99.45 1.05 99.25 L3.1 99.0 810.1 99.0 M812.35 96.25 Q813.15 96.45 813.15 96.75 L812.35 97.3 810.1 97.5 3.1 97.5 1.05 97.3 0.0 96.75 Q0.0 96.45 1.05 96.25 L3.1 96.0 810.1 96.0 812.35 96.25 M810.1 93.0 L812.35 93.25 Q813.15 93.45 813.15 93.75 L812.35 94.3 810.1 94.5 3.1 94.5 1.05 94.3 0.0 93.75 Q0.0 93.45 1.05 93.25 L3.1 93.0 810.1 93.0 M813.15 90.75 L812.35 91.3 810.1 91.5 3.1 91.5 1.05 91.3 0.0 90.75 Q0.0 90.45 1.05 90.25 L3.1 90.0 810.1 90.0 812.35 90.25 Q813.15 90.45 813.15 90.75 M812.35 88.3 L810.1 88.5 3.1 88.5 1.05 88.3 0.0 87.75 Q0.0 87.45 1.05 87.25 L3.1 87.0 810.1 87.0 812.35 87.25 Q813.15 87.45 813.15 87.75 L812.35 88.3 M810.1 84.0 L812.35 84.25 Q813.15 84.45 813.15 84.75 L812.35 85.3 810.1 85.5 3.1 85.5 1.05 85.3 0.0 84.75 Q0.0 84.45 1.05 84.25 L3.1 84.0 810.1 84.0 M812.35 81.25 Q813.15 81.45 813.15 81.75 L812.35 82.3 810.1 82.5 3.1 82.5 1.05 82.3 0.0 81.75 Q0.0 81.45 1.05 81.25 L3.1 81.0 810.1 81.0 812.35 81.25 M810.1 78.0 L812.35 78.25 Q813.15 78.45 813.15 78.75 L812.35 79.3 810.1 79.5 3.1 79.5 1.05 79.3 0.0 78.75 Q0.0 78.45 1.05 78.25 L3.1 78.0 810.1 78.0 M812.35 76.3 L810.1 76.5 3.1 76.5 1.05 76.3 0.0 75.75 Q0.0 75.45 1.05 75.25 L3.1 75.0 810.1 75.0 812.35 75.25 Q813.15 75.45 813.15 75.75 L812.35 76.3 M812.35 69.25 Q813.15 69.45 813.15 69.75 L812.35 70.3 810.1 70.5 3.1 70.5 1.05 70.3 0.0 69.75 Q0.0 69.45 1.05 69.25 L3.1 69.0 810.1 69.0 812.35 69.25 M813.15 72.75 L812.35 73.3 810.1 73.5 3.1 73.5 1.05 73.3 0.0 72.75 Q0.0 72.45 1.05 72.25 L3.1 72.0 810.1 72.0 812.35 72.25 Q813.15 72.45 813.15 72.75 M813.15 63.75 L812.35 64.3 810.1 64.5 3.1 64.5 1.05 64.3 0.0 63.75 Q0.0 63.45 1.05 63.25 L3.1 63.0 810.1 63.0 812.35 63.25 Q813.15 63.45 813.15 63.75 M812.35 66.25 Q813.15 66.45 813.15 66.75 L812.35 67.3 810.1 67.5 3.1 67.5 1.05 67.3 0.0 66.75 Q0.0 66.45 1.05 66.25 L3.1 66.0 810.1 66.0 812.35 66.25 M813.15 60.75 L812.35 61.3 810.1 61.5 3.1 61.5 1.05 61.3 0.0 60.75 Q0.0 60.45 1.05 60.25 L3.1 60.0 810.1 60.0 812.35 60.25 Q813.15 60.45 813.15 60.75 M812.35 58.3 L810.1 58.5 3.1 58.5 1.05 58.3 0.0 57.75 Q0.0 57.45 1.05 57.25 L3.1 57.0 810.1 57.0 812.35 57.25 Q813.15 57.45 813.15 57.75 L812.35 58.3 M812.35 52.3 L810.1 52.5 3.1 52.5 1.05 52.3 0.0 51.75 Q0.0 51.45 1.05 51.25 L3.1 51.0 810.1 51.0 812.35 51.25 Q813.15 51.45 813.15 51.75 L812.35 52.3 M812.35 54.25 Q813.15 54.45 813.15 54.75 L812.35 55.3 810.1 55.5 3.1 55.5 1.05 55.3 0.0 54.75 Q0.0 54.45 1.05 54.25 L3.1 54.0 810.1 54.0 812.35 54.25 M810.1 45.0 L812.35 45.25 Q813.15 45.45 813.15 45.75 L812.35 46.3 810.1 46.5 3.1 46.5 1.05 46.3 0.0 45.75 Q0.0 45.45 1.05 45.25 L3.1 45.0 810.1 45.0 M812.35 48.25 Q813.15 48.45 813.15 48.75 L812.35 49.3 810.1 49.5 3.1 49.5 1.05 49.3 0.0 48.75 Q0.0 48.45 1.05 48.25 L3.1 48.0 810.1 48.0 812.35 48.25 M812.35 40.3 L810.1 40.5 3.1 40.5 1.05 40.3 0.0 39.75 Q0.0 39.45 1.05 39.25 L3.1 39.0 810.1 39.0 812.35 39.25 Q813.15 39.45 813.15 39.75 L812.35 40.3 M812.35 42.25 Q813.15 42.45 813.15 42.75 L812.35 43.3 810.1 43.5 3.1 43.5 1.05 43.3 0.0 42.75 Q0.0 42.45 1.05 42.25 L3.1 42.0 810.1 42.0 812.35 42.25 M812.35 36.25 Q813.15 36.45 813.15 36.75 L812.35 37.3 810.1 37.5 3.1 37.5 1.05 37.3 0.0 36.75 Q0.0 36.45 1.05 36.25 L3.1 36.0 810.1 36.0 812.35 36.25 M813.15 33.75 L812.35 34.3 810.1 34.5 3.1 34.5 1.05 34.3 0.0 33.75 Q0.0 33.45 1.05 33.25 L3.1 33.0 810.1 33.0 812.35 33.25 Q813.15 33.45 813.15 33.75 M812.35 30.25 Q813.15 30.45 813.15 30.75 L812.35 31.3 810.1 31.5 3.1 31.5 1.05 31.3 0.0 30.75 Q0.0 30.45 1.05 30.25 L3.1 30.0 810.1 30.0 812.35 30.25 M812.35 28.3 L810.1 28.5 3.1 28.5 1.05 28.3 0.0 27.75 Q0.0 27.45 1.05 27.25 L3.1 27.0 810.1 27.0 812.35 27.25 Q813.15 27.45 813.15 27.75 L812.35 28.3 M810.1 21.0 L812.35 21.25 Q813.15 21.45 813.15 21.75 L812.35 22.3 810.1 22.5 3.1 22.5 1.05 22.3 0.0 21.75 Q0.0 21.45 1.05 21.25 L3.1 21.0 810.1 21.0 M810.1 24.0 L812.35 24.25 Q813.15 24.45 813.15 24.75 L812.35 25.3 810.1 25.5 3.1 25.5 1.05 25.3 0.0 24.75 Q0.0 24.45 1.05 24.25 L3.1 24.0 810.1 24.0 M810.1 18.0 L812.35 18.25 Q813.15 18.45 813.15 18.75 L812.35 19.3 810.1 19.5 3.1 19.5 1.05 19.3 0.0 18.75 Q0.0 18.45 1.05 18.25 L3.1 18.0 810.1 18.0 M812.35 16.3 L810.1 16.5 3.1 16.5 1.05 16.3 0.0 15.75 Q0.0 15.45 1.05 15.25 L3.1 15.0 810.1 15.0 812.35 15.25 Q813.15 15.45 813.15 15.75 L812.35 16.3 M812.35 6.25 Q813.15 6.45 813.15 6.75 L812.35 7.3 810.1 7.5 3.1 7.5 1.05 7.3 0.0 6.75 Q0.0 6.45 1.05 6.25 L3.1 6.0 810.1 6.0 812.35 6.25 M810.1 12.0 L812.35 12.25 Q813.15 12.45 813.15 12.75 L812.35 13.3 810.1 13.5 3.1 13.5 1.05 13.3 0.0 12.75 Q0.0 12.45 1.05 12.25 L3.1 12.0 810.1 12.0 M812.35 10.3 L810.1 10.5 3.1 10.5 1.05 10.3 0.0 9.75 Q0.0 9.45 1.05 9.25 L3.1 9.0 810.1 9.0 812.35 9.25 Q813.15 9.45 813.15 9.75 L812.35 10.3 M812.35 3.25 Q813.15 3.45 813.15 3.75 L812.35 4.3 810.1 4.5 3.1 4.5 1.05 4.3 0.0 3.75 Q0.0 3.45 1.05 3.25 L3.1 3.0 810.1 3.0 812.35 3.25 M812.35 0.25 Q813.15 0.45 813.15 0.75 L812.35 1.3 810.1 1.5 3.1 1.5 1.05 1.3 0.0 0.75 Q0.0 0.45 1.05 0.25 L2.8 0.0 810.4 0.0 812.35 0.25" fill="#000000" fill-opacity="0.4" fill-rule="evenodd" stroke="none"/>
  </g>
  <defs>
    <radialGradient cx="0" cy="0" gradientTransform="matrix(0.6189, 0.0, 0.0, 0.6189, 402.0, 275.0)" gradientUnits="userSpaceOnUse" id="gradient0" r="819.2" spreadMethod="pad">
      <stop offset="0.0" stop-color="#650000"/>
      <stop offset="0.48627450980392156" stop-color="#000000"/>
    </radialGradient>
  </defs>
</svg>
