<?xml version="1.0" encoding="UTF-8" standalone="no"?>
<svg xmlns:xlink="http://www.w3.org/1999/xlink" height="17.15px" width="234.4px" xmlns="http://www.w3.org/2000/svg">
  <g transform="matrix(1.0, 0.0, 0.0, 1.0, 198.1, -1.15)">
    <path d="M-198.1 4.2 L31.3 4.2 31.3 15.5 -198.1 15.5 -198.1 4.2" fill="url(#gradient0)" fill-rule="evenodd" stroke="none"/>
    <path d="M35.3 2.15 L35.3 17.3 2.75 17.3 2.75 2.15 35.3 2.15" fill="#000000" fill-rule="evenodd" stroke="none"/>
    <path d="M29.1 2.15 L35.3 2.15 35.3 17.3 29.1 17.3 M9.05 17.3 L2.75 17.3 2.75 2.15 9.05 2.15" fill="none" stroke="#c51414" stroke-linecap="square" stroke-linejoin="miter" stroke-width="1.5"/>
    <path d="M12.65 6.75 L9.95 6.75 9.95 8.95 12.65 8.95 12.65 6.75 M8.1 5.25 L13.2 5.25 14.45 6.3 14.45 9.45 13.2 10.5 14.8 13.8 12.7 13.8 11.2 10.5 9.95 10.5 9.95 13.8 8.1 13.8 8.1 5.25 M17.7 8.8 L20.8 8.8 20.8 10.3 17.7 10.3 17.7 12.35 22.25 12.35 22.25 13.8 15.85 13.8 15.85 5.25 22.25 5.25 22.25 6.75 17.7 6.75 17.7 8.8 M28.05 6.75 L25.4 6.75 25.4 12.35 28.05 12.35 28.05 6.75 M28.65 5.25 L29.95 6.3 29.95 12.7 28.65 13.8 23.5 13.8 23.5 5.25 28.65 5.25" fill="#d90000" fill-rule="evenodd" stroke="none"/>
  </g>
  <defs>
    <linearGradient gradientTransform="matrix(0.14, 0.0, 0.0, 0.0069, -83.35, 9.85)" gradientUnits="userSpaceOnUse" id="gradient0" spreadMethod="pad" x1="-819.2" x2="819.2">
      <stop offset="0.0" stop-color="#000000" stop-opacity="0.8"/>
      <stop offset="1.0" stop-color="#cc0000" stop-opacity="0.8"/>
    </linearGradient>
  </defs>
</svg>
