<?xml version="1.0" encoding="UTF-8" standalone="no"?>
<svg xmlns:xlink="http://www.w3.org/1999/xlink" height="16.25px" width="20.2px" xmlns="http://www.w3.org/2000/svg">
  <g transform="matrix(1.0, 0.0, 0.0, 1.0, 14.0, 0.0)">
    <path d="M2.2 0.0 Q2.05 4.6 0.2 7.3 -1.1 9.2 -2.85 9.6 -3.45 12.25 -2.85 14.6 -1.6 14.8 -0.35 15.65 L-0.35 16.25 -7.2 16.25 -7.2 15.65 Q-5.9 14.85 -4.65 14.6 -4.0 12.35 -4.65 9.7 -6.6 9.4 -8.0 7.3 -9.9 4.6 -10.05 0.0 L2.2 0.0" fill="#ffdd54" fill-rule="evenodd" stroke="none"/>
    <path d="M3.3 3.2 L3.05 3.85 2.4 4.1 1.75 3.85 1.5 3.2 Q1.5 2.85 1.75 2.6 L1.95 2.45 1.7 2.5 1.75 2.0 3.65 1.7 Q5.1 1.8 5.8 2.8 6.5 3.8 6.0 5.05 5.45 6.25 4.0 7.1 2.55 7.9 1.05 7.8 L0.95 7.8 1.2 8.4 0.9 9.0 0.3 9.25 -0.35 9.0 -0.6 8.4 -0.35 7.75 -0.05 7.55 -0.15 7.5 0.0 7.3 0.7 7.4 Q1.95 7.5 3.15 6.8 4.35 6.15 4.8 5.1 5.3 4.05 4.7 3.3 4.1 2.5 2.9 2.4 L2.8 2.4 3.05 2.6 3.3 3.2" fill="#ffdd54" fill-rule="evenodd" stroke="none"/>
    <path d="M-11.1 3.2 L-10.8 2.6 -10.6 2.4 -10.7 2.4 Q-11.9 2.5 -12.45 3.3 -13.05 4.05 -12.6 5.1 -12.15 6.15 -10.95 6.8 -9.7 7.5 -8.5 7.4 L-7.75 7.3 -7.65 7.5 -7.75 7.55 -7.45 7.75 Q-7.15 8.0 -7.15 8.4 -7.15 8.75 -7.45 9.0 L-8.05 9.25 -8.7 9.0 -8.95 8.4 -8.7 7.8 -8.8 7.8 Q-10.3 7.9 -11.75 7.1 -13.25 6.25 -13.75 5.05 -14.3 3.8 -13.6 2.8 -12.9 1.8 -11.4 1.7 L-9.55 2.0 -9.5 2.5 -9.7 2.45 -9.55 2.6 Q-9.3 2.85 -9.3 3.2 -9.3 3.6 -9.55 3.85 L-10.2 4.1 -10.8 3.85 -11.1 3.2" fill="#ffdd54" fill-rule="evenodd" stroke="none"/>
  </g>
</svg>
