<?xml version="1.0" encoding="UTF-8" standalone="no"?>
<svg xmlns:xlink="http://www.w3.org/1999/xlink" height="16.25px" width="20.2px" xmlns="http://www.w3.org/2000/svg">
  <g transform="matrix(1.0, 0.0, 0.0, 1.0, -15.4, -4.85)">
    <path d="M31.6 4.85 Q31.45 9.45 29.6 12.15 28.3 14.05 26.55 14.45 25.95 17.1 26.55 19.45 27.8 19.65 29.05 20.5 L29.05 21.1 22.2 21.1 22.2 20.5 Q23.5 19.7 24.75 19.45 25.4 17.2 24.75 14.55 22.8 14.25 21.4 12.15 19.5 9.45 19.35 4.85 L31.6 4.85" fill="#ffdd54" fill-rule="evenodd" stroke="none"/>
    <path d="M32.7 8.05 L32.45 8.7 31.8 8.95 31.15 8.7 Q30.9 8.45 30.9 8.05 30.9 7.7 31.15 7.45 L31.35 7.3 31.1 7.35 31.15 6.85 33.05 6.55 Q34.5 6.65 35.2 7.65 35.9 8.65 35.4 9.9 34.85 11.1 33.4 11.95 31.95 12.75 30.45 12.65 L30.35 12.65 30.6 13.25 30.3 13.85 29.7 14.1 29.05 13.85 28.8 13.25 Q28.8 12.85 29.05 12.6 L29.35 12.4 29.25 12.35 29.4 12.15 30.1 12.25 Q31.35 12.35 32.55 11.65 33.75 11.0 34.2 9.95 34.7 8.9 34.1 8.15 33.5 7.35 32.3 7.25 L32.2 7.25 32.45 7.45 32.7 8.05" fill="#ffdd54" fill-rule="evenodd" stroke="none"/>
    <path d="M18.3 8.05 Q18.3 7.7 18.6 7.45 L18.8 7.25 18.7 7.25 Q17.5 7.35 16.95 8.15 16.35 8.9 16.8 9.95 17.25 11.0 18.45 11.65 19.7 12.35 20.9 12.25 L21.65 12.15 21.75 12.35 21.65 12.4 21.95 12.6 Q22.25 12.85 22.25 13.25 L21.95 13.85 21.35 14.1 20.7 13.85 20.45 13.25 Q20.45 12.9 20.7 12.65 L20.6 12.65 Q19.1 12.75 17.65 11.95 16.15 11.1 15.65 9.9 15.1 8.65 15.8 7.65 16.5 6.65 18.0 6.55 L19.85 6.85 19.9 7.35 19.7 7.3 19.85 7.45 20.1 8.05 19.85 8.7 19.2 8.95 18.6 8.7 Q18.3 8.45 18.3 8.05" fill="#ffdd54" fill-rule="evenodd" stroke="none"/>
  </g>
</svg>
