<?xml version="1.0" encoding="UTF-8" standalone="no"?>
<svg xmlns:xlink="http://www.w3.org/1999/xlink" height="34.95px" width="25.55px" xmlns="http://www.w3.org/2000/svg">
  <g transform="matrix(1.0, 0.0, 0.0, 1.0, 13.75, 17.45)">
    <path d="M-12.75 -16.45 L-6.65 -16.45 -6.65 -16.35 Q-6.65 -13.9 -4.95 -12.2 -3.2 -10.45 -0.75 -10.45 1.7 -10.45 3.4 -12.2 5.15 -13.9 5.15 -16.35 L5.15 -16.45 10.8 -16.45 10.8 16.5 5.15 16.5 5.15 16.4 Q5.15 13.95 3.4 12.2 1.7 10.5 -0.75 10.5 -3.2 10.5 -4.95 12.2 -6.65 13.95 -6.65 16.4 L-6.65 16.5 -12.75 16.5 -12.75 -16.45" fill="#2a2a2a" fill-rule="evenodd" stroke="none"/>
    <path d="M-12.75 -16.45 L-6.65 -16.45 -6.65 -16.35 Q-6.65 -13.9 -4.95 -12.2 -3.2 -10.45 -0.75 -10.45 1.7 -10.45 3.4 -12.2 5.15 -13.9 5.15 -16.35 L5.15 -16.45 10.8 -16.45 10.8 16.5 5.15 16.5 5.15 16.4 Q5.15 13.95 3.4 12.2 1.7 10.5 -0.75 10.5 -3.2 10.5 -4.95 12.2 -6.65 13.95 -6.65 16.4 L-6.65 16.5 -12.75 16.5 -12.75 -16.45 Z" fill="none" stroke="url(#gradient0)" stroke-linecap="round" stroke-linejoin="round" stroke-width="2.0"/>
  </g>
  <defs>
    <linearGradient gradientTransform="matrix(0.0053, -0.0207, 0.0207, 0.0053, -1.0, 0.0)" gradientUnits="userSpaceOnUse" id="gradient0" spreadMethod="pad" x1="-819.2" x2="819.2">
      <stop offset="0.0" stop-color="#939393"/>
      <stop offset="0.5647058823529412" stop-color="#bdbdbd"/>
      <stop offset="1.0" stop-color="#939393"/>
    </linearGradient>
  </defs>
</svg>
