<?xml version="1.0" encoding="UTF-8" standalone="no"?>
<svg xmlns:xlink="http://www.w3.org/1999/xlink" height="529.5px" width="532.35px" xmlns="http://www.w3.org/2000/svg">
  <g transform="matrix(1.0, 0.0, 0.0, 1.0, 76.4, 113.35)">
    <path d="M183.1 -89.8 L193.65 -100.5 197.05 -103.9 205.4 -112.25 221.4 -112.25 375.6 -112.25 397.95 -89.45 398.1 -89.3 398.15 -89.25 398.5 -89.25 400.85 -89.25 401.2 -89.25 436.2 -89.25 436.2 -57.95 436.2 408.15 435.85 408.55 431.5 413.15 428.7 416.15 -76.05 416.15 -76.05 399.55 -76.05 38.7 -76.05 -52.7 -76.05 -57.95 -76.05 -81.2 -75.65 -81.6 -73.8 -83.55 -71.55 -85.9 -71.95 -85.55 -70.75 -86.75 -68.45 -89.25 182.4 -89.25 182.95 -89.75 182.95 -89.8 185.4 -92.25 184.4 -91.15 183.1 -89.8 M435.85 -57.05 L435.85 408.55 435.85 -57.05 435.85 -88.35 435.85 -57.05" fill="url(#gradient0)" fill-rule="evenodd" stroke="none"/>
    <path d="M431.5 413.15 L447.7 413.15 455.2 405.15" fill="none" stroke="url(#gradient1)" stroke-linecap="round" stroke-linejoin="round" stroke-width="1.5"/>
    <path d="M375.3 -112.6 L205.1 -112.6" fill="none" stroke="url(#gradient2)" stroke-linecap="round" stroke-linejoin="round" stroke-width="1.5"/>
    <path d="M398.5 -89.25 L398.45 -89.3 375.95 -112.3" fill="none" stroke="url(#gradient3)" stroke-linecap="round" stroke-linejoin="round" stroke-width="1.5"/>
    <path d="M398.45 -89.3 L398.1 -89.3 397.95 -89.45 M400.85 -89.25 L398.45 -89.3" fill="none" stroke="url(#gradient4)" stroke-linecap="round" stroke-linejoin="round" stroke-width="1.5"/>
    <path d="M436.2 -89.25 L401.2 -89.25" fill="none" stroke="url(#gradient5)" stroke-linecap="round" stroke-linejoin="round" stroke-width="1.5"/>
    <path d="M435.85 -57.05 L435.85 -88.35" fill="none" stroke="url(#gradient6)" stroke-linecap="round" stroke-linejoin="round" stroke-width="1.5"/>
    <path d="M435.85 408.55 L435.85 -57.05" fill="none" stroke="url(#gradient7)" stroke-linecap="round" stroke-linejoin="round" stroke-width="1.5"/>
    <path d="M182.95 -89.75 L-68.1 -90.0" fill="none" stroke="url(#gradient8)" stroke-linecap="round" stroke-linejoin="round" stroke-width="1.5"/>
    <path d="M-73.8 -83.55 L-75.65 -81.6 M-68.1 -90.0 L-73.8 -83.55" fill="none" stroke="url(#gradient9)" stroke-linecap="round" stroke-linejoin="round" stroke-width="1.5"/>
    <path d="M183.1 -89.8 L184.4 -91.15 M205.1 -112.6 L184.4 -91.15" fill="none" stroke="url(#gradient10)" stroke-linecap="round" stroke-linejoin="round" stroke-width="1.5"/>
  </g>
  <defs>
    <linearGradient gradientTransform="matrix(-1.0E-4, 0.3115, -0.1437, 0.0, 227.95, 150.75)" gradientUnits="userSpaceOnUse" id="gradient0" spreadMethod="pad" x1="-819.2" x2="819.2">
      <stop offset="0.0" stop-color="#260000"/>
      <stop offset="1.0" stop-color="#000000" stop-opacity="0.0"/>
    </linearGradient>
    <linearGradient gradientTransform="matrix(-0.0464, 0.1874, -0.0654, -0.0162, 135.4, 34.95)" gradientUnits="userSpaceOnUse" id="gradient1" spreadMethod="pad" x1="-819.2" x2="819.2">
      <stop offset="0.0" stop-color="#b50000"/>
      <stop offset="0.5803921568627451" stop-color="#200000"/>
      <stop offset="1.0" stop-color="#b50000" stop-opacity="0.0"/>
    </linearGradient>
    <linearGradient gradientTransform="matrix(-0.0464, 0.1874, -0.0654, -0.0162, 116.1, 37.6)" gradientUnits="userSpaceOnUse" id="gradient2" spreadMethod="pad" x1="-819.2" x2="819.2">
      <stop offset="0.0" stop-color="#b50000"/>
      <stop offset="0.5803921568627451" stop-color="#200000"/>
      <stop offset="1.0" stop-color="#b50000" stop-opacity="0.0"/>
    </linearGradient>
    <linearGradient gradientTransform="matrix(-0.0464, 0.1874, -0.0654, -0.0162, 116.75, 37.9)" gradientUnits="userSpaceOnUse" id="gradient3" spreadMethod="pad" x1="-819.2" x2="819.2">
      <stop offset="0.0" stop-color="#b50000"/>
      <stop offset="0.5803921568627451" stop-color="#200000"/>
      <stop offset="1.0" stop-color="#b50000" stop-opacity="0.0"/>
    </linearGradient>
    <linearGradient gradientTransform="matrix(-0.0464, 0.1874, -0.0654, -0.0162, 116.05, 37.9)" gradientUnits="userSpaceOnUse" id="gradient4" spreadMethod="pad" x1="-819.2" x2="819.2">
      <stop offset="0.0" stop-color="#b50000"/>
      <stop offset="0.5803921568627451" stop-color="#200000"/>
      <stop offset="1.0" stop-color="#b50000" stop-opacity="0.0"/>
    </linearGradient>
    <linearGradient gradientTransform="matrix(-0.0464, 0.1874, -0.0654, -0.0162, 116.4, 37.9)" gradientUnits="userSpaceOnUse" id="gradient5" spreadMethod="pad" x1="-819.2" x2="819.2">
      <stop offset="0.0" stop-color="#b50000"/>
      <stop offset="0.5803921568627451" stop-color="#200000"/>
      <stop offset="1.0" stop-color="#b50000" stop-opacity="0.0"/>
    </linearGradient>
    <linearGradient gradientTransform="matrix(-0.0464, 0.1874, -0.0654, -0.0162, 116.05, 38.85)" gradientUnits="userSpaceOnUse" id="gradient6" spreadMethod="pad" x1="-819.2" x2="819.2">
      <stop offset="0.0" stop-color="#b50000"/>
      <stop offset="0.5803921568627451" stop-color="#200000"/>
      <stop offset="1.0" stop-color="#b50000" stop-opacity="0.0"/>
    </linearGradient>
    <linearGradient gradientTransform="matrix(-0.0464, 0.1874, -0.0654, -0.0162, 116.05, 38.55)" gradientUnits="userSpaceOnUse" id="gradient7" spreadMethod="pad" x1="-819.2" x2="819.2">
      <stop offset="0.0" stop-color="#b50000"/>
      <stop offset="0.5803921568627451" stop-color="#200000"/>
      <stop offset="1.0" stop-color="#b50000" stop-opacity="0.0"/>
    </linearGradient>
    <linearGradient gradientTransform="matrix(-0.0464, 0.1874, -0.0654, -0.0162, 132.8, 37.3)" gradientUnits="userSpaceOnUse" id="gradient8" spreadMethod="pad" x1="-819.2" x2="819.2">
      <stop offset="0.0" stop-color="#b50000"/>
      <stop offset="0.5803921568627451" stop-color="#200000"/>
      <stop offset="1.0" stop-color="#b50000" stop-opacity="0.0"/>
    </linearGradient>
    <linearGradient gradientTransform="matrix(-0.0464, 0.1874, -0.0654, -0.0162, 116.75, 37.2)" gradientUnits="userSpaceOnUse" id="gradient9" spreadMethod="pad" x1="-819.2" x2="819.2">
      <stop offset="0.0" stop-color="#b50000"/>
      <stop offset="0.5803921568627451" stop-color="#200000"/>
      <stop offset="1.0" stop-color="#b50000" stop-opacity="0.0"/>
    </linearGradient>
    <linearGradient gradientTransform="matrix(-0.0464, 0.1874, -0.0654, -0.0162, 116.1, 37.65)" gradientUnits="userSpaceOnUse" id="gradient10" spreadMethod="pad" x1="-819.2" x2="819.2">
      <stop offset="0.0" stop-color="#b50000"/>
      <stop offset="0.5803921568627451" stop-color="#200000"/>
      <stop offset="1.0" stop-color="#b50000" stop-opacity="0.0"/>
    </linearGradient>
  </defs>
</svg>
