<?xml version="1.0" encoding="UTF-8" standalone="no"?>
<svg xmlns:xlink="http://www.w3.org/1999/xlink" height="417.95px" width="425.7px" xmlns="http://www.w3.org/2000/svg">
  <g transform="matrix(1.0, 0.0, 0.0, 1.0, 110.25, 68.0)">
    <path d="M-109.0 -68.0 L315.45 -68.0 315.45 202.05 -109.0 202.05 -109.0 -68.0" fill="#000000" fill-rule="evenodd" stroke="none"/>
    <path d="M-109.0 65.6 L315.45 65.6 315.45 97.6 -109.0 97.6 -109.0 65.6" fill="url(#gradient0)" fill-rule="evenodd" stroke="none"/>
    <path d="M-109.0 31.5 L315.45 31.5 315.45 63.5 -109.0 63.5 -109.0 31.5" fill="url(#gradient1)" fill-rule="evenodd" stroke="none"/>
    <path d="M-109.0 100.0 L315.45 100.0 315.45 132.0 -109.0 132.0 -109.0 100.0" fill="url(#gradient2)" fill-rule="evenodd" stroke="none"/>
    <path d="M-109.0 133.95 L315.45 133.95 315.45 165.95 -109.0 165.95 -109.0 133.95" fill="url(#gradient3)" fill-rule="evenodd" stroke="none"/>
    <path d="M-109.0 168.5 L315.45 168.5 315.45 200.5 -109.0 200.5 -109.0 168.5" fill="url(#gradient4)" fill-rule="evenodd" stroke="none"/>
    <path d="M-109.0 200.85 L-109.0 -68.0 315.45 -68.0 315.45 202.05 314.2 202.05 314.2 200.85 -109.0 200.85" fill="url(#gradient5)" fill-rule="evenodd" stroke="none"/>
    <path d="M314.2 202.05 L314.2 349.95 -110.25 349.95 -110.25 200.85 -109.0 200.85 314.2 200.85 314.2 202.05" fill="#000000" fill-rule="evenodd" stroke="none"/>
  </g>
  <defs>
    <linearGradient gradientTransform="matrix(0.0, 0.0201, -0.0185, 0.0, 103.2, 81.6)" gradientUnits="userSpaceOnUse" id="gradient0" spreadMethod="pad" x1="-819.2" x2="819.2">
      <stop offset="0.0" stop-color="#000000"/>
      <stop offset="1.0" stop-color="#333333"/>
    </linearGradient>
    <linearGradient gradientTransform="matrix(0.0, 0.0201, -0.0185, 0.0, 103.2, 47.5)" gradientUnits="userSpaceOnUse" id="gradient1" spreadMethod="pad" x1="-819.2" x2="819.2">
      <stop offset="0.0" stop-color="#000000"/>
      <stop offset="1.0" stop-color="#213b42"/>
    </linearGradient>
    <linearGradient gradientTransform="matrix(0.0, 0.0201, -0.0185, 0.0, 103.2, 116.0)" gradientUnits="userSpaceOnUse" id="gradient2" spreadMethod="pad" x1="-819.2" x2="819.2">
      <stop offset="0.0" stop-color="#000000"/>
      <stop offset="1.0" stop-color="#342900"/>
    </linearGradient>
    <linearGradient gradientTransform="matrix(0.0, 0.0201, -0.0185, 0.0, 103.2, 149.95)" gradientUnits="userSpaceOnUse" id="gradient3" spreadMethod="pad" x1="-819.2" x2="819.2">
      <stop offset="0.0" stop-color="#000000"/>
      <stop offset="1.0" stop-color="#1a1a1a"/>
    </linearGradient>
    <linearGradient gradientTransform="matrix(0.0, 0.0201, -0.0185, 0.0, 103.2, 184.5)" gradientUnits="userSpaceOnUse" id="gradient4" spreadMethod="pad" x1="-819.2" x2="819.2">
      <stop offset="0.0" stop-color="#000000"/>
      <stop offset="1.0" stop-color="#3c2705"/>
    </linearGradient>
    <linearGradient gradientTransform="matrix(-0.0803, 0.0, 0.0, -0.1648, 237.8, 70.6)" gradientUnits="userSpaceOnUse" id="gradient5" spreadMethod="pad" x1="-819.2" x2="819.2">
      <stop offset="0.0" stop-color="#000000"/>
      <stop offset="1.0" stop-color="#000000" stop-opacity="0.0"/>
    </linearGradient>
  </defs>
</svg>
