<?xml version="1.0" encoding="UTF-8" standalone="no"?>
<svg xmlns:xlink="http://www.w3.org/1999/xlink" height="32.2px" width="146.35px" xmlns="http://www.w3.org/2000/svg">
  <g transform="matrix(1.0, 0.0, 0.0, 1.0, 2.7, 19.7)">
    <path d="M69.25 -19.7 L73.45 -19.7 71.35 -14.55 69.25 -19.7 M70.75 -12.35 L72.35 -12.35 72.35 12.5 70.75 12.5 70.75 -12.35" fill="#ffcc00" fill-rule="evenodd" stroke="none"/>
    <path d="M112.95 -19.7 L117.15 -19.7 115.05 -14.55 112.95 -19.7 M114.5 -12.35 L116.1 -12.35 116.1 12.5 114.5 12.5 114.5 -12.35" fill="#ffffff" fill-rule="evenodd" stroke="none"/>
    <path d="M139.5 -19.7 L143.65 -19.7 141.55 -14.55 139.5 -19.7 M141.1 -12.35 L142.7 -12.35 142.7 12.5 141.1 12.5 141.1 -12.35" fill="#00ccff" fill-rule="evenodd" stroke="none"/>
    <path d="M-1.25 -12.35 L0.35 -12.35 0.35 12.5 -1.25 12.5 -1.25 -12.35 M-2.7 -19.7 L1.5 -19.7 -0.6 -14.55 -2.7 -19.7" fill="#999999" fill-rule="evenodd" stroke="none"/>
  </g>
</svg>
