<?xml version="1.0" encoding="UTF-8" standalone="no"?>
<svg xmlns:xlink="http://www.w3.org/1999/xlink" height="16.85px" width="82.35px" xmlns="http://www.w3.org/2000/svg">
  <g transform="matrix(1.0, 0.0, 0.0, 1.0, -9.05, -4.4)">
    <path d="M14.55 4.9 L85.9 4.9 Q90.9 4.9 90.9 9.9 L90.9 15.75 Q90.9 20.75 85.9 20.75 L14.55 20.75 Q9.55 20.75 9.55 15.75 L9.55 9.9 Q9.55 4.9 14.55 4.9" fill="url(#gradient0)" fill-rule="evenodd" stroke="none"/>
    <path d="M14.55 4.9 L85.9 4.9 Q90.9 4.9 90.9 9.9 L90.9 15.75 Q90.9 20.75 85.9 20.75 L14.55 20.75 Q9.55 20.75 9.55 15.75 L9.55 9.9 Q9.55 4.9 14.55 4.9 Z" fill="none" stroke="url(#gradient1)" stroke-linecap="round" stroke-linejoin="round" stroke-width="1.0"/>
  </g>
  <defs>
    <linearGradient gradientTransform="matrix(0.0313, 0.0, 0.0, 0.0158, 50.2, 12.8)" gradientUnits="userSpaceOnUse" id="gradient0" spreadMethod="pad" x1="-819.2" x2="819.2">
      <stop offset="0.0" stop-color="#005a97"/>
      <stop offset="1.0" stop-color="#213441"/>
    </linearGradient>
    <linearGradient gradientTransform="matrix(0.0087, -0.0167, 0.0159, 0.0082, 51.35, 12.9)" gradientUnits="userSpaceOnUse" id="gradient1" spreadMethod="pad" x1="-819.2" x2="819.2">
      <stop offset="0.0" stop-color="#003c4c"/>
      <stop offset="1.0" stop-color="#01bef2"/>
    </linearGradient>
  </defs>
</svg>
