<?xml version="1.0" encoding="UTF-8" standalone="no"?>
<svg xmlns:xlink="http://www.w3.org/1999/xlink" height="205.65px" width="221.3px" xmlns="http://www.w3.org/2000/svg">
  <g transform="matrix(1.0, 0.0, 0.0, 1.0, 111.35, 102.8)">
    <path d="M109.95 7.0 L54.65 102.85 -56.05 102.85 -111.35 7.0 -111.35 -7.0 -56.05 -97.8 54.65 -97.8 109.95 -7.0 109.95 7.0 M-50.35 -79.0 L-100.0 7.0 -50.35 85.45 48.95 85.45 98.65 7.0 48.95 -79.0 -50.35 -79.0" fill="#23140c" fill-rule="evenodd" stroke="none"/>
    <path d="M-50.35 -93.0 L-100.0 -7.0 -50.35 79.05 48.95 79.05 98.65 -7.0 48.95 -93.0 -50.35 -93.0 M54.65 -102.8 L109.95 -7.0 54.65 88.85 -56.05 88.85 -111.35 -7.0 -56.05 -102.8 54.65 -102.8" fill="url(#gradient0)" fill-rule="evenodd" stroke="none"/>
    <path d="M-51.5 -95.0 L50.1 -95.0 100.95 -7.0 50.1 81.05 -51.5 81.05 -102.35 -7.0 -51.5 -95.0 M53.5 -100.8 L-54.9 -100.8 -109.05 -7.0 -54.9 86.85 53.5 86.85 107.65 -7.0 53.5 -100.8 M-56.05 -102.8 L54.65 -102.8 109.95 -7.0 54.65 88.85 -56.05 88.85 -111.35 -7.0 -56.05 -102.8 M48.95 -93.0 L-50.35 -93.0 -100.0 -7.0 -50.35 79.05 48.95 79.05 98.65 -7.0 48.95 -93.0" fill="url(#gradient1)" fill-rule="evenodd" stroke="none"/>
  </g>
  <defs>
    <linearGradient gradientTransform="matrix(0.0, -0.117, -0.117, 0.0, -0.7, -7.0)" gradientUnits="userSpaceOnUse" id="gradient0" spreadMethod="pad" x1="-819.2" x2="819.2">
      <stop offset="0.00392156862745098" stop-color="#543800"/>
      <stop offset="0.17647058823529413" stop-color="#e9ca00"/>
      <stop offset="0.43529411764705883" stop-color="#6a4a00"/>
      <stop offset="0.44313725490196076" stop-color="#836300"/>
      <stop offset="0.4627450980392157" stop-color="#af8f00"/>
      <stop offset="0.47843137254901963" stop-color="#ceaf00"/>
      <stop offset="0.49019607843137253" stop-color="#e2c300"/>
      <stop offset="0.5019607843137255" stop-color="#e9ca00"/>
      <stop offset="0.6274509803921569" stop-color="#feffbf"/>
      <stop offset="0.7607843137254902" stop-color="#e9ca00"/>
      <stop offset="0.984313725490196" stop-color="#6a4700"/>
    </linearGradient>
    <linearGradient gradientTransform="matrix(0.1351, 0.0, 0.0, -0.1351, -0.7, -7.0)" gradientUnits="userSpaceOnUse" id="gradient1" spreadMethod="pad" x1="-819.2" x2="819.2">
      <stop offset="0.07450980392156863" stop-color="#543800"/>
      <stop offset="0.17647058823529413" stop-color="#e9ca00"/>
      <stop offset="0.43529411764705883" stop-color="#6a4a00"/>
      <stop offset="0.4588235294117647" stop-color="#836300"/>
      <stop offset="0.5058823529411764" stop-color="#af8f00"/>
      <stop offset="0.5490196078431373" stop-color="#ceaf00"/>
      <stop offset="0.5843137254901961" stop-color="#e2c300"/>
      <stop offset="0.6078431372549019" stop-color="#e9ca00"/>
      <stop offset="0.6431372549019608" stop-color="#e9ca00"/>
      <stop offset="0.8196078431372549" stop-color="#fff87f"/>
      <stop offset="0.8784313725490196" stop-color="#e9ca00"/>
      <stop offset="0.984313725490196" stop-color="#6a4700"/>
    </linearGradient>
  </defs>
</svg>
