<?xml version="1.0" encoding="UTF-8" standalone="no"?>
<svg xmlns:xlink="http://www.w3.org/1999/xlink" height="81.9px" width="141.0px" xmlns="http://www.w3.org/2000/svg">
  <g transform="matrix(1.0, 0.0, 0.0, 1.0, 38.15, 18.85)">
    <path d="M41.4 48.85 L41.45 48.95 41.4 48.95 41.4 48.85" fill="#646464" fill-rule="evenodd" stroke="none"/>
    <path d="M41.3 -15.45 L42.7 -11.2 40.35 -11.65 19.9 2.55 18.7 4.55 12.2 8.8 10.9 8.65 -13.3 25.25 -13.3 25.45 -16.3 38.7 -16.4 38.8 -16.4 52.65 -16.4 52.85 -18.3 54.65 -18.3 52.3 -18.3 38.35 -18.3 37.75 -18.3 37.65 -16.05 25.0 -15.9 24.15 36.8 -12.25 41.3 -15.45" fill="#7e7e7e" fill-rule="evenodd" stroke="none"/>
    <path d="M42.7 -11.2 L90.8 -2.55 102.75 7.6 102.85 7.75 102.6 22.5 41.75 63.05 -16.4 52.65 -16.4 38.8 -16.3 38.7 -13.3 25.45 -13.3 25.25 10.9 8.65 12.2 8.8 18.7 4.55 19.9 2.55 40.35 -11.65 42.7 -11.2 M41.4 48.85 L41.4 48.95 41.45 48.95 41.4 48.85" fill="#82bdde" fill-rule="evenodd" stroke="none"/>
    <path d="M-18.3 54.65 L-38.15 51.0 -38.0 34.1 -35.3 20.6 -10.95 4.05 -6.7 4.3 1.7 -1.6 1.8 -4.65 10.1 -10.45 22.25 -18.85 29.45 -17.55 41.3 -15.45 36.8 -12.25 -15.9 24.15 -16.05 25.0 -18.3 37.65 -18.3 37.75 -18.3 38.35 -18.3 52.3 -18.3 54.65" fill="#b8b8b8" fill-rule="evenodd" stroke="none"/>
    <path d="M41.5 63.05 L-16.4 52.65 -16.4 50.15 -16.3 50.05 41.4 60.2 41.4 60.3 41.5 63.05" fill="#919191" fill-opacity="0.56078434" fill-rule="evenodd" stroke="none"/>
    <path d="M69.5 41.4 L69.5 44.6 41.75 63.05 41.75 60.2 69.5 41.4 M102.75 19.05 L102.6 22.5 77.6 39.15 77.6 36.35 77.0 36.35 102.75 19.05" fill="#aaaaaa" fill-opacity="0.56078434" fill-rule="evenodd" stroke="none"/>
    <path d="M-35.3 20.6 L-11.1 4.05 -6.8 4.3 1.55 -1.6 1.7 -4.65 10.1 -10.45 22.25 -18.85 29.45 -17.55 41.3 -15.45 36.8 -12.25 -15.9 24.15 -33.3 20.95 -35.3 20.6" fill="url(#gradient0)" fill-rule="evenodd" stroke="none"/>
    <path d="M41.3 -15.45 L42.7 -11.2 40.35 -11.65 19.9 2.55 18.7 4.55 12.2 8.8 10.9 8.65 -13.3 25.25 -13.3 25.45 -16.3 38.7 -16.4 38.8 -16.4 50.15 -16.4 52.65 -16.4 52.85 -18.3 54.65 -18.3 52.3 -18.3 38.35 -18.3 37.75 -18.3 37.65 -16.05 25.0 -15.9 24.15 36.8 -12.25 41.3 -15.45" fill="url(#gradient1)" fill-rule="evenodd" stroke="none"/>
    <path d="M42.7 -11.2 L90.8 -2.55 36.9 34.45 -13.3 25.45 -13.3 25.25 10.9 8.65 12.2 8.8 18.7 4.55 19.9 2.55 40.35 -11.65 42.7 -11.2" fill="url(#gradient2)" fill-rule="evenodd" stroke="none"/>
    <path d="M102.75 7.6 L102.85 7.75 102.75 19.05 102.6 22.5 41.75 63.05 41.75 60.2 41.4 48.95 102.75 7.6" fill="url(#gradient3)" fill-rule="evenodd" stroke="none"/>
    <path d="M90.8 -2.55 L102.75 7.6 41.4 48.95 41.4 48.85 36.9 34.45 90.8 -2.55" fill="url(#gradient4)" fill-rule="evenodd" stroke="none"/>
    <path d="M41.75 63.05 L-16.4 52.65 -16.4 50.15 -16.4 38.8 -16.3 38.7 41.4 48.85 41.4 48.95 41.75 60.2 41.75 63.05" fill="url(#gradient5)" fill-rule="evenodd" stroke="none"/>
    <path d="M36.9 34.45 L41.4 48.85 -16.3 38.7 -13.3 25.45 36.9 34.45" fill="url(#gradient6)" fill-rule="evenodd" stroke="none"/>
    <path d="M-38.0 34.1 L-35.3 20.6 -33.3 20.95 -15.9 24.15 -16.05 25.0 -18.3 37.65 -18.3 37.75 -36.85 34.35 -38.0 34.1" fill="url(#gradient7)" fill-rule="evenodd" stroke="none"/>
    <path d="M-18.3 54.65 L-38.15 51.0 -38.0 34.1 -36.85 34.35 -18.3 37.75 -18.3 38.35 -18.3 52.3 -18.3 54.65" fill="url(#gradient8)" fill-rule="evenodd" stroke="none"/>
    <path d="M22.25 -18.85 L29.45 -17.55 41.3 -15.45 36.8 -12.25 -15.9 24.15 -33.3 20.95 -35.3 20.6 -11.2 4.05 -6.95 4.3 1.45 -1.6 1.55 -4.65 10.1 -10.45 22.25 -18.85" fill="url(#gradient9)" fill-rule="evenodd" stroke="none"/>
    <path d="M40.35 -11.65 L42.7 -11.2 90.8 -2.55 36.9 34.45 -13.3 25.45 -13.3 25.25 10.9 8.65 12.2 8.8 18.7 4.55 19.9 2.55 40.35 -11.65" fill="url(#gradient10)" fill-rule="evenodd" stroke="none"/>
    <path d="M75.55 41.15 L69.65 44.95 69.3 29.95 61.85 17.45 12.2 8.9 18.6 4.55 68.6 13.55 75.2 25.7 75.55 40.35 75.55 41.15" fill="#000000" fill-opacity="0.5686275" fill-rule="evenodd" stroke="none"/>
    <path d="M75.55 41.15 L75.55 40.35 75.2 25.7 68.6 13.55 18.6 4.55 20.0 2.4 70.1 11.4 77.6 25.1 77.9 39.65 75.55 41.15" fill="#191919" fill-rule="evenodd" stroke="none"/>
    <path d="M42.0 49.1 L41.4 49.2 33.5 47.9 31.7 47.8 15.05 44.5 15.4 44.35 Q18.1 44.35 24.4 45.8 L31.95 47.45 Q36.1 47.55 36.9 48.15 L39.5 48.5 41.9 48.75 42.0 49.1 M6.05 42.85 L-3.05 41.55 -3.65 41.55 -4.35 41.4 -6.45 41.15 -6.6 41.15 -5.4 41.05 -6.7 40.6 -8.35 40.35 -8.6 40.35 -8.95 40.25 -12.5 39.3 -7.55 40.25 -6.25 40.1 Q-4.45 40.1 -3.3 40.6 L-1.5 41.4 12.45 43.9 6.05 42.85 M-18.3 44.75 Q-17.95 46.6 -17.95 50.85 -17.95 53.85 -18.3 55.0 L-18.65 55.0 Q-18.3 51.45 -18.3 48.65 L-18.3 44.75 M-16.85 38.8 L-16.85 38.55 -16.75 38.55 -13.1 39.3 -13.9 39.4 -16.85 38.8 M-3.4 40.85 L-6.6 40.45 -5.15 40.95 -2.55 41.15 -3.4 40.85" fill="#ffffff" fill-opacity="0.4392157" fill-rule="evenodd" stroke="none"/>
  </g>
  <defs>
    <radialGradient cx="0" cy="0" gradientTransform="matrix(0.1345, 0.0, 0.0, 0.0797, -12.4, 7.75)" gradientUnits="userSpaceOnUse" id="gradient0" r="819.2" spreadMethod="pad">
      <stop offset="0.0" stop-color="#ffffff" stop-opacity="0.16862746"/>
      <stop offset="0.5019607843137255" stop-color="#000000" stop-opacity="0.24705882"/>
      <stop offset="1.0" stop-color="#000000"/>
    </radialGradient>
    <radialGradient cx="0" cy="0" gradientTransform="matrix(0.1053, -0.0857, 0.0357, 0.0439, 36.7, 16.45)" gradientUnits="userSpaceOnUse" id="gradient1" r="819.2" spreadMethod="pad">
      <stop offset="0.054901960784313725" stop-color="#000000"/>
      <stop offset="1.0" stop-color="#6d6d6d" stop-opacity="0.16862746"/>
    </radialGradient>
    <radialGradient cx="0" cy="0" gradientTransform="matrix(0.1221, -0.061, 0.0325, 0.065, 44.5, 9.5)" gradientUnits="userSpaceOnUse" id="gradient2" r="819.2" spreadMethod="pad">
      <stop offset="0.0" stop-color="#ffffff" stop-opacity="0.16862746"/>
      <stop offset="0.5019607843137255" stop-color="#000000" stop-opacity="0.24705882"/>
      <stop offset="1.0" stop-color="#000000"/>
    </radialGradient>
    <radialGradient cx="0" cy="0" gradientTransform="matrix(0.1447, -0.098, 0.0283, 0.0417, 44.5, 52.4)" gradientUnits="userSpaceOnUse" id="gradient3" r="819.2" spreadMethod="pad">
      <stop offset="0.0" stop-color="#ffffff" stop-opacity="0.16862746"/>
      <stop offset="0.5019607843137255" stop-color="#000000" stop-opacity="0.24705882"/>
      <stop offset="1.0" stop-color="#000000"/>
    </radialGradient>
    <radialGradient cx="0" cy="0" gradientTransform="matrix(0.1394, -0.1007, 0.0396, 0.0547, 44.8, 37.85)" gradientUnits="userSpaceOnUse" id="gradient4" r="819.2" spreadMethod="pad">
      <stop offset="0.0" stop-color="#ffffff" stop-opacity="0.16862746"/>
      <stop offset="0.5019607843137255" stop-color="#000000" stop-opacity="0.24705882"/>
      <stop offset="1.0" stop-color="#000000"/>
    </radialGradient>
    <radialGradient cx="0" cy="0" gradientTransform="matrix(0.1433, 0.0, 0.0, 0.0623, 38.55, 37.05)" gradientUnits="userSpaceOnUse" id="gradient5" r="819.2" spreadMethod="pad">
      <stop offset="0.0" stop-color="#ffffff" stop-opacity="0.16862746"/>
      <stop offset="0.5019607843137255" stop-color="#000000" stop-opacity="0.24705882"/>
      <stop offset="1.0" stop-color="#000000"/>
    </radialGradient>
    <radialGradient cx="0" cy="0" gradientTransform="matrix(0.0964, 0.0, 0.0, 0.0511, 28.65, 30.75)" gradientUnits="userSpaceOnUse" id="gradient6" r="819.2" spreadMethod="pad">
      <stop offset="0.0" stop-color="#ffffff" stop-opacity="0.16862746"/>
      <stop offset="0.5019607843137255" stop-color="#000000" stop-opacity="0.24705882"/>
      <stop offset="1.0" stop-color="#000000"/>
    </radialGradient>
    <radialGradient cx="0" cy="0" gradientTransform="matrix(0.0556, 0.0, 0.0, 0.0556, -27.25, 20.25)" gradientUnits="userSpaceOnUse" id="gradient7" r="819.2" spreadMethod="pad">
      <stop offset="0.0" stop-color="#ffffff" stop-opacity="0.16862746"/>
      <stop offset="0.5019607843137255" stop-color="#000000" stop-opacity="0.24705882"/>
      <stop offset="1.0" stop-color="#000000"/>
    </radialGradient>
    <radialGradient cx="0" cy="0" gradientTransform="matrix(0.0806, 0.0, 0.0, 0.0806, -24.65, 14.1)" gradientUnits="userSpaceOnUse" id="gradient8" r="819.2" spreadMethod="pad">
      <stop offset="0.0" stop-color="#ffffff" stop-opacity="0.16862746"/>
      <stop offset="0.5019607843137255" stop-color="#000000" stop-opacity="0.24705882"/>
      <stop offset="1.0" stop-color="#000000"/>
    </radialGradient>
    <linearGradient gradientTransform="matrix(0.0023, -0.0114, 0.0257, 0.0051, 20.7, -11.2)" gradientUnits="userSpaceOnUse" id="gradient9" spreadMethod="pad" x1="-819.2" x2="819.2">
      <stop offset="0.8235294117647058" stop-color="#ffffff" stop-opacity="0.0"/>
      <stop offset="1.0" stop-color="#ffffff"/>
    </linearGradient>
    <linearGradient gradientTransform="matrix(0.0023, -0.0118, 0.0276, 0.0053, 44.0, -1.85)" gradientUnits="userSpaceOnUse" id="gradient10" spreadMethod="pad" x1="-819.2" x2="819.2">
      <stop offset="0.8549019607843137" stop-color="#ffffff" stop-opacity="0.0"/>
      <stop offset="1.0" stop-color="#ffffff"/>
    </linearGradient>
  </defs>
</svg>
