<?xml version="1.0" encoding="UTF-8" standalone="no"?>
<svg xmlns:xlink="http://www.w3.org/1999/xlink" height="112.4px" width="434.25px" xmlns="http://www.w3.org/2000/svg">
  <g transform="matrix(1.0, 0.0, 0.0, 1.0, -181.05, -161.0)">
    <path d="M614.3 193.3 L614.3 263.7 606.85 271.6 182.1 271.6 182.1 272.4 182.05 272.4 182.05 255.8 182.05 247.95 182.05 198.55 182.05 193.3 182.05 170.05 189.65 162.0 614.3 162.0 614.3 193.3" fill="url(#gradient0)" fill-rule="evenodd" stroke="none"/>
    <path d="M614.3 193.3 L614.3 162.0 189.65 162.0 182.05 170.05 182.05 193.3 182.05 198.55 182.05 247.95 182.05 255.8 182.05 272.4 182.1 272.4 182.1 271.6 606.85 271.6 614.3 263.7 614.3 193.3 Z" fill="none" stroke="url(#gradient1)" stroke-linecap="round" stroke-linejoin="round" stroke-width="2.0"/>
    <path d="M472.5 193.8 Q424.2 193.8 395.95 194.05 367.75 194.3 316.15 193.4 264.55 192.45 256.8 191.95 L401.25 191.95 547.3 191.9 Q520.4 193.8 472.5 193.8" fill="url(#gradient2)" fill-rule="evenodd" stroke="none"/>
  </g>
  <defs>
    <linearGradient gradientTransform="matrix(0.0, -0.0571, 0.0674, 0.0, 398.15, 217.2)" gradientUnits="userSpaceOnUse" id="gradient0" spreadMethod="pad" x1="-819.2" x2="819.2">
      <stop offset="0.0" stop-color="#000a11"/>
      <stop offset="1.0" stop-color="#001f37"/>
    </linearGradient>
    <linearGradient gradientTransform="matrix(0.0245, -0.1505, 0.0676, 0.011, 449.55, 257.7)" gradientUnits="userSpaceOnUse" id="gradient1" spreadMethod="pad" x1="-819.2" x2="819.2">
      <stop offset="0.0" stop-color="#0e89ce"/>
      <stop offset="0.5647058823529412" stop-color="#00101c"/>
      <stop offset="1.0" stop-color="#0e89ce"/>
    </linearGradient>
    <radialGradient cx="0" cy="0" gradientTransform="matrix(0.179, 0.0, 0.0, 0.3841, 402.0, 193.0)" gradientUnits="userSpaceOnUse" id="gradient2" r="819.2" spreadMethod="pad">
      <stop offset="0.0" stop-color="#0d84c7"/>
      <stop offset="1.0" stop-color="#0d85c9" stop-opacity="0.0"/>
    </radialGradient>
  </defs>
</svg>
