<?xml version="1.0" encoding="UTF-8" standalone="no"?>
<svg xmlns:xlink="http://www.w3.org/1999/xlink" height="225.0px" width="345.7px" xmlns="http://www.w3.org/2000/svg">
  <g transform="matrix(1.0, 0.0, 0.0, 1.0, 2.7, 103.0)">
    <path d="M4.55 -103.0 L289.5 -103.0 289.5 122.0 4.55 122.0 4.55 -103.0" fill="#000000" fill-opacity="0.003921569" fill-rule="evenodd" stroke="none"/>
    <path d="M6.3 0.0 L137.95 0.0 147.5 -9.3 157.05 0.0 289.3 0.0 289.3 99.95 209.05 99.95 179.85 99.95 6.3 99.95 6.3 0.0" fill="#000000" fill-rule="evenodd" stroke="none"/>
    <path d="M6.3 0.0 L137.95 0.0 147.5 -9.3 157.05 0.0 289.3 0.0 289.3 99.95 209.05 99.95 179.85 99.95 6.3 99.95 6.3 0.0 Z" fill="none" stroke="url(#gradient0)" stroke-linecap="butt" stroke-linejoin="miter" stroke-width="1.0"/>
    <path d="M342.0 66.85 L342.0 108.95 -1.7 108.95 -1.7 66.85 342.0 66.85" fill="url(#gradient1)" fill-rule="evenodd" stroke="none"/>
    <path d="M342.0 108.95 L-1.7 108.95 M-1.7 66.85 L342.0 66.85" fill="none" stroke="url(#gradient2)" stroke-linecap="round" stroke-linejoin="round" stroke-width="2.0"/>
  </g>
  <defs>
    <linearGradient gradientTransform="matrix(0.0021, -0.0491, 0.1029, 0.0045, 148.9, -4.0)" gradientUnits="userSpaceOnUse" id="gradient0" spreadMethod="pad" x1="-819.2" x2="819.2">
      <stop offset="0.0" stop-color="#000000"/>
      <stop offset="1.0" stop-color="#0066ff"/>
    </linearGradient>
    <linearGradient gradientTransform="matrix(0.2097, 0.0, 0.0, 0.0257, 170.1, 87.9)" gradientUnits="userSpaceOnUse" id="gradient1" spreadMethod="pad" x1="-819.2" x2="819.2">
      <stop offset="0.0" stop-color="#000000"/>
      <stop offset="0.3607843137254902" stop-color="#5e5934"/>
      <stop offset="1.0" stop-color="#000000"/>
    </linearGradient>
    <linearGradient gradientTransform="matrix(0.2054, 0.02, -2.0E-4, 0.0244, 170.15, 87.85)" gradientUnits="userSpaceOnUse" id="gradient2" spreadMethod="pad" x1="-819.2" x2="819.2">
      <stop offset="0.0" stop-color="#877e38" stop-opacity="0.0"/>
      <stop offset="0.45098039215686275" stop-color="#877e38"/>
      <stop offset="0.8941176470588236" stop-color="#84816b" stop-opacity="0.0"/>
    </linearGradient>
  </defs>
</svg>
