<?xml version="1.0" encoding="UTF-8" standalone="no"?>
<svg xmlns:xlink="http://www.w3.org/1999/xlink" height="137.25px" width="137.3px" xmlns="http://www.w3.org/2000/svg">
  <g transform="matrix(1.0, 0.0, 0.0, 1.0, 52.0, -16.75)">
    <path d="M85.3 85.4 L35.9 90.5 76.05 119.7 30.7 99.5 51.0 144.85 21.75 104.6 16.7 154.0 11.5 104.6 -17.7 144.85 2.55 99.5 -42.8 119.7 -2.6 90.5 -52.0 85.4 -2.6 80.3 -42.8 51.05 2.55 71.3 -17.7 25.95 11.5 66.15 16.6 16.75 21.75 66.15 51.0 25.95 30.7 71.3 76.05 51.05 35.9 80.3 85.3 85.4" fill="url(#gradient0)" fill-rule="evenodd" stroke="none"/>
  </g>
  <defs>
    <radialGradient cx="0" cy="0" gradientTransform="matrix(0.0838, 0.0, 0.0, 0.0838, 16.7, 85.4)" gradientUnits="userSpaceOnUse" id="gradient0" r="819.2" spreadMethod="pad">
      <stop offset="0.20784313725490197" stop-color="#ffffff" stop-opacity="0.6"/>
      <stop offset="0.8941176470588236" stop-color="#ffffff" stop-opacity="0.0"/>
    </radialGradient>
  </defs>
</svg>
