<?xml version="1.0" encoding="UTF-8" standalone="no"?>
<svg xmlns:xlink="http://www.w3.org/1999/xlink" height="225.0px" width="285.25px" xmlns="http://www.w3.org/2000/svg">
  <g transform="matrix(1.0, 0.0, 0.0, 1.0, -4.55, 103.0)">
    <path d="M4.55 -103.0 L289.5 -103.0 289.5 122.0 4.55 122.0 4.55 -103.0" fill="#000000" fill-opacity="0.003921569" fill-rule="evenodd" stroke="none"/>
    <path d="M6.3 0.0 L137.95 0.0 147.5 -9.3 157.05 0.0 289.3 0.0 289.3 99.95 209.05 99.95 179.85 99.95 6.3 99.95 6.3 0.0" fill="#000000" fill-rule="evenodd" stroke="none"/>
    <path d="M6.3 0.0 L137.95 0.0 147.5 -9.3 157.05 0.0 289.3 0.0 289.3 99.95 209.05 99.95 179.85 99.95 6.3 99.95 6.3 0.0 Z" fill="none" stroke="url(#gradient0)" stroke-linecap="butt" stroke-linejoin="miter" stroke-width="1.0"/>
  </g>
  <defs>
    <linearGradient gradientTransform="matrix(0.0021, -0.0491, 0.1029, 0.0045, 148.9, -4.0)" gradientUnits="userSpaceOnUse" id="gradient0" spreadMethod="pad" x1="-819.2" x2="819.2">
      <stop offset="0.0" stop-color="#000000"/>
      <stop offset="1.0" stop-color="#0066ff"/>
    </linearGradient>
  </defs>
</svg>
