<?xml version="1.0" encoding="UTF-8" standalone="no"?>
<svg xmlns:xlink="http://www.w3.org/1999/xlink" height="166.95px" width="261.7px" xmlns="http://www.w3.org/2000/svg">
  <g transform="matrix(1.0, 0.0, 0.0, 1.0, 0.95, -17.0)">
    <path d="M33.7 19.3 Q35.8 21.65 35.8 25.0 35.8 28.3 33.7 30.65 31.55 33.0 28.5 33.0 25.5 33.0 23.3 30.65 21.15 28.3 21.15 25.0 21.15 21.65 23.3 19.3 25.5 17.0 28.5 17.0 31.55 17.0 33.7 19.3" fill="#d71212" fill-rule="evenodd" stroke="none"/>
    <path d="M29.95 19.15 L29.95 27.45 27.05 27.45 27.05 19.15 29.95 19.15 M26.7 29.3 L27.05 28.9 Q27.2 28.75 27.6 28.7 L28.45 28.7 29.4 28.7 30.05 28.9 30.25 29.3 30.45 29.95 30.25 30.55 30.05 31.0 29.4 31.15 28.45 31.2 27.6 31.15 27.05 31.0 26.7 30.55 26.65 29.95 26.7 29.3" fill="#000000" fill-rule="evenodd" stroke="none"/>
    <path d="M257.9 145.95 L260.75 145.95 260.75 183.95 -0.95 183.95 -0.95 145.95 0.4 145.95 0.4 159.85 245.45 159.85 257.9 148.05 257.9 145.95" fill="#000000" fill-opacity="0.5019608" fill-rule="evenodd" stroke="none"/>
    <path d="M0.4 145.95 L0.4 121.25 12.25 109.95 257.9 109.95 257.9 145.95 257.9 148.05 245.45 159.85 0.4 159.85 0.4 145.95" fill="#1a0000" fill-rule="evenodd" stroke="none"/>
  </g>
</svg>
