<?xml version="1.0" encoding="UTF-8" standalone="no"?>
<svg xmlns:xlink="http://www.w3.org/1999/xlink" height="30.45px" width="31.35px" xmlns="http://www.w3.org/2000/svg">
  <g transform="matrix(1.0, 0.0, 0.0, 1.0, 15.85, 16.9)">
    <path d="M-0.25 -10.6 L0.0 -10.6 Q4.4 -10.6 7.5 -7.5 L7.75 -7.25 -0.25 0.75 -0.25 -10.6" fill="#ffffff" fill-opacity="0.6" fill-rule="evenodd" stroke="none"/>
    <path d="M7.75 -7.25 Q10.6 -4.2 10.6 0.0 10.6 4.4 7.5 7.5 4.4 10.6 0.0 10.6 L-0.25 10.6 Q-4.3 10.5 -7.25 7.75 L-7.5 7.5 Q-10.6 4.4 -10.6 0.0 -10.6 -4.4 -7.5 -7.5 -4.5 -10.5 -0.25 -10.6 L-0.25 0.75 7.75 -7.25" fill="#ffffff" fill-opacity="0.14117648" fill-rule="evenodd" stroke="none"/>
    <path d="M7.75 -7.25 Q10.6 -4.2 10.6 0.0 10.6 4.4 7.5 7.5 4.4 10.6 0.0 10.6 L-0.25 10.6 Q-4.3 10.5 -7.25 7.75 L-7.5 7.5 Q-10.6 4.4 -10.6 0.0 -10.6 -4.4 -7.5 -7.5 -4.5 -10.5 -0.25 -10.6 L0.0 -10.6 Q4.4 -10.6 7.5 -7.5 L7.75 -7.25 Z" fill="none" stroke="#ffffff" stroke-linecap="round" stroke-linejoin="round" stroke-width="1.0"/>
    <path d="M8.5 -15.9 L8.55 -15.9 Q9.35 -15.9 9.9 -15.35 10.5 -14.75 10.5 -13.95 L10.5 -10.55 Q10.5 -9.75 9.9 -9.2 9.35 -8.6 8.55 -8.6 L8.5 -8.6 Q7.7 -8.6 7.1 -9.2 6.55 -9.75 6.55 -10.55 L6.55 -13.95 Q6.55 -14.75 7.1 -15.35 7.7 -15.9 8.5 -15.9 M-7.2 -15.9 L-7.15 -15.9 Q-6.35 -15.9 -5.8 -15.35 -5.2 -14.75 -5.2 -13.95 L-5.2 -10.55 Q-5.2 -9.75 -5.8 -9.2 -6.35 -8.6 -7.15 -8.6 L-7.2 -8.6 Q-8.0 -8.6 -8.6 -9.2 -9.15 -9.75 -9.15 -10.55 L-9.15 -13.95 Q-9.15 -14.75 -8.6 -15.35 -8.0 -15.9 -7.2 -15.9" fill="none" stroke="#000000" stroke-linecap="round" stroke-linejoin="round" stroke-width="2.0"/>
    <path d="M-14.15 -10.3 L-13.6 -10.3 -13.6 -11.15 -13.15 -11.15 -13.15 -12.1 14.5 -12.1 14.5 10.8 13.7 10.8 13.65 11.7 12.85 11.7 12.8 12.55 -14.85 12.55 -14.15 -10.3" fill="#a2a2a2" fill-rule="evenodd" stroke="none"/>
    <path d="M-14.15 -10.3 L-13.6 -10.3 -13.6 -11.15 -13.15 -11.15 -13.15 -12.1 14.5 -12.1 14.5 10.8 13.7 10.8 13.65 11.7 12.85 11.7 12.8 12.55 -14.85 12.55 -14.15 -10.3 Z" fill="none" stroke="#000000" stroke-linecap="round" stroke-linejoin="round" stroke-width="2.0"/>
    <path d="M-14.15 -10.3 L13.55 -10.3 12.8 12.55 -14.85 12.55 -14.15 -10.3" fill="#666666" fill-rule="evenodd" stroke="none"/>
    <path d="M-13.6 -11.15 L14.1 -11.15 13.65 11.7 -14.0 11.7 -13.6 -11.15" fill="url(#gradient0)" fill-rule="evenodd" stroke="none"/>
    <path d="M-13.15 -12.1 L14.5 -12.1 14.5 10.8 -13.15 10.8 -13.15 -12.1" fill="url(#gradient1)" fill-rule="evenodd" stroke="none"/>
    <path d="M8.5 -15.9 L8.55 -15.9 Q9.35 -15.9 9.9 -15.35 10.5 -14.75 10.5 -13.95 L10.5 -10.55 Q10.5 -9.75 9.9 -9.2 9.35 -8.6 8.55 -8.6 L8.5 -8.6 Q7.7 -8.6 7.1 -9.2 6.55 -9.75 6.55 -10.55 L6.55 -13.95 Q6.55 -14.75 7.1 -15.35 7.7 -15.9 8.5 -15.9 M-7.2 -15.9 L-7.15 -15.9 Q-6.35 -15.9 -5.8 -15.35 -5.2 -14.75 -5.2 -13.95 L-5.2 -10.55 Q-5.2 -9.75 -5.8 -9.2 -6.35 -8.6 -7.15 -8.6 L-7.2 -8.6 Q-8.0 -8.6 -8.6 -9.2 -9.15 -9.75 -9.15 -10.55 L-9.15 -13.95 Q-9.15 -14.75 -8.6 -15.35 -8.0 -15.9 -7.2 -15.9" fill="url(#gradient2)" fill-rule="evenodd" stroke="none"/>
    <path d="M8.5 -15.9 L8.55 -15.9 Q9.35 -15.9 9.9 -15.35 10.5 -14.75 10.5 -13.95 L10.5 -10.55 Q10.5 -9.75 9.9 -9.2 9.35 -8.6 8.55 -8.6 L8.5 -8.6 Q7.7 -8.6 7.1 -9.2 6.55 -9.75 6.55 -10.55 L6.55 -13.95 Q6.55 -14.75 7.1 -15.35 7.7 -15.9 8.5 -15.9 M-7.2 -15.9 L-7.15 -15.9 Q-6.35 -15.9 -5.8 -15.35 -5.2 -14.75 -5.2 -13.95 L-5.2 -10.55 Q-5.2 -9.75 -5.8 -9.2 -6.35 -8.6 -7.15 -8.6 L-7.2 -8.6 Q-8.0 -8.6 -8.6 -9.2 -9.15 -9.75 -9.15 -10.55 L-9.15 -13.95 Q-9.15 -14.75 -8.6 -15.35 -8.0 -15.9 -7.2 -15.9" fill="none" stroke="#333333" stroke-linecap="round" stroke-linejoin="round" stroke-width="0.5"/>
    <path d="M7.4 -6.6 L2.95 -6.6 2.95 -1.7 7.4 -1.7 7.4 -6.6 11.95 -6.6 11.95 -1.7 11.95 3.55 7.4 3.55 2.95 3.55 -1.95 3.55 -1.95 8.35 -6.25 8.35 -10.6 8.35 -10.6 3.55 -10.6 -1.7 -10.6 -6.6 -6.25 -6.6 -1.95 -6.6 2.95 -6.6 M7.4 -1.7 L11.95 -1.7 M7.4 -1.7 L7.4 3.55 M2.95 -1.7 L2.95 3.55 M-1.95 -6.6 L-1.95 -1.7 2.95 -1.7 M-6.25 -6.6 L-6.25 -1.7 -1.95 -1.7 -1.95 3.55 -6.25 3.55 -6.25 8.35 M-10.6 -1.7 L-6.25 -1.7 -6.25 3.55 -10.6 3.55" fill="none" stroke="#000000" stroke-linecap="round" stroke-linejoin="round" stroke-opacity="0.3019608" stroke-width="0.5"/>
    <path d="M7.4 -3.75 L7.4 -3.6 7.2 -3.55 7.0 -3.6 Q4.1 -4.15 2.8 -2.05 L2.4 -1.25 Q3.35 -3.0 5.35 -3.35 3.4 -2.1 2.7 -0.85 2.15 0.1 2.15 1.6 L2.2 2.3 Q2.8 3.9 5.15 3.9 7.35 3.9 8.45 2.5 9.2 1.55 9.2 0.6 L8.9 -0.45 Q8.45 -0.95 6.85 -1.5 L7.2 -1.8 6.4 -1.9 6.35 -1.9 6.25 -2.05 6.5 -2.45 7.2 -2.65 Q8.85 -2.65 9.7 -1.05 L10.25 0.6 Q10.25 2.1 9.45 3.15 8.1 4.9 4.75 4.9 2.3 4.9 1.5 3.25 1.15 2.55 1.15 1.4 1.15 -1.0 2.4 -2.5 3.35 -4.0 5.15 -4.1 L7.4 -3.75 M9.1 2.7 L9.6 1.7 8.75 3.05 8.5 3.3 9.1 2.7" fill="#ac0202" fill-rule="evenodd" stroke="none"/>
  </g>
  <defs>
    <linearGradient gradientTransform="matrix(0.0044, -0.0224, 0.0137, 0.0027, -0.85, 5.25)" gradientUnits="userSpaceOnUse" id="gradient0" spreadMethod="pad" x1="-819.2" x2="819.2">
      <stop offset="0.0" stop-color="#666666"/>
      <stop offset="1.0" stop-color="#cccccc"/>
    </linearGradient>
    <linearGradient gradientTransform="matrix(0.0044, -0.0224, 0.0137, 0.0027, -0.85, 5.25)" gradientUnits="userSpaceOnUse" id="gradient1" spreadMethod="pad" x1="-819.2" x2="819.2">
      <stop offset="0.0" stop-color="#666666"/>
      <stop offset="1.0" stop-color="#ffffff"/>
    </linearGradient>
    <linearGradient gradientTransform="matrix(2.0E-4, -0.0059, 0.0044, 2.0E-4, 8.5, -13.25)" gradientUnits="userSpaceOnUse" id="gradient2" spreadMethod="pad" x1="-819.2" x2="819.2">
      <stop offset="0.0" stop-color="#999999"/>
      <stop offset="0.5490196078431373" stop-color="#ffffff"/>
      <stop offset="1.0" stop-color="#999999"/>
    </linearGradient>
  </defs>
</svg>
