<?xml version="1.0" encoding="UTF-8" standalone="no"?>
<svg xmlns:xlink="http://www.w3.org/1999/xlink" height="21.3px" width="202.8px" xmlns="http://www.w3.org/2000/svg">
  <g transform="matrix(1.0, 0.0, 0.0, 1.0, -29.05, -14.2)">
    <path d="M231.85 14.2 L225.2 19.85 204.0 19.85 202.05 19.85 202.05 14.2 231.85 14.2 M29.05 14.2 L58.85 14.2 58.85 19.85 56.9 19.85 35.7 19.85 29.05 14.2" fill="#be8415" fill-rule="evenodd" stroke="none"/>
    <path d="M224.0 22.05 L217.35 27.65 204.0 27.65 202.05 27.65 202.05 22.05 204.0 22.05 224.0 22.05 M36.9 22.05 L56.9 22.05 58.85 22.05 58.85 27.65 56.9 27.65 43.55 27.65 36.9 22.05" fill="#d59d16" fill-rule="evenodd" stroke="none"/>
    <path d="M216.15 29.9 L209.5 35.5 204.0 35.5 202.05 35.5 202.05 29.9 204.0 29.9 216.15 29.9 M44.75 29.9 L56.9 29.9 58.85 29.9 58.85 35.5 56.9 35.5 51.4 35.5 44.75 29.9" fill="#f2b116" fill-rule="evenodd" stroke="none"/>
  </g>
</svg>
