<?xml version="1.0" encoding="UTF-8" standalone="no"?>
<svg xmlns:xlink="http://www.w3.org/1999/xlink" height="21.3px" width="202.8px" xmlns="http://www.w3.org/2000/svg">
  <g transform="matrix(1.0, 0.0, 0.0, 1.0, 101.4, 10.65)">
    <path d="M14.5 -0.55 L14.5 -2.7 8.15 -2.7 8.15 -0.55 14.5 -0.55 M6.0 5.8 L6.0 -4.8 16.65 -4.8 16.65 5.8 14.5 5.8 14.5 1.55 8.15 1.55 8.15 5.8 6.0 5.8 M1.75 -0.55 L1.75 -2.7 -4.6 -2.7 -4.6 -0.55 1.75 -0.55 M35.75 5.8 L35.75 -2.7 31.5 -2.7 31.5 -4.8 42.15 -4.8 42.15 -2.7 37.9 -2.7 37.9 5.8 35.75 5.8 M18.75 5.8 L18.75 -4.8 29.4 -4.8 29.4 -2.7 20.9 -2.7 20.9 3.7 29.4 3.7 29.4 5.8 18.75 5.8 M44.25 5.8 L44.25 3.7 52.75 3.7 52.75 1.55 44.25 1.55 44.25 -4.8 54.9 -4.8 54.9 -2.7 46.4 -2.7 46.4 -0.55 54.9 -0.55 54.9 5.8 44.25 5.8 M85.7 5.05 L79.05 10.65 73.55 10.65 71.6 10.65 71.6 5.05 73.55 5.05 85.7 5.05 M93.55 -2.8 L86.9 2.8 73.55 2.8 71.6 2.8 71.6 -2.8 73.55 -2.8 93.55 -2.8 M101.4 -10.65 L94.75 -5.0 73.55 -5.0 71.6 -5.0 71.6 -10.65 101.4 -10.65 M-6.75 5.8 L-6.75 -4.8 3.9 -4.8 3.9 1.55 -0.35 1.55 2.45 4.35 1.0 5.8 -3.25 1.55 -4.6 1.55 -4.6 5.8 -6.75 5.8 M-101.4 -10.65 L-71.6 -10.65 -71.6 -5.0 -73.55 -5.0 -94.75 -5.0 -101.4 -10.65 M-93.55 -2.8 L-73.55 -2.8 -71.6 -2.8 -71.6 2.8 -73.55 2.8 -86.9 2.8 -93.55 -2.8 M-57.75 5.8 L-57.75 -4.8 -47.1 -4.8 -47.1 -2.7 -55.6 -2.7 -55.6 3.7 -47.1 3.7 -47.1 5.8 -57.75 5.8 M-32.25 5.8 L-32.25 -4.8 -21.6 -4.8 -21.6 5.8 -23.75 5.8 -23.75 -2.7 -30.1 -2.7 -30.1 5.8 -32.25 5.8 M-15.25 5.8 L-15.25 -2.7 -19.5 -2.7 -19.5 -4.8 -8.85 -4.8 -8.85 -2.7 -13.1 -2.7 -13.1 5.8 -15.25 5.8 M-36.5 3.7 L-36.5 -2.7 -42.85 -2.7 -42.85 3.7 -36.5 3.7 M-45.0 5.8 L-45.0 -4.8 -34.35 -4.8 -34.35 5.8 -45.0 5.8 M-85.7 5.05 L-73.55 5.05 -71.6 5.05 -71.6 10.65 -73.55 10.65 -79.05 10.65 -85.7 5.05" fill="#be9c15" fill-rule="evenodd" stroke="none"/>
  </g>
</svg>
