<?xml version="1.0" encoding="UTF-8" standalone="no"?>
<svg xmlns:xlink="http://www.w3.org/1999/xlink" height="21.95px" width="216.8px" xmlns="http://www.w3.org/2000/svg">
  <g transform="matrix(1.0, 0.0, 0.0, 1.0, -20.05, -13.55)">
    <path d="M28.15 21.65 L48.75 21.65 50.75 21.65 50.75 27.4 48.75 27.4 35.0 27.4 28.15 21.65 M20.05 13.55 L50.75 13.55 50.75 19.4 48.75 19.4 26.9 19.4 20.05 13.55 M36.2 29.75 L48.75 29.75 50.75 29.75 50.75 35.5 48.75 35.5 43.05 35.5 36.2 29.75" fill="#ffffff" fill-rule="evenodd" stroke="none"/>
    <path d="M220.7 29.75 L213.85 35.5 208.2 35.5 206.2 35.5 206.2 29.75 208.2 29.75 220.7 29.75 M228.8 21.65 L221.95 27.4 208.2 27.4 206.2 27.4 206.2 21.65 208.2 21.65 228.8 21.65 M236.85 13.55 L230.0 19.4 208.2 19.4 206.2 19.4 206.2 13.55 236.85 13.55" fill="#ffffff" fill-rule="evenodd" stroke="none"/>
  </g>
</svg>
