<?xml version="1.0" encoding="UTF-8" standalone="no"?>
<svg xmlns:xlink="http://www.w3.org/1999/xlink" height="97.3px" width="97.3px" xmlns="http://www.w3.org/2000/svg">
  <g transform="matrix(1.0, 0.0, 0.0, 1.0, -56.85, 173.1)">
    <path d="M153.15 -172.1 L153.15 -93.25 136.7 -76.8 57.85 -76.8 57.85 -92.2 57.85 -155.65 74.3 -172.1 137.75 -172.1 153.15 -172.1 M94.5 -156.15 L94.5 -92.15 127.8 -124.2 94.5 -156.15" fill="#000000" fill-opacity="0.7019608" fill-rule="evenodd" stroke="none"/>
    <path d="M94.5 -156.15 L127.8 -124.2 94.5 -92.15 94.5 -156.15" fill="#ffffff" fill-opacity="0.7019608" fill-rule="evenodd" stroke="none"/>
    <path d="M153.15 -172.1 L137.75 -172.1 74.3 -172.1 57.85 -155.65 57.85 -92.2 57.85 -76.8 136.7 -76.8 153.15 -93.25 153.15 -172.1 Z" fill="none" stroke="url(#gradient0)" stroke-linecap="square" stroke-linejoin="miter" stroke-width="1.5"/>
  </g>
  <defs>
    <linearGradient gradientTransform="matrix(0.0591, 0.0, 0.0, 0.0591, 105.5, -124.45)" gradientUnits="userSpaceOnUse" id="gradient0" spreadMethod="pad" x1="-819.2" x2="819.2">
      <stop offset="0.0" stop-color="#9f0000"/>
      <stop offset="1.0" stop-color="#330000"/>
    </linearGradient>
  </defs>
</svg>
