<?xml version="1.0" encoding="UTF-8" standalone="no"?>
<svg xmlns:xlink="http://www.w3.org/1999/xlink" height="346.0px" width="365.95px" xmlns="http://www.w3.org/2000/svg">
  <g transform="matrix(1.0, 0.0, 0.0, 1.0, -137.4, 13.7)">
    <path d="M313.4 4.55 Q313.75 0.65 319.45 -3.4 321.6 -4.9 324.2 -6.2 L324.85 -6.5 Q325.05 -7.55 325.7 -8.5 327.1 -10.75 330.1 -10.85 L332.8 -10.6 Q336.3 -12.8 340.75 -12.65 343.2 -12.55 345.3 -11.75 L356.5 -11.35 357.8 -12.3 Q359.65 -13.3 362.35 -13.6 L366.85 -13.15 Q368.95 -12.4 368.95 -10.6 367.8 -7.6 366.25 -6.7 366.9 -5.8 367.15 -4.7 368.25 -0.1 361.7 4.65 L361.8 6.0 Q361.8 8.3 359.15 10.3 355.75 12.85 349.9 12.85 L346.1 12.35 342.8 13.2 336.75 13.85 330.3 14.35 329.8 14.2 324.9 13.85 320.2 12.7 Q319.1 12.3 318.5 11.9 315.1 12.85 312.25 12.85 309.9 12.85 308.65 12.05 307.7 11.4 307.7 10.55 307.7 7.8 311.15 5.7 312.15 5.15 313.0 4.95 L313.4 4.55 M503.35 88.9 Q503.35 110.4 488.1 125.65 472.9 140.85 451.4 140.85 429.95 140.85 414.7 125.65 399.5 110.4 399.5 88.9 399.5 67.45 414.7 52.2 429.95 37.0 451.4 37.0 472.9 37.0 488.1 52.2 503.35 67.45 503.35 88.9 M332.3 234.85 Q332.3 275.15 303.7 303.8 275.15 332.3 234.85 332.3 194.5 332.3 165.95 303.8 137.4 275.15 137.4 234.85 137.4 194.5 165.95 165.95 194.5 137.4 234.85 137.4 275.15 137.4 303.7 165.95 332.3 194.5 332.3 234.85" fill="#c60202" fill-opacity="0.0" fill-rule="evenodd" stroke="none"/>
  </g>
</svg>
