<?xml version="1.0" encoding="UTF-8" standalone="no"?>
<svg xmlns:xlink="http://www.w3.org/1999/xlink" height="39.1px" width="89.75px" xmlns="http://www.w3.org/2000/svg">
  <g transform="matrix(1.0, 0.0, 0.0, 1.0, 6.75, -0.4)">
    <path d="M1.6 25.85 Q2.15 20.4 10.45 14.75 13.65 12.65 17.4 10.85 L18.35 10.4 Q18.65 8.95 19.6 7.6 21.7 4.5 26.1 4.35 L30.0 4.7 Q35.15 1.6 41.7 1.8 45.3 1.95 48.35 3.05 L64.75 3.6 Q65.45 2.9 66.65 2.3 69.4 0.9 73.3 0.5 77.3 0.1 79.95 1.1 83.0 2.15 83.0 4.65 81.3 8.9 79.05 10.1 80.0 11.4 80.35 12.9 82.0 19.35 72.4 26.0 L72.55 27.85 Q72.55 31.1 68.6 33.9 63.65 37.45 55.1 37.45 L49.55 36.75 Q48.0 37.4 44.65 37.9 L35.8 38.85 26.4 39.5 25.65 39.35 18.45 38.85 11.6 37.2 9.1 36.1 Q4.1 37.45 -0.05 37.45 -3.55 37.45 -5.35 36.3 -6.75 35.4 -6.75 34.2 -6.75 30.35 -1.7 27.45 -0.2 26.65 1.0 26.4 L1.6 25.85" fill="#990000" fill-rule="evenodd" stroke="none"/>
  </g>
</svg>
