<?xml version="1.0" encoding="UTF-8" standalone="no"?>
<svg xmlns:xlink="http://www.w3.org/1999/xlink" height="153.7px" width="246.85px" xmlns="http://www.w3.org/2000/svg">
  <g transform="matrix(1.0, 0.0, 0.0, 1.0, 123.55, 74.55)">
    <path d="M75.95 60.5 L91.4 42.55 -91.6 42.55 -76.15 60.5 75.95 60.5 M106.7 -2.25 L98.75 -15.95 -99.0 -15.95 -106.9 -2.25 106.7 -2.25 M98.5 21.5 L106.7 16.05 -106.9 16.05 -98.75 21.5 98.5 21.5 M91.65 -34.15 L75.95 -55.5 -76.15 -55.5 -91.9 -34.15 91.65 -34.15 M-81.8 -74.55 L81.6 -74.55 123.3 -7.1 123.3 6.9 81.6 79.15 -81.8 79.15 -123.55 6.9 -123.55 -7.1 -81.8 -74.55" fill="#23140c" fill-rule="evenodd" stroke="none"/>
  </g>
</svg>
