<?xml version="1.0" encoding="UTF-8" standalone="no"?>
<svg xmlns:xlink="http://www.w3.org/1999/xlink" height="81.9px" width="98.35px" xmlns="http://www.w3.org/2000/svg">
  <g transform="matrix(1.0, 0.0, 0.0, 1.0, -5.25, -4.55)">
    <path d="M103.6 86.3 L5.25 86.3 5.25 4.55 103.6 4.55 103.6 86.3" fill="#000000" fill-opacity="0.5019608" fill-rule="evenodd" stroke="none"/>
    <path d="M103.5 73.6 L103.5 75.1 5.35 75.1 5.35 73.6 103.5 73.6 M103.5 79.6 L103.5 81.1 5.35 81.1 5.35 79.6 103.5 79.6 M103.5 85.6 L103.5 86.45 5.35 86.45 5.35 85.6 103.5 85.6 M103.5 82.6 L103.5 84.1 5.35 84.1 5.35 82.6 103.5 82.6 M103.5 76.6 L103.5 78.1 5.35 78.1 5.35 76.6 103.5 76.6 M103.5 61.6 L103.5 63.1 5.35 63.1 5.35 61.6 103.5 61.6 M103.5 67.6 L103.5 69.1 5.35 69.1 5.35 67.6 103.5 67.6 M103.5 70.6 L103.5 72.1 5.35 72.1 5.35 70.6 103.5 70.6 M103.5 64.6 L103.5 66.1 5.35 66.1 5.35 64.6 103.5 64.6 M103.5 52.6 L103.5 54.1 5.35 54.1 5.35 52.6 103.5 52.6 M103.5 58.6 L103.5 60.1 5.35 60.1 5.35 58.6 103.5 58.6 M103.5 55.6 L103.5 57.1 5.35 57.1 5.35 55.6 103.5 55.6 M103.5 49.6 L103.5 51.1 5.35 51.1 5.35 49.6 103.5 49.6 M103.5 40.6 L103.5 42.1 5.35 42.1 5.35 40.6 103.5 40.6 M103.5 28.6 L103.5 30.1 5.35 30.1 5.35 28.6 103.5 28.6 M103.5 43.6 L103.5 45.1 5.35 45.1 5.35 43.6 103.5 43.6 M103.5 46.6 L103.5 48.1 5.35 48.1 5.35 46.6 103.5 46.6 M103.5 37.6 L103.5 39.1 5.35 39.1 5.35 37.6 103.5 37.6 M103.5 34.6 L103.5 36.1 5.35 36.1 5.35 34.6 103.5 34.6 M103.5 25.6 L103.5 27.1 5.35 27.1 5.35 25.6 103.5 25.6 M103.5 31.6 L103.5 33.1 5.35 33.1 5.35 31.6 103.5 31.6 M103.5 22.6 L103.5 24.1 5.35 24.1 5.35 22.6 103.5 22.6 M103.5 19.6 L103.5 21.1 5.35 21.1 5.35 19.6 103.5 19.6 M103.5 13.6 L103.5 15.1 5.35 15.1 5.35 13.6 103.5 13.6 M103.5 16.6 L103.5 18.1 5.35 18.1 5.35 16.6 103.5 16.6 M103.5 7.6 L103.5 9.1 5.35 9.1 5.35 7.6 103.5 7.6 M103.5 10.6 L103.5 12.1 5.35 12.1 5.35 10.6 103.5 10.6 M103.5 4.6 L103.5 6.1 5.35 6.1 5.35 4.6 103.5 4.6" fill="#000000" fill-opacity="0.4" fill-rule="evenodd" stroke="none"/>
  </g>
</svg>
