<?xml version="1.0" encoding="UTF-8" standalone="no"?>
<svg xmlns:xlink="http://www.w3.org/1999/xlink" height="105.05px" width="143.25px" xmlns="http://www.w3.org/2000/svg">
  <g transform="matrix(1.0, 0.0, 0.0, 1.0, 0.95, 1.65)">
    <path d="M142.3 103.4 L-0.95 103.4 -0.95 -1.65 142.3 -1.65 142.3 103.4" fill="url(#gradient0)" fill-rule="evenodd" stroke="none"/>
    <path d="M94.15 6.25 Q109.1 6.25 109.1 21.2 L109.1 68.85 Q109.1 83.75 94.15 83.75 L49.9 83.75 Q34.95 83.75 34.95 68.85 L34.95 21.2 Q34.95 6.25 49.9 6.25 L94.15 6.25" fill="url(#gradient1)" fill-rule="evenodd" stroke="none"/>
    <path d="M84.3 26.55 L84.3 35.8 88.7 35.8 88.7 65.9 55.35 65.9 55.35 35.8 60.15 35.8 60.15 26.55 Q60.15 22.15 63.6 19.05 67.15 16.0 72.2 16.0 L72.25 16.0 Q77.25 16.0 80.75 19.05 84.3 22.15 84.3 26.55 M77.95 29.5 Q77.95 26.7 76.3 24.75 74.6 22.8 72.2 22.8 69.75 22.8 68.05 24.75 66.4 26.7 66.4 29.5 L66.4 35.8 77.95 35.8 77.95 29.5 M69.15 48.25 L70.05 48.95 67.45 58.4 77.25 58.4 74.6 48.9 75.4 48.25 Q76.75 46.95 76.75 45.1 76.75 43.25 75.4 41.95 74.15 40.65 72.3 40.65 70.45 40.65 69.15 41.95 67.85 43.25 67.85 45.1 67.85 46.95 69.15 48.25" fill="#000000" fill-rule="evenodd" stroke="none"/>
    <path d="M84.3 26.55 Q84.3 22.15 80.75 19.05 77.25 16.0 72.25 16.0 L72.2 16.0 Q67.15 16.0 63.6 19.05 60.15 22.15 60.15 26.55 L60.15 35.8 55.35 35.8 55.35 65.9 88.7 65.9 88.7 35.8 84.3 35.8 84.3 26.55 M77.95 29.5 Q77.95 26.7 76.3 24.75 74.6 22.8 72.2 22.8 69.75 22.8 68.05 24.75 66.4 26.7 66.4 29.5 L66.4 35.8 77.95 35.8 77.95 29.5 M69.15 48.25 Q67.85 46.95 67.85 45.1 67.85 43.25 69.15 41.95 70.45 40.65 72.3 40.65 74.15 40.65 75.4 41.95 76.75 43.25 76.75 45.1 76.75 46.95 75.4 48.25 L74.6 48.9 77.25 58.4 67.45 58.4 70.05 48.95 69.15 48.25" fill="none" stroke="#9b0000" stroke-linecap="round" stroke-linejoin="round" stroke-width="1.0"/>
  </g>
  <defs>
    <linearGradient gradientTransform="matrix(0.0, -0.0718, 0.0631, 0.0, 71.5, 50.85)" gradientUnits="userSpaceOnUse" id="gradient0" spreadMethod="pad" x1="-819.2" x2="819.2">
      <stop offset="0.0" stop-color="#3a0000" stop-opacity="0.84705883"/>
      <stop offset="1.0" stop-color="#000000" stop-opacity="0.4"/>
    </linearGradient>
    <radialGradient cx="0" cy="0" gradientTransform="matrix(0.0381, 0.0, 0.0, 0.0381, 72.05, 45.0)" gradientUnits="userSpaceOnUse" id="gradient1" r="819.2" spreadMethod="pad">
      <stop offset="0.0" stop-color="#ca0000"/>
      <stop offset="1.0" stop-color="#ca0000" stop-opacity="0.0"/>
    </radialGradient>
  </defs>
</svg>
