<?xml version="1.0" encoding="UTF-8" standalone="no"?>
<svg xmlns:xlink="http://www.w3.org/1999/xlink" height="132.35px" width="181.45px" xmlns="http://www.w3.org/2000/svg">
  <g transform="matrix(1.0, 0.0, 0.0, 1.0, 146.45, 32.25)">
    <path d="M34.5 -31.75 L34.5 99.6 -145.95 99.6 -145.95 -31.75 34.5 -31.75" fill="url(#gradient0)" fill-rule="evenodd" stroke="none"/>
    <path d="M34.5 -31.75 L34.5 99.6 -145.95 99.6 -145.95 -31.75 34.5 -31.75 Z" fill="none" stroke="url(#gradient1)" stroke-linecap="round" stroke-linejoin="round" stroke-width="1.0"/>
    <path d="M19.95 -3.35 Q24.05 0.75 24.05 6.6 24.05 12.45 19.95 16.55 15.8 20.7 9.95 20.7 4.1 20.7 0.0 16.55 -4.15 12.45 -4.15 6.6 -4.15 0.75 0.0 -3.35 4.1 -7.5 9.95 -7.5 15.8 -7.5 19.95 -3.35" fill="url(#gradient2)" fill-rule="evenodd" stroke="none"/>
    <path d="M19.95 -3.35 Q24.05 0.75 24.05 6.6 24.05 12.45 19.95 16.55 15.8 20.7 9.95 20.7 4.1 20.7 0.0 16.55 -4.15 12.45 -4.15 6.6 -4.15 0.75 0.0 -3.35 4.1 -7.5 9.95 -7.5 15.8 -7.5 19.95 -3.35 Z" fill="none" stroke="#0075bf" stroke-linecap="square" stroke-linejoin="bevel" stroke-width="1.5"/>
    <path d="M17.5 -1.2 Q20.65 1.15 20.65 4.35 20.65 7.55 17.5 9.8 15.85 11.05 13.65 11.65 L13.7 12.05 13.8 14.3 Q13.8 16.5 13.3 16.8 L11.9 16.8 Q11.65 16.15 11.65 14.45 L11.65 13.85 Q11.5 16.8 10.45 16.8 L10.1 16.75 9.85 14.65 9.85 12.1 9.65 12.1 Q9.3 17.15 8.35 17.15 L6.95 16.9 6.9 16.05 Q6.9 13.85 7.25 11.9 4.6 11.35 2.5 9.8 -0.6 7.55 -0.6 4.35 -0.6 1.15 2.5 -1.2 5.65 -3.45 10.05 -3.45 14.45 -3.45 17.5 -1.2 M17.95 5.0 L17.8 4.45 Q17.15 4.65 14.6 5.95 11.85 7.3 11.85 7.6 11.85 7.9 12.4 8.6 13.0 9.35 13.55 9.35 16.2 9.35 17.35 7.3 17.95 6.15 17.95 5.0 M2.55 5.0 Q2.55 6.15 3.15 7.3 4.25 9.35 6.95 9.35 7.45 9.35 8.05 8.6 L8.6 7.6 Q8.6 7.3 5.85 5.95 3.35 4.65 2.65 4.45 L2.55 5.0" fill="#000000" fill-rule="evenodd" stroke="none"/>
    <path d="M9.95 -7.5 Q15.8 -7.5 19.95 -3.35 24.05 0.75 24.05 6.6 24.05 12.45 19.95 16.55 15.8 20.7 9.95 20.7 4.1 20.7 0.0 16.55 -4.15 12.45 -4.15 6.6 -4.15 0.75 0.0 -3.35 4.1 -7.5 9.95 -7.5" fill="url(#gradient3)" fill-rule="evenodd" stroke="none"/>
  </g>
  <defs>
    <linearGradient gradientTransform="matrix(0.1013, 0.0, 0.0, 0.0813, -43.5, 33.0)" gradientUnits="userSpaceOnUse" id="gradient0" spreadMethod="pad" x1="-819.2" x2="819.2">
      <stop offset="0.5490196078431373" stop-color="#00b0fd" stop-opacity="0.0"/>
      <stop offset="1.0" stop-color="#00b0fd" stop-opacity="0.69803923"/>
    </linearGradient>
    <linearGradient gradientTransform="matrix(0.0702, -0.0847, 0.0617, 0.0511, -65.75, 41.4)" gradientUnits="userSpaceOnUse" id="gradient1" spreadMethod="pad" x1="-819.2" x2="819.2">
      <stop offset="0.6470588235294118" stop-color="#00b0fd" stop-opacity="0.0"/>
      <stop offset="1.0" stop-color="#00b0fd" stop-opacity="0.69803923"/>
    </linearGradient>
    <linearGradient gradientTransform="matrix(2.0E-4, -0.0172, 0.0172, 2.0E-4, 10.5, 4.65)" gradientUnits="userSpaceOnUse" id="gradient2" spreadMethod="pad" x1="-819.2" x2="819.2">
      <stop offset="0.0392156862745098" stop-color="#009efd"/>
      <stop offset="0.22745098039215686" stop-color="#0075bf"/>
      <stop offset="1.0" stop-color="#000000"/>
    </linearGradient>
    <radialGradient cx="0" cy="0" gradientTransform="matrix(0.0197, 0.0, 0.0, 0.0197, 12.05, -4.5)" gradientUnits="userSpaceOnUse" id="gradient3" r="819.2" spreadMethod="pad">
      <stop offset="0.0" stop-color="#ffffff" stop-opacity="0.6"/>
      <stop offset="1.0" stop-color="#ffffff" stop-opacity="0.0"/>
    </radialGradient>
  </defs>
</svg>
