<?xml version="1.0" encoding="UTF-8" standalone="no"?>
<svg xmlns:xlink="http://www.w3.org/1999/xlink" height="6.2px" width="13.5px" xmlns="http://www.w3.org/2000/svg">
  <g transform="matrix(1.0, 0.0, 0.0, 1.0, 0.25, -0.15)">
    <path d="M11.05 5.35 Q11.05 6.35 10.25 6.35 L0.5 6.35 Q-0.25 6.35 -0.25 5.35 L-0.25 1.15 Q-0.25 0.15 0.5 0.15 L10.25 0.15 Q11.05 0.15 11.05 1.15 L11.05 5.35" fill="#1db2ea" fill-rule="evenodd" stroke="none"/>
    <path d="M8.45 2.1 L8.45 4.4 Q8.45 4.95 8.0 4.95 L2.65 4.95 Q2.25 4.95 2.25 4.4 L2.25 2.1 Q2.25 1.55 2.65 1.55 L8.0 1.55 Q8.45 1.55 8.45 2.1" fill="#000000" fill-rule="evenodd" stroke="none"/>
    <path d="M13.0 5.25 L10.1 5.25 Q9.85 5.25 9.85 4.6 L9.85 1.9 Q9.85 1.25 10.1 1.25 L13.0 1.25 Q13.25 1.25 13.25 1.9 L13.25 4.6 13.0 5.25" fill="#1db2ea" fill-rule="evenodd" stroke="none"/>
  </g>
</svg>
