<?xml version="1.0" encoding="UTF-8" standalone="no"?>
<svg xmlns:xlink="http://www.w3.org/1999/xlink" height="22.2px" width="17.1px" xmlns="http://www.w3.org/2000/svg">
  <g transform="matrix(1.0, 0.0, 0.0, 1.0, 75.8, 13.7)">
    <path d="M-67.15 -4.15 Q-68.1 -4.15 -68.8 -3.5 -69.45 -2.8 -69.45 -1.85 -69.45 -0.9 -68.8 -0.2 L-68.35 0.15 -69.7 5.05 -64.6 5.05 -65.95 0.1 -65.55 -0.2 Q-64.85 -0.9 -64.85 -1.85 -64.85 -2.8 -65.55 -3.5 -66.2 -4.15 -67.15 -4.15 M-63.95 -6.6 Q-64.0 -8.7 -65.05 -10.05 -65.9 -11.0 -67.2 -11.05 -68.45 -10.95 -69.3 -9.95 -70.3 -8.65 -70.2 -6.6 L-63.95 -6.6 M-73.35 -6.6 Q-73.45 -9.55 -71.85 -11.45 -70.05 -13.65 -67.25 -13.7 -64.4 -13.75 -62.55 -11.55 -60.85 -9.65 -60.85 -6.6 -58.7 -6.5 -58.7 -4.6 L-58.7 6.55 Q-58.7 8.5 -61.05 8.5 L-73.5 8.5 Q-75.8 8.5 -75.8 6.55 L-75.8 -4.6 Q-75.8 -6.6 -73.5 -6.6 L-73.35 -6.6" fill="#ffffff" fill-opacity="0.4" fill-rule="evenodd" stroke="none"/>
  </g>
</svg>
