<?xml version="1.0" encoding="UTF-8" standalone="no"?>
<svg xmlns:xlink="http://www.w3.org/1999/xlink" height="189.05px" width="349.6px" xmlns="http://www.w3.org/2000/svg">
  <g transform="matrix(1.0, 0.0, 0.0, 1.0, -225.85, -186.9)">
    <path d="M560.6 375.95 L227.55 375.95 227.55 186.9 574.9 186.9 574.9 360.45 560.6 375.95" fill="url(#gradient0)" fill-rule="evenodd" stroke="none"/>
    <path d="M574.2 338.65 L574.2 338.55 574.55 338.55 574.55 338.65 574.2 338.65" fill="url(#gradient1)" fill-rule="evenodd" stroke="none"/>
    <path d="M574.2 338.4 L574.2 337.75 227.0 337.75 227.0 215.15 574.55 215.15 574.55 338.4 574.2 338.4" fill="url(#gradient2)" fill-rule="evenodd" stroke="none"/>
    <path d="M393.4 217.1 Q359.5 217.35 297.5 216.45 235.55 215.5 226.3 215.0 L399.75 215.0 575.2 214.95 Q542.9 216.85 485.35 216.85 427.35 216.85 393.4 217.1" fill="url(#gradient3)" fill-rule="evenodd" stroke="none"/>
    <path d="M392.95 340.1 Q359.1 340.35 297.15 339.45 235.15 338.5 225.85 338.0 L399.3 338.0 574.8 337.95 Q542.55 339.85 484.9 339.85 426.95 339.85 392.95 340.1" fill="url(#gradient4)" fill-rule="evenodd" stroke="none"/>
    <path d="M575.45 314.4 L226.35 314.4 226.35 254.4 575.45 254.4 575.45 314.4" fill="url(#gradient5)" fill-rule="evenodd" stroke="none"/>
  </g>
  <defs>
    <linearGradient gradientTransform="matrix(-2.0E-4, 0.0334, -0.1093, -5.0E-4, 396.25, 353.45)" gradientUnits="userSpaceOnUse" id="gradient0" spreadMethod="pad" x1="-819.2" x2="819.2">
      <stop offset="0.0" stop-color="#000000"/>
      <stop offset="1.0" stop-color="#420000"/>
    </linearGradient>
    <radialGradient cx="0" cy="0" gradientTransform="matrix(0.223, 0.0, 0.0, 0.1165, 402.3, 216.55)" gradientUnits="userSpaceOnUse" id="gradient1" r="819.2" spreadMethod="pad">
      <stop offset="0.0" stop-color="#990000"/>
      <stop offset="1.0" stop-color="#230000"/>
    </radialGradient>
    <radialGradient cx="0" cy="0" gradientTransform="matrix(0.223, 0.0, 0.0, 0.1165, 402.3, 216.55)" gradientUnits="userSpaceOnUse" id="gradient2" r="819.2" spreadMethod="pad">
      <stop offset="0.0" stop-color="#950000"/>
      <stop offset="1.0" stop-color="#660000"/>
    </radialGradient>
    <radialGradient cx="0" cy="0" gradientTransform="matrix(0.215, 0.0, 0.0, 0.3841, 400.65, 216.05)" gradientUnits="userSpaceOnUse" id="gradient3" r="819.2" spreadMethod="pad">
      <stop offset="0.0" stop-color="#ff0000"/>
      <stop offset="1.0" stop-color="#ff0000" stop-opacity="0.0"/>
    </radialGradient>
    <radialGradient cx="0" cy="0" gradientTransform="matrix(0.215, 0.0, 0.0, 0.3841, 400.3, 339.05)" gradientUnits="userSpaceOnUse" id="gradient4" r="819.2" spreadMethod="pad">
      <stop offset="0.0" stop-color="#ff0000"/>
      <stop offset="1.0" stop-color="#ff0000" stop-opacity="0.0"/>
    </radialGradient>
    <radialGradient cx="0" cy="0" gradientTransform="matrix(0.2411, 0.0, 0.0, 0.1053, 416.8, 216.15)" gradientUnits="userSpaceOnUse" id="gradient5" r="819.2" spreadMethod="pad">
      <stop offset="0.0" stop-color="#210000"/>
      <stop offset="1.0" stop-color="#330000"/>
    </radialGradient>
  </defs>
</svg>
