<?xml version="1.0" encoding="UTF-8" standalone="no"?>
<svg xmlns:xlink="http://www.w3.org/1999/xlink" height="18.3px" width="23.0px" xmlns="http://www.w3.org/2000/svg">
  <g transform="matrix(1.0, 0.0, 0.0, 1.0, 11.35, 8.6)">
    <path d="M0.95 -1.45 Q1.4 -1.9 1.95 -1.9 2.5 -1.9 2.85 -1.45 3.25 -1.0 3.25 -0.35 3.25 0.35 2.85 0.9 2.5 1.35 1.95 1.35 1.4 1.35 0.95 0.9 0.7 0.35 0.7 -0.35 0.7 -1.0 0.95 -1.45 M5.45 -0.6 Q5.45 1.5 4.0 3.0 L3.55 3.05 1.95 2.5 2.25 4.1 2.1 4.35 1.55 4.85 1.5 4.4 Q1.5 3.95 1.2 3.95 L1.2 4.5 1.2 4.95 1.15 4.95 -0.4 4.85 -0.4 4.8 -0.4 4.55 -0.4 3.9 -0.65 4.35 -0.9 4.75 -1.1 4.65 -1.25 4.65 -1.6 4.55 -1.65 4.55 -1.65 4.35 -1.6 3.4 -1.45 2.8 -1.9 2.85 -1.8 2.7 -2.15 2.8 -3.25 3.0 -4.0 2.85 Q-5.3 1.4 -5.3 -0.6 -5.3 -2.8 -3.8 -4.4 -2.2 -6.0 0.1 -6.0 2.25 -6.0 3.85 -4.4 5.45 -2.8 5.45 -0.6 M8.9 -4.6 Q10.65 -4.45 10.65 -2.55 10.65 -1.75 9.65 -1.25 L9.1 -1.25 Q8.9 -1.35 8.65 -1.9 L8.35 -2.6 6.8 -1.55 6.55 -2.1 6.2 -2.7 Q6.5 -3.3 7.55 -4.15 7.2 -4.7 7.2 -5.8 7.2 -7.35 8.05 -7.6 9.05 -7.8 9.05 -5.75 L8.9 -4.6 M8.25 2.35 L7.6 2.35 7.2 3.0 6.8 3.7 5.25 2.7 4.95 3.2 4.65 3.95 Q4.95 4.5 6.0 5.25 5.65 5.85 5.65 6.9 5.65 8.45 6.65 8.7 7.55 8.9 7.55 6.85 L7.3 5.7 Q9.1 5.55 9.1 3.65 9.1 2.85 8.25 2.35 M0.9 1.95 Q0.4 1.0 0.4 1.8 L0.6 2.3 0.95 2.35 1.05 2.1 0.9 1.95 M-7.3 -4.15 Q-6.9 -4.7 -6.9 -5.8 -6.9 -7.35 -7.95 -7.6 -8.8 -7.8 -8.8 -5.75 -8.8 -4.9 -8.6 -4.6 -10.35 -4.45 -10.35 -2.55 -10.35 -1.75 -9.4 -1.25 L-8.9 -1.25 Q-8.65 -1.35 -8.45 -1.9 L-8.05 -2.6 -6.55 -1.55 Q-6.4 -1.55 -6.35 -2.1 L-5.95 -2.7 Q-6.25 -3.3 -7.3 -4.15 M-3.25 -0.35 L-2.95 -1.45 Q-2.55 -1.9 -1.95 -1.9 -1.45 -1.9 -1.1 -1.45 -0.6 -1.0 -0.6 -0.35 -0.6 0.35 -1.1 0.9 -1.45 1.35 -1.95 1.35 -2.55 1.35 -2.95 0.9 L-3.25 -0.35 M-0.1 1.8 L-0.2 2.3 -0.55 2.5 -0.65 2.5 -0.65 2.3 -0.4 1.6 Q-0.1 1.2 -0.1 1.8 M-5.3 2.7 L-4.95 3.2 -4.6 3.95 -6.0 5.25 Q-5.6 5.85 -5.6 6.9 -5.6 8.45 -6.55 8.7 -7.5 8.9 -7.5 6.85 L-7.3 5.7 Q-9.05 5.55 -9.05 3.65 -9.05 2.85 -8.1 2.35 L-7.6 2.35 -7.2 3.0 -6.75 3.7 -5.3 2.7" fill="none" stroke="#000000" stroke-linecap="round" stroke-linejoin="round" stroke-width="2.0"/>
    <path d="M0.95 -1.45 Q0.7 -1.0 0.7 -0.35 0.7 0.35 0.95 0.9 1.4 1.35 1.95 1.35 2.5 1.35 2.85 0.9 3.25 0.35 3.25 -0.35 3.25 -1.0 2.85 -1.45 2.5 -1.9 1.95 -1.9 1.4 -1.9 0.95 -1.45 M5.45 -0.6 Q5.45 1.5 4.0 3.0 L3.55 3.05 1.95 2.5 2.25 4.1 2.1 4.35 1.55 4.85 1.5 4.4 Q1.5 3.95 1.2 3.95 L1.2 4.5 1.2 4.95 1.15 4.95 -0.4 4.85 -0.4 4.8 -0.4 4.55 -0.4 3.9 -0.65 4.35 -0.9 4.75 -1.1 4.65 -1.25 4.65 -1.6 4.55 -1.65 4.55 -1.65 4.35 -1.6 3.4 -1.45 2.8 -1.9 2.85 -1.8 2.7 -2.15 2.8 -3.25 3.0 -4.0 2.85 Q-5.3 1.4 -5.3 -0.6 -5.3 -2.8 -3.8 -4.4 -2.2 -6.0 0.1 -6.0 2.25 -6.0 3.85 -4.4 5.45 -2.8 5.45 -0.6 M8.9 -4.6 Q10.65 -4.45 10.65 -2.55 10.65 -1.75 9.65 -1.25 L9.1 -1.25 Q8.9 -1.35 8.65 -1.9 L8.35 -2.6 6.8 -1.55 6.55 -2.1 6.2 -2.7 Q6.5 -3.3 7.55 -4.15 7.2 -4.7 7.2 -5.8 7.2 -7.35 8.05 -7.6 9.05 -7.8 9.05 -5.75 L8.9 -4.6 M8.25 2.35 Q9.1 2.85 9.1 3.65 9.1 5.55 7.3 5.7 L7.55 6.85 Q7.55 8.9 6.65 8.7 5.65 8.45 5.65 6.9 5.65 5.85 6.0 5.25 4.95 4.5 4.65 3.95 L4.95 3.2 5.25 2.7 6.8 3.7 7.2 3.0 7.6 2.35 8.25 2.35 M0.9 1.95 Q0.4 1.0 0.4 1.8 L0.6 2.3 0.95 2.35 1.05 2.1 0.9 1.95 M-0.1 1.8 Q-0.1 1.2 -0.4 1.6 L-0.65 2.3 -0.65 2.5 -0.55 2.5 -0.2 2.3 -0.1 1.8 M-3.25 -0.35 L-2.95 0.9 Q-2.55 1.35 -1.95 1.35 -1.45 1.35 -1.1 0.9 -0.6 0.35 -0.6 -0.35 -0.6 -1.0 -1.1 -1.45 -1.45 -1.9 -1.95 -1.9 -2.55 -1.9 -2.95 -1.45 L-3.25 -0.35 M-7.3 -4.15 Q-6.25 -3.3 -5.95 -2.7 L-6.35 -2.1 Q-6.4 -1.55 -6.55 -1.55 L-8.05 -2.6 -8.45 -1.9 Q-8.65 -1.35 -8.9 -1.25 L-9.4 -1.25 Q-10.35 -1.75 -10.35 -2.55 -10.35 -4.45 -8.6 -4.6 -8.8 -4.9 -8.8 -5.75 -8.8 -7.8 -7.95 -7.6 -6.9 -7.35 -6.9 -5.8 -6.9 -4.7 -7.3 -4.15 M-5.3 2.7 L-4.95 3.2 -4.6 3.95 -6.0 5.25 Q-5.6 5.85 -5.6 6.9 -5.6 8.45 -6.55 8.7 -7.5 8.9 -7.5 6.85 L-7.3 5.7 Q-9.05 5.55 -9.05 3.65 -9.05 2.85 -8.1 2.35 L-7.6 2.35 -7.2 3.0 -6.75 3.7 -5.3 2.7" fill="#03b5ff" fill-rule="evenodd" stroke="none"/>
  </g>
</svg>
