<?xml version="1.0" encoding="UTF-8" standalone="no"?>
<svg xmlns:xlink="http://www.w3.org/1999/xlink" height="144.45px" width="246.85px" xmlns="http://www.w3.org/2000/svg">
  <g transform="matrix(1.0, 0.0, 0.0, 1.0, 123.4, 79.2)">
    <path d="M91.55 28.65 L-91.5 28.65 -76.0 55.45 76.05 55.45 91.55 28.65 M-123.4 -7.0 L-81.7 -79.2 81.75 -79.2 123.45 -7.0 81.75 65.25 -81.7 65.25 -123.4 -7.0 M-76.0 -69.4 L-91.75 -42.15 91.8 -42.15 76.05 -69.4 -76.0 -69.4 M-106.75 2.2 L-98.6 16.35 98.65 16.35 106.8 2.2 -106.75 2.2 M-98.85 -29.85 L-106.75 -16.15 106.8 -16.15 98.9 -29.85 -98.85 -29.85" fill="url(#gradient0)" fill-rule="evenodd" stroke="none"/>
    <path d="M-94.95 26.65 L95.0 26.65 77.25 57.45 -77.15 57.45 -94.95 26.65 M91.55 28.65 L-91.5 28.65 -76.0 55.45 76.05 55.45 91.55 28.65 M-95.2 -40.15 L-77.15 -71.4 77.25 -71.4 95.25 -40.15 -95.2 -40.15 M-80.5 -77.2 L-121.1 -7.0 -80.5 63.25 80.6 63.25 121.15 -7.0 80.6 -77.2 -80.5 -77.2 M-123.4 -7.0 L-81.7 -79.2 81.75 -79.2 123.45 -7.0 81.75 65.25 -81.7 65.25 -123.4 -7.0 M-76.0 -69.4 L-91.75 -42.15 91.8 -42.15 76.05 -69.4 -76.0 -69.4 M-99.75 18.35 L-110.2 0.2 110.3 0.2 99.8 18.35 -99.75 18.35 M-106.75 2.2 L-98.6 16.35 98.65 16.35 106.8 2.2 -106.75 2.2 M-110.2 -14.15 L-100.0 -31.85 100.05 -31.85 110.3 -14.15 -110.2 -14.15 M-98.85 -29.85 L-106.75 -16.15 106.8 -16.15 98.9 -29.85 -98.85 -29.85" fill="url(#gradient1)" fill-rule="evenodd" stroke="none"/>
  </g>
  <defs>
    <linearGradient gradientTransform="matrix(0.0, -0.087, -0.087, 0.0, 0.05, -6.05)" gradientUnits="userSpaceOnUse" id="gradient0" spreadMethod="pad" x1="-819.2" x2="819.2">
      <stop offset="0.00392156862745098" stop-color="#543800"/>
      <stop offset="0.17647058823529413" stop-color="#e9ca00"/>
      <stop offset="0.43529411764705883" stop-color="#6a4a00"/>
      <stop offset="0.44313725490196076" stop-color="#836300"/>
      <stop offset="0.4627450980392157" stop-color="#af8f00"/>
      <stop offset="0.47843137254901963" stop-color="#ceaf00"/>
      <stop offset="0.49019607843137253" stop-color="#e2c300"/>
      <stop offset="0.5019607843137255" stop-color="#e9ca00"/>
      <stop offset="0.6274509803921569" stop-color="#feffbf"/>
      <stop offset="0.7607843137254902" stop-color="#e9ca00"/>
      <stop offset="0.984313725490196" stop-color="#6a4700"/>
    </linearGradient>
    <linearGradient gradientTransform="matrix(0.1506, 0.0, 0.0, -0.1506, 0.05, -7.0)" gradientUnits="userSpaceOnUse" id="gradient1" spreadMethod="pad" x1="-819.2" x2="819.2">
      <stop offset="0.07450980392156863" stop-color="#543800"/>
      <stop offset="0.17647058823529413" stop-color="#e9ca00"/>
      <stop offset="0.43529411764705883" stop-color="#6a4a00"/>
      <stop offset="0.4588235294117647" stop-color="#836300"/>
      <stop offset="0.5058823529411764" stop-color="#af8f00"/>
      <stop offset="0.5490196078431373" stop-color="#ceaf00"/>
      <stop offset="0.5843137254901961" stop-color="#e2c300"/>
      <stop offset="0.6078431372549019" stop-color="#e9ca00"/>
      <stop offset="0.6431372549019608" stop-color="#e9ca00"/>
      <stop offset="0.8196078431372549" stop-color="#fff87f"/>
      <stop offset="0.8784313725490196" stop-color="#e9ca00"/>
      <stop offset="0.984313725490196" stop-color="#6a4700"/>
    </linearGradient>
  </defs>
</svg>
