<?xml version="1.0" encoding="UTF-8" standalone="no"?>
<svg xmlns:xlink="http://www.w3.org/1999/xlink" height="24.2px" width="89.1px" xmlns="http://www.w3.org/2000/svg">
  <g transform="matrix(1.0, 0.0, 0.0, 1.0, -97.55, -162.15)">
    <path d="M172.3 182.5 Q171.3 183.85 169.85 183.85 168.4 183.85 167.3 182.5 166.2 181.2 166.15 179.35 166.1 177.5 167.1 176.15 168.1 174.85 169.55 174.85 171.0 174.85 172.1 176.15 173.2 177.5 173.25 179.35 173.3 181.2 172.3 182.5 M180.5 178.65 Q181.5 177.35 182.95 177.35 184.4 177.35 185.5 178.65 186.6 180.0 186.65 181.85 186.7 183.7 185.7 185.0 184.7 186.35 183.25 186.35 181.8 186.35 180.7 185.0 179.6 183.7 179.55 181.85 179.5 180.0 180.5 178.65 M103.7 169.8 Q102.7 171.15 101.25 171.15 99.8 171.15 98.7 169.8 97.6 168.5 97.55 166.65 97.5 164.8 98.5 163.45 99.5 162.15 100.95 162.15 102.4 162.15 103.5 163.45 104.6 164.8 104.65 166.65 104.7 168.5 103.7 169.8 M148.4 171.75 Q149.5 173.1 149.55 174.95 149.6 176.8 148.6 178.1 147.6 179.45 146.15 179.45 144.7 179.45 143.6 178.1 142.5 176.8 142.45 174.95 142.4 173.1 143.4 171.75 144.4 170.45 145.85 170.45 147.3 170.45 148.4 171.75 M154.8 174.1 Q155.8 172.8 157.25 172.8 158.7 172.8 159.8 174.1 160.9 175.45 160.95 177.3 161.0 179.15 160.0 180.45 159.0 181.8 157.55 181.8 156.1 181.8 155.0 180.45 153.9 179.15 153.85 177.3 153.8 175.45 154.8 174.1" fill="#2c2c2c" fill-rule="evenodd" stroke="none"/>
  </g>
</svg>
