<?xml version="1.0" encoding="UTF-8" standalone="no"?>
<svg xmlns:xlink="http://www.w3.org/1999/xlink" height="36.6px" width="48.1px" xmlns="http://www.w3.org/2000/svg">
  <g transform="matrix(1.0, 0.0, 0.0, 1.0, -10.8, 2.65)">
    <path d="M26.95 -0.35 L26.65 -0.35 26.6 -0.35 25.2 0.25 24.7 0.0 24.15 0.2 24.55 -0.6 25.65 -1.15 25.85 -1.2 25.75 -1.55 Q25.75 -2.7 27.1 -2.65 28.4 -2.65 28.4 -2.1 L28.1 -1.15 Q27.7 -0.35 26.95 -0.35 M53.1 12.35 Q53.1 13.1 52.35 13.15 L52.45 13.75 52.35 14.25 Q54.6 14.35 54.6 15.0 L54.5 15.35 56.1 15.3 57.15 15.35 57.15 15.25 56.4 15.1 57.15 15.05 Q57.85 14.3 58.45 14.85 58.9 15.3 58.9 15.9 58.9 16.75 58.25 16.75 L57.95 16.65 56.0 16.75 55.25 16.75 55.35 17.25 Q55.35 18.2 51.95 18.75 L50.65 19.25 46.4 19.75 45.95 19.85 46.05 20.2 45.75 20.9 45.05 21.2 41.95 21.05 Q41.95 22.1 41.15 22.15 L40.5 22.85 39.05 23.15 Q39.65 23.55 39.65 24.2 L39.45 24.9 39.15 25.2 39.35 25.2 39.75 25.0 Q40.75 24.7 41.8 26.2 41.35 26.35 41.05 26.95 40.8 27.45 40.1 27.45 39.35 27.45 39.05 26.85 L39.0 26.65 38.0 26.5 36.25 26.4 Q36.0 26.3 36.0 25.7 L36.1 25.3 33.25 25.0 33.75 25.75 33.6 26.3 Q33.35 26.75 32.8 26.75 31.55 26.75 28.4 25.65 L28.05 25.95 Q28.9 27.0 28.9 27.8 L28.6 28.55 Q28.3 28.9 27.8 28.9 27.25 28.9 26.05 27.4 L26.05 27.45 28.8 31.4 28.55 32.15 Q28.2 32.6 27.65 32.6 26.65 32.6 24.85 30.6 L24.65 30.5 24.4 31.15 Q24.05 31.6 23.5 31.6 L21.75 29.65 22.1 30.6 21.9 31.15 Q21.7 31.5 21.25 31.5 20.15 31.5 18.85 29.65 L18.45 29.8 Q17.6 29.8 17.4 29.4 L17.35 28.95 17.45 28.55 17.1 28.55 16.55 28.45 Q15.4 28.4 14.05 25.95 L13.0 23.6 12.05 23.8 Q11.35 23.8 11.35 22.7 L11.5 21.55 11.15 20.9 10.8 20.25 Q10.8 19.35 10.95 19.05 11.0 17.65 11.95 18.2 L12.3 15.9 12.0 15.4 11.7 14.9 Q11.7 14.7 13.25 12.3 L13.85 11.4 13.8 11.25 Q13.8 10.65 14.2 10.1 L14.9 9.6 15.2 8.95 15.25 8.85 15.2 8.7 15.0 8.05 Q15.0 7.45 15.9 6.65 L15.9 6.45 Q16.2 6.05 16.6 5.9 L18.2 4.45 18.35 4.4 Q22.55 -0.65 22.95 1.8 24.65 -0.2 24.65 2.1 25.8 1.7 25.95 2.85 26.2 2.2 26.95 1.25 28.05 -0.2 28.05 1.1 27.0 3.95 26.3 3.95 L25.9 3.7 25.8 3.45 24.95 4.55 25.1 5.3 Q26.25 4.7 26.25 6.1 L25.6 7.5 25.6 7.95 25.4 8.5 Q27.1 7.85 27.4 9.1 L27.95 8.95 Q32.7 7.6 33.45 8.65 L34.4 8.45 35.3 8.3 35.2 8.15 35.15 7.8 Q35.15 7.0 35.9 6.85 36.65 6.7 36.65 7.5 L36.6 7.9 37.1 7.85 37.15 7.85 37.85 7.95 38.45 8.2 39.45 8.4 39.3 7.85 39.3 7.8 38.8 7.95 Q38.05 7.95 38.05 7.25 38.05 6.5 39.0 6.35 39.75 6.2 39.9 6.75 L40.55 6.6 Q41.75 6.6 41.75 7.8 L41.75 8.1 41.8 8.5 Q41.8 9.45 40.5 9.45 39.9 9.45 39.7 9.1 L39.6 8.75 39.6 8.65 39.5 8.5 39.5 8.45 Q38.6 9.25 37.15 10.0 L36.95 10.1 36.85 10.15 Q39.35 9.7 39.35 10.75 L39.15 11.15 Q43.9 10.25 43.9 11.4 43.9 12.35 37.4 13.95 L37.5 14.4 38.1 14.25 43.9 12.9 48.35 12.6 50.5 12.4 50.8 12.05 50.75 11.95 Q50.75 11.25 51.95 11.4 53.1 11.6 53.1 12.35 M47.4 14.55 L47.85 14.5 49.5 14.55 51.15 14.3 50.85 13.75 50.45 12.85 47.0 14.5 47.4 14.55 M49.1 15.8 L48.25 15.95 45.1 16.8 45.85 16.75 50.55 16.3 50.4 16.1 Q49.45 16.1 49.1 15.8 M49.8 21.25 Q49.8 20.4 51.4 20.8 L51.45 20.85 50.95 21.45 50.4 21.75 Q49.95 21.75 49.85 21.5 L49.8 21.25 M57.7 16.8 L57.8 17.1 57.3 17.8 56.3 18.25 Q55.85 18.25 55.75 18.0 L55.7 17.7 Q55.7 16.9 57.7 16.8 M53.35 19.75 L53.0 19.3 Q53.0 18.6 54.05 18.95 55.1 19.25 55.1 19.7 55.1 20.2 54.6 20.2 L53.35 19.75 M44.9 26.55 Q44.4 26.55 44.0 25.9 L43.7 25.35 Q43.7 24.85 44.65 25.15 45.6 25.45 45.6 25.95 45.6 26.55 44.9 26.55 M33.2 7.65 L32.75 7.85 Q32.35 7.85 32.25 7.55 L32.2 7.25 Q32.2 6.85 32.85 6.75 33.45 6.65 33.45 7.15 L33.2 7.65 M22.1 3.5 L21.2 3.55 20.25 4.25 20.35 5.0 20.35 5.05 21.0 4.7 22.3 3.65 22.1 3.5 M26.45 13.25 L26.45 13.3 26.5 13.25 26.45 13.25 M28.1 14.25 L28.2 14.15 28.2 14.05 28.0 14.05 28.1 14.25 M12.5 22.3 L12.55 22.3 12.5 22.25 12.5 22.3 M37.9 25.4 L37.3 25.4 37.35 25.5 37.9 25.4 M30.8 28.35 Q30.45 28.35 30.15 27.75 L29.9 27.05 Q29.9 26.15 30.75 26.85 L31.6 27.7 Q31.6 28.35 30.8 28.35 M23.6 32.7 L22.75 32.85 22.4 32.45 Q22.4 31.75 23.2 31.9 24.0 32.0 24.0 32.4 L23.6 32.7 M26.15 33.95 Q25.7 33.95 25.5 33.65 L25.4 33.3 Q25.4 32.65 26.05 32.75 26.7 32.85 26.7 33.35 L26.55 33.75 Q26.35 33.95 26.15 33.95" fill="#ffffff" fill-rule="evenodd" stroke="none"/>
  </g>
</svg>
