<?xml version="1.0" encoding="UTF-8" standalone="no"?>
<svg xmlns:xlink="http://www.w3.org/1999/xlink" height="48.5px" width="90.95px" xmlns="http://www.w3.org/2000/svg">
  <g transform="matrix(1.0, 0.0, 0.0, 1.0, 0.1, 7.85)">
    <path d="M16.15 -0.25 L20.05 -2.9 Q24.1 -5.65 25.4 -6.0 28.15 -6.75 29.4 -7.6 31.2 -8.0 41.9 -7.8 L46.9 -6.5 54.75 -4.8 61.25 -2.65 Q66.1 -0.85 67.5 -0.85 L71.9 -3.05 Q76.75 -5.3 79.1 -5.3 84.5 -5.3 87.1 2.6 88.4 6.6 88.6 10.9 88.6 13.15 88.05 16.25 L88.0 16.35 Q90.85 16.25 90.85 18.5 90.85 19.8 87.55 22.2 85.2 23.9 82.1 25.55 80.15 26.6 79.1 27.45 L77.3 28.9 Q76.05 29.85 73.9 30.15 71.8 30.45 70.9 31.05 L68.1 34.2 Q66.1 36.55 63.4 37.8 60.65 39.15 58.85 39.6 54.95 40.65 48.75 40.65 41.0 40.65 36.0 38.1 L32.1 35.55 Q31.15 35.55 28.6 36.6 26.05 37.65 22.25 37.65 14.5 37.65 9.4 33.5 4.55 29.55 2.75 22.4 0.05 22.25 0.05 20.4 0.05 19.55 1.25 18.4 2.4 17.3 2.4 16.55 L1.15 15.2 Q-0.1 13.85 -0.1 13.05 -0.1 11.7 1.3 10.05 L2.65 8.1 2.35 7.2 Q2.05 6.65 2.05 6.3 2.05 4.5 4.45 2.15 L4.45 2.4 4.85 2.55 5.05 2.2 Q4.95 2.0 4.75 1.95 L4.6 2.0 4.85 1.75 Q8.1 -1.3 12.25 -1.3 L14.5 -0.75 Q15.9 -0.25 16.15 -0.25 M24.8 -1.5 L31.0 -2.05 35.5 -1.55 39.45 -2.05 47.0 -2.85 47.25 -3.0 44.45 -3.65 35.1 -4.25 29.15 -3.45 Q28.1 -3.2 24.8 -1.5 M81.7 2.4 L82.1 2.45 81.95 1.5 Q81.5 0.35 79.6 -0.1 L79.55 2.4 78.6 2.4 Q78.3 2.5 78.3 2.85 L78.6 3.05 79.55 3.05 Q79.55 3.4 80.3 4.15 81.25 5.2 81.85 6.4 L82.1 4.25 81.7 4.3 Q81.1 4.3 80.85 3.8 L80.7 3.35 80.7 3.2 Q80.1 3.2 79.9 2.7 L79.8 2.15 Q79.8 1.1 80.75 1.05 81.65 1.0 81.65 2.1 L81.65 2.4 81.7 2.4 M81.75 15.45 L81.5 15.95 81.75 15.9 82.0 15.9 81.95 15.75 Q81.95 14.7 82.9 14.85 83.85 14.95 83.85 15.75 L83.65 16.3 Q83.35 16.7 82.9 16.7 L82.65 16.65 82.65 16.95 82.4 17.85 Q84.3 16.85 84.65 14.5 84.55 11.1 84.8 10.05 L82.4 14.35 81.75 15.45 81.9 14.6 81.6 14.25 Q81.2 14.55 81.2 15.1 81.2 15.4 81.5 15.6 L81.75 15.45 M81.1 13.35 L81.3 13.35 81.45 13.05 81.35 12.9 Q80.9 12.75 80.7 13.2 L81.1 13.35 M81.5 8.3 L81.15 8.65 81.5 9.05 81.8 8.9 81.8 8.5 81.5 8.3 M81.15 18.25 L81.85 18.05 81.75 18.05 Q81.15 18.05 80.95 17.65 L81.1 18.1 81.15 18.25 M76.95 6.5 L76.8 6.2 76.4 6.3 76.05 6.55 76.05 6.75 76.55 6.9 76.85 6.8 76.95 6.5 M78.8 6.8 L79.0 6.7 79.05 6.5 78.9 6.25 78.4 6.45 78.45 6.65 78.8 6.8 M75.6 7.85 L75.9 7.85 Q76.35 7.8 76.35 7.2 L76.25 6.95 76.05 6.9 Q75.5 7.25 75.5 7.55 L75.6 7.85 M74.95 7.05 L75.45 6.75 75.3 6.45 74.55 6.45 74.45 6.5 74.45 6.95 74.55 6.95 74.95 7.05 M75.05 4.7 L75.0 4.95 Q75.0 5.25 75.35 5.4 L75.65 5.15 75.8 4.8 75.75 4.55 Q75.2 4.45 75.05 4.7 M74.3 3.6 L74.45 3.6 74.55 3.35 74.25 3.0 Q73.95 3.1 73.95 3.45 L74.3 3.6 M72.35 2.85 Q72.0 2.65 71.8 2.95 L71.4 3.6 71.5 3.7 71.8 3.8 Q72.45 3.65 72.45 3.2 L72.35 2.85 M73.7 2.45 L74.1 2.6 74.3 2.55 74.4 2.2 74.3 1.95 74.1 1.95 73.7 2.45 M76.2 3.2 L76.1 2.95 75.9 2.9 75.5 3.25 75.3 3.55 75.4 3.8 75.6 3.9 Q76.2 3.75 76.2 3.2 M80.9 6.0 L80.4 5.95 80.35 6.25 80.45 6.5 80.75 6.55 80.95 6.45 81.05 6.25 80.9 6.0 M79.55 5.2 L79.55 4.95 79.25 4.5 Q78.75 4.85 78.75 5.1 L78.8 5.35 79.05 5.4 79.55 5.2 M77.55 3.75 L77.55 3.5 77.25 3.15 Q76.95 3.35 76.95 3.8 L77.3 3.9 Q77.7 3.9 77.55 3.75 M76.5 1.85 L77.1 2.1 77.4 2.1 77.4 1.5 76.5 1.5 76.5 1.85 M78.3 3.0 L78.0 2.75 Q77.7 2.95 77.7 3.2 L78.05 3.35 78.15 3.35 78.0 3.6 78.15 3.75 78.45 3.8 78.8 3.6 78.5 3.0 78.25 3.25 78.3 3.0 M79.25 2.2 L79.35 1.95 79.25 1.8 78.8 1.7 78.5 2.1 78.65 2.2 78.95 2.3 79.25 2.2 M76.35 7.95 Q76.35 8.5 77.2 10.5 L78.6 13.05 78.85 10.55 Q78.85 8.65 77.6 6.5 L76.35 7.95 M68.6 16.7 L67.95 16.7 67.95 17.0 67.95 17.4 Q68.05 17.6 68.4 17.6 68.75 17.6 68.7 17.45 L68.6 16.7 M61.8 9.8 L61.95 9.75 62.1 9.45 61.8 9.15 61.4 9.6 61.8 9.8 M63.5 7.8 Q63.9 7.8 63.75 7.7 L63.8 7.2 Q63.8 6.85 63.5 6.65 63.15 6.85 63.15 7.2 63.15 7.8 63.5 7.8 M64.4 9.0 L64.1 8.75 63.85 8.8 63.75 9.05 63.8 9.2 64.15 9.35 64.35 9.3 64.4 9.0 M62.15 5.2 L62.45 5.3 62.75 5.2 62.85 4.95 62.75 4.8 62.3 4.7 62.0 5.1 62.15 5.2 M61.15 2.15 L60.9 2.55 61.4 2.85 61.8 2.7 61.8 2.3 61.15 2.15 M67.45 4.55 L67.4 4.45 Q67.2 4.2 66.65 4.45 L66.8 4.85 67.05 4.9 67.45 4.55 M70.55 16.45 L71.15 17.05 71.1 16.95 70.95 16.5 Q70.95 15.45 71.9 15.6 L71.95 15.6 Q72.15 15.15 72.75 15.15 73.65 15.15 73.65 16.15 73.65 17.2 72.75 17.2 L72.55 17.2 71.9 17.45 74.05 18.05 74.5 17.85 74.6 17.25 73.7 15.05 72.8 13.35 72.05 13.65 72.05 13.5 71.75 13.3 71.4 13.65 71.6 13.85 71.35 13.95 69.85 14.65 70.55 16.45 M72.15 20.1 Q71.65 19.85 71.15 20.85 L71.55 21.05 71.9 20.75 72.15 20.3 72.15 20.1 M80.1 16.35 L80.3 16.05 80.25 15.85 80.15 15.8 Q79.2 15.6 79.2 16.25 L79.3 16.5 79.5 16.55 80.1 16.35 M78.0 16.8 L78.0 17.45 78.3 17.6 78.6 17.45 78.3 16.8 78.0 16.8 M80.4 15.0 L80.4 14.55 Q79.9 14.4 79.7 14.85 L80.05 15.05 80.4 15.0 M79.45 13.25 L79.15 13.05 78.85 13.4 79.15 13.8 79.45 13.65 79.45 13.25 M70.65 22.95 L70.7 23.15 71.05 23.3 71.4 23.25 71.4 22.8 70.9 22.7 70.65 22.95 M70.35 23.0 L70.25 22.95 Q69.5 22.95 69.5 23.2 69.5 23.6 69.6 23.4 L70.0 23.55 70.35 23.45 70.4 23.2 70.35 23.0 M67.0 23.7 L66.9 23.95 66.95 24.15 67.25 24.3 67.5 24.2 67.55 23.9 67.25 23.7 67.0 23.7 M67.95 21.65 L67.65 21.45 Q67.25 21.45 67.25 21.8 L67.65 22.05 67.95 21.65 M69.15 20.85 L68.6 20.9 68.55 21.3 68.55 21.8 68.9 21.9 Q69.3 21.9 69.15 21.75 L69.15 20.85 M69.8 19.95 L69.75 19.7 69.0 19.85 68.7 19.8 68.7 20.45 69.05 20.55 Q69.35 20.55 69.45 20.35 L69.8 19.95 M64.95 24.45 L65.0 24.55 65.3 24.6 65.7 24.45 65.6 24.0 65.25 23.75 64.95 24.15 64.95 24.45 M64.8 24.0 L64.65 24.0 Q63.3 24.05 63.3 24.8 63.3 25.3 63.6 25.4 L63.8 25.35 64.4 24.75 64.8 24.2 64.8 24.0 M63.15 24.7 L63.15 24.5 63.0 24.45 Q62.5 24.65 62.15 24.95 L62.6 25.4 Q63.15 25.05 63.15 24.7 M61.5 20.4 Q61.2 20.5 61.2 20.85 L61.5 21.05 61.8 20.75 61.5 20.4 M65.7 19.3 L65.7 19.5 65.8 19.6 66.05 19.65 66.2 19.55 66.3 19.25 Q66.3 19.05 66.0 19.05 65.7 19.05 65.7 19.3 M61.05 17.9 L60.75 17.25 Q60.45 17.45 60.45 17.9 60.45 18.45 60.75 18.6 L61.05 18.45 61.05 17.9 M70.95 23.9 Q70.15 24.2 69.85 24.8 L69.8 25.0 Q70.35 25.05 71.1 24.45 L71.9 23.55 70.95 23.9 M51.3 12.25 L51.0 12.05 50.7 12.4 51.0 12.8 51.3 12.65 51.3 12.25 M53.05 10.35 Q52.35 10.45 52.35 10.9 L52.75 11.3 53.2 10.6 53.05 10.35 M51.3 6.55 L51.3 6.75 51.45 6.85 51.75 6.9 52.05 6.8 52.05 6.45 51.5 6.35 51.3 6.55 M52.65 2.7 Q52.1 3.0 52.1 3.25 L52.2 3.5 52.45 3.55 52.75 3.4 52.95 3.0 52.65 2.7 M51.2 2.2 L51.15 1.75 50.5 1.7 50.45 2.0 50.55 2.25 50.85 2.3 51.2 2.2 M55.95 4.8 L56.1 4.95 56.4 5.1 Q56.7 5.1 56.7 4.7 L56.65 4.5 56.6 4.55 Q55.95 4.05 55.95 4.8 M57.15 11.5 Q57.2 11.1 57.8 10.0 L58.6 8.4 Q56.55 8.8 55.95 9.1 55.25 9.5 55.25 10.35 L56.05 10.9 57.15 11.5 M40.55 2.75 L40.5 2.3 39.95 2.4 39.9 2.75 Q39.9 3.3 40.25 3.3 L40.5 3.2 40.55 2.75 M50.55 4.3 L50.5 4.2 49.7 4.1 49.7 4.65 50.0 4.8 50.55 4.3 M49.8 2.95 Q49.7 2.75 49.5 2.7 49.2 2.75 49.2 3.1 L49.5 3.55 49.8 3.4 49.8 2.95 M42.1 9.75 Q41.5 9.9 41.5 10.1 L41.5 10.4 42.4 10.0 42.1 9.75 M46.0 15.7 Q45.7 15.75 45.7 16.1 L46.0 16.55 46.3 16.4 46.3 15.95 46.0 15.7 M46.6 15.75 L46.9 16.05 Q47.3 15.9 47.3 15.55 L47.0 15.3 Q46.6 15.4 46.6 15.75 M47.55 13.85 Q47.1 13.95 47.1 14.1 L47.4 14.4 47.7 14.2 47.55 13.85 M48.8 13.2 Q48.7 13.0 48.5 12.95 L48.2 13.1 48.2 13.4 Q48.35 13.55 48.6 13.55 L48.8 13.2 M49.7 12.75 L49.4 12.45 Q48.85 12.75 48.85 13.0 L49.15 13.3 49.7 12.75 M48.85 11.65 L49.15 12.05 49.45 11.9 49.45 11.5 49.15 11.3 48.85 11.65 M48.8 11.45 L48.9 11.15 Q48.9 10.95 48.6 10.95 L48.4 10.95 48.3 11.2 48.3 11.4 48.6 11.55 48.8 11.45 M46.8 10.4 L46.9 10.7 47.1 10.8 47.4 10.55 47.1 10.05 46.8 10.05 46.8 10.4 M44.4 15.05 L42.35 15.0 42.35 15.05 43.15 16.2 44.3 17.05 44.2 17.1 44.2 17.4 44.6 17.55 44.8 17.2 44.6 17.0 44.4 15.1 44.4 15.05 M47.55 21.65 L47.0 21.6 46.8 21.8 46.8 21.95 47.25 22.1 47.55 22.05 47.55 21.65 M43.4 18.75 L42.95 18.9 42.95 19.05 43.25 19.4 43.5 19.3 43.55 19.0 43.4 18.75 M56.55 15.95 Q56.3 15.45 55.25 15.5 L55.85 17.65 56.6 16.8 56.55 15.95 M52.4 14.7 L52.1 15.0 52.2 15.25 52.45 15.3 52.7 15.2 52.7 14.95 52.4 14.7 M52.3 13.8 L52.25 13.65 52.15 13.6 51.7 13.6 52.0 14.15 52.25 14.05 52.3 13.8 M52.8 12.75 L52.35 12.9 52.35 13.05 52.65 13.4 52.95 13.2 52.8 12.75 M51.1 15.5 Q51.1 17.45 50.75 19.0 L52.1 18.65 51.7 16.9 51.1 15.5 M60.0 26.4 Q59.7 26.5 59.7 26.85 L60.0 27.05 60.3 26.75 60.0 26.4 M59.85 23.15 L60.15 22.95 59.85 22.25 59.65 22.35 59.55 22.7 Q59.55 23.05 59.85 23.15 M45.3 32.45 L36.25 33.75 Q37.4 34.05 39.55 35.5 42.55 36.85 48.65 36.85 55.45 36.85 60.45 34.9 64.35 33.4 66.15 31.3 L55.85 30.05 Q53.1 29.65 49.75 31.0 L45.3 32.45 M47.65 27.8 Q45.55 27.45 43.8 28.2 L42.15 29.25 47.15 28.0 47.65 27.8 M36.0 4.65 Q34.5 3.55 33.15 3.85 32.0 4.15 31.75 5.05 L33.45 5.6 35.6 5.25 36.0 4.65 M21.5 10.75 Q20.95 10.6 20.95 11.25 L20.95 11.7 Q21.05 12.15 21.4 12.15 L21.7 11.95 21.5 10.75 M25.25 9.05 L25.3 8.75 25.15 8.5 Q24.75 8.6 24.7 8.65 L24.7 8.8 25.0 9.15 25.25 9.05 M20.3 5.65 L20.25 5.1 19.6 5.2 19.6 5.5 20.0 5.8 20.3 5.65 M20.3 4.55 L20.4 4.55 20.75 4.65 21.05 4.6 21.05 4.3 21.0 4.1 20.9 4.05 20.5 4.05 20.3 4.35 20.3 4.55 M22.4 4.05 L22.4 4.35 Q22.55 4.65 23.0 4.65 L23.4 4.5 23.4 4.25 Q23.1 3.5 22.75 3.5 22.4 3.55 22.4 4.05 M20.45 2.95 L20.3 2.6 Q19.85 2.7 19.85 2.85 L20.15 3.15 20.45 2.95 M27.8 2.55 Q28.15 2.55 28.35 2.25 L28.2 1.95 Q27.3 1.75 27.3 2.25 L27.3 2.45 27.45 2.45 27.8 2.55 M37.5 10.6 Q37.2 10.75 37.2 10.95 L37.3 11.25 37.5 11.3 37.85 11.05 38.1 10.7 38.05 10.5 38.0 10.5 37.5 10.6 M37.55 8.0 L37.4 7.75 Q36.85 7.75 36.85 8.0 L36.95 8.25 37.25 8.3 37.45 8.2 37.55 8.0 M34.5 10.25 Q34.05 10.05 33.8 10.35 L33.7 10.75 34.0 11.05 34.55 10.5 34.5 10.25 M33.6 10.85 L33.3 10.2 Q32.9 10.2 32.9 10.6 L33.0 10.95 33.3 11.1 33.6 10.85 M31.05 10.5 L30.75 10.3 30.45 10.65 30.75 11.05 31.05 10.9 31.05 10.5 M23.65 7.4 L27.1 4.65 22.65 6.0 22.6 6.35 23.65 7.4 M20.45 14.65 L20.8 14.3 20.75 14.2 20.1 14.1 20.2 14.6 20.45 14.65 M22.0 15.3 Q21.6 15.4 21.6 15.75 L21.9 16.05 Q22.3 15.85 22.3 15.55 L22.0 15.3 M26.3 14.85 L26.25 14.3 Q25.4 14.35 25.4 15.6 L25.55 16.85 Q25.55 17.45 25.85 17.55 L26.15 17.4 26.3 14.85 M29.8 13.1 Q29.35 13.2 29.35 13.35 L29.65 13.65 29.95 13.45 29.8 13.1 M29.55 10.3 L29.5 10.2 28.85 10.1 28.95 10.6 29.2 10.65 29.55 10.3 M27.45 9.65 L27.75 10.05 28.05 9.9 28.05 9.5 27.75 9.3 27.45 9.65 M23.85 22.65 Q24.0 22.0 23.75 21.75 L23.75 21.8 23.35 22.55 23.85 22.65 M37.4 12.6 Q36.7 12.7 36.7 13.1 L37.0 13.4 37.55 12.9 37.4 12.6 M36.9 15.35 L36.45 15.35 36.75 15.9 37.0 15.8 37.05 15.55 37.0 15.4 36.9 15.35 M38.65 15.0 Q38.1 15.0 38.1 15.25 L38.2 15.5 38.5 15.55 38.7 15.45 38.8 15.25 38.65 15.0 M28.15 19.75 L27.5 19.7 27.45 20.0 27.55 20.25 27.85 20.3 28.2 20.2 28.15 19.75 M36.65 17.65 L38.15 18.4 38.1 18.5 38.4 18.8 38.7 18.6 39.0 18.65 38.8 18.35 38.8 18.3 38.75 18.3 38.25 17.6 Q37.8 17.15 37.25 17.1 L36.65 17.65 M34.15 14.9 L33.25 14.9 33.5 15.15 33.9 15.1 34.15 14.9 M10.95 10.95 L10.95 11.4 11.4 11.55 11.9 11.4 11.85 10.95 10.95 10.95 M14.15 8.4 L14.45 8.1 Q14.45 7.75 12.95 7.6 L12.95 8.15 13.4 8.4 14.15 8.4 M10.8 3.45 L11.1 3.9 11.4 3.75 Q11.35 3.15 11.1 2.9 10.8 3.1 10.8 3.45 M11.9 4.35 Q11.9 4.0 11.6 3.9 11.1 4.25 11.1 4.5 L11.15 4.7 11.15 4.75 11.4 4.8 11.7 4.65 11.9 4.35 M12.9 2.85 L13.4 2.85 13.4 2.7 Q13.4 2.35 13.1 2.15 L12.9 2.25 12.8 2.55 12.9 2.85 M19.55 4.25 L19.4 4.05 18.85 3.95 18.85 4.25 19.25 4.55 19.5 4.4 19.55 4.25 M17.45 3.5 L17.15 3.3 16.85 3.65 17.15 4.05 17.45 3.9 17.45 3.5 M18.0 2.3 L18.05 2.0 17.9 1.75 Q17.35 1.75 17.35 2.1 L17.45 2.35 17.7 2.4 18.0 2.3 M19.5 2.2 L18.85 2.1 18.95 2.6 19.2 2.65 19.55 2.3 19.5 2.2 M39.8 20.0 L39.5 19.8 39.25 19.8 39.15 20.05 39.2 20.25 39.55 20.4 39.75 20.3 39.8 20.0 M33.95 18.6 L34.1 19.75 34.45 19.8 34.7 19.7 34.7 18.8 Q34.35 18.45 33.95 18.6 M35.4 17.5 Q35.0 17.35 34.9 17.5 L34.85 17.8 35.15 18.15 35.55 17.75 35.4 17.5 M33.4 16.4 L33.7 16.2 33.55 15.75 Q33.15 15.85 33.1 15.9 L33.1 16.05 33.4 16.4 M35.3 16.25 L35.15 16.0 34.7 16.15 34.7 16.3 35.0 16.65 35.25 16.55 35.3 16.25 M33.05 14.75 L33.05 14.2 33.0 14.0 32.35 14.0 32.35 14.45 32.75 14.9 Q33.0 14.9 33.05 14.75 M14.85 10.85 Q15.7 10.85 15.7 11.75 L15.4 12.4 15.25 12.55 Q15.6 12.75 15.6 13.35 L15.05 14.2 14.3 14.7 15.0 14.8 Q16.45 14.15 17.25 12.5 17.85 11.25 17.85 9.95 L17.75 8.75 Q16.75 8.95 14.9 10.8 L14.85 10.85 M13.65 12.2 L13.1 13.2 13.95 12.65 13.7 12.35 13.65 12.2 M4.85 7.75 L4.95 8.0 5.25 8.05 5.45 7.95 5.55 7.75 5.4 7.5 Q4.85 7.5 4.85 7.75 M4.45 3.7 L4.3 3.25 Q3.9 3.35 3.85 3.4 L3.85 3.55 4.15 3.9 4.45 3.7 M9.5 3.45 Q9.2 3.5 9.2 3.85 L9.5 4.3 9.8 4.15 9.8 3.7 Q9.7 3.5 9.5 3.45 M6.3 3.75 L5.65 3.85 Q5.55 4.0 5.6 4.2 L5.9 4.65 6.45 4.0 6.3 3.75 M7.35 3.6 L7.45 4.1 7.7 4.15 8.05 3.8 8.0 3.7 7.35 3.6 M7.05 3.65 L7.05 3.2 Q6.95 3.0 6.75 2.95 6.45 3.0 6.45 3.35 L6.75 3.8 7.05 3.65 M5.55 3.0 L5.5 2.85 4.75 2.7 4.7 3.0 4.8 3.25 5.15 3.3 5.55 3.0 M8.8 2.0 L8.75 1.85 8.1 1.75 Q7.85 1.85 7.85 2.1 L8.15 2.4 8.6 2.2 8.8 2.0 M8.55 18.0 L8.55 17.8 6.05 17.4 6.05 18.55 Q8.1 18.45 8.55 18.0 M12.65 22.1 L11.95 22.1 11.95 22.65 12.25 22.8 12.7 22.35 12.65 22.1 M9.25 22.8 L8.95 23.15 9.25 23.55 9.55 23.4 9.55 23.0 9.25 22.8 M8.85 21.3 L9.05 20.95 8.75 20.7 8.45 20.85 8.45 21.15 8.85 21.3 M19.5 20.8 L20.5 19.75 Q19.7 19.3 19.35 19.4 L19.35 20.55 19.5 20.8 M19.9 33.85 L21.1 33.85 Q16.65 33.15 13.2 29.2 9.5 25.0 7.15 24.3 L10.35 29.4 Q13.1 32.45 19.9 33.85 M15.15 26.0 Q15.95 26.9 17.7 28.2 20.15 30.1 21.4 30.1 L22.9 30.05 19.4 27.0 Q17.85 25.55 15.15 26.0 M37.7 28.8 L38.15 28.65 38.1 28.2 Q37.2 28.05 37.2 28.45 L37.2 28.65 37.7 28.8 M34.0 29.6 L35.6 29.6 34.0 29.5 34.0 29.6 M30.65 27.75 L29.65 27.65 30.1 28.15 30.5 27.85 30.65 27.75" fill="#6633cc" fill-rule="evenodd" stroke="none"/>
  </g>
</svg>
