<?xml version="1.0" encoding="UTF-8" standalone="no"?>
<svg xmlns:xlink="http://www.w3.org/1999/xlink" height="10.7px" width="33.75px" xmlns="http://www.w3.org/2000/svg">
  <g transform="matrix(1.0, 0.0, 0.0, 1.0, 16.9, 5.35)">
    <path d="M0.3 -0.75 L0.35 -0.75 Q-3.15 1.7 -5.8 1.7 -8.0 1.65 -11.1 -1.15 L-13.95 -4.15 -14.1 -4.35 -14.35 -4.35 Q-15.95 -4.35 -15.9 -3.05 L-15.9 -2.9 -15.8 -2.75 Q-11.2 4.4 -5.75 4.35 -2.3 4.35 1.35 1.65 4.65 -0.8 6.6 -0.85 9.05 -0.85 11.95 0.05 L14.4 0.9 14.5 0.95 14.6 0.95 Q15.85 1.0 15.85 -0.4 15.95 -1.5 13.15 -2.45 10.45 -3.4 6.55 -3.4 4.05 -3.4 0.3 -0.75 Z" fill="none" stroke="#000000" stroke-linecap="round" stroke-linejoin="miter" stroke-width="2.0"/>
    <path d="M13.15 -2.45 Q15.95 -1.5 15.85 -0.4 15.85 1.0 14.6 0.95 L14.5 0.95 14.4 0.9 11.95 0.05 Q9.05 -0.85 6.6 -0.85 4.65 -0.8 1.35 1.65 -2.3 4.35 -5.75 4.35 -11.2 4.4 -15.8 -2.75 L-15.9 -2.9 -15.9 -3.05 Q-15.95 -4.35 -14.35 -4.35 L-14.1 -4.35 -13.95 -4.15 -11.1 -1.15 Q-8.0 1.65 -5.8 1.7 -3.15 1.7 0.35 -0.75 L0.3 -0.75 Q4.05 -3.4 6.55 -3.4 10.45 -3.4 13.15 -2.45" fill="url(#gradient0)" fill-rule="evenodd" stroke="none"/>
  </g>
  <defs>
    <linearGradient gradientTransform="matrix(0.0321, 0.0014, -2.0E-4, 0.0051, 0.1, 0.45)" gradientUnits="userSpaceOnUse" id="gradient0" spreadMethod="pad" x1="-819.2" x2="819.2">
      <stop offset="0.0" stop-color="#314834"/>
      <stop offset="0.5725490196078431" stop-color="#6ca372"/>
      <stop offset="1.0" stop-color="#3a563f"/>
    </linearGradient>
  </defs>
</svg>
