<?xml version="1.0" encoding="UTF-8" standalone="no"?>
<svg xmlns:xlink="http://www.w3.org/1999/xlink" height="604.8px" width="843.2px" xmlns="http://www.w3.org/2000/svg">
  <g transform="matrix(1.0, 0.0, 0.0, 1.0, 5.65, 3.9)">
    <path d="M798.15 600.9 L-5.65 600.9 -5.65 4.65 798.15 4.65 798.15 600.9" fill="url(#gradient0)" fill-rule="evenodd" stroke="none"/>
    <path d="M807.05 599.85 L-3.7 599.85 -3.7 -3.9 807.05 -3.9 807.05 599.85" fill="url(#gradient1)" fill-rule="evenodd" stroke="none"/>
    <path d="M789.0 93.0 L9.05 93.0 9.05 92.8 789.0 92.8 789.0 93.0 M789.0 123.8 L9.05 123.8 9.05 120.05 789.0 120.05 789.0 123.8 M789.0 131.2 L9.05 131.2 9.05 127.45 789.0 127.45 789.0 131.2 M789.0 139.2 L9.05 139.2 9.05 135.5 789.0 135.5 789.0 139.2 M789.0 116.4 L9.05 116.4 9.05 112.65 789.0 112.65 789.0 116.4 M789.0 108.35 L9.05 108.35 9.05 104.6 789.0 104.6 789.0 108.35 M789.0 147.6 L9.05 147.6 9.05 143.9 789.0 143.9 789.0 147.6 M789.0 155.0 L9.05 155.0 9.05 151.3 789.0 151.3 789.0 155.0 M789.0 170.4 L9.05 170.4 9.05 166.7 789.0 166.7 789.0 170.4 M789.0 185.95 L9.05 185.95 9.05 182.2 789.0 182.2 789.0 185.95 M789.0 194.35 L9.05 194.35 9.05 190.6 789.0 190.6 789.0 194.35 M789.0 177.8 L9.05 177.8 9.05 174.1 789.0 174.1 789.0 177.8 M789.0 163.05 L9.05 163.05 9.05 159.35 789.0 159.35 789.0 163.05 M789.0 100.95 L9.05 100.95 9.05 97.2 789.0 97.2 789.0 100.95 M789.0 209.75 L9.05 209.75 9.05 206.05 789.0 206.05 789.0 209.75 M789.0 201.75 L9.05 201.75 9.05 198.0 789.0 198.0 789.0 201.75 M789.0 240.95 L9.05 240.95 9.05 237.25 789.0 237.25 789.0 240.95 M789.0 232.6 L9.05 232.6 9.05 228.9 789.0 228.9 789.0 232.6 M789.0 224.6 L9.05 224.6 9.05 220.85 789.0 220.85 789.0 224.6 M789.0 217.15 L9.05 217.15 9.05 213.4 789.0 213.4 789.0 217.15 M789.0 279.3 L9.05 279.3 9.05 275.55 789.0 275.55 789.0 279.3 M789.0 287.75 L9.05 287.75 9.05 284.0 789.0 284.0 789.0 287.75 M789.0 256.5 L9.05 256.5 9.05 252.75 789.0 252.75 789.0 256.5 M789.0 263.8 L9.05 263.8 9.05 260.1 789.0 260.1 789.0 263.8 M789.0 271.2 L9.05 271.2 9.05 267.5 789.0 267.5 789.0 271.2 M789.0 295.15 L9.05 295.15 9.05 291.4 789.0 291.4 789.0 295.15 M789.0 248.35 L9.05 248.35 9.05 244.65 789.0 244.65 789.0 248.35 M789.0 325.6 L9.05 325.6 9.05 321.85 789.0 321.85 789.0 325.6 M789.0 333.05 L9.05 333.05 9.05 329.3 789.0 329.3 789.0 333.05 M789.0 303.15 L9.05 303.15 9.05 299.45 789.0 299.45 789.0 303.15 M789.0 317.95 L9.05 317.95 9.05 314.2 789.0 314.2 789.0 317.95 M789.0 310.55 L9.05 310.55 9.05 306.8 789.0 306.8 789.0 310.55 M789.0 341.1 L9.05 341.1 9.05 337.4 789.0 337.4 789.0 341.1 M789.0 372.3 L9.05 372.3 9.05 368.6 789.0 368.6 789.0 372.3 M789.0 387.8 L9.05 387.8 9.05 384.05 789.0 384.05 789.0 387.8 M789.0 395.15 L9.05 395.15 9.05 391.4 789.0 391.4 789.0 395.15 M789.0 379.7 L9.05 379.7 9.05 376.0 789.0 376.0 789.0 379.7 M789.0 363.9 L9.05 363.9 9.05 360.2 789.0 360.2 789.0 363.9 M789.0 355.85 L9.05 355.85 9.05 352.15 789.0 352.15 789.0 355.85 M789.0 348.45 L9.05 348.45 9.05 344.75 789.0 344.75 789.0 348.45 M789.0 426.4 L9.05 426.4 9.05 422.7 789.0 422.7 789.0 426.4 M789.0 434.45 L9.05 434.45 9.05 430.75 789.0 430.75 789.0 434.45 M789.0 441.85 L9.05 441.85 9.05 438.15 789.0 438.15 789.0 441.85 M789.0 410.65 L9.05 410.65 9.05 406.9 789.0 406.9 789.0 410.65 M789.0 419.0 L9.05 419.0 9.05 415.3 789.0 415.3 789.0 419.0 M789.0 402.5 L9.05 402.5 9.05 398.8 789.0 398.8 789.0 402.5 M789.0 465.7 L9.05 465.7 9.05 461.95 789.0 461.95 789.0 465.7 M789.0 457.3 L9.05 457.3 9.05 453.6 789.0 453.6 789.0 457.3 M789.0 473.05 L9.05 473.05 9.05 469.35 789.0 469.35 789.0 473.05 M789.0 488.55 L9.05 488.55 9.05 484.8 789.0 484.8 789.0 488.55 M789.0 481.2 L9.05 481.2 9.05 477.45 789.0 477.45 789.0 481.2 M789.0 449.25 L9.05 449.25 9.05 445.55 789.0 445.55 789.0 449.25 M789.0 504.0 L9.05 504.0 9.05 500.25 789.0 500.25 789.0 504.0 M789.0 519.8 L9.05 519.8 9.05 516.05 789.0 516.05 789.0 519.8 M789.0 512.4 L9.05 512.4 9.05 508.7 789.0 508.7 789.0 512.4 M789.0 542.65 L9.05 542.65 9.05 538.95 789.0 538.95 789.0 542.65 M789.0 535.2 L9.05 535.2 9.05 531.5 789.0 531.5 789.0 535.2 M789.0 527.85 L9.05 527.85 9.05 524.15 789.0 524.15 789.0 527.85 M789.0 495.9 L9.05 495.9 9.05 492.2 789.0 492.2 789.0 495.9" fill="url(#gradient2)" fill-rule="evenodd" stroke="none"/>
    <path d="M837.55 280.2 Q837.55 342.5 760.15 386.5 682.75 430.5 573.3 430.5 463.8 430.5 386.35 386.5 309.05 342.5 309.05 280.2 309.05 217.85 386.35 173.9 463.8 129.85 573.3 129.85 682.75 129.85 760.15 173.9 837.55 217.85 837.55 280.2" fill="url(#gradient3)" fill-rule="evenodd" stroke="none"/>
  </g>
  <defs>
    <linearGradient gradientTransform="matrix(0.0017, -0.3611, 0.1774, 0.0035, 394.2, 288.25)" gradientUnits="userSpaceOnUse" id="gradient0" spreadMethod="pad" x1="-819.2" x2="819.2">
      <stop offset="0.0" stop-color="#000000"/>
      <stop offset="1.0" stop-color="#000000" stop-opacity="0.0"/>
    </linearGradient>
    <radialGradient cx="0" cy="0" gradientTransform="matrix(0.229, 0.0, 0.0, 0.2418, 582.05, 272.5)" gradientUnits="userSpaceOnUse" id="gradient1" r="819.2" spreadMethod="pad">
      <stop offset="0.0" stop-color="#770000" stop-opacity="0.5019608"/>
      <stop offset="1.0" stop-color="#550000" stop-opacity="0.0"/>
    </radialGradient>
    <radialGradient cx="0" cy="0" gradientTransform="matrix(0.3051, 0.0, 0.0, 0.2009, 547.1, 279.3)" gradientUnits="userSpaceOnUse" id="gradient2" r="819.2" spreadMethod="pad">
      <stop offset="0.0" stop-color="#770000" stop-opacity="0.2901961"/>
      <stop offset="1.0" stop-color="#550000" stop-opacity="0.07058824"/>
    </radialGradient>
    <radialGradient cx="0" cy="0" gradientTransform="matrix(0.0017, -0.1824, 0.2918, 0.0056, 573.3, 280.2)" gradientUnits="userSpaceOnUse" id="gradient3" r="819.2" spreadMethod="pad">
      <stop offset="0.23137254901960785" stop-color="#c21414" stop-opacity="0.21960784"/>
      <stop offset="1.0" stop-color="#c21414" stop-opacity="0.011764706"/>
    </radialGradient>
  </defs>
</svg>
