<?xml version="1.0" encoding="UTF-8" standalone="no"?>
<svg xmlns:xlink="http://www.w3.org/1999/xlink" height="32.1px" width="452.35px" xmlns="http://www.w3.org/2000/svg">
  <g transform="matrix(1.0, 0.0, 0.0, 1.0, -9.55, 14.3)">
    <path d="M10.05 17.2 L430.95 17.2 461.4 -13.8" fill="none" stroke="url(#gradient0)" stroke-linecap="butt" stroke-linejoin="miter" stroke-width="1.0"/>
    <path d="M10.2 -14.3 L461.0 -14.3 430.8 16.7 10.2 16.7 10.2 -14.3" fill="url(#gradient1)" fill-rule="evenodd" stroke="none"/>
    <path d="M334.05 -14.15 L362.1 -14.15 394.9 17.8 366.85 17.8 334.05 -14.15" fill="url(#gradient2)" fill-rule="evenodd" stroke="none"/>
    <path d="M104.1 6.25 L105.25 12.85 99.3 9.7 93.35 12.85 94.5 6.25 89.65 1.6 96.3 0.65 99.3 -5.4 102.25 0.65 108.95 1.6 104.1 6.25 M82.6 5.75 L83.75 12.35 77.8 9.2 Q74.85 10.8 71.85 12.35 L73.0 5.75 68.15 1.1 74.8 0.15 77.8 -5.9 80.75 0.15 87.45 1.1 82.6 5.75 M61.7 5.75 L62.85 12.35 56.9 9.2 50.95 12.35 52.1 5.75 47.25 1.1 53.9 0.15 56.9 -5.9 59.85 0.15 66.55 1.1 61.7 5.75" fill="#000000" fill-opacity="0.2" fill-rule="evenodd" stroke="none"/>
  </g>
  <defs>
    <linearGradient gradientTransform="matrix(0.2384, 0.0053, 4.0E-4, -0.0195, 235.8, 10.25)" gradientUnits="userSpaceOnUse" id="gradient0" spreadMethod="pad" x1="-819.2" x2="819.2">
      <stop offset="0.0" stop-color="#ff453f"/>
      <stop offset="0.21176470588235294" stop-color="#ff3e38" stop-opacity="0.89411765"/>
      <stop offset="0.5254901960784314" stop-color="#ff2a26" stop-opacity="0.60784316"/>
      <stop offset="0.9019607843137255" stop-color="#ff0a09" stop-opacity="0.14117648"/>
      <stop offset="1.0" stop-color="#ff0000" stop-opacity="0.0"/>
    </linearGradient>
    <linearGradient gradientTransform="matrix(0.385, -4.0E-4, 0.0, -0.0456, 55.6, 10.3)" gradientUnits="userSpaceOnUse" id="gradient1" spreadMethod="pad" x1="-819.2" x2="819.2">
      <stop offset="0.0" stop-color="#ff0000"/>
      <stop offset="1.0" stop-color="#ff0000" stop-opacity="0.0"/>
    </linearGradient>
    <linearGradient gradientTransform="matrix(-0.0241, 0.0, -0.0221, -0.0215, 484.3, 109.85)" gradientUnits="userSpaceOnUse" id="gradient2" spreadMethod="pad" x1="-819.2" x2="819.2">
      <stop offset="0.1803921568627451" stop-color="#000000"/>
      <stop offset="0.796078431372549" stop-color="#000000" stop-opacity="0.12156863"/>
      <stop offset="1.0" stop-color="#000000" stop-opacity="0.0"/>
    </linearGradient>
  </defs>
</svg>
