<?xml version="1.0" encoding="UTF-8" standalone="no"?>
<svg xmlns:xlink="http://www.w3.org/1999/xlink" height="15.5px" width="22.85px" xmlns="http://www.w3.org/2000/svg">
  <g transform="matrix(1.0, 0.0, 0.0, 1.0, 4.55, -18.6)">
    <path d="M11.5 33.55 L-4.05 33.55 -4.05 19.1 17.6 19.1 11.5 33.55" fill="url(#gradient0)" fill-rule="evenodd" stroke="none"/>
    <path d="M11.5 33.55 L-4.05 33.55 -4.05 19.1 17.6 19.1 11.5 33.55 Z" fill="none" stroke="url(#gradient1)" stroke-linecap="butt" stroke-linejoin="miter" stroke-width="1.0"/>
    <path d="M5.75 24.7 L2.65 24.7 2.65 21.6 5.75 21.6 5.75 24.7" fill="#ffffff" fill-rule="evenodd" stroke="none"/>
    <path d="M5.75 27.75 L2.65 27.75 2.65 24.7 5.75 24.7 5.75 27.75" fill="#ffffff" fill-rule="evenodd" stroke="none"/>
    <path d="M5.75 30.85 L2.65 30.85 2.65 27.75 5.75 27.75 5.75 30.85" fill="#ffffff" fill-rule="evenodd" stroke="none"/>
    <path d="M5.75 24.7 L8.85 24.7 8.85 27.75 5.75 27.75 5.75 24.7" fill="#ffffff" fill-rule="evenodd" stroke="none"/>
    <path d="M2.65 27.75 L-0.45 27.75 -0.45 24.7 2.65 24.7 2.65 27.75" fill="#ffffff" fill-rule="evenodd" stroke="none"/>
  </g>
  <defs>
    <radialGradient cx="0" cy="0" gradientTransform="matrix(0.0111, 0.0, 0.0, -0.0117, 3.5, 25.9)" gradientUnits="userSpaceOnUse" id="gradient0" r="819.2" spreadMethod="pad">
      <stop offset="0.0" stop-color="#00a3fd"/>
      <stop offset="1.0" stop-color="#170094"/>
    </radialGradient>
    <linearGradient gradientTransform="matrix(0.0, -0.0094, -0.0095, 0.0, 6.9, 26.35)" gradientUnits="userSpaceOnUse" id="gradient1" spreadMethod="pad" x1="-819.2" x2="819.2">
      <stop offset="0.0" stop-color="#cccccc"/>
      <stop offset="1.0" stop-color="#333333"/>
    </linearGradient>
  </defs>
</svg>
