<?xml version="1.0" encoding="UTF-8" standalone="no"?>
<svg xmlns:xlink="http://www.w3.org/1999/xlink" height="200.9px" width="297.8px" xmlns="http://www.w3.org/2000/svg">
  <g transform="matrix(1.0, 0.0, 0.0, 1.0, 148.9, 98.45)">
    <path d="M-81.75 65.25 L-123.45 -7.0 -81.75 -79.25 81.7 -79.25 123.4 -7.0 81.7 65.25 -81.75 65.25 M-91.55 28.6 L-76.05 55.4 76.0 55.4 91.5 28.6 -91.55 28.6 M-98.9 -29.85 L-106.8 -16.15 106.75 -16.15 98.85 -29.85 -98.9 -29.85 M-106.8 2.15 L-98.65 16.3 98.6 16.3 106.75 2.15 -106.8 2.15 M-76.05 -69.45 L-91.8 -42.2 91.75 -42.2 76.0 -69.45 -76.05 -69.45" fill="url(#gradient0)" fill-rule="evenodd" stroke="none"/>
    <path d="M-77.2 57.4 L-95.0 26.6 94.95 26.6 77.2 57.4 -77.2 57.4 M-95.25 -40.2 L-77.2 -71.45 77.2 -71.45 95.2 -40.2 -95.25 -40.2 M-80.55 -77.25 L-121.15 -7.0 -80.55 63.25 80.55 63.25 121.1 -7.0 80.55 -77.25 -80.55 -77.25 M-81.75 65.25 L-123.45 -7.0 -81.75 -79.25 81.7 -79.25 123.4 -7.0 81.7 65.25 -81.75 65.25 M-91.55 28.6 L-76.05 55.4 76.0 55.4 91.5 28.6 -91.55 28.6 M-110.25 -14.15 L-100.05 -31.85 100.0 -31.85 110.25 -14.15 -110.25 -14.15 M-98.9 -29.85 L-106.8 -16.15 106.75 -16.15 98.85 -29.85 -98.9 -29.85 M-99.8 18.3 L-110.25 0.15 110.25 0.15 99.75 18.3 -99.8 18.3 M-106.8 2.15 L-98.65 16.3 98.6 16.3 106.75 2.15 -106.8 2.15 M-76.05 -69.45 L-91.8 -42.2 91.75 -42.2 76.0 -69.45 -76.05 -69.45" fill="url(#gradient1)" fill-rule="evenodd" stroke="none"/>
    <path d="M-92.6 -78.65 L-137.8 7.0 -92.6 84.55 92.6 84.55 137.75 7.0 92.6 -78.65 82.0 -78.65 81.7 -79.25 -81.75 -79.25 -82.1 -78.65 -92.6 -78.65 M-148.9 -7.0 L-98.55 -98.45 98.5 -98.45 148.9 -7.0 148.9 7.0 98.5 102.45 -98.55 102.45 -148.9 7.0 -148.9 -7.0" fill="#23140c" fill-rule="evenodd" stroke="none"/>
    <path d="M-98.0 102.45 L-98.5 102.45 -99.0 101.55 -99.0 84.65 -98.0 84.65 -98.0 102.45" fill="url(#gradient2)" fill-rule="evenodd" stroke="none"/>
    <path d="M98.95 101.75 L98.45 102.45 97.95 102.45 97.95 84.65 98.95 84.65 98.95 101.75" fill="url(#gradient3)" fill-rule="evenodd" stroke="none"/>
  </g>
  <defs>
    <linearGradient gradientTransform="matrix(0.0, -0.087, -0.087, 0.0, 0.0, -6.05)" gradientUnits="userSpaceOnUse" id="gradient0" spreadMethod="pad" x1="-819.2" x2="819.2">
      <stop offset="0.00392156862745098" stop-color="#543800"/>
      <stop offset="0.17647058823529413" stop-color="#e9ca00"/>
      <stop offset="0.43529411764705883" stop-color="#6a4a00"/>
      <stop offset="0.44313725490196076" stop-color="#836300"/>
      <stop offset="0.4627450980392157" stop-color="#af8f00"/>
      <stop offset="0.47843137254901963" stop-color="#ceaf00"/>
      <stop offset="0.49019607843137253" stop-color="#e2c300"/>
      <stop offset="0.5019607843137255" stop-color="#e9ca00"/>
      <stop offset="0.6274509803921569" stop-color="#feffbf"/>
      <stop offset="0.7607843137254902" stop-color="#e9ca00"/>
      <stop offset="0.984313725490196" stop-color="#6a4700"/>
    </linearGradient>
    <linearGradient gradientTransform="matrix(0.1506, 0.0, 0.0, -0.1506, 0.0, -7.0)" gradientUnits="userSpaceOnUse" id="gradient1" spreadMethod="pad" x1="-819.2" x2="819.2">
      <stop offset="0.07450980392156863" stop-color="#543800"/>
      <stop offset="0.17647058823529413" stop-color="#e9ca00"/>
      <stop offset="0.43529411764705883" stop-color="#6a4a00"/>
      <stop offset="0.4588235294117647" stop-color="#836300"/>
      <stop offset="0.5058823529411764" stop-color="#af8f00"/>
      <stop offset="0.5490196078431373" stop-color="#ceaf00"/>
      <stop offset="0.5843137254901961" stop-color="#e2c300"/>
      <stop offset="0.6078431372549019" stop-color="#e9ca00"/>
      <stop offset="0.6431372549019608" stop-color="#e9ca00"/>
      <stop offset="0.8196078431372549" stop-color="#fff87f"/>
      <stop offset="0.8784313725490196" stop-color="#e9ca00"/>
      <stop offset="0.984313725490196" stop-color="#6a4700"/>
    </linearGradient>
    <linearGradient gradientTransform="matrix(0.0, -0.0108, -0.0108, 0.0, -98.5, 93.55)" gradientUnits="userSpaceOnUse" id="gradient2" spreadMethod="pad" x1="-819.2" x2="819.2">
      <stop offset="0.0" stop-color="#1e120b" stop-opacity="0.0"/>
      <stop offset="0.01568627450980392" stop-color="#23150d" stop-opacity="0.019607844"/>
      <stop offset="0.2235294117647059" stop-color="#653e22" stop-opacity="0.3137255"/>
      <stop offset="0.4196078431372549" stop-color="#9c5f34" stop-opacity="0.5568628"/>
      <stop offset="0.6039215686274509" stop-color="#c77a42" stop-opacity="0.7490196"/>
      <stop offset="0.7647058823529411" stop-color="#e68c4c" stop-opacity="0.8862745"/>
      <stop offset="0.9019607843137255" stop-color="#f89852" stop-opacity="0.96862745"/>
      <stop offset="1.0" stop-color="#ff9c54"/>
    </linearGradient>
    <linearGradient gradientTransform="matrix(0.0, -0.0108, -0.0108, 0.0, 98.45, 93.55)" gradientUnits="userSpaceOnUse" id="gradient3" spreadMethod="pad" x1="-819.2" x2="819.2">
      <stop offset="0.0" stop-color="#1e120b" stop-opacity="0.0"/>
      <stop offset="0.01568627450980392" stop-color="#23150d" stop-opacity="0.019607844"/>
      <stop offset="0.2235294117647059" stop-color="#653e22" stop-opacity="0.3137255"/>
      <stop offset="0.4196078431372549" stop-color="#9c5f34" stop-opacity="0.5568628"/>
      <stop offset="0.6039215686274509" stop-color="#c77a42" stop-opacity="0.7490196"/>
      <stop offset="0.7647058823529411" stop-color="#e68c4c" stop-opacity="0.8862745"/>
      <stop offset="0.9019607843137255" stop-color="#f89852" stop-opacity="0.96862745"/>
      <stop offset="1.0" stop-color="#ff9c54"/>
    </linearGradient>
  </defs>
</svg>
