<?xml version="1.0" encoding="UTF-8" standalone="no"?>
<svg xmlns:xlink="http://www.w3.org/1999/xlink" height="352.5px" width="210.8px" xmlns="http://www.w3.org/2000/svg">
  <g transform="matrix(1.0, 0.0, 0.0, 1.0, 0.75, 0.0)">
    <path d="M209.85 1.3 L209.3 1.5 0.0 1.5 Q-0.3 1.5 -0.5 1.3 L-0.75 0.75 -0.5 0.25 Q-0.3 0.0 0.0 0.0 L209.3 0.0 209.85 0.25 210.05 0.75 209.85 1.3" fill="#000000" fill-opacity="0.4" fill-rule="evenodd" stroke="none"/>
    <path d="M210.05 3.75 L209.85 4.3 209.3 4.5 0.0 4.5 Q-0.3 4.5 -0.5 4.3 L-0.75 3.75 -0.5 3.25 Q-0.3 3.0 0.0 3.0 L209.3 3.0 209.85 3.25 210.05 3.75" fill="#000000" fill-opacity="0.4" fill-rule="evenodd" stroke="none"/>
    <path d="M209.85 6.25 L210.05 6.75 209.85 7.3 209.3 7.5 0.0 7.5 Q-0.3 7.5 -0.5 7.3 L-0.75 6.75 -0.5 6.25 Q-0.3 6.0 0.0 6.0 L209.3 6.0 209.85 6.25" fill="#000000" fill-opacity="0.4" fill-rule="evenodd" stroke="none"/>
    <path d="M209.3 9.0 L209.85 9.25 210.05 9.75 209.85 10.3 209.3 10.5 0.0 10.5 Q-0.3 10.5 -0.5 10.3 L-0.75 9.75 -0.5 9.25 Q-0.3 9.0 0.0 9.0 L209.3 9.0" fill="#000000" fill-opacity="0.4" fill-rule="evenodd" stroke="none"/>
    <path d="M209.85 13.3 L209.3 13.5 0.0 13.5 Q-0.3 13.5 -0.5 13.3 L-0.75 12.75 -0.5 12.25 Q-0.3 12.0 0.0 12.0 L209.3 12.0 209.85 12.25 210.05 12.75 209.85 13.3" fill="#000000" fill-opacity="0.4" fill-rule="evenodd" stroke="none"/>
    <path d="M210.05 15.75 L209.85 16.3 209.3 16.5 0.0 16.5 Q-0.3 16.5 -0.5 16.3 L-0.75 15.75 -0.5 15.25 Q-0.3 15.0 0.0 15.0 L209.3 15.0 209.85 15.25 210.05 15.75" fill="#000000" fill-opacity="0.4" fill-rule="evenodd" stroke="none"/>
    <path d="M209.85 18.25 L210.05 18.75 209.85 19.3 209.3 19.5 0.0 19.5 Q-0.3 19.5 -0.5 19.3 L-0.75 18.75 -0.5 18.25 Q-0.3 18.0 0.0 18.0 L209.3 18.0 209.85 18.25" fill="#000000" fill-opacity="0.4" fill-rule="evenodd" stroke="none"/>
    <path d="M209.3 21.0 L209.85 21.25 210.05 21.75 209.85 22.3 209.3 22.5 0.0 22.5 Q-0.3 22.5 -0.5 22.3 L-0.75 21.75 -0.5 21.25 Q-0.3 21.0 0.0 21.0 L209.3 21.0" fill="#000000" fill-opacity="0.4" fill-rule="evenodd" stroke="none"/>
    <path d="M209.85 25.3 L209.3 25.5 0.0 25.5 Q-0.3 25.5 -0.5 25.3 L-0.75 24.75 -0.5 24.25 Q-0.3 24.0 0.0 24.0 L209.3 24.0 209.85 24.25 210.05 24.75 209.85 25.3" fill="#000000" fill-opacity="0.4" fill-rule="evenodd" stroke="none"/>
    <path d="M210.05 27.75 L209.85 28.3 209.3 28.5 0.0 28.5 Q-0.3 28.5 -0.5 28.3 L-0.75 27.75 -0.5 27.25 Q-0.3 27.0 0.0 27.0 L209.3 27.0 209.85 27.25 210.05 27.75" fill="#000000" fill-opacity="0.4" fill-rule="evenodd" stroke="none"/>
    <path d="M209.85 30.25 L210.05 30.75 209.85 31.3 209.3 31.5 0.0 31.5 Q-0.3 31.5 -0.5 31.3 L-0.75 30.75 -0.5 30.25 Q-0.3 30.0 0.0 30.0 L209.3 30.0 209.85 30.25" fill="#000000" fill-opacity="0.4" fill-rule="evenodd" stroke="none"/>
    <path d="M209.3 33.0 L209.85 33.25 210.05 33.75 209.85 34.3 209.3 34.5 0.0 34.5 Q-0.3 34.5 -0.5 34.3 L-0.75 33.75 -0.5 33.25 Q-0.3 33.0 0.0 33.0 L209.3 33.0" fill="#000000" fill-opacity="0.4" fill-rule="evenodd" stroke="none"/>
    <path d="M209.85 37.3 L209.3 37.5 0.0 37.5 Q-0.3 37.5 -0.5 37.3 L-0.75 36.75 -0.5 36.25 Q-0.3 36.0 0.0 36.0 L209.3 36.0 209.85 36.25 210.05 36.75 209.85 37.3" fill="#000000" fill-opacity="0.4" fill-rule="evenodd" stroke="none"/>
    <path d="M210.05 39.75 L209.85 40.3 209.3 40.5 0.0 40.5 Q-0.3 40.5 -0.5 40.3 L-0.75 39.75 -0.5 39.25 Q-0.3 39.0 0.0 39.0 L209.3 39.0 209.85 39.25 210.05 39.75" fill="#000000" fill-opacity="0.4" fill-rule="evenodd" stroke="none"/>
    <path d="M209.85 42.25 L210.05 42.75 209.85 43.3 209.3 43.5 0.0 43.5 Q-0.3 43.5 -0.5 43.3 L-0.75 42.75 -0.5 42.25 Q-0.3 42.0 0.0 42.0 L209.3 42.0 209.85 42.25" fill="#000000" fill-opacity="0.4" fill-rule="evenodd" stroke="none"/>
    <path d="M209.3 45.0 L209.85 45.25 210.05 45.75 209.85 46.3 209.3 46.5 0.0 46.5 Q-0.3 46.5 -0.5 46.3 L-0.75 45.75 -0.5 45.25 Q-0.3 45.0 0.0 45.0 L209.3 45.0" fill="#000000" fill-opacity="0.4" fill-rule="evenodd" stroke="none"/>
    <path d="M210.05 48.75 L209.85 49.3 209.3 49.5 0.0 49.5 Q-0.3 49.5 -0.5 49.3 L-0.75 48.75 -0.5 48.25 Q-0.3 48.0 0.0 48.0 L209.3 48.0 209.85 48.25 210.05 48.75" fill="#000000" fill-opacity="0.4" fill-rule="evenodd" stroke="none"/>
    <path d="M209.85 51.25 L210.05 51.75 209.85 52.3 209.3 52.5 0.0 52.5 Q-0.3 52.5 -0.5 52.3 L-0.75 51.75 -0.5 51.25 Q-0.3 51.0 0.0 51.0 L209.3 51.0 209.85 51.25" fill="#000000" fill-opacity="0.4" fill-rule="evenodd" stroke="none"/>
    <path d="M209.3 54.0 L209.85 54.25 210.05 54.75 209.85 55.3 209.3 55.5 0.0 55.5 Q-0.3 55.5 -0.5 55.3 L-0.75 54.75 -0.5 54.25 Q-0.3 54.0 0.0 54.0 L209.3 54.0" fill="#000000" fill-opacity="0.4" fill-rule="evenodd" stroke="none"/>
    <path d="M209.85 58.3 L209.3 58.5 0.0 58.5 Q-0.3 58.5 -0.5 58.3 L-0.75 57.75 -0.5 57.25 Q-0.3 57.0 0.0 57.0 L209.3 57.0 209.85 57.25 210.05 57.75 209.85 58.3" fill="#000000" fill-opacity="0.4" fill-rule="evenodd" stroke="none"/>
    <path d="M210.05 60.75 L209.85 61.3 209.3 61.5 0.0 61.5 Q-0.3 61.5 -0.5 61.3 L-0.75 60.75 -0.5 60.25 Q-0.3 60.0 0.0 60.0 L209.3 60.0 209.85 60.25 210.05 60.75" fill="#000000" fill-opacity="0.4" fill-rule="evenodd" stroke="none"/>
    <path d="M210.05 63.75 L209.85 64.3 209.3 64.5 0.0 64.5 Q-0.3 64.5 -0.5 64.3 L-0.75 63.75 -0.5 63.25 Q-0.3 63.0 0.0 63.0 L209.3 63.0 209.85 63.25 210.05 63.75" fill="#000000" fill-opacity="0.4" fill-rule="evenodd" stroke="none"/>
    <path d="M209.85 66.25 L210.05 66.75 209.85 67.3 209.3 67.5 0.0 67.5 Q-0.3 67.5 -0.5 67.3 L-0.75 66.75 -0.5 66.25 Q-0.3 66.0 0.0 66.0 L209.3 66.0 209.85 66.25" fill="#000000" fill-opacity="0.4" fill-rule="evenodd" stroke="none"/>
    <path d="M209.3 69.0 L209.85 69.25 210.05 69.75 209.85 70.3 209.3 70.5 0.0 70.5 Q-0.3 70.5 -0.5 70.3 L-0.75 69.75 -0.5 69.25 Q-0.3 69.0 0.0 69.0 L209.3 69.0" fill="#000000" fill-opacity="0.4" fill-rule="evenodd" stroke="none"/>
    <path d="M209.85 73.3 L209.3 73.5 0.0 73.5 Q-0.3 73.5 -0.5 73.3 L-0.75 72.75 -0.5 72.25 Q-0.3 72.0 0.0 72.0 L209.3 72.0 209.85 72.25 210.05 72.75 209.85 73.3" fill="#000000" fill-opacity="0.4" fill-rule="evenodd" stroke="none"/>
    <path d="M210.05 75.75 L209.85 76.3 209.3 76.5 0.0 76.5 Q-0.3 76.5 -0.5 76.3 L-0.75 75.75 -0.5 75.25 Q-0.3 75.0 0.0 75.0 L209.3 75.0 209.85 75.25 210.05 75.75" fill="#000000" fill-opacity="0.4" fill-rule="evenodd" stroke="none"/>
    <path d="M209.85 78.25 L210.05 78.75 209.85 79.3 209.3 79.5 0.0 79.5 Q-0.3 79.5 -0.5 79.3 L-0.75 78.75 -0.5 78.25 Q-0.3 78.0 0.0 78.0 L209.3 78.0 209.85 78.25" fill="#000000" fill-opacity="0.4" fill-rule="evenodd" stroke="none"/>
    <path d="M209.3 81.0 L209.85 81.25 210.05 81.75 209.85 82.3 209.3 82.5 0.0 82.5 Q-0.3 82.5 -0.5 82.3 L-0.75 81.75 -0.5 81.25 Q-0.3 81.0 0.0 81.0 L209.3 81.0" fill="#000000" fill-opacity="0.4" fill-rule="evenodd" stroke="none"/>
    <path d="M209.85 85.3 L209.3 85.5 0.0 85.5 Q-0.3 85.5 -0.5 85.3 L-0.75 84.75 -0.5 84.25 Q-0.3 84.0 0.0 84.0 L209.3 84.0 209.85 84.25 210.05 84.75 209.85 85.3" fill="#000000" fill-opacity="0.4" fill-rule="evenodd" stroke="none"/>
    <path d="M210.05 87.75 L209.85 88.3 209.3 88.5 0.0 88.5 Q-0.3 88.5 -0.5 88.3 L-0.75 87.75 -0.5 87.25 Q-0.3 87.0 0.0 87.0 L209.3 87.0 209.85 87.25 210.05 87.75" fill="#000000" fill-opacity="0.4" fill-rule="evenodd" stroke="none"/>
    <path d="M209.85 90.25 L210.05 90.75 209.85 91.3 209.3 91.5 0.0 91.5 Q-0.3 91.5 -0.5 91.3 L-0.75 90.75 -0.5 90.25 Q-0.3 90.0 0.0 90.0 L209.3 90.0 209.85 90.25" fill="#000000" fill-opacity="0.4" fill-rule="evenodd" stroke="none"/>
    <path d="M209.3 93.0 L209.85 93.25 210.05 93.75 209.85 94.3 209.3 94.5 0.0 94.5 Q-0.3 94.5 -0.5 94.3 L-0.75 93.75 -0.5 93.25 Q-0.3 93.0 0.0 93.0 L209.3 93.0" fill="#000000" fill-opacity="0.4" fill-rule="evenodd" stroke="none"/>
    <path d="M209.85 97.3 L209.3 97.5 0.0 97.5 Q-0.3 97.5 -0.5 97.3 L-0.75 96.75 -0.5 96.25 Q-0.3 96.0 0.0 96.0 L209.3 96.0 209.85 96.25 210.05 96.75 209.85 97.3" fill="#000000" fill-opacity="0.4" fill-rule="evenodd" stroke="none"/>
    <path d="M210.05 99.75 L209.85 100.3 209.3 100.5 0.0 100.5 Q-0.3 100.5 -0.5 100.3 L-0.75 99.75 -0.5 99.25 Q-0.3 99.0 0.0 99.0 L209.3 99.0 209.85 99.25 210.05 99.75" fill="#000000" fill-opacity="0.4" fill-rule="evenodd" stroke="none"/>
    <path d="M209.85 102.25 L210.05 102.75 209.85 103.3 209.3 103.5 0.0 103.5 Q-0.3 103.5 -0.5 103.3 L-0.75 102.75 -0.5 102.25 Q-0.3 102.0 0.0 102.0 L209.3 102.0 209.85 102.25" fill="#000000" fill-opacity="0.4" fill-rule="evenodd" stroke="none"/>
    <path d="M209.3 105.0 L209.85 105.25 210.05 105.75 209.85 106.3 209.3 106.5 0.0 106.5 Q-0.3 106.5 -0.5 106.3 L-0.75 105.75 -0.5 105.25 Q-0.3 105.0 0.0 105.0 L209.3 105.0" fill="#000000" fill-opacity="0.4" fill-rule="evenodd" stroke="none"/>
    <path d="M209.85 109.3 L209.3 109.5 0.0 109.5 Q-0.3 109.5 -0.5 109.3 L-0.75 108.75 -0.5 108.25 Q-0.3 108.0 0.0 108.0 L209.3 108.0 209.85 108.25 210.05 108.75 209.85 109.3" fill="#000000" fill-opacity="0.4" fill-rule="evenodd" stroke="none"/>
    <path d="M209.85 111.25 L210.05 111.75 209.85 112.3 209.3 112.5 0.0 112.5 Q-0.3 112.5 -0.5 112.3 L-0.75 111.75 -0.5 111.25 Q-0.3 111.0 0.0 111.0 L209.3 111.0 209.85 111.25" fill="#000000" fill-opacity="0.4" fill-rule="evenodd" stroke="none"/>
    <path d="M209.3 114.0 L209.85 114.25 210.05 114.75 209.85 115.3 209.3 115.5 0.0 115.5 Q-0.3 115.5 -0.5 115.3 L-0.75 114.75 -0.5 114.25 Q-0.3 114.0 0.0 114.0 L209.3 114.0" fill="#000000" fill-opacity="0.4" fill-rule="evenodd" stroke="none"/>
    <path d="M209.85 118.3 L209.3 118.5 0.0 118.5 Q-0.3 118.5 -0.5 118.3 L-0.75 117.75 -0.5 117.25 Q-0.3 117.0 0.0 117.0 L209.3 117.0 209.85 117.25 210.05 117.75 209.85 118.3" fill="#000000" fill-opacity="0.4" fill-rule="evenodd" stroke="none"/>
    <path d="M210.05 120.75 L209.85 121.3 209.3 121.5 0.0 121.5 Q-0.3 121.5 -0.5 121.3 L-0.75 120.75 -0.5 120.25 Q-0.3 120.0 0.0 120.0 L209.3 120.0 209.85 120.25 210.05 120.75" fill="#000000" fill-opacity="0.4" fill-rule="evenodd" stroke="none"/>
    <path d="M209.85 123.25 L210.05 123.75 209.85 124.3 209.3 124.5 0.0 124.5 Q-0.3 124.5 -0.5 124.3 L-0.75 123.75 -0.5 123.25 Q-0.3 123.0 0.0 123.0 L209.3 123.0 209.85 123.25" fill="#000000" fill-opacity="0.4" fill-rule="evenodd" stroke="none"/>
    <path d="M209.85 126.25 L210.05 126.75 209.85 127.3 209.3 127.5 0.0 127.5 Q-0.3 127.5 -0.5 127.3 L-0.75 126.75 -0.5 126.25 Q-0.3 126.0 0.0 126.0 L209.3 126.0 209.85 126.25" fill="#000000" fill-opacity="0.4" fill-rule="evenodd" stroke="none"/>
    <path d="M209.3 129.0 L209.85 129.25 210.05 129.75 209.85 130.3 209.3 130.5 0.0 130.5 Q-0.3 130.5 -0.5 130.3 L-0.75 129.75 -0.5 129.25 Q-0.3 129.0 0.0 129.0 L209.3 129.0" fill="#000000" fill-opacity="0.4" fill-rule="evenodd" stroke="none"/>
    <path d="M209.85 133.3 L209.3 133.5 0.0 133.5 Q-0.3 133.5 -0.5 133.3 L-0.75 132.75 -0.5 132.25 Q-0.3 132.0 0.0 132.0 L209.3 132.0 209.85 132.25 210.05 132.75 209.85 133.3" fill="#000000" fill-opacity="0.4" fill-rule="evenodd" stroke="none"/>
    <path d="M210.05 135.75 L209.85 136.3 209.3 136.5 0.0 136.5 Q-0.3 136.5 -0.5 136.3 L-0.75 135.75 -0.5 135.25 Q-0.3 135.0 0.0 135.0 L209.3 135.0 209.85 135.25 210.05 135.75" fill="#000000" fill-opacity="0.4" fill-rule="evenodd" stroke="none"/>
    <path d="M209.85 138.25 L210.05 138.75 209.85 139.3 209.3 139.5 0.0 139.5 Q-0.3 139.5 -0.5 139.3 L-0.75 138.75 -0.5 138.25 Q-0.3 138.0 0.0 138.0 L209.3 138.0 209.85 138.25" fill="#000000" fill-opacity="0.4" fill-rule="evenodd" stroke="none"/>
    <path d="M209.3 141.0 L209.85 141.25 210.05 141.75 209.85 142.3 209.3 142.5 0.0 142.5 Q-0.3 142.5 -0.5 142.3 L-0.75 141.75 -0.5 141.25 Q-0.3 141.0 0.0 141.0 L209.3 141.0" fill="#000000" fill-opacity="0.4" fill-rule="evenodd" stroke="none"/>
    <path d="M209.85 145.3 L209.3 145.5 0.0 145.5 Q-0.3 145.5 -0.5 145.3 L-0.75 144.75 -0.5 144.25 Q-0.3 144.0 0.0 144.0 L209.3 144.0 209.85 144.25 210.05 144.75 209.85 145.3" fill="#000000" fill-opacity="0.4" fill-rule="evenodd" stroke="none"/>
    <path d="M209.85 147.25 L210.05 147.75 209.85 148.3 209.3 148.5 0.0 148.5 Q-0.3 148.5 -0.5 148.3 L-0.75 147.75 -0.5 147.25 Q-0.3 147.0 0.0 147.0 L209.3 147.0 209.85 147.25" fill="#000000" fill-opacity="0.4" fill-rule="evenodd" stroke="none"/>
    <path d="M209.85 150.25 L210.05 150.75 209.85 151.3 209.3 151.5 0.0 151.5 Q-0.3 151.5 -0.5 151.3 L-0.75 150.75 -0.5 150.25 Q-0.3 150.0 0.0 150.0 L209.3 150.0 209.85 150.25" fill="#000000" fill-opacity="0.4" fill-rule="evenodd" stroke="none"/>
    <path d="M209.3 153.0 L209.85 153.25 210.05 153.75 209.85 154.3 209.3 154.5 0.0 154.5 Q-0.3 154.5 -0.5 154.3 L-0.75 153.75 -0.5 153.25 Q-0.3 153.0 0.0 153.0 L209.3 153.0" fill="#000000" fill-opacity="0.4" fill-rule="evenodd" stroke="none"/>
    <path d="M209.85 157.3 L209.3 157.5 0.0 157.5 Q-0.3 157.5 -0.5 157.3 L-0.75 156.75 -0.5 156.25 Q-0.3 156.0 0.0 156.0 L209.3 156.0 209.85 156.25 210.05 156.75 209.85 157.3" fill="#000000" fill-opacity="0.4" fill-rule="evenodd" stroke="none"/>
    <path d="M210.05 159.75 L209.85 160.3 209.3 160.5 0.0 160.5 Q-0.3 160.5 -0.5 160.3 L-0.75 159.75 -0.5 159.25 Q-0.3 159.0 0.0 159.0 L209.3 159.0 209.85 159.25 210.05 159.75" fill="#000000" fill-opacity="0.4" fill-rule="evenodd" stroke="none"/>
    <path d="M209.85 162.25 L210.05 162.75 209.85 163.3 209.3 163.5 0.0 163.5 Q-0.3 163.5 -0.5 163.3 L-0.75 162.75 -0.5 162.25 Q-0.3 162.0 0.0 162.0 L209.3 162.0 209.85 162.25" fill="#000000" fill-opacity="0.4" fill-rule="evenodd" stroke="none"/>
    <path d="M209.3 165.0 L209.85 165.25 210.05 165.75 209.85 166.3 209.3 166.5 0.0 166.5 Q-0.3 166.5 -0.5 166.3 L-0.75 165.75 -0.5 165.25 Q-0.3 165.0 0.0 165.0 L209.3 165.0" fill="#000000" fill-opacity="0.4" fill-rule="evenodd" stroke="none"/>
    <path d="M209.85 169.3 L209.3 169.5 0.0 169.5 Q-0.3 169.5 -0.5 169.3 L-0.75 168.75 -0.5 168.25 Q-0.3 168.0 0.0 168.0 L209.3 168.0 209.85 168.25 210.05 168.75 209.85 169.3" fill="#000000" fill-opacity="0.4" fill-rule="evenodd" stroke="none"/>
    <path d="M210.05 171.75 L209.85 172.3 209.3 172.5 0.0 172.5 Q-0.3 172.5 -0.5 172.3 L-0.75 171.75 -0.5 171.25 Q-0.3 171.0 0.0 171.0 L209.3 171.0 209.85 171.25 210.05 171.75" fill="#000000" fill-opacity="0.4" fill-rule="evenodd" stroke="none"/>
    <path d="M209.3 174.0 L209.85 174.25 210.05 174.75 209.85 175.3 209.3 175.5 0.0 175.5 Q-0.3 175.5 -0.5 175.3 L-0.75 174.75 -0.5 174.25 Q-0.3 174.0 0.0 174.0 L209.3 174.0" fill="#000000" fill-opacity="0.4" fill-rule="evenodd" stroke="none"/>
    <path d="M209.85 178.3 L209.3 178.5 0.0 178.5 Q-0.3 178.5 -0.5 178.3 L-0.75 177.75 -0.5 177.25 Q-0.3 177.0 0.0 177.0 L209.3 177.0 209.85 177.25 210.05 177.75 209.85 178.3" fill="#000000" fill-opacity="0.4" fill-rule="evenodd" stroke="none"/>
    <path d="M210.05 180.75 L209.85 181.3 209.3 181.5 0.0 181.5 Q-0.3 181.5 -0.5 181.3 L-0.75 180.75 -0.5 180.25 Q-0.3 180.0 0.0 180.0 L209.3 180.0 209.85 180.25 210.05 180.75" fill="#000000" fill-opacity="0.4" fill-rule="evenodd" stroke="none"/>
    <path d="M209.85 183.25 L210.05 183.75 209.85 184.3 209.3 184.5 0.0 184.5 Q-0.3 184.5 -0.5 184.3 L-0.75 183.75 -0.5 183.25 Q-0.3 183.0 0.0 183.0 L209.3 183.0 209.85 183.25" fill="#000000" fill-opacity="0.4" fill-rule="evenodd" stroke="none"/>
    <path d="M209.3 186.0 L209.85 186.25 210.05 186.75 209.85 187.3 209.3 187.5 0.0 187.5 Q-0.3 187.5 -0.5 187.3 L-0.75 186.75 -0.5 186.25 Q-0.3 186.0 0.0 186.0 L209.3 186.0" fill="#000000" fill-opacity="0.4" fill-rule="evenodd" stroke="none"/>
    <path d="M209.85 190.3 L209.3 190.5 0.0 190.5 Q-0.3 190.5 -0.5 190.3 L-0.75 189.75 -0.5 189.25 Q-0.3 189.0 0.0 189.0 L209.3 189.0 209.85 189.25 210.05 189.75 209.85 190.3" fill="#000000" fill-opacity="0.4" fill-rule="evenodd" stroke="none"/>
    <path d="M210.05 192.75 L209.85 193.3 209.3 193.5 0.0 193.5 Q-0.3 193.5 -0.5 193.3 L-0.75 192.75 -0.5 192.25 Q-0.3 192.0 0.0 192.0 L209.3 192.0 209.85 192.25 210.05 192.75" fill="#000000" fill-opacity="0.4" fill-rule="evenodd" stroke="none"/>
    <path d="M209.85 195.25 L210.05 195.75 209.85 196.3 209.3 196.5 0.0 196.5 Q-0.3 196.5 -0.5 196.3 L-0.75 195.75 -0.5 195.25 Q-0.3 195.0 0.0 195.0 L209.3 195.0 209.85 195.25" fill="#000000" fill-opacity="0.4" fill-rule="evenodd" stroke="none"/>
    <path d="M209.3 198.0 L209.85 198.25 210.05 198.75 209.85 199.3 209.3 199.5 0.0 199.5 Q-0.3 199.5 -0.5 199.3 L-0.75 198.75 -0.5 198.25 Q-0.3 198.0 0.0 198.0 L209.3 198.0" fill="#000000" fill-opacity="0.4" fill-rule="evenodd" stroke="none"/>
    <path d="M209.85 202.3 L209.3 202.5 0.0 202.5 Q-0.3 202.5 -0.5 202.3 L-0.75 201.75 -0.5 201.25 Q-0.3 201.0 0.0 201.0 L209.3 201.0 209.85 201.25 210.05 201.75 209.85 202.3" fill="#000000" fill-opacity="0.4" fill-rule="evenodd" stroke="none"/>
    <path d="M210.05 204.75 L209.85 205.3 209.3 205.5 0.0 205.5 Q-0.3 205.5 -0.5 205.3 L-0.75 204.75 -0.5 204.25 Q-0.3 204.0 0.0 204.0 L209.3 204.0 209.85 204.25 210.05 204.75" fill="#000000" fill-opacity="0.4" fill-rule="evenodd" stroke="none"/>
    <path d="M209.85 207.25 L210.05 207.75 209.85 208.3 209.3 208.5 0.0 208.5 Q-0.3 208.5 -0.5 208.3 L-0.75 207.75 -0.5 207.25 Q-0.3 207.0 0.0 207.0 L209.3 207.0 209.85 207.25" fill="#000000" fill-opacity="0.4" fill-rule="evenodd" stroke="none"/>
    <path d="M209.3 210.0 L209.85 210.25 210.05 210.75 209.85 211.3 209.3 211.5 0.0 211.5 Q-0.3 211.5 -0.5 211.3 L-0.75 210.75 -0.5 210.25 Q-0.3 210.0 0.0 210.0 L209.3 210.0" fill="#000000" fill-opacity="0.4" fill-rule="evenodd" stroke="none"/>
    <path d="M209.85 214.3 L209.3 214.5 0.0 214.5 Q-0.3 214.5 -0.5 214.3 L-0.75 213.75 -0.5 213.25 Q-0.3 213.0 0.0 213.0 L209.3 213.0 209.85 213.25 210.05 213.75 209.85 214.3" fill="#000000" fill-opacity="0.4" fill-rule="evenodd" stroke="none"/>
    <path d="M210.05 216.75 L209.85 217.3 209.3 217.5 0.0 217.5 Q-0.3 217.5 -0.5 217.3 L-0.75 216.75 -0.5 216.25 Q-0.3 216.0 0.0 216.0 L209.3 216.0 209.85 216.25 210.05 216.75" fill="#000000" fill-opacity="0.4" fill-rule="evenodd" stroke="none"/>
    <path d="M209.85 219.25 L210.05 219.75 209.85 220.3 209.3 220.5 0.0 220.5 Q-0.3 220.5 -0.5 220.3 L-0.75 219.75 -0.5 219.25 Q-0.3 219.0 0.0 219.0 L209.3 219.0 209.85 219.25" fill="#000000" fill-opacity="0.4" fill-rule="evenodd" stroke="none"/>
    <path d="M209.3 222.0 L209.85 222.25 210.05 222.75 209.85 223.3 209.3 223.5 0.0 223.5 Q-0.3 223.5 -0.5 223.3 L-0.75 222.75 -0.5 222.25 Q-0.3 222.0 0.0 222.0 L209.3 222.0" fill="#000000" fill-opacity="0.4" fill-rule="evenodd" stroke="none"/>
    <path d="M209.85 226.3 L209.3 226.5 0.0 226.5 Q-0.3 226.5 -0.5 226.3 L-0.75 225.75 -0.5 225.25 Q-0.3 225.0 0.0 225.0 L209.3 225.0 209.85 225.25 210.05 225.75 209.85 226.3" fill="#000000" fill-opacity="0.4" fill-rule="evenodd" stroke="none"/>
    <path d="M210.05 228.75 L209.85 229.3 209.3 229.5 0.0 229.5 Q-0.3 229.5 -0.5 229.3 L-0.75 228.75 -0.5 228.25 Q-0.3 228.0 0.0 228.0 L209.3 228.0 209.85 228.25 210.05 228.75" fill="#000000" fill-opacity="0.4" fill-rule="evenodd" stroke="none"/>
    <path d="M209.85 231.25 L210.05 231.75 209.85 232.3 209.3 232.5 0.0 232.5 Q-0.3 232.5 -0.5 232.3 L-0.75 231.75 -0.5 231.25 Q-0.3 231.0 0.0 231.0 L209.3 231.0 209.85 231.25" fill="#000000" fill-opacity="0.4" fill-rule="evenodd" stroke="none"/>
    <path d="M209.85 235.3 L209.3 235.5 0.0 235.5 Q-0.3 235.5 -0.5 235.3 L-0.75 234.75 -0.5 234.25 Q-0.3 234.0 0.0 234.0 L209.3 234.0 209.85 234.25 210.05 234.75 209.85 235.3" fill="#000000" fill-opacity="0.4" fill-rule="evenodd" stroke="none"/>
    <path d="M210.05 237.75 L209.85 238.3 209.3 238.5 0.0 238.5 Q-0.3 238.5 -0.5 238.3 L-0.75 237.75 -0.5 237.25 Q-0.3 237.0 0.0 237.0 L209.3 237.0 209.85 237.25 210.05 237.75" fill="#000000" fill-opacity="0.4" fill-rule="evenodd" stroke="none"/>
    <path d="M209.85 240.25 L210.05 240.75 209.85 241.3 209.3 241.5 0.0 241.5 Q-0.3 241.5 -0.5 241.3 L-0.75 240.75 -0.5 240.25 Q-0.3 240.0 0.0 240.0 L209.3 240.0 209.85 240.25" fill="#000000" fill-opacity="0.4" fill-rule="evenodd" stroke="none"/>
    <path d="M209.3 243.0 L209.85 243.25 210.05 243.75 209.85 244.3 209.3 244.5 0.0 244.5 Q-0.3 244.5 -0.5 244.3 L-0.75 243.75 -0.5 243.25 Q-0.3 243.0 0.0 243.0 L209.3 243.0" fill="#000000" fill-opacity="0.4" fill-rule="evenodd" stroke="none"/>
    <path d="M210.05 246.75 L209.85 247.3 209.3 247.5 0.0 247.5 Q-0.3 247.5 -0.5 247.3 L-0.75 246.75 -0.5 246.25 Q-0.3 246.0 0.0 246.0 L209.3 246.0 209.85 246.25 210.05 246.75" fill="#000000" fill-opacity="0.4" fill-rule="evenodd" stroke="none"/>
    <path d="M210.05 249.75 L209.85 250.3 209.3 250.5 0.0 250.5 Q-0.3 250.5 -0.5 250.3 L-0.75 249.75 -0.5 249.25 Q-0.3 249.0 0.0 249.0 L209.3 249.0 209.85 249.25 210.05 249.75" fill="#000000" fill-opacity="0.4" fill-rule="evenodd" stroke="none"/>
    <path d="M209.85 252.25 L210.05 252.75 209.85 253.3 209.3 253.5 0.0 253.5 Q-0.3 253.5 -0.5 253.3 L-0.75 252.75 -0.5 252.25 Q-0.3 252.0 0.0 252.0 L209.3 252.0 209.85 252.25" fill="#000000" fill-opacity="0.4" fill-rule="evenodd" stroke="none"/>
    <path d="M209.3 255.0 L209.85 255.25 210.05 255.75 209.85 256.3 209.3 256.5 0.0 256.5 Q-0.3 256.5 -0.5 256.3 L-0.75 255.75 -0.5 255.25 Q-0.3 255.0 0.0 255.0 L209.3 255.0" fill="#000000" fill-opacity="0.4" fill-rule="evenodd" stroke="none"/>
    <path d="M209.85 259.3 L209.3 259.5 0.0 259.5 Q-0.3 259.5 -0.5 259.3 L-0.75 258.75 -0.5 258.25 Q-0.3 258.0 0.0 258.0 L209.3 258.0 209.85 258.25 210.05 258.75 209.85 259.3" fill="#000000" fill-opacity="0.4" fill-rule="evenodd" stroke="none"/>
    <path d="M210.05 261.75 L209.85 262.3 209.3 262.5 0.0 262.5 Q-0.3 262.5 -0.5 262.3 L-0.75 261.75 -0.5 261.25 Q-0.3 261.0 0.0 261.0 L209.3 261.0 209.85 261.25 210.05 261.75" fill="#000000" fill-opacity="0.4" fill-rule="evenodd" stroke="none"/>
    <path d="M209.85 264.25 L210.05 264.75 209.85 265.3 209.3 265.5 0.0 265.5 Q-0.3 265.5 -0.5 265.3 L-0.75 264.75 -0.5 264.25 Q-0.3 264.0 0.0 264.0 L209.3 264.0 209.85 264.25" fill="#000000" fill-opacity="0.4" fill-rule="evenodd" stroke="none"/>
    <path d="M209.3 267.0 L209.85 267.25 210.05 267.75 209.85 268.3 209.3 268.5 0.0 268.5 Q-0.3 268.5 -0.5 268.3 L-0.75 267.75 -0.5 267.25 Q-0.3 267.0 0.0 267.0 L209.3 267.0" fill="#000000" fill-opacity="0.4" fill-rule="evenodd" stroke="none"/>
    <path d="M209.85 271.3 L209.3 271.5 0.0 271.5 Q-0.3 271.5 -0.5 271.3 L-0.75 270.75 -0.5 270.25 Q-0.3 270.0 0.0 270.0 L209.3 270.0 209.85 270.25 210.05 270.75 209.85 271.3" fill="#000000" fill-opacity="0.4" fill-rule="evenodd" stroke="none"/>
    <path d="M210.05 273.75 L209.85 274.3 209.3 274.5 0.0 274.5 Q-0.3 274.5 -0.5 274.3 L-0.75 273.75 -0.5 273.25 Q-0.3 273.0 0.0 273.0 L209.3 273.0 209.85 273.25 210.05 273.75" fill="#000000" fill-opacity="0.4" fill-rule="evenodd" stroke="none"/>
    <path d="M209.85 276.25 L210.05 276.75 209.85 277.3 209.3 277.5 0.0 277.5 Q-0.3 277.5 -0.5 277.3 L-0.75 276.75 -0.5 276.25 Q-0.3 276.0 0.0 276.0 L209.3 276.0 209.85 276.25" fill="#000000" fill-opacity="0.4" fill-rule="evenodd" stroke="none"/>
    <path d="M209.3 279.0 L209.85 279.25 210.05 279.75 209.85 280.3 209.3 280.5 0.0 280.5 Q-0.3 280.5 -0.5 280.3 L-0.75 279.75 -0.5 279.25 Q-0.3 279.0 0.0 279.0 L209.3 279.0" fill="#000000" fill-opacity="0.4" fill-rule="evenodd" stroke="none"/>
    <path d="M209.85 283.3 L209.3 283.5 0.0 283.5 Q-0.3 283.5 -0.5 283.3 L-0.75 282.75 -0.5 282.25 Q-0.3 282.0 0.0 282.0 L209.3 282.0 209.85 282.25 210.05 282.75 209.85 283.3" fill="#000000" fill-opacity="0.4" fill-rule="evenodd" stroke="none"/>
    <path d="M210.05 285.75 L209.85 286.3 209.3 286.5 0.0 286.5 Q-0.3 286.5 -0.5 286.3 L-0.75 285.75 -0.5 285.25 Q-0.3 285.0 0.0 285.0 L209.3 285.0 209.85 285.25 210.05 285.75" fill="#000000" fill-opacity="0.4" fill-rule="evenodd" stroke="none"/>
    <path d="M209.85 288.25 L210.05 288.75 209.85 289.3 209.3 289.5 0.0 289.5 Q-0.3 289.5 -0.5 289.3 L-0.75 288.75 -0.5 288.25 Q-0.3 288.0 0.0 288.0 L209.3 288.0 209.85 288.25" fill="#000000" fill-opacity="0.4" fill-rule="evenodd" stroke="none"/>
    <path d="M209.3 291.0 L209.85 291.25 210.05 291.75 209.85 292.3 209.3 292.5 0.0 292.5 Q-0.3 292.5 -0.5 292.3 L-0.75 291.75 -0.5 291.25 Q-0.3 291.0 0.0 291.0 L209.3 291.0" fill="#000000" fill-opacity="0.4" fill-rule="evenodd" stroke="none"/>
    <path d="M210.05 294.75 L209.85 295.3 209.3 295.5 0.0 295.5 Q-0.3 295.5 -0.5 295.3 L-0.75 294.75 -0.5 294.25 Q-0.3 294.0 0.0 294.0 L209.3 294.0 209.85 294.25 210.05 294.75" fill="#000000" fill-opacity="0.4" fill-rule="evenodd" stroke="none"/>
    <path d="M209.85 297.25 L210.05 297.75 209.85 298.3 209.3 298.5 0.0 298.5 Q-0.3 298.5 -0.5 298.3 L-0.75 297.75 -0.5 297.25 Q-0.3 297.0 0.0 297.0 L209.3 297.0 209.85 297.25" fill="#000000" fill-opacity="0.4" fill-rule="evenodd" stroke="none"/>
    <path d="M209.3 300.0 L209.85 300.25 210.05 300.75 209.85 301.3 209.3 301.5 0.0 301.5 Q-0.3 301.5 -0.5 301.3 L-0.75 300.75 -0.5 300.25 Q-0.3 300.0 0.0 300.0 L209.3 300.0" fill="#000000" fill-opacity="0.4" fill-rule="evenodd" stroke="none"/>
    <path d="M209.85 304.3 L209.3 304.5 0.0 304.5 Q-0.3 304.5 -0.5 304.3 L-0.75 303.75 -0.5 303.25 Q-0.3 303.0 0.0 303.0 L209.3 303.0 209.85 303.25 210.05 303.75 209.85 304.3" fill="#000000" fill-opacity="0.4" fill-rule="evenodd" stroke="none"/>
    <path d="M209.85 306.25 L210.05 306.75 209.85 307.3 209.3 307.5 0.0 307.5 Q-0.3 307.5 -0.5 307.3 L-0.75 306.75 -0.5 306.25 Q-0.3 306.0 0.0 306.0 L209.3 306.0 209.85 306.25" fill="#000000" fill-opacity="0.4" fill-rule="evenodd" stroke="none"/>
    <path d="M209.85 309.25 L210.05 309.75 209.85 310.3 209.3 310.5 0.0 310.5 Q-0.3 310.5 -0.5 310.3 L-0.75 309.75 -0.5 309.25 Q-0.3 309.0 0.0 309.0 L209.3 309.0 209.85 309.25" fill="#000000" fill-opacity="0.4" fill-rule="evenodd" stroke="none"/>
    <path d="M209.3 312.0 L209.85 312.25 210.05 312.75 209.85 313.3 209.3 313.5 0.0 313.5 Q-0.3 313.5 -0.5 313.3 L-0.75 312.75 -0.5 312.25 Q-0.3 312.0 0.0 312.0 L209.3 312.0" fill="#000000" fill-opacity="0.4" fill-rule="evenodd" stroke="none"/>
    <path d="M209.85 316.3 L209.3 316.5 0.0 316.5 Q-0.3 316.5 -0.5 316.3 L-0.75 315.75 -0.5 315.25 Q-0.3 315.0 0.0 315.0 L209.3 315.0 209.85 315.25 210.05 315.75 209.85 316.3" fill="#000000" fill-opacity="0.4" fill-rule="evenodd" stroke="none"/>
    <path d="M210.05 318.75 L209.85 319.3 209.3 319.5 0.0 319.5 Q-0.3 319.5 -0.5 319.3 L-0.75 318.75 -0.5 318.25 Q-0.3 318.0 0.0 318.0 L209.3 318.0 209.85 318.25 210.05 318.75" fill="#000000" fill-opacity="0.4" fill-rule="evenodd" stroke="none"/>
    <path d="M209.85 321.25 L210.05 321.75 209.85 322.3 209.3 322.5 0.0 322.5 Q-0.3 322.5 -0.5 322.3 L-0.75 321.75 -0.5 321.25 Q-0.3 321.0 0.0 321.0 L209.3 321.0 209.85 321.25" fill="#000000" fill-opacity="0.4" fill-rule="evenodd" stroke="none"/>
    <path d="M209.3 324.0 L209.85 324.25 210.05 324.75 209.85 325.3 209.3 325.5 0.0 325.5 Q-0.3 325.5 -0.5 325.3 L-0.75 324.75 -0.5 324.25 Q-0.3 324.0 0.0 324.0 L209.3 324.0" fill="#000000" fill-opacity="0.4" fill-rule="evenodd" stroke="none"/>
    <path d="M209.85 328.3 L209.3 328.5 0.0 328.5 Q-0.3 328.5 -0.5 328.3 L-0.75 327.75 -0.5 327.25 Q-0.3 327.0 0.0 327.0 L209.3 327.0 209.85 327.25 210.05 327.75 209.85 328.3" fill="#000000" fill-opacity="0.4" fill-rule="evenodd" stroke="none"/>
    <path d="M210.05 330.75 L209.85 331.3 209.3 331.5 0.0 331.5 Q-0.3 331.5 -0.5 331.3 L-0.75 330.75 -0.5 330.25 Q-0.3 330.0 0.0 330.0 L209.3 330.0 209.85 330.25 210.05 330.75" fill="#000000" fill-opacity="0.4" fill-rule="evenodd" stroke="none"/>
    <path d="M209.85 333.25 L210.05 333.75 209.85 334.3 209.3 334.5 0.0 334.5 Q-0.3 334.5 -0.5 334.3 L-0.75 333.75 -0.5 333.25 Q-0.3 333.0 0.0 333.0 L209.3 333.0 209.85 333.25" fill="#000000" fill-opacity="0.4" fill-rule="evenodd" stroke="none"/>
    <path d="M209.3 336.0 L209.85 336.25 210.05 336.75 209.85 337.3 209.3 337.5 0.0 337.5 Q-0.3 337.5 -0.5 337.3 L-0.75 336.75 -0.5 336.25 Q-0.3 336.0 0.0 336.0 L209.3 336.0" fill="#000000" fill-opacity="0.4" fill-rule="evenodd" stroke="none"/>
    <path d="M209.85 340.3 L209.3 340.5 0.0 340.5 Q-0.3 340.5 -0.5 340.3 L-0.75 339.75 -0.5 339.25 Q-0.3 339.0 0.0 339.0 L209.3 339.0 209.85 339.25 210.05 339.75 209.85 340.3" fill="#000000" fill-opacity="0.4" fill-rule="evenodd" stroke="none"/>
    <path d="M210.05 342.75 L209.85 343.3 209.3 343.5 0.0 343.5 Q-0.3 343.5 -0.5 343.3 L-0.75 342.75 -0.5 342.25 Q-0.3 342.0 0.0 342.0 L209.3 342.0 209.85 342.25 210.05 342.75" fill="#000000" fill-opacity="0.4" fill-rule="evenodd" stroke="none"/>
    <path d="M209.3 345.0 L209.85 345.25 210.05 345.75 209.85 346.3 209.3 346.5 0.0 346.5 Q-0.3 346.5 -0.5 346.3 L-0.75 345.75 -0.5 345.25 Q-0.3 345.0 0.0 345.0 L209.3 345.0" fill="#000000" fill-opacity="0.4" fill-rule="evenodd" stroke="none"/>
    <path d="M209.3 348.0 L209.85 348.25 210.05 348.75 209.85 349.3 209.3 349.5 0.0 349.5 Q-0.3 349.5 -0.5 349.3 L-0.75 348.75 -0.5 348.25 Q-0.3 348.0 0.0 348.0 L209.3 348.0" fill="#000000" fill-opacity="0.4" fill-rule="evenodd" stroke="none"/>
    <path d="M209.85 352.3 L209.3 352.5 0.0 352.5 Q-0.3 352.5 -0.5 352.3 L-0.75 351.75 -0.5 351.25 Q-0.3 351.0 0.0 351.0 L209.3 351.0 209.85 351.25 210.05 351.75 209.85 352.3" fill="#000000" fill-opacity="0.4" fill-rule="evenodd" stroke="none"/>
    <path d="M193.5 2.85 L201.4 11.0 201.4 336.25 190.0 346.5 21.4 346.5 10.75 336.95 10.75 10.3 17.95 2.85 193.5 2.85" fill="url(#gradient0)" fill-rule="evenodd" stroke="none"/>
    <path d="M193.5 2.85 L201.4 11.0 201.4 336.25 190.0 346.5 21.4 346.5 10.75 336.95 10.75 10.3 17.95 2.85 193.5 2.85" fill="url(#gradient1)" fill-rule="evenodd" stroke="none"/>
  </g>
  <defs>
    <linearGradient gradientTransform="matrix(-0.0449, 0.0, 0.0, -0.2097, 225.65, 171.5)" gradientUnits="userSpaceOnUse" id="gradient0" spreadMethod="pad" x1="-819.2" x2="819.2">
      <stop offset="0.0" stop-color="#ffffff" stop-opacity="0.7490196"/>
      <stop offset="1.0" stop-color="#ffffff" stop-opacity="0.0"/>
    </linearGradient>
    <linearGradient gradientTransform="matrix(0.0455, 0.0, 0.0, 0.2097, 1.05, 179.7)" gradientUnits="userSpaceOnUse" id="gradient1" spreadMethod="pad" x1="-819.2" x2="819.2">
      <stop offset="0.0" stop-color="#ffffff" stop-opacity="0.7490196"/>
      <stop offset="1.0" stop-color="#ffffff" stop-opacity="0.0"/>
    </linearGradient>
  </defs>
</svg>
