<?xml version="1.0" encoding="UTF-8" standalone="no"?>
<svg xmlns:xlink="http://www.w3.org/1999/xlink" height="367.5px" width="219.15px" xmlns="http://www.w3.org/2000/svg">
  <g transform="matrix(1.0, 0.0, 0.0, 1.0, 24.4, -0.35)">
    <path d="M178.3 7.3 L-8.2 7.3 -15.85 14.95 -15.85 352.05 -4.5 361.9 174.6 361.9 186.7 351.3 186.7 15.7 178.3 7.3 M194.1 365.4 L-22.9 365.4 -22.9 2.85 194.1 2.85 194.1 365.4" fill="url(#gradient0)" fill-rule="evenodd" stroke="none"/>
    <path d="M194.1 365.4 L194.1 2.85 -22.9 2.85 -22.9 365.4 194.1 365.4 M194.6 367.85 L-24.4 367.85 -24.4 0.35 194.6 0.35 194.6 367.85" fill="url(#gradient1)" fill-rule="evenodd" stroke="none"/>
    <path d="M178.3 7.3 L-8.2 7.3 -15.85 14.95 -15.85 352.05 -4.5 361.9 174.6 361.9 186.7 351.3 186.7 15.7 178.3 7.3 Z" fill="none" stroke="#000000" stroke-linecap="round" stroke-linejoin="round" stroke-width="1.0"/>
    <path d="M194.75 0.45 L194.75 365.35 193.55 365.35 193.55 0.45 194.75 0.45" fill="url(#gradient2)" fill-rule="evenodd" stroke="none"/>
  </g>
  <defs>
    <linearGradient gradientTransform="matrix(0.0073, -0.2052, 0.2162, 0.0077, 85.1, 188.1)" gradientUnits="userSpaceOnUse" id="gradient0" spreadMethod="pad" x1="-819.2" x2="819.2">
      <stop offset="0.0" stop-color="#565656"/>
      <stop offset="1.0" stop-color="#313131"/>
    </linearGradient>
    <linearGradient gradientTransform="matrix(0.0074, -0.2081, 0.2192, 0.0078, 85.1, 188.1)" gradientUnits="userSpaceOnUse" id="gradient1" spreadMethod="pad" x1="-819.2" x2="819.2">
      <stop offset="0.0" stop-color="#343434"/>
      <stop offset="1.0" stop-color="#555555"/>
    </linearGradient>
    <linearGradient gradientTransform="matrix(0.0, 0.2213, -0.2227, -0.0011, 194.75, 183.5)" gradientUnits="userSpaceOnUse" id="gradient2" spreadMethod="pad" x1="-819.2" x2="819.2">
      <stop offset="0.0" stop-color="#555555"/>
      <stop offset="0.24705882352941178" stop-color="#e6e6e6"/>
      <stop offset="1.0" stop-color="#343434"/>
    </linearGradient>
  </defs>
</svg>
