<?xml version="1.0" encoding="UTF-8" standalone="no"?>
<svg xmlns:xlink="http://www.w3.org/1999/xlink" height="190.9px" width="297.8px" xmlns="http://www.w3.org/2000/svg">
  <g transform="matrix(1.0, 0.0, 0.0, 1.0, 148.9, 102.45)">
    <path d="M-98.55 -102.45 L98.5 -102.45 148.9 -7.0 98.5 88.45 -98.55 88.45 -148.9 -7.0 -98.55 -102.45 M-92.6 78.6 L92.6 78.6 137.75 -7.0 92.6 -92.65 -92.6 -92.65 -137.8 -7.0 -92.6 78.6" fill="url(#gradient0)" fill-rule="evenodd" stroke="none"/>
    <path d="M-93.85 80.6 L-140.05 -7.0 -93.85 -94.65 93.8 -94.65 140.05 -7.0 93.8 80.6 -93.85 80.6 M-92.6 -92.65 L-137.8 -7.0 -92.6 78.6 92.6 78.6 137.75 -7.0 92.6 -92.65 -92.6 -92.65 M-97.35 -100.45 L-146.65 -7.0 -97.35 86.45 97.3 86.45 146.6 -7.0 97.3 -100.45 -97.35 -100.45 M-148.9 -7.0 L-98.55 -102.45 98.5 -102.45 148.9 -7.0 98.5 88.45 -98.55 88.45 -148.9 -7.0" fill="url(#gradient1)" fill-rule="evenodd" stroke="none"/>
  </g>
  <defs>
    <linearGradient gradientTransform="matrix(0.0, -0.1165, -0.1165, 0.0, 0.0, -7.0)" gradientUnits="userSpaceOnUse" id="gradient0" spreadMethod="pad" x1="-819.2" x2="819.2">
      <stop offset="0.00392156862745098" stop-color="#543800"/>
      <stop offset="0.17647058823529413" stop-color="#e9ca00"/>
      <stop offset="0.43529411764705883" stop-color="#6a4a00"/>
      <stop offset="0.44313725490196076" stop-color="#836300"/>
      <stop offset="0.4627450980392157" stop-color="#af8f00"/>
      <stop offset="0.47843137254901963" stop-color="#ceaf00"/>
      <stop offset="0.49019607843137253" stop-color="#e2c300"/>
      <stop offset="0.5019607843137255" stop-color="#e9ca00"/>
      <stop offset="0.6274509803921569" stop-color="#feffbf"/>
      <stop offset="0.7607843137254902" stop-color="#e9ca00"/>
      <stop offset="0.984313725490196" stop-color="#6a4700"/>
    </linearGradient>
    <linearGradient gradientTransform="matrix(0.1817, 0.0, 0.0, -0.1817, 0.0, -7.0)" gradientUnits="userSpaceOnUse" id="gradient1" spreadMethod="pad" x1="-819.2" x2="819.2">
      <stop offset="0.07450980392156863" stop-color="#543800"/>
      <stop offset="0.17647058823529413" stop-color="#e9ca00"/>
      <stop offset="0.43529411764705883" stop-color="#6a4a00"/>
      <stop offset="0.4588235294117647" stop-color="#836300"/>
      <stop offset="0.5058823529411764" stop-color="#af8f00"/>
      <stop offset="0.5490196078431373" stop-color="#ceaf00"/>
      <stop offset="0.5843137254901961" stop-color="#e2c300"/>
      <stop offset="0.6078431372549019" stop-color="#e9ca00"/>
      <stop offset="0.6431372549019608" stop-color="#e9ca00"/>
      <stop offset="0.8196078431372549" stop-color="#fff87f"/>
      <stop offset="0.8784313725490196" stop-color="#e9ca00"/>
      <stop offset="0.984313725490196" stop-color="#6a4700"/>
    </linearGradient>
  </defs>
</svg>
