<?xml version="1.0" encoding="UTF-8" standalone="no"?>
<svg xmlns:xlink="http://www.w3.org/1999/xlink" height="592.8px" width="817.7px" xmlns="http://www.w3.org/2000/svg">
  <g transform="matrix(1.0, 0.0, 0.0, 1.0, 4.15, -3.1)">
    <path d="M807.45 595.9 L5.35 595.9 5.35 11.45 807.45 11.45 807.45 595.9" fill="url(#gradient0)" fill-rule="evenodd" stroke="none"/>
    <path d="M807.25 594.85 L7.25 594.85 7.25 3.1 807.25 3.1 807.25 594.85" fill="url(#gradient1)" fill-rule="evenodd" stroke="none"/>
    <path d="M813.55 138.05 L-4.15 138.05 -4.15 137.85 813.55 137.85 813.55 138.05 M813.55 145.85 L-4.15 145.85 -4.15 142.2 813.55 142.2 813.55 145.85 M813.55 161.0 L-4.15 161.0 -4.15 157.35 813.55 157.35 813.55 161.0 M813.55 153.1 L-4.15 153.1 -4.15 149.45 813.55 149.45 813.55 153.1 M813.55 168.25 L-4.15 168.25 -4.15 164.6 813.55 164.6 813.55 168.25 M813.55 183.35 L-4.15 183.35 -4.15 179.7 813.55 179.7 813.55 183.35 M813.55 191.6 L-4.15 191.6 -4.15 187.95 813.55 187.95 813.55 191.6 M813.55 175.5 L-4.15 175.5 -4.15 171.85 813.55 171.85 813.55 175.5 M813.55 221.2 L-4.15 221.2 -4.15 217.55 813.55 217.55 813.55 221.2 M813.55 206.75 L-4.15 206.75 -4.15 203.1 813.55 203.1 813.55 206.75 M813.55 213.95 L-4.15 213.95 -4.15 210.3 813.55 210.3 813.55 213.95 M813.55 237.4 L-4.15 237.4 -4.15 233.75 813.55 233.75 813.55 237.4 M813.55 229.15 L-4.15 229.15 -4.15 225.5 813.55 225.5 813.55 229.15 M813.55 244.65 L-4.15 244.65 -4.15 241.0 813.55 241.0 813.55 244.65 M813.55 252.5 L-4.15 252.5 -4.15 248.85 813.55 248.85 813.55 252.5 M813.55 259.75 L-4.15 259.75 -4.15 256.1 813.55 256.1 813.55 259.75 M813.55 267.05 L-4.15 267.05 -4.15 263.4 813.55 263.4 813.55 267.05 M813.55 283.1 L-4.15 283.1 -4.15 279.45 813.55 279.45 813.55 283.1 M813.55 290.35 L-4.15 290.35 -4.15 286.7 813.55 286.7 813.55 290.35 M813.55 274.9 L-4.15 274.9 -4.15 271.25 813.55 271.25 813.55 274.9 M813.55 305.5 L-4.15 305.5 -4.15 301.85 813.55 301.85 813.55 305.5 M813.55 312.75 L-4.15 312.75 -4.15 309.1 813.55 309.1 813.55 312.75 M813.55 320.65 L-4.15 320.65 -4.15 317.0 813.55 317.0 813.55 320.65 M813.55 336.2 L-4.15 336.2 -4.15 332.55 813.55 332.55 813.55 336.2 M813.55 344.05 L-4.15 344.05 -4.15 340.4 813.55 340.4 813.55 344.05 M813.55 328.95 L-4.15 328.95 -4.15 325.3 813.55 325.3 813.55 328.95 M813.55 351.3 L-4.15 351.3 -4.15 347.65 813.55 347.65 813.55 351.3 M813.55 358.55 L-4.15 358.55 -4.15 354.9 813.55 354.9 813.55 358.55 M813.55 366.05 L-4.15 366.05 -4.15 362.4 813.55 362.4 813.55 366.05 M813.55 388.45 L-4.15 388.45 -4.15 384.8 813.55 384.8 813.55 388.45 M813.55 381.25 L-4.15 381.25 -4.15 377.6 813.55 377.6 813.55 381.25 M813.55 395.7 L-4.15 395.7 -4.15 392.1 813.55 392.1 813.55 395.7 M813.55 373.35 L-4.15 373.35 -4.15 369.7 813.55 369.7 813.55 373.35 M813.55 298.3 L-4.15 298.3 -4.15 294.65 813.55 294.65 813.55 298.3 M813.55 198.85 L-4.15 198.85 -4.15 195.2 813.55 195.2 813.55 198.85 M813.55 419.1 L-4.15 419.1 -4.15 415.45 813.55 415.45 813.55 419.1 M813.55 403.6 L-4.15 403.6 -4.15 399.95 813.55 399.95 813.55 403.6 M813.55 411.85 L-4.15 411.85 -4.15 408.2 813.55 408.2 813.55 411.85 M813.55 434.2 L-4.15 434.2 -4.15 430.55 813.55 430.55 813.55 434.2 M813.55 427.0 L-4.15 427.0 -4.15 423.35 813.55 423.35 813.55 427.0 M813.55 441.45 L-4.15 441.45 -4.15 437.8 813.55 437.8 813.55 441.45 M813.55 449.4 L-4.15 449.4 -4.15 445.75 813.55 445.75 813.55 449.4 M813.55 457.6 L-4.15 457.6 -4.15 453.95 813.55 453.95 813.55 457.6 M813.55 464.85 L-4.15 464.85 -4.15 461.25 813.55 461.25 813.55 464.85 M813.55 480.0 L-4.15 480.0 -4.15 476.35 813.55 476.35 813.55 480.0 M813.55 487.25 L-4.15 487.25 -4.15 483.6 813.55 483.6 813.55 487.25 M813.55 472.75 L-4.15 472.75 -4.15 469.1 813.55 469.1 813.55 472.75 M813.55 503.35 L-4.15 503.35 -4.15 499.7 813.55 499.7 813.55 503.35 M813.55 518.55 L-4.15 518.55 -4.15 514.9 813.55 514.9 813.55 518.55 M813.55 510.6 L-4.15 510.6 -4.15 506.95 813.55 506.95 813.55 510.6 M813.55 525.75 L-4.15 525.75 -4.15 522.1 813.55 522.1 813.55 525.75 M813.55 533.0 L-4.15 533.0 -4.15 529.35 813.55 529.35 813.55 533.0 M813.55 540.9 L-4.15 540.9 -4.15 537.25 813.55 537.25 813.55 540.9 M813.55 556.4 L-4.15 556.4 -4.15 552.75 813.55 552.75 813.55 556.4 M813.55 549.15 L-4.15 549.15 -4.15 545.5 813.55 545.5 813.55 549.15 M813.55 564.3 L-4.15 564.3 -4.15 560.65 813.55 560.65 813.55 564.3 M813.55 578.8 L-4.15 578.8 -4.15 575.15 813.55 575.15 813.55 578.8 M813.55 571.5 L-4.15 571.5 -4.15 567.85 813.55 567.85 813.55 571.5 M813.55 495.15 L-4.15 495.15 -4.15 491.5 813.55 491.5 813.55 495.15" fill="url(#gradient2)" fill-rule="evenodd" stroke="none"/>
    <path d="M665.75 536.1 Q569.1 579.2 432.4 579.2 295.7 579.2 198.9 536.1 102.35 492.95 102.35 431.9 102.35 370.8 198.9 327.7 295.7 284.55 432.4 284.55 569.1 284.55 665.75 327.7 762.45 370.8 762.45 431.9 762.45 492.95 665.75 536.1" fill="url(#gradient3)" fill-rule="evenodd" stroke="none"/>
  </g>
  <defs>
    <linearGradient gradientTransform="matrix(-0.0028, -0.1639, 0.1771, -4.0E-4, 397.3, 451.45)" gradientUnits="userSpaceOnUse" id="gradient0" spreadMethod="pad" x1="-819.2" x2="819.2">
      <stop offset="0.0" stop-color="#000000" stop-opacity="0.8784314"/>
      <stop offset="1.0" stop-color="#000000" stop-opacity="0.0"/>
    </linearGradient>
    <radialGradient cx="0" cy="0" gradientTransform="matrix(0.3784, 0.0, 0.0, 0.2151, 427.95, 408.95)" gradientUnits="userSpaceOnUse" id="gradient1" r="819.2" spreadMethod="pad">
      <stop offset="0.0" stop-color="#770000" stop-opacity="0.4392157"/>
      <stop offset="1.0" stop-color="#550000" stop-opacity="0.0"/>
    </radialGradient>
    <radialGradient cx="0" cy="0" gradientTransform="matrix(0.4203, 0.0, 0.0, 0.1969, 423.0, 397.0)" gradientUnits="userSpaceOnUse" id="gradient2" r="819.2" spreadMethod="pad">
      <stop offset="0.0" stop-color="#770000" stop-opacity="0.32941177"/>
      <stop offset="1.0" stop-color="#550000" stop-opacity="0.07058824"/>
    </radialGradient>
    <radialGradient cx="0" cy="0" gradientTransform="matrix(0.0021, -0.1788, 0.3644, 0.0055, 432.4, 431.9)" gradientUnits="userSpaceOnUse" id="gradient3" r="819.2" spreadMethod="pad">
      <stop offset="0.0" stop-color="#c21414" stop-opacity="0.3019608"/>
      <stop offset="1.0" stop-color="#c21414" stop-opacity="0.011764706"/>
    </radialGradient>
  </defs>
</svg>
