<?xml version="1.0" encoding="UTF-8" standalone="no"?>
<svg xmlns:xlink="http://www.w3.org/1999/xlink" height="195.95px" width="803.0px" xmlns="http://www.w3.org/2000/svg">
  <g transform="matrix(1.0, 0.0, 0.0, 1.0, 15.05, 1.8)">
    <path d="M777.35 3.95 L-3.35 3.95 -8.15 8.75 -8.15 185.15 -4.0 188.8 777.1 188.8 781.75 184.8 781.75 7.9 777.35 3.95 M-14.05 0.2 L-14.05 -0.8 786.95 -0.8 786.95 0.2 786.95 193.15 -14.05 193.15 -14.05 0.2" fill="url(#gradient0)" fill-rule="evenodd" stroke="none"/>
    <path d="M774.65 5.85 L779.0 9.75 779.0 183.2 774.4 187.1 -1.25 187.1 -5.4 183.5 -5.4 10.55 -0.65 5.85 774.65 5.85" fill="url(#gradient1)" fill-rule="evenodd" stroke="none"/>
    <path d="M774.65 5.85 L-0.65 5.85 -5.4 10.55 -5.4 183.5 -1.25 187.1 774.4 187.1 779.0 183.2 779.0 9.75 774.65 5.85 M777.35 3.95 L781.75 7.9 781.75 184.8 777.1 188.8 -4.0 188.8 -8.15 185.15 -8.15 8.75 -3.35 3.95 777.35 3.95" fill="url(#gradient2)" fill-rule="evenodd" stroke="none"/>
    <path d="M787.95 0.2 L786.95 0.2 786.95 -0.8 -14.05 -0.8 -14.05 0.2 -15.05 0.2 -15.05 -1.8 787.95 -1.8 787.95 0.2" fill="#999999" fill-rule="evenodd" stroke="none"/>
    <path d="M786.95 0.2 L787.95 0.2 787.95 194.15 -15.05 194.15 -15.05 0.2 -14.05 0.2 -14.05 193.15 786.95 193.15 786.95 0.2" fill="#000000" fill-rule="evenodd" stroke="none"/>
  </g>
  <defs>
    <linearGradient gradientTransform="matrix(0.0019, 0.1058, -0.111, 0.002, 386.5, 90.2)" gradientUnits="userSpaceOnUse" id="gradient0" spreadMethod="pad" x1="-819.2" x2="819.2">
      <stop offset="0.011764705882352941" stop-color="#606060"/>
      <stop offset="1.0" stop-color="#313131"/>
    </linearGradient>
    <linearGradient gradientTransform="matrix(0.0, 0.1054, -0.0789, 1.0E-4, 391.0, 152.85)" gradientUnits="userSpaceOnUse" id="gradient1" spreadMethod="pad" x1="-819.2" x2="819.2">
      <stop offset="0.0196078431372549" stop-color="#000000"/>
      <stop offset="1.0" stop-color="#000000"/>
    </linearGradient>
    <linearGradient gradientTransform="matrix(0.0, -0.1104, 0.1054, 0.0, 386.75, 90.4)" gradientUnits="userSpaceOnUse" id="gradient2" spreadMethod="pad" x1="-819.2" x2="819.2">
      <stop offset="0.011764705882352941" stop-color="#606060"/>
      <stop offset="1.0" stop-color="#313131"/>
    </linearGradient>
  </defs>
</svg>
