<?xml version="1.0" encoding="UTF-8" standalone="no"?>
<svg xmlns:xlink="http://www.w3.org/1999/xlink" height="58.0px" width="132.0px" xmlns="http://www.w3.org/2000/svg">
  <g transform="matrix(1.0, 0.0, 0.0, 1.0, 0.5, 0.5)">
    <path d="M120.4 57.0 L0.0 57.0 0.0 10.25 10.25 0.0 131.0 0.0 131.0 46.4 120.4 57.0" fill="#660000" fill-rule="evenodd" stroke="none"/>
    <path d="M120.4 57.0 L0.0 57.0 0.0 10.25 10.25 0.0 131.0 0.0 131.0 46.4" fill="none" stroke="#b91111" stroke-linecap="round" stroke-linejoin="round" stroke-width="1.0"/>
    <path d="M131.0 2.45 L7.8 2.45 9.9 0.35 131.0 0.35 131.0 2.45 M131.0 7.2 L3.05 7.2 5.15 5.1 131.0 5.1 131.0 7.2 M131.0 11.95 L0.0 11.95 0.0 10.25 0.4 9.85 131.0 9.85 131.0 11.95 M131.0 16.5 L0.0 16.5 0.0 14.4 131.0 14.4 131.0 16.5 M131.0 21.25 L0.0 21.25 0.0 19.15 131.0 19.15 131.0 21.25 M131.0 44.75 L0.0 44.75 0.0 42.65 131.0 42.65 131.0 44.75 M131.0 30.55 L0.0 30.55 0.0 28.45 131.0 28.45 131.0 30.55 M131.0 35.3 L0.0 35.3 0.0 33.2 131.0 33.2 131.0 35.3 M131.0 40.05 L0.0 40.05 0.0 37.95 131.0 37.95 131.0 40.05 M131.0 26.0 L0.0 26.0 0.0 23.9 131.0 23.9 131.0 26.0 M122.55 54.25 L0.0 54.25 0.0 52.15 124.65 52.15 122.55 54.25 M127.3 49.5 L0.0 49.5 0.0 47.4 129.4 47.4 127.3 49.5" fill="#4f0000" fill-rule="evenodd" stroke="none"/>
    <path d="M131.0 46.4 L120.4 57.0 0.0 57.0 0.0 10.25 10.25 0.0 131.0 0.0 131.0 46.4 Z" fill="none" stroke="#d90000" stroke-linecap="round" stroke-linejoin="round" stroke-width="1.0"/>
  </g>
</svg>
