<?xml version="1.0" encoding="UTF-8" standalone="no"?>
<svg xmlns:xlink="http://www.w3.org/1999/xlink" height="105.6px" width="107.9px" xmlns="http://www.w3.org/2000/svg">
  <g transform="matrix(1.0, 0.0, 0.0, 1.0, 0.0, 0.0)">
    <path d="M105.6 46.5 L107.85 47.05 107.9 47.2 106.75 47.5 106.6 47.85 106.25 47.75 106.45 47.5 105.8 47.5 105.7 47.55 105.65 47.5 105.5 47.5 105.5 47.9 105.4 47.95 105.6 52.8 Q105.6 74.65 90.1 90.1 74.65 105.6 52.8 105.6 30.95 105.6 15.45 90.1 0.0 74.65 0.0 52.8 0.0 30.95 15.45 15.45 30.95 0.0 52.8 0.0 74.65 0.0 90.1 15.45 103.45 28.8 105.3 46.85 105.35 46.5 105.6 46.5" fill="url(#gradient0)" fill-rule="evenodd" stroke="none"/>
  </g>
  <defs>
    <radialGradient cx="0" cy="0" gradientTransform="matrix(0.0541, 0.0, 0.0, 0.0541, 53.95, 52.8)" gradientUnits="userSpaceOnUse" id="gradient0" r="819.2" spreadMethod="pad">
      <stop offset="0.0" stop-color="#ffffff"/>
      <stop offset="1.0" stop-color="#ffffff" stop-opacity="0.0"/>
    </radialGradient>
  </defs>
</svg>
