<?xml version="1.0" encoding="UTF-8" standalone="no"?>
<svg xmlns:xlink="http://www.w3.org/1999/xlink" height="64.25px" width="39.5px" xmlns="http://www.w3.org/2000/svg">
  <g transform="matrix(1.0, 0.0, 0.0, 1.0, 42.85, 22.75)">
    <path d="M-22.35 41.5 Q-31.35 41.75 -35.85 38.25 -37.85 36.5 -38.35 34.75 L-42.1 20.25 -21.85 26.0 -4.1 19.25 -7.85 35.5 Q-8.35 37.0 -10.35 38.25 -14.35 41.25 -22.35 41.5" fill="url(#gradient0)" fill-rule="evenodd" stroke="none"/>
    <path d="M-9.2 26.05 Q-14.9 28.95 -22.9 29.15 -31.15 29.35 -37.2 26.75 -39.55 25.85 -40.95 24.7 L-42.1 20.25 -21.85 26.0 -4.1 19.25 -5.1 23.75 Q-6.6 25.0 -9.2 26.05" fill="#000000" fill-opacity="0.4" fill-rule="evenodd" stroke="none"/>
    <path d="M-23.1 27.25 Q-31.35 27.25 -37.35 24.5 -42.85 22.25 -42.85 18.75 -42.85 15.5 -37.35 12.75 -31.35 10.5 -23.1 10.5 -15.1 10.5 -9.35 12.75 -3.35 15.5 -3.35 18.75 -3.35 22.25 -9.35 24.5 -15.1 27.25 -23.1 27.25" fill="url(#gradient1)" fill-rule="evenodd" stroke="none"/>
    <path d="M-22.85 24.25 Q-36.85 24.5 -41.35 17.5 L-41.35 -4.75 Q-23.85 8.5 -5.6 -4.75 L-5.6 17.5 Q-9.1 24.0 -22.85 24.25" fill="url(#gradient2)" fill-rule="evenodd" stroke="none"/>
    <path d="M-5.6 17.5 Q-9.1 24.0 -22.85 24.25 -36.85 24.5 -41.35 17.5 L-41.35 1.2 Q-40.0 2.55 -37.35 3.6 -31.35 6.35 -23.1 6.35 -15.1 6.35 -9.35 3.6 -7.0 2.75 -5.6 1.7 L-5.6 17.5" fill="url(#gradient3)" fill-rule="evenodd" stroke="none"/>
    <path d="M-9.35 2.5 Q-15.1 5.25 -23.1 5.25 -31.35 5.25 -37.35 2.5 -40.0 1.45 -41.35 0.1 L-41.35 -5.85 Q-23.85 7.4 -5.6 -5.85 L-5.6 0.6 Q-7.0 1.65 -9.35 2.5" fill="#000000" fill-opacity="0.4" fill-rule="evenodd" stroke="none"/>
    <path d="M-3.35 -5.0 Q-3.35 -1.5 -9.35 0.75 -15.1 3.5 -23.1 3.5 -31.35 3.5 -37.35 0.75 -42.85 -1.5 -42.85 -5.0 -42.85 -8.25 -37.35 -11.0 -31.35 -13.25 -23.1 -13.25 -15.1 -13.25 -9.35 -11.0 -3.35 -8.25 -3.35 -5.0" fill="url(#gradient4)" fill-rule="evenodd" stroke="none"/>
    <path d="M-3.35 -5.0 Q-3.35 -1.5 -9.35 0.75 -15.1 3.5 -23.1 3.5 -31.35 3.5 -37.35 0.75 -42.85 -1.5 -42.85 -5.0 -42.85 -8.25 -37.35 -11.0 -31.35 -13.25 -23.1 -13.25 -15.1 -13.25 -9.35 -11.0 -3.35 -8.25 -3.35 -5.0" fill="url(#gradient5)" fill-rule="evenodd" stroke="none"/>
    <path d="M-40.6 -15.75 Q-39.35 -20.25 -34.6 -22.75 L-9.6 -20.75 Q-7.35 -18.75 -5.85 -15.0 -4.35 -11.25 -5.6 -6.5 -5.85 -5.0 -8.1 -3.5 -12.35 -0.75 -21.85 -0.5 -31.85 -0.25 -37.6 -4.0 -40.6 -5.75 -41.6 -7.5 -41.85 -11.25 -40.6 -15.75" fill="url(#gradient6)" fill-rule="evenodd" stroke="none"/>
  </g>
  <defs>
    <linearGradient gradientTransform="matrix(0.0232, 0.0, 0.0, 0.0136, -23.1, 30.35)" gradientUnits="userSpaceOnUse" id="gradient0" spreadMethod="pad" x1="-819.2" x2="819.2">
      <stop offset="0.0" stop-color="#8c8c8c"/>
      <stop offset="0.6627450980392157" stop-color="#c3c3c3"/>
      <stop offset="1.0" stop-color="#8b8b8b"/>
    </linearGradient>
    <linearGradient gradientTransform="matrix(0.0241, 0.0, 0.0, 0.0102, -23.1, 18.85)" gradientUnits="userSpaceOnUse" id="gradient1" spreadMethod="pad" x1="-819.2" x2="819.2">
      <stop offset="0.0" stop-color="#8c8c8c"/>
      <stop offset="0.7450980392156863" stop-color="#c3c3c3"/>
      <stop offset="1.0" stop-color="#8b8b8b"/>
    </linearGradient>
    <linearGradient gradientTransform="matrix(0.0218, 0.0, 0.0, 0.0177, -23.5, 9.75)" gradientUnits="userSpaceOnUse" id="gradient2" spreadMethod="pad" x1="-819.2" x2="819.2">
      <stop offset="0.0" stop-color="#28424c"/>
      <stop offset="0.6627450980392157" stop-color="#48768c"/>
      <stop offset="1.0" stop-color="#27414b"/>
    </linearGradient>
    <linearGradient gradientTransform="matrix(0.0218, 0.0, 0.0, 0.0177, -23.5, 9.75)" gradientUnits="userSpaceOnUse" id="gradient3" spreadMethod="pad" x1="-819.2" x2="819.2">
      <stop offset="0.0" stop-color="#28424c"/>
      <stop offset="0.6627450980392157" stop-color="#48768c"/>
      <stop offset="1.0" stop-color="#27414b"/>
    </linearGradient>
    <linearGradient gradientTransform="matrix(0.0241, 0.0, 0.0, 0.0102, -23.1, -4.9)" gradientUnits="userSpaceOnUse" id="gradient4" spreadMethod="pad" x1="-819.2" x2="819.2">
      <stop offset="0.0" stop-color="#8c8c8c"/>
      <stop offset="0.7450980392156863" stop-color="#c3c3c3"/>
      <stop offset="1.0" stop-color="#8b8b8b"/>
    </linearGradient>
    <linearGradient gradientTransform="matrix(0.0241, 0.0, 0.0, 0.0102, -23.1, -4.9)" gradientUnits="userSpaceOnUse" id="gradient5" spreadMethod="pad" x1="-819.2" x2="819.2">
      <stop offset="0.0" stop-color="#8c8c8c"/>
      <stop offset="0.7450980392156863" stop-color="#c3c3c3"/>
      <stop offset="1.0" stop-color="#8b8b8b"/>
    </linearGradient>
    <linearGradient gradientTransform="matrix(0.0223, 0.0, 0.0, 0.0136, -23.35, -11.65)" gradientUnits="userSpaceOnUse" id="gradient6" spreadMethod="pad" x1="-819.2" x2="819.2">
      <stop offset="0.0" stop-color="#8c8c8c"/>
      <stop offset="0.6627450980392157" stop-color="#c3c3c3"/>
      <stop offset="1.0" stop-color="#8b8b8b"/>
    </linearGradient>
  </defs>
</svg>
