<?xml version="1.0" encoding="UTF-8" standalone="no"?>
<svg xmlns:xlink="http://www.w3.org/1999/xlink" height="15.6px" width="17.05px" xmlns="http://www.w3.org/2000/svg">
  <g transform="matrix(1.0, 0.0, 0.0, 1.0, 0.0, 0.0)">
    <path d="M16.35 5.65 L14.9 7.1 17.05 7.1 17.05 8.55 14.9 8.55 16.35 10.0 15.6 10.55 13.65 8.55 9.95 8.55 11.9 11.6 14.9 12.15 14.75 13.05 12.6 12.7 13.85 14.45 12.75 15.2 11.5 13.4 11.15 15.6 10.25 15.4 10.8 12.5 8.5 8.9 6.15 12.5 6.65 15.4 5.95 15.6 5.45 13.4 4.35 15.2 3.1 14.45 4.35 12.7 2.35 13.05 2.2 12.15 5.05 11.6 7.2 8.55 3.3 8.55 1.1 10.55 0.6 10.0 2.05 8.55 0.0 8.55 0.0 7.1 2.05 7.1 0.6 5.65 1.1 4.95 3.3 7.1 7.2 7.1 5.05 3.7 2.2 3.2 2.35 2.25 4.35 2.8 3.3 1.05 4.35 0.3 5.45 2.1 5.95 0.0 6.65 0.1 6.15 3.0 8.5 6.4 10.8 3.0 10.25 0.1 11.0 0.0 11.5 2.1 12.6 0.3 13.85 1.05 12.6 2.8 14.75 2.25 14.9 3.2 12.05 3.7 9.75 7.1 13.65 7.1 15.6 4.95 16.35 5.65" fill="#ffffff" fill-opacity="0.8" fill-rule="evenodd" stroke="none"/>
  </g>
</svg>
