<?xml version="1.0" encoding="UTF-8" standalone="no"?>
<svg xmlns:xlink="http://www.w3.org/1999/xlink" height="78.15px" width="40.75px" xmlns="http://www.w3.org/2000/svg">
  <g transform="matrix(1.0, 0.0, 0.0, 1.0, 39.35, 39.75)">
    <path d="M-23.1 -14.5 Q-29.1 -14.5 -33.6 -16.5 -37.85 -18.25 -37.85 -20.75 -37.85 -23.25 -33.6 -25.25 -29.1 -27.0 -23.1 -27.0 -17.1 -27.0 -12.85 -25.25 -8.35 -23.25 -8.35 -20.75 -8.35 -18.25 -12.85 -16.5 -17.1 -14.5 -23.1 -14.5" fill="url(#gradient0)" fill-rule="evenodd" stroke="none"/>
    <path d="M-23.1 -19.0 Q-27.6 -19.0 -31.1 -20.5 -34.35 -21.75 -34.35 -23.75 -34.35 -25.75 -31.1 -27.25 -27.6 -28.75 -23.1 -28.75 -18.35 -28.75 -15.1 -27.25 -11.6 -25.75 -11.6 -23.75 -11.6 -21.75 -15.1 -20.5 -18.35 -19.0 -23.1 -19.0" fill="#606060" fill-rule="evenodd" stroke="none"/>
    <path d="M-23.1 -21.25 Q-27.1 -21.25 -30.35 -22.75 -33.1 -23.75 -33.1 -25.5 -33.1 -27.5 -30.35 -28.75 -27.1 -30.0 -23.1 -30.0 -18.85 -30.0 -15.85 -28.75 -12.85 -27.5 -12.85 -25.5 -12.85 -23.75 -15.85 -22.75 -18.85 -21.25 -23.1 -21.25" fill="#484848" fill-rule="evenodd" stroke="none"/>
    <path d="M-15.6 -28.0 Q-15.6 -26.75 -17.85 -26.0 -19.85 -25.0 -23.1 -25.0 -25.85 -25.0 -28.1 -26.0 -30.35 -26.75 -30.35 -28.0 -30.35 -29.5 -28.1 -30.25 -25.85 -31.25 -23.1 -31.25 -19.85 -31.25 -17.85 -30.25 -15.6 -29.5 -15.6 -28.0" fill="#606060" fill-rule="evenodd" stroke="none"/>
    <path d="M-16.25 -31.6 L-14.8 -29.05 -12.75 -26.65 Q-11.75 -25.5 -11.45 -24.7 -10.25 -24.55 -9.2 -23.5 -8.15 -22.4 -8.15 -21.4 L-8.3 -20.25 Q-8.5 -19.4 -8.75 -19.2 -9.3 -22.15 -10.6 -22.55 -11.2 -22.75 -11.45 -23.15 L-11.5 -23.1 -11.65 -22.7 -11.6 -22.55 -11.8 -22.2 Q-12.1 -21.95 -12.5 -21.9 L-12.7 -22.8 -12.95 -23.0 -13.7 -23.85 -14.1 -23.45 -14.55 -23.45 -14.6 -23.6 -14.35 -24.35 Q-14.35 -25.1 -14.7 -25.5 L-15.45 -26.1 -16.6 -26.2 -16.7 -26.35 -16.85 -26.25 Q-17.7 -25.55 -18.45 -25.55 -18.7 -25.55 -18.8 -25.65 L-18.15 -26.75 Q-17.9 -27.2 -17.9 -27.65 L-18.1 -28.5 -18.15 -28.7 -19.55 -28.9 -20.1 -29.1 -23.35 -29.15 -23.45 -29.2 -26.45 -29.2 Q-26.5 -28.7 -27.2 -27.9 L-27.85 -27.2 -27.8 -26.65 -27.1 -25.8 Q-27.1 -25.6 -27.35 -25.55 -28.05 -25.65 -29.2 -26.45 -30.5 -26.2 -31.15 -25.75 L-32.35 -24.85 -32.4 -24.8 -32.45 -24.95 -32.4 -25.15 -32.55 -25.1 -32.45 -24.6 -32.55 -24.5 Q-33.15 -24.55 -33.15 -25.55 -33.15 -26.8 -32.75 -27.25 -32.05 -28.05 -31.5 -29.8 L-30.75 -30.7 Q-30.05 -31.2 -29.9 -31.65 -29.2 -33.1 -28.6 -33.45 L-19.95 -33.35 Q-17.45 -32.95 -16.25 -31.6 M-28.05 -26.8 L-28.05 -27.0 -28.1 -26.9 -28.05 -26.8 M-13.95 -24.2 L-14.0 -24.35 -14.05 -24.05 -13.95 -24.2" fill="#000000" fill-opacity="0.4" fill-rule="evenodd" stroke="none"/>
    <path d="M-12.1 -32.7 L-13.1 -34.25 -34.85 -33.75 -33.6 -39.75 -12.4 -39.75 -12.1 -32.7" fill="#b7b7b7" fill-rule="evenodd" stroke="none"/>
    <path d="M-12.4 -39.75 L-12.35 -39.75 0.15 -21.75 1.4 -13.25 0.4 11.0 -0.85 -14.5 -12.1 -32.7 -12.4 -39.75" fill="#a4a4a4" fill-rule="evenodd" stroke="none"/>
    <path d="M-27.85 -31.25 L-29.35 -28.25 -35.1 -28.25 -34.85 -34.5 -11.85 -34.25 1.4 -13.25 0.9 10.25 -1.1 18.5 -2.35 19.5 -1.6 11.0 -2.1 -12.5 -9.35 -26.0 -14.1 -26.0 -18.1 -30.75 -27.85 -31.25" fill="url(#gradient1)" fill-rule="evenodd" stroke="none"/>
    <path d="M-12.4 -31.95 L-12.5 -32.25 -12.3 -32.2 -12.4 -31.95 M-15.4 -32.8 L-14.9 -32.8 -15.2 -32.6 -14.65 -32.45 -15.4 -32.45 -15.4 -32.8 M-12.25 -27.65 L-12.8 -27.65 -12.85 -27.85 -12.8 -28.05 -12.15 -27.75 -12.25 -27.65 M-31.9 -30.15 L-31.2 -30.6 -31.1 -30.35 -31.8 -29.95 -31.9 -30.15 M-29.6 -35.4 L-27.9 -36.65 Q-26.75 -37.4 -26.45 -37.35 L-29.55 -35.35 -29.6 -35.4 M-29.25 -36.65 L-28.3 -37.05 Q-28.4 -36.95 -28.8 -36.75 L-29.25 -36.65 M-26.85 -26.7 L-26.8 -26.5 -26.9 -26.3 -27.05 -26.7 -26.85 -26.7 M-28.0 -24.0 L-27.95 -23.75 -28.2 -23.6 -28.5 -23.9 -28.35 -24.25 -28.0 -24.0 M-27.0 -18.2 L-26.95 -17.95 -27.35 -16.65 -27.35 -16.6 -27.4 -16.75 -27.2 -17.5 -27.05 -18.2 -27.0 -18.2 M-35.05 -23.6 L-35.0 -23.25 -35.2 -21.55 -35.45 -19.7 -35.55 -19.7 -35.55 -20.45 Q-35.1 -22.15 -35.15 -23.6 L-35.05 -23.6 M-34.5 -22.7 Q-34.55 -21.75 -34.9 -20.15 L-35.0 -20.35 -34.6 -22.7 -34.5 -22.7 M-36.75 -16.55 L-36.9 -16.8 -36.6 -16.7 -36.75 -16.55 M-39.0 -17.45 L-38.85 -17.4 -38.8 -17.2 Q-38.8 -16.95 -39.1 -16.8 L-39.25 -16.8 -39.3 -17.1 -39.3 -17.4 -39.0 -17.45 M-36.55 -14.95 Q-36.55 -14.6 -37.35 -14.6 L-37.4 -14.6 -37.45 -14.75 Q-37.35 -15.35 -36.7 -15.25 L-36.55 -14.95 M-33.4 -17.75 L-33.45 -17.7 -33.75 -18.25 -33.65 -18.25 -33.4 -17.75 M-38.8 -11.15 L-39.15 -11.3 -39.15 -11.65 -38.55 -11.5 -38.8 -11.15 M-9.05 -15.6 Q-9.35 -14.6 -10.25 -12.95 L-11.75 -10.25 -11.85 -10.2 -10.45 -12.8 Q-9.55 -14.45 -9.15 -15.6 L-9.05 -15.6 M-12.65 -11.55 L-11.7 -12.9 Q-13.65 -9.35 -16.3 -6.65 L-16.3 -6.6 -16.35 -6.75 -15.25 -8.05 -13.65 -9.9 -12.65 -11.55 M-10.15 -11.2 Q-10.95 -9.8 -12.1 -8.55 L-11.2 -10.0 -10.15 -11.2 M-4.9 -4.5 L-4.95 -3.8 -5.0 -3.75 -5.1 -3.8 -5.1 -5.2 -4.95 -5.2 -4.9 -4.5 M-9.05 11.1 L-10.0 13.45 -10.1 13.45 -9.65 12.15 -9.05 11.1 M-9.8 10.35 L-9.9 10.4 Q-9.1 7.1 -7.95 4.95 L-9.8 10.35 M-10.65 18.55 L-10.85 18.6 -11.05 18.55 -11.05 18.4 -10.7 18.45 -10.65 18.55 M-12.25 17.85 L-12.65 17.8 -12.65 17.25 Q-12.35 17.0 -12.1 17.05 -11.8 17.1 -11.8 17.45 -11.8 17.85 -12.25 17.85 M-9.2 17.65 L-9.45 17.7 -9.5 17.45 -9.45 17.1 -9.3 17.1 -9.2 17.65 M-9.75 16.85 L-10.05 17.0 -10.2 16.65 -9.8 16.65 -9.75 16.85 M-7.05 16.85 L-7.45 17.0 -7.6 16.8 Q-7.45 16.55 -7.2 16.55 L-7.05 16.85 M-38.6 11.5 L-38.4 11.55 -38.65 11.85 -38.7 11.55 -38.6 11.5 M-32.8 14.05 L-32.95 13.8 Q-32.75 13.8 -32.65 13.9 L-32.8 14.05 M-32.55 17.9 L-32.4 17.9 -32.35 18.15 -32.5 18.3 -32.55 17.9 M-38.75 14.95 L-38.6 15.25 -38.85 15.45 -39.2 15.3 Q-39.2 15.05 -39.0 14.95 L-38.75 14.95 M-31.45 20.25 L-31.4 20.45 -31.45 20.7 -31.55 20.75 -31.7 20.35 -31.55 20.25 -31.45 20.25 M-31.0 21.45 Q-30.65 21.3 -30.0 22.05 L-30.75 22.6 -31.75 22.25 -31.0 21.45 M-26.35 13.3 Q-26.15 13.35 -26.15 13.75 L-26.35 13.9 -26.75 13.65 -26.35 13.3 M-28.65 15.35 L-28.85 15.55 -28.95 15.35 Q-28.95 15.05 -28.65 15.35 M-26.15 20.1 Q-25.85 20.2 -25.85 20.8 L-25.9 21.15 -26.15 21.25 -26.45 20.6 -26.15 20.1 M-29.4 31.25 L-29.35 31.4 -29.55 31.7 -29.65 31.7 -29.4 31.25 M-20.85 35.05 L-21.15 35.9 -21.65 36.7 -21.7 36.7 Q-21.25 35.15 -20.85 35.05 M-38.85 25.9 L-38.8 26.15 -38.85 26.45 -38.9 26.55 -39.25 26.55 -39.35 26.2 -39.3 25.9 -38.85 25.9 M-37.3 30.25 L-35.1 36.0 -35.25 36.05 -36.45 33.15 -37.4 30.25 -37.3 30.25 M-36.05 30.8 L-34.45 35.35 Q-35.85 32.45 -36.15 30.8 L-36.05 30.8 M-37.55 33.3 L-37.15 34.15 -36.85 33.9 -37.1 34.35 -36.9 34.9 -36.95 34.95 -37.2 34.5 -37.55 34.85 -37.65 34.75 -37.3 34.35 -37.65 33.4 -37.65 33.3 -37.55 33.35 -37.55 33.3 M-33.3 38.4 L-33.35 38.2 -32.9 37.7 -33.3 38.4 M-8.85 26.55 L-8.75 26.55 -8.75 27.8 -8.85 27.7 -8.85 26.55 M-8.6 26.55 L-8.5 26.55 -8.35 27.9 -8.55 27.9 -8.6 27.7 -8.6 26.55 M-7.2 29.65 L-7.25 29.9 -7.4 29.95 -7.6 29.65 -7.5 29.45 -7.4 29.35 -7.2 29.65 M-8.7 31.9 L-8.85 32.05 -9.0 31.8 -8.7 31.9 M-9.0 33.2 L-8.8 34.1 -8.8 34.55 -8.9 34.6 Q-8.9 34.15 -9.05 33.95 L-9.05 33.2 -9.0 33.2 M-10.05 32.3 L-10.2 32.35 -10.35 32.3 -10.05 32.2 -10.05 32.3 M-13.55 27.45 L-14.3 29.55 -14.4 29.6 -14.0 28.45 -13.55 27.45 M-14.4 28.5 L-14.6 29.2 -14.75 29.25 -14.55 28.5 -14.4 28.5 M-10.25 31.7 L-10.2 31.9 -10.25 32.05 -10.4 32.05 -10.6 31.65 -10.4 31.65 -10.25 31.7 M-10.4 32.5 L-10.35 32.75 -10.55 33.0 -10.95 32.65 -10.7 32.55 -10.7 32.4 -10.55 32.45 -10.55 32.4 Q-10.45 32.4 -10.4 32.5 M-11.5 31.5 L-11.3 31.9 -11.5 32.0 -11.75 31.8 -11.5 31.5 M-10.6 35.7 L-10.7 36.05 -10.8 36.1 -11.1 35.65 -11.0 35.45 -10.8 35.4 -10.6 35.7" fill="#000000" fill-opacity="0.2" fill-rule="evenodd" stroke="none"/>
  </g>
  <defs>
    <linearGradient gradientTransform="matrix(0.0117, -0.007, 0.0039, 0.0065, -23.1, -20.75)" gradientUnits="userSpaceOnUse" id="gradient0" spreadMethod="pad" x1="-819.2" x2="819.2">
      <stop offset="0.0" stop-color="#8c8c8c"/>
      <stop offset="1.0" stop-color="#c3c3c3"/>
    </linearGradient>
    <linearGradient gradientTransform="matrix(-0.0041, -0.0298, 0.0326, -0.0045, -16.85, -7.5)" gradientUnits="userSpaceOnUse" id="gradient1" spreadMethod="pad" x1="-819.2" x2="819.2">
      <stop offset="0.0" stop-color="#666666"/>
      <stop offset="1.0" stop-color="#8d8d8d"/>
    </linearGradient>
  </defs>
</svg>
