<?xml version="1.0" encoding="UTF-8" standalone="no"?>
<svg xmlns:xlink="http://www.w3.org/1999/xlink" height="584.45px" width="807.55px" xmlns="http://www.w3.org/2000/svg">
  <g transform="matrix(1.0, 0.0, 0.0, 1.0, -3.65, -11.45)">
    <path d="M811.2 595.9 L5.35 595.9 5.35 11.45 811.2 11.45 811.2 595.9" fill="url(#gradient0)" fill-rule="evenodd" stroke="none"/>
    <path d="M807.95 545.15 L7.25 545.15 7.25 127.15 807.95 127.15 807.95 545.15" fill="url(#gradient1)" fill-rule="evenodd" stroke="none"/>
    <path d="M810.3 145.85 L3.65 145.85 3.65 142.2 810.3 142.2 810.3 145.85 M810.3 138.05 L3.65 138.05 3.65 137.85 810.3 137.85 810.3 138.05 M810.3 175.5 L3.65 175.5 3.65 171.85 810.3 171.85 810.3 175.5 M810.3 191.6 L3.65 191.6 3.65 187.95 810.3 187.95 810.3 191.6 M810.3 183.35 L3.65 183.35 3.65 179.7 810.3 179.7 810.3 183.35 M810.3 168.25 L3.65 168.25 3.65 164.6 810.3 164.6 810.3 168.25 M810.3 161.0 L3.65 161.0 3.65 157.35 810.3 157.35 810.3 161.0 M810.3 153.1 L3.65 153.1 3.65 149.45 810.3 149.45 810.3 153.1 M810.3 244.65 L3.65 244.65 3.65 241.0 810.3 241.0 810.3 244.65 M810.3 229.15 L3.65 229.15 3.65 225.5 810.3 225.5 810.3 229.15 M810.3 237.4 L3.65 237.4 3.65 233.75 810.3 233.75 810.3 237.4 M810.3 213.95 L3.65 213.95 3.65 210.3 810.3 210.3 810.3 213.95 M810.3 221.2 L3.65 221.2 3.65 217.55 810.3 217.55 810.3 221.2 M810.3 206.75 L3.65 206.75 3.65 203.1 810.3 203.1 810.3 206.75 M810.3 259.75 L3.65 259.75 3.65 256.1 810.3 256.1 810.3 259.75 M810.3 252.5 L3.65 252.5 3.65 248.85 810.3 248.85 810.3 252.5 M810.3 274.9 L3.65 274.9 3.65 271.25 810.3 271.25 810.3 274.9 M810.3 290.35 L3.65 290.35 3.65 286.7 810.3 286.7 810.3 290.35 M810.3 283.1 L3.65 283.1 3.65 279.45 810.3 279.45 810.3 283.1 M810.3 267.05 L3.65 267.05 3.65 263.4 810.3 263.4 810.3 267.05 M810.3 336.2 L3.65 336.2 3.65 332.55 810.3 332.55 810.3 336.2 M810.3 305.5 L3.65 305.5 3.65 301.85 810.3 301.85 810.3 305.5 M810.3 312.75 L3.65 312.75 3.65 309.1 810.3 309.1 810.3 312.75 M810.3 320.65 L3.65 320.65 3.65 317.0 810.3 317.0 810.3 320.65 M810.3 328.95 L3.65 328.95 3.65 325.3 810.3 325.3 810.3 328.95 M810.3 344.05 L3.65 344.05 3.65 340.4 810.3 340.4 810.3 344.05 M810.3 388.45 L3.65 388.45 3.65 384.8 810.3 384.8 810.3 388.45 M810.3 395.7 L3.65 395.7 3.65 392.1 810.3 392.1 810.3 395.7 M810.3 381.25 L3.65 381.25 3.65 377.6 810.3 377.6 810.3 381.25 M810.3 351.3 L3.65 351.3 3.65 347.65 810.3 347.65 810.3 351.3 M810.3 366.05 L3.65 366.05 3.65 362.4 810.3 362.4 810.3 366.05 M810.3 358.55 L3.65 358.55 3.65 354.9 810.3 354.9 810.3 358.55 M810.3 373.35 L3.65 373.35 3.65 369.7 810.3 369.7 810.3 373.35 M810.3 298.3 L3.65 298.3 3.65 294.65 810.3 294.65 810.3 298.3 M810.3 198.85 L3.65 198.85 3.65 195.2 810.3 195.2 810.3 198.85 M810.3 427.0 L3.65 427.0 3.65 423.35 810.3 423.35 810.3 427.0 M810.3 434.2 L3.65 434.2 3.65 430.55 810.3 430.55 810.3 434.2 M810.3 403.6 L3.65 403.6 3.65 399.95 810.3 399.95 810.3 403.6 M810.3 411.85 L3.65 411.85 3.65 408.2 810.3 408.2 810.3 411.85 M810.3 419.1 L3.65 419.1 3.65 415.45 810.3 415.45 810.3 419.1 M810.3 441.45 L3.65 441.45 3.65 437.8 810.3 437.8 810.3 441.45 M810.3 472.75 L3.65 472.75 3.65 469.1 810.3 469.1 810.3 472.75 M810.3 487.25 L3.65 487.25 3.65 483.6 810.3 483.6 810.3 487.25 M810.3 480.0 L3.65 480.0 3.65 476.35 810.3 476.35 810.3 480.0 M810.3 464.85 L3.65 464.85 3.65 461.25 810.3 461.25 810.3 464.85 M810.3 449.4 L3.65 449.4 3.65 445.75 810.3 445.75 810.3 449.4 M810.3 457.6 L3.65 457.6 3.65 453.95 810.3 453.95 810.3 457.6 M810.3 503.35 L3.65 503.35 3.65 499.7 810.3 499.7 810.3 503.35 M810.3 525.75 L3.65 525.75 3.65 522.1 810.3 522.1 810.3 525.75 M810.3 533.0 L3.65 533.0 3.65 529.35 810.3 529.35 810.3 533.0 M810.3 540.9 L3.65 540.9 3.65 537.25 810.3 537.25 810.3 540.9 M810.3 510.6 L3.65 510.6 3.65 506.95 810.3 506.95 810.3 510.6 M810.3 518.55 L3.65 518.55 3.65 514.9 810.3 514.9 810.3 518.55 M810.3 556.4 L3.65 556.4 3.65 552.75 810.3 552.75 810.3 556.4 M810.3 549.15 L3.65 549.15 3.65 545.5 810.3 545.5 810.3 549.15 M810.3 564.3 L3.65 564.3 3.65 560.65 810.3 560.65 810.3 564.3 M810.3 571.5 L3.65 571.5 3.65 567.85 810.3 567.85 810.3 571.5 M810.3 578.8 L3.65 578.8 3.65 575.15 810.3 575.15 810.3 578.8 M810.3 495.15 L3.65 495.15 3.65 491.5 810.3 491.5 810.3 495.15" fill="url(#gradient2)" fill-rule="evenodd" stroke="none"/>
    <path d="M776.95 313.5 Q776.95 365.55 683.8 402.35 590.7 439.1 458.95 439.1 327.25 439.1 234.05 402.35 140.95 365.55 140.95 313.5 140.95 261.4 234.05 224.65 327.25 187.85 458.95 187.85 590.7 187.85 683.8 224.65 776.95 261.4 776.95 313.5" fill="url(#gradient3)" fill-rule="evenodd" stroke="none"/>
  </g>
  <defs>
    <linearGradient gradientTransform="matrix(-0.0046, -0.2627, 0.1779, -2.0E-4, 424.95, 328.15)" gradientUnits="userSpaceOnUse" id="gradient0" spreadMethod="pad" x1="-819.2" x2="819.2">
      <stop offset="0.0" stop-color="#000000"/>
      <stop offset="1.0" stop-color="#000000" stop-opacity="0.0"/>
    </linearGradient>
    <radialGradient cx="0" cy="0" gradientTransform="matrix(0.2262, 0.0, 0.0, 0.237, 485.2, 325.0)" gradientUnits="userSpaceOnUse" id="gradient1" r="819.2" spreadMethod="pad">
      <stop offset="0.0" stop-color="#770000" stop-opacity="0.5019608"/>
      <stop offset="1.0" stop-color="#550000" stop-opacity="0.0"/>
    </radialGradient>
    <radialGradient cx="0" cy="0" gradientTransform="matrix(0.3155, 0.0, 0.0, 0.1969, 514.4, 328.95)" gradientUnits="userSpaceOnUse" id="gradient2" r="819.2" spreadMethod="pad">
      <stop offset="0.0" stop-color="#770000" stop-opacity="0.09019608"/>
      <stop offset="1.0" stop-color="#550000" stop-opacity="0.07058824"/>
    </radialGradient>
    <radialGradient cx="0" cy="0" gradientTransform="matrix(0.002, -0.1524, 0.3512, 0.0047, 458.95, 313.5)" gradientUnits="userSpaceOnUse" id="gradient3" r="819.2" spreadMethod="pad">
      <stop offset="0.0" stop-color="#c21414" stop-opacity="0.34901962"/>
      <stop offset="1.0" stop-color="#c21414" stop-opacity="0.011764706"/>
    </radialGradient>
  </defs>
</svg>
