<?xml version="1.0" encoding="UTF-8" standalone="no"?>
<svg xmlns:xlink="http://www.w3.org/1999/xlink" height="32.0px" width="492.35px" xmlns="http://www.w3.org/2000/svg">
  <g transform="matrix(1.0, 0.0, 0.0, 1.0, 30.45, -1.6)">
    <path d="M-29.95 33.1 L430.95 33.1 461.4 2.1" fill="none" stroke="url(#gradient0)" stroke-linecap="butt" stroke-linejoin="miter" stroke-width="1.0"/>
    <path d="M461.0 1.6 L430.8 32.6 -29.8 32.6 -29.8 1.6 461.0 1.6" fill="url(#gradient1)" fill-rule="evenodd" stroke="none"/>
    <path d="M33.05 17.55 L28.2 22.2 29.35 28.8 23.4 25.65 Q20.45 27.25 17.45 28.8 L18.6 22.2 13.75 17.55 20.4 16.6 23.4 10.55 26.35 16.6 33.05 17.55" fill="#000000" fill-opacity="0.2" fill-rule="evenodd" stroke="none"/>
    <path d="M45.2 25.65 L39.25 28.8 40.4 22.2 35.55 17.55 42.2 16.6 45.2 10.55 48.15 16.6 54.85 17.55 50.0 22.2 51.15 28.8 45.2 25.65" fill="#000000" fill-opacity="0.2" fill-rule="evenodd" stroke="none"/>
    <path d="M76.7 17.55 L71.85 22.2 73.0 28.8 67.05 25.65 61.1 28.8 62.25 22.2 57.4 17.55 64.05 16.6 67.05 10.55 70.0 16.6 76.7 17.55" fill="#000000" fill-opacity="0.2" fill-rule="evenodd" stroke="none"/>
    <path d="M98.7 17.55 L93.85 22.2 95.0 28.8 89.05 25.65 83.1 28.8 84.25 22.2 79.4 17.55 86.05 16.6 89.05 10.55 92.0 16.6 98.7 17.55" fill="#000000" fill-opacity="0.2" fill-rule="evenodd" stroke="none"/>
  </g>
  <defs>
    <linearGradient gradientTransform="matrix(0.0, -0.009, -0.0195, 0.0, 191.35, 30.45)" gradientUnits="userSpaceOnUse" id="gradient0" spreadMethod="pad" x1="-819.2" x2="819.2">
      <stop offset="0.0" stop-color="#ff453f"/>
      <stop offset="0.21176470588235294" stop-color="#ff3e38" stop-opacity="0.89411765"/>
      <stop offset="0.5254901960784314" stop-color="#ff2a26" stop-opacity="0.60784316"/>
      <stop offset="0.9019607843137255" stop-color="#ff0a09" stop-opacity="0.14117648"/>
      <stop offset="1.0" stop-color="#ff0000" stop-opacity="0.0"/>
    </linearGradient>
    <linearGradient gradientTransform="matrix(0.4736, 0.0, 0.0, 1.0, 26.0, -6.0)" gradientUnits="userSpaceOnUse" id="gradient1" spreadMethod="pad" x1="-819.2" x2="819.2">
      <stop offset="0.0" stop-color="#ff0000"/>
      <stop offset="1.0" stop-color="#ff0000" stop-opacity="0.0"/>
    </linearGradient>
  </defs>
</svg>
