<?xml version="1.0" encoding="UTF-8" standalone="no"?>
<svg xmlns:xlink="http://www.w3.org/1999/xlink" height="9.3px" width="32.25px" xmlns="http://www.w3.org/2000/svg">
  <g transform="matrix(1.0, 0.0, 0.0, 1.0, 124.5, -18.95)">
    <path d="M-124.5 23.8 L-124.25 21.8 -123.5 20.5 Q-122.95 19.95 -122.35 19.75 L-120.8 19.55 -119.8 19.6 -118.35 19.9 -118.35 20.95 -120.55 20.85 -121.8 21.0 -122.55 21.5 -122.95 22.45 -123.05 23.8 -122.95 25.25 -122.55 26.2 -121.8 26.8 -120.7 26.95 -120.15 26.95 -119.45 26.85 -119.45 24.7 -120.95 24.7 -120.95 23.4 -118.05 23.4 -118.05 27.7 -118.8 27.95 -119.6 28.15 -120.65 28.25 -122.3 28.05 -123.5 27.35 -124.25 25.95 -124.5 23.8" fill="#f7f7f7" fill-rule="evenodd" stroke="none"/>
    <path d="M-114.85 23.6 L-114.85 28.1 -116.25 28.1 -116.25 21.9 -115.05 21.9 -115.0 22.55 -113.95 22.1 -112.6 21.85 -112.65 23.3 -113.95 23.35 -114.85 23.6" fill="#f7f7f7" fill-rule="evenodd" stroke="none"/>
    <path d="M-108.85 21.75 L-107.6 21.9 -107.15 22.1 -106.6 22.7 -106.4 23.65 -106.4 28.1 -107.55 28.1 -107.7 27.6 -108.25 27.95 -108.9 28.15 -109.7 28.25 -110.6 28.15 -111.2 27.8 -111.55 27.2 -111.65 26.3 -111.5 25.45 -111.05 24.85 -110.45 24.5 -109.65 24.4 -108.9 24.45 -107.8 24.7 -107.8 23.8 -107.85 23.55 -107.95 23.35 -108.1 23.2 -108.6 23.0 -109.45 22.95 -110.7 23.0 -111.2 23.1 -111.2 22.1 -109.9 21.8 -108.85 21.75 M-110.15 25.9 L-110.2 26.3 -110.15 26.75 -109.95 26.95 -109.65 27.05 -109.25 27.1 -108.7 27.05 -107.8 26.75 -107.8 25.65 -108.6 25.55 -109.6 25.55 -109.95 25.65 -110.15 25.9" fill="#f7f7f7" fill-rule="evenodd" stroke="none"/>
    <path d="M-103.1 23.4 L-103.25 24.1 -103.25 26.0 -103.1 26.6 -102.75 26.9 -102.15 27.0 -101.05 26.85 -100.6 26.7 -100.6 23.2 -101.1 23.05 -102.25 22.95 -102.75 23.05 -103.1 23.4 M-102.65 21.7 L-101.8 21.8 -101.15 21.95 -100.6 22.15 -100.6 18.95 -99.2 18.95 -99.2 28.1 -100.4 28.1 -100.5 27.6 -101.75 28.15 -102.65 28.25 -103.55 28.1 -104.2 27.55 -104.6 26.55 -104.75 25.0 -104.65 23.5 -104.2 22.45 -103.55 21.9 -102.65 21.7" fill="#f7f7f7" fill-rule="evenodd" stroke="none"/>
    <path d="M-94.8 22.9 L-95.5 23.0 Q-95.8 23.1 -95.95 23.3 L-96.15 23.8 -96.2 24.5 -93.5 24.5 -93.55 23.65 -93.75 23.2 -94.1 22.95 -94.8 22.9 M-92.75 22.45 Q-92.4 22.9 -92.35 23.3 L-92.25 24.35 -92.3 25.55 -96.2 25.55 -96.1 26.25 -95.8 26.7 -95.3 26.95 -94.5 27.05 -93.7 27.0 -92.5 26.9 -92.5 27.85 -93.85 28.2 -94.7 28.25 -95.95 28.1 -96.85 27.5 -97.5 26.5 -97.7 24.9 -97.4 23.35 Q-97.2 22.7 -96.7 22.35 L-95.75 21.85 -94.65 21.7 -93.45 21.9 Q-92.9 22.15 -92.75 22.45" fill="#f7f7f7" fill-rule="evenodd" stroke="none"/>
  </g>
</svg>
