<?xml version="1.0" encoding="UTF-8" standalone="no"?>
<svg xmlns:xlink="http://www.w3.org/1999/xlink" height="27.7px" width="159.4px" xmlns="http://www.w3.org/2000/svg">
  <g transform="matrix(1.0, 0.0, 0.0, 1.0, -10.75, 0.35)">
    <path d="M143.5 27.35 L100.7 27.35 130.05 0.15 170.15 -0.35 143.5 27.35" fill="url(#gradient0)" fill-rule="evenodd" stroke="none"/>
    <path d="M11.25 5.55 L26.15 5.55 26.15 19.4 11.25 19.4 11.25 5.55" fill="url(#gradient1)" fill-rule="evenodd" stroke="none"/>
    <path d="M11.25 5.55 L26.15 5.55 26.15 19.4 11.25 19.4 11.25 5.55 Z" fill="none" stroke="url(#gradient2)" stroke-linecap="butt" stroke-linejoin="miter" stroke-width="1.0"/>
    <path d="M16.9 14.05 L19.9 14.05 19.9 17.05 16.9 17.05 16.9 14.05" fill="#ffffff" fill-rule="evenodd" stroke="none"/>
    <path d="M16.9 11.05 L19.9 11.05 19.9 14.05 16.9 14.05 16.9 11.05" fill="#ffffff" fill-rule="evenodd" stroke="none"/>
    <path d="M16.9 8.05 L19.9 8.05 19.9 11.05 16.9 11.05 16.9 8.05" fill="#ffffff" fill-rule="evenodd" stroke="none"/>
    <path d="M13.9 11.05 L16.9 11.0 16.9 14.05 13.9 14.05 13.9 11.05" fill="#ffffff" fill-rule="evenodd" stroke="none"/>
    <path d="M19.9 11.05 L22.95 11.05 22.95 14.05 19.9 14.05 19.9 11.05" fill="#ffffff" fill-rule="evenodd" stroke="none"/>
  </g>
  <defs>
    <linearGradient gradientTransform="matrix(-0.0096, -0.0107, 0.0107, -0.0095, 139.75, 11.15)" gradientUnits="userSpaceOnUse" id="gradient0" spreadMethod="pad" x1="-819.2" x2="819.2">
      <stop offset="0.0" stop-color="#000000"/>
      <stop offset="1.0" stop-color="#000000" stop-opacity="0.0"/>
    </linearGradient>
    <radialGradient cx="0" cy="0" gradientTransform="matrix(0.0125, 0.0, 0.0, 0.0122, 18.7, 12.5)" gradientUnits="userSpaceOnUse" id="gradient1" r="819.2" spreadMethod="pad">
      <stop offset="0.0" stop-color="#ff1d25"/>
      <stop offset="1.0" stop-color="#830000"/>
    </radialGradient>
    <linearGradient gradientTransform="matrix(0.0, 0.0097, -0.0091, 0.0, 18.75, 12.5)" gradientUnits="userSpaceOnUse" id="gradient2" spreadMethod="pad" x1="-819.2" x2="819.2">
      <stop offset="0.0" stop-color="#cccccc"/>
      <stop offset="1.0" stop-color="#333333"/>
    </linearGradient>
  </defs>
</svg>
