<?xml version="1.0" encoding="UTF-8" standalone="no"?>
<svg xmlns:xlink="http://www.w3.org/1999/xlink" height="15.05px" width="29.4px" xmlns="http://www.w3.org/2000/svg">
  <g transform="matrix(1.0, 0.0, 0.0, 1.0, 19.9, -5.0)">
    <path d="M9.0 19.55 L-18.8 19.55 -5.85 5.55 9.0 5.5 9.0 19.55" fill="url(#gradient0)" fill-rule="evenodd" stroke="none"/>
    <path d="M9.0 19.55 L-18.8 19.55 -5.85 5.55 9.0 5.5 9.0 19.55 Z" fill="none" stroke="url(#gradient1)" stroke-linecap="butt" stroke-linejoin="miter" stroke-width="1.0"/>
    <path d="M-5.9 13.7 L-3.7 13.7 -3.7 15.9 -5.9 15.9 -5.9 13.7" fill="#ffffff" fill-rule="evenodd" stroke="none"/>
    <path d="M-5.9 11.5 L-3.7 11.5 -3.7 13.7 -5.9 13.7 -5.9 11.5" fill="#ffffff" fill-rule="evenodd" stroke="none"/>
    <path d="M-5.9 9.3 L-3.7 9.3 -3.7 11.5 -5.9 11.5 -5.9 9.3" fill="#ffffff" fill-rule="evenodd" stroke="none"/>
    <path d="M-8.1 11.5 L-5.9 11.45 -5.9 13.7 -8.1 13.7 -8.1 11.5" fill="#ffffff" fill-rule="evenodd" stroke="none"/>
    <path d="M-3.7 11.5 L-1.45 11.5 -1.45 13.7 -3.7 13.7 -3.7 11.5" fill="#ffffff" fill-rule="evenodd" stroke="none"/>
    <path d="M1.75 13.7 L3.95 13.7 3.95 15.9 1.75 15.9 1.75 13.7" fill="#ffffff" fill-rule="evenodd" stroke="none"/>
    <path d="M1.75 11.5 L3.95 11.5 3.95 13.7 1.75 13.7 1.75 11.5" fill="#ffffff" fill-rule="evenodd" stroke="none"/>
    <path d="M1.75 9.3 L3.95 9.3 3.95 11.5 1.75 11.5 1.75 9.3" fill="#ffffff" fill-rule="evenodd" stroke="none"/>
    <path d="M-0.45 11.5 L1.75 11.45 1.75 13.7 -0.45 13.7 -0.45 11.5" fill="#ffffff" fill-rule="evenodd" stroke="none"/>
    <path d="M3.95 11.5 L6.2 11.5 6.2 13.7 3.95 13.7 3.95 11.5" fill="#ffffff" fill-rule="evenodd" stroke="none"/>
  </g>
  <defs>
    <radialGradient cx="0" cy="0" gradientTransform="matrix(-0.0136, 0.0, 0.0, 0.0143, -0.8, 12.9)" gradientUnits="userSpaceOnUse" id="gradient0" r="819.2" spreadMethod="pad">
      <stop offset="0.0" stop-color="#1da2ff"/>
      <stop offset="1.0" stop-color="#004783"/>
    </radialGradient>
    <linearGradient gradientTransform="matrix(0.0, 0.0092, 0.0092, 0.0, -5.25, 12.5)" gradientUnits="userSpaceOnUse" id="gradient1" spreadMethod="pad" x1="-819.2" x2="819.2">
      <stop offset="0.0" stop-color="#cccccc"/>
      <stop offset="1.0" stop-color="#333333"/>
    </linearGradient>
  </defs>
</svg>
