<?xml version="1.0" encoding="UTF-8" standalone="no"?>
<svg xmlns:xlink="http://www.w3.org/1999/xlink" height="200.85px" width="297.8px" xmlns="http://www.w3.org/2000/svg">
  <g transform="matrix(1.0, 0.0, 0.0, 1.0, 148.9, 98.4)">
    <path d="M75.95 55.35 L91.4 28.55 -91.6 28.55 -76.15 55.35 75.95 55.35 M106.7 -16.25 L98.75 -29.95 -99.0 -29.95 -106.9 -16.25 106.7 -16.25 M98.5 16.2 L106.7 2.05 -106.9 2.05 -98.75 16.2 98.5 16.2 M-81.8 -79.35 L81.6 -79.35 123.3 -7.1 81.6 65.15 -81.8 65.15 -123.55 -7.1 -81.8 -79.35 M75.95 -69.5 L-76.15 -69.5 -91.9 -42.3 91.65 -42.3 75.95 -69.5" fill="url(#gradient0)" fill-rule="evenodd" stroke="none"/>
    <path d="M94.85 26.55 L77.1 57.35 -77.3 57.35 -95.1 26.55 94.85 26.55 M75.95 55.35 L91.4 28.55 -91.6 28.55 -76.15 55.35 75.95 55.35 M110.15 0.05 L99.65 18.2 -99.9 18.2 -110.35 0.05 110.15 0.05 M99.9 -31.95 L110.15 -14.25 -110.35 -14.25 -100.15 -31.95 99.9 -31.95 M106.7 -16.25 L98.75 -29.95 -99.0 -29.95 -106.9 -16.25 106.7 -16.25 M98.5 16.2 L106.7 2.05 -106.9 2.05 -98.75 16.2 98.5 16.2 M-77.3 -71.5 L77.1 -71.5 95.1 -40.3 -95.35 -40.3 -77.3 -71.5 M80.45 -77.35 L-80.65 -77.35 -121.2 -7.1 -80.65 63.15 80.45 63.15 121.0 -7.1 80.45 -77.35 M-81.8 -79.35 L81.6 -79.35 123.3 -7.1 81.6 65.15 -81.8 65.15 -123.55 -7.1 -81.8 -79.35 M75.95 -69.5 L-76.15 -69.5 -91.9 -42.3 91.65 -42.3 75.95 -69.5" fill="url(#gradient1)" fill-rule="evenodd" stroke="none"/>
    <path d="M-92.6 -78.6 L-137.8 7.05 -92.6 84.6 92.6 84.6 137.75 7.05 92.6 -78.6 82.0 -78.6 81.7 -79.2 -81.75 -79.2 -82.1 -78.6 -92.6 -78.6 M98.5 -98.4 L148.9 -6.95 148.9 7.05 98.5 102.45 -98.55 102.45 -148.9 7.05 -148.9 -6.95 -98.55 -98.4 98.5 -98.4" fill="#23140c" fill-rule="evenodd" stroke="none"/>
    <path d="M-98.0 102.45 L-98.5 102.45 -99.0 101.6 -99.0 84.7 -98.0 84.7 -98.0 102.45" fill="url(#gradient2)" fill-rule="evenodd" stroke="none"/>
    <path d="M98.95 101.8 L98.45 102.45 97.95 102.45 97.95 84.7 98.95 84.7 98.95 101.8" fill="url(#gradient3)" fill-rule="evenodd" stroke="none"/>
  </g>
  <defs>
    <linearGradient gradientTransform="matrix(0.0, -0.087, -0.087, 0.0, -0.1, -6.15)" gradientUnits="userSpaceOnUse" id="gradient0" spreadMethod="pad" x1="-819.2" x2="819.2">
      <stop offset="0.00392156862745098" stop-color="#543800"/>
      <stop offset="0.17647058823529413" stop-color="#e9ca00"/>
      <stop offset="0.43529411764705883" stop-color="#6a4a00"/>
      <stop offset="0.44313725490196076" stop-color="#836300"/>
      <stop offset="0.4627450980392157" stop-color="#af8f00"/>
      <stop offset="0.47843137254901963" stop-color="#ceaf00"/>
      <stop offset="0.49019607843137253" stop-color="#e2c300"/>
      <stop offset="0.5019607843137255" stop-color="#e9ca00"/>
      <stop offset="0.6274509803921569" stop-color="#feffbf"/>
      <stop offset="0.7607843137254902" stop-color="#e9ca00"/>
      <stop offset="0.984313725490196" stop-color="#6a4700"/>
    </linearGradient>
    <linearGradient gradientTransform="matrix(0.1506, 0.0, 0.0, -0.1506, -0.1, -7.1)" gradientUnits="userSpaceOnUse" id="gradient1" spreadMethod="pad" x1="-819.2" x2="819.2">
      <stop offset="0.07450980392156863" stop-color="#543800"/>
      <stop offset="0.17647058823529413" stop-color="#e9ca00"/>
      <stop offset="0.43529411764705883" stop-color="#6a4a00"/>
      <stop offset="0.4588235294117647" stop-color="#836300"/>
      <stop offset="0.5058823529411764" stop-color="#af8f00"/>
      <stop offset="0.5490196078431373" stop-color="#ceaf00"/>
      <stop offset="0.5843137254901961" stop-color="#e2c300"/>
      <stop offset="0.6078431372549019" stop-color="#e9ca00"/>
      <stop offset="0.6431372549019608" stop-color="#e9ca00"/>
      <stop offset="0.8196078431372549" stop-color="#fff87f"/>
      <stop offset="0.8784313725490196" stop-color="#e9ca00"/>
      <stop offset="0.984313725490196" stop-color="#6a4700"/>
    </linearGradient>
    <linearGradient gradientTransform="matrix(0.0, -0.0108, -0.0108, 0.0, -98.5, 93.6)" gradientUnits="userSpaceOnUse" id="gradient2" spreadMethod="pad" x1="-819.2" x2="819.2">
      <stop offset="0.0" stop-color="#1e120b" stop-opacity="0.0"/>
      <stop offset="0.01568627450980392" stop-color="#23150d" stop-opacity="0.019607844"/>
      <stop offset="0.2235294117647059" stop-color="#653e22" stop-opacity="0.3137255"/>
      <stop offset="0.4196078431372549" stop-color="#9c5f34" stop-opacity="0.5568628"/>
      <stop offset="0.6039215686274509" stop-color="#c77a42" stop-opacity="0.7490196"/>
      <stop offset="0.7647058823529411" stop-color="#e68c4c" stop-opacity="0.8862745"/>
      <stop offset="0.9019607843137255" stop-color="#f89852" stop-opacity="0.96862745"/>
      <stop offset="1.0" stop-color="#ff9c54"/>
    </linearGradient>
    <linearGradient gradientTransform="matrix(0.0, -0.0108, -0.0108, 0.0, 98.45, 93.6)" gradientUnits="userSpaceOnUse" id="gradient3" spreadMethod="pad" x1="-819.2" x2="819.2">
      <stop offset="0.0" stop-color="#1e120b" stop-opacity="0.0"/>
      <stop offset="0.01568627450980392" stop-color="#23150d" stop-opacity="0.019607844"/>
      <stop offset="0.2235294117647059" stop-color="#653e22" stop-opacity="0.3137255"/>
      <stop offset="0.4196078431372549" stop-color="#9c5f34" stop-opacity="0.5568628"/>
      <stop offset="0.6039215686274509" stop-color="#c77a42" stop-opacity="0.7490196"/>
      <stop offset="0.7647058823529411" stop-color="#e68c4c" stop-opacity="0.8862745"/>
      <stop offset="0.9019607843137255" stop-color="#f89852" stop-opacity="0.96862745"/>
      <stop offset="1.0" stop-color="#ff9c54"/>
    </linearGradient>
  </defs>
</svg>
