<?xml version="1.0" encoding="UTF-8" standalone="no"?>
<svg xmlns:xlink="http://www.w3.org/1999/xlink" height="92.65px" width="801.05px" xmlns="http://www.w3.org/2000/svg">
  <g transform="matrix(1.0, 0.0, 0.0, 1.0, 1.55, 1.85)">
    <path d="M798.0 -1.35 L798.0 90.3 -1.05 90.3 -1.05 -1.35 798.0 -1.35" fill="url(#gradient0)" fill-rule="evenodd" stroke="none"/>
    <path d="M798.0 -1.35 L798.0 90.3 -1.05 90.3 -1.05 -1.35" fill="none" stroke="#000000" stroke-linecap="round" stroke-linejoin="round" stroke-width="1.0"/>
    <path d="M-1.05 -1.35 L798.0 -1.35 Z" fill="none" stroke="#616161" stroke-linecap="round" stroke-linejoin="round" stroke-width="1.0"/>
    <path d="M788.8 17.35 L788.8 69.1 774.25 84.45 551.75 84.45 537.3 69.15 537.3 19.75 551.7 4.5 772.1 4.5 788.8 17.35 M525.0 17.35 L525.0 69.1 510.5 84.45 288.0 84.45 273.5 69.15 273.5 19.75 287.95 4.5 508.3 4.5 525.0 17.35 M262.3 17.35 L262.3 69.1 247.75 84.45 25.25 84.45 10.8 69.15 10.8 19.75 25.2 4.5 245.6 4.5 262.3 17.35" fill="#000000" fill-rule="evenodd" stroke="none"/>
    <path d="M772.8 2.5 L790.8 16.4 790.8 69.9 775.1 86.45 550.9 86.45 535.3 69.95 535.3 18.95 550.85 2.5 772.8 2.5 M786.8 18.35 L771.45 6.5 552.55 6.5 539.3 20.55 539.3 68.35 552.6 82.45 773.4 82.45 786.8 68.3 786.8 18.35" fill="url(#gradient1)" fill-rule="evenodd" stroke="none"/>
    <path d="M509.0 2.5 L527.0 16.4 527.0 69.9 511.35 86.45 287.15 86.45 271.5 69.95 271.5 18.95 287.1 2.5 509.0 2.5 M523.0 18.35 L507.65 6.5 288.8 6.5 275.5 20.55 275.5 68.35 288.85 82.45 509.65 82.45 523.0 68.3 523.0 18.35" fill="url(#gradient2)" fill-rule="evenodd" stroke="none"/>
    <path d="M246.3 2.5 L264.3 16.4 264.3 69.9 248.6 86.45 24.4 86.45 8.8 69.95 8.8 18.95 24.35 2.5 246.3 2.5 M260.3 18.35 L244.95 6.5 26.05 6.5 12.8 20.55 12.8 68.35 26.1 82.45 246.9 82.45 260.3 68.3 260.3 18.35" fill="url(#gradient3)" fill-rule="evenodd" stroke="none"/>
    <path d="M792.3 4.65 Q793.25 4.4 793.25 5.7 793.25 7.5 791.75 7.5 L791.0 7.35 791.0 5.85 Q791.35 4.95 792.3 4.65 M794.3 11.4 L794.4 11.85 794.35 12.15 794.0 12.4 793.5 12.1 Q793.5 11.45 794.0 11.25 L794.3 11.4 M795.75 6.9 L796.1 6.9 796.5 7.5 796.35 7.65 795.75 7.65 Q795.6 7.8 795.6 7.15 L795.7 6.8 795.75 6.9 M794.6 13.5 Q794.6 13.1 794.85 13.1 L795.25 13.15 795.5 13.5 794.75 13.75 Q794.6 14.15 794.6 13.5 M787.35 4.5 L788.65 2.55 Q789.4 1.35 790.25 0.9 L789.05 2.75 787.35 4.5 M786.85 2.15 L787.5 1.35 788.25 0.65 787.65 1.5 787.0 2.25 786.85 2.15 M799.5 36.95 L796.55 43.35 793.35 50.25 793.1 50.25 796.3 43.35 799.5 36.95 M796.0 48.15 L797.4 46.4 798.75 44.9 797.6 46.7 796.0 48.15 M794.1 71.25 L793.25 72.4 Q792.85 73.25 792.25 73.5 L792.1 73.5 792.9 72.15 Q793.4 71.3 794.0 71.15 L794.1 71.25 M789.35 75.85 L788.15 77.45 786.75 79.0 786.6 78.9 789.25 75.6 789.3 75.5 789.35 75.85 M784.25 76.4 L779.0 82.5 778.85 82.4 781.4 79.3 Q783.25 77.15 784.25 76.4 M793.25 81.0 Q793.05 81.35 792.25 81.5 L792.15 81.15 Q792.65 80.85 793.25 80.85 L793.25 81.0 M792.0 81.75 L791.0 83.5 Q790.35 84.25 789.85 84.25 788.75 84.25 788.75 83.3 788.75 82.5 789.85 82.0 790.9 81.45 792.0 81.75 M556.0 1.9 L555.15 2.0 555.1 1.9 555.0 1.5 Q555.0 1.15 555.25 1.05 L555.5 1.0 Q555.95 1.0 556.1 1.35 L556.15 1.5 556.0 1.9 M552.25 2.8 L552.25 2.4 Q552.25 2.05 552.4 2.05 L552.75 2.1 552.85 2.25 552.5 2.85 552.35 2.85 552.25 2.8 M550.5 4.25 L550.0 3.9 550.75 4.0 550.5 4.25 M548.25 4.8 L547.5 6.0 546.25 7.0 545.9 6.8 545.85 6.15 Q545.85 4.45 548.15 4.35 L548.25 4.8 M527.1 6.75 L522.25 12.0 522.1 11.9 Q526.0 7.0 531.5 1.4 530.0 3.6 527.1 6.75 M535.0 15.9 L532.75 20.75 532.6 20.75 533.75 18.15 Q534.55 16.35 535.0 15.9 M534.55 22.1 L534.6 22.55 531.85 28.0 531.6 28.0 534.5 22.15 534.55 22.1 M538.25 72.15 L538.3 72.1 538.35 72.55 Q538.35 74.3 531.75 82.0 L531.6 81.9 535.4 77.05 Q537.65 74.0 538.1 72.15 L538.25 72.15 M545.4 79.85 L545.5 81.05 545.4 82.25 Q545.6 82.5 545.0 82.5 544.5 82.5 544.55 81.9 544.6 81.5 543.4 81.9 543.25 81.9 543.25 81.3 543.25 80.8 543.9 80.35 544.55 79.85 545.4 79.85 M545.9 84.65 L546.75 84.9 Q546.75 85.5 546.0 85.5 L545.85 85.15 545.9 84.65 M537.95 76.1 Q538.9 74.35 539.5 73.9 L536.75 78.75 536.6 78.75 537.95 76.1 M548.6 85.3 L549.0 85.4 549.1 85.75 548.5 86.0 548.25 85.5 Q548.3 85.3 548.6 85.3 M279.0 4.9 L278.75 5.3 278.25 5.5 Q278.15 5.7 278.15 5.05 278.15 4.5 278.85 4.5 L279.0 4.9 M277.25 11.7 L276.95 12.75 Q276.65 13.15 276.25 13.15 275.45 13.15 275.2 12.85 L275.0 12.05 Q275.0 11.45 275.45 11.0 L277.15 10.85 277.25 11.7 M280.35 7.15 L280.6 7.5 280.5 7.9 280.25 8.1 279.75 8.0 279.65 7.65 280.0 7.3 280.35 7.15 M274.85 7.5 L278.8 3.3 Q281.15 0.75 282.75 -0.5 L279.1 3.45 274.85 7.5 M266.25 35.9 L266.3 35.85 266.35 36.3 263.6 44.75 263.35 44.75 266.25 35.9 M272.8 49.1 L272.85 49.55 271.05 54.05 268.85 59.5 268.6 59.5 272.75 49.15 272.8 49.1 M271.05 59.1 L269.25 62.25 269.1 62.25 Q270.5 60.1 272.1 55.9 L272.25 55.9 272.3 55.85 272.35 56.3 271.05 59.1 M280.35 77.15 L275.75 83.0 275.6 82.9 277.8 79.6 Q279.15 77.6 280.25 76.9 L280.35 77.15 M281.55 80.85 L281.65 81.25 281.15 81.85 280.25 82.4 279.85 82.25 279.75 81.8 Q279.75 81.6 280.25 81.3 280.7 80.95 281.25 80.75 L281.55 80.85 M283.0 82.4 L282.9 82.75 282.6 82.75 282.1 82.7 282.0 82.5 Q282.2 82.0 283.0 82.4 M18.25 2.4 L17.25 5.6 16.0 8.75 15.85 8.75 17.0 5.25 Q17.75 3.05 18.25 2.4 M16.25 1.4 L16.35 1.5 16.35 1.9 15.25 5.5 13.75 9.25 13.6 9.25 15.0 5.25 16.1 1.4 16.25 1.4 M3.5 7.65 L8.25 18.5 Q5.8 14.5 3.35 7.65 L3.5 7.65 M3.85 4.25 Q2.55 3.75 2.85 2.15 L3.0 2.15 3.85 4.25 M5.4 18.35 L4.75 18.65 4.3 18.25 4.25 17.55 Q4.25 16.9 4.75 16.75 5.5 17.5 5.5 17.85 L5.4 18.35 M6.75 21.65 L6.5 22.0 Q6.15 21.85 6.15 21.5 L6.75 21.65 M7.85 9.45 Q8.85 7.4 10.5 7.25 9.7 8.1 8.55 10.3 7.45 12.35 6.75 12.9 L7.85 9.45 M5.6 27.25 Q5.95 26.65 6.25 26.65 L6.35 26.9 6.25 27.25 5.75 27.4 5.6 27.25 M2.0 47.15 Q3.6 54.25 6.35 60.65 L6.25 60.75 Q2.65 52.75 1.85 47.15 L2.0 47.15 M3.75 49.4 L4.5 51.65 5.35 53.9 5.25 54.0 Q4.65 53.25 4.15 51.75 L3.6 49.4 3.75 49.4 M17.65 78.55 L17.35 82.25 17.25 82.5 Q17.1 82.4 17.1 81.8 L17.35 76.4 17.5 76.4 17.65 78.55 M5.35 78.5 L5.1 78.6 4.9 77.25 5.35 77.25 5.5 77.4 5.5 77.8 5.35 78.5 M6.25 77.4 L8.35 82.5 Q7.6 81.6 6.9 80.1 6.2 78.55 6.1 77.5 L6.25 77.4 M3.75 76.15 L5.15 79.35 6.35 82.75 6.1 82.75 Q5.75 80.65 3.6 76.25 L3.75 76.15" fill="#333333" fill-rule="evenodd" stroke="none"/>
  </g>
  <defs>
    <linearGradient gradientTransform="matrix(-0.0036, 0.0656, -0.0557, -0.0031, 398.5, 44.5)" gradientUnits="userSpaceOnUse" id="gradient0" spreadMethod="pad" x1="-819.2" x2="819.2">
      <stop offset="0.011764705882352941" stop-color="#606060"/>
      <stop offset="1.0" stop-color="#313131"/>
    </linearGradient>
    <linearGradient gradientTransform="matrix(0.0045, -0.0577, 0.0511, 0.004, 663.0, 44.5)" gradientUnits="userSpaceOnUse" id="gradient1" spreadMethod="pad" x1="-819.2" x2="819.2">
      <stop offset="0.011764705882352941" stop-color="#606060"/>
      <stop offset="1.0" stop-color="#313131"/>
    </linearGradient>
    <linearGradient gradientTransform="matrix(0.0097, -0.051, 0.0503, 0.0096, 399.2, 44.5)" gradientUnits="userSpaceOnUse" id="gradient2" spreadMethod="pad" x1="-819.2" x2="819.2">
      <stop offset="0.011764705882352941" stop-color="#606060"/>
      <stop offset="1.0" stop-color="#313131"/>
    </linearGradient>
    <linearGradient gradientTransform="matrix(0.0079, -0.0543, 0.0507, 0.0074, 136.5, 44.5)" gradientUnits="userSpaceOnUse" id="gradient3" spreadMethod="pad" x1="-819.2" x2="819.2">
      <stop offset="0.011764705882352941" stop-color="#606060"/>
      <stop offset="1.0" stop-color="#313131"/>
    </linearGradient>
  </defs>
</svg>
