<?xml version="1.0" encoding="UTF-8" standalone="no"?>
<svg xmlns:xlink="http://www.w3.org/1999/xlink" height="79.95px" width="251.5px" xmlns="http://www.w3.org/2000/svg">
  <g transform="matrix(1.0, 0.0, 0.0, 1.0, 27.8, 8.7)">
    <path d="M-27.8 55.95 L-27.8 6.55 -13.4 -8.7 207.0 -8.7 223.7 4.15 223.7 55.9 209.15 71.25 -13.35 71.25 -27.8 55.95" fill="#000000" fill-rule="evenodd" stroke="none"/>
    <path d="M69.95 2.7 L72.65 2.7 Q74.1 4.0 76.1 4.45 L79.85 4.7 81.2 6.85 92.7 6.85 92.95 7.95 112.8 7.95 113.05 6.9 116.15 6.9 116.4 8.1 118.2 7.95 118.4 6.8 120.75 6.8 121.15 8.0 123.45 8.0 123.85 6.85 126.15 6.85 126.55 8.05 127.85 8.05 129.65 6.1 129.75 4.2 137.4 4.9 137.95 3.45 139.65 3.45 139.65 6.3 141.0 7.65 141.25 10.1 146.45 10.1 146.45 18.15 141.3 18.15 140.4 23.4 140.35 24.8 140.45 26.2 Q140.4 27.9 139.45 29.0 135.85 28.7 131.45 28.8 L123.45 29.1 115.4 29.5 107.35 29.55 103.85 29.55 100.35 29.5 98.0 29.6 95.95 30.3 Q93.65 31.45 92.4 32.8 90.9 34.5 90.65 37.0 L90.6 38.2 90.45 39.4 Q90.15 40.85 89.2 41.5 L80.6 42.3 76.3 42.05 71.95 41.15 Q69.5 43.15 67.45 46.15 65.7 48.6 63.95 52.3 L63.75 54.2 Q63.7 55.4 64.05 55.95 64.8 57.1 64.5 58.3 L64.1 59.35 63.65 60.4 Q63.3 61.4 62.35 62.3 L60.6 63.75 57.25 63.75 55.3 62.5 53.25 61.85 46.7 59.35 40.45 56.35 40.45 54.35 Q41.2 53.9 41.7 52.85 L42.45 51.0 45.75 44.85 Q47.75 41.6 50.2 39.45 51.6 38.2 52.55 36.55 53.5 34.9 53.9 32.95 L54.45 31.45 54.95 30.2 54.1 27.65 53.05 25.3 52.15 23.0 Q51.8 21.7 51.85 20.6 55.25 17.65 57.9 14.1 60.35 10.75 62.3 6.65 L69.3 6.65 68.6 5.5 69.95 2.7 M72.95 38.85 Q79.8 40.6 86.7 38.8 L88.05 33.35 87.15 31.6 78.15 31.6 78.15 36.0 79.8 37.8 78.15 38.8 76.6 38.05 75.75 37.45 75.3 36.7 74.9 35.45 74.7 33.85 74.65 32.2 74.55 31.9 74.3 31.35 71.95 32.35 72.0 34.05 72.0 35.7 Q72.1 37.6 72.95 38.85" fill="#1a1a1a" fill-rule="evenodd" stroke="none"/>
  </g>
</svg>
