<?xml version="1.0" encoding="UTF-8" standalone="no"?>
<svg xmlns:xlink="http://www.w3.org/1999/xlink" height="79.95px" width="251.5px" xmlns="http://www.w3.org/2000/svg">
  <g transform="matrix(1.0, 0.0, 0.0, 1.0, 27.8, 8.7)">
    <path d="M-27.8 55.95 L-27.8 6.55 -13.4 -8.7 207.0 -8.7 223.7 4.15 223.7 55.9 209.15 71.25 -13.35 71.25 -27.8 55.95" fill="#000000" fill-rule="evenodd" stroke="none"/>
    <path d="M192.05 19.3 L171.5 19.15 171.35 19.05 171.2 18.9 Q170.55 20.55 170.5 23.0 L170.5 25.05 170.5 27.15 Q170.0 27.6 169.2 27.75 L167.7 27.85 133.8 27.85 131.1 28.05 128.4 28.3 125.75 28.3 123.0 28.3 123.0 32.3 115.5 32.3 126.3 49.0 111.1 58.0 105.75 49.8 100.3 41.6 99.75 41.95 99.3 42.2 96.85 42.2 94.4 42.2 94.1 41.35 79.7 41.35 Q78.85 42.0 78.3 43.1 L77.5 45.25 76.3 48.6 Q76.0 49.2 75.8 50.3 L75.5 52.05 Q75.25 52.75 75.3 53.9 L75.4 55.85 75.35 57.45 Q75.2 58.35 74.65 58.9 L74.5 59.4 74.45 60.0 72.25 60.1 71.15 59.85 70.1 59.5 66.85 58.55 63.55 57.45 Q62.55 57.15 61.75 56.65 L60.15 55.45 Q61.7 50.35 64.25 45.0 66.45 40.35 69.65 35.1 L68.65 33.3 67.15 33.05 65.6 32.75 64.75 32.4 63.95 31.85 63.3 31.25 62.65 30.55 51.65 30.55 47.35 32.9 43.15 35.25 38.75 37.7 Q36.0 39.25 34.45 40.25 L31.0 42.25 27.55 44.1 25.1 45.6 22.6 47.15 10.6 47.15 9.9 46.25 9.9 44.0 10.05 44.0 10.1 44.0 12.45 37.15 14.85 30.3 15.6 27.35 15.75 24.35 15.7 22.4 15.75 20.45 17.75 18.4 61.3 18.4 65.3 13.95 65.45 13.8 Q66.05 12.65 67.0 11.7 L69.05 10.15 69.4 9.7 69.75 8.95 66.45 8.95 66.45 3.6 101.9 3.6 101.9 9.45 98.85 9.4 95.9 9.5 94.3 9.3 92.75 9.0 92.2 8.75 91.4 8.35 92.55 10.3 163.15 10.3 164.85 8.6 167.95 8.6 169.45 10.35 170.5 10.4 171.2 13.0 171.35 12.85 Q171.45 12.75 171.5 12.75 L192.05 12.6 192.05 19.3 M86.35 38.75 L83.95 36.95 Q83.45 36.25 83.45 34.9 L83.45 33.8 83.35 32.6 80.8 36.3 80.8 38.85 81.4 39.45 92.3 39.45 Q93.6 38.3 93.75 36.4 L93.8 34.8 93.8 33.25 92.65 31.8 89.4 31.35 86.25 31.5 86.25 36.9 87.0 37.4 86.35 38.75 M21.55 43.1 L22.35 43.4 23.1 43.5 Q25.15 42.85 26.45 41.95 26.95 41.65 27.55 41.3 L28.65 40.7 31.6 39.2 34.45 37.55 Q36.05 36.5 39.0 34.9 L43.5 32.35 Q44.15 31.95 45.1 31.4 L46.6 30.5 46.6 25.65 28.05 25.65 27.0 26.75 Q26.55 27.4 26.45 28.15 L26.15 29.15 25.8 30.1 24.45 34.15 Q23.55 36.7 23.3 38.25 L22.6 40.65 21.55 43.1" fill="#1a1a1a" fill-rule="evenodd" stroke="none"/>
  </g>
</svg>
