<?xml version="1.0" encoding="UTF-8" standalone="no"?>
<svg xmlns:xlink="http://www.w3.org/1999/xlink" height="263.05px" width="584.95px" xmlns="http://www.w3.org/2000/svg">
  <g transform="matrix(1.0, 0.0, 0.0, 1.0, -144.0, -142.5)">
    <path d="M644.0 142.5 L728.95 142.5 728.95 192.5 644.0 192.5 644.0 142.5" fill="url(#gradient0)" fill-rule="evenodd" stroke="none"/>
    <path d="M644.0 301.95 L728.95 301.95 728.95 351.95 644.0 351.95 644.0 301.95" fill="url(#gradient1)" fill-rule="evenodd" stroke="none"/>
    <path d="M644.0 249.6 L728.95 249.6 728.95 299.6 644.0 299.6 644.0 249.6" fill="url(#gradient2)" fill-rule="evenodd" stroke="none"/>
    <path d="M644.0 195.6 L728.95 195.6 728.95 245.6 644.0 245.6 644.0 195.6" fill="url(#gradient3)" fill-rule="evenodd" stroke="none"/>
    <path d="M644.0 355.55 L728.95 355.55 728.95 405.55 644.0 405.55 644.0 355.55" fill="url(#gradient4)" fill-rule="evenodd" stroke="none"/>
    <path d="M144.0 142.5 L637.0 142.5 637.0 192.5 144.0 192.5 144.0 142.5" fill="url(#gradient5)" fill-rule="evenodd" stroke="none"/>
    <path d="M144.0 301.95 L637.05 301.95 637.05 351.95 144.0 351.95 144.0 301.95" fill="url(#gradient6)" fill-rule="evenodd" stroke="none"/>
    <path d="M144.0 249.6 L637.0 249.6 637.0 299.6 144.0 299.6 144.0 249.6" fill="url(#gradient7)" fill-rule="evenodd" stroke="none"/>
    <path d="M144.0 195.6 L637.0 195.6 637.0 245.6 144.0 245.6 144.0 195.6" fill="url(#gradient8)" fill-rule="evenodd" stroke="none"/>
    <path d="M144.0 355.55 L637.05 355.55 637.05 405.55 144.0 405.55 144.0 355.55" fill="url(#gradient9)" fill-rule="evenodd" stroke="none"/>
  </g>
  <defs>
    <linearGradient gradientTransform="matrix(0.0314, 0.0, 0.0, 0.0037, 686.5, 167.5)" gradientUnits="userSpaceOnUse" id="gradient0" spreadMethod="pad" x1="-819.2" x2="819.2">
      <stop offset="0.0" stop-color="#000000"/>
      <stop offset="1.0" stop-color="#1f0000"/>
    </linearGradient>
    <linearGradient gradientTransform="matrix(0.0314, 0.0, 0.0, 0.0037, 686.5, 326.95)" gradientUnits="userSpaceOnUse" id="gradient1" spreadMethod="pad" x1="-819.2" x2="819.2">
      <stop offset="0.0" stop-color="#000000"/>
      <stop offset="1.0" stop-color="#1f0000"/>
    </linearGradient>
    <linearGradient gradientTransform="matrix(0.0314, 0.0, 0.0, 0.0037, 686.5, 274.6)" gradientUnits="userSpaceOnUse" id="gradient2" spreadMethod="pad" x1="-819.2" x2="819.2">
      <stop offset="0.0" stop-color="#000000"/>
      <stop offset="1.0" stop-color="#1f0000"/>
    </linearGradient>
    <linearGradient gradientTransform="matrix(0.0314, 0.0, 0.0, 0.0037, 686.5, 220.6)" gradientUnits="userSpaceOnUse" id="gradient3" spreadMethod="pad" x1="-819.2" x2="819.2">
      <stop offset="0.0" stop-color="#000000"/>
      <stop offset="1.0" stop-color="#1f0000"/>
    </linearGradient>
    <linearGradient gradientTransform="matrix(0.0314, 0.0, 0.0, 0.0037, 686.5, 380.55)" gradientUnits="userSpaceOnUse" id="gradient4" spreadMethod="pad" x1="-819.2" x2="819.2">
      <stop offset="0.0" stop-color="#000000"/>
      <stop offset="1.0" stop-color="#1f0000"/>
    </linearGradient>
    <linearGradient gradientTransform="matrix(0.0, 0.0314, -0.0214, 0.0, 390.55, 167.5)" gradientUnits="userSpaceOnUse" id="gradient5" spreadMethod="pad" x1="-819.2" x2="819.2">
      <stop offset="0.0" stop-color="#000000"/>
      <stop offset="1.0" stop-color="#213b42"/>
    </linearGradient>
    <linearGradient gradientTransform="matrix(0.0, 0.0314, -0.0214, 0.0, 390.5, 326.95)" gradientUnits="userSpaceOnUse" id="gradient6" spreadMethod="pad" x1="-819.2" x2="819.2">
      <stop offset="0.0" stop-color="#000000"/>
      <stop offset="1.0" stop-color="#1a1a1a"/>
    </linearGradient>
    <linearGradient gradientTransform="matrix(0.0, 0.0314, -0.0214, 0.0, 390.5, 274.6)" gradientUnits="userSpaceOnUse" id="gradient7" spreadMethod="pad" x1="-819.2" x2="819.2">
      <stop offset="0.0" stop-color="#000000"/>
      <stop offset="1.0" stop-color="#342900"/>
    </linearGradient>
    <linearGradient gradientTransform="matrix(0.0, 0.0314, -0.0214, 0.0, 390.5, 220.6)" gradientUnits="userSpaceOnUse" id="gradient8" spreadMethod="pad" x1="-819.2" x2="819.2">
      <stop offset="0.0" stop-color="#000000"/>
      <stop offset="1.0" stop-color="#333333"/>
    </linearGradient>
    <linearGradient gradientTransform="matrix(0.0, 0.0314, -0.0214, 0.0, 390.5, 380.55)" gradientUnits="userSpaceOnUse" id="gradient9" spreadMethod="pad" x1="-819.2" x2="819.2">
      <stop offset="0.0" stop-color="#000000"/>
      <stop offset="1.0" stop-color="#211604"/>
    </linearGradient>
  </defs>
</svg>
