<?xml version="1.0" encoding="UTF-8" standalone="no"?>
<svg xmlns:xlink="http://www.w3.org/1999/xlink" height="645.95px" width="851.95px" xmlns="http://www.w3.org/2000/svg">
  <g transform="matrix(1.0, 0.0, 0.0, 1.0, 34.0, 25.0)">
    <path d="M-34.0 -25.0 L817.95 -25.0 817.95 620.95 -34.0 620.95 -34.0 -25.0" fill="#000000" fill-opacity="0.8" fill-rule="evenodd" stroke="none"/>
    <path d="M729.75 573.55 L717.75 586.65 394.95 586.65 287.95 586.65 70.2 586.65 70.2 25.45 82.15 12.35 287.95 12.35 394.95 12.35 729.75 12.35 729.75 573.55" fill="url(#gradient0)" fill-rule="evenodd" stroke="none"/>
    <path d="M729.75 573.55 L729.75 12.35 394.95 12.35 287.95 12.35 82.15 12.35 70.2 25.45 70.2 586.65 287.95 586.65 394.95 586.65 717.75 586.65 729.75 573.55 Z" fill="none" stroke="url(#gradient1)" stroke-linecap="round" stroke-linejoin="round" stroke-width="2.0"/>
  </g>
  <defs>
    <radialGradient cx="0" cy="0" gradientTransform="matrix(0.3857, 0.0, 0.0, 0.8585, 399.0, 19.4)" gradientUnits="userSpaceOnUse" id="gradient0" r="819.2" spreadMethod="pad">
      <stop offset="0.0" stop-color="#480000"/>
      <stop offset="1.0" stop-color="#000000"/>
    </radialGradient>
    <linearGradient gradientTransform="matrix(0.0383, 0.1176, -0.1137, 0.0402, 387.75, 152.4)" gradientUnits="userSpaceOnUse" id="gradient1" spreadMethod="pad" x1="-819.2" x2="819.2">
      <stop offset="0.00392156862745098" stop-color="#ff0000" stop-opacity="0.52156866"/>
      <stop offset="0.5333333333333333" stop-color="#700000" stop-opacity="0.27058825"/>
      <stop offset="1.0" stop-color="#fc0000" stop-opacity="0.36078432"/>
    </linearGradient>
  </defs>
</svg>
