<?xml version="1.0" encoding="UTF-8" standalone="no"?>
<svg xmlns:xlink="http://www.w3.org/1999/xlink" height="271.05px" width="584.95px" xmlns="http://www.w3.org/2000/svg">
  <g transform="matrix(1.0, 0.0, 0.0, 1.0, -144.0, -189.5)">
    <path d="M728.95 460.55 L644.0 460.55 644.0 444.95 728.95 444.95 728.95 460.55" fill="url(#gradient0)" fill-rule="evenodd" stroke="none"/>
    <path d="M644.0 189.5 L728.95 189.5 728.95 190.05 644.0 190.05 644.0 189.5" fill="url(#gradient1)" fill-rule="evenodd" stroke="none"/>
    <path d="M144.0 189.5 L637.0 189.5 637.0 190.05 144.0 190.05 144.0 189.5" fill="url(#gradient2)" fill-rule="evenodd" stroke="none"/>
    <path d="M644.0 302.6 L728.95 302.6 728.95 352.6 644.0 352.6 644.0 302.6" fill="url(#gradient3)" fill-rule="evenodd" stroke="none"/>
    <path d="M644.0 248.6 L728.95 248.6 728.95 298.6 644.0 298.6 644.0 248.6" fill="url(#gradient4)" fill-rule="evenodd" stroke="none"/>
    <path d="M728.95 245.5 L644.0 245.5 644.0 196.05 728.95 196.05 728.95 245.5" fill="url(#gradient5)" fill-rule="evenodd" stroke="none"/>
    <path d="M644.0 408.55 L728.95 408.55 728.95 442.95 644.0 442.95 644.0 408.55" fill="url(#gradient6)" fill-rule="evenodd" stroke="none"/>
    <path d="M644.0 354.95 L728.95 354.95 728.95 404.95 644.0 404.95 644.0 354.95" fill="url(#gradient7)" fill-rule="evenodd" stroke="none"/>
    <path d="M144.0 302.6 L637.0 302.6 637.0 352.6 144.0 352.6 144.0 302.6" fill="url(#gradient8)" fill-rule="evenodd" stroke="none"/>
    <path d="M144.0 248.6 L637.0 248.6 637.0 298.6 144.0 298.6 144.0 248.6" fill="url(#gradient9)" fill-rule="evenodd" stroke="none"/>
    <path d="M637.0 245.5 L144.0 245.5 144.0 196.05 637.0 196.05 637.0 245.5" fill="url(#gradient10)" fill-rule="evenodd" stroke="none"/>
    <path d="M144.0 408.55 L637.05 408.55 637.05 442.95 144.0 442.95 144.0 408.55" fill="url(#gradient11)" fill-rule="evenodd" stroke="none"/>
    <path d="M144.0 354.95 L637.05 354.95 637.05 404.95 144.0 404.95 144.0 354.95" fill="url(#gradient12)" fill-rule="evenodd" stroke="none"/>
  </g>
  <defs>
    <linearGradient gradientTransform="matrix(0.0314, 0.0, 0.0, 0.0037, 686.5, 435.55)" gradientUnits="userSpaceOnUse" id="gradient0" spreadMethod="pad" x1="-819.2" x2="819.2">
      <stop offset="0.0" stop-color="#000000"/>
      <stop offset="1.0" stop-color="#1f0000"/>
    </linearGradient>
    <linearGradient gradientTransform="matrix(0.0314, 0.0, 0.0, 0.0037, 686.5, 214.5)" gradientUnits="userSpaceOnUse" id="gradient1" spreadMethod="pad" x1="-819.2" x2="819.2">
      <stop offset="0.0" stop-color="#000000"/>
      <stop offset="1.0" stop-color="#1f0000"/>
    </linearGradient>
    <linearGradient gradientTransform="matrix(0.0, 0.0314, -0.0214, 0.0, 390.55, 214.5)" gradientUnits="userSpaceOnUse" id="gradient2" spreadMethod="pad" x1="-819.2" x2="819.2">
      <stop offset="0.0" stop-color="#000000"/>
      <stop offset="1.0" stop-color="#213b42"/>
    </linearGradient>
    <linearGradient gradientTransform="matrix(0.0314, 0.0, 0.0, 0.0037, 686.5, 327.6)" gradientUnits="userSpaceOnUse" id="gradient3" spreadMethod="pad" x1="-819.2" x2="819.2">
      <stop offset="0.0" stop-color="#000000"/>
      <stop offset="1.0" stop-color="#1f0000"/>
    </linearGradient>
    <linearGradient gradientTransform="matrix(0.0314, 0.0, 0.0, 0.0037, 686.5, 273.6)" gradientUnits="userSpaceOnUse" id="gradient4" spreadMethod="pad" x1="-819.2" x2="819.2">
      <stop offset="0.0" stop-color="#000000"/>
      <stop offset="1.0" stop-color="#1f0000"/>
    </linearGradient>
    <linearGradient gradientTransform="matrix(0.0314, 0.0, 0.0, 0.0037, 686.5, 220.5)" gradientUnits="userSpaceOnUse" id="gradient5" spreadMethod="pad" x1="-819.2" x2="819.2">
      <stop offset="0.0" stop-color="#000000"/>
      <stop offset="1.0" stop-color="#1f0000"/>
    </linearGradient>
    <linearGradient gradientTransform="matrix(0.0314, 0.0, 0.0, 0.0037, 686.5, 433.55)" gradientUnits="userSpaceOnUse" id="gradient6" spreadMethod="pad" x1="-819.2" x2="819.2">
      <stop offset="0.0" stop-color="#000000"/>
      <stop offset="1.0" stop-color="#1f0000"/>
    </linearGradient>
    <linearGradient gradientTransform="matrix(0.0314, 0.0, 0.0, 0.0037, 686.5, 379.95)" gradientUnits="userSpaceOnUse" id="gradient7" spreadMethod="pad" x1="-819.2" x2="819.2">
      <stop offset="0.0" stop-color="#000000"/>
      <stop offset="1.0" stop-color="#1f0000"/>
    </linearGradient>
    <linearGradient gradientTransform="matrix(0.0, 0.0314, -0.0214, 0.0, 390.5, 327.6)" gradientUnits="userSpaceOnUse" id="gradient8" spreadMethod="pad" x1="-819.2" x2="819.2">
      <stop offset="0.0" stop-color="#000000"/>
      <stop offset="1.0" stop-color="#342900"/>
    </linearGradient>
    <linearGradient gradientTransform="matrix(0.0, 0.0314, -0.0214, 0.0, 390.5, 273.6)" gradientUnits="userSpaceOnUse" id="gradient9" spreadMethod="pad" x1="-819.2" x2="819.2">
      <stop offset="0.0" stop-color="#000000"/>
      <stop offset="1.0" stop-color="#333333"/>
    </linearGradient>
    <linearGradient gradientTransform="matrix(0.0, 0.0314, -0.0214, 0.0, 390.55, 220.5)" gradientUnits="userSpaceOnUse" id="gradient10" spreadMethod="pad" x1="-819.2" x2="819.2">
      <stop offset="0.0" stop-color="#000000"/>
      <stop offset="1.0" stop-color="#213b42"/>
    </linearGradient>
    <linearGradient gradientTransform="matrix(0.0, 0.0314, -0.0214, 0.0, 390.5, 433.55)" gradientUnits="userSpaceOnUse" id="gradient11" spreadMethod="pad" x1="-819.2" x2="819.2">
      <stop offset="0.0" stop-color="#000000"/>
      <stop offset="1.0" stop-color="#211604"/>
    </linearGradient>
    <linearGradient gradientTransform="matrix(0.0, 0.0314, -0.0214, 0.0, 390.5, 379.95)" gradientUnits="userSpaceOnUse" id="gradient12" spreadMethod="pad" x1="-819.2" x2="819.2">
      <stop offset="0.0" stop-color="#000000"/>
      <stop offset="1.0" stop-color="#1a1a1a"/>
    </linearGradient>
  </defs>
</svg>
