<?xml version="1.0" encoding="UTF-8" standalone="no"?>
<svg xmlns:xlink="http://www.w3.org/1999/xlink" height="222.1px" width="212.25px" xmlns="http://www.w3.org/2000/svg">
  <g transform="matrix(1.0, 0.0, 0.0, 1.0, 106.1, 109.05)">
    <path d="M96.35 28.75 L-96.3 28.75 -96.3 32.9 96.35 32.9 96.35 28.75 M0.05 62.45 L50.65 91.7 96.35 65.3 96.35 55.2 -96.3 55.2 -96.3 65.3 -50.55 91.7 0.05 62.45 M-51.55 -3.25 L-75.3 10.4 75.35 10.4 51.65 -3.25 -51.55 -3.25 M-45.65 -61.35 L-45.65 -25.6 45.75 -25.6 45.75 -61.35 0.05 -87.75 -45.65 -61.35 M0.05 -109.05 L55.55 -77.0 55.55 -22.35 106.15 16.85 106.15 81.0 50.65 113.05 0.05 83.8 -50.55 113.05 -106.1 81.0 -106.1 16.85 -55.5 -22.35 -55.5 -77.0 0.05 -109.05" fill="#23140c" fill-rule="evenodd" stroke="none"/>
  </g>
</svg>
