<?xml version="1.0" encoding="UTF-8" standalone="no"?>
<svg xmlns:xlink="http://www.w3.org/1999/xlink" height="52.5px" width="644.8px" xmlns="http://www.w3.org/2000/svg">
  <g transform="matrix(1.0, 0.0, 0.0, 1.0, -77.05, -122.3)">
    <path d="M222.0 123.05 L377.05 123.05 Q381.05 123.05 381.05 127.05 L381.05 170.05 Q381.05 174.05 377.05 174.05 L222.0 174.05 Q218.0 174.05 218.0 170.05 L218.0 127.05 Q218.0 123.05 222.0 123.05" fill="#000a10" fill-rule="evenodd" stroke="none"/>
    <path d="M222.0 123.05 L377.05 123.05 Q381.05 123.05 381.05 127.05 L381.05 170.05 Q381.05 174.05 377.05 174.05 L222.0 174.05 Q218.0 174.05 218.0 170.05 L218.0 127.05 Q218.0 123.05 222.0 123.05 Z" fill="none" stroke="#0061a2" stroke-linecap="round" stroke-linejoin="round" stroke-width="1.5"/>
    <path d="M392.0 123.05 L547.05 123.05 Q551.05 123.05 551.05 127.05 L551.05 170.05 Q551.05 174.05 547.05 174.05 L392.0 174.05 Q388.0 174.05 388.0 170.05 L388.0 127.05 Q388.0 123.05 392.0 123.05" fill="#000a10" fill-rule="evenodd" stroke="none"/>
    <path d="M392.0 123.05 L547.05 123.05 Q551.05 123.05 551.05 127.05 L551.05 170.05 Q551.05 174.05 547.05 174.05 L392.0 174.05 Q388.0 174.05 388.0 170.05 L388.0 127.05 Q388.0 123.05 392.0 123.05 Z" fill="none" stroke="#0061a2" stroke-linecap="round" stroke-linejoin="round" stroke-width="1.5"/>
    <path d="M562.05 123.05 L717.1 123.05 Q721.1 123.05 721.1 127.05 L721.1 170.05 Q721.1 174.05 717.1 174.05 L562.05 174.05 Q558.05 174.05 558.05 170.05 L558.05 127.05 Q558.05 123.05 562.05 123.05" fill="#000a10" fill-rule="evenodd" stroke="none"/>
    <path d="M562.05 123.05 L717.1 123.05 Q721.1 123.05 721.1 127.05 L721.1 170.05 Q721.1 174.05 717.1 174.05 L562.05 174.05 Q558.05 174.05 558.05 170.05 L558.05 127.05 Q558.05 123.05 562.05 123.05 Z" fill="none" stroke="#0061a2" stroke-linecap="round" stroke-linejoin="round" stroke-width="1.5"/>
    <path d="M81.05 123.05 L206.9 123.05 Q210.15 123.05 210.15 127.05 L210.15 170.05 Q210.15 174.05 206.9 174.05 L81.05 174.05 Q77.8 174.05 77.8 170.05 L77.8 127.05 Q77.8 123.05 81.05 123.05" fill="#000a10" fill-rule="evenodd" stroke="none"/>
    <path d="M81.05 123.05 L206.9 123.05 Q210.15 123.05 210.15 127.05 L210.15 170.05 Q210.15 174.05 206.9 174.05 L81.05 174.05 Q77.8 174.05 77.8 170.05 L77.8 127.05 Q77.8 123.05 81.05 123.05 Z" fill="none" stroke="#0061a2" stroke-linecap="round" stroke-linejoin="round" stroke-width="1.5"/>
  </g>
</svg>
