<?xml version="1.0" encoding="UTF-8" standalone="no"?>
<svg xmlns:xlink="http://www.w3.org/1999/xlink" height="35.4px" width="43.8px" xmlns="http://www.w3.org/2000/svg">
  <g transform="matrix(1.0, 0.0, 0.0, 1.0, 0.0, 0.0)">
    <path d="M41.95 5.05 L38.7 1.8 5.1 1.8 1.85 5.05 1.85 30.4 5.1 33.5 38.7 33.5 41.95 30.4 41.95 5.05 M43.8 31.05 L39.5 35.4 4.3 35.4 0.0 31.05 0.0 4.3 4.3 0.0 39.5 0.0 43.8 4.3 43.8 31.05" fill="url(#gradient0)" fill-rule="evenodd" stroke="none"/>
    <path d="M41.95 5.05 L41.95 30.4 38.7 33.5 5.1 33.5 1.85 30.4 1.85 5.05 5.1 1.8 38.7 1.8 41.95 5.05" fill="#000000" fill-rule="evenodd" stroke="none"/>
  </g>
  <defs>
    <radialGradient cx="0" cy="0" gradientTransform="matrix(0.0551, 0.0389, 0.0399, -0.0538, 22.9, 16.7)" gradientUnits="userSpaceOnUse" id="gradient0" r="819.2" spreadMethod="pad">
      <stop offset="0.0" stop-color="#ffffff"/>
      <stop offset="0.8549019607843137" stop-color="#ffffff" stop-opacity="0.2"/>
    </radialGradient>
  </defs>
</svg>
