<?xml version="1.0" encoding="UTF-8" standalone="no"?>
<svg xmlns:xlink="http://www.w3.org/1999/xlink" height="311.35px" width="626.7px" xmlns="http://www.w3.org/2000/svg">
  <g transform="matrix(1.0, 0.0, 0.0, 1.0, 1.7, 3.1)">
    <path d="M464.45 29.95 Q360.9 29.95 300.35 30.2 239.85 30.45 129.1 29.55 18.4 28.6 1.8 28.1 L311.6 28.1 624.95 28.05 Q568.0 29.95 464.45 29.95" fill="url(#gradient0)" fill-rule="evenodd" stroke="none"/>
    <path d="M624.85 292.65 L610.7 306.8 -1.65 306.8 -1.65 11.05 12.5 -3.1 624.85 -3.1 624.85 292.65" fill="url(#gradient1)" fill-rule="evenodd" stroke="none"/>
    <path d="M624.95 291.55 L625.0 295.25 611.85 307.8 -1.7 308.25 -1.6 305.7 610.7 305.7 624.95 291.55" fill="url(#gradient2)" fill-rule="evenodd" stroke="none"/>
    <path d="M-1.6 217.35 L-1.6 27.95 624.4 27.95 624.4 217.35 -1.6 217.35" fill="#000000" fill-rule="evenodd" stroke="none"/>
    <path d="M-1.6 217.35 L-1.6 27.95 624.4 27.95 624.4 217.35 -1.6 217.35" fill="url(#gradient3)" fill-rule="evenodd" stroke="none"/>
    <path d="M-1.6 213.3 L624.4 213.3 624.4 258.95 -1.6 258.95 -1.6 213.3" fill="url(#gradient4)" fill-rule="evenodd" stroke="none"/>
    <path d="M-1.6 259.95 L-1.6 258.0 624.4 258.0 624.4 259.95 -1.6 259.95" fill="url(#gradient5)" fill-rule="evenodd" stroke="none"/>
  </g>
  <defs>
    <radialGradient cx="0" cy="0" gradientTransform="matrix(0.3841, 0.0, 0.0, 0.3841, 313.35, 29.15)" gradientUnits="userSpaceOnUse" id="gradient0" r="819.2" spreadMethod="pad">
      <stop offset="0.0" stop-color="#ff0000"/>
      <stop offset="1.0" stop-color="#ff0000" stop-opacity="0.0"/>
    </radialGradient>
    <linearGradient gradientTransform="matrix(0.0, 0.536, 0.536, 0.0, 325.35, 162.85)" gradientUnits="userSpaceOnUse" id="gradient1" spreadMethod="pad" x1="-819.2" x2="819.2">
      <stop offset="0.0" stop-color="#ffcc00"/>
      <stop offset="0.1843137254901961" stop-color="#332900"/>
      <stop offset="0.6039215686274509" stop-color="#000000"/>
      <stop offset="0.8196078431372549" stop-color="#000000"/>
    </linearGradient>
    <radialGradient cx="0" cy="0" gradientTransform="matrix(0.2704, 0.0, 0.0, -0.2704, 311.6, 299.25)" gradientUnits="userSpaceOnUse" id="gradient2" r="819.2" spreadMethod="pad">
      <stop offset="0.1607843137254902" stop-color="#ffcc00"/>
      <stop offset="1.0" stop-color="#332900"/>
    </radialGradient>
    <linearGradient gradientTransform="matrix(0.0, 0.1211, 0.1648, 0.0, 310.45, 84.15)" gradientUnits="userSpaceOnUse" id="gradient3" spreadMethod="pad" x1="-819.2" x2="819.2">
      <stop offset="0.0" stop-color="#282000"/>
      <stop offset="1.0" stop-color="#000000"/>
    </linearGradient>
    <linearGradient gradientTransform="matrix(0.0, -0.1139, -0.0533, 0.0, 315.15, 211.75)" gradientUnits="userSpaceOnUse" id="gradient4" spreadMethod="pad" x1="-819.2" x2="819.2">
      <stop offset="0.0" stop-color="#ffcc00"/>
      <stop offset="0.1843137254901961" stop-color="#332900"/>
      <stop offset="0.6039215686274509" stop-color="#000000"/>
      <stop offset="0.8196078431372549" stop-color="#000000"/>
    </linearGradient>
    <radialGradient cx="0" cy="0" gradientTransform="matrix(0.3821, 0.0, 0.0, 0.7643, 311.45, 259.0)" gradientUnits="userSpaceOnUse" id="gradient5" r="819.2" spreadMethod="pad">
      <stop offset="0.0" stop-color="#ffcc00"/>
      <stop offset="0.9764705882352941" stop-color="#332900"/>
    </radialGradient>
  </defs>
</svg>
