<?xml version="1.0" encoding="UTF-8" standalone="no"?>
<svg xmlns:xlink="http://www.w3.org/1999/xlink" height="22.05px" width="67.95px" xmlns="http://www.w3.org/2000/svg">
  <g transform="matrix(1.0, 0.0, 0.0, 1.0, -2.65, -0.35)">
    <path d="M7.25 0.85 L66.0 0.85 Q70.1 0.85 70.1 7.5 L70.1 15.25 Q70.1 21.9 66.0 21.9 L7.25 21.9 Q3.15 21.9 3.15 15.25 L3.15 7.5 Q3.15 0.85 7.25 0.85" fill="url(#gradient0)" fill-rule="evenodd" stroke="none"/>
    <path d="M7.25 0.85 L66.0 0.85 Q70.1 0.85 70.1 7.5 L70.1 15.25 Q70.1 21.9 66.0 21.9 L7.25 21.9 Q3.15 21.9 3.15 15.25 L3.15 7.5 Q3.15 0.85 7.25 0.85 Z" fill="none" stroke="url(#gradient1)" stroke-linecap="round" stroke-linejoin="round" stroke-width="1.0"/>
  </g>
  <defs>
    <linearGradient gradientTransform="matrix(0.0258, 0.0, 0.0, 0.021, 36.65, 11.35)" gradientUnits="userSpaceOnUse" id="gradient0" spreadMethod="pad" x1="-819.2" x2="819.2">
      <stop offset="0.0" stop-color="#005a97"/>
      <stop offset="1.0" stop-color="#213441"/>
    </linearGradient>
    <linearGradient gradientTransform="matrix(0.0071, -0.0222, 0.0131, 0.0109, 37.5, 11.45)" gradientUnits="userSpaceOnUse" id="gradient1" spreadMethod="pad" x1="-819.2" x2="819.2">
      <stop offset="0.0" stop-color="#003c4c"/>
      <stop offset="1.0" stop-color="#01bef2"/>
    </linearGradient>
  </defs>
</svg>
