<?xml version="1.0" encoding="UTF-8" standalone="no"?>
<svg xmlns:xlink="http://www.w3.org/1999/xlink" height="14.25px" width="16.4px" xmlns="http://www.w3.org/2000/svg">
  <g transform="matrix(1.0, 0.0, 0.0, 1.0, -10.5, -4.15)">
    <path d="M19.35 6.95 L19.25 4.15 Q21.9 4.3 23.8 6.2 25.9 8.3 25.9 11.3 25.9 13.2 25.05 14.75 L26.9 16.2 21.15 16.85 20.6 11.1 22.85 12.95 23.15 11.25 Q23.1 9.5 21.8 8.2 20.75 7.15 19.35 6.95 M11.65 11.25 Q11.6 9.3 12.6 7.7 L10.5 6.0 16.3 5.5 16.85 11.25 14.75 9.55 Q14.45 10.35 14.45 11.25 14.4 13.1 15.65 14.35 16.75 15.45 18.2 15.6 L18.5 18.4 Q15.7 18.3 13.7 16.3 11.65 14.25 11.65 11.25" fill="#ffffff" fill-rule="evenodd" stroke="none"/>
  </g>
</svg>
