<?xml version="1.0" encoding="UTF-8" standalone="no"?>
<svg xmlns:xlink="http://www.w3.org/1999/xlink" height="212.1px" width="212.25px" xmlns="http://www.w3.org/2000/svg">
  <g transform="matrix(1.0, 0.0, 0.0, 1.0, 106.1, 113.05)">
    <path d="M0.05 58.45 L50.65 87.7 96.35 61.3 96.35 41.2 -96.3 41.2 -96.3 61.3 -50.55 87.7 0.05 58.45 M-51.55 -17.25 L-75.3 -3.6 75.35 -3.6 51.65 -17.25 -51.55 -17.25 M0.05 -113.05 L55.55 -81.0 55.55 -26.35 106.15 2.85 106.15 67.0 50.65 99.05 0.05 69.8 -50.55 99.05 -106.1 67.0 -106.1 2.85 -55.5 -26.35 -55.5 -81.0 0.05 -113.05 M45.75 -75.35 L0.05 -101.75 -45.65 -75.35 -45.65 -29.6 45.75 -29.6 45.75 -75.35 M96.35 28.9 L96.35 14.75 -96.3 14.75 -96.3 28.9 96.35 28.9" fill="url(#gradient0)" fill-rule="evenodd" stroke="none"/>
    <path d="M98.35 30.9 L-98.3 30.9 -98.3 12.75 98.35 12.75 98.35 30.9 M50.65 90.0 L0.05 60.8 -50.55 90.0 -98.3 62.45 -98.3 39.2 98.35 39.2 98.35 62.45 50.65 90.0 M0.05 58.45 L50.65 87.7 96.35 61.3 96.35 41.2 -96.3 41.2 -96.3 61.3 -50.55 87.7 0.05 58.45 M-82.75 -1.6 L-52.1 -19.25 52.15 -19.25 82.8 -1.6 -82.75 -1.6 M-51.55 -17.25 L-75.3 -3.6 75.35 -3.6 51.65 -17.25 -51.55 -17.25 M0.05 -104.05 L47.75 -76.5 47.75 -27.6 -47.65 -27.6 -47.65 -76.5 0.05 -104.05 M53.55 -79.85 L0.05 -110.75 -53.5 -79.85 -53.5 -25.2 -104.1 4.0 -104.1 65.85 -50.55 96.75 0.05 67.5 50.65 96.75 104.15 65.85 104.15 4.0 53.55 -25.2 53.55 -79.85 M0.05 -113.05 L55.55 -81.0 55.55 -26.35 106.15 2.85 106.15 67.0 50.65 99.05 0.05 69.8 -50.55 99.05 -106.1 67.0 -106.1 2.85 -55.5 -26.35 -55.5 -81.0 0.05 -113.05 M45.75 -75.35 L0.05 -101.75 -45.65 -75.35 -45.65 -29.6 45.75 -29.6 45.75 -75.35 M96.35 28.9 L96.35 14.75 -96.3 14.75 -96.3 28.9 96.35 28.9" fill="url(#gradient1)" fill-rule="evenodd" stroke="none"/>
  </g>
  <defs>
    <linearGradient gradientTransform="matrix(0.0, -0.1295, -0.1295, 0.0, 0.05, -7.0)" gradientUnits="userSpaceOnUse" id="gradient0" spreadMethod="pad" x1="-819.2" x2="819.2">
      <stop offset="0.00392156862745098" stop-color="#543800"/>
      <stop offset="0.17647058823529413" stop-color="#e9ca00"/>
      <stop offset="0.43529411764705883" stop-color="#6a4a00"/>
      <stop offset="0.44313725490196076" stop-color="#836300"/>
      <stop offset="0.4627450980392157" stop-color="#af8f00"/>
      <stop offset="0.47843137254901963" stop-color="#ceaf00"/>
      <stop offset="0.49019607843137253" stop-color="#e2c300"/>
      <stop offset="0.5019607843137255" stop-color="#e9ca00"/>
      <stop offset="0.6274509803921569" stop-color="#feffbf"/>
      <stop offset="0.7607843137254902" stop-color="#e9ca00"/>
      <stop offset="0.984313725490196" stop-color="#6a4700"/>
    </linearGradient>
    <linearGradient gradientTransform="matrix(0.1295, 0.0, 0.0, -0.1295, 0.05, -7.0)" gradientUnits="userSpaceOnUse" id="gradient1" spreadMethod="pad" x1="-819.2" x2="819.2">
      <stop offset="0.07450980392156863" stop-color="#543800"/>
      <stop offset="0.17647058823529413" stop-color="#e9ca00"/>
      <stop offset="0.43529411764705883" stop-color="#6a4a00"/>
      <stop offset="0.4588235294117647" stop-color="#836300"/>
      <stop offset="0.5058823529411764" stop-color="#af8f00"/>
      <stop offset="0.5490196078431373" stop-color="#ceaf00"/>
      <stop offset="0.5843137254901961" stop-color="#e2c300"/>
      <stop offset="0.6078431372549019" stop-color="#e9ca00"/>
      <stop offset="0.6431372549019608" stop-color="#e9ca00"/>
      <stop offset="0.8196078431372549" stop-color="#fff87f"/>
      <stop offset="0.8784313725490196" stop-color="#e9ca00"/>
      <stop offset="0.984313725490196" stop-color="#6a4700"/>
    </linearGradient>
  </defs>
</svg>
