<?xml version="1.0" encoding="UTF-8" standalone="no"?>
<svg xmlns:xlink="http://www.w3.org/1999/xlink" height="41.5px" width="49.75px" xmlns="http://www.w3.org/2000/svg">
  <g transform="matrix(1.0, 0.0, 0.0, 1.0, 24.65, 19.65)">
    <path d="M8.85 -1.25 L9.2 -1.25 9.2 15.3 8.85 15.3 8.85 12.65 -17.75 9.9 -17.75 12.55 -18.1 12.5 -18.1 -4.05 -17.75 -4.0 -17.75 -1.8 8.85 0.95 8.85 -1.25 M8.85 1.4 L-17.75 -1.35 -17.75 9.45 8.85 12.2 8.85 1.4" fill="#383838" fill-rule="evenodd" stroke="none"/>
    <path d="M14.4 -0.5 L14.25 0.05 14.05 0.45 13.85 0.45 13.75 0.05 13.85 -0.45 14.05 -0.85 14.25 -0.85 14.4 -0.5 M11.75 0.45 L11.5 0.85 11.1 1.0 10.65 0.75 10.45 0.3 10.65 -0.15 11.1 -0.3 11.5 -0.05 11.75 0.45 M21.55 -6.95 L21.45 -6.35 21.25 -6.0 21.0 -6.0 20.9 -6.4 21.0 -6.9 21.25 -7.3 21.45 -7.25 21.55 -6.95 M21.55 6.65 L21.45 7.25 21.25 7.6 21.0 7.6 20.9 7.2 21.0 6.7 21.25 6.3 21.45 6.35 21.55 6.65 M14.4 13.1 L14.25 13.65 14.05 14.05 13.85 14.05 13.75 13.65 13.85 13.15 14.05 12.75 Q14.15 12.6 14.25 12.75 L14.4 13.1 M11.75 14.05 L11.5 14.45 11.1 14.6 10.65 14.35 10.45 13.9 10.65 13.45 Q10.85 13.3 11.1 13.3 L11.5 13.55 11.75 14.05 M-19.2 -2.75 Q-19.2 -2.5 -19.45 -2.35 L-19.9 -2.15 -20.35 -2.4 -20.55 -2.9 -20.35 -3.3 -19.9 -3.45 -19.45 -3.25 -19.2 -2.75 M-19.2 10.85 L-19.45 11.25 -19.9 11.45 -20.35 11.2 -20.55 10.7 -20.35 10.3 -19.9 10.15 -19.45 10.35 -19.2 10.85" fill="#b5b5b5" fill-rule="evenodd" stroke="none"/>
    <path d="M14.4 -0.5 L14.25 -0.85 14.05 -0.85 13.85 -0.45 13.75 0.05 13.85 0.45 14.05 0.45 14.25 0.05 14.4 -0.5 M14.9 14.15 L13.1 15.75 13.1 -0.8 14.9 -2.4 14.9 14.15 M20.3 -7.3 L22.2 -8.9 22.2 7.65 20.3 9.25 20.3 -7.3 M21.55 6.65 L21.45 6.35 21.25 6.3 21.0 6.7 20.9 7.2 21.0 7.6 21.25 7.6 21.45 7.25 21.55 6.65 M21.55 -6.95 L21.45 -7.25 21.25 -7.3 21.0 -6.9 20.9 -6.4 21.0 -6.0 21.25 -6.0 21.45 -6.35 21.55 -6.95 M14.4 13.1 L14.25 12.75 Q14.15 12.6 14.05 12.75 L13.85 13.15 13.75 13.65 13.85 14.05 14.05 14.05 14.25 13.65 14.4 13.1" fill="#5d5d5d" fill-rule="evenodd" stroke="none"/>
    <path d="M15.1 -2.5 L20.15 -7.1 20.15 -4.9 15.1 -0.3 15.1 -2.5 M20.15 9.45 L15.1 14.05 15.1 11.4 20.15 6.8 20.15 9.45" fill="#4f4f4f" fill-rule="evenodd" stroke="none"/>
    <path d="M14.9 -2.4 L15.1 -2.5 15.1 -0.3 20.15 -4.9 20.15 -7.1 20.3 -7.3 20.3 9.25 20.15 9.45 20.15 6.8 15.1 11.4 15.1 14.05 14.9 14.15 14.9 -2.4 M20.15 -4.45 L15.1 0.15 15.1 10.95 20.15 6.35 20.15 -4.45" fill="#272727" fill-rule="evenodd" stroke="none"/>
    <path d="M20.15 -4.45 L20.15 6.35 15.1 10.95 15.1 0.15 20.15 -4.45" fill="url(#gradient0)" fill-rule="evenodd" stroke="none"/>
    <path d="M9.2 -1.25 L13.05 -0.85 13.05 15.7 9.2 15.3 9.2 -1.25 M-18.1 12.5 L-21.9 12.1 -21.9 -4.45 -18.1 -4.05 -18.1 12.5 M11.75 0.45 L11.5 -0.05 11.1 -0.3 10.65 -0.15 10.45 0.3 10.65 0.75 11.1 1.0 11.5 0.85 11.75 0.45 M11.75 14.05 L11.5 13.55 11.1 13.3 Q10.85 13.3 10.65 13.45 L10.45 13.9 10.65 14.35 11.1 14.6 11.5 14.45 11.75 14.05 M-19.2 10.85 L-19.45 10.35 -19.9 10.15 -20.35 10.3 -20.55 10.7 -20.35 11.2 -19.9 11.45 -19.45 11.25 -19.2 10.85 M-19.2 -2.75 L-19.45 -3.25 -19.9 -3.45 -20.35 -3.3 -20.55 -2.9 -20.35 -2.4 -19.9 -2.15 -19.45 -2.35 Q-19.2 -2.5 -19.2 -2.75" fill="#6b6b6b" fill-rule="evenodd" stroke="none"/>
    <path d="M8.85 1.4 L8.85 12.2 -17.75 9.45 -17.75 -1.35 8.85 1.4" fill="url(#gradient1)" fill-rule="evenodd" stroke="none"/>
    <path d="M8.85 15.3 L-17.75 12.55 -17.75 9.9 8.85 12.65 8.85 15.3 M-17.75 -4.0 L8.85 -1.25 8.85 0.95 -17.75 -1.8 -17.75 -4.0" fill="#545454" fill-rule="evenodd" stroke="none"/>
    <path d="M18.75 -10.0 L19.3 -10.15 20.5 -10.05 Q23.1 -9.8 22.2 -8.9 L14.2 -1.35 Q13.25 -0.45 10.65 -0.7 L9.45 -0.8 9.25 -1.05 -17.9 -3.55 -18.5 -3.4 -20.0 -3.55 Q-22.65 -3.8 -21.7 -4.7 L-13.7 -12.25 Q-12.8 -13.15 -10.15 -12.9 L-8.65 -12.75 -8.4 -12.5 18.75 -10.0" fill="#383838" fill-rule="evenodd" stroke="none"/>
    <path d="M-17.9 -4.15 L-16.55 -5.45 10.6 -2.95 9.25 -1.65 -17.9 -4.15 M18.75 -10.6 L17.4 -9.35 -9.75 -11.85 -8.4 -13.1 18.75 -10.6" fill="#727272" fill-rule="evenodd" stroke="none"/>
    <path d="M9.45 -1.4 L19.3 -10.75 20.5 -10.65 Q23.1 -10.4 22.2 -9.5 L14.2 -1.95 Q13.25 -1.05 10.65 -1.3 L9.45 -1.4 M-8.65 -13.35 L-18.5 -4.0 -20.0 -4.15 Q-22.65 -4.4 -21.7 -5.3 L-13.7 -12.85 Q-12.8 -13.75 -10.15 -13.5 L-8.65 -13.35" fill="#9c9c9c" fill-rule="evenodd" stroke="none"/>
    <path d="M9.25 -1.65 L10.6 -2.95 -16.55 -5.45 -17.9 -4.15 -18.5 -4.0 -8.65 -13.35 -8.4 -13.1 -9.75 -11.85 17.4 -9.35 18.75 -10.6 19.3 -10.75 9.45 -1.4 9.25 -1.65 M10.85 -3.15 L17.15 -9.1 -10.0 -11.6 -16.3 -5.65 10.85 -3.15" fill="#383838" fill-rule="evenodd" stroke="none"/>
    <path d="M10.85 -3.15 L-16.3 -5.65 -10.0 -11.6 17.15 -9.1 10.85 -3.15" fill="url(#gradient2)" fill-rule="evenodd" stroke="none"/>
    <path d="M10.15 -4.35 L10.15 -4.25 10.0 -4.15 9.8 -4.1 9.25 -4.05 Q8.55 -4.1 8.8 -4.35 L9.7 -4.5 10.15 -4.35 M6.8 -2.5 L7.75 -2.65 8.2 -2.45 8.15 -2.4 8.0 -2.3 7.8 -2.25 7.3 -2.2 Q6.6 -2.25 6.8 -2.5 M16.45 -10.2 L16.3 -10.15 16.1 -10.05 15.55 -10.05 Q14.85 -10.1 15.1 -10.3 L16.0 -10.45 16.5 -10.3 16.45 -10.2 M14.4 -8.35 L14.35 -8.25 14.25 -8.15 14.0 -8.1 13.5 -8.1 Q12.8 -8.15 13.0 -8.35 L13.95 -8.5 14.4 -8.35 M12.85 -2.45 Q13.5 -2.4 13.25 -2.2 13.2 -2.1 12.95 -2.05 L12.4 -2.0 Q11.7 -2.05 11.9 -2.3 L12.85 -2.45 M20.7 -9.85 Q21.35 -9.8 21.15 -9.6 L20.85 -9.45 20.25 -9.45 Q19.55 -9.5 19.8 -9.7 L20.7 -9.85 M-6.75 -12.6 Q-6.1 -12.5 -6.3 -12.3 L-6.65 -12.2 -7.2 -12.2 Q-7.9 -12.25 -7.65 -12.45 L-6.75 -12.6 M-11.95 -12.45 Q-12.65 -12.55 -12.4 -12.75 L-11.5 -12.85 Q-10.85 -12.8 -11.05 -12.6 -11.15 -12.55 -11.35 -12.45 L-11.95 -12.45 M-13.5 -6.45 L-12.6 -6.6 Q-11.95 -6.55 -12.15 -6.35 -12.25 -6.25 -12.45 -6.2 L-13.05 -6.15 Q-13.75 -6.2 -13.5 -6.45 M-14.95 -4.4 L-15.45 -4.35 Q-16.15 -4.4 -15.95 -4.65 L-15.0 -4.8 Q-14.35 -4.7 -14.6 -4.5 L-14.95 -4.4 M-19.35 -5.45 Q-18.7 -5.4 -18.95 -5.2 -19.0 -5.1 -19.25 -5.05 L-19.8 -5.0 Q-20.5 -5.1 -20.3 -5.35 L-19.35 -5.45 M-8.8 -10.2 Q-9.5 -10.25 -9.3 -10.45 L-8.35 -10.6 Q-7.7 -10.55 -7.95 -10.35 -8.0 -10.25 -8.25 -10.2 L-8.8 -10.2" fill="#d4d4d4" fill-opacity="0.4509804" fill-rule="evenodd" stroke="none"/>
    <path d="M-0.2 -5.1 L-0.35 -4.85 -3.45 -5.2 -3.25 -5.45 -0.2 -5.1 M-7.05 -5.6 L-6.85 -5.85 -3.9 -5.5 -4.05 -5.25 -7.05 -5.6 M1.85 -7.6 L-0.2 -5.3 -2.9 -5.55 -2.05 -6.5 -1.75 -6.9 -1.35 -7.3 -0.85 -7.85 1.85 -7.6 M-4.35 -8.4 L-3.3 -8.95 -1.65 -8.75 -1.7 -8.05 -4.35 -8.4 M-4.5 -8.3 L-1.85 -7.95 -3.9 -5.7 -6.55 -6.0 -5.65 -6.95 -5.35 -7.3 -4.95 -7.7 -4.5 -8.3 M-2.75 -9.45 Q-1.45 -10.35 -1.05 -10.35 -0.8 -10.35 -1.2 -9.3 L-1.55 -8.85 -3.15 -9.05 -2.75 -9.45 M0.1 -4.8 L0.35 -5.05 3.35 -4.7 3.15 -4.45 0.1 -4.8 M2.7 -7.45 L5.35 -7.2 3.25 -4.9 0.6 -5.15 1.5 -6.15 1.8 -6.5 2.2 -6.9 2.7 -7.45 M2.05 -8.4 L1.95 -7.7 -0.75 -7.95 0.4 -8.55 2.05 -8.4 M2.55 -8.9 L2.2 -8.5 0.55 -8.65 0.9 -9.05 2.6 -9.95 Q2.85 -9.9 2.55 -8.9 M4.45 -8.65 Q5.85 -9.6 6.1 -9.55 6.4 -9.5 6.0 -8.5 L5.65 -8.1 4.1 -8.25 4.45 -8.65 M2.85 -7.55 L3.9 -8.15 5.55 -8.0 5.45 -7.3 2.85 -7.55" fill="url(#gradient3)" fill-rule="evenodd" stroke="none"/>
    <path d="M-9.55 9.65 L-9.55 9.2 -6.6 9.5 -6.6 9.9 -9.55 9.65 M-2.95 9.9 L-2.95 10.3 -5.95 10.05 -5.95 9.6 -2.95 9.9 M-9.45 4.25 L-8.95 3.05 -7.3 3.25 -6.8 4.55 -9.45 4.25 M-3.15 5.2 L-3.15 9.5 -5.8 9.2 -5.8 7.45 -5.8 6.7 -5.8 5.95 -5.8 4.9 -3.15 5.2 M-9.45 4.5 L-6.8 4.8 -6.8 9.1 -9.45 8.8 -9.45 7.05 -9.45 6.3 -9.45 5.55 -9.45 4.5 M-8.9 2.1 L-8.9 2.05 Q-8.5 0.35 -8.15 0.4 -7.85 0.45 -7.35 2.25 L-7.35 3.0 -8.9 2.8 -8.9 2.1 M-2.25 5.0 L-1.8 3.8 -0.15 4.0 0.35 5.3 -2.25 5.0 M-3.6 3.65 L-3.15 4.95 -5.8 4.65 -5.3 3.45 -3.6 3.65 M-3.65 2.65 L-3.65 3.4 -5.25 3.2 -5.25 2.5 -5.25 2.45 Q-4.85 0.75 -4.55 0.8 -4.2 0.8 -3.65 2.65 M-1.7 2.9 L-1.7 2.85 Q-1.3 1.15 -1.0 1.15 -0.7 1.2 -0.15 3.0 L-0.15 3.75 -1.7 3.6 -1.7 2.9 M-2.25 5.25 L0.35 5.55 0.35 9.85 -2.25 9.55 -2.25 7.8 -2.25 7.05 -2.25 6.3 -2.25 5.25 M-2.4 10.4 L-2.4 9.95 0.55 10.25 0.55 10.65 -2.4 10.4" fill="url(#gradient4)" fill-rule="evenodd" stroke="none"/>
    <path d="M25.1 -19.65 L25.1 21.85 -24.65 21.85 -24.65 -19.65 25.1 -19.65" fill="#ffc200" fill-opacity="0.0" fill-rule="evenodd" stroke="none"/>
  </g>
  <defs>
    <radialGradient cx="0" cy="0" gradientTransform="matrix(0.0074, -0.0064, 0.0, 0.0155, 18.4, 2.45)" gradientUnits="userSpaceOnUse" id="gradient0" r="819.2" spreadMethod="pad">
      <stop offset="0.0" stop-color="#4f4f4f"/>
      <stop offset="1.0" stop-color="#3a3a3a"/>
    </radialGradient>
    <radialGradient cx="0" cy="0" gradientTransform="matrix(0.0194, 0.002, 0.0, 0.0198, -4.4, 5.65)" gradientUnits="userSpaceOnUse" id="gradient1" r="819.2" spreadMethod="pad">
      <stop offset="0.0" stop-color="#565656"/>
      <stop offset="1.0" stop-color="#2e2e2e"/>
    </radialGradient>
    <radialGradient cx="0" cy="0" gradientTransform="matrix(0.0183, 0.0017, -0.0065, 0.0061, 0.45, -7.4)" gradientUnits="userSpaceOnUse" id="gradient2" r="819.2" spreadMethod="pad">
      <stop offset="0.0" stop-color="#797979"/>
      <stop offset="1.0" stop-color="#464646"/>
    </radialGradient>
    <linearGradient gradientTransform="matrix(-0.0011, 0.0056, -0.0032, 1.0E-4, 2.4, -7.95)" gradientUnits="userSpaceOnUse" id="gradient3" spreadMethod="pad" x1="-819.2" x2="819.2">
      <stop offset="0.0" stop-color="#ffe435"/>
      <stop offset="0.19607843137254902" stop-color="#9c8825"/>
      <stop offset="0.7019607843137254" stop-color="#e9db76"/>
      <stop offset="1.0" stop-color="#8e7500"/>
    </linearGradient>
    <linearGradient gradientTransform="matrix(0.0037, 0.0103, -0.0028, 5.0E-4, -3.0, 4.4)" gradientUnits="userSpaceOnUse" id="gradient4" spreadMethod="pad" x1="-819.2" x2="819.2">
      <stop offset="0.0" stop-color="#bda926"/>
      <stop offset="0.19607843137254902" stop-color="#937e1c"/>
      <stop offset="0.7019607843137254" stop-color="#b6ab5d"/>
      <stop offset="1.0" stop-color="#4f4100"/>
    </linearGradient>
  </defs>
</svg>
