<?xml version="1.0" encoding="UTF-8" standalone="no"?>
<svg xmlns:xlink="http://www.w3.org/1999/xlink" height="216.15px" width="398.6px" xmlns="http://www.w3.org/2000/svg">
  <g transform="matrix(1.0, 0.0, 0.0, 1.0, 3.8, 27.4)">
    <path d="M5.5 -26.4 L385.45 -26.4 Q393.8 -26.4 393.8 -18.05 L393.8 179.45 Q393.8 187.75 385.45 187.75 L5.5 187.75 Q-2.8 187.75 -2.8 179.45 L-2.8 -18.05 Q-2.8 -26.4 5.5 -26.4" fill="#080316" fill-rule="evenodd" stroke="none"/>
    <path d="M5.5 -26.4 L385.45 -26.4 Q393.8 -26.4 393.8 -18.05 L393.8 179.45 Q393.8 187.75 385.45 187.75 L5.5 187.75 Q-2.8 187.75 -2.8 179.45 L-2.8 -18.05 Q-2.8 -26.4 5.5 -26.4 Z" fill="none" stroke="url(#gradient0)" stroke-linecap="round" stroke-linejoin="round" stroke-width="2.0"/>
  </g>
  <defs>
    <linearGradient gradientTransform="matrix(0.0027, -0.1252, 0.1313, 0.0029, 192.15, 84.9)" gradientUnits="userSpaceOnUse" id="gradient0" spreadMethod="pad" x1="-819.2" x2="819.2">
      <stop offset="0.0" stop-color="#0b0538"/>
      <stop offset="1.0" stop-color="#562dd6"/>
    </linearGradient>
  </defs>
</svg>
