<?xml version="1.0" encoding="UTF-8" standalone="no"?>
<svg xmlns:xlink="http://www.w3.org/1999/xlink" height="244.35px" width="224.95px" xmlns="http://www.w3.org/2000/svg">
  <g transform="matrix(1.0, 0.0, 0.0, 1.0, 112.45, 120.25)">
    <path d="M0.0 -103.1 L-59.1 -69.0 -59.1 -16.75 -106.45 14.65 -106.45 72.05 -47.3 108.6 -0.05 80.55 47.35 106.65 106.5 72.5 106.5 12.65 59.1 -16.65 59.1 -69.0 0.0 -103.1 M65.1 -82.7 L65.1 -30.5 112.5 -1.2 112.5 84.45 47.45 122.0 0.05 95.95 -47.4 124.1 -112.45 83.9 -112.45 1.55 -65.1 -29.85 -65.1 -82.7 0.0 -120.25 65.1 -82.7" fill="#23140c" fill-rule="evenodd" stroke="none"/>
    <path d="M-88.65 10.1 L-88.65 -3.9 -66.5 -6.95 66.5 -6.95 88.6 -3.9 88.6 10.1 -88.65 10.1" fill="#23140c" fill-rule="evenodd" stroke="none"/>
    <path d="M51.8 -62.15 L51.8 -14.15 -51.8 -14.15 -51.8 -62.15 0.0 -92.05 51.8 -62.15" fill="#23140c" fill-rule="evenodd" stroke="none"/>
    <path d="M-99.05 75.95 L-99.05 51.95 99.05 51.95 99.05 75.95 47.25 105.9 0.0 78.6 -47.25 105.9 -99.05 75.95" fill="#23140c" fill-rule="evenodd" stroke="none"/>
    <path d="M-99.05 40.4 L-99.05 19.3 99.05 19.85 99.05 40.4 -99.05 40.4" fill="#23140c" fill-rule="evenodd" stroke="none"/>
  </g>
</svg>
