<?xml version="1.0" encoding="UTF-8" standalone="no"?>
<svg xmlns:xlink="http://www.w3.org/1999/xlink" height="30.75px" width="303.6px" xmlns="http://www.w3.org/2000/svg">
  <g transform="matrix(1.0, 0.0, 0.0, 1.0, -39.8, -45.7)">
    <path d="M79.95 75.5 L89.25 70.55 98.6 75.5 96.8 65.15 104.4 57.8 93.9 56.35 89.25 46.9 84.6 56.35 74.2 57.8 81.7 65.15 79.95 75.5 Z" fill="none" stroke="url(#gradient0)" stroke-linecap="butt" stroke-linejoin="miter" stroke-width="1.0"/>
    <path d="M89.25 68.95 L96.7 72.9 95.25 64.65 101.3 58.8 93.0 57.6 89.25 50.05 85.5 57.6 77.2 58.8 83.25 64.65 81.85 72.9 89.25 68.95 M79.95 75.5 L81.7 65.15 74.2 57.8 84.6 56.35 89.25 46.9 93.9 56.35 104.4 57.8 96.8 65.15 98.6 75.5 89.25 70.55 79.95 75.5" fill="url(#gradient1)" fill-rule="evenodd" stroke="none"/>
    <path d="M89.25 68.95 L81.85 72.9 83.25 64.65 77.2 58.8 85.5 57.6 89.25 50.05 93.0 57.6 101.3 58.8 95.25 64.65 96.7 72.9 89.25 68.95" fill="url(#gradient2)" fill-rule="evenodd" stroke="none"/>
    <path d="M284.85 75.5 L294.15 70.55 303.5 75.5 301.7 65.15 309.3 57.8 298.8 56.35 294.15 46.9 289.5 56.35 279.1 57.8 286.6 65.15 284.85 75.5 Z" fill="none" stroke="url(#gradient3)" stroke-linecap="butt" stroke-linejoin="miter" stroke-width="1.0"/>
    <path d="M294.15 68.95 L301.6 72.9 300.15 64.65 306.2 58.8 297.9 57.6 294.15 50.05 290.4 57.6 282.1 58.8 288.15 64.65 286.75 72.9 294.15 68.95 M284.85 75.5 L286.6 65.15 279.1 57.8 289.5 56.35 294.15 46.9 298.8 56.35 309.3 57.8 301.7 65.15 303.5 75.5 294.15 70.55 284.85 75.5" fill="url(#gradient4)" fill-rule="evenodd" stroke="none"/>
    <path d="M294.15 68.95 L286.75 72.9 288.15 64.65 282.1 58.8 290.4 57.6 294.15 50.05 297.9 57.6 306.2 58.8 300.15 64.65 301.6 72.9 294.15 68.95" fill="url(#gradient5)" fill-rule="evenodd" stroke="none"/>
    <path d="M45.1 71.35 L52.0 67.7 58.9 71.35 57.55 63.7 63.15 58.3 55.4 57.2 52.0 50.25 48.55 57.2 40.9 58.3 46.4 63.7 45.1 71.35 Z" fill="none" stroke="url(#gradient6)" stroke-linecap="butt" stroke-linejoin="miter" stroke-width="1.0"/>
    <path d="M45.1 71.35 L46.4 63.7 40.9 58.3 48.55 57.2 52.0 50.25 55.4 57.2 63.15 58.3 57.55 63.7 58.9 71.35 52.0 67.7 45.1 71.35 M52.0 66.5 L57.5 69.45 56.4 63.35 60.85 59.05 54.75 58.15 52.0 52.6 49.2 58.15 43.1 59.05 47.55 63.35 46.5 69.45 52.0 66.5" fill="url(#gradient7)" fill-rule="evenodd" stroke="none"/>
    <path d="M52.0 66.5 L46.5 69.45 47.55 63.35 43.1 59.05 49.2 58.15 52.0 52.6 54.75 58.15 60.85 59.05 56.4 63.35 57.5 69.45 52.0 66.5" fill="url(#gradient8)" fill-rule="evenodd" stroke="none"/>
    <path d="M324.3 71.35 L331.2 67.7 338.1 71.35 336.75 63.7 342.35 58.3 334.6 57.2 331.2 50.25 327.75 57.2 320.1 58.3 325.6 63.7 324.3 71.35 Z" fill="none" stroke="url(#gradient9)" stroke-linecap="butt" stroke-linejoin="miter" stroke-width="1.0"/>
    <path d="M324.3 71.35 L325.6 63.7 320.1 58.3 327.75 57.2 331.2 50.25 334.6 57.2 342.35 58.3 336.75 63.7 338.1 71.35 331.2 67.7 324.3 71.35 M331.2 66.5 L336.7 69.45 335.6 63.35 340.05 59.05 333.95 58.15 331.2 52.6 328.4 58.15 322.3 59.05 326.75 63.35 325.7 69.45 331.2 66.5" fill="url(#gradient10)" fill-rule="evenodd" stroke="none"/>
    <path d="M331.2 66.5 L325.7 69.45 326.75 63.35 322.3 59.05 328.4 58.15 331.2 52.6 333.95 58.15 340.05 59.05 335.6 63.35 336.7 69.45 331.2 66.5" fill="url(#gradient11)" fill-rule="evenodd" stroke="none"/>
  </g>
  <defs>
    <linearGradient gradientTransform="matrix(0.0193, 0.0, 0.0, 0.0183, 89.25, 61.2)" gradientUnits="userSpaceOnUse" id="gradient0" spreadMethod="pad" x1="-819.2" x2="819.2">
      <stop offset="0.0" stop-color="#999999"/>
      <stop offset="0.07058823529411765" stop-color="#cccccc"/>
      <stop offset="0.9607843137254902" stop-color="#333333"/>
      <stop offset="1.0" stop-color="#4d4d4d"/>
    </linearGradient>
    <linearGradient gradientTransform="matrix(0.0, -0.0173, -0.0173, 0.0, 89.25, 61.2)" gradientUnits="userSpaceOnUse" id="gradient1" spreadMethod="pad" x1="-819.2" x2="819.2">
      <stop offset="0.0" stop-color="#999999"/>
      <stop offset="0.07058823529411765" stop-color="#cccccc"/>
      <stop offset="0.9607843137254902" stop-color="#333333"/>
      <stop offset="1.0" stop-color="#4d4d4d"/>
    </linearGradient>
    <linearGradient gradientTransform="matrix(0.0, -0.0121, 0.0139, 0.0, 88.25, 61.85)" gradientUnits="userSpaceOnUse" id="gradient2" spreadMethod="pad" x1="-819.2" x2="819.2">
      <stop offset="0.0" stop-color="#7447fd"/>
      <stop offset="1.0" stop-color="#32158b"/>
    </linearGradient>
    <linearGradient gradientTransform="matrix(0.0193, 0.0, 0.0, 0.0183, 294.15, 61.2)" gradientUnits="userSpaceOnUse" id="gradient3" spreadMethod="pad" x1="-819.2" x2="819.2">
      <stop offset="0.0" stop-color="#999999"/>
      <stop offset="0.07058823529411765" stop-color="#cccccc"/>
      <stop offset="0.9607843137254902" stop-color="#333333"/>
      <stop offset="1.0" stop-color="#4d4d4d"/>
    </linearGradient>
    <linearGradient gradientTransform="matrix(0.0, -0.0173, -0.0173, 0.0, 294.15, 61.2)" gradientUnits="userSpaceOnUse" id="gradient4" spreadMethod="pad" x1="-819.2" x2="819.2">
      <stop offset="0.0" stop-color="#999999"/>
      <stop offset="0.07058823529411765" stop-color="#cccccc"/>
      <stop offset="0.9607843137254902" stop-color="#333333"/>
      <stop offset="1.0" stop-color="#4d4d4d"/>
    </linearGradient>
    <linearGradient gradientTransform="matrix(0.0, -0.0121, 0.0139, 0.0, 293.15, 61.85)" gradientUnits="userSpaceOnUse" id="gradient5" spreadMethod="pad" x1="-819.2" x2="819.2">
      <stop offset="0.0" stop-color="#7447fd"/>
      <stop offset="1.0" stop-color="#32158b"/>
    </linearGradient>
    <linearGradient gradientTransform="matrix(0.0142, 0.0, 0.0, 0.0135, 52.0, 60.8)" gradientUnits="userSpaceOnUse" id="gradient6" spreadMethod="pad" x1="-819.2" x2="819.2">
      <stop offset="0.0" stop-color="#999999"/>
      <stop offset="0.07058823529411765" stop-color="#cccccc"/>
      <stop offset="0.9607843137254902" stop-color="#333333"/>
      <stop offset="1.0" stop-color="#4d4d4d"/>
    </linearGradient>
    <linearGradient gradientTransform="matrix(0.0, -0.0127, -0.0128, 0.0, 52.0, 60.8)" gradientUnits="userSpaceOnUse" id="gradient7" spreadMethod="pad" x1="-819.2" x2="819.2">
      <stop offset="0.0" stop-color="#999999"/>
      <stop offset="0.07058823529411765" stop-color="#cccccc"/>
      <stop offset="0.9607843137254902" stop-color="#333333"/>
      <stop offset="1.0" stop-color="#4d4d4d"/>
    </linearGradient>
    <linearGradient gradientTransform="matrix(0.0, -0.009, 0.0103, 0.0, 51.25, 61.3)" gradientUnits="userSpaceOnUse" id="gradient8" spreadMethod="pad" x1="-819.2" x2="819.2">
      <stop offset="0.0" stop-color="#7447fd"/>
      <stop offset="1.0" stop-color="#32158b"/>
    </linearGradient>
    <linearGradient gradientTransform="matrix(0.0142, 0.0, 0.0, 0.0135, 331.2, 60.8)" gradientUnits="userSpaceOnUse" id="gradient9" spreadMethod="pad" x1="-819.2" x2="819.2">
      <stop offset="0.0" stop-color="#999999"/>
      <stop offset="0.07058823529411765" stop-color="#cccccc"/>
      <stop offset="0.9607843137254902" stop-color="#333333"/>
      <stop offset="1.0" stop-color="#4d4d4d"/>
    </linearGradient>
    <linearGradient gradientTransform="matrix(0.0, -0.0127, -0.0128, 0.0, 331.2, 60.8)" gradientUnits="userSpaceOnUse" id="gradient10" spreadMethod="pad" x1="-819.2" x2="819.2">
      <stop offset="0.0" stop-color="#999999"/>
      <stop offset="0.07058823529411765" stop-color="#cccccc"/>
      <stop offset="0.9607843137254902" stop-color="#333333"/>
      <stop offset="1.0" stop-color="#4d4d4d"/>
    </linearGradient>
    <linearGradient gradientTransform="matrix(0.0, -0.009, 0.0103, 0.0, 330.45, 61.3)" gradientUnits="userSpaceOnUse" id="gradient11" spreadMethod="pad" x1="-819.2" x2="819.2">
      <stop offset="0.0" stop-color="#7447fd"/>
      <stop offset="1.0" stop-color="#32158b"/>
    </linearGradient>
  </defs>
</svg>
