<?xml version="1.0" encoding="UTF-8" standalone="no"?>
<svg xmlns:xlink="http://www.w3.org/1999/xlink" height="187.85px" width="464.7px" xmlns="http://www.w3.org/2000/svg">
  <g transform="matrix(1.0, 0.0, 0.0, 1.0, 0.0, 0.0)">
    <path d="M464.55 172.75 L450.4 186.9 0.05 186.9 0.05 14.15 14.2 0.0 464.55 0.0 464.55 172.75" fill="url(#gradient0)" fill-rule="evenodd" stroke="none"/>
    <path d="M464.65 169.4 L464.7 173.1 450.3 187.4 0.0 187.85 0.1 185.3 449.15 185.3 464.65 169.4" fill="url(#gradient1)" fill-rule="evenodd" stroke="none"/>
    <path d="M464.55 143.5 L0.1 143.5 0.1 31.05 464.55 31.05 464.55 143.5" fill="#000000" fill-rule="evenodd" stroke="none"/>
    <path d="M464.55 141.5 L0.1 141.5 0.1 31.05 464.55 31.05 464.55 141.5" fill="url(#gradient2)" fill-rule="evenodd" stroke="none"/>
    <path d="M464.7 167.55 L0.1 167.55 0.1 125.55 464.7 125.55 464.7 167.55" fill="url(#gradient3)" fill-rule="evenodd" stroke="none"/>
    <path d="M0.05 169.55 L0.05 167.6 464.5 167.6 464.5 169.55 0.05 169.55" fill="url(#gradient4)" fill-rule="evenodd" stroke="none"/>
  </g>
  <defs>
    <linearGradient gradientTransform="matrix(0.0, 0.536, 0.536, 0.0, 327.05, 165.95)" gradientUnits="userSpaceOnUse" id="gradient0" spreadMethod="pad" x1="-819.2" x2="819.2">
      <stop offset="0.0" stop-color="#cc0000"/>
      <stop offset="0.1843137254901961" stop-color="#660000"/>
      <stop offset="0.6039215686274509" stop-color="#000000"/>
      <stop offset="0.8196078431372549" stop-color="#000000"/>
    </linearGradient>
    <radialGradient cx="0" cy="0" gradientTransform="matrix(0.2704, 0.0, 0.0, -0.2704, 313.3, 178.85)" gradientUnits="userSpaceOnUse" id="gradient1" r="819.2" spreadMethod="pad">
      <stop offset="0.1607843137254902" stop-color="#cc0000"/>
      <stop offset="1.0" stop-color="#660000"/>
    </radialGradient>
    <linearGradient gradientTransform="matrix(0.0, 0.0706, 0.1222, 0.0, 231.6, 63.85)" gradientUnits="userSpaceOnUse" id="gradient2" spreadMethod="pad" x1="-819.2" x2="819.2">
      <stop offset="0.0" stop-color="#330000"/>
      <stop offset="1.0" stop-color="#000000"/>
    </linearGradient>
    <linearGradient gradientTransform="matrix(0.0, -0.1466, -0.0533, 0.0, 317.25, 123.55)" gradientUnits="userSpaceOnUse" id="gradient3" spreadMethod="pad" x1="-819.2" x2="819.2">
      <stop offset="0.0" stop-color="#cc0000"/>
      <stop offset="0.1843137254901961" stop-color="#660000"/>
      <stop offset="0.6039215686274509" stop-color="#000000"/>
      <stop offset="0.8196078431372549" stop-color="#000000"/>
    </linearGradient>
    <radialGradient cx="0" cy="0" gradientTransform="matrix(0.2835, 0.0, 0.0, 0.7643, 232.3, 168.6)" gradientUnits="userSpaceOnUse" id="gradient4" r="819.2" spreadMethod="pad">
      <stop offset="0.0" stop-color="#cc0000"/>
      <stop offset="0.9764705882352941" stop-color="#660000"/>
    </radialGradient>
  </defs>
</svg>
