<?xml version="1.0" encoding="UTF-8" standalone="no"?>
<svg xmlns:xlink="http://www.w3.org/1999/xlink" height="63.05px" width="463.6px" xmlns="http://www.w3.org/2000/svg">
  <g transform="matrix(1.0, 0.0, 0.0, 1.0, -163.7, -250.3)">
    <path d="M627.3 313.35 L163.7 313.35 163.7 250.3 627.3 250.3 627.3 313.35" fill="url(#gradient0)" fill-rule="evenodd" stroke="none"/>
    <path d="M332.45 255.1 L297.9 255.1 294.1 258.85 294.1 285.2 297.9 288.9 332.45 288.9 336.2 285.2 336.2 258.85 332.45 255.1 Z" fill="none" stroke="url(#gradient1)" stroke-linecap="round" stroke-linejoin="round" stroke-width="3.0"/>
    <path d="M294.1 285.2 L294.1 258.85 297.9 255.1 332.45 255.1 336.2 258.85 336.2 285.2 332.45 288.9 297.9 288.9 294.1 285.2" fill="url(#gradient2)" fill-rule="evenodd" stroke="none"/>
  </g>
  <defs>
    <radialGradient cx="0" cy="0" gradientTransform="matrix(4.0E-4, -0.0911, 0.4502, 0.0023, 395.5, 281.85)" gradientUnits="userSpaceOnUse" id="gradient0" r="819.2" spreadMethod="pad">
      <stop offset="0.0196078431372549" stop-color="#890a0a"/>
      <stop offset="1.0" stop-color="#000000" stop-opacity="0.0"/>
    </radialGradient>
    <linearGradient gradientTransform="matrix(0.0027, -0.0183, 0.0213, 0.0031, 315.15, 272.0)" gradientUnits="userSpaceOnUse" id="gradient1" spreadMethod="pad" x1="-819.2" x2="819.2">
      <stop offset="0.0" stop-color="#ffffff"/>
      <stop offset="1.0" stop-color="#666666"/>
    </linearGradient>
    <radialGradient cx="0" cy="0" gradientTransform="matrix(0.0233, 0.0, 0.0, -0.0233, 315.2, 271.95)" gradientUnits="userSpaceOnUse" id="gradient2" r="819.2" spreadMethod="pad">
      <stop offset="0.0196078431372549" stop-color="#cc0000"/>
      <stop offset="1.0" stop-color="#330000"/>
    </radialGradient>
  </defs>
</svg>
