<?xml version="1.0" encoding="UTF-8" standalone="no"?>
<svg xmlns:xlink="http://www.w3.org/1999/xlink" height="10.9px" width="162.15px" xmlns="http://www.w3.org/2000/svg">
  <g transform="matrix(1.0, 0.0, 0.0, 1.0, 2.4, -21.15)">
    <path d="M159.75 21.15 L155.0 31.85 145.75 31.85 150.45 21.15 159.75 21.15 M134.4 21.35 L129.65 32.05 120.4 32.05 125.1 21.35 134.4 21.35 M147.6 21.15 L142.85 31.85 133.6 31.85 138.3 21.15 147.6 21.15 M120.8 21.35 L116.05 32.05 106.8 32.05 111.5 21.35 120.8 21.35 M93.5 21.35 L88.75 32.05 79.5 32.05 84.2 21.35 93.5 21.35 M102.4 32.05 L93.15 32.05 97.85 21.35 107.15 21.35 102.4 32.05 M79.85 21.35 L75.1 32.05 65.85 32.05 70.55 21.35 79.85 21.35 M52.55 21.35 L47.8 32.05 38.55 32.05 43.25 21.35 52.55 21.35 M61.45 32.05 L52.2 32.05 56.9 21.35 66.2 21.35 61.45 32.05 M38.9 21.35 L34.15 32.05 24.9 32.05 29.6 21.35 38.9 21.35 M11.6 21.35 L6.85 32.05 -2.4 32.05 2.3 21.35 11.6 21.35 M20.5 32.05 L11.25 32.05 15.95 21.35 25.25 21.35 20.5 32.05" fill="#000000" fill-opacity="0.4" fill-rule="evenodd" stroke="none"/>
  </g>
</svg>
