<?xml version="1.0" encoding="UTF-8" standalone="no"?>
<svg xmlns:xlink="http://www.w3.org/1999/xlink" height="244.35px" width="224.95px" xmlns="http://www.w3.org/2000/svg">
  <g transform="matrix(1.0, 0.0, 0.0, 1.0, 112.45, 132.6)">
    <path d="M92.65 -27.4 L92.15 -27.15 91.65 -27.45 91.65 -44.95 92.65 -44.95 92.65 -27.4" fill="url(#gradient0)" fill-rule="evenodd" stroke="none"/>
    <path d="M107.6 -50.0 L92.25 -41.15 76.9 -50.0 76.9 -67.7 92.25 -76.6 107.6 -67.7 107.6 -50.0" fill="url(#gradient1)" fill-rule="evenodd" stroke="none"/>
    <path d="M78.9 -66.55 L78.9 -51.15 92.25 -43.45 105.6 -51.15 105.6 -66.55 92.25 -74.25 78.9 -66.55 M107.6 -67.7 L107.6 -50.0 92.25 -41.15 76.9 -50.0 76.9 -67.7 92.25 -76.6 107.6 -67.7" fill="url(#gradient2)" fill-rule="evenodd" stroke="none"/>
    <path d="M106.5 0.35 L59.1 -29.0 59.1 -81.3 0.0 -115.45 -59.1 -81.3 -59.1 -29.05 -106.45 2.3 -106.45 59.75 -47.3 96.3 -0.05 68.25 47.35 94.3 106.5 60.15 106.5 0.35 M112.5 72.1 L47.45 109.65 0.05 83.65 -47.4 111.75 -112.45 71.55 -112.45 -10.8 -65.1 -42.2 -65.1 -95.0 0.0 -132.6 65.1 -95.0 65.1 -42.85 112.5 -13.5 112.5 72.1" fill="#23140c" fill-rule="evenodd" stroke="none"/>
    <path d="M88.6 -16.2 L88.6 -2.2 -88.65 -2.2 -88.65 -16.2 -66.5 -19.3 66.5 -19.3 88.6 -16.2" fill="#23140c" fill-rule="evenodd" stroke="none"/>
    <path d="M0.0 -104.4 L51.8 -74.5 51.8 -26.5 -51.8 -26.5 -51.8 -74.5 0.0 -104.4" fill="#23140c" fill-rule="evenodd" stroke="none"/>
    <path d="M99.05 39.6 L99.05 63.65 47.25 93.55 0.0 66.3 -47.25 93.55 -99.05 63.65 -99.05 39.6 99.05 39.6" fill="#23140c" fill-rule="evenodd" stroke="none"/>
    <path d="M99.05 7.5 L99.05 28.1 -99.05 28.1 -99.05 7.0 99.05 7.5" fill="#23140c" fill-rule="evenodd" stroke="none"/>
  </g>
  <defs>
    <linearGradient gradientTransform="matrix(0.0, -0.0108, -0.0108, 0.0, 92.15, -36.05)" gradientUnits="userSpaceOnUse" id="gradient0" spreadMethod="pad" x1="-819.2" x2="819.2">
      <stop offset="0.0" stop-color="#1e120b" stop-opacity="0.0"/>
      <stop offset="0.01568627450980392" stop-color="#23150d" stop-opacity="0.019607844"/>
      <stop offset="0.2235294117647059" stop-color="#653e22" stop-opacity="0.3137255"/>
      <stop offset="0.4196078431372549" stop-color="#9c5f34" stop-opacity="0.5568628"/>
      <stop offset="0.6039215686274509" stop-color="#c77a42" stop-opacity="0.7490196"/>
      <stop offset="0.7647058823529411" stop-color="#e68c4c" stop-opacity="0.8862745"/>
      <stop offset="0.9019607843137255" stop-color="#f89852" stop-opacity="0.96862745"/>
      <stop offset="1.0" stop-color="#ff9c54"/>
    </linearGradient>
    <linearGradient gradientTransform="matrix(0.0, -0.0688, -0.0688, 0.0, 92.25, -50.65)" gradientUnits="userSpaceOnUse" id="gradient1" spreadMethod="pad" x1="-819.2" x2="819.2">
      <stop offset="0.00392156862745098" stop-color="#543800"/>
      <stop offset="0.17647058823529413" stop-color="#e9ca00"/>
      <stop offset="0.27058823529411763" stop-color="#6a4a00"/>
      <stop offset="0.3411764705882353" stop-color="#6d4d00"/>
      <stop offset="0.3843137254901961" stop-color="#755500"/>
      <stop offset="0.4235294117647059" stop-color="#846400"/>
      <stop offset="0.4588235294117647" stop-color="#997900"/>
      <stop offset="0.49019607843137253" stop-color="#b49400"/>
      <stop offset="0.5215686274509804" stop-color="#d4b500"/>
      <stop offset="0.5372549019607843" stop-color="#e9ca00"/>
      <stop offset="0.6274509803921569" stop-color="#feffbf"/>
      <stop offset="0.7607843137254902" stop-color="#e9ca00"/>
      <stop offset="0.984313725490196" stop-color="#6a4700"/>
    </linearGradient>
    <linearGradient gradientTransform="matrix(0.0187, 0.0, 0.0, -0.0187, 92.25, -58.85)" gradientUnits="userSpaceOnUse" id="gradient2" spreadMethod="pad" x1="-819.2" x2="819.2">
      <stop offset="0.07450980392156863" stop-color="#543800"/>
      <stop offset="0.17647058823529413" stop-color="#e9ca00"/>
      <stop offset="0.43529411764705883" stop-color="#6a4a00"/>
      <stop offset="0.4588235294117647" stop-color="#836300"/>
      <stop offset="0.5058823529411764" stop-color="#af8f00"/>
      <stop offset="0.5490196078431373" stop-color="#ceaf00"/>
      <stop offset="0.5843137254901961" stop-color="#e2c300"/>
      <stop offset="0.6078431372549019" stop-color="#e9ca00"/>
      <stop offset="0.6431372549019608" stop-color="#e9ca00"/>
      <stop offset="0.8196078431372549" stop-color="#fff87f"/>
      <stop offset="0.8784313725490196" stop-color="#e9ca00"/>
      <stop offset="0.984313725490196" stop-color="#6a4700"/>
    </linearGradient>
  </defs>
</svg>
