<?xml version="1.0" encoding="UTF-8" standalone="no"?>
<svg xmlns:xlink="http://www.w3.org/1999/xlink" height="71.8px" width="131.45px" xmlns="http://www.w3.org/2000/svg">
  <g transform="matrix(1.0, 0.0, 0.0, 1.0, 37.9, 9.0)">
    <path d="M55.95 -8.95 L50.15 -5.05 48.15 -3.85 46.1 -2.45 43.5 -0.75 41.65 0.55 41.4 0.65 41.65 0.75 77.0 6.9 79.45 11.05 84.3 19.3 84.3 34.1 M58.05 -8.55 L52.4 -4.65 50.4 -3.35 48.4 -2.05 45.9 -0.45 79.45 5.35 82.9 11.05 86.8 17.75 86.8 32.55 M63.6 -7.55 L58.05 -3.75 56.05 -2.45 84.1 2.4 85.25 4.45 89.15 11.05 91.4 14.85 91.4 29.6 M61.25 -8.0 L55.45 -4.2 53.45 -2.9 51.45 -1.5 82.05 4.05 83.25 6.05 86.2 11.05 89.15 16.15 89.15 30.9 M67.3 -6.95 L61.7 -3.25 86.2 0.65 87.6 3.0 91.3 9.35 93.5 13.15 93.5 27.95 M-3.4 55.25 L-3.4 41.65 -0.2 27.95 7.25 23.1 9.6 21.55 11.75 20.15 13.85 18.75 16.0 17.3 39.05 21.1 41.65 21.45 53.1 23.35 54.5 25.7 60.4 35.85 60.4 50.65 M7.7 57.5 L7.7 43.9 11.0 30.2 18.7 25.1 43.9 29.6 51.2 42.0 51.2 56.75 M1.9 56.3 L1.9 42.7 5.1 29.0 12.7 24.05 15.05 22.5 17.2 21.1 48.95 26.75 50.15 28.75 56.05 38.8 56.05 53.6 M4.75 56.9 L4.75 43.3 7.95 29.6 15.5 24.5 17.9 22.95 46.35 28.05 53.7 40.45 53.7 55.25 M-0.8 55.85 L-0.8 42.25 2.4 28.55 9.95 23.55 12.2 22.05 14.45 20.6 16.6 19.2 16.6 19.05 51.0 25.1 52.15 27.1 58.3 37.5 58.3 52.3" fill="none" stroke="#000000" stroke-linecap="round" stroke-linejoin="round" stroke-opacity="0.5686275" stroke-width="0.1"/>
    <path d="M61.4 17.65 L60.2 18.35 60.1 18.25 60.55 17.9 Q61.0 17.55 61.15 17.55 L61.4 17.65 M54.3 22.75 Q54.3 23.2 50.5 25.95 L45.4 29.35 37.0 34.35 37.15 34.45 37.15 34.55 Q37.75 37.05 39.3 40.85 L39.5 41.3 40.0 43.45 41.15 47.65 42.2 47.9 Q50.5 42.15 56.3 38.55 L65.15 33.05 42.0 48.65 42.1 48.85 41.4 52.85 42.0 58.3 41.75 62.8 41.4 62.8 41.3 59.0 41.5 58.3 Q40.9 54.4 40.9 52.85 L41.3 50.25 41.05 50.25 40.45 49.2 40.1 49.2 40.0 48.75 Q40.0 47.9 40.8 47.8 L40.8 47.65 40.1 45.55 39.6 43.2 36.8 34.65 36.7 34.65 35.95 34.8 Q35.25 34.8 34.8 34.35 L30.9 34.1 30.65 33.85 29.2 33.85 Q24.75 33.25 23.9 32.45 L21.65 32.2 19.55 31.85 16.8 31.5 14.9 30.75 14.9 30.65 17.9 31.25 23.9 32.2 30.5 33.35 30.9 33.6 32.9 33.85 34.9 33.95 36.8 34.2 36.8 34.1 Q37.0 33.35 40.45 31.6 L45.65 28.75 54.15 22.5 54.3 22.75 M54.15 21.9 L54.05 22.15 53.9 22.15 53.7 22.05 54.15 21.9 M57.95 20.25 L57.7 20.6 57.35 19.9 58.05 19.8 57.95 20.25 M46.0 27.95 Q46.0 27.45 47.1 26.85 L47.55 26.65 46.0 27.95 M-16.3 24.05 L-13.2 21.9 Q-9.05 19.3 -7.65 18.25 -2.35 14.0 1.0 12.45 L1.1 12.45 Q-5.5 17.65 -16.15 24.4 L-16.15 24.05 -16.3 24.05 M12.1 30.3 L10.55 29.95 10.2 29.6 8.8 29.45 12.0 29.85 12.1 30.3 M13.75 30.65 L12.45 30.3 12.8 30.3 13.6 30.55 13.75 30.65 M7.1 29.35 L4.4 28.75 -0.8 28.05 -1.75 28.05 Q-2.35 27.7 -3.85 27.35 -2.55 27.45 -1.6 27.85 L1.0 28.05 7.0 29.25 7.1 29.35 M-15.9 24.4 L-15.7 25.35 Q-15.7 27.35 -16.5 30.3 -17.45 33.15 -17.45 34.9 L-18.15 36.55 -18.5 36.55 -18.5 35.25 Q-17.7 33.15 -16.05 24.4 L-15.9 24.4 M-13.2 25.35 L-11.1 25.7 Q-9.9 25.7 -8.95 26.4 L-13.3 25.8 -13.2 25.35" fill="#ffffff" fill-opacity="0.4392157" fill-rule="evenodd" stroke="none"/>
    <path d="M-16.15 24.4 L-16.3 24.4 Q-17.8 24.4 -18.3 23.95 L-20.55 23.45 Q-21.1 23.1 -21.3 23.1 L-20.75 23.1 Q-20.05 23.7 -18.3 23.95 L-16.3 24.05 -16.15 24.05 -16.15 24.4 M-35.2 20.35 L-32.45 20.5 -27.6 21.65 Q-25.4 21.9 -23.15 22.75 L-23.15 22.85 -24.2 22.75 -24.8 22.5 Q-24.9 22.25 -26.2 22.5 -29.85 21.35 -35.2 20.85 L-35.2 20.35 M-28.45 35.75 L-21.6 36.8 -19.35 37.25 -18.15 37.4 -17.8 37.65 Q-17.8 38.0 -18.15 38.0 L-18.3 37.85 -19.25 37.85 -29.85 35.65 Q-32.35 35.4 -32.95 34.8 L-34.1 34.65 Q-36.15 34.8 -37.9 33.95 -37.55 33.6 -34.0 34.55 -31.3 34.9 -28.45 35.75" fill="#ffffff" fill-opacity="0.43137255" fill-rule="evenodd" stroke="none"/>
    <path d="M4.5 -0.3 Q3.7 -1.15 1.55 -1.5 L1.7 -4.55 Q4.4 -3.95 5.1 -2.55 5.45 -1.6 4.5 -0.3" fill="#4e4e4e" fill-rule="evenodd" stroke="none"/>
    <path d="M1.55 -1.5 Q3.7 -1.15 4.5 -0.3 L3.0 1.0 Q0.4 3.0 -4.1 3.85 L-6.8 4.45 1.55 -1.5" fill="#8a8a8a" fill-rule="evenodd" stroke="none"/>
  </g>
</svg>
