<?xml version="1.0" encoding="UTF-8" standalone="no"?>
<svg xmlns:xlink="http://www.w3.org/1999/xlink" height="177.7px" width="192.85px" xmlns="http://www.w3.org/2000/svg">
  <g transform="matrix(1.0, 0.0, 0.0, 1.0, 95.4, 114.7)">
    <path d="M42.65 41.4 L60.55 20.65 -58.55 20.65 -40.65 41.4 42.65 41.4 M-76.2 -9.95 L-66.75 -3.65 68.75 -3.65 78.2 -9.95 -76.2 -9.95 M-67.05 -46.95 L-76.2 -31.1 78.2 -31.1 69.05 -46.95 -67.05 -46.95 M-47.2 -114.7 L49.2 -114.7 97.45 -36.7 97.45 -20.5 49.2 63.0 -47.2 63.0 -95.4 -20.5 -95.4 -36.7 -47.2 -114.7 M-40.65 -92.65 L-58.8 -68.0 60.85 -68.0 42.65 -92.65 -40.65 -92.65" fill="#23140c" fill-rule="evenodd" stroke="none"/>
    <path d="M-46.65 63.0 L-47.65 63.0 -47.65 42.4 -46.65 42.4 -46.65 63.0" fill="url(#gradient0)" fill-rule="evenodd" stroke="none"/>
  </g>
  <defs>
    <linearGradient gradientTransform="matrix(0.0, -0.0126, -0.0126, 0.0, -47.15, 52.7)" gradientUnits="userSpaceOnUse" id="gradient0" spreadMethod="pad" x1="-819.2" x2="819.2">
      <stop offset="0.0" stop-color="#1e120b" stop-opacity="0.0"/>
      <stop offset="0.01568627450980392" stop-color="#23150d" stop-opacity="0.019607844"/>
      <stop offset="0.2235294117647059" stop-color="#653e22" stop-opacity="0.3137255"/>
      <stop offset="0.4196078431372549" stop-color="#9c5f34" stop-opacity="0.5568628"/>
      <stop offset="0.6039215686274509" stop-color="#c77a42" stop-opacity="0.7490196"/>
      <stop offset="0.7647058823529411" stop-color="#e68c4c" stop-opacity="0.8862745"/>
      <stop offset="0.9019607843137255" stop-color="#f89852" stop-opacity="0.96862745"/>
      <stop offset="1.0" stop-color="#ff9c54"/>
    </linearGradient>
  </defs>
</svg>
