<?xml version="1.0" encoding="UTF-8" standalone="no"?>
<svg xmlns:xlink="http://www.w3.org/1999/xlink" height="96.85px" width="351.4px" xmlns="http://www.w3.org/2000/svg">
  <g transform="matrix(1.0, 0.0, 0.0, 1.0, 175.7, -9.4)">
    <path d="M-91.85 106.15 L-147.7 106.25 -175.7 57.95 -147.9 9.5 -92.05 9.4 -64.0 57.7 -91.85 106.15 M-142.2 19.3 L-164.35 57.9 -142.05 96.4 -97.55 96.3 -75.35 57.7 -97.7 19.2 -142.2 19.3" fill="url(#gradient0)" fill-rule="evenodd" stroke="none"/>
    <path d="M97.5 19.3 L75.35 57.9 97.65 96.4 142.2 96.3 164.35 57.7 142.0 19.2 97.5 19.3 M147.65 9.4 L175.7 57.7 147.85 106.15 92.0 106.25 64.0 57.95 91.8 9.5 147.65 9.4" fill="url(#gradient1)" fill-rule="evenodd" stroke="none"/>
    <path d="M-143.35 17.3 L-96.55 17.2 -73.05 57.7 -96.4 98.3 -143.2 98.4 -166.65 57.9 -143.35 17.3 M-97.7 19.2 L-142.2 19.3 -164.35 57.9 -142.05 96.4 -97.55 96.3 -75.35 57.7 -97.7 19.2 M-93.0 104.15 L-66.35 57.7 -93.2 11.4 -146.75 11.5 -173.35 57.95 -146.55 104.25 -93.0 104.15 M-64.0 57.7 L-91.85 106.15 -147.7 106.25 -175.7 57.95 -147.9 9.5 -92.05 9.4 -64.0 57.7" fill="url(#gradient2)" fill-rule="evenodd" stroke="none"/>
    <path d="M96.35 17.3 L143.15 17.2 166.65 57.7 143.35 98.3 96.5 98.4 73.0 57.9 96.35 17.3 M146.5 11.4 L92.95 11.5 66.3 57.95 93.15 104.25 146.7 104.15 173.4 57.7 146.5 11.4 M91.8 9.5 L147.65 9.4 175.7 57.7 147.85 106.15 92.0 106.25 64.0 57.95 91.8 9.5 M142.0 19.2 L97.5 19.3 75.35 57.9 97.65 96.4 142.2 96.3 164.35 57.7 142.0 19.2" fill="url(#gradient3)" fill-rule="evenodd" stroke="none"/>
  </g>
  <defs>
    <linearGradient gradientTransform="matrix(0.0, -0.0591, -0.0591, 0.0, -119.85, 57.8)" gradientUnits="userSpaceOnUse" id="gradient0" spreadMethod="pad" x1="-819.2" x2="819.2">
      <stop offset="0.00392156862745098" stop-color="#543800"/>
      <stop offset="0.17647058823529413" stop-color="#e9ca00"/>
      <stop offset="0.43529411764705883" stop-color="#6a4a00"/>
      <stop offset="0.44313725490196076" stop-color="#836300"/>
      <stop offset="0.4627450980392157" stop-color="#af8f00"/>
      <stop offset="0.47843137254901963" stop-color="#ceaf00"/>
      <stop offset="0.49019607843137253" stop-color="#e2c300"/>
      <stop offset="0.5019607843137255" stop-color="#e9ca00"/>
      <stop offset="0.6274509803921569" stop-color="#feffbf"/>
      <stop offset="0.7607843137254902" stop-color="#e9ca00"/>
      <stop offset="0.984313725490196" stop-color="#6a4700"/>
    </linearGradient>
    <linearGradient gradientTransform="matrix(0.0, -0.0591, -0.0591, 0.0, 119.85, 57.8)" gradientUnits="userSpaceOnUse" id="gradient1" spreadMethod="pad" x1="-819.2" x2="819.2">
      <stop offset="0.00392156862745098" stop-color="#543800"/>
      <stop offset="0.17647058823529413" stop-color="#e9ca00"/>
      <stop offset="0.43529411764705883" stop-color="#6a4a00"/>
      <stop offset="0.44313725490196076" stop-color="#836300"/>
      <stop offset="0.4627450980392157" stop-color="#af8f00"/>
      <stop offset="0.47843137254901963" stop-color="#ceaf00"/>
      <stop offset="0.49019607843137253" stop-color="#e2c300"/>
      <stop offset="0.5019607843137255" stop-color="#e9ca00"/>
      <stop offset="0.6274509803921569" stop-color="#feffbf"/>
      <stop offset="0.7607843137254902" stop-color="#e9ca00"/>
      <stop offset="0.984313725490196" stop-color="#6a4700"/>
    </linearGradient>
    <linearGradient gradientTransform="matrix(0.0682, 0.0, 0.0, -0.0682, -119.85, 57.8)" gradientUnits="userSpaceOnUse" id="gradient2" spreadMethod="pad" x1="-819.2" x2="819.2">
      <stop offset="0.07450980392156863" stop-color="#543800"/>
      <stop offset="0.17647058823529413" stop-color="#e9ca00"/>
      <stop offset="0.43529411764705883" stop-color="#6a4a00"/>
      <stop offset="0.4588235294117647" stop-color="#836300"/>
      <stop offset="0.5058823529411764" stop-color="#af8f00"/>
      <stop offset="0.5490196078431373" stop-color="#ceaf00"/>
      <stop offset="0.5843137254901961" stop-color="#e2c300"/>
      <stop offset="0.6078431372549019" stop-color="#e9ca00"/>
      <stop offset="0.6431372549019608" stop-color="#e9ca00"/>
      <stop offset="0.8196078431372549" stop-color="#fff87f"/>
      <stop offset="0.8784313725490196" stop-color="#e9ca00"/>
      <stop offset="0.984313725490196" stop-color="#6a4700"/>
    </linearGradient>
    <linearGradient gradientTransform="matrix(0.0682, 0.0, 0.0, -0.0682, 119.85, 57.8)" gradientUnits="userSpaceOnUse" id="gradient3" spreadMethod="pad" x1="-819.2" x2="819.2">
      <stop offset="0.07450980392156863" stop-color="#543800"/>
      <stop offset="0.17647058823529413" stop-color="#e9ca00"/>
      <stop offset="0.43529411764705883" stop-color="#6a4a00"/>
      <stop offset="0.4588235294117647" stop-color="#836300"/>
      <stop offset="0.5058823529411764" stop-color="#af8f00"/>
      <stop offset="0.5490196078431373" stop-color="#ceaf00"/>
      <stop offset="0.5843137254901961" stop-color="#e2c300"/>
      <stop offset="0.6078431372549019" stop-color="#e9ca00"/>
      <stop offset="0.6431372549019608" stop-color="#e9ca00"/>
      <stop offset="0.8196078431372549" stop-color="#fff87f"/>
      <stop offset="0.8784313725490196" stop-color="#e9ca00"/>
      <stop offset="0.984313725490196" stop-color="#6a4700"/>
    </linearGradient>
  </defs>
</svg>
