<?xml version="1.0" encoding="UTF-8" standalone="no"?>
<svg xmlns:xlink="http://www.w3.org/1999/xlink" height="204.05px" width="390.45px" xmlns="http://www.w3.org/2000/svg">
  <g transform="matrix(1.0, 0.0, 0.0, 1.0, 195.2, 98.45)">
    <path d="M-139.4 -7.8 L-157.1 -7.8 -165.9 7.5 -157.1 22.85 -139.4 22.85 -130.55 7.5 -139.4 -7.8 M-195.2 -39.5 L-101.25 -39.5 -101.25 54.55 -195.2 54.55 -195.2 -39.5" fill="#23140c" fill-rule="evenodd" stroke="none"/>
    <path d="M165.95 7.5 L157.1 -7.8 139.35 -7.8 130.5 7.5 139.35 22.85 157.1 22.85 165.95 7.5 M101.2 -39.5 L195.25 -39.5 195.25 54.55 101.2 54.55 101.2 -39.5" fill="#23140c" fill-rule="evenodd" stroke="none"/>
    <path d="M84.95 -49.4 L84.95 56.55 0.0 105.6 -84.95 56.55 -84.95 -49.4 0.0 -98.45 84.95 -49.4 M75.1 25.4 L75.1 11.25 -75.15 11.25 -75.15 25.4 75.1 25.4 M75.1 45.0 L75.1 42.7 -75.15 42.7 -75.15 45.0 0.0 88.35 75.1 45.0 M75.1 -33.1 L75.1 -35.85 0.0 -79.25 -75.15 -35.85 -75.15 -33.1 75.1 -33.1 M75.1 -2.1 L75.1 -19.8 -75.15 -19.8 -75.15 -2.1 75.1 -2.1" fill="#23140c" fill-rule="evenodd" stroke="none"/>
  </g>
</svg>
