<?xml version="1.0" encoding="UTF-8" standalone="no"?>
<svg xmlns:xlink="http://www.w3.org/1999/xlink" height="196.15px" width="390.45px" xmlns="http://www.w3.org/2000/svg">
  <g transform="matrix(1.0, 0.0, 0.0, 1.0, 195.2, 105.55)">
    <path d="M-101.25 54.55 L-102.25 54.55 -102.25 38.75 -101.25 38.75 -101.25 54.55" fill="url(#gradient0)" fill-rule="evenodd" stroke="none"/>
    <path d="M-194.2 54.55 L-195.2 54.55 -195.2 38.75 -194.2 38.75 -194.2 54.55" fill="url(#gradient1)" fill-rule="evenodd" stroke="none"/>
    <path d="M-139.4 -22.8 L-157.1 -22.8 -165.9 -7.5 -157.1 7.85 -139.4 7.85 -130.55 -7.5 -139.4 -22.8 M-195.2 -54.5 L-101.25 -54.5 -101.25 39.55 -195.2 39.55 -195.2 -54.5" fill="url(#gradient2)" fill-rule="evenodd" stroke="none"/>
    <path d="M157.1 7.85 L165.95 -7.5 157.1 -22.8 139.35 -22.8 130.5 -7.5 139.35 7.85 157.1 7.85 M101.2 -54.5 L195.25 -54.5 195.25 39.55 101.2 39.55 101.2 -54.5" fill="url(#gradient3)" fill-rule="evenodd" stroke="none"/>
    <path d="M84.95 -56.5 L84.95 41.55 0.0 90.6 -84.95 41.55 -84.95 -56.5 0.0 -105.55 84.95 -56.5 M75.1 15.4 L75.1 1.25 -75.15 1.25 -75.15 15.4 75.1 15.4 M75.1 35.9 L75.1 27.7 -75.15 27.7 -75.15 35.9 0.0 79.25 75.1 35.9 M75.1 -17.1 L75.1 -30.8 -75.15 -30.8 -75.15 -17.1 75.1 -17.1 M75.1 -43.1 L75.1 -50.85 0.0 -94.25 -75.15 -50.85 -75.15 -43.1 75.1 -43.1" fill="url(#gradient4)" fill-rule="evenodd" stroke="none"/>
    <path d="M-158.25 9.85 L-168.2 -7.5 -158.25 -24.8 -138.25 -24.8 -128.2 -7.5 -138.25 9.85 -158.25 9.85 M-165.9 -7.5 L-157.1 7.85 -139.4 7.85 -130.55 -7.5 -139.4 -22.8 -157.1 -22.8 -165.9 -7.5 M-103.25 -52.5 L-193.2 -52.5 -193.2 37.55 -103.25 37.55 -103.25 -52.5 M-195.2 -54.5 L-101.25 -54.5 -101.25 39.55 -195.2 39.55 -195.2 -54.5" fill="url(#gradient5)" fill-rule="evenodd" stroke="none"/>
    <path d="M168.25 -7.5 L158.25 9.85 138.2 9.85 128.2 -7.5 138.2 -24.8 158.25 -24.8 168.25 -7.5 M157.1 7.85 L165.95 -7.5 157.1 -22.8 139.35 -22.8 130.5 -7.5 139.35 7.85 157.1 7.85 M193.25 -52.5 L103.2 -52.5 103.2 37.55 193.25 37.55 193.25 -52.5 M101.2 -54.5 L195.25 -54.5 195.25 39.55 101.2 39.55 101.2 -54.5" fill="url(#gradient6)" fill-rule="evenodd" stroke="none"/>
    <path d="M82.95 40.4 L82.95 -55.35 0.0 -103.25 -82.95 -55.35 -82.95 40.4 0.0 88.3 82.95 40.4 M84.95 -56.5 L84.95 41.55 0.0 90.6 -84.95 41.55 -84.95 -56.5 0.0 -105.55 84.95 -56.5 M77.1 -0.75 L77.1 17.4 -77.15 17.4 -77.15 -0.75 77.1 -0.75 M75.1 15.4 L75.1 1.25 -75.15 1.25 -75.15 15.4 75.1 15.4 M77.1 25.7 L77.1 37.05 0.0 81.6 -77.15 37.05 -77.15 25.7 77.1 25.7 M75.1 35.9 L75.1 27.7 -75.15 27.7 -75.15 35.9 0.0 79.25 75.1 35.9 M77.1 -32.8 L77.1 -15.1 -77.15 -15.1 -77.15 -32.8 77.1 -32.8 M75.1 -17.1 L75.1 -30.8 -75.15 -30.8 -75.15 -17.1 75.1 -17.1 M77.1 -52.0 L77.1 -41.1 -77.15 -41.1 -77.15 -52.0 0.0 -96.55 77.1 -52.0 M75.1 -43.1 L75.1 -50.85 0.0 -94.25 -75.15 -50.85 -75.15 -43.1 75.1 -43.1" fill="url(#gradient7)" fill-rule="evenodd" stroke="none"/>
  </g>
  <defs>
    <linearGradient gradientTransform="matrix(0.0, -0.0096, -0.0096, 0.0, -101.75, 46.65)" gradientUnits="userSpaceOnUse" id="gradient0" spreadMethod="pad" x1="-819.2" x2="819.2">
      <stop offset="0.0" stop-color="#1e120b" stop-opacity="0.0"/>
      <stop offset="0.01568627450980392" stop-color="#23150d" stop-opacity="0.019607844"/>
      <stop offset="0.2235294117647059" stop-color="#653e22" stop-opacity="0.3137255"/>
      <stop offset="0.4196078431372549" stop-color="#9c5f34" stop-opacity="0.5568628"/>
      <stop offset="0.6039215686274509" stop-color="#c77a42" stop-opacity="0.7490196"/>
      <stop offset="0.7647058823529411" stop-color="#e68c4c" stop-opacity="0.8862745"/>
      <stop offset="0.9019607843137255" stop-color="#f89852" stop-opacity="0.96862745"/>
      <stop offset="1.0" stop-color="#ff9c54"/>
    </linearGradient>
    <linearGradient gradientTransform="matrix(0.0, -0.0096, -0.0096, 0.0, -194.7, 46.65)" gradientUnits="userSpaceOnUse" id="gradient1" spreadMethod="pad" x1="-819.2" x2="819.2">
      <stop offset="0.0" stop-color="#1e120b" stop-opacity="0.0"/>
      <stop offset="0.01568627450980392" stop-color="#23150d" stop-opacity="0.019607844"/>
      <stop offset="0.2235294117647059" stop-color="#653e22" stop-opacity="0.3137255"/>
      <stop offset="0.4196078431372549" stop-color="#9c5f34" stop-opacity="0.5568628"/>
      <stop offset="0.6039215686274509" stop-color="#c77a42" stop-opacity="0.7490196"/>
      <stop offset="0.7647058823529411" stop-color="#e68c4c" stop-opacity="0.8862745"/>
      <stop offset="0.9019607843137255" stop-color="#f89852" stop-opacity="0.96862745"/>
      <stop offset="1.0" stop-color="#ff9c54"/>
    </linearGradient>
    <linearGradient gradientTransform="matrix(0.0, -0.1429, -0.1429, 0.0, -148.25, -8.75)" gradientUnits="userSpaceOnUse" id="gradient2" spreadMethod="pad" x1="-819.2" x2="819.2">
      <stop offset="0.00392156862745098" stop-color="#543800"/>
      <stop offset="0.17647058823529413" stop-color="#e9ca00"/>
      <stop offset="0.43529411764705883" stop-color="#6a4a00"/>
      <stop offset="0.44313725490196076" stop-color="#836300"/>
      <stop offset="0.4627450980392157" stop-color="#af8f00"/>
      <stop offset="0.47843137254901963" stop-color="#ceaf00"/>
      <stop offset="0.49019607843137253" stop-color="#e2c300"/>
      <stop offset="0.5019607843137255" stop-color="#e9ca00"/>
      <stop offset="0.6274509803921569" stop-color="#feffbf"/>
      <stop offset="0.7607843137254902" stop-color="#e9ca00"/>
      <stop offset="0.984313725490196" stop-color="#6a4700"/>
    </linearGradient>
    <linearGradient gradientTransform="matrix(0.0, -0.1429, -0.1429, 0.0, 148.2, -8.75)" gradientUnits="userSpaceOnUse" id="gradient3" spreadMethod="pad" x1="-819.2" x2="819.2">
      <stop offset="0.00392156862745098" stop-color="#543800"/>
      <stop offset="0.17647058823529413" stop-color="#e9ca00"/>
      <stop offset="0.43529411764705883" stop-color="#6a4a00"/>
      <stop offset="0.44313725490196076" stop-color="#836300"/>
      <stop offset="0.4627450980392157" stop-color="#af8f00"/>
      <stop offset="0.47843137254901963" stop-color="#ceaf00"/>
      <stop offset="0.49019607843137253" stop-color="#e2c300"/>
      <stop offset="0.5019607843137255" stop-color="#e9ca00"/>
      <stop offset="0.6274509803921569" stop-color="#feffbf"/>
      <stop offset="0.7607843137254902" stop-color="#e9ca00"/>
      <stop offset="0.984313725490196" stop-color="#6a4700"/>
    </linearGradient>
    <linearGradient gradientTransform="matrix(0.0, -0.1429, -0.1429, 0.0, 0.0, -8.75)" gradientUnits="userSpaceOnUse" id="gradient4" spreadMethod="pad" x1="-819.2" x2="819.2">
      <stop offset="0.00392156862745098" stop-color="#543800"/>
      <stop offset="0.17647058823529413" stop-color="#e9ca00"/>
      <stop offset="0.43529411764705883" stop-color="#6a4a00"/>
      <stop offset="0.44313725490196076" stop-color="#836300"/>
      <stop offset="0.4627450980392157" stop-color="#af8f00"/>
      <stop offset="0.47843137254901963" stop-color="#ceaf00"/>
      <stop offset="0.49019607843137253" stop-color="#e2c300"/>
      <stop offset="0.5019607843137255" stop-color="#e9ca00"/>
      <stop offset="0.6274509803921569" stop-color="#feffbf"/>
      <stop offset="0.7607843137254902" stop-color="#e9ca00"/>
      <stop offset="0.984313725490196" stop-color="#6a4700"/>
    </linearGradient>
    <linearGradient gradientTransform="matrix(0.0574, 0.0, 0.0, -0.0574, -148.25, -7.5)" gradientUnits="userSpaceOnUse" id="gradient5" spreadMethod="pad" x1="-819.2" x2="819.2">
      <stop offset="0.07450980392156863" stop-color="#543800"/>
      <stop offset="0.17647058823529413" stop-color="#e9ca00"/>
      <stop offset="0.43529411764705883" stop-color="#6a4a00"/>
      <stop offset="0.4588235294117647" stop-color="#836300"/>
      <stop offset="0.5058823529411764" stop-color="#af8f00"/>
      <stop offset="0.5490196078431373" stop-color="#ceaf00"/>
      <stop offset="0.5843137254901961" stop-color="#e2c300"/>
      <stop offset="0.6078431372549019" stop-color="#e9ca00"/>
      <stop offset="0.6431372549019608" stop-color="#e9ca00"/>
      <stop offset="0.8196078431372549" stop-color="#fff87f"/>
      <stop offset="0.8784313725490196" stop-color="#e9ca00"/>
      <stop offset="0.984313725490196" stop-color="#6a4700"/>
    </linearGradient>
    <linearGradient gradientTransform="matrix(0.0574, 0.0, 0.0, -0.0574, 148.2, -7.5)" gradientUnits="userSpaceOnUse" id="gradient6" spreadMethod="pad" x1="-819.2" x2="819.2">
      <stop offset="0.07450980392156863" stop-color="#543800"/>
      <stop offset="0.17647058823529413" stop-color="#e9ca00"/>
      <stop offset="0.43529411764705883" stop-color="#6a4a00"/>
      <stop offset="0.4588235294117647" stop-color="#836300"/>
      <stop offset="0.5058823529411764" stop-color="#af8f00"/>
      <stop offset="0.5490196078431373" stop-color="#ceaf00"/>
      <stop offset="0.5843137254901961" stop-color="#e2c300"/>
      <stop offset="0.6078431372549019" stop-color="#e9ca00"/>
      <stop offset="0.6431372549019608" stop-color="#e9ca00"/>
      <stop offset="0.8196078431372549" stop-color="#fff87f"/>
      <stop offset="0.8784313725490196" stop-color="#e9ca00"/>
      <stop offset="0.984313725490196" stop-color="#6a4700"/>
    </linearGradient>
    <linearGradient gradientTransform="matrix(0.1037, 0.0, 0.0, -0.1037, 0.0, -7.5)" gradientUnits="userSpaceOnUse" id="gradient7" spreadMethod="pad" x1="-819.2" x2="819.2">
      <stop offset="0.07450980392156863" stop-color="#543800"/>
      <stop offset="0.17647058823529413" stop-color="#e9ca00"/>
      <stop offset="0.43529411764705883" stop-color="#6a4a00"/>
      <stop offset="0.4588235294117647" stop-color="#836300"/>
      <stop offset="0.5058823529411764" stop-color="#af8f00"/>
      <stop offset="0.5490196078431373" stop-color="#ceaf00"/>
      <stop offset="0.5843137254901961" stop-color="#e2c300"/>
      <stop offset="0.6078431372549019" stop-color="#e9ca00"/>
      <stop offset="0.6431372549019608" stop-color="#e9ca00"/>
      <stop offset="0.8196078431372549" stop-color="#fff87f"/>
      <stop offset="0.8784313725490196" stop-color="#e9ca00"/>
      <stop offset="0.984313725490196" stop-color="#6a4700"/>
    </linearGradient>
  </defs>
</svg>
