<?xml version="1.0" encoding="UTF-8" standalone="no"?>
<svg xmlns:xlink="http://www.w3.org/1999/xlink" height="204.05px" width="169.9px" xmlns="http://www.w3.org/2000/svg">
  <g transform="matrix(1.0, 0.0, 0.0, 1.0, 84.25, 98.45)">
    <path d="M-84.25 56.55 L-84.25 -49.4 0.7 -98.45 85.65 -49.4 85.65 56.55 0.7 105.6 -84.25 56.55 M0.7 -79.25 L-74.45 -35.85 -74.45 -33.1 75.8 -33.1 75.8 -35.85 0.7 -79.25 M-74.45 11.25 L-74.45 25.4 75.8 25.4 75.8 11.25 -74.45 11.25 M-74.45 42.7 L-74.45 45.0 0.7 88.35 75.8 45.0 75.8 42.7 -74.45 42.7 M-74.45 -19.8 L-74.45 -2.1 75.8 -2.1 75.8 -19.8 -74.45 -19.8" fill="#23140c" fill-rule="evenodd" stroke="none"/>
  </g>
</svg>
