<?xml version="1.0" encoding="UTF-8" standalone="no"?>
<svg xmlns:xlink="http://www.w3.org/1999/xlink" height="206.2px" width="364.35px" xmlns="http://www.w3.org/2000/svg">
  <g transform="matrix(1.0, 0.0, 0.0, 1.0, 182.15, 101.1)">
    <path d="M-85.0 32.65 L-85.0 30.35 -153.7 30.35 -153.7 32.65 -85.0 32.65 M-85.0 -23.65 L-85.0 -26.2 -153.7 -26.2 -153.7 -23.65 -85.0 -23.65 M-85.0 -3.85 L-85.0 -7.85 -153.7 -7.85 -153.7 -3.85 -85.0 -3.85 M-85.0 15.25 L-85.0 11.7 -153.7 11.7 -153.7 15.25 -85.0 15.25 M75.1 24.0 L75.1 15.75 -75.15 15.75 -75.15 24.0 75.1 24.0 M75.1 46.4 L75.1 42.2 -75.15 42.2 -75.15 46.4 Q-37.6 68.1 -0.05 89.75 L75.1 46.4 M75.1 -2.6 L75.1 -16.3 -75.15 -16.3 -75.15 -2.6 75.1 -2.6 M153.65 32.65 L153.65 30.85 84.9 30.85 84.9 32.65 153.65 32.65 M153.65 15.25 L153.65 11.3 84.9 11.3 84.9 15.25 153.65 15.25 M153.65 -4.65 L153.65 -7.35 84.9 -7.35 84.9 -4.65 153.65 -4.65 M153.65 -23.5 L153.65 -26.0 84.9 -26.0 84.9 -23.5 153.65 -23.5 M-85.0 -45.2 L-85.0 -52.05 -0.05 -101.1 84.9 -52.05 84.9 -45.15 182.2 -45.15 182.2 49.2 84.9 49.2 84.9 56.05 -0.05 105.1 -85.0 56.05 -85.0 49.2 -182.15 49.2 -182.15 -45.2 -85.0 -45.2 M-75.15 -36.4 L-75.15 -28.65 75.1 -28.65 75.1 -36.35 -0.05 -79.75 Q-37.6 -58.05 -75.15 -36.4" fill="#23140c" fill-rule="evenodd" stroke="none"/>
  </g>
</svg>
