<?xml version="1.0" encoding="UTF-8" standalone="no"?>
<svg xmlns:xlink="http://www.w3.org/1999/xlink" height="196.2px" width="364.35px" xmlns="http://www.w3.org/2000/svg">
  <g transform="matrix(1.0, 0.0, 0.0, 1.0, 182.15, 105.1)">
    <path d="M182.2 49.45 L181.2 49.45 181.2 33.7 182.2 33.7 182.2 49.45" fill="url(#gradient0)" fill-rule="evenodd" stroke="none"/>
    <path d="M-181.15 49.45 L-182.15 49.45 -182.15 33.7 -181.15 33.7 -181.15 49.45" fill="url(#gradient1)" fill-rule="evenodd" stroke="none"/>
    <path d="M-85.0 26.05 L-85.0 16.35 -153.7 16.35 -153.7 26.05 -85.0 26.05 M-85.0 -11.3 L-85.0 -21.85 -153.7 -21.85 -153.7 -11.3 -85.0 -11.3 M-85.0 7.35 L-85.0 -2.3 -153.7 -2.3 -153.7 7.35 -85.0 7.35 M75.1 36.4 L75.1 28.2 -75.15 28.2 -75.15 36.4 Q-37.6 58.1 -0.05 79.75 L75.1 36.4 M75.1 15.85 L75.1 1.75 -75.15 1.75 -75.15 15.85 75.1 15.85 M153.65 26.2 L153.65 16.85 84.9 16.85 84.9 26.2 153.65 26.2 M153.65 7.9 L153.65 -2.7 84.9 -2.7 84.9 7.9 153.65 7.9 M153.65 -11.7 L153.65 -21.35 84.9 -21.35 84.9 -11.7 153.65 -11.7 M75.1 -30.3 L-75.15 -30.3 -75.15 -16.6 75.1 -16.6 75.1 -30.3 M84.9 -40.0 L84.9 -30.35 153.65 -30.35 153.65 -40.0 84.9 -40.0 M-85.0 -49.2 L-85.0 -56.05 -0.05 -105.1 84.9 -56.05 84.9 -49.15 182.2 -49.2 182.2 35.2 84.9 35.2 84.9 42.05 -0.05 91.1 -85.0 42.05 -85.0 35.2 -182.15 35.2 -182.15 -49.2 -85.0 -49.2 M-75.15 -50.4 L-75.15 -42.65 75.1 -42.65 75.1 -50.35 -0.05 -93.75 Q-37.6 -72.05 -75.15 -50.4 M-153.7 -40.2 L-153.7 -30.85 -85.0 -30.85 -85.0 -40.2 -153.7 -40.2" fill="url(#gradient2)" fill-rule="evenodd" stroke="none"/>
    <path d="M-83.0 14.35 L-83.0 28.05 -155.7 28.05 -155.7 14.35 -83.0 14.35 M-85.0 26.05 L-85.0 16.35 -153.7 16.35 -153.7 26.05 -85.0 26.05 M-83.0 -23.85 L-83.0 -9.3 -155.7 -9.3 -155.7 -23.85 -83.0 -23.85 M-85.0 -11.3 L-85.0 -21.85 -153.7 -21.85 -153.7 -11.3 -85.0 -11.3 M-83.0 -4.3 L-83.0 9.35 -155.7 9.35 -155.7 -4.3 -83.0 -4.3 M-85.0 7.35 L-85.0 -2.3 -153.7 -2.3 -153.7 7.35 -85.0 7.35 M77.1 26.2 L77.1 37.55 -0.05 82.05 -77.15 37.55 -77.15 26.2 77.1 26.2 M75.1 36.4 L75.1 28.2 -75.15 28.2 -75.15 36.4 Q-37.6 58.1 -0.05 79.75 L75.1 36.4 M77.1 -0.25 L77.1 17.85 -77.15 17.85 -77.15 -0.25 77.1 -0.25 M75.1 15.85 L75.1 1.75 -75.15 1.75 -75.15 15.85 75.1 15.85 M155.65 14.85 L155.65 28.2 82.9 28.2 82.9 14.85 155.65 14.85 M153.65 26.2 L153.65 16.85 84.9 16.85 84.9 26.2 153.65 26.2 M155.65 -23.35 L155.65 -9.7 82.9 -9.7 82.9 -23.35 155.65 -23.35 M153.65 -11.7 L153.65 -21.35 84.9 -21.35 84.9 -11.7 153.65 -11.7 M155.65 -4.7 L155.65 9.9 82.9 9.9 82.9 -4.7 155.65 -4.7 M153.65 7.9 L153.65 -2.7 84.9 -2.7 84.9 7.9 153.65 7.9 M-77.15 -32.3 L77.1 -32.3 77.1 -14.6 -77.15 -14.6 -77.15 -32.3 M75.1 -30.3 L-75.15 -30.3 -75.15 -16.6 75.1 -16.6 75.1 -30.3 M82.9 -28.35 L82.9 -42.0 155.65 -42.0 155.65 -28.35 82.9 -28.35 M84.9 -40.0 L84.9 -30.35 153.65 -30.35 153.65 -40.0 84.9 -40.0 M-75.15 -50.4 L-75.15 -42.65 75.1 -42.65 75.1 -50.35 -0.05 -93.75 Q-37.6 -72.05 -75.15 -50.4 M-77.15 -40.65 L-77.15 -51.55 -0.05 -96.05 77.1 -51.5 77.1 -40.65 -77.15 -40.65 M-83.0 -54.9 L-83.0 -47.2 -180.15 -47.2 -180.15 33.2 -83.0 33.2 -83.0 40.9 -0.05 88.8 82.9 40.9 82.9 33.2 180.2 33.2 180.2 -47.2 82.9 -47.15 82.9 -54.9 -0.05 -102.8 -83.0 -54.9 M-85.0 -49.2 L-85.0 -56.05 -0.05 -105.1 84.9 -56.05 84.9 -49.15 182.2 -49.2 182.2 35.2 84.9 35.2 84.9 42.05 -0.05 91.1 -85.0 42.05 -85.0 35.2 -182.15 35.2 -182.15 -49.2 -85.0 -49.2 M-155.7 -28.85 L-155.7 -42.2 -83.0 -42.2 -83.0 -28.85 -155.7 -28.85 M-153.7 -40.2 L-153.7 -30.85 -85.0 -30.85 -85.0 -40.2 -153.7 -40.2" fill="url(#gradient3)" fill-rule="evenodd" stroke="none"/>
  </g>
  <defs>
    <linearGradient gradientTransform="matrix(0.0, -0.0096, -0.0096, 0.0, 181.7, 41.55)" gradientUnits="userSpaceOnUse" id="gradient0" spreadMethod="pad" x1="-819.2" x2="819.2">
      <stop offset="0.0" stop-color="#1e120b" stop-opacity="0.0"/>
      <stop offset="0.01568627450980392" stop-color="#23150d" stop-opacity="0.019607844"/>
      <stop offset="0.2235294117647059" stop-color="#653e22" stop-opacity="0.3137255"/>
      <stop offset="0.4196078431372549" stop-color="#9c5f34" stop-opacity="0.5568628"/>
      <stop offset="0.6039215686274509" stop-color="#c77a42" stop-opacity="0.7490196"/>
      <stop offset="0.7647058823529411" stop-color="#e68c4c" stop-opacity="0.8862745"/>
      <stop offset="0.9019607843137255" stop-color="#f89852" stop-opacity="0.96862745"/>
      <stop offset="1.0" stop-color="#ff9c54"/>
    </linearGradient>
    <linearGradient gradientTransform="matrix(0.0, -0.0096, -0.0096, 0.0, -181.65, 41.55)" gradientUnits="userSpaceOnUse" id="gradient1" spreadMethod="pad" x1="-819.2" x2="819.2">
      <stop offset="0.0" stop-color="#1e120b" stop-opacity="0.0"/>
      <stop offset="0.01568627450980392" stop-color="#23150d" stop-opacity="0.019607844"/>
      <stop offset="0.2235294117647059" stop-color="#653e22" stop-opacity="0.3137255"/>
      <stop offset="0.4196078431372549" stop-color="#9c5f34" stop-opacity="0.5568628"/>
      <stop offset="0.6039215686274509" stop-color="#c77a42" stop-opacity="0.7490196"/>
      <stop offset="0.7647058823529411" stop-color="#e68c4c" stop-opacity="0.8862745"/>
      <stop offset="0.9019607843137255" stop-color="#f89852" stop-opacity="0.96862745"/>
      <stop offset="1.0" stop-color="#ff9c54"/>
    </linearGradient>
    <linearGradient gradientTransform="matrix(0.0, -0.1223, -0.1223, 0.0, 0.0, -5.9)" gradientUnits="userSpaceOnUse" id="gradient2" spreadMethod="pad" x1="-819.2" x2="819.2">
      <stop offset="0.00392156862745098" stop-color="#543800"/>
      <stop offset="0.17647058823529413" stop-color="#e9ca00"/>
      <stop offset="0.43529411764705883" stop-color="#6a4a00"/>
      <stop offset="0.44313725490196076" stop-color="#836300"/>
      <stop offset="0.4627450980392157" stop-color="#af8f00"/>
      <stop offset="0.47843137254901963" stop-color="#ceaf00"/>
      <stop offset="0.49019607843137253" stop-color="#e2c300"/>
      <stop offset="0.5019607843137255" stop-color="#e9ca00"/>
      <stop offset="0.6274509803921569" stop-color="#feffbf"/>
      <stop offset="0.7607843137254902" stop-color="#e9ca00"/>
      <stop offset="0.984313725490196" stop-color="#6a4700"/>
    </linearGradient>
    <linearGradient gradientTransform="matrix(0.2224, 0.0, 0.0, -0.2224, 0.0, -7.0)" gradientUnits="userSpaceOnUse" id="gradient3" spreadMethod="pad" x1="-819.2" x2="819.2">
      <stop offset="0.07450980392156863" stop-color="#543800"/>
      <stop offset="0.17647058823529413" stop-color="#e9ca00"/>
      <stop offset="0.43529411764705883" stop-color="#6a4a00"/>
      <stop offset="0.4588235294117647" stop-color="#836300"/>
      <stop offset="0.5058823529411764" stop-color="#af8f00"/>
      <stop offset="0.5490196078431373" stop-color="#ceaf00"/>
      <stop offset="0.5843137254901961" stop-color="#e2c300"/>
      <stop offset="0.6078431372549019" stop-color="#e9ca00"/>
      <stop offset="0.6431372549019608" stop-color="#e9ca00"/>
      <stop offset="0.8196078431372549" stop-color="#fff87f"/>
      <stop offset="0.8784313725490196" stop-color="#e9ca00"/>
      <stop offset="0.984313725490196" stop-color="#6a4700"/>
    </linearGradient>
  </defs>
</svg>
