<?xml version="1.0" encoding="UTF-8" standalone="no"?>
<svg xmlns:xlink="http://www.w3.org/1999/xlink" height="231.75px" width="325.4px" xmlns="http://www.w3.org/2000/svg">
  <g transform="matrix(1.0, 0.0, 0.0, 1.0, 162.7, 113.85)">
    <path d="M-62.0 33.25 L-62.0 34.0 0.6 70.15 63.2 34.0 63.2 33.25 -62.0 33.25 M-62.0 11.2 L-62.0 13.0 63.2 13.0 63.2 11.2 -62.0 11.2 M-62.0 -15.45 L-62.0 -4.05 63.2 -4.05 63.2 -15.45 -62.0 -15.45 M-62.0 -32.2 L-62.0 -29.75 63.2 -29.75 63.2 -32.2 0.6 -68.35 -62.0 -32.2 M71.4 -46.95 L71.4 44.8 0.6 85.7 -70.2 44.8 -70.2 -46.95 0.6 -87.8 71.4 -46.95" fill="#23140c" fill-rule="evenodd" stroke="none"/>
    <path d="M-146.9 22.35 L-120.3 36.4 -93.95 22.35 -146.9 22.35 M-96.95 -24.9 L-120.3 -38.55 -142.8 -25.55 -96.95 -24.9 M120.3 36.7 L144.85 22.35 95.45 22.35 120.3 36.7 M77.9 -29.2 L89.3 -37.05 89.3 -45.1 0.6 -96.3 -88.15 -45.1 -88.15 -37.05 -77.85 -31.5 -77.85 28.45 -88.15 34.35 -88.15 50.75 0.6 102.0 89.3 50.75 89.3 35.05 89.4 35.05 77.9 28.45 77.9 -29.2 M143.3 -25.1 L120.3 -38.55 96.8 -25.0 143.3 -25.1 M95.85 -58.9 L95.85 -40.9 120.3 -55.0 162.7 -30.55 162.7 28.45 120.3 52.9 95.85 38.8 95.85 62.9 0.6 117.9 -94.65 62.9 -94.65 38.1 -120.3 52.9 -162.7 28.45 -162.7 -31.2 -120.3 -55.7 -94.65 -40.9 -94.65 -58.9 0.6 -113.85 95.85 -58.9" fill="#23140c" fill-rule="evenodd" stroke="none"/>
  </g>
</svg>
