<?xml version="1.0" encoding="UTF-8" standalone="no"?>
<svg xmlns:xlink="http://www.w3.org/1999/xlink" height="221.75px" width="325.4px" xmlns="http://www.w3.org/2000/svg">
  <g transform="matrix(1.0, 0.0, 0.0, 1.0, 162.7, 117.85)">
    <path d="M-62.0 19.25 L-62.0 26.1 0.6 62.25 63.2 26.1 63.2 19.25 -62.0 19.25 M-62.0 -2.8 L-62.0 9.0 63.2 9.0 63.2 -2.8 -62.0 -2.8 M-62.0 -29.45 L-62.0 -18.05 63.2 -18.05 63.2 -29.45 -62.0 -29.45 M63.2 -46.2 L0.6 -82.35 -62.0 -46.2 -62.0 -39.75 63.2 -39.75 63.2 -46.2 M71.4 -50.95 L71.4 30.8 0.6 71.7 -70.2 30.8 -70.2 -50.95 0.6 -91.8 71.4 -50.95" fill="url(#gradient0)" fill-rule="evenodd" stroke="none"/>
    <path d="M-155.35 12.15 L-120.3 32.4 -85.65 12.15 -85.65 8.35 -155.35 8.35 -155.35 12.15 M-155.35 -32.3 L-155.35 -28.65 -85.65 -28.65 -85.65 -32.3 -120.3 -52.55 -155.35 -32.3 M-155.75 -21.7 L-155.75 -14.85 -85.65 -14.85 -85.65 -21.7 -155.75 -21.7 M-155.75 -5.7 L-155.75 1.35 -85.65 1.35 -85.65 -5.7 -155.75 -5.7 M85.2 8.35 L85.2 12.15 120.3 32.4 154.9 12.15 154.9 8.35 85.2 8.35 M84.8 -5.7 L84.8 1.35 154.9 1.35 154.9 -5.7 84.8 -5.7 M84.8 -21.7 L84.8 -14.85 154.9 -14.85 154.9 -21.7 84.8 -21.7 M85.2 -32.3 L85.2 -28.65 154.9 -28.65 154.9 -32.3 120.3 -52.55 85.2 -32.3 M95.85 -62.9 L95.85 -44.9 120.3 -59.0 162.7 -34.55 162.7 14.45 120.3 38.9 95.85 24.8 95.85 48.9 0.6 103.9 -94.65 48.9 -94.65 24.1 -120.3 38.9 -162.7 14.45 -162.7 -34.55 -120.3 -59.0 -94.65 -44.25 -94.65 -62.9 0.6 -117.85 95.85 -62.9 M89.3 -41.1 L89.3 -59.1 0.6 -110.3 -88.15 -59.1 -88.15 -40.45 -77.85 -34.55 -77.85 14.45 -88.15 20.35 -88.15 45.1 0.6 96.35 89.3 45.1 89.3 21.05 89.4 21.05 77.9 14.45 77.9 -34.55 89.3 -41.1" fill="url(#gradient1)" fill-rule="evenodd" stroke="none"/>
    <path d="M-63.0 10.0 L-63.0 -3.8 64.2 -3.8 64.2 10.0 -63.0 10.0 M-63.0 26.65 L-63.0 18.25 64.2 18.25 64.2 26.65 0.6 63.4 -63.0 26.65 M-62.0 19.25 L-62.0 26.1 0.6 62.25 63.2 26.1 63.2 19.25 -62.0 19.25 M-63.0 -17.05 L-63.0 -30.45 64.2 -30.45 64.2 -17.05 -63.0 -17.05 M-62.0 -29.45 L-62.0 -18.05 63.2 -18.05 63.2 -29.45 -62.0 -29.45 M-62.0 -2.8 L-62.0 9.0 63.2 9.0 63.2 -2.8 -62.0 -2.8 M0.6 -83.5 L64.2 -46.8 64.2 -38.75 -63.0 -38.75 -63.0 -46.8 0.6 -83.5 M63.2 -46.2 L0.6 -82.35 -62.0 -46.2 -62.0 -39.75 63.2 -39.75 63.2 -46.2 M70.4 30.25 L70.4 -50.35 0.6 -90.65 -69.2 -50.35 -69.2 30.25 0.6 70.55 70.4 30.25 M71.4 -50.95 L71.4 30.8 0.6 71.7 -70.2 30.8 -70.2 -50.95 0.6 -91.8 71.4 -50.95" fill="url(#gradient2)" fill-rule="evenodd" stroke="none"/>
    <path d="M-155.35 8.35 L-155.35 12.15 -120.3 32.4 -85.65 12.15 -85.65 8.35 -155.35 8.35 M-120.25 33.55 L-120.8 33.3 -156.35 12.75 -156.35 7.35 -84.65 7.35 -84.65 12.75 -85.15 13.0 -119.75 33.3 -120.25 33.55 M-156.35 -27.65 L-156.35 -32.85 -120.25 -53.7 -84.65 -32.85 -84.65 -27.65 -156.35 -27.65 M-155.35 -32.3 L-155.35 -28.65 -85.65 -28.65 -85.65 -32.3 -120.3 -52.55 -155.35 -32.3 M-156.75 2.35 L-156.75 -6.7 -84.65 -6.7 -84.65 2.35 -156.75 2.35 M-155.75 -5.7 L-155.75 1.35 -85.65 1.35 -85.65 -5.7 -155.75 -5.7 M-156.75 -13.85 L-156.75 -22.7 -84.65 -22.7 -84.65 -13.85 -156.75 -13.85 M-155.75 -21.7 L-155.75 -14.85 -85.65 -14.85 -85.65 -21.7 -155.75 -21.7 M85.2 8.35 L85.2 12.15 120.3 32.4 154.9 12.15 154.9 8.35 85.2 8.35 M120.8 33.3 L120.3 33.55 84.2 12.75 84.2 7.35 155.9 7.35 155.9 12.75 155.4 13.0 120.8 33.3 M84.2 -27.65 L84.2 -32.85 120.3 -53.7 155.9 -32.85 155.9 -27.65 84.2 -27.65 M85.2 -32.3 L85.2 -28.65 154.9 -28.65 154.9 -32.3 120.3 -52.55 85.2 -32.3 M83.8 2.35 L83.8 -6.7 155.9 -6.7 155.9 2.35 83.8 2.35 M84.8 -5.7 L84.8 1.35 154.9 1.35 154.9 -5.7 84.8 -5.7 M83.8 -13.85 L83.8 -22.7 155.9 -22.7 155.9 -13.85 83.8 -13.85 M84.8 -21.7 L84.8 -14.85 154.9 -14.85 154.9 -21.7 84.8 -21.7 M94.85 -43.15 L94.85 -62.3 0.6 -116.7 -93.65 -62.3 -93.65 -42.5 -120.3 -57.85 -161.7 -33.95 -161.7 13.85 -120.3 37.75 -93.65 22.4 -93.65 48.3 0.6 102.75 94.85 48.3 94.85 23.05 120.3 37.75 161.7 13.85 161.7 -33.95 120.3 -57.85 94.85 -43.15 M90.3 -59.65 L90.3 -40.55 78.9 -33.95 78.9 13.85 90.3 20.5 90.3 45.7 0.6 97.5 -89.15 45.7 -89.15 19.75 -78.85 13.85 -78.85 -33.95 -89.15 -39.9 -89.15 -59.65 0.6 -111.45 90.3 -59.65 M95.85 -62.9 L95.85 -44.9 120.3 -59.0 162.7 -34.55 162.7 14.45 120.3 38.9 95.85 24.8 95.85 48.9 0.6 103.9 -94.65 48.9 -94.65 24.1 -120.3 38.9 -162.7 14.45 -162.7 -34.55 -120.3 -59.0 -94.65 -44.25 -94.65 -62.9 0.6 -117.85 95.85 -62.9 M89.3 -41.1 L89.3 -59.1 0.6 -110.3 -88.15 -59.1 -88.15 -40.45 -77.85 -34.55 -77.85 14.45 -88.15 20.35 -88.15 45.1 0.6 96.35 89.3 45.1 89.3 21.05 77.9 14.45 77.9 -34.55 89.3 -41.1" fill="url(#gradient3)" fill-rule="evenodd" stroke="none"/>
  </g>
  <defs>
    <linearGradient gradientTransform="matrix(0.0, -0.1524, -0.1524, 0.0, 0.6, -6.7)" gradientUnits="userSpaceOnUse" id="gradient0" spreadMethod="pad" x1="-819.2" x2="819.2">
      <stop offset="0.00392156862745098" stop-color="#543800"/>
      <stop offset="0.17647058823529413" stop-color="#e9ca00"/>
      <stop offset="0.43529411764705883" stop-color="#6a4a00"/>
      <stop offset="0.44313725490196076" stop-color="#836300"/>
      <stop offset="0.4627450980392157" stop-color="#af8f00"/>
      <stop offset="0.47843137254901963" stop-color="#ceaf00"/>
      <stop offset="0.49019607843137253" stop-color="#e2c300"/>
      <stop offset="0.5019607843137255" stop-color="#e9ca00"/>
      <stop offset="0.6274509803921569" stop-color="#feffbf"/>
      <stop offset="0.7607843137254902" stop-color="#e9ca00"/>
      <stop offset="0.984313725490196" stop-color="#6a4700"/>
    </linearGradient>
    <linearGradient gradientTransform="matrix(0.0, -0.1524, -0.1524, 0.0, 0.0, -6.7)" gradientUnits="userSpaceOnUse" id="gradient1" spreadMethod="pad" x1="-819.2" x2="819.2">
      <stop offset="0.00392156862745098" stop-color="#543800"/>
      <stop offset="0.17647058823529413" stop-color="#e9ca00"/>
      <stop offset="0.43529411764705883" stop-color="#6a4a00"/>
      <stop offset="0.44313725490196076" stop-color="#836300"/>
      <stop offset="0.4627450980392157" stop-color="#af8f00"/>
      <stop offset="0.47843137254901963" stop-color="#ceaf00"/>
      <stop offset="0.49019607843137253" stop-color="#e2c300"/>
      <stop offset="0.5019607843137255" stop-color="#e9ca00"/>
      <stop offset="0.6274509803921569" stop-color="#feffbf"/>
      <stop offset="0.7607843137254902" stop-color="#e9ca00"/>
      <stop offset="0.984313725490196" stop-color="#6a4700"/>
    </linearGradient>
    <linearGradient gradientTransform="matrix(0.0864, 0.0, 0.0, -0.0864, 0.6, -10.05)" gradientUnits="userSpaceOnUse" id="gradient2" spreadMethod="pad" x1="-819.2" x2="819.2">
      <stop offset="0.07450980392156863" stop-color="#543800"/>
      <stop offset="0.17647058823529413" stop-color="#e9ca00"/>
      <stop offset="0.43529411764705883" stop-color="#6a4a00"/>
      <stop offset="0.4588235294117647" stop-color="#836300"/>
      <stop offset="0.5058823529411764" stop-color="#af8f00"/>
      <stop offset="0.5490196078431373" stop-color="#ceaf00"/>
      <stop offset="0.5843137254901961" stop-color="#e2c300"/>
      <stop offset="0.6078431372549019" stop-color="#e9ca00"/>
      <stop offset="0.6431372549019608" stop-color="#e9ca00"/>
      <stop offset="0.8196078431372549" stop-color="#fff87f"/>
      <stop offset="0.8784313725490196" stop-color="#e9ca00"/>
      <stop offset="0.984313725490196" stop-color="#6a4700"/>
    </linearGradient>
    <linearGradient gradientTransform="matrix(0.1986, 0.0, 0.0, -0.1986, 0.0, -7.0)" gradientUnits="userSpaceOnUse" id="gradient3" spreadMethod="pad" x1="-819.2" x2="819.2">
      <stop offset="0.07450980392156863" stop-color="#543800"/>
      <stop offset="0.17647058823529413" stop-color="#e9ca00"/>
      <stop offset="0.43529411764705883" stop-color="#6a4a00"/>
      <stop offset="0.4588235294117647" stop-color="#836300"/>
      <stop offset="0.5058823529411764" stop-color="#af8f00"/>
      <stop offset="0.5490196078431373" stop-color="#ceaf00"/>
      <stop offset="0.5843137254901961" stop-color="#e2c300"/>
      <stop offset="0.6078431372549019" stop-color="#e9ca00"/>
      <stop offset="0.6431372549019608" stop-color="#e9ca00"/>
      <stop offset="0.8196078431372549" stop-color="#fff87f"/>
      <stop offset="0.8784313725490196" stop-color="#e9ca00"/>
      <stop offset="0.984313725490196" stop-color="#6a4700"/>
    </linearGradient>
  </defs>
</svg>
