<?xml version="1.0" encoding="UTF-8" standalone="no"?>
<svg xmlns:xlink="http://www.w3.org/1999/xlink" height="106.2px" width="101.45px" xmlns="http://www.w3.org/2000/svg">
  <g transform="matrix(1.0, 0.0, 0.0, 1.0, 107.6, 150.6)">
    <path d="M-107.6 -104.8 L-107.6 -118.8 -96.0 -111.55 -60.95 -65.15 -60.95 -51.15 -72.6 -44.4 -107.6 -104.8" fill="#23140c" fill-rule="evenodd" stroke="none"/>
    <path d="M-89.35 -115.4 L-89.35 -129.4 -77.7 -122.15 -42.7 -75.75 -42.7 -61.75 -54.3 -55.0 -89.35 -115.4" fill="#23140c" fill-rule="evenodd" stroke="none"/>
    <path d="M-71.1 -140.0 L-59.45 -132.75 -24.4 -86.35 -24.4 -72.35 -36.05 -65.6 -71.1 -126.0 -71.1 -140.0" fill="#23140c" fill-rule="evenodd" stroke="none"/>
    <path d="M-52.8 -136.6 L-52.8 -150.6 -41.2 -143.35 -6.15 -96.95 -6.15 -82.95 -17.8 -76.2 -52.8 -136.6" fill="#23140c" fill-rule="evenodd" stroke="none"/>
  </g>
</svg>
