<?xml version="1.0" encoding="UTF-8" standalone="no"?>
<svg xmlns:xlink="http://www.w3.org/1999/xlink" height="141.45px" width="403.9px" xmlns="http://www.w3.org/2000/svg">
  <g transform="matrix(1.0, 0.0, 0.0, 1.0, 201.95, 72.15)">
    <path d="M-115.5 -63.8 L-119.95 -70.75 -112.05 -68.55 -92.05 -52.25 -93.0 -56.55 -82.1 -50.0 -82.1 33.15 -93.0 39.7 -92.05 35.35 -112.05 51.65 -119.95 53.85 -115.5 46.95 -100.35 36.8 -127.5 52.4 -135.65 53.55 -130.35 47.25 -90.35 27.45 -90.35 27.4 -148.5 54.75 -161.6 55.3 -152.2 46.15 -98.45 25.3 -134.3 38.0 -142.5 37.55 -136.1 32.4 -99.4 21.95 -123.85 27.5 -131.95 25.95 -124.85 21.7 -99.15 18.45 -103.15 15.75 -99.5 8.95 -134.9 22.4 -146.5 20.35 -136.8 11.55 -111.2 5.25 -155.65 12.15 -166.9 8.0 -156.45 1.05 -92.8 -3.6 -92.75 -3.75 -184.45 0.5 -201.95 -8.4 -184.45 -17.35 -102.35 -13.55 -156.45 -18.15 -166.9 -25.1 -155.65 -29.3 -101.55 -20.0 -136.8 -28.65 -146.5 -37.45 -134.9 -39.55 -99.85 -26.2 -103.15 -32.6 -99.15 -35.3 -124.85 -38.6 -131.95 -42.8 -123.85 -44.4 -99.4 -38.85 -136.1 -49.3 -142.5 -54.4 -134.3 -54.85 -98.5 -42.15 -152.2 -63.0 -161.6 -72.15 -148.5 -71.65 -90.35 -44.25 -90.35 -44.35 -130.35 -64.15 -135.65 -70.4 -127.5 -69.3 -100.35 -53.7 -115.5 -63.8" fill="url(#gradient0)" fill-rule="evenodd" stroke="none"/>
    <path d="M-98.5 -42.15 L-98.85 -41.25 -134.45 -53.85 -139.85 -53.55 -135.6 -50.2 -99.1 -39.8 -99.6 -37.85 -123.85 -43.35 -129.15 -42.35 -124.55 -39.55 -96.4 -36.0 -101.85 -32.25 -97.8 -24.3 -135.0 -38.5 -144.35 -36.85 -136.3 -29.6 -101.3 -20.95 -101.75 -19.0 -155.55 -28.25 -164.7 -24.85 -156.1 -19.1 -102.25 -14.5 -102.4 -12.55 -184.2 -16.3 -199.75 -8.4 -184.2 -0.5 -91.05 -4.8 -91.85 -3.3 -91.9 -3.15 -92.15 -2.65 -156.1 2.0 -164.7 7.75 -155.55 11.1 -111.35 4.25 -110.95 6.2 -136.3 12.45 -144.35 19.7 -135.0 21.4 -97.35 7.05 -101.85 15.45 -96.35 19.1 -124.55 22.7 -129.15 25.45 -123.85 26.5 -99.65 21.0 -99.4 21.95 -123.85 27.5 -131.95 25.95 -124.85 21.7 -99.15 18.45 -103.15 15.75 -99.5 8.95 -134.9 22.4 -146.5 20.35 -136.8 11.55 -111.2 5.25 -155.65 12.15 -166.9 8.0 -156.45 1.05 -92.8 -3.6 -92.75 -3.75 -184.45 0.5 -201.95 -8.4 -184.45 -17.35 -102.35 -13.55 -156.45 -18.15 -166.9 -25.1 -155.65 -29.3 -101.55 -20.0 -136.8 -28.65 -146.5 -37.45 -134.9 -39.55 -99.85 -26.2 -103.15 -32.6 -99.15 -35.3 -124.85 -38.6 -131.95 -42.8 -123.85 -44.4 -99.4 -38.85 -136.1 -49.3 -142.5 -54.4 -134.3 -54.85 -98.5 -42.15 -152.2 -63.0 -161.6 -72.15 -148.5 -71.65 -90.35 -44.25 -90.35 -44.35 -130.35 -64.15 -135.65 -70.4 -127.5 -69.3 -100.35 -53.7 -115.5 -63.8 -119.95 -70.75 -112.05 -68.55 -92.05 -52.25 -93.0 -56.55 -82.1 -50.0 -82.1 33.15 -93.0 39.7 -92.05 35.35 -112.05 51.65 -119.95 53.85 -115.5 46.95 -100.35 36.8 -127.5 52.4 -135.65 53.55 -130.35 47.25 -90.35 27.45 -90.35 27.4 -148.5 54.75 -161.6 55.3 -152.2 46.15 -98.45 25.3 -134.3 38.0 -142.5 37.55 -136.1 32.4 -99.4 21.95 -99.15 22.95 -135.6 33.3 -139.85 36.7 -134.45 37.0 -98.8 24.35 -98.1 26.2 -151.65 47.0 -159.0 54.2 -148.7 53.75 -89.0 25.65 -89.35 27.55 -89.35 27.65 -89.45 28.15 -129.7 48.05 -133.2 52.2 -127.85 51.45 -100.85 35.95 -99.8 37.65 -114.8 47.65 -117.7 52.2 -112.5 50.75 -90.5 32.8 -91.55 37.65 -83.1 32.55 -83.1 -49.45 -91.55 -54.5 -90.5 -49.65 -112.5 -67.6 -117.7 -69.05 -114.8 -64.5 -99.8 -54.55 -100.85 -52.85 -127.85 -68.3 -133.2 -69.05 -129.7 -64.95 -89.5 -45.05 -89.4 -44.6 -89.35 -44.55 -88.7 -42.4 -148.7 -70.65 -159.0 -71.05 -151.65 -63.85 -98.15 -43.1 -98.5 -42.15" fill="url(#gradient1)" fill-rule="evenodd" stroke="none"/>
    <path d="M99.1 -21.3 L103.1 -18.6 99.85 -12.2 122.05 -24.25 99.1 -21.3 M161.55 -72.15 L161.55 -58.15 152.15 -49.0 142.5 -45.25 142.5 -40.4 136.05 -35.3 99.35 -24.85 123.8 -30.4 130.9 -29.0 146.5 -37.45 146.5 -23.45 139.45 -17.1 166.9 -25.1 166.9 -11.1 161.8 -7.7 181.9 -10.5 201.95 -8.4 201.95 5.6 184.45 14.5 166.9 13.7 166.9 22.0 155.6 26.15 146.5 24.75 146.5 34.35 139.1 35.6 142.5 37.55 142.5 50.45 161.55 55.3 161.55 69.3 148.45 68.75 135.6 61.75 135.6 67.55 127.45 66.4 119.9 62.1 119.9 67.85 112.0 65.65 93.0 50.15 92.95 53.7 82.05 47.15 82.05 -36.0 92.95 -56.55 92.95 -42.55 92.05 -38.25 119.9 -70.75 119.9 -61.5 135.6 -70.4 135.6 -59.65 161.55 -72.15" fill="#23140c" fill-rule="evenodd" stroke="none"/>
  </g>
  <defs>
    <linearGradient gradientTransform="matrix(0.0, -0.2027, -0.2027, 0.0, -142.05, 15.1)" gradientUnits="userSpaceOnUse" id="gradient0" spreadMethod="pad" x1="-819.2" x2="819.2">
      <stop offset="0.00392156862745098" stop-color="#543800"/>
      <stop offset="0.17647058823529413" stop-color="#e9ca00"/>
      <stop offset="0.43529411764705883" stop-color="#6a4a00"/>
      <stop offset="0.44313725490196076" stop-color="#836300"/>
      <stop offset="0.4627450980392157" stop-color="#af8f00"/>
      <stop offset="0.47843137254901963" stop-color="#ceaf00"/>
      <stop offset="0.49019607843137253" stop-color="#e2c300"/>
      <stop offset="0.5019607843137255" stop-color="#e9ca00"/>
      <stop offset="0.6274509803921569" stop-color="#feffbf"/>
      <stop offset="0.7607843137254902" stop-color="#e9ca00"/>
      <stop offset="0.984313725490196" stop-color="#6a4700"/>
    </linearGradient>
    <linearGradient gradientTransform="matrix(0.0732, 0.0, 0.0, -0.0732, -142.05, -8.45)" gradientUnits="userSpaceOnUse" id="gradient1" spreadMethod="pad" x1="-819.2" x2="819.2">
      <stop offset="0.07450980392156863" stop-color="#543800"/>
      <stop offset="0.17647058823529413" stop-color="#e9ca00"/>
      <stop offset="0.43529411764705883" stop-color="#6a4a00"/>
      <stop offset="0.4588235294117647" stop-color="#836300"/>
      <stop offset="0.5058823529411764" stop-color="#af8f00"/>
      <stop offset="0.5490196078431373" stop-color="#ceaf00"/>
      <stop offset="0.5843137254901961" stop-color="#e2c300"/>
      <stop offset="0.6078431372549019" stop-color="#e9ca00"/>
      <stop offset="0.6431372549019608" stop-color="#e9ca00"/>
      <stop offset="0.8196078431372549" stop-color="#fff87f"/>
      <stop offset="0.8784313725490196" stop-color="#e9ca00"/>
      <stop offset="0.984313725490196" stop-color="#6a4700"/>
    </linearGradient>
  </defs>
</svg>
