<?xml version="1.0" encoding="UTF-8" standalone="no"?>
<svg xmlns:xlink="http://www.w3.org/1999/xlink" height="157.0px" width="169.5px" xmlns="http://www.w3.org/2000/svg">
  <g transform="matrix(1.0, 0.0, 0.0, 1.0, 84.75, 76.4)">
    <path d="M84.75 6.8 L42.4 80.2 -42.35 80.2 -84.75 6.8 -84.75 -7.2 -42.35 -76.4 42.4 -76.4 84.75 -7.2 84.75 6.8 M-73.25 6.8 L-36.6 61.95 36.65 61.95 73.25 6.8 36.65 -56.65 -36.6 -56.65 -73.25 6.8" fill="#23140c" fill-rule="evenodd" stroke="none"/>
    <path d="M57.5 -11.2 L57.5 24.2 17.7 24.2 17.7 64.0 -17.7 64.0 -17.7 24.2 -57.5 24.2 -57.5 -11.2 -17.7 -11.2 -17.7 -51.0 17.7 -51.0 17.7 -11.2 57.5 -11.2" fill="#23140c" fill-rule="evenodd" stroke="none"/>
    <path d="M42.25 62.75 L42.25 80.6 41.25 80.6 41.25 62.75 42.25 62.75" fill="url(#gradient0)" fill-rule="evenodd" stroke="none"/>
    <path d="M-41.35 62.75 L-41.35 80.6 -42.35 80.6 -42.35 62.75 -41.35 62.75" fill="url(#gradient1)" fill-rule="evenodd" stroke="none"/>
  </g>
  <defs>
    <linearGradient gradientTransform="matrix(0.0, -0.0109, -0.0109, 0.0, 41.75, 71.7)" gradientUnits="userSpaceOnUse" id="gradient0" spreadMethod="pad" x1="-819.2" x2="819.2">
      <stop offset="0.0" stop-color="#1e120b" stop-opacity="0.0"/>
      <stop offset="0.01568627450980392" stop-color="#23150d" stop-opacity="0.019607844"/>
      <stop offset="0.2235294117647059" stop-color="#653e22" stop-opacity="0.3137255"/>
      <stop offset="0.4196078431372549" stop-color="#9c5f34" stop-opacity="0.5568628"/>
      <stop offset="0.6039215686274509" stop-color="#c77a42" stop-opacity="0.7490196"/>
      <stop offset="0.7647058823529411" stop-color="#e68c4c" stop-opacity="0.8862745"/>
      <stop offset="0.9019607843137255" stop-color="#f89852" stop-opacity="0.96862745"/>
      <stop offset="1.0" stop-color="#ff9c54"/>
    </linearGradient>
    <linearGradient gradientTransform="matrix(0.0, -0.0109, -0.0109, 0.0, -41.85, 71.7)" gradientUnits="userSpaceOnUse" id="gradient1" spreadMethod="pad" x1="-819.2" x2="819.2">
      <stop offset="0.0" stop-color="#1e120b" stop-opacity="0.0"/>
      <stop offset="0.01568627450980392" stop-color="#23150d" stop-opacity="0.019607844"/>
      <stop offset="0.2235294117647059" stop-color="#653e22" stop-opacity="0.3137255"/>
      <stop offset="0.4196078431372549" stop-color="#9c5f34" stop-opacity="0.5568628"/>
      <stop offset="0.6039215686274509" stop-color="#c77a42" stop-opacity="0.7490196"/>
      <stop offset="0.7647058823529411" stop-color="#e68c4c" stop-opacity="0.8862745"/>
      <stop offset="0.9019607843137255" stop-color="#f89852" stop-opacity="0.96862745"/>
      <stop offset="1.0" stop-color="#ff9c54"/>
    </linearGradient>
  </defs>
</svg>
