<?xml version="1.0" encoding="UTF-8" standalone="no"?>
<svg xmlns:xlink="http://www.w3.org/1999/xlink" height="146.8px" width="169.5px" xmlns="http://www.w3.org/2000/svg">
  <g transform="matrix(1.0, 0.0, 0.0, 1.0, 84.75, 80.6)">
    <path d="M-73.25 -7.2 L-36.6 56.2 36.65 56.2 73.25 -7.2 36.65 -70.65 -36.6 -70.65 -73.25 -7.2 M-42.35 -80.6 L42.4 -80.6 84.75 -7.2 42.4 66.2 -42.35 66.2 -84.75 -7.2 -42.35 -80.6" fill="url(#gradient0)" fill-rule="evenodd" stroke="none"/>
    <path d="M17.7 -25.2 L57.5 -25.2 57.5 10.2 17.7 10.2 17.7 50.0 -17.7 50.0 -17.7 10.2 -57.5 10.2 -57.5 -25.2 -17.7 -25.2 -17.7 -65.0 17.7 -65.0 17.7 -25.2" fill="url(#gradient1)" fill-rule="evenodd" stroke="none"/>
    <path d="M-75.55 -7.2 L-37.75 -72.65 37.8 -72.65 75.55 -7.2 37.8 58.2 -37.75 58.2 -75.55 -7.2 M-41.2 -78.6 L-82.45 -7.2 -41.2 64.2 41.25 64.2 82.45 -7.2 41.25 -78.6 -41.2 -78.6 M-84.75 -7.2 L-42.35 -80.6 42.4 -80.6 84.75 -7.2 42.4 66.2 -42.35 66.2 -84.75 -7.2 M-36.6 -70.65 L-73.25 -7.2 -36.6 56.2 36.65 56.2 73.25 -7.2 36.65 -70.65 -36.6 -70.65" fill="url(#gradient2)" fill-rule="evenodd" stroke="none"/>
    <path d="M55.5 8.2 L55.5 -23.2 15.7 -23.2 15.7 -63.0 -15.7 -63.0 -15.7 -23.2 -55.5 -23.2 -55.5 8.2 -15.7 8.2 -15.7 48.0 15.7 48.0 15.7 8.2 55.5 8.2 M57.5 -25.2 L57.5 10.2 17.7 10.2 17.7 50.0 -17.7 50.0 -17.7 10.2 -57.5 10.2 -57.5 -25.2 -17.7 -25.2 -17.7 -65.0 17.7 -65.0 17.7 -25.2 57.5 -25.2" fill="url(#gradient3)" fill-rule="evenodd" stroke="none"/>
  </g>
  <defs>
    <linearGradient gradientTransform="matrix(0.0, -0.1131, -0.1131, 0.0, 0.0, -13.65)" gradientUnits="userSpaceOnUse" id="gradient0" spreadMethod="pad" x1="-819.2" x2="819.2">
      <stop offset="0.00392156862745098" stop-color="#543800"/>
      <stop offset="0.17647058823529413" stop-color="#e9ca00"/>
      <stop offset="0.43529411764705883" stop-color="#6a4a00"/>
      <stop offset="0.44313725490196076" stop-color="#836300"/>
      <stop offset="0.4627450980392157" stop-color="#af8f00"/>
      <stop offset="0.47843137254901963" stop-color="#ceaf00"/>
      <stop offset="0.49019607843137253" stop-color="#e2c300"/>
      <stop offset="0.5019607843137255" stop-color="#e9ca00"/>
      <stop offset="0.6274509803921569" stop-color="#feffbf"/>
      <stop offset="0.7607843137254902" stop-color="#e9ca00"/>
      <stop offset="0.984313725490196" stop-color="#6a4700"/>
    </linearGradient>
    <linearGradient gradientTransform="matrix(0.0, -0.1131, -0.1131, 0.0, 0.0, -13.65)" gradientUnits="userSpaceOnUse" id="gradient1" spreadMethod="pad" x1="-819.2" x2="819.2">
      <stop offset="0.00392156862745098" stop-color="#543800"/>
      <stop offset="0.17647058823529413" stop-color="#e9ca00"/>
      <stop offset="0.43529411764705883" stop-color="#6a4a00"/>
      <stop offset="0.44313725490196076" stop-color="#836300"/>
      <stop offset="0.4627450980392157" stop-color="#af8f00"/>
      <stop offset="0.47843137254901963" stop-color="#ceaf00"/>
      <stop offset="0.49019607843137253" stop-color="#e2c300"/>
      <stop offset="0.5019607843137255" stop-color="#e9ca00"/>
      <stop offset="0.6274509803921569" stop-color="#feffbf"/>
      <stop offset="0.7607843137254902" stop-color="#e9ca00"/>
      <stop offset="0.984313725490196" stop-color="#6a4700"/>
    </linearGradient>
    <linearGradient gradientTransform="matrix(0.1035, 0.0, 0.0, -0.1035, 0.0, -7.2)" gradientUnits="userSpaceOnUse" id="gradient2" spreadMethod="pad" x1="-819.2" x2="819.2">
      <stop offset="0.07450980392156863" stop-color="#543800"/>
      <stop offset="0.17647058823529413" stop-color="#e9ca00"/>
      <stop offset="0.43529411764705883" stop-color="#6a4a00"/>
      <stop offset="0.4588235294117647" stop-color="#836300"/>
      <stop offset="0.5058823529411764" stop-color="#af8f00"/>
      <stop offset="0.5490196078431373" stop-color="#ceaf00"/>
      <stop offset="0.5843137254901961" stop-color="#e2c300"/>
      <stop offset="0.6078431372549019" stop-color="#e9ca00"/>
      <stop offset="0.6431372549019608" stop-color="#e9ca00"/>
      <stop offset="0.8196078431372549" stop-color="#fff87f"/>
      <stop offset="0.8784313725490196" stop-color="#e9ca00"/>
      <stop offset="0.984313725490196" stop-color="#6a4700"/>
    </linearGradient>
    <linearGradient gradientTransform="matrix(0.0702, 0.0, 0.0, -0.0702, 0.0, -7.5)" gradientUnits="userSpaceOnUse" id="gradient3" spreadMethod="pad" x1="-819.2" x2="819.2">
      <stop offset="0.07450980392156863" stop-color="#543800"/>
      <stop offset="0.17647058823529413" stop-color="#e9ca00"/>
      <stop offset="0.43529411764705883" stop-color="#6a4a00"/>
      <stop offset="0.4588235294117647" stop-color="#836300"/>
      <stop offset="0.5058823529411764" stop-color="#af8f00"/>
      <stop offset="0.5490196078431373" stop-color="#ceaf00"/>
      <stop offset="0.5843137254901961" stop-color="#e2c300"/>
      <stop offset="0.6078431372549019" stop-color="#e9ca00"/>
      <stop offset="0.6431372549019608" stop-color="#e9ca00"/>
      <stop offset="0.8196078431372549" stop-color="#fff87f"/>
      <stop offset="0.8784313725490196" stop-color="#e9ca00"/>
      <stop offset="0.984313725490196" stop-color="#6a4700"/>
    </linearGradient>
  </defs>
</svg>
