<?xml version="1.0" encoding="UTF-8" standalone="no"?>
<svg xmlns:xlink="http://www.w3.org/1999/xlink" height="157.0px" width="169.55px" xmlns="http://www.w3.org/2000/svg">
  <g transform="matrix(1.0, 0.0, 0.0, 1.0, 69.35, 75.85)">
    <path d="M-69.35 -6.65 L-26.95 -75.85 57.8 -75.85 100.2 -6.65 100.2 7.35 57.8 80.75 -26.95 80.75 -69.35 7.35 -69.35 -6.65 M-57.8 7.35 L-21.2 62.5 52.05 62.5 88.65 7.35 52.05 -56.1 -21.2 -56.1 -57.8 7.35" fill="#23140c" fill-rule="evenodd" stroke="none"/>
    <path d="M-2.3 -10.65 L-2.3 -50.45 33.1 -50.45 33.1 -10.65 72.9 -10.65 72.9 24.75 33.1 24.75 33.1 64.55 -2.3 64.55 -2.3 24.75 -42.05 24.75 -42.05 -10.65 -2.3 -10.65" fill="#23140c" fill-rule="evenodd" stroke="none"/>
    <path d="M57.7 63.3 L57.7 81.15 56.7 81.15 56.7 63.3 57.7 63.3" fill="url(#gradient0)" fill-rule="evenodd" stroke="none"/>
    <path d="M-25.95 63.3 L-25.95 81.15 -26.95 81.15 -26.95 63.3 -25.95 63.3" fill="url(#gradient1)" fill-rule="evenodd" stroke="none"/>
  </g>
  <defs>
    <linearGradient gradientTransform="matrix(0.0, -0.0109, -0.0109, 0.0, 57.2, 72.25)" gradientUnits="userSpaceOnUse" id="gradient0" spreadMethod="pad" x1="-819.2" x2="819.2">
      <stop offset="0.0" stop-color="#1e120b" stop-opacity="0.0"/>
      <stop offset="0.01568627450980392" stop-color="#23150d" stop-opacity="0.019607844"/>
      <stop offset="0.2235294117647059" stop-color="#653e22" stop-opacity="0.3137255"/>
      <stop offset="0.4196078431372549" stop-color="#9c5f34" stop-opacity="0.5568628"/>
      <stop offset="0.6039215686274509" stop-color="#c77a42" stop-opacity="0.7490196"/>
      <stop offset="0.7647058823529411" stop-color="#e68c4c" stop-opacity="0.8862745"/>
      <stop offset="0.9019607843137255" stop-color="#f89852" stop-opacity="0.96862745"/>
      <stop offset="1.0" stop-color="#ff9c54"/>
    </linearGradient>
    <linearGradient gradientTransform="matrix(0.0, -0.0109, -0.0109, 0.0, -26.45, 72.25)" gradientUnits="userSpaceOnUse" id="gradient1" spreadMethod="pad" x1="-819.2" x2="819.2">
      <stop offset="0.0" stop-color="#1e120b" stop-opacity="0.0"/>
      <stop offset="0.01568627450980392" stop-color="#23150d" stop-opacity="0.019607844"/>
      <stop offset="0.2235294117647059" stop-color="#653e22" stop-opacity="0.3137255"/>
      <stop offset="0.4196078431372549" stop-color="#9c5f34" stop-opacity="0.5568628"/>
      <stop offset="0.6039215686274509" stop-color="#c77a42" stop-opacity="0.7490196"/>
      <stop offset="0.7647058823529411" stop-color="#e68c4c" stop-opacity="0.8862745"/>
      <stop offset="0.9019607843137255" stop-color="#f89852" stop-opacity="0.96862745"/>
      <stop offset="1.0" stop-color="#ff9c54"/>
    </linearGradient>
  </defs>
</svg>
