<?xml version="1.0" encoding="UTF-8" standalone="no"?>
<svg xmlns:xlink="http://www.w3.org/1999/xlink" height="159.35px" width="200.35px" xmlns="http://www.w3.org/2000/svg">
  <g transform="matrix(1.0, 0.0, 0.0, 1.0, 100.15, 81.15)">
    <path d="M-26.95 -80.05 L57.8 -80.05 100.2 -6.65 57.8 66.75 -26.95 66.75 -69.35 -6.65 -26.95 -80.05 M-57.8 -6.65 L-21.2 56.75 52.05 56.75 88.65 -6.65 52.05 -70.1 -21.2 -70.1 -57.8 -6.65" fill="url(#gradient0)" fill-rule="evenodd" stroke="none"/>
    <path d="M-42.05 10.75 L-42.05 -24.65 -2.3 -24.65 -2.3 -64.45 33.1 -64.45 33.1 -24.65 72.9 -24.65 72.9 10.75 33.1 10.75 33.1 50.55 -2.3 50.55 -2.3 10.75 -42.05 10.75" fill="url(#gradient1)" fill-rule="evenodd" stroke="none"/>
    <path d="M-21.2 -70.1 L-57.8 -6.65 -21.2 56.75 52.05 56.75 88.65 -6.65 52.05 -70.1 -21.2 -70.1 M-69.35 -6.65 L-26.95 -80.05 57.8 -80.05 100.2 -6.65 57.8 66.75 -26.95 66.75 -69.35 -6.65 M-25.8 -78.05 L-67.05 -6.65 -25.8 64.75 56.65 64.75 97.85 -6.65 56.65 -78.05 -25.8 -78.05 M-60.15 -6.65 L-22.35 -72.1 53.2 -72.1 90.95 -6.65 53.2 58.75 -22.35 58.75 -60.15 -6.65" fill="url(#gradient2)" fill-rule="evenodd" stroke="none"/>
    <path d="M-42.05 10.75 L-42.05 -24.65 -2.3 -24.65 -2.3 -64.45 33.1 -64.45 33.1 -24.65 72.9 -24.65 72.9 10.75 33.1 10.75 33.1 50.55 -2.3 50.55 -2.3 10.75 -42.05 10.75 M-40.05 -22.65 L-40.05 8.75 -0.3 8.75 -0.3 48.55 31.1 48.55 31.1 8.75 70.9 8.75 70.9 -22.65 31.1 -22.65 31.1 -62.45 -0.3 -62.45 -0.3 -22.65 -40.05 -22.65" fill="url(#gradient3)" fill-rule="evenodd" stroke="none"/>
    <path d="M-41.4 -68.15 L-83.7 5.15 -41.4 65.2 -41.4 78.2 -58.0 78.2 -100.15 5.15 -100.15 -7.85 -58.0 -68.15 -41.4 -81.15 -41.4 -68.15" fill="#23140c" fill-rule="evenodd" stroke="none"/>
    <path d="M-57.0 78.2 L-58.0 78.2 -58.0 65.05 -57.0 65.05 -57.0 78.2" fill="url(#gradient4)" fill-rule="evenodd" stroke="none"/>
    <path d="M-41.4 78.2 L-42.4 78.2 -42.4 65.2 -41.4 65.2 -41.4 78.2" fill="url(#gradient5)" fill-rule="evenodd" stroke="none"/>
    <path d="M-41.4 -81.15 L-83.7 -7.85 -41.4 65.2 -58.0 65.2 -100.15 -7.85 -58.0 -81.15 -41.4 -81.15" fill="url(#gradient6)" fill-rule="evenodd" stroke="none"/>
    <path d="M-58.0 -81.15 L-41.4 -81.15 -83.7 -7.85 -41.4 65.2 -58.0 65.2 -100.15 -7.85 -58.0 -81.15 M-44.85 -79.15 L-56.85 -79.15 -97.85 -7.85 -56.85 63.2 -44.85 63.2 -86.0 -7.85 -44.85 -79.15" fill="url(#gradient7)" fill-rule="evenodd" stroke="none"/>
  </g>
  <defs>
    <linearGradient gradientTransform="matrix(0.0, -0.1131, -0.1131, 0.0, 15.4, -13.1)" gradientUnits="userSpaceOnUse" id="gradient0" spreadMethod="pad" x1="-819.2" x2="819.2">
      <stop offset="0.00392156862745098" stop-color="#543800"/>
      <stop offset="0.17647058823529413" stop-color="#e9ca00"/>
      <stop offset="0.43529411764705883" stop-color="#6a4a00"/>
      <stop offset="0.44313725490196076" stop-color="#836300"/>
      <stop offset="0.4627450980392157" stop-color="#af8f00"/>
      <stop offset="0.47843137254901963" stop-color="#ceaf00"/>
      <stop offset="0.49019607843137253" stop-color="#e2c300"/>
      <stop offset="0.5019607843137255" stop-color="#e9ca00"/>
      <stop offset="0.6274509803921569" stop-color="#feffbf"/>
      <stop offset="0.7607843137254902" stop-color="#e9ca00"/>
      <stop offset="0.984313725490196" stop-color="#6a4700"/>
    </linearGradient>
    <linearGradient gradientTransform="matrix(0.0, -0.1131, -0.1131, 0.0, 15.4, -13.1)" gradientUnits="userSpaceOnUse" id="gradient1" spreadMethod="pad" x1="-819.2" x2="819.2">
      <stop offset="0.00392156862745098" stop-color="#543800"/>
      <stop offset="0.17647058823529413" stop-color="#e9ca00"/>
      <stop offset="0.43529411764705883" stop-color="#6a4a00"/>
      <stop offset="0.44313725490196076" stop-color="#836300"/>
      <stop offset="0.4627450980392157" stop-color="#af8f00"/>
      <stop offset="0.47843137254901963" stop-color="#ceaf00"/>
      <stop offset="0.49019607843137253" stop-color="#e2c300"/>
      <stop offset="0.5019607843137255" stop-color="#e9ca00"/>
      <stop offset="0.6274509803921569" stop-color="#feffbf"/>
      <stop offset="0.7607843137254902" stop-color="#e9ca00"/>
      <stop offset="0.984313725490196" stop-color="#6a4700"/>
    </linearGradient>
    <linearGradient gradientTransform="matrix(0.1035, 0.0, 0.0, -0.1035, 15.4, -6.65)" gradientUnits="userSpaceOnUse" id="gradient2" spreadMethod="pad" x1="-819.2" x2="819.2">
      <stop offset="0.07450980392156863" stop-color="#543800"/>
      <stop offset="0.17647058823529413" stop-color="#e9ca00"/>
      <stop offset="0.43529411764705883" stop-color="#6a4a00"/>
      <stop offset="0.4588235294117647" stop-color="#836300"/>
      <stop offset="0.5058823529411764" stop-color="#af8f00"/>
      <stop offset="0.5490196078431373" stop-color="#ceaf00"/>
      <stop offset="0.5843137254901961" stop-color="#e2c300"/>
      <stop offset="0.6078431372549019" stop-color="#e9ca00"/>
      <stop offset="0.6431372549019608" stop-color="#e9ca00"/>
      <stop offset="0.8196078431372549" stop-color="#fff87f"/>
      <stop offset="0.8784313725490196" stop-color="#e9ca00"/>
      <stop offset="0.984313725490196" stop-color="#6a4700"/>
    </linearGradient>
    <linearGradient gradientTransform="matrix(0.0702, 0.0, 0.0, -0.0702, 15.4, -6.95)" gradientUnits="userSpaceOnUse" id="gradient3" spreadMethod="pad" x1="-819.2" x2="819.2">
      <stop offset="0.07450980392156863" stop-color="#543800"/>
      <stop offset="0.17647058823529413" stop-color="#e9ca00"/>
      <stop offset="0.43529411764705883" stop-color="#6a4a00"/>
      <stop offset="0.4588235294117647" stop-color="#836300"/>
      <stop offset="0.5058823529411764" stop-color="#af8f00"/>
      <stop offset="0.5490196078431373" stop-color="#ceaf00"/>
      <stop offset="0.5843137254901961" stop-color="#e2c300"/>
      <stop offset="0.6078431372549019" stop-color="#e9ca00"/>
      <stop offset="0.6431372549019608" stop-color="#e9ca00"/>
      <stop offset="0.8196078431372549" stop-color="#fff87f"/>
      <stop offset="0.8784313725490196" stop-color="#e9ca00"/>
      <stop offset="0.984313725490196" stop-color="#6a4700"/>
    </linearGradient>
    <linearGradient gradientTransform="matrix(0.0, -0.008, -0.008, 0.0, -57.5, 71.6)" gradientUnits="userSpaceOnUse" id="gradient4" spreadMethod="pad" x1="-819.2" x2="819.2">
      <stop offset="0.0" stop-color="#1e120b" stop-opacity="0.0"/>
      <stop offset="0.01568627450980392" stop-color="#23150d" stop-opacity="0.019607844"/>
      <stop offset="0.2235294117647059" stop-color="#653e22" stop-opacity="0.3137255"/>
      <stop offset="0.4196078431372549" stop-color="#9c5f34" stop-opacity="0.5568628"/>
      <stop offset="0.6039215686274509" stop-color="#c77a42" stop-opacity="0.7490196"/>
      <stop offset="0.7647058823529411" stop-color="#e68c4c" stop-opacity="0.8862745"/>
      <stop offset="0.9019607843137255" stop-color="#f89852" stop-opacity="0.96862745"/>
      <stop offset="1.0" stop-color="#ff9c54"/>
    </linearGradient>
    <linearGradient gradientTransform="matrix(0.0, -0.0079, -0.0079, 0.0, -41.9, 71.7)" gradientUnits="userSpaceOnUse" id="gradient5" spreadMethod="pad" x1="-819.2" x2="819.2">
      <stop offset="0.0" stop-color="#1e120b" stop-opacity="0.0"/>
      <stop offset="0.01568627450980392" stop-color="#23150d" stop-opacity="0.019607844"/>
      <stop offset="0.2235294117647059" stop-color="#653e22" stop-opacity="0.3137255"/>
      <stop offset="0.4196078431372549" stop-color="#9c5f34" stop-opacity="0.5568628"/>
      <stop offset="0.6039215686274509" stop-color="#c77a42" stop-opacity="0.7490196"/>
      <stop offset="0.7647058823529411" stop-color="#e68c4c" stop-opacity="0.8862745"/>
      <stop offset="0.9019607843137255" stop-color="#f89852" stop-opacity="0.96862745"/>
      <stop offset="1.0" stop-color="#ff9c54"/>
    </linearGradient>
    <linearGradient gradientTransform="matrix(0.0, -0.0901, -0.0901, 0.0, -70.75, -11.9)" gradientUnits="userSpaceOnUse" id="gradient6" spreadMethod="pad" x1="-819.2" x2="819.2">
      <stop offset="0.00392156862745098" stop-color="#543800"/>
      <stop offset="0.17647058823529413" stop-color="#e9ca00"/>
      <stop offset="0.43529411764705883" stop-color="#6a4a00"/>
      <stop offset="0.44313725490196076" stop-color="#836300"/>
      <stop offset="0.4627450980392157" stop-color="#af8f00"/>
      <stop offset="0.47843137254901963" stop-color="#ceaf00"/>
      <stop offset="0.49019607843137253" stop-color="#e2c300"/>
      <stop offset="0.5019607843137255" stop-color="#e9ca00"/>
      <stop offset="0.6274509803921569" stop-color="#feffbf"/>
      <stop offset="0.7607843137254902" stop-color="#e9ca00"/>
      <stop offset="0.984313725490196" stop-color="#6a4700"/>
    </linearGradient>
    <linearGradient gradientTransform="matrix(0.0359, 0.0, 0.0, -0.0359, -70.75, -7.95)" gradientUnits="userSpaceOnUse" id="gradient7" spreadMethod="pad" x1="-819.2" x2="819.2">
      <stop offset="0.07450980392156863" stop-color="#543800"/>
      <stop offset="0.17647058823529413" stop-color="#e9ca00"/>
      <stop offset="0.43529411764705883" stop-color="#6a4a00"/>
      <stop offset="0.4588235294117647" stop-color="#836300"/>
      <stop offset="0.5058823529411764" stop-color="#af8f00"/>
      <stop offset="0.5490196078431373" stop-color="#ceaf00"/>
      <stop offset="0.5843137254901961" stop-color="#e2c300"/>
      <stop offset="0.6078431372549019" stop-color="#e9ca00"/>
      <stop offset="0.6431372549019608" stop-color="#e9ca00"/>
      <stop offset="0.8196078431372549" stop-color="#fff87f"/>
      <stop offset="0.8784313725490196" stop-color="#e9ca00"/>
      <stop offset="0.984313725490196" stop-color="#6a4700"/>
    </linearGradient>
  </defs>
</svg>
