<?xml version="1.0" encoding="UTF-8" standalone="no"?>
<svg xmlns:xlink="http://www.w3.org/1999/xlink" height="156.95px" width="169.5px" xmlns="http://www.w3.org/2000/svg">
  <g transform="matrix(1.0, 0.0, 0.0, 1.0, 84.45, 75.8)">
    <path d="M85.05 7.35 L42.7 80.75 -42.05 80.75 -84.45 7.35 -84.45 -6.65 -42.05 -75.8 42.7 -75.8 85.05 -6.65 85.05 7.35 M-72.95 7.35 L-36.3 62.5 36.95 62.5 73.55 7.35 36.95 -56.1 -36.3 -56.1 -72.95 7.35" fill="#23140c" fill-rule="evenodd" stroke="none"/>
    <path d="M57.8 -10.65 L57.8 24.75 18.0 24.75 18.0 64.55 -17.4 64.55 -17.4 24.75 -57.2 24.75 -57.2 -10.65 -17.4 -10.65 -17.4 -50.45 18.0 -50.45 18.0 -10.65 57.8 -10.65" fill="#23140c" fill-rule="evenodd" stroke="none"/>
    <path d="M42.55 63.3 L42.55 81.15 41.55 81.15 41.55 63.3 42.55 63.3" fill="url(#gradient0)" fill-rule="evenodd" stroke="none"/>
    <path d="M-41.05 63.3 L-41.05 81.15 -42.05 81.15 -42.05 63.3 -41.05 63.3" fill="url(#gradient1)" fill-rule="evenodd" stroke="none"/>
  </g>
  <defs>
    <linearGradient gradientTransform="matrix(0.0, -0.0109, -0.0109, 0.0, 42.05, 72.25)" gradientUnits="userSpaceOnUse" id="gradient0" spreadMethod="pad" x1="-819.2" x2="819.2">
      <stop offset="0.0" stop-color="#1e120b" stop-opacity="0.0"/>
      <stop offset="0.01568627450980392" stop-color="#23150d" stop-opacity="0.019607844"/>
      <stop offset="0.2235294117647059" stop-color="#653e22" stop-opacity="0.3137255"/>
      <stop offset="0.4196078431372549" stop-color="#9c5f34" stop-opacity="0.5568628"/>
      <stop offset="0.6039215686274509" stop-color="#c77a42" stop-opacity="0.7490196"/>
      <stop offset="0.7647058823529411" stop-color="#e68c4c" stop-opacity="0.8862745"/>
      <stop offset="0.9019607843137255" stop-color="#f89852" stop-opacity="0.96862745"/>
      <stop offset="1.0" stop-color="#ff9c54"/>
    </linearGradient>
    <linearGradient gradientTransform="matrix(0.0, -0.0109, -0.0109, 0.0, -41.55, 72.25)" gradientUnits="userSpaceOnUse" id="gradient1" spreadMethod="pad" x1="-819.2" x2="819.2">
      <stop offset="0.0" stop-color="#1e120b" stop-opacity="0.0"/>
      <stop offset="0.01568627450980392" stop-color="#23150d" stop-opacity="0.019607844"/>
      <stop offset="0.2235294117647059" stop-color="#653e22" stop-opacity="0.3137255"/>
      <stop offset="0.4196078431372549" stop-color="#9c5f34" stop-opacity="0.5568628"/>
      <stop offset="0.6039215686274509" stop-color="#c77a42" stop-opacity="0.7490196"/>
      <stop offset="0.7647058823529411" stop-color="#e68c4c" stop-opacity="0.8862745"/>
      <stop offset="0.9019607843137255" stop-color="#f89852" stop-opacity="0.96862745"/>
      <stop offset="1.0" stop-color="#ff9c54"/>
    </linearGradient>
  </defs>
</svg>
