<?xml version="1.0" encoding="UTF-8" standalone="no"?>
<svg xmlns:xlink="http://www.w3.org/1999/xlink" height="205.7px" width="221.3px" xmlns="http://www.w3.org/2000/svg">
  <g transform="matrix(1.0, 0.0, 0.0, 1.0, 110.65, 102.85)">
    <path d="M110.65 7.0 L55.35 102.85 -55.35 102.85 -110.65 7.0 -110.65 -7.0 -55.35 -97.85 55.35 -97.85 110.65 -7.0 110.65 7.0 M49.65 -79.0 L43.5 -79.0 42.7 -80.1 -42.05 -80.1 -42.75 -79.0 -49.65 -79.0 -99.3 7.0 -49.65 85.4 49.65 85.4 99.35 7.0 49.65 -79.0" fill="#23140c" fill-rule="evenodd" stroke="none"/>
    <path d="M110.65 -7.0 L55.35 88.85 -55.35 88.85 -110.65 -7.0 -55.35 -102.85 55.35 -102.85 110.65 -7.0 M49.65 -93.0 L-49.65 -93.0 -99.3 -7.0 -49.65 79.0 49.65 79.0 99.35 -7.0 49.65 -93.0" fill="url(#gradient0)" fill-rule="evenodd" stroke="none"/>
    <path d="M99.35 -7.0 L49.65 -93.0 -49.65 -93.0 -99.3 -7.0 -49.65 79.0 49.65 79.0 99.35 -7.0 M55.35 -102.85 L110.65 -7.0 55.35 88.85 -55.35 88.85 -110.65 -7.0 -55.35 -102.85 55.35 -102.85 M108.35 -7.0 L54.2 -100.85 -54.15 -100.85 -108.35 -7.0 -54.15 86.85 54.2 86.85 108.35 -7.0 M50.8 -95.0 L101.65 -7.0 50.8 81.0 -50.8 81.0 -101.65 -7.0 -50.8 -95.0 50.8 -95.0" fill="url(#gradient1)" fill-rule="evenodd" stroke="none"/>
  </g>
  <defs>
    <linearGradient gradientTransform="matrix(0.0, -0.117, -0.117, 0.0, 0.0, -7.0)" gradientUnits="userSpaceOnUse" id="gradient0" spreadMethod="pad" x1="-819.2" x2="819.2">
      <stop offset="0.00392156862745098" stop-color="#543800"/>
      <stop offset="0.17647058823529413" stop-color="#e9ca00"/>
      <stop offset="0.43529411764705883" stop-color="#6a4a00"/>
      <stop offset="0.44313725490196076" stop-color="#836300"/>
      <stop offset="0.4627450980392157" stop-color="#af8f00"/>
      <stop offset="0.47843137254901963" stop-color="#ceaf00"/>
      <stop offset="0.49019607843137253" stop-color="#e2c300"/>
      <stop offset="0.5019607843137255" stop-color="#e9ca00"/>
      <stop offset="0.6274509803921569" stop-color="#feffbf"/>
      <stop offset="0.7607843137254902" stop-color="#e9ca00"/>
      <stop offset="0.984313725490196" stop-color="#6a4700"/>
    </linearGradient>
    <linearGradient gradientTransform="matrix(0.1351, 0.0, 0.0, -0.1351, 0.0, -7.0)" gradientUnits="userSpaceOnUse" id="gradient1" spreadMethod="pad" x1="-819.2" x2="819.2">
      <stop offset="0.07450980392156863" stop-color="#543800"/>
      <stop offset="0.17647058823529413" stop-color="#e9ca00"/>
      <stop offset="0.43529411764705883" stop-color="#6a4a00"/>
      <stop offset="0.4588235294117647" stop-color="#836300"/>
      <stop offset="0.5058823529411764" stop-color="#af8f00"/>
      <stop offset="0.5490196078431373" stop-color="#ceaf00"/>
      <stop offset="0.5843137254901961" stop-color="#e2c300"/>
      <stop offset="0.6078431372549019" stop-color="#e9ca00"/>
      <stop offset="0.6431372549019608" stop-color="#e9ca00"/>
      <stop offset="0.8196078431372549" stop-color="#fff87f"/>
      <stop offset="0.8784313725490196" stop-color="#e9ca00"/>
      <stop offset="0.984313725490196" stop-color="#6a4700"/>
    </linearGradient>
  </defs>
</svg>
