<?xml version="1.0" encoding="UTF-8" standalone="no"?>
<svg xmlns:xlink="http://www.w3.org/1999/xlink" height="156.95px" width="169.5px" xmlns="http://www.w3.org/2000/svg">
  <g transform="matrix(1.0, 0.0, 0.0, 1.0, 84.75, 76.35)">
    <path d="M-17.7 -11.15 L-17.7 -50.95 17.7 -50.95 17.7 -11.15 57.5 -11.15 57.5 24.25 17.7 24.25 17.7 64.05 -17.7 64.05 -17.7 24.25 -57.5 24.25 -57.5 -11.15 -17.7 -11.15" fill="#23140c" fill-rule="evenodd" stroke="none"/>
    <path d="M-42.35 -76.35 L42.4 -76.35 84.75 -7.2 84.75 6.8 42.4 80.2 -42.35 80.2 -84.75 6.8 -84.75 -7.2 -42.35 -76.35 M-36.6 61.95 L36.65 61.95 73.25 6.8 36.65 -56.6 -36.6 -56.6 -73.25 6.8 -36.6 61.95" fill="#23140c" fill-rule="evenodd" stroke="none"/>
    <path d="M42.25 80.6 L41.25 80.6 41.25 62.8 42.25 62.8 42.25 80.6" fill="url(#gradient0)" fill-rule="evenodd" stroke="none"/>
  </g>
  <defs>
    <linearGradient gradientTransform="matrix(0.0, -0.0109, -0.0109, 0.0, 41.75, 71.7)" gradientUnits="userSpaceOnUse" id="gradient0" spreadMethod="pad" x1="-819.2" x2="819.2">
      <stop offset="0.0" stop-color="#1e120b" stop-opacity="0.0"/>
      <stop offset="0.01568627450980392" stop-color="#23150d" stop-opacity="0.019607844"/>
      <stop offset="0.2235294117647059" stop-color="#653e22" stop-opacity="0.3137255"/>
      <stop offset="0.4196078431372549" stop-color="#9c5f34" stop-opacity="0.5568628"/>
      <stop offset="0.6039215686274509" stop-color="#c77a42" stop-opacity="0.7490196"/>
      <stop offset="0.7647058823529411" stop-color="#e68c4c" stop-opacity="0.8862745"/>
      <stop offset="0.9019607843137255" stop-color="#f89852" stop-opacity="0.96862745"/>
      <stop offset="1.0" stop-color="#ff9c54"/>
    </linearGradient>
  </defs>
</svg>
