<?xml version="1.0" encoding="UTF-8" standalone="no"?>
<svg xmlns:xlink="http://www.w3.org/1999/xlink" height="200.7px" width="221.3px" xmlns="http://www.w3.org/2000/svg">
  <g transform="matrix(1.0, 0.0, 0.0, 1.0, 110.65, 97.85)">
    <path d="M-42.35 -80.6 L42.4 -80.6 84.75 -7.2 42.4 66.2 -42.35 66.2 -84.75 -7.2 -42.35 -80.6 M-73.25 -7.2 L-36.6 56.25 36.65 56.25 73.25 -7.2 36.65 -70.6 -36.6 -70.6 -73.25 -7.2" fill="url(#gradient0)" fill-rule="evenodd" stroke="none"/>
    <path d="M-17.7 -25.15 L-17.7 -64.95 17.7 -64.95 17.7 -25.15 57.5 -25.15 57.5 10.25 17.7 10.25 17.7 50.05 -17.7 50.05 -17.7 10.25 -57.5 10.25 -57.5 -25.15 -17.7 -25.15" fill="url(#gradient1)" fill-rule="evenodd" stroke="none"/>
    <path d="M-36.6 -70.6 L-73.25 -7.2 -36.6 56.25 36.65 56.25 73.25 -7.2 36.65 -70.6 -36.6 -70.6 M-84.75 -7.2 L-42.35 -80.6 42.4 -80.6 84.75 -7.2 42.4 66.2 -42.35 66.2 -84.75 -7.2 M-41.2 -78.6 L-82.45 -7.2 -41.2 64.2 41.25 64.2 82.45 -7.2 41.25 -78.6 -41.2 -78.6 M-75.55 -7.2 L-37.75 -72.6 37.8 -72.6 75.55 -7.2 37.8 58.25 -37.75 58.25 -75.55 -7.2" fill="url(#gradient2)" fill-rule="evenodd" stroke="none"/>
    <path d="M17.7 -64.95 L17.7 -25.15 57.5 -25.15 57.5 10.25 17.7 10.25 17.7 50.05 -17.7 50.05 -17.7 10.25 -57.5 10.25 -57.5 -25.15 -17.7 -25.15 -17.7 -64.95 17.7 -64.95 M15.7 -23.15 L15.7 -62.95 -15.7 -62.95 -15.7 -23.15 -55.5 -23.15 -55.5 8.25 -15.7 8.25 -15.7 48.05 15.7 48.05 15.7 8.25 55.5 8.25 55.5 -23.15 15.7 -23.15" fill="url(#gradient3)" fill-rule="evenodd" stroke="none"/>
    <path d="M42.4 -80.75 L-42.35 -80.75 -43.3 -79.0 -49.65 -79.0 -99.3 7.0 -49.65 85.4 49.65 85.4 99.35 7.0 49.65 -79.0 43.3 -79.0 42.4 -80.75 M-110.65 7.0 L-110.65 -7.0 -55.35 -97.85 55.35 -97.85 110.65 -7.0 110.65 7.0 55.35 102.85 -55.35 102.85 -110.65 7.0" fill="#23140c" fill-rule="evenodd" stroke="none"/>
    <path d="M-54.85 102.85 L-55.3 102.85 -55.85 102.0 -55.85 85.05 -54.85 85.05 -54.85 102.85" fill="url(#gradient4)" fill-rule="evenodd" stroke="none"/>
    <path d="M55.75 102.2 L55.3 102.85 54.75 102.85 54.75 85.05 55.75 85.05 55.75 102.2" fill="url(#gradient5)" fill-rule="evenodd" stroke="none"/>
  </g>
  <defs>
    <linearGradient gradientTransform="matrix(0.0, -0.1131, -0.1131, 0.0, 0.0, -13.6)" gradientUnits="userSpaceOnUse" id="gradient0" spreadMethod="pad" x1="-819.2" x2="819.2">
      <stop offset="0.00392156862745098" stop-color="#543800"/>
      <stop offset="0.17647058823529413" stop-color="#e9ca00"/>
      <stop offset="0.43529411764705883" stop-color="#6a4a00"/>
      <stop offset="0.44313725490196076" stop-color="#836300"/>
      <stop offset="0.4627450980392157" stop-color="#af8f00"/>
      <stop offset="0.47843137254901963" stop-color="#ceaf00"/>
      <stop offset="0.49019607843137253" stop-color="#e2c300"/>
      <stop offset="0.5019607843137255" stop-color="#e9ca00"/>
      <stop offset="0.6274509803921569" stop-color="#feffbf"/>
      <stop offset="0.7607843137254902" stop-color="#e9ca00"/>
      <stop offset="0.984313725490196" stop-color="#6a4700"/>
    </linearGradient>
    <linearGradient gradientTransform="matrix(0.0, -0.1131, -0.1131, 0.0, 0.0, -13.6)" gradientUnits="userSpaceOnUse" id="gradient1" spreadMethod="pad" x1="-819.2" x2="819.2">
      <stop offset="0.00392156862745098" stop-color="#543800"/>
      <stop offset="0.17647058823529413" stop-color="#e9ca00"/>
      <stop offset="0.43529411764705883" stop-color="#6a4a00"/>
      <stop offset="0.44313725490196076" stop-color="#836300"/>
      <stop offset="0.4627450980392157" stop-color="#af8f00"/>
      <stop offset="0.47843137254901963" stop-color="#ceaf00"/>
      <stop offset="0.49019607843137253" stop-color="#e2c300"/>
      <stop offset="0.5019607843137255" stop-color="#e9ca00"/>
      <stop offset="0.6274509803921569" stop-color="#feffbf"/>
      <stop offset="0.7607843137254902" stop-color="#e9ca00"/>
      <stop offset="0.984313725490196" stop-color="#6a4700"/>
    </linearGradient>
    <linearGradient gradientTransform="matrix(0.1035, 0.0, 0.0, -0.1035, 0.0, -7.2)" gradientUnits="userSpaceOnUse" id="gradient2" spreadMethod="pad" x1="-819.2" x2="819.2">
      <stop offset="0.07450980392156863" stop-color="#543800"/>
      <stop offset="0.17647058823529413" stop-color="#e9ca00"/>
      <stop offset="0.43529411764705883" stop-color="#6a4a00"/>
      <stop offset="0.4588235294117647" stop-color="#836300"/>
      <stop offset="0.5058823529411764" stop-color="#af8f00"/>
      <stop offset="0.5490196078431373" stop-color="#ceaf00"/>
      <stop offset="0.5843137254901961" stop-color="#e2c300"/>
      <stop offset="0.6078431372549019" stop-color="#e9ca00"/>
      <stop offset="0.6431372549019608" stop-color="#e9ca00"/>
      <stop offset="0.8196078431372549" stop-color="#fff87f"/>
      <stop offset="0.8784313725490196" stop-color="#e9ca00"/>
      <stop offset="0.984313725490196" stop-color="#6a4700"/>
    </linearGradient>
    <linearGradient gradientTransform="matrix(0.0702, 0.0, 0.0, -0.0702, 0.0, -7.45)" gradientUnits="userSpaceOnUse" id="gradient3" spreadMethod="pad" x1="-819.2" x2="819.2">
      <stop offset="0.07450980392156863" stop-color="#543800"/>
      <stop offset="0.17647058823529413" stop-color="#e9ca00"/>
      <stop offset="0.43529411764705883" stop-color="#6a4a00"/>
      <stop offset="0.4588235294117647" stop-color="#836300"/>
      <stop offset="0.5058823529411764" stop-color="#af8f00"/>
      <stop offset="0.5490196078431373" stop-color="#ceaf00"/>
      <stop offset="0.5843137254901961" stop-color="#e2c300"/>
      <stop offset="0.6078431372549019" stop-color="#e9ca00"/>
      <stop offset="0.6431372549019608" stop-color="#e9ca00"/>
      <stop offset="0.8196078431372549" stop-color="#fff87f"/>
      <stop offset="0.8784313725490196" stop-color="#e9ca00"/>
      <stop offset="0.984313725490196" stop-color="#6a4700"/>
    </linearGradient>
    <linearGradient gradientTransform="matrix(0.0, -0.0108, -0.0108, 0.0, -55.35, 93.95)" gradientUnits="userSpaceOnUse" id="gradient4" spreadMethod="pad" x1="-819.2" x2="819.2">
      <stop offset="0.0" stop-color="#1e120b" stop-opacity="0.0"/>
      <stop offset="0.01568627450980392" stop-color="#23150d" stop-opacity="0.019607844"/>
      <stop offset="0.2235294117647059" stop-color="#653e22" stop-opacity="0.3137255"/>
      <stop offset="0.4196078431372549" stop-color="#9c5f34" stop-opacity="0.5568628"/>
      <stop offset="0.6039215686274509" stop-color="#c77a42" stop-opacity="0.7490196"/>
      <stop offset="0.7647058823529411" stop-color="#e68c4c" stop-opacity="0.8862745"/>
      <stop offset="0.9019607843137255" stop-color="#f89852" stop-opacity="0.96862745"/>
      <stop offset="1.0" stop-color="#ff9c54"/>
    </linearGradient>
    <linearGradient gradientTransform="matrix(0.0, -0.0108, -0.0108, 0.0, 55.25, 93.95)" gradientUnits="userSpaceOnUse" id="gradient5" spreadMethod="pad" x1="-819.2" x2="819.2">
      <stop offset="0.0" stop-color="#1e120b" stop-opacity="0.0"/>
      <stop offset="0.01568627450980392" stop-color="#23150d" stop-opacity="0.019607844"/>
      <stop offset="0.2235294117647059" stop-color="#653e22" stop-opacity="0.3137255"/>
      <stop offset="0.4196078431372549" stop-color="#9c5f34" stop-opacity="0.5568628"/>
      <stop offset="0.6039215686274509" stop-color="#c77a42" stop-opacity="0.7490196"/>
      <stop offset="0.7647058823529411" stop-color="#e68c4c" stop-opacity="0.8862745"/>
      <stop offset="0.9019607843137255" stop-color="#f89852" stop-opacity="0.96862745"/>
      <stop offset="1.0" stop-color="#ff9c54"/>
    </linearGradient>
  </defs>
</svg>
