<?xml version="1.0" encoding="UTF-8" standalone="no"?>
<svg xmlns:xlink="http://www.w3.org/1999/xlink" height="247.7px" width="286.0px" xmlns="http://www.w3.org/2000/svg">
  <g transform="matrix(1.0, 0.0, 0.0, 1.0, 143.0, 132.9)">
    <path d="M-143.0 -9.05 L-71.5 -132.9 71.5 -132.9 143.0 -9.05 71.5 114.8 -71.5 114.8 -143.0 -9.05 M-64.15 102.1 L64.2 102.1 128.35 -9.05 64.2 -120.2 -64.15 -120.2 -128.35 -9.05 -64.15 102.1" fill="url(#gradient0)" fill-rule="evenodd" stroke="none"/>
    <path d="M-128.35 -9.05 L-64.15 102.1 64.2 102.1 128.35 -9.05 64.2 -120.2 -64.15 -120.2 -128.35 -9.05 M-71.5 114.8 L-143.0 -9.05 -71.5 -132.9 71.5 -132.9 143.0 -9.05 71.5 114.8 -71.5 114.8 M-140.0 -9.05 L-70.0 112.25 70.0 112.25 140.05 -9.05 70.0 -130.3 -70.0 -130.3 -140.0 -9.05 M-65.65 104.7 L-131.35 -9.05 -65.65 -122.8 65.7 -122.8 131.35 -9.05 65.7 104.7 -65.65 104.7" fill="url(#gradient1)" fill-rule="evenodd" stroke="none"/>
  </g>
  <defs>
    <linearGradient gradientTransform="matrix(0.0, -0.1512, -0.1512, 0.0, 0.0, -9.05)" gradientUnits="userSpaceOnUse" id="gradient0" spreadMethod="pad" x1="-819.2" x2="819.2">
      <stop offset="0.00392156862745098" stop-color="#543800"/>
      <stop offset="0.17647058823529413" stop-color="#e9ca00"/>
      <stop offset="0.43529411764705883" stop-color="#6a4a00"/>
      <stop offset="0.44313725490196076" stop-color="#836300"/>
      <stop offset="0.4627450980392157" stop-color="#af8f00"/>
      <stop offset="0.47843137254901963" stop-color="#ceaf00"/>
      <stop offset="0.49019607843137253" stop-color="#e2c300"/>
      <stop offset="0.5019607843137255" stop-color="#e9ca00"/>
      <stop offset="0.6274509803921569" stop-color="#feffbf"/>
      <stop offset="0.7607843137254902" stop-color="#e9ca00"/>
      <stop offset="0.984313725490196" stop-color="#6a4700"/>
    </linearGradient>
    <linearGradient gradientTransform="matrix(0.1746, 0.0, 0.0, -0.1746, 0.0, -9.05)" gradientUnits="userSpaceOnUse" id="gradient1" spreadMethod="pad" x1="-819.2" x2="819.2">
      <stop offset="0.07450980392156863" stop-color="#543800"/>
      <stop offset="0.17647058823529413" stop-color="#e9ca00"/>
      <stop offset="0.43529411764705883" stop-color="#6a4a00"/>
      <stop offset="0.4588235294117647" stop-color="#836300"/>
      <stop offset="0.5058823529411764" stop-color="#af8f00"/>
      <stop offset="0.5490196078431373" stop-color="#ceaf00"/>
      <stop offset="0.5843137254901961" stop-color="#e2c300"/>
      <stop offset="0.6078431372549019" stop-color="#e9ca00"/>
      <stop offset="0.6431372549019608" stop-color="#e9ca00"/>
      <stop offset="0.8196078431372549" stop-color="#fff87f"/>
      <stop offset="0.8784313725490196" stop-color="#e9ca00"/>
      <stop offset="0.984313725490196" stop-color="#6a4700"/>
    </linearGradient>
  </defs>
</svg>
