<?xml version="1.0" encoding="UTF-8" standalone="no"?>
<svg xmlns:xlink="http://www.w3.org/1999/xlink" height="146.8px" width="245.3px" xmlns="http://www.w3.org/2000/svg">
  <g transform="matrix(1.0, 0.0, 0.0, 1.0, 122.65, 80.6)">
    <path d="M80.3 66.2 L-80.25 66.2 -122.65 -7.2 -80.25 -80.6 80.3 -80.6 122.65 -7.2 80.3 66.2 M111.15 -7.2 L74.5 -70.6 -74.5 -70.6 -111.1 -7.2 -74.5 56.25 74.5 56.25 111.15 -7.2" fill="url(#gradient0)" fill-rule="evenodd" stroke="none"/>
    <path d="M74.5 56.25 L111.15 -7.2 74.5 -70.6 -74.5 -70.6 -111.1 -7.2 -74.5 56.25 74.5 56.25 M122.65 -7.2 L80.3 66.2 -80.25 66.2 -122.65 -7.2 -80.25 -80.6 80.3 -80.6 122.65 -7.2 M79.1 64.2 L120.35 -7.2 79.1 -78.6 -79.1 -78.6 -120.35 -7.2 -79.1 64.2 79.1 64.2 M113.45 -7.2 L75.65 58.25 -75.65 58.25 -113.45 -7.2 -75.65 -72.6 75.65 -72.6 113.45 -7.2" fill="url(#gradient1)" fill-rule="evenodd" stroke="none"/>
  </g>
  <defs>
    <linearGradient gradientTransform="matrix(0.0, -0.1131, -0.1131, 0.0, 0.0, -13.65)" gradientUnits="userSpaceOnUse" id="gradient0" spreadMethod="pad" x1="-819.2" x2="819.2">
      <stop offset="0.00392156862745098" stop-color="#543800"/>
      <stop offset="0.17647058823529413" stop-color="#e9ca00"/>
      <stop offset="0.43529411764705883" stop-color="#6a4a00"/>
      <stop offset="0.44313725490196076" stop-color="#836300"/>
      <stop offset="0.4627450980392157" stop-color="#af8f00"/>
      <stop offset="0.47843137254901963" stop-color="#ceaf00"/>
      <stop offset="0.49019607843137253" stop-color="#e2c300"/>
      <stop offset="0.5019607843137255" stop-color="#e9ca00"/>
      <stop offset="0.6274509803921569" stop-color="#feffbf"/>
      <stop offset="0.7607843137254902" stop-color="#e9ca00"/>
      <stop offset="0.984313725490196" stop-color="#6a4700"/>
    </linearGradient>
    <linearGradient gradientTransform="matrix(0.1497, 0.0, 0.0, -0.1497, 0.0, -7.2)" gradientUnits="userSpaceOnUse" id="gradient1" spreadMethod="pad" x1="-819.2" x2="819.2">
      <stop offset="0.07450980392156863" stop-color="#543800"/>
      <stop offset="0.17647058823529413" stop-color="#e9ca00"/>
      <stop offset="0.43529411764705883" stop-color="#6a4a00"/>
      <stop offset="0.4588235294117647" stop-color="#836300"/>
      <stop offset="0.5058823529411764" stop-color="#af8f00"/>
      <stop offset="0.5490196078431373" stop-color="#ceaf00"/>
      <stop offset="0.5843137254901961" stop-color="#e2c300"/>
      <stop offset="0.6078431372549019" stop-color="#e9ca00"/>
      <stop offset="0.6431372549019608" stop-color="#e9ca00"/>
      <stop offset="0.8196078431372549" stop-color="#fff87f"/>
      <stop offset="0.8784313725490196" stop-color="#e9ca00"/>
      <stop offset="0.984313725490196" stop-color="#6a4700"/>
    </linearGradient>
  </defs>
</svg>
