<?xml version="1.0" encoding="UTF-8" standalone="no"?>
<svg xmlns:xlink="http://www.w3.org/1999/xlink" height="200.85px" width="297.8px" xmlns="http://www.w3.org/2000/svg">
  <g transform="matrix(1.0, 0.0, 0.0, 1.0, 148.9, 98.4)">
    <path d="M80.3 -80.55 L122.65 -7.15 80.3 66.25 -80.25 66.25 -122.65 -7.15 -80.25 -80.55 80.3 -80.55 M-74.5 -70.6 L-111.1 -7.15 -74.5 56.25 74.5 56.25 111.15 -7.15 74.5 -70.6 -74.5 -70.6" fill="url(#gradient0)" fill-rule="evenodd" stroke="none"/>
    <path d="M74.5 -70.6 L-74.5 -70.6 -111.1 -7.15 -74.5 56.25 74.5 56.25 111.15 -7.15 74.5 -70.6 M-80.25 -80.55 L80.3 -80.55 122.65 -7.15 80.3 66.25 -80.25 66.25 -122.65 -7.15 -80.25 -80.55 M79.15 -78.55 L-79.1 -78.55 -120.35 -7.15 -79.1 64.25 79.15 64.25 120.35 -7.15 79.15 -78.55 M-75.65 -72.6 L75.65 -72.6 113.45 -7.15 75.65 58.25 -75.65 58.25 -113.45 -7.15 -75.65 -72.6" fill="url(#gradient1)" fill-rule="evenodd" stroke="none"/>
    <path d="M-92.6 -78.6 L-137.8 7.05 -92.6 84.6 92.6 84.6 137.8 7.05 92.6 -78.6 81.4 -78.6 80.3 -80.55 -80.25 -80.55 -81.4 -78.6 -92.6 -78.6 M98.55 -98.4 L148.9 -6.95 148.9 7.05 98.55 102.45 -98.5 102.45 -148.9 7.05 -148.9 -6.95 -98.5 -98.4 98.55 -98.4" fill="#23140c" fill-rule="evenodd" stroke="none"/>
    <path d="M-98.0 102.45 L-98.45 102.45 -99.0 101.6 -99.0 84.7 -98.0 84.7 -98.0 102.45" fill="url(#gradient2)" fill-rule="evenodd" stroke="none"/>
    <path d="M98.95 101.8 L98.45 102.45 97.95 102.45 97.95 84.7 98.95 84.7 98.95 101.8" fill="url(#gradient3)" fill-rule="evenodd" stroke="none"/>
  </g>
  <defs>
    <linearGradient gradientTransform="matrix(0.0, -0.1131, -0.1131, 0.0, 0.0, -13.6)" gradientUnits="userSpaceOnUse" id="gradient0" spreadMethod="pad" x1="-819.2" x2="819.2">
      <stop offset="0.00392156862745098" stop-color="#543800"/>
      <stop offset="0.17647058823529413" stop-color="#e9ca00"/>
      <stop offset="0.43529411764705883" stop-color="#6a4a00"/>
      <stop offset="0.44313725490196076" stop-color="#836300"/>
      <stop offset="0.4627450980392157" stop-color="#af8f00"/>
      <stop offset="0.47843137254901963" stop-color="#ceaf00"/>
      <stop offset="0.49019607843137253" stop-color="#e2c300"/>
      <stop offset="0.5019607843137255" stop-color="#e9ca00"/>
      <stop offset="0.6274509803921569" stop-color="#feffbf"/>
      <stop offset="0.7607843137254902" stop-color="#e9ca00"/>
      <stop offset="0.984313725490196" stop-color="#6a4700"/>
    </linearGradient>
    <linearGradient gradientTransform="matrix(0.1497, 0.0, 0.0, -0.1497, 0.0, -7.15)" gradientUnits="userSpaceOnUse" id="gradient1" spreadMethod="pad" x1="-819.2" x2="819.2">
      <stop offset="0.07450980392156863" stop-color="#543800"/>
      <stop offset="0.17647058823529413" stop-color="#e9ca00"/>
      <stop offset="0.43529411764705883" stop-color="#6a4a00"/>
      <stop offset="0.4588235294117647" stop-color="#836300"/>
      <stop offset="0.5058823529411764" stop-color="#af8f00"/>
      <stop offset="0.5490196078431373" stop-color="#ceaf00"/>
      <stop offset="0.5843137254901961" stop-color="#e2c300"/>
      <stop offset="0.6078431372549019" stop-color="#e9ca00"/>
      <stop offset="0.6431372549019608" stop-color="#e9ca00"/>
      <stop offset="0.8196078431372549" stop-color="#fff87f"/>
      <stop offset="0.8784313725490196" stop-color="#e9ca00"/>
      <stop offset="0.984313725490196" stop-color="#6a4700"/>
    </linearGradient>
    <linearGradient gradientTransform="matrix(0.0, -0.0108, -0.0108, 0.0, -98.5, 93.6)" gradientUnits="userSpaceOnUse" id="gradient2" spreadMethod="pad" x1="-819.2" x2="819.2">
      <stop offset="0.0" stop-color="#1e120b" stop-opacity="0.0"/>
      <stop offset="0.01568627450980392" stop-color="#23150d" stop-opacity="0.019607844"/>
      <stop offset="0.2235294117647059" stop-color="#653e22" stop-opacity="0.3137255"/>
      <stop offset="0.4196078431372549" stop-color="#9c5f34" stop-opacity="0.5568628"/>
      <stop offset="0.6039215686274509" stop-color="#c77a42" stop-opacity="0.7490196"/>
      <stop offset="0.7647058823529411" stop-color="#e68c4c" stop-opacity="0.8862745"/>
      <stop offset="0.9019607843137255" stop-color="#f89852" stop-opacity="0.96862745"/>
      <stop offset="1.0" stop-color="#ff9c54"/>
    </linearGradient>
    <linearGradient gradientTransform="matrix(0.0, -0.0108, -0.0108, 0.0, 98.45, 93.6)" gradientUnits="userSpaceOnUse" id="gradient3" spreadMethod="pad" x1="-819.2" x2="819.2">
      <stop offset="0.0" stop-color="#1e120b" stop-opacity="0.0"/>
      <stop offset="0.01568627450980392" stop-color="#23150d" stop-opacity="0.019607844"/>
      <stop offset="0.2235294117647059" stop-color="#653e22" stop-opacity="0.3137255"/>
      <stop offset="0.4196078431372549" stop-color="#9c5f34" stop-opacity="0.5568628"/>
      <stop offset="0.6039215686274509" stop-color="#c77a42" stop-opacity="0.7490196"/>
      <stop offset="0.7647058823529411" stop-color="#e68c4c" stop-opacity="0.8862745"/>
      <stop offset="0.9019607843137255" stop-color="#f89852" stop-opacity="0.96862745"/>
      <stop offset="1.0" stop-color="#ff9c54"/>
    </linearGradient>
  </defs>
</svg>
