<?xml version="1.0" encoding="UTF-8" standalone="no"?>
<svg xmlns:xlink="http://www.w3.org/1999/xlink" height="11.5px" width="20.5px" xmlns="http://www.w3.org/2000/svg">
  <g transform="matrix(1.0, 0.0, 0.0, 1.0, -166.15, -174.85)">
    <path d="M180.5 178.65 Q181.5 177.35 182.95 177.35 184.4 177.35 185.5 178.65 186.6 180.0 186.65 181.85 186.7 183.7 185.7 185.0 184.7 186.35 183.25 186.35 181.8 186.35 180.7 185.0 179.6 183.7 179.55 181.85 179.5 180.0 180.5 178.65 M172.3 182.5 Q171.3 183.85 169.85 183.85 168.4 183.85 167.3 182.5 166.2 181.2 166.15 179.35 166.1 177.5 167.1 176.15 168.1 174.85 169.55 174.85 171.0 174.85 172.1 176.15 173.2 177.5 173.25 179.35 173.3 181.2 172.3 182.5" fill="#2c2c2c" fill-rule="evenodd" stroke="none"/>
  </g>
</svg>
