<?xml version="1.0" encoding="UTF-8" standalone="no"?>
<svg xmlns:xlink="http://www.w3.org/1999/xlink" height="221.45px" width="212.3px" xmlns="http://www.w3.org/2000/svg">
  <g transform="matrix(1.0, 0.0, 0.0, 1.0, 106.15, 108.4)">
    <path d="M-42.95 15.3 L-42.95 -11.15 -13.2 -11.15 -13.2 -40.85 13.2 -40.85 13.2 -11.15 42.95 -11.15 42.95 15.3 13.2 15.3 13.2 45.0 -13.2 45.0 -13.2 15.3 -42.95 15.3" fill="url(#gradient0)" fill-rule="evenodd" stroke="none"/>
    <path d="M-42.95 15.3 L-42.95 -11.15 -13.2 -11.15 -13.2 -40.85 13.2 -40.85 13.2 -11.15 42.95 -11.15 42.95 15.3 13.2 15.3 13.2 45.0 -13.2 45.0 -13.2 15.3 -42.95 15.3 M-40.95 -9.15 L-40.95 13.3 -11.2 13.3 -11.2 43.0 11.2 43.0 11.2 13.3 40.95 13.3 40.95 -9.15 11.2 -9.15 11.2 -38.85 -11.2 -38.85 -11.2 -9.15 -40.95 -9.15" fill="url(#gradient1)" fill-rule="evenodd" stroke="none"/>
    <path d="M-45.7 -61.35 L-45.7 -6.6 -96.3 22.1 -96.3 69.2 -50.6 95.6 0.0 66.4 50.6 95.6 96.3 69.2 96.3 22.55 45.7 -6.7 45.7 -61.35 0.0 -87.75 -45.7 -61.35 M55.55 -18.35 L106.15 10.85 106.15 81.0 50.6 113.05 0.0 83.8 -50.6 113.05 -106.15 81.0 -106.15 7.0 -55.5 -22.25 -55.5 -76.35 0.0 -108.4 55.55 -76.35 55.55 -18.35" fill="#23140c" fill-rule="evenodd" stroke="none"/>
  </g>
  <defs>
    <linearGradient gradientTransform="matrix(0.0, -0.0845, -0.0845, 0.0, 0.0, -2.5)" gradientUnits="userSpaceOnUse" id="gradient0" spreadMethod="pad" x1="-819.2" x2="819.2">
      <stop offset="0.00392156862745098" stop-color="#543800"/>
      <stop offset="0.17647058823529413" stop-color="#e9ca00"/>
      <stop offset="0.43529411764705883" stop-color="#6a4a00"/>
      <stop offset="0.44313725490196076" stop-color="#836300"/>
      <stop offset="0.4627450980392157" stop-color="#af8f00"/>
      <stop offset="0.47843137254901963" stop-color="#ceaf00"/>
      <stop offset="0.49019607843137253" stop-color="#e2c300"/>
      <stop offset="0.5019607843137255" stop-color="#e9ca00"/>
      <stop offset="0.6274509803921569" stop-color="#feffbf"/>
      <stop offset="0.7607843137254902" stop-color="#e9ca00"/>
      <stop offset="0.984313725490196" stop-color="#6a4700"/>
    </linearGradient>
    <linearGradient gradientTransform="matrix(0.0524, 0.0, 0.0, -0.0524, 0.0, 2.1)" gradientUnits="userSpaceOnUse" id="gradient1" spreadMethod="pad" x1="-819.2" x2="819.2">
      <stop offset="0.07450980392156863" stop-color="#543800"/>
      <stop offset="0.17647058823529413" stop-color="#e9ca00"/>
      <stop offset="0.43529411764705883" stop-color="#6a4a00"/>
      <stop offset="0.4588235294117647" stop-color="#836300"/>
      <stop offset="0.5058823529411764" stop-color="#af8f00"/>
      <stop offset="0.5490196078431373" stop-color="#ceaf00"/>
      <stop offset="0.5843137254901961" stop-color="#e2c300"/>
      <stop offset="0.6078431372549019" stop-color="#e9ca00"/>
      <stop offset="0.6431372549019608" stop-color="#e9ca00"/>
      <stop offset="0.8196078431372549" stop-color="#fff87f"/>
      <stop offset="0.8784313725490196" stop-color="#e9ca00"/>
      <stop offset="0.984313725490196" stop-color="#6a4700"/>
    </linearGradient>
  </defs>
</svg>
