<?xml version="1.0" encoding="UTF-8" standalone="no"?>
<svg xmlns:xlink="http://www.w3.org/1999/xlink" height="212.1px" width="212.3px" xmlns="http://www.w3.org/2000/svg">
  <g transform="matrix(1.0, 0.0, 0.0, 1.0, 106.15, 113.05)">
    <path d="M45.7 -75.35 L0.0 -101.75 -45.7 -75.35 -45.7 -20.6 -96.3 8.1 -96.3 61.3 -50.6 87.7 0.0 58.45 50.6 87.7 96.3 61.3 96.3 8.55 45.7 -20.7 45.7 -75.35 M55.55 -26.35 L106.15 2.85 106.15 67.0 50.6 99.05 0.0 69.8 -50.6 99.05 -106.15 67.0 -106.15 2.85 -55.5 -26.35 -55.5 -81.0 0.0 -113.05 55.55 -81.0 55.55 -26.35" fill="url(#gradient0)" fill-rule="evenodd" stroke="none"/>
    <path d="M45.7 -75.35 L0.0 -101.75 -45.7 -75.35 -45.7 -20.6 -96.3 8.1 -96.3 61.3 -50.6 87.7 0.0 58.45 50.6 87.7 96.3 61.3 96.3 8.55 45.7 -20.7 45.7 -75.35 M55.55 -26.35 L106.15 2.85 106.15 67.0 50.6 99.05 0.0 69.8 -50.6 99.05 -106.15 67.0 -106.15 2.85 -55.5 -26.35 -55.5 -81.0 0.0 -113.05 55.55 -81.0 55.55 -26.35 M104.15 4.0 L53.55 -25.2 53.55 -79.85 0.0 -110.75 -53.5 -79.85 -53.5 -25.2 -104.15 4.0 -104.15 65.85 -50.6 96.75 0.0 67.5 50.6 96.75 104.15 65.85 104.15 4.0 M47.7 -21.85 L98.3 7.4 98.3 62.45 50.6 90.0 0.0 60.8 -50.6 90.0 -98.3 62.45 -98.3 6.9 -47.7 -21.8 -47.7 -76.5 0.0 -104.05 47.7 -76.5 47.7 -21.85" fill="url(#gradient1)" fill-rule="evenodd" stroke="none"/>
  </g>
  <defs>
    <linearGradient gradientTransform="matrix(0.0, -0.1295, -0.1295, 0.0, 0.0, -7.0)" gradientUnits="userSpaceOnUse" id="gradient0" spreadMethod="pad" x1="-819.2" x2="819.2">
      <stop offset="0.00392156862745098" stop-color="#543800"/>
      <stop offset="0.17647058823529413" stop-color="#e9ca00"/>
      <stop offset="0.43529411764705883" stop-color="#6a4a00"/>
      <stop offset="0.44313725490196076" stop-color="#836300"/>
      <stop offset="0.4627450980392157" stop-color="#af8f00"/>
      <stop offset="0.47843137254901963" stop-color="#ceaf00"/>
      <stop offset="0.49019607843137253" stop-color="#e2c300"/>
      <stop offset="0.5019607843137255" stop-color="#e9ca00"/>
      <stop offset="0.6274509803921569" stop-color="#feffbf"/>
      <stop offset="0.7607843137254902" stop-color="#e9ca00"/>
      <stop offset="0.984313725490196" stop-color="#6a4700"/>
    </linearGradient>
    <linearGradient gradientTransform="matrix(0.1295, 0.0, 0.0, -0.1295, 0.0, -7.0)" gradientUnits="userSpaceOnUse" id="gradient1" spreadMethod="pad" x1="-819.2" x2="819.2">
      <stop offset="0.07450980392156863" stop-color="#543800"/>
      <stop offset="0.17647058823529413" stop-color="#e9ca00"/>
      <stop offset="0.43529411764705883" stop-color="#6a4a00"/>
      <stop offset="0.4588235294117647" stop-color="#836300"/>
      <stop offset="0.5058823529411764" stop-color="#af8f00"/>
      <stop offset="0.5490196078431373" stop-color="#ceaf00"/>
      <stop offset="0.5843137254901961" stop-color="#e2c300"/>
      <stop offset="0.6078431372549019" stop-color="#e9ca00"/>
      <stop offset="0.6431372549019608" stop-color="#e9ca00"/>
      <stop offset="0.8196078431372549" stop-color="#fff87f"/>
      <stop offset="0.8784313725490196" stop-color="#e9ca00"/>
      <stop offset="0.984313725490196" stop-color="#6a4700"/>
    </linearGradient>
  </defs>
</svg>
