<?xml version="1.0" encoding="UTF-8" standalone="no"?>
<svg xmlns:xlink="http://www.w3.org/1999/xlink" height="244.4px" width="225.0px" xmlns="http://www.w3.org/2000/svg">
  <g transform="matrix(1.0, 0.0, 0.0, 1.0, 112.5, 120.3)">
    <path d="M0.0 -120.3 L65.1 -82.7 65.1 -30.55 112.5 -1.2 112.5 84.4 47.4 121.95 0.05 95.95 -47.4 124.1 -112.5 83.85 -112.5 1.5 -65.15 -29.9 -65.15 -82.7 0.0 -120.3 M-106.5 14.6 L-106.5 72.05 -47.35 108.6 -0.1 80.55 47.35 106.6 106.5 72.45 106.5 12.65 59.1 -16.7 59.1 -69.0 0.0 -103.15 -59.15 -69.0 -59.15 -16.75 -106.5 14.6" fill="#23140c" fill-rule="evenodd" stroke="none"/>
  </g>
</svg>
