<?xml version="1.0" encoding="UTF-8" standalone="no"?>
<svg xmlns:xlink="http://www.w3.org/1999/xlink" height="248.2px" width="225.0px" xmlns="http://www.w3.org/2000/svg">
  <g transform="matrix(1.0, 0.0, 0.0, 1.0, 112.5, 124.1)">
    <path d="M-46.9 123.8 L-47.4 124.1 -47.9 123.75 -47.9 106.3 -46.9 106.3 -46.9 123.8" fill="url(#gradient0)" fill-rule="evenodd" stroke="none"/>
    <path d="M0.45 78.05 L0.45 96.15 0.0 95.8 -0.55 96.15 -0.55 78.05 0.45 78.05" fill="url(#gradient1)" fill-rule="evenodd" stroke="none"/>
    <path d="M0.45 -120.55 L0.45 -102.45 0.0 -102.75 -0.55 -102.45 -0.55 -120.55 0.45 -120.55" fill="url(#gradient2)" fill-rule="evenodd" stroke="none"/>
    <path d="M47.8 121.6 L47.3 121.9 46.8 121.65 46.8 104.1 47.8 104.1 47.8 121.6" fill="url(#gradient3)" fill-rule="evenodd" stroke="none"/>
    <path d="M0.0 -124.1 L65.1 -86.5 65.1 -34.05 112.5 -4.7 112.5 70.4 47.4 107.95 0.05 81.95 -47.4 110.1 -112.5 69.85 -112.5 -2.6 -65.15 -34.0 -65.15 -86.5 0.0 -124.1 M-59.15 -83.0 L-59.15 -30.75 -106.5 0.6 -106.5 66.5 -47.35 103.05 -0.1 75.0 47.35 101.1 106.5 66.95 106.5 -1.35 59.1 -30.7 59.1 -83.0 0.0 -117.15 -59.15 -83.0" fill="url(#gradient4)" fill-rule="evenodd" stroke="none"/>
    <path d="M0.0 -117.15 L-59.15 -83.0 -59.15 -30.75 -106.5 0.6 -106.5 66.5 -47.35 103.05 -0.1 75.0 47.35 101.1 106.5 66.95 106.5 -1.35 59.1 -30.7 59.1 -83.0 0.0 -117.15 M-65.15 -86.5 L0.0 -124.1 65.1 -86.5 65.1 -34.05 112.5 -4.7 112.5 70.4 47.4 107.95 0.05 81.95 -47.4 110.1 -112.5 69.85 -112.5 -2.6 -65.15 -34.0 -65.15 -86.5 M0.0 -122.9 L-64.15 -85.9 -64.15 -33.45 -111.5 -2.05 -111.5 69.3 -47.4 108.9 -0.5 81.05 0.0 80.8 47.4 106.8 111.5 69.85 111.5 -4.15 64.1 -33.5 64.1 -85.9 0.0 -122.9 M-60.15 -83.6 L0.0 -118.3 60.1 -83.6 60.1 -31.25 107.0 -2.2 107.5 -1.95 107.5 67.5 47.35 102.25 -0.05 76.15 -46.85 103.9 -47.35 104.25 -107.5 67.05 -107.5 0.1 -60.15 -31.3 -60.15 -83.6" fill="url(#gradient5)" fill-rule="evenodd" stroke="none"/>
    <path d="M46.15 -62.5 L46.15 -7.85 96.75 21.35 96.75 74.15 51.05 100.55 0.45 71.3 -50.15 100.55 -95.85 74.15 -95.85 20.9 -45.25 -7.8 -45.25 -62.5 0.45 -88.9 46.15 -62.5 M43.4 28.15 L43.4 1.7 13.65 1.7 13.65 -28.0 -12.75 -28.0 -12.75 1.7 -42.5 1.7 -42.5 28.15 -12.75 28.15 -12.75 57.85 13.65 57.85 13.65 28.15 43.4 28.15" fill="#23140c" fill-rule="evenodd" stroke="none"/>
  </g>
  <defs>
    <linearGradient gradientTransform="matrix(0.0, -0.0108, -0.0108, 0.0, -47.4, 115.2)" gradientUnits="userSpaceOnUse" id="gradient0" spreadMethod="pad" x1="-819.2" x2="819.2">
      <stop offset="0.0" stop-color="#1e120b" stop-opacity="0.0"/>
      <stop offset="0.01568627450980392" stop-color="#23150d" stop-opacity="0.019607844"/>
      <stop offset="0.2235294117647059" stop-color="#653e22" stop-opacity="0.3137255"/>
      <stop offset="0.4196078431372549" stop-color="#9c5f34" stop-opacity="0.5568628"/>
      <stop offset="0.6039215686274509" stop-color="#c77a42" stop-opacity="0.7490196"/>
      <stop offset="0.7647058823529411" stop-color="#e68c4c" stop-opacity="0.8862745"/>
      <stop offset="0.9019607843137255" stop-color="#f89852" stop-opacity="0.96862745"/>
      <stop offset="1.0" stop-color="#ff9c54"/>
    </linearGradient>
    <linearGradient gradientTransform="matrix(0.0, -0.011, -0.011, 0.0, -0.05, 87.1)" gradientUnits="userSpaceOnUse" id="gradient1" spreadMethod="pad" x1="-819.2" x2="819.2">
      <stop offset="0.0" stop-color="#1e120b" stop-opacity="0.0"/>
      <stop offset="0.01568627450980392" stop-color="#23150d" stop-opacity="0.019607844"/>
      <stop offset="0.2235294117647059" stop-color="#653e22" stop-opacity="0.3137255"/>
      <stop offset="0.4196078431372549" stop-color="#9c5f34" stop-opacity="0.5568628"/>
      <stop offset="0.6039215686274509" stop-color="#c77a42" stop-opacity="0.7490196"/>
      <stop offset="0.7647058823529411" stop-color="#e68c4c" stop-opacity="0.8862745"/>
      <stop offset="0.9019607843137255" stop-color="#f89852" stop-opacity="0.96862745"/>
      <stop offset="1.0" stop-color="#ff9c54"/>
    </linearGradient>
    <linearGradient gradientTransform="matrix(0.0, -0.011, -0.011, 0.0, -0.05, -111.5)" gradientUnits="userSpaceOnUse" id="gradient2" spreadMethod="pad" x1="-819.2" x2="819.2">
      <stop offset="0.0" stop-color="#1e120b" stop-opacity="0.0"/>
      <stop offset="0.01568627450980392" stop-color="#23150d" stop-opacity="0.019607844"/>
      <stop offset="0.2235294117647059" stop-color="#653e22" stop-opacity="0.3137255"/>
      <stop offset="0.4196078431372549" stop-color="#9c5f34" stop-opacity="0.5568628"/>
      <stop offset="0.6039215686274509" stop-color="#c77a42" stop-opacity="0.7490196"/>
      <stop offset="0.7647058823529411" stop-color="#e68c4c" stop-opacity="0.8862745"/>
      <stop offset="0.9019607843137255" stop-color="#f89852" stop-opacity="0.96862745"/>
      <stop offset="1.0" stop-color="#ff9c54"/>
    </linearGradient>
    <linearGradient gradientTransform="matrix(0.0, -0.0108, -0.0108, 0.0, 47.3, 113.0)" gradientUnits="userSpaceOnUse" id="gradient3" spreadMethod="pad" x1="-819.2" x2="819.2">
      <stop offset="0.0" stop-color="#1e120b" stop-opacity="0.0"/>
      <stop offset="0.01568627450980392" stop-color="#23150d" stop-opacity="0.019607844"/>
      <stop offset="0.2235294117647059" stop-color="#653e22" stop-opacity="0.3137255"/>
      <stop offset="0.4196078431372549" stop-color="#9c5f34" stop-opacity="0.5568628"/>
      <stop offset="0.6039215686274509" stop-color="#c77a42" stop-opacity="0.7490196"/>
      <stop offset="0.7647058823529411" stop-color="#e68c4c" stop-opacity="0.8862745"/>
      <stop offset="0.9019607843137255" stop-color="#f89852" stop-opacity="0.96862745"/>
      <stop offset="1.0" stop-color="#ff9c54"/>
    </linearGradient>
    <linearGradient gradientTransform="matrix(0.0, -0.1265, -0.1265, 0.0, 0.0, -21.2)" gradientUnits="userSpaceOnUse" id="gradient4" spreadMethod="pad" x1="-819.2" x2="819.2">
      <stop offset="0.00392156862745098" stop-color="#543800"/>
      <stop offset="0.17647058823529413" stop-color="#e9ca00"/>
      <stop offset="0.43529411764705883" stop-color="#6a4a00"/>
      <stop offset="0.44313725490196076" stop-color="#836300"/>
      <stop offset="0.4627450980392157" stop-color="#af8f00"/>
      <stop offset="0.47843137254901963" stop-color="#ceaf00"/>
      <stop offset="0.49019607843137253" stop-color="#e2c300"/>
      <stop offset="0.5019607843137255" stop-color="#e9ca00"/>
      <stop offset="0.6274509803921569" stop-color="#feffbf"/>
      <stop offset="0.7607843137254902" stop-color="#e9ca00"/>
      <stop offset="0.984313725490196" stop-color="#6a4700"/>
    </linearGradient>
    <linearGradient gradientTransform="matrix(0.1373, 0.0, 0.0, -0.1373, 0.0, -7.0)" gradientUnits="userSpaceOnUse" id="gradient5" spreadMethod="pad" x1="-819.2" x2="819.2">
      <stop offset="0.07450980392156863" stop-color="#543800"/>
      <stop offset="0.17647058823529413" stop-color="#e9ca00"/>
      <stop offset="0.43529411764705883" stop-color="#6a4a00"/>
      <stop offset="0.4588235294117647" stop-color="#836300"/>
      <stop offset="0.5058823529411764" stop-color="#af8f00"/>
      <stop offset="0.5490196078431373" stop-color="#ceaf00"/>
      <stop offset="0.5843137254901961" stop-color="#e2c300"/>
      <stop offset="0.6078431372549019" stop-color="#e9ca00"/>
      <stop offset="0.6431372549019608" stop-color="#e9ca00"/>
      <stop offset="0.8196078431372549" stop-color="#fff87f"/>
      <stop offset="0.8784313725490196" stop-color="#e9ca00"/>
      <stop offset="0.984313725490196" stop-color="#6a4700"/>
    </linearGradient>
  </defs>
</svg>
