<?xml version="1.0" encoding="UTF-8" standalone="no"?>
<svg xmlns:xlink="http://www.w3.org/1999/xlink" height="189.45px" width="192.6px" xmlns="http://www.w3.org/2000/svg">
  <g transform="matrix(1.0, 0.0, 0.0, 1.0, 95.85, 102.9)">
    <path d="M43.4 14.15 L43.4 -12.3 13.65 -12.3 13.65 -42.0 -12.75 -42.0 -12.75 -12.3 -42.5 -12.3 -42.5 14.15 -12.75 14.15 -12.75 43.85 13.65 43.85 13.65 14.15 43.4 14.15 M0.45 -102.9 L46.15 -76.5 46.15 -21.85 96.75 7.35 96.75 60.15 51.05 86.55 0.45 57.3 -50.15 86.55 -95.85 60.15 -95.85 6.9 -45.25 -21.8 -45.25 -76.5 0.45 -102.9" fill="url(#gradient0)" fill-rule="evenodd" stroke="none"/>
    <path d="M43.4 -12.3 L13.65 -12.3 13.65 -42.0 -12.75 -42.0 -12.75 -12.3 -42.5 -12.3 -42.5 14.15 -12.75 14.15 -12.75 43.85 13.65 43.85 13.65 14.15 43.4 14.15 43.4 -12.3 M45.4 -14.3 L45.4 16.15 15.65 16.15 15.65 45.85 -14.75 45.85 -14.75 16.15 -44.5 16.15 -44.5 -14.3 -14.75 -14.3 -14.75 -44.0 15.65 -44.0 15.65 -14.3 45.4 -14.3 M0.45 -102.9 L46.15 -76.5 46.15 -21.85 96.75 7.35 96.75 60.15 51.05 86.55 0.45 57.3 -50.15 86.55 -95.85 60.15 -95.85 6.9 -45.25 -21.8 -45.25 -76.5 0.45 -102.9 M44.15 -75.35 L0.45 -100.6 -43.25 -75.35 -43.25 -20.6 -93.85 8.05 -93.85 59.0 -50.15 84.2 0.45 55.0 51.05 84.2 94.75 59.0 94.75 8.55 44.15 -20.7 44.15 -75.35" fill="url(#gradient1)" fill-rule="evenodd" stroke="none"/>
  </g>
  <defs>
    <linearGradient gradientTransform="matrix(0.0, -0.1156, -0.1156, 0.0, 0.45, -8.2)" gradientUnits="userSpaceOnUse" id="gradient0" spreadMethod="pad" x1="-819.2" x2="819.2">
      <stop offset="0.00392156862745098" stop-color="#543800"/>
      <stop offset="0.17647058823529413" stop-color="#e9ca00"/>
      <stop offset="0.43529411764705883" stop-color="#6a4a00"/>
      <stop offset="0.44313725490196076" stop-color="#836300"/>
      <stop offset="0.4627450980392157" stop-color="#af8f00"/>
      <stop offset="0.47843137254901963" stop-color="#ceaf00"/>
      <stop offset="0.49019607843137253" stop-color="#e2c300"/>
      <stop offset="0.5019607843137255" stop-color="#e9ca00"/>
      <stop offset="0.6274509803921569" stop-color="#feffbf"/>
      <stop offset="0.7607843137254902" stop-color="#e9ca00"/>
      <stop offset="0.984313725490196" stop-color="#6a4700"/>
    </linearGradient>
    <linearGradient gradientTransform="matrix(0.1176, 0.0, 0.0, -0.1176, 0.45, -8.2)" gradientUnits="userSpaceOnUse" id="gradient1" spreadMethod="pad" x1="-819.2" x2="819.2">
      <stop offset="0.07450980392156863" stop-color="#543800"/>
      <stop offset="0.17647058823529413" stop-color="#e9ca00"/>
      <stop offset="0.43529411764705883" stop-color="#6a4a00"/>
      <stop offset="0.4588235294117647" stop-color="#836300"/>
      <stop offset="0.5058823529411764" stop-color="#af8f00"/>
      <stop offset="0.5490196078431373" stop-color="#ceaf00"/>
      <stop offset="0.5843137254901961" stop-color="#e2c300"/>
      <stop offset="0.6078431372549019" stop-color="#e9ca00"/>
      <stop offset="0.6431372549019608" stop-color="#e9ca00"/>
      <stop offset="0.8196078431372549" stop-color="#fff87f"/>
      <stop offset="0.8784313725490196" stop-color="#e9ca00"/>
      <stop offset="0.984313725490196" stop-color="#6a4700"/>
    </linearGradient>
  </defs>
</svg>
