<?xml version="1.0" encoding="UTF-8" standalone="no"?>
<svg xmlns:xlink="http://www.w3.org/1999/xlink" height="266.8px" width="225.0px" xmlns="http://www.w3.org/2000/svg">
  <g transform="matrix(1.0, 0.0, 0.0, 1.0, 112.5, 131.5)">
    <path d="M0.3 117.55 L0.3 135.05 -0.15 135.3 -0.7 135.0 -0.7 117.55 0.3 117.55" fill="url(#gradient0)" fill-rule="evenodd" stroke="none"/>
    <path d="M-0.05 85.9 L15.3 94.75 15.3 112.45 -0.05 121.3 -15.4 112.45 -15.4 94.75 -0.05 85.9" fill="url(#gradient1)" fill-rule="evenodd" stroke="none"/>
    <path d="M-0.05 121.3 L-15.4 112.45 -15.4 94.75 -0.05 85.9 15.3 94.75 15.3 112.45 -0.05 121.3 M-0.05 88.2 L-13.4 95.9 -13.4 111.3 -0.05 119.0 13.3 111.3 13.3 95.9 -0.05 88.2" fill="url(#gradient2)" fill-rule="evenodd" stroke="none"/>
    <path d="M112.5 -12.4 L112.5 73.2 47.4 110.8 0.05 84.75 -47.4 112.9 -112.5 72.65 -112.5 -9.7 -65.15 -41.05 -65.15 -93.9 0.0 -131.5 65.1 -93.9 65.1 -41.75 112.5 -12.4 M59.1 -27.9 L59.1 -80.2 0.0 -114.35 -59.15 -80.2 -59.15 -27.95 -106.5 3.4 -106.5 60.85 -47.35 97.4 -0.1 69.35 47.35 95.4 106.5 61.25 106.5 1.45 59.1 -27.9" fill="#23140c" fill-rule="evenodd" stroke="none"/>
  </g>
  <defs>
    <linearGradient gradientTransform="matrix(0.0, -0.0108, -0.0108, 0.0, -0.2, 126.45)" gradientUnits="userSpaceOnUse" id="gradient0" spreadMethod="pad" x1="-819.2" x2="819.2">
      <stop offset="0.0" stop-color="#1e120b" stop-opacity="0.0"/>
      <stop offset="0.01568627450980392" stop-color="#23150d" stop-opacity="0.019607844"/>
      <stop offset="0.2235294117647059" stop-color="#653e22" stop-opacity="0.3137255"/>
      <stop offset="0.4196078431372549" stop-color="#9c5f34" stop-opacity="0.5568628"/>
      <stop offset="0.6039215686274509" stop-color="#c77a42" stop-opacity="0.7490196"/>
      <stop offset="0.7647058823529411" stop-color="#e68c4c" stop-opacity="0.8862745"/>
      <stop offset="0.9019607843137255" stop-color="#f89852" stop-opacity="0.96862745"/>
      <stop offset="1.0" stop-color="#ff9c54"/>
    </linearGradient>
    <linearGradient gradientTransform="matrix(0.0, -0.0688, -0.0688, 0.0, -0.05, 111.8)" gradientUnits="userSpaceOnUse" id="gradient1" spreadMethod="pad" x1="-819.2" x2="819.2">
      <stop offset="0.00392156862745098" stop-color="#543800"/>
      <stop offset="0.17647058823529413" stop-color="#e9ca00"/>
      <stop offset="0.27058823529411763" stop-color="#6a4a00"/>
      <stop offset="0.3411764705882353" stop-color="#6d4d00"/>
      <stop offset="0.3843137254901961" stop-color="#755500"/>
      <stop offset="0.4235294117647059" stop-color="#846400"/>
      <stop offset="0.4588235294117647" stop-color="#997900"/>
      <stop offset="0.49019607843137253" stop-color="#b49400"/>
      <stop offset="0.5215686274509804" stop-color="#d4b500"/>
      <stop offset="0.5372549019607843" stop-color="#e9ca00"/>
      <stop offset="0.6274509803921569" stop-color="#feffbf"/>
      <stop offset="0.7607843137254902" stop-color="#e9ca00"/>
      <stop offset="0.984313725490196" stop-color="#6a4700"/>
    </linearGradient>
    <linearGradient gradientTransform="matrix(0.0187, 0.0, 0.0, -0.0187, -0.05, 103.6)" gradientUnits="userSpaceOnUse" id="gradient2" spreadMethod="pad" x1="-819.2" x2="819.2">
      <stop offset="0.07450980392156863" stop-color="#543800"/>
      <stop offset="0.17647058823529413" stop-color="#e9ca00"/>
      <stop offset="0.43529411764705883" stop-color="#6a4a00"/>
      <stop offset="0.4588235294117647" stop-color="#836300"/>
      <stop offset="0.5058823529411764" stop-color="#af8f00"/>
      <stop offset="0.5490196078431373" stop-color="#ceaf00"/>
      <stop offset="0.5843137254901961" stop-color="#e2c300"/>
      <stop offset="0.6078431372549019" stop-color="#e9ca00"/>
      <stop offset="0.6431372549019608" stop-color="#e9ca00"/>
      <stop offset="0.8196078431372549" stop-color="#fff87f"/>
      <stop offset="0.8784313725490196" stop-color="#e9ca00"/>
      <stop offset="0.984313725490196" stop-color="#6a4700"/>
    </linearGradient>
  </defs>
</svg>
