<?xml version="1.0" encoding="UTF-8" standalone="no"?>
<svg xmlns:xlink="http://www.w3.org/1999/xlink" height="106.85px" width="351.4px" xmlns="http://www.w3.org/2000/svg">
  <g transform="matrix(1.0, 0.0, 0.0, 1.0, 175.7, -13.4)">
    <path d="M-129.3 83.85 L-129.8 83.85 -130.3 83.05 -130.3 66.1 -129.3 66.1 -129.3 83.85" fill="url(#gradient0)" fill-rule="evenodd" stroke="none"/>
    <path d="M-111.7 83.1 L-112.15 83.85 -112.7 83.85 -112.7 66.1 -111.7 66.1 -111.7 83.1" fill="url(#gradient1)" fill-rule="evenodd" stroke="none"/>
    <path d="M-112.1 69.85 L-129.85 69.85 -138.7 54.5 -129.85 39.2 -112.1 39.2 -103.25 54.5 -112.1 69.85" fill="url(#gradient2)" fill-rule="evenodd" stroke="none"/>
    <path d="M-112.1 39.2 L-103.25 54.5 -112.1 69.85 -129.85 69.85 -138.7 54.5 -129.85 39.2 -112.1 39.2 M-113.25 67.85 L-105.55 54.5 -113.25 41.2 -128.7 41.2 -136.4 54.5 -128.7 67.85 -113.25 67.85" fill="url(#gradient3)" fill-rule="evenodd" stroke="none"/>
    <path d="M-92.0 13.4 L-64.0 57.7 -64.0 71.7 -91.8 120.15 -147.65 120.25 -175.7 71.95 -175.7 57.95 -147.9 13.5 -92.0 13.4 M-142.2 33.3 L-164.35 71.9 -142.05 102.4 -97.5 102.35 -75.35 71.75 -97.65 33.25 -142.2 33.3" fill="#23140c" fill-rule="evenodd" stroke="none"/>
    <path d="M147.7 15.35 L175.7 57.7 175.7 71.7 147.9 120.15 92.05 120.25 64.0 71.95 64.0 57.95 91.85 15.45 147.7 15.35 M97.55 33.3 L75.35 71.9 97.7 102.4 142.2 102.35 164.35 71.75 142.05 33.25 97.55 33.3" fill="#23140c" fill-rule="evenodd" stroke="none"/>
  </g>
  <defs>
    <linearGradient gradientTransform="matrix(0.0, -0.0108, -0.0108, 0.0, -129.8, 75.0)" gradientUnits="userSpaceOnUse" id="gradient0" spreadMethod="pad" x1="-819.2" x2="819.2">
      <stop offset="0.0" stop-color="#1e120b" stop-opacity="0.0"/>
      <stop offset="0.01568627450980392" stop-color="#23150d" stop-opacity="0.019607844"/>
      <stop offset="0.2235294117647059" stop-color="#653e22" stop-opacity="0.3137255"/>
      <stop offset="0.4196078431372549" stop-color="#9c5f34" stop-opacity="0.5568628"/>
      <stop offset="0.6039215686274509" stop-color="#c77a42" stop-opacity="0.7490196"/>
      <stop offset="0.7647058823529411" stop-color="#e68c4c" stop-opacity="0.8862745"/>
      <stop offset="0.9019607843137255" stop-color="#f89852" stop-opacity="0.96862745"/>
      <stop offset="1.0" stop-color="#ff9c54"/>
    </linearGradient>
    <linearGradient gradientTransform="matrix(0.0, -0.0108, -0.0108, 0.0, -112.2, 75.0)" gradientUnits="userSpaceOnUse" id="gradient1" spreadMethod="pad" x1="-819.2" x2="819.2">
      <stop offset="0.0" stop-color="#1e120b" stop-opacity="0.0"/>
      <stop offset="0.01568627450980392" stop-color="#23150d" stop-opacity="0.019607844"/>
      <stop offset="0.2235294117647059" stop-color="#653e22" stop-opacity="0.3137255"/>
      <stop offset="0.4196078431372549" stop-color="#9c5f34" stop-opacity="0.5568628"/>
      <stop offset="0.6039215686274509" stop-color="#c77a42" stop-opacity="0.7490196"/>
      <stop offset="0.7647058823529411" stop-color="#e68c4c" stop-opacity="0.8862745"/>
      <stop offset="0.9019607843137255" stop-color="#f89852" stop-opacity="0.96862745"/>
      <stop offset="1.0" stop-color="#ff9c54"/>
    </linearGradient>
    <linearGradient gradientTransform="matrix(0.0, -0.0483, -0.0483, 0.0, -121.0, 59.1)" gradientUnits="userSpaceOnUse" id="gradient2" spreadMethod="pad" x1="-819.2" x2="819.2">
      <stop offset="0.00392156862745098" stop-color="#543800"/>
      <stop offset="0.17647058823529413" stop-color="#e9ca00"/>
      <stop offset="0.27058823529411763" stop-color="#6a4a00"/>
      <stop offset="0.3411764705882353" stop-color="#6d4d00"/>
      <stop offset="0.3843137254901961" stop-color="#755500"/>
      <stop offset="0.4235294117647059" stop-color="#846400"/>
      <stop offset="0.4588235294117647" stop-color="#997900"/>
      <stop offset="0.49019607843137253" stop-color="#b49400"/>
      <stop offset="0.5215686274509804" stop-color="#d4b500"/>
      <stop offset="0.5372549019607843" stop-color="#e9ca00"/>
      <stop offset="0.6274509803921569" stop-color="#feffbf"/>
      <stop offset="0.7607843137254902" stop-color="#e9ca00"/>
      <stop offset="0.984313725490196" stop-color="#6a4700"/>
    </linearGradient>
    <linearGradient gradientTransform="matrix(0.0216, 0.0, 0.0, -0.0216, -121.0, 54.55)" gradientUnits="userSpaceOnUse" id="gradient3" spreadMethod="pad" x1="-819.2" x2="819.2">
      <stop offset="0.07450980392156863" stop-color="#543800"/>
      <stop offset="0.17647058823529413" stop-color="#e9ca00"/>
      <stop offset="0.43529411764705883" stop-color="#6a4a00"/>
      <stop offset="0.4588235294117647" stop-color="#836300"/>
      <stop offset="0.5058823529411764" stop-color="#af8f00"/>
      <stop offset="0.5490196078431373" stop-color="#ceaf00"/>
      <stop offset="0.5843137254901961" stop-color="#e2c300"/>
      <stop offset="0.6078431372549019" stop-color="#e9ca00"/>
      <stop offset="0.6431372549019608" stop-color="#e9ca00"/>
      <stop offset="0.8196078431372549" stop-color="#fff87f"/>
      <stop offset="0.8784313725490196" stop-color="#e9ca00"/>
      <stop offset="0.984313725490196" stop-color="#6a4700"/>
    </linearGradient>
  </defs>
</svg>
