<?xml version="1.0" encoding="UTF-8" standalone="no"?>
<svg xmlns:xlink="http://www.w3.org/1999/xlink" height="221.05px" width="351.4px" xmlns="http://www.w3.org/2000/svg">
  <g transform="matrix(1.0, 0.0, 0.0, 1.0, 175.7, 114.8)">
    <path d="M-92.0 9.4 L-64.0 57.7 -91.8 106.15 -147.65 106.25 -175.7 57.95 -147.9 9.5 -92.0 9.4 M-142.2 19.3 L-164.35 57.9 -142.05 96.4 -97.5 96.35 -75.35 57.75 -97.65 19.25 -142.2 19.3" fill="url(#gradient0)" fill-rule="evenodd" stroke="none"/>
    <path d="M147.7 9.4 L175.7 57.7 147.9 106.15 92.05 106.25 64.0 57.95 91.85 9.5 147.7 9.4 M97.55 19.3 L75.35 57.9 97.7 96.4 142.2 96.35 164.35 57.75 142.05 19.25 97.55 19.3" fill="url(#gradient1)" fill-rule="evenodd" stroke="none"/>
    <path d="M-97.65 19.25 L-142.2 19.3 -164.35 57.9 -142.05 96.4 -97.5 96.35 -75.35 57.75 -97.65 19.25 M-147.9 9.5 L-92.0 9.4 -64.0 57.7 -91.8 106.15 -147.65 106.25 -175.7 57.95 -147.9 9.5 M-93.15 11.4 L-146.7 11.5 -173.4 57.95 -146.5 104.25 -93.0 104.15 -66.3 57.7 -93.15 11.4 M-143.35 17.3 L-96.5 17.25 -73.05 57.75 -96.35 98.35 -143.2 98.4 -166.65 57.95 -143.35 17.3" fill="url(#gradient2)" fill-rule="evenodd" stroke="none"/>
    <path d="M142.05 19.25 L97.55 19.3 75.35 57.9 97.7 96.4 142.2 96.35 164.35 57.75 142.05 19.25 M91.85 9.5 L147.7 9.4 175.7 57.7 147.9 106.15 92.05 106.25 64.0 57.95 91.85 9.5 M146.55 11.4 L93.0 11.5 66.3 57.95 93.2 104.25 146.75 104.15 173.4 57.7 146.55 11.4 M96.35 17.3 L143.2 17.25 166.7 57.75 143.35 98.35 96.55 98.4 73.05 57.95 96.35 17.3" fill="url(#gradient3)" fill-rule="evenodd" stroke="none"/>
    <path d="M42.75 -94.85 L-40.55 -94.85 -81.75 -22.3 -40.55 42.45 42.75 42.45 84.3 -22.3 42.75 -94.85 M-95.3 -22.7 L-95.3 -36.7 -47.1 -114.8 49.3 -114.8 97.5 -36.7 97.5 -22.7 49.3 60.8 -47.1 60.8 -95.3 -22.7" fill="#23140c" fill-rule="evenodd" stroke="none"/>
    <path d="M-46.55 63.05 L-47.55 63.05 -47.55 42.45 -46.55 42.45 -46.55 63.05" fill="url(#gradient4)" fill-rule="evenodd" stroke="none"/>
  </g>
  <defs>
    <linearGradient gradientTransform="matrix(0.0, -0.0591, -0.0591, 0.0, -119.85, 57.85)" gradientUnits="userSpaceOnUse" id="gradient0" spreadMethod="pad" x1="-819.2" x2="819.2">
      <stop offset="0.00392156862745098" stop-color="#543800"/>
      <stop offset="0.17647058823529413" stop-color="#e9ca00"/>
      <stop offset="0.43529411764705883" stop-color="#6a4a00"/>
      <stop offset="0.44313725490196076" stop-color="#836300"/>
      <stop offset="0.4627450980392157" stop-color="#af8f00"/>
      <stop offset="0.47843137254901963" stop-color="#ceaf00"/>
      <stop offset="0.49019607843137253" stop-color="#e2c300"/>
      <stop offset="0.5019607843137255" stop-color="#e9ca00"/>
      <stop offset="0.6274509803921569" stop-color="#feffbf"/>
      <stop offset="0.7607843137254902" stop-color="#e9ca00"/>
      <stop offset="0.984313725490196" stop-color="#6a4700"/>
    </linearGradient>
    <linearGradient gradientTransform="matrix(0.0, -0.0591, -0.0591, 0.0, 119.85, 57.85)" gradientUnits="userSpaceOnUse" id="gradient1" spreadMethod="pad" x1="-819.2" x2="819.2">
      <stop offset="0.00392156862745098" stop-color="#543800"/>
      <stop offset="0.17647058823529413" stop-color="#e9ca00"/>
      <stop offset="0.43529411764705883" stop-color="#6a4a00"/>
      <stop offset="0.44313725490196076" stop-color="#836300"/>
      <stop offset="0.4627450980392157" stop-color="#af8f00"/>
      <stop offset="0.47843137254901963" stop-color="#ceaf00"/>
      <stop offset="0.49019607843137253" stop-color="#e2c300"/>
      <stop offset="0.5019607843137255" stop-color="#e9ca00"/>
      <stop offset="0.6274509803921569" stop-color="#feffbf"/>
      <stop offset="0.7607843137254902" stop-color="#e9ca00"/>
      <stop offset="0.984313725490196" stop-color="#6a4700"/>
    </linearGradient>
    <linearGradient gradientTransform="matrix(0.0682, 0.0, 0.0, -0.0682, -119.85, 57.85)" gradientUnits="userSpaceOnUse" id="gradient2" spreadMethod="pad" x1="-819.2" x2="819.2">
      <stop offset="0.07450980392156863" stop-color="#543800"/>
      <stop offset="0.17647058823529413" stop-color="#e9ca00"/>
      <stop offset="0.43529411764705883" stop-color="#6a4a00"/>
      <stop offset="0.4588235294117647" stop-color="#836300"/>
      <stop offset="0.5058823529411764" stop-color="#af8f00"/>
      <stop offset="0.5490196078431373" stop-color="#ceaf00"/>
      <stop offset="0.5843137254901961" stop-color="#e2c300"/>
      <stop offset="0.6078431372549019" stop-color="#e9ca00"/>
      <stop offset="0.6431372549019608" stop-color="#e9ca00"/>
      <stop offset="0.8196078431372549" stop-color="#fff87f"/>
      <stop offset="0.8784313725490196" stop-color="#e9ca00"/>
      <stop offset="0.984313725490196" stop-color="#6a4700"/>
    </linearGradient>
    <linearGradient gradientTransform="matrix(0.0682, 0.0, 0.0, -0.0682, 119.85, 57.85)" gradientUnits="userSpaceOnUse" id="gradient3" spreadMethod="pad" x1="-819.2" x2="819.2">
      <stop offset="0.07450980392156863" stop-color="#543800"/>
      <stop offset="0.17647058823529413" stop-color="#e9ca00"/>
      <stop offset="0.43529411764705883" stop-color="#6a4a00"/>
      <stop offset="0.4588235294117647" stop-color="#836300"/>
      <stop offset="0.5058823529411764" stop-color="#af8f00"/>
      <stop offset="0.5490196078431373" stop-color="#ceaf00"/>
      <stop offset="0.5843137254901961" stop-color="#e2c300"/>
      <stop offset="0.6078431372549019" stop-color="#e9ca00"/>
      <stop offset="0.6431372549019608" stop-color="#e9ca00"/>
      <stop offset="0.8196078431372549" stop-color="#fff87f"/>
      <stop offset="0.8784313725490196" stop-color="#e9ca00"/>
      <stop offset="0.984313725490196" stop-color="#6a4700"/>
    </linearGradient>
    <linearGradient gradientTransform="matrix(0.0, -0.0126, -0.0126, 0.0, -47.05, 52.75)" gradientUnits="userSpaceOnUse" id="gradient4" spreadMethod="pad" x1="-819.2" x2="819.2">
      <stop offset="0.0" stop-color="#1e120b" stop-opacity="0.0"/>
      <stop offset="0.01568627450980392" stop-color="#23150d" stop-opacity="0.019607844"/>
      <stop offset="0.2235294117647059" stop-color="#653e22" stop-opacity="0.3137255"/>
      <stop offset="0.4196078431372549" stop-color="#9c5f34" stop-opacity="0.5568628"/>
      <stop offset="0.6039215686274509" stop-color="#c77a42" stop-opacity="0.7490196"/>
      <stop offset="0.7647058823529411" stop-color="#e68c4c" stop-opacity="0.8862745"/>
      <stop offset="0.9019607843137255" stop-color="#f89852" stop-opacity="0.96862745"/>
      <stop offset="1.0" stop-color="#ff9c54"/>
    </linearGradient>
  </defs>
</svg>
